<?xml version="1.0" encoding="UTF-8" standalone="no"?>
<!-- Created with Sodipodi ("http://www.sodipodi.com/") -->

<svg
   xmlns:dc="http://purl.org/dc/elements/1.1/"
   xmlns:cc="http://creativecommons.org/ns#"
   xmlns:rdf="http://www.w3.org/1999/02/22-rdf-syntax-ns#"
   xmlns:svg="http://www.w3.org/2000/svg"
   xmlns="http://www.w3.org/2000/svg"
   xmlns:xlink="http://www.w3.org/1999/xlink"
   xmlns:sodipodi="http://sodipodi.sourceforge.net/DTD/sodipodi-0.dtd"
   xmlns:inkscape="http://www.inkscape.org/namespaces/inkscape"
   version="1.0"
   x="0"
   y="0"
   width="255"
   height="255"
   id="svg602"
   sodipodi:version="0.32"
   inkscape:version="0.92.5 (2060ec1f9f, 2020-04-08)"
   sodipodi:docname="mx-codecs.svg"
   inkscape:export-filename="/media/disk-hda4/iconmelo/kmplayer"
   inkscape:export-xdpi="10.971429"
   inkscape:export-ydpi="10.971429">
  <sodipodi:namedview
     pagecolor="#ff0000"
     bordercolor="#666666"
     borderopacity="1"
     objecttolerance="10"
     gridtolerance="10"
     guidetolerance="10"
     inkscape:pageopacity="0"
     inkscape:pageshadow="2"
     inkscape:window-width="640"
     inkscape:window-height="480"
     id="namedview37"
     showgrid="false"
     inkscape:snap-global="false"
     inkscape:zoom="3.4156863"
     inkscape:cx="127.5"
     inkscape:cy="127.5"
     inkscape:current-layer="svg602" />
  <metadata
     id="metadata100">
    <rdf:RDF>
      <cc:Work
         rdf:about="">
        <dc:format>image/svg+xml</dc:format>
        <dc:type
           rdf:resource="http://purl.org/dc/dcmitype/StillImage" />
        <dc:title />
      </cc:Work>
    </rdf:RDF>
  </metadata>
  <defs
     id="defs604">
    <linearGradient
       inkscape:collect="always"
       id="linearGradient862">
      <stop
         style="stop-color:#ffffff;stop-opacity:1;"
         offset="0"
         id="stop858" />
      <stop
         style="stop-color:#000000;stop-opacity:0"
         offset="1"
         id="stop860" />
    </linearGradient>
    <linearGradient
       id="linearGradient848">
      <stop
         stop-opacity="1"
         stop-color="#3f627d"
         id="stop844"
         style="stop-color:#6086a3;stop-opacity:1" />
      <stop
         stop-opacity="1"
         stop-color="#000000"
         id="stop846"
         offset="1" />
    </linearGradient>
    <linearGradient
       id="linearGradient2086">
      <stop
         id="stop2088"
         stop-color="#3f627d"
         stop-opacity="1" />
      <stop
         offset="1"
         id="stop2087"
         stop-color="#000000"
         stop-opacity="1" />
    </linearGradient>
    <linearGradient
       id="linearGradient637">
      <stop
         id="stop638"
         stop-color="#ffffff"
         stop-opacity="0.635" />
      <stop
         offset="1"
         id="stop639"
         stop-color="#ffffff"
         stop-opacity="0.239" />
    </linearGradient>
    <radialGradient
       cx="591.26001"
       cy="862.67999"
       r="586.16998"
       fx="591.26001"
       fy="862.67999"
       id="radialGradient610"
       xlink:href="#linearGradient2086"
       gradientTransform="scale(0.87635495,1.1410901)"
       gradientUnits="userSpaceOnUse" />
    <linearGradient
       x1="426.82999"
       y1="36.833"
       x2="426.82999"
       y2="581.12"
       id="linearGradient636"
       xlink:href="#linearGradient637"
       gradientTransform="matrix(0.27815898,0,0,0.19904337,13.852915,0.98276337)"
       gradientUnits="userSpaceOnUse" />
    <filter
       inkscape:collect="always"
       id="filter1008"
       x="-0.028000001"
       width="1.0549999"
       y="-0.021"
       height="1.0420001"
       style="color-interpolation-filters:sRGB">
      <feGaussianBlur
         inkscape:collect="always"
         stdDeviation="8.75625"
         id="feGaussianBlur1010" />
    </filter>
    <linearGradient
       inkscape:collect="always"
       id="linearGradient3308">
      <stop
         id="stop3310"
         stop-color="#ffffff"
         stop-opacity="1" />
      <stop
         offset="1"
         id="stop3312"
         stop-color="#000000"
         stop-opacity="1" />
    </linearGradient>
    <linearGradient
       id="linearGradient2916">
      <stop
         id="stop2918"
         stop-color="#ffffff"
         stop-opacity="0" />
      <stop
         offset="1"
         id="stop2920"
         stop-color="white"
         stop-opacity="1" />
    </linearGradient>
    <linearGradient
       id="linearGradient2908">
      <stop
         id="stop2910"
         stop-color="#000000"
         stop-opacity="0" />
      <stop
         id="stop2912"
         offset="1"
         stop-color="#000000"
         stop-opacity="1" />
    </linearGradient>
    <linearGradient
       y2="106.26"
       x2="55.279999"
       y1="101.01"
       x1="126.01"
       gradientTransform="matrix(0,0.64316642,0.64302988,0,-144.59349,16.081756)"
       gradientUnits="userSpaceOnUse"
       id="linearGradient3300"
       xlink:href="#linearGradient2916"
       inkscape:collect="always" />
    <linearGradient
       y2="65.029999"
       x2="175.78"
       y1="98.860001"
       x1="126.64"
       gradientTransform="matrix(0,0.64316642,0.64302988,0,-144.56668,14.172003)"
       gradientUnits="userSpaceOnUse"
       id="linearGradient3303"
       xlink:href="#linearGradient2908"
       inkscape:collect="always" />
    <linearGradient
       y2="103.91"
       x2="69.5"
       y1="108.85"
       x1="238.07001"
       gradientTransform="matrix(0,0.64316642,0.64302988,0,-144.7557,15.510153)"
       gradientUnits="userSpaceOnUse"
       id="linearGradient3306"
       xlink:href="#linearGradient3308"
       inkscape:collect="always" />
    <radialGradient
       inkscape:collect="always"
       xlink:href="#linearGradient848"
       id="radialGradient844"
       gradientUnits="userSpaceOnUse"
       gradientTransform="scale(0.87635495,1.1410901)"
       cx="591.26001"
       cy="862.67999"
       fx="591.26001"
       fy="862.67999"
       r="586.16998" />
    <linearGradient
       inkscape:collect="always"
       xlink:href="#linearGradient862"
       id="linearGradient864"
       x1="-46.76553"
       y1="116.87422"
       x2="-59.988049"
       y2="107.94202"
       gradientUnits="userSpaceOnUse" />
  </defs>
  <path
     d="m 162.15618,59.893704 c -26.9375,0 -48.625,21.687502 -48.625,48.687506 v 894.12499 c 0,26.9375 21.6875,48.625 48.625,48.625 h 662.5625 c 26.9375,0 48.625,-21.6875 48.625,-48.625 V 108.58121 c 0,-27.000004 -21.6875,-48.687506 -48.625,-48.687506 z m -17.25,30.0625 h 131.875 v 79.125006 h -131.875 z m 564.125,0 h 131.875 v 79.125006 h -131.875 z m -564.125,121.500006 h 131.875 v 79.125 h -131.875 z m 564.125,0 h 131.875 v 79.125 h -131.875 z m -564.125,121.5 h 131.875 v 79.125 h -131.875 z m 564.125,0 h 131.875 v 79.125 h -131.875 z m -589.0625,106.625 h 2.0625 c -0.6875,1.25 -1.375,2.4375 -2.0625,3.6875 z m 24.9375,14.8125 h 131.875 v 0.0625 79.0625 0.125 h -131.875 v -0.125 -79.0625 z m 564.125,0 h 131.875 v 0.0625 79.0625 0.125 h -131.875 v -0.125 -79.0625 z m -564.125,121.5 h 131.875 v 0.0625 79.0625 0.125 h -131.875 v -0.125 -79.0625 z m 564.125,0 h 131.875 v 0.0625 79.0625 0.125 h -131.875 v -0.125 -79.0625 z m -564.125,121.5 h 131.875 v 79.125 h -131.875 z m 564.125,0 h 131.875 v 79.125 h -131.875 z m -564.125,121.5 h 131.875 v 79.1875 h -131.875 z m 564.125,0 h 131.875 v 79.1875 h -131.875 z m -564.125,121.5 h 131.875 v 79.18749 h -131.875 z m 564.125,0 h 131.875 v 79.18749 h -131.875 z"
     id="path962"
     inkscape:connector-curvature="0"
     transform="matrix(0.23529917,0,0,0.23529917,10.176365,2.0857262)"
     font-size="12"
     style="font-size:12px;fill:#000000;fill-opacity:0.66500005;fill-rule:evenodd;stroke-width:6.9380002;filter:url(#filter1008)" />
  <g
     transform="matrix(0.23529917,0,0,0.23529917,14.131138,1.2609932)"
     id="g2127"
     font-size="12"
     style="font-size:12px;fill-opacity:0.231;stroke-width:6.9380002">
    <path
       d="m 186.875,20.6875 c -26.9375,0 -48.625,21.6875 -48.625,48.6875 V 963.5 c 0,26.9375 21.6875,48.625 48.625,48.625 h 662.5625 c 26.9375,0 48.625,-21.6875 48.625,-48.625 V 69.375 c 0,-27 -21.6875,-48.6875 -48.625,-48.6875 z M 733.75,50.75 v 79.125 H 865.625 V 50.75 Z m 0,121.5 v 79.125 H 865.625 V 172.25 Z m 0,121.5 v 79.125 H 865.625 V 293.75 Z m 0,121.5 v 79.0625 0.125 h 131.875 v -0.125 -79.0625 -0.0625 H 733.75 Z m 0,121.5 v 79.0625 0.125 h 131.875 v -0.125 -79.0625 -0.0625 H 733.75 Z m -564.125,-486 v 79.125 H 301.5 V 50.75 Z m 0,121.5 v 79.125 H 301.5 V 172.25 Z m 0,121.5 v 79.125 H 301.5 V 293.75 Z m 0,121.5 v 79.0625 0.125 H 301.5 v -0.125 -79.0625 -0.0625 H 169.625 Z m 0,121.5 v 79.0625 0.125 H 301.5 v -0.125 -79.0625 -0.0625 H 169.625 Z M 144.6875,400.375 v 3.6875 c 0.6875,-1.25 1.375,-2.4375 2.0625,-3.6875 z M 169.625,901.1875 V 980.375 H 301.5 v -79.1875 z m 0,-121.5 V 858.875 H 301.5 v -79.1875 z m 564.125,-121.5 v 79.125 h 131.875 v -79.125 z m 0,121.5 v 79.1875 h 131.875 v -79.1875 z m 0,121.5 v 79.1875 h 131.875 v -79.1875 z m -564.125,-243 v 79.125 H 301.5 v -79.125 z"
       id="path2157"
       inkscape:connector-curvature="0"
       style="fill-rule:evenodd" />
  </g>
  <g
     id="g2052"
     transform="matrix(0.23529917,0,0,0.23529917,13.852915,0.98276037)"
     font-size="12"
     style="font-size:12px;fill:url(#radialGradient610);stroke:#000000;stroke-width:6.9380002">
    <path
       d="m 186.875,20.6875 c -26.9375,0 -48.625,21.6875 -48.625,48.6875 V 963.5 c 0,26.9375 21.6875,48.625 48.625,48.625 h 662.5625 c 26.9375,0 48.625,-21.6875 48.625,-48.625 V 69.375 c 0,-27 -21.6875,-48.6875 -48.625,-48.6875 z M 733.75,50.75 v 79.125 H 865.625 V 50.75 Z m 0,121.5 v 79.125 H 865.625 V 172.25 Z m 0,121.5 v 79.125 H 865.625 V 293.75 Z m 0,121.5 v 79.0625 0.125 h 131.875 v -0.125 -79.0625 -0.0625 H 733.75 Z m 0,121.5 v 79.0625 0.125 h 131.875 v -0.125 -79.0625 -0.0625 H 733.75 Z m -564.125,-486 v 79.125 H 301.5 V 50.75 Z m 0,121.5 v 79.125 H 301.5 V 172.25 Z m 0,121.5 v 79.125 H 301.5 V 293.75 Z m 0,121.5 v 79.0625 0.125 H 301.5 v -0.125 -79.0625 -0.0625 H 169.625 Z m 0,121.5 v 79.0625 0.125 H 301.5 v -0.125 -79.0625 -0.0625 H 169.625 Z M 144.6875,400.375 v 3.6875 c 0.6875,-1.25 1.375,-2.4375 2.0625,-3.6875 z M 169.625,901.1875 V 980.375 H 301.5 v -79.1875 z m 0,-121.5 V 858.875 H 301.5 v -79.1875 z m 564.125,-121.5 v 79.125 h 131.875 v -79.125 z m 0,121.5 v 79.1875 h 131.875 v -79.1875 z m 0,121.5 v 79.1875 h 131.875 v -79.1875 z m -564.125,-243 v 79.125 H 301.5 v -79.125 z"
       id="path2015"
       inkscape:connector-curvature="0"
       style="fill:url(#radialGradient844);fill-rule:evenodd" />
  </g>
  <path
     d="m 57.16589,8.3141631 c -4.55233,0 -8.21735,3.6649749 -8.21735,8.2174479 V 123.56302 c 0,4.55233 3.7189,8.91642 8.21735,8.21735 38.257295,-5.94413 77.25836,-17.83262 114.7721,-17.83262 14.68361,0 27.88013,11.88849 41.82043,17.83262 4.18762,1.78569 8.21735,-3.66502 8.21735,-8.21735 V 16.531611 c 0,-4.552473 -3.66501,-8.2174479 -8.21735,-8.2174479 z"
     id="path647"
     inkscape:connector-curvature="0"
     font-size="12"
     style="font-size:12px;fill:url(#linearGradient636);fill-rule:evenodd;stroke-width:0.23533696" />
  <g
     id="g869"
     transform="translate(208.45006,0.29276693)">
    <path
       inkscape:connector-curvature="0"
       sodipodi:nodetypes="cccc"
       id="path2002"
       d="m -140.98587,61.700303 64.715305,97.407807 64.401161,-97.722026 z"
       style="fill:url(#linearGradient3306);fill-opacity:1;fill-rule:evenodd;stroke:url(#linearGradient864);stroke-width:1;stroke-linecap:butt;stroke-linejoin:miter;stroke-miterlimit:4;stroke-dasharray:none;stroke-opacity:1" />
    <path
       inkscape:connector-curvature="0"
       sodipodi:nodetypes="cccc"
       d="m -140.44011,61.984146 63.224708,97.937064 64.419351,-97.641434 z"
       id="path2898"
       style="fill:url(#linearGradient3303);fill-opacity:1;fill-rule:evenodd;stroke:none;stroke-width:0.52920943;stroke-linecap:butt;stroke-linejoin:miter;stroke-opacity:1" />
    <path
       inkscape:connector-curvature="0"
       sodipodi:nodetypes="cccc"
       d="m -140.82366,62.271905 64.715296,97.124335 64.40116,-97.438557 z"
       id="path2914"
       style="fill:url(#linearGradient3300);fill-opacity:1;fill-rule:evenodd;stroke:none;stroke-width:0.52920943;stroke-linecap:butt;stroke-linejoin:miter;stroke-opacity:1" />
  </g>
</svg>
