<?xml version="1.0" encoding="UTF-8" standalone="no"?>
<!-- Created with Inkscape (http://www.inkscape.org/) -->

<svg
   xmlns:dc="http://purl.org/dc/elements/1.1/"
   xmlns:cc="http://creativecommons.org/ns#"
   xmlns:rdf="http://www.w3.org/1999/02/22-rdf-syntax-ns#"
   xmlns:svg="http://www.w3.org/2000/svg"
   xmlns="http://www.w3.org/2000/svg"
   xmlns:xlink="http://www.w3.org/1999/xlink"
   xmlns:sodipodi="http://sodipodi.sourceforge.net/DTD/sodipodi-0.dtd"
   xmlns:inkscape="http://www.inkscape.org/namespaces/inkscape"
   width="255"
   height="255"
   viewBox="0 0 67.468749 67.468749"
   version="1.1"
   id="svg8"
   inkscape:version="0.92.5 (2060ec1f9f, 2020-04-08)"
   sodipodi:docname="smplayer.svg">
  <defs
     id="defs2">
    <linearGradient
       id="linearGradient1045"
       inkscape:collect="always">
      <stop
         id="stop1037"
         stop-color="#ff0014"
         stop-opacity="1" />
      <stop
         offset="0.758"
         id="stop1039"
         stop-color="#560100"
         stop-opacity="0.996" />
      <stop
         offset="0.94"
         id="stop1041"
         stop-color="#ff797e"
         stop-opacity="0.996" />
      <stop
         id="stop1043"
         offset="1"
         stop-color="#ff000c"
         stop-opacity="0.996" />
    </linearGradient>
    <clipPath
       clipPathUnits="userSpaceOnUse"
       id="clipPath2059">
      <path
         d="m -10.099732,231.68531 c 3.5587363,2.50616 4.8319716,-0.58528 2.9651647,-3.064 -3.1818907,-4.22486 -6.4443207,-9.83985 -12.3548527,-15.91305 -2.594516,-2.66865 -11.860659,-7.80827 -11.860659,-7.80827 0,0 -0.115438,-2.18844 -0.09884,-3.064 0.01106,-0.582 -0.565687,-0.56369 -0.889553,-0.29652 -0.782426,0.64546 -2.47097,2.56981 -2.47097,2.56981 l -1.68026,-0.0988 -1.087226,-1.58142 c -0.296516,-0.41055 -0.636056,-0.34641 -0.88955,0 -0.545383,1.84962 -0.878698,3.8848 -3.459359,3.95355 l 4.447747,3.95356 c 7.76561,1.55335 15.578734,5.58545 20.261957,14.33163 0,0 4.526451,5.19364 7.116396,7.01755 z"
         id="path2061"
         sodipodi:nodetypes="csscsscccccccs"
         inkscape:connector-curvature="0"
         stroke-dasharray="none"
         stroke-opacity="1"
         fill="#ffffff"
         fill-rule="evenodd"
         stroke="none"
         stroke-linejoin="miter"
         fill-opacity="1"
         stroke-linecap="butt"
         stroke-width="0.048"
         stroke-miterlimit="4" />
    </clipPath>
    <clipPath
       id="clipPath2059-5"
       clipPathUnits="userSpaceOnUse">
      <path
         stroke-miterlimit="4"
         stroke-width="0.048"
         stroke-linecap="butt"
         fill-opacity="1"
         stroke-linejoin="miter"
         stroke="none"
         fill-rule="evenodd"
         fill="#ffffff"
         stroke-opacity="1"
         stroke-dasharray="none"
         inkscape:connector-curvature="0"
         sodipodi:nodetypes="csscsscccccccs"
         id="path2061-3"
         d="m -10.099732,231.68531 c 3.5587363,2.50616 4.8319716,-0.58528 2.9651647,-3.064 -3.1818907,-4.22486 -6.4443207,-9.83985 -12.3548527,-15.91305 -2.594516,-2.66865 -11.860659,-7.80827 -11.860659,-7.80827 0,0 -0.115438,-2.18844 -0.09884,-3.064 0.01106,-0.582 -0.565687,-0.56369 -0.889553,-0.29652 -0.782426,0.64546 -2.47097,2.56981 -2.47097,2.56981 l -1.68026,-0.0988 -1.087226,-1.58142 c -0.296516,-0.41055 -0.636056,-0.34641 -0.88955,0 -0.545383,1.84962 -0.878698,3.8848 -3.459359,3.95355 l 4.447747,3.95356 c 7.76561,1.55335 15.578734,5.58545 20.261957,14.33163 0,0 4.526451,5.19364 7.116396,7.01755 z" />
    </clipPath>
    <clipPath
       id="clipPath">
      <path
         fill-opacity="0.95"
         stroke="none"
         fill="#1b1b1b"
         sodipodi:nodetypes="csssscc"
         inkscape:connector-curvature="0"
         id="rect5264"
         d="m -515.73002,435.56445 v 5.83767 c 0,9.74315 -7.84377,17.58692 -17.58692,17.58692 h -135.05122 c -9.74315,0 -17.58692,-7.84377 -17.58692,-17.58692 v -5.83767 z" />
    </clipPath>
    <clipPath
       clipPathUnits="userSpaceOnUse"
       id="clipPath2059-7">
      <path
         d="m -10.099732,231.68531 c 3.5587363,2.50616 4.8319716,-0.58528 2.9651647,-3.064 -3.1818907,-4.22486 -6.4443207,-9.83985 -12.3548527,-15.91305 -2.594516,-2.66865 -11.860659,-7.80827 -11.860659,-7.80827 0,0 -0.115438,-2.18844 -0.09884,-3.064 0.01106,-0.582 -0.565687,-0.56369 -0.889553,-0.29652 -0.782426,0.64546 -2.47097,2.56981 -2.47097,2.56981 l -1.68026,-0.0988 -1.087226,-1.58142 c -0.296516,-0.41055 -0.636056,-0.34641 -0.88955,0 -0.545383,1.84962 -0.878698,3.8848 -3.459359,3.95355 l 4.447747,3.95356 c 7.76561,1.55335 15.578734,5.58545 20.261957,14.33163 0,0 4.526451,5.19364 7.116396,7.01755 z"
         id="path2061-5"
         sodipodi:nodetypes="csscsscccccccs"
         inkscape:connector-curvature="0"
         stroke-dasharray="none"
         stroke-opacity="1"
         fill="#ffffff"
         fill-rule="evenodd"
         stroke="none"
         stroke-linejoin="miter"
         fill-opacity="1"
         stroke-linecap="butt"
         stroke-width="0.048"
         stroke-miterlimit="4" />
    </clipPath>
    <clipPath
       clipPathUnits="userSpaceOnUse"
       id="clipPath1162">
      <path
         stroke-miterlimit="4"
         stroke-width="0.071"
         stroke-linecap="round"
         fill-opacity="0.347"
         stroke-linejoin="round"
         stroke="none"
         fill="#000000"
         stroke-opacity="1"
         stroke-dasharray="none"
         inkscape:connector-curvature="0"
         d="m -65.649736,239.84563 c -9.358079,0 -16.951888,7.59381 -16.951888,16.95188 0,9.35808 7.593811,16.94076 16.951888,16.94077 0.292439,0 0.578792,-0.008 0.867614,-0.0222 2.122786,-0.10753 4.148336,-0.60587 5.995453,-1.42378 l 2.669587,3.97101 c -0.225515,0.4951 -0.245107,0.96445 -0.01111,1.31255 l 15.67271,23.32553 c 0.495366,0.73695 1.94415,0.6317 3.247998,-0.24471 1.303846,-0.87642 1.96364,-2.17735 1.468276,-2.9143 L -51.42304,274.4168 c -0.233058,-0.34672 -0.682887,-0.49868 -1.22356,-0.47831 l -2.558357,-3.80416 c 3.95991,-3.10036 6.507123,-7.91951 6.507123,-13.33682 0,-9.35807 -7.593809,-16.95188 -16.951889,-16.95188 z m 0,2.5806 c 7.92884,0 14.371283,6.44244 14.371283,14.37128 0,7.92885 -6.442435,14.36016 -14.371283,14.36016 -7.928851,0 -14.349039,-6.43131 -14.349039,-14.36016 0,-0.24777 -0.0013,-0.48941 0.01111,-0.73413 0.384376,-7.58638 6.656848,-13.63715 14.337916,-13.63715 z"
         id="path1164" />
    </clipPath>
    <clipPath
       id="clipPath2059-75"
       clipPathUnits="userSpaceOnUse">
      <path
         stroke-miterlimit="4"
         stroke-width="0.048"
         stroke-linecap="butt"
         fill-opacity="1"
         stroke-linejoin="miter"
         stroke="none"
         fill-rule="evenodd"
         fill="#ffffff"
         stroke-opacity="1"
         stroke-dasharray="none"
         inkscape:connector-curvature="0"
         sodipodi:nodetypes="csscsscccccccs"
         id="path2061-35"
         d="m -10.099732,231.68531 c 3.5587363,2.50616 4.8319716,-0.58528 2.9651647,-3.064 -3.1818907,-4.22486 -6.4443207,-9.83985 -12.3548527,-15.91305 -2.594516,-2.66865 -11.860659,-7.80827 -11.860659,-7.80827 0,0 -0.115438,-2.18844 -0.09884,-3.064 0.01106,-0.582 -0.565687,-0.56369 -0.889553,-0.29652 -0.782426,0.64546 -2.47097,2.56981 -2.47097,2.56981 l -1.68026,-0.0988 -1.087226,-1.58142 c -0.296516,-0.41055 -0.636056,-0.34641 -0.88955,0 -0.545383,1.84962 -0.878698,3.8848 -3.459359,3.95355 l 4.447747,3.95356 c 7.76561,1.55335 15.578734,5.58545 20.261957,14.33163 0,0 4.526451,5.19364 7.116396,7.01755 z" />
    </clipPath>
    <clipPath
       clipPathUnits="userSpaceOnUse"
       id="clipPath2059-5-6">
      <path
         d="m -10.099732,231.68531 c 3.5587363,2.50616 4.8319716,-0.58528 2.9651647,-3.064 -3.1818907,-4.22486 -6.4443207,-9.83985 -12.3548527,-15.91305 -2.594516,-2.66865 -11.860659,-7.80827 -11.860659,-7.80827 0,0 -0.115438,-2.18844 -0.09884,-3.064 0.01106,-0.582 -0.565687,-0.56369 -0.889553,-0.29652 -0.782426,0.64546 -2.47097,2.56981 -2.47097,2.56981 l -1.68026,-0.0988 -1.087226,-1.58142 c -0.296516,-0.41055 -0.636056,-0.34641 -0.88955,0 -0.545383,1.84962 -0.878698,3.8848 -3.459359,3.95355 l 4.447747,3.95356 c 7.76561,1.55335 15.578734,5.58545 20.261957,14.33163 0,0 4.526451,5.19364 7.116396,7.01755 z"
         id="path2061-3-2"
         sodipodi:nodetypes="csscsscccccccs"
         inkscape:connector-curvature="0"
         stroke-dasharray="none"
         stroke-opacity="1"
         fill="#ffffff"
         fill-rule="evenodd"
         stroke="none"
         stroke-linejoin="miter"
         fill-opacity="1"
         stroke-linecap="butt"
         stroke-width="0.048"
         stroke-miterlimit="4" />
    </clipPath>
    <clipPath
       id="clipPath-9">
      <path
         d="m -515.73002,435.56445 v 5.83767 c 0,9.74315 -7.84377,17.58692 -17.58692,17.58692 h -135.05122 c -9.74315,0 -17.58692,-7.84377 -17.58692,-17.58692 v -5.83767 z"
         id="rect5264-1"
         inkscape:connector-curvature="0"
         sodipodi:nodetypes="csssscc"
         fill="#1b1b1b"
         stroke="none"
         fill-opacity="0.95" />
    </clipPath>
    <clipPath
       id="clipPath2059-7-2"
       clipPathUnits="userSpaceOnUse">
      <path
         stroke-miterlimit="4"
         stroke-width="0.048"
         stroke-linecap="butt"
         fill-opacity="1"
         stroke-linejoin="miter"
         stroke="none"
         fill-rule="evenodd"
         fill="#ffffff"
         stroke-opacity="1"
         stroke-dasharray="none"
         inkscape:connector-curvature="0"
         sodipodi:nodetypes="csscsscccccccs"
         id="path2061-5-7"
         d="m -10.099732,231.68531 c 3.5587363,2.50616 4.8319716,-0.58528 2.9651647,-3.064 -3.1818907,-4.22486 -6.4443207,-9.83985 -12.3548527,-15.91305 -2.594516,-2.66865 -11.860659,-7.80827 -11.860659,-7.80827 0,0 -0.115438,-2.18844 -0.09884,-3.064 0.01106,-0.582 -0.565687,-0.56369 -0.889553,-0.29652 -0.782426,0.64546 -2.47097,2.56981 -2.47097,2.56981 l -1.68026,-0.0988 -1.087226,-1.58142 c -0.296516,-0.41055 -0.636056,-0.34641 -0.88955,0 -0.545383,1.84962 -0.878698,3.8848 -3.459359,3.95355 l 4.447747,3.95356 c 7.76561,1.55335 15.578734,5.58545 20.261957,14.33163 0,0 4.526451,5.19364 7.116396,7.01755 z" />
    </clipPath>
    <clipPath
       id="clipPath1162-0"
       clipPathUnits="userSpaceOnUse">
      <path
         id="path1164-9"
         d="m -65.649736,239.84563 c -9.358079,0 -16.951888,7.59381 -16.951888,16.95188 0,9.35808 7.593811,16.94076 16.951888,16.94077 0.292439,0 0.578792,-0.008 0.867614,-0.0222 2.122786,-0.10753 4.148336,-0.60587 5.995453,-1.42378 l 2.669587,3.97101 c -0.225515,0.4951 -0.245107,0.96445 -0.01111,1.31255 l 15.67271,23.32553 c 0.495366,0.73695 1.94415,0.6317 3.247998,-0.24471 1.303846,-0.87642 1.96364,-2.17735 1.468276,-2.9143 L -51.42304,274.4168 c -0.233058,-0.34672 -0.682887,-0.49868 -1.22356,-0.47831 l -2.558357,-3.80416 c 3.95991,-3.10036 6.507123,-7.91951 6.507123,-13.33682 0,-9.35807 -7.593809,-16.95188 -16.951889,-16.95188 z m 0,2.5806 c 7.92884,0 14.371283,6.44244 14.371283,14.37128 0,7.92885 -6.442435,14.36016 -14.371283,14.36016 -7.928851,0 -14.349039,-6.43131 -14.349039,-14.36016 0,-0.24777 -0.0013,-0.48941 0.01111,-0.73413 0.384376,-7.58638 6.656848,-13.63715 14.337916,-13.63715 z"
         inkscape:connector-curvature="0"
         stroke-dasharray="none"
         stroke-opacity="1"
         fill="#000000"
         stroke="none"
         stroke-linejoin="round"
         fill-opacity="0.347"
         stroke-linecap="round"
         stroke-width="0.071"
         stroke-miterlimit="4" />
    </clipPath>
    <linearGradient
       inkscape:collect="always"
       id="linearGradient1048">
      <stop
         id="stop1044"
         stop-color="#ffffff"
         stop-opacity="0.724" />
      <stop
         offset="1"
         id="stop1046"
         stop-color="#ffffff"
         stop-opacity="0" />
    </linearGradient>
    <linearGradient
       inkscape:collect="always"
       id="linearGradient4703">
      <stop
         id="stop4699"
         stop-color="#d4d4d4"
         stop-opacity="1" />
      <stop
         offset="1"
         id="stop4701"
         stop-color="#1d1d1d"
         stop-opacity="1" />
    </linearGradient>
    <linearGradient
       id="linearGradient4697"
       inkscape:collect="always">
      <stop
         id="stop4693"
         stop-color="#444444"
         stop-opacity="1" />
      <stop
         id="stop4695"
         offset="1"
         stop-color="#3b3b3b"
         stop-opacity="1" />
    </linearGradient>
    <linearGradient
       inkscape:collect="always"
       id="linearGradient4663">
      <stop
         id="stop4659"
         stop-color="#ffffff"
         stop-opacity="1" />
      <stop
         id="stop4671"
         offset="0.81"
         stop-color="#363636"
         stop-opacity="1" />
      <stop
         id="stop4669"
         offset="0.852"
         stop-color="#000000"
         stop-opacity="1" />
      <stop
         id="stop4667"
         offset="0.926"
         stop-color="#969696"
         stop-opacity="1" />
      <stop
         offset="1"
         id="stop4661"
         stop-color="#363636"
         stop-opacity="1" />
    </linearGradient>
    <linearGradient
       inkscape:collect="always"
       id="linearGradient4653">
      <stop
         id="stop4649"
         stop-color="#ffffff"
         stop-opacity="1" />
      <stop
         offset="1"
         id="stop4651"
         stop-color="#ffffff"
         stop-opacity="0.013" />
    </linearGradient>
    <linearGradient
       inkscape:collect="always"
       id="linearGradient4643">
      <stop
         id="stop4639"
         stop-color="#444444"
         stop-opacity="1" />
      <stop
         offset="1"
         id="stop4641"
         stop-color="#222222"
         stop-opacity="1" />
    </linearGradient>
    <linearGradient
       inkscape:collect="always"
       id="linearGradient930">
      <stop
         id="stop926"
         stop-color="#ffffff"
         stop-opacity="0.116" />
      <stop
         offset="1"
         id="stop928"
         stop-color="#ffffff"
         stop-opacity="0" />
    </linearGradient>
    <linearGradient
       id="linearGradient924"
       inkscape:collect="always">
      <stop
         id="stop920"
         stop-color="#000000"
         stop-opacity="1" />
      <stop
         id="stop922"
         offset="1"
         stop-color="#000000"
         stop-opacity="1" />
    </linearGradient>
    <linearGradient
       id="linearGradient910"
       inkscape:collect="always">
      <stop
         id="stop904"
         stop-color="#ffffff"
         stop-opacity="0.188" />
      <stop
         id="stop908"
         offset="1"
         stop-color="#ffffff"
         stop-opacity="0" />
    </linearGradient>
    <linearGradient
       inkscape:collect="always"
       id="linearGradient898">
      <stop
         id="stop894"
         stop-color="#000000"
         stop-opacity="1" />
      <stop
         id="stop902"
         offset="0.516"
         stop-color="#333333"
         stop-opacity="1" />
      <stop
         offset="1"
         id="stop896"
         stop-color="#000000"
         stop-opacity="1" />
    </linearGradient>
    <linearGradient
       inkscape:collect="always"
       id="linearGradient835">
      <stop
         id="stop831"
         stop-color="#afafaf"
         stop-opacity="1" />
      <stop
         offset="1"
         id="stop833"
         stop-color="#000000"
         stop-opacity="1" />
    </linearGradient>
    <linearGradient
       inkscape:collect="always"
       xlink:href="#linearGradient835"
       id="linearGradient837"
       x1="662.56"
       y1="368.42"
       x2="798.85"
       y2="534.21"
       gradientUnits="userSpaceOnUse"
       gradientTransform="matrix(0.06445531,0,0,0.06445531,-8.2184298,238.85837)"
       spreadMethod="reflect" />
    <filter
       inkscape:collect="always"
       id="filter1045"
       x="-0.023"
       width="1.046"
       y="-0.025"
       height="1.05"
       color-interpolation-filters="sRGB">
      <feGaussianBlur
         inkscape:collect="always"
         stdDeviation="1.63307"
         id="feGaussianBlur1047" />
    </filter>
    <filter
       inkscape:collect="always"
       id="filter886"
       x="-0.048"
       width="1.095"
       y="-0.029"
       height="1.058"
       color-interpolation-filters="sRGB">
      <feGaussianBlur
         inkscape:collect="always"
         stdDeviation="2.73201"
         id="feGaussianBlur888" />
    </filter>
    <linearGradient
       inkscape:collect="always"
       xlink:href="#linearGradient898"
       id="linearGradient900"
       x1="731.13"
       y1="666.98"
       x2="718.87"
       y2="253.77"
       gradientUnits="userSpaceOnUse"
       spreadMethod="reflect"
       gradientTransform="matrix(0.06445531,0,0,0.06445531,-8.4832655,238.50464)" />
    <linearGradient
       inkscape:collect="always"
       xlink:href="#linearGradient930"
       id="linearGradient912"
       x1="612.19"
       y1="394.34"
       x2="612.22"
       y2="462.26"
       gradientUnits="userSpaceOnUse"
       gradientTransform="translate(-4.0677297,7.9132712)" />
    <linearGradient
       inkscape:collect="always"
       xlink:href="#linearGradient924"
       id="linearGradient918"
       x1="528.09"
       y1="496.28"
       x2="636.97"
       y2="470.33"
       gradientUnits="userSpaceOnUse" />
    <linearGradient
       inkscape:collect="always"
       xlink:href="#linearGradient910"
       id="linearGradient932"
       x1="588.65"
       y1="385.9"
       x2="569.54"
       y2="522.57"
       gradientUnits="userSpaceOnUse" />
    <linearGradient
       inkscape:collect="always"
       xlink:href="#linearGradient4643"
       id="linearGradient4645"
       x1="752.1"
       y1="691.45"
       x2="711.79"
       y2="225.76"
       gradientUnits="userSpaceOnUse"
       gradientTransform="matrix(0.06445531,0,0,0.06445531,-8.2747141,238.23625)" />
    <radialGradient
       inkscape:collect="always"
       xlink:href="#linearGradient4653"
       id="radialGradient4655"
       cx="696.43"
       cy="434.72"
       fx="696.43"
       fy="434.72"
       r="105.41"
       gradientUnits="userSpaceOnUse"
       gradientTransform="matrix(0.06115229,-0.03940008,0.02089528,0.03243125,-14.236648,278.68968)" />
    <radialGradient
       inkscape:collect="always"
       xlink:href="#linearGradient4663"
       id="radialGradient4665"
       cx="723.34"
       cy="462.15"
       fx="723.34"
       fy="462.15"
       r="288.11"
       gradientUnits="userSpaceOnUse"
       gradientTransform="matrix(0.06445531,0,0,0.06445531,-7.9810774,238.26887)" />
    <linearGradient
       inkscape:collect="always"
       xlink:href="#linearGradient4643"
       id="linearGradient4675"
       gradientUnits="userSpaceOnUse"
       gradientTransform="matrix(0.08481659,0,0,0.08481659,-23.095616,228.81601)"
       x1="752.1"
       y1="691.45"
       x2="711.79"
       y2="225.76" />
    <linearGradient
       inkscape:collect="always"
       xlink:href="#linearGradient4697"
       id="linearGradient4679"
       gradientUnits="userSpaceOnUse"
       gradientTransform="matrix(0.1029465,0,0,0.1029465,-36.29231,220.42812)"
       x1="752.1"
       y1="691.45"
       x2="711.79"
       y2="225.76" />
    <linearGradient
       inkscape:collect="always"
       xlink:href="#linearGradient4703"
       id="linearGradient4705"
       x1="625.05"
       y1="98.71"
       x2="869.21"
       y2="812.43"
       gradientUnits="userSpaceOnUse"
       gradientTransform="matrix(0.06445531,0,0,0.06445531,-7.9810774,238.26887)" />
    <filter
       inkscape:collect="always"
       id="filter4717"
       x="-0.024"
       width="1.048"
       y="-0.024"
       height="1.048"
       color-interpolation-filters="sRGB">
      <feGaussianBlur
         inkscape:collect="always"
         stdDeviation="7.44007"
         id="feGaussianBlur4719" />
    </filter>
    <linearGradient
       id="linearGradient1118"
       inkscape:collect="always">
      <stop
         id="stop1114"
         stop-color="#52ff57"
         stop-opacity="0" />
      <stop
         id="stop1116"
         offset="1"
         stop-color="#025d05"
         stop-opacity="0.676" />
    </linearGradient>
    <linearGradient
       id="linearGradient921"
       inkscape:collect="always">
      <stop
         id="stop917"
         stop-color="#560002"
         stop-opacity="1" />
      <stop
         id="stop919"
         offset="1"
         stop-color="#560200"
         stop-opacity="0" />
    </linearGradient>
    <linearGradient
       id="linearGradient905"
       inkscape:collect="always">
      <stop
         id="stop901"
         stop-color="#025600"
         stop-opacity="1" />
      <stop
         offset="0.887"
         id="stop909"
         stop-color="#013300"
         stop-opacity="1" />
      <stop
         id="stop903"
         offset="1"
         stop-color="#025600"
         stop-opacity="0.108" />
    </linearGradient>
    <linearGradient
       inkscape:collect="always"
       id="linearGradient848">
      <stop
         id="stop882"
         stop-color="#ff0010"
         stop-opacity="1" />
      <stop
         offset="1"
         id="stop884"
         stop-color="#7c0001"
         stop-opacity="0" />
    </linearGradient>
    <linearGradient
       id="linearGradient856"
       inkscape:collect="always">
      <stop
         id="stop852"
         stop-color="#eb5b52"
         stop-opacity="1" />
      <stop
         id="stop854"
         offset="1"
         stop-color="#320003"
         stop-opacity="1" />
    </linearGradient>
    <linearGradient
       id="linearGradient848-3"
       inkscape:collect="always">
      <stop
         id="stop844"
         stop-color="#ff8e92"
         stop-opacity="1" />
      <stop
         id="stop846"
         offset="1"
         stop-color="#440000"
         stop-opacity="1" />
    </linearGradient>
    <radialGradient
       gradientUnits="userSpaceOnUse"
       gradientTransform="matrix(0.02916374,0,0,0.01944249,-119.06215,217.25737)"
       r="374.35"
       fy="1737.84"
       fx="-228.41"
       cy="1737.84"
       cx="-228.41"
       id="radialGradient850"
       xlink:href="#linearGradient848-3"
       inkscape:collect="always" />
    <linearGradient
       gradientTransform="matrix(0.04192287,0,0,0.02916374,-56.924847,227.0333)"
       spreadMethod="reflect"
       gradientUnits="userSpaceOnUse"
       y2="944.23"
       x2="795.01"
       y1="944.23"
       x1="758.99"
       id="linearGradient858"
       xlink:href="#linearGradient856"
       inkscape:collect="always" />
    <radialGradient
       gradientUnits="userSpaceOnUse"
       gradientTransform="matrix(0.54014774,0.02538536,-0.030734,0.65395602,-139.98159,-687.42899)"
       r="186.2"
       fy="1240.86"
       fx="513.5"
       cy="1240.86"
       cx="513.5"
       id="radialGradient878"
       xlink:href="#linearGradient1045"
       inkscape:collect="always" />
    <radialGradient
       r="374.35"
       fy="2180.88"
       fx="-124.78"
       cy="2180.88"
       cx="-124.78"
       gradientTransform="matrix(0.02916374,0,0,0.01944249,-118.91954,217.20137)"
       gradientUnits="userSpaceOnUse"
       id="radialGradient887"
       xlink:href="#linearGradient848"
       inkscape:collect="always" />
    <radialGradient
       r="153.84"
       fy="878.36"
       fx="559.73"
       cy="878.36"
       cx="559.73"
       gradientTransform="matrix(0.39228938,0.01018253,-0.01078898,0.41565358,-87.786659,-235.396)"
       gradientUnits="userSpaceOnUse"
       id="radialGradient913"
       xlink:href="#linearGradient905"
       inkscape:collect="always" />
    <linearGradient
       gradientTransform="matrix(0.11288854,0,0,0.11288854,44.578854,11.846369)"
       gradientUnits="userSpaceOnUse"
       y2="280.18"
       x2="832.5"
       y1="280.18"
       x1="773.87"
       id="linearGradient923"
       xlink:href="#linearGradient921"
       inkscape:collect="always" />
    <filter
       height="1.15"
       y="-0.075"
       width="1.266"
       x="-0.133"
       id="filter1013"
       inkscape:collect="always"
       color-interpolation-filters="sRGB">
      <feGaussianBlur
         id="feGaussianBlur1015"
         stdDeviation="10.464"
         inkscape:collect="always" />
    </filter>
    <linearGradient
       gradientTransform="translate(13.557829,26.643861)"
       y2="93.64"
       x2="174.82"
       y1="93.11"
       x1="167.39"
       gradientUnits="userSpaceOnUse"
       id="linearGradient1124"
       xlink:href="#linearGradient1118"
       inkscape:collect="always" />
    <radialGradient
       r="186.2"
       fy="1240.86"
       fx="513.5"
       cy="1240.86"
       cx="513.5"
       gradientTransform="matrix(0.54014774,0.02538536,-0.030734,0.65395602,-139.98159,-687.42899)"
       gradientUnits="userSpaceOnUse"
       id="radialGradient888"
       xlink:href="#linearGradient1045"
       inkscape:collect="always" />
    <radialGradient
       r="153.84"
       fy="878.36"
       fx="559.73"
       cy="878.36"
       cx="559.73"
       gradientTransform="matrix(0.39228938,0.01018253,-0.01078898,0.41565358,-87.786659,-235.396)"
       gradientUnits="userSpaceOnUse"
       id="radialGradient890"
       xlink:href="#linearGradient905"
       inkscape:collect="always" />
    <linearGradient
       y2="280.18"
       x2="832.5"
       y1="280.18"
       x1="773.87"
       gradientTransform="matrix(0.11288854,0,0,0.11288854,44.578854,11.846369)"
       gradientUnits="userSpaceOnUse"
       id="linearGradient894"
       xlink:href="#linearGradient921"
       inkscape:collect="always" />
    <filter
       height="1.043"
       y="-0.021"
       width="1.055"
       x="-0.028"
       id="filter988"
       inkscape:collect="always"
       color-interpolation-filters="sRGB">
      <feGaussianBlur
         id="feGaussianBlur990"
         stdDeviation="1.72881"
         inkscape:collect="always" />
    </filter>
    <linearGradient
       inkscape:collect="always"
       xlink:href="#linearGradient1048"
       id="linearGradient1050"
       x1="-217.72"
       y1="35.26"
       x2="-150.31"
       y2="113.41"
       gradientUnits="userSpaceOnUse"
       gradientTransform="matrix(0.20534313,0,0,0.20534313,65.319041,243.63714)" />
    <linearGradient
       inkscape:collect="always"
       xlink:href="#linearGradient835"
       id="linearGradient1475"
       gradientUnits="userSpaceOnUse"
       gradientTransform="matrix(0.06445531,0,0,0.06445531,-8.2184298,238.85837)"
       x1="662.56"
       y1="368.42"
       x2="798.85"
       y2="534.21"
       spreadMethod="reflect" />
    <linearGradient
       inkscape:collect="always"
       xlink:href="#linearGradient1118"
       id="linearGradient1477"
       gradientUnits="userSpaceOnUse"
       gradientTransform="translate(13.557829,26.643861)"
       x1="167.39"
       y1="93.11"
       x2="174.82"
       y2="93.64" />
    <linearGradient
       id="linearGradient3876">
      <stop
         id="stop3878"
         stop-color="#000000"
         stop-opacity="1" />
      <stop
         id="stop3880"
         offset="1"
         stop-color="#ffffff"
         stop-opacity="1" />
    </linearGradient>
    <filter
       inkscape:collect="always"
       id="filter1323"
       x="-0.035"
       width="1.07"
       y="-0.018"
       height="1.036"
       color-interpolation-filters="sRGB">
      <feGaussianBlur
         inkscape:collect="always"
         stdDeviation="0.93391"
         id="feGaussianBlur1325" />
    </filter>
  </defs>
  <sodipodi:namedview
     id="base"
     pagecolor="#ff0000"
     bordercolor="#666666"
     borderopacity="1.0"
     inkscape:pageopacity="0"
     inkscape:pageshadow="2"
     inkscape:zoom="3.454902"
     inkscape:cx="127.5"
     inkscape:cy="127.5"
     inkscape:document-units="px"
     inkscape:current-layer="layer1"
     showgrid="false"
     inkscape:snap-to-guides="false"
     inkscape:snap-grids="false"
     inkscape:snap-others="false"
     inkscape:object-nodes="false"
     inkscape:snap-nodes="false"
     inkscape:snap-global="false"
     inkscape:window-width="1920"
     inkscape:window-height="1056"
     inkscape:window-x="0"
     inkscape:window-y="0"
     inkscape:window-maximized="1"
     units="px" />
  <metadata
     id="metadata5">
    <rdf:RDF>
      <cc:Work>
        <dc:format>image/svg+xml</dc:format>
        <dc:type
           rdf:resource="http://purl.org/dc/dcmitype/StillImage" />
        <dc:title />
      </cc:Work>
    </rdf:RDF>
  </metadata>
  <g
     inkscape:label="Layer 1"
     inkscape:groupmode="layer"
     id="layer1"
     transform="translate(0,-229.53126)">
    <g
       id="g1819"
       transform="matrix(0.91931848,0,0,0.91931848,-12.212257,14.387588)">
      <path
         transform="matrix(0.06445531,0,0,0.06445531,-7.9810774,238.26887)"
         inkscape:connector-curvature="0"
         d="M 721.31509,122.54048 A 372.00317,372.00317 0 0 0 349.31314,494.54439 372.00317,372.00317 0 0 0 721.31509,866.54829 372.00317,372.00317 0 0 0 1093.319,494.54439 372.00317,372.00317 0 0 0 721.31509,122.54048 Z m -207.53515,77.91016 a 24.80315,24.80315 0 0 1 24.80273,24.80273 24.80315,24.80315 0 0 1 -24.80273,24.80274 24.80315,24.80315 0 0 1 -24.80274,-24.80274 24.80315,24.80315 0 0 1 24.80274,-24.80273 z m 497.07416,92.125 a 24.80315,24.80315 0 0 1 24.8047,24.80273 24.80315,24.80315 0 0 1 -24.8047,24.80469 24.80315,24.80315 0 0 1 -24.80267,-24.80469 24.80315,24.80315 0 0 1 24.80267,-24.80273 z M 450.00064,673.22798 a 24.80315,24.80315 0 0 1 24.80273,24.80274 24.80315,24.80315 0 0 1 -24.80273,24.80468 24.80315,24.80315 0 0 1 -24.80469,-24.80468 24.80315,24.80315 0 0 1 24.80469,-24.80274 z m 493.02539,51.63086 a 24.80315,24.80315 0 0 1 24.80274,24.80273 24.80315,24.80315 0 0 1 -24.80274,24.80469 24.80315,24.80315 0 0 1 -24.80273,-24.80469 24.80315,24.80315 0 0 1 24.80273,-24.80273 z"
         id="path4707"
         opacity="1"
         stroke-dasharray="none"
         stroke-opacity="1"
         fill="#0a0a0a"
         filter="url(#filter4717)"
         stroke="none"
         stroke-linejoin="miter"
         fill-opacity="1"
         stroke-linecap="square"
         stroke-width="4.603"
         stroke-miterlimit="4" />
      <path
         id="circle4677"
         d="m 38.642016,244.07916 a 23.97758,23.97758 0 0 0 -23.977501,23.97763 23.97758,23.97758 0 0 0 23.977501,23.97763 23.97758,23.97758 0 0 0 23.977631,-23.97763 23.97758,23.97758 0 0 0 -23.977631,-23.97763 z m -13.376742,5.02173 a 1.5986947,1.5986947 0 0 1 1.598667,1.59866 1.5986947,1.5986947 0 0 1 -1.598667,1.59867 1.5986947,1.5986947 0 0 1 -1.598669,-1.59867 1.5986947,1.5986947 0 0 1 1.598669,-1.59866 z m 32.039072,5.93794 a 1.5986947,1.5986947 0 0 1 1.598795,1.59867 1.5986947,1.5986947 0 0 1 -1.598795,1.59879 1.5986947,1.5986947 0 0 1 -1.598668,-1.59879 1.5986947,1.5986947 0 0 1 1.598668,-1.59867 z M 21.154359,279.5739 a 1.5986947,1.5986947 0 0 1 1.598668,1.59867 1.5986947,1.5986947 0 0 1 -1.598668,1.59879 1.5986947,1.5986947 0 0 1 -1.598794,-1.59879 1.5986947,1.5986947 0 0 1 1.598794,-1.59867 z m 31.778105,3.32788 a 1.5986947,1.5986947 0 0 1 1.598668,1.59867 1.5986947,1.5986947 0 0 1 -1.598668,1.59879 1.5986947,1.5986947 0 0 1 -1.598668,-1.59879 1.5986947,1.5986947 0 0 1 1.598668,-1.59867 z"
         inkscape:connector-curvature="0"
         opacity="1"
         stroke-dasharray="none"
         stroke-opacity="1"
         fill="url(#linearGradient4679)"
         stroke="url(#linearGradient4705)"
         stroke-linejoin="miter"
         fill-opacity="1"
         stroke-linecap="square"
         stroke-width="0.297"
         stroke-miterlimit="4" />
      <circle
         id="circle4673"
         cx="38.642"
         cy="268.06"
         r="19.755"
         opacity="1"
         stroke-dasharray="none"
         stroke-opacity="1"
         fill="url(#linearGradient4675)"
         stroke="#818181"
         stroke-linejoin="miter"
         fill-opacity="1"
         stroke-linecap="square"
         stroke-width="0.175"
         stroke-miterlimit="4" />
      <circle
         r="18.499"
         cy="268.06"
         cx="38.642"
         id="path4657"
         opacity="1"
         stroke-dasharray="none"
         stroke-opacity="0.431"
         fill="url(#radialGradient4665)"
         stroke="#000000"
         stroke-linejoin="miter"
         fill-opacity="1"
         stroke-linecap="square"
         stroke-width="0.142"
         stroke-miterlimit="4" />
      <circle
         r="15.01"
         cy="268.06"
         cx="38.642"
         id="path934"
         opacity="1"
         stroke-dasharray="none"
         stroke-opacity="0.431"
         fill="url(#linearGradient4645)"
         stroke="#ffffff"
         stroke-linejoin="miter"
         fill-opacity="1"
         stroke-linecap="square"
         stroke-width="0.133"
         stroke-miterlimit="4" />
      <circle
         id="circle842"
         cx="38.642"
         cy="268.06"
         r="13.499"
         opacity="1"
         stroke-dasharray="none"
         stroke-opacity="1"
         fill="url(#linearGradient900)"
         stroke="none"
         stroke-linejoin="miter"
         fill-opacity="1"
         stroke-linecap="square"
         stroke-width="0.142"
         stroke-miterlimit="4" />
      <circle
         r="6.672"
         cy="268.09"
         cx="38.936"
         id="path817"
         opacity="1"
         stroke-dasharray="none"
         stroke-opacity="1"
         fill="#000000"
         stroke="url(#linearGradient1475)"
         stroke-linejoin="round"
         fill-opacity="1"
         stroke-linecap="round"
         stroke-width="0.245"
         stroke-miterlimit="4" />
      <g
         transform="matrix(0.06445531,0,0,0.06445531,-8.2156863,238.45417)"
         id="g1035"
         fill="#ffffff"
         filter="url(#filter1045)"
         fill-opacity="0.036">
        <path
           d="m 664.98676,394.53823 c 20.9705,-22.93046 63.64573,0.18859 36.84211,27.19298 -37.88592,38.1697 5.19056,79.83761 32.31545,77.19299 27.12489,-2.64462 63.2097,-34.74356 17.68455,-80.70176 -32.56676,-32.87655 15.53328,-49.33436 36.8421,-25.43859 56.71046,63.59527 20.54956,141.23921 -52.36677,145.20854 -72.91633,3.96933 -116.60807,-93.93054 -71.31744,-143.45416 z"
           id="path839"
           inkscape:connector-curvature="0"
           sodipodi:nodetypes="sszsszs"
           stroke-opacity="1"
           fill="#ffffff"
           stroke="none"
           stroke-linejoin="miter"
           fill-opacity="0.036"
           stroke-linecap="butt"
           stroke-width="1" />
        <path
           d="m 761.60742,383.47461 c -8.82565,-0.20533 -20.27933,5.82678 -18.64844,16.08398 2.56227,13.56422 16.08599,20.73339 22.66602,32.12305 9.49561,13.2665 13.95943,32.08689 4.94922,46.75781 -9.08196,14.81067 -27.35329,24.61865 -44.79297,22.06055 -23.59622,-4.75987 -44.3685,-28.38145 -40.33203,-53.19336 1.7618,-12.51483 10.31741,-22.27001 18.56836,-31.16602 6.27245,-7.12356 5.94174,-19.42527 -2.92383,-24.48046 -11.94081,-8.45378 -29.69904,-4.3715 -37.5957,7.70117 -20.3676,25.48592 -18.30079,62.68463 -3.29102,90.23242 13.69345,26.64533 41.91739,47.35875 72.69922,46.50977 29.92669,0.0268 61.11535,-16.31601 74.13672,-44.11329 14.1322,-28.31952 6.91537,-62.96228 -11.52344,-87.50195 -6.71667,-10.08487 -16.12509,-19.92825 -28.98047,-20.83008 -1.63691,-0.18137 -3.28571,-0.24839 -4.93164,-0.18359 z"
           id="path999"
           inkscape:connector-curvature="0"
           stroke-opacity="1"
           fill="#ffffff"
           stroke="none"
           stroke-linejoin="miter"
           fill-opacity="0.036"
           stroke-linecap="butt"
           stroke-width="1" />
        <path
           d="m 761.64453,385.47461 c -8.39144,-0.66698 -19.84938,6.55248 -16.1582,16.00195 4.60565,13.14109 17.90691,20.23327 24.08521,32.55835 9.60714,14.94047 11.56947,36.47548 -0.85452,50.46503 -12.71893,16.08047 -36.93336,24.02625 -55.63694,13.75201 -19.96743,-9.46038 -34.66525,-32.58598 -28.89649,-54.9082 2.88869,-12.74246 12.98398,-21.76457 20.48243,-31.75 4.49221,-7.94106 -0.36833,-17.60042 -8.51368,-20.44727 -12.00707,-5.38489 -26.61563,0.67136 -32.89257,11.83008 -15.03046,20.86163 -15.71765,48.88876 -7.21485,72.41797 10.49965,30.48923 38.15005,56.57478 71.25977,58.62305 32.442,2.13316 67.12281,-15.67021 79.58083,-46.45203 11.92887,-27.81313 3.6241,-60.83232 -14.29958,-83.82336 -6.97219,-10.27756 -17.70902,-19.37823 -30.94141,-18.26758 z"
           id="path1003"
           inkscape:connector-curvature="0"
           stroke-opacity="1"
           fill="#ffffff"
           stroke="none"
           stroke-linejoin="miter"
           fill-opacity="0.036"
           stroke-linecap="butt"
           stroke-width="1" />
        <path
           d="m 762.94141,387.40039 c -7.26545,-0.99642 -18.6792,4.74632 -15.57813,13.38672 5.32783,13.91251 19.74657,21.5557 25.6875,35.18945 9.16644,16.072 9.042,38.55934 -4.72266,52.08203 -14.24811,16.19266 -40.18098,22.50085 -59,10.51563 -20.06191,-10.81177 -33.72677,-35.61375 -26.42382,-58.19531 3.58723,-12.52743 14.3183,-20.98342 20.88086,-31.67774 3.43094,-10.72342 -8.51714,-18.41018 -18.05078,-17.52539 -11.94481,0.18708 -20.21762,9.99678 -25.14454,19.84961 -15.14683,29.15231 -7.59915,65.57101 12.17711,90.63384 16.01137,20.81648 42.60681,33.79157 69.09799,29.99176 29.94479,-3.13567 58.79593,-23.78975 66.29522,-53.91271 7.56808,-29.36766 -4.36748,-61.2039 -25.39844,-82.33594 -5.39172,-4.8715 -12.40848,-8.34187 -19.82031,-8.00195 z"
           id="path1007"
           inkscape:connector-curvature="0"
           stroke-opacity="1"
           fill="#ffffff"
           stroke="none"
           stroke-linejoin="miter"
           fill-opacity="0.036"
           stroke-linecap="butt"
           stroke-width="1" />
        <path
           d="m 760.8457,389.29492 c -6.01057,-0.14991 -14.76943,5.35434 -11.13281,11.96094 6.33294,13.68911 20.69089,21.66279 26.36133,36.14258 8.94677,17.42051 6.8512,41.0294 -8.42969,54.30468 -15.57707,15.79568 -42.47879,20.53846 -61.2168,7.5254 -20.58202,-12.00447 -33.58882,-38.76237 -24.63476,-61.875 4.07782,-11.97223 15.20098,-19.79283 20.47656,-30.89258 1.13655,-10.58037 -12.76845,-15.54688 -21.34375,-12.59766 -14.84412,5.12403 -21.37479,21.57732 -24.79201,35.64023 -7.90652,39.42623 15.94925,84.10084 54.76662,97.18399 36.04995,12.09931 80.86201,-7.70383 93.72656,-44.09375 10.52912,-30.771 -1.84213,-65.82465 -25.21679,-87.39063 -5.21828,-4.25939 -11.87241,-6.27512 -18.56446,-5.9082 z"
           id="path1011"
           inkscape:connector-curvature="0"
           stroke-opacity="1"
           fill="#ffffff"
           stroke="none"
           stroke-linejoin="miter"
           fill-opacity="0.036"
           stroke-linecap="butt"
           stroke-width="1" />
        <path
           d="m 760.91016,391.29297 c -5.198,-0.39263 -12.91344,4.88104 -8.78125,10.35547 7.43804,13.61068 21.82703,22.33743 26.9707,37.45312 8.51729,18.79018 4.32742,43.33771 -12.4082,56.25977 -16.93123,15.27562 -44.61986,18.37961 -63.26758,4.37109 -20.9911,-13.25786 -33.17518,-41.86895 -22.61133,-65.39453 4.44438,-11.05692 15.28723,-18.31932 19.51953,-29.2793 -1.05792,-10.18623 -15.5931,-12.50402 -22.97656,-7.39843 -13.31241,8.24918 -18.34623,24.83528 -20.34766,39.51367 -4.11537,40.07203 23.85637,83.06022 64.58203,90.11914 33.37968,5.59538 70.70833,-13.77553 81.61524,-46.77149 9.46856,-30.44664 -3.07591,-64.95358 -26.94531,-85.1582 -4.49075,-2.993 -9.97543,-4.37726 -15.34961,-4.07031 z"
           id="path1015"
           inkscape:connector-curvature="0"
           stroke-opacity="1"
           fill="#ffffff"
           stroke="none"
           stroke-linejoin="miter"
           fill-opacity="0.036"
           stroke-linecap="butt"
           stroke-width="1" />
        <path
           d="m 760.98438,393.29102 c -4.44172,-0.63084 -10.84633,4.31531 -6.42969,8.58007 8.43791,13.585 22.87671,23.2166 27.53515,39.21875 7.88027,20.16719 1.52594,45.4451 -16.62695,57.92383 -18.27838,14.62586 -46.61531,16.04408 -65.13867,1.0625 -20.91899,-14.33484 -32.2025,-43.97121 -20.88867,-67.60937 4.41211,-10.59653 15.37869,-17.49144 18.70507,-28.36328 -2.97174,-9.08448 -16.53917,-8.73651 -22.53515,-2.77735 -14.05391,12.02163 -17.73765,32.43383 -16.74981,49.89146 2.60154,35.94458 30.59305,71.06532 67.66778,74.7101 33.83419,3.50798 70.71286,-19.30639 76.72666,-53.99665 4.92373,-27.95127 -7.09942,-57.52853 -28.91807,-75.42327 -3.98542,-2.39991 -8.71305,-3.4865 -13.34765,-3.21679 z"
           id="path1019"
           inkscape:connector-curvature="0"
           stroke-opacity="1"
           fill="#ffffff"
           stroke="none"
           stroke-linejoin="miter"
           fill-opacity="0.036"
           stroke-linecap="butt"
           stroke-width="1" />
        <path
           d="m 759.83398,395.25195 c -3.74368,0.0211 -6.5809,4.27702 -2.7871,6.80078 9.4614,13.62249 23.92229,24.45667 27.96874,41.31836 7.02905,21.5199 -1.50915,47.33766 -21.0625,59.26368 -19.58211,13.8423 -48.42674,13.56394 -66.77929,-2.36133 -21.38694,-15.84953 -31.59774,-47.66447 -18.07031,-71.69141 4.64597,-8.86904 14.13589,-15.09759 16.75195,-24.81836 -4.48723,-7.83632 -16.62501,-4.98919 -21.35352,1.32813 -14.02033,15.06478 -15.9794,37.93321 -11.95507,57.39062 6.95681,32.04507 34.81763,60.98526 68.79296,61.76563 32.15984,1.19632 65.96535,-21.82873 70.30116,-54.94648 3.75094,-26.72971 -8.08833,-55.53457 -29.76209,-71.85821 -3.72091,-1.92797 -7.92439,-2.33116 -12.04493,-2.19141 z"
           id="path1023"
           inkscape:connector-curvature="0"
           stroke-opacity="1"
           fill="#ffffff"
           stroke="none"
           stroke-linejoin="miter"
           fill-opacity="0.036"
           stroke-linecap="butt"
           stroke-width="1" />
      </g>
      <path
         transform="matrix(0.06445531,0,0,0.06445531,-7.9810774,238.26887)"
         sodipodi:nodetypes="ccccc"
         inkscape:connector-curvature="0"
         id="path852"
         d="m 538.3851,376.78119 97.16981,38.67925 c -16.67789,37.23046 -22.02396,76.72728 23.58491,126.41509 l -91.50944,61.32076 C 509.89934,532.08665 513.56368,455.3956 538.3851,376.78119 Z"
         stroke-opacity="1"
         fill="url(#linearGradient912)"
         filter="url(#filter886)"
         stroke="none"
         stroke-linejoin="miter"
         fill-opacity="1"
         stroke-linecap="butt"
         stroke-width="1" />
      <path
         transform="matrix(-0.06445531,0,0,0.06445531,86.440963,238.38741)"
         d="m 542.45283,368.86792 97.16981,38.67925 c -16.67789,37.23046 -22.02396,76.72728 23.58491,126.41509 l -91.50944,61.32076 c -57.73104,-71.10964 -54.0667,-147.80069 -29.24528,-226.4151 z"
         id="path890"
         inkscape:connector-curvature="0"
         sodipodi:nodetypes="ccccc"
         stroke-opacity="1"
         fill="url(#linearGradient932)"
         filter="url(#filter886)"
         stroke="none"
         stroke-linejoin="miter"
         fill-opacity="1"
         stroke-linecap="butt"
         stroke-width="1" />
      <path
         sodipodi:nodetypes="ccccc"
         inkscape:connector-curvature="0"
         id="path914"
         d="m 536.88508,371.49879 102.73756,36.04838 c -16.67789,37.23046 -22.02396,76.72728 23.58491,126.41509 l -91.50944,61.32076 C 513.96707,524.17338 512.06366,450.1132 536.88508,371.49879 Z"
         transform="matrix(-0.01758165,-0.06201107,-0.06201107,0.01758165,80.24169,305.14033)"
         stroke-opacity="1"
         fill="url(#linearGradient918)"
         filter="url(#filter886)"
         stroke="none"
         stroke-linejoin="miter"
         fill-opacity="1"
         stroke-linecap="butt"
         stroke-width="1" />
      <circle
         id="circle4647"
         cx="38.936"
         cy="268.09"
         r="6.672"
         opacity="1"
         stroke-dasharray="none"
         stroke-opacity="1"
         fill="url(#radialGradient4655)"
         stroke="url(#linearGradient837)"
         stroke-linejoin="round"
         fill-opacity="1"
         stroke-linecap="round"
         stroke-width="0.245"
         stroke-miterlimit="4" />
      <path
         sodipodi:nodetypes="cccccccccccccc"
         inkscape:connector-curvature="0"
         id="path952"
         d="m 21.382484,277.73258 c -1.589532,-2.84626 -2.495414,-6.12629 -2.495455,-9.6179 -9e-5,-10.91045 8.844601,-19.75514 19.755052,-19.75505 6.501379,-5e-5 12.26925,3.1405 15.86926,7.98729 l 3.555578,-2.29223 c -4.3571,-6.00934 -11.434528,-9.91777 -19.424838,-9.91783 -13.242483,9e-5 -23.977553,10.73534 -23.97742,23.97782 2.7e-5,4.09574 1.026966,7.95162 2.837388,11.32421 1.815568,-0.67638 2.544259,-1.04652 3.880435,-1.70631 z M 25.2651,249.15855 c 0.883039,-1.9e-4 1.598992,0.71559 1.599029,1.59862 -3.7e-5,0.88304 -0.71599,1.59882 -1.599029,1.59863 -0.882883,-3e-5 -1.598592,-0.71574 -1.598629,-1.59863 3.7e-5,-0.88288 0.715746,-1.59859 1.598629,-1.59862 z"
         opacity="1"
         stroke-dasharray="none"
         stroke-opacity="1"
         fill="url(#linearGradient1050)"
         stroke="none"
         stroke-linejoin="miter"
         fill-opacity="1"
         stroke-linecap="square"
         stroke-width="0.297"
         stroke-miterlimit="4" />
    </g>
    <g
       id="g1041"
       transform="translate(72.747302,-0.7008505)">
      <path
         transform="matrix(0.52358874,0,0,0.52358874,-63.28717,163.9679)"
         id="path836"
         d="M 39.475029,130.90179 V 253.93304 H 103.22503 V 130.90179 Z m 10.53125,1.9375 h 42.15625 v 27.75 h -42.15625 z m -7.625,0.53125 h 4.84375 v 5.3125 h -4.84375 z m 52.34375,0 h 4.875 v 5.3125 h -4.875 z m -52.34375,7.53125 h 4.84375 v 5.34375 h -4.84375 z m 52.34375,0 h 4.875 v 5.34375 h -4.875 z m -52.34375,7.5625 h 4.84375 v 5.3125 h -4.84375 z m 52.34375,0 h 4.875 v 5.3125 h -4.875 z m -52.34375,7.53125 h 4.84375 v 5.34375 h -4.84375 z m 52.34375,0 h 4.875 v 5.34375 h -4.875 z m -44.71875,6.96875 h 42.15625 v 27.75 h -42.15625 z m -7.625,0.5625 h 4.84375 v 5.34375 h -4.84375 z m 52.34375,0 h 4.875 v 5.34375 h -4.875 z m -52.34375,7.5625 h 4.84375 v 5.34375 h -4.84375 z m 52.34375,0 h 4.875 v 5.34375 h -4.875 z m -52.34375,7.5 h 4.84375 v 5.375 h -4.84375 z m 52.34375,0 h 4.875 v 5.375 h -4.875 z m -52.34375,7.5625 h 4.84375 v 5.375 h -4.84375 z m 52.34375,0 h 4.875 v 5.375 h -4.875 z m -44.71875,6.9375 h 42.15625 v 27.75 h -42.15625 z m -7.625,0.59375 h 4.84375 v 5.375 h -4.84375 z m 52.34375,0 h 4.875 v 5.375 h -4.875 z m -52.34375,7.5625 h 4.84375 v 5.375 h -4.84375 z m 52.34375,0 h 4.875 v 5.375 h -4.875 z m -52.34375,7.53125 h 4.84375 v 5.375 h -4.84375 z m 52.34375,0 h 4.875 v 5.375 h -4.875 z m -52.34375,7.5625 h 4.84375 v 5.375 h -4.84375 z m 52.34375,0 h 4.875 v 5.375 h -4.875 z m -44.71875,6.875 h 42.15625 v 27.75 h -42.15625 z m -7.625,0.65625 h 4.84375 v 5.375 h -4.84375 z m 52.34375,0 h 4.875 v 5.375 h -4.875 z m -52.34375,7.5625 h 4.84375 v 5.375 h -4.84375 z m 52.34375,0 h 4.875 v 5.375 h -4.875 z m -52.34375,7.53125 h 4.84375 v 5.375 h -4.84375 z m 52.34375,0 h 4.875 v 5.375 h -4.875 z m -52.34375,7.5625 h 4.84375 v 5.34375 h -4.84375 z m 52.34375,0 h 4.875 v 5.34375 h -4.875 z"
         inkscape:connector-curvature="0"
         stroke-miterlimit="4"
         style="fill:#000000;fill-opacity:0.76300001;stroke:#181818;stroke-width:1;stroke-linecap:round;stroke-linejoin:round;stroke-miterlimit:4;stroke-dasharray:none;stroke-dashoffset:0;stroke-opacity:1;filter:url(#filter1323)" />
      <path
         inkscape:connector-curvature="0"
         d="m -45.396535,230.77828 v 64.41778 h 33.378777 v -64.41778 z m 5.514044,1.01445 h 22.072533 v 14.52959 h -22.072533 z m -3.992365,0.27816 h 2.536133 v 2.78156 h -2.536133 z m 27.406598,0 h 2.5525 v 2.78156 h -2.5525 z m -27.406598,3.94328 h 2.536133 v 2.79792 h -2.536133 z m 27.406598,0 h 2.5525 v 2.79792 h -2.5525 z m -27.406598,3.95964 h 2.536133 v 2.78156 h -2.536133 z m 27.406598,0 h 2.5525 v 2.78156 h -2.5525 z m -27.406598,3.94327 h 2.536133 v 2.79793 h -2.536133 z m 27.406598,0 h 2.5525 v 2.79793 h -2.5525 z m -23.414233,3.64876 h 22.072533 v 14.52959 h -22.072533 z m -3.992365,0.29452 h 2.536133 v 2.79793 h -2.536133 z m 27.406598,0 h 2.5525 v 2.79793 h -2.5525 z M -43.874856,251.82 h 2.536133 v 2.79793 h -2.536133 z m 27.406598,0 h 2.5525 v 2.79793 h -2.5525 z m -27.406598,3.92692 h 2.536133 v 2.81429 h -2.536133 z m 27.406598,0 h 2.5525 v 2.81429 h -2.5525 z m -27.406598,3.95964 h 2.536133 v 2.81429 h -2.536133 z m 27.406598,0 h 2.5525 v 2.81429 h -2.5525 z m -23.414233,3.63239 h 22.072533 v 14.52959 h -22.072533 z m -3.992365,0.31088 h 2.536133 v 2.8143 h -2.536133 z m 27.406598,0 h 2.5525 v 2.8143 h -2.5525 z m -27.406598,3.95964 h 2.536133 v 2.81429 h -2.536133 z m 27.406598,0 h 2.5525 v 2.81429 h -2.5525 z m -27.406598,3.94328 h 2.536133 v 2.81429 h -2.536133 z m 27.406598,0 h 2.5525 v 2.81429 h -2.5525 z m -27.406598,3.95964 h 2.536133 v 2.81429 h -2.536133 z m 27.406598,0 h 2.5525 v 2.81429 h -2.5525 z m -23.414233,3.59968 h 22.072533 v 14.52958 h -22.072533 z m -3.992365,0.3436 h 2.536133 v 2.81429 h -2.536133 z m 27.406598,0 h 2.5525 v 2.81429 h -2.5525 z m -27.406598,3.95964 h 2.536133 v 2.81429 h -2.536133 z m 27.406598,0 h 2.5525 v 2.81429 h -2.5525 z m -27.406598,3.94328 h 2.536133 v 2.81429 h -2.536133 z m 27.406598,0 h 2.5525 v 2.81429 h -2.5525 z m -27.406598,3.95964 h 2.536133 v 2.79793 h -2.536133 z m 27.406598,0 h 2.5525 v 2.79793 h -2.5525 z"
         id="rect2993"
         stroke-miterlimit="4"
         style="fill:#ffffff;fill-opacity:0.51399997;stroke:#000000;stroke-width:0.52399999;stroke-linecap:round;stroke-linejoin:round;stroke-miterlimit:4;stroke-dasharray:none;stroke-dashoffset:0;stroke-opacity:0.50199998" />
      <g
         style="fill:#0014ff;fill-opacity:0.322;stroke:#000000;stroke-opacity:0.50199998"
         id="g3860"
         transform="matrix(0.52358874,0,0,0.52358874,15.091444,230.44397)">
        <rect
           style="fill:#0014ff;fill-opacity:0.322;stroke:#000000;stroke-opacity:0.50199998"
           id="rect3850"
           width="42.16"
           height="27.761999"
           x="-105.34"
           y="3.2049999" />
        <rect
           style="fill:#0014ff;fill-opacity:0.322;stroke:#000000;stroke-opacity:0.50199998"
           y="33.330002"
           x="-105.34"
           height="27.761999"
           width="42.16"
           id="rect3852" />
        <rect
           style="fill:#0014ff;fill-opacity:0.322;stroke:#000000;stroke-opacity:0.50199998"
           id="rect3854"
           width="42.16"
           height="27.761999"
           x="-105.34"
           y="63.459999" />
        <rect
           style="fill:#0014ff;fill-opacity:0.322;stroke:#000000;stroke-opacity:0.50199998"
           y="93.589996"
           x="-105.34"
           height="27.761999"
           width="42.16"
           id="rect3856" />
      </g>
      <g
         style="fill:#ffffff;fill-opacity:0.20720723"
         transform="translate(37.855431,0.61265606)"
         id="g1301">
        <path
           style="fill:#ffffff;fill-opacity:0.20720723;stroke:none;stroke-width:0.082;stroke-linecap:butt;stroke-linejoin:round;stroke-miterlimit:4;stroke-dasharray:none;stroke-opacity:1"
           stroke-miterlimit="4"
           d="m -65.86451,233.22381 c -0.288401,0.0128 -1.155956,0.13581 -1.047282,0.3082 0.829851,-0.10721 1.808886,-0.15297 2.433115,0.51363 0.450648,0.39604 0.460949,1.10333 -0.0025,1.49802 0.05821,0.20683 -0.230158,0.35163 -0.333319,0.53127 -0.665973,0.78408 -1.331946,1.56816 -1.997919,2.35224 -0.406908,-0.37886 -0.881415,0.32095 -1.166397,0.58848 -0.315149,0.3123 -0.476991,0.75406 -0.74561,1.08819 -0.158151,0.10157 -0.149341,0.32032 -0.328874,0.38396 -0.129526,0.1309 -0.190395,0.29413 -0.350599,0.40102 -0.06585,0.17915 -0.239622,0.25492 -0.335513,0.40481 -0.09197,0.15597 -0.264376,0.26092 -0.338334,0.42503 -0.182289,0.10256 -0.197781,0.35721 -0.390592,0.42694 -0.120194,0.15429 -0.198419,0.30741 -0.368747,0.42353 -0.301057,0.34155 -0.819009,0.55115 -1.157375,0.90379 -0.421842,0.50618 0.474393,0.9885 0.808991,1.29912 0.673085,0.48793 0.913302,-0.60155 1.15846,-1.03508 0.05601,-0.24441 0.313032,-0.33057 0.362856,-0.58381 0.203324,-0.013 0.202689,-0.28308 0.37307,-0.35605 0.12003,-0.13694 0.18746,-0.29923 0.34973,-0.39264 0.06399,-0.17154 0.238115,-0.26284 0.328672,-0.41389 0.05545,-0.16473 0.281792,-0.21151 0.303163,-0.39048 0.139622,-0.11924 0.274967,-0.24134 0.340674,-0.41926 0.232835,-0.17052 0.380254,-0.41461 0.639152,-0.57487 0.513578,-0.39989 1.190531,-1.46044 0.917974,-1.75317 0.701982,-0.82416 1.716703,-1.98153 2.418685,-2.80569 -0.06498,-0.0722 0.400198,0.007 0.546679,0.0303 0.261208,0.0624 0.560495,0.0418 0.796875,0.15838 0.08059,0.13813 -0.02268,0.41319 0.0068,0.53276 0.248041,0.17672 0.479069,0.39941 0.73729,0.54863 0.373698,-0.42452 0.747396,-0.84905 1.121094,-1.27357 -0.06165,-0.19808 -0.309376,-0.28608 -0.44645,-0.43954 -0.161363,-0.14487 -0.261776,-0.27244 -0.470049,-0.14852 -0.215241,0.13238 -0.365141,-0.0301 -0.515961,-0.17561 -0.331806,-0.1806 -0.254394,-0.63194 -0.59455,-0.81028 -0.417629,-0.31861 -0.792268,-0.70077 -1.244829,-0.96801 -0.565826,-0.24233 -1.198073,-0.30697 -1.808391,-0.27781 z"
           id="path2987"
           inkscape:connector-curvature="0"
           sodipodi:nodetypes="ccccccccccccccccccccccccccccccccccccc" />
        <path
           style="fill:#ffffff;fill-opacity:0.20720723;stroke:none;stroke-width:0.082;stroke-linecap:butt;stroke-linejoin:round;stroke-miterlimit:4;stroke-dasharray:none;stroke-opacity:1"
           stroke-miterlimit="4"
           sodipodi:nodetypes="ccccccccccccccccccccccccccccccccccccc"
           inkscape:connector-curvature="0"
           id="path872"
           d="m -71.311537,236.67187 c -0.05308,0.28376 -0.130625,1.15655 0.06196,1.08992 0.08432,-0.83248 0.262402,-1.79627 1.053486,-2.25256 0.488145,-0.34877 1.179254,-0.19796 1.458211,0.34309 0.21465,-0.01 0.290072,0.30409 0.44155,0.44541 0.612087,0.82683 1.224174,1.65366 1.836261,2.48049 -0.461471,0.31009 0.112098,0.93131 0.307807,1.26966 0.232451,0.37791 0.62584,0.63598 0.890126,0.97354 0.06294,0.17711 0.277967,0.21827 0.299108,0.40757 0.09801,0.1559 0.243129,0.2523 0.310781,0.43261 0.159483,0.10486 0.193753,0.29132 0.317904,0.41878 0.130974,0.12503 0.193967,0.31679 0.336962,0.42613 0.05841,0.20083 0.302871,0.27383 0.326929,0.47745 0.122907,0.15213 0.254232,0.26312 0.328576,0.4554 0.264136,0.37084 0.350457,0.92288 0.616908,1.33258 0.396987,0.5259 1.070485,-0.23717 1.449052,-0.49237 0.62821,-0.54449 -0.378088,-1.02616 -0.744516,-1.36349 -0.225268,-0.11012 -0.25072,-0.38001 -0.485989,-0.48611 0.03357,-0.20096 -0.229574,-0.26176 -0.261883,-0.44427 -0.106059,-0.14802 -0.248758,-0.25059 -0.302823,-0.42985 -0.152496,-0.10132 -0.201802,-0.29165 -0.328306,-0.41419 -0.147799,-0.0915 -0.141885,-0.32251 -0.311302,-0.38402 -0.08436,-0.16307 -0.172487,-0.32264 -0.330806,-0.42709 -0.113099,-0.26551 -0.31727,-0.46457 -0.414461,-0.75313 -0.272617,-0.59107 -1.151436,-1.49146 -1.498474,-1.29261 -0.642926,-0.87101 -1.539221,-2.12235 -2.182148,-2.99336 -0.08512,0.0469 0.09785,-0.38811 0.153807,-0.52547 0.120199,-0.24016 0.16812,-0.53631 0.335444,-0.73998 0.152839,-0.0471 0.397213,0.11605 0.520352,0.11454 0.228499,-0.20136 0.497887,-0.37569 0.701922,-0.59321 -0.328421,-0.46045 -0.656838,-0.9209 -0.985258,-1.38134 -0.206906,0.015 -0.34894,0.23621 -0.529549,0.33479 -0.177765,0.1242 -0.324829,0.19297 -0.251524,0.42396 0.07997,0.23971 -0.112345,0.34873 -0.288342,0.46251 -0.251323,0.28204 -0.673236,0.10402 -0.924252,0.39471 -0.405239,0.33423 -0.862583,0.61214 -1.225735,0.99207 -0.364657,0.4959 -0.571378,1.09688 -0.681778,1.69784 z" />
        <path
           style="fill:#ffffff;fill-opacity:0.20720723;stroke:none;stroke-width:0.082;stroke-linecap:butt;stroke-linejoin:round;stroke-miterlimit:4;stroke-dasharray:none;stroke-opacity:1"
           stroke-miterlimit="4"
           sodipodi:nodetypes="ccccccccccccccccccccccccccccccccccccc"
           inkscape:connector-curvature="0"
           id="path1249"
           d="m -67.389447,248.53841 c -0.280444,0.0685 -1.107678,0.35739 -0.967637,0.50543 0.793309,-0.26609 1.744886,-0.50083 2.486531,0.0321 0.518892,0.30114 0.666153,0.993 0.288038,1.47007 0.09721,0.19162 -0.157603,0.38959 -0.22397,0.58582 -0.501286,0.89834 -1.002571,1.79668 -1.503857,2.69502 -0.472651,-0.29276 -0.802446,0.48578 -1.03014,0.8035 -0.248607,0.36748 -0.321713,0.83224 -0.520439,1.21212 -0.135453,0.13031 -0.08439,0.3432 -0.248176,0.44044 -0.101683,0.15354 -0.129744,0.32547 -0.266179,0.4614 -0.02986,0.18852 -0.18564,0.29655 -0.250645,0.46219 -0.05998,0.17084 -0.208761,0.30723 -0.249492,0.48257 -0.15894,0.13596 -0.124757,0.38878 -0.300387,0.49457 -0.08799,0.17467 -0.13504,0.34006 -0.279618,0.487 -0.22911,0.39345 -0.696585,0.69951 -0.960146,1.11107 -0.315678,0.57837 0.657075,0.87774 1.045556,1.11758 0.754926,0.34815 0.779315,-0.76723 0.935751,-1.24007 0.0076,-0.25064 0.242987,-0.385 0.242758,-0.6431 0.196943,-0.0522 0.143948,-0.31701 0.296944,-0.42163 0.0912,-0.15762 0.125876,-0.3299 0.266952,-0.45301 0.02951,-0.18069 0.182627,-0.30402 0.242173,-0.46977 0.02245,-0.17235 0.235428,-0.26214 0.221688,-0.44185 0.113849,-0.14405 0.222948,-0.29008 0.252906,-0.47737 0.195349,-0.21243 0.292637,-0.48047 0.515543,-0.6879 0.426284,-0.49189 0.884729,-1.66358 0.560581,-1.8979 0.528839,-0.94464 1.299865,-2.27681 1.828704,-3.22145 -0.07775,-0.0582 0.393959,-0.0707 0.542178,-0.0763 0.26835,0.0106 0.557961,-0.0677 0.812461,8.5e-4 0.105846,0.11988 0.05788,0.40974 0.109982,0.52133 0.277601,0.12526 0.547427,0.29893 0.829683,0.39524 0.284283,-0.48893 0.568564,-0.97787 0.852847,-1.46679 -0.09889,-0.18237 -0.358979,-0.22066 -0.523209,-0.34463 -0.186393,-0.11083 -0.309638,-0.2165 -0.489927,-0.0546 -0.185485,0.17161 -0.364047,0.0413 -0.540221,-0.0722 -0.360529,-0.11283 -0.372109,-0.57061 -0.740391,-0.67961 -0.471485,-0.23157 -0.91312,-0.53383 -1.408913,-0.70824 -0.602077,-0.12801 -1.234857,-0.0688 -1.827936,0.0781 z" />
        <path
           style="fill:#ffffff;fill-opacity:0.20720723;stroke:none;stroke-width:0.082;stroke-linecap:butt;stroke-linejoin:round;stroke-miterlimit:4;stroke-dasharray:none;stroke-opacity:1"
           stroke-miterlimit="4"
           d="m -71.188992,251.0351 c -0.107457,0.26793 -0.353905,1.10879 -0.152018,1.08104 0.245223,-0.8 0.608039,-1.71048 1.472982,-2.00354 0.546842,-0.24676 1.19521,0.0361 1.36317,0.62117 0.212472,0.0321 0.225123,0.35487 0.346096,0.52304 0.438887,0.93042 0.877773,1.86084 1.31666,2.79126 -0.51313,0.21403 -0.07188,0.93527 0.05401,1.30532 0.154199,0.41602 0.489635,0.74592 0.682933,1.12858 0.02715,0.18599 0.230006,0.26834 0.213783,0.45813 0.06569,0.17203 0.189194,0.29491 0.220342,0.48496 0.135942,0.13397 0.13315,0.32354 0.230028,0.47278 0.104044,0.1482 0.128388,0.34856 0.247285,0.48372 0.01808,0.20837 0.243583,0.32769 0.227425,0.53209 0.09084,0.17319 0.197971,0.30769 0.233346,0.51078 0.186654,0.41527 0.163539,0.97354 0.344877,1.42738 0.286676,0.59328 1.096189,-0.0236 1.517294,-0.2 0.722423,-0.41137 -0.170475,-1.08023 -0.463995,-1.4826 -0.199435,-0.15198 -0.171706,-0.42165 -0.381734,-0.57164 0.07216,-0.19054 -0.174053,-0.30154 -0.170109,-0.48685 -0.07512,-0.16588 -0.195049,-0.29433 -0.213076,-0.4807 -0.129781,-0.12914 -0.14098,-0.32543 -0.241126,-0.47031 -0.127092,-0.1186 -0.07619,-0.34401 -0.23034,-0.43741 -0.0509,-0.1764 -0.106179,-0.3501 -0.241059,-0.48345 -0.05909,-0.28248 -0.220467,-0.51757 -0.259452,-0.81956 -0.151977,-0.63292 -0.838102,-1.68755 -1.217283,-1.56028 -0.460507,-0.97977 -1.095256,-2.38201 -1.555764,-3.36178 -0.09264,0.0294 0.171738,-0.36154 0.253435,-0.48533 0.164772,-0.21207 0.269589,-0.49317 0.473455,-0.66025 0.159094,-0.0164 0.366914,0.19136 0.487978,0.21392 0.263414,-0.15288 0.561652,-0.27126 0.804228,-0.44476 -0.232208,-0.51571 -0.464412,-1.03141 -0.69662,-1.54711 -0.205853,-0.0257 -0.388341,0.16354 -0.58472,0.22496 -0.198592,0.0871 -0.356252,0.12584 -0.329454,0.3667 0.03163,0.25071 -0.178266,0.32009 -0.37309,0.39732 -0.301549,0.22754 -0.680589,-0.0294 -0.983526,0.20667 -0.462693,0.24868 -0.965493,0.43196 -1.395831,0.73368 -0.454455,0.41516 -0.774527,0.96422 -1.000128,1.53207 z"
           id="path1251"
           inkscape:connector-curvature="0"
           sodipodi:nodetypes="ccccccccccccccccccccccccccccccccccccc" />
        <path
           style="fill:#ffffff;fill-opacity:0.20720723;stroke:none;stroke-width:0.082;stroke-linecap:butt;stroke-linejoin:round;stroke-miterlimit:4;stroke-dasharray:none;stroke-opacity:1"
           stroke-miterlimit="4"
           d="m -68.163824,264.51375 c -0.270763,0.10014 -1.059505,0.48179 -0.903443,0.61284 0.757648,-0.35512 1.676113,-0.69721 2.47387,-0.25265 0.549943,0.23978 0.775408,0.91025 0.454368,1.42745 0.118499,0.17924 -0.111986,0.40507 -0.155463,0.6076 -0.395195,0.94981 -0.790389,1.89961 -1.185584,2.84941 -0.503047,-0.23675 -0.741586,0.57441 -0.931427,0.9161 -0.204923,0.39352 -0.224366,0.86359 -0.378316,1.26371 -0.119652,0.14496 -0.04456,0.35061 -0.196146,0.46595 -0.08345,0.16417 -0.09165,0.33818 -0.211632,0.48883 -0.0081,0.1907 -0.150486,0.31584 -0.19611,0.48783 -0.04004,0.17658 -0.172232,0.3291 -0.192632,0.50795 -0.142337,0.15326 -0.07945,0.4005 -0.241819,0.5257 -0.06742,0.18359 -0.09524,0.35328 -0.222053,0.5158 -0.182582,0.41708 -0.611964,0.77462 -0.826698,1.21364 -0.247421,0.61069 0.753199,0.79678 1.166574,0.99059 0.789806,0.25948 0.6864,-0.85137 0.787701,-1.339 -0.02113,-0.24986 0.197335,-0.41028 0.167573,-0.66666 0.189676,-0.0744 0.106726,-0.3314 0.246746,-0.45284 0.07256,-0.16702 0.0873,-0.34213 0.21336,-0.48058 0.0086,-0.18288 0.146638,-0.32292 0.186825,-0.49439 0.0026,-0.17379 0.203885,-0.28736 0.169671,-0.46432 0.09662,-0.15613 0.188289,-0.31369 0.196618,-0.50317 0.169758,-0.23339 0.235734,-0.5108 0.43344,-0.74238 0.367196,-0.53744 0.688552,-1.75389 0.339719,-1.94958 0.417269,-0.99895 1.030789,-2.4106 1.448057,-3.40955 -0.0839,-0.0489 0.383281,-0.11532 0.529886,-0.13784 0.2678,-0.0202 0.546549,-0.1311 0.807221,-0.0921 0.118869,0.10698 0.104387,0.40043 0.168916,0.50532 0.290111,0.0927 0.578038,0.23433 0.869461,0.2977 0.226467,-0.51824 0.45293,-1.0365 0.679398,-1.55474 -0.119109,-0.16986 -0.381871,-0.17814 -0.559208,-0.2825 -0.197851,-0.0888 -0.332379,-0.17964 -0.492957,0.002 -0.164629,0.19171 -0.35693,0.0827 -0.544934,-0.01 -0.371072,-0.0708 -0.434961,-0.52428 -0.813297,-0.59043 -0.494886,-0.17609 -0.968208,-0.42583 -1.480702,-0.54236 -0.612771,-0.0583 -1.234619,0.073 -1.806992,0.28676 z"
           id="path1257"
           inkscape:connector-curvature="0"
           sodipodi:nodetypes="ccccccccccccccccccccccccccccccccccccc" />
        <path
           style="fill:#ffffff;fill-opacity:0.20720723;stroke:none;stroke-width:0.082;stroke-linecap:butt;stroke-linejoin:round;stroke-miterlimit:4;stroke-dasharray:none;stroke-opacity:1"
           stroke-miterlimit="4"
           sodipodi:nodetypes="ccccccccccccccccccccccccccccccccccccc"
           inkscape:connector-curvature="0"
           id="path1259"
           d="m -70.625948,266.20916 c -0.152511,0.2451 -0.541745,1.03014 -0.338111,1.038 0.380906,-0.74501 0.896861,-1.57832 1.799644,-1.71614 0.581481,-0.14767 1.170623,0.24387 1.234037,0.84926 0.203625,0.0686 0.159825,0.38867 0.249635,0.57535 0.270001,0.99268 0.54,1.98535 0.810001,2.97803 -0.54258,0.12132 -0.233793,0.90842 -0.174328,1.29475 0.07933,0.43653 0.35213,0.81985 0.475773,1.23034 -0.0057,0.18787 0.179715,0.30432 0.130661,0.48838 0.0347,0.18084 0.134896,0.32337 0.132442,0.51594 0.110511,0.15561 0.07472,0.34179 0.144104,0.50564 0.07662,0.16406 0.06567,0.3656 0.15919,0.51941 -0.01852,0.20833 0.182739,0.36513 0.131202,0.56359 0.05926,0.18637 0.141312,0.33748 0.140748,0.54363 0.111417,0.44145 -0.0086,0.98714 0.09081,1.46564 0.178882,0.63417 1.083523,0.16782 1.528928,0.0675 0.783065,-0.27916 0.02041,-1.09341 -0.198482,-1.54078 -0.169893,-0.18441 -0.09559,-0.44512 -0.276256,-0.62942 0.104266,-0.17505 -0.118832,-0.32726 -0.08265,-0.50905 -0.04506,-0.17643 -0.140763,-0.32382 -0.12603,-0.51048 -0.105286,-0.14978 -0.0821,-0.34502 -0.155462,-0.50514 -0.104476,-0.13893 -0.01506,-0.35202 -0.150576,-0.47086 -0.01937,-0.18257 -0.04353,-0.36325 -0.153106,-0.51807 -0.0089,-0.28845 -0.126882,-0.54807 -0.112635,-0.85223 -0.03934,-0.64972 -0.531141,-1.8078 -0.9267,-1.74857 -0.282689,-1.04503 -0.663317,-2.53644 -0.946007,-3.58148 -0.09635,0.0128 0.232124,-0.32607 0.334147,-0.43373 0.199213,-0.18011 0.35142,-0.43863 0.581287,-0.56762 0.159517,0.0116 0.327944,0.25238 0.443223,0.29569 0.286028,-0.10462 0.600334,-0.16921 0.869438,-0.29777 -0.138768,-0.54829 -0.277533,-1.09657 -0.416303,-1.64485 -0.198222,-0.0612 -0.410901,0.0933 -0.614979,0.1196 -0.210734,0.0512 -0.372733,0.0618 -0.388326,0.30367 -0.01255,0.25238 -0.231327,0.28412 -0.43663,0.32621 -0.336593,0.1715 -0.665047,-0.14758 -1.004493,0.0321 -0.498955,0.16423 -1.026004,0.25707 -1.502343,0.47916 -0.519859,0.3296 -0.930731,0.81447 -1.251853,1.3343 z" />
        <path
           style="fill:#ffffff;fill-opacity:0.20720723;stroke:none;stroke-width:0.082;stroke-linecap:butt;stroke-linejoin:round;stroke-miterlimit:4;stroke-dasharray:none;stroke-opacity:1"
           stroke-miterlimit="4"
           d="m -67.619193,280.24336 c -0.280444,0.0685 -1.107678,0.35739 -0.967637,0.50543 0.793309,-0.26609 1.744886,-0.50083 2.486531,0.0321 0.518892,0.30114 0.666153,0.993 0.288038,1.47007 0.09721,0.19162 -0.157603,0.38959 -0.22397,0.58582 -0.501286,0.89834 -1.002571,1.79668 -1.503857,2.69502 -0.472651,-0.29276 -0.802446,0.48578 -1.03014,0.8035 -0.248607,0.36748 -0.321713,0.83224 -0.520439,1.21212 -0.135453,0.13031 -0.08439,0.3432 -0.248176,0.44044 -0.101683,0.15354 -0.129744,0.32547 -0.266179,0.4614 -0.02986,0.18852 -0.18564,0.29655 -0.250645,0.46219 -0.05998,0.17084 -0.208761,0.30723 -0.249492,0.48257 -0.15894,0.13596 -0.124757,0.38878 -0.300387,0.49457 -0.08799,0.17467 -0.13504,0.34006 -0.279618,0.487 -0.22911,0.39345 -0.696585,0.69951 -0.960146,1.11107 -0.315678,0.57837 0.657075,0.87774 1.045556,1.11758 0.754926,0.34815 0.779315,-0.76723 0.935751,-1.24007 0.0076,-0.25064 0.242987,-0.385 0.242758,-0.6431 0.196943,-0.0522 0.143948,-0.31701 0.296944,-0.42163 0.0912,-0.15762 0.125876,-0.3299 0.266952,-0.45301 0.02951,-0.18069 0.182627,-0.30402 0.242173,-0.46977 0.02245,-0.17235 0.235428,-0.26214 0.221688,-0.44185 0.113849,-0.14405 0.222948,-0.29008 0.252906,-0.47737 0.195349,-0.21243 0.292637,-0.48047 0.515543,-0.6879 0.426284,-0.49189 0.884729,-1.66358 0.560581,-1.8979 0.528839,-0.94464 1.299865,-2.27681 1.828704,-3.22145 -0.07775,-0.0582 0.393959,-0.0707 0.542178,-0.0763 0.26835,0.0106 0.557961,-0.0677 0.812461,8.5e-4 0.105846,0.11988 0.05788,0.40974 0.109982,0.52133 0.277601,0.12526 0.547427,0.29893 0.829683,0.39524 0.284283,-0.48893 0.568564,-0.97787 0.852847,-1.46679 -0.09889,-0.18237 -0.358979,-0.22066 -0.523209,-0.34463 -0.186393,-0.11083 -0.309638,-0.2165 -0.489927,-0.0546 -0.185485,0.17161 -0.364047,0.0413 -0.540221,-0.0722 -0.360529,-0.11283 -0.372109,-0.57061 -0.740391,-0.67961 -0.471485,-0.23157 -0.91312,-0.53383 -1.408913,-0.70824 -0.602077,-0.12801 -1.234857,-0.0688 -1.827936,0.0781 z"
           id="path1261"
           inkscape:connector-curvature="0"
           sodipodi:nodetypes="ccccccccccccccccccccccccccccccccccccc" />
        <path
           style="fill:#ffffff;fill-opacity:0.20720723;stroke:none;stroke-width:0.082;stroke-linecap:butt;stroke-linejoin:round;stroke-miterlimit:4;stroke-dasharray:none;stroke-opacity:1"
           stroke-miterlimit="4"
           sodipodi:nodetypes="ccccccccccccccccccccccccccccccccccccc"
           inkscape:connector-curvature="0"
           id="path1263"
           d="m -71.418738,282.74005 c -0.107457,0.26793 -0.353905,1.10879 -0.152018,1.08104 0.245223,-0.8 0.608039,-1.71048 1.472982,-2.00354 0.546842,-0.24676 1.19521,0.0361 1.36317,0.62117 0.212472,0.0321 0.225123,0.35487 0.346096,0.52304 0.438887,0.93042 0.877773,1.86084 1.31666,2.79126 -0.51313,0.21403 -0.07188,0.93527 0.05401,1.30532 0.154199,0.41602 0.489635,0.74592 0.682933,1.12858 0.02715,0.18599 0.230006,0.26834 0.213783,0.45813 0.06569,0.17203 0.189194,0.29491 0.220342,0.48496 0.135942,0.13397 0.13315,0.32354 0.230028,0.47278 0.104044,0.1482 0.128388,0.34856 0.247285,0.48372 0.01808,0.20837 0.243583,0.32769 0.227425,0.53209 0.09084,0.17319 0.197971,0.30769 0.233346,0.51078 0.186654,0.41527 0.163539,0.97354 0.344877,1.42738 0.286676,0.59328 1.096189,-0.0236 1.517294,-0.2 0.722423,-0.41137 -0.170475,-1.08023 -0.463995,-1.4826 -0.199435,-0.15198 -0.171706,-0.42165 -0.381734,-0.57164 0.07216,-0.19054 -0.174053,-0.30154 -0.170109,-0.48685 -0.07512,-0.16588 -0.195049,-0.29433 -0.213076,-0.4807 -0.129781,-0.12914 -0.14098,-0.32543 -0.241126,-0.47031 -0.127092,-0.1186 -0.07619,-0.34401 -0.23034,-0.43741 -0.0509,-0.1764 -0.106179,-0.3501 -0.241059,-0.48345 -0.05909,-0.28248 -0.220467,-0.51757 -0.259452,-0.81956 -0.151977,-0.63292 -0.838102,-1.68755 -1.217283,-1.56028 -0.460507,-0.97977 -1.095256,-2.38201 -1.555764,-3.36178 -0.09264,0.0294 0.171738,-0.36154 0.253435,-0.48533 0.164772,-0.21207 0.269589,-0.49317 0.473455,-0.66025 0.159094,-0.0164 0.366914,0.19136 0.487978,0.21392 0.263414,-0.15288 0.561652,-0.27126 0.804228,-0.44476 -0.232208,-0.51571 -0.464412,-1.03141 -0.69662,-1.54711 -0.205853,-0.0257 -0.388341,0.16354 -0.58472,0.22496 -0.198592,0.0871 -0.356252,0.12584 -0.329454,0.3667 0.03163,0.25071 -0.178266,0.32009 -0.37309,0.39732 -0.301549,0.22754 -0.680589,-0.0294 -0.983526,0.20667 -0.462693,0.24868 -0.965493,0.43196 -1.395831,0.73368 -0.454455,0.41516 -0.774527,0.96422 -1.000128,1.53207 z" />
      </g>
    </g>
    <g
       id="g1068"
       transform="translate(64.826372,5.7735017)">
      <g
         transform="matrix(0.25834101,0,0,0.25834101,3.0233291,231.30087)"
         id="g982"
         style="filter:url(#filter988)">
        <path
           d="m -69.824182,31.163357 c -3.70083,0 -7.14356,2.51144 -7.71706,5.629523 l -26.077908,141.78468 a 22.963644,43.682317 73.359082 0 0 -36.77225,0.0148 22.963644,43.682317 73.359082 0 0 -36.84195,34.1836 22.963644,43.682317 73.359082 0 0 47.24868,10.61563 22.963644,43.682317 73.359082 0 0 37.083228,-30.45143 c 0.001,-0.007 0.005,-0.0153 0.006,-0.023 l 14.03934,-76.33015 c 0.50468,0.24529 1.01414,0.49112 1.50728,0.73557 l 1.08267,0.5381 c 6.89954,3.4716 12.62575,6.8726 17.27021,10.36056 7.85435,6.09839 12.58714,12.37387 14.51478,19.64986 -1.45039,3.34072 -3.09644,6.85519 -4.94973,10.57942 0.21596,-0.32216 0.40837,-0.62995 0.61994,-0.94949 -0.0819,0.16913 -0.16056,0.33523 -0.2433,0.50518 -0.10104,0.14646 -0.19724,0.29092 -0.29926,0.43773 0.0573,-0.0563 0.11298,-0.11465 0.17014,-0.17114 -0.11972,0.24536 -0.22918,0.48024 -0.35058,0.72735 2.11595,-2.0012 4.08216,-4.082 5.92668,-6.21701 1.00336,10.83994 -3.33397,23.99781 -12.17291,41.75985 0.21706,-0.32381 0.41018,-0.63327 0.6228,-0.95443 -0.0827,0.17078 -0.16261,0.3385 -0.24616,0.51013 -0.10103,0.14641 -0.19727,0.29095 -0.29926,0.43772 0.0573,-0.0563 0.11298,-0.11464 0.17014,-0.17113 -0.11972,0.24532 -0.22918,0.48027 -0.35057,0.72734 8.47868,-8.0189 14.81441,-17.19377 18.59354,-26.89698 0.16929,-0.41638 0.331,-0.83558 0.4907,-1.25557 0.0315,-0.0863 0.0652,-0.17203 0.0963,-0.25836 2.21747,-5.91544 3.47297,-12.18319 3.42407,-18.75467 0.002,-0.2093 -0.0104,-0.4192 -0.0113,-0.6286 -0.008,-0.39619 -0.0117,-0.79141 -0.0292,-1.18975 -0.0645,-2.42716 -0.2857,-4.85749 -0.68939,-7.28499 1.16444,-2.21092 2.18676,-4.45938 3.07309,-6.73699 0.16813,-0.41394 0.3305,-0.82984 0.48919,-1.24735 0.03,-0.0824 0.0626,-0.16435 0.0923,-0.24684 2.21914,-5.91911 3.47283,-12.19186 3.42259,-18.76782 0.001,-0.16165 -0.008,-0.32374 -0.008,-0.48544 -0.008,-0.44742 -0.012,-0.89428 -0.032,-1.34445 -0.4442,-16.455705 -8.51719,-33.110841 -26.20401,-47.335053 -7.58036,-6.096323 -10.61414,-12.642033 -11.97037,-17.905539 -0.0898,-0.426306 -0.18021,-0.849969 -0.26318,-1.276969 l 1.22944,-6.684399 c 0.5735,-3.118083 -1.94344,-5.629523 -5.64427,-5.629523 z m -1.62701,49.846217 c 0.14882,0.07332 0.30385,0.147254 0.45163,0.220508 l 1.08267,0.538103 c 6.9142,3.478981 12.64948,6.88785 17.29917,10.3836 12.62129,9.810075 17.17986,20.070025 14.96295,34.246135 -4.12689,-9.71102 -11.26243,-19.11615 -21.86835,-27.645725 -7.50153,-6.03293 -10.55107,-12.507573 -11.92807,-17.742621 z"
           id="rect896"
           inkscape:connector-curvature="0"
           stroke-miterlimit="4"
           style="opacity:1;fill:#000000;fill-opacity:0.14900004;stroke:none;stroke-width:0.05;stroke-linecap:round;stroke-linejoin:miter;stroke-miterlimit:4;stroke-dasharray:none;stroke-dashoffset:0;stroke-opacity:1" />
        <path
           d="m -70.476562,31.691406 c -4.207383,0.182434 -7.264821,4.057403 -7.11883,8.157544 -8.546681,46.465649 -17.09054,92.93182 -25.638988,139.39714 -14.92235,-5.6759 -31.70581,-2.72686 -46.15304,2.9966 -10.78166,4.65221 -22.10851,11.41218 -26.72764,22.75482 -3.02232,6.87839 1.46324,14.69179 8.11076,17.29475 13.28919,5.84983 28.62363,3.58833 42.04141,-0.66921 12.16675,-4.37941 24.88497,-11.08236 31.016132,-23.02775 2.388962,-6.74529 2.770197,-14.0722 4.371618,-21.0525 3.782168,-20.5644 7.564652,-41.12875 11.346624,-61.69319 12.448109,6.20039 25.981924,13.17016 32.892578,25.875 1.19476,2.8009 3.507959,6.03844 1.185547,8.89453 -0.479425,2.09392 -3.350179,5.64226 -2.68801,5.57746 -1.237593,1.89684 1.144684,-0.73593 2.031949,-1.70488 1.35066,-1.41184 3.166748,-4.41084 2.777155,-0.70852 0.538845,13.52335 -5.356325,26.20682 -10.931641,38.1836 -0.674945,-0.40575 -1.071751,2.46087 0.743691,-0.22714 12.842626,-13.28162 21.606734,-31.88314 19.028597,-50.63061 -1.042918,-3.36751 2.031566,-6.04394 2.790212,-9.21061 7.562598,-17.77046 3.964426,-39.228777 -7.870643,-54.327481 -4.942797,-7.042217 -11.826178,-12.259376 -18.072716,-18.031897 -4.280197,-4.553382 -7.901176,-10.364644 -8.468163,-16.644098 0.177881,-3.273878 2.981276,-8.012269 -0.717384,-10.348089 -1.164305,-0.740124 -2.592022,-0.96318 -3.949218,-0.855469 z m -0.75586,48.869141 c 12.429398,6.286069 26.018918,13.638209 32.121094,26.884763 2.932402,6.49503 2.942063,13.87107 1.703125,20.77149 -4.914331,-12.65431 -14.332626,-22.81469 -24.815326,-31.147181 -4.933267,-4.508798 -8.491218,-10.482346 -10.010846,-16.999307 0.333984,0.163412 0.667969,0.326823 1.001953,0.490235 z"
           id="path955"
           inkscape:connector-curvature="0"
           stroke-miterlimit="4"
           style="opacity:1;fill:#000000;fill-opacity:0.14900004;stroke:none;stroke-width:0.05;stroke-linecap:round;stroke-linejoin:miter;stroke-miterlimit:4;stroke-dasharray:none;stroke-dashoffset:0;stroke-opacity:1" />
        <path
           d="m -70.451172,32.191406 c -4.179916,0.112663 -6.952717,4.337793 -6.74279,8.239799 -8.552002,46.495566 -17.103047,92.991305 -25.655648,139.486765 -16.75458,-6.41461 -35.54804,-2.47727 -51.27403,5.07277 -9.59174,4.72772 -19.37967,11.8972 -22.29238,22.71824 -1.25064,7.2574 4.8347,13.69563 11.57688,15.28016 14.72963,4.82771 30.82794,1.53903 44.85847,-4.26019 10.13888,-4.40363 20.578748,-11.05375 24.984576,-21.56293 2.548982,-9.37545 3.471517,-19.09125 5.561345,-28.58205 3.278631,-17.82612 6.555262,-35.65261 9.83514,-53.4785 13.016,6.48544 27.337157,13.7022 34.134827,27.32144 1.482667,2.62964 2.756436,6.11537 0.665954,8.77621 -0.417746,1.19424 -1.100978,2.26978 -1.742188,3.35157 1.126926,-0.71711 2.288576,-3.99264 3.88086,-2.64258 1.189125,13.55974 -4.460205,26.54995 -10.072266,38.58789 12.64651,-13.37377 20.976195,-32.33004 17.832031,-50.95312 0.477173,-3.71894 3.158396,-6.70429 4.023438,-10.34376 6.723836,-18.52463 1.539671,-40.029296 -11.367363,-54.64888 -6.960366,-8.63886 -17.860206,-13.999352 -22.22834,-24.646037 -1.693641,-3.672178 -2.420359,-7.849217 -0.89607,-11.716053 1.208638,-3.483837 -1.289809,-6.510421 -5.082446,-6.000744 z m -1.5625,47.429688 c 13.037912,6.510786 27.331645,14.094216 33.560584,28.083586 3.028449,7.03088 2.688386,14.982 1.246057,22.35001 -4.820825,-13.67097 -15.169794,-24.56338 -26.283203,-33.498049 -4.79743,-4.700139 -8.103129,-10.846875 -9.494141,-17.410157 0.323568,0.158204 0.647135,0.316407 0.970703,0.47461 z"
           id="path960"
           inkscape:connector-curvature="0"
           stroke-miterlimit="4"
           style="opacity:1;fill:#000000;fill-opacity:0.14900004;stroke:none;stroke-width:0.05;stroke-linecap:round;stroke-linejoin:miter;stroke-miterlimit:4;stroke-dasharray:none;stroke-dashoffset:0;stroke-opacity:1" />
        <path
           d="m -70.046875,32.652344 c -4.386466,-0.08721 -6.984748,4.484943 -6.744746,8.360891 -8.557628,46.526859 -17.116163,93.053555 -25.673219,139.580515 -18.16041,-7.06674 -38.47071,-2.21125 -55.01368,6.72656 -8.38979,4.73872 -16.86837,11.82873 -18.58789,21.75781 -0.31479,7.35951 6.50649,12.80759 13.22623,13.99008 16.82833,4.49268 34.66947,-0.33641 49.69035,-8.25221 9.02874,-4.9999 17.751781,-12.72768 19.048186,-23.55558 4.618352,-25.64703 9.458344,-51.25778 14.130941,-76.89908 13.31409,6.59764 27.980004,13.9402 34.943359,27.82617 1.600249,2.66365 2.737227,6.46019 0.765625,9.14844 1.544628,-0.93147 2.656139,0.8595 2.214175,2.32378 0.647732,11.84254 -4.246448,23.8497 -8.741518,33.93794 11.314369,-13.13174 18.292919,-30.76941 15.396484,-48.13282 0.915399,-4.7637 4.156758,-8.73415 5.04438,-13.51318 5.872681,-20.12806 -2.086317,-42.830659 -17.602554,-56.630686 -7.586679,-6.711876 -16.746945,-13.703698 -18.578545,-24.391286 -0.840418,-3.144577 0.851925,-6.106111 0.914063,-9.154297 -0.295189,-2.093874 -2.419969,-3.360178 -4.431641,-3.123047 z m -2.71875,46.044922 c 13.357081,6.607431 28.011575,14.20813 34.583407,28.407054 3.545094,7.77399 2.842319,16.6838 1.135343,24.83123 -4.695211,-14.74256 -15.788961,-26.13904 -27.501658,-35.742582 -4.750037,-4.906929 -7.863889,-11.272514 -9.160451,-17.95664 0.314453,0.153646 0.628906,0.307292 0.943359,0.460938 z"
           id="path964"
           inkscape:connector-curvature="0"
           stroke-miterlimit="4"
           style="opacity:1;fill:#000000;fill-opacity:0.14900004;stroke:none;stroke-width:0.05;stroke-linecap:round;stroke-linejoin:miter;stroke-miterlimit:4;stroke-dasharray:none;stroke-dashoffset:0;stroke-opacity:1" />
        <path
           d="m -70.011719,33.150391 c -4.345147,-0.113841 -6.599953,4.663529 -6.37756,8.444875 -8.564535,46.559338 -17.126797,93.119094 -25.692751,139.678174 -18.99658,-7.56428 -40.52776,-2.14984 -57.56617,7.92232 -7.47692,4.68443 -15.33653,11.7744 -15.89477,21.2144 0.64309,7.20303 7.80962,11.62626 14.4043,12.56836 17.76617,3.9469 36.27489,-1.64045 51.49631,-10.86198 8.04421,-5.03927 14.763605,-13.17131 15.405185,-22.91458 4.559432,-25.20824 9.292355,-50.38453 13.895378,-75.58477 13.80056,6.78301 28.941507,14.3761 36.052735,28.85156 1.50477,2.36679 1.900144,5.7767 1.183593,8.13672 2.658141,0.93609 1.275463,4.34354 1.59961,6.4082 -0.308534,9.57128 -3.621497,18.72364 -7.355469,27.4336 9.830888,-12.54233 15.653318,-29.05306 12.980469,-45.0918 1.414714,-5.81158 5.11725,-10.82515 5.886363,-16.85406 4.412153,-20.66189 -5.056792,-42.784008 -21.56334,-55.668659 -7.302683,-6.274592 -15.303774,-13.995047 -15.690211,-24.272204 -0.04914,-3.048843 2.908622,-7.273992 -0.792969,-9.119141 -0.616297,-0.267003 -1.303294,-0.371585 -1.970703,-0.291015 z m -3.478515,44.636718 c 13.649888,6.705206 28.642026,14.307387 35.556349,28.685521 4.112635,8.55253 2.984716,18.44501 1.008104,27.40432 -4.419316,-15.60027 -16.133277,-27.62777 -28.330577,-37.710035 -4.875869,-5.161829 -7.920361,-11.872667 -9.153798,-18.829024 0.30664,0.149739 0.613281,0.299479 0.919922,0.449218 z"
           id="path968"
           inkscape:connector-curvature="0"
           stroke-miterlimit="4"
           style="opacity:1;fill:#000000;fill-opacity:0.14900004;stroke:none;stroke-width:0.05;stroke-linecap:round;stroke-linejoin:miter;stroke-miterlimit:4;stroke-dasharray:none;stroke-dashoffset:0;stroke-opacity:1" />
        <path
           d="m -69.736328,33.628906 c -4.466026,-0.231637 -6.466776,4.812885 -6.250612,8.548391 -8.57081,46.593235 -17.141217,93.186543 -25.71228,139.779733 -18.59258,-7.66915 -40.10705,-2.59965 -56.96203,7.24557 -7.78874,4.71324 -16.09029,11.89008 -16.32039,21.69621 1.09073,7.37008 8.88839,11.17907 15.61055,11.93127 18.19965,3.34556 37.3578,-2.88001 52.36718,-13.14063 7.070887,-5.15522 12.088544,-13.20842 12.544541,-22.05378 4.524351,-24.93012 9.181368,-49.83574 13.744525,-74.75872 13.953725,6.83025 29.25664,14.4234 36.639722,28.9143 1.70393,2.49547 2.026114,5.8313 1.690356,8.59547 2.583871,1.8073 0.955121,5.46554 1.31122,8.05375 -0.486045,7.73422 -2.848087,15.21143 -5.729188,22.35836 8.312353,-11.97214 12.818892,-27.03116 10.439453,-41.57422 1.782264,-6.5316 5.789071,-12.35998 6.328916,-19.24764 3.318046,-20.428984 -6.817972,-41.667649 -23.227354,-53.961345 -7.082164,-6.169448 -14.518685,-14.084008 -14.458984,-24.103516 0.210347,-2.665656 2.697221,-6.797147 -0.929688,-8.160156 -0.352593,-0.09822 -0.720158,-0.14219 -1.085937,-0.123047 z m -4.455078,43.259766 c 13.920451,6.803585 29.226134,14.392677 36.482658,28.921618 4.719684,9.34196 3.130434,20.26634 0.864998,30.04909 -4.113963,-16.5063 -16.4448,-29.16544 -29.119064,-39.727829 -4.990335,-5.417507 -7.957299,-12.461608 -9.128983,-19.682332 0.30013,0.146484 0.600261,0.292969 0.900391,0.439453 z"
           id="path972"
           inkscape:connector-curvature="0"
           stroke-miterlimit="4"
           style="opacity:1;fill:#000000;fill-opacity:0.14900004;stroke:none;stroke-width:0.05;stroke-linecap:round;stroke-linejoin:miter;stroke-miterlimit:4;stroke-dasharray:none;stroke-dashoffset:0;stroke-opacity:1" />
      </g>
      <rect
         ry="1.726"
         y="228.91"
         x="-26.292"
         height="51.32"
         width="3.4519999"
         id="rect819"
         stroke-miterlimit="4"
         rx="1.726"
         style="opacity:1;fill:url(#linearGradient858);fill-opacity:1;stroke:none;stroke-width:0.014;stroke-linecap:round;stroke-linejoin:miter;stroke-miterlimit:4;stroke-dasharray:none;stroke-dashoffset:0;stroke-opacity:1" />
      <ellipse
         transform="rotate(-19.32566)"
         ry="7.2779999"
         rx="10.917"
         cy="254.10001"
         cx="-124.49"
         id="path817-3"
         stroke-miterlimit="4"
         style="opacity:1;fill:url(#radialGradient850);fill-opacity:1;stroke:none;stroke-width:0.011;stroke-linecap:round;stroke-linejoin:miter;stroke-miterlimit:4;stroke-dasharray:none;stroke-dashoffset:0;stroke-opacity:1" />
      <ellipse
         id="ellipse880"
         cx="-124.35"
         cy="254.05"
         rx="10.917"
         ry="7.2779999"
         transform="rotate(-19.32566)"
         stroke-miterlimit="4"
         style="opacity:1;fill:url(#radialGradient887);fill-opacity:1;stroke:none;stroke-width:0.011;stroke-linecap:round;stroke-linejoin:miter;stroke-miterlimit:4;stroke-dasharray:none;stroke-dashoffset:0;stroke-opacity:1" />
      <path
         transform="matrix(0.02916374,0,0,0.02916374,-46.55147,285.70102)"
         sodipodi:nodetypes="cccccccccccccccczcccz"
         inkscape:connector-curvature="0"
         id="path959"
         d="m 286.37832,-299.31565 c -20.39756,0.3983 -39.29919,5.7836 -57.39648,13.8496 -13.0928,56.0932 -26.49485,111.4849 -25.78862,166.0996 19.1949,-1.1163 45.12623,-3.0504 64.1187,-5.4825 -5.80632,-60.0353 5.32377,-118.0174 38.77148,-173.2949 -6.73002,-0.9298 -13.29159,-1.2971 -19.70508,-1.1718 z m -72.90618,23.474 c -12.28772,7.1607 -35.32561,19.2072 -47.39069,27.1099 -27.81607,45.7399 -39.10245,88.281 -37.30469,128.2891 18.56423,1.7424 36.9509,2.3344 55.20312,2.0488 -0.78164,-51.9788 17.1013,-107.1155 29.49226,-157.4478 z m 58.60345,183.660702 c -20.31462,2.4264 -46.05623,1.3642 -66.23441,2.1534 2.46521,37.4063 13.90672,77.1837 23.60355,113.8154 17.92492,5.8583 42.86106,10.4785 87.61914,11.6015 -21.3666,-43.2956 -36.93225,-85.8882 -44.98828,-127.5703 z m -139.13281,3.2285 c 7.05016,31.9487 22.39372,62.2921 44.11914,91.4004 10.21605,3.1981 25.00266,13.6626 32.81596,17.2847 -9.43319,-33.6596 -21.98342,-73.7131 -24.47807,-106.5054 -17.54748,0.011 -35.0343,-0.6938 -52.45703,-2.1797 z"
         style="fill:#ffb5bc;fill-opacity:0.347;stroke:none;stroke-width:1;stroke-linecap:butt;stroke-linejoin:miter;stroke-opacity:1;filter:url(#filter1013)" />
      <g
         transform="matrix(0.25834101,0,0,0.25834101,-57.993242,238.55407)"
         id="g885">
        <path
           sodipodi:nodetypes="csccc"
           inkscape:connector-curvature="0"
           id="path877"
           d="m 133.74401,10.889517 c 1.55691,4.769829 3.01386,19.220295 18.37743,31.99559 42.07736,34.988679 44.886,82.376563 21.36035,114.345923 13.16357,-50.83034 6.30594,-70.465902 -39.15589,-94.103672 z"
           style="fill:url(#radialGradient888);fill-opacity:1;stroke:none;stroke-width:0.113;stroke-linecap:butt;stroke-linejoin:miter;stroke-opacity:1" />
        <path
           d="m 147.80837,70.488189 0.75529,-9.414182 c 30.98058,20.026386 46.40976,43.070773 24.91979,95.505443 11.78732,-44.5969 7.25702,-64.757917 -25.67508,-86.091261 z"
           id="path879"
           inkscape:connector-curvature="0"
           sodipodi:nodetypes="cccc"
           style="fill:url(#radialGradient890);fill-opacity:1;stroke:none;stroke-width:0.113;stroke-linecap:butt;stroke-linejoin:miter;stroke-opacity:1" />
        <path
           d="m 180.64029,79.706574 c 5.15654,27.080296 4.78278,49.310786 -7.08,76.863846 13.6903,-19.50239 21.46026,-46.16345 7.08,-76.863846 z"
           id="path881"
           inkscape:connector-curvature="0"
           sodipodi:nodetypes="ccc"
           style="fill:url(#linearGradient1477);fill-opacity:1;stroke:none;stroke-width:1;stroke-linecap:butt;stroke-linejoin:miter;stroke-opacity:1" />
        <path
           sodipodi:nodetypes="ccccc"
           inkscape:connector-curvature="0"
           id="path883"
           d="m 133.75553,11.122893 0.46831,51.918976 7.28905,3.938975 0.35154,-35.102882 c -2.7718,-1.365635 -6.81744,-15.808047 -8.1089,-20.755069 z"
           style="fill:url(#linearGradient894);fill-opacity:1;stroke:none;stroke-width:0.113;stroke-linecap:butt;stroke-linejoin:miter;stroke-opacity:1" />
      </g>
      <g
         transform="matrix(0.25834101,0,0,0.25834101,-58.068017,227.48733)"
         id="g875">
        <path
           d="m 133.74401,10.889517 c 1.55691,4.769829 3.01386,19.220295 18.37743,31.99559 42.07736,34.988679 44.886,82.376563 21.36035,114.345923 13.16357,-50.83034 6.30594,-70.465902 -39.15589,-94.103672 z"
           id="path821"
           inkscape:connector-curvature="0"
           sodipodi:nodetypes="csccc"
           style="fill:url(#radialGradient878);fill-opacity:1;stroke:none;stroke-width:0.113;stroke-linecap:butt;stroke-linejoin:miter;stroke-opacity:1" />
        <path
           sodipodi:nodetypes="cccc"
           inkscape:connector-curvature="0"
           id="path911"
           d="m 147.80837,70.488189 0.75529,-9.414182 c 30.98058,20.026386 46.40976,43.070773 24.91979,95.505443 11.78732,-44.5969 7.25702,-64.757917 -25.67508,-86.091261 z"
           style="fill:url(#radialGradient913);fill-opacity:1;stroke:none;stroke-width:0.113;stroke-linecap:butt;stroke-linejoin:miter;stroke-opacity:1" />
        <path
           sodipodi:nodetypes="ccc"
           inkscape:connector-curvature="0"
           id="path1122"
           d="m 180.64029,79.706574 c 5.15654,27.080296 4.78278,49.310786 -7.08,76.863846 13.6903,-19.50239 21.46026,-46.16345 7.08,-76.863846 z"
           style="fill:url(#linearGradient1124);fill-opacity:1;stroke:none;stroke-width:1;stroke-linecap:butt;stroke-linejoin:miter;stroke-opacity:1" />
        <path
           d="m 133.75553,11.122893 0.46831,51.918976 7.28905,3.938975 0.35154,-35.102882 c -2.7718,-1.365635 -6.81744,-15.808047 -8.1089,-20.755069 z"
           id="path915"
           inkscape:connector-curvature="0"
           sodipodi:nodetypes="ccccc"
           style="fill:url(#linearGradient923);fill-opacity:1;stroke:none;stroke-width:0.113;stroke-linecap:butt;stroke-linejoin:miter;stroke-opacity:1" />
      </g>
    </g>
  </g>
</svg>
