<?xml version="1.0" encoding="UTF-8" standalone="no"?>
<!-- Created with Inkscape (http://www.inkscape.org/) -->

<svg
   xmlns:dc="http://purl.org/dc/elements/1.1/"
   xmlns:cc="http://creativecommons.org/ns#"
   xmlns:rdf="http://www.w3.org/1999/02/22-rdf-syntax-ns#"
   xmlns:svg="http://www.w3.org/2000/svg"
   xmlns="http://www.w3.org/2000/svg"
   xmlns:xlink="http://www.w3.org/1999/xlink"
   xmlns:sodipodi="http://sodipodi.sourceforge.net/DTD/sodipodi-0.dtd"
   xmlns:inkscape="http://www.inkscape.org/namespaces/inkscape"
   id="svg2"
   version="1.1"
   inkscape:version="0.92.5 (2060ec1f9f, 2020-04-08)"
   width="256"
   height="256"
   viewBox="0 0 256 256"
   sodipodi:docname="adobe.svg">
  <metadata
     id="metadata8">
    <rdf:RDF>
      <cc:Work
         rdf:about="">
        <dc:format>image/svg+xml</dc:format>
        <dc:type
           rdf:resource="http://purl.org/dc/dcmitype/StillImage" />
        <dc:title />
      </cc:Work>
    </rdf:RDF>
  </metadata>
  <defs
     id="defs6">
    <linearGradient
       inkscape:collect="always"
       id="linearGradient4181">
      <stop
         style="stop-color:#1843b0;stop-opacity:1"
         offset="0"
         id="stop4183" />
      <stop
         style="stop-color:#5175d1;stop-opacity:0;"
         offset="1"
         id="stop4185" />
    </linearGradient>
    <linearGradient
       inkscape:collect="always"
       id="linearGradient4266">
      <stop
         style="stop-color:#d4e3f8;stop-opacity:1"
         offset="0"
         id="stop4268" />
      <stop
         style="stop-color:#0b356d;stop-opacity:0"
         offset="1"
         id="stop4270" />
    </linearGradient>
    <linearGradient
       inkscape:collect="always"
       id="linearGradient4250">
      <stop
         style="stop-color:#19205b;stop-opacity:1"
         offset="0"
         id="stop4252" />
      <stop
         id="stop4258"
         offset="0.86672121"
         style="stop-color:#5a68ea;stop-opacity:1" />
      <stop
         style="stop-color:#d0d4ff;stop-opacity:1"
         offset="1"
         id="stop4254" />
    </linearGradient>
    <linearGradient
       inkscape:collect="always"
       id="linearGradient4240">
      <stop
         style="stop-color:#a3aae2;stop-opacity:1;"
         offset="0"
         id="stop4242" />
      <stop
         style="stop-color:#2535ba;stop-opacity:1"
         offset="1"
         id="stop4244" />
    </linearGradient>
    <linearGradient
       inkscape:collect="always"
       id="linearGradient4231">
      <stop
         style="stop-color:#a3aae2;stop-opacity:1"
         offset="0"
         id="stop4233" />
      <stop
         style="stop-color:#20265f;stop-opacity:0"
         offset="1"
         id="stop4235" />
    </linearGradient>
    <linearGradient
       inkscape:collect="always"
       id="linearGradient4221">
      <stop
         style="stop-color:#ffffff;stop-opacity:1"
         offset="0"
         id="stop4223" />
      <stop
         style="stop-color:#88a5d4;stop-opacity:0"
         offset="1"
         id="stop4225" />
    </linearGradient>
    <linearGradient
       inkscape:collect="always"
       id="linearGradient4177">
      <stop
         style="stop-color:#cddaef;stop-opacity:1"
         offset="0"
         id="stop4179" />
      <stop
         style="stop-color:#6b97e8;stop-opacity:0.10638298"
         offset="1"
         id="stop4181" />
    </linearGradient>
    <linearGradient
       id="linearGradient4141-3"
       inkscape:collect="always">
      <stop
         id="stop4153"
         offset="0"
         style="stop-color:#003670;stop-opacity:1" />
      <stop
         style="stop-color:#0e427e;stop-opacity:0.29361701"
         offset="0.12089802"
         id="stop4161" />
      <stop
         style="stop-color:#2e579c;stop-opacity:0.41702127"
         offset="0.87531579"
         id="stop4159" />
      <stop
         id="stop4155"
         offset="1"
         style="stop-color:#5585db;stop-opacity:1" />
    </linearGradient>
    <linearGradient
       inkscape:collect="always"
       id="linearGradient4141">
      <stop
         style="stop-color:#003670;stop-opacity:0.75744683"
         offset="0"
         id="stop4143" />
      <stop
         style="stop-color:#7ca2e5;stop-opacity:0.69361705"
         offset="1"
         id="stop4145" />
    </linearGradient>
    <linearGradient
       inkscape:collect="always"
       xlink:href="#linearGradient4141"
       id="linearGradient4147"
       x1="589.57532"
       y1="409.45761"
       x2="594.3017"
       y2="103.52541"
       gradientUnits="userSpaceOnUse"
       spreadMethod="reflect"
       gradientTransform="matrix(0.50348946,0,0,0.50348946,-164.54125,15.490148)" />
    <linearGradient
       inkscape:collect="always"
       xlink:href="#linearGradient4141-3"
       id="linearGradient4157"
       gradientUnits="userSpaceOnUse"
       spreadMethod="reflect"
       x1="792.11768"
       y1="282.33896"
       x2="375.65762"
       y2="274.71185"
       gradientTransform="matrix(0.50348946,0,0,0.50348946,-164.82288,15.490149)" />
    <linearGradient
       inkscape:collect="always"
       xlink:href="#linearGradient4177"
       id="linearGradient4183"
       x1="582.91669"
       y1="99.321312"
       x2="588.16949"
       y2="198.6731"
       gradientUnits="userSpaceOnUse"
       gradientTransform="matrix(0.50348946,0,0,0.50348946,-165.66776,12.673867)" />
    <radialGradient
       inkscape:collect="always"
       xlink:href="#linearGradient4221"
       id="radialGradient4227"
       cx="123.40907"
       cy="146.46248"
       fx="123.40907"
       fy="146.46248"
       r="62.411061"
       gradientTransform="matrix(1.3609977,0.02707483,-0.01880167,0.94512224,-40.292068,4.691283)"
       gradientUnits="userSpaceOnUse" />
    <linearGradient
       inkscape:collect="always"
       xlink:href="#linearGradient4231"
       id="linearGradient4237"
       x1="116.01196"
       y1="116.88655"
       x2="117.19931"
       y2="88.723732"
       gradientUnits="userSpaceOnUse"
       spreadMethod="reflect" />
    <linearGradient
       inkscape:collect="always"
       xlink:href="#linearGradient4240"
       id="linearGradient4246"
       x1="174.0591"
       y1="33.260887"
       x2="175.73744"
       y2="69.309288"
       gradientUnits="userSpaceOnUse"
       gradientTransform="matrix(1.0005369,0,0,0.93506175,-1.1947008,7.5403903)" />
    <linearGradient
       inkscape:collect="always"
       xlink:href="#linearGradient4250"
       id="linearGradient4256"
       x1="178.28352"
       y1="222.23338"
       x2="170.10487"
       y2="26.50181"
       gradientUnits="userSpaceOnUse"
       gradientTransform="matrix(1,0,0,0.9374104,-0.28162817,8.0921861)" />
    <linearGradient
       inkscape:collect="always"
       xlink:href="#linearGradient4231"
       id="linearGradient4262"
       gradientUnits="userSpaceOnUse"
       spreadMethod="reflect"
       x1="116.01196"
       y1="116.88655"
       x2="117.19931"
       y2="88.723732"
       gradientTransform="matrix(1.0716031,0,0,1.0716031,-9.1256961,-10.32549)" />
    <linearGradient
       inkscape:collect="always"
       xlink:href="#linearGradient4266"
       id="linearGradient4272"
       x1="140.30936"
       y1="60.463089"
       x2="140.24532"
       y2="116.78872"
       gradientUnits="userSpaceOnUse" />
    <linearGradient
       inkscape:collect="always"
       xlink:href="#linearGradient4181"
       id="linearGradient4187"
       x1="136.88904"
       y1="138.18474"
       x2="136.88904"
       y2="118.18914"
       gradientUnits="userSpaceOnUse" />
    <filter
       inkscape:collect="always"
       style="color-interpolation-filters:sRGB"
       id="filter926"
       x="-0.013524884"
       width="1.0270498"
       y="-0.10643343"
       height="1.2128669">
      <feGaussianBlur
         inkscape:collect="always"
         stdDeviation="1.1423491"
         id="feGaussianBlur928" />
    </filter>
  </defs>
  <sodipodi:namedview
     pagecolor="#ff0000"
     bordercolor="#666666"
     borderopacity="1"
     objecttolerance="10"
     gridtolerance="10"
     guidetolerance="10"
     inkscape:pageopacity="0"
     inkscape:pageshadow="2"
     inkscape:window-width="1920"
     inkscape:window-height="1056"
     id="namedview4"
     showgrid="false"
     inkscape:zoom="3.4023438"
     inkscape:cx="128"
     inkscape:cy="128"
     inkscape:window-x="0"
     inkscape:window-y="0"
     inkscape:window-maximized="1"
     inkscape:current-layer="svg2" />
  <g
     id="g920"
     style="fill:#000000;fill-opacity:0.10810811;filter:url(#filter926)"
     transform="translate(279.57108,24.282427)">
    <g
       id="g912"
       style="fill:#000000;fill-opacity:0.10810811">
      <path
         style="opacity:1;fill:#000000;fill-opacity:0.10810811;stroke:none;stroke-width:5.36533594;stroke-linecap:round;stroke-linejoin:round;stroke-miterlimit:4;stroke-dasharray:none;stroke-dashoffset:0;stroke-opacity:1"
         d="m -240.33883,207.62548 h 188.065971 c 4.056576,0 7.322334,-2.22733 7.322334,-4.99401 V 186.8603 c 0,-2.76668 -3.265758,-4.994 -7.322334,-4.994 H -240.33883 c -4.05657,0 -7.32233,2.22732 -7.32233,4.994 v 15.77117 c 0,2.76668 3.26576,4.99401 7.32233,4.99401 z"
         id="rect4276"
         inkscape:connector-curvature="0" />
      <path
         style="opacity:1;fill:#000000;fill-opacity:0.10810811;stroke:none;stroke-width:5.36533594;stroke-linecap:round;stroke-linejoin:round;stroke-miterlimit:4;stroke-dasharray:none;stroke-dashoffset:0;stroke-opacity:1"
         d="m -241.04102,182.89258 c -5.15122,-0.27889 -6.81948,4.81313 -5.62109,9.00586 0.89588,4.78723 -2.9299,13.38163 4.3418,14.52344 63.76221,0.41435 127.59274,0.18728 191.371091,0.11328 7.195042,-0.32981 4.720649,-8.33306 4.998047,-12.94141 0.399924,-4.15046 1.037154,-10.52654 -4.978516,-10.63672 -63.362082,-0.19272 -126.744222,-0.0638 -190.111332,-0.0644 z"
         id="path891"
         inkscape:connector-curvature="0" />
      <path
         style="opacity:1;fill:#000000;fill-opacity:0.10810811;stroke:none;stroke-width:5.36533594;stroke-linecap:round;stroke-linejoin:round;stroke-miterlimit:4;stroke-dasharray:none;stroke-dashoffset:0;stroke-opacity:1"
         d="m -145.98438,183.85352 c -32.39001,0.22289 -64.88214,-0.37788 -97.21093,0.33398 -5.37602,2.9275 -1.01232,9.59721 -2.6211,14.18945 -1.0539,4.11986 1.85572,8.56197 6.59566,7.06091 63.24163,0.23343 126.54245,0.48304 189.748094,-0.14098 5.06064,-2.79912 1.450275,-9.68368 2.728515,-14.28126 0.864898,-3.85658 -1.675112,-8.39919 -6.203119,-7.06352 -31.012288,-0.0894 -62.02471,-0.10729 -93.03712,-0.0986 z"
         id="path895"
         inkscape:connector-curvature="0" />
      <path
         style="opacity:1;fill:#000000;fill-opacity:0.10810811;stroke:none;stroke-width:5.36533594;stroke-linecap:round;stroke-linejoin:round;stroke-miterlimit:4;stroke-dasharray:none;stroke-dashoffset:0;stroke-opacity:1"
         d="m -51.664062,184.72656 c -63.706028,0.564 -127.509718,-0.38201 -191.248048,0.45508 -4.50451,3.64357 0.003,9.98872 -2.11719,14.75195 -0.40646,4.36583 4.41813,5.6024 7.81249,4.51083 62.53316,0.1565 125.14757,0.6051 187.630872,-0.24911 3.95256,-3.93536 0.422801,-10.07651 2.003907,-14.96484 -0.03824,-2.21068 -1.579332,-4.76009 -4.082031,-4.50391 z"
         id="path899"
         inkscape:connector-curvature="0" />
      <path
         style="opacity:1;fill:#000000;fill-opacity:0.10810811;stroke:none;stroke-width:5.36533594;stroke-linecap:round;stroke-linejoin:round;stroke-miterlimit:4;stroke-dasharray:none;stroke-dashoffset:0;stroke-opacity:1"
         d="m -51.597656,185.72461 c -63.661654,0.60934 -127.405644,-0.47105 -191.017574,0.5293 -3.27906,4.23146 0.52533,9.95247 -1.4043,14.68945 1.80119,5.36235 8.96434,1.29406 12.80661,2.52069 60.39943,0.14443 120.83284,0.58496 181.210967,-0.28827 2.945169,-4.41141 0.137002,-10.08338 1.279297,-14.93359 -0.30875,-1.30515 -1.384175,-2.72059 -2.875,-2.51758 z"
         id="path903"
         inkscape:connector-curvature="0" />
    </g>
  </g>
  <path
     style="opacity:1;fill:#6270e3;fill-opacity:1;stroke:url(#linearGradient4246);stroke-width:2.90173626;stroke-linecap:round;stroke-linejoin:round;stroke-miterlimit:4;stroke-dasharray:none;stroke-dashoffset:0;stroke-opacity:1"
     d="m 166.6649,36.954359 c -7.33185,0 -13.23367,5.515605 -13.23367,12.367653 v 5.08287 H 47.556064 c -7.33183,0 -13.233662,5.517443 -13.233662,12.369479 V 204.42203 c 0,6.85203 5.901832,12.36765 13.233662,12.36765 H 204.23388 c 7.33184,0 13.23366,-5.51562 13.23366,-12.36765 V 66.774361 c 0,-6.852036 -5.90182,-12.369479 -13.23366,-12.369479 h -1.70795 v -5.08287 c 0,-6.852048 -5.90182,-12.367653 -13.23366,-12.367653 z"
     id="rect4185"
     inkscape:connector-curvature="0"
     sodipodi:nodetypes="sscsssssssscsss" />
  <path
     id="path4248"
     d="m 167.4879,38.154577 c -7.32791,0 -13.22656,5.529459 -13.22656,12.398718 v 4.521096 H 48.442981 c -7.327897,0 -13.226562,5.5313 -13.226562,12.400547 V 205.46834 c 0,6.86924 5.898665,12.39871 13.226562,12.39871 H 205.03673 c 7.3279,0 13.22656,-5.52947 13.22656,-12.39871 V 67.474938 c 0,-6.869247 -5.89866,-12.400547 -13.22656,-12.400547 h -1.70703 v -4.521096 c 0,-6.869259 -5.89866,-12.398718 -13.22656,-12.398718 z"
     style="opacity:1;fill:url(#linearGradient4256);fill-opacity:1;stroke:none;stroke-width:3;stroke-linecap:round;stroke-linejoin:round;stroke-miterlimit:4;stroke-dasharray:none;stroke-dashoffset:0;stroke-opacity:1"
     inkscape:connector-curvature="0"
     sodipodi:nodetypes="sscsssssssscsss" />
  <path
     style="opacity:1;fill:url(#linearGradient4147);fill-opacity:1;stroke:none;stroke-width:1.12699997;stroke-linecap:round;stroke-linejoin:round;stroke-miterlimit:4;stroke-dasharray:none;stroke-dashoffset:0;stroke-opacity:1"
     d="m 38.561288,66.760732 186.035082,0 c 11.58282,0 22.27086,9.405301 20.90762,20.907613 L 231.85003,202.87356 c -1.36323,11.50232 -9.32479,20.90762 -20.90761,20.90762 l -151.900203,0 c -11.582819,0 -25.449731,-8.13353 -26.881221,-19.62756 L 17.653671,87.668345 c -1.43149,-11.49402 9.324797,-20.907613 20.907617,-20.907613 z"
     id="rect4138"
     inkscape:connector-curvature="0"
     sodipodi:nodetypes="sssssssss" />
  <path
     sodipodi:nodetypes="sssssssss"
     inkscape:connector-curvature="0"
     id="path4149"
     d="m 38.279662,66.760733 186.035078,0 c 11.58282,0 22.27086,9.405301 20.90762,20.907613 L 231.5684,202.87356 c -1.36323,11.50232 -9.32479,20.90762 -20.90761,20.90762 l -151.900198,0 c -11.58282,0 -25.44974,-8.13353 -26.88123,-19.62756 L 17.372042,87.668346 c -1.43149,-11.49402 9.3248,-20.907613 20.90762,-20.907613 z"
     style="opacity:1;fill:url(#linearGradient4157);fill-opacity:1;stroke:none;stroke-width:1.12699997;stroke-linecap:round;stroke-linejoin:round;stroke-miterlimit:4;stroke-dasharray:none;stroke-dashoffset:0;stroke-opacity:1" />
  <path
     style="opacity:1;fill:url(#linearGradient4183);fill-opacity:1;stroke:none;stroke-width:3;stroke-linecap:round;stroke-linejoin:round;stroke-miterlimit:4;stroke-dasharray:none;stroke-dashoffset:0;stroke-opacity:1"
     d="m 37.434775,63.944451 186.035085,0 c 11.58282,0 21.93277,9.370251 20.90762,20.907613 l -2.41506,27.179816 c -3.5654,23.02163 -218.962969,41.36277 -221.748631,1.69825 L 16.527158,84.852064 C 15.060377,73.362492 25.851955,63.944451 37.434775,63.944451 Z"
     id="path4163"
     inkscape:connector-curvature="0"
     sodipodi:nodetypes="sssccss" />
  <path
     style="color:#000000;font-style:normal;font-variant:normal;font-weight:normal;font-stretch:normal;font-size:medium;line-height:normal;font-family:sans-serif;text-indent:0;text-align:start;text-decoration:none;text-decoration-line:none;text-decoration-style:solid;text-decoration-color:#000000;letter-spacing:normal;word-spacing:normal;text-transform:none;direction:ltr;block-progression:tb;writing-mode:lr-tb;baseline-shift:baseline;text-anchor:start;white-space:normal;clip-rule:nonzero;display:inline;overflow:visible;visibility:visible;opacity:1;isolation:auto;mix-blend-mode:normal;color-interpolation:sRGB;color-interpolation-filters:linearRGB;solid-color:#000000;solid-opacity:1;fill:url(#linearGradient4187);fill-opacity:1;fill-rule:evenodd;stroke:none;stroke-width:3.9000001;stroke-linecap:round;stroke-linejoin:miter;stroke-miterlimit:4;stroke-dasharray:3.9000001, 3.9000001;stroke-dashoffset:0;stroke-opacity:1;color-rendering:auto;image-rendering:auto;shape-rendering:auto;text-rendering:auto;enable-background:accumulate"
     d="m 19.324219,113.86523 -0.123047,1.0918 0.140625,0.8125 0.01563,0.0898 0.02539,0.0879 0.214844,0.79296 0.02344,0.0859 0.03125,0.084 0.291015,0.77539 0.0293,0.0801 0.03711,0.0781 0.363281,0.75781 0.03516,0.0742 0.04102,0.0703 0.296875,0.50586 1.326172,0.93164 1.570312,-0.39257 0.734375,-1.44336 -0.265625,-1.06641 -0.257812,-0.43945 -0.291016,-0.60742 -0.224609,-0.60743 -0.169922,-0.62304 -0.125,-0.7168 -0.916016,-1.33594 -1.609375,-0.18164 z m 221.142581,1.33399 -0.24414,0.30078 -0.34375,0.35938 -0.39453,0.3496 -1.09961,0.8125 -0.375,0.22461 -0.91602,1.33594 0.4082,1.56641 1.45117,0.71875 1.06446,-0.27735 0.44726,-0.26757 0.0801,-0.0488 0.0762,-0.0547 1.2461,-0.91992 0.0723,-0.0527 0.0664,-0.0605 0.52148,-0.46485 0.0547,-0.0488 0.0508,-0.0508 0.45117,-0.46875 0.0586,-0.0605 0.0547,-0.0664 0.30273,-0.375 0.40234,-1.56836 -0.91992,-1.33203 -1.61133,-0.17578 z m -5.6875,3.73437 -1.30469,0.57032 -0.0117,0.004 -2.2168,0.85157 -1.13476,1.15429 0.1289,1.61524 1.30665,0.95898 1.09374,-0.0879 2.22852,-0.85352 0.041,-0.0156 0.041,-0.0176 1.38867,-0.60547 1.08008,-1.20508 -0.20117,-1.60742 -1.34961,-0.90039 z m -211.43555,1.17579 -0.304688,1.58984 0.552735,0.95117 0.05469,0.0527 0.03906,0.0371 0.04297,0.0352 0.771484,0.6543 0.03906,0.0332 0.04102,0.0312 0.835938,0.63672 0.03711,0.0273 0.03711,0.0274 0.898438,0.62109 0.05078,0.0332 0.05273,0.0332 0.572265,0.34375 1.609375,0.18164 1.19336,-1.09766 -0.04883,-1.61914 -0.74414,-0.80859 -0.515625,-0.31055 -0.828125,-0.57031 -0.744141,-0.56641 -0.693359,-0.58984 -0.01563,-0.0137 -0.0039,-0.002 -0.02344,-0.0195 -0.0078,0.01 -1.498047,-0.51563 z m 204.32422,1.42968 -1.43945,0.44141 -2.25586,0.62891 -1.24024,1.04492 -0.0215,1.61914 1.20898,1.07812 1.09961,0.0156 2.25586,-0.62891 0.0254,-0.008 0.0234,-0.008 1.48828,-0.45704 1.21289,-1.07421 -0.0215,-1.6211 -1.23633,-1.04492 z m -10.65039,2.78516 0,0.002 -0.50781,0.10742 -1.29883,0.96875 -0.1211,1.61524 1.14454,1.14844 1.0957,0.0801 0.53906,-0.11523 0.0176,-0.004 0.0176,-0.004 3.25781,-0.76172 1.2832,-0.99024 0.0898,-1.61718 -1.16211,-1.12696 -1.09766,-0.0625 z m -187.375002,0.46289 0.166016,1.61133 0.798828,0.7539 0.210937,0.10547 0.05273,0.0273 0.05273,0.0234 2.449219,1.0625 0.04687,0.0195 0.04492,0.0176 0.93164,0.34961 1.617188,-0.11523 0.972656,-1.29492 -0.34375,-1.58399 -0.876953,-0.6582 -0.884766,-0.33203 -2.351562,-1.01953 -0.15625,-0.0801 -1.619141,-0.0664 z m 180.328122,0.99219 0,0.002 -1.04882,0.19141 -1.32618,0.92968 -0.16797,1.61133 1.10743,1.18164 1.09375,0.11328 1.07617,-0.19726 0.0137,-0.004 0.0137,-0.002 2.75196,-0.54688 1.31445,-0.94726 0.14453,-1.61328 -1.125,-1.16602 -1.0957,-0.0977 z m -172.214841,0.76562 -0.914062,1.33594 0.410156,1.56641 0.90625,0.62109 0.931641,0.30273 0.03516,0.0117 0.03516,0.01 2.808594,0.80078 1.601562,-0.24414 0.865235,-1.3711 -0.470703,-1.55078 -0.927735,-0.58593 -2.791015,-0.79297 -0.01758,-0.006 -0.863282,-0.28125 z m 163.515621,0.74024 -1.3457,0.90234 -0.19726,1.60742 1.08593,1.20313 1.08985,0.13476 3.84765,-0.63281 1.34571,-0.9043 0.19726,-1.60742 -1.08398,-1.20312 -1.0918,-0.13282 z m -7.66992,1.15625 -1.36523,0.87304 -0.23242,1.60352 1.05859,1.22656 1.08789,0.1582 3.86133,-0.54687 1.36328,-0.87305 0.23438,-1.60351 -1.0586,-1.22657 -1.08789,-0.1582 z m -148.482419,0.25781 -0.777344,1.42187 0.5625,1.51758 0.964844,0.5293 3.197265,0.70117 0.02539,0.004 0.02344,0.006 0.615235,0.11718 1.574219,-0.38086 0.742187,-1.4414 -0.601563,-1.50391 -0.976562,-0.50195 -0.566406,-0.10938 -0.01172,-0.002 -0.03711,-0.008 -3.150391,-0.69141 z m 144.580079,0.29687 -0.0391,0.006 -3.75391,0.45703 -1.38086,0.84571 -0.26367,1.59961 1.0332,1.24609 1.08399,0.17969 3.79297,-0.46289 0.0176,-0.002 0.0195,-0.002 0.0801,-0.0117 1.36328,-0.87304 0.23438,-1.60352 -1.0586,-1.22656 -1.08789,-0.15821 z m -137.007814,1.30079 -0.708984,1.45507 0.636719,1.49024 0.988281,0.48242 2.951172,0.5 0.01953,0.002 0.01953,0.004 0.896485,0.13281 1.55664,-0.44922 0.679688,-1.4707 -0.666016,-1.47656 -0.998047,-0.46094 -0.857422,-0.12695 -0.0039,0 -0.03516,-0.006 -2.91211,-0.49414 z m 128.015624,-0.20313 -0.008,0 -0.0254,0.004 -2.48047,0.25781 -1.39648,0.82226 -0.29297,1.59375 1.01367,1.26368 1.08008,0.19922 2.51367,-0.26172 0.0176,-0.002 0.0156,-0.002 1.36328,-0.16602 1.38086,-0.84765 0.26563,-1.59766 -1.03516,-1.24609 -1.08398,-0.17969 z m -9.40234,0.97852 -0.83789,0.0723 -1.41016,0.79883 -0.31836,1.58984 0.99024,1.28125 1.07812,0.2168 0.86914,-0.0762 0.0156,-0.002 0.0176,-0.002 3.00977,-0.3125 1.39648,-0.82226 0.29297,-1.59375 -1.01367,-1.26563 -1.08008,-0.19726 z m -110.962893,0.46289 -0.652344,1.48242 0.695313,1.46484 1.003906,0.44336 3.253906,0.41992 0.01563,0.002 0.01758,0.002 0.615235,0.0703 1.539062,-0.5039 0.626953,-1.49414 -0.716797,-1.45313 -1.013672,-0.42383 -0.582031,-0.0664 -0.0078,0 -0.02539,-0.004 -3.220703,-0.41797 z m 102.353513,0.28906 -1.4082,0.79883 -0.32031,1.58789 0.99218,1.28125 1.07618,0.21679 3.88476,-0.33789 1.41016,-0.79882 0.32031,-1.58985 -0.99219,-1.28125 -1.07617,-0.21679 z M 68.041016,132.5 l -0.603516,1.50391 0.740234,1.4414 1.019532,0.40821 3.880859,0.37695 1.53125,-0.52735 0.605469,-1.5039 -0.740235,-1.43945 -1.019531,-0.41016 -3.882812,-0.37695 z m 86.906254,-0.10547 -1.42188,0.77735 -0.34375,1.58203 0.9707,1.29687 1.07422,0.23438 3.88867,-0.27735 1.42383,-0.77734 0.34375,-1.58399 -0.9707,-1.29687 -1.07422,-0.23242 z m -7.75391,0.48242 -1.43359,0.75586 -0.36915,1.57617 0.95118,1.3125 1.06836,0.25 3.89453,-0.21679 1.43359,-0.75391 0.36914,-1.57812 -0.94922,-1.3125 -1.07031,-0.25 z m -71.404298,0.34375 -0.582031,1.50977 0.759766,1.43164 1.025391,0.39453 0.730468,0.0606 0.01172,0.002 0.01367,0 3.160156,0.2207 1.517578,-0.57031 0.5625,-1.51953 -0.779297,-1.41992 -1.03125,-0.38086 -3.134765,-0.21875 -0.01367,-0.002 -0.01172,0 -0.703125,-0.0586 z m 65.927738,-0.0371 -0.0312,0.002 -2.25196,0.0898 -1.44531,0.73242 -0.39258,1.57227 0.92969,1.32617 1.06641,0.26563 2.28125,-0.0918 0.0156,0 0.0156,0 1.61328,-0.0918 1.43359,-0.7539 0.36914,-1.57618 -0.95117,-1.3125 -1.07031,-0.25 z m -58.179691,0.5918 -0.544921,1.52539 0.796874,1.41016 1.035157,0.36914 2.148437,0.12304 0.0098,0 0.01172,0.002 1.748047,0.0781 1.501953,-0.60351 0.527343,-1.53321 -0.8125,-1.40039 -1.039062,-0.35742 -1.72461,-0.0781 0,-0.002 -2.148437,-0.12109 z m 48.103511,-0.18555 -1.44531,0.73047 -0.39453,1.57227 0.93164,1.32617 1.06446,0.26758 3.89843,-0.15625 1.44531,-0.73242 0.39258,-1.57227 -0.92968,-1.32617 -1.06641,-0.26758 z m -40.349604,0.58985 -0.501954,1.54101 0.835938,1.38672 1.042969,0.3418 3.898437,0.11523 1.494141,-0.6289 0.501953,-1.53907 -0.833984,-1.38867 -1.044922,-0.34179 -3.898438,-0.11524 z m 32.583984,-0.40039 -1.45703,0.70898 -0.41992,1.56445 0.91015,1.3418 1.06055,0.2832 3.89844,-0.0937 1.45703,-0.70898 0.41797,-1.56641 -0.90821,-1.33984 -1.06054,-0.28516 z m -24.787109,0.63281 -0.501953,1.53906 0.835937,1.38867 1.042965,0.3418 0.98243,0.0293 0.0176,0 0.0195,0 2.91796,0.0293 1.48047,-0.6582 0.47266,-1.54883 -0.86133,-1.37109 -1.05078,-0.32031 -2.91797,-0.0312 -0.94336,-0.0274 z m 17.019529,-0.53516 -1.46875,0.68555 -0.44531,1.55664 0.88672,1.35742 1.05664,0.30078 3.90039,-0.0293 1.46875,-0.6836 0.44336,-1.55859 -0.88477,-1.35547 -1.05664,-0.30273 z m -9.24609,0.66211 -0.47071,1.54883 0.86133,1.37305 1.05078,0.32031 3.09961,0.0312 0.0176,0 0.0176,0 0.79883,-0.006 1.46875,-0.68359 0.44531,-1.5586 -0.88672,-1.35547 -1.05664,-0.30273 -0.76562,0.008 -0.0176,0 -0.0176,0 -3.06445,-0.0332 z"
     id="path4274"
     inkscape:connector-curvature="0" />
  <path
     style="opacity:1;fill:url(#radialGradient4227);fill-opacity:1;stroke:#4c5ad9;stroke-width:3;stroke-linecap:round;stroke-linejoin:round;stroke-miterlimit:4;stroke-dasharray:none;stroke-dashoffset:0;stroke-opacity:1"
     d="m 121.04751,85.961974 a 55.255839,55.255839 0 0 0 -55.255013,55.255016 55.255839,55.255839 0 0 0 55.255013,55.25601 55.255839,55.255839 0 0 0 15.77732,-2.3434 31.148083,31.148083 0 0 1 -10.01669,-22.83108 31.148083,31.148083 0 0 1 31.1485,-31.14751 31.148083,31.148083 0 0 1 18.10792,5.83635 55.255839,55.255839 0 0 0 0.23896,-4.77037 55.255839,55.255839 0 0 0 -55.25601,-55.255016 z m 55.01705,60.025386 a 55.255839,55.255839 0 0 1 -39.23973,48.14224 31.148083,31.148083 0 0 0 21.13181,8.31741 31.148083,31.148083 0 0 0 31.14751,-31.14849 31.148083,31.148083 0 0 0 -13.03959,-25.31116 z"
     id="path4216"
     inkscape:connector-curvature="0" />
  <path
     inkscape:connector-curvature="0"
     id="path4229"
     d="m 121.04751,85.961974 a 55.255839,55.255839 0 0 0 -55.255013,55.255016 55.255839,55.255839 0 0 0 55.255013,55.25601 55.255839,55.255839 0 0 0 15.77732,-2.3434 31.148083,31.148083 0 0 1 -10.01669,-22.83108 31.148083,31.148083 0 0 1 31.1485,-31.14751 31.148083,31.148083 0 0 1 18.10792,5.83635 55.255839,55.255839 0 0 0 0.23896,-4.77037 55.255839,55.255839 0 0 0 -55.25601,-55.255016 z m 55.01705,60.025386 a 55.255839,55.255839 0 0 1 -39.23973,48.14224 31.148083,31.148083 0 0 0 21.13181,8.31741 31.148083,31.148083 0 0 0 31.14751,-31.14849 31.148083,31.148083 0 0 0 -13.03959,-25.31116 z"
     style="opacity:1;fill:none;fill-opacity:1;stroke:url(#linearGradient4237);stroke-width:1.51046836;stroke-linecap:round;stroke-linejoin:round;stroke-miterlimit:4;stroke-dasharray:none;stroke-dashoffset:0;stroke-opacity:1" />
  <path
     style="opacity:1;fill:none;fill-opacity:1;stroke:url(#linearGradient4262);stroke-width:1.61862254;stroke-linecap:round;stroke-linejoin:round;stroke-miterlimit:4;stroke-dasharray:none;stroke-dashoffset:0;stroke-opacity:1"
     d="m 120.58919,81.791629 a 59.212329,59.212329 0 0 0 -59.211442,59.211451 59.212329,59.212329 0 0 0 59.211442,59.21251 59.212329,59.212329 0 0 0 16.90703,-2.5112 33.378383,33.378383 0 0 1 -10.73392,-24.46585 33.378383,33.378383 0 0 1 33.37883,-33.37777 33.378383,33.378383 0 0 1 19.4045,6.25425 59.212329,59.212329 0 0 0 0.25607,-5.11194 59.212329,59.212329 0 0 0 -59.21251,-59.211451 z m 58.95644,64.323391 a 59.212329,59.212329 0 0 1 -42.04941,51.58937 33.378383,33.378383 0 0 0 22.64491,8.91297 33.378383,33.378383 0 0 0 33.37777,-33.37882 33.378383,33.378383 0 0 0 -13.97327,-27.12352 z"
     id="path4260"
     inkscape:connector-curvature="0" />
  <path
     sodipodi:nodetypes="cssssc"
     inkscape:connector-curvature="0"
     id="path4264"
     d="M 20.777045,114.57501 17.090414,85.696948 C 15.623633,74.207376 26.415211,64.789335 37.998031,64.789335 l 186.035079,0 c 11.58282,0 21.93277,9.370251 20.90762,20.907613 l -2.41506,27.179812"
     style="opacity:1;fill:none;fill-opacity:1;stroke:url(#linearGradient4272);stroke-width:3;stroke-linecap:round;stroke-linejoin:round;stroke-miterlimit:4;stroke-dasharray:none;stroke-dashoffset:0;stroke-opacity:1" />
</svg>
