<?xml version="1.0" encoding="UTF-8" standalone="no"?>
<!-- Created with Inkscape (http://www.inkscape.org/) -->

<svg
   xmlns:dc="http://purl.org/dc/elements/1.1/"
   xmlns:cc="http://creativecommons.org/ns#"
   xmlns:rdf="http://www.w3.org/1999/02/22-rdf-syntax-ns#"
   xmlns:svg="http://www.w3.org/2000/svg"
   xmlns="http://www.w3.org/2000/svg"
   xmlns:xlink="http://www.w3.org/1999/xlink"
   xmlns:sodipodi="http://sodipodi.sourceforge.net/DTD/sodipodi-0.dtd"
   xmlns:inkscape="http://www.inkscape.org/namespaces/inkscape"
   width="255"
   height="255"
   viewBox="0 0 67.468749 67.468749"
   version="1.1"
   id="svg8"
   inkscape:version="0.92.5 (2060ec1f9f, 2020-04-08)"
   sodipodi:docname="folder-user.svg">
  <defs
     id="defs2">
    <clipPath
       clipPathUnits="userSpaceOnUse"
       id="clipPath2059">
      <path
         d="m -10.099732,231.68531 c 3.5587363,2.50616 4.8319716,-0.58528 2.9651647,-3.064 -3.1818907,-4.22486 -6.4443207,-9.83985 -12.3548527,-15.91305 -2.594516,-2.66865 -11.860659,-7.80827 -11.860659,-7.80827 0,0 -0.115438,-2.18844 -0.09884,-3.064 0.01106,-0.582 -0.565687,-0.56369 -0.889553,-0.29652 -0.782426,0.64546 -2.47097,2.56981 -2.47097,2.56981 l -1.68026,-0.0988 -1.087226,-1.58142 c -0.296516,-0.41055 -0.636056,-0.34641 -0.88955,0 -0.545383,1.84962 -0.878698,3.8848 -3.459359,3.95355 l 4.447747,3.95356 c 7.76561,1.55335 15.578734,5.58545 20.261957,14.33163 0,0 4.526451,5.19364 7.116396,7.01755 z"
         id="path2061"
         sodipodi:nodetypes="csscsscccccccs"
         inkscape:connector-curvature="0"
         stroke-dasharray="none"
         stroke-opacity="1"
         fill="#ffffff"
         fill-rule="evenodd"
         stroke="none"
         stroke-linejoin="miter"
         fill-opacity="1"
         stroke-linecap="butt"
         stroke-width="0.048"
         stroke-miterlimit="4" />
    </clipPath>
    <clipPath
       id="clipPath2059-5"
       clipPathUnits="userSpaceOnUse">
      <path
         stroke-miterlimit="4"
         stroke-width="0.048"
         stroke-linecap="butt"
         fill-opacity="1"
         stroke-linejoin="miter"
         stroke="none"
         fill-rule="evenodd"
         fill="#ffffff"
         stroke-opacity="1"
         stroke-dasharray="none"
         inkscape:connector-curvature="0"
         sodipodi:nodetypes="csscsscccccccs"
         id="path2061-3"
         d="m -10.099732,231.68531 c 3.5587363,2.50616 4.8319716,-0.58528 2.9651647,-3.064 -3.1818907,-4.22486 -6.4443207,-9.83985 -12.3548527,-15.91305 -2.594516,-2.66865 -11.860659,-7.80827 -11.860659,-7.80827 0,0 -0.115438,-2.18844 -0.09884,-3.064 0.01106,-0.582 -0.565687,-0.56369 -0.889553,-0.29652 -0.782426,0.64546 -2.47097,2.56981 -2.47097,2.56981 l -1.68026,-0.0988 -1.087226,-1.58142 c -0.296516,-0.41055 -0.636056,-0.34641 -0.88955,0 -0.545383,1.84962 -0.878698,3.8848 -3.459359,3.95355 l 4.447747,3.95356 c 7.76561,1.55335 15.578734,5.58545 20.261957,14.33163 0,0 4.526451,5.19364 7.116396,7.01755 z" />
    </clipPath>
    <clipPath
       id="clipPath">
      <path
         fill-opacity="0.95"
         stroke="none"
         fill="#1b1b1b"
         sodipodi:nodetypes="csssscc"
         inkscape:connector-curvature="0"
         id="rect5264"
         d="m -515.73002,435.56445 v 5.83767 c 0,9.74315 -7.84377,17.58692 -17.58692,17.58692 h -135.05122 c -9.74315,0 -17.58692,-7.84377 -17.58692,-17.58692 v -5.83767 z" />
    </clipPath>
    <clipPath
       clipPathUnits="userSpaceOnUse"
       id="clipPath2059-7">
      <path
         d="m -10.099732,231.68531 c 3.5587363,2.50616 4.8319716,-0.58528 2.9651647,-3.064 -3.1818907,-4.22486 -6.4443207,-9.83985 -12.3548527,-15.91305 -2.594516,-2.66865 -11.860659,-7.80827 -11.860659,-7.80827 0,0 -0.115438,-2.18844 -0.09884,-3.064 0.01106,-0.582 -0.565687,-0.56369 -0.889553,-0.29652 -0.782426,0.64546 -2.47097,2.56981 -2.47097,2.56981 l -1.68026,-0.0988 -1.087226,-1.58142 c -0.296516,-0.41055 -0.636056,-0.34641 -0.88955,0 -0.545383,1.84962 -0.878698,3.8848 -3.459359,3.95355 l 4.447747,3.95356 c 7.76561,1.55335 15.578734,5.58545 20.261957,14.33163 0,0 4.526451,5.19364 7.116396,7.01755 z"
         id="path2061-5"
         sodipodi:nodetypes="csscsscccccccs"
         inkscape:connector-curvature="0"
         stroke-dasharray="none"
         stroke-opacity="1"
         fill="#ffffff"
         fill-rule="evenodd"
         stroke="none"
         stroke-linejoin="miter"
         fill-opacity="1"
         stroke-linecap="butt"
         stroke-width="0.048"
         stroke-miterlimit="4" />
    </clipPath>
    <clipPath
       clipPathUnits="userSpaceOnUse"
       id="clipPath1162">
      <path
         stroke-miterlimit="4"
         stroke-width="0.071"
         stroke-linecap="round"
         fill-opacity="0.347"
         stroke-linejoin="round"
         stroke="none"
         fill="#000000"
         stroke-opacity="1"
         stroke-dasharray="none"
         inkscape:connector-curvature="0"
         d="m -65.649736,239.84563 c -9.358079,0 -16.951888,7.59381 -16.951888,16.95188 0,9.35808 7.593811,16.94076 16.951888,16.94077 0.292439,0 0.578792,-0.008 0.867614,-0.0222 2.122786,-0.10753 4.148336,-0.60587 5.995453,-1.42378 l 2.669587,3.97101 c -0.225515,0.4951 -0.245107,0.96445 -0.01111,1.31255 l 15.67271,23.32553 c 0.495366,0.73695 1.94415,0.6317 3.247998,-0.24471 1.303846,-0.87642 1.96364,-2.17735 1.468276,-2.9143 L -51.42304,274.4168 c -0.233058,-0.34672 -0.682887,-0.49868 -1.22356,-0.47831 l -2.558357,-3.80416 c 3.95991,-3.10036 6.507123,-7.91951 6.507123,-13.33682 0,-9.35807 -7.593809,-16.95188 -16.951889,-16.95188 z m 0,2.5806 c 7.92884,0 14.371283,6.44244 14.371283,14.37128 0,7.92885 -6.442435,14.36016 -14.371283,14.36016 -7.928851,0 -14.349039,-6.43131 -14.349039,-14.36016 0,-0.24777 -0.0013,-0.48941 0.01111,-0.73413 0.384376,-7.58638 6.656848,-13.63715 14.337916,-13.63715 z"
         id="path1164" />
    </clipPath>
    <linearGradient
       id="linearGradient858-3"
       inkscape:collect="always">
      <stop
         id="stop854-6"
         offset="0"
         style="stop-color:#ffffff;stop-opacity:1;" />
      <stop
         id="stop856-7"
         offset="1"
         style="stop-color:#ffffff;stop-opacity:0;" />
    </linearGradient>
    <linearGradient
       id="linearGradient855"
       inkscape:collect="always">
      <stop
         id="stop851"
         offset="0"
         style="stop-color:#000000;stop-opacity:1" />
      <stop
         id="stop853"
         offset="1"
         style="stop-color:#000000;stop-opacity:0" />
    </linearGradient>
    <linearGradient
       id="linearGradient4223"
       inkscape:collect="always">
      <stop
         stop-opacity="0.803"
         stop-color="#bebebe"
         id="stop4225" />
      <stop
         stop-opacity="0.732"
         stop-color="#9f9f9f"
         id="stop4227"
         offset="1" />
    </linearGradient>
    <linearGradient
       id="linearGradient4211"
       inkscape:collect="always">
      <stop
         stop-opacity="0.634"
         stop-color="#9f9f9f"
         id="stop4213" />
      <stop
         stop-opacity="0"
         stop-color="#696969"
         id="stop4215"
         offset="1" />
    </linearGradient>
    <linearGradient
       id="linearGradient4171"
       inkscape:collect="always">
      <stop
         stop-opacity="0.623"
         stop-color="#848484"
         id="stop4173" />
      <stop
         stop-opacity="0.698"
         stop-color="#cdcdcd"
         id="stop4175"
         offset="1" />
    </linearGradient>
    <linearGradient
       id="linearGradient4142"
       inkscape:collect="always">
      <stop
         stop-opacity="0.519"
         stop-color="#909090"
         id="stop4144" />
      <stop
         stop-opacity="0"
         stop-color="#696969"
         id="stop4146"
         offset="1" />
    </linearGradient>
    <linearGradient
       gradientTransform="matrix(0.77077081,0,0,0.77077081,-80.822015,-34.561922)"
       gradientUnits="userSpaceOnUse"
       y2="324.36"
       x2="278.75"
       y1="63.25"
       x1="165.74"
       id="linearGradient4148"
       xlink:href="#linearGradient4142"
       inkscape:collect="always" />
    <linearGradient
       gradientTransform="matrix(0.77077081,0,0,0.77077081,-80.822015,-34.561922)"
       spreadMethod="reflect"
       gradientUnits="userSpaceOnUse"
       y2="114.16"
       x2="387.93"
       y1="106.85"
       x1="379.78"
       id="linearGradient4177"
       xlink:href="#linearGradient4171"
       inkscape:collect="always" />
    <linearGradient
       gradientTransform="matrix(0.77077081,0,0,0.77077081,-60.158797,-54.897152)"
       y2="114.16"
       x2="387.93"
       y1="108.46"
       x1="381.27"
       spreadMethod="reflect"
       gradientUnits="userSpaceOnUse"
       id="linearGradient4207"
       xlink:href="#linearGradient4171"
       inkscape:collect="always" />
    <linearGradient
       gradientTransform="matrix(0.77077081,0,0,0.77077081,-80.822015,-34.561922)"
       gradientUnits="userSpaceOnUse"
       y2="125.1"
       x2="281.1"
       y1="61.711"
       x1="284.7"
       id="linearGradient4217"
       xlink:href="#linearGradient4211"
       inkscape:collect="always" />
    <linearGradient
       gradientTransform="matrix(0.77077081,0,0,0.77077081,-80.822015,-34.561922)"
       gradientUnits="userSpaceOnUse"
       y2="103.09"
       x2="255.7"
       y1="93.26"
       x1="259.02"
       id="linearGradient4229"
       xlink:href="#linearGradient4223"
       inkscape:collect="always" />
    <linearGradient
       gradientTransform="matrix(0.77077081,0,0,0.77077081,-80.822015,-34.561922)"
       gradientUnits="userSpaceOnUse"
       y2="117.29"
       x2="258.99"
       y1="102.54"
       x1="262.84"
       id="linearGradient4237"
       xlink:href="#linearGradient4223"
       inkscape:collect="always" />
    <filter
       height="1.0332601"
       y="-0.016630034"
       width="1.0187733"
       x="-0.0093866307"
       id="filter890"
       style="color-interpolation-filters:sRGB"
       inkscape:collect="always">
      <feGaussianBlur
         id="feGaussianBlur892"
         stdDeviation="0.91238843"
         inkscape:collect="always" />
    </filter>
    <linearGradient
       gradientUnits="userSpaceOnUse"
       y2="166.73978"
       x2="120.79942"
       y1="193.77997"
       x1="111.98162"
       id="linearGradient857"
       xlink:href="#linearGradient855"
       inkscape:collect="always" />
    <linearGradient
       gradientUnits="userSpaceOnUse"
       y2="86.098389"
       x2="185.756"
       y1="54.649479"
       x1="221.87906"
       id="linearGradient860"
       xlink:href="#linearGradient858-3"
       inkscape:collect="always" />
    <linearGradient
       gradientTransform="translate(19.986222,-19.692307)"
       y2="86.098389"
       x2="185.756"
       y1="54.649479"
       x1="221.87906"
       gradientUnits="userSpaceOnUse"
       id="linearGradient864-5"
       xlink:href="#linearGradient858-3"
       inkscape:collect="always" />
    <linearGradient
       id="linearGradient1414"
       inkscape:collect="always">
      <stop
         id="stop1410"
         offset="0"
         style="stop-color:#14466f;stop-opacity:1" />
      <stop
         id="stop1412"
         offset="1"
         style="stop-color:#0a4473;stop-opacity:0.2927928" />
    </linearGradient>
    <linearGradient
       id="linearGradient1404"
       inkscape:collect="always">
      <stop
         id="stop1400"
         offset="0"
         style="stop-color:#2069a4;stop-opacity:1" />
      <stop
         id="stop1402"
         offset="1"
         style="stop-color:#1a588a;stop-opacity:0;" />
    </linearGradient>
    <linearGradient
       id="linearGradient1394"
       inkscape:collect="always">
      <stop
         id="stop1390"
         offset="0"
         style="stop-color:#1a588a;stop-opacity:1;" />
      <stop
         id="stop1392"
         offset="1"
         style="stop-color:#1a588a;stop-opacity:0;" />
    </linearGradient>
    <linearGradient
       id="linearGradient1366"
       inkscape:collect="always">
      <stop
         id="stop1362"
         offset="0"
         style="stop-color:#1b669c;stop-opacity:1;" />
      <stop
         id="stop1364"
         offset="1"
         style="stop-color:#1b669c;stop-opacity:0;" />
    </linearGradient>
    <linearGradient
       id="linearGradient1354"
       inkscape:collect="always">
      <stop
         id="stop1350"
         offset="0"
         style="stop-color:#ffffff;stop-opacity:1" />
      <stop
         id="stop1352"
         offset="1"
         style="stop-color:#9ccef7;stop-opacity:0;" />
    </linearGradient>
    <linearGradient
       id="linearGradient1342"
       inkscape:collect="always">
      <stop
         id="stop1338"
         offset="0"
         style="stop-color:#1f78b9;stop-opacity:1;" />
      <stop
         id="stop1340"
         offset="1"
         style="stop-color:#65b5ef;stop-opacity:1" />
    </linearGradient>
    <linearGradient
       id="linearGradient1326"
       inkscape:collect="always">
      <stop
         id="stop1322"
         offset="0"
         style="stop-color:#b5deff;stop-opacity:1" />
      <stop
         style="stop-color:#8ec6ff;stop-opacity:1"
         offset="0.23176664"
         id="stop1330" />
      <stop
         id="stop1358"
         offset="0.82862145"
         style="stop-color:#2c85ca;stop-opacity:1;" />
      <stop
         id="stop1324"
         offset="1"
         style="stop-color:#18669f;stop-opacity:1" />
    </linearGradient>
    <linearGradient
       id="linearGradient1316"
       inkscape:collect="always">
      <stop
         id="stop1312"
         offset="0"
         style="stop-color:#5ab0f0;stop-opacity:1" />
      <stop
         id="stop1314"
         offset="1"
         style="stop-color:#16527e;stop-opacity:1" />
    </linearGradient>
    <linearGradient
       id="linearGradient1306"
       inkscape:collect="always">
      <stop
         id="stop1302"
         offset="0"
         style="stop-color:#4aa5e9;stop-opacity:1" />
      <stop
         id="stop1304"
         offset="1"
         style="stop-color:#034e86;stop-opacity:1" />
    </linearGradient>
    <linearGradient
       id="linearGradient1292"
       inkscape:collect="always">
      <stop
         id="stop1288"
         offset="0"
         style="stop-color:#307cb6;stop-opacity:0" />
      <stop
         id="stop1290"
         offset="1"
         style="stop-color:#174d77;stop-opacity:1" />
    </linearGradient>
    <linearGradient
       id="linearGradient1280"
       inkscape:collect="always">
      <stop
         id="stop1276"
         offset="0"
         style="stop-color:#0f558b;stop-opacity:1" />
      <stop
         id="stop1278"
         offset="1"
         style="stop-color:#4daefa;stop-opacity:1" />
    </linearGradient>
    <linearGradient
       gradientTransform="translate(-24.519576,0.22808908)"
       gradientUnits="userSpaceOnUse"
       y2="260.88556"
       x2="56.03928"
       y1="295.89725"
       x1="56.740852"
       id="linearGradient1282"
       xlink:href="#linearGradient1280"
       inkscape:collect="always" />
    <linearGradient
       gradientTransform="translate(38.406791,-0.74000888)"
       gradientUnits="userSpaceOnUse"
       y2="293.85379"
       x2="15.118032"
       y1="284.01147"
       x1="7.499959"
       id="linearGradient1294"
       xlink:href="#linearGradient1292"
       inkscape:collect="always" />
    <linearGradient
       gradientTransform="translate(38.164767,-0.41730956)"
       gradientUnits="userSpaceOnUse"
       y2="267.28334"
       x2="8.6611881"
       y1="265.75049"
       x1="-18.726402"
       id="linearGradient1308"
       xlink:href="#linearGradient1306"
       inkscape:collect="always" />
    <linearGradient
       gradientTransform="translate(38.164767,-0.2559599)"
       gradientUnits="userSpaceOnUse"
       y2="262.06973"
       x2="3.7730653"
       y1="260.21423"
       x1="-16.69199"
       id="linearGradient1318"
       xlink:href="#linearGradient1316"
       inkscape:collect="always" />
    <radialGradient
       gradientUnits="userSpaceOnUse"
       gradientTransform="matrix(0.61323718,1.8869338,-1.2340861,0.40106734,327.39039,172.04993)"
       r="13.766935"
       fy="239.22475"
       fx="-16.134777"
       cy="239.22475"
       cx="-16.134777"
       id="radialGradient1328"
       xlink:href="#linearGradient1326"
       inkscape:collect="always" />
    <linearGradient
       gradientTransform="translate(27.142601,0.91235632)"
       gradientUnits="userSpaceOnUse"
       y2="251.24817"
       x2="12.931633"
       y1="251.24817"
       x1="7.4118465"
       id="linearGradient1344"
       xlink:href="#linearGradient1342"
       inkscape:collect="always" />
    <radialGradient
       gradientUnits="userSpaceOnUse"
       gradientTransform="matrix(7.7831008e-4,1.7365545,-1.2971738,5.8138104e-4,331.37269,154.95697)"
       r="9.8181004"
       fy="237.58372"
       fx="47.742039"
       cy="237.58372"
       cx="47.742039"
       id="radialGradient1356"
       xlink:href="#linearGradient1354"
       inkscape:collect="always" />
    <linearGradient
       gradientTransform="translate(-24.716049,-0.23034739)"
       gradientUnits="userSpaceOnUse"
       y2="253.84993"
       x2="53.11314"
       y1="259.67862"
       x1="59.400269"
       id="linearGradient1368"
       xlink:href="#linearGradient1366"
       inkscape:collect="always" />
    <linearGradient
       gradientTransform="translate(-24.519576,0.22808908)"
       gradientUnits="userSpaceOnUse"
       y2="268.74066"
       x2="56.322193"
       y1="255.83894"
       x1="57.632011"
       id="linearGradient1386"
       xlink:href="#linearGradient1394"
       inkscape:collect="always" />
    <linearGradient
       gradientTransform="translate(-24.519576,0.22808908)"
       gradientUnits="userSpaceOnUse"
       y2="269.36688"
       x2="62.740303"
       y1="255.02437"
       x1="60.775578"
       id="linearGradient1396"
       xlink:href="#linearGradient1394"
       inkscape:collect="always" />
    <linearGradient
       gradientTransform="translate(-24.519576,0.22808908)"
       gradientUnits="userSpaceOnUse"
       y2="265.75858"
       x2="54.619431"
       y1="263.40091"
       x1="53.178627"
       id="linearGradient1406"
       xlink:href="#linearGradient1404"
       inkscape:collect="always" />
    <linearGradient
       gradientTransform="translate(38.155238,-0.81976572)"
       gradientUnits="userSpaceOnUse"
       y2="288.49731"
       x2="5.5353146"
       y1="288.75927"
       x1="-1.4398164"
       id="linearGradient1416"
       xlink:href="#linearGradient1414"
       inkscape:collect="always" />
    <filter
       height="1.0457398"
       y="-0.022869883"
       width="1.0504952"
       x="-0.025247613"
       id="filter1505"
       style="color-interpolation-filters:sRGB"
       inkscape:collect="always">
      <feGaussianBlur
         id="feGaussianBlur1507"
         stdDeviation="0.5268046"
         inkscape:collect="always" />
    </filter>
  </defs>
  <sodipodi:namedview
     id="base"
     pagecolor="#ff0000"
     bordercolor="#666666"
     borderopacity="1.0"
     inkscape:pageopacity="0"
     inkscape:pageshadow="2"
     inkscape:zoom="3.454902"
     inkscape:cx="127.5"
     inkscape:cy="127.5"
     inkscape:document-units="px"
     inkscape:current-layer="layer1"
     showgrid="false"
     inkscape:snap-to-guides="false"
     inkscape:snap-grids="false"
     inkscape:snap-others="false"
     inkscape:object-nodes="false"
     inkscape:snap-nodes="false"
     inkscape:snap-global="false"
     inkscape:window-width="1920"
     inkscape:window-height="1056"
     inkscape:window-x="0"
     inkscape:window-y="0"
     inkscape:window-maximized="1"
     units="px"
     showguides="false" />
  <metadata
     id="metadata5">
    <rdf:RDF>
      <cc:Work>
        <dc:format>image/svg+xml</dc:format>
        <dc:type
           rdf:resource="http://purl.org/dc/dcmitype/StillImage" />
        <dc:title />
      </cc:Work>
    </rdf:RDF>
  </metadata>
  <g
     inkscape:label="Layer 1"
     inkscape:groupmode="layer"
     id="layer1"
     transform="translate(0,-229.53126)">
    <g
       id="g1108"
       transform="matrix(0.26458333,0,0,0.26458333,0.92385386,230.78873)">
      <g
         transform="matrix(1.027092,0,0,0.87914716,269.10213,48.787807)"
         style="fill:#000000;fill-opacity:0.12757203;filter:url(#filter890)"
         id="g888">
        <path
           style="fill:#000000;fill-opacity:0.12757203;fill-rule:evenodd;stroke:none;stroke-width:1;stroke-linecap:butt;stroke-linejoin:miter;stroke-opacity:1"
           d="m 177.77778,215.83334 -80.555558,82.4074 255.555558,88.42593 38.75029,-40.87068 c 4.25788,-4.69448 8.46018,-13.4447 8.35283,-19.27513 L 396.29629,282.5 Z"
           id="path4150"
           inkscape:connector-curvature="0"
           sodipodi:nodetypes="ccccccc"
           transform="matrix(0.77077081,0,0,0.77077081,-337.33598,-64.706486)" />
        <path
           style="fill:#000000;fill-opacity:0.12757203;fill-rule:evenodd;stroke:none;stroke-width:0.77077079;stroke-linecap:butt;stroke-linejoin:miter;stroke-opacity:1"
           d="m -258.76367,164.31055 c 64.25456,22.23242 128.50911,44.46484 192.76367,66.69726 10.704605,-12.11221 23.269675,-22.6975 32.626953,-35.88281 4.915466,-9.97175 -0.0014,-21.20106 0.334678,-31.66405 1.365667,-7.80464 -3.023601,-10.97488 -10.290126,-11.82807 -52.133991,-15.90432 -104.267985,-31.80864 -156.401975,-47.71296 -19.67773,20.13021 -39.35547,40.26042 -59.0332,60.39063 z"
           id="path866"
           inkscape:connector-curvature="0" />
        <path
           style="fill:#000000;fill-opacity:0.12757203;fill-rule:evenodd;stroke:none;stroke-width:0.77077079;stroke-linecap:butt;stroke-linejoin:miter;stroke-opacity:1"
           d="m -255.12695,163.45117 c 62.83854,21.74284 125.67708,43.48568 188.515622,65.22852 10.661699,-12.45649 24.482587,-22.55662 32.46289,-37.08399 2.693429,-10.92369 -1.823197,-22.00405 -0.960937,-33.02148 -3.239054,-6.39155 -11.866064,-4.61259 -17.48133,-7.67536 -48.853875,-14.90314 -97.707755,-29.80627 -146.561635,-44.70941 -18.65821,19.08724 -37.31641,38.17448 -55.97461,57.26172 z"
           id="path872"
           inkscape:connector-curvature="0" />
        <path
           style="fill:#000000;fill-opacity:0.12757203;fill-rule:evenodd;stroke:none;stroke-width:0.77077079;stroke-linecap:butt;stroke-linejoin:miter;stroke-opacity:1"
           d="m -251.49023,162.5918 c 61.41731,21.2513 122.83463,42.5026 184.251949,63.7539 10.44283,-12.37841 24.919813,-21.97631 31.529297,-37.15625 1.394259,-10.18414 -1.706975,-20.39676 -1.751954,-30.52929 -5.3153,-5.0699 -13.440876,-3.58672 -19.715715,-7.06986 -47.132517,-14.3771 -94.265047,-28.75421 -141.397567,-43.13132 -17.63867,18.04428 -35.27734,36.08855 -52.91601,54.13282 z"
           id="path878"
           inkscape:connector-curvature="0" />
      </g>
      <path
         sodipodi:nodetypes="ccccsccccccc"
         inkscape:connector-curvature="0"
         id="path4198"
         d="M 31.923711,151.40704 27.003904,17.342113 c -0.04147,-4.96221 1.926333,-7.258395 6.149764,-6.149768 L 137.28972,39.891259 c 6.26366,1.792607 13.72694,-0.97619 14.75945,-11.889551 0.72147,-7.625757 3.60011,-13.61923 14.34945,-11.479565 l 66.0075,15.169425 c 4.94172,1.164855 6.02562,3.428063 5.73978,9.019659 l -1.63993,177.933263 -4.09985,4.50983 -196.443848,-65.00808 z"
         style="fill:#000000;fill-opacity:0.73000004;fill-rule:evenodd;stroke:none;stroke-width:0.77077079;stroke-linecap:butt;stroke-linejoin:miter;stroke-opacity:1" />
      <path
         d="M 31.923711,151.40704 27.003904,17.342113 c -0.04147,-4.96221 1.926333,-7.258395 6.149764,-6.149768 L 137.28972,39.891259 c 6.26366,1.792607 13.72694,-0.97619 14.75945,-11.889551 0.72147,-7.625757 3.60011,-13.61923 14.34945,-11.479565 l 66.0075,15.169425 c 4.94172,1.164855 6.02562,3.428063 5.73978,9.019659 l -1.63993,177.933263 -4.09985,4.50983 -196.443848,-65.00808 z"
         id="path4209"
         inkscape:connector-curvature="0"
         sodipodi:nodetypes="ccccsccccccc"
         style="fill:url(#linearGradient4217);fill-opacity:1;fill-rule:evenodd;stroke:none;stroke-width:0.77077079;stroke-linecap:butt;stroke-linejoin:miter;stroke-opacity:1" />
      <path
         sodipodi:nodetypes="ccccc"
         d="M 29.107592,14.969579 235.06766,65.511931 235.91003,215.45423 37.952503,143.85257 Z"
         id="path4221"
         inkscape:connector-curvature="0"
         style="fill:url(#linearGradient4229);fill-opacity:1;fill-rule:evenodd;stroke:#cecece;stroke-width:0.77077079;stroke-linecap:butt;stroke-linejoin:miter;stroke-opacity:0.70499998" />
      <path
         inkscape:connector-curvature="0"
         id="path4219"
         d="M 24.474542,21.708559 230.43461,72.250911 233.8041,217.98135 33.319453,150.59155 Z"
         style="fill:url(#linearGradient4237);fill-opacity:1;fill-rule:evenodd;stroke:#cecece;stroke-width:0.77077079;stroke-linecap:butt;stroke-linejoin:miter;stroke-opacity:0.70499998" />
      <path
         sodipodi:nodetypes="cccscccccccc"
         inkscape:connector-curvature="0"
         id="path4138"
         d="M 8.7444046,36.877113 C 9.6167788,33.377352 12.316797,29.913809 16.981856,31.061446 L 120.43481,60.785279 c 4.99573,1.261166 12.61202,0.256235 16.05773,-8.564119 3.08985,-7.909442 8.3813,-14.47471 19.6261,-12.48934 l 52.81208,10.705152 c 9.44452,2.53589 9.22385,9.003112 9.99147,14.273527 l 9.63463,158.436221 c 0.50082,5.73672 -4.43247,10.18422 -9.99147,7.85044 L 30.868387,167.83678 c -3.793857,-1.20188 -6.890645,-2.38715 -7.136768,-7.85044 z"
         style="fill:#000000;fill-opacity:0.76999996;fill-rule:evenodd;stroke:none;stroke-width:0.77077079;stroke-linecap:butt;stroke-linejoin:miter;stroke-opacity:1" />
      <path
         d="M 8.7444046,36.877113 C 9.6167788,33.377352 12.316797,29.913809 16.981856,31.061446 L 120.43481,60.785279 c 4.99573,1.261166 12.61202,0.256235 16.05773,-8.564119 3.08985,-7.909442 8.3813,-14.47471 19.6261,-12.48934 l 52.81208,10.705152 c 9.44452,2.53589 9.22385,9.003112 9.99147,14.273527 l 9.63463,158.436221 c 0.50082,5.73672 -4.43247,10.18422 -9.99147,7.85044 L 31.136761,168.85067 c -4.722273,-3.4223 -8.128602,-7.01445 -8.632556,-13.84742 C 20.224751,124.09697 11.401175,65.991481 8.7444046,36.877113 Z"
         id="path4140"
         inkscape:connector-curvature="0"
         sodipodi:nodetypes="cccsccccccsc"
         style="fill:url(#linearGradient4148);fill-opacity:1;fill-rule:evenodd;stroke:none;stroke-width:0.77077079;stroke-linecap:butt;stroke-linejoin:miter;stroke-opacity:1" />
      <path
         id="path4164"
         d="m 19.607017,26.913071 c -2.88017,-0.04575 -4.833658,1.830128 -5.905731,4.126334 0.959671,-0.255062 2.049634,-0.280169 3.280285,0.02258 L 120.43498,60.784832 c 4.23816,1.069922 10.36086,0.506959 14.22463,-5.073237 -3.31914,1.838929 -7.06507,1.875224 -9.94324,1.148634 L 21.264475,27.135873 c -0.583135,-0.143455 -1.135469,-0.21451 -1.657458,-0.222802 z m 136.847943,8.535685 c -5.47778,0.02215 -9.24401,2.429575 -11.95748,5.964441 2.94992,-1.786966 6.72033,-2.546938 11.62177,-1.681544 l 52.81135,10.70498 c 9.44453,2.53589 9.2238,9.003905 9.99142,14.274321 l 9.63464,158.435546 c 0.13511,1.54767 -0.13551,2.99461 -0.69701,4.24677 3.15723,-0.99293 5.31942,-4.2823 4.9799,-8.17137 L 223.20492,60.784832 C 222.4373,55.514417 222.65802,49.047919 213.2135,46.51203 L 160.40065,35.807044 c -1.40561,-0.248171 -2.7188,-0.363249 -3.94569,-0.358288 z"
         inkscape:connector-curvature="0"
         style="fill:#848484;fill-opacity:1;fill-rule:evenodd;stroke:none;stroke-width:0.77077079;stroke-linecap:butt;stroke-linejoin:miter;stroke-opacity:1" />
      <path
         sodipodi:nodetypes="ccccc"
         inkscape:connector-curvature="0"
         d="m 208.9306,50.436633 c 9.44453,2.53589 9.2238,9.003905 9.99142,14.274321 1.68339,-1.586463 2.41577,-2.091371 4.2829,-3.926122 -0.76762,-5.270415 -0.5469,-11.736913 -9.99142,-14.272802 -1.84816,1.763315 -2.30646,2.157202 -4.2829,3.924603 z"
         id="path4169"
         style="fill:url(#linearGradient4177);fill-opacity:1;fill-rule:evenodd;stroke:none;stroke-width:0.77077079;stroke-linecap:butt;stroke-linejoin:miter;stroke-opacity:1" />
      <path
         id="path4200"
         d="m 36.261385,7.3156224 c -2.060871,0.08655 -3.297411,1.389248 -3.777077,3.7289046 0.217349,0.04036 0.439123,0.08695 0.669908,0.14753 L 137.28957,39.891226 c 4.17106,1.193724 8.87183,0.36004 11.85361,-3.549761 -2.13645,0.618155 -4.44087,0.560862 -6.60575,-0.05871 L 38.402078,7.5850914 C 37.610188,7.3772234 36.8963,7.2889584 36.261385,7.3156224 Z M 167.97287,12.480689 c -4.16112,-0.09755 -6.73394,1.427983 -8.33547,3.880952 1.80879,-0.399933 4.02936,-0.382617 6.76081,0.161079 l 66.00778,15.168528 c 4.94171,1.164855 6.02598,3.428831 5.74014,9.020428 l -1.6409,177.932144 -0.36582,0.40194 1.51445,0.5013 4.09924,-4.51021 1.64089,-177.933646 c 0.28584,-5.591596 -0.79841,-7.854067 -5.74013,-9.018922 L 171.64607,12.914248 c -1.34366,-0.267458 -2.56433,-0.407564 -3.6732,-0.433559 z"
         inkscape:connector-curvature="0"
         style="fill:#858585;fill-opacity:1;fill-rule:evenodd;stroke:none;stroke-width:0.77077079;stroke-linecap:butt;stroke-linejoin:miter;stroke-opacity:1" />
      <path
         id="path4205"
         d="m 229.89414,31.062402 c 9.55917,2.210105 8.25999,3.841895 8.2496,14.234276 1.6834,-1.586462 3.27666,-2.892201 5.14379,-4.726951 0.37357,-9.354662 0.77448,-11.556725 -9.17056,-13.291783 -1.84817,1.763316 -2.24639,2.017057 -4.22283,3.784458 z"
         inkscape:connector-curvature="0"
         sodipodi:nodetypes="ccccc"
         style="fill:url(#linearGradient4207);fill-opacity:1;fill-rule:evenodd;stroke:none;stroke-width:0.77077079;stroke-linecap:butt;stroke-linejoin:miter;stroke-opacity:1" />
      <path
         style="fill:none;fill-opacity:1;stroke:url(#linearGradient857);stroke-width:2.0999999;stroke-linecap:butt;stroke-linejoin:miter;stroke-miterlimit:4;stroke-dasharray:none;stroke-opacity:1"
         d="m 225.72675,196.33524 2.0574,24.39495 c 0.0295,8.34567 -2.0873,11.73805 -14.10792,7.34788 L 31.742824,167.82549 c -6.229286,-1.47576 -8.206505,-5.92013 -8.229621,-11.16877 l -2.057406,-24.10103"
         id="path858-3"
         inkscape:connector-curvature="0"
         sodipodi:nodetypes="cccccc" />
      <path
         style="fill:none;fill-opacity:1;fill-rule:evenodd;stroke:url(#linearGradient860);stroke-width:1;stroke-linecap:butt;stroke-linejoin:miter;stroke-miterlimit:4;stroke-dasharray:none;stroke-opacity:1"
         sodipodi:nodetypes="cccc"
         inkscape:connector-curvature="0"
         id="path851"
         d="m 156.11864,39.73182 52.81208,10.705152 c 9.44452,2.53589 9.22385,9.003112 9.99147,14.273527 l 4.07025,66.933111" />
      <path
         d="m 176.39878,18.569938 52.51816,12.174727 c 11.79584,2.53589 9.22385,9.003112 9.99147,14.273527 l -2.98371,67.814858"
         id="path862"
         inkscape:connector-curvature="0"
         sodipodi:nodetypes="cccc"
         style="fill:none;fill-opacity:1;fill-rule:evenodd;stroke:url(#linearGradient864-5);stroke-width:1;stroke-linecap:butt;stroke-linejoin:miter;stroke-miterlimit:4;stroke-dasharray:none;stroke-opacity:1" />
    </g>
    <g
       transform="matrix(0.75397518,0,0,0.75397518,3.84545,71.940933)"
       id="layer1-3"
       inkscape:label="Layer 1">
      <path
         inkscape:connector-curvature="0"
         id="path1418"
         d="m 50.199608,241.59466 c -5.275191,-0.21314 -9.994465,0.92321 -14.073209,3.61098 -0.0957,0.0567 -0.176117,0.11223 -0.254827,0.16766 -0.312104,0.21202 -0.619703,0.4356 -0.924137,0.66622 -0.05817,0.0343 -0.11897,0.0688 -0.185946,0.1038 -0.666552,0.50427 -1.246741,1.01849 -1.755663,1.54108 -0.731691,0.69236 -1.438016,1.44626 -2.117941,2.26409 l -2.514457,6.95091 -1.42659,9.04981 c -0.132361,0.93236 -0.245072,1.86283 -0.358531,2.79328 -0.0079,0.42753 0.138319,0.75074 0.391505,1.00175 -1.794501,0.32244 -3.787826,0.79595 -6.078691,1.49512 -1.195696,0.60543 -2.184411,1.21915 -3.009121,1.83978 -0.957696,0.67631 -1.720524,1.394 -2.213495,2.06452 l -0.08398,0.16414 c -0.835942,1.08232 -1.331513,2.17863 -1.682899,3.28079 l -0.09089,0.17745 -0.05377,0.12677 c -1.331137,2.23541 -2.814098,4.4952 -2.560775,6.47479 -0.904188,1.51798 0.743349,1.62536 2.033049,1.93058 6.146651,9.47936 17.616798,9.69961 28.434624,8.61908 0.06201,0.0237 0.128813,0.0465 0.193487,0.0698 1.069053,0.47871 2.239337,0.69572 3.47106,0.75505 3.20026,0.34538 7.291836,-0.0432 10.806119,-2.18799 0.999603,-0.36316 1.627784,-0.94967 2.144102,-1.60281 0.21041,-0.19421 0.416769,-0.39358 0.615782,-0.60295 l 0.0015,-0.01 c 0.14849,-0.1543 0.295914,-0.31114 0.439644,-0.47506 l 1.181002,-8.04257 c 1.028553,-1.98438 -0.284508,-3.35778 -1.435944,-4.77331 l -4.779245,-4.47511 c -0.406431,-1.067 -1.01527,-2.05216 -1.757716,-2.98309 -0.737507,-1.16384 -1.674907,-2.23646 -3.012768,-3.12618 l -0.06952,-0.008 c -0.02886,-0.0254 -0.05622,-0.0514 -0.08515,-0.0768 0.26705,-1.90761 0.56299,-4.05996 0.646346,-4.87005 0.03296,-0.0563 0.06458,-0.1154 0.09433,-0.18038 0.181838,-0.10035 0.356997,-0.20119 0.529992,-0.30246 0.176618,-0.0831 0.35136,-0.16443 0.539617,-0.25996 4.406216,-2.95412 6.973371,-6.44785 9.23691,-10.03091 2.497464,-8.36657 -3.410938,-9.42255 -8.675159,-11.039 -0.52476,-0.0461 -1.044522,-0.0799 -1.558796,-0.1007 z m -0.209774,21.98054 c -0.04108,0.0839 -0.101352,0.16162 -0.174387,0.23413 l 0.0019,-0.0153 c 0.061,-0.0634 0.118749,-0.136 0.172531,-0.21886 z"
         style="fill:#000000;fill-opacity:0.6756757;stroke:none;stroke-width:0.25632116px;stroke-linecap:butt;stroke-linejoin:miter;stroke-opacity:1;filter:url(#filter1505)" />
      <path
         sodipodi:nodetypes="cccccccccccccc"
         inkscape:connector-curvature="0"
         id="path1260"
         d="m 55.469057,288.99994 c -2.632755,7.38013 -10.53454,7.1236 -14.334295,5.62865 -9.258491,1.79502 -19.546986,2.08936 -28.293347,-8.78069 -1.253694,-0.29731 -2.757418,-0.34459 -2.476606,-2.17641 -0.9321181,-2.37825 -0.340961,-5.19173 0.07505,-7.95516 -0.180925,-3.05198 0.290501,-6.10396 3.677385,-9.15594 2.066634,-1.07364 3.886721,-1.77745 5.553601,-2.25146 l 1.576022,-0.60039 1.12573,-3.30214 16.28556,1.50097 c 2.566259,1.68442 4.275232,4.05467 5.853796,6.52924 l 6.304088,5.47855 c 1.514032,1.61191 3.157367,3.16635 2.926898,5.5536 z"
         style="fill:url(#linearGradient1282);fill-opacity:1;stroke:none;stroke-width:0.26458332px;stroke-linecap:butt;stroke-linejoin:miter;stroke-opacity:1" />
      <path
         sodipodi:nodetypes="ccccccc"
         inkscape:connector-curvature="0"
         id="path1262"
         d="m 25.402992,278.22188 c 0.664155,-1.35259 1.619499,-1.80631 2.332885,-1.65009 l 12.688621,0.56899 c 2.575976,-0.23247 3.036709,1.06274 2.901881,2.78808 -2.172387,4.16974 -4.718973,7.9237 -8.250448,10.58334 -5.555636,-0.2218 -9.577594,-0.95482 -11.493727,-2.38979 -1.36955,-2.94082 0.587963,-6.94175 1.820788,-9.90053 z"
         style="fill:#a5d0f1;fill-opacity:0.14414416;stroke:none;stroke-width:0.26458332px;stroke-linecap:butt;stroke-linejoin:miter;stroke-opacity:1" />
      <path
         sodipodi:nodetypes="cccccccc"
         inkscape:connector-curvature="0"
         id="path1264"
         d="m 15.622135,272.07244 c 0.398297,0.17069 6.708277,3.36135 6.708277,3.36135 0.657979,0.29531 1.280681,0.63296 1.194892,1.82079 -1.568399,3.08449 -3.818143,5.88509 -3.698477,9.67294 -2.526872,-0.16062 -4.585566,-1.41365 -6.20206,-3.69848 -0.909214,-1.15696 -0.613962,-2.31391 -0.682796,-3.47087 l 1.072694,-6.76264 c 0.04409,-0.89777 0.489312,-1.31419 1.60747,-0.92309 z"
         style="fill:#badbf5;fill-opacity:0.14414416;stroke:none;stroke-width:0.26458332px;stroke-linecap:butt;stroke-linejoin:miter;stroke-opacity:1" />
      <path
         sodipodi:nodetypes="cccccc"
         inkscape:connector-curvature="0"
         id="path1266"
         d="m 24.037401,277.88048 -0.853495,2.84498 c -1.425523,2.06887 -2.044305,4.85485 -2.105287,8.13665 -3.835357,-1.2562 -7.015188,-2.98583 -8.136648,-6.20206 2.216698,3.07524 4.576436,3.7188 6.941756,4.26747 0.53159,-3.3 1.374522,-6.49622 4.153674,-9.04704 z"
         style="fill:#1b6398;fill-opacity:1;stroke:none;stroke-width:0.26458332px;stroke-linecap:butt;stroke-linejoin:miter;stroke-opacity:1" />
      <path
         sodipodi:nodetypes="ccccccc"
         inkscape:connector-curvature="0"
         id="path1268"
         d="m 22.785609,288.40691 c 3.557331,1.30783 6.060586,2.75234 12.005824,2.61738 3.713671,-1.89208 5.768016,-5.94128 8.02285,-9.72984 l -0.682796,3.58468 c -1.235833,3.27643 -3.202494,5.90324 -5.803763,7.96595 -5.035247,-0.25345 -9.486715,-1.59318 -13.314517,-3.35708 z"
         style="fill:#175787;fill-opacity:1;stroke:none;stroke-width:0.26458332px;stroke-linecap:butt;stroke-linejoin:miter;stroke-opacity:1" />
      <path
         sodipodi:nodetypes="ccccc"
         inkscape:connector-curvature="0"
         id="path1270"
         d="m 23.070107,273.27161 c 1.801043,1.03111 0.159893,2.18235 -0.853495,1.53629 -3.94057,-1.46192 -6.97054,-3.22737 -7.738351,-5.74687 1.840562,1.70214 3.774576,2.84358 5.917563,2.73118 z"
         style="fill:#207fc9;fill-opacity:1;stroke:none;stroke-width:0.26458332px;stroke-linecap:butt;stroke-linejoin:miter;stroke-opacity:1" />
      <path
         sodipodi:nodetypes="csscccc"
         inkscape:connector-curvature="0"
         id="path1272"
         d="m 27.39448,273.8975 c -2.014307,0.006 -1.604691,2.1242 -0.341398,1.99149 2.765209,-0.29049 12.532633,0.54799 11.948925,0.62589 -0.451197,0.0602 4.66577,-0.39829 4.66577,-0.39829 1.259072,-0.37933 0.861066,-0.75867 0.170699,-1.138 -2.524776,0.004 -4.885413,-0.0244 -6.657258,-0.17069 -2.918066,-0.75618 -6.7016,-1.18859 -9.786738,-0.9104 z"
         style="fill:#2a78b4;fill-opacity:1;stroke:none;stroke-width:0.26458332px;stroke-linecap:butt;stroke-linejoin:miter;stroke-opacity:1" />
      <path
         sodipodi:nodetypes="ccccc"
         inkscape:connector-curvature="0"
         id="path1274"
         d="m 25.687491,273.61301 c -0.472839,0.91097 -2.017548,0.89055 -1.877689,-0.1707 -0.07162,-1.0242 -0.630308,-2.56049 -1.763889,-3.58468 2.172638,1.49952 4.541715,1.95135 7.169355,1.02419 -1.276414,0.73121 -2.698423,1.58543 -3.527777,2.73119 z"
         style="fill:#2e75ab;fill-opacity:1;stroke:none;stroke-width:0.26458332px;stroke-linecap:butt;stroke-linejoin:miter;stroke-opacity:1" />
      <path
         sodipodi:nodetypes="cccccccc"
         inkscape:connector-curvature="0"
         id="path1284"
         d="m 44.719395,268.89772 6.319755,5.4074 c 1.550341,1.36853 2.819342,3.22112 2.556286,4.58965 l 1.602122,10.23613 c -0.325898,1.46191 -0.59103,2.96028 -2.394936,3.53539 l -1.368534,-11.40446 c -0.232015,-2.3998 -0.852617,-4.7441 -3.193247,-6.84267 -1.975703,-1.60639 -2.308872,-3.72426 -3.521446,-5.52144 z"
         style="fill:#155d94;fill-opacity:1;stroke:none;stroke-width:0.26458332px;stroke-linecap:butt;stroke-linejoin:miter;stroke-opacity:1" />
      <path
         sodipodi:nodetypes="ccccc"
         inkscape:connector-curvature="0"
         id="path1286"
         d="m 40.801726,294.43526 c -0.323484,-8.47613 11.318865,-6.64449 12.430855,-16.65051 l 2.010996,11.80783 c -1.080623,2.63998 -2.972907,4.36684 -5.774466,5.07077 -2.889128,0.73177 -5.778256,1.35961 -8.667385,-0.22809 z"
         style="fill:url(#linearGradient1294);fill-opacity:1;stroke:none;stroke-width:0.26458332px;stroke-linecap:butt;stroke-linejoin:miter;stroke-opacity:1" />
      <path
         sodipodi:nodetypes="cccc"
         inkscape:connector-curvature="0"
         id="path1296"
         d="m 12.83287,285.28819 c -1.109855,-0.35778 -2.390104,-0.48838 -2.258896,-2.50091 -0.317961,-8.48512 2.210792,-9.379 3.630369,-13.23068 -1.141666,5.19121 -2.888047,10.3359 -1.371473,15.73159 z"
         style="fill:#1b69a4;fill-opacity:1;stroke:none;stroke-width:0.26458332px;stroke-linecap:butt;stroke-linejoin:miter;stroke-opacity:1" />
      <path
         sodipodi:nodetypes="ccccccc"
         inkscape:connector-curvature="0"
         id="path1298"
         d="m 10.251275,281.33513 c -0.08723,-4.52172 1.332608,-8.13921 3.388344,-11.37515 0.748606,-1.64863 3.128019,-3.56906 6.453984,-5.64724 l -5.243862,2.01687 c -2.148538,1.30494 -3.592434,3.35077 -4.033743,5.08251 l -0.403372,4.35644 z"
         style="fill:#60ade7;fill-opacity:1;stroke:none;stroke-width:0.26458332px;stroke-linecap:butt;stroke-linejoin:miter;stroke-opacity:1" />
      <path
         sodipodi:nodetypes="ccccccccc"
         inkscape:connector-curvature="0"
         id="path1300"
         d="m 14.849741,269.15323 c 3.570609,-1.17397 5.332097,-0.3579 6.776686,0.80675 3.432443,0.81686 6.670358,1.94497 12.181899,-0.56473 1.840536,-1.02408 3.736552,-1.80774 6.211962,-0.0807 1.854881,1.68232 4.186274,2.17337 6.453986,2.82362 -1.352251,-4.35914 -4.508139,-7.45573 -7.986808,-10.32638 L 22.51385,260.76302 c -0.714976,2.47246 -0.871733,4.10695 -4.033741,4.35644 -2.219929,0.84439 -2.841337,2.37172 -3.630368,4.03377 z"
         style="fill:url(#linearGradient1308);fill-opacity:1;stroke:none;stroke-width:0.26458332px;stroke-linecap:butt;stroke-linejoin:miter;stroke-opacity:1" />
      <path
         sodipodi:nodetypes="ccccc"
         inkscape:connector-curvature="0"
         id="path1310"
         d="m 38.89084,263.99004 c -4.910951,5.86362 -10.802251,7.73581 -18.71656,1.37147 l 2.50092,-7.82546 14.279444,-2.74294 z"
         style="fill:url(#linearGradient1318);fill-opacity:1;stroke:none;stroke-width:0.26458332px;stroke-linecap:butt;stroke-linejoin:miter;stroke-opacity:1" />
      <path
         sodipodi:nodetypes="ccccccccccc"
         inkscape:connector-curvature="0"
         id="path1320"
         d="m 18.318759,263.34464 c 0.614407,2.2027 3.144606,1.94224 5.163189,2.33957 3.24749,0.12765 5.269159,-1.44256 8.148158,-3.63036 2.44896,-1.263 2.797046,-3.57643 3.146318,-5.88927 0.689231,0.75095 1.838675,0.35137 3.388343,-1.04877 2.902871,-3.69264 3.981878,-7.93245 4.759815,-12.26257 -0.665775,-9.97641 -6.291259,-10.93517 -11.536501,-12.58528 -7.730359,-0.46397 -13.162996,2.80586 -15.731592,10.72975 l 0.16135,8.30951 1.855521,10.72975 c 0.204144,1.10472 0.425086,2.20611 0.645399,3.30767 z"
         style="fill:url(#radialGradient1328);fill-opacity:1;stroke:none;stroke-width:0.26458332px;stroke-linecap:butt;stroke-linejoin:miter;stroke-opacity:1" />
      <path
         sodipodi:nodetypes="ccccc"
         inkscape:connector-curvature="0"
         id="path1332"
         d="m 35.182741,256.57119 c 1.119456,0.40119 2.151168,0.65196 2.223869,-0.74129 2.448688,-2.44386 3.40163,-5.00737 2.052801,-7.75503 -2.012091,-1.31972 -3.613761,-0.41215 -4.27667,1.0264 -1.134779,2.48997 -0.478653,4.97995 0,7.46992 z"
         style="fill:url(#linearGradient1344);fill-opacity:1;stroke:none;stroke-width:0.26458332px;stroke-linecap:butt;stroke-linejoin:miter;stroke-opacity:1" />
      <path
         sodipodi:nodetypes="cccc"
         inkscape:connector-curvature="0"
         id="path1334"
         d="m 35.981053,255.03159 c 1.474585,-0.0767 2.399212,-2.59055 3.193247,-4.56178 0.140835,-2.62224 -2.659367,-1.69516 -3.193247,-0.74129 -0.612392,3.66249 0.870463,2.74555 0,5.30307 z"
         style="fill:#2682c4;fill-opacity:1;stroke:none;stroke-width:0.26458332px;stroke-linecap:butt;stroke-linejoin:miter;stroke-opacity:1" />
      <path
         sodipodi:nodetypes="ccc"
         inkscape:connector-curvature="0"
         id="path1336"
         d="m 35.41083,249.27234 c 0.960269,-1.24588 2.096171,-1.52857 4.105604,-0.96938 -1.853906,-1.40792 -3.684033,-0.77253 -4.105604,0.96938 z"
         style="fill:#6ba0c9;fill-opacity:1;stroke:none;stroke-width:0.26458332px;stroke-linecap:butt;stroke-linejoin:miter;stroke-opacity:1" />
      <path
         sodipodi:nodetypes="cccccccc"
         inkscape:connector-curvature="0"
         id="path1348"
         d="m 33.700162,238.09597 c 1.641505,-0.80523 2.613393,-1.79075 0.342133,-3.64942 l -13.286189,-0.5132 c -2.585396,1.044 -2.138372,1.62148 -2.965158,2.39493 -2.726245,4.07133 -2.069366,8.46487 -1.710668,12.83001 0.74708,4.48873 7.383898,3.86268 13.742367,3.47836 2.05932,-0.0806 3.44168,-0.66901 3.079203,-2.566 -2.882766,-4.18435 -3.73391,-8.24431 0.798312,-11.97468 z"
         style="fill:url(#radialGradient1356);fill-opacity:1;stroke:none;stroke-width:0.26458332px;stroke-linecap:butt;stroke-linejoin:miter;stroke-opacity:1" />
      <path
         sodipodi:nodetypes="cccccccccc"
         inkscape:connector-curvature="0"
         id="path1360"
         d="m 35.863055,247.52047 c -2.104214,-0.82406 -3.475444,5.48902 -2.8816,5.37025 0,0 -6.176986,5.85552 -6.287128,7.72793 -0.315007,4.16992 -4.140029,3.17804 -7.269493,3.20905 0,0 3.994946,1.37531 4.453383,1.37531 0.615878,0.62977 7.067704,-2.18246 6.876546,-2.94709 1.24187,-1.29635 3.496492,-2.1426 3.340038,-4.06043 0.240133,-0.94206 0.480266,-2.11505 0.7204,-3.40553 l -0.130982,-4.91182 c -0.128246,-1.17678 0.660988,-1.66546 1.178836,-2.35767 z"
         style="fill:url(#linearGradient1368);fill-opacity:1;stroke:none;stroke-width:0.26458332px;stroke-linecap:butt;stroke-linejoin:miter;stroke-opacity:1" />
      <path
         sodipodi:nodetypes="ccc"
         inkscape:connector-curvature="0"
         id="path1398"
         d="m 23.157816,265.66144 c 3.461754,2.2653 6.973863,1.71068 10.60953,-5.7632 -2.804028,3.22326 -6.235193,5.3316 -10.60953,5.7632 z"
         style="fill:url(#linearGradient1406);fill-opacity:1;stroke:none;stroke-width:0.26458332px;stroke-linecap:butt;stroke-linejoin:miter;stroke-opacity:1" />
      <path
         style="fill:#2378bd;fill-opacity:1;stroke:none;stroke-width:0.26458332px;stroke-linecap:butt;stroke-linejoin:miter;stroke-opacity:1"
         d="m 18.318759,263.34464 c 0.614407,2.2027 3.144606,1.94224 5.163189,2.33957 3.24749,0.12765 5.269159,-1.44256 8.148158,-3.63036 2.44896,-1.263 2.797046,-3.57643 3.146318,-5.88927 -6.454513,10.21652 -13.879323,10.14997 -16.457665,7.18006 z"
         id="path1346"
         inkscape:connector-curvature="0"
         sodipodi:nodetypes="ccccc" />
      <path
         sodipodi:nodetypes="cccc"
         inkscape:connector-curvature="0"
         id="path1370"
         d="m 35.077165,256.09977 c -0.07824,4.76108 0.271244,9.76657 -3.340037,12.50877 1.138451,-3.06243 2.716912,-6.06551 2.292182,-9.69266 z"
         style="fill:url(#linearGradient1386);fill-opacity:1;stroke:none;stroke-width:0.26458332px;stroke-linecap:butt;stroke-linejoin:miter;stroke-opacity:1" />
      <path
         sodipodi:nodetypes="cccsc"
         inkscape:connector-curvature="0"
         id="path1388"
         d="m 35.208147,256.29625 c 0.50546,1.3346 2.276151,0.71008 2.1612,-0.32746 0.327455,1.5063 1.702764,8.97226 1.702764,8.97226 0,0 -2.554146,3.92945 -2.488655,3.27454 0.06549,-0.65491 -1.375309,-11.91934 -1.375309,-11.91934 z"
         style="fill:url(#linearGradient1396);fill-opacity:1;stroke:none;stroke-width:0.26458332px;stroke-linecap:butt;stroke-linejoin:miter;stroke-opacity:1" />
      <path
         sodipodi:nodetypes="ccccc"
         inkscape:connector-curvature="0"
         id="path1408"
         d="m 36.910911,295.06687 c 1.524763,0.061 2.79762,-0.21385 3.798473,-0.85138 1.287989,0.8246 2.575977,0.9581 3.863965,0.91687 -2.485493,-4.0971 -3.338491,-8.80638 -1.637273,-14.47349 -2.276784,4.72215 -5.345845,9.20661 -6.025165,14.408 z"
         style="fill:url(#linearGradient1416);fill-opacity:1;stroke:none;stroke-width:0.26458332px;stroke-linecap:butt;stroke-linejoin:miter;stroke-opacity:1" />
    </g>
  </g>
</svg>
