<?xml version="1.0" encoding="UTF-8" standalone="no"?>
<!-- Created with Inkscape (http://www.inkscape.org/) -->

<svg
   xmlns:dc="http://purl.org/dc/elements/1.1/"
   xmlns:cc="http://creativecommons.org/ns#"
   xmlns:rdf="http://www.w3.org/1999/02/22-rdf-syntax-ns#"
   xmlns:svg="http://www.w3.org/2000/svg"
   xmlns="http://www.w3.org/2000/svg"
   xmlns:xlink="http://www.w3.org/1999/xlink"
   xmlns:sodipodi="http://sodipodi.sourceforge.net/DTD/sodipodi-0.dtd"
   xmlns:inkscape="http://www.inkscape.org/namespaces/inkscape"
   width="255"
   height="255"
   viewBox="0 0 67.468748 67.468752"
   version="1.1"
   id="svg8"
   inkscape:version="0.92.5 (2060ec1f9f, 2020-04-08)"
   sodipodi:docname="gnome-codec-install.svg">
  <defs
     id="defs2">
    <linearGradient
       id="linearGradient4240"
       inkscape:collect="always">
      <stop
         id="stop4242"
         offset="0"
         style="stop-color:#b7c2e3;stop-opacity:0" />
      <stop
         id="stop4244"
         offset="1"
         style="stop-color:#d5daef;stop-opacity:0.47488585" />
    </linearGradient>
    <linearGradient
       inkscape:collect="always"
       id="linearGradient3155-3">
      <stop
         style="stop-color:#b7c2e3;stop-opacity:0"
         offset="0"
         id="stop4224" />
      <stop
         style="stop-color:#d5daef;stop-opacity:0.66666669"
         offset="1"
         id="stop4226" />
    </linearGradient>
    <linearGradient
       id="linearGradient3230">
      <stop
         id="stop3232"
         offset="0"
         style="stop-color:#ffffff;stop-opacity:1" />
      <stop
         style="stop-color:#5c7fe0;stop-opacity:1"
         offset="0.32546747"
         id="stop3238" />
      <stop
         id="stop3240"
         offset="0.79822314"
         style="stop-color:#000514;stop-opacity:1" />
      <stop
         id="stop3234"
         offset="1"
         style="stop-color:#7386c1;stop-opacity:1" />
    </linearGradient>
    <linearGradient
       id="linearGradient3179"
       inkscape:collect="always">
      <stop
         id="stop3181"
         offset="0"
         style="stop-color:#8b98ff;stop-opacity:0" />
      <stop
         id="stop3183"
         offset="1"
         style="stop-color:#4c71eb;stop-opacity:1" />
    </linearGradient>
    <linearGradient
       id="linearGradient3155"
       inkscape:collect="always">
      <stop
         id="stop3157"
         offset="0"
         style="stop-color:#001758;stop-opacity:1" />
      <stop
         id="stop3159"
         offset="1"
         style="stop-color:#2141cf;stop-opacity:1" />
    </linearGradient>
    <inkscape:perspective
       id="perspective10"
       inkscape:persp3d-origin="372.04724 : 350.78739 : 1"
       inkscape:vp_z="744.09448 : 526.18109 : 1"
       inkscape:vp_y="0 : 1000 : 0"
       inkscape:vp_x="0 : 526.18109 : 1"
       sodipodi:type="inkscape:persp3d" />
    <linearGradient
       y2="111.08152"
       x2="-84.379982"
       y1="32.458332"
       x1="-132.64493"
       spreadMethod="reflect"
       gradientUnits="userSpaceOnUse"
       id="linearGradient3197"
       xlink:href="#linearGradient3179"
       inkscape:collect="always" />
    <linearGradient
       y2="111.08152"
       x2="-84.379982"
       y1="32.458332"
       x1="-132.64493"
       spreadMethod="reflect"
       gradientTransform="matrix(0.7889008,-0.6145205,0.6145205,0.7889008,-97.845761,-36.58403)"
       gradientUnits="userSpaceOnUse"
       id="linearGradient3199"
       xlink:href="#linearGradient3179"
       inkscape:collect="always" />
    <radialGradient
       spreadMethod="reflect"
       gradientUnits="userSpaceOnUse"
       gradientTransform="matrix(-1.1987227,0.1832983,-0.1102285,-1.1352038,660.65853,312.95611)"
       r="27.717392"
       fy="169.89519"
       fx="289.34152"
       cy="169.89519"
       cx="289.34152"
       id="radialGradient3236"
       xlink:href="#linearGradient3230"
       inkscape:collect="always" />
    <linearGradient
       spreadMethod="reflect"
       gradientUnits="userSpaceOnUse"
       y2="102.34111"
       x2="325.6048"
       y1="102.34111"
       x1="329.68622"
       id="linearGradient3248"
       xlink:href="#linearGradient3179"
       inkscape:collect="always" />
    <linearGradient
       gradientTransform="matrix(0.09314447,0.24764581,-0.24790746,0.09244583,16.080176,218.63316)"
       y2="-69.591415"
       x2="92.430344"
       y1="17.178255"
       x1="221.58038"
       spreadMethod="reflect"
       gradientUnits="userSpaceOnUse"
       id="linearGradient3792"
       xlink:href="#linearGradient3155"
       inkscape:collect="always" />
    <linearGradient
       gradientTransform="translate(-178.57143,-27.040816)"
       y2="102.34111"
       x2="325.6048"
       y1="102.34111"
       x1="329.68622"
       spreadMethod="reflect"
       gradientUnits="userSpaceOnUse"
       id="linearGradient3803"
       xlink:href="#linearGradient3179"
       inkscape:collect="always" />
    <radialGradient
       r="27.717392"
       fy="169.89519"
       fx="289.34152"
       cy="169.89519"
       cx="289.34152"
       spreadMethod="reflect"
       gradientTransform="matrix(-1.1987227,0.1832983,-0.1102285,-1.1352038,660.65853,312.95611)"
       gradientUnits="userSpaceOnUse"
       id="radialGradient3806"
       xlink:href="#linearGradient3230"
       inkscape:collect="always" />
    <linearGradient
       y2="102.34111"
       x2="325.6048"
       y1="102.34111"
       x1="329.68622"
       spreadMethod="reflect"
       gradientTransform="matrix(1.3959235,0,0,1.3959235,-542.66456,-45.793807)"
       gradientUnits="userSpaceOnUse"
       id="linearGradient3831"
       xlink:href="#linearGradient3179"
       inkscape:collect="always" />
    <radialGradient
       r="27.717392"
       fy="169.89519"
       fx="289.34152"
       cy="169.89519"
       cx="289.34152"
       spreadMethod="reflect"
       gradientTransform="matrix(-2.1059521,0.19961041,-0.16359133,-1.7259397,450.12914,373.73329)"
       gradientUnits="userSpaceOnUse"
       id="radialGradient3833"
       xlink:href="#linearGradient3230"
       inkscape:collect="always" />
    <radialGradient
       r="27.717392"
       fy="169.89519"
       fx="289.34152"
       cy="169.89519"
       cx="289.34152"
       spreadMethod="reflect"
       gradientTransform="matrix(-1.1987227,0.1832983,-0.1102285,-1.1352038,660.65853,312.95611)"
       gradientUnits="userSpaceOnUse"
       id="radialGradient3045"
       xlink:href="#linearGradient3230"
       inkscape:collect="always" />
    <linearGradient
       y2="102.34111"
       x2="325.6048"
       y1="102.34111"
       x1="329.68622"
       spreadMethod="reflect"
       gradientTransform="matrix(1.3959235,0,0,1.3959235,-97.410696,-43.29062)"
       gradientUnits="userSpaceOnUse"
       id="linearGradient3057"
       xlink:href="#linearGradient3179"
       inkscape:collect="always" />
    <linearGradient
       y2="-38.120659"
       x2="77.357941"
       y1="-37.324768"
       x1="146.42484"
       spreadMethod="pad"
       gradientTransform="matrix(0.09314447,0.24764581,-0.24790746,0.09244583,16.080176,218.63316)"
       gradientUnits="userSpaceOnUse"
       id="linearGradient4228"
       xlink:href="#linearGradient3155-3"
       inkscape:collect="always" />
    <linearGradient
       gradientUnits="userSpaceOnUse"
       y2="211.69359"
       x2="93.0457"
       y1="186.80078"
       x1="66.365768"
       id="linearGradient4238"
       xlink:href="#linearGradient4240"
       inkscape:collect="always"
       gradientTransform="matrix(0.26458333,0,0,0.26458333,1.2800201,229.35013)" />
    <filter
       inkscape:collect="always"
       style="color-interpolation-filters:sRGB"
       id="filter1060"
       x="-0.012617609"
       width="1.0252352"
       y="-0.011439988"
       height="1.02288">
      <feGaussianBlur
         inkscape:collect="always"
         stdDeviation="1.1270306"
         id="feGaussianBlur1062" />
    </filter>
    <filter
       inkscape:collect="always"
       style="color-interpolation-filters:sRGB"
       id="filter1080"
       x="-0.014621544"
       width="1.0292431"
       y="-0.010175586"
       height="1.0203512">
      <feGaussianBlur
         inkscape:collect="always"
         stdDeviation="0.99424997"
         id="feGaussianBlur1082" />
    </filter>
  </defs>
  <sodipodi:namedview
     id="base"
     pagecolor="#ff0000"
     bordercolor="#666666"
     borderopacity="1.0"
     inkscape:pageopacity="0"
     inkscape:pageshadow="2"
     inkscape:zoom="3.5058824"
     inkscape:cx="127.5"
     inkscape:cy="127.5"
     inkscape:document-units="mm"
     inkscape:current-layer="layer1"
     showgrid="false"
     units="px"
     inkscape:snap-to-guides="false"
     inkscape:snap-grids="false"
     inkscape:snap-others="false"
     inkscape:object-nodes="false"
     inkscape:snap-nodes="false"
     inkscape:snap-global="false"
     inkscape:window-width="1920"
     inkscape:window-height="1056"
     inkscape:window-x="0"
     inkscape:window-y="0"
     inkscape:window-maximized="1" />
  <metadata
     id="metadata5">
    <rdf:RDF>
      <cc:Work
         rdf:about="">
        <dc:format>image/svg+xml</dc:format>
        <dc:type
           rdf:resource="http://purl.org/dc/dcmitype/StillImage" />
        <dc:title></dc:title>
      </cc:Work>
    </rdf:RDF>
  </metadata>
  <g
     inkscape:label="Layer 1"
     inkscape:groupmode="layer"
     id="layer1"
     transform="translate(0,-229.53123)">
    <rect
       transform="matrix(0.09314447,0.24764581,-0.24790746,0.09244583,1.2800201,229.35013)"
       y="-147.95705"
       x="71.840286"
       height="155.72166"
       width="194.47968"
       id="rect3841"
       style="fill:#000000;fill-opacity:0.62100459;stroke:none;stroke-width:2.95224309;stroke-linecap:round;stroke-linejoin:round;stroke-miterlimit:4;stroke-dasharray:none;stroke-opacity:0.42995169;filter:url(#filter1060)" />
    <path
       inkscape:connector-curvature="0"
       style="fill:url(#linearGradient3792);fill-opacity:1;stroke:#0a1559;stroke-width:0.78111279;stroke-linecap:round;stroke-linejoin:round;stroke-miterlimit:4;stroke-dasharray:none;stroke-opacity:0.42995169"
       d="M 42.389805,232.44544 60.504511,280.60751 21.899948,295.00333 3.7852416,246.84126 Z"
       id="rect2380" />
    <path
       style="fill:#000514;fill-opacity:0.70319633;stroke:none;filter:url(#filter1080)"
       d="m 171.24626,15.043803 c -3.78265,0 -6.8125,3.029851 -6.8125,6.8125 v 0.1875 c -0.005,0.111763 -0.0313,0.230643 -0.0313,0.34375 V 127.6688 c -1.75892,1.46304 -3.3662,2.96676 -4.78125,4.5625 -0.005,0.006 0.005,0.0256 0,0.0313 -0.35851,0.40483 -0.72893,0.80475 -1.0625,1.21875 -0.005,0.006 0.005,0.0252 0,0.0313 -0.33283,0.41372 -0.66196,0.82687 -0.96875,1.25 -0.005,0.007 0.005,0.0246 0,0.0313 -0.92853,1.28295 -1.76929,2.59459 -2.4375,3.96875 -0.004,0.008 0.004,0.023 0,0.0313 -1.33603,2.75581 -2.11983,5.70965 -2.21875,8.875 -0.0236,0.7623 0.0266,1.49291 0.15625,2.21875 0.0636,0.36017 0.15054,0.71261 0.25,1.0625 0.0361,0.12769 0.0842,0.24847 0.125,0.375 0.0714,0.2203 0.1334,0.44004 0.21875,0.65625 0.005,0.0126 0.0263,0.0187 0.0313,0.0313 0.0498,0.12472 0.10192,0.25163 0.15625,0.375 1.66459,3.82049 5.45813,7.10983 10.53125,9.90625 v 24.375 c -0.0373,0.60827 -0.0366,1.17133 -0.0625,1.75 -10.79363,-4.6469 -26.98709,-4.47154 -43.375,1.46875 -25.210427,9.13829 -41.330669,28.45016 -35.999999,43.15625 5.33067,14.70609 30.102069,21.49502 55.312499,12.35673 21.50587,-7.79546 36.36689,-25.26912 36.96875,-38.70048 0.27455,-0.50665 0.48501,-1.05035 0.625,-1.625 0.0389,-0.0442 0.0866,-0.0804 0.125,-0.125 0.0476,-0.32648 0.0625,-0.65993 0.0625,-1 v -0.15625 c 0.006,-0.12166 0.0313,-0.25169 0.0313,-0.375 V 167.9503 c 23.27921,7.48491 54.3125,9.625 54.3125,9.625 l 3.09375,-2.5 c 0,0 -1.84116,-0.19564 -4.71875,-0.59375 -0.01,-0.001 -0.0212,0.001 -0.0313,0 l -0.0313,-0.0313 -1.75,-1.0625 c 0,0 -3.97387,-0.37836 -9.90625,-1.25 l -36.09375,-8.65625 c -1.69931,-0.63953 -3.31875,-1.30295 -4.875,-2 v -33.34375 c 23.47766,-13.2526 66.65546,-19.05798 68.9375,-40.624997 3.35935,-31.748389 -67.04755,-66.84779 -69.375,-68 -0.95458,-2.616874 -3.45106,-4.46875 -6.40625,-4.46875 z m 6.84375,35.03125 c 1.51411,0.268765 4.3311,0.815639 8.75,1.875 0.009,0.0023 0.0219,-0.0023 0.0313,0 l 36.0625,14.34375 0.0313,0.03125 c 5.98163,4.137761 10.48963,9.169943 11.6875,15.15625 0.004,0.01973 -0.004,0.04277 0,0.0625 0.0764,0.423924 0.13856,0.858593 0.1875,1.28125 0.0379,0.332101 0.0762,0.662112 0.0937,1 0.004,0.06284 -0.003,0.124693 0,0.1875 l -29.6875,22.343747 c -8.64683,3.64901 -17.97418,7.4912 -26.375,11.9375 -0.26691,0.14127 -0.51637,0.29503 -0.78125,0.4375 V 50.075053 Z m -13.6875,91.249997 v 9.96875 c -0.0631,-0.11294 -0.12917,-0.22992 -0.1875,-0.34375 -0.14789,-0.28857 -0.28987,-0.58071 -0.40625,-0.875 -0.46551,-1.17715 -0.67771,-2.3865 -0.59375,-3.65625 0.11935,-1.80485 0.52533,-3.49576 1.1875,-5.09375 z"
       id="path3021"
       inkscape:connector-curvature="0"
       sodipodi:nodetypes="cscscccccccccccccccccccssscccscscccccccccccsccccccccccccccsccccccssc"
       transform="matrix(0.26458333,0,0,0.26458333,1.2800201,229.35013)" />
    <path
       id="path4220"
       d="m 42.090431,233.49325 4.942256,13.50955 C 33.53232,249.77628 15.147175,244.47492 10.523743,261.92252 L 4.8330501,247.06579 Z"
       style="fill:url(#linearGradient4228);fill-opacity:1;stroke:none;stroke-width:0.78111279;stroke-linecap:round;stroke-linejoin:round;stroke-miterlimit:4;stroke-dasharray:none;stroke-opacity:0.42995169"
       inkscape:connector-curvature="0"
       sodipodi:nodetypes="ccccc" />
    <g
       id="g4296"
       transform="matrix(0.26458333,0,0,0.26458333,66.919019,228.90216)">
      <path
         sodipodi:nodetypes="ssccsss"
         inkscape:connector-curvature="0"
         id="path3221"
         d="m -84.670785,9.6069069 c -3.782645,0 -6.848749,3.0661011 -6.848749,6.8487491 V 180.7384 c -1.662001,27.11449 8.180921,24.5211 13.566631,18.27788 0.0476,-0.32648 0.08724,-0.66325 0.08724,-1.00332 V 16.455657 c 0,-3.78265 -3.022467,-6.8487501 -6.805127,-6.8487501 z"
         style="fill:#000514;fill-opacity:1;stroke:none" />
      <rect
         style="fill:url(#linearGradient3831);fill-opacity:1;stroke:none"
         id="rect3227"
         width="13.655774"
         height="195.22697"
         x="-91.518257"
         y="9.1125154"
         ry="6.8278871" />
      <path
         sodipodi:nodetypes="cc"
         inkscape:connector-curvature="0"
         id="path4246"
         d="m -87.290617,10.51505 -1.13149,171.70387"
         style="fill:none;fill-rule:evenodd;stroke:#e4e4fe;stroke-width:1.60000002;stroke-linecap:butt;stroke-linejoin:miter;stroke-miterlimit:4;stroke-dasharray:none;stroke-opacity:0.36529685" />
      <ellipse
         style="fill:url(#radialGradient3833);fill-opacity:1;stroke:none"
         id="path3225"
         transform="rotate(-19.924587)"
         cx="-188.87668"
         cy="155.82617"
         rx="48.553864"
         ry="33.711666" />
      <path
         inkscape:connector-curvature="0"
         sodipodi:nodetypes="cssccsscc"
         id="path3254"
         d="m -79.32222,43.902175 c 0,0 60.7673,9.754754 58.268332,36.45666 -1.75261,18.726879 -80.891132,27.515785 -81.949592,61.384275 -0.75539,24.39357 79.456835,29.91316 79.456835,29.91316 l 3.115953,-2.49275 c 0,0 -73.633541,-8.35082 -72.290132,-28.66677 1.945847,-29.42657 80.715996,-29.56441 83.8191476,-58.891534 C -5.4861866,49.326253 -78.699038,13.365827 -78.699038,13.365827 Z"
         style="fill:#51568c;fill-opacity:1;fill-rule:evenodd;stroke:none" />
      <path
         inkscape:connector-curvature="0"
         style="fill:#c2c6fc;fill-opacity:0.60944208;fill-rule:evenodd;stroke:none"
         d="m -79.010622,22.713691 c 0,0 60.455702,31.254835 57.956734,57.95674 -1.75261,18.726881 -80.891132,27.204189 -81.949592,61.072679 -0.75539,24.39357 78.161362,26.99949 78.161362,26.99949 l -2.120924,-1.26273 c 0,0 -74.267888,-6.66717 -72.924481,-26.98312 1.945847,-29.42657 82.897168,-37.6659 83.507563,-59.826319 0.881331,-32.447193 -62.319078,-67.304604 -62.319078,-67.304604 z"
         id="path3256"
         sodipodi:nodetypes="cssccsscc" />
      <path
         sodipodi:nodetypes="cssccsscc"
         id="path3780"
         d="m -78.589709,43.338501 c 0,0 66.126362,9.672067 65.954105,36.490101 -0.130659,20.348798 -78.357262,30.158958 -83.212326,60.230858 -3.889811,24.09328 71.005812,28.68314 71.005812,28.68314 l -2.120924,-1.26273 c 0,0 -67.533257,-6.66717 -66.189849,-26.98312 1.945848,-29.42657 82.897169,-37.24499 83.5075642,-59.405405 C -8.7639965,48.644151 -79.119951,33.569724 -79.119951,33.569724 Z"
         style="fill:#21266a;fill-opacity:0.60944208;fill-rule:evenodd;stroke:none"
         inkscape:connector-curvature="0" />
      <path
         sodipodi:nodetypes="cc"
         inkscape:connector-curvature="0"
         id="path3808"
         d="m -78.305192,13.840658 c 21.119206,12.52281 47.354904,25.949636 65.241737,53.035227"
         style="fill:none;stroke:#ffffff;stroke-width:1.3959235px;stroke-linecap:butt;stroke-linejoin:miter;stroke-opacity:0.70815448" />
      <path
         style="fill:none;stroke:#ffffff;stroke-width:1.3959235px;stroke-linecap:butt;stroke-linejoin:miter;stroke-opacity:0.70815448"
         d="m -102.29732,139.27318 c 3.861711,-33.35687 89.867265,-40.554856 81.657407,-61.453517"
         id="path3810"
         inkscape:connector-curvature="0"
         sodipodi:nodetypes="cc" />
      <path
         style="fill:none;stroke:#ffffff;stroke-width:1.3959235px;stroke-linecap:butt;stroke-linejoin:miter;stroke-opacity:0.43776826"
         d="m -82.514334,155.26794 c 23.644696,9.15549 52.405872,14.16403 59.769843,14.31109"
         id="path3812"
         inkscape:connector-curvature="0"
         sodipodi:nodetypes="cc" />
      <path
         sodipodi:nodetypes="cc"
         inkscape:connector-curvature="0"
         id="path3814"
         d="m -77.042454,42.88376 c 16.025984,5.11296 32.563671,6.644004 47.563344,18.941152"
         style="fill:none;stroke:#000000;stroke-width:2.09388518;stroke-linecap:butt;stroke-linejoin:miter;stroke-miterlimit:4;stroke-dasharray:none;stroke-opacity:1" />
      <path
         style="fill:#51568c;fill-opacity:0.38626607;fill-rule:evenodd;stroke:none"
         d="m -79.32222,43.902175 c 0,0 60.7673,9.754754 58.268332,36.45666 -1.75261,18.726879 -80.891132,27.515785 -81.949592,61.384275 -0.75539,24.39357 79.456835,29.91316 79.456835,29.91316 l 3.115953,-2.49275 c 0,0 -73.633541,-8.35082 -72.290132,-28.66677 1.945847,-29.42657 80.715996,-29.56441 83.8191476,-58.891534 C -5.4861866,49.326253 -78.699038,13.365827 -78.699038,13.365827 Z"
         id="path3816"
         sodipodi:nodetypes="cssccsscc"
         inkscape:connector-curvature="0" />
    </g>
    <path
       inkscape:connector-curvature="0"
       style="fill:#a2a2a2;fill-opacity:0.52912622;stroke:#001860;stroke-width:0.78111273;stroke-linecap:round;stroke-linejoin:round;stroke-miterlimit:4;stroke-opacity:0.647343"
       d="M 11.405613,230.80836 29.73275,278.77703 21.89998,295.00335 3.7326612,246.70138 Z"
       id="rect2382"
       sodipodi:nodetypes="ccccc" />
    <path
       inkscape:connector-curvature="0"
       style="fill:none;stroke:#ffffff;stroke-width:0.26458332px;stroke-linecap:butt;stroke-linejoin:miter;stroke-opacity:0.53140097"
       d="m 11.495147,230.63399 18.499901,47.88832"
       id="path3163"
       sodipodi:nodetypes="cc" />
    <path
       style="fill:url(#linearGradient4238);fill-opacity:1;fill-rule:evenodd;stroke:none;stroke-width:0.26458332px;stroke-linecap:butt;stroke-linejoin:miter;stroke-opacity:1"
       d="m 17.446208,281.06696 4.565451,11.67558 6.885598,-14.07057 -4.715138,-11.90011 c -0.736487,7.02826 -2.055127,13.18329 -6.735911,14.2951 z"
       id="path4230"
       inkscape:connector-curvature="0"
       sodipodi:nodetypes="ccccc" />
    <path
       style="fill:#fbfbfb;fill-opacity:0.1641791;stroke:none;stroke-width:0.26458332px;stroke-linecap:butt;stroke-linejoin:miter;stroke-opacity:1"
       d="m 8.4524605,237.75729 2.6413935,-5.5092 17.659606,46.564 -3.924357,7.77325 z"
       id="path1084"
       inkscape:connector-curvature="0"
       sodipodi:nodetypes="ccccc" />
  </g>
</svg>
