<?xml version="1.0" encoding="UTF-8" standalone="no"?>
<svg xmlns="http://www.w3.org/2000/svg" xmlns:xlink="http://www.w3.org/1999/xlink" width="128" height="128">
  <defs>
    <linearGradient id="p" x1="122.000035" x2="122.000035" y1="61.999997" y2="9.932843" gradientUnits="userSpaceOnUse">
      <stop offset="0" stop-color="#004d00" stop-opacity="0"/>
      <stop offset=".5" stop-color="#004d00"/>
      <stop offset="1" stop-color="#004d00" stop-opacity="0"/>
    </linearGradient>
    <linearGradient id="o" x1="-80.00296" x2="-45.096584" y1="-131.93112" y2="-131.93112" gradientTransform="matrix(0 .73882 -.73882 0 -1.522665 63.255682)" gradientUnits="userSpaceOnUse">
      <stop offset="0" stop-color="#fff"/>
      <stop offset="1" stop-color="#fff" stop-opacity="0"/>
    </linearGradient>
    <linearGradient id="l" x1="328.12448" x2="336.98077" y1="120.81158" y2="87.759453" gradientUnits="userSpaceOnUse">
      <stop offset="0" stop-color="#0f0"/>
      <stop offset="1" stop-color="#006500"/>
    </linearGradient>
    <linearGradient id="j" x1="-86.120354" x2="-56.357521" y1="-381.09921" y2="-373.1243" gradientTransform="rotate(90 -90.0007 50.0022)" gradientUnits="userSpaceOnUse">
      <stop offset="0" stop-color="#008c00"/>
      <stop offset="1" stop-color="#00bf00"/>
    </linearGradient>
    <linearGradient id="a">
      <stop offset="0" stop-color="#fff"/>
      <stop offset="1" stop-color="#555753"/>
    </linearGradient>
    <linearGradient xlink:href="#a" id="e" x1="94.3438" x2="86.5356" y1="102.3447" y2="94.5366" gradientUnits="userSpaceOnUse"/>
    <linearGradient xlink:href="#a" id="f" x1="95" x2="86.5865" y1="103" y2="94.5865" gradientUnits="userSpaceOnUse"/>
    <linearGradient id="g" x1="95" x2="87.293" y1="103" y2="95.293" gradientUnits="userSpaceOnUse">
      <stop offset="0" stop-color="#fff"/>
      <stop offset="1" stop-color="#393b38"/>
    </linearGradient>
    <linearGradient id="h" x1="96" x2="88.0002" y1="104" y2="96.0002" gradientUnits="userSpaceOnUse">
      <stop offset="0" stop-color="#888a85"/>
      <stop offset=".0072" stop-color="#8c8e89"/>
      <stop offset=".0673" stop-color="#abaca9"/>
      <stop offset=".1347" stop-color="#c5c6c4"/>
      <stop offset=".2115" stop-color="#dbdbda"/>
      <stop offset=".3012" stop-color="#ebebeb"/>
      <stop offset=".4122" stop-color="#f7f7f6"/>
      <stop offset=".5679" stop-color="#fdfdfd"/>
      <stop offset="1" stop-color="#fff"/>
    </linearGradient>
    <filter id="q">
      <feGaussianBlur stdDeviation="1.04"/>
    </filter>
    <filter id="n">
      <feGaussianBlur stdDeviation="2.8805897"/>
    </filter>
    <filter id="i">
      <feGaussianBlur stdDeviation="2.1604423"/>
    </filter>
    <filter id="b">
      <feGaussianBlur stdDeviation="1.0394514"/>
    </filter>
    <radialGradient id="k" cx="343.99899" cy="92" r="36" gradientTransform="rotate(90 -90.0007 50.0022)" gradientUnits="userSpaceOnUse">
      <stop offset="0" stop-color="#e5ff00"/>
      <stop offset="1" stop-color="#bff500" stop-opacity="0"/>
    </radialGradient>
    <radialGradient id="d" cx="102" cy="112.3047" r="139.55859" gradientTransform="matrix(.97872 0 0 .98182 1.361705 1.163636)" gradientUnits="userSpaceOnUse">
      <stop offset="0" stop-color="#535557"/>
      <stop offset=".11366145" stop-color="#898a8c"/>
      <stop offset=".20296688" stop-color="#ececec"/>
      <stop offset=".2363" stop-color="#fafafa"/>
      <stop offset=".2722" stop-color="#fff"/>
      <stop offset=".5313" stop-color="#fafafa"/>
      <stop offset=".8449" stop-color="#ebecec"/>
      <stop offset="1" stop-color="#e1e2e3"/>
    </radialGradient>
    <radialGradient id="c" cx="102.000002" cy="112.3047" r="139.5585" gradientUnits="userSpaceOnUse">
      <stop offset="0" stop-color="#00537d"/>
      <stop offset=".0151" stop-color="#186389"/>
      <stop offset=".0558" stop-color="#558ca8"/>
      <stop offset=".0964" stop-color="#89afc3"/>
      <stop offset=".1357" stop-color="#b3ccd8"/>
      <stop offset=".1737" stop-color="#d4e2e9"/>
      <stop offset=".2099" stop-color="#ecf2f5"/>
      <stop offset=".2435" stop-color="#fafcfd"/>
      <stop offset=".2722" stop-color="#fff"/>
    </radialGradient>
    <clipPath id="m">
      <circle cx="343.99899" cy="92" r="36"/>
    </clipPath>
  </defs>
  <path d="m23 9 .040816 112H84.172c.53 0 1.039-.211 1.414-.586l32.828-32.828c.375-.375.586-.884.586-1.414V9z" filter="url(#b)" opacity=".5" transform="matrix(1.04167 0 0 1.03571 -9.958333 -3.321534)"/>
  <path fill="url(#c)" d="M16.000002 8v112h61.172c.53 0 1.039-.211 1.414-.586L111.414 86.586c.375-.375.586-.884.586-1.414V8z"/>
  <path fill="url(#d)" d="M18.978725 10c-.539276 0-.978723.440836-.978723.981818V117.01818c0 .54197.439447.98182.978723.98182h57.913022c.257404 0 .509915-.10407.691957-.28767L109.71323 85.4812c.18303-.1836.28677-.435927.28677-.694145V10.981818c0-.540982-.43847-.981818-.97872-.981818z"/>
  <g transform="translate(.000002)">
    <path fill="url(#e)" d="M111.414 86.586C111.664 86.336 93.035 93 88 93c-1.654 0-3 1.346-3 3 0 5.035-6.664 23.664-6.414 23.414z" opacity=".1"/>
    <path fill="url(#f)" d="M111.414 86.586C111.789 86.211 97.444 94 88 94c-1.103 0-2 .897-2 2 0 9.444-7.789 23.789-7.414 23.414z" opacity=".1"/>
    <path fill="url(#g)" d="M111.414 86.586C111.653 86.347 97.807 95 88 95c-.553 0-1 .447-1 1 0 9.807-8.653 23.653-8.414 23.414z" opacity=".1"/>
    <path fill="url(#h)" d="M78.586 119.414S90.5 109.5 96 104s15.414-17.414 15.414-17.414S98.25 96 88 96c0 10.25-9.414 23.414-9.414 23.414z"/>
  </g>
  <g transform="translate(.00001 .000017)">
    <circle cx="343.99899" cy="92" r="36" filter="url(#i)" opacity=".5" transform="rotate(165 203.8693299 45.07547376) scale(.8887)"/>
    <circle cx="343.99899" cy="92" r="36" fill="url(#j)" transform="rotate(165 204.13263163 43.07547492) scale(.8887)"/>
    <circle cx="343.99899" cy="92" r="36" fill="url(#k)" transform="rotate(165 164.57291583 37.88669468) scale(.66653)"/>
    <circle cx="343.99899" cy="92" r="36" fill="none" stroke="url(#l)" stroke-width="6.751382" clip-path="url(#m)" filter="url(#n)" opacity=".8" transform="scale(-.8887 .8887) rotate(-15 -94.6647314 1780.72409625)"/>
    <path fill="url(#o)" d="M96.000027 4.1481901c-11.345716 0-20.826095 8.0116059-23.111114 18.6782149 4.554661 4.245895 13.196893 7.111109 23.111114 7.111109 9.914233 0 18.556453-2.865214 23.111113-7.111109-2.28501-10.666609-11.7654-18.6782149-23.111113-18.6782149z" opacity=".8"/>
    <g transform="translate(-26.000031 -3.999996)">
      <path fill="none" stroke="url(#p)" stroke-linecap="round" stroke-linejoin="round" stroke-width="4" d="M118.00003 15.999997v16h-16v8h16v16h8v-16h16v-8h-16v-16z" filter="url(#q)"/>
      <path fill="#fff" fill-rule="evenodd" d="M118.00003 15.999997v16h-16v8h16v16h8v-16h16v-8h-16v-16z"/>
    </g>
  </g>
</svg>