<?xml version="1.0" encoding="UTF-8" standalone="no"?>
<svg height="128" width="128" xmlns="http://www.w3.org/2000/svg" xmlns:xlink="http://www.w3.org/1999/xlink">
  <defs>
    <filter id="r">
      <feGaussianBlur stdDeviation="1.04"/>
    </filter>
    <filter id="o">
      <feGaussianBlur stdDeviation="2.881"/>
    </filter>
    <clipPath id="m">
      <circle cx="343.999" cy="92" r="36"/>
    </clipPath>
    <filter id="j">
      <feGaussianBlur stdDeviation="2.16"/>
    </filter>
    <linearGradient id="k" gradientTransform="rotate(90 -90 50.002)" gradientUnits="userSpaceOnUse" x1="-86.12" x2="-56.358" y1="-381.099" y2="-373.124">
      <stop offset="0" stop-color="#008c00"/>
      <stop offset="1" stop-color="#00bf00"/>
    </linearGradient>
    <radialGradient id="l" cx="343.999" cy="92" gradientTransform="rotate(90 -90 50.002)" gradientUnits="userSpaceOnUse" r="36">
      <stop offset="0" stop-color="#e5ff00"/>
      <stop offset="1" stop-color="#bff500" stop-opacity="0"/>
    </radialGradient>
    <linearGradient id="n" gradientUnits="userSpaceOnUse" x1="328.124" x2="336.981" y1="120.812" y2="87.759">
      <stop offset="0" stop-color="#0f0"/>
      <stop offset="1" stop-color="#006500"/>
    </linearGradient>
    <linearGradient id="a">
      <stop offset="0" stop-color="#fff"/>
      <stop offset="1" stop-color="#fff" stop-opacity="0"/>
    </linearGradient>
    <linearGradient id="p" gradientTransform="matrix(0 .73882 -.73882 0 -1.523 63.256)" gradientUnits="userSpaceOnUse" x1="-80.003" x2="-45.097" xlink:href="#a" y1="-131.931" y2="-131.931"/>
    <linearGradient id="q" gradientUnits="userSpaceOnUse" x1="122" x2="122" y1="62" y2="9.933">
      <stop offset="0" stop-color="#004d00" stop-opacity="0"/>
      <stop offset=".5" stop-color="#004d00"/>
      <stop offset="1" stop-color="#004d00" stop-opacity="0"/>
    </linearGradient>
    <linearGradient id="d" gradientTransform="matrix(1.00338 0 0 1 -8.238 8)" gradientUnits="userSpaceOnUse" x1="122.744" x2="122.744" y1="96.722" y2="20">
      <stop offset="0" stop-color="#88c4ff"/>
      <stop offset=".131" stop-color="#b3d9ff"/>
      <stop offset=".72" stop-color="#71a8f5"/>
      <stop offset="1" stop-color="#508ed9"/>
    </linearGradient>
    <filter id="h" height="1.83" width="1.025" x="-.012" y="-.415">
      <feGaussianBlur stdDeviation=".654"/>
    </filter>
    <clipPath id="f">
      <path d="M133.866 100.978c-.073 1.391-1.27 2.522-2.667 2.522H16.813c-1.398 0-2.594-1.132-2.667-2.521l-3.637-70.022a2.277 2.277 0 0 1 .597-1.737 2.286 2.286 0 0 1 1.693-.719h122.414c.659 0 1.26.255 1.69.718.43.463.64 1.079.588 1.747z"/>
    </clipPath>
    <linearGradient id="i" gradientTransform="matrix(1.00339 0 0 1 -8.244 8)" gradientUnits="userSpaceOnUse" x1="72.001" x2="72.001" y1="96" y2="20">
      <stop offset="0" stop-color="#cfe7ff"/>
      <stop offset=".592" stop-color="#71a8f5"/>
      <stop offset="1" stop-color="#2c72c7"/>
    </linearGradient>
    <linearGradient id="g" gradientUnits="userSpaceOnUse" x1="32.414" x2="32.414" xlink:href="#a" y1="28.5" y2="34.473"/>
    <linearGradient id="b" gradientUnits="userSpaceOnUse" x1="64.001" x2="64.001" y1="104" y2="8">
      <stop offset="0" stop-color="#00479e"/>
      <stop offset=".077" stop-color="#2c72c7"/>
      <stop offset=".586" stop-color="#6ea1df"/>
      <stop offset=".965" stop-color="#adcbee"/>
    </linearGradient>
    <filter id="c" height="1.768" width="1.051" x="-.026" y="-.384">
      <feGaussianBlur stdDeviation="1.28"/>
    </filter>
    <linearGradient id="e" gradientTransform="matrix(1.00334 0 0 1 -8.237 8)" gradientUnits="userSpaceOnUse" x1="71.999" x2="71.999" y1="14.258" y2="19.958">
      <stop offset=".25" stop-color="#71a8f5" stop-opacity="0"/>
      <stop offset="1" stop-color="#0057ae"/>
    </linearGradient>
  </defs>
  <path d="M117.983 19c.009-1.65-1.333-3-2.983-3H44.961l-6.586-6.586C37.597 8.636 36.061 8 34.961 8H14c-2.2 0-4 1.8-4 4v7s1 85-3 85h114c-4 0-3.017-85-3.017-85z" fill="url(#b)" transform="translate(0 7.928)"/>
  <path d="M132 96c0 2.2-3.6 4-8 4H20c-4.4 0-8-1.8-8-4s3.6-4 8-4h104c4.4 0 8 1.8 8 4z" filter="url(#c)" opacity=".6" transform="matrix(1.00334 0 0 1 -8.237 15.928)"/>
  <path d="M124.366 101.004c-.086 1.648-1.512 2.996-3.168 2.996H6.813c-1.656 0-3.081-1.348-3.169-2.996L.008 30.992C-.112 29.347 1.144 28 2.799 28h122.413c1.655 0 2.906 1.346 2.78 2.991z" fill="url(#d)" opacity=".9" transform="translate(0 7.928)"/>
  <path d="M10.58 35.928a1852.75 1852.75 0 0 0-.08-9v-7c0-1.93 1.57-3.5 3.5-3.5h20.965c.972 0 2.374.581 3.061 1.268l6.733 6.732h70.257c.665 0 1.289.26 1.76.733s.729 1.1.725 1.764l.109-.109c-.122.607-.135 2.174-.163 6.273l-.01 2.839h.492c.03-5.532.07-9 .07-9 .01-1.65-1.332-3-2.983-3h-70.05l-6.587-6.586c-.778-.778-2.314-1.414-3.414-1.414H14c-2.2 0-4.001 1.8-4.001 4v7s.041 3.468.073 9h.507z" fill="#5293ee"/>
  <path d="M9.885 22c.009 1.75.018 3.755.026 6h108.184l.026-6z" fill="url(#e)" opacity=".5" transform="translate(0 7.928)"/>
  <path clip-path="url(#f)" d="M12.813 28.5c-.66 0-1.286.255-1.72.719a2.304 2.304 0 0 0-.593 1.75l.063 1.312c.085-.395.252-.763.53-1.062.434-.464 1.06-.719 1.72-.719h122.406c.659 0 1.257.256 1.687.719.277.298.448.664.531 1.062l.063-1.312a2.278 2.278 0 0 0-.594-1.75 2.271 2.271 0 0 0-1.687-.719z" fill="url(#g)" filter="url(#h)" transform="translate(-10 7.928)"/>
  <path d="M125.213 28H2.799C1.144 28-.112 29.347.008 30.992l3.637 70.012C3.732 102.652 5.157 104 6.813 104h114.386c1.656 0 3.082-1.348 3.168-2.996l3.624-70.013c.127-1.645-1.123-2.991-2.778-2.991zm-1.347 72.978c-.073 1.391-1.27 2.522-2.667 2.522H6.813c-1.398 0-2.594-1.132-2.667-2.521L.509 30.957a2.277 2.277 0 0 1 .597-1.737 2.286 2.286 0 0 1 1.693-.719h122.414c.659 0 1.26.255 1.69.718.43.463.64 1.079.588 1.747z" fill="url(#i)" transform="translate(0 7.928)"/>
  <g>
    <g transform="translate(-.39 .39)">
      <circle cx="343.999" cy="92" filter="url(#j)" opacity=".5" r="36" transform="scale(-.8887) rotate(-15 -385.262 1742.466)"/>
      <circle cx="343.999" cy="92" fill="url(#k)" r="36" transform="scale(-.8887) rotate(-15 -368.168 1744.717)"/>
      <circle cx="343.999" cy="92" fill="url(#l)" r="36" transform="rotate(165 164.573 37.887) scale(.66653)"/>
      <circle cx="343.999" cy="92" r="36" transform="scale(-.8887 .8887) rotate(-15 -94.665 1780.724)" opacity=".8" fill="none" stroke-width="6.751" clip-path="url(#m)" stroke="url(#n)" filter="url(#o)"/>
      <path d="M96 4.148c-11.346 0-20.826 8.012-23.111 18.678 4.555 4.246 13.197 7.112 23.111 7.112 9.914 0 18.556-2.866 23.111-7.112C116.826 12.16 107.346 4.148 96 4.148z" fill="url(#p)" opacity=".8"/>
      <path d="M118 16v16h-16v8h16v16h8V40h16v-8h-16V16z" fill="none" stroke-width="4" stroke-linecap="round" stroke-linejoin="round" stroke="url(#q)" filter="url(#r)" transform="translate(-26 -4)"/>
      <path d="M92 12v16H76v8h16v16h8V36h16v-8h-16V12z" fill="#fff" fill-rule="evenodd"/>
    </g>
  </g>
</svg>
