<?xml version="1.0" encoding="UTF-8" standalone="no"?>
<!-- Created with Inkscape (http://www.inkscape.org/) -->
<svg height="128" width="128" xmlns="http://www.w3.org/2000/svg" xmlns:xlink="http://www.w3.org/1999/xlink">
  <defs>
    <linearGradient id="linearGradient3768" gradientUnits="userSpaceOnUse" x1="23.5" x2="140.19827" y1="64" y2="32.730793">
      <stop offset="0" stop-color="#0968ef"/>
      <stop offset="1" stop-color="#aecffc"/>
    </linearGradient>
    <linearGradient id="linearGradient3772" gradientUnits="userSpaceOnUse" x1="100" x2="32" y1="120" y2="20">
      <stop offset="0" stop-color="#b900c4"/>
      <stop offset="1" stop-color="#ae4300"/>
    </linearGradient>
  </defs>
  <g>
    <path d="m120 118-4-2-8-4v4h-100v4h100v4l8-4z" fill="#797979" opacity=".613861"/>
    <g fill="#787878" fill-opacity=".615686">
      <rect height="4" rx="0" width="8" x="4" y="96"/>
      <rect height="4" rx="0" width="8" x="4" y="76"/>
      <rect height="4" rx="0" width="8" x="4" y="56"/>
      <rect height="4" rx="0" width="8" x="4" y="36"/>
      <rect height="4" rx="0" transform="rotate(-90)" width="8" x="-124" y="92"/>
      <rect height="4" rx="0" transform="rotate(-90)" width="8" x="-124" y="72"/>
      <rect height="4" rx="0" transform="rotate(-90)" width="8" x="-124" y="52"/>
      <rect height="4" rx="0" transform="rotate(-90)" width="8" x="-124" y="32"/>
    </g>
    <path d="m10 8-2 4-4 8h4v96h4v-96h4l-4-8z" fill="#797979" opacity=".613861"/>
    <path d="m24 104 32-8 24-48 24-8" fill="none" stroke="url(#linearGradient3768)" stroke-linecap="round" stroke-linejoin="round" stroke-width="4"/>
    <path d="m24 92 32-24 24 36 24-16" fill="none" stroke="url(#linearGradient3772)" stroke-linecap="round" stroke-linejoin="round" stroke-width="4"/>
  </g>
</svg>
