<?xml version="1.0" encoding="UTF-8" standalone="no"?>
<!-- Created with Inkscape (http://www.inkscape.org/) -->
<svg height="128" width="128" xmlns="http://www.w3.org/2000/svg" xmlns:xlink="http://www.w3.org/1999/xlink">
  <defs>
    <linearGradient id="linearGradient3381">
      <stop offset="0" stop-color="#fff"/>
      <stop offset="1" stop-color="#fff" stop-opacity="0"/>
    </linearGradient>
    <linearGradient id="linearGradient3174">
      <stop offset="0" stop-color="#0968ef"/>
      <stop offset="1" stop-color="#aecffc"/>
    </linearGradient>
    <linearGradient id="linearGradient3051">
      <stop offset="0" stop-color="#7c7c7c"/>
      <stop offset="1" stop-color="#d5d5d5"/>
    </linearGradient>
    <linearGradient id="linearGradient3768" gradientUnits="userSpaceOnUse" x1="57.975407" x2="101.76408" xlink:href="#linearGradient3051" y1="98.70945" y2="54.92078"/>
    <linearGradient id="linearGradient3772" gradientUnits="userSpaceOnUse" x1="51.642986" x2="91.708961" y1="93.308617" y2="23.912312">
      <stop offset="0" stop-color="#b900c4"/>
      <stop offset="1" stop-color="#ae4300"/>
    </linearGradient>
    <linearGradient id="linearGradient3224" gradientUnits="userSpaceOnUse" x1="61.929188" x2="107.46219" xlink:href="#linearGradient3174" y1="31.278873" y2="4.990381"/>
    <linearGradient id="linearGradient3309" gradientUnits="userSpaceOnUse" x1="88.66258" x2="81.16216" xlink:href="#linearGradient3174" y1="28.601852" y2=".609901"/>
    <linearGradient id="linearGradient3320" gradientUnits="userSpaceOnUse" x1="65.684731" x2="65.684731" y1="68.059006" y2="35.955765">
      <stop offset="0" stop-color="#99c2fc"/>
      <stop offset="1" stop-color="#dceafe"/>
    </linearGradient>
    <linearGradient id="linearGradient3344" gradientUnits="userSpaceOnUse" x1="66.530014" x2="66.530014" y1="96.098755" y2="63.6422">
      <stop offset="0" stop-color="#fbaeff"/>
      <stop offset="1" stop-color="#ffd7d7"/>
    </linearGradient>
    <linearGradient id="linearGradient3348" gradientUnits="userSpaceOnUse" x1="66.530014" x2="66.530014" xlink:href="#linearGradient3051" y1="168.20741" y2="95.977509"/>
    <linearGradient id="linearGradient3371" gradientUnits="userSpaceOnUse" x1="85.057503" x2="98.398941" xlink:href="#linearGradient3381" y1="81.893486" y2="105.00154"/>
    <linearGradient id="linearGradient3379" gradientUnits="userSpaceOnUse" x1="54.223408" x2="72.092926" xlink:href="#linearGradient3381" y1="21.285269" y2="87.97522"/>
    <linearGradient id="linearGradient3387" gradientUnits="userSpaceOnUse" x1="42.464333" x2="57.232319" xlink:href="#linearGradient3381" y1="15.161026" y2="70.275894"/>
  </defs>
  <g>
    <path d="m24 34v82c26.666667-3.86367 53.333333-4.6079 80 0v-82z" fill="url(#linearGradient3320)" fill-rule="evenodd"/>
    <path d="m120 118-4-2-8-4v4h-100v4h100v4l8-4z" fill="#797979" opacity=".613861"/>
    <g fill="#787878" fill-opacity=".615686">
      <rect height="4" rx="0" width="8" x="4" y="96"/>
      <rect height="4" rx="0" width="8" x="4" y="76"/>
      <rect height="4" rx="0" width="8" x="4" y="56"/>
      <rect height="4" rx="0" width="8" x="4" y="36"/>
      <rect height="4" rx="0" transform="rotate(-90)" width="8" x="-124" y="92"/>
      <rect height="4" rx="0" transform="rotate(-90)" width="8" x="-124" y="72"/>
      <rect height="4" rx="0" transform="rotate(-90)" width="8" x="-124" y="52"/>
      <rect height="4" rx="0" transform="rotate(-90)" width="8" x="-124" y="32"/>
    </g>
    <path d="m10 8-2 4-4 8h4v96h4v-96h4l-4-8z" fill="#797979" opacity=".613861"/>
    <path d="m24 116v-64l36 16 20-12 24 16v44z" fill="url(#linearGradient3344)" fill-rule="evenodd"/>
    <path d="m24 52v19.75c6.95947 2.692736 15.189389 4.25 24 4.25 17.236834 0 32.249044-5.95433 39.90625-14.71875l-7.90625-5.28125-20 12z" fill="url(#linearGradient3379)" opacity=".975248"/>
    <path d="m24 116v-8l36-8 20-16 24 5.393398v26.606602z" fill="url(#linearGradient3348)" fill-rule="evenodd"/>
    <path d="m80 84-19.65625 15.71875c2.079792.180974 4.183606.28125 6.34375.28125 14.594869 0 27.587429-4.27608 35.875-10.90625z" fill="url(#linearGradient3371)" opacity=".529703"/>
    <path d="m24 109 32-8 24-16 24 4" fill="none" stroke="url(#linearGradient3768)" stroke-linecap="round" stroke-linejoin="round" stroke-width="4"/>
    <path d="m24 51 36 16 20-12 24 16" fill="none" stroke="url(#linearGradient3772)" stroke-linecap="round" stroke-linejoin="round" stroke-width="4"/>
    <path d="m24 34v9.75c6.95947 2.692736 15.189389 4.25 24 4.25 16.748244 0 31.378185-5.641005 39.21875-14z" fill="url(#linearGradient3387)" opacity=".920792"/>
    <path d="m24 32c-1.104569.051777-1.958027.989181-1.90625 2.09375s.989181 1.958027 2.09375 1.90625h80c.72127.010201 1.39216-.368751 1.75578-.991746.36361-.622995.36361-1.393513 0-2.016508-.36362-.622995-1.03451-1.001947-1.75578-.991746h-80c-.062466-.002931-.125034-.002931-.1875 0z" fill="url(#linearGradient3224)" fill-rule="evenodd"/>
    <path d="m72 12v3.125h-4v4.875h4v8h4v-16zm12 0v3h-4v10h4v3h4v-3h4v-10h-4v-3zm16 0v3h-4v10h4v3h4v-3h4v-10h-4v-3zm14 0c-1.104 0-2 .896-2 2s.896 2 2 2 2-.896 2-2-.896-2-2-2zm8 2-10 10v2h2l10-10v-2zm-38 2h4v8h-4zm16 0h4v8h-4zm22 8c-1.104 0-2 .896-2 2s.896 2 2 2 2-.896 2-2-.896-2-2-2z" fill="url(#linearGradient3309)"/>
  </g>
</svg>
