<?xml version="1.0" encoding="UTF-8" standalone="no"?>
<!-- Created with Inkscape (http://www.inkscape.org/) -->

<svg
   xmlns:dc="http://purl.org/dc/elements/1.1/"
   xmlns:cc="http://creativecommons.org/ns#"
   xmlns:rdf="http://www.w3.org/1999/02/22-rdf-syntax-ns#"
   xmlns:svg="http://www.w3.org/2000/svg"
   xmlns="http://www.w3.org/2000/svg"
   xmlns:xlink="http://www.w3.org/1999/xlink"
   xmlns:sodipodi="http://sodipodi.sourceforge.net/DTD/sodipodi-0.dtd"
   xmlns:inkscape="http://www.inkscape.org/namespaces/inkscape"
   width="256"
   height="256"
   id="svg2"
   sodipodi:version="0.32"
   inkscape:version="0.92.5 (2060ec1f9f, 2020-04-08)"
   version="1.0"
   sodipodi:docname="ksnapshot.svg"
   inkscape:output_extension="org.inkscape.output.svg.inkscape">
  <sodipodi:namedview
     id="base"
     pagecolor="#ff0000"
     bordercolor="#666666"
     borderopacity="1.0"
     gridtolerance="10000"
     guidetolerance="10"
     objecttolerance="10"
     inkscape:pageopacity="0"
     inkscape:pageshadow="2"
     inkscape:zoom="3.4414062"
     inkscape:cx="128"
     inkscape:cy="128"
     inkscape:document-units="px"
     inkscape:current-layer="layer1"
     showgrid="false"
     inkscape:window-width="1920"
     inkscape:window-height="1056"
     inkscape:window-x="0"
     inkscape:window-y="0"
     inkscape:snap-to-guides="false"
     inkscape:snap-grids="false"
     inkscape:snap-others="false"
     inkscape:object-nodes="false"
     inkscape:snap-nodes="false"
     inkscape:snap-global="false"
     inkscape:window-maximized="1" />
  <defs
     id="defs4">
    <linearGradient
       inkscape:collect="always"
       id="linearGradient947">
      <stop
         style="stop-color:#000000;stop-opacity:1"
         offset="0"
         id="stop943" />
      <stop
         id="stop951"
         offset="0.83687937"
         style="stop-color:#000000;stop-opacity:0.74074072" />
      <stop
         style="stop-color:#000000;stop-opacity:0"
         offset="1"
         id="stop945" />
    </linearGradient>
    <linearGradient
       id="linearGradient999"
       inkscape:collect="always">
      <stop
         id="stop995"
         stop-color="#fdfdfd"
         stop-opacity="1" />
      <stop
         id="stop997"
         offset="1"
         stop-color="#484848"
         stop-opacity="1" />
    </linearGradient>
    <linearGradient
       inkscape:collect="always"
       id="linearGradient991">
      <stop
         id="stop987"
         stop-color="#ffffff"
         stop-opacity="0" />
      <stop
         offset="1"
         id="stop989"
         stop-color="#000660"
         stop-opacity="0.51" />
    </linearGradient>
    <linearGradient
       id="linearGradient1193"
       inkscape:collect="always">
      <stop
         id="stop1189"
         stop-color="#9397ff"
         stop-opacity="0.63" />
      <stop
         id="stop1191"
         offset="1"
         stop-color="#ffffff"
         stop-opacity="0" />
    </linearGradient>
    <linearGradient
       id="linearGradient1187"
       inkscape:collect="always">
      <stop
         id="stop1183"
         stop-color="#8b93ff"
         stop-opacity="1" />
      <stop
         id="stop1185"
         offset="1"
         stop-color="#000353"
         stop-opacity="0.42" />
    </linearGradient>
    <linearGradient
       id="linearGradient1177"
       inkscape:collect="always">
      <stop
         id="stop1173"
         stop-color="#002cf4"
         stop-opacity="0" />
      <stop
         offset="0.513"
         id="stop1197"
         stop-color="#012ef8"
         stop-opacity="0.3" />
      <stop
         id="stop1199"
         offset="0.836"
         stop-color="#859bff"
         stop-opacity="0.477" />
      <stop
         id="stop1175"
         offset="1"
         stop-color="#0331ff"
         stop-opacity="0" />
    </linearGradient>
    <linearGradient
       id="linearGradient3306"
       inkscape:collect="always">
      <stop
         id="stop3308"
         stop-color="#a6a6a6"
         stop-opacity="1" />
      <stop
         id="stop3310"
         offset="1"
         stop-color="#000000"
         stop-opacity="1" />
    </linearGradient>
    <linearGradient
       id="linearGradient3244"
       inkscape:collect="always">
      <stop
         id="stop3246"
         stop-color="#ffffff"
         stop-opacity="1" />
      <stop
         id="stop3248"
         offset="1"
         stop-color="#000000"
         stop-opacity="1" />
    </linearGradient>
    <linearGradient
       inkscape:collect="always"
       id="linearGradient3222">
      <stop
         id="stop3224"
         stop-color="#ffffff"
         stop-opacity="1" />
      <stop
         offset="1"
         id="stop3226"
         stop-color="#ffffff"
         stop-opacity="0" />
    </linearGradient>
    <linearGradient
       id="linearGradient3328"
       inkscape:collect="always">
      <stop
         id="stop3330"
         stop-color="#000000"
         stop-opacity="1" />
      <stop
         id="stop3332"
         offset="1"
         stop-color="#728591"
         stop-opacity="1" />
    </linearGradient>
    <linearGradient
       id="linearGradient3320"
       inkscape:collect="always">
      <stop
         id="stop3322"
         stop-color="#000000"
         stop-opacity="1" />
      <stop
         id="stop3324"
         offset="1"
         stop-color="#99a7b2"
         stop-opacity="1" />
    </linearGradient>
    <linearGradient
       inkscape:collect="always"
       xlink:href="#linearGradient3306"
       id="linearGradient3486"
       gradientUnits="userSpaceOnUse"
       gradientTransform="translate(-198.08429,182.37548)"
       spreadMethod="reflect"
       x1="276.97"
       y1="154.35"
       x2="354.06"
       y2="158.46" />
    <linearGradient
       inkscape:collect="always"
       xlink:href="#linearGradient999"
       id="linearGradient3489"
       gradientUnits="userSpaceOnUse"
       gradientTransform="translate(-198.08429,182.37548)"
       spreadMethod="reflect"
       x1="290.75"
       y1="151.1"
       x2="350.26"
       y2="150.53" />
    <linearGradient
       inkscape:collect="always"
       xlink:href="#linearGradient3244"
       id="linearGradient3491"
       gradientUnits="userSpaceOnUse"
       gradientTransform="translate(-198.08429,182.37548)"
       spreadMethod="reflect"
       x1="333.96"
       y1="178.06"
       x2="335.97"
       y2="178.06" />
    <linearGradient
       inkscape:collect="always"
       xlink:href="#linearGradient999"
       id="linearGradient3493"
       gradientUnits="userSpaceOnUse"
       gradientTransform="translate(-198.08429,182.37548)"
       spreadMethod="reflect"
       x1="284.65"
       y1="154.46"
       x2="355.93"
       y2="149.12" />
    <linearGradient
       inkscape:collect="always"
       xlink:href="#linearGradient999"
       id="linearGradient3505"
       gradientUnits="userSpaceOnUse"
       gradientTransform="translate(-198.08429,182.37548)"
       spreadMethod="reflect"
       x1="283.76"
       y1="149.59"
       x2="355.93"
       y2="149.12" />
    <linearGradient
       inkscape:collect="always"
       xlink:href="#linearGradient3320"
       id="linearGradient3507"
       gradientUnits="userSpaceOnUse"
       spreadMethod="reflect"
       x1="76.67"
       y1="75.98"
       x2="172.23"
       y2="69.45" />
    <linearGradient
       inkscape:collect="always"
       xlink:href="#linearGradient3328"
       id="linearGradient3509"
       gradientUnits="userSpaceOnUse"
       spreadMethod="reflect"
       x1="50.12"
       y1="140.96"
       x2="158.31"
       y2="134.93" />
    <radialGradient
       inkscape:collect="always"
       xlink:href="#linearGradient3222"
       id="radialGradient3511"
       gradientUnits="userSpaceOnUse"
       gradientTransform="matrix(1.0678554,0,0,0.5483918,-12.907376,20.138713)"
       cx="85.55"
       cy="87.06"
       fx="85.55"
       fy="87.06"
       r="36.2" />
    <linearGradient
       inkscape:collect="always"
       xlink:href="#linearGradient1187"
       id="linearGradient2722"
       gradientUnits="userSpaceOnUse"
       x1="-143.6"
       y1="75.66"
       x2="-140.41"
       y2="155.86"
       gradientTransform="matrix(1.0402978,0,0,1.1740243,270.77541,-47.031607)" />
    <radialGradient
       inkscape:collect="always"
       xlink:href="#linearGradient1193"
       id="radialGradient2724"
       gradientUnits="userSpaceOnUse"
       gradientTransform="matrix(1.1162721,4.7881554e-8,-2.4921482e-8,0.58099941,274.65156,-11.851001)"
       cx="-134.05"
       cy="150.12"
       fx="-134.05"
       fy="150.12"
       r="74.34" />
    <radialGradient
       inkscape:collect="always"
       xlink:href="#linearGradient1177"
       id="radialGradient1195"
       cx="122.89"
       cy="137.76"
       fx="122.89"
       fy="137.76"
       r="64.821"
       gradientTransform="matrix(1.4537599,-0.0214557,0.01301509,1.1179418,-62.812355,-44.280027)"
       gradientUnits="userSpaceOnUse" />
    <linearGradient
       inkscape:collect="always"
       xlink:href="#linearGradient991"
       id="linearGradient993"
       x1="190.75"
       y1="72.01"
       x2="218.86"
       y2="74.65"
       gradientUnits="userSpaceOnUse"
       gradientTransform="translate(0.58115799,9.0079456)" />
    <radialGradient
       inkscape:collect="always"
       xlink:href="#linearGradient947"
       id="radialGradient949"
       cx="132.84959"
       cy="210.29622"
       fx="132.84959"
       fy="210.29622"
       r="82.884041"
       gradientTransform="matrix(1,0,0,0.41312055,-1.7701624,127.74051)"
       gradientUnits="userSpaceOnUse" />
    <radialGradient
       inkscape:collect="always"
       xlink:href="#linearGradient1177"
       id="radialGradient950"
       gradientUnits="userSpaceOnUse"
       gradientTransform="matrix(0.97946636,-0.01494521,0.00876888,0.77871512,1.6278404,7.4816177)"
       cx="122.89"
       cy="137.76"
       fx="122.89"
       fy="137.76"
       r="64.821" />
    <linearGradient
       inkscape:collect="always"
       xlink:href="#linearGradient3244"
       id="linearGradient952"
       gradientUnits="userSpaceOnUse"
       gradientTransform="translate(-198.08429,182.37548)"
       x1="333.96"
       y1="178.06"
       x2="335.97"
       y2="178.06"
       spreadMethod="reflect" />
  </defs>
  <metadata
     id="metadata7">
    <rdf:RDF>
      <cc:Work>
        <dc:format>image/svg+xml</dc:format>
        <dc:type
           rdf:resource="http://purl.org/dc/dcmitype/StillImage" />
        <dc:title />
      </cc:Work>
    </rdf:RDF>
  </metadata>
  <g
     inkscape:label="Layer 1"
     inkscape:groupmode="layer"
     id="layer1">
    <ellipse
       style="opacity:0.847;fill:url(#radialGradient949);fill-opacity:1;stroke:none;stroke-width:3.29999995;stroke-linecap:round;stroke-linejoin:round;stroke-miterlimit:4;stroke-dasharray:none;stroke-dashoffset:0;stroke-opacity:1"
       id="path941"
       cx="131.07944"
       cy="214.61821"
       rx="82.884041"
       ry="34.2411" />
    <g
       transform="matrix(0.78178008,0,0,0.78178008,33.471006,-48.210429)"
       id="g3292">
      <path
         inkscape:connector-curvature="0"
         id="path3294"
         d="m 208.788,291.03142 c 0,0 0,0 0,0 v 20 c 0,0 0,0 0,0 z"
         stroke-miterlimit="4"
         style="fill:#5d707e;fill-opacity:1;stroke:#000000;stroke-width:0.208;stroke-linecap:round;stroke-linejoin:round;stroke-miterlimit:4;stroke-dasharray:none;stroke-opacity:1" />
      <path
         inkscape:connector-curvature="0"
         id="path3296"
         d="m 208.788,291.03142 c 0,28.59419 -41.28231,51.79515 -92.15628,51.79515 v 20 c 50.87397,0 92.15628,-23.20096 92.15628,-51.79515 z"
         stroke-miterlimit="4"
         style="fill:#5d707e;fill-opacity:1;stroke:#000000;stroke-width:0.208;stroke-linecap:round;stroke-linejoin:round;stroke-miterlimit:4;stroke-dasharray:none;stroke-opacity:1" />
      <path
         inkscape:connector-curvature="0"
         id="path3298"
         d="m 116.63172,342.82657 c -50.873967,0 -92.188853,-23.20096 -92.188853,-51.79515 v 20 c 0,28.59419 41.314886,51.79515 92.188853,51.79515 z"
         stroke-miterlimit="4"
         style="fill:#5d707e;fill-opacity:1;stroke:#000000;stroke-width:0.208;stroke-linecap:round;stroke-linejoin:round;stroke-miterlimit:4;stroke-dasharray:none;stroke-opacity:1" />
      <path
         inkscape:connector-curvature="0"
         d="m 19.38446,291.03173 v 20 c 0,31.35688 43.58773,56.8125 97.25,56.8125 53.66228,0 97.18749,-25.45562 97.1875,-56.8125 v -20 c 0,31.35688 -43.52521,56.8125 -97.1875,56.8125 -53.66228,0 -97.25001,-25.45562 -97.25,-56.8125 z"
         id="path3300"
         stroke-miterlimit="4"
         style="fill:url(#linearGradient3486);fill-opacity:1;stroke:#000000;stroke-width:0.208;stroke-linecap:round;stroke-linejoin:round;stroke-miterlimit:4;stroke-dasharray:none;stroke-opacity:1" />
      <path
         inkscape:connector-curvature="0"
         id="path3302"
         d="m 208.788,291.03142 c 0,28.59419 -41.28231,51.79515 -92.15628,51.79515 -50.873967,0 -98.833079,-23.98361 -92.188853,-51.79515 4.455581,-18.65027 -2.254382,-19.65695 -5.049213,0 0,31.35688 43.575789,56.81179 97.238066,56.81179 53.66228,0 97.20549,-25.45491 97.20549,-56.81179 -0.3578,-19.46627 -6.77396,-14.94652 -5.04921,0 z"
         sodipodi:nodetypes="csscscc"
         stroke-miterlimit="4"
         style="fill:#5d707e;fill-opacity:1;stroke:#000000;stroke-width:0.208;stroke-linecap:round;stroke-linejoin:round;stroke-miterlimit:4;stroke-dasharray:none;stroke-opacity:1" />
    </g>
    <g
       id="g3278"
       transform="matrix(0.82969551,0,0,0.82969551,28.187822,-76.443757)">
      <path
         inkscape:connector-curvature="0"
         d="m 208.788,291.03142 c 0,0 0,0 0,0 v 20 c 0,0 0,0 0,0 z"
         id="path3280"
         stroke-miterlimit="4"
         style="fill:#5d707e;fill-opacity:1;stroke:#000000;stroke-width:0.208;stroke-linecap:round;stroke-linejoin:round;stroke-miterlimit:4;stroke-dasharray:none;stroke-opacity:1" />
      <path
         inkscape:connector-curvature="0"
         d="m 208.788,291.03142 c 0,28.59419 -41.28231,51.79515 -92.15628,51.79515 v 20 c 50.87397,0 92.15628,-23.20096 92.15628,-51.79515 z"
         id="path3282"
         stroke-miterlimit="4"
         style="fill:#5d707e;fill-opacity:1;stroke:#000000;stroke-width:0.208;stroke-linecap:round;stroke-linejoin:round;stroke-miterlimit:4;stroke-dasharray:none;stroke-opacity:1" />
      <path
         inkscape:connector-curvature="0"
         d="m 116.63172,342.82657 c -50.873967,0 -92.188853,-23.20096 -92.188853,-51.79515 v 20 c 0,28.59419 41.314886,51.79515 92.188853,51.79515 z"
         id="path3284"
         stroke-miterlimit="4"
         style="fill:#5d707e;fill-opacity:1;stroke:#000000;stroke-width:0.208;stroke-linecap:round;stroke-linejoin:round;stroke-miterlimit:4;stroke-dasharray:none;stroke-opacity:1" />
      <path
         inkscape:connector-curvature="0"
         id="path3286"
         d="m 19.38446,291.03173 v 20 c 0,31.35688 43.58773,56.8125 97.25,56.8125 53.66228,0 97.18749,-25.45562 97.1875,-56.8125 v -20 c 0,31.35688 -43.52521,56.8125 -97.1875,56.8125 -53.66228,0 -97.25001,-25.45562 -97.25,-56.8125 z"
         stroke-miterlimit="4"
         style="fill:url(#linearGradient3489);fill-opacity:1;stroke:#000000;stroke-width:0.208;stroke-linecap:round;stroke-linejoin:round;stroke-miterlimit:4;stroke-dasharray:none;stroke-opacity:1" />
      <path
         inkscape:connector-curvature="0"
         sodipodi:nodetypes="csscscc"
         d="m 208.788,291.03142 c 0,28.59419 -41.28231,51.79515 -92.15628,51.79515 -50.873967,0 -98.833079,-23.98361 -92.188853,-51.79515 4.455581,-18.65027 -2.254382,-19.65695 -5.049213,0 0,31.35688 43.575789,56.81179 97.238066,56.81179 53.66228,0 97.20549,-25.45491 97.20549,-56.81179 -0.3578,-19.46627 -6.77396,-14.94652 -5.04921,0 z"
         id="path3288"
         stroke-miterlimit="4"
         style="fill:#5d707e;fill-opacity:1;stroke:#000000;stroke-width:0.208;stroke-linecap:round;stroke-linejoin:round;stroke-miterlimit:4;stroke-dasharray:none;stroke-opacity:1" />
    </g>
    <g
       id="g1170"
       transform="matrix(0.89606449,0,0,0.85926887,12.189131,21.05468)">
      <g
         transform="matrix(1.0678554,0,0,1.0678554,7.4428512,-27.320925)"
         id="g3324">
        <path
           d="m 107.55144,231.77431 v 9.96678"
           id="path3312"
           inkscape:connector-curvature="0"
           style="fill:none;fill-rule:evenodd;stroke:#000000;stroke-width:1;stroke-linecap:round;stroke-linejoin:miter;stroke-opacity:1" />
        <path
           id="path3314"
           d="m 100.51839,231.63365 v 9.96678"
           inkscape:connector-curvature="0"
           style="fill:none;fill-rule:evenodd;stroke:#000000;stroke-width:1;stroke-linecap:round;stroke-linejoin:miter;stroke-opacity:1" />
        <path
           d="m 93.344679,230.64902 v 9.96678"
           id="path3316"
           inkscape:connector-curvature="0"
           style="fill:none;fill-rule:evenodd;stroke:#000000;stroke-width:1;stroke-linecap:round;stroke-linejoin:miter;stroke-opacity:1" />
        <path
           id="path3318"
           d="m 86.45229,229.38307 v 9.96678"
           inkscape:connector-curvature="0"
           style="fill:none;fill-rule:evenodd;stroke:#000000;stroke-width:1;stroke-linecap:round;stroke-linejoin:miter;stroke-opacity:1" />
        <path
           d="m 78.856596,228.11712 v 9.96678"
           id="path3320"
           inkscape:connector-curvature="0"
           style="fill:none;fill-rule:evenodd;stroke:#000000;stroke-width:1;stroke-linecap:round;stroke-linejoin:miter;stroke-opacity:1" />
        <path
           id="path3322"
           d="m 72.245529,226.56985 v 9.96678"
           inkscape:connector-curvature="0"
           style="fill:none;fill-rule:evenodd;stroke:#000000;stroke-width:1;stroke-linecap:round;stroke-linejoin:miter;stroke-opacity:1" />
      </g>
      <g
         transform="matrix(-1.0678554,0,0,1.0678554,243.90088,-27.621336)"
         id="g3332">
        <path
           id="path3334"
           d="m 107.55144,231.77431 v 9.96678"
           inkscape:connector-curvature="0"
           style="fill:none;fill-rule:evenodd;stroke:#000000;stroke-width:1;stroke-linecap:round;stroke-linejoin:miter;stroke-opacity:1" />
        <path
           d="m 100.51839,231.63365 v 9.96678"
           id="path3337"
           inkscape:connector-curvature="0"
           style="fill:none;fill-rule:evenodd;stroke:#000000;stroke-width:1;stroke-linecap:round;stroke-linejoin:miter;stroke-opacity:1" />
        <path
           id="path3339"
           d="m 93.344679,230.64902 v 9.96678"
           inkscape:connector-curvature="0"
           style="fill:none;fill-rule:evenodd;stroke:#000000;stroke-width:1;stroke-linecap:round;stroke-linejoin:miter;stroke-opacity:1" />
        <path
           d="m 86.45229,229.38307 v 9.96678"
           id="path3341"
           inkscape:connector-curvature="0"
           style="fill:none;fill-rule:evenodd;stroke:#000000;stroke-width:1;stroke-linecap:round;stroke-linejoin:miter;stroke-opacity:1" />
        <path
           id="path3343"
           d="m 78.856596,228.11712 v 9.96678"
           inkscape:connector-curvature="0"
           style="fill:none;fill-rule:evenodd;stroke:#000000;stroke-width:1;stroke-linecap:round;stroke-linejoin:miter;stroke-opacity:1" />
        <path
           d="m 72.245529,226.56985 v 9.96678"
           id="path3345"
           inkscape:connector-curvature="0"
           style="fill:none;fill-rule:evenodd;stroke:#000000;stroke-width:1;stroke-linecap:round;stroke-linejoin:miter;stroke-opacity:1" />
      </g>
      <g
         transform="matrix(1.0678554,0,0,1.0678554,7.4428512,-27.320925)"
         id="g3371">
        <path
           d="m 155.65751,223.89729 v 9.96678"
           id="path3349"
           inkscape:connector-curvature="0"
           style="fill:none;fill-rule:evenodd;stroke:#000000;stroke-width:1;stroke-linecap:round;stroke-linejoin:miter;stroke-opacity:1" />
        <path
           id="path3351"
           d="m 161.42461,222.0687 v 9.96678"
           inkscape:connector-curvature="0"
           style="fill:none;fill-rule:evenodd;stroke:#000000;stroke-width:1;stroke-linecap:round;stroke-linejoin:miter;stroke-opacity:1" />
        <path
           d="m 165.64444,219.95878 v 9.96678"
           id="path3353"
           inkscape:connector-curvature="0"
           style="fill:none;fill-rule:evenodd;stroke:#000000;stroke-width:1;stroke-linecap:round;stroke-linejoin:miter;stroke-opacity:1" />
        <path
           id="path3355"
           d="m 170.70824,217.98952 v 9.96678"
           inkscape:connector-curvature="0"
           style="fill:none;fill-rule:evenodd;stroke:#000000;stroke-width:1;stroke-linecap:round;stroke-linejoin:miter;stroke-opacity:1" />
        <path
           d="m 175.35004,215.03564 v 9.96678"
           id="path3357"
           inkscape:connector-curvature="0"
           style="fill:none;fill-rule:evenodd;stroke:#000000;stroke-width:1;stroke-linecap:round;stroke-linejoin:miter;stroke-opacity:1" />
        <path
           id="path3359"
           d="m 179.42922,212.78507 v 9.96678"
           inkscape:connector-curvature="0"
           style="fill:none;fill-rule:evenodd;stroke:#000000;stroke-width:1;stroke-linecap:round;stroke-linejoin:miter;stroke-opacity:1" />
        <path
           d="m 182.80508,210.24676 v 9.83894"
           id="path3367"
           inkscape:connector-curvature="0"
           style="fill:none;fill-rule:evenodd;stroke:#000000;stroke-width:0.99400002;stroke-linecap:round;stroke-linejoin:miter;stroke-opacity:1" />
        <path
           id="path3369"
           d="m 186.32161,207.40774 v 9.3279"
           inkscape:connector-curvature="0"
           style="fill:none;fill-rule:evenodd;stroke:#000000;stroke-width:0.96700001;stroke-linecap:round;stroke-linejoin:miter;stroke-opacity:1" />
      </g>
      <g
         transform="matrix(-1.0678554,0,0,1.0678554,243.8835,-25.969075)"
         id="g3381">
        <path
           id="path3383"
           d="m 155.65751,223.89729 v 9.96678"
           inkscape:connector-curvature="0"
           style="fill:none;fill-rule:evenodd;stroke:#000000;stroke-width:1;stroke-linecap:round;stroke-linejoin:miter;stroke-opacity:1" />
        <path
           d="m 161.42461,222.0687 v 9.96678"
           id="path3385"
           inkscape:connector-curvature="0"
           style="fill:none;fill-rule:evenodd;stroke:#000000;stroke-width:1;stroke-linecap:round;stroke-linejoin:miter;stroke-opacity:1" />
        <path
           id="path3387"
           d="m 165.64444,219.95878 v 9.96678"
           inkscape:connector-curvature="0"
           style="fill:none;fill-rule:evenodd;stroke:#000000;stroke-width:1;stroke-linecap:round;stroke-linejoin:miter;stroke-opacity:1" />
        <path
           d="m 170.70824,217.98952 v 9.96678"
           id="path3389"
           inkscape:connector-curvature="0"
           style="fill:none;fill-rule:evenodd;stroke:#000000;stroke-width:1;stroke-linecap:round;stroke-linejoin:miter;stroke-opacity:1" />
        <path
           id="path3391"
           d="m 175.35004,215.03564 v 9.96678"
           inkscape:connector-curvature="0"
           style="fill:none;fill-rule:evenodd;stroke:#000000;stroke-width:1;stroke-linecap:round;stroke-linejoin:miter;stroke-opacity:1" />
        <path
           d="m 179.42922,212.78507 v 9.96678"
           id="path3393"
           inkscape:connector-curvature="0"
           style="fill:none;fill-rule:evenodd;stroke:#000000;stroke-width:1;stroke-linecap:round;stroke-linejoin:miter;stroke-opacity:1" />
        <path
           id="path3395"
           d="m 182.80508,210.24676 v 9.83894"
           inkscape:connector-curvature="0"
           style="fill:none;fill-rule:evenodd;stroke:#000000;stroke-width:0.99400002;stroke-linecap:round;stroke-linejoin:miter;stroke-opacity:1" />
        <path
           d="m 186.32161,207.40774 v 9.3279"
           id="path3397"
           inkscape:connector-curvature="0"
           style="fill:none;fill-rule:evenodd;stroke:#000000;stroke-width:0.96700001;stroke-linecap:round;stroke-linejoin:miter;stroke-opacity:1" />
      </g>
    </g>
    <g
       id="g3264"
       transform="matrix(0.91197822,0,0,0.91197822,19.185787,-124.56064)">
      <path
         inkscape:connector-curvature="0"
         d="m 208.788,291.03142 c 0,0 0,0 0,0 v 20 c 0,0 0,0 0,0 z"
         id="path3266"
         stroke-miterlimit="4"
         style="fill:#5d707e;fill-opacity:1;stroke:#000000;stroke-width:0.208;stroke-linecap:round;stroke-linejoin:round;stroke-miterlimit:4;stroke-dasharray:none;stroke-opacity:1" />
      <path
         inkscape:connector-curvature="0"
         d="m 208.788,291.03142 c 0,28.59419 -41.28231,51.79515 -92.15628,51.79515 v 20 c 50.87397,0 92.15628,-23.20096 92.15628,-51.79515 z"
         id="path3268"
         stroke-miterlimit="4"
         style="fill:#5d707e;fill-opacity:1;stroke:#000000;stroke-width:0.208;stroke-linecap:round;stroke-linejoin:round;stroke-miterlimit:4;stroke-dasharray:none;stroke-opacity:1" />
      <path
         inkscape:connector-curvature="0"
         d="m 116.63172,342.82657 c -50.873967,0 -92.188853,-23.20096 -92.188853,-51.79515 v 20 c 0,28.59419 41.314886,51.79515 92.188853,51.79515 z"
         id="path3270"
         stroke-miterlimit="4"
         style="fill:#5d707e;fill-opacity:1;stroke:#000000;stroke-width:0.208;stroke-linecap:round;stroke-linejoin:round;stroke-miterlimit:4;stroke-dasharray:none;stroke-opacity:1" />
      <path
         inkscape:connector-curvature="0"
         id="path3272"
         d="m 19.38446,291.03173 v 20 c 0,31.35688 43.58773,56.8125 97.25,56.8125 53.66228,0 97.18749,-25.45562 97.1875,-56.8125 v -20 c 0,31.35688 -43.52521,56.8125 -97.1875,56.8125 -53.66228,0 -97.25001,-25.45562 -97.25,-56.8125 z"
         stroke-miterlimit="4"
         style="fill:url(#linearGradient952);fill-opacity:1;stroke:#000000;stroke-width:0.208;stroke-linecap:round;stroke-linejoin:round;stroke-miterlimit:4;stroke-dasharray:none;stroke-opacity:1" />
      <path
         inkscape:connector-curvature="0"
         sodipodi:nodetypes="csscscc"
         d="m 208.788,291.03142 c 0,28.59419 -41.28231,51.79515 -92.15628,51.79515 -50.873967,0 -98.833079,-23.98361 -92.188853,-51.79515 4.455581,-18.65027 -2.254382,-19.65695 -5.049213,0 0,31.35688 43.575789,56.81179 97.238066,56.81179 53.66228,0 97.20549,-25.45491 97.20549,-56.81179 -0.3578,-19.46627 -6.77396,-14.94652 -5.04921,0 z"
         id="path3274"
         stroke-miterlimit="4"
         style="fill:#5d707e;fill-opacity:1;stroke:#000000;stroke-width:0.208;stroke-linecap:round;stroke-linejoin:round;stroke-miterlimit:4;stroke-dasharray:none;stroke-opacity:1" />
    </g>
    <g
       transform="matrix(0.95346525,0,0,0.95346525,15.883552,-151.88752)"
       id="g3250">
      <path
         inkscape:connector-curvature="0"
         id="path3252"
         d="m 208.788,291.03142 c 0,0 0,0 0,0 v 20 c 0,0 0,0 0,0 z"
         stroke-miterlimit="4"
         style="fill:#5d707e;fill-opacity:1;stroke:#000000;stroke-width:0.208;stroke-linecap:round;stroke-linejoin:round;stroke-miterlimit:4;stroke-dasharray:none;stroke-opacity:1" />
      <path
         inkscape:connector-curvature="0"
         id="path3254"
         d="m 208.788,291.03142 c 0,28.59419 -41.28231,51.79515 -92.15628,51.79515 v 20 c 50.87397,0 92.15628,-23.20096 92.15628,-51.79515 z"
         stroke-miterlimit="4"
         style="fill:#5d707e;fill-opacity:1;stroke:#000000;stroke-width:0.208;stroke-linecap:round;stroke-linejoin:round;stroke-miterlimit:4;stroke-dasharray:none;stroke-opacity:1" />
      <path
         inkscape:connector-curvature="0"
         id="path3256"
         d="m 116.63172,342.82657 c -50.873967,0 -92.188853,-23.20096 -92.188853,-51.79515 v 20 c 0,28.59419 41.314886,51.79515 92.188853,51.79515 z"
         stroke-miterlimit="4"
         style="fill:#5d707e;fill-opacity:1;stroke:#000000;stroke-width:0.208;stroke-linecap:round;stroke-linejoin:round;stroke-miterlimit:4;stroke-dasharray:none;stroke-opacity:1" />
      <path
         inkscape:connector-curvature="0"
         d="m 19.38446,291.03173 v 20 c 0,31.35688 43.58773,56.8125 97.25,56.8125 53.66228,0 97.18749,-25.45562 97.1875,-56.8125 v -20 c 0,31.35688 -43.52521,56.8125 -97.1875,56.8125 -53.66228,0 -97.25001,-25.45562 -97.25,-56.8125 z"
         id="path3258"
         stroke-miterlimit="4"
         style="fill:url(#linearGradient3493);fill-opacity:1;stroke:#000000;stroke-width:0.208;stroke-linecap:round;stroke-linejoin:round;stroke-miterlimit:4;stroke-dasharray:none;stroke-opacity:1" />
      <path
         inkscape:connector-curvature="0"
         id="path3260"
         d="m 208.788,291.03142 c 0,28.59419 -41.28231,51.79515 -92.15628,51.79515 -50.873967,0 -98.833079,-23.98361 -92.188853,-51.79515 4.455581,-18.65027 -2.254382,-19.65695 -5.049213,0 0,31.35688 43.575789,56.81179 97.238066,56.81179 53.66228,0 97.20549,-25.45491 97.20549,-56.81179 -0.3578,-19.46627 -6.77396,-14.94652 -5.04921,0 z"
         sodipodi:nodetypes="csscscc"
         stroke-miterlimit="4"
         style="fill:#5d707e;fill-opacity:1;stroke:#000000;stroke-width:0.208;stroke-linecap:round;stroke-linejoin:round;stroke-miterlimit:4;stroke-dasharray:none;stroke-opacity:1" />
    </g>
    <ellipse
       id="path2396"
       cx="127.79116"
       cy="80.345055"
       rx="99.589996"
       ry="58.189999"
       stroke-miterlimit="4"
       style="fill:#000e68;fill-opacity:1;stroke:none;stroke-width:1.49600005;stroke-linecap:round;stroke-linejoin:round;stroke-miterlimit:4;stroke-dasharray:none;stroke-opacity:1" />
    <ellipse
       id="path3178"
       cx="127.59116"
       cy="109.07877"
       rx="90.589996"
       ry="62.658287"
       stroke-miterlimit="4"
       style="fill:url(#linearGradient2722);fill-opacity:1;stroke:none;stroke-width:1.54763544;stroke-linecap:round;stroke-linejoin:round;stroke-miterlimit:4;stroke-dasharray:none;stroke-opacity:1" />
    <ellipse
       id="path3188"
       cx="123.10116"
       cy="75.955055"
       rx="82.988998"
       ry="41.189999"
       stroke-miterlimit="4"
       style="fill:url(#radialGradient2724);fill-opacity:1;stroke:none;stroke-width:1.52900004;stroke-linecap:round;stroke-linejoin:round;stroke-miterlimit:4;stroke-dasharray:none;stroke-opacity:1" />
    <g
       transform="matrix(0.99559643,0,0,0.99559643,10.438451,-176.77713)"
       id="g3230">
      <path
         inkscape:connector-curvature="0"
         id="path3232"
         d="m 208.788,291.03142 c 0,0 0,0 0,0 v 20 c 0,0 0,0 0,0 z"
         stroke-miterlimit="4"
         style="fill:#5d707e;fill-opacity:1;stroke:#000000;stroke-width:0.208;stroke-linecap:round;stroke-linejoin:round;stroke-miterlimit:4;stroke-dasharray:none;stroke-opacity:1" />
      <path
         inkscape:connector-curvature="0"
         id="path3234"
         d="m 208.788,291.03142 c 0,28.59419 -41.28231,51.79515 -92.15628,51.79515 v 20 c 50.87397,0 92.15628,-23.20096 92.15628,-51.79515 z"
         stroke-miterlimit="4"
         style="fill:#5d707e;fill-opacity:1;stroke:#000000;stroke-width:0.208;stroke-linecap:round;stroke-linejoin:round;stroke-miterlimit:4;stroke-dasharray:none;stroke-opacity:1" />
      <path
         inkscape:connector-curvature="0"
         id="path3236"
         d="m 116.63172,342.82657 c -50.873967,0 -92.188853,-23.20096 -92.188853,-51.79515 v 20 c 0,28.59419 41.314886,51.79515 92.188853,51.79515 z"
         stroke-miterlimit="4"
         style="fill:#5d707e;fill-opacity:1;stroke:#000000;stroke-width:0.208;stroke-linecap:round;stroke-linejoin:round;stroke-miterlimit:4;stroke-dasharray:none;stroke-opacity:1" />
      <path
         inkscape:connector-curvature="0"
         d="m 19.38446,291.03173 v 20 c 0,31.35688 43.58773,56.8125 97.25,56.8125 53.66228,0 97.18749,-25.45562 97.1875,-56.8125 v -20 c 0,31.35688 -43.52521,56.8125 -97.1875,56.8125 -53.66228,0 -97.25001,-25.45562 -97.25,-56.8125 z"
         id="path3238"
         stroke-miterlimit="4"
         style="fill:url(#linearGradient3491);fill-opacity:1;stroke:#000000;stroke-width:0.208;stroke-linecap:round;stroke-linejoin:round;stroke-miterlimit:4;stroke-dasharray:none;stroke-opacity:1" />
      <path
         inkscape:connector-curvature="0"
         id="path3240"
         d="m 208.788,291.03142 c 0,28.59419 -41.28231,51.79515 -92.15628,51.79515 -50.873967,0 -98.833079,-23.98361 -92.188853,-51.79515 4.455581,-18.65027 -2.254382,-19.65695 -5.049213,0 0,31.35688 43.575789,56.81179 97.238066,56.81179 53.66228,0 97.20549,-25.45491 97.20549,-56.81179 -0.3578,-19.46627 -6.77396,-14.94652 -5.04921,0 z"
         sodipodi:nodetypes="csscscc"
         stroke-miterlimit="4"
         style="fill:#5d707e;fill-opacity:1;stroke:#000000;stroke-width:0.208;stroke-linecap:round;stroke-linejoin:round;stroke-miterlimit:4;stroke-dasharray:none;stroke-opacity:1" />
    </g>
    <g
       id="g3528"
       transform="matrix(1.0499478,0,0,1.0499478,4.277872,-217.7468)">
      <path
         inkscape:connector-curvature="0"
         d="m 208.788,291.03142 c 0,0 0,0 0,0 v 20 c 0,0 0,0 0,0 z"
         id="path3398"
         stroke-miterlimit="4"
         style="fill:#5d707e;fill-opacity:1;stroke:#000000;stroke-width:0.208;stroke-linecap:round;stroke-linejoin:round;stroke-miterlimit:4;stroke-dasharray:none;stroke-opacity:1" />
      <path
         inkscape:connector-curvature="0"
         d="m 208.788,291.03142 c 0,28.59419 -41.28231,51.79515 -92.15628,51.79515 v 20 c 50.87397,0 92.15628,-23.20096 92.15628,-51.79515 z"
         id="path3400"
         stroke-miterlimit="4"
         style="fill:#5d707e;fill-opacity:1;stroke:#000000;stroke-width:0.208;stroke-linecap:round;stroke-linejoin:round;stroke-miterlimit:4;stroke-dasharray:none;stroke-opacity:1" />
      <path
         inkscape:connector-curvature="0"
         d="m 116.63172,342.82657 c -50.873967,0 -92.188853,-23.20096 -92.188853,-51.79515 v 20 c 0,28.59419 41.314886,51.79515 92.188853,51.79515 z"
         id="path3402"
         stroke-miterlimit="4"
         style="fill:#5d707e;fill-opacity:1;stroke:#000000;stroke-width:0.208;stroke-linecap:round;stroke-linejoin:round;stroke-miterlimit:4;stroke-dasharray:none;stroke-opacity:1" />
      <path
         inkscape:connector-curvature="0"
         id="path3390"
         d="m 19.38446,291.03173 v 20 c 0,31.35688 43.58773,56.8125 97.25,56.8125 53.66228,0 97.18749,-25.45562 97.1875,-56.8125 v -20 c 0,31.35688 -43.52521,56.8125 -97.1875,56.8125 -53.66228,0 -97.25001,-25.45562 -97.25,-56.8125 z"
         stroke-miterlimit="4"
         style="fill:url(#linearGradient3505);fill-opacity:1;stroke:#000000;stroke-width:0.208;stroke-linecap:round;stroke-linejoin:round;stroke-miterlimit:4;stroke-dasharray:none;stroke-opacity:1" />
      <path
         inkscape:connector-curvature="0"
         sodipodi:nodetypes="csscscc"
         d="m 208.788,291.03142 c 0,28.59419 -41.28231,51.79515 -92.15628,51.79515 -50.873967,0 -98.833079,-23.98361 -92.188853,-51.79515 4.455581,-18.65027 -2.254382,-19.65695 -5.049213,0 0,31.35688 43.575789,56.81179 97.238066,56.81179 53.66228,0 97.20549,-25.45491 97.20549,-56.81179 -0.3578,-19.46627 -6.77396,-14.94652 -5.04921,0 z"
         id="path3336"
         stroke-miterlimit="4"
         style="fill:#5d707e;fill-opacity:1;stroke:#000000;stroke-width:0.208;stroke-linecap:round;stroke-linejoin:round;stroke-miterlimit:4;stroke-dasharray:none;stroke-opacity:1" />
    </g>
    <g
       id="g3463"
       transform="matrix(1.0678554,0,0,1.0678554,8.024009,-30.867336)">
      <g
         id="g3249"
         stroke-miterlimit="4"
         style="fill:#5d707e;fill-opacity:1;stroke:#000000;stroke-width:0.30000001;stroke-linecap:round;stroke-linejoin:round;stroke-miterlimit:4;stroke-dasharray:none;stroke-opacity:1">
        <path
           inkscape:connector-curvature="0"
           d="m 111.25,44.75 c -51.478652,0 -93.28125,24.419096 -93.28125,54.5 v 10 c 0,-30.080904 41.802598,-54.5 93.28125,-54.5 z"
           id="path3251"
           stroke-miterlimit="4"
           style="stroke:#000000;stroke-width:0.30000001;stroke-miterlimit:4;stroke-dasharray:none;stroke-opacity:1" />
        <path
           inkscape:connector-curvature="0"
           d="m 204.5,99.25 c 0,-30.080901 -41.77134,-54.5 -93.25,-54.5 v 10 c 51.47866,0 93.25,24.419099 93.25,54.5 z"
           id="path3257"
           stroke-miterlimit="4"
           style="stroke:#000000;stroke-width:0.30000001;stroke-miterlimit:4;stroke-dasharray:none;stroke-opacity:1" />
        <path
           inkscape:connector-curvature="0"
           d="m 111.25,49.5625 c -48.803799,0 -88.437499,22.256877 -88.4375,49.6875 v 10 c 1e-6,-27.430623 39.633701,-49.6875 88.4375,-49.6875 48.8038,10e-7 88.40625,22.256875 88.40625,49.6875 v -10 c 0,-27.430625 -39.60245,-49.687499 -88.40625,-49.6875 z"
           id="path3259"
           stroke-miterlimit="4"
           style="fill:url(#linearGradient3507);fill-opacity:1;stroke:#000000;stroke-width:0.30000001;stroke-miterlimit:4;stroke-dasharray:none;stroke-opacity:1" />
        <path
           inkscape:connector-curvature="0"
           d="m 199.65625,99.25 c 0,27.43063 -39.60245,49.6875 -88.40625,49.6875 v 10 c 48.8038,0 88.40625,-22.25687 88.40625,-49.6875 z"
           id="path3261"
           stroke-miterlimit="4"
           style="stroke:#000000;stroke-width:0.30000001;stroke-miterlimit:4;stroke-dasharray:none;stroke-opacity:1" />
        <path
           inkscape:connector-curvature="0"
           d="m 111.25,148.9375 c -48.803801,0 -88.4375,-22.25687 -88.4375,-49.6875 v 10 c 0,27.43063 39.633699,49.6875 88.4375,49.6875 z"
           id="path3263"
           stroke-miterlimit="4"
           style="stroke:#000000;stroke-width:0.30000001;stroke-miterlimit:4;stroke-dasharray:none;stroke-opacity:1" />
        <path
           inkscape:connector-curvature="0"
           d="m 17.96875,99.25 v 10 c 0,30.0809 41.802601,54.5 93.28125,54.5 51.47865,0 93.25,-24.4191 93.25,-54.5 v -10 c 0,30.0809 -41.77135,54.5 -93.25,54.5 -51.478649,0 -93.28125,-24.4191 -93.28125,-54.5 z"
           id="path3253"
           stroke-miterlimit="4"
           style="fill:url(#linearGradient3509);fill-opacity:1;stroke:#000000;stroke-width:0.30000001;stroke-miterlimit:4;stroke-dasharray:none;stroke-opacity:1" />
      </g>
      <path
         inkscape:connector-curvature="0"
         d="m 111.25,44.75 c -51.478652,0 -93.28125,24.419096 -93.28125,54.5 0,30.0809 41.802601,54.5 93.28125,54.5 51.47865,0 93.25,-24.4191 93.25,-54.5 0,-30.080901 -41.77134,-54.5 -93.25,-54.5 z m 0,4.8125 c 48.8038,10e-7 88.40625,22.256875 88.40625,49.6875 0,27.43063 -39.60245,49.6875 -88.40625,49.6875 -48.803801,0 -88.4375,-22.25687 -88.4375,-49.6875 1e-6,-27.430623 39.633701,-49.6875 88.4375,-49.6875 z"
         id="path3212"
         stroke-miterlimit="4"
         style="fill:#5d707e;fill-opacity:1;stroke:#000000;stroke-width:0.2;stroke-linecap:round;stroke-linejoin:round;stroke-miterlimit:4;stroke-dasharray:none;stroke-opacity:1" />
    </g>
    <path
       inkscape:connector-curvature="0"
       d="m 55.687858,135.93266 2.563358,0.92656 v 7.52087 l 3.843643,1.46706 v 2.90175 l -6.252575,-2.54803 m 8.081869,-5.65784 2.486146,1.00378 v 9.72771 l -2.486146,-0.77212 m 4.58592,-6.40644 2.84492,0.84934 3.320319,7.17927 v -6.40714 l 2.283792,0.69492 -0.231638,9.95935 -2.458857,-0.6177 -3.320318,-7.87418 v 6.40713 l -2.129367,-0.69492 m 10.776929,-5.78873 2.331719,0.54049 v 3.56022 l 3.476743,0.84934 v -3.56022 l 2.177293,0.77214 0.07721,9.65049 -2.254506,-0.6177 v -4.42393 l -3.476743,-0.84934 -0.07721,4.65557 -2.331719,-0.69492 m 14.769823,-5.77266 c -0.734155,0 -1.303539,0.27114 -1.708151,0.81341 -0.40462,0.54226 -0.606928,1.30562 -0.606925,2.29004 -3e-6,0.98026 0.202305,1.74153 0.606925,2.28379 0.404612,0.54227 0.973996,0.81341 1.708151,0.81341 0.738316,0 1.309786,-0.27114 1.714409,-0.81341 0.404609,-0.54226 0.606918,-1.30353 0.606926,-2.28379 -8e-6,-0.98442 -0.202317,-1.74778 -0.606926,-2.29004 -0.404623,-0.54227 -0.976093,-0.81341 -1.714409,-0.81341 m 0,-1.7457 c 1.501665,1e-5 2.677973,0.42965 3.528929,1.28893 0.850938,0.85931 1.276409,2.04604 1.276419,3.56022 -1e-5,1.51001 -0.425481,2.69467 -1.276419,3.55395 -0.850956,0.8593 -2.027264,1.28894 -3.528929,1.28894 -1.497504,0 -2.673812,-0.42964 -3.528928,-1.28894 -0.850948,-0.85928 -1.276421,-2.04394 -1.276421,-3.55395 0,-1.51418 0.425473,-2.70091 1.276421,-3.56022 0.855116,-0.85928 2.031424,-1.28892 3.528928,-1.28893 m 6.737057,1.34083 h 6.50099 v 1.82078 h -4.09205 v 1.73944 h 3.84803 v 1.82078 h -3.84803 v 3.96065 h -2.40894 v -9.34165 m 12.10097,1.2891 h 8.60959 v 1.82077 h -3.0972 v 7.52088 h -2.40893 v -7.52088 h -3.10346 v -1.82077 m 9.96566,-0.23682 h 6.50098 v 1.82078 h -4.09205 v 1.73944 h 3.84803 v 1.82078 h -3.84803 v 2.13987 h 4.2297 v 1.82078 h -6.63863 v -9.34165 m 16.2509,8.41405 c -0.44217,0.22943 -0.9031,0.40254 -1.38279,0.51933 -0.4797,0.1168 -0.98026,0.17519 -1.50167,0.17519 -1.5559,0 -2.78852,-0.43382 -3.69787,-1.30145 -0.90934,-0.8718 -1.36401,-2.05228 -1.36401,-3.54144 0,-1.49333 0.45467,-2.6738 1.36401,-3.54144 0.90935,-0.8718 2.14197,-1.3077 3.69787,-1.30771 0.52141,1e-5 1.02197,0.0584 1.50167,0.17519 0.47969,0.11682 0.94062,0.28993 1.38279,0.51933 v 1.93341 c -0.44633,-0.3045 -0.88641,-0.52767 -1.32022,-0.66949 -0.43382,-0.14182 -0.89058,-0.21274 -1.37028,-0.21274 -0.85929,0 -1.53504,0.27531 -2.02725,0.82591 -0.49222,0.55062 -0.73833,1.3098 -0.73832,2.27754 -1e-5,0.96357 0.2461,1.72067 0.73832,2.27128 0.49221,0.55062 1.16796,0.82592 2.02725,0.82592 0.4797,0 0.93646,-0.0709 1.37028,-0.21274 0.43381,-0.14182 0.87389,-0.36499 1.32022,-0.66949 v 1.9334 m 2.16804,-9.16022 h 2.40894 v 3.56022 h 3.55396 v -3.56022 h 2.40893 v 9.34166 h -2.40893 v -3.96066 h -3.55396 v 3.96066 h -2.40894 v -9.34166 m 10.48823,-0.65817 2.6905,-0.58545 3.39753,6.40713 0.23418,-6.7584 2.1667,-0.46835 -0.11709,10.16127 -2.69049,0.35127 -3.39754,-6.7584 v 7.34384 l -2.28379,0.46836 m 10.65405,-11.95107 2.40893,-0.70253 0.11709,10.39545 -2.7602,0.81964 m 5.22904,-11.75618 2.52603,-0.70254 v 3.41005 l 3.47261,-4.58094 2.54814,-0.66836 -4.25004,6.26293 4.04979,4.58634 -2.10387,0.33164 -3.71663,-3.6791 0.11709,4.61581 -2.29185,0.81963 m 15.09162,-7.90086 -3.75089,1.71684 -0.009,2.40443 -2.96325,1.30253 3.18228,-12.51761 3.09033,-0.54595 3.69428,8.52203 -2.65563,0.81963 -0.58815,-1.7019 m -3.3844,-0.36762 2.77747,-1.36556 -1.27642,-3.71663"
       id="text2440"
       sodipodi:nodetypes="cccccccccccccccccccccccccccccccccsssssssccssssssscccccccccccccccccccccccccccccccccccsssssssccssssssscccccccccccccccccccccccccccccccccccccccccccccccccccc"
       font-style="normal"
       font-weight="bold"
       font-size="12"
       style="font-style:normal;font-weight:bold;font-size:12px;font-family:'Bitstream Vera Sans';fill:#777777;fill-opacity:1;stroke:none;stroke-width:1;stroke-linecap:butt;stroke-linejoin:miter;stroke-opacity:1" />
    <path
       inkscape:connector-curvature="0"
       id="path3168"
       d="M 211.45235,80.745699 A 90.538504,48.430733 0 0 1 120.91386,129.17643 90.538504,48.430733 0 0 1 30.375336,80.745699 90.538504,48.430733 0 0 1 120.91386,32.314971 90.538504,48.430733 0 0 1 211.45235,80.745699 Z"
       stroke-miterlimit="4"
       style="fill:url(#radialGradient1195);fill-opacity:1;stroke:none;stroke-width:2.04676151;stroke-linecap:round;stroke-linejoin:round;stroke-miterlimit:4;stroke-dasharray:none;stroke-opacity:1" />
    <ellipse
       ry="19.690001"
       rx="38.492001"
       cy="67.885056"
       cx="78.446159"
       id="path3220"
       stroke-miterlimit="4"
       style="opacity:0.5;fill:url(#radialGradient3511);fill-opacity:1;stroke:none;stroke-width:0.31999999;stroke-linecap:round;stroke-linejoin:round;stroke-miterlimit:4;stroke-dasharray:none;stroke-opacity:1" />
    <path
       d="m 194.27117,50.156055 c 34.46207,20.734256 34.58383,43.144287 -6.17222,67.012635 22.84362,-25.922723 19.12348,-47.315111 6.17222,-67.012635 z"
       id="path985"
       inkscape:connector-curvature="0"
       sodipodi:nodetypes="ccc"
       style="fill:url(#linearGradient993);fill-opacity:1;stroke:none;stroke-width:1;stroke-linecap:butt;stroke-linejoin:miter;stroke-opacity:1" />
    <path
       style="fill:url(#radialGradient950);fill-opacity:1;stroke:none;stroke-width:1.40215302;stroke-linecap:round;stroke-linejoin:round;stroke-miterlimit:4;stroke-dasharray:none;stroke-opacity:1"
       stroke-miterlimit="4"
       d="M 186.41285,94.569717 A 61.000043,33.73498 0 0 1 125.41282,128.30469 61.000043,33.73498 0 0 1 64.412766,94.569717 61.000043,33.73498 0 0 1 125.41282,60.834738 61.000043,33.73498 0 0 1 186.41285,94.569717 Z"
       id="path947"
       inkscape:connector-curvature="0" />
  </g>
</svg>
