<?xml version="1.0" encoding="UTF-8" standalone="no"?>
<svg xmlns="http://www.w3.org/2000/svg" xmlns:xlink="http://www.w3.org/1999/xlink" width="48" height="48">
  <defs>
    <linearGradient id="b">
      <stop offset="0" stop-color="#fff" stop-opacity=".86178863"/>
      <stop offset=".19600193" stop-color="#f3ffff" stop-opacity=".56078431"/>
      <stop offset="1" stop-color="#e8ffff" stop-opacity="0"/>
    </linearGradient>
    <linearGradient id="a">
      <stop offset="0" stop-color="#fff" stop-opacity=".86178863"/>
      <stop offset=".08275343" stop-color="#f3ffff" stop-opacity=".56078431"/>
      <stop offset="1" stop-color="#e8ffff" stop-opacity="0"/>
    </linearGradient>
    <linearGradient id="c">
      <stop offset="0" stop-color="#ffd536"/>
      <stop offset="1" stop-color="#e84b01"/>
    </linearGradient>
    <linearGradient xlink:href="#a" id="f" x1="202.15273" x2="202.91524" y1="4.5639811" y2="106.53008" gradientUnits="userSpaceOnUse"/>
    <linearGradient xlink:href="#b" id="g" x1="200.47447" x2="200.2034" y1="118.72263" y2="99.468399" gradientUnits="userSpaceOnUse"/>
    <radialGradient xlink:href="#c" id="e" cx="202.64406" cy="119.64819" r="58.283894" fx="202.64406" fy="119.64819" gradientTransform="matrix(2.29677 0 0 2.30746 -262.78274 -156.16707)" gradientUnits="userSpaceOnUse"/>
    <filter id="d">
      <feGaussianBlur stdDeviation="1.7451563"/>
    </filter>
  </defs>
  <g transform="translate(-53.74376 -.12392875) scale(.38119)">
    <path fill="#4d4d4d" d="M165.32349 4.8676168c-10.66685 0-19.25 8.6144022-19.25 19.2812502v78.093753c0 10.66685 8.58315 19.25 19.25 19.25h77.5625c10.66685 0 19.25-8.58315 19.25-19.25V24.148867c0-10.666848-8.58315-19.2812502-19.25-19.2812502h-77.5625zm39.46875 20.7812502c12.2695-.172669 20.59375 6.754443 20.59375 14.75v16.9375c6.23729 0 8.9375.296097 8.9375 4.6875v34.093754c.0714 5.040209-5.15625 4.343749-5.15625 4.343749l-50.6875.28125c-4.76903-.21901-4.625-5.156249-4.625-5.156249l.34375-33.562504c-.30973-4.577269 5.60964-4.666313 9.40625-4.9375v-16.6875c0-8.784241 8.91801-14.577331 21.1875-14.75zm0 7.25c-4.38408-.05993-11.40625 2.359449-11.40625 7.5 0 6.779661.28125 16.9375.28125 16.9375h21.40625l.28125-16.9375c0-4.400643-6.69419-7.44712-10.5625-7.5z" filter="url(#d)"/>
    <path fill="#bb5200" d="M232.81356 59.79661c.0678-2.779661-2.16102-3.694915-4.40678-3.915254-2.24576-.220339-4.47043.254237-4.47043.254237v1.690678c3.69165 0 7.8031-.09164 8.87721 1.970339z"/>
    <rect width="21.57275" height="1.5340621" x="192.14128" y="56.282593" fill="#bb5200" rx="0" ry="0"/>
    <path fill="#bb5200" d="M182.16988 38.251739c-.19176-18.408746 42.05189-19.75741 41.83167.119481-6.43064-15.343618-32.8213-18.305009-41.83167-.119481zm-9.37002 21.544871c-.0678-2.779661 2.16102-3.694915 4.40678-3.915254 2.24576-.220339 4.94552-.110365 4.94552-.110365v2.05528c-3.69165 0-8.27819-.09164-9.3523 1.970339z"/>
    <path fill="url(#e)" d="M163.875 3.78125c-10.66685 0-19.25 8.614402-19.25 19.28125v78.09375c0 10.66685 8.58315 19.25 19.25 19.25h77.5625c10.66685 0 19.25-8.58315 19.25-19.25V23.0625c0-10.666848-8.58315-19.28125-19.25-19.28125H163.875zm39.46875 20.78125c12.2695-.172669 20.59375 6.754443 20.59375 14.75V56.25c6.23729 0 8.9375.296097 8.9375 4.6875v34.09375c.0714 5.04021-5.15625 4.34375-5.15625 4.34375l-50.6875.28125c-4.76903-.21901-4.625-5.15625-4.625-5.15625l.34375-33.5625c-.30973-4.577269 5.60964-4.666313 9.40625-4.9375V39.3125c0-8.784241 8.91801-14.577331 21.1875-14.75zm0 7.25c-4.38408-.05993-11.40625 2.359449-11.40625 7.5 0 6.779661.28125 16.9375.28125 16.9375H213.625l.28125-16.9375c0-4.400643-6.69419-7.44712-10.5625-7.5z"/>
    <path fill="url(#f)" d="M164.59375 4.875c-10.46747 0-18.90625 8.438782-18.90625 18.90625 0 0 13.28814 29.198623 0 76.65625-2.18709 9.51273 12.22286 7.45676 31.4375-.78125h-.0937c-4.76908-.21901-4.62505-5.15625-4.62505-5.15625l.34375-33.5625c-.30973-4.577269 5.60964-4.666313 9.40625-4.9375V39.3125c0-8.784241 8.91801-14.577331 21.1875-14.75 12.2695-.172669 20.59375 6.754443 20.59375 14.75V56.25c6.23729 0 8.9375.296097 8.9375 4.6875v4.6875c14.68706-12.188574 25.61776-25.290254 26.71875-36.53125v-5.3125c0-10.467468-8.43878-18.90625-18.90625-18.90625h-76.09375zm38.75 26.9375c-4.38408-.05993-11.40625 2.359449-11.40625 7.5 0 6.779661.28125 16.9375.28125 16.9375H213.625l.28125-16.9375c0-4.400643-6.69419-7.44712-10.5625-7.5z"/>
    <path fill="url(#g)" d="M258.50848 99.692693c0 10.268087-8.26637 18.534457-18.53446 18.534457h-74.6599c-10.26809 0-18.53446-8.26637-18.53446-18.534457-.12623 18.270907 111.72882 18.908307 111.72882 0z"/>
  </g>
</svg>