<?xml version="1.0" encoding="UTF-8" standalone="no"?>
<!DOCTYPE svg PUBLIC "-//W3C//DTD SVG 1.1//EN" 
  "http://www.w3.org/Graphics/SVG/1.1/DTD/svg11.dtd">
<svg xmlns="http://www.w3.org/2000/svg" xmlns:xlink="http://www.w3.org/1999/xlink" width="140" height="127">
  <linearGradient id="d">
    <stop offset="0" stop-color="#fff"/>
    <stop offset="1" stop-color="#fff" stop-opacity="0"/>
  </linearGradient>
  <linearGradient id="c">
    <stop offset="0" stop-color="#2e2e2e"/>
    <stop offset="1" stop-opacity="0"/>
  </linearGradient>
  <linearGradient id="a">
    <stop offset="0" stop-color="#6a7390"/>
    <stop offset="1" stop-color="#eaebef"/>
  </linearGradient>
  <linearGradient id="b">
    <stop offset="0" stop-color="#fff" stop-opacity=".787"/>
    <stop offset="1" stop-color="#fff" stop-opacity="0"/>
  </linearGradient>
  <linearGradient id="n" x1="22.255" x2="47.684" y1="20.279" y2="76.065" gradientUnits="userSpaceOnUse" xlink:href="#a"/>
  <linearGradient id="o" x1="42.324" x2="53.754" y1="24.919" y2="78.562" gradientUnits="userSpaceOnUse" xlink:href="#a"/>
  <filter id="e">
    <feGaussianBlur stdDeviation="3.109"/>
  </filter>
  <linearGradient id="p" x1="2.78" x2="2.78" y1="38.831" y2="72.181" gradientUnits="userSpaceOnUse" xlink:href="#a"/>
  <linearGradient id="q" x1="2.78" x2="2.78" y1="32.759" y2="41.467" gradientUnits="userSpaceOnUse" xlink:href="#b"/>
  <linearGradient id="r" x1="90.28" x2="90.28" y1="39.745" y2="49.209" gradientUnits="userSpaceOnUse" xlink:href="#c"/>
  <linearGradient id="t" x1="130.164" x2="5.641" y1="3.246" y2="3.246" gradientUnits="userSpaceOnUse" xlink:href="#d"/>
  <linearGradient id="f" x1="327.143" x2="327.143" y1="571.291" y2="481.291" gradientUnits="userSpaceOnUse" xlink:href="#a"/>
  <linearGradient id="g" x1="89.348" x2="106.607" y1="74.231" y2="112.096" gradientUnits="userSpaceOnUse" xlink:href="#a"/>
  <linearGradient id="h" x1="102.971" x2="110.729" y1="77.383" y2="113.793" gradientUnits="userSpaceOnUse" xlink:href="#a"/>
  <linearGradient id="i" x1="76.127" x2="76.127" y1="86.818" y2="109.454" gradientUnits="userSpaceOnUse" xlink:href="#a"/>
  <linearGradient id="j" x1="76.127" x2="76.127" y1="82.697" y2="88.607" gradientUnits="userSpaceOnUse" xlink:href="#b"/>
  <linearGradient id="k" x1="135.518" x2="135.518" y1="87.441" y2="93.865" gradientUnits="userSpaceOnUse" xlink:href="#c"/>
  <linearGradient id="m" x1="162.591" x2="78.071" y1="62.671" y2="62.671" gradientUnits="userSpaceOnUse" xlink:href="#d"/>
  <filter id="s" width="1.168" height="1.168" x="-.084" y="-.084" color-interpolation-filters="sRGB">
    <feGaussianBlur stdDeviation=".663"/>
  </filter>
  <filter id="l" width="1.168" height="1.168" x="-.084" y="-.084" color-interpolation-filters="sRGB">
    <feGaussianBlur stdDeviation=".45"/>
  </filter>
  <path d="m369.22 481.719-2.157 6.594v.187c-3.346.438-6.549 1.281-9.563 2.531l-.062-.125-5.188-4.656-4.875 2.813 1.407 6.812.093.156a38.228 38.228 0 0 0 -6.968 7l-.157-.094-6.812-1.437-2.813 4.875 4.625 5.188.157.062a37.825 37.825 0 0 0 -2.563 9.563h-.156l-6.625 2.156v5.656l6.625 2.156h.156a37.688 37.688 0 0 0 2.563 9.563l-.157.093-4.625 5.157 2.813 4.906 6.812-1.438.125-.093a38.25 38.25 0 0 0 7 7l-.093.156-1.407 6.781 4.875 2.813 5.188-4.625.094-.157a37.685 37.685 0 0 0 9.53 2.563v.188l2.157 6.593h5.656l2.157-6.593v-.188a37.685 37.685 0 0 0 9.53-2.563l.095.157 5.187 4.625 4.875-2.813-1.406-6.781-.094-.156a38.25 38.25 0 0 0 7-7l.125.093 6.813 1.438 2.812-4.906-4.625-5.157-.156-.093a37.688 37.688 0 0 0 2.562-9.563h.157l6.625-2.156v-5.656l-6.625-2.157h-.157a37.825 37.825 0 0 0 -2.562-9.562l.156-.063 4.625-5.187-2.812-4.875-6.813 1.438-.156.093a38.228 38.228 0 0 0 -6.969-7l.094-.156 1.406-6.813-4.875-2.812-5.187 4.656-.063.125c-3.014-1.25-6.217-2.093-9.562-2.531v-.188l-2.157-6.593h-5.656zm2.843 10.719c18.63 0 33.75 15.12 33.75 33.75s-15.12 33.75-33.75 33.75-33.75-15.12-33.75-33.75 15.12-33.75 33.75-33.75z" filter="url(#e)" transform="matrix(.67875 0 0 .67875 -145.919 -264.005)"/>
  <path fill="url(#f)" d="m369.22 481.719-2.157 6.594v.187c-3.346.438-6.549 1.281-9.563 2.531l-.062-.125-5.188-4.656-4.875 2.813 1.407 6.812.093.156a38.228 38.228 0 0 0 -6.968 7l-.157-.094-6.812-1.437-2.813 4.875 4.625 5.188.157.062a37.825 37.825 0 0 0 -2.563 9.563h-.156l-6.625 2.156v5.656l6.625 2.156h.156a37.688 37.688 0 0 0 2.563 9.563l-.157.093-4.625 5.157 2.813 4.906 6.812-1.438.125-.093a38.25 38.25 0 0 0 7 7l-.093.156-1.407 6.781 4.875 2.813 5.188-4.625.094-.157a37.685 37.685 0 0 0 9.53 2.563v.188l2.157 6.593h5.656l2.157-6.593v-.188a37.685 37.685 0 0 0 9.53-2.563l.095.157 5.187 4.625 4.875-2.813-1.406-6.781-.094-.156a38.25 38.25 0 0 0 7-7l.125.093 6.813 1.438 2.812-4.906-4.625-5.157-.156-.093a37.688 37.688 0 0 0 2.562-9.563h.157l6.625-2.156v-5.656l-6.625-2.157h-.157a37.825 37.825 0 0 0 -2.562-9.562l.156-.063 4.625-5.187-2.812-4.875-6.813 1.438-.156.093a38.228 38.228 0 0 0 -6.969-7l.094-.156 1.406-6.813-4.875-2.812-5.187 4.656-.063.125c-3.014-1.25-6.217-2.093-9.562-2.531v-.188l-2.157-6.593h-5.656zm2.843 10.719c18.63 0 33.75 15.12 33.75 33.75s-15.12 33.75-33.75 33.75-33.75-15.12-33.75-33.75 15.12-33.75 33.75-33.75z" transform="matrix(.67875 0 0 .67875 -145.919 -264.005)"/>
  <path fill="url(#g)" d="m107.2832 70a23.149942 23.149942 0 0 0 -23.826169 23.138672 23.15039 23.15039 0 1 0 46.300779 0 23.149942 23.149942 0 0 0 -22.47461-23.138672zm-.48828 16.710938a6.43 6.43 0 0 1 6.24219 6.427734 6.43 6.43 0 1 1 -12.85938 0 6.43 6.43 0 0 1 6.61719-6.427734z"/>
  <path fill="url(#h)" d="m107.20508 72.664062a20.483472 20.483472 0 0 0 -21.08008 20.47461 20.483472 20.483472 0 0 0 40.9668 0 20.483472 20.483472 0 0 0 -19.88672-20.47461zm-.41016 14.046876a6.43 6.43 0 0 1 6.24219 6.427734 6.43 6.43 0 1 1 -12.85938 0 6.43 6.43 0 0 1 6.61719-6.427734z"/>
  <path fill="url(#i)" d="m106.88477 83.564453a9.5749164 9.5749164 0 0 0 -9.85352 9.570313 9.5749164 9.5749164 0 0 0 19.14844 0 9.5749164 9.5749164 0 0 0 -9.29492-9.570313zm-.0898 3.146485a6.43 6.43 0 0 1 6.24219 6.427734 6.43 6.43 0 1 1 -12.85938 0 6.43 6.43 0 0 1 6.61719-6.427734z"/>
  <path fill="url(#j)" d="m106.88477 83.564453a9.5749164 9.5749164 0 0 0 -9.85352 9.570313 9.5749164 9.5749164 0 0 0 19.14844 0 9.5749164 9.5749164 0 0 0 -9.29492-9.570313zm-.0898 3.146485a6.43 6.43 0 0 1 6.24219 6.427734 6.43 6.43 0 1 1 -12.85938 0 6.43 6.43 0 0 1 6.61719-6.427734z"/>
  <path fill="url(#k)" d="m106.60547 86.708984c-3.54894 0-6.42774 2.878794-6.42774 6.427735s2.8788 6.429687 6.42774 6.429687 6.42969-2.880746 6.42969-6.429687-2.88075-6.427735-6.42969-6.427735zm0 2.908204c2.77663 0 5.14405 1.763568 6.04297 4.230468l-11.98828-.251953c.96401-2.334566 3.26381-3.978515 5.94531-3.978515z" filter="url(#l)" opacity=".65"/>
  <path fill="url(#m)" d="m104.6875 62.960938-1.46289 4.476562v.126953c-2.2711.297293-4.445161.870313-6.490235 1.71875l-.042969-.085937-3.521484-3.160157-3.308594 1.910157.955078 4.623046.064453.105469a25.947255 25.947255 0 0 0 -4.730468 4.751953l-.107422-.064453-4.623047-.974609-1.908203 3.308594 3.138672 3.521484.105468.041016a25.507425 25.507425 0 0 0 -1.740234 6.492187h-.105469l-4.496094 1.462891v3.839844l4.496094 1.46289h.107422a25.58073 25.58073 0 0 0 1.738281 6.490232l-.021484.02149c4.163453.38553 8.616963.39526 13.279297-.02149 14.342668-1.28284 27.536998-6.323285 36.566408-13.171872l-.27539-.085938h-.10547a25.673719 25.673719 0 0 0 -1.74024-6.490234l.10743-.042969 3.13867-3.519531-1.91016-3.308594-4.62304.974609-.10547.064453a25.947255 25.947255 0 0 0 -4.73047-4.751953l.0625-.105469.95508-4.625-3.3086-1.908203-3.52148 3.160157-.04102.085937c-2.04575-.848437-4.22109-1.421457-6.49219-1.71875v-.126953l-1.46289-4.476562zm2.10742 23.75a6.43 6.43 0 0 1 6.24219 6.427734 6.43 6.43 0 1 1 -12.85938 0 6.43 6.43 0 0 1 6.61719-6.427734z"/>
  <path d="m369.22 481.719-2.157 6.594v.187c-3.346.438-6.549 1.281-9.563 2.531l-.062-.125-5.188-4.656-4.875 2.813 1.407 6.812.093.156a38.228 38.228 0 0 0 -6.968 7l-.157-.094-6.812-1.437-2.813 4.875 4.625 5.188.157.062a37.825 37.825 0 0 0 -2.563 9.563h-.156l-6.625 2.156v5.656l6.625 2.156h.156a37.688 37.688 0 0 0 2.563 9.563l-.157.093-4.625 5.157 2.813 4.906 6.812-1.438.125-.093a38.25 38.25 0 0 0 7 7l-.093.156-1.407 6.781 4.875 2.813 5.188-4.625.094-.157a37.685 37.685 0 0 0 9.53 2.563v.188l2.157 6.593h5.656l2.157-6.593v-.188a37.685 37.685 0 0 0 9.53-2.563l.095.157 5.187 4.625 4.875-2.813-1.406-6.781-.094-.156a38.25 38.25 0 0 0 7-7l.125.093 6.813 1.438 2.812-4.906-4.625-5.157-.156-.093a37.688 37.688 0 0 0 2.562-9.563h.157l6.625-2.156v-5.656l-6.625-2.157h-.157a37.825 37.825 0 0 0 -2.562-9.562l.156-.063 4.625-5.187-2.812-4.875-6.813 1.438-.156.093a38.228 38.228 0 0 0 -6.969-7l.094-.156 1.406-6.813-4.875-2.812-5.187 4.656-.063.125c-3.014-1.25-6.217-2.093-9.562-2.531v-.188l-2.157-6.593h-5.656zm2.843 10.719c18.63 0 33.75 15.12 33.75 33.75s-15.12 33.75-33.75 33.75-33.75-15.12-33.75-33.75 15.12-33.75 33.75-33.75z" filter="url(#e)" transform="translate(-324.363 -478.045)"/>
  <path fill="url(#f)" d="m369.22 481.719-2.157 6.594v.187c-3.346.438-6.549 1.281-9.563 2.531l-.062-.125-5.188-4.656-4.875 2.813 1.407 6.812.093.156a38.228 38.228 0 0 0 -6.968 7l-.157-.094-6.812-1.437-2.813 4.875 4.625 5.188.157.062a37.825 37.825 0 0 0 -2.563 9.563h-.156l-6.625 2.156v5.656l6.625 2.156h.156a37.688 37.688 0 0 0 2.563 9.563l-.157.093-4.625 5.157 2.813 4.906 6.812-1.438.125-.093a38.25 38.25 0 0 0 7 7l-.093.156-1.407 6.781 4.875 2.813 5.188-4.625.094-.157a37.685 37.685 0 0 0 9.53 2.563v.188l2.157 6.593h5.656l2.157-6.593v-.188a37.685 37.685 0 0 0 9.53-2.563l.095.157 5.187 4.625 4.875-2.813-1.406-6.781-.094-.156a38.25 38.25 0 0 0 7-7l.125.093 6.813 1.438 2.812-4.906-4.625-5.157-.156-.093a37.688 37.688 0 0 0 2.562-9.563h.157l6.625-2.156v-5.656l-6.625-2.157h-.157a37.825 37.825 0 0 0 -2.562-9.562l.156-.063 4.625-5.187-2.812-4.875-6.813 1.438-.156.093a38.228 38.228 0 0 0 -6.969-7l.094-.156 1.406-6.813-4.875-2.812-5.187 4.656-.063.125c-3.014-1.25-6.217-2.093-9.562-2.531v-.188l-2.157-6.593h-5.656zm2.843 10.719c18.63 0 33.75 15.12 33.75 33.75s-15.12 33.75-33.75 33.75-33.75-15.12-33.75-33.75 15.12-33.75 33.75-33.75z" transform="translate(-324.363 -478.045)"/>
  <path fill="url(#n)" d="m48.679688 14.042969a34.106764 34.106764 0 0 0 -35.103516 34.091797 34.107422 34.107422 0 0 0 68.214844 0 34.106764 34.106764 0 0 0 -33.111328-34.091797zm-.71875 24.625a9.4725 9.4725 0 0 1 9.195312 9.46875 9.472656 9.472656 0 1 1 -18.945312 0 9.4725 9.4725 0 0 1 9.75-9.46875z"/>
  <path fill="url(#o)" d="m48.5625 17.96875a30.178109 30.178109 0 0 0 -31.058594 30.164062 30.178109 30.178109 0 1 0 60.355469 0 30.178109 30.178109 0 0 0 -29.296875-30.164062zm-.601562 20.699219a9.4725 9.4725 0 0 1 9.195312 9.46875 9.472656 9.472656 0 1 1 -18.945312 0 9.4725 9.4725 0 0 1 9.75-9.46875z"/>
  <path fill="url(#p)" d="m48.097656 34.037109a14.107026 14.107026 0 0 0 -14.519531 14.09961 14.107026 14.107026 0 1 0 28.212891 0 14.107026 14.107026 0 0 0 -13.69336-14.09961zm-.136718 4.63086a9.4725 9.4725 0 0 1 9.195312 9.46875 9.472656 9.472656 0 1 1 -18.945312 0 9.4725 9.4725 0 0 1 9.75-9.46875z"/>
  <path fill="url(#q)" d="m48.097656 34.037109a14.107026 14.107026 0 0 0 -14.519531 14.09961 14.107026 14.107026 0 1 0 28.212891 0 14.107026 14.107026 0 0 0 -13.69336-14.09961zm-.136718 4.63086a9.4725 9.4725 0 0 1 9.195312 9.46875 9.472656 9.472656 0 1 1 -18.945312 0 9.4725 9.4725 0 0 1 9.75-9.46875z"/>
  <path fill="url(#r)" d="m47.685547 38.666016c-5.228749 0-9.472656 4.241954-9.472656 9.470703s4.243907 9.472656 9.472656 9.472656 9.470703-4.243907 9.470703-9.472656-4.241954-9.470703-9.470703-9.470703zm0 4.285156c4.090888 0 7.577943 2.597872 8.902344 6.232422l-17.66211-.371094c1.420306-3.439578 4.809046-5.861328 8.759766-5.861328z" filter="url(#s)" opacity=".65"/>
  <path fill="url(#t)" d="m44.855469 3.6738281-2.15625 6.5937499v.1875c-3.346.438-6.5495 1.28125-9.5625 2.53125l-.0625-.125-5.1875-4.6562499-4.875 2.8124999 1.40625 6.8125.09375.15625a38.228 38.228 0 0 0 -6.96875 7l-.15625-.09375-6.8125-1.4375-2.8125002 4.875 4.6250002 5.1875.15625.0625a37.58 37.58 0 0 0 -2.5625002 9.5625h-.15625l-6.625 2.15625v5.65625l6.625 2.15625h.15625a37.688 37.688 0 0 0 2.5625002 9.5625l-.03125.03125c6.134.568 12.6935.58275 19.5625-.03125 21.131-1.89 40.572-9.31625 53.875-19.40625l-.40625-.125h-.15625a37.825 37.825 0 0 0 -2.5625-9.5625l.15625-.0625 4.625-5.1875-2.8125-4.875-6.8125 1.4375-.15625.09375a38.228 38.228 0 0 0 -6.96875-7l.09375-.15625 1.40625-6.8125-4.875-2.8124999-5.1875 4.6562499-.0625.125c-3.014-1.25-6.2165-2.09325-9.5625-2.53125v-.1875l-2.15625-6.5937499zm3.105469 34.9941409a9.4725 9.4725 0 0 1 9.195312 9.46875 9.4725 9.4725 0 1 1 -18.945312 0 9.4725 9.4725 0 0 1 9.75-9.46875z"/>
</svg>
