<?xml version="1.0" encoding="UTF-8" standalone="no"?>
<svg xmlns="http://www.w3.org/2000/svg" xmlns:xlink="http://www.w3.org/1999/xlink" width="744.094" height="678.75">
  <linearGradient id="a">
    <stop offset="0" stop-color="#fd7702"/>
    <stop offset="1" stop-color="#fdffb1"/>
  </linearGradient>
  <linearGradient id="b" x1="524.192" x2="324.966" y1="349.175" y2="543.612" gradientUnits="userSpaceOnUse" xlink:href="#a"/>
  <linearGradient id="c" x1="218.713" x2="359.831" y1="428.391" y2="321.675" gradientUnits="userSpaceOnUse" xlink:href="#a"/>
  <linearGradient id="d" x1="588.94" x2="449.482" y1="460.797" y2="599.423" gradientUnits="userSpaceOnUse">
    <stop offset="0" stop-color="#fd7702"/>
    <stop offset="1" stop-color="#fde895"/>
  </linearGradient>
  <linearGradient id="e" x1="250.257" x2="182.188" y1="469.798" y2="570.618" gradientUnits="userSpaceOnUse" xlink:href="#a"/>
  <linearGradient id="f" x1="485.326" x2="271.021" y1="172.729" y2="503.718" gradientUnits="userSpaceOnUse">
    <stop offset="0" stop-color="#d64b00"/>
    <stop offset="1" stop-color="#f99000"/>
  </linearGradient>
  <linearGradient id="g" x1="321.345" x2="494.007" y1="547.528" y2="282.878" gradientUnits="userSpaceOnUse">
    <stop offset="0" stop-color="#fff"/>
    <stop offset="1" stop-color="#b8b8c8"/>
  </linearGradient>
  <linearGradient id="h" x1="510.006" x2="257.654" y1="199.807" y2="592.631" gradientUnits="userSpaceOnUse">
    <stop offset="0" stop-color="#646464"/>
    <stop offset="1" stop-color="#bcbcca"/>
  </linearGradient>
  <linearGradient id="i" x1="411.297" x2="225.354" y1="64.721" y2="304.167" gradientUnits="userSpaceOnUse" xlink:href="#a"/>
  <linearGradient id="j" x1="484.347" x2="683.572" y1="95.327" y2="829.867" gradientUnits="userSpaceOnUse" xlink:href="#a"/>
  <linearGradient id="k" x1="556.046" x2="525.852" y1="341.974" y2="417.589" gradientUnits="userSpaceOnUse" xlink:href="#a"/>
  <linearGradient id="l" x1="217.053" x2="256.898" y1="414.873" y2="291.498" gradientUnits="userSpaceOnUse">
    <stop offset="0" stop-color="#fdf4a5"/>
    <stop offset="1" stop-color="#fd7702"/>
  </linearGradient>
  <linearGradient id="m" x1="282.611" x2="245.753" y1="202.366" y2="16.678" gradientUnits="userSpaceOnUse">
    <stop offset="0" stop-color="#fff"/>
    <stop offset="1" stop-color="#8297e1"/>
  </linearGradient>
  <g transform="matrix(1 0 0 -1 0 678.75)">
    <path fill="url(#b)" fill-rule="evenodd" stroke="#fff" stroke-width="3.025" d="m604.615 148.775c-88.764 30.829-177.528 61.658-266.292 92.487-.096 96.632-.192 193.264-.288 289.896l266.229-92.07c.117-96.771.234-193.542.351-290.313z"/>
    <path fill="url(#c)" fill-rule="evenodd" stroke="#fff" stroke-width="3.025" d="m337.753 531.11c-56.734-42.738-113.469-85.476-170.203-128.214-.072-96.885-.144-193.77-.216-290.656 57.044 42.848 114.089 85.695 171.133 128.543-.238 96.776-.476 193.551-.714 290.327z"/>
    <path fill="url(#d)" fill-rule="evenodd" stroke="#fff" stroke-width="3.025" d="m668.708 565.835c-30.567-35.863-51.353-80.848-65.215-127.018-88.511 30.52-177.021 61.592-265.531 92.112 14.107 46.134 35.307 90 65.314 126.368 88.478-30.487 176.955-60.974 265.432-91.462z"/>
    <path fill="url(#e)" fill-rule="evenodd" stroke="#fff" stroke-width="3.025" d="m337.883 531.173c-56.749-42.751-113.497-85.501-170.245-128.252-24.417 40.576-49.553 81.638-85.3756 111.646 56.7306 42.912 113.4616 85.824 170.1916 128.735 33.787-32.132 61.015-71.452 85.429-112.129z"/>
    <path fill="none" stroke="url(#f)" stroke-linejoin="round" stroke-width="15.127" d="m336.225 551.342c-21.997 36.479-51.184 72.401-82.939 103.868-56.73-42.912-128.363-97.716-185.0936-140.628 35.8226-30.009 61.4896-63.887 85.8616-105.438-44.674-2.088-100.9153-12.72-143.077-26.385l147.815-49.501c1.74-100.751 1.059-136.015.281-231.627 88.058-29.5562 184.213-63.0361 272.977-93.86521 55.077 42.55151 123.542 90.96381 180.83 134.05321-.484 97.403.359 146.741-.588 243.044l121.334 92.505c-35.398-7.18-81.13-13.485-116.028-26.875 13.409 46.156 40.238 88.613 67.649 119.176-88.478 30.488-196.238 67.789-284.715 98.276-27.206-31.893-48.878-72.688-64.307-116.603z"/>
    <path fill="url(#g)" stroke="url(#h)" stroke-width="12.102" d="m435.449 609.44c-64.445 27.441-140.276-6.298-176.737-67.931-61.953-96.839-40.618-248.97 54.028-312.013 54.944-38.467 131.748-28.17 178.044 21.226 90.897 90.845 78.335 273.818-28.211 344.541-8.586 5.686-17.731 10.298-27.124 14.177zm-35.762-149.118c45.682-16.01 44.046-100.318-3.921-111.195-40.805-7.984-65.757 49.46-47.225 84.778 8.603 20.412 30.756 34.126 51.146 26.417z"/>
    <g fill-rule="evenodd">
      <path fill="#7e7e83" fill-opacity=".1" d="m264.276 276.05c102.936-110.628 208.038-63.868 267.649 27.524 55.251 135.896 4.357 262.396-89.862 299.632-61.724-171.45-177.582-59.683-177.787-327.156z"/>
      <path fill="url(#i)" stroke="#fff" stroke-width="3.025" d="m429.535 311.001c-88.667 30.626-173.435 60.585-262.102 91.211.272-98.052.544-196.105.816-294.157 88.298-29.4059 173.314-59.6513 261.612-89.0572z"/>
      <path fill="url(#j)" stroke="#fff" stroke-linecap="square" stroke-linejoin="bevel" stroke-width="3.025" d="m604.076 439.015c-56.744-42.728-117.218-85.918-173.961-128.646-.061-97.764-.249-194.466-.309-292.2295 57.288 43.0896 118.434 85.5775 175.722 128.6675-.484 97.403-.968 194.806-1.452 292.208z"/>
      <path fill="#c87500" fill-opacity=".23" d="m431.572 21.3997 172.336 126.1843-1.047 287.887c1.097-274.81-171.084-146.599-171.289-414.0713z"/>
      <path fill="url(#k)" stroke="#fff" stroke-width="3.025" d="m704.497 465.4c-35.398-7.18-71.591-15.391-101.526-27.045l-171.908-127.298c33.184 12.735 70.548 20.235 104.731 27.645 56.234 42.232 112.469 84.465 168.703 126.698z"/>
      <path fill="url(#l)" stroke="#fff" stroke-width="3.025" d="m427.318 311.658c-38.826.154-72.598-3.496-119.74-18.584l-272.2256 90.444c36.9993 7.306 74.3806 16.549 131.3346 18.978z"/>
    </g>
    <path fill="#d4d4dd" fill-opacity=".67" stroke="#777" stroke-width="9.175" d="m401.555 458.722c-34.611 15.465-66.501-27.901-58.864-63.408 2.102-34.438 41.249-62.121 68.618-39.08 31.823 24.62 27.136 86.171-9.754 102.488zm-9.691-33.593c33.031-17.179-6.979-61.521-21.045-20.483-1.286 12.075 9.104 25.702 21.045 20.483z"/>
    <path fill="url(#m)" fill-rule="evenodd" stroke="#8297e1" stroke-linejoin="round" stroke-width="9.737" d="m367.787 245.705-145.16 49.756c-2.961-92.655-14.818-134.844-25.193-136.341l145.42-49.867c14.737 1.23 23.542 45.169 24.933 136.452z"/>
    <path fill="#cd7700" fill-opacity=".2" fill-rule="evenodd" d="m169.548 109.165 258.18-86.9433-.103 287.9043c-124.544-188.481-144.687 16.006-258.077-200.961z"/>
    <path fill="#8297e1" fill-rule="evenodd" stroke="#8297e1" stroke-linejoin="round" stroke-width="9.737" d="m343.102 198.286-103.057 38.388"/>
    <path fill="#8297e1" fill-rule="evenodd" stroke="#8297e1" stroke-linejoin="round" stroke-width="9.737" d="m344.585 219.148-103.057 38.388"/>
    <path fill="#8297e1" fill-rule="evenodd" stroke="#8297e1" stroke-linejoin="round" stroke-width="9.737" d="m340.878 177.38-103.057 38.388"/>
    <path fill="#8297e1" fill-rule="evenodd" stroke="#8297e1" stroke-linejoin="round" stroke-width="9.737" d="m334.429 142.556-53.382 19.887"/>
  </g>
</svg>
