<?xml version="1.0" encoding="UTF-8" standalone="no"?>
<svg xmlns="http://www.w3.org/2000/svg" xml:space="preserve" width="128" height="100">
  <defs>
    <filter id="a">
      <feGaussianBlur in="SourceGraphic" stdDeviation="2"/>
    </filter>
  </defs>
  <path d="M7.333 54.584S75 39.25 121.877 57.971c.996 1.155.379 2.506-1.603 3.453-1.978.945-68.924 25.151-68.924 25.151s-3.244 1.307-4.803 1.264c-2.569-.069-4.087-.8-4.129-6.866-.027-3.962 1.748-10.556 1.748-10.556l-35.2-.062s-2.428.155-4.381-1.938C2.71 66.406 7.333 54.584 7.333 54.584z" enable-background="new" filter="url(#a)" opacity=".5" transform="matrix(-1 0 0 1 126.48329 0)"/>
  <linearGradient id="b" x1="215.7656" x2="222.8434" y1="-278.127" y2="-212.7417" gradientTransform="rotate(180 141.241645 -98.5)" gradientUnits="userSpaceOnUse">
    <stop offset="0" stop-color="#20abff"/>
    <stop offset=".5838" stop-color="#1572de"/>
    <stop offset=".8528" stop-color="#0938bc"/>
  </linearGradient>
  <path fill="url(#b)" d="M123.21429 61.407s.076-6.572.084-8.765c.012-3.147-1.095-8.762-3.37-13.902-2.274-5.14-2.875-6.55-4.897-6.55-2.022 0-42.035997.315-42.035997.315l-3.371-15.504s-.505-3.202-2.444-3.792c-1.938-.59-5.392 1.179-5.392 1.179S21.721293 34 8.5772932 40.509c-1.074.531-4.15 2.085-4.17 3.202-.035 1.855-.171 11.375-.171 11.375s-.379 2.507 1.603 3.454c1.977.946 68.9239998 25.151 68.9239998 25.151s3.245 1.309 4.804 1.266c2.57-.07 4.087-.8 4.129-6.866.028-3.962-1.095-10.194-1.095-10.194l34.547997-.422s2.428.155 4.381-1.938c1.874-2.014 1.684-4.13 1.684-4.13z"/>
  <linearGradient id="c" x1="186.625" x2="186.625" y1="-258.7021" y2="-248.506" gradientTransform="rotate(180 141.241645 -98.5)" gradientUnits="userSpaceOnUse">
    <stop offset="0" stop-color="#20d4ff"/>
    <stop offset="1" stop-color="#20adff"/>
  </linearGradient>
  <path fill="url(#c)" d="m77.020293 65.747 40.529997.085 2.023-1.266s.59-3.116.505-6.571c-.085-3.455-.084-3.455-.084-3.455s.084-3.201-3.539-3.286c-3.623-.085-44.825997-.253-44.825997-.253l5.391 14.746z"/>
  <path fill="#20bfff" d="M123.24729 58.395s.758 5.311-1.833 7.395c-1.324 1.064-2.948 1.703-4.192 1.729-8.595.168-34.620997.379-34.620997.379s1.337 7.162 1.169 9.773c-.147 2.271-2.422 3.803-2.422 3.803s-1.078-5.709-1.928-8.216c-.8-2.358-2.863-7.687-1.906-8.815.821-.97 39.328997.271 39.328997.271s2.928.2 4.382-1.38c1.351-1.469 2.022-4.939 2.022-4.939z"/>
  <linearGradient id="d" x1="237.3691" x2="237.3691" y1="-274.5654" y2="-223.0167" gradientTransform="rotate(180 141.241645 -98.5)" gradientUnits="userSpaceOnUse">
    <stop offset="0" stop-color="#3aefff"/>
    <stop offset=".5482" stop-color="#20abff"/>
    <stop offset=".619" stop-color="#1ea1f9"/>
    <stop offset=".7399" stop-color="#1986e9"/>
    <stop offset=".8955" stop-color="#105ad0"/>
    <stop offset="1" stop-color="#0938bc"/>
  </linearGradient>
  <path fill="url(#d)" d="m80.990293 78.723-13.482-52.073-4.719-.843L9.5382932 54.961s-2.022 1.518.5059998 2.528c2.526 1.011 68.083 24.771 68.083 24.771s2.066.751 3.034 0c.756-.588-.171-3.537-.171-3.537z"/>
  <linearGradient id="e" x1="199.0293" x2="278.4434" y1="-265.7773" y2="-265.7773" gradientTransform="rotate(180 141.241645 -98.5)" gradientUnits="userSpaceOnUse">
    <stop offset="0" stop-color="#20abff"/>
    <stop offset="1" stop-color="#2057d9"/>
  </linearGradient>
  <path fill="url(#e)" d="M77.303293 82.389s-66.071-24.488-67.6829998-25.09c-1.621-.604-5.135-1.801-5.197-3.775-.111-3.474-1.265 4.093 1.068 4.979 1.91.725 69.6419998 25.362 69.6419998 25.362s2.232 1.096 4.739 1.073c3.581-.029 3.581-3.58 3.581-3.58s-2.612 1.662-3.623 1.662c-1.011 0-2.527-.631-2.527-.631z"/>
  <path fill="#fff" d="M120.90829 47.314s-2.549-7.436-3.666-10.238c-1.221-3.063-2.212-2.928-2.212-2.928l-44.236997.084s-1.424-7.97-2.359-11.965c-.927-3.96-1.606-6.962-2.443-7.12-1.428-.27-41.267 18.927-41.541 20.013-.346 1.374 5.168 9.218 15.883 14.998 9.606 5.182 9.732 5.141 16.559 7.668 6.825 2.527 11.88 3.623 15.588 3.707 3.707.084 4.855.475 5.361-.254.671-.965-2.075-4.213-2.075-5.981 0-1.69.485-3.55 3.497-5.708 3.496-2.507 13.253-2.492 17.757-2.401 5.717997.113 23.887997.125 23.887997.125z" enable-background="new" opacity=".6"/>
  <linearGradient id="f" x1="183.9668" x2="183.9668" y1="-253.4766" y2="-250.6126" gradientTransform="rotate(180 141.241645 -98.5)" gradientUnits="userSpaceOnUse">
    <stop offset="0" stop-color="#a3e0ff"/>
    <stop offset="1" stop-color="#fff"/>
  </linearGradient>
  <path fill="url(#f)" d="M76.355293 54.961c0 1.023.83 1.854 1.854 1.854h40.613997c1.023 0 1.854-.828 1.854-1.854 0-1.023-.83-1.854-1.854-1.854H78.209293c-1.024 0-1.854.831-1.854 1.854z" enable-background="new" opacity=".7"/>
  <linearGradient id="g" x1="116.0586" x2="116.0586" y1="-316.2344" y2="-313.3705" gradientTransform="matrix(-.9448 -.3275 .3275 -.9448 256.57359 -201.9744)" gradientUnits="userSpaceOnUse">
    <stop offset="0" stop-color="#a3e0ff"/>
    <stop offset="1" stop-color="#fff"/>
  </linearGradient>
  <path fill="url(#g)" d="M6.8512932 44.537c-.335.968.776 2.23 2.487 2.824L77.149293 70.866c1.709.593 3.367.29 3.703-.679.334-.967-.78-2.23-2.488-2.823l-67.813-23.506c-1.7089998-.593-3.3639998-.289-3.6999998.679z" enable-background="new" opacity=".7"/>
</svg>