<?xml version="1.0" encoding="UTF-8" standalone="no"?>
<svg xmlns="http://www.w3.org/2000/svg" xmlns:xlink="http://www.w3.org/1999/xlink" width="128" height="128" viewBox="-1 -14 128 128">
  <linearGradient id="a">
    <stop offset="0" stop-color="#85caff"/>
    <stop offset="1" stop-color="#003da9"/>
  </linearGradient>
  <radialGradient id="o" cx="60.705" cy="9.36" r="71.344" gradientUnits="userSpaceOnUse" xlink:href="#a"/>
  <linearGradient id="n" x1="62.715" x2="62.715" y1="66.63" y2="-31.536" gradientUnits="userSpaceOnUse">
    <stop offset="0" stop-color="#ccc"/>
    <stop offset="1" stop-color="#616161"/>
  </linearGradient>
  <radialGradient id="m" cx="-10.535" cy="105.968" r="64.686" gradientTransform="matrix(1.0388 0 0 1 70.1079 0)" gradientUnits="userSpaceOnUse" xlink:href="#a"/>
  <linearGradient id="b">
    <stop offset="0" stop-color="#fff"/>
    <stop offset="1" stop-color="#fff" stop-opacity="0"/>
  </linearGradient>
  <linearGradient id="l" x1="63.147" x2="63.147" y1=".03" y2="65.727" gradientUnits="userSpaceOnUse" xlink:href="#b"/>
  <linearGradient id="k" x1="1.815" x2="1.814" y1="-27.773" y2="62.575" gradientUnits="userSpaceOnUse">
    <stop offset=".046" stop-color="#fff"/>
    <stop offset="1" stop-color="#fff" stop-opacity=".005"/>
  </linearGradient>
  <linearGradient id="c">
    <stop offset=".034" stop-color="#fff"/>
    <stop offset="1" stop-color="#b2b2b2"/>
  </linearGradient>
  <linearGradient id="j" x1="45.537" x2="127.778" y1="33.175" y2="115.416" gradientUnits="userSpaceOnUse" xlink:href="#c"/>
  <linearGradient id="i" x1="61.751" x2="66.418" y1="77.158" y2="-42.762" gradientUnits="userSpaceOnUse" xlink:href="#c"/>
  <linearGradient id="h" x1="62.789" x2="62.789" y1="110.792" y2="14.484" gradientUnits="userSpaceOnUse">
    <stop offset="0" stop-color="#9e9e9e"/>
    <stop offset="1" stop-color="#616161"/>
  </linearGradient>
  <linearGradient id="d" x1="48.73" x2="48.73" y1="27.646" y2="49.258" gradientUnits="userSpaceOnUse">
    <stop offset=".046" stop-color="#fff"/>
    <stop offset="1" stop-color="#fff" stop-opacity="0"/>
  </linearGradient>
  <linearGradient id="s" x1="48.73" x2="48.73" y1="27.646" y2="49.258" gradientUnits="userSpaceOnUse" xlink:href="#d"/>
  <linearGradient id="e">
    <stop offset="0" stop-color="#fff"/>
    <stop offset=".063" stop-color="#e6f9ff"/>
    <stop offset=".139" stop-color="#cef2ff"/>
    <stop offset=".185" stop-color="#c5f0ff"/>
    <stop offset="1" stop-color="#1d74d9"/>
  </linearGradient>
  <radialGradient id="g" cx="71.477" cy="61.035" r="31.129" fx="71.477" fy="61.035" gradientUnits="userSpaceOnUse" xlink:href="#e"/>
  <radialGradient id="r" cx="52.904" cy="77.772" r="38.892" gradientUnits="userSpaceOnUse" xlink:href="#e"/>
  <linearGradient id="f">
    <stop offset="0" stop-color="#8bbbff"/>
    <stop offset="1" stop-color="#0d56ac"/>
  </linearGradient>
  <radialGradient id="p" cx="61.711" cy="74.696" r="42.346" gradientUnits="userSpaceOnUse" xlink:href="#f"/>
  <radialGradient id="q" cx="53.614" cy="69.922" r="36.883" gradientUnits="userSpaceOnUse" xlink:href="#e"/>
  <radialGradient id="t" cx="84.368" cy="65.994" r="20.296" gradientTransform="matrix(.99999427 -.00338629 .0055474 1.638185 -.365613 -43.266444)" gradientUnits="userSpaceOnUse" xlink:href="#f"/>
  <radialGradient id="u" cx="88.507" cy="83.942" r="19.637" fx="88.507" fy="83.942" gradientTransform="matrix(.01747518 -1.089623 .713791 .01144766 23.364914 140.15486)" gradientUnits="userSpaceOnUse" xlink:href="#g"/>
  <radialGradient id="v" cx="90.802" cy="63.703" r="18.995" fx="90.802" fy="63.703" gradientTransform="matrix(.99999458 -.00329373 .00593316 1.8013412 -6.567691 -49.319433)" gradientUnits="userSpaceOnUse" xlink:href="#g"/>
  <linearGradient id="w" x1="84.613" x2="84.607" y1="24.906" y2="53.71" gradientUnits="userSpaceOnUse" xlink:href="#b"/>
  <linearGradient id="x" x1="48.73" x2="48.73" y1="27.646" y2="49.258" gradientTransform="matrix(-1 0 0 1 122.0594 -.122728)" gradientUnits="userSpaceOnUse" xlink:href="#d"/>
  <path fill="url(#h)" d="m12.643 0c-6.969 0-12.643 5.459-12.643 12.172v76.512c0 6.712 5.674 12.174 12.643 12.174h100.291c6.977 0 12.644-5.462 12.644-12.174v-76.512c0-6.713-5.667-12.172-12.644-12.172zm-9.637 88.684v-76.512c0-5.116 4.323-9.277 9.637-9.277h100.291c5.316 0 9.637 4.162 9.637 9.277v76.512c0 5.116-4.32 9.277-9.637 9.277h-100.291c-5.313 0-9.637-4.161-9.637-9.277z"/>
  <path fill="url(#i)" d="m124.077 88.684c0 5.924-4.987 10.726-11.143 10.726h-100.291c-6.151 0-11.139-4.802-11.139-10.726v-76.512c0-5.923 4.987-10.726 11.139-10.726h100.291c6.155 0 11.143 4.803 11.143 10.726z"/>
  <path fill="url(#j)" d="m122.879 87.92c0 5.762-4.854 10.43-10.836 10.43h-98.508c-5.983 0-10.835-4.668-10.835-10.43v-74.986c0-5.76 4.853-10.43 10.835-10.43h98.508c5.982 0 10.836 4.67 10.836 10.43z"/>
  <path fill="url(#k)" d="m.929 65.726c0 4.057.535 7.993 1.525 11.744.076.015.163.03.245.044v-45.378c-1.141 4.01-1.77 29.221-1.77 33.59z"/>
  <path fill="url(#l)" d="m111.25 3.507h-96.202c-5.768 0-10.441 4.497-10.441 10.049v62.984c7.586 1.333 35.422 6.046 55.483-19.982 23.924-31.044 52.948-27.409 61.598-29.572v-13.43c0-5.552-4.675-10.049-10.438-10.049z"/>
  <path fill="url(#m)" d="m112.414 87.636h-99.513v-74.4h99.512v74.4z"/>
  <path fill="url(#n)" d="m112.528 13.203h-99.627v74.256h1.671v-72.605h97.956z"/>
  <path fill="#fff" d="m111.015 13.197v72.765h-98.121v1.652h98.122v.045h1.669v-74.462z"/>
  <path fill="url(#o)" d="m15.819 28.729c0 15.291 22.457 27.692 50.16 27.692 27.709 0 43.802-12.402 43.802-27.692 0-5.108-2.519-9.889-6.894-14.002h-80.181c-4.373 4.113-6.887 8.893-6.887 14.002z"/>
  <path fill="#fff" d="m111.092 79.903h-96.389v5.743h96.389z" opacity=".079"/>
  <path d="m51.53125 31.28125c-.152081-.0009-.298263.04916-.40625.15625-.109786.107987-.15625.254169-.15625.40625 0 0-.05056 4.541767-.09375 10.28125-.0423-.143082-.107164-.268813-.21875-.375-.036-.0342-.0872-.06765-.125-.09375v.53125c-.0297-.07289-.06561-.129907-.125-.1875-.165579-.15928-.415326-.216789-.625-.125l-.5625.25c-.598425.262767-1.125808.565685-1.59375.84375-.208774-.15838-4.875-3.6875-4.875-3.6875-.224972-.170079-.548425-.135475-.75.0625l-3.1875 3.125c-.109786.108886-.1875.252369-.1875.40625l.09375.3125s3.04801 4.473889 3.53125 5.1875c-.749606 1.286839-1.291142 2.578016-1.625 3.90625-.24207.04499-5.6875 1.0625-5.6875 1.0625-.251969.04769-.445353.245332-.46875.5l-.375 3.71875v.03125c0 .269966.205083.501308.46875.5625 0 0 5.250977 1.229057 5.46875 1.28125.39865 1.426322 1.271253 3.092984 2.09375 4.5625-.143982.203375-3.5 4.9375-3.5 4.9375l-.09375.3125c0 .150281.05006.299163.15625.40625l3.1875 3.28125c.195276.200675.486579.21998.71875.0625 0 0 4.885876-3.328368 5.09375-3.46875 1.168954.71811 2.427081 1.28885 3.875 1.6875.0414.23937 1.09375 6.03125 1.09375 6.03125.04859.275366.284435.46875.5625.46875h4.59375c.282565 0 .516606-.190685.5625-.46875 0 0 .891767-5.321154 1.03125-6.15625 1.306637-.370754 2.599206-.919488 3.84375-1.625.190776.111586 6.15625 3.6875 6.15625 3.6875.226772.134083.503023.09253.6875-.09375l3.5-3.5c.107987-.108886.15625-.252369.15625-.40625 0-.138583-.03591-.271513-.125-.375l-6.110232-7.423649c-.116085-.153881-1.202268.954899-1.202268.954899-.03216-.04262-.08316-.06206-.125-.09375h-.65625c-.0504.0374-.119709.07191-.15625.125-2.031946 2.977728-6.23667 5.125-10 5.125-6.167829 0-11.78125-5.599923-11.78125-11.78125 0-4.581327 2.613231-9.36572 6.0625-11.125.126884-.06569.229956-.178417.28125-.3125l.59375-1.625v1l.34375-.90625c-.07556 9.789361-.1875 22.655351-.1875 22.65625 0 .15838.07231.297364.1875.40625.113386.109786.27732.165249.4375.15625l8.4375-.5c.302362-.0189.53125-.289588.53125-.59375 0-.0016-.02315-1.935577-.0897-2.280289l-.06655-17.844711v-5.666368l13.536353-.184048c.325998-.000637.519947-.296768.533414-.603257v-3.361161l.000001-3.54635c0-.314061-.225577-.607717-.538738-.611317z" opacity=".1" transform="matrix(1.11125 0 0 1.11125 0 -12.343)"/>
  <path fill="url(#p)" d="m75.495547 30.405398c-.07238.02089-.145609.05693-.208359.10418 0 0-5.186344 3.921735-5.417344 4.097735-.522-.308-1.106055-.643618-1.771055-.937618l-.625078-.277812c-.232-.102001-.508531-.04009-.694531.138906-.183.173001-.229907.448532-.138907.694531l.694532 1.805782c.057.148999.134813.274265.277812.347265 3.830001 1.954 6.736953 7.270657 6.736953 12.362656 0 6.866002-6.342903 13.265292-13.265579 13.256722-6.922676-.0086-13.300241-6.286541-13.300241-13.152542 0-5.092 2.872227-10.408656 6.702227-12.362656.143-.073.255538-.198266.312539-.347266l.694531-1.805781c.091-.246.0094-.521531-.173633-.694531-.186-.179-.427805-.240907-.659805-.138906l-.625078.277812c-.665.294-1.283781.629618-1.805781.937617-.231-.176-5.417344-4.097734-5.417344-4.097734-.251-.189-.608437-.150547-.833437.06945l-3.54211 3.472656c-.124.120001-.173632.279445-.173632.451446l.104179.381992s3.351376 4.971609 3.889375 5.764609c-.837 1.43-1.432781 2.829094-1.805781 4.306094-.271001.051-6.320234 1.180703-6.320234 1.180703-.278001.052-.493899.307352-.520899.590352l-.381992 4.097734v.06945c0 .297.197172.554078.486172.625078 0 0 5.836148 1.367789 6.077148 1.423789.441 1.584 1.41168 3.438079 2.32668 5.070078-.161.226001-3.889375 5.452071-3.889375 5.452071l-.10418.381992c0 .167.05763.332445.173633.451445l3.54211 3.611563c.215.222.578437.243452.833437.06945 0 0 5.395703-3.662922 5.625703-3.819922 1.301001.801 2.733821 1.396508 4.34082 1.840508.05.266 1.21543 6.702226 1.21543 6.702226.056.306001.316079.555625.625078.555625h5.070078c.200397 0 .368629-.129832.486172-.277812.02015-.02537.05329-.04099.06945-.06945.08067-.08694.150884-.188226.173633-.312539 0 0 1.16544-6.436228 1.21543-6.702227 1.607001-.444 3.005093-1.039508 4.306094-1.840508.229999.156999 5.660429 3.819922 5.660429 3.819922.255.174.583711.152547.798711-.06945l3.54211-3.611563c.116003-.118998.208362-.284441.208362-.451442l-.138906-.381992s-3.728375-5.22607-3.889375-5.45207c.915-1.632 1.88568-3.486078 2.326679-5.070078.241001-.056 6.111875-1.42379 6.111875-1.42379.289-.071.486172-.328077.486172-.625078v-.06945l-.381992-4.097734c-.027-.283-.242898-.538352-.520898-.590352 0 0-6.083961-1.129703-6.354961-1.180703-.373-1.477001-.96878-2.876093-1.805781-4.306094.537999-.793 3.924101-5.764609 3.924101-5.764609l.10418-.381992c0-.172001-.08436-.331445-.20836-.451445l-3.542109-3.472657c-.16875-.164999-.407953-.236305-.625078-.173636zm.138906 1.458516c.235001.23 1.389063 1.389063 1.389063 1.389063s1.160062 1.133336 1.389062 1.354336c-.609999.9-3.819922 5.660429-3.819922 5.660429l-.138906.347266.10418.312539c.96 1.567001 1.617414 3.112811 1.979414 4.722812.055.250001.235171.440182.486172.486172 0 0 5.924781 1.118703 6.250781 1.180703.028.301.288539 2.805938.312539 3.055938-1.016.239-5.903516 1.389062-5.903516 1.389062-.236999.055-.433172.250173-.486172.486172-.397999 1.742001-1.814312 4.275798-2.500312 5.486797l-.10418.312539.138907.347266s3.576195 5.085617 3.785195 5.382617c-.235001.239-2.573125 2.636578-2.778125 2.847578-.892002-.606-5.521524-3.750469-5.521524-3.750469-.215001-.144999-.513258-.142-.729257 0-1.384001.904001-2.928813 1.563141-4.722813 2.014141-.16033.04157-.260977.143399-.347266.277813-.04357-.0384-.0903-.06146-.138906-.10418-.08213.0895-.117906.223266-.138906.347265 0 0-.878121 5.366596-1.076523 6.563321h-3.958829c-.17334-1.04588-1.030321-6.215707-1.076523-6.493867-.05804.04492-.118039.09874-.173633.138906-.000999-.0055-.03473-.138906-.03473-.138906-.044-.246-.243172-.423172-.486172-.486172-1.794-.451-3.338813-1.110141-4.722813-2.014141-.216-.142-.479531-.145-.694531 0 0 0-4.629523 3.144469-5.521523 3.750469-.205001-.211-2.577852-2.608578-2.812852-2.847578.208999-.297001 3.819922-5.382617 3.819922-5.382617l.10418-.347266-.06945-.312539c-.686-1.211-2.102312-3.744797-2.500312-5.486797-.053-.236-.249172-.431172-.486172-.486172 0 0-4.887515-1.150063-5.903516-1.389062.024-.250001.249813-2.754938.277813-3.055938.326-.062 6.250781-1.180703 6.250781-1.180703.251-.046.465898-.236172.520899-.486172.361999-1.61.984687-3.155812 1.944687-4.722812l.10418-.312539-.10418-.381993s-3.209922-4.725703-3.819922-5.625703c.229-.221 1.354336-1.354336 1.354336-1.354336s1.188789-1.159062 1.423789-1.389062c.3.226999 5.313164 4.028281 5.313164 4.028281.21.159.468531.171727.694531.03473.303001-.184.748431-.413805 1.21543-.659805-.02.057-.02573.114906-.03473.138906-4.100001 2.248-7.188399 7.945-7.188399 13.335 0 7.363765 6.540849 14.073375 13.855899 14.376797-.232961.27275-.487549.543964-.763985.833438.608523-.282599 1.172185-.553067 1.458516-.729258l2.500312 1.11125c-.582332-.510323-.955782-.839222-1.493242-1.31961 7.195737-.467766 13.578086-7.111533 13.578086-14.376797 0-5.39-3.088399-11.087-7.188398-13.335-.009-.024-.04945-.0819-.06945-.138906.466999.246.912429.475805 1.215429.659805.226001.137.519258.124273.729258-.03473 0 0 5.013164-3.801281 5.313165-4.028281zm-12.084844 32.573516c.37056.324737.459342.387824.729258.625078.08212-.0895.19104-.142632.312539-.173633zm-5.521523 1.041797c.479259-.370913 1.013125-.852388 1.527969-1.389063-.929594.429598-1.926493.805547-2.048868.694531.243001.062.444173.272898.486172.520899 0 0 .03348.166154.03473.173633z"/>
  <path fill="url(#q)" fill-rule="evenodd" d="m68.0625 39.0625-5.1875 3.90625c-.598426-.360855-1.23788-.718335-1.875-1-.199775-.08099-.362723-.13866-.5625-.21875l.625 1.625c3.782227 1.931159 6.375 6.999577 6.375 11.625 0 6.453095-6.133791 12.461729-12.605071 12.473009-6.471281.01128-12.426179-5.936718-12.426179-12.410509 0-4.625422 2.592773-9.693841 6.375-11.625l.625-1.65625c-.199775.08009-.362725.16901-.5625.25-.63712.281665-1.276575.639145-1.875 1l-5.1875-3.90625-3.1875 3.125 3.71875 5.5c-.837795 1.366929-1.485595 2.797251-1.84375 4.40625l-6.0625 1.125-.34375 3.71875 5.8125 1.34375c.357255 1.569404 1.5152 3.687226 2.3125 5.09375l-3.71875 5.21875 3.1875 3.25 5.375-3.65625c1.344209.879147 2.822063 1.471885 4.40625 1.875.0098.0025.02143-.0025.03125 0 .0065.0084-.01433.02739 0 .03125l1.15625 6.3125v.0625h4.5625v-.0625h.03125l1.15625-6.375c1.595501-.403149 3.053719-1.021661 4.40625-1.90625l5.375 3.65625 3.1875-3.25-3.6875-5.21875c.7973-1.406525 1.955245-3.524348 2.3125-5.09375l5.8125-1.34375-.375-3.6875-6.03125-1.125c-.358155-1.608999-1.005955-3.070571-1.84375-4.4375l3.71875-5.46875z" transform="matrix(1.11125 0 0 1.11125 0 -12.343)"/>
  <path fill="url(#r)" fill-rule="evenodd" d="m68 39.75c-.652418.493138-4.78125 3.625-4.78125 3.625-.179078.134083-.432424.147335-.625.03125-.325759-.197075-.736003-.436677-1.15625-.65625.0261.07199.07935.180955.09375.21875 3.753431 2.041845 6.4375 7.034421 6.4375 12 0 6.768054-6.428087 13.03865-13.184622 13.03495-6.756534-.0037-12.909128-6.173146-12.909128-12.9412 0-4.965579 2.684069-9.958155 6.4375-12 .0144-.0378.06765-.115509.09375-.1875-.420247.219573-.830491.427925-1.15625.625-.192576.116085-.445922.102833-.625-.03125 0 0-4.128832-3.131862-4.78125-3.625-.47784.472441-2.067808 2.042857-2.53125 2.5.445444.656918 3.4375 5.09375 3.4375 5.09375.06299.09269.09375.204513.09375.3125 0 .09989-.0085.193061-.0625.28125-.862992 1.411024-1.46089 2.797582-1.78125 4.25-.04859.215973-.222427.397905-.4375.4375 0 0-4.914089.899866-5.625 1.03125-.05219.55883-.221857 2.179879-.28125 2.8125.789201.185377 5.34375 1.25 5.34375 1.25.205174.04949.358556.200176.40625.40625.356355 1.571204 1.632677 3.847736 2.25 4.9375.04769.08459.0625.186762.0625.28125 0 .112486-.02626.216212-.09375.3125 0 0-2.981257 4.196731-3.4375 4.84375.459843.471541 2.101758 2.120409 2.5625 2.59375.657818-.449044 4.96875-3.40625 4.96875-3.40625.184477-.125084.440523-.122385.625 0 1.248144.812598 2.632902 1.405751 4.25 1.8125.210574.05489.370254.225127.40625.4375 0 0 .950668 5.186748 1.09375 5.96875h3.625c.000682-.0012-.03101-.120037-.03125-.125h.0625c.143082-.782002 1.09375-5.9375 1.09375-5.9375.036-.212373.195676-.382607.40625-.4375 1.617098-.406749 3.001856-.999902 4.25-1.8125.184477-.122385.409273-.125084.59375 0 0 0 4.342182 2.957206 5 3.40625.460742-.473341 2.102657-2.122209 2.5625-2.59375-.456243-.64702-3.4375-4.875-3.4375-4.875-.06749-.09629-.125-.200014-.125-.3125 0-.09449.04606-.196661.09375-.28125.617323-1.089764 1.893645-3.335046 2.25-4.90625.04769-.206073.201076-.388015.40625-.4375 0 0 4.554549-1.033373 5.34375-1.21875-.05939-.632621-.229057-2.25367-.28125-2.8125-.710911-.131384-5.625-1.0625-5.625-1.0625-.215073-.03959-.388906-.190277-.4375-.40625-.32036-1.452418-.918258-2.838976-1.78125-4.25-.053993-.088189-.0625-.212612-.0625-.3125 0-.107987.03076-.188562.09375-.28125 0 0 2.992056-4.468082 3.4375-5.125-.463442-.457143-2.05341-1.996309-2.53125-2.46875z" transform="matrix(1.11125 0 0 1.11125 0 -12.343)"/>
  <path fill="url(#s)" d="m53.697 35.516c.016-.042.055-.145.084-.225-.467.244-.915.496-1.277.715-.214.129-.485.115-.684-.034 0 0-4.614-3.483-5.339-4.031-.531.525-2.288 2.251-2.803 2.759.495.73 3.837 5.669 3.837 5.669.07.103.104.222.104.342 0 .111-.029.221-.089.319-.462.754-.846 1.5-1.164 2.254.318.167.644.333.974.491 1.168-3.586 3.488-6.698 6.357-8.259z"/>
  <g transform="translate(-23.880731 -2.466565)">
    <path fill="url(#t)" d="m64.410169 24.067461v7.66867c.0038.196324.203445.42915.392369.4493h15.235937v28.431708c-.0083.499706.208621.808757.754903.823162h7.629492c.635575.01559.772235-.276891.772235-.788498v-28.503537h15.044205c.51739-.0082.75254-.272575.76184-.732333v-7.36677c.0161-.525629-.34625-.722736-.77424-.732313h-39.048607c-.537569.0025-.753745.284462-.768134.750611z"/>
    <path fill="url(#u)" d="m65.087591 23.994273v7.513734h15.59114v29.292036h7.876116v-29.292035h15.806043v-7.513735z"/>
    <path fill="url(#v)" d="m65.729423 24.635718v6.250782h14.9096c.379321-.0092.651766.37997.682627.633266v28.641226h6.528594v-28.641226c-.02417-.462329.31693-.639857.635704-.633266h15.234332v-6.250782z"/>
    <path fill="url(#w)" d="m65.729423 24.635718v6.250782h14.9096c.379321-.0092.651766.37997.682627.633266v14.620016c2.517596 1.248562 3.760541 1.232908 6.528595 0v-14.620016c-.02417-.462329.316929-.639857.635703-.633266h15.234332v-6.250782z"/>
  </g>
  <path fill="url(#x)" d="m68.3624 35.393272c-.016-.042-.055-.145-.084-.225.467.244.915.496 1.276999.715.214001.129.485001.115.684001-.034 0 0 4.614-3.483 5.339-4.031.531.525 2.288 2.251 2.803 2.759-.495.73-3.837 5.669-3.837 5.669-.07.102999-.104.222-.104.342 0 .111.029.221.089.319.462.754.846 1.5 1.164 2.254-.318.166999-.644.333-.974.491-1.168-3.586-3.488-6.698-6.357-8.259z"/>
</svg>
