<?xml version="1.0" encoding="UTF-8" standalone="no"?>
<svg xmlns="http://www.w3.org/2000/svg" width="128" height="128" viewBox="-24 -4 128 128">
  <linearGradient id="a" x1="49.144" x2="-8.538" y1="102.543" y2="49.628" gradientUnits="userSpaceOnUse">
    <stop offset="0" stop-color="#c58300"/>
    <stop offset=".691" stop-color="#ffca00"/>
    <stop offset=".798" stop-color="#fdc700"/>
    <stop offset=".865" stop-color="#f6bf00"/>
    <stop offset=".92" stop-color="#ebb000"/>
    <stop offset=".97" stop-color="#da9c00"/>
    <stop offset="1" stop-color="#cd8b00"/>
  </linearGradient>
  <linearGradient id="b" x1="52.352" x2="5.492" y1="111.482" y2="64.622" gradientUnits="userSpaceOnUse">
    <stop offset="0" stop-color="#ff8100"/>
    <stop offset=".691" stop-color="#ff0"/>
    <stop offset=".777" stop-color="#fffc00"/>
    <stop offset=".83" stop-color="#fff400"/>
    <stop offset=".875" stop-color="#ffe500"/>
    <stop offset=".914" stop-color="#ffd100"/>
    <stop offset=".95" stop-color="#ffb600"/>
    <stop offset=".984" stop-color="#ff9600"/>
    <stop offset="1" stop-color="#ff8300"/>
  </linearGradient>
  <linearGradient id="c" x1=".777" x2="92.487" y1="54.559" y2="149.017" gradientUnits="userSpaceOnUse">
    <stop offset="0" stop-color="#bb4900"/>
    <stop offset="1" stop-color="#4e0000"/>
  </linearGradient>
  <linearGradient id="d" x1="26.942" x2="28.998" y1="71.049" y2="147.119" gradientUnits="userSpaceOnUse">
    <stop offset=".006" stop-color="#fff"/>
    <stop offset=".147" stop-color="#fffae1"/>
    <stop offset=".456" stop-color="#ffee94"/>
    <stop offset=".907" stop-color="#ffdb1a"/>
    <stop offset="1" stop-color="gold"/>
  </linearGradient>
  <linearGradient id="e" x1="34.552" x2="19.179" y1="56.728" y2="44.959" gradientUnits="userSpaceOnUse">
    <stop offset="0"/>
    <stop offset="1" stop-color="#b86f08"/>
  </linearGradient>
  <linearGradient id="f" x1="51.36" x2="32.254" y1="32.785" y2="32.785" gradientUnits="userSpaceOnUse">
    <stop offset="0" stop-color="#744426"/>
    <stop offset="1" stop-color="#ffb800"/>
  </linearGradient>
  <linearGradient id="g" x1="30.612" x2="2.366" y1="28.182" y2="6.556" gradientUnits="userSpaceOnUse">
    <stop offset="0" stop-color="#561e00"/>
    <stop offset="1" stop-color="#b86f08"/>
  </linearGradient>
  <linearGradient id="h" x1="35.268" x2="35.268" y1="-1.293" y2="59.628" gradientUnits="userSpaceOnUse">
    <stop offset=".103" stop-color="#fff"/>
    <stop offset="1" stop-color="#fff" stop-opacity="0"/>
  </linearGradient>
  <path fill="url(#a)" d="m68.536 99.929c.146-1.039.224-2.102.224-3.183v-17.487c0-11.953-9.226-21.643-20.606-21.643h-16.649c-11.381 0-20.606 9.689-20.606 21.643v17.487c0 .998.07 1.979.194 2.939-6.224 2.103-10.021 4.898-10.021 7.968 0 6.532 17.189 11.827 38.392 11.827s38.393-5.295 38.393-11.827c0-2.952-3.512-5.652-9.321-7.724z"/>
  <path fill="url(#b)" d="m58.487 99.58c.123-1.011.188-2.045.188-3.097v-17.012c0-11.628-7.758-21.055-17.327-21.055h-13.998c-9.569 0-17.326 9.427-17.326 21.055v17.012c0 .971.059 1.925.163 2.86-5.233 2.045-8.426 4.765-8.426 7.751 0 6.354 14.454 11.505 32.282 11.505 17.83 0 32.283-5.15 32.283-11.505 0-2.872-2.955-5.498-7.839-7.514z"/>
  <path fill="url(#c)" d="m31.505 56.544c-11.954 0-21.68 10.191-21.68 22.715v17.487c0 .726.049 1.472.12 2.224-6.488 2.335-9.945 5.324-9.945 8.684 0 3.724 4.15 6.97 12.002 9.39 7.351 2.263 17.104 3.511 27.463 3.511s20.112-1.248 27.464-3.511c7.852-2.42 12.002-5.666 12.002-9.39 0-3.229-3.213-6.128-9.242-8.425.086-.828.145-1.66.145-2.482v-17.488c0-12.524-9.725-22.715-21.68-22.715zm-29.359 51.11c0-2.423 3.386-4.956 9.291-6.951.484-.164.787-.646.721-1.154-.123-.95-.186-1.894-.186-2.802v-17.488c0-11.342 8.762-20.569 19.533-20.569h16.648c10.771 0 19.533 9.228 19.533 20.569v17.487c0 1.004-.071 2.024-.213 3.033-.07.504.223.988.702 1.159 5.471 1.953 8.609 4.4 8.609 6.715 0 5.087-15.327 10.755-37.32 10.755-21.992.001-37.318-5.667-37.318-10.754z"/>
  <path fill="url(#d)" d="m19.229 107.094c0-2.986 3.456-5.706 9.122-7.751-.113-.936-.176-1.89-.176-2.86v-17.012c0-11.628 8.398-21.055 18.758-21.055h-11.646c-10.36 0-18.759 9.427-18.759 21.055v17.012c0 .971.064 1.925.177 2.86-5.666 2.045-9.122 4.765-9.122 7.751 0 6.354 15.648 11.505 34.95 11.505 1.985 0 3.928-.057 5.823-.161-16.528-.913-29.127-5.643-29.127-11.344z"/>
  <path fill="url(#e)" d="m56.602 60.932c0 3.901-7.413 7.064-16.56 7.064-9.146 0-16.559-3.163-16.559-7.064 0-3.903 7.414-7.066 16.559-7.066 9.146 0 16.56 3.163 16.56 7.066z" opacity=".2"/>
  <path fill="url(#f)" d="m43.83 50.52v-5.76c3.688-3.583 6.257-11.561 6.257-20.834 0-12.621-4.755-22.854-10.621-22.854-5.867 0-10.623 10.232-10.623 22.854 0 9.273 2.568 17.25 6.257 20.834v5.76c-5.804.92-10.009 3.625-10.009 6.821 0 3.953 6.435 7.157 14.374 7.157s14.374-3.204 14.374-7.157c0-3.196-4.205-5.902-10.009-6.821z"/>
  <path fill="url(#g)" d="m27.77 23.926c0 8.983 2.447 17.236 6.257 21.256v4.464c-6.011 1.178-10.009 4.192-10.009 7.694 0 4.615 6.785 8.23 15.446 8.23 8.662 0 15.447-3.615 15.447-8.23 0-3.501-3.998-6.516-10.009-7.694 0-1.148 0-3.856 0-4.464 3.811-4.021 6.257-12.273 6.257-21.256.001-13.417-5.136-23.926-11.693-23.926-6.559 0-11.696 10.509-11.696 23.926zm-1.606 33.414c0-2.501 3.829-4.925 9.105-5.761.521-.083.905-.532.905-1.06v-5.76c0-.29-.118-.568-.326-.77-3.604-3.5-5.932-11.375-5.932-20.064 0-11.806 4.373-21.78 9.55-21.78 5.176 0 9.548 9.974 9.548 21.78 0 8.688-2.328 16.564-5.932 20.064-.208.202-.325.48-.325.77v5.76c0 .527.384.977.905 1.06 5.275.836 9.104 3.26 9.104 5.761 0 2.938-5.345 6.084-13.302 6.084-7.955 0-13.3-3.145-13.3-6.084z"/>
  <path fill="url(#h)" d="m31.589 57.593c0-3.083 3.528-5.692 8.397-6.58v-5.556c-3.095-3.457-5.25-11.152-5.25-20.098 0-10.852 3.17-19.866 7.344-21.699-.509-.223-1.032-.347-1.567-.347-4.922 0-8.912 9.871-8.912 22.046 0 8.946 2.155 16.641 5.25 20.098v5.556c-4.869.887-8.397 3.497-8.397 6.58 0 3.813 5.398 6.904 12.059 6.904.533 0 1.052-.026 1.567-.065-5.917-.44-10.491-3.33-10.491-6.839z"/>
</svg>
