<?xml version="1.0" encoding="UTF-8" standalone="no"?>
<svg xmlns="http://www.w3.org/2000/svg" xmlns:xlink="http://www.w3.org/1999/xlink" width="64" height="64">
  <linearGradient id="v" x1="-2105.841" x2="-2035.212" y1="-86.33" y2="-88.104" gradientTransform="matrix(.275772 .06677168 -1.785205 1.778283 15.77866 -194.5809)" gradientUnits="userSpaceOnUse" xlink:href="#a"/>
  <linearGradient id="u" x1="-432.853" x2="-420.168" y1="405.997" y2="406.472" gradientTransform="matrix(1.161617 -.04739154 .02691281 .545879 5.16733 -400.1846)" gradientUnits="userSpaceOnUse" xlink:href="#a"/>
  <linearGradient id="t" x1="-435.296" x2="-419.488" y1="403.28" y2="405.643" gradientTransform="matrix(1.161617 -.04739154 .02691281 .545879 5.16733 -400.1846)" gradientUnits="userSpaceOnUse">
    <stop offset="0" stop-opacity=".729"/>
    <stop offset="1" stop-color="#fff" stop-opacity="0"/>
  </linearGradient>
  <radialGradient id="s" cx="-36.281" cy="224.722" r="14.293" fx="-36.27" fy="224.712" gradientTransform="matrix(1.28996 -2.934787 -1.25467 -.687701 -135.1226 -352.8727)" gradientUnits="userSpaceOnUse" spreadMethod="reflect" xlink:href="#a"/>
  <radialGradient id="r" cx="-580.408" cy="-238.209" r="20.502" gradientTransform="matrix(.777876 .03246476 .02423728 .784691 13.97124 -196.1555)" gradientUnits="userSpaceOnUse" spreadMethod="pad">
    <stop offset="0" stop-color="#fff"/>
    <stop offset=".5" stop-color="#fff" stop-opacity=".775"/>
    <stop offset="1" stop-color="#fff" stop-opacity="0"/>
  </radialGradient>
  <radialGradient id="q" cx="-36.281" cy="224.722" r="14.293" fx="-36.27" fy="224.712" gradientTransform="matrix(1.458853 -2.843975 1.264624 .666794 -721.3474 -644.7191)" gradientUnits="userSpaceOnUse" spreadMethod="reflect" xlink:href="#a"/>
  <linearGradient id="p" x1="111.31" x2="135.19" y1="198.135" y2="235.011" gradientTransform="matrix(2.980933 -1.623511 .421337 1.602678 -832.2722 -621.5866)" gradientUnits="userSpaceOnUse" xlink:href="#a"/>
  <linearGradient id="o" x1="139.844" x2="159.039" y1="169.796" y2="203.177" gradientTransform="matrix(2.501016 -1.261406 .03268214 1.81049 -830.4708 -1463.906)" gradientUnits="userSpaceOnUse" spreadMethod="reflect">
    <stop offset="0" stop-color="#b5b5b8"/>
    <stop offset="1" stop-color="#ebebee"/>
  </linearGradient>
  <linearGradient id="n" x1="238.341" x2="236.607" y1="441.756" y2="438.931" gradientTransform="matrix(-.080836 -.768518 -1.314142 -.122986 0 0)" gradientUnits="userSpaceOnUse" xlink:href="#a"/>
  <linearGradient id="m" x1="-492.077" x2="-417.175" y1="-417.905" y2="-295.751" gradientTransform="matrix(.04666024 .00436677 .00747076 .07102536 -570.7207 -206.9104)" gradientUnits="userSpaceOnUse" xlink:href="#a"/>
  <linearGradient id="l" x1="184.866" x2="187.183" y1="227.447" y2="123.063" gradientTransform="matrix(.07470016 .06828522 -.02777414 .03139757 -606.6362 -251.3928)" gradientUnits="userSpaceOnUse" xlink:href="#b"/>
  <linearGradient id="k" x1="-614.116" x2="-613.352" y1="-430.2" y2="-428.425" gradientTransform="matrix(1.048782 -.305752 -.108731 .985186 0 0)" gradientUnits="userSpaceOnUse" xlink:href="#c"/>
  <linearGradient id="j" x1="-607.029" x2="-601.161" y1="-436.172" y2="-429.798" gradientTransform="matrix(1.063407 -.310015 -.107235 .971636 0 0)" gradientUnits="userSpaceOnUse" spreadMethod="reflect" xlink:href="#b"/>
  <linearGradient id="h" x1="239.131" x2="219.654" y1="150.768" y2="118.383" gradientTransform="matrix(.165829 -.05173052 -.01826319 .197436 -628.6676 -249.7811)" gradientUnits="userSpaceOnUse" spreadMethod="reflect" xlink:href="#a"/>
  <linearGradient id="i" x1="165.24" x2="166.342" y1="140.822" y2="163.712" gradientTransform="matrix(.224936 -.07016936 -.01346405 .145555 -629.0715 -249.64)" gradientUnits="userSpaceOnUse">
    <stop offset="0" stop-color="#fff"/>
    <stop offset="1" stop-color="#fff" stop-opacity="0"/>
  </linearGradient>
  <linearGradient id="g" x1="211.311" x2="186.147" y1="208.297" y2="101.485" gradientTransform="matrix(.16315 -.04324279 -.01925222 .147313 -623.7133 -249.0598)" gradientUnits="userSpaceOnUse" xlink:href="#c"/>
  <linearGradient id="b">
    <stop offset="0" stop-color="#00ad01"/>
    <stop offset="1" stop-color="#15720f"/>
  </linearGradient>
  <linearGradient id="f" x1="139.797" x2="198.671" y1="100.638" y2="227.493" gradientTransform="matrix(.165426 -.04384578 -.01898738 .145287 -614.6689 -246.6268)" gradientUnits="userSpaceOnUse" spreadMethod="reflect" xlink:href="#b"/>
  <linearGradient id="c">
    <stop offset="0" stop-color="#007c00"/>
    <stop offset="1" stop-color="#025a00"/>
  </linearGradient>
  <linearGradient id="e" x1="-406.362" x2="-303.303" y1="-852.358" y2="-643.523" gradientTransform="matrix(1.085489 -.277106 -.134433 .955562 0 0)" gradientUnits="userSpaceOnUse" spreadMethod="reflect" xlink:href="#c"/>
  <linearGradient id="d" x1="-426.864" x2="-279.997" y1="-529.276" y2="-351.533" gradientTransform="scale(1.014829 .985388)" gradientUnits="userSpaceOnUse">
    <stop offset="0" stop-color="#7d7d7d"/>
    <stop offset="1"/>
  </linearGradient>
  <linearGradient id="a">
    <stop offset="0" stop-color="#fff" stop-opacity="0"/>
    <stop offset=".335" stop-color="#fff" stop-opacity="0"/>
    <stop offset=".556" stop-color="#fff"/>
    <stop offset=".745" stop-color="#fff" stop-opacity="0"/>
    <stop offset="1" stop-color="#fff" stop-opacity="0"/>
  </linearGradient>
  <g transform="matrix(.197395 0 0 .197509 99.52009 128.5928)">
    <path fill="url(#d)" fill-rule="evenodd" d="m-339.875-562.53125c-8.71069 2.33944-12.72058 11.59535-19.56299 16.82178-40.69876 40.65936-81.33684 81.38962-121.46826 122.58447-7.27919 12.2759-7.66478 28.4988-19.3125 38.03125-12.36094 16.26196 6.50254 43.83557 26.1875 36.625 11.15594-4.4301 19.37985-14.84779 31.75388-16.4053 20.00746-5.90213 31.76932-24.44776 46.60411-37.70908 37.76555-37.71241 75.53542-75.4205 113.29826-113.13562-21.87239-6.22379-41.26028-22.06388-49.46875-43.5-1.89851-2.51628-4.89645-3.84677-8.03125-3.3125z"/>
    <path fill="url(#e)" d="m-248.21875-651c-24.76986 2.06963-43.06135 21.31725-56.79214 40.32559-4.73423 6.46754-10.76749 12.37417-18.85986 13.94738-9.8435 5.622-17.98669 14.30502-24.53515 23.44569-8.54074 14.01985.75549 30.18869 10.00567 41.18613 12.76015 14.11369 28.39756 29.35099 48.49355 30.3348 13.88943-.44141 23.48899-12.64955 32.53168-21.80209 3.70344-8.37381 6.88728-17.6729 15.26297-22.53201 16.97178-14.73797 36.26477-30.39198 40.6403-53.7559 5.0456-19.11357-5.41432-41.07261-24.33819-47.81983-7.08209-2.93115-14.80153-3.65684-22.40883-3.32976z"/>
    <g transform="matrix(12.73027 .137313 -.136532 12.81415 7258.558 2532.625)">
      <path fill="url(#f)" stroke="url(#g)" stroke-linecap="round" stroke-linejoin="round" stroke-width=".024" d="m-592.17375-241.34258c-1.04971.06698-1.72059.53318-2.37059 1.0823-1.48287 1.25274-2.05265 3.18081-3.25546 3.12657-.61394.67607-.36895 1.26381-.14988 1.76731.80492 1.33972 1.68994 2.13338 2.77004 2.60052.38078.10976 1.37106.06375 1.7926-.25725.21528-1.15131 1.3598-1.43036 2.91567-3.05366 1.0806-1.12693 1.46405-2.83141 1.08043-3.73176-.33478-.78573-1.2036-1.63479-2.78281-1.53403z"/>
      <g fill-rule="evenodd">
        <path fill="url(#h)" d="m-595.92745-235.45451c1.55743-1.53953 3.39241-2.82623 4.94983-4.36576 1.02184-.00613 1.60894 1.09599 1.17638 2.44671-1.67974 1.79769-3.29176 4.06056-4.9715 5.85825.59288-1.62074-.2618-3.61564-1.15471-3.9392z" opacity=".419"/>
        <path fill="url(#i)" d="m-592.10692-241.16843c.702-.09512.78037-.0668 1.03754.07424.25717.14105-.04761.84305-.83834 1.20945-.77055.35705-1.45377 2.23993-2.83557 2.41138-1.3741.1705-1.15385-1.16153-.79321-1.56545.34938-.39131 1.26221-1.1945 1.69256-1.43246.42463-.23479 1.01561-.59942 1.73702-.69716z"/>
        <path fill="url(#h)" d="m-595.92745-235.45451c1.55743-1.53953 2.3597-1.75627 3.91713-3.2958 1.02183-.00613 1.60894 1.09599 1.17638 2.44671-1.67974 1.79769-2.25906 2.9906-3.9388 4.78829.59288-1.62074-.2618-3.61564-1.15471-3.9392z" opacity=".419"/>
        <path fill="url(#h)" d="m-595.92745-235.45451c1.55743-1.53953 1.01924-.36596 2.57666-1.90548 1.02184-.00614 1.60894 1.09598 1.17638 2.44671-1.67974 1.79768-.91859 1.60028-2.59833 3.39797.59288-1.62074-.2618-3.61564-1.15471-3.9392z" opacity=".419"/>
        <path fill="url(#h)" d="m-595.92745-235.45451c1.55743-1.53953.38325.28112 1.94067-1.2584 1.02184-.00614 1.60894 1.09598 1.17638 2.44671-1.67973 1.79768-.2826.9532-1.96234 2.75089.59288-1.62074-.2618-3.61564-1.15471-3.9392z" opacity=".419"/>
      </g>
      <path fill="url(#j)" stroke="url(#k)" stroke-linecap="round" stroke-linejoin="round" stroke-width=".198" d="m-598.04283-237.04726c-1.60682 1.5976-.02428-.02039-1.16859 1.15918-.69407.81607-.37849 1.01552-.11681 1.61061.95191 1.57925 1.98575 2.50716 3.23801 3.04283.44044.12349.72895.28237 1.2082-.10754.58209-.41484 1.47645-1.14736 1.54188-1.59814-.14694-2.44318-3.86292-4.94188-4.70269-4.10694z"/>
      <path fill="url(#l)" d="m-594.83596-231.32818c-.47687.53909-1.90483.02506-3.18741-1.14737-1.28258-1.17244-1.93648-2.5615-1.45961-3.10059.47687-.53908 1.90483-.02506 3.18741 1.14738 1.2752 1.16569 1.92991 2.54518 1.46732 3.09167"/>
      <path fill="url(#m)" fill-rule="evenodd" d="m-594.66112-235.43807-1.26706 1.22367c.98213.90546 1.47022 2.01997 1.30482 2.58079.50255-.37444 1.14874-.93146 1.20089-1.29216-.05265-.87393-.53043-1.82244-1.23865-2.5123z" opacity=".73"/>
      <path fill="url(#n)" fill-rule="evenodd" d="m-595.4605-236.18333-1.32404 1.25978c-.98612-.65939-1.75145-1.01751-2.31419-.86973.37571-.44893 1.179-1.26542 1.54095-1.31202.87694.04699 1.36229.36043 2.09728.92197z" opacity=".73"/>
    </g>
    <g fill-rule="evenodd">
      <path fill="url(#o)" d="m-339.32166-551.9597c-43.46807 43.34952-87.49091 87.411-130.959 130.76064-.15116.15493-3.50824 3.50389-6.27555 10.7647-2.76729 7.26092-2.46839 19.57276-13.45997 28.40627-7.31401 7.549-5.24448 13.66875-1.74771 18.44199.39911.54477 1.10644 1.1199 1.7641 1.69908.5642.65674 1.12367 1.36378 1.65595 1.7638 4.72267 3.54921 10.79444 5.67279 18.35317-1.62845 8.86188-10.98989 21.1042-10.60336 28.34468-13.33505 7.24036-2.73171 10.59442-6.08371 10.74955-6.23462 43.41577-43.40262 87.54337-87.35804 130.959-130.76065-7.11655-1.76555-15.95903-8.5599-23.45027-16.16475-7.51965-7.58986-14.22613-16.53837-15.93395-23.71296z"/>
      <path fill="url(#p)" d="m-495.37743-406.53835c14.16736-14.32364 30.40331-12.50938 43.22808-3.19853 10.80608 7.84522 22.00619 24.60959 8.60148 37.69802 47.77018-47.52876 95.7485-95.17099 143.51855-142.69976 13.64778-11.83926-.95699-29.24472-11.71497-37.73158-12.37147-9.75988-30.85587-5.63179-44.09006 6.67365-47.32463 47.26156-92.2187 91.99664-139.54308 139.2582z"/>
      <path fill="url(#q)" d="m-493.10005-374.87492c-.47261 1.92419.00537 8.09294 2.0826 8.03228 1.57812-.04608 11.19175-10.50101 13.17295-12.77164 8.40012-12.57447 8.48036-12.35211 9.30772-14.08869 3.85367-8.08869.32779-25.71145-1.38701-24.48861-6.11375 4.36022-7.18018 19.81086-10.1859 25.39606-5.09282 9.46304-10.95756 12.79526-12.99036 17.9206z"/>
      <path fill="url(#r)" d="m-475.55038-416.9983c-1.62669 2.09156-1.24044 1.01879-1.92623 4.30663-4.47954 9.46355-2.46319 19.56005-13.45479 28.39356-7.31401 7.54902-5.23504 13.65808-1.73836 18.43132 2.97301 4.05818 12.41839 9.95756 17.66603 4.92268 9.86074-9.08295 18.48938-9.75732 26.91002-12.73042 3.7297-.88021 7.42726-2.44973 10.82267-5.07981.37081-.36842.78318-.78196 1.15464-1.15115-1.48831-19.66856-11.58969-33.13032-35.51606-39.61308z" opacity=".82"/>
      <path fill="url(#s)" d="m-474.83322-388.39078c-1.17765 1.54515-6.13436 4.79193-7.31953 2.97721-.90047-1.37864 1.32245-15.80721 1.86839-18.84938 4.54779-14.64577 4.33191-14.58263 5.15709-16.3203 3.84407-8.09396 19.28479-15.51935 19.37456-13.32625.32027 7.81945-10.75312 17.88981-13.20294 23.77397-4.15081 9.96955-3.19939 16.9664-5.87757 21.74475z"/>
    </g>
    <g transform="matrix(.640718 .741394 -.737351 .644231 -294.5805 92.05109)">
      <path fill="url(#t)" d="m-471.76248-159.41569c.11446 2.32266-3.80403 4.37148-8.74661 4.57309-4.94275.20161-9.04707-1.51977-9.1616-3.84252-.11461-2.32265 3.80395-4.37139 8.74661-4.57309 4.91423-.20051 9.00111 1.49707 9.15935 3.8045"/>
      <path fill="url(#u)" d="m-471.76248-159.41569c.11446 2.32266-3.80403 4.37148-8.74661 4.57309-4.94275.20161-9.04707-1.51977-9.1616-3.84252-.11461-2.32265 3.80395-4.37139 8.74661-4.57309 4.91423-.20051 9.00111 1.49707 9.15935 3.8045" opacity=".825"/>
    </g>
    <path fill="url(#v)" fill-rule="evenodd" d="m-314.5466-554.44188-136.08178 136.22382c-1.24799 1.24316-3.39716 1.96692-4.81873 1.62275l-16.27688-3.94107c-1.42155-.34417-1.56117-1.62216-.31319-2.8653l134.08376-133.56377c4.4373-4.16692 13.0082-4.55641 23.40682 2.52357z"/>
    <path fill-rule="evenodd" d="m-329.21748-562.35117c-1.23474 1.23151-11.55847 11.52201-12.79411 12.75454-.13674.12206-.29223.19955-.42715.32476-43.4681 43.34965-84.94573 84.48938-128.41382 127.83903.80873-.80558 1.67746-1.34685 2.51229-2.02458-.30476.30399-.61426.61216-.91901.91615-.15107.15504-3.50622 3.54049-6.27353 10.8013-2.76729 7.26082-4.90779 20.01808-13.45548 28.36908-7.31413 7.54902-5.23515 13.6581-1.73836 18.43131 2.97287 4.05819 12.41827 9.95757 17.66591 4.92257 9.86087-9.08286 18.4902-9.7327 26.91073-12.70579 3.22512-.76112 6.38873-2.20039 9.39142-4.23403-.46393.50935-.84038 1.07595-1.33649 1.55971.64853-.64441 1.30816-1.28097 1.95669-1.92537.26548-.19056.54846-.30175.81033-.50463 16.36619-16.26125 33.68622-33.63236 50.89772-50.8663 26.02924-25.83771 92.13575-91.72982 91.42179-91.8903 3.88529-9.49143-4.51242-21.95486-9.90397-26.96504-5.50167-5.11255-16.70604-15.23487-26.30496-14.80241z" opacity=".079"/>
  </g>
</svg>
