<?xml version="1.0" encoding="UTF-8" standalone="no"?>
<svg xmlns="http://www.w3.org/2000/svg" xmlns:xlink="http://www.w3.org/1999/xlink" width="125" height="126" viewBox=".378 -.411 125 126">
  <linearGradient id="c" x1="27.198" x2="35.216" y1="51.623" y2="90.618" gradientUnits="userSpaceOnUse">
    <stop offset="0" stop-color="#fff"/>
    <stop offset=".167" stop-color="#fafafb"/>
    <stop offset=".354" stop-color="#ededf1"/>
    <stop offset=".551" stop-color="#d6d6df"/>
    <stop offset=".755" stop-color="#b7b7c5"/>
    <stop offset=".962" stop-color="#8f8fa6"/>
    <stop offset="1" stop-color="#87879f"/>
  </linearGradient>
  <linearGradient id="a">
    <stop offset="0" stop-color="#fff"/>
    <stop offset="1" stop-color="#545477"/>
  </linearGradient>
  <linearGradient id="d" x1="33.332" x2="33.332" y1="10.305" y2="91.408" gradientUnits="userSpaceOnUse" xlink:href="#a"/>
  <linearGradient id="e" x1="31.775" x2="32.56" y1="59.921" y2="162.325" gradientUnits="userSpaceOnUse" xlink:href="#a"/>
  <linearGradient id="f" x1="51.968" x2="43.654" y1="98.746" y2="71.244" gradientUnits="userSpaceOnUse">
    <stop offset="0" stop-color="#fff"/>
    <stop offset=".147" stop-color="#f6f6f8"/>
    <stop offset=".382" stop-color="#dfdfe6"/>
    <stop offset=".675" stop-color="#b9b9c7"/>
    <stop offset="1" stop-color="#87879f"/>
  </linearGradient>
  <linearGradient id="g" x1="59.658" x2="59.658" y1="81.635" y2="126.958" gradientUnits="userSpaceOnUse">
    <stop offset="0" stop-color="#ffff42"/>
    <stop offset="1" stop-color="#ff8300"/>
  </linearGradient>
  <linearGradient id="h" x1="59.819" x2="59.819" y1="132.788" y2="77.71" gradientUnits="userSpaceOnUse">
    <stop offset="0" stop-color="#744426"/>
    <stop offset="1" stop-color="#de972b"/>
  </linearGradient>
  <linearGradient id="i" x1="59.27" x2="59.27" y1="108.168" y2="75.704" gradientUnits="userSpaceOnUse">
    <stop offset="0" stop-color="#ffca21"/>
    <stop offset="1" stop-color="#cd5800"/>
  </linearGradient>
  <linearGradient id="b">
    <stop offset="0" stop-color="#fff042"/>
    <stop offset="1" stop-color="#ff8300"/>
  </linearGradient>
  <linearGradient id="j" x1="60.141" x2="60.12" y1="111.697" y2="84.805" gradientUnits="userSpaceOnUse" xlink:href="#b"/>
  <linearGradient id="k" x1="67.614" x2="67.614" y1="77.2" y2="127.211" gradientUnits="userSpaceOnUse" xlink:href="#b"/>
  <radialGradient id="l" cx="-1848.89" cy="3795.78" r="10.854" gradientTransform="matrix(.7071 .7071 -.7071 .7071 4056.03 -1260.95)" gradientUnits="userSpaceOnUse" xlink:href="#b"/>
  <radialGradient id="m" cx="-1847.93" cy="3778.9" r="12.426" gradientTransform="matrix(.7071 .7071 -.7071 .7071 4056.03 -1260.95)" gradientUnits="userSpaceOnUse" xlink:href="#b"/>
  <g transform="matrix(1.498618 0 0 1.498618 .621374 -63.11986)">
    <path fill="url(#c)" d="m65.983 93.86-18.22-18.22c3.512-8.759 1.84-19.003-5.093-25.937-7.071-7.069-17.579-8.671-26.448-4.884l14.893 14.891-14.375 14.375-14.414-14.416c-2.98 8.519-1.175 18.232 5.486 24.892 6.66 6.66 16.373 8.467 24.891 5.487l18.546 18.546z"/>
    <path fill="none" d="m19.761 74.757 12.189-12.188-1.847-1.847-12.188 12.188z"/>
    <path fill="url(#d)" d="m43.35 49.022c-7.167-7.165-17.963-9.162-27.504-5.088-.294.125-.507.389-.567.702-.061.313.039.637.265.863 0 0 12.971 12.972 14.211 14.211-1.173 1.173-11.84 11.841-13.015 13.014-1.234-1.235-13.735-13.734-13.735-13.734-.234-.235-.571-.332-.894-.258-.18.041-.34.132-.466.258-.101.101-.179.223-.228.363-3.225 9.218-1.035 19.139 5.715 25.889 6.606 6.606 16.251 8.831 25.302 5.897.792.793 18.136 18.135 18.136 18.135.375.376.983.376 1.359 0l14.735-14.733c.375-.375.375-.985 0-1.361 0 0-16.959-16.959-17.79-17.789 3.443-9.242 1.317-19.525-5.524-26.369zm-1.361 1.363c6.445 6.445 8.362 16.219 4.88 24.896-.143.358-.06.768.213 1.039 0 0 16.259 16.26 17.541 17.54-1.179 1.178-12.196 12.195-13.374 13.371-1.282-1.28-17.865-17.863-17.865-17.863-.261-.262-.65-.35-.999-.228-8.515 2.978-17.671.962-23.894-5.26-5.861-5.86-7.986-14.324-5.722-22.405 1.912 1.912 13.292 13.291 13.292 13.291.376.375.985.375 1.361 0l14.374-14.374c.376-.376.376-.985 0-1.361 0 0-12.036-12.036-13.845-13.845 8.468-3.038 17.766-1.075 24.038 5.199z"/>
    <path fill="url(#e)" d="m44.354 74.498c2.977-7.427 1.56-16.112-4.319-21.993-4.641-4.64-11.026-6.499-17.163-5.614l10.517 10.517c1.278 1.279 1.278 3.351 0 4.629l-14.042 14.044c-1.278 1.277-3.352 1.277-4.629 0l-9.99-9.992c-.497 5.764 1.409 11.634 5.75 15.976 5.647 5.646 13.884 7.178 21.106 4.652l19.678 19.679 7.833-17.156z"/>
    <path fill="url(#f)" d="m56.769 105.303c-.64.64-1.674.64-2.314 0l-18.041-18.042c-.638-.64-.638-1.675 0-2.313l6.575-6.577c.64-.639 1.675-.639 2.315 0l18.041 18.043c.639.639.639 1.675 0 2.313z"/>
    <path fill="url(#g)" d="m78.431 102.573-23.154-23.155-18.15 18.148 23.155 23.154c5.012 5.012 13.137 5.012 18.148 0s5.011-13.136.001-18.147z"/>
    <path fill="url(#h)" d="m56.065 78.63c-.435-.437-1.14-.437-1.578 0l-18.147 18.149c-.436.436-.436 1.142 0 1.577l23.153 23.154c5.438 5.438 14.286 5.438 19.726-.001 5.438-5.439 5.438-14.287 0-19.727zm21.577 24.731c4.568 4.568 4.568 12.003 0 16.571-4.568 4.569-12.002 4.568-16.57 0 0 0-20.846-20.847-22.366-22.366 1.379-1.377 15.193-15.192 16.571-16.57 1.519 1.52 22.365 22.365 22.365 22.365z"/>
    <path fill="url(#i)" d="m74.268 106.506c1.005 1.006 1.719 2.192 2.143 3.455.042-2.332-.826-4.677-2.605-6.455l-19.087-19.087-12.59 12.59 4.241 4.241 11.32-11.321z"/>
    <path fill="url(#j)" d="m73.805 116.096c1.699-1.697 2.564-3.91 2.605-6.135-.424-1.263-1.138-2.449-2.143-3.455l-19.087-19.087-11.32 11.32 17.355 17.357c3.477 3.477 9.114 3.477 12.59 0z"/>
    <path fill="url(#k)" d="m74.6 117.055c-3.857 3.856-10.112 3.856-13.97-.001s-3.858-10.113 0-13.971 10.113-3.858 13.97 0c3.858 3.858 3.858 10.113 0 13.972z"/>
    <path fill="url(#l)" d="m73.248 115.701c-2.363 2.364-6.199 2.364-8.563 0-2.366-2.363-2.365-6.198 0-8.563 2.363-2.364 6.199-2.365 8.563 0s2.364 6.2 0 8.563z"/>
    <path fill="url(#m)" d="m71.67 114.124c-1.492 1.493-3.913 1.493-5.407-.001-1.493-1.493-1.493-3.914 0-5.407 1.494-1.492 3.915-1.492 5.407 0 1.494 1.493 1.494 3.914 0 5.408z"/>
  </g>
</svg>
