<?xml version="1.0" encoding="UTF-8" standalone="no"?>
<svg xmlns="http://www.w3.org/2000/svg" xmlns:xlink="http://www.w3.org/1999/xlink" width="128" height="128" version="1.0">
  <defs>
    <linearGradient id="c">
      <stop offset="0" stop-color="#ff3600" stop-opacity=".94117647"/>
      <stop offset=".5" stop-color="#ff0100"/>
      <stop offset="1" stop-color="#ff0100"/>
    </linearGradient>
    <linearGradient id="b">
      <stop offset="0" stop-color="#fff" stop-opacity="0"/>
      <stop offset=".5" stop-color="#fff" stop-opacity="0"/>
      <stop offset="1" stop-color="#fff" stop-opacity=".49484536"/>
    </linearGradient>
    <linearGradient id="a">
      <stop offset="0" stop-color="#7f7f7f"/>
      <stop offset=".44999999" stop-opacity="0"/>
      <stop offset="1" stop-color="#a0a0a0"/>
    </linearGradient>
    <linearGradient xlink:href="#a" id="h" x1="82.214088" x2="82.029289" y1="117.69327" y2="27.063993" gradientUnits="userSpaceOnUse"/>
    <linearGradient xlink:href="#b" id="g" x1="82.214088" x2="82.029289" y1="117.69327" y2="27.063993" gradientUnits="userSpaceOnUse"/>
    <linearGradient xlink:href="#c" id="f" x1="82.214088" x2="82.029289" y1="117.69327" y2="27.063993" gradientUnits="userSpaceOnUse"/>
    <filter id="e">
      <feGaussianBlur stdDeviation="2.1755102"/>
    </filter>
  </defs>
  <g transform="translate(-41.257984 -21.57248)">
    <use xlink:href="#d" width="128" height="128" filter="url(#e)" transform="translate(1.5613062 1.4152334)"/>
    <path fill="#790000" fill-rule="evenodd" d="m44.002789 53.027702.706588-28.029197 78.281293.021262 1.02388 27.045016-9.95867-.039311c.19656-8.452088-4.17172-13.968391-8.87423-13.968391l-11.626012.005299-.057427 66.37017c-.041078 2.87548 1.763673 4.60487 4.721311 4.60487h7.803238l-.03933 9.99014-44.948489-.00177-.000001-9.98837h8.423203c2.460273 0 4.272081-1.98126 4.272081-4.60487l.003114-66.414781-10.16133-.032246c-4.450776 0-9.583608.9045-9.583608 15.081492l-9.985611-.039313z"/>
    <path fill="url(#f)" fill-rule="evenodd" d="m45.64667 50.986749.386769-24.223633 75.727641-.013619.74612 23.788861-6.94093-.085368c0-10.627322-5.05732-13.95586-12.17535-13.95586l-11.102225.162548-.134189 68.269962c0 3.44691 2.724468 5.48813 5.80061 5.59932h6.925104l-.14765 6.84982-42.12476-.00177.046057-6.84805h7.051434c3.125139 0 5.424357-2.00607 5.424357-5.59932l.277592-68.408043-10.492917.059867c-6.291596 0-12.611346 1.984659-12.611346 14.389002l-6.656317.016283z"/>
    <path fill="url(#g)" fill-rule="evenodd" d="m47.147752 49.096498.49796-20.795782 72.903438-.293234.47768 21.226834-4.20257-.039311c0-10.627322-6.47256-14.113108-13.59059-14.113108l-12.360208.005299.324187 23.550218c0 12.752622.954977 14.164669.954977 29.443579l.00188 16.330557c0 3.44339 3.038964 5.75584 6.115106 5.86703l6.610608.09313-.14765 6.37807-42.12476-.00177.046057-6.46609 7.051434-.03153c3.282092-.11119 5.109861-2.24293 5.109861-5.94974l-.030406-15.866679c0-12.898184 1.852123-15.116322 1.852123-29.584007l.123744-23.662662-11.679503-.051324c-6.291596 0-14.33481 2.654921-14.33481 13.999833l-3.598558-.039313z"/>
  </g>
  <use xlink:href="#d" width="128" height="128" filter="url(#e)" transform="translate(1.5613062 1.4152334)"/>
  <path id="d" fill="#000" fill-opacity="1" fill-rule="evenodd" stroke="none" stroke-dasharray="none" stroke-linecap="butt" stroke-linejoin="miter" stroke-miterlimit="4" stroke-opacity="1" stroke-width=".1" d="m44.002789 53.027702.706588-28.029197 78.281293.021262 1.02388 27.045016-9.95867-.039311c.19656-8.452088-4.17172-13.968391-8.87423-13.968391l-11.626012.005299-.057427 65.74118c-.041078 2.87548 1.606425 5.25192 4.564063 5.25192l7.960486-.01806-.03933 9.99014-44.948489-.00177-.000001-10.01139 8.265955.01452c2.460273 0 4.429329-2.12275 4.429329-5.22536l.003114-65.785791-10.16133-.032246c-4.806162.164313-9.076539 3.696593-9.405166 7.64011-.33004 3.960479-.178442 7.441382-.178442 7.441382l-9.985611-.039313z" display="inline"/>
  <path fill="url(#h)" fill-rule="evenodd" d="m47.147752 49.096498.49796-21.739271 72.903438-.293234.47768 22.170323-4.20257-.039311c0-10.627322-6.47256-14.113108-13.59059-14.113108l-12.360208.005299.324187 23.550218c0 12.752622.954977 14.164669.954977 29.443579l.00188 16.330547c0 3.60795 2.409972 5.75585 5.486114 5.86704l7.2396.09313-.14765 7.32156-42.12476-.00177.046057-7.40958 7.051434-.03153c3.282092-.11119 5.109861-2.44653 5.109861-5.83885l-.030406-15.977569c0-12.898184 1.852123-15.116322 1.852123-29.584007l.123744-23.662662-11.679503-.051324c-6.291596 0-14.33481 2.654921-14.33481 13.999833l-3.598558-.039313z"/>
</svg>