<?xml version="1.0" encoding="UTF-8" standalone="no"?>
<svg xmlns="http://www.w3.org/2000/svg" xmlns:xlink="http://www.w3.org/1999/xlink" width="240" height="240">
  <defs>
    <linearGradient id="a">
      <stop offset="0" stop-color="#e49200"/>
      <stop offset="1" stop-color="#b64900"/>
    </linearGradient>
    <linearGradient id="c">
      <stop offset="0" stop-color="#ffff7a"/>
      <stop offset="1" stop-color="#fff"/>
    </linearGradient>
    <linearGradient id="d">
      <stop offset="0" stop-color="#ed9600"/>
      <stop offset=".82647121" stop-color="#f9fc00"/>
      <stop offset="1" stop-color="#fff"/>
    </linearGradient>
    <linearGradient id="b">
      <stop offset="0" stop-color="#ed9600"/>
      <stop offset=".5" stop-color="#f9fc00"/>
      <stop offset="1" stop-color="#fff"/>
    </linearGradient>
    <linearGradient xlink:href="#a" id="o" x1="45.081848" x2="192.26929" y1="101.5916" y2="198.07941" gradientTransform="translate(-.00001)" gradientUnits="userSpaceOnUse"/>
    <linearGradient xlink:href="#b" id="n" x1="113.84724" x2="5.1079741" y1="149.38487" y2="79.822487" gradientTransform="translate(-6.3e-7 11.857147)" gradientUnits="userSpaceOnUse"/>
    <linearGradient xlink:href="#b" id="m" x1="241.53654" x2="113.84724" y1="102.32249" y2="149.38487" gradientTransform="translate(-6.3e-7 11.857147)" gradientUnits="userSpaceOnUse"/>
    <linearGradient xlink:href="#c" id="l" x1="113.84724" x2="113.4901" y1="149.38487" y2="231.62489" gradientTransform="translate(-6.3e-7 11.857147)" gradientUnits="userSpaceOnUse"/>
    <linearGradient xlink:href="#b" id="k" x1="58.409653" x2="113.4901" y1="130.4231" y2="236.17059" gradientTransform="translate(-6.3e-7 11.857147)" gradientUnits="userSpaceOnUse"/>
    <linearGradient xlink:href="#d" id="j" x1="196.07515" x2="114.16392" y1="111.45776" y2="230.88689" gradientTransform="translate(-6.3e-7 11.857147)" gradientUnits="userSpaceOnUse"/>
    <linearGradient xlink:href="#b" id="i" x1="227.41867" x2="115.25156" y1="73.670586" y2="32.751423" gradientTransform="translate(-6.3e-7 11.857147)" gradientUnits="userSpaceOnUse"/>
    <linearGradient xlink:href="#b" id="h" x1="169.16635" x2="24.204382" y1="35.277706" y2="52.956299" gradientTransform="translate(-6.3e-7 11.857147)" gradientUnits="userSpaceOnUse"/>
    <linearGradient xlink:href="#b" id="g" x1="129.03654" x2="113.4063" y1="126.6082" y2="207.65337" gradientTransform="translate(-6.3e-7 11.857147)" gradientUnits="userSpaceOnUse"/>
    <linearGradient xlink:href="#b" id="f" x1="129.39369" x2="198.76927" y1="39.822491" y2="188.68802" gradientTransform="translate(-6.3e-7 11.857147)" gradientUnits="userSpaceOnUse"/>
    <linearGradient xlink:href="#b" id="e" x1="44.11451" x2="138.1279" y1="87.305046" y2="131.65895" gradientTransform="translate(-6.3e-7 11.857147)" gradientUnits="userSpaceOnUse"/>
  </defs>
  <g transform="translate(0 -11.857147)">
    <path fill="url(#e)" d="m126.24339 56.401689-.33991 82.595341-81.161552 45.18993.339899-82.59536z" color="#000" overflow="visible" style="marker:none"/>
    <path fill="url(#f)" d="m126.24339 56.401685 66.36575 59.082355-.33989 82.59536-66.36576-59.08236z" color="#000" overflow="visible" style="marker:none"/>
    <path fill="url(#g)" d="m125.9035 138.99704 66.36575 59.08236-81.16156 45.18993-66.365762-59.08237z" color="#000" overflow="visible" style="marker:none"/>
    <path fill="url(#h)" d="m126.24339 56.401685-18.9488-32.690267-81.16155 45.189924L45.081827 101.5916z" color="#000" overflow="visible" style="marker:none"/>
    <path fill="url(#i)" d="m126.24339 56.401685 66.36575 59.082355 26.9262-26.868579-66.36576-59.082365z" color="#000" overflow="visible" style="marker:none"/>
    <path fill="url(#j)" d="m111.44759 160.67396 81.16157-45.18991-.3399 82.59535-81.16157 45.18993" color="#000" overflow="visible" style="marker:none"/>
    <path fill="url(#k)" d="m111.10769 243.26933-66.365762-59.08237.339901-82.59536 66.365761 59.08236" color="#000" overflow="visible" style="marker:none"/>
    <path fill="none" stroke="url(#l)" stroke-linecap="round" stroke-width="4" d="m111.10769 238.94312.3399-78.26916"/>
    <path fill="url(#m)" d="m232.97156 115.88394-40.36242-.3999-81.16155 45.18992 40.3624.3999z" color="#000" overflow="visible" style="marker:none"/>
    <path fill="url(#n)" d="M7.9586824 94.470329 74.324432 153.55268l37.123158 7.12128-66.365763-59.08236z" color="#000" overflow="visible" style="marker:none"/>
    <path fill="none" stroke="url(#o)" stroke-miterlimit="1.60000002" stroke-width="4" d="m44.13141 126.67327 30.19298 26.87941 37.12316 7.12128-66.36576-59.08236-37.12315-7.12127 36.17277 32.20294m188.84011-10.78932-40.36242-.3999-81.16155 45.18991 40.3624.3999zM111.10765 243.26933l-66.36576-59.08237m.3399-82.59536 66.36576 59.08236m0 0 81.16157-45.1899m-.0916 22.26528-.24827 60.33006-81.16157 45.18993m15.1357-186.867639 66.36575 59.082359 26.9262-26.86858-66.36576-59.082368zm0 0-18.94883-32.690267L26.133 68.901348 45.08179 101.5916zm0 0 66.36575 59.082359m-90.17746 36.58184 23.47181-13.06886 9.5406 8.13025M45.08182 101.5916l81.16156-45.189905M192.26924 198.0794l-81.16156 45.18993-66.36576-59.08237-.61051-57.51369" color="#000" overflow="visible" style="marker:none"/>
  </g>
</svg>