<?xml version="1.0" encoding="UTF-8" standalone="no"?>
<svg xmlns="http://www.w3.org/2000/svg" xmlns:xlink="http://www.w3.org/1999/xlink" width="192" height="192" viewBox="0 0 144 144">
  <linearGradient id="e" x1="42.672" x2="104.758" y1="11.691" y2="11.691" gradientUnits="userSpaceOnUse">
    <stop offset="0" stop-color="#ffae00"/>
    <stop offset="1" stop-color="#4c1c00"/>
  </linearGradient>
  <linearGradient id="a">
    <stop offset="0" stop-color="#fff"/>
    <stop offset=".303" stop-color="#ccf0ff"/>
    <stop offset="1" stop-color="#1d6ce9"/>
  </linearGradient>
  <radialGradient id="f" cx="110.035" cy="130.73" r="11.007" gradientUnits="userSpaceOnUse" xlink:href="#a"/>
  <linearGradient id="g" x1="97.35" x2="122.72" y1="110.153" y2="110.153" gradientUnits="userSpaceOnUse">
    <stop offset="0" stop-color="#74c0ff"/>
    <stop offset=".629" stop-color="#001eb1"/>
    <stop offset=".989" stop-color="#00006a"/>
  </linearGradient>
  <radialGradient id="h" cx="110.035" cy="100.626" r="55.492" gradientUnits="userSpaceOnUse" xlink:href="#a"/>
  <linearGradient id="b">
    <stop offset="0" stop-color="#fff"/>
    <stop offset="1" stop-color="#4b4b73"/>
  </linearGradient>
  <radialGradient id="i" cx="38.726" cy="50.551" r="76.416" gradientUnits="userSpaceOnUse" xlink:href="#b"/>
  <linearGradient id="j" x1="38.285" x2="74.273" y1="50.783" y2="118.201" gradientUnits="userSpaceOnUse" xlink:href="#b"/>
  <radialGradient id="k" cx="29.608" cy="53.241" r="56.946" gradientUnits="userSpaceOnUse" xlink:href="#b"/>
  <linearGradient id="l" x1="23.138" x2="41.901" y1="39.064" y2="62.578" gradientUnits="userSpaceOnUse" xlink:href="#b"/>
  <linearGradient id="m" x1="28.756" x2="55.635" y1="37.102" y2="76.968" gradientUnits="userSpaceOnUse" xlink:href="#b"/>
  <linearGradient id="c">
    <stop offset="0" stop-color="#fff"/>
    <stop offset="1" stop-color="#8c8ca4"/>
  </linearGradient>
  <linearGradient id="n" x1="38.727" x2="70.644" y1="73.028" y2="73.028" gradientUnits="userSpaceOnUse" xlink:href="#c"/>
  <linearGradient id="o" x1="46.663" x2="55.174" y1="71.695" y2="79.97" gradientUnits="userSpaceOnUse" xlink:href="#b"/>
  <linearGradient id="p" x1="56.37" x2="101.64" y1="65.24" y2="65.24" gradientUnits="userSpaceOnUse" xlink:href="#b"/>
  <linearGradient id="q" x1="65.816" x2="80.947" y1="56.884" y2="77.815" gradientUnits="userSpaceOnUse" xlink:href="#b"/>
  <linearGradient id="r" x1="69.37" x2="84.338" y1="54.267" y2="70.067" gradientUnits="userSpaceOnUse" xlink:href="#b"/>
  <linearGradient id="s" x1="59.347" x2="90.055" y1="20.87" y2="37.903" gradientUnits="userSpaceOnUse" xlink:href="#b"/>
  <linearGradient id="d">
    <stop offset="0" stop-color="#ffff62"/>
    <stop offset="1" stop-color="#ffac00"/>
  </linearGradient>
  <linearGradient id="t" x1="79.093" x2="101.992" y1="14.157" y2="14.157" gradientUnits="userSpaceOnUse" xlink:href="#d"/>
  <linearGradient id="u" x1="76.011" x2="124.979" y1="77.68" y2="77.68" gradientUnits="userSpaceOnUse" xlink:href="#c"/>
  <linearGradient id="v" x1="88.686" x2="134.44" y1="57.699" y2="103.454" gradientUnits="userSpaceOnUse" xlink:href="#c"/>
  <linearGradient id="w" x1="52.352" x2="110.792" y1="31.547" y2="79.114" gradientUnits="userSpaceOnUse" xlink:href="#b"/>
  <linearGradient id="x" x1="85.53" x2="117.243" y1="83.711" y2="85.07" gradientUnits="userSpaceOnUse" xlink:href="#b"/>
  <linearGradient id="y" x1="100.879" x2="123.167" y1="77.68" y2="77.68" gradientUnits="userSpaceOnUse" xlink:href="#b"/>
  <linearGradient id="z" x1="68.712" x2="72.602" y1="12.969" y2="12.969" gradientUnits="userSpaceOnUse" xlink:href="#d"/>
  <linearGradient id="A" x1="45.39" x2="56.725" y1="14.873" y2="14.873" gradientUnits="userSpaceOnUse" xlink:href="#d"/>
  <linearGradient id="B" x1="49.668" x2="49.672" y1="15.467" y2="15.467" gradientUnits="userSpaceOnUse" xlink:href="#d"/>
  <linearGradient id="C" x1="63.064" x2="92.832" y1="27.059" y2="27.059" gradientUnits="userSpaceOnUse" xlink:href="#c"/>
  <linearGradient id="D" x1="72.987" x2="85.942" y1="35.053" y2="33.614" gradientUnits="userSpaceOnUse" xlink:href="#b"/>
  <radialGradient id="E" cx="73.898" cy="8.462" r="12.145" gradientUnits="userSpaceOnUse">
    <stop offset=".005" stop-color="#ffffe1"/>
    <stop offset=".094" stop-color="#fff5c2"/>
    <stop offset=".347" stop-color="#ffdb70"/>
    <stop offset=".555" stop-color="#ffc834"/>
    <stop offset=".707" stop-color="#ffbc0e"/>
    <stop offset=".787" stop-color="#ffb800"/>
    <stop offset=".811" stop-color="#fdb200"/>
    <stop offset=".928" stop-color="#f59a00"/>
    <stop offset="1" stop-color="#f29100"/>
  </radialGradient>
  <linearGradient id="F" x1="108.501" x2="108.501" y1="22.7" y2="37.849" gradientTransform="matrix(.7547 -.6561 .6561 .7547 -22.6927 62.4576)" gradientUnits="userSpaceOnUse">
    <stop offset="0" stop-color="#fff"/>
    <stop offset=".148" stop-color="#ffefc6"/>
    <stop offset=".319" stop-color="#ffdf8a"/>
    <stop offset=".484" stop-color="#ffd159"/>
    <stop offset=".639" stop-color="#ffc632"/>
    <stop offset=".781" stop-color="#ffbe17"/>
    <stop offset=".906" stop-color="#ffba06"/>
    <stop offset="1" stop-color="#ffb800"/>
  </linearGradient>
  <linearGradient id="G" x1="68.713" x2="72.602" y1="9.589" y2="9.589" gradientUnits="userSpaceOnUse" xlink:href="#d"/>
  <linearGradient id="H" x1="44.743" x2="74.69" y1="11.219" y2="11.219" gradientUnits="userSpaceOnUse" xlink:href="#d"/>
  <linearGradient id="I" x1="49.672" x2="72.602" y1="10.001" y2="10.001" gradientUnits="userSpaceOnUse" xlink:href="#d"/>
  <linearGradient id="J" x1="45.39" x2="56.726" y1="9.774" y2="9.774" gradientUnits="userSpaceOnUse" xlink:href="#d"/>
  <linearGradient id="K" x1="102.949" x2="102.95" y1="11.789" y2="11.789" gradientUnits="userSpaceOnUse" xlink:href="#d"/>
  <linearGradient id="L" x1="104.225" x2="104.409" y1="12.986" y2="12.986" gradientUnits="userSpaceOnUse" xlink:href="#d"/>
  <linearGradient id="M" x1="50.429" x2="50.448" y1="3.933" y2="3.933" gradientUnits="userSpaceOnUse" xlink:href="#d"/>
  <g fill="none" stroke="#fff" stroke-width="0">
    <g stroke="none">
      <path d="m144 144h-144v-144h144z"/>
      <path fill="#000" d="m115.799 59.771h-12.554c-2.21-2.565-4.53-4.197-6.042-5.084 0-1.544 0-5.923 0-9.208h.629c1.501 0 2.718-1.217 2.718-2.718v-6.518c0-.721-.286-1.412-.796-1.922l-10.051-10.052c3.802 2.334 7.367 3.595 10.596 3.595 3.472 0 6.073-.995 7.731-2.957 1.114-1.318 1.728-3.058 1.728-4.897 0-.744-.125-1.315-.314-1.771.098.218.198.436.235.681-.45-2.93-3.726-8.471-12.904-8.471-1.488 0-3.461.336-5.959 1.005-1.833-3.079-5.165-5.088-8.871-5.088-3.059 0-5.913 1.359-7.851 3.614-5.42-2.96-9.578-4.463-12.371-4.463-3.091 0-5.59.284-7.638.867.049-.014.121.007.171-.004-3.815.857-6.584 4.387-6.584 8.394 0 2.528 1.08 4.917 2.963 6.555.074.064.151.125.232.181.815.567 1.754 1.064 2.79 1.479.019.007.026.008.042.014 2.434.968 5.352 1.48 8.445 1.48 2.819 0 6.539-.834 10.985-2.388.654 1.072 1.498 2.002 2.47 2.767l-9.458 9.458c-.51.51-.796 1.201-.796 1.922v4.144c-3.282-1.053-6.754-1.627-10.351-1.627-19.984 0-36.243 17.478-36.243 38.96s16.258 38.96 36.243 38.96c11.604 0 21.944-5.9 28.583-15.049.46.021.922.039 1.396.039 6.531 0 13.922-3.984 18.838-9.977v9.834c0 .721.287 1.412.796 1.922l1.343 1.343c.51.51 1.201.796 1.922.796h1.695c-1.209 3.366-2.369 6.157-3.378 8.579-2.229 5.353-3.84 9.22-3.84 14.018 0 6.995 5.69 12.685 12.685 12.685s12.685-5.69 12.685-12.685c0-4.743-1.56-8.04-3.719-12.602-1.265-2.671-2.734-5.781-4.316-9.995h9.017c.721 0 1.413-.287 1.922-.796l1.277-1.277c.51-.51.796-1.201.796-1.922v-24.923c0-6.906-6.018-16.898-16.898-16.898zm-26.491-45.055c.012-.004.025-.007.037-.011-.012.004-.024.008-.037.011zm-.649 5.653c0 .001-.001.002-.002.003 0-.001.001-.002.002-.003zm-10.917-10.02c.007-.005.015-.009.022-.014-.007.005-.015.009-.022.014zm.854-.482c.059-.029.118-.059.178-.086-.06.027-.119.057-.178.086zm1.109-.446c.017-.005.035-.008.052-.014-.017.005-.035.008-.052.014zm.969-.221c.083-.014.167-.027.251-.039-.084.011-.168.024-.251.039zm-5.695 4.4c-.009-.005-.018-.01-.026-.016.008.005.018.01.026.015zm-.869-.5c.066.038.132.075.198.113-.066-.038-.132-.075-.198-.113zm.462 5.597c-.01.004-.021.008-.031.012.011-.004.02-.008.031-.012zm1.802 3.242c-.013-.014-.024-.027-.037-.041.013.013.024.027.037.041zm.931.844c-.023-.018-.047-.034-.069-.052.022.018.046.034.069.052zm10.143-.769c.041-.043.08-.089.12-.133-.041.044-.076.092-.118.135zm.726-.878c-.049.069-.1.135-.151.202.051-.066.102-.133.151-.202zm10.744 3.918c.461.057.922.092 1.38.092-.458 0-.919-.035-1.38-.092zm-9.171-3.92c.102.069.204.137.307.206-.103-.068-.206-.137-.307-.206zm1.098.715c.204.128.411.254.621.379-.21-.125-.417-.251-.621-.379zm1.064.641c.324.185.654.363.987.537-.333-.174-.664-.352-.987-.537zm1.336.717c.363.182.731.354 1.103.518-.372-.164-.74-.336-1.103-.518zm1.386.64c.393.166.79.32 1.19.46-.4-.14-.797-.294-1.19-.46zm1.42.538c.417.139.836.265 1.258.369-.421-.104-.841-.229-1.258-.369zm1.438.41c.438.103.877.188 1.315.247-.439-.058-.877-.144-1.315-.247zm-1.511-11.59c.28-.023.548-.037.798-.037-.25 0-.518.013-.798.037zm-5.75 1.234c.056-.016.111-.032.167-.048-.056.016-.111.032-.167.048zm.978-.277c.088-.024.176-.047.265-.071-.088.024-.177.047-.265.071zm.993-.261c.121-.03.239-.058.359-.087-.12.029-.239.057-.359.087zm.993-.236c.147-.033.291-.062.436-.092-.145.03-.289.059-.436.092zm.975-.202c.169-.032.33-.057.494-.084-.164.027-.326.052-.494.084zm.935-.157c.194-.028.376-.046.56-.065-.184.02-.366.038-.56.065zm-7.561-1.768c-.014-.015-.027-.031-.042-.046.014.015.027.031.042.046zm-.895-.826c-.027-.021-.056-.042-.084-.063.028.021.057.041.084.063zm-2.088-1.158c-.058-.021-.115-.044-.173-.063.058.02.115.042.173.063zm-1.242-.339c-.067-.012-.135-.021-.203-.031.068.01.136.019.203.031zm-6.391 1.761c-.027.023-.052.048-.079.072.027-.024.052-.048.079-.072zm-1.438 1.681c.004-.007.009-.015.013-.022-.004.007-.009.015-.013.022zm-13.059-4.381c-.245-.025-.481-.041-.705-.041.224 0 .46.015.705.041zm11.068 4.479c-.089-.05-.18-.1-.27-.15.091.05.181.1.27.15zm-.854-.471c-.114-.062-.229-.124-.345-.186.115.062.23.124.345.186zm-.896-.479c-.136-.072-.273-.142-.41-.213.137.071.274.141.41.213zm-.921-.477c-.174-.088-.35-.174-.524-.261.175.087.35.173.524.261zm-.941-.468c-.309-.15-.619-.298-.928-.441.31.143.619.291.928.441zm-1.246-.584c-.213-.097-.426-.193-.637-.286.211.092.424.189.637.286zm-.999-.439c-.195-.083-.391-.165-.584-.243.193.078.389.16.584.243zm-.956-.39c-.186-.073-.372-.144-.555-.211.184.068.369.139.555.211zm-.928-.344c-.179-.063-.356-.123-.532-.18.176.057.353.117.532.18zm-.895-.295c-.174-.053-.344-.102-.513-.148.169.046.339.095.513.148zm-.858-.24c-.17-.042-.335-.079-.5-.113.165.035.33.071.5.113zm-.813-.179c-.176-.033-.346-.056-.514-.078.168.022.338.045.514.078zm-7.74.543c-.009.001-.018.003-.026.004.009-.001.018-.003.026-.004zm.609 11.72c-.24 0-.475-.017-.706-.049.231.032.466.049.706.049zm-3.708-10.317c-.024.022-.047.045-.07.067.023-.022.046-.045.07-.067zm1.591-1.01c-.006.002-.012.004-.017.006.005-.002.011-.004.017-.006zm-.816.426c-.027.017-.054.033-.081.051.026-.018.054-.034.081-.051zm-1.459 1.31c-.001.001-.002.003-.003.005.001-.002.002-.003.003-.005zm-.5.754c-.016.029-.034.056-.05.085.016-.029.034-.057.05-.085zm-.404.88c-.018.049-.036.098-.052.148.017-.05.034-.099.052-.148zm-.272.997c-.008.045-.013.092-.021.138.007-.046.012-.092.021-.138zm4.337 6.807c.052.012.104.021.156.031-.104-.021-.209-.036-.311-.062.051.013.103.021.155.031zm18.163-1.21c.389-.141.764-.282 1.133-.422-.37.141-.743.281-1.133.422zm-10.845 2.477c.496 0 1.019-.034 1.557-.088-.538.054-1.061.088-1.557.088zm2.109-.162c.365-.047.732-.096 1.109-.163-.377.067-.743.116-1.109.163zm1.787-.296c.35-.07.7-.143 1.054-.226-.355.083-.704.156-1.054.226zm1.777-.405c.346-.088.692-.18 1.039-.278-.347.098-.692.189-1.039.278zm1.771-.489c.345-.103.688-.209 1.028-.318-.342.109-.682.215-1.028.318zm1.735-.547c.348-.116.688-.234 1.026-.353-.339.119-.677.237-1.026.353z" opacity=".2"/>
      <path fill="url(#e)" d="m104.444 13.239c.098.218.198.436.235.681-.45-2.93-3.726-8.471-12.904-8.471-1.488 0-3.461.336-5.959 1.005-1.833-3.079-5.165-5.088-8.871-5.088-3.059 0-5.913 1.359-7.851 3.614-5.42-2.96-9.578-4.463-12.371-4.463-3.091 0-5.59.284-7.638.867.049-.014.121.007.171-.004-3.815.857-6.584 4.387-6.584 8.394 0 2.528 1.08 4.917 2.963 6.555.074.064.151.125.232.181.815.567 1.754 1.064 2.79 1.479.019.007.026.008.042.014 2.434.968 5.352 1.48 8.445 1.48 2.819 0 6.539-.834 10.985-2.388 1.844 3.023 5.143 4.985 8.815 4.985 2.797 0 5.415-1.14 7.333-3.067 3.962 2.506 7.672 3.85 11.021 3.85 3.472 0 6.073-.995 7.731-2.957 1.114-1.318 1.728-3.058 1.728-4.897 0-.744-.125-1.315-.314-1.771zm-9.146 6.907c-4.146 0-8.489-2.476-11.639-4.776-1.294 2.379-3.816 3.994-6.714 3.994-3.535 0-6.501-2.406-7.372-5.666-3.725 1.442-8.738 3.069-12.428 3.069-2.761 0-5.365-.455-7.473-1.298.093.024.19.037.285.057-.096-.02-.195-.033-.289-.058-.837-.335-1.593-.732-2.249-1.188-1.24-1.078-2.029-2.695-2.029-4.504 0-2.817 1.912-5.168 4.462-5.742-.007-.012-.016-.022-.023-.034 2.085-.594 4.552-.763 6.893-.763 3.372 0 9.161 2.979 13.257 5.364 1.195-2.66 3.861-4.515 6.965-4.515 3.522 0 6.48 2.388 7.363 5.63 2.57-.792 5.523-1.548 7.468-1.548 9.27 0 10.217 6.165 10.217 6.165s1.044 5.813-6.694 5.813z"/>
      <path fill="url(#f)" d="m109.582 93.965c-4.708 16.108-9.514 21.589-9.514 29.22 0 5.505 4.462 9.967 9.966 9.967 5.505 0 9.967-4.462 9.967-9.967 0-7.875-4.974-11.251-10.419-29.22z"/>
      <path fill="url(#g)" d="m109.535 84.437 2.648 8.74c2.53 8.349 4.907 13.371 6.818 17.407 2.159 4.562 3.719 7.859 3.719 12.602 0 6.995-5.69 12.685-12.685 12.685-6.994 0-12.685-5.69-12.685-12.685 0-4.798 1.611-8.665 3.84-14.018 1.667-4.001 3.742-8.981 5.782-15.965l2.562-8.766zm.047 9.528c-4.708 16.108-9.514 21.589-9.514 29.22 0 5.505 4.462 9.967 9.966 9.967 5.505 0 9.967-4.462 9.967-9.967 0-7.875-4.974-11.251-10.419-29.22z"/>
      <path fill="url(#h)" d="m105.373 109.55c-2.103 5.049-3.492 8.384-3.492 12.276 0 .949.169 1.858.462 2.709 1.199 3.478 8.145 2.501 8.145-3.389 0-6.116 6.342-5.889 7.057-3.711-.561-1.883-1.467-3.797-2.639-6.273-1.447-3.057-3.308-7.009-5.293-12.646-1.522 4.491-2.993 8.042-4.24 11.034z"/>
      <path fill="url(#i)" d="m80.801 72.72c0 18.123-13.59 32.814-30.353 32.814-16.764 0-30.353-14.691-30.353-32.814s13.589-32.814 30.353-32.814c16.763 0 30.353 14.691 30.353 32.814z"/>
      <path fill="url(#j)" d="m83.52 72.72c0 20.016-15.01 36.242-33.524 36.242-18.515 0-33.524-16.226-33.524-36.242s15.008-36.242 33.523-36.242 33.524 16.226 33.524 36.242zm-33.072-32.814c-16.764 0-30.353 14.691-30.353 32.814s13.589 32.814 30.353 32.814c16.763 0 30.353-14.691 30.353-32.814s-13.59-32.814-30.353-32.814z"/>
      <path fill="url(#k)" d="m80.801 72.72c0 18.123-13.59 32.814-30.353 32.814-16.764 0-30.353-14.691-30.353-32.814s13.589-32.814 30.353-32.814c16.763 0 30.353 14.691 30.353 32.814z"/>
    </g>
    <path stroke="#cc6635" stroke-width="1" d="m62.921 72.72c0 7.448-5.584 13.485-12.473 13.485s-12.474-6.037-12.474-13.485c0-7.447 5.584-13.485 12.474-13.485 6.889 0 12.473 6.038 12.473 13.485z"/>
    <g stroke="none">
      <path fill="url(#l)" d="m49.995 33.759c19.984 0 36.242 17.478 36.242 38.96s-16.258 38.96-36.242 38.96-36.243-17.476-36.243-38.959 16.258-38.96 36.243-38.96zm0 2.719c-18.515 0-33.524 16.226-33.524 36.242s15.009 36.242 33.524 36.242 33.524-16.226 33.524-36.242-15.009-36.242-33.524-36.242z"/>
      <path fill="url(#m)" d="m61.05 57.011c1.146 0 2.168.718 2.557 1.795l9.593 26.598c.302.837.173 1.768-.341 2.494-.515.726-1.354 1.154-2.243 1.147l-21.015-.176c-7.655 0-13.593-8.563-13.593-15.929 0-7.692 5.533-15.929 13.769-15.929zm0 2.718s-4.708 0-11.273 0-11.05 6.876-11.05 13.211c0 6.26 5.176 13.211 10.875 13.211 3.617 0 21.042.176 21.042.176z"/>
      <path fill="url(#n)" d="m61.05 59.729s-4.708 0-11.273 0-11.05 6.876-11.05 13.211c0 6.26 5.176 13.211 10.875 13.211 3.617 0 21.042.176 21.042.176z"/>
      <path fill="#fff" d="m49.777 61.541c-3.402 0-6.161 2.346-7.75 5.422 19.717.027 0 0 19.717.027-.982-2.722-1.743-4.832-1.966-5.45-2.003 0-10.001 0-10.001 0z"/>
      <path fill="url(#o)" d="m41.76 78.053c1.674 3.524 4.817 6.286 7.841 6.286 0 0 14.453.121 18.455.154-.43-1.191-2.37-6.571-2.37-6.571s0 0-23.926.131z"/>
      <path fill="url(#p)" d="m65.882 36.704v14.973s-9.512 8.555-9.512 17.791 6.407 24.484 23.604 24.484c9.778 0 21.667-10.417 21.667-21.667 0-15.838-12.154-20.961-12.154-20.961v-14.796l-23.604.176z"/>
      <path fill="url(#q)" d="m67.882 38.689v13.876l-.661.597c-.088.08-8.851 8.086-8.851 16.305 0 8.052 5.003 20.709 18.282 22.267 5.829.684 5.829-2.066 5.829-2.066 0-3.5-6.141-5.608-9.75-8.25-4.425-3.239-5.612-7.353-5.874-10.498-.794-9.532 7.927-17.747 7.927-17.747l.281-1.849s-.265-9.701-.265-12.708c-3.061.022-3.898.05-6.918.072z"/>
      <path fill="url(#r)" d="m91.4 34.599c.514.51.803 1.205.803 1.929v13.159c3.679 2.158 12.155 8.64 12.155 22.598 0 13.133-13.408 24.385-24.385 24.385-18.155 0-26.322-15.908-26.322-27.203 0-8.648 6.984-16.415 9.512-18.944 0-1.965 0-13.819 0-13.819 0-1.493 1.205-2.707 2.698-2.718l23.604-.176c.725-.005 1.421.279 1.935.789zm-25.518 2.105v14.973s-9.512 8.555-9.512 17.791 6.407 24.484 23.604 24.484c9.778 0 21.667-10.417 21.667-21.667 0-15.838-12.154-20.961-12.154-20.961v-14.796l-23.604.176z"/>
      <path d="m92.833 37.76h-29.769v-6.517l14.884-14.885 14.884 14.884v6.518z"/>
      <path fill="url(#s)" d="m79.87 14.437 14.884 14.884c.51.51.796 1.201.796 1.922v6.518c0 1.501-1.217 2.718-2.718 2.718h-29.768c-1.501 0-2.718-1.217-2.718-2.718v-6.517c0-.721.286-1.412.796-1.922l14.884-14.885c1.062-1.062 2.783-1.062 3.844 0zm12.963 16.806-14.885-14.885-14.884 14.885v6.517h29.769v-6.518z"/>
      <path fill="url(#t)" d="m101.992 14.333s-.947-6.165-10.217-6.165c-4.094 0-12.682 3.347-12.682 3.347s8.467 8.631 16.205 8.631 6.694-5.813 6.694-5.813z"/>
      <path fill="url(#u)" d="m82.968 57.489h27.831c9.512 0 14.18 9.16 14.18 14.18s0 24.925 0 24.925l-1.277 1.277h-20.829l-1.343-1.343s0-13.322 0-16.14-2.851-2.852-2.851-2.852-4.789 0-15.358 0-8.807-20.047-.353-20.047z"/>
      <path fill="url(#v)" d="m82.968 57.489h27.831c9.512 0 14.18 9.16 14.18 14.18s0 24.925 0 24.925l-1.277 1.277h-20.829l-1.343-1.343s0-13.322 0-16.14-2.851-2.852-2.851-2.852-4.789 0-15.358 0-8.807-20.047-.353-20.047z"/>
      <path fill="url(#w)" d="m110.799 54.771c10.88 0 16.898 9.992 16.898 16.898v24.925c0 .721-.286 1.412-.796 1.922l-1.277 1.277c-.51.51-1.201.796-1.922.796h-20.829c-.721 0-1.412-.286-1.922-.796l-1.343-1.343c-.51-.51-.796-1.201-.796-1.922v-16.14s-.004-.043-.008-.086c-.062-.023-.124-.043-.125-.047h-15.358c-6.004 0-10.038-4.898-10.038-12.188 0-6.446 3.395-13.296 9.686-13.296h27.831zm-27.478 22.766h15.358s2.851.033 2.851 2.852v16.14l1.343 1.343h20.829l1.277-1.277s0-19.905 0-24.925-4.667-14.18-14.18-14.18c-9.864 0-19.376 0-27.831 0s-10.216 20.047.353 20.047z"/>
      <path fill="url(#x)" d="m83.609 72.668c-3.185 0-5.723-1.873-4.907-.058.747 1.66 2.115 3.114 4.619 3.114h15.358c1.887.021 4.663 1.282 4.663 4.664v15.234s.402.437.464.437h3.737c.491.016.718-.173.705-.625.035-2.944-.118-15.273-.025-15.366 0-1.412 0-4.077 0-4.077 0-3.64-1.762-3.096-10.571-3.096l-14.043-.226z"/>
      <path fill="url(#y)" d="m104.604 59.301c-2.128.079-3.725 2.03-3.725 3.538 0 1.278 1.596 3.458 3.991 3.398h2.306c3.264 0 8.581 3.772 8.581 7.154v22.386l.282.282h6.913c.104-.104.11-.111.215-.215 0-1.412 0-24.174 0-24.174 0-3.64-4.819-12.368-11.381-12.368h-7.183z"/>
      <path fill="#fff" d="m119.299 64.747c1.681 2.179 2.041 4.72.803 5.675s-3.605-.037-5.287-2.216c-1.681-2.179-2.041-4.72-.802-5.675 1.238-.955 3.604.037 5.286 2.216z" opacity=".95"/>
      <path fill="url(#z)" d="m71.771 12.81c-.245.103-.501.209-.77.319.283-.051.544-.161.77-.319z"/>
      <path fill="url(#A)" d="m47.419 14.278c.644.56 1.41.969 2.249 1.188-.837-.335-1.593-.732-2.249-1.188z"/>
      <path fill="url(#B)" d="m49.668 15.467c.001 0 .003.001.004.001-.001 0-.002 0-.004-.001z"/>
      <path fill="url(#C)" d="m92.833 37.76h-29.769v-6.517l14.884-14.885 14.884 14.884v6.518z"/>
      <path fill="url(#C)" d="m92.833 37.76h-29.769v-6.517l14.884-14.885 14.884 14.884v6.518z"/>
      <path fill="url(#D)" d="m92.833 37.76h-29.769v-6.517h29.769v6.518z"/>
      <path fill="url(#E)" d="m84.583 11.724c0 4.219-3.42 7.639-7.639 7.639s-7.639-3.42-7.639-7.639c0-4.218 3.42-7.639 7.639-7.639 4.218 0 7.639 3.42 7.639 7.639z"/>
      <path fill="url(#F)" d="m71.924 16.415c4.477 1.455 5.561-2.571 5.2-4.52-.36-1.948 1.582-5.069 5.2-4.52-2.492-2.867-6.853-3.172-9.719-.68-2.867 2.493-3.172 6.853-.68 9.72z"/>
      <path fill="url(#G)" d="m71.338 9.404c.21.126.413.25.608.369-.178-.158-.382-.284-.608-.369z"/>
      <path fill="url(#H)" d="m68.713 11.219c0 1.074.871 1.944 1.944 1.944.118 0 .231-.015.343-.035.269-.109.525-.216.77-.319.501-.352.831-.932.831-1.591 0-.577-.256-1.09-.655-1.446-.195-.119-.398-.243-.608-.369-.212-.08-.44-.129-.681-.129-1.074 0-1.944.87-1.944 1.944z"/>
      <path fill="url(#I)" d="m71.947 9.773c-.195-.119-.398-.243-.608-.369-4.069-2.452-10.852-6.168-14.616-6.168-2.341 0-4.808.169-6.893.763.007.011.016.022.023.034.389-.088.792-.136 1.205-.136 3.131 0 5.668 2.631 5.668 5.878 0 3.246-2.538 5.877-5.668 5.877-.479 0-.942-.068-1.386-.184 2.108.844 4.712 1.298 7.473 1.298 4.187 0 10.08-2.094 13.856-3.637.269-.109.525-.216.77-.319.501-.352.831-.932.831-1.591 0-.577-.256-1.09-.655-1.446z"/>
      <path fill="url(#J)" d="m56.726 9.774c0-3.247-2.538-5.878-5.668-5.878s-5.667 2.631-5.667 5.878c0 1.809.789 3.426 2.029 4.504.656.456 1.412.853 2.249 1.188.446.117.909.185 1.39.185 3.131 0 5.668-2.631 5.668-5.877z"/>
      <path fill="url(#K)" d="m102.949 11.789h.001s0 0-.001 0z"/>
      <path fill="url(#L)" d="m104.225 12.834c.067.099.13.195.184.303-.054-.117-.122-.203-.184-.303z"/>
      <path fill="url(#M)" d="m50.448 3.932c-.007 0-.013.002-.02.003.006 0 .013-.002.02-.003z"/>
    </g>
  </g>
</svg>
