<?xml version="1.0" encoding="UTF-8" standalone="no"?>
<svg xmlns="http://www.w3.org/2000/svg" xmlns:xlink="http://www.w3.org/1999/xlink" width="64" height="64" viewBox="0 0 125.957 125.956">
  <linearGradient id="a">
    <stop offset="0" stop-color="#ffffe1"/>
    <stop offset="1" stop-color="#ffb800"/>
  </linearGradient>
  <linearGradient id="I" x1="7.702" x2="22.609" y1="84.978" y2="84.978" gradientTransform="matrix(.9993 .037 -.037 .9993 -1.43 1.8062)" gradientUnits="userSpaceOnUse" xlink:href="#a"/>
  <linearGradient id="H" x1="12.874" x2="25.477" y1="73.301" y2="73.301" gradientTransform="matrix(.9993 .037 -.037 .9993 -1.43 1.8062)" gradientUnits="userSpaceOnUse" xlink:href="#a"/>
  <linearGradient id="b">
    <stop offset="0" stop-color="#ffae00"/>
    <stop offset="1" stop-color="#4c1c00"/>
  </linearGradient>
  <linearGradient id="G" x1="13.602" x2="44.329" y1="74.08" y2="74.08" gradientTransform="matrix(.9993 .037 -.037 .9993 -1.43 1.8062)" gradientUnits="userSpaceOnUse" xlink:href="#b"/>
  <linearGradient id="F" x1=".209" x2="31.506" y1="76.534" y2="76.534" gradientUnits="userSpaceOnUse" xlink:href="#b"/>
  <linearGradient id="E" x1="26.926" x2="41.834" y1="101.84" y2="101.84" gradientTransform="matrix(.9993 .037 -.037 .9993 -1.43 1.8062)" gradientUnits="userSpaceOnUse" xlink:href="#a"/>
  <linearGradient id="D" x1="32.098" x2="44.701" y1="90.161" y2="90.161" gradientTransform="matrix(.9993 .037 -.037 .9993 -1.43 1.8062)" gradientUnits="userSpaceOnUse" xlink:href="#a"/>
  <linearGradient id="C" x1="32.826" x2="63.554" y1="90.94" y2="90.94" gradientTransform="matrix(.9993 .037 -.037 .9993 -1.43 1.8062)" gradientUnits="userSpaceOnUse" xlink:href="#b"/>
  <linearGradient id="B" x1="18.796" x2="50.093" y1="94.095" y2="94.095" gradientUnits="userSpaceOnUse" xlink:href="#b"/>
  <linearGradient id="A" x1="47.275" x2="62.183" y1="118.819" y2="118.819" gradientTransform="matrix(.9993 .037 -.037 .9993 -1.43 1.8062)" gradientUnits="userSpaceOnUse" xlink:href="#a"/>
  <linearGradient id="z" x1="52.447" x2="65.05" y1="107.14" y2="107.14" gradientTransform="matrix(.9993 .037 -.037 .9993 -1.43 1.8062)" gradientUnits="userSpaceOnUse" xlink:href="#a"/>
  <linearGradient id="y" x1="53.175" x2="83.903" y1="107.92" y2="107.92" gradientTransform="matrix(.9993 .037 -.037 .9993 -1.43 1.8062)" gradientUnits="userSpaceOnUse" xlink:href="#b"/>
  <linearGradient id="x" x1="38.503" x2="69.8" y1="111.814" y2="111.814" gradientUnits="userSpaceOnUse" xlink:href="#b"/>
  <linearGradient id="c">
    <stop offset="0" stop-color="#fff"/>
    <stop offset="1" stop-color="#4b4b73"/>
  </linearGradient>
  <linearGradient id="w" x1="85.87" x2="85.87" y1="20.898" y2="106.563" gradientUnits="userSpaceOnUse" xlink:href="#c"/>
  <linearGradient id="v" x1="20.673" x2="81.651" y1="47.14" y2="136.008" gradientUnits="userSpaceOnUse" xlink:href="#c"/>
  <linearGradient id="u" x1="96.926" x2="90.117" y1="91.38" y2="71.006" gradientUnits="userSpaceOnUse">
    <stop offset="0" stop-color="#fff"/>
    <stop offset=".102" stop-color="#dcdce4"/>
    <stop offset=".251" stop-color="#b0b0c2"/>
    <stop offset=".402" stop-color="#8c8ca5"/>
    <stop offset=".552" stop-color="#6f6f8f"/>
    <stop offset=".702" stop-color="#5b5b80"/>
    <stop offset=".852" stop-color="#4f4f76"/>
    <stop offset="1" stop-color="#4b4b73"/>
  </linearGradient>
  <linearGradient id="t" x1="66.249" x2="69.04" y1="36.283" y2="118.635" gradientUnits="userSpaceOnUse" xlink:href="#c"/>
  <linearGradient id="s" x1="115.064" x2="67.66" y1="88.609" y2="106.86" gradientUnits="userSpaceOnUse" xlink:href="#c"/>
  <linearGradient id="r" x1="-46.78" x2="119.894" y1="-14.248" y2="114.79" gradientUnits="userSpaceOnUse">
    <stop offset="0" stop-color="#fff"/>
    <stop offset="1" stop-color="#36364c"/>
  </linearGradient>
  <linearGradient id="q" x1="61.862" x2="89.894" y1="46.98" y2="46.98" gradientUnits="userSpaceOnUse" xlink:href="#b"/>
  <linearGradient id="p" x1="75.943" x2="89.891" y1="52.278" y2="52.278" gradientUnits="userSpaceOnUse" xlink:href="#b"/>
  <linearGradient id="o" x1="60.129" x2="73.165" y1="40.611" y2="40.611" gradientTransform="matrix(1.0736 -.0537 .0541 1.082 2.6032 6.2865)" gradientUnits="userSpaceOnUse" xlink:href="#a"/>
  <linearGradient id="n" x1="67.165" x2="82.073" y1="57.44" y2="57.44" gradientUnits="userSpaceOnUse" xlink:href="#a"/>
  <linearGradient id="m" x1="84.361" x2="112.392" y1="63.923" y2="63.923" gradientUnits="userSpaceOnUse" xlink:href="#b"/>
  <linearGradient id="l" x1="98.441" x2="112.388" y1="69.223" y2="69.223" gradientUnits="userSpaceOnUse" xlink:href="#b"/>
  <linearGradient id="k" x1="80.245" x2="93.282" y1="57.27" y2="57.27" gradientTransform="matrix(1.0736 -.0537 .0541 1.082 2.6032 6.2865)" gradientUnits="userSpaceOnUse" xlink:href="#a"/>
  <linearGradient id="j" x1="88.788" x2="103.695" y1="75.485" y2="75.485" gradientUnits="userSpaceOnUse" xlink:href="#a"/>
  <linearGradient id="i" x1="107.399" x2="135.43" y1="81.199" y2="81.199" gradientUnits="userSpaceOnUse" xlink:href="#b"/>
  <linearGradient id="h" x1="121.479" x2="135.426" y1="86.498" y2="86.498" gradientUnits="userSpaceOnUse" xlink:href="#b"/>
  <linearGradient id="g" x1="100.846" x2="113.883" y1="74.259" y2="74.259" gradientTransform="matrix(1.0736 -.0537 .0541 1.082 2.6032 6.2865)" gradientUnits="userSpaceOnUse" xlink:href="#a"/>
  <linearGradient id="f" x1="110.932" x2="125.838" y1="93.892" y2="93.892" gradientUnits="userSpaceOnUse" xlink:href="#a"/>
  <linearGradient id="e">
    <stop offset="0" stop-color="#418bde"/>
    <stop offset="1" stop-color="#001b7b"/>
  </linearGradient>
  <linearGradient id="d">
    <stop offset="0" stop-color="#fff"/>
    <stop offset="1" stop-color="#fff" stop-opacity="0"/>
  </linearGradient>
  <linearGradient id="O" x1="31.053" x2="53.82" y1="21.614" y2="60.985" gradientTransform="matrix(.987913 -.00997891 .00997891 .987913 .758045 .758039)" gradientUnits="userSpaceOnUse" xlink:href="#d"/>
  <linearGradient id="N" x1="62.997" x2="62.997" y1="167.233" y2="64.977" gradientUnits="userSpaceOnUse" xlink:href="#d"/>
  <linearGradient id="M" x1="27.003" x2="73.706" y1="26.375" y2="73.758" gradientUnits="userSpaceOnUse" xlink:href="#d"/>
  <linearGradient id="L" x1="65.084" x2="65.084" y1="14.162" y2="77.263" gradientUnits="userSpaceOnUse" xlink:href="#d"/>
  <linearGradient id="K" x1="62.977" x2="62.977" y1="181.128" y2="61.909" gradientUnits="userSpaceOnUse">
    <stop offset="0" stop-color="#a4cdec"/>
    <stop offset="1" stop-color="#0068c6"/>
  </linearGradient>
  <linearGradient id="J" x1="55.344" x2="55.344" y1="154.806" y2="41.343" gradientTransform="matrix(.987967 0 0 .987959 .758045 .758039)" gradientUnits="userSpaceOnUse" xlink:href="#e"/>
  <linearGradient id="P" x1="53.39" x2="108.45" y1="56.086" y2="56.086" gradientTransform="scale(.839987 1.190495)" gradientUnits="userSpaceOnUse" xlink:href="#e"/>
  <g fill="#fff" stroke-width="0" transform="matrix(-.639881 0 0 .639881 127.3468 33.0518)">
    <path fill="none" d="m144 144h-144v-144h144z"/>
    <path fill="#000030" d="m143.128 99.64-.018-4.848-2.863-2.229s-2.715-2.174-3.678-2.945c-.115-1.471-.55-7.043-.55-7.043l-.235-3.461-5.27-4.076-11.354-8.451-1.643.558c-1.332-1.002-2.876-2.162-4.648-3.494l-.123-1.813-5.269-4.076-11.355-8.451-1.618.55c-1.364-1.024-2.745-2.062-4.128-3.1l-.127-1.867-5.27-4.076-11.355-8.451-1.639.557c-4.434-3.347-7.516-5.689-8.004-6.101-1.182-.998-2.954-1.195-4.319-.468l.052-.027c-1.23.618-12.945 5.394-22.358 9.23-14.737 6.007-19.142 7.82-19.938 8.258-1.21.667-1.961 1.93-1.958 3.313l.038 14.949-4.259 2.067s.329 18.254.358 19.923c-1.044.514-6.213 3.059-6.213 3.059l-.326 5.436 11.341 11.096 9.795-4.847s.586-1.089.645-1.198c.087-.139 1.384-2.225 1.384-2.225s.693-4.377 1.338-8.443l.364.33c.1 5.517.24 13.291.259 14.354-1.044.514-6.214 3.059-6.214 3.059l-.326 5.436 11.34 11.096 9.796-4.848s.586-1.088.646-1.198c.086-.139 1.384-2.224 1.384-2.224s.769-4.85 1.439-9.083l1.386 1.255c.099 5.508.237 13.174.257 14.228-1.044.515-6.213 3.06-6.213 3.06l-.327 5.436 11.341 11.094 9.794-4.846s.586-1.089.646-1.199c.087-.139 1.384-2.224 1.384-2.224s.755-4.767 1.422-8.974l7.496 6.787c1.178 1.066 2.953 1.271 4.358.529l45.428-23.983c1.245-.657 1.981-1.915 1.976-3.322l-.009-1.979 7.235 5.781 8.705-5.869zm-7.683-7.289-1.607-1.286-.168-2.156.168 2.156zm-2.319-11.688-4.35-3.385-1.725-1.369v-.001l1.723 1.368z" opacity=".2"/>
    <path fill="url(#f)" d="m120.225 86.378 9.936 8.158 5.239-3.188-10.042-8.04-5.133 3.069z"/>
    <path fill="url(#g)" d="m116.955 86.945-.744-1.843-2.153-20.509 14.126 11.214-.32 17.209 1.854 4.127-12.762-10.198z"/>
    <path d="m107.397 67.259 14.082 11.236 6.8-2.682-14.231-11.07-6.65 2.516z"/>
    <path fill="url(#h)" d="m121.479 78.495 6.7-2.643 1.283 16.424.77 1.9 5.168-3.144.026 2.261-5.71 3.85-2.283-4.014-1.478-13.98-4.47 1.793-.007-2.447z"/>
    <path fill="url(#i)" d="m114.312 61.738 11.355 8.451 5.268 4.076.236 3.461s.435 5.572.55 7.045c.964.771 3.677 2.943 3.677 2.943l2.865 2.23.017 4.846-8.706 5.87-14.971-11.964-1.172-2.902s-.956-9.102-1.156-11.014c-1.429-1.141-10.541-8.412-10.541-8.412l9.291-3.514 3.287-1.117zm21.088 29.295-.224.136-6.188-4.953-.808-10.338v-.026l.098-.038-4.354-3.386-9.868-7.834.019.173-.028-.022-6.65 2.516 7.575 6.044 1.238 11.799.744 1.843 12.762 10.198 5.71-3.85-.026-2.261z"/>
    <path fill="url(#j)" d="m97.187 69.102 9.936 8.158 5.24-3.187-10.042-8.041-5.134 3.069z"/>
    <path fill="url(#k)" d="m93.917 69.669-.745-1.843-2.152-20.509 14.125 11.214-.319 17.208 1.854 4.128z"/>
    <path d="m84.359 49.983 14.082 11.236 6.8-2.681-14.23-11.07-6.651 2.515z"/>
    <path fill="url(#l)" d="m98.441 61.219 6.701-2.643 1.283 16.424.77 1.901 5.168-3.144.025 2.26-5.709 3.851-2.283-4.014-1.478-13.982-4.47 1.795-.008-2.448z"/>
    <path fill="url(#m)" d="m91.274 44.462 11.355 8.451 5.269 4.076.235 3.461s.436 5.572.551 7.043c.963.772 3.677 2.944 3.677 2.944l2.864 2.229.018 4.848-8.706 5.869-14.971-11.962-1.172-2.902s-.956-9.103-1.156-11.015c-1.43-1.14-10.542-8.412-10.542-8.412l9.291-3.514zm21.089 29.296-.225.136-6.187-4.954-.808-10.338v-.026l.097-.038-4.353-3.386-9.868-7.834.019.173-.028-.022-6.651 2.515 7.575 6.044 1.238 11.799.745 1.843 12.762 10.199 5.709-3.851z"/>
    <path fill="url(#n)" d="m74.689 52.158 9.936 8.158 5.24-3.188-10.042-8.04-5.134 3.069z"/>
    <path fill="url(#o)" d="m71.419 52.726-.744-1.843-2.152-20.509 14.125 11.214-.32 17.208 1.854 4.127z"/>
    <path d="m61.861 33.04 14.082 11.235 6.8-2.681-14.23-11.07-6.651 2.516z"/>
    <path fill="url(#p)" d="m75.943 44.275 6.701-2.642 1.283 16.424.77 1.901 5.168-3.144.026 2.26-5.71 3.85-2.283-4.013-1.478-13.982-4.47 1.794-.008-2.448z"/>
    <path fill="url(#q)" d="m68.776 27.519 11.355 8.451 5.269 4.076.236 3.461s.435 5.572.549 7.044c.965.771 3.678 2.944 3.678 2.944l2.864 2.229.018 4.846-8.706 5.87-14.972-11.963-1.171-2.902s-.956-9.103-1.156-11.015c-1.429-1.14-10.542-8.411-10.542-8.411l9.292-3.514 3.287-1.117zm21.089 29.294-.225.137-6.186-4.954-.809-10.338v-.026l.097-.038-4.353-3.386-9.868-7.834.018.173-.028-.022-6.651 2.516 7.575 6.044 1.239 11.799.744 1.843 12.762 10.198 5.71-3.85-.026-2.26z"/>
    <path d="m14.394 42.281c0 1.741.064 24.125.064 25.429.96.876 57.135 51.722 58.678 53.132 1.836-1.001 43.896-23.151 45.43-23.984 0-1.752-.104-24.117-.104-25.428-.97-.877-60.272-45.204-61.821-46.612-1.831 1.01-40.727 16.625-42.246 17.463z"/>
    <path fill="url(#r)" d="m59.132 21.975c1.323 1.115 21.635 16.364 36.467 27.499 20.898 15.688 24.934 18.731 25.399 19.152.788.713 1.239 1.741 1.245 2.804l.104 25.428c.006 1.407-.73 2.664-1.975 3.322l-45.428 23.982c-1.405.742-3.181.538-4.359-.529l-58.677-53.13c-.789-.714-1.229-1.728-1.232-2.793l-.064-25.429c-.004-1.382.747-2.646 1.958-3.313.795-.438 5.201-2.251 19.938-8.258 9.413-3.836 21.127-8.612 22.358-9.23l-.052.028c1.365-.728 3.137-.53 4.319.468zm-44.738 20.306c0 .141.064 22.524.064 25.429.96.876 57.135 51.722 58.678 53.132 1.836-1.001 43.896-23.151 45.43-23.984 0-1.752-.104-24.117-.104-25.428-.97-.877-60.272-45.204-61.821-46.612-1.831 1.01-40.727 16.625-42.246 17.463z"/>
    <path fill="url(#s)" d="m75.171 99.623-.035 18.689 41.854-21.761v-23.016l-12.977 6.604-.022 7.913-13.866 7.328.008-8.178-12.666 6.443s-1.465 1.039-1.896 2.812c-.43 1.774-.398 3.166-.398 3.166z"/>
    <path fill="url(#t)" d="m56.64 26.086 60.35 45.716-13.322 7.138s-7.119-5.336-8.018-5.971c-.898-.634-5.568-4.916-12.281-1.365-5.288 3.07-1.023 7.506-1.023 7.506l7.506 6.652-12.398 6.279s-2.023.68-3.316.563c-1.295-.121-2.875-1.428-2.875-1.428l-54.335-48.472z"/>
    <path fill="url(#u)" d="m84.32 73.239h-.002c-1.023.596-1.592 1.24-1.689 1.92-.012.08-.018.162-.018.246 0 .825.544 1.754 1.052 2.346.132.115 8.528 7.498 8.528 7.498s.034 4.709.049 6.708c2.043-1.079 9.098-4.808 9.908-5.235.001-.908.008-5.78.01-6.549-.693-.516-7.709-5.741-7.709-5.741-.029-.043-.412-.315-.412-.315-1.625-1.176-5.004-3.624-9.717-.877z"/>
    <path fill="url(#v)" d="m72.562 98.98.035 18.69-56.936-51.308v-22.391l54.684 49.032s1.416 1.037 1.832 2.811c.416 1.775.386 3.167.386 3.167z"/>
    <path fill="url(#w)" d="m66.252 56.538c15.441-10.4-10.114-24.625-9.612-29.043l58.459 44.485-11.09 5.595-8.359-6.312s-6.068-4.599-13.135-.853c-6.994 3.924-1.535 9.723-1.535 9.723l6.652 5.629-12.725 6.156s-25.187-24.247-8.655-35.381z"/>
    <path fill="url(#x)" d="m55.067 89.538 14.733 13.504-.22 5.152s-5.348 2.645-5.553 2.746c-.378 2.389-2.358 14.881-2.358 14.881s-1.297 2.084-1.384 2.223c-.06.111-.646 1.199-.646 1.199l-9.795 4.848-11.341-11.096.327-5.436s5.169-2.545 6.213-3.059c-.031-1.668-.359-19.924-.359-19.924l8.649-4.197 1.734-.842zm-.496 3.394 12.339 11.308s0 0-.092 2.155c-2.143 1.061-4.635 2.293-5.363 2.653-.271 1.71-2.498 15.761-2.498 15.761l-1.128 1.813-.259.481-7.181 3.554-8.977-8.783.152-2.498s4.651-2.296 5.401-2.66c.142-.203.93-1.344.93-1.344l-.343-19.034z"/>
    <path fill="url(#y)" d="m47.552 96.338.343 19.034s-.789 1.141-.93 1.344c-.75.364-5.401 2.66-5.401 2.66l-.152 2.498 8.977 8.783 7.181-3.554.259-.481 1.128-1.813s2.227-14.051 2.498-15.761c.728-.36 3.221-1.593 5.363-2.653.092-2.155.092-2.155.092-2.155l-12.339-11.308z"/>
    <path d="m47.552 96.338 12.188 11.45 7.17-3.548-12.339-11.308z"/>
    <path fill="url(#z)" d="m46.922 116.774.973-1.402-.343-19.034 12.188 11.45-2.591 16.348-.939 1.51-9.288-8.871z"/>
    <path fill="url(#A)" d="m41.524 119.375 9.189 8.991 5.497-2.721-9.305-8.882-5.38 2.611z"/>
    <path fill="url(#B)" d="m35.36 71.819 14.733 13.503-.22 5.151s-5.348 2.646-5.553 2.747c-.378 2.388-2.358 14.88-2.358 14.88s-1.297 2.086-1.384 2.225c-.06.109-.645 1.198-.645 1.198l-9.796 4.847-11.34-11.095.326-5.436s5.169-2.546 6.213-3.06c-.03-1.668-.359-19.923-.359-19.923l8.649-4.197 1.734-.841zm-.496 3.393 12.339 11.309s0 0-.093 2.154c-2.142 1.061-4.635 2.294-5.363 2.654-.271 1.709-2.498 15.76-2.498 15.76l-1.128 1.813-.259.48-7.181 3.554-8.977-8.783.151-2.498s4.651-2.295 5.401-2.66c.142-.203.93-1.344.93-1.344l-.342-19.033 7.018-3.406z"/>
    <path fill="url(#C)" d="m27.846 78.618.342 19.033s-.788 1.141-.93 1.344c-.75.365-5.401 2.66-5.401 2.66l-.151 2.498 8.977 8.783 7.181-3.554.259-.48 1.128-1.813s2.227-14.051 2.498-15.76c.728-.36 3.221-1.594 5.363-2.654.093-2.154.093-2.154.093-2.154l-12.341-11.309z"/>
    <path d="m27.846 78.618 12.187 11.449 7.17-3.547-12.339-11.308z"/>
    <path fill="url(#D)" d="m27.214 99.055.973-1.403-.342-19.033 12.187 11.449-2.591 16.348-.939 1.511-9.288-8.871z"/>
    <path fill="url(#E)" d="m21.817 101.654 9.189 8.991 5.497-2.72-9.306-8.882-5.38 2.61z"/>
    <path fill="url(#F)" d="m16.773 54.258 14.733 13.503-.22 5.151s-5.348 2.646-5.553 2.748c-.379 2.388-2.358 14.879-2.358 14.879s-1.297 2.086-1.384 2.225c-.059.109-.646 1.199-.646 1.199l-9.795 4.847-11.341-11.094.326-5.436s5.169-2.546 6.214-3.06c-.03-1.668-.359-19.923-.359-19.923l8.648-4.197 1.734-.842zm-.496 3.393 12.339 11.309s0 0-.092 2.155c-2.142 1.06-4.635 2.294-5.363 2.653-.271 1.709-2.498 15.761-2.498 15.761l-1.128 1.813-.259.481-7.181 3.553-8.977-8.783.151-2.498s4.651-2.296 5.401-2.659c.142-.204.93-1.345.93-1.345l-.341-19.034z"/>
    <path fill="url(#G)" d="m9.259 61.057.342 19.034s-.789 1.141-.93 1.345c-.75.363-5.401 2.659-5.401 2.659l-.151 2.498 8.977 8.783 7.181-3.553.259-.481 1.128-1.813s2.226-14.052 2.498-15.761c.728-.359 3.222-1.593 5.363-2.653.092-2.155.092-2.155.092-2.155l-12.34-11.309z"/>
    <path d="m9.259 61.057 12.188 11.449 7.17-3.546-12.34-11.309z"/>
    <path fill="url(#H)" d="m8.628 81.495.973-1.404-.342-19.034 12.188 11.449-2.591 16.349-.94 1.511z"/>
    <path fill="url(#I)" d="m3.23 84.095 9.189 8.99 5.496-2.719-9.305-8.883-5.38 2.611z"/>
  </g>
  <g opacity=".761" transform="matrix(.653014 0 0 .653019 7.043953 2.583079)">
    <path fill="url(#J)" d="m125.1989 62.347652c.34776 34.363329-27.229248 62.502488-61.591589 62.850258-34.363329.34776-62.501503-27.228264-62.849266-61.591593-.34776298-34.362341 27.227272-62.500515 61.589613-62.848278 34.364317-.34776298 62.502492 27.227272 62.851242 61.589613z"/>
    <path fill="url(#K)" d="m118.60919 62.413846c.31022 30.725649-24.344399 55.884124-55.06906 56.195334-30.723674.31022-55.8831394-24.344395-56.1943477-55.069056-.3102204-30.723674 24.3453847-55.8841273 55.0690577-56.1943477 30.725649-.3102204 55.88413 24.3453847 56.19435 55.0680697z"/>
    <path fill="url(#L)" d="m63.449237 11.878551c-27.077102.273665-48.80636 22.447507-48.532694 49.523621.014819 1.492812.107688 2.965865.253906 4.42311 13.537069 5.651149 29.751518 8.863016 47.156462 8.687159 18.997541-.191665 36.499305-4.38952 50.589629-11.324032.04249-.919794.06323-1.845515.05632-2.778152-.27367-27.076114-22.445533-48.805372-49.523623-48.531706z"/>
    <path fill="url(#M)" d="m64.943037 17.198731c24.434301-.24699 45.006653 16.809203 50.084783 39.752668-3.01625-26.324275-25.501299-46.641734-52.580377-46.368068-28.936449.292437-52.156543 23.98873-51.864106 52.92419.148194 14.649515 6.30024 27.82499 16.087002 37.234349-7.371192-8.714821-11.864448-19.950924-11.988931-32.255015-.283546-28.042342 22.219287-51.004578 50.261629-51.288124z"/>
    <path fill="url(#N)" d="m63.435406 110.14728c-26.126682.26477-47.683047-19.937095-49.4515-45.670567-.046435.96524-.074098 1.934431-.06323 2.912515.273666 27.10674 22.469243 48.855762 49.57302 48.581102 27.105752-.27366 48.853784-22.467264 48.580114-49.574005-.00988-.977096-.05631-1.947275-.12349-2.910539-1.24681 25.764099-22.389221 46.396714-48.514914 46.661494z" opacity=".5"/>
    <path fill="url(#O)" d="m53.044011 30.436448c-4.996129-4.060528-10.766821-7.048129-17.030506-8.635785-11.11656 7.676472-19.586367 19.882755-23.516484 34.399884 5.670908-2.812731 11.958305-4.419159 18.596428-4.48634 1.682501-.016796 3.341291.074097 4.977358.253906 4.08819-8.646652 9.924088-16.034639 16.973204-21.531665z" opacity=".6"/>
    <g fill="url(#P)" opacity=".2" transform="translate(-3.182441 -1.167047)">
      <path d="m52.280254 33.995651c4.118171 0 7.433522 2.429482 7.433522 5.447269v54.65397c0 3.017787-3.315351 5.447269-7.433522 5.447269-4.11817 0-7.433521-2.429482-7.433521-5.447269v-54.65397c0-3.017787 3.315351-5.447269 7.433521-5.447269z"/>
      <path d="m83.662815 33.995651c4.118171 0 7.433521 2.429482 7.433521 5.447269v54.65397c0 3.017787-3.31535 5.447269-7.433521 5.447269s-7.433521-2.429482-7.433521-5.447269v-54.65397c0-3.017787 3.31535-5.447269 7.433521-5.447269z"/>
    </g>
    <g fill="#fff" transform="translate(-5.182441 -3.167047)">
      <path d="m52.280254 33.995651c4.118171 0 7.433522 2.429482 7.433522 5.447269v54.65397c0 3.017787-3.315351 5.447269-7.433522 5.447269-4.11817 0-7.433521-2.429482-7.433521-5.447269v-54.65397c0-3.017787 3.315351-5.447269 7.433521-5.447269z"/>
      <path d="m83.662815 33.995651c4.118171 0 7.433521 2.429482 7.433521 5.447269v54.65397c0 3.017787-3.31535 5.447269-7.433521 5.447269s-7.433521-2.429482-7.433521-5.447269v-54.65397c0-3.017787 3.31535-5.447269 7.433521-5.447269z"/>
    </g>
  </g>
</svg>
