<?xml version="1.0" encoding="UTF-8" standalone="no"?>
<svg xmlns="http://www.w3.org/2000/svg" xmlns:xlink="http://www.w3.org/1999/xlink" width="128" height="128" viewBox="0 0 128 128">
  <linearGradient id="e" x2="128" y1="8" y2="136" gradientUnits="userSpaceOnUse">
    <stop offset="0" stop-color="#3995e5"/>
    <stop offset="1" stop-color="#0033a4"/>
  </linearGradient>
  <linearGradient id="b" x1="116" x2="0" y1="118" y2="16" gradientUnits="userSpaceOnUse">
    <stop offset="0" stop-color="#dfdfec"/>
    <stop offset="1" stop-color="#fff"/>
  </linearGradient>
  <linearGradient id="c" x1="4" x2="120" y1="113" y2="113" gradientUnits="userSpaceOnUse">
    <stop offset="0" stop-color="#8aceff"/>
    <stop offset="1" stop-color="#0449ff"/>
  </linearGradient>
  <linearGradient id="d" x1="4" x2="124" y1="68" y2="68" gradientUnits="userSpaceOnUse">
    <stop offset="0" stop-color="#c8c7d4" stop-opacity="0"/>
    <stop offset="1" stop-color="#000529" stop-opacity=".173"/>
  </linearGradient>
  <linearGradient id="h" x1="-56.222" x2="74.82" y1="10.651" y2="10.651" gradientTransform="matrix(.758621 0 0 .703125 15.44828 25.99993)" gradientUnits="userSpaceOnUse">
    <stop offset="0" stop-color="#fff"/>
    <stop offset="1" stop-color="#628bff"/>
  </linearGradient>
  <linearGradient id="a">
    <stop offset="0" stop-color="#b3b3b3"/>
    <stop offset="1" stop-color="#828282"/>
  </linearGradient>
  <linearGradient id="l" x1="-26.333" x2="56.166" y1="-26.333" y2="56.166" gradientTransform="matrix(.758621 0 0 .703125 15.44828 25.99993)" gradientUnits="userSpaceOnUse" xlink:href="#a"/>
  <linearGradient id="g" x1="43.023" x2="204.073" y1="25.421" y2="111.065" gradientTransform="matrix(.665509 0 0 .629371 21.34491 31.66429)" gradientUnits="userSpaceOnUse">
    <stop offset="0" stop-color="#fff"/>
    <stop offset=".533" stop-color="#e7e7e7"/>
    <stop offset="1" stop-color="#d4d4d4"/>
  </linearGradient>
  <linearGradient id="f" x1="63.92" x2="63.92" y1="154.565" y2="-100.935" gradientTransform="matrix(.665509 0 0 .629371 21.34491 31.66429)" gradientUnits="userSpaceOnUse">
    <stop offset="0" stop-color="#fff"/>
    <stop offset=".258" stop-color="#f1f1f1"/>
    <stop offset=".74" stop-color="#cecece"/>
    <stop offset=".86" stop-color="#c4c4c4"/>
  </linearGradient>
  <linearGradient id="k" x1="82.309" x2="96.104" y1="88.093" y2="101.888" gradientTransform="matrix(.758621 0 0 .6875 5.99997 15.97227)" gradientUnits="userSpaceOnUse" xlink:href="#a"/>
  <linearGradient id="j" x1="104.5" x2="90" y1="96.5" y2="125.5" gradientTransform="matrix(.758621 0 0 .6875 11.7241 21.65625)" gradientUnits="userSpaceOnUse">
    <stop offset="0" stop-color="#fff"/>
    <stop offset="1" stop-color="#ccc"/>
  </linearGradient>
  <radialGradient id="i" cx="108.467" cy="118.249" r="34.736" gradientTransform="matrix(.758621 0 0 .6875 6.51722 16.34375)" gradientUnits="userSpaceOnUse">
    <stop offset="0"/>
    <stop offset="1"/>
  </radialGradient>
  <path fill-rule="evenodd" d="m128 8c0-4.1290323-3.87097-8-8-8h-112c-4.1290323 0-8 3.8709677-8 8v120h128z"/>
  <path fill="url(#b)" d="m2 4 2-2h120l2 2v122h-124z"/>
  <path fill="url(#c)" d="m2 4 2-2h120l2 2v14h-124z"/>
  <path fill="url(#d)" fill-rule="evenodd" d="m2 120h118v-118h4l2 2v122h-124z"/>
  <path fill="none" stroke="url(#e)" stroke-width="4" d="m126 8c0-4-2-6-6-6h-112c-4 0-6 2-6 6v118h124z"/>
  <path fill="#fff" d="m106 27.999999h-84v86.000001h53l31-31z"/>
  <path fill="url(#f)" d="m28 114h47l25-25v-55h-72z"/>
  <path fill="url(#g)" d="m100 42v-8h-72l.000004 41.267078c6.706976 2.861747 14.14471 4.466012 21.999717 4.466012 24.853447 0 45.640526-16.552882 50.000279-37.73309z"/>
  <path fill="url(#h)" d="m28 42v-8h72v8z"/>
  <path fill="url(#i)" d="m68 76v38h4l34-34v-4z" opacity=".1"/>
  <path fill="#fff" d="m104 82-30 30v-30z"/>
  <path fill="url(#j)" d="m80 108 20-20h-20.00001z"/>
  <path fill="url(#k)" d="m72 79.90977v36.09023h4l32-32v-4zm30 4.09023-26 26v-26z"/>
  <path fill="url(#l)" d="m20 26 .000006 89.9999 55.999994.0001 32-32v-58zm84 4v52l-30 30h-50v-82z"/>
</svg>
