<?xml version="1.0" encoding="UTF-8" standalone="no"?>
<!DOCTYPE svg PUBLIC "-//W3C//DTD SVG 1.1//EN" 
  "http://www.w3.org/Graphics/SVG/1.1/DTD/svg11.dtd">
<svg xmlns="http://www.w3.org/2000/svg" xmlns:xlink="http://www.w3.org/1999/xlink" width="128" height="128">
  <linearGradient id="b">
    <stop offset="0" stop-color="#7e0000"/>
    <stop offset="1" stop-color="#673400" stop-opacity="0"/>
  </linearGradient>
  <linearGradient id="a">
    <stop offset="0" stop-color="#fff"/>
    <stop offset="1" stop-color="#fff" stop-opacity="0"/>
  </linearGradient>
  <linearGradient id="d">
    <stop offset="0" stop-color="#f4ff3f"/>
    <stop offset="1" stop-color="#fff" stop-opacity="0"/>
  </linearGradient>
  <linearGradient id="c" x1="95.693" x2="32.309" y1="141.174" y2="77.789" gradientUnits="userSpaceOnUse">
    <stop offset="0" stop-color="#ffc60a"/>
    <stop offset="1" stop-color="#b03b00"/>
  </linearGradient>
  <radialGradient id="g" cx="69.527" cy="60.116" r="111.654" fy="89.656" gradientTransform="matrix(.94391 -.3302 .33264 .95092 -16.098 27.25)" gradientUnits="userSpaceOnUse">
    <stop offset="0" stop-color="#ff0"/>
    <stop offset="1" stop-color="#f07800"/>
  </radialGradient>
  <linearGradient id="n" x1="49.136" x2="49.136" y1="28.15" y2="116.418" gradientUnits="userSpaceOnUse" xlink:href="#a"/>
  <linearGradient id="p" x1="223.73" x2="162.406" y1="77.531" y2="30.989" gradientUnits="userSpaceOnUse" xlink:href="#a"/>
  <linearGradient id="o" x1="177.424" x2="177.601" y1="22.378" y2="93.023" gradientUnits="userSpaceOnUse" xlink:href="#a"/>
  <linearGradient id="t" x1="64.886" x2="64.886" y1="122.587" y2="37.97" gradientUnits="userSpaceOnUse">
    <stop offset="0" stop-color="#fffc07"/>
    <stop offset="1" stop-color="#fffc07" stop-opacity="0"/>
  </linearGradient>
  <filter id="u">
    <feGaussianBlur stdDeviation=".559"/>
  </filter>
  <filter id="z">
    <feGaussianBlur stdDeviation=".112"/>
  </filter>
  <linearGradient id="i" x1="63.949" x2="67.219" y1="12.034" y2="12.034" gradientUnits="userSpaceOnUse" spreadMethod="reflect" xlink:href="#a"/>
  <filter id="j" width="1.356" height="1.31" x="-.178" y="-.155">
    <feGaussianBlur stdDeviation=".463"/>
  </filter>
  <linearGradient id="q" x1="28.638" x2="31.289" y1="120.85" y2="122.087" gradientUnits="userSpaceOnUse" spreadMethod="reflect">
    <stop offset="0" stop-color="#faff64"/>
    <stop offset="1" stop-color="#faff64" stop-opacity="0"/>
  </linearGradient>
  <filter id="r">
    <feGaussianBlur stdDeviation=".183"/>
  </filter>
  <radialGradient id="s" cx="64.353" cy="98.207" r="60.701" gradientTransform="matrix(.09136 0 0 .13926 58.277 94.261)" gradientUnits="userSpaceOnUse" xlink:href="#b"/>
  <linearGradient id="h" x1="64.08" x2="64.08" y1="-14.227" y2="120.445" gradientUnits="userSpaceOnUse" xlink:href="#c"/>
  <filter id="f">
    <feGaussianBlur stdDeviation=".237"/>
  </filter>
  <radialGradient id="e" cx="64.08" cy="66.197" r="60.701" gradientTransform="matrix(1 0 0 .95547 0 2.948)" gradientUnits="userSpaceOnUse" xlink:href="#c"/>
  <radialGradient id="A" cx="64.353" cy="106.713" r="60.701" gradientTransform="matrix(.4443 0 0 .1825 35.563 89.647)" gradientUnits="userSpaceOnUse" xlink:href="#b"/>
  <filter id="B">
    <feGaussianBlur stdDeviation=".266"/>
  </filter>
  <radialGradient id="C" cx="26.574" cy="73.493" r="60.701" fx="35.588" fy="102.799" gradientTransform="matrix(4.68125 0 0 .31724 -85.243 44.725)" gradientUnits="userSpaceOnUse" xlink:href="#b"/>
  <filter id="D">
    <feGaussianBlur stdDeviation=".379"/>
  </filter>
  <radialGradient id="k" cx="64.102" cy="48.703" r="56.812" gradientTransform="matrix(1 0 0 .64769 0 17.159)" gradientUnits="userSpaceOnUse" xlink:href="#d"/>
  <radialGradient id="v" cx="121.586" cy="52.855" r="3.188" gradientTransform="matrix(2.22481 -.59614 .27736 1.03513 -163.58 70.625)" gradientUnits="userSpaceOnUse" xlink:href="#a"/>
  <filter id="w" width="1.364" height="1.336" x="-.182" y="-.168">
    <feGaussianBlur stdDeviation=".408"/>
  </filter>
  <radialGradient id="x" cx="122.694" cy="52.672" r="3.188" fx="122.558" fy="51.026" gradientTransform="matrix(1.25387 -.45988 .25755 .70223 -43.322 71.697)" gradientUnits="userSpaceOnUse" xlink:href="#a"/>
  <filter id="y" width="1.231" height="1.213" x="-.115" y="-.106">
    <feGaussianBlur stdDeviation=".258"/>
  </filter>
  <filter id="m">
    <feGaussianBlur stdDeviation=".242"/>
  </filter>
  <radialGradient id="l" cx="41.233" cy="39.833" r="8.132" fx="41.41" fy="44.37" gradientTransform="matrix(1 0 0 .75 0 9.958)" gradientUnits="userSpaceOnUse" xlink:href="#d"/>
  <path fill="url(#e)" d="M64.031 8.2c-7.868.01-17.202 26.554-23.562 31.188-6.36 4.633-34.485 5.388-36.907 12.875-2.421 7.486 19.903 24.55 22.344 32.03 2.441 7.481-5.496 34.446.875 39.063 6.372 4.617 29.507-11.333 37.375-11.343 7.869-.01 31.047 15.883 37.406 11.25 6.36-4.634-1.671-31.577.75-39.063 2.422-7.486 24.723-24.614 22.282-32.094s-30.566-8.164-36.938-12.781C81.285 34.708 71.9 8.19 64.031 8.2zm0 3.906c.177.14 1.537.806 3.125 2.75 1.816 2.222 3.875 5.554 5.906 9.094 2.032 3.54 4.052 7.299 6.032 10.563 1.98 3.263 3.661 6.016 6.312 7.937s5.782 2.666 9.5 3.531 7.91 1.61 11.906 2.438c3.997.827 7.793 1.748 10.47 2.781 2.341.904 3.436 2 3.624 2.125-.08.208-.33 1.67-1.687 3.781-1.552 2.413-4.074 5.412-6.813 8.438-2.739 3.025-5.695 6.108-8.187 9-2.492 2.891-4.586 5.354-5.594 8.469-1.008 3.114-.733 6.321-.406 10.124.326 3.804.896 8.038 1.344 12.094.447 4.057.749 7.948.593 10.813-.136 2.507-.814 3.847-.875 4.062-.224-.008-1.728.264-4.156-.375-2.775-.73-6.401-2.236-10.125-3.906s-7.574-3.523-11.094-5-6.476-2.692-9.75-2.688c-3.274.005-6.265 1.234-9.781 2.72-3.516 1.485-7.343 3.351-11.063 5.03-3.72 1.68-7.352 3.17-10.124 3.907-2.427.645-3.901.397-4.126.406-.058-.214-.763-1.556-.906-4.063-.163-2.864.125-6.754.563-10.812.437-4.058.996-8.29 1.312-12.094.317-3.804.578-7.044-.437-10.156-1.016-3.112-3.126-5.552-5.625-8.438-2.5-2.885-5.441-5.95-8.188-8.968-2.746-3.019-5.285-5.997-6.844-8.406-1.363-2.109-1.578-3.606-1.656-3.813.015.088.987-1.123 3.563-2.125 2.674-1.04 6.505-1.975 10.5-2.813 3.994-.837 8.19-1.563 11.906-2.437s6.854-1.635 9.5-3.563c2.646-1.927 4.31-4.7 6.281-7.968 1.972-3.269 3.978-7.018 6-10.563s4.065-6.898 5.875-9.125c1.584-1.948 2.951-2.611 3.125-2.75z" filter="url(#f)"/>
  <path fill="url(#g)" d="M153.094 94.714c-8.557 12.383-60.478-1.7-74.68 3.288-14.201 4.988-45.91 48.445-60.332 44.133C3.661 137.823 1.011 84.092-8.122 72.127S-68.384 43.434-68.74 28.385c-.355-15.048 49.927-34.172 58.485-46.555 8.557-12.383 8.667-66.18 22.869-71.168 14.201-4.988 47.928 36.924 62.349 41.236s65.619-12.208 74.751-.242c9.133 11.965-20.305 56.992-19.95 72.04.356 15.048 31.887 58.635 23.33 71.018z" transform="rotate(19.28 -125.722 149.698) scale(.52274)"/>
  <path fill="url(#h)" d="M64.031 8c-7.868.01-17.202 26.554-23.562 31.188-6.36 4.633-34.485 5.388-36.907 12.874-2.421 7.487 19.903 24.552 22.344 32.032s-5.496 34.445.875 39.062c6.372 4.617 29.507-11.333 37.375-11.344 7.869-.01 31.047 15.884 37.406 11.25 6.36-4.633-1.671-31.576.75-39.062 2.422-7.486 24.723-24.614 22.282-32.094s-30.566-8.164-36.938-12.781C81.285 34.508 71.9 7.99 64.031 8zm0 3.906c.177.14 1.537.806 3.125 2.75 1.816 2.222 3.875 5.554 5.906 9.094 2.032 3.54 4.052 7.299 6.032 10.563 1.98 3.263 3.661 6.016 6.312 7.937s5.782 2.666 9.5 3.531 7.91 1.61 11.906 2.438c3.997.827 7.793 1.748 10.47 2.781 2.341.904 3.436 2 3.624 2.125-.08.208-.33 1.67-1.687 3.781-1.552 2.413-4.074 5.412-6.813 8.438-2.739 3.025-5.695 6.108-8.187 9-2.492 2.891-4.586 5.354-5.594 8.469-1.008 3.114-.733 6.321-.406 10.124.326 3.804.896 8.038 1.344 12.094.447 4.057.749 7.948.593 10.813-.136 2.507-.814 3.847-.875 4.062-.224-.008-1.728.264-4.156-.375-2.775-.73-6.401-2.236-10.125-3.906s-7.574-3.523-11.094-5-6.476-2.692-9.75-2.688c-3.274.005-6.265 1.234-9.781 2.72-3.516 1.485-7.343 3.351-11.063 5.03-3.72 1.68-7.352 3.17-10.124 3.907-2.427.645-3.901.397-4.126.406-.058-.214-.763-1.556-.906-4.063-.163-2.864.125-6.754.563-10.812.437-4.058.996-8.29 1.312-12.094.317-3.804.578-7.044-.437-10.156-1.016-3.112-3.126-5.552-5.625-8.438-2.5-2.885-5.441-5.95-8.188-8.968-2.746-3.019-5.285-5.997-6.844-8.406-1.363-2.109-1.578-3.606-1.656-3.813.015.088.987-1.123 3.563-2.125 2.674-1.04 6.505-1.975 10.5-2.813 3.994-.837 8.19-1.563 11.906-2.437s6.854-1.635 9.5-3.563c2.646-1.927 4.31-4.7 6.281-7.968 1.972-3.269 3.978-7.018 6-10.563s4.065-6.898 5.875-9.125c1.584-1.948 2.951-2.611 3.125-2.75z"/>
  <path fill="url(#i)" fill-rule="evenodd" d="M60.988 9.471c1.858-1.257 3.902-1.45 6.231 0l-3.182 6.143z" filter="url(#j)"/>
  <path fill="url(#k)" d="M64.04 11.906c-.175.139-1.542.802-3.126 2.75-1.81 2.227-3.853 5.58-5.875 9.125s-4.028 7.294-6 10.563c-1.971 3.268-3.635 6.04-6.281 7.968s-5.784 2.689-9.5 3.563-7.912 1.6-11.906 2.438c-3.995.837-7.826 1.772-10.5 2.812-2.576 1.002-3.548 2.213-3.563 2.125.078.207.293 1.704 1.656 3.813 1.558 2.409 4.097 5.387 6.844 8.406 2.747 3.018 5.688 6.083 8.188 8.969 2.5 2.885 4.609 5.325 5.625 8.437.263.808.418 1.636.53 2.469 2.409.087 4.83.156 7.282.156 27.042 0 51.56-5.393 69.5-14.156 1.8-1.974 3.694-4.005 5.5-6 2.74-3.026 5.26-6.025 6.813-8.438 1.358-2.111 1.607-3.573 1.687-3.781-.188-.124-1.283-1.22-3.625-2.125-2.677-1.033-6.472-1.954-10.469-2.781-3.996-.828-8.188-1.573-11.906-2.438s-6.849-1.61-9.5-3.531-4.333-4.674-6.312-7.938c-1.98-3.263-4-7.022-6.032-10.562-2.03-3.54-4.09-6.872-5.906-9.094-1.588-1.944-2.948-2.61-3.125-2.75z"/>
  <path fill="url(#l)" fill-rule="evenodd" d="M44.969 33.938l-.782 1.28a.076.076 0 0 1-.03 0l-1.344 1.72-1.282 1.53a.213.213 0 0 1-.031.032l-1.469 1.219a.213.213 0 0 1-.031.031l-2.875 1.281a.213.213 0 0 1-.031.032l-3.219.906-.5 3.656 1.75-.406v.031l4.594-1.5h.031l3.063-1.688.062-.03 2.906-2.938.032-.032 3.156-5.03z" filter="url(#m)" opacity=".644" transform="translate(0 .3)"/>
  <path fill="url(#n)" d="M64.04 11.906c-.175.139-1.542.802-3.126 2.75-1.81 2.227-3.853 5.58-5.875 9.125s-4.028 7.294-6 10.563c-1.971 3.268-3.635 6.04-6.281 7.968s-5.784 2.689-9.5 3.563-7.912 1.6-11.906 2.438c-3.995.837-7.826 1.772-10.5 2.812-2.576 1.002-3.548 2.213-3.563 2.125.078.207.293 1.704 1.656 3.813 1.558 2.409 4.097 5.387 6.844 8.406 2.747 3.018 5.688 6.083 8.188 8.969 2.5 2.885 4.609 5.325 5.625 8.437.263.808.418 1.636.53 2.469 2.409.087 4.83.156 7.282.156 27.042 0 51.56-5.393 69.5-14.156 1.8-1.974 3.694-4.005 5.5-6 2.74-3.026 5.26-6.025 6.813-8.438 1.358-2.111 1.607-3.573 1.687-3.781-.188-.124-1.283-1.22-3.625-2.125-2.677-1.033-6.472-1.954-10.469-2.781-3.996-.828-8.188-1.573-11.906-2.438s-6.849-1.61-9.5-3.531-4.333-4.674-6.312-7.938c-1.98-3.263-4-7.022-6.032-10.562-2.03-3.54-4.09-6.872-5.906-9.094-1.588-1.944-2.948-2.61-3.125-2.75z"/>
  <path fill="url(#l)" fill-rule="evenodd" d="M44.969 33.938l-.782 1.28a.076.076 0 0 1-.03 0l-1.344 1.72-1.282 1.53a.213.213 0 0 1-.031.032l-1.469 1.219a.213.213 0 0 1-.031.031l-2.875 1.281a.213.213 0 0 1-.031.032l-3.219.906-.5 3.656 1.75-.406v.031l4.594-1.5h.031l3.063-1.688.062-.03 2.906-2.938.032-.032 3.156-5.03z" filter="url(#m)" opacity=".644" transform="matrix(-1 0 0 1 128.125 .3)"/>
  <path fill="url(#o)" d="M196.344 11.906c-.174.139-1.542.802-3.125 2.75-1.81 2.227-3.853 5.58-5.875 9.125s-4.029 7.294-6 10.563c-1.972 3.268-3.635 6.04-6.281 7.968-2.647 1.928-5.785 2.689-9.5 3.563-3.716.874-7.912 1.6-11.907 2.438-3.994.837-7.826 1.772-10.5 2.812-2.575 1.002-3.547 2.213-3.562 2.125.03.08.121.389.25.813.416-.363 1.416-1.2 3.312-1.938 2.674-1.04 6.506-1.975 10.5-2.813 3.995-.837 8.19-1.563 11.906-2.437s6.854-1.635 9.5-3.563c2.647-1.927 4.31-4.7 6.282-7.968 1.971-3.269 3.978-7.018 6-10.563s4.065-6.898 5.875-9.125c1.583-1.948 2.951-2.611 3.125-2.75.177.14 1.536.806 3.125 2.75 1.815 2.222 3.875 5.554 5.906 9.094s4.051 7.299 6.031 10.563c1.98 3.263 3.662 6.016 6.313 7.937 2.65 1.921 5.782 2.666 9.5 3.531s7.91 1.61 11.906 2.438c3.996.827 7.792 1.748 10.469 2.781 1.92.741 2.975 1.58 3.406 1.938.134-.416.188-.733.219-.813-.188-.124-1.283-1.22-3.625-2.125-2.677-1.033-6.473-1.954-10.469-2.781-3.996-.828-8.188-1.573-11.906-2.438s-6.85-1.61-9.5-3.531c-2.651-1.921-4.333-4.674-6.313-7.938-1.98-3.263-4-7.022-6.031-10.562s-4.09-6.872-5.906-9.094c-1.589-1.944-2.948-2.61-3.125-2.75z" transform="translate(-132.3)"/>
  <path fill="url(#p)" d="M246.781 49.938c.644.204 1.257.442 1.813.656 2.342.904 3.437 2 3.625 2.125-.08.208-.33 1.67-1.688 3.781-1.552 2.413-4.073 5.412-6.812 8.438-1.806 1.995-3.7 4.026-5.5 6-17.94 8.763-42.458 14.156-69.5 14.156-2.125 0-4.223-.054-6.313-.125.012.083.02.167.031.25 2.408.087 4.83.156 7.282.156 27.042 0 51.56-5.393 69.5-14.156 1.8-1.974 3.694-4.005 5.5-6 2.739-3.026 5.26-6.025 6.812-8.438 1.358-2.111 1.608-3.573 1.688-3.78-.188-.125-1.283-1.222-3.625-2.126a36.416 36.416 0 0 0-2.813-.937z" transform="translate(-132.3)"/>
  <path fill="url(#q)" fill-rule="evenodd" d="M25.19 119.78c1.225 2.962 2.051 4.339 6.1 3.535l-.652-3.105-1.558.189-.818-1.826-3.071 1.207z" filter="url(#r)" opacity=".772"/>
  <path fill="url(#s)" d="M26.031 94.25c-1.047 10.864-3.812 25.6.75 28.906 6.372 4.617 29.507-11.333 37.375-11.344 7.869-.01 31.047 15.884 37.406 11.25 4.54-3.307 1.746-17.96.657-28.812h-3.875c.334 3.457.82 7.178 1.219 10.781.447 4.057.749 7.948.593 10.813-.136 2.507-.814 3.847-.875 4.062-.224-.008-1.728.264-4.156-.375-2.775-.73-6.401-2.236-10.125-3.906s-7.574-3.523-11.094-5-6.476-2.692-9.75-2.688c-3.274.005-6.265 1.234-9.781 2.72-3.516 1.485-7.343 3.351-11.063 5.03-3.72 1.68-7.352 3.17-10.124 3.907-2.427.645-3.901.397-4.126.406-.058-.214-.763-1.556-.906-4.063-.163-2.864.125-6.754.563-10.812.392-3.637.862-7.392 1.187-10.875z"/>
  <path fill="none" stroke="url(#t)" stroke-dashoffset="4" stroke-linecap="round" stroke-linejoin="round" d="M64.125 11.906c-.174.139-1.541.802-3.125 2.75-1.81 2.227-3.853 5.58-5.875 9.125s-4.029 7.294-6 10.563c-1.971 3.268-3.635 6.04-6.281 7.968s-5.785 2.689-9.5 3.563c-3.716.874-7.912 1.6-11.906 2.438-3.995.837-7.827 1.772-10.5 2.812-2.576 1.002-3.548 2.213-3.563 2.125.078.207.293 1.704 1.656 3.813 1.558 2.409 4.097 5.387 6.844 8.406 2.747 3.018 5.688 6.083 8.188 8.969 2.499 2.885 4.609 5.325 5.625 8.437 1.015 3.112.754 6.352.437 10.156s-.875 8.036-1.312 12.094c-.438 4.058-.726 7.948-.563 10.813.142 2.506.848 3.848.906 4.062.225-.01 1.7.239 4.125-.406 2.773-.738 6.406-2.227 10.125-3.906 3.72-1.68 7.547-3.546 11.063-5.032 3.516-1.485 6.507-2.714 9.781-2.719 3.274-.004 6.23 1.211 9.75 2.688s7.37 3.33 11.094 5 7.35 3.176 10.125 3.906c2.428.64 3.932.367 4.156.375.06-.215.739-1.555.875-4.062.156-2.865-.146-6.756-.594-10.813-.448-4.056-1.017-8.29-1.343-12.094-.327-3.803-.602-7.01.406-10.124 1.007-3.115 3.101-5.578 5.594-8.47 2.492-2.89 5.448-5.974 8.187-9 2.74-3.025 5.26-6.024 6.813-8.437 1.357-2.111 1.607-3.573 1.687-3.781-.188-.124-1.283-1.22-3.625-2.125-2.677-1.033-6.472-1.954-10.469-2.781-3.996-.828-8.188-1.573-11.906-2.438s-6.849-1.61-9.5-3.531-4.333-4.674-6.312-7.938c-1.98-3.263-4-7.022-6.032-10.562-2.03-3.54-4.09-6.872-5.906-9.094-1.588-1.944-2.948-2.61-3.125-2.75z" filter="url(#u)"/>
  <g fill-rule="evenodd">
    <path fill="url(#v)" d="M122.345 49.938l-3.448 3.005.708 2.033 4.33.796c.333-1.945 1.028-3.89-1.59-5.834z" filter="url(#w)" opacity=".609" transform="matrix(-1 0 0 1 128.172 0)"/>
    <path fill="url(#x)" d="M122.345 49.938l-3.448 3.005.708 2.033 4.33.796c.333-1.945 1.028-3.89-1.59-5.834z" filter="url(#y)" opacity=".609" transform="matrix(-1 0 0 1 128.172 0)"/>
  </g>
  <g fill-rule="evenodd">
    <path fill="url(#v)" d="M122.345 49.938l-3.448 3.005.708 2.033 4.33.796c.333-1.945 1.028-3.89-1.59-5.834z" filter="url(#w)" opacity=".609"/>
    <path fill="url(#x)" d="M122.345 49.938l-3.448 3.005.708 2.033 4.33.796c.333-1.945 1.028-3.89-1.59-5.834z" filter="url(#y)" opacity=".609"/>
  </g>
  <path fill="none" stroke="url(#t)" stroke-dashoffset="4" stroke-linecap="round" stroke-linejoin="round" stroke-width=".6" d="M64.125 11.906c-.174.139-1.541.802-3.125 2.75-1.81 2.227-3.853 5.58-5.875 9.125s-4.029 7.294-6 10.563c-1.971 3.268-3.635 6.04-6.281 7.968s-5.785 2.689-9.5 3.563c-3.716.874-7.912 1.6-11.906 2.438-3.995.837-7.827 1.772-10.5 2.812-2.576 1.002-3.548 2.213-3.563 2.125.078.207.293 1.704 1.656 3.813 1.558 2.409 4.097 5.387 6.844 8.406 2.747 3.018 5.688 6.083 8.188 8.969 2.499 2.885 4.609 5.325 5.625 8.437 1.015 3.112.754 6.352.437 10.156s-.875 8.036-1.312 12.094c-.438 4.058-.726 7.948-.563 10.813.142 2.506.848 3.848.906 4.062.225-.01 1.7.239 4.125-.406 2.773-.738 6.406-2.227 10.125-3.906 3.72-1.68 7.547-3.546 11.063-5.032 3.516-1.485 6.507-2.714 9.781-2.719 3.274-.004 6.23 1.211 9.75 2.688s7.37 3.33 11.094 5 7.35 3.176 10.125 3.906c2.428.64 3.932.367 4.156.375.06-.215.739-1.555.875-4.062.156-2.865-.146-6.756-.594-10.813-.448-4.056-1.017-8.29-1.343-12.094-.327-3.803-.602-7.01.406-10.124 1.007-3.115 3.101-5.578 5.594-8.47 2.492-2.89 5.448-5.974 8.187-9 2.74-3.025 5.26-6.024 6.813-8.437 1.357-2.111 1.607-3.573 1.687-3.781-.188-.124-1.283-1.22-3.625-2.125-2.677-1.033-6.472-1.954-10.469-2.781-3.996-.828-8.188-1.573-11.906-2.438s-6.849-1.61-9.5-3.531-4.333-4.674-6.312-7.938c-1.98-3.263-4-7.022-6.032-10.562-2.03-3.54-4.09-6.872-5.906-9.094-1.588-1.944-2.948-2.61-3.125-2.75z" filter="url(#z)"/>
  <path fill="url(#q)" fill-rule="evenodd" d="M25.19 119.78c1.225 2.962 2.051 4.339 6.1 3.535l-.652-3.105-1.558.189-.818-1.826-3.071 1.207z" filter="url(#r)" opacity=".772" transform="matrix(-1 0 0 1 128.105 0)"/>
  <path fill="url(#A)" d="M26.031 94.25c-1.047 10.864-3.812 25.6.75 28.906 6.372 4.617 29.507-12.333 37.375-12.344 7.869-.01 31.047 16.884 37.406 12.25 4.54-3.307 1.746-17.96.657-28.812h-3.875c.334 3.457.82 7.178 1.219 10.781.447 4.057.749 7.948.593 10.813-.136 2.507-.814 3.847-.875 4.062-.224-.008-1.728.264-4.156-.375-2.775-.73-6.401-2.236-10.125-3.906s-7.574-3.523-11.094-5-6.476-2.692-9.75-2.688c-3.274.005-6.265 1.234-9.781 2.72-3.516 1.485-7.343 3.351-11.063 5.03-3.72 1.68-7.352 3.17-10.124 3.907-2.427.645-3.901.397-4.126.406-.058-.214-.763-1.556-.906-4.063-.163-2.864.125-6.754.563-10.812.392-3.637.862-7.392 1.187-10.875z" filter="url(#B)"/>
  <path fill="url(#C)" d="M3.969 51.25c-.162.263-.315.53-.406.813-2.153 6.65 15.228 20.853 20.842 29.187.66.97 1.476 2.31 1.746 3.8 1.505-.301 3.424-2.408 2.754-3.8-1.137-2.374-2.894-4.454-4.937-6.813-2.5-2.885-5.441-5.95-8.188-8.968-2.746-3.019-5.285-5.997-6.844-8.406-1.363-2.109-1.578-3.606-1.656-3.813.015.084.916-1.027 3.25-2H3.97zm113.906 0c1.924.845 2.86 1.762 3.031 1.875-.08.208-.33 1.67-1.687 3.781-1.552 2.413-4.074 5.412-6.813 8.438-2.739 3.025-5.695 6.108-8.187 9-2.058 2.387-3.841 4.495-4.969 6.906-.86 2.441 1.94 3.5 2.839 3.58.328-1.456.985-2.529 1.661-3.58 5.533-8.336 23.02-22.674 20.844-29.344a3.842 3.842 0 0 0-.313-.656z" filter="url(#D)" opacity=".842"/>
  <path fill="url(#e)" d="M64.031 8.2c-7.868.01-17.202 26.554-23.562 31.188-6.36 4.633-34.485 5.388-36.907 12.875-2.421 7.486 19.903 24.55 22.344 32.03 2.441 7.481-5.496 34.446.875 39.063 6.372 4.617 29.507-11.333 37.375-11.343 7.869-.01 31.047 15.883 37.406 11.25 6.36-4.634-1.671-31.577.75-39.063 2.422-7.486 24.723-24.614 22.282-32.094s-30.566-8.164-36.938-12.781C81.285 34.708 71.9 8.19 64.031 8.2zm0 3.906c.177.14 1.537.806 3.125 2.75 1.816 2.222 3.875 5.554 5.906 9.094 2.032 3.54 4.052 7.299 6.032 10.563 1.98 3.263 3.661 6.016 6.312 7.937s5.782 2.666 9.5 3.531 7.91 1.61 11.906 2.438c3.997.827 7.793 1.748 10.47 2.781 2.341.904 3.436 2 3.624 2.125-.08.208-.33 1.67-1.687 3.781-1.552 2.413-4.074 5.412-6.813 8.438-2.739 3.025-5.695 6.108-8.187 9-2.492 2.891-4.586 5.354-5.594 8.469-1.008 3.114-.733 6.321-.406 10.124.326 3.804.896 8.038 1.344 12.094.447 4.057.749 7.948.593 10.813-.136 2.507-.814 3.847-.875 4.062-.224-.008-1.728.264-4.156-.375-2.775-.73-6.401-2.236-10.125-3.906s-7.574-3.523-11.094-5-6.476-2.692-9.75-2.688c-3.274.005-6.265 1.234-9.781 2.72-3.516 1.485-7.343 3.351-11.063 5.03-3.72 1.68-7.352 3.17-10.124 3.907-2.427.645-3.901.397-4.126.406-.058-.214-.763-1.556-.906-4.063-.163-2.864.125-6.754.563-10.812.437-4.058.996-8.29 1.312-12.094.317-3.804.578-7.044-.437-10.156-1.016-3.112-3.126-5.552-5.625-8.438-2.5-2.885-5.441-5.95-8.188-8.968-2.746-3.019-5.285-5.997-6.844-8.406-1.363-2.109-1.578-3.606-1.656-3.813.015.088.987-1.123 3.563-2.125 2.674-1.04 6.505-1.975 10.5-2.813 3.994-.837 8.19-1.563 11.906-2.437s6.854-1.635 9.5-3.563c2.646-1.927 4.31-4.7 6.281-7.968 1.972-3.269 3.978-7.018 6-10.563s4.065-6.898 5.875-9.125c1.584-1.948 2.951-2.611 3.125-2.75z" filter="url(#f)"/>
  <path fill="url(#g)" d="M153.094 94.714c-8.557 12.383-60.478-1.7-74.68 3.288-14.201 4.988-45.91 48.445-60.332 44.133C3.661 137.823 1.011 84.092-8.122 72.127S-68.384 43.434-68.74 28.385c-.355-15.048 49.927-34.172 58.485-46.555 8.557-12.383 8.667-66.18 22.869-71.168 14.201-4.988 47.928 36.924 62.349 41.236s65.619-12.208 74.751-.242c9.133 11.965-20.305 56.992-19.95 72.04.356 15.048 31.887 58.635 23.33 71.018z" transform="rotate(19.28 -125.722 149.698) scale(.52274)"/>
  <path fill="url(#h)" d="M64.031 8c-7.868.01-17.202 26.554-23.562 31.188-6.36 4.633-34.485 5.388-36.907 12.874-2.421 7.487 19.903 24.552 22.344 32.032s-5.496 34.445.875 39.062c6.372 4.617 29.507-11.333 37.375-11.344 7.869-.01 31.047 15.884 37.406 11.25 6.36-4.633-1.671-31.576.75-39.062 2.422-7.486 24.723-24.614 22.282-32.094s-30.566-8.164-36.938-12.781C81.285 34.508 71.9 7.99 64.031 8zm0 3.906c.177.14 1.537.806 3.125 2.75 1.816 2.222 3.875 5.554 5.906 9.094 2.032 3.54 4.052 7.299 6.032 10.563 1.98 3.263 3.661 6.016 6.312 7.937s5.782 2.666 9.5 3.531 7.91 1.61 11.906 2.438c3.997.827 7.793 1.748 10.47 2.781 2.341.904 3.436 2 3.624 2.125-.08.208-.33 1.67-1.687 3.781-1.552 2.413-4.074 5.412-6.813 8.438-2.739 3.025-5.695 6.108-8.187 9-2.492 2.891-4.586 5.354-5.594 8.469-1.008 3.114-.733 6.321-.406 10.124.326 3.804.896 8.038 1.344 12.094.447 4.057.749 7.948.593 10.813-.136 2.507-.814 3.847-.875 4.062-.224-.008-1.728.264-4.156-.375-2.775-.73-6.401-2.236-10.125-3.906s-7.574-3.523-11.094-5-6.476-2.692-9.75-2.688c-3.274.005-6.265 1.234-9.781 2.72-3.516 1.485-7.343 3.351-11.063 5.03-3.72 1.68-7.352 3.17-10.124 3.907-2.427.645-3.901.397-4.126.406-.058-.214-.763-1.556-.906-4.063-.163-2.864.125-6.754.563-10.812.437-4.058.996-8.29 1.312-12.094.317-3.804.578-7.044-.437-10.156-1.016-3.112-3.126-5.552-5.625-8.438-2.5-2.885-5.441-5.95-8.188-8.968-2.746-3.019-5.285-5.997-6.844-8.406-1.363-2.109-1.578-3.606-1.656-3.813.015.088.987-1.123 3.563-2.125 2.674-1.04 6.505-1.975 10.5-2.813 3.994-.837 8.19-1.563 11.906-2.437s6.854-1.635 9.5-3.563c2.646-1.927 4.31-4.7 6.281-7.968 1.972-3.269 3.978-7.018 6-10.563s4.065-6.898 5.875-9.125c1.584-1.948 2.951-2.611 3.125-2.75z"/>
  <path fill="url(#i)" fill-rule="evenodd" d="M60.988 9.471c1.858-1.257 3.902-1.45 6.231 0l-3.182 6.143z" filter="url(#j)"/>
  <path fill="url(#k)" d="M64.04 11.906c-.175.139-1.542.802-3.126 2.75-1.81 2.227-3.853 5.58-5.875 9.125s-4.028 7.294-6 10.563c-1.971 3.268-3.635 6.04-6.281 7.968s-5.784 2.689-9.5 3.563-7.912 1.6-11.906 2.438c-3.995.837-7.826 1.772-10.5 2.812-2.576 1.002-3.548 2.213-3.563 2.125.078.207.293 1.704 1.656 3.813 1.558 2.409 4.097 5.387 6.844 8.406 2.747 3.018 5.688 6.083 8.188 8.969 2.5 2.885 4.609 5.325 5.625 8.437.263.808.418 1.636.53 2.469 2.409.087 4.83.156 7.282.156 27.042 0 51.56-5.393 69.5-14.156 1.8-1.974 3.694-4.005 5.5-6 2.74-3.026 5.26-6.025 6.813-8.438 1.358-2.111 1.607-3.573 1.687-3.781-.188-.124-1.283-1.22-3.625-2.125-2.677-1.033-6.472-1.954-10.469-2.781-3.996-.828-8.188-1.573-11.906-2.438s-6.849-1.61-9.5-3.531-4.333-4.674-6.312-7.938c-1.98-3.263-4-7.022-6.032-10.562-2.03-3.54-4.09-6.872-5.906-9.094-1.588-1.944-2.948-2.61-3.125-2.75z"/>
  <path fill="url(#l)" fill-rule="evenodd" d="M44.969 33.938l-.782 1.28a.076.076 0 0 1-.03 0l-1.344 1.72-1.282 1.53a.213.213 0 0 1-.031.032l-1.469 1.219a.213.213 0 0 1-.031.031l-2.875 1.281a.213.213 0 0 1-.031.032l-3.219.906-.5 3.656 1.75-.406v.031l4.594-1.5h.031l3.063-1.688.062-.03 2.906-2.938.032-.032 3.156-5.03z" filter="url(#m)" opacity=".644" transform="translate(0 .3)"/>
  <path fill="url(#n)" d="M64.04 11.906c-.175.139-1.542.802-3.126 2.75-1.81 2.227-3.853 5.58-5.875 9.125s-4.028 7.294-6 10.563c-1.971 3.268-3.635 6.04-6.281 7.968s-5.784 2.689-9.5 3.563-7.912 1.6-11.906 2.438c-3.995.837-7.826 1.772-10.5 2.812-2.576 1.002-3.548 2.213-3.563 2.125.078.207.293 1.704 1.656 3.813 1.558 2.409 4.097 5.387 6.844 8.406 2.747 3.018 5.688 6.083 8.188 8.969 2.5 2.885 4.609 5.325 5.625 8.437.263.808.418 1.636.53 2.469 2.409.087 4.83.156 7.282.156 27.042 0 51.56-5.393 69.5-14.156 1.8-1.974 3.694-4.005 5.5-6 2.74-3.026 5.26-6.025 6.813-8.438 1.358-2.111 1.607-3.573 1.687-3.781-.188-.124-1.283-1.22-3.625-2.125-2.677-1.033-6.472-1.954-10.469-2.781-3.996-.828-8.188-1.573-11.906-2.438s-6.849-1.61-9.5-3.531-4.333-4.674-6.312-7.938c-1.98-3.263-4-7.022-6.032-10.562-2.03-3.54-4.09-6.872-5.906-9.094-1.588-1.944-2.948-2.61-3.125-2.75z"/>
  <path fill="url(#l)" fill-rule="evenodd" d="M44.969 33.938l-.782 1.28a.076.076 0 0 1-.03 0l-1.344 1.72-1.282 1.53a.213.213 0 0 1-.031.032l-1.469 1.219a.213.213 0 0 1-.031.031l-2.875 1.281a.213.213 0 0 1-.031.032l-3.219.906-.5 3.656 1.75-.406v.031l4.594-1.5h.031l3.063-1.688.062-.03 2.906-2.938.032-.032 3.156-5.03z" filter="url(#m)" opacity=".644" transform="matrix(-1 0 0 1 128.125 .3)"/>
  <path fill="url(#o)" d="M196.344 11.906c-.174.139-1.542.802-3.125 2.75-1.81 2.227-3.853 5.58-5.875 9.125s-4.029 7.294-6 10.563c-1.972 3.268-3.635 6.04-6.281 7.968-2.647 1.928-5.785 2.689-9.5 3.563-3.716.874-7.912 1.6-11.907 2.438-3.994.837-7.826 1.772-10.5 2.812-2.575 1.002-3.547 2.213-3.562 2.125.03.08.121.389.25.813.416-.363 1.416-1.2 3.312-1.938 2.674-1.04 6.506-1.975 10.5-2.813 3.995-.837 8.19-1.563 11.906-2.437s6.854-1.635 9.5-3.563c2.647-1.927 4.31-4.7 6.282-7.968 1.971-3.269 3.978-7.018 6-10.563s4.065-6.898 5.875-9.125c1.583-1.948 2.951-2.611 3.125-2.75.177.14 1.536.806 3.125 2.75 1.815 2.222 3.875 5.554 5.906 9.094s4.051 7.299 6.031 10.563c1.98 3.263 3.662 6.016 6.313 7.937 2.65 1.921 5.782 2.666 9.5 3.531s7.91 1.61 11.906 2.438c3.996.827 7.792 1.748 10.469 2.781 1.92.741 2.975 1.58 3.406 1.938.134-.416.188-.733.219-.813-.188-.124-1.283-1.22-3.625-2.125-2.677-1.033-6.473-1.954-10.469-2.781-3.996-.828-8.188-1.573-11.906-2.438s-6.85-1.61-9.5-3.531c-2.651-1.921-4.333-4.674-6.313-7.938-1.98-3.263-4-7.022-6.031-10.562s-4.09-6.872-5.906-9.094c-1.589-1.944-2.948-2.61-3.125-2.75z" transform="translate(-132.3)"/>
  <path fill="url(#p)" d="M246.781 49.938c.644.204 1.257.442 1.813.656 2.342.904 3.437 2 3.625 2.125-.08.208-.33 1.67-1.688 3.781-1.552 2.413-4.073 5.412-6.812 8.438-1.806 1.995-3.7 4.026-5.5 6-17.94 8.763-42.458 14.156-69.5 14.156-2.125 0-4.223-.054-6.313-.125.012.083.02.167.031.25 2.408.087 4.83.156 7.282.156 27.042 0 51.56-5.393 69.5-14.156 1.8-1.974 3.694-4.005 5.5-6 2.739-3.026 5.26-6.025 6.812-8.438 1.358-2.111 1.608-3.573 1.688-3.78-.188-.125-1.283-1.222-3.625-2.126a36.416 36.416 0 0 0-2.813-.937z" transform="translate(-132.3)"/>
  <path fill="url(#q)" fill-rule="evenodd" d="M25.19 119.78c1.225 2.962 2.051 4.339 6.1 3.535l-.652-3.105-1.558.189-.818-1.826-3.071 1.207z" filter="url(#r)" opacity=".772"/>
  <path fill="url(#s)" d="M26.031 94.25c-1.047 10.864-3.812 25.6.75 28.906 6.372 4.617 29.507-11.333 37.375-11.344 7.869-.01 31.047 15.884 37.406 11.25 4.54-3.307 1.746-17.96.657-28.812h-3.875c.334 3.457.82 7.178 1.219 10.781.447 4.057.749 7.948.593 10.813-.136 2.507-.814 3.847-.875 4.062-.224-.008-1.728.264-4.156-.375-2.775-.73-6.401-2.236-10.125-3.906s-7.574-3.523-11.094-5-6.476-2.692-9.75-2.688c-3.274.005-6.265 1.234-9.781 2.72-3.516 1.485-7.343 3.351-11.063 5.03-3.72 1.68-7.352 3.17-10.124 3.907-2.427.645-3.901.397-4.126.406-.058-.214-.763-1.556-.906-4.063-.163-2.864.125-6.754.563-10.812.392-3.637.862-7.392 1.187-10.875z"/>
  <path fill="none" stroke="url(#t)" stroke-dashoffset="4" stroke-linecap="round" stroke-linejoin="round" d="M64.125 11.906c-.174.139-1.541.802-3.125 2.75-1.81 2.227-3.853 5.58-5.875 9.125s-4.029 7.294-6 10.563c-1.971 3.268-3.635 6.04-6.281 7.968s-5.785 2.689-9.5 3.563c-3.716.874-7.912 1.6-11.906 2.438-3.995.837-7.827 1.772-10.5 2.812-2.576 1.002-3.548 2.213-3.563 2.125.078.207.293 1.704 1.656 3.813 1.558 2.409 4.097 5.387 6.844 8.406 2.747 3.018 5.688 6.083 8.188 8.969 2.499 2.885 4.609 5.325 5.625 8.437 1.015 3.112.754 6.352.437 10.156s-.875 8.036-1.312 12.094c-.438 4.058-.726 7.948-.563 10.813.142 2.506.848 3.848.906 4.062.225-.01 1.7.239 4.125-.406 2.773-.738 6.406-2.227 10.125-3.906 3.72-1.68 7.547-3.546 11.063-5.032 3.516-1.485 6.507-2.714 9.781-2.719 3.274-.004 6.23 1.211 9.75 2.688s7.37 3.33 11.094 5 7.35 3.176 10.125 3.906c2.428.64 3.932.367 4.156.375.06-.215.739-1.555.875-4.062.156-2.865-.146-6.756-.594-10.813-.448-4.056-1.017-8.29-1.343-12.094-.327-3.803-.602-7.01.406-10.124 1.007-3.115 3.101-5.578 5.594-8.47 2.492-2.89 5.448-5.974 8.187-9 2.74-3.025 5.26-6.024 6.813-8.437 1.357-2.111 1.607-3.573 1.687-3.781-.188-.124-1.283-1.22-3.625-2.125-2.677-1.033-6.472-1.954-10.469-2.781-3.996-.828-8.188-1.573-11.906-2.438s-6.849-1.61-9.5-3.531-4.333-4.674-6.312-7.938c-1.98-3.263-4-7.022-6.032-10.562-2.03-3.54-4.09-6.872-5.906-9.094-1.588-1.944-2.948-2.61-3.125-2.75z" filter="url(#u)"/>
  <g fill-rule="evenodd">
    <path fill="url(#v)" d="M122.345 49.938l-3.448 3.005.708 2.033 4.33.796c.333-1.945 1.028-3.89-1.59-5.834z" filter="url(#w)" opacity=".609" transform="matrix(-1 0 0 1 128.172 0)"/>
    <path fill="url(#x)" d="M122.345 49.938l-3.448 3.005.708 2.033 4.33.796c.333-1.945 1.028-3.89-1.59-5.834z" filter="url(#y)" opacity=".609" transform="matrix(-1 0 0 1 128.172 0)"/>
  </g>
  <g fill-rule="evenodd">
    <path fill="url(#v)" d="M122.345 49.938l-3.448 3.005.708 2.033 4.33.796c.333-1.945 1.028-3.89-1.59-5.834z" filter="url(#w)" opacity=".609"/>
    <path fill="url(#x)" d="M122.345 49.938l-3.448 3.005.708 2.033 4.33.796c.333-1.945 1.028-3.89-1.59-5.834z" filter="url(#y)" opacity=".609"/>
  </g>
  <path fill="none" stroke="url(#t)" stroke-dashoffset="4" stroke-linecap="round" stroke-linejoin="round" stroke-width=".6" d="M64.125 11.906c-.174.139-1.541.802-3.125 2.75-1.81 2.227-3.853 5.58-5.875 9.125s-4.029 7.294-6 10.563c-1.971 3.268-3.635 6.04-6.281 7.968s-5.785 2.689-9.5 3.563c-3.716.874-7.912 1.6-11.906 2.438-3.995.837-7.827 1.772-10.5 2.812-2.576 1.002-3.548 2.213-3.563 2.125.078.207.293 1.704 1.656 3.813 1.558 2.409 4.097 5.387 6.844 8.406 2.747 3.018 5.688 6.083 8.188 8.969 2.499 2.885 4.609 5.325 5.625 8.437 1.015 3.112.754 6.352.437 10.156s-.875 8.036-1.312 12.094c-.438 4.058-.726 7.948-.563 10.813.142 2.506.848 3.848.906 4.062.225-.01 1.7.239 4.125-.406 2.773-.738 6.406-2.227 10.125-3.906 3.72-1.68 7.547-3.546 11.063-5.032 3.516-1.485 6.507-2.714 9.781-2.719 3.274-.004 6.23 1.211 9.75 2.688s7.37 3.33 11.094 5 7.35 3.176 10.125 3.906c2.428.64 3.932.367 4.156.375.06-.215.739-1.555.875-4.062.156-2.865-.146-6.756-.594-10.813-.448-4.056-1.017-8.29-1.343-12.094-.327-3.803-.602-7.01.406-10.124 1.007-3.115 3.101-5.578 5.594-8.47 2.492-2.89 5.448-5.974 8.187-9 2.74-3.025 5.26-6.024 6.813-8.437 1.357-2.111 1.607-3.573 1.687-3.781-.188-.124-1.283-1.22-3.625-2.125-2.677-1.033-6.472-1.954-10.469-2.781-3.996-.828-8.188-1.573-11.906-2.438s-6.849-1.61-9.5-3.531-4.333-4.674-6.312-7.938c-1.98-3.263-4-7.022-6.032-10.562-2.03-3.54-4.09-6.872-5.906-9.094-1.588-1.944-2.948-2.61-3.125-2.75z" filter="url(#z)"/>
  <path fill="url(#q)" fill-rule="evenodd" d="M25.19 119.78c1.225 2.962 2.051 4.339 6.1 3.535l-.652-3.105-1.558.189-.818-1.826-3.071 1.207z" filter="url(#r)" opacity=".772" transform="matrix(-1 0 0 1 128.105 0)"/>
  <path fill="url(#A)" d="M26.031 94.25c-1.047 10.864-3.812 25.6.75 28.906 6.372 4.617 29.507-12.333 37.375-12.344 7.869-.01 31.047 16.884 37.406 12.25 4.54-3.307 1.746-17.96.657-28.812h-3.875c.334 3.457.82 7.178 1.219 10.781.447 4.057.749 7.948.593 10.813-.136 2.507-.814 3.847-.875 4.062-.224-.008-1.728.264-4.156-.375-2.775-.73-6.401-2.236-10.125-3.906s-7.574-3.523-11.094-5-6.476-2.692-9.75-2.688c-3.274.005-6.265 1.234-9.781 2.72-3.516 1.485-7.343 3.351-11.063 5.03-3.72 1.68-7.352 3.17-10.124 3.907-2.427.645-3.901.397-4.126.406-.058-.214-.763-1.556-.906-4.063-.163-2.864.125-6.754.563-10.812.392-3.637.862-7.392 1.187-10.875z" filter="url(#B)"/>
  <path fill="url(#C)" d="M3.969 51.25c-.162.263-.315.53-.406.813-2.153 6.65 15.228 20.853 20.842 29.187.66.97 1.476 2.31 1.746 3.8 1.505-.301 3.424-2.408 2.754-3.8-1.137-2.374-2.894-4.454-4.937-6.813-2.5-2.885-5.441-5.95-8.188-8.968-2.746-3.019-5.285-5.997-6.844-8.406-1.363-2.109-1.578-3.606-1.656-3.813.015.084.916-1.027 3.25-2H3.97zm113.906 0c1.924.845 2.86 1.762 3.031 1.875-.08.208-.33 1.67-1.687 3.781-1.552 2.413-4.074 5.412-6.813 8.438-2.739 3.025-5.695 6.108-8.187 9-2.058 2.387-3.841 4.495-4.969 6.906-.86 2.441 1.94 3.5 2.839 3.58.328-1.456.985-2.529 1.661-3.58 5.533-8.336 23.02-22.674 20.844-29.344a3.842 3.842 0 0 0-.313-.656z" filter="url(#D)" opacity=".842"/>
</svg>
