<?xml version="1.0" encoding="UTF-8" standalone="no"?>
<svg xmlns="http://www.w3.org/2000/svg" xmlns:xlink="http://www.w3.org/1999/xlink" width="96" height="96" version="1.0">
  <defs>
    <linearGradient id="f">
      <stop offset="0" stop-color="#e8f8c8"/>
      <stop offset="1" stop-color="#e8f8c8" stop-opacity="0"/>
    </linearGradient>
    <linearGradient id="e">
      <stop offset="0" stop-color="#8c8c8c"/>
      <stop offset="1" stop-color="#303032"/>
    </linearGradient>
    <linearGradient id="d">
      <stop offset="0" stop-color="#36681f"/>
      <stop offset="1" stop-color="#36681f" stop-opacity="0"/>
    </linearGradient>
    <linearGradient id="g">
      <stop offset="0" stop-color="#effac2"/>
      <stop offset=".5" stop-color="#effac2" stop-opacity=".79389316"/>
      <stop offset="1" stop-color="#effac2" stop-opacity="0"/>
    </linearGradient>
    <linearGradient id="a">
      <stop offset="0" stop-color="#fff"/>
      <stop offset="1" stop-color="#fff" stop-opacity="0"/>
    </linearGradient>
    <linearGradient id="b">
      <stop offset="0" stop-color="#5eb71f"/>
      <stop offset="1" stop-color="#4e9425"/>
    </linearGradient>
    <linearGradient xlink:href="#a" id="r" x1="36.357143" x2="36.357143" y1="6" y2="63.893143" gradientUnits="userSpaceOnUse"/>
    <linearGradient xlink:href="#b" id="m" x1="48" x2="48" y1="90" y2="5.9877172" gradientUnits="userSpaceOnUse"/>
    <linearGradient id="c" x1="45.447727" x2="45.447727" y1="92.539597" y2="7.0165396" gradientTransform="matrix(1.00587 0 0 .99417 100 0)" gradientUnits="userSpaceOnUse">
      <stop offset="0"/>
      <stop offset="1" stop-opacity=".58823532"/>
    </linearGradient>
    <linearGradient xlink:href="#c" id="i" x1="32.251034" x2="32.251034" y1="6.1317081" y2="90.238609" gradientTransform="matrix(1.0238 0 0 1.0119 -1.1428571 -98.071429)" gradientUnits="userSpaceOnUse"/>
    <linearGradient xlink:href="#c" id="j" x1="32.251034" x2="32.251034" y1="6.1317081" y2="90.238609" gradientTransform="matrix(1.0238 0 0 1.0119 -1.1428571 -98.071429)" gradientUnits="userSpaceOnUse"/>
    <linearGradient xlink:href="#c" id="k" x1="32.251034" x2="32.251034" y1="6.1317081" y2="90.238609" gradientTransform="matrix(1.0238 0 0 1.0119 -1.1428571 -98.071429)" gradientUnits="userSpaceOnUse"/>
    <linearGradient xlink:href="#c" id="l" x1="32.251034" x2="32.251034" y1="6.1317081" y2="90.238609" gradientTransform="translate(0 -97)" gradientUnits="userSpaceOnUse"/>
    <linearGradient xlink:href="#c" id="h" x1="32.251034" x2="32.251034" y1="6.1317081" y2="90.238609" gradientTransform="matrix(1.0238 0 0 1.0119 -1.1428571 -98.071429)" gradientUnits="userSpaceOnUse"/>
    <linearGradient xlink:href="#d" id="o" x1="6" x2="120" y1="88" y2="88" gradientUnits="userSpaceOnUse"/>
    <linearGradient xlink:href="#e" id="w" x1="32" x2="25" y1="26" y2="20" gradientUnits="userSpaceOnUse"/>
    <linearGradient xlink:href="#f" id="u" x1="48" x2="48" y1="64" y2="112" gradientUnits="userSpaceOnUse" spreadMethod="reflect"/>
    <radialGradient xlink:href="#a" id="s" cx="48" cy="90.171875" r="42" fx="48" fy="90.171875" gradientTransform="matrix(1.15731 0 0 .9959 -7.5510206 .19713193)" gradientUnits="userSpaceOnUse"/>
    <radialGradient xlink:href="#g" id="n" cx="48" cy="48" r="42" fx="48" fy="48" gradientTransform="translate(-6.8571468 -6.8571409) scale(1.14286)" gradientUnits="userSpaceOnUse"/>
    <radialGradient xlink:href="#e" id="x" cx="56" cy="50.518402" r="30.119238" fx="56" fy="50.518402" gradientTransform="matrix(1.59367 0 0 1.29485 -33.245286 -14.413928)" gradientUnits="userSpaceOnUse"/>
    <filter id="q" color-interpolation-filters="sRGB">
      <feGaussianBlur stdDeviation="1.68"/>
    </filter>
    <filter id="v" color-interpolation-filters="sRGB">
      <feGaussianBlur stdDeviation=".33067541"/>
    </filter>
    <filter id="t" color-interpolation-filters="sRGB">
      <feGaussianBlur stdDeviation=".82668854"/>
    </filter>
    <clipPath id="p">
      <rect width="84" height="84" x="6" y="46" fill="#f0f" rx="6" ry="6"/>
    </clipPath>
  </defs>
  <g transform="scale(1 -1)">
    <path fill="url(#h)" d="M12-95.03125C6.4889097-95.03125 1.96875-90.51109 1.96875-85v71C1.96875-8.4889098 6.4889098-3.96875 12-3.96875h72c5.51109 0 10.03125-4.5201597 10.03125-10.03125v-71c0-5.51109-4.52016-10.03125-10.03125-10.03125H12z" opacity=".07999998"/>
    <path fill="url(#i)" d="M12-94.03125c-4.971633 0-9.03125 4.059617-9.03125 9.03125v71c0 4.9716329 4.0596171 9.03125 9.03125 9.03125h72c4.971633 0 9.03125-4.059617 9.03125-9.03125v-71c0-4.971633-4.059617-9.03125-9.03125-9.03125H12z" opacity=".1"/>
    <path fill="url(#j)" d="M12-93c-4.4091333 0-8 3.590867-8 8v71c0 4.4091333 3.5908667 8 8 8h72c4.409133 0 8-3.5908667 8-8v-71c0-4.409133-3.590867-8-8-8H12z" opacity=".2"/>
    <rect width="86" height="85" x="5" y="-92" fill="url(#k)" opacity=".3" rx="7" ry="7"/>
    <rect width="84" height="84" x="6" y="-91" fill="url(#l)" opacity=".45" rx="6" ry="6"/>
  </g>
  <rect width="84" height="84" x="6" y="6" fill="url(#m)" rx="6" ry="6"/>
  <rect width="84" height="84" x="6" y="6" fill="url(#n)" rx="6" ry="6"/>
  <rect width="84" height="84" x="6" y="46" fill="none" stroke="url(#o)" stroke-width="6" clip-path="url(#p)" filter="url(#q)" rx="6" ry="6" transform="rotate(90 68 68)"/>
  <path fill="url(#r)" d="M12 6c-3.324 0-6 2.676-6 6v72c0 .334721.04135.6507.09375.96875.0487.295596.09704.596915.1875.875.00988.03038.020892.0636.03125.09375.098865.287771.2348802.547452.375.8125.1445918.273507.3156161.535615.5.78125.1843839.245635.3737765.473472.59375.6875.439947.428056.94291.814526 1.5 1.09375.278545.139612.5734731.246947.875.34375-.2562018-.100222-.4867109-.236272-.71875-.375-.00741-.0044-.023866.0045-.03125 0-.031933-.0193-.062293-.04251-.09375-.0625-.120395-.0767-.2310226-.163513-.34375-.25-.1061728-.0808-.2132809-.161112-.3125-.25-.1779299-.161433-.3474596-.345388-.5-.53125-.1075789-.130255-.2183939-.265285-.3125-.40625-.025089-.03838-.038446-.08587-.0625-.125-.064763-.103032-.1302275-.204517-.1875-.3125-.1010083-.194706-.2056748-.415701-.28125-.625-.00796-.02181-.023589-.04055-.03125-.0625-.0318251-.09195-.0358045-.186831-.0625-.28125-.0303323-.106618-.0703894-.203031-.09375-.3125C7.0521214 85.720988 7 85.364295 7 85V13c0-2.781848 2.2181517-5 5-5h72c2.781848 0 5 2.218152 5 5v72c0 .364295-.05212.720988-.125 1.0625-.04415.206893-.08838.397658-.15625.59375-.0077.02195-.0233.04069-.03125.0625-.06274.173739-.138383.367449-.21875.53125-.04158.0828-.07904.169954-.125.25-.0546.09721-.126774.18835-.1875.28125-.09411.140965-.204921.275995-.3125.40625-.143174.17445-.303141.346998-.46875.5-.01117.0102-.01998.02115-.03125.03125-.138386.125556-.285091.234436-.4375.34375-.102571.07315-.204318.153364-.3125.21875-.0074.0045-.02384-.0044-.03125 0-.232039.138728-.462548.274778-.71875.375.301527-.0968.596455-.204138.875-.34375.55709-.279224 1.060053-.665694 1.5-1.09375.219973-.214028.409366-.441865.59375-.6875s.355408-.507743.5-.78125c.14012-.265048.276135-.524729.375-.8125.01041-.03078.02133-.06274.03125-.09375.09046-.278085.1388-.579404.1875-.875C89.95865 84.6507 90 84.334721 90 84V12c0-3.324-2.676-6-6-6H12z" opacity=".25"/>
  <path fill="url(#s)" d="M12 90c-3.324 0-6-2.676-6-6V12c0-.334721.04135-.6507.09375-.96875.0487-.295596.09704-.596915.1875-.875.00988-.03038.020892-.0636.03125-.09375.098865-.287771.2348802-.547452.375-.8125.1445918-.273507.3156161-.535615.5-.78125.1843839-.245635.3737765-.473472.59375-.6875.439947-.428056.94291-.814526 1.5-1.09375.278545-.139612.5734731-.246947.875-.34375-.2562018.100222-.4867109.236272-.71875.375-.00741.0044-.023866-.0045-.03125 0-.031933.0193-.062293.04251-.09375.0625-.120395.0767-.2310226.163513-.34375.25-.1061728.0808-.2132809.161112-.3125.25-.1779299.161433-.3474596.345388-.5.53125-.1075789.130255-.2183939.265285-.3125.40625-.025089.03838-.038446.08587-.0625.125-.064763.103032-.1302275.204517-.1875.3125-.1010083.194706-.2056748.415701-.28125.625-.00796.02181-.023589.04055-.03125.0625-.0318251.09195-.0358045.186831-.0625.28125-.0303323.106618-.0703894.203031-.09375.3125C7.0521214 10.279012 7 10.635705 7 11v72c0 2.781848 2.2181517 5 5 5h72c2.781848 0 5-2.218152 5-5V11c0-.364295-.05212-.720988-.125-1.0625-.04415-.206893-.08838-.397658-.15625-.59375-.0077-.02195-.0233-.04069-.03125-.0625-.06274-.173739-.138383-.367449-.21875-.53125-.04158-.0828-.07904-.169954-.125-.25-.0546-.09721-.126774-.18835-.1875-.28125-.09411-.140965-.204921-.275995-.3125-.40625-.143174-.17445-.303141-.346998-.46875-.5-.01117-.0102-.01998-.02115-.03125-.03125-.138386-.125556-.285091-.234436-.4375-.34375-.102571-.07315-.204318-.153364-.3125-.21875-.0074-.0045-.02384.0044-.03125 0-.232039-.138728-.462548-.274778-.71875-.375.301527.0968.596455.204138.875.34375.55709.279224 1.060053.665694 1.5 1.09375.219973.214028.409366.441865.59375.6875s.355408.507743.5.78125c.14012.265048.276135.524729.375.8125.01041.03078.02133.06274.03125.09375.09046.278085.1388.579404.1875.875.0524.31805.09375.634029.09375.96875v72c0 3.324-2.676 6-6 6H12z" opacity=".2"/>
  <path fill="#7ac143" d="M1169.228-323.084c10.038 0 18.128 8.134 18.128 18.125 0 10.025-8.09 18.18-18.128 18.18-10.055 0-18.144-8.155-18.144-18.18 0-9.991 8.089-18.125 18.144-18.125zm0 33.103c8.101 0 14.734-6.613 14.734-14.978 0-8.357-6.634-14.957-14.734-14.957-8.114 0-14.744 6.6-14.744 14.957 0 8.365 6.63 14.978 14.744 14.978zm-7.737-25.346h7.975c5.124 0 7.782 1.79 7.782 5.973 0 3.784-2.405 5.36-5.358 5.906l5.584 8.866h-3.901l-5.453-8.699h-3.21v8.699h-3.418v-20.745zm3.418 8.876h4.557c3.306 0 4.338-1.13 4.338-3.075 0-1.926-1.637-2.616-4.338-2.616h-4.557v5.691z"/>
  <path d="M41.53125 11.5c-1.594102.05066-2.879908.232472-3.5.40625-1.313902.36723-2.784333 1.121484-3.59375 2.28125-.542837.774663-.872271 1.769745-.875 3.15625 0 .784718.01126 2.607593.03125 4.25.0199 1.647498.03125 3.146202.03125 3.15625-.000934 1.466803-1.182998 2.65439-2.65625 2.65625h-6.75c-1.441598 0-2.533565.242754-3.375.625-.842677.382615-1.452768.889773-1.90625 1.5-.90262 1.211765-1.066227 2.69275-1.0625 4.21875 0 0 .01204 1.273902.3125 3.6875.249818 1.867537 2.295126 14.907229 4.21875 18.875.745877 1.543743 1.222189 2.194534 2.6875 2.875 3.264834 1.397799 10.723569 2.929715 14.21875 3.375 3.488848.446408 5.69503 1.392398 7-1.34375.0046-.0068.240179-.667631.59375-1.65625 1.132958-3.433126 1.3125-6.483142 1.3125-8.6875 0-.224133.3125-.234435.3125 0 0 1.55628-.285121 7.053774 3.875 8.53125 1.642293.582425 5.038332 1.094299 8.5 1.5 3.130055.359657 5.40625 1.59465 5.40625 9.625 0 4.885653-1.041679 5.5625-6.40625 5.5625-4.34864 0-6 .111085-6-3.34375 0-2.792244 2.765765-2.5 4.8125-2.5.914168 0 .25-.683542.25-2.40625 0-1.713643 1.076151-2.693685.0625-2.71875-7.077476-.194724-11.25-.0075-11.25 8.84375 0 8.035443 3.080165 9.53125 13.125 9.53125 7.875718 0 10.654318-.253618 13.90625-10.34375.643731-1.991882 2.214418-8.074833 3.15625-18.28125.595577-6.45335-.582376-25.92769-1.5-30.84375-.536764-2.873283-2.236758-4.318263-3.78125-4.875-1.666351-.602281-5.035857-1.218359-9.28125-1.71875-3.415497-.402225-7.450095-.35621-9.875-.28125-.291019-1.993377-1.685534-3.807045-3.25-4.4375-2.605202-1.048611-6.093163-1.303174-8.75-1.21875zm-9.25 1.9375c-.02588.0044-.06805.0054-.09375.03125L19.0625 26.5c-.02569.02112-.05512.03432-.0625.0625.271539-.134407.666253-.320664.71875-.34375 1.143385-.515906 2.527849-.78125 4.1875-.78125h6.75c.387213 0 .686753-.303268.6875-.6875 0-.0025-.0625-5.79574-.0625-7.40625v-.03125c0-1.322714.26648-2.471093.75-3.4375l.25-.4375zm31.125 27.96875c.165377-.01271.349979-.0064.53125 0 3.210608.110454 3.644833 3.13207 3.65625 5.1875-1.353739-.603648-3.018414-.998339-4.84375-1.0625-.972991-.03402-1.908537.04726-2.78125.1875.230255-1.859598.956845-4.121789 3.4375-4.3125z" opacity=".1"/>
  <path fill="#37820f" d="M41.53125 11.0625c-1.594102.05066-2.879908.232472-3.5.40625-1.313902.36723-2.784333 1.121484-3.59375 2.28125-.542837.774663-.872271 1.769745-.875 3.15625 0 .784718.01126 2.607593.03125 4.25.0199 1.647498.03125 3.146202.03125 3.15625-.000934 1.466803-1.182998 2.65439-2.65625 2.65625h-6.75c-1.441598 0-2.533565.242754-3.375.625-.842677.382615-1.452768.889773-1.90625 1.5-.90262 1.211765-1.066227 2.69275-1.0625 4.21875 0 0 .01204 1.273902.3125 3.6875.249818 1.867537 2.295126 14.907229 4.21875 18.875.745877 1.543743 1.222189 2.194534 2.6875 2.875 3.264834 1.397799 10.723569 2.929715 14.21875 3.375 3.488848.446408 5.69503 1.392398 7-1.34375.0046-.0068.240179-.667631.59375-1.65625 1.132958-3.433126 1.3125-6.483142 1.3125-8.6875 0-.224133.3125-.234435.3125 0 0 1.55628-.285121 7.053774 3.875 8.53125 1.642293.582425 5.038332 1.094299 8.5 1.5 3.130055.359657 5.40625 1.59465 5.40625 9.625 0 4.885653-1.041679 5.5625-6.40625 5.5625-4.34864 0-6 .111085-6-3.34375 0-2.792244 2.765765-2.5 4.8125-2.5.914168 0 .25-.683542.25-2.40625 0-1.713643 1.076151-2.693685.0625-2.71875-7.077476-.194724-11.25-.0075-11.25 8.84375 0 8.035443 3.080165 9.53125 13.125 9.53125 7.875718 0 10.654318-.253618 13.90625-10.34375.643731-1.991882 2.214418-8.074833 3.15625-18.28125.595577-6.45335-.582376-25.92769-1.5-30.84375-.536764-2.873283-2.236758-4.318263-3.78125-4.875-1.666351-.602281-5.035857-1.218359-9.28125-1.71875-3.415497-.402225-7.450095-.35621-9.875-.28125-.291019-1.993377-1.685534-3.807045-3.25-4.4375-2.605202-1.048611-6.093163-1.303174-8.75-1.21875zM32.28125 13c-.02588.0044-.06805.0054-.09375.03125L19.0625 26.0625c-.02569.02112-.05512.03432-.0625.0625.271539-.134407.666253-.320664.71875-.34375C20.862135 25.265344 22.246599 25 23.90625 25h6.75c.387213 0 .686753-.303268.6875-.6875 0-.0025-.0625-5.79574-.0625-7.40625V16.875c0-1.322714.26648-2.471093.75-3.4375l.25-.4375zm31.125 27.96875c.165377-.01271.349979-.0064.53125 0 3.210608.110454 3.644833 3.13207 3.65625 5.1875-1.353739-.603648-3.018414-.998339-4.84375-1.0625-.972991-.03402-1.908537.04726-2.78125.1875.230255-1.859598.956845-4.121789 3.4375-4.3125z" filter="url(#t)" opacity=".8"/>
  <path fill="url(#u)" d="M41.53125 13.0625c-1.594102.05066-2.879908.232472-3.5.40625-1.313902.36723-2.784333 1.121484-3.59375 2.28125-.542837.774663-.872271 1.769745-.875 3.15625 0 .784718.01126 2.607593.03125 4.25.0199 1.647498.03125 3.146202.03125 3.15625-.000934 1.466803-1.182998 2.65439-2.65625 2.65625h-6.75c-1.441598 0-2.533565.242754-3.375.625-.842677.382615-1.452768.889773-1.90625 1.5-.90262 1.211765-1.066227 2.69275-1.0625 4.21875 0 0 .01204 1.273902.3125 3.6875.249818 1.867537 2.295126 14.907229 4.21875 18.875.745877 1.543743 1.222189 2.194534 2.6875 2.875 3.264834 1.397799 10.723569 2.929715 14.21875 3.375 3.488848.446408 5.69503 1.392398 7-1.34375.0046-.0068.240179-.667631.59375-1.65625 1.132958-3.433126 1.3125-6.483142 1.3125-8.6875 0-.224133.3125-.234435.3125 0 0 1.55628-.285121 7.053774 3.875 8.53125 1.642293.582425 5.038332 1.094299 8.5 1.5 3.130055.359657 5.40625 1.59465 5.40625 9.625 0 4.885653-1.041679 5.5625-6.40625 5.5625-4.34864 0-6 .111085-6-3.34375 0-2.792244 2.765765-2.5 4.8125-2.5.914168 0 .25-.683542.25-2.40625 0-1.713643 1.076151-2.693685.0625-2.71875-7.077476-.194724-11.25-.0075-11.25 8.84375 0 8.035443 3.080165 9.53125 13.125 9.53125 7.875718 0 10.654318-.253618 13.90625-10.34375.643731-1.991882 2.214418-8.074833 3.15625-18.28125.595577-6.45335-.582376-25.92769-1.5-30.84375-.536764-2.873283-2.236758-4.318263-3.78125-4.875-1.666351-.602281-5.035857-1.218359-9.28125-1.71875-3.415497-.402225-7.450095-.35621-9.875-.28125-.291019-1.993377-1.685534-3.807045-3.25-4.4375-2.605202-1.048611-6.093163-1.303174-8.75-1.21875zM32.28125 15c-.02588.0044-.06805.0054-.09375.03125L19.0625 28.0625c-.02569.02112-.05512.03432-.0625.0625.271539-.134407.666253-.320664.71875-.34375C20.862135 27.265344 22.246599 27 23.90625 27h6.75c.387213 0 .686753-.303268.6875-.6875 0-.0025-.0625-5.79574-.0625-7.40625V18.875c0-1.322714.26648-2.471093.75-3.4375l.25-.4375zm31.125 27.96875c.165377-.01271.349979-.0064.53125 0 3.210608.110454 3.644833 3.13207 3.65625 5.1875-1.353739-.603648-3.018414-.998339-4.84375-1.0625-.972991-.03402-1.908537.04726-2.78125.1875.230255-1.859598.956845-4.121789 3.4375-4.3125z" filter="url(#v)"/>
  <path fill="url(#w)" d="M23.897518 25.997122h6.761757c.387213 0 .698591-.315351.699338-.699583 0-.0025-.08203-5.793853-.08203-7.404363v-.01911c0-1.322714.277613-2.475901.761133-3.442308l.231086-.433995c-.02588.0044-.05175.01699-.07745.04282L19.062078 27.06022c-.02569.02112-.04176.04852-.04914.0767.271539-.134407.642862-.318082.695359-.341168 1.143385-.515906 2.529769-.798617 4.18942-.798617z"/>
  <path fill="url(#x)" d="M41.53125 12.0625c-1.594102.05066-2.879908.232472-3.5.40625-1.313902.36723-2.784333 1.121484-3.59375 2.28125-.542837.774663-.872271 1.769745-.875 3.15625 0 .784718.01126 2.607593.03125 4.25.0199 1.647498.03125 3.146202.03125 3.15625-.000934 1.466803-1.182998 2.65439-2.65625 2.65625h-6.75c-1.441598 0-2.533565.242754-3.375.625-.842677.382615-1.452768.889773-1.90625 1.5-.90262 1.211765-1.066227 2.69275-1.0625 4.21875 0 0 .01204 1.273902.3125 3.6875.249818 1.867537 2.295126 14.907229 4.21875 18.875.745877 1.543743 1.222189 2.194534 2.6875 2.875 3.264834 1.397799 10.723569 2.929715 14.21875 3.375 3.488848.446408 5.69503 1.392398 7-1.34375.0046-.0068.240179-.667631.59375-1.65625 1.132958-3.433126 1.3125-6.483142 1.3125-8.6875 0-.224133.3125-.234435.3125 0 0 1.55628-.285121 7.053774 3.875 8.53125 1.642293.582425 5.038332 1.094299 8.5 1.5 3.130055.359657 5.40625 1.59465 5.40625 9.625 0 4.885653-1.041679 5.5625-6.40625 5.5625-4.34864 0-6 .111085-6-3.34375 0-2.792244 2.765765-2.5 4.8125-2.5.914168 0 .25-.683542.25-2.40625 0-1.713643 1.076151-2.693685.0625-2.71875-7.077476-.194724-11.25-.0075-11.25 8.84375 0 8.035443 3.080165 9.53125 13.125 9.53125 7.875718 0 10.654318-.253618 13.90625-10.34375.643731-1.991882 2.214418-8.074833 3.15625-18.28125.595577-6.45335-.582376-25.92769-1.5-30.84375-.536764-2.873283-2.236758-4.318263-3.78125-4.875-1.666351-.602281-5.035857-1.218359-9.28125-1.71875-3.415497-.402225-7.450095-.35621-9.875-.28125-.291019-1.993377-1.685534-3.807045-3.25-4.4375-2.605202-1.048611-6.093163-1.303174-8.75-1.21875zm21.875 29.90625c.165377-.01271.349979-.0064.53125 0 3.210608.110454 3.644833 3.13207 3.65625 5.1875-1.353739-.603648-3.018414-.998339-4.84375-1.0625-.972991-.03402-1.908537.04726-2.78125.1875.230255-1.859598.956845-4.121789 3.4375-4.3125z"/>
  <path d="M41.53125 12.0625c-1.594102.05066-2.879908.232472-3.5.40625-1.313902.36723-2.784333 1.121484-3.59375 2.28125-.542837.774663-.872271 1.769745-.875 3.15625 0 .784718.01126 2.607593.03125 4.25.0199 1.647498.03125 3.146202.03125 3.15625-.000934 1.466803-1.182998 2.65439-2.65625 2.65625h-6.75c-1.441598 0-2.533565.242754-3.375.625-.842677.382615-1.452768.889773-1.90625 1.5-.90262 1.211765-1.066227 2.69275-1.0625 4.21875 0 0 .01204 1.273902.3125 3.6875.249818 1.867537 2.295126 14.907229 4.21875 18.875.745877 1.543743 1.222189 2.194534 2.6875 2.875 3.264834 1.397799 10.723569 2.929715 14.21875 3.375 3.488848.446408 5.69503 1.392398 7-1.34375.0046-.0068.240179-.667631.59375-1.65625 1.132958-3.433126 1.3125-6.483142 1.3125-8.6875 0-.224133.3125-.234435.3125 0 0 1.55628-.285121 7.053774 3.875 8.53125 1.642293.582425 5.038332 1.094299 8.5 1.5 3.130055.359657 5.40625 1.59465 5.40625 9.625 0 4.885653-1.041679 5.5625-6.40625 5.5625-4.34864 0-6 .111085-6-3.34375 0-2.792244 2.765765-2.5 4.8125-2.5.914168 0 .25-.683542.25-2.40625 0-1.713643 1.076151-2.693685.0625-2.71875-7.077476-.194724-11.25-.0075-11.25 8.84375 0 8.035443 3.080165 9.53125 13.125 9.53125 7.875718 0 10.654318-.253618 13.90625-10.34375.643731-1.991882 2.214418-8.074833 3.15625-18.28125.595577-6.45335-.582376-25.92769-1.5-30.84375-.536764-2.873283-2.236758-4.318263-3.78125-4.875-1.666351-.602281-5.035857-1.218359-9.28125-1.71875-3.415497-.402225-7.450095-.35621-9.875-.28125-.291019-1.993377-1.685534-3.807045-3.25-4.4375-2.605202-1.048611-6.093163-1.303174-8.75-1.21875zm.03125.96875c2.567395-.08158 5.967952.199975 8.34375 1.15625 1.148649.462887 2.417444 2.051763 2.65625 3.6875a.97708905.97708905 0 0 0 1 .8125c2.403795-.07431 6.400603-.109511 9.71875.28125 4.212494.496513 7.591804 1.124686 9.0625 1.65625 1.252309.451415 2.677008 1.590879 3.15625 4.15625.859902 4.606821 2.068214 24.40564 1.5 30.5625-.935963 10.142818-2.517249 16.18195-3.125 18.0625-1.601778 4.970015-3.032766 7.307104-4.8125 8.4375-1.779734 1.130396-4.228878 1.25-8.15625 1.25-4.973922 0-8.093353-.445194-9.78125-1.59375-.843949-.574278-1.391311-1.294988-1.78125-2.40625-.389939-1.111262-.59375-2.616056-.59375-4.5625 0-2.136053.25269-3.690049.6875-4.78125.43481-1.091201 1.027574-1.72787 1.8125-2.1875 1.457741-.85361 3.935929-.970456 7.09375-.90625-.145736.446701-.34375.935125-.34375 1.75 0 .735884.08785 1.108154.15625 1.46875-.88818-.01713-1.867067-.106139-2.875.1875-.602508.175527-1.239876.501167-1.6875 1.0625s-.65625 1.328151-.65625 2.1875c0 .94154.08956 1.730371.40625 2.40625.316688.675879.908228 1.192323 1.5625 1.46875 1.308543.552854 2.833999.4375 5 .4375 2.723374 0 4.543276-.06681 5.84375-1.15625.650237-.544722 1.036408-1.335449 1.25-2.21875.213592-.883301.28125-1.900119.28125-3.15625 0-4.107484-.529676-6.613287-1.6875-8.25-1.157824-1.636713-2.898164-2.152511-4.5625-2.34375-3.440678-.403241-6.900137-.936618-8.3125-1.4375-1.71331-.608486-2.471422-1.985376-2.875-3.5625S49.5 52.275304 49.5 51.4375c0-.275662-.115386-.621601-.34375-.84375-.228364-.222149-.534592-.317081-.8125-.3125-.555815.0092-1.09375.590123-1.09375 1.15625 0 2.151308-.192631 5.076233-1.28125 8.375-.169621.474309-.305982.90736-.40625 1.1875-.04549.127088-.06665.205974-.09375.28125-.0037.01033-.02791.02199-.03125.03125-.0045.0078-.000013.03128 0 .03125a.97708905.97708905 0 0 0 0 .03125c-.0039.0106-.0287.0243-.03125.03125-.0035.0088.000115.03095 0 .03125-.519683 1.055553-.916927 1.180056-1.8125 1.21875-.919582.03973-2.351364-.26906-4.15625-.5-3.389372-.431805-10.961419-2.024948-13.96875-3.3125-1.274767-.598083-1.475444-.932505-2.1875-2.40625-.837829-1.728152-1.878018-6.003741-2.65625-9.96875-.778232-3.965009-1.350678-7.711093-1.46875-8.59375-.295649-2.374954-.3125-3.5625-.3125-3.5625-.0036-1.454626.166404-2.673712.875-3.625.357836-.481521.822861-.897108 1.53125-1.21875.693456-.315022 1.636831-.53125 2.96875-.53125h6.75c1.997625-.0025 3.623732-1.633643 3.625-3.625 0-.09322.000351-.04841 0-.09375s.000689-.103526 0-.1875c-.0014-.167947.0027-.396222 0-.6875-.0053-.582557-.02128-1.362416-.03125-2.1875-.01994-1.638075-.03125-3.474628-.03125-4.25.0024-1.23267.294953-1.988965.71875-2.59375.605379-.867411 1.86936-1.581507 3.03125-1.90625.452675-.12686 1.744651-.326167 3.28125-.375zM32.28125 14c-.02588.0044-.06805.0054-.09375.03125L19.0625 27.0625c-.02569.02112-.05512.03432-.0625.0625.271539-.134407.666253-.320664.71875-.34375C20.862135 26.265344 22.246599 26 23.90625 26h6.75c.387213 0 .686753-.303268.6875-.6875 0-.0025-.0625-5.79574-.0625-7.40625V17.875c0-1.322714.26648-2.471093.75-3.4375l.25-.4375zm-1.8125 3.09375c-.023573.27975-.15625.489199-.15625.78125v.03125c0 1.573672.05811 6.715098.0625 7.125h-6.46875c-.557737 0-1.05184.06793-1.5625.125l8.125-8.0625zM63.34375 41c-1.527429.117428-2.666866.949358-3.3125 1.96875-.645634 1.019392-.906659 2.181274-1.03125 3.1875A.97708905.97708905 0 0 0 60.125 47.25c.823108-.132269 1.696926-.218857 2.59375-.1875 1.705601.05995 3.242424.453167 4.46875 1a.97708905.97708905 0 0 0 1.375-.90625c-.0061-1.093852-.08928-2.486726-.71875-3.75S65.878492 41.065701 63.96875 41c-.182016-.0064-.379605-.01886-.625 0zm.0625.96875c.165377-.01271.349979-.0064.53125 0 3.210608.110454 3.644833 3.13207 3.65625 5.1875-1.353739-.603648-3.018414-.998339-4.84375-1.0625-.972991-.03402-1.908537.04726-2.78125.1875.230255-1.859598.956845-4.121789 3.4375-4.3125z" opacity=".1"/>
  <path d="M32.28125 14c-.02588.0044-.06805.0054-.09375.03125l-.375.375c-.333604.848337-.53125 1.817359-.53125 2.90625v.03125c0 .101924-.000469.335849 0 .46875.0084-1.295956.274246-2.424116.75-3.375l.25-.4375zm-.9375 10.78125c-.01598.369737-.310537.65625-.6875.65625h-6.75c-1.515596 0-2.792406.224947-3.875.65625l-.96875.96875c-.02569.02112-.05512.03432-.0625.0625.271539-.134407.666253-.320664.71875-.34375C20.862135 26.265344 22.246599 26 23.90625 26h6.75c.387213 0 .686753-.303268.6875-.6875 0-.000179.000597-.47517 0-.53125zM17.875 34c-.0015.105382-.000259.206609 0 .3125 0 0 .01204 1.273902.3125 3.6875.249818 1.867537 2.295126 14.907229 4.21875 18.875.745877 1.543743 1.222189 2.194534 2.6875 2.875 3.264834 1.397799 10.723569 2.929715 14.21875 3.375 3.488848.446408 5.69503 1.392398 7-1.34375.0046-.0068.240179-.667631.59375-1.65625.937594-2.841129 1.210965-5.383282 1.28125-7.4375-.103604 1.948708-.431531 4.300156-1.28125 6.875-.353571.988619-.58915 1.64945-.59375 1.65625-1.30497 2.736148-3.511152 1.790158-7 1.34375-3.495181-.445285-10.953916-1.977201-14.21875-3.375-1.465311-.680466-1.941623-1.331257-2.6875-2.875-1.923624-3.967771-3.968932-17.007463-4.21875-18.875-.260443-2.092142-.30547-3.145427-.3125-3.4375zm45.53125 7.40625c-2.480655.190711-3.207245 2.452902-3.4375 4.3125.03004-.0048.06356.0047.09375 0 .306105-1.727577 1.105471-3.577923 3.34375-3.75.165377-.01271.349979-.0064.53125 0 2.932585.100889 3.531566 2.621274 3.625 4.625.0087.0039.02257-.0039.03125 0-.01142-2.05543-.445642-5.077046-3.65625-5.1875-.181271-.0064-.365873-.01271-.53125 0zM48.375 50.6875c-.07813.0013-.15625.07543-.15625.1875 0 .170977.0025.381564 0 .5625 0-.224133.3125-.234435.3125 0 .0012-.168011 0-.439674 0-.5625 0-.117217-.07813-.188788-.15625-.1875zm29.75 1.21875c-.023 1.159709-.0818 2.162081-.15625 2.96875-.941832 10.206417-2.512519 16.289368-3.15625 18.28125C71.560568 83.246382 68.781968 83.5 60.90625 83.5c-9.417033 0-12.718568-1.308415-13.09375-8.09375.230922 7.25789 3.431172 8.65625 13.09375 8.65625 7.875718 0 10.654318-.253618 13.90625-10.34375.643731-1.991882 2.214418-8.074833 3.15625-18.28125.08525-.923766.137712-2.154763.15625-3.53125zm-29.5625.75c.03389 2.214698.39533 6.087786 3.84375 7.3125 1.642293.582425 5.038332 1.094299 8.5 1.5 2.934427.337178 5.113467 1.433698 5.375 8.1875-.164667-7.235489-2.364059-8.40403-5.375-8.75-3.461668-.405701-6.857707-.917575-8.5-1.5-3.120091-1.108107-3.728935-4.478017-3.84375-6.75zm10.8125 13.1875c-.142331.462349-.40625 1.143179-.40625 2 0 .101721-.0042.186702 0 .28125.08562-1.199884.624127-1.983248.40625-2.28125zm-.21875 4.28125c-.06629.091-.208958.125-.4375.125-2.046735 0-4.8125-.292244-4.8125 2.5 0 .0963.02866.159163.03125.25.202967-2.45581 2.814652-2.1875 4.78125-2.1875.495689 0 .512408-.228865.4375-.6875z" opacity=".6"/>
  <path fill="#fff" d="M41.5625 13.03125c-1.536447.04883-2.829019.248264-3.28125.375-1.161487.324631-2.426412 1.039613-3.03125 1.90625-.423482.604335-.716325 1.361487-.71875 2.59375 0 .08551-.000272.359112 0 .46875.0077-1.212273.299168-1.96373.71875-2.5625.604838-.866637 1.869763-1.581619 3.03125-1.90625.452231-.126736 1.744803-.326172 3.28125-.375 2.567158-.08157 5.968559.20022 8.34375 1.15625 1.147547.462443 2.417582 2.052711 2.65625 3.6875a.97967735.97967735 0 0 0 1 .8125c2.403739-.07431 6.400861-.10948 9.71875.28125 4.212406.496503 7.592322 1.124873 9.0625 1.65625 1.251535.451136 2.67716 1.591695 3.15625 4.15625.537343 2.878751 1.209121 11.697572 1.5 19.40625-.279539-7.827704-.950557-16.962677-1.5-19.90625-.47909-2.564555-1.904715-3.705114-3.15625-4.15625-1.470178-.531377-4.850094-1.159747-9.0625-1.65625-3.317889-.39073-7.315011-.355556-9.71875-.28125a.97967735.97967735 0 0 1-1-.8125c-.238668-1.634789-1.508703-3.225057-2.65625-3.6875-2.375191-.95603-5.776592-1.237824-8.34375-1.15625zm-11.09375 4.0625-8.125 8.0625c.19121-.02137.371777-.04222.5625-.0625l7.4375-7.375c.03412-.214327.105987-.399361.125-.625zm4.125 8.21875c-.0013 1.992747-1.625985 3.622476-3.625 3.625h-6.75c-1.331629 0-2.275686.247656-2.96875.5625-.708033.32148-1.173668.70632-1.53125 1.1875-.616811.828067-.802502 1.879949-.84375 3.09375.07964-1.001265.312689-1.880802.84375-2.59375.357582-.48118.823217-.86602 1.53125-1.1875.693064-.314844 1.637121-.5625 2.96875-.5625h6.75c1.999015-.0025 3.623731-1.632253 3.625-3.625 0-.09346.000351-.04841 0-.09375s.000689-.103526 0-.1875c-.000438-.05344-.000269-.153011 0-.21875zM59.03125 46.5c-.00699.051381-.02498.105615-.03125.15625A.97967735.97967735 0 0 0 60.125 47.75c.822976-.132248 1.697127-.21885 2.59375-.1875 1.705284.05994 3.242761.453317 4.46875 1a.97967735.97967735 0 0 0 1.375-.90625c-.00065-.117068.003-.251629 0-.375a.97967735.97967735 0 0 1-1.375.78125c-1.225989-.546683-2.763466-.940059-4.46875-1-.896623-.03135-1.770774.05525-2.59375.1875a.97967735.97967735 0 0 1-1.09375-.75zm-2.9375 20.15625c-2.097722.04591-3.751104.266429-4.84375.90625-.784452.459352-1.346617 1.096744-1.78125 2.1875-.434633 1.090756-.71875 2.645401-.71875 4.78125 0 .110527-.0013.204808 0 .3125.01705-2.034199.297676-3.537021.71875-4.59375.434633-1.090756.996798-1.728148 1.78125-2.1875 1.431568-.838284 3.857838-.962961 6.9375-.90625.05117-.169787.107392-.35025.15625-.5-.789435-.01605-1.550759-.0153-2.25 0zM58 68.625c-.0057.09198 0 .179652 0 .28125 0 .424768.02461.718687.0625.96875.02979.000714.06416-.000571.09375 0-.059893-.315724-.13857-.679938-.15625-1.25zm9.25 4.1875c-.03579.521578-.111911.995674-.21875 1.4375-.213677.883653-.630524 1.673618-1.28125 2.21875-1.301453 1.090265-3.120267 1.15625-5.84375 1.15625-2.165979 0-3.690524.115748-5-.4375-.654738-.276624-1.245563-.79234-1.5625-1.46875-.288184-.615045-.39048-1.324977-.40625-2.15625-.0042.08379 0 .164237 0 .25 0 .941746.08931 1.72984.40625 2.40625.316937.67641.907762 1.192126 1.5625 1.46875 1.309476.553248 2.834021.4375 5 .4375 2.723483 0 4.542297-.06598 5.84375-1.15625.650726-.545132 1.067573-1.335097 1.28125-2.21875.137909-.570315.19068-1.227814.21875-1.9375z" opacity=".1"/>
</svg>