<?xml version="1.0" encoding="UTF-8" standalone="no"?>
<svg xmlns="http://www.w3.org/2000/svg" xmlns:xlink="http://www.w3.org/1999/xlink" width="96" height="96" version="1.0">
  <defs>
    <linearGradient id="d">
      <stop offset="0" stop-color="#a27a47"/>
      <stop offset="1" stop-color="#d5aa65"/>
    </linearGradient>
    <linearGradient id="e">
      <stop offset="0" stop-color="#d9bf83"/>
      <stop offset="1" stop-color="#ebe5bd"/>
    </linearGradient>
    <linearGradient id="a">
      <stop offset="0" stop-color="#fff"/>
      <stop offset="1" stop-color="#fff" stop-opacity="0"/>
    </linearGradient>
    <linearGradient id="b">
      <stop offset="0" stop-color="#2276c5"/>
      <stop offset="1" stop-color="#68baf4"/>
    </linearGradient>
    <linearGradient xlink:href="#a" id="m" x1="36.357143" x2="36.357143" y1="6" y2="63.893143" gradientTransform="translate(100)" gradientUnits="userSpaceOnUse"/>
    <linearGradient xlink:href="#b" id="l" x1="48" x2="48" y1="90" y2="5.9877172" gradientTransform="translate(100)" gradientUnits="userSpaceOnUse"/>
    <linearGradient id="c" x1="45.447727" x2="45.447727" y1="92.539597" y2="7.0165396" gradientTransform="matrix(1.00587 0 0 .99417 100 0)" gradientUnits="userSpaceOnUse">
      <stop offset="0"/>
      <stop offset="1" stop-opacity=".58823532"/>
    </linearGradient>
    <linearGradient xlink:href="#c" id="j" x1="50" x2="50" y1="91" y2="7" gradientTransform="translate(-1 -1)" gradientUnits="userSpaceOnUse"/>
    <linearGradient xlink:href="#c" id="i" x1="46.46909" x2="46.46909" y1="92.00457" y2="6.8641505" gradientTransform="translate(-1 -1)" gradientUnits="userSpaceOnUse"/>
    <linearGradient xlink:href="#c" id="h" x1="46.46909" x2="46.46909" y1="92.00457" y2="6.8641505" gradientUnits="userSpaceOnUse"/>
    <linearGradient xlink:href="#c" id="g" x1="46.46909" x2="46.46909" y1="92.00457" y2="6.8641505" gradientUnits="userSpaceOnUse"/>
    <linearGradient xlink:href="#c" id="f" x1="46.46909" x2="46.46909" y1="92.00457" y2="6.8641505" gradientUnits="userSpaceOnUse"/>
    <linearGradient xlink:href="#a" id="q" x1="45.530357" x2="45.530357" y1="6.1566963" y2="71.926834" gradientTransform="translate(-1 -1)" gradientUnits="userSpaceOnUse"/>
    <linearGradient xlink:href="#d" id="p" x1="19" x2="19" y1="90" y2="47.988098" gradientUnits="userSpaceOnUse"/>
    <radialGradient xlink:href="#a" id="n" cx="48" cy="90.171875" r="42" fx="48" fy="90.171875" gradientTransform="matrix(1.15731 0 0 .9959 92.448979 .19713193)" gradientUnits="userSpaceOnUse"/>
    <radialGradient xlink:href="#e" id="o" cx="20" cy="69" r="14" fx="20" fy="69" gradientTransform="matrix(1 0 0 1.5 1 -33.5)" gradientUnits="userSpaceOnUse"/>
  </defs>
  <g color="#000">
    <path fill="url(#f)" d="M12 4.0625c-5.4794193 0-9.9375 4.4580807-9.9375 9.9375v29c0 2.566343 1.1264342 4.763756 2.71875 6.5C3.1889342 51.236244 2.0625 53.433657 2.0625 56v29c0 5.479419 4.4580808 9.9375 9.9375 9.9375h16c2.361135 0 4.354126-.99274 6-2.34375 1.645874 1.35101 3.638865 2.34375 6 2.34375h16c2.361135 0 4.354126-.99274 6-2.34375 1.645874 1.35101 3.638865 2.34375 6 2.34375h16c5.479419 0 9.9375-4.458081 9.9375-9.9375V56c0-2.566343-1.126434-4.763756-2.71875-6.5 1.592316-1.736244 2.71875-3.933657 2.71875-6.5V14c0-5.4794192-4.458081-9.9375-9.9375-9.9375H68c-2.361135 0-4.354126.99274-6 2.34375-1.645874-1.35101-3.638865-2.34375-6-2.34375H40c-2.361135 0-4.354126.99274-6 2.34375-1.645874-1.35101-3.638865-2.34375-6-2.34375H12z" opacity=".07999998" overflow="visible" style="marker:none" transform="translate(-1 -1)"/>
    <path fill="url(#g)" d="M12 5.125c-4.8952391 0-8.875 3.9797609-8.875 8.875v29c0 2.607107 1.1752956 4.884567 2.96875 6.5C4.3002956 51.115433 3.125 53.392893 3.125 56v29c0 4.895239 3.979761 8.875 8.875 8.875h16c2.375884 0 4.419451-1.045358 6-2.5625 1.580549 1.517142 3.624116 2.5625 6 2.5625h16c2.375884 0 4.419451-1.045358 6-2.5625 1.580549 1.517142 3.624116 2.5625 6 2.5625h16c4.895239 0 8.875-3.979761 8.875-8.875V56c0-2.607107-1.175296-4.884567-2.96875-6.5 1.793454-1.615433 2.96875-3.892893 2.96875-6.5V14c0-4.895239-3.979761-8.875-8.875-8.875H68c-2.375884 0-4.419451 1.0453581-6 2.5625-1.580549-1.5171419-3.624116-2.5625-6-2.5625H40c-2.375884 0-4.419451 1.0453581-6 2.5625-1.580549-1.5171419-3.624116-2.5625-6-2.5625H12zm22 44.21875c.058325.05555.127557.102241.1875.15625-.059943.054009-.129175.1007-.1875.15625-.058325-.05555-.127557-.102241-.1875-.15625.059943-.054009.129175-.1007.1875-.15625zm28 0c.058325.05555.127557.102241.1875.15625-.059943.054009-.129175.1007-.1875.15625-.058325-.05555-.127557-.102241-.1875-.15625.059943-.054009.129175-.1007.1875-.15625z" opacity=".1" overflow="visible" style="marker:none" transform="translate(-1 -1)"/>
    <path fill="url(#h)" d="M12 5.9375c-4.4564807 0-8.0625 3.6060193-8.0625 8.0625v29c0 2.691342 1.3169018 5.036519 3.34375 6.5C5.2544018 50.963481 3.9375 53.308658 3.9375 56v29c0 4.456481 3.6060193 8.0625 8.0625 8.0625h16c2.40686 0 4.522641-1.079151 6-2.75 1.477359 1.670849 3.59314 2.75 6 2.75h16c2.40686 0 4.522641-1.079151 6-2.75 1.477359 1.670849 3.59314 2.75 6 2.75h16c4.456481 0 8.0625-3.606019 8.0625-8.0625V56c0-2.691342-1.316902-5.036519-3.34375-6.5 2.026848-1.463481 3.34375-3.808658 3.34375-6.5V14c0-4.4564807-3.606019-8.0625-8.0625-8.0625H68c-2.40686 0-4.522641 1.0791507-6 2.75-1.477359-1.6708493-3.59314-2.75-6-2.75H40c-2.40686 0-4.522641 1.0791507-6 2.75-1.477359-1.6708493-3.59314-2.75-6-2.75H12zM34 48.25c.415186.472712.861085.884615 1.375 1.25-.513915.365385-.959814.777288-1.375 1.25-.415186-.472712-.861085-.884615-1.375-1.25.513915-.365385.959814-.777288 1.375-1.25zm28 0c.415186.472712.861085.884615 1.375 1.25-.513915.365385-.959814.777288-1.375 1.25-.415186-.472712-.861085-.884615-1.375-1.25.513915-.365385.959814-.777288 1.375-1.25z" opacity=".15" overflow="visible" style="marker:none" transform="translate(-1 -1)"/>
    <path fill="url(#i)" d="M11 6c-3.878 0-7 3.122-7 7v29c0 2.969094 1.8392316 5.479063 4.4375 6.5C5.8392316 49.520937 4 52.030906 4 55v29c0 3.878 3.122 7 7 7h16c2.557737 0 4.77882-1.368894 6-3.40625C34.22118 89.631106 36.442263 91 39 91h16c2.557737 0 4.77882-1.368894 6-3.40625C62.22118 89.631106 64.442263 91 67 91h16c3.878 0 7-3.122 7-7V55c0-2.969094-1.839232-5.479063-4.4375-6.5C88.160768 47.479063 90 44.969094 90 42V13c0-3.878-3.122-7-7-7H67c-2.557737 0-4.77882 1.368894-6 3.40625C59.77882 7.368894 57.557737 6 55 6H39c-2.557737 0-4.77882 1.368894-6 3.40625C31.77882 7.368894 29.557737 6 27 6H11zm22 39.59375c.780198 1.301644 1.982736 2.33297 3.40625 2.90625-1.423514.57328-2.626052 1.604606-3.40625 2.90625-.780198-1.301644-1.982736-2.33297-3.40625-2.90625 1.423514-.57328 2.626052-1.604606 3.40625-2.90625zm28 0c.780198 1.301644 1.982736 2.33297 3.40625 2.90625-1.423514.57328-2.626052 1.604606-3.40625 2.90625-.780198-1.301644-1.982736-2.33297-3.40625-2.90625 1.423514-.57328 2.626052-1.604606 3.40625-2.90625z" opacity=".3" overflow="visible" style="marker:none"/>
    <path fill="url(#j)" d="M11 6c-3.324 0-6 2.676-6 6v30c0 3.324 2.676 6 6 6-3.324 0-6 2.676-6 6v30c0 3.324 2.676 6 6 6h16c3.324 0 6-2.676 6-6 0 3.324 2.676 6 6 6h16c3.324 0 6-2.676 6-6 0 3.324 2.676 6 6 6h16c3.324 0 6-2.676 6-6V54c0-3.324-2.676-6-6-6 3.324 0 6-2.676 6-6V12c0-3.324-2.676-6-6-6H67c-3.324 0-6 2.676-6 6 0-3.324-2.676-6-6-6H39c-3.324 0-6 2.676-6 6 0-3.324-2.676-6-6-6H11zm22 36c0 3.324 2.676 6 6 6-3.324 0-6 2.676-6 6 0-3.324-2.676-6-6-6 3.324 0 6-2.676 6-6zm28 0c0 3.324 2.676 6 6 6-3.324 0-6 2.676-6 6 0-3.324-2.676-6-6-6 3.324 0 6-2.676 6-6z" opacity=".45" overflow="visible" style="marker:none"/>
  </g>
  <use xlink:href="#k" width="96" height="96"/>
  <rect width="84" height="84" x="106" y="6" fill="url(#l)" rx="6" ry="6"/>
  <path fill="url(#m)" d="M112 6c-3.324 0-6 2.676-6 6v72c0 .334721.0413.6507.0937.96875.0487.295596.097.596915.1875.875.01.03038.0209.0636.0312.09375.0989.287771.23488.547452.375.8125.14459.273507.31562.535615.5.78125.18438.245635.37378.473472.59375.6875.43995.428056.94291.814526 1.5 1.09375.27854.139612.57347.246947.875.34375-.2562-.100222-.48671-.236272-.71875-.375-.007-.0044-.0239.0045-.0312 0-.0319-.0193-.0623-.04251-.0937-.0625-.1204-.0767-.23102-.163513-.34375-.25-.10617-.0808-.21328-.161112-.3125-.25-.17793-.161433-.34746-.345388-.5-.53125-.10758-.130255-.21839-.265285-.3125-.40625-.0251-.03838-.0384-.08587-.0625-.125-.0648-.103032-.13023-.204517-.1875-.3125-.10101-.194706-.20567-.415701-.28125-.625-.008-.02181-.0236-.04055-.0312-.0625-.0318-.09195-.0358-.186831-.0625-.28125-.0303-.106618-.0704-.203031-.0937-.3125C107.05212 85.720988 107 85.364295 107 85V13c0-2.781848 2.21815-5 5-5h72c2.78185 0 5 2.218152 5 5v72c0 .364295-.0521.720988-.125 1.0625-.0442.206893-.0884.397658-.15625.59375-.008.02195-.0233.04069-.0312.0625-.0627.173739-.13838.367449-.21875.53125-.0416.0828-.079.169954-.125.25-.0546.09721-.12677.18835-.1875.28125-.0941.140965-.20492.275995-.3125.40625-.14317.17445-.30314.346998-.46875.5-.0112.0102-.02.02115-.0312.03125-.13839.125556-.28509.234436-.4375.34375-.10257.07315-.20432.153364-.3125.21875-.007.0045-.0238-.0044-.0312 0-.23204.138728-.46255.274778-.71875.375.30153-.0968.59646-.204138.875-.34375.55709-.279224 1.06005-.665694 1.5-1.09375.21997-.214028.40937-.441865.59375-.6875s.35541-.507743.5-.78125c.14012-.265048.27613-.524729.375-.8125.0104-.03078.0213-.06274.0312-.09375.0905-.278085.1388-.579404.1875-.875.0523-.31805.09365-.634029.09365-.96875V12c0-3.324-2.676-6-6-6h-72z" opacity=".5"/>
  <path fill="url(#n)" d="M112 90c-3.324 0-6-2.676-6-6V12c0-.334721.0413-.6507.0937-.96875.0487-.295596.097-.596915.1875-.875.01-.03038.0209-.0636.0312-.09375.0989-.287771.23488-.547452.375-.8125.14459-.273507.31562-.535615.5-.78125.18438-.245635.37378-.473472.59375-.6875.43995-.428056.94291-.814526 1.5-1.09375.27854-.139612.57347-.246947.875-.34375-.2562.100222-.48671.236272-.71875.375-.007.0044-.0239-.0045-.0312 0-.0319.0193-.0623.04251-.0937.0625-.1204.0767-.23102.163513-.34375.25-.10617.0808-.21328.161112-.3125.25-.17793.161433-.34746.345388-.5.53125-.10758.130255-.21839.265285-.3125.40625-.0251.03838-.0384.08587-.0625.125-.0648.103032-.13023.204517-.1875.3125-.10101.194706-.20567.415701-.28125.625-.008.02181-.0236.04055-.0312.0625-.0318.09195-.0358.186831-.0625.28125-.0303.106618-.0704.203031-.0937.3125-.07298.341512-.1251.698205-.1251 1.0625v72c0 2.781848 2.21815 5 5 5h72c2.78185 0 5-2.218152 5-5V11c0-.364295-.0521-.720988-.125-1.0625-.0442-.206893-.0884-.397658-.15625-.59375-.008-.02195-.0233-.04069-.0312-.0625-.0627-.173739-.13838-.367449-.21875-.53125-.0416-.0828-.079-.169954-.125-.25-.0546-.09721-.12677-.18835-.1875-.28125-.0941-.140965-.20492-.275995-.3125-.40625-.14317-.17445-.30314-.346998-.46875-.5-.0112-.0102-.02-.02115-.0312-.03125-.13839-.125556-.28509-.234436-.4375-.34375-.10257-.07315-.20432-.153364-.3125-.21875-.007-.0045-.0238.0044-.0312 0-.23204-.138728-.46255-.274778-.71875-.375.30153.0968.59646.204138.875.34375.55709.279224 1.06005.665694 1.5 1.09375.21997.214028.40937.441865.59375.6875s.35541.507743.5.78125c.14012.265048.27613.524729.375.8125.0104.03078.0213.06274.0312.09375.0905.278085.1388.579404.1875.875.0523.31805.09365.634029.09365.96875v72c0 3.324-2.676 6-6 6h-72z" opacity=".2"/>
  <rect width="28" height="42" x="-94" y="48" fill="#215c26" color="#000" opacity=".8" overflow="visible" rx="6" ry="6" style="marker:none"/>
  <rect width="28" height="42" x="-66" y="48" fill="#215c26" color="#000" opacity=".8" overflow="visible" rx="6" ry="6" style="marker:none"/>
  <rect width="28" height="42" x="-38" y="48" fill="#215c26" color="#000" opacity=".8" overflow="visible" rx="6" ry="6" style="marker:none"/>
  <rect width="28" height="42" x="-94" y="6" fill="#215c26" color="#000" opacity=".8" overflow="visible" rx="6" ry="6" style="marker:none"/>
  <rect width="28" height="42" x="-66" y="6" fill="#215c26" color="#000" opacity=".8" overflow="visible" rx="6" ry="6" style="marker:none"/>
  <rect width="28" height="42" x="-38" y="6" fill="#215c26" color="#000" opacity=".8" overflow="visible" rx="6" ry="6" style="marker:none"/>
  <g id="k" stroke-width="1.5" color="#000" transform="translate(-1 -43)">
    <rect width="26" height="40" x="7" y="49" fill="url(#o)" overflow="visible" rx="5" ry="5" style="marker:none"/>
    <path fill="#a05a2c" d="M12 48c-3.324 0-6 2.676-6 6v30c0 3.324 2.676 6 6 6h16c3.324 0 6-2.676 6-6V54c0-3.324-2.676-6-6-6H12zm0 3.15625h16c1.636765 0 2.84375 1.206985 2.84375 2.84375v30c0 1.636765-1.206985 2.84375-2.84375 2.84375H12c-1.636765 0-2.84375-1.206985-2.84375-2.84375V54c0-1.636765 1.206985-2.84375 2.84375-2.84375z" opacity=".1" overflow="visible" style="marker:none"/>
    <path fill="#c87137" d="M12 48c-3.324 0-6 2.676-6 6v30c0 3.324 2.676 6 6 6h16c3.324 0 6-2.676 6-6V54c0-3.324-2.676-6-6-6H12zm0 1.96875h16c2.263452 0 4.03125 1.767798 4.03125 4.03125v30c0 2.263452-1.767798 4.03125-4.03125 4.03125H12c-2.2634521 0-4.03125-1.767798-4.03125-4.03125V54c0-2.263452 1.7677979-4.03125 4.03125-4.03125z" opacity=".2" overflow="visible" style="marker:none"/>
    <path fill="url(#p)" d="M12 48c-3.324 0-6 2.676-6 6v30c0 3.324 2.676 6 6 6h16c3.324 0 6-2.676 6-6V54c0-3.324-2.676-6-6-6H12zm0 1.0625h16c2.745519 0 4.9375 2.191981 4.9375 4.9375v30c0 2.745519-2.191981 4.9375-4.9375 4.9375H12c-2.7455193 0-4.9375-2.191981-4.9375-4.9375V54c0-2.745519 2.1919807-4.9375 4.9375-4.9375z" overflow="visible" style="marker:none"/>
  </g>
  <use xlink:href="#k" width="96" height="96" transform="translate(0 42)"/>
  <use xlink:href="#k" width="96" height="96" transform="translate(28)"/>
  <use xlink:href="#k" width="96" height="96" transform="translate(28 42)"/>
  <use xlink:href="#k" width="96" height="96" transform="translate(56)"/>
  <use xlink:href="#k" width="96" height="96" transform="translate(56 42)"/>
  <path fill="url(#q)" d="M11 5c-3.324 0-6 2.676-6 6v30c0 2.974194 2.13669 5.422392 4.96875 5.90625C7.67488 46.44576 6 44.44451 6 42V12c0-2.793726 2.20627-5 5-5h16c2.79373 0 5 2.206274 5 5h2c0-2.793726 2.20627-5 5-5h16c2.79373 0 5 2.206274 5 5h2c0-2.793726 2.20627-5 5-5h16c2.79373 0 5 2.206274 5 5v30c0 2.44451-1.67488 4.44576-3.96875 4.90625C86.86331 46.422392 89 43.974194 89 41V11c0-3.324-2.676-6-6-6H67c-3.324 0-6 2.676-6 6 0-3.324-2.676-6-6-6H39c-3.324 0-6 2.676-6 6 0-3.324-2.676-6-6-6H11zm21 37c0 2.44451-1.67488 4.44576-3.96875 4.90625 2.50913-.428685 4.45886-2.39275 4.875-4.90625H32zm1.09375 0c.41614 2.5135 2.36587 4.477565 4.875 4.90625C35.67488 46.44576 34 44.44451 34 42h-.90625zM60 42c0 2.44451-1.67488 4.44576-3.96875 4.90625 2.50913-.428685 4.45886-2.39275 4.875-4.90625H60zm1.09375 0c.41614 2.5135 2.36587 4.477565 4.875 4.90625C63.67488 46.44576 62 44.44451 62 42h-.90625zM11 47c-3.324 0-6 2.676-6 6v30c0 2.974194 2.13669 5.422392 4.96875 5.90625C7.67488 88.44576 6 86.44451 6 84V54c0-2.793726 2.20627-5 5-5v-2zm16 0v2c2.79373 0 5 2.206274 5 5h2c0-2.793726 2.20627-5 5-5v-2c-3.324 0-6 2.676-6 6 0-3.324-2.676-6-6-6zm28 0v2c2.79373 0 5 2.206274 5 5h2c0-2.793726 2.20627-5 5-5v-2c-3.324 0-6 2.676-6 6 0-3.324-2.676-6-6-6zm28 0v2c2.79373 0 5 2.206274 5 5v30c0 2.44451-1.67488 4.44576-3.96875 4.90625C86.86331 88.422392 89 85.974194 89 83V53c0-3.324-2.676-6-6-6zM32 84c0 2.44451-1.67488 4.44576-3.96875 4.90625 2.50913-.428685 4.45886-2.39275 4.875-4.90625H32zm1.09375 0c.41614 2.5135 2.36587 4.477565 4.875 4.90625C35.67488 88.44576 34 86.44451 34 84h-.90625zM60 84c0 2.44451-1.67488 4.44576-3.96875 4.90625 2.50913-.428685 4.45886-2.39275 4.875-4.90625H60zm1.09375 0c.41614 2.5135 2.36587 4.477565 4.875 4.90625C63.67488 88.44576 62 86.44451 62 84h-.90625z" color="#000" opacity=".2" overflow="visible" style="marker:none"/>
  <path d="M11 5c-3.324 0-6 2.676-6 6v30c0 3.324 2.676 6 6 6-3.324 0-6 2.676-6 6v30c0 3.324 2.676 6 6 6h1c-3.324 0-6-2.676-6-6V53c0-3.324 2.676-6 6-6-3.324 0-6-2.676-6-6V11c0-3.324 2.676-6 6-6h-1zm72 0c3.324 0 6 2.676 6 6v30c0 3.324-2.676 6-6 6 3.324 0 6 2.676 6 6v30c0 3.324-2.676 6-6 6h-1c3.324 0 6-2.676 6-6V53c0-3.324-2.676-6-6-6 3.324 0 6-2.676 6-6V11c0-3.324-2.676-6-6-6h1z" color="#000" opacity=".2" overflow="visible" style="marker:none"/>
  <path fill="#fff" d="m76.125 59.125-.09375.28125-1.1875 3-.75.71875-1.9375-2.21875h-.0625c-.300219 0-1.864004.0362-2.25.59375-.04289.04289-.03125.113362-.03125.15625V61.75c.04289.214442.309477.297196.78125.46875.214442.08578.496334.226723.625.3125-.471773.986434-.993312 1.892232-1.59375 2.75-.300219-.171553-1.75-1.09375-1.75-1.09375l-.25.34375s1.191808 1.348058 1.40625 1.5625c-1.200876 1.501095-2.667435 2.818735-4.46875 4.0625l.1875.375c5.48972-1.415319 9.382973-6.933834 9.46875-7.0625l1 .9375c-1.37243.857768-2.65625 1.625-2.65625 1.625l.21875.40625c.857769-.343107 2.049124-.840727 3.25-1.3125l4.75 4.65625 4.65625-1.625-.0625-.4375c-2.18731-.08578-5.15644-1.905155-7.34375-3.40625 1.243765-.428884 2.278227-.730388 2.75-.6875.300219 0 .394612-.101723.4375-.1875.171554-.471773-1.486814-1.914413-4.875-4.1875l-.21875-.125zm1.15625 2.625c.214442.128665.762281.473058 1.0625.6875-.171553.08578-.821758.485339-1.59375 1-.08578-.08578-.152584-.195473-.28125-.28125.300219-.514661.683834-1.234696.8125-1.40625zM73.5 66.46875l-.46875.3125-2.65625 1.5.125.375s.481031-.03125.78125-.03125c-.08578.300219-.254308.774562-.46875 1.375-.25733 0-2.15625-.09375-2.15625-.09375l.34375.375c.128665.128665.684477.75 1.15625.75 0 0 .121335-.0625.25-.0625-.343107.857769-.739004 1.5987-1.125 2.15625l.3125.28125c.643327-.514661 1.376285-1.432097 2.0625-2.71875l.5-.1875-.03125-.4375h-.15625c.771992-1.543984 1.3125-3.03125 1.3125-3.03125l.21875-.5625zm.65625.78125v.21875s-.243312 2.099986-.84375 3.34375l-.125.28125.3125.0625c.771991.04289 1.49267-1.583396 1.75-2.3125.171554 0 .617669.03125.875.03125-.128665.514661-.3125 1.196116-.3125 1.625 0 .171554.008.289223.09375.375l.21875.15625c.343107.04289 2.207754-.113365 2.59375-.15625v-.40625c-.643326-.08578-1.414223-.316808-1.5-.53125-.08578-.257331.270254-1.267231.65625-2.125L78 67.5l-3.84375-.25zm-1.71875 4.09375-.21875.75c0 .04289-.600628 2.173481-2.1875 3.03125-.214442-.257331-1.34375-1.78125-1.34375-1.78125l-.375.1875 1.875 4.90625.4375-.09375c0-.943546.4737-1.493312 1.03125-2.09375.771992-.900657 1.643326-1.926051 1-4.15625l-.21875-.75zm7.0625.21875-6.3125.1875s2.098058 2.711419 2.3125 2.96875c-1.115099 1.029322-2.099343 1.797839-3 2.3125l-.25.15625.25.21875c.600438.471773 1.800409-.09697 3.6875-1.8125.986434 1.37243 1.629308 2.368312 1.84375 2.96875l.09375.3125 1.15625-.96875v-.1875c0-.214442.01576-.926051-2-3.15625 1.286653-1.329541 2.40625-2.550862 2.40625-2.59375l.28125-.40625H79.5zm-2 1.21875c-.343108.385996-.734697.754308-.90625.96875l-.8125-.8125c.471773-.08578 1.1612-.113361 1.71875-.15625zm-30.40625-19-.0625.1875c-.04675.09349-.172513.611545-.40625 1.40625h-2.09375c0-.18699-.0625-.625-.0625-.625-.654462-1.075188-3.454018-.296748-3.78125-.25l-.1875.03125.09375.1875c.09349.186989.203253.422513.25.65625H39.0625l.875 1.6875 1.125-.1875v.3125c0 2.898334-1.25 6.609503-1.25 6.65625l.28125.125c.140242-.186989 3.689288-4.430685 4.34375-7.65625.0935 0 1.127554-.203508 2.0625-.34375-.560968 2.197124-1.231438 5.675322-.15625 6.9375 1.589409 1.869892 7.766264 1.718494 8 1.625l.125-.03125-1.59375-4.3125s-1.344005 1.500255-1.4375 1.59375c-1.495914.327231-3.938011.560457-4.125-.1875-.233736-.8882 1.61129-4.879086 2.3125-6.375l.09375-.125-2.625-1.3125zm.46875 14.53125-.09375.0625s-2.036436 1.578508-2.21875 1.71875c-.149592-.154266-1.5-1.53125-1.5-1.53125l1.03125 4.15625h.28125c.350605-2.225173 2.041876-3.116161 2.5-3.3125.06545.0935.125.203508.125.34375 0 .04207-.02665.07825-.03125.125-.09817.78068-1.11954 2.173594-3.125 3.375l-.125.09375.375.46875.09375-.03125c.02805-.0093 3.081376-.959146 4.84375-.875l.53125.03125-.46875-.3125c-.0374-.02337-.886903-.571594-1.8125-.46875.130892-.294508 1.053975-1.189543 1.9375-1.9375l.125-.125-2.46875-1.78125zm2.6875 5.25-.09375.03125c-2.388788.406702-6.112253.96382-6.59375.875l-.15625-.03125-.0625.15625c-.09349.261785.153815 2.296865.40625 3.4375-2.141027.186989-4.6875.40625-4.6875.40625l.125.28125.3125.59375.15625-.0625c.804054-.238411 1.183906-.264024 2.15625-.25.08882.229062 1.21875 3.1875 1.21875 3.1875l.375-.09375s-.323578-2.674497-.375-3.0625c.364629.0093 3.714645.106301 4.5.125-.509546.430075-1.65625 1.40625-1.65625 1.40625l.1875.34375s2.409707-.832927 2.53125-.875c.116869.04675 2 .78125 2 .78125s-.994619-1.215096-1.3125-1.59375c1.767048.09349 2.222207.194158 2.34375.34375.154267.182314.25.450817.25.75 0 .542269-.273433 1.207731-.84375 1.75-.850801-.215038-2.418801-1.0844-2.4375-1.09375l-.25.28125 2.375 2.96875.125-.03125c1.785748-.364629 3.94243-3.970734 4.03125-4.125l.0625-.125-.09375-.09375c-.07947-.07947-1.961188-2.002494-2.625-2.34375-.247761-.126217-.798908-.09644-2.6875.0625 0 0-.09721.01725-.21875.03125.556293-1.30425 1.290148-2.755185 1.6875-2.9375l.25-.09375-1-1zM49 75.25c-.02337.126218-.06423.432374-.125.84375-.570317.0748-1.294312.190701-1.5.21875v-.9375c.757307-.06077 1.44736-.106301 1.625-.125zm-2.4375.1875c.0093.392678.02658.823834.03125.96875-.659137.0748-1.212151.106301-1.65625.125.04675-.289833.104828-.599446.15625-.96875.112193-.0093.730142-.06423 1.46875-.125zm1.34375 1.53125c.136736.000006.234758.0172.375.03125l.46875.03125c-.03272.215037-.06571.423987-.09375.625-.509545.0374-1.098935.07973-1.28125.09375V77c.229062-.02338.394514-.03126.53125-.03125zm-1.28125.125c.0047.224387-.0047.522412 0 .71875-.116869.0047-.895035.06743-1.9375.15625.0374-.163616.08293-.338113.125-.5625.607715-.112193 1.214134-.233029 1.8125-.3125zM17.2181503 57.558849c.1723714.21546424.38783563.9911354.38783563 3.70598476v1.20659972c-1.4651568.21546423-2.71484936.43092847-2.9303136.51711416l-.25855708.0861857 1.20659972 1.16350687.0861857-.04309285c.4740213-.12927854 1.12041401-.21546424 1.80989956-.30164993 0 .30164993-.17237138 3.14577783-.17237138 3.40433491-2.1115495.1723714-3.96454193.47402132-5.47279157.8187641-1.29278541.34474277-2.06845666 1.12041402-2.24082805 2.32701373-.04309284.1723714-.04309284.38783563-.04309284.60329986 0 3.05959214 2.97340644 7.28269115 3.01649929 7.28269115l.34474277.21546423-.12927854-.38783562c0-.04309285-1.20659971-4.05072762-1.20659971-6.72248413 0-.77567125.08618569-1.42206396.34474277-1.85299243.17237139-.25855708.34474278-.38783562.60329986-.43092847.56020701-.08618569 1.16350687-.17237138 1.72371388-.25855708 0 0 1.33587826 1.72371388 1.59443534 2.02536381-.21546424.04309285-.60329986.12927854-.60329986.12927854v.12927854l.0861857.94804264.17237138-.04309285c.25855708-.0861857.77567125-.21546423 1.3789711-.30164993 0 .25855708.04309285 1.03422833.0861857 1.24969256-.7325784.21546424-1.3789711.47402132-1.63752819.60329986l-.17237138.0861857.6463927.68948555.0861857-.04309285c.30164992-.12927854.7325784-.25855708 1.16350686-.38783562 0 .30164993.12927855 2.41319943.12927855 2.41319943h.30164992l.51711417-2.58557082c.77567124-.0861857 1.50824964-.04309285 2.06845665.0861857l.1723714.04309284v-1.2927854l-.0861857-.04309286c-.34474278-.17237138-.99113548-.17237138-1.93917812.04309285.04309285-.30164993.1723714-.90494979.21546424-1.07732117.68948555-.04309285 1.24969256-.0861857 1.63752818-.04309285l.21546424.04309285-.30164993-1.12041403s-.38783562 0-.60329986.04309285c.34474278-.38783562 1.50824965-1.89608527 1.59443534-1.98227096.12927854 0 1.68062103.04309285 1.68062103.04309285.68948556.04309284 1.29278541.30164993 1.76680673.86185694.56020701.6463927.86185694 1.68062103.86185694 2.71484936 0 .21546423 0 .47402131-.04309285.68948555l-.04309284.30164993c-.30164993 2.1977352-.56020701 3.79217053-1.33587826 4.13691331-.51711416.21546424-1.33587826-.12927854-2.54247797-1.03422833l-.21546424.21546424 2.37010659 4.1369133.12927854-.04309284c2.88722075-1.03422833 3.31814922-1.63752818 4.48165609-6.63629844.51711416-2.1977352.34474277-3.92144907-.56020701-5.08495594-1.07732118-1.42206395-2.71484937-1.59443534-2.80103506-1.59443534-.04309285 0-2.88722075-.12927854-6.29155566.0861857.0861857-.34474278.86185694-3.23196353.90494979-3.40433492 1.07732117 0 2.0253638.04309285 2.45629227.21546424l.1723714.04309284.17237138-2.0253638h-.17237139c-.47402131 0-1.20659971.04309284-2.1977352.12927853.56020702-1.89608526.8187641-2.49938512.9049498-2.67175651l.08618569-.12927854-3.49052061-2.02536372-.0861857.12927854zm1.89608527 10.90249021c-.04309284.30164993-.30164993 1.85299242-.30164993 2.02536381h-.04309284c0-.04309285.04309284-.17237139.04309284-.17237139l-1.89608526.1723714v.25855707c-.1723714.04309285-.43092847.0861857-.60329986.0861857v-2.1977352c.94804263-.04309285 1.85299242-.12927854 2.80103505-.17237139zM69.84375 12.2935c-2.550363 0-4.625 2.074637-4.625 4.625s2.074637 4.625 4.625 4.625S74.5 19.468863 74.5 16.9185s-2.105887-4.625-4.65625-4.625zm0 .53125c2.267561 0 4.125 1.826189 4.125 4.09375 0 2.267561-1.857439 4.125-4.125 4.125-2.267561 0-4.09375-1.857439-4.09375-4.125 0-2.267561 1.826189-4.09375 4.09375-4.09375zm0 .21875c-2.149298 0-3.875 1.725702-3.875 3.875s1.725702 3.90625 3.875 3.90625S73.75 19.067798 73.75 16.9185s-1.756952-3.875-3.90625-3.875zm0 .75c.699293 0 1.303811.498091 1.4375 1.15625-.401065-.282803-.907888-.46875-1.4375-.46875s-1.005185.185947-1.40625.46875c.133689-.658159.706957-1.15625 1.40625-1.15625zM68.5 13.82475c-.308512.30337-.505939.740158-.5625 1.1875-.452484.05656-.85288.222738-1.15625.53125.339363-.760995.957755-1.379387 1.71875-1.71875zm2.71875 0c.760995.339363 1.379388.957755 1.71875 1.71875-.303369-.308512-.708908-.479831-1.15625-.53125-.05656-.452484-.253989-.88413-.5625-1.1875zm-1.375 1.1875c.293086 0 .59694.06924.84375.1875-.344505.174823-.653501.441887-.84375.78125-.190249-.339363-.467995-.606427-.8125-.78125.246809-.118263.519414-.1875.8125-.1875zm-1.96875.5c-.282803.401065-.46875.876638-.46875 1.40625s.185947 1.036435.46875 1.4375c-.658159-.133689-1.15625-.738207-1.15625-1.4375s.498091-1.272561 1.15625-1.40625zm3.96875 0C72.501908 15.645939 73 16.219207 73 16.9185s-.498092 1.303811-1.15625 1.4375c.287944-.401065.46875-.907888.46875-1.4375s-.185947-1.005185-.46875-1.40625zm-3.3125.03125c.52447.138831.923271.553854 1.03125 1.09375-.534754-.113121-.954919-.50678-1.09375-1.03125l.0625-.0625zm2.65625 0c.02057.02571.04193.04193.0625.0625-.13883.52447-.558996.923271-1.09375 1.03125.107979-.539896.50678-.949778 1.03125-1.09375zm-3.0625.5625c.174823.344505.441887.622251.78125.8125-.339363.190249-.606427.499245-.78125.84375-.118263-.24681-.1875-.550664-.1875-.84375 0-.293086.06924-.565691.1875-.8125zm3.46875 0c.118263.246809.1875.519414.1875.8125 0 .293086-.06924.59694-.1875.84375-.174823-.344505-.441887-.653501-.78125-.84375.339363-.190249.606427-.467995.78125-.8125zm-2.03125 1.125c-.10798.534754-.50678.95492-1.03125 1.09375-.02571-.02057-.04193-.04193-.0625-.0625.138831-.52447.553854-.923271 1.09375-1.03125zm.59375 0c.534754.107979.95492.50678 1.09375 1.03125l-.0625.0625c-.52447-.13883-.923271-.558996-1.03125-1.09375zm-.3125.65625c.190249.339363.499245.606427.84375.78125-.251951.118263-.550664.1875-.84375.1875-.293086 0-.565691-.06924-.8125-.1875.344505-.174823.622251-.441887.8125-.78125zm-3.0625.40625c.30337.308511.708908.511081 1.15625.5625.05656.452483.253988.852881.5625 1.15625-.760995-.339362-1.379387-.957755-1.71875-1.71875zm6.15625 0c-.339362.760995-.957755 1.379388-1.71875 1.71875.308511-.303369.511081-.708908.5625-1.15625.452483-.05656.852881-.253989 1.15625-.5625zm-4.5.625c.401065.287944.876638.46875 1.40625.46875s1.036435-.185947 1.4375-.46875c-.133689.658158-.738207 1.15625-1.4375 1.15625s-1.272561-.498092-1.40625-1.15625zM75 22.07475c-2.550363 0-4.625 2.074637-4.625 4.625s2.074637 4.625 4.625 4.625 4.625-2.074637 4.625-4.625-2.074637-4.625-4.625-4.625zm0 .5c2.267561 0 4.125 1.857439 4.125 4.125 0 2.267561-1.857439 4.125-4.125 4.125-2.267561 0-4.125-1.857439-4.125-4.125 0-2.267561 1.857439-4.125 4.125-4.125zm0 .21875c-2.149298 0-3.90625 1.756952-3.90625 3.90625S72.850702 30.606 75 30.606s3.90625-1.756952 3.90625-3.90625S77.149298 22.7935 75 22.7935zm0 .75c.699293 0 1.272561.498091 1.40625 1.15625-.401065-.282803-.876638-.4375-1.40625-.4375s-1.005185.154697-1.40625.4375c.133689-.658159.706957-1.15625 1.40625-1.15625zm-1.375.0625c-.308512.30337-.505939.708908-.5625 1.15625-.452484.05656-.85288.253988-1.15625.5625.339363-.760995.957755-1.379387 1.71875-1.71875zm2.75 0c.760995.339363 1.379388.957755 1.71875 1.71875-.303369-.308512-.708908-.511081-1.15625-.5625-.05656-.452484-.253989-.85288-.5625-1.15625zM75 24.76225c.293086 0 .56569.06924.8125.1875-.344505.174823-.622251.473137-.8125.8125-.190249-.339363-.467995-.637677-.8125-.8125.246809-.118263.519414-.1875.8125-.1875zm-2 .53125c-.282803.401065-.4375.876638-.4375 1.40625s.154697 1.005185.4375 1.40625c-.658159-.133689-1.15625-.706957-1.15625-1.40625S72.341841 25.427189 73 25.2935zm3.34375 0c.02057.02571.01068.04193.03125.0625-.13883.52447-.558996.954521-1.09375 1.0625.107979-.539896.53803-.981028 1.0625-1.125zm.65625 0c.658158.133689 1.15625.706957 1.15625 1.40625S77.658158 27.972311 77 28.106c.287944-.401065.4375-.876638.4375-1.40625S77.282803 25.694565 77 25.2935zm-3.34375.03125c.52447.138831.954521.553854 1.0625 1.09375-.534754-.113121-.954919-.53803-1.09375-1.0625l.03125-.03125zm-.40625.5625c.174823.344505.473137.622251.8125.8125-.339363.190249-.637677.467995-.8125.8125-.118263-.24681-.1875-.519414-.1875-.8125 0-.293086.06924-.565691.1875-.8125zm3.5 0c.118263.246809.1875.519414.1875.8125 0 .293086-.06924.56569-.1875.8125-.174823-.344505-.473137-.622251-.8125-.8125.339363-.190249.637677-.467995.8125-.8125zM74.71875 26.981c-.10798.534754-.50678.95492-1.03125 1.09375-.02571-.02057-.04193-.01068-.0625-.03125.138831-.52447.553854-.954521 1.09375-1.0625zm.5625 0c.534754.107979.95492.53803 1.09375 1.0625l-.03125.03125c-.52447-.13883-.954521-.558996-1.0625-1.09375zM75 27.63725c.190249.339363.467995.637677.8125.8125-.251951.118263-.519414.1875-.8125.1875-.293086 0-.565691-.06924-.8125-.1875.344505-.174823.622251-.473137.8125-.8125zm-3.09375.4375c.30337.308511.708908.511081 1.15625.5625.05656.452483.253988.852881.5625 1.15625-.760995-.339362-1.379387-.957755-1.71875-1.71875zm6.1875 0c-.339362.760995-.957755 1.379388-1.71875 1.71875.308511-.303369.511081-.708908.5625-1.15625.452483-.05656.852881-.253989 1.15625-.5625zm-4.5.625c.401065.287944.876638.4375 1.40625.4375s1.005185-.154697 1.40625-.4375C76.272561 29.357908 75.699293 29.856 75 29.856s-1.272561-.498092-1.40625-1.15625zm6.5625 3.15625c-2.550363 0-4.65625 2.074637-4.65625 4.625s2.105887 4.625 4.65625 4.625 4.625-2.074637 4.625-4.625-2.074637-4.625-4.625-4.625zm0 .5c2.267561 0 4.09375 1.857439 4.09375 4.125 0 2.267561-1.826189 4.09375-4.09375 4.09375-2.267561 0-4.125-1.826189-4.125-4.09375 0-2.267561 1.857439-4.125 4.125-4.125zm0 .21875c-2.149298 0-3.90625 1.756952-3.90625 3.90625s1.756952 3.875 3.90625 3.875 3.875-1.725702 3.875-3.875-1.725702-3.90625-3.875-3.90625zm0 .75c.699293 0 1.272561.498091 1.40625 1.15625-.401065-.282803-.876638-.46875-1.40625-.46875s-1.036435.185947-1.4375.46875c.133689-.658159.738207-1.15625 1.4375-1.15625zm-1.375.0625c-.308512.30337-.505939.708908-.5625 1.15625-.452484.05656-.85288.253988-1.15625.5625.339363-.760995.957755-1.379387 1.71875-1.71875zm2.71875 0c.760995.339363 1.379388.957755 1.71875 1.71875-.303369-.308512-.708908-.511081-1.15625-.5625-.05656-.452484-.253989-.85288-.5625-1.15625zm-1.34375 1.15625c.293086 0 .56569.06924.8125.1875-.344505.174823-.622251.441887-.8125.78125-.190249-.339363-.499245-.606427-.84375-.78125.246809-.118263.550664-.1875.84375-.1875zm-2 .5c-.282803.401065-.46875.907888-.46875 1.4375s.185947 1.005185.46875 1.40625C77.498091 37.753561 77 37.180293 77 36.481s.498091-1.303811 1.15625-1.4375zm3.96875 0c.658158.133689 1.15625.738207 1.15625 1.4375s-.498092 1.272561-1.15625 1.40625c.287944-.401065.46875-.876638.46875-1.40625s-.185947-1.036435-.46875-1.4375zm-3.3125.03125c.52447.138831.923271.585104 1.03125 1.125-.534754-.113121-.954919-.53803-1.09375-1.0625l.0625-.0625zm2.65625 0c.02057.02571.04193.04193.0625.0625-.13883.52447-.558996.923271-1.09375 1.03125.107979-.539896.50678-.949778 1.03125-1.09375zm-3.0625.5625c.174823.344505.441887.653501.78125.84375-.339363.190249-.606427.467995-.78125.8125-.118263-.24681-.1875-.519414-.1875-.8125 0-.293086.06924-.596941.1875-.84375zm3.46875 0c.118263.246809.1875.550664.1875.84375 0 .293086-.06924.56569-.1875.8125-.174823-.344505-.441887-.622251-.78125-.8125.339363-.190249.606427-.499245.78125-.84375zm-2.03125 1.125c-.10798.534754-.50678.95492-1.03125 1.09375-.02571-.02057-.04194-.04193-.0625-.0625.138831-.52447.553854-.923271 1.09375-1.03125zm.59375 0c.534754.107979.95492.50678 1.09375 1.03125l-.0625.0625c-.52447-.13883-.923271-.558996-1.03125-1.09375zm-.28125.65625c.190249.339363.467995.606427.8125.78125-.251951.118263-.519414.1875-.8125.1875-.293086 0-.596941-.06924-.84375-.1875.344505-.174823.653501-.441887.84375-.78125zm-3.09375.4375c.30337.308511.708908.479831 1.15625.53125.05656.452483.253988.884131.5625 1.1875-.760995-.339362-1.379387-.957755-1.71875-1.71875zm6.15625 0c-.339362.760995-.957755 1.379388-1.71875 1.71875.308511-.303369.511081-.740158.5625-1.1875.452483-.05656.852881-.222739 1.15625-.53125zm-4.5.59375c.401065.287944.907888.46875 1.4375.46875s1.005185-.185947 1.40625-.46875c-.133689.658158-.706957 1.15625-1.40625 1.15625s-1.303811-.498092-1.4375-1.15625zM44.884943 12.590491c-.179438.179439-.224298.448598-.224298.762616 0 .583177.179439 1.300932.269158 1.570091 0 0 .13458 3.140186.179439 3.499065-.403737.04486-1.121494.08972-1.390652.179438h-.358878c-.762616.04486-1.480372.08972-1.794389.403738l-.13458.13458.13458.179439c.224298.269158.314017 1.031773.403737 1.83925.224298 1.65981.493457 3.723358 1.83925 4.530834l.269158.134579v-.314018s.04486-.13458.04486-.314018c0-.13458-.04486-.358879-.08972-.672897.358878.04486 1.121493.13458 1.390652.13458.04486.358877 1.211213 14.983155 1.211213 14.983155h.448598s.493457-14.444838.493457-14.893436c.314018 0 1.70467.04486 2.108408.08972-.08972.269158-.448598 1.390652-.448598 1.390652l.628037-.583177c.179439-.134579 4.082237-3.678499 3.54392-6.011206-.179439-.762616-.807475-1.300933-1.83925-1.570091h-.08972c-.583177 0-2.377566.04486-3.723359.134579.04486-1.166353.04486-1.794394.04486-2.108413v-.403728c0-.2243.224298-.538318.403738-.762617.179439-.269158.403737-.493457.403737-.762615 0-.08972-.04486-.17944-.08972-.269158-.269158-.403738-2.242988-1.435512-3.095323-1.525232-.269158.04486-.448597.08972-.538317.224299zm.04486 7.357003h.224299c0 .403737.134579 3.229902.179439 3.633639-.358878-.04486-1.211213-.134578-1.480372-.134578-.134579-.583177-.179439-1.211214-.224299-1.83925-.04485-.538317-.08972-1.076634-.179439-1.570092.403738 0 1.480372-.08972 1.480372-.08972zm2.736445 1.390652s.04485-1.076633.04485-1.435512c.583177.08972 1.345793.134579 2.063549.134579h.807476c0 .17944-.04486.403738-.04486.403738-.08972.986915-.224299 2.153268-.628036 3.319622-.269159 0-1.92897-.08972-2.287847-.13458 0-.314018.04486-2.287847.04486-2.287847z" opacity=".4"/>
  <path fill="#a31717" d="M44.884943 11.590491c-.179438.179439-.224298.448598-.224298.762616 0 .583177.179439 1.300932.269158 1.570091 0 0 .13458 3.140186.179439 3.499065-.403737.04486-1.121494.08972-1.390652.179438h-.358878c-.762616.04486-1.480372.08972-1.794389.403738l-.13458.13458.13458.179439c.224298.269158.314017 1.031773.403737 1.83925.224298 1.65981.493457 3.723358 1.83925 4.530834l.269158.134579v-.314018s.04486-.13458.04486-.314018c0-.13458-.04486-.358879-.08972-.672897.358878.04486 1.121493.13458 1.390652.13458.04486.358877 1.211213 14.983155 1.211213 14.983155h.448598s.493457-14.444838.493457-14.893436c.314018 0 1.70467.04486 2.108408.08972-.08972.269158-.448598 1.390652-.448598 1.390652l.628037-.583177c.179439-.134579 4.082237-3.678499 3.54392-6.011206-.179439-.762616-.807475-1.300933-1.83925-1.570091h-.08972c-.583177 0-2.377566.04486-3.723359.134579.04486-1.166353.04486-1.794394.04486-2.108413v-.403728c0-.2243.224298-.538318.403738-.762617.179439-.269158.403737-.493457.403737-.762615 0-.08972-.04486-.17944-.08972-.269158-.269158-.403738-2.242988-1.435512-3.095323-1.525232-.269158.04486-.448597.08972-.538317.224299zm.04486 7.357003h.224299c0 .403737.134579 3.229902.179439 3.633639-.358878-.04486-1.211213-.134578-1.480372-.134578-.134579-.583177-.179439-1.211214-.224299-1.83925-.04485-.538317-.08972-1.076634-.179439-1.570092.403738 0 1.480372-.08972 1.480372-.08972zm2.736445 1.390652s.04485-1.076633.04485-1.435512c.583177.08972 1.345793.134579 2.063549.134579h.807476c0 .17944-.04486.403738-.04486.403738-.08972.986915-.224299 2.153268-.628036 3.319622-.269159 0-1.92897-.08972-2.287847-.13458 0-.314018.04486-2.287847.04486-2.287847z"/>
  <g fill="#004c00" transform="translate(44.17547 12.034425) scale(.42888)">
    <path d="M65.371429 137.69107c0 .1-1.4 5.1-5.1 7.1-.5-.6-3.1-4.2-3.1-4.2l-.9.5 4.4 11.4 1-.2c0-2.2 1.1-3.5 2.4-4.9 1.8-2.1 3.8-4.5 2.3-9.7l-.5-1.7-.5 1.7zm4.5-10.8s-.5 4.9-1.9 7.8l-.3.7.7.1c1.8.1 3.5-3.7 4.1-5.4.4 0 1.4.1 2 .1-.3 1.2-.7 2.8-.7 3.8 0 .4 0 .7.2.9l.5.3c.8.1 5.2-.2 6.1-.3v-1c-1.5-.2-3.3-.7-3.5-1.2-.2-.6.6-3 1.5-5l.3-.7-9-.6v.5z"/>
    <path d="m82.371429 136.49107-14.7.4s4.9 6.3 5.4 6.9c-2.6 2.4-4.9 4.2-7 5.4l-.6.4.6.5c1.4 1.1 4.2-.2 8.6-4.2 2.3 3.2 3.8 5.5 4.3 6.9l.2.7 2.7-2.2v-.5c0-.5 0-2.1-4.7-7.3 3-3.1 5.6-6 5.6-6.1l.7-.9h-1.1zm-4.7 2.8c-.8.9-1.7 1.8-2.1 2.3l-1.9-1.9c1.1-.2 2.7-.3 4-.4zm-6.2-24.2-1.7 1.7-4.5-5.2h-.2c-.7 0-4.3.1-5.2 1.4-.1.1-.1.3-.1.4v.2c.1.5.7.7 1.8 1.1.5.2 1.2.5 1.5.7-1.1 2.3-2.3 4.4-3.7 6.4-.7-.4-4.1-2.5-4.1-2.5l-.6.8s2.8 3.1 3.3 3.6c-2.8 3.5-6.2 6.6-10.4 9.5l.4.9c12.8-3.3 21.9-16.2 22.1-16.5l2.3 2.2c-3.2 2-6.2 3.8-6.2 3.8l.5.9c2-.8 4.8-1.9 7.6-3l11.1 10.8 10.8-3.8-.1-1c-5.1-.2-12-4.4-17.1-7.9 2.9-1 5.3-1.7 6.4-1.6.7 0 .9-.3 1-.5.4-1.1-3.5-4.4-11.4-9.7l-.5-.3-.2.6m1 8.8c.7-1.2 1.6-2.9 1.9-3.3.5.3 1.8 1.1 2.5 1.6-.4.2-1.9 1.1-3.7 2.3-.2-.2-.4-.4-.7-.6z"/>
    <path d="m67.271429 125.29107-6.2 3.5.3.9s1.1-.1 1.8-.1c-.2.7-.6 1.8-1.1 3.2-.6 0-5-.2-5-.2l.8.9c.3.3 1.6 1.7 2.7 1.7 0 0 .3-.1.6-.1-.8 2-1.7 3.7-2.6 5l.7.7c1.5-1.2 3.2-3.4 4.8-6.4l1.2-.4-.1-1h-.4c1.8-3.6 3.1-7.1 3.1-7.1l.5-1.3-1.1.7z"/>
  </g>
  <path fill="#2c2c51" d="M17.2181503 56.558849c.1723714.21546424.38783563.9911354.38783563 3.70598476v1.20659972c-1.4651568.21546423-2.71484936.43092847-2.9303136.51711416l-.25855708.0861857 1.20659972 1.16350687.0861857-.04309285c.4740213-.12927854 1.12041401-.21546424 1.80989956-.30164993 0 .30164993-.17237138 3.14577783-.17237138 3.40433491-2.1115495.1723714-3.96454193.47402132-5.47279157.8187641-1.29278541.34474277-2.06845666 1.12041402-2.24082805 2.32701373-.04309284.1723714-.04309284.38783563-.04309284.60329986 0 3.05959214 2.97340644 7.28269115 3.01649929 7.28269115l.34474277.21546423-.12927854-.38783562c0-.04309285-1.20659971-4.05072762-1.20659971-6.72248413 0-.77567125.08618569-1.42206396.34474277-1.85299243.17237139-.25855708.34474278-.38783562.60329986-.43092847.56020701-.08618569 1.16350687-.17237138 1.72371388-.25855708 0 0 1.33587826 1.72371388 1.59443534 2.02536381-.21546424.04309285-.60329986.12927854-.60329986.12927854v.12927854l.0861857.94804264.17237138-.04309285c.25855708-.0861857.77567125-.21546423 1.3789711-.30164993 0 .25855708.04309285 1.03422833.0861857 1.24969256-.7325784.21546424-1.3789711.47402132-1.63752819.60329986l-.17237138.0861857.6463927.68948555.0861857-.04309285c.30164992-.12927854.7325784-.25855708 1.16350686-.38783562 0 .30164993.12927855 2.41319943.12927855 2.41319943h.30164992l.51711417-2.58557082c.77567124-.0861857 1.50824964-.04309285 2.06845665.0861857l.1723714.04309284v-1.2927854l-.0861857-.04309286c-.34474278-.17237138-.99113548-.17237138-1.93917812.04309285.04309285-.30164993.1723714-.90494979.21546424-1.07732117.68948555-.04309285 1.24969256-.0861857 1.63752818-.04309285l.21546424.04309285-.30164993-1.12041403s-.38783562 0-.60329986.04309285c.34474278-.38783562 1.50824965-1.89608527 1.59443534-1.98227096.12927854 0 1.68062103.04309285 1.68062103.04309285.68948556.04309284 1.29278541.30164993 1.76680673.86185694.56020701.6463927.86185694 1.68062103.86185694 2.71484936 0 .21546423 0 .47402131-.04309285.68948555l-.04309284.30164993c-.30164993 2.1977352-.56020701 3.79217053-1.33587826 4.13691331-.51711416.21546424-1.33587826-.12927854-2.54247797-1.03422833l-.21546424.21546424 2.37010659 4.1369133.12927854-.04309284c2.88722075-1.03422833 3.31814922-1.63752818 4.48165609-6.63629844.51711416-2.1977352.34474277-3.92144907-.56020701-5.08495594-1.07732118-1.42206395-2.71484937-1.59443534-2.80103506-1.59443534-.04309285 0-2.88722075-.12927854-6.29155566.0861857.0861857-.34474278.86185694-3.23196353.90494979-3.40433492 1.07732117 0 2.0253638.04309285 2.45629227.21546424l.1723714.04309284.17237138-2.0253638h-.17237139c-.47402131 0-1.20659971.04309284-2.1977352.12927853.56020702-1.89608526.8187641-2.49938512.9049498-2.67175651l.08618569-.12927854-3.49052061-2.02536372-.0861857.12927854zm1.89608527 10.90249021c-.04309284.30164993-.30164993 1.85299242-.30164993 2.02536381h-.04309284c0-.04309285.04309284-.17237139.04309284-.17237139l-1.89608526.1723714v.25855707c-.1723714.04309285-.43092847.0861857-.60329986.0861857v-2.1977352c.94804263-.04309285 1.85299242-.12927854 2.80103505-.17237139z"/>
  <g transform="translate(30.447149 -8.3248855) scale(.46747)">
    <path fill="#a81212" d="M36.419196 161.96114s-4.39 3.33-4.78 3.63c-.32-.33-3.2-3.27-3.2-3.27l2.22 8.92.6-.03c.75-4.76 4.35-6.63 5.33-7.05.14.2.26.42.26.72 0 .09-.01.18-.02.28-.21 1.67-2.39 4.64-6.68 7.21l-.31.18.81 1.01.2-.06c.06-.02 6.59-2.06 10.36-1.88l1.14.05-.96-.63c-.08-.05-1.95-1.25-3.93-1.03.28-.63 2.26-2.56 4.15-4.16l.31-.26-5.32-3.77-.18.14zm15.77 24.5c-.17-.17-4.21-4.28-5.63-5.01-.53-.27-1.71-.18-5.75.16 0 0-.17.01-.43.04 1.19-2.79 2.72-5.86 3.57-6.25l.55-.25-2.13-2.09-.21.03c-5.11.87-13.08 2.09-14.11 1.9l-.35-.07-.12.33c-.2.56.32 4.93.86 7.37-4.58.4-10.03.86-10.03.86l.3.56.68 1.27.32-.09c1.72-.51 2.52-.57 4.6-.54.19.49 2.6 6.77 2.6 6.77l.79-.2s-.69-5.69-.8-6.52c.78.02 7.99.22 9.67.26-1.09.92-3.56 3.02-3.56 3.02l.4.71s5.15-1.76 5.41-1.85c.25.1 4.3 1.65 4.3 1.65s-2.13-2.57-2.81-3.38c3.78.2 4.75.42 5.01.74.33.39.5.96.5 1.6 0 1.16-.58 2.57-1.8 3.73-1.82-.46-5.17-2.34-5.21-2.36l-.52.62 5.08 6.35.24-.05c3.82-.78 8.44-8.48 8.63-8.81l.17-.27-.22-.23zm-12.76-7.99c-1.22.16-2.77.37-3.21.43v-2c1.62-.13 3.11-.25 3.49-.29-.05.27-.15.98-.28 1.86zm-4.93-1.43c.02.84.04 1.75.05 2.06-1.41.16-2.6.26-3.55.3.1-.62.19-1.31.3-2.1.24-.02 1.62-.13 3.2-.26zm-4.06 5.43c.08-.35.17-.76.26-1.24 1.3-.24 2.61-.46 3.89-.63.01.48.03 1.1.04 1.52-.25.01-1.96.16-4.19.35zm5.77-.48v-1.6c.98-.1 1.36-.08 1.96-.02l.96.06c-.07.46-.14.92-.2 1.35-1.09.08-2.33.18-2.72.21z"/>
    <path fill="#3d3d6f" d="M48.009196 144.42114s-2.9 3.2-3.1 3.4c-3.2.7-8.4 1.2-8.8-.4-.5-1.9 3.4-10.4 4.9-13.6l.2-.3-5.6-2.8-.1.4c-.1.2-.4 1.3-.9 3h-4.5c0-.4-.1-1.3-.1-1.3-1.4-2.3-7.4-.7-8.1-.6l-.4.1.2.4c.2.4.4.9.5 1.4h-3.8l1.9 3.6 2.4-.4v.7c0 6.2-2.7 14.1-2.7 14.2l.6.3c.3-.4 7.9-9.5 9.3-16.4.2 0 2.4-.4 4.4-.7-1.2 4.7-2.6 12.1-.3 14.8 3.4 4 16.6 3.7 17.1 3.5l.3-.1-3.4-9.2z"/>
  </g>
  <path fill="#fff" d="M13.125 12.7065c-1.300502 0-2.34375.465947-2.34375 1.03125 0 .400061.538188.741007 1.3125.90625v3.03125c-.774312.165242-1.3125.50619-1.3125.90625 0 .400061.538188.741007 1.3125.90625V22.519c-.774312.169591-1.3125.50619-1.3125.90625 0 .565303 1.043248 1.03125 2.34375 1.03125 1.300503 0 2.34375-.465947 2.34375-1.03125 0-.40006-.538188-.741008-1.3125-.90625v-3.03125c.774312-.169591 1.3125-.506189 1.3125-.90625 0-.40006-.538188-.741008-1.3125-.90625V14.644c.774312-.165243 1.3125-.506189 1.3125-.90625 0-.565303-1.043247-1.03125-2.34375-1.03125zm11.75 0c-1.300503 0-2.34375.465947-2.34375 1.03125 0 .400061.538188.741007 1.3125.90625v3.03125c-.774312.165242-1.3125.50619-1.3125.90625 0 .400061.538188.741007 1.3125.90625V22.519c-.774312.169591-1.3125.50619-1.3125.90625 0 .565303 1.043247 1.03125 2.34375 1.03125s2.34375-.465947 2.34375-1.03125c0-.40006-.538187-.741008-1.3125-.90625v-3.03125c.774313-.169591 1.3125-.506189 1.3125-.90625 0-.40006-.538187-.741008-1.3125-.90625V14.644c.774313-.165243 1.3125-.506189 1.3125-.90625 0-.565303-1.043247-1.03125-2.34375-1.03125zm-11.75.625c.577526 0 1.03125.193175 1.03125.40625 0 .178288-.332064.300265-.78125.34375v2.59375c0 .20003-.108827.375-.25.375s-.25-.17497-.25-.375V14.0815c-.449186-.04349-.78125-.165462-.78125-.34375 0-.213075.453725-.40625 1.03125-.40625zm11.75 0c.577526 0 1.03125.193175 1.03125.40625 0 .178288-.332063.300265-.78125.34375v2.59375c0 .20003-.108827.375-.25.375s-.25-.17497-.25-.375V14.0815c-.449187-.04349-.78125-.165462-.78125-.34375 0-.213075.453724-.40625 1.03125-.40625zm-11.75 4.84375c.795703 0 1.4375.193174 1.4375.40625s-.641797.375-1.4375.375c-.795702 0-1.4375-.161924-1.4375-.375s.641798-.40625 1.4375-.40625zm11.75 0c.795702 0 1.4375.193174 1.4375.40625s-.641798.375-1.4375.375-1.4375-.161924-1.4375-.375.641798-.40625 1.4375-.40625zm-11.75 1.9375c.141173 0 .25.143719.25.34375v2.59375c.449186.04349.78125.196712.78125.375 0 .213076-.453724.375-1.03125.375-.577525 0-1.03125-.161924-1.03125-.375 0-.178288.332064-.331515.78125-.375V20.4565c0-.200031.108827-.34375.25-.34375zm11.75 0c.141173 0 .25.143719.25.34375v2.59375c.449187.04349.78125.196712.78125.375 0 .213076-.453724.375-1.03125.375s-1.03125-.161924-1.03125-.375c0-.178288.332063-.331515.78125-.375V20.4565c0-.200031.108827-.34375.25-.34375zm-5.875.8125c-1.300503 0-2.34375.465947-2.34375 1.03125 0 .400061.538188.741008 1.3125.90625V25.894c-.774312.165242-1.3125.506189-1.3125.90625s.538188.741008 1.3125.90625v3.03125c-.774312.169591-1.3125.506189-1.3125.90625 0 .565303 1.043247 1.03125 2.34375 1.03125 1.300502 0 2.34375-.465947 2.34375-1.03125 0-.400061-.538187-.741008-1.3125-.90625V27.7065c.774313-.169591 1.3125-.506189 1.3125-.90625s-.538187-.741008-1.3125-.90625v-3.03125c.774313-.165242 1.3125-.506189 1.3125-.90625 0-.565303-1.043248-1.03125-2.34375-1.03125zm0 .65625c.577526 0 1.03125.161924 1.03125.375 0 .178288-.332063.331515-.78125.375v2.5625c0 .20003-.108827.375-.25.375s-.25-.17497-.25-.375v-2.5625c-.449187-.04348-.78125-.196712-.78125-.375 0-.213076.453724-.375 1.03125-.375zm0 4.84375c.795702 0 1.4375.161924 1.4375.375s-.641798.375-1.4375.375c-.795703 0-1.4375-.161924-1.4375-.375s.641797-.375 1.4375-.375zm0 1.90625c.141173 0 .25.174969.25.375v2.5625c.449187.04348.78125.196712.78125.375 0 .213076-.453724.375-1.03125.375s-1.03125-.161924-1.03125-.375c0-.178288.332063-.331515.78125-.375v-2.5625c0-.200031.108827-.375.25-.375zm-5.875.8125c-1.300502 0-2.34375.465947-2.34375 1.03125 0 .40006.538188.741008 1.3125.90625v3.03125c-.774312.165243-1.3125.506189-1.3125.90625 0 .40006.538188.741008 1.3125.90625v3.03125c-.774312.169591-1.3125.506189-1.3125.90625 0 .565303 1.043248 1.03125 2.34375 1.03125 1.300503 0 2.34375-.465947 2.34375-1.03125 0-.400061-.538188-.741007-1.3125-.90625v-3.03125c.774312-.169591 1.3125-.50619 1.3125-.90625 0-.400061-.538188-.741007-1.3125-.90625V31.0815c.774312-.165242 1.3125-.50619 1.3125-.90625 0-.565303-1.043247-1.03125-2.34375-1.03125zm11.75 0c-1.300503 0-2.34375.465947-2.34375 1.03125 0 .40006.538188.741008 1.3125.90625v3.03125c-.774312.165243-1.3125.506189-1.3125.90625 0 .40006.538188.741008 1.3125.90625v3.03125c-.774312.169591-1.3125.506189-1.3125.90625 0 .565303 1.043247 1.03125 2.34375 1.03125s2.34375-.465947 2.34375-1.03125c0-.400061-.538187-.741007-1.3125-.90625v-3.03125c.774313-.169591 1.3125-.50619 1.3125-.90625 0-.400061-.538187-.741007-1.3125-.90625V31.0815c.774313-.165242 1.3125-.50619 1.3125-.90625 0-.565303-1.043247-1.03125-2.34375-1.03125zm-11.75.65625c.577526 0 1.03125.161924 1.03125.375 0 .178288-.332064.331515-.78125.375V33.144c0 .200031-.108827.34375-.25.34375s-.25-.143719-.25-.34375v-2.59375c-.449186-.04349-.78125-.196712-.78125-.375 0-.213076.453725-.375 1.03125-.375zm11.75 0c.577526 0 1.03125.161924 1.03125.375 0 .178288-.332063.331515-.78125.375V33.144c0 .200031-.108827.34375-.25.34375s-.25-.143719-.25-.34375v-2.59375c-.449187-.04349-.78125-.196712-.78125-.375 0-.213076.453724-.375 1.03125-.375zM13.125 34.644c.795703 0 1.4375.161924 1.4375.375s-.641797.40625-1.4375.40625c-.795702 0-1.4375-.193174-1.4375-.40625s.641798-.375 1.4375-.375zm11.75 0c.795702 0 1.4375.161924 1.4375.375s-.641798.40625-1.4375.40625-1.4375-.193174-1.4375-.40625.641798-.375 1.4375-.375zm-11.75 1.90625c.141173 0 .25.17497.25.375V39.519c.449186.04348.78125.165462.78125.34375 0 .213075-.453724.40625-1.03125.40625-.577525 0-1.03125-.193175-1.03125-.40625 0-.178288.332064-.300265.78125-.34375v-2.59375c0-.20003.108827-.375.25-.375zm11.75 0c.141173 0 .25.17497.25.375V39.519c.449187.04348.78125.165462.78125.34375 0 .213075-.453724.40625-1.03125.40625s-1.03125-.193175-1.03125-.40625c0-.178288.332063-.300265.78125-.34375v-2.59375c0-.20003.108827-.375.25-.375z" opacity=".4"/>
  <g transform="translate(-103.76834 -42.356663) scale(.4701)">
    <path fill="#0c6c0c" d="M253.65506 127.90676c0-.851-1.1375-1.58175-2.7846-1.93325v-6.44725c1.6471-.3515 2.7846-1.08225 2.7846-1.93325 0-1.2025-2.2386-2.17375-5.005-2.17375s-5.005.97125-5.005 2.17375c0 .851 1.1375 1.58175 2.7846 1.93325v6.44725c-1.6471.3515-2.7846 1.08225-2.7846 1.93325s1.1375 1.58175 2.7846 1.93325v6.438c-1.6471.36075-2.7846 1.0915-2.7846 1.9425 0 1.2025 2.2386 2.17375 5.005 2.17375s5.005-.97125 5.005-2.17375c0-.851-1.1375-1.58175-2.7846-1.93325v-6.438c1.6471-.36075 2.7846-1.0915 2.7846-1.9425zm-5.005-11.12775c1.2285 0 2.2204.36075 2.2204.814 0 .37925-.7098.69375-1.6653.78625v5.4945c0 .4255-.2548.777-.5551.777s-.5551-.3515-.5551-.777v-5.4945c-.9555-.0925-1.6653-.407-1.6653-.78625 0-.45325.9919-.814 2.2204-.814zm0 22.2555c-1.2285 0-2.2204-.36075-2.2204-.814 0-.37925.7098-.69375 1.6653-.78625v-5.4945c0-.4255.2548-.777.5551-.777s.5551.3515.5551.777v5.4945c.9555.0925 1.6653.407 1.6653.78625 0 .45325-.9919.814-2.2204.814zm0-10.31375c-1.6926 0-3.0576-.36075-3.0576-.814 0-.45325 1.365-.814 3.0576-.814 1.6926 0 3.0576.36075 3.0576.814 0 .45325-1.365.814-3.0576.814zm5.005 34.186c0-.851-1.1375-1.58175-2.7846-1.93325v-6.44725c1.6471-.3515 2.7846-1.08225 2.7846-1.93325 0-1.2025-2.2386-2.17375-5.005-2.17375s-5.005.97125-5.005 2.17375c0 .851 1.1375 1.58175 2.7846 1.93325v6.44725c-1.6471.3515-2.7846 1.08225-2.7846 1.93325s1.1375 1.58175 2.7846 1.93325v6.438c-1.6471.36075-2.7846 1.0915-2.7846 1.9425 0 1.2025 2.2386 2.17375 5.005 2.17375s5.005-.97125 5.005-2.17375c0-.851-1.1375-1.58175-2.7846-1.93325v-6.438c1.6471-.36075 2.7846-1.0915 2.7846-1.9425zm-5.005-11.12775c1.2285 0 2.2204.36075 2.2204.814 0 .37925-.7098.69375-1.6653.78625v5.4945c0 .4255-.2548.777-.5551.777s-.5551-.3515-.5551-.777v-5.4945c-.9555-.0925-1.6653-.407-1.6653-.78625 0-.45325.9919-.814 2.2204-.814zm0 22.2555c-1.2285 0-2.2204-.36075-2.2204-.814 0-.37925.7098-.69375 1.6653-.78625v-5.4945c0-.4255.2548-.777.5551-.777s.5551.3515.5551.777v5.4945c.9555.0925 1.6653.407 1.6653.78625 0 .45325-.9919.814-2.2204.814zm0-10.31375c-1.6926 0-3.0576-.36075-3.0576-.814 0-.45325 1.365-.814 3.0576-.814 1.6926 0 3.0576.36075 3.0576.814 0 .45325-1.365.814-3.0576.814z"/>
    <path fill="#9c0000" d="M266.15506 145.40676c0-.851-1.1375-1.58175-2.7846-1.93325v-6.44725c1.6471-.3515 2.7846-1.08225 2.7846-1.93325 0-1.2025-2.2386-2.17375-5.005-2.17375s-5.005.97125-5.005 2.17375c0 .851 1.1375 1.58175 2.7846 1.93325v6.44725c-1.6471.3515-2.7846 1.08225-2.7846 1.93325s1.1375 1.58175 2.7846 1.93325v6.438c-1.6471.36075-2.7846 1.0915-2.7846 1.9425 0 1.2025 2.2386 2.17375 5.005 2.17375s5.005-.97125 5.005-2.17375c0-.851-1.1375-1.58175-2.7846-1.93325v-6.438c1.6471-.36075 2.7846-1.0915 2.7846-1.9425zm-5.005-11.12775c1.2285 0 2.2204.36075 2.2204.814 0 .37925-.7098.69375-1.6653.78625v5.4945c0 .4255-.2548.777-.5551.777s-.5551-.3515-.5551-.777v-5.4945c-.9555-.0925-1.6653-.407-1.6653-.78625 0-.45325.9919-.814 2.2204-.814zm0 22.2555c-1.2285 0-2.2204-.36075-2.2204-.814 0-.37925.7098-.69375 1.6653-.78625v-5.4945c0-.4255.2548-.777.5551-.777s.5551.3515.5551.777v5.4945c.9555.0925 1.6653.407 1.6653.78625 0 .45325-.9919.814-2.2204.814zm0-10.31375c-1.6926 0-3.0576-.36075-3.0576-.814 0-.45325 1.365-.814 3.0576-.814 1.6926 0 3.0576.36075 3.0576.814 0 .45325-1.365.814-3.0576.814z"/>
    <path fill="#0c6c0c" d="M278.65506 127.90676c0-.851-1.1375-1.58175-2.7846-1.93325v-6.44725c1.6471-.3515 2.7846-1.08225 2.7846-1.93325 0-1.2025-2.2386-2.17375-5.005-2.17375s-5.005.97125-5.005 2.17375c0 .851 1.1375 1.58175 2.7846 1.93325v6.44725c-1.6471.3515-2.7846 1.08225-2.7846 1.93325s1.1375 1.58175 2.7846 1.93325v6.438c-1.6471.36075-2.7846 1.0915-2.7846 1.9425 0 1.2025 2.2386 2.17375 5.005 2.17375s5.005-.97125 5.005-2.17375c0-.851-1.1375-1.58175-2.7846-1.93325v-6.438c1.6471-.36075 2.7846-1.0915 2.7846-1.9425zm-5.005-11.12775c1.2285 0 2.2204.36075 2.2204.814 0 .37925-.7098.69375-1.6653.78625v5.4945c0 .4255-.2548.777-.5551.777s-.5551-.3515-.5551-.777v-5.4945c-.9555-.0925-1.6653-.407-1.6653-.78625 0-.45325.9919-.814 2.2204-.814zm0 22.2555c-1.2285 0-2.2204-.36075-2.2204-.814 0-.37925.7098-.69375 1.6653-.78625v-5.4945c0-.4255.2548-.777.5551-.777s.5551.3515.5551.777v5.4945c.9555.0925 1.6653.407 1.6653.78625 0 .45325-.9919.814-2.2204.814zm0-10.31375c-1.6926 0-3.0576-.36075-3.0576-.814 0-.45325 1.365-.814 3.0576-.814 1.6926 0 3.0576.36075 3.0576.814 0 .45325-1.365.814-3.0576.814zm5.005 34.186c0-.851-1.1375-1.58175-2.7846-1.93325v-6.44725c1.6471-.3515 2.7846-1.08225 2.7846-1.93325 0-1.2025-2.2386-2.17375-5.005-2.17375s-5.005.97125-5.005 2.17375c0 .851 1.1375 1.58175 2.7846 1.93325v6.44725c-1.6471.3515-2.7846 1.08225-2.7846 1.93325s1.1375 1.58175 2.7846 1.93325v6.438c-1.6471.36075-2.7846 1.0915-2.7846 1.9425 0 1.2025 2.2386 2.17375 5.005 2.17375s5.005-.97125 5.005-2.17375c0-.851-1.1375-1.58175-2.7846-1.93325v-6.438c1.6471-.36075 2.7846-1.0915 2.7846-1.9425zm-5.005-11.12775c1.2285 0 2.2204.36075 2.2204.814 0 .37925-.7098.69375-1.6653.78625v5.4945c0 .4255-.2548.777-.5551.777s-.5551-.3515-.5551-.777v-5.4945c-.9555-.0925-1.6653-.407-1.6653-.78625 0-.45325.9919-.814 2.2204-.814zm0 22.2555c-1.2285 0-2.2204-.36075-2.2204-.814 0-.37925.7098-.69375 1.6653-.78625v-5.4945c0-.4255.2548-.777.5551-.777s.5551.3515.5551.777v5.4945c.9555.0925 1.6653.407 1.6653.78625 0 .45325-.9919.814-2.2204.814zm0-10.31375c-1.6926 0-3.0576-.36075-3.0576-.814 0-.45325 1.365-.814 3.0576-.814 1.6926 0 3.0576.36075 3.0576.814 0 .45325-1.365.814-3.0576.814z"/>
  </g>
  <g transform="translate(113.83225 -56.387422) scale(.51419)">
    <g transform="translate(-94.521781 132.2288)">
      <path fill="#10106c" d="M9 1.42c-4.18 0-7.58 3.4-7.58 7.58s3.4 7.58 7.58 7.58 7.58-3.4 7.58-7.58S13.18 1.42 9 1.42zm0 13.69c-1.36 0-2.49-.97-2.75-2.25.78.56 1.72.89 2.75.89s1.97-.34 2.75-.89c-.26 1.28-1.39 2.25-2.75 2.25zM9 2.89c1.36 0 2.49.97 2.75 2.25-.78-.55-1.72-.89-2.75-.89s-1.97.34-2.75.89C6.51 3.86 7.64 2.89 9 2.89zM12.75 9c0 .57-.14 1.11-.37 1.59-.34-.67-.87-1.22-1.53-1.59.66-.37 1.19-.92 1.53-1.59.23.48.37 1.02.37 1.59zm-7.5 0c0-.57.14-1.11.37-1.59.34.67.87 1.22 1.53 1.59-.66.37-1.19.92-1.53 1.59-.23-.48-.37-1.02-.37-1.59zm6.34 2.7c-1.02-.27-1.82-1.1-2.03-2.14 1.04.21 1.87 1.01 2.14 2.03l-.11.11zm-5.29-.11c.27-1.02 1.1-1.82 2.15-2.03-.21 1.04-1.01 1.87-2.03 2.14-.05-.04-.08-.07-.12-.11zm.11-5.29c1.02.27 1.82 1.1 2.03 2.15C7.4 8.23 6.57 7.43 6.3 6.41l.11-.11zm5.29.11c-.27 1.02-1.1 1.82-2.14 2.03.21-1.05 1.01-1.87 2.03-2.15.04.05.07.08.11.12zM9 7.15c-.37-.66-.92-1.19-1.59-1.53.48-.23 1.02-.37 1.59-.37.57 0 1.11.14 1.59.37-.67.34-1.22.87-1.59 1.53zm0 3.7c.37.66.92 1.19 1.59 1.53-.49.23-1.02.37-1.59.37-.57 0-1.11-.14-1.59-.37.67-.34 1.22-.87 1.59-1.53zm-3.86.9C3.86 11.49 2.89 10.36 2.89 9s.97-2.49 2.25-2.75c-.55.78-.89 1.72-.89 2.75s.34 1.97.89 2.75zm7.72-5.5c1.28.26 2.25 1.39 2.25 2.75s-.97 2.49-2.25 2.75c.56-.78.89-1.72.89-2.75s-.34-1.97-.89-2.75zm2.15.08c-.59-.6-1.38-.99-2.25-1.09-.11-.88-.49-1.66-1.09-2.25 1.48.66 2.68 1.86 3.34 3.34zM6.33 2.99c-.6.59-.98 1.38-1.09 2.25-.88.11-1.66.49-2.25 1.09.66-1.48 1.86-2.68 3.34-3.34zm-3.34 8.68c.59.6 1.38.99 2.25 1.09.11.88.49 1.66 1.09 2.25-1.48-.66-2.68-1.86-3.34-3.34zm8.68 3.34c.6-.59.99-1.38 1.09-2.25.88-.11 1.66-.49 2.25-1.09-.66 1.48-1.86 2.68-3.34 3.34z"/>
      <path fill="#2d2d4f" d="M9 0C4.04 0 0 4.04 0 9s4.04 9 9 9 9-4.04 9-9-4.04-9-9-9zm0 17c-4.41 0-8-3.59-8-8s3.59-8 8-8 8 3.59 8 8-3.59 8-8 8z"/>
    </g>
    <g fill="#9c0000" transform="translate(-84.521781 151.2288)">
      <path d="M9 1.42c-4.18 0-7.58 3.4-7.58 7.58s3.4 7.58 7.58 7.58 7.58-3.4 7.58-7.58S13.18 1.42 9 1.42zm0 13.69c-1.36 0-2.49-.97-2.75-2.25.78.56 1.72.89 2.75.89s1.97-.34 2.75-.89c-.26 1.28-1.39 2.25-2.75 2.25zM9 2.89c1.36 0 2.49.97 2.75 2.25-.78-.55-1.72-.89-2.75-.89s-1.97.34-2.75.89C6.51 3.86 7.64 2.89 9 2.89zM12.75 9c0 .57-.14 1.11-.37 1.59-.34-.67-.87-1.22-1.53-1.59.66-.37 1.19-.92 1.53-1.59.23.48.37 1.02.37 1.59zm-7.5 0c0-.57.14-1.11.37-1.59.34.67.87 1.22 1.53 1.59-.66.37-1.19.92-1.53 1.59-.23-.48-.37-1.02-.37-1.59zm6.34 2.7c-1.02-.27-1.82-1.1-2.03-2.14 1.04.21 1.87 1.01 2.14 2.03l-.11.11zm-5.29-.11c.27-1.02 1.1-1.82 2.15-2.03-.21 1.04-1.01 1.87-2.03 2.14-.05-.04-.08-.07-.12-.11zm.11-5.29c1.02.27 1.82 1.1 2.03 2.15C7.4 8.23 6.57 7.43 6.3 6.41l.11-.11zm5.29.11c-.27 1.02-1.1 1.82-2.14 2.03.21-1.05 1.01-1.87 2.03-2.15.04.05.07.08.11.12zM9 7.15c-.37-.66-.92-1.19-1.59-1.53.48-.23 1.02-.37 1.59-.37.57 0 1.11.14 1.59.37-.67.34-1.22.87-1.59 1.53zm0 3.7c.37.66.92 1.19 1.59 1.53-.49.23-1.02.37-1.59.37-.57 0-1.11-.14-1.59-.37.67-.34 1.22-.87 1.59-1.53zm-3.86.9C3.86 11.49 2.89 10.36 2.89 9s.97-2.49 2.25-2.75c-.55.78-.89 1.72-.89 2.75s.34 1.97.89 2.75zm7.72-5.5c1.28.26 2.25 1.39 2.25 2.75s-.97 2.49-2.25 2.75c.56-.78.89-1.72.89-2.75s-.34-1.97-.89-2.75zm2.15.08c-.59-.6-1.38-.99-2.25-1.09-.11-.88-.49-1.66-1.09-2.25 1.48.66 2.68 1.86 3.34 3.34zM6.33 2.99c-.6.59-.98 1.38-1.09 2.25-.88.11-1.66.49-2.25 1.09.66-1.48 1.86-2.68 3.34-3.34zm-3.34 8.68c.59.6 1.38.99 2.25 1.09.11.88.49 1.66 1.09 2.25-1.48-.66-2.68-1.86-3.34-3.34zm8.68 3.34c.6-.59.99-1.38 1.09-2.25.88-.11 1.66-.49 2.25-1.09-.66 1.48-1.86 2.68-3.34 3.34z"/>
      <path d="M9 0C4.04 0 0 4.04 0 9s4.04 9 9 9 9-4.04 9-9-4.04-9-9-9zm0 17c-4.41 0-8-3.59-8-8s3.59-8 8-8 8 3.59 8 8-3.59 8-8 8z"/>
    </g>
    <g transform="translate(-74.521781 170.2288)">
      <path fill="#2c2c50" d="M9 1.42c-4.18 0-7.58 3.4-7.58 7.58s3.4 7.58 7.58 7.58 7.58-3.4 7.58-7.58S13.18 1.42 9 1.42zm0 13.69c-1.36 0-2.49-.97-2.75-2.25.78.56 1.72.89 2.75.89s1.97-.34 2.75-.89c-.26 1.28-1.39 2.25-2.75 2.25zM9 2.89c1.36 0 2.49.97 2.75 2.25-.78-.55-1.72-.89-2.75-.89s-1.97.34-2.75.89C6.51 3.86 7.64 2.89 9 2.89zM12.75 9c0 .57-.14 1.11-.37 1.59-.34-.67-.87-1.22-1.53-1.59.66-.37 1.19-.92 1.53-1.59.23.48.37 1.02.37 1.59zm-7.5 0c0-.57.14-1.11.37-1.59.34.67.87 1.22 1.53 1.59-.66.37-1.19.92-1.53 1.59-.23-.48-.37-1.02-.37-1.59zm6.34 2.7c-1.02-.27-1.82-1.1-2.03-2.14 1.04.21 1.87 1.01 2.14 2.03l-.11.11zm-5.29-.11c.27-1.02 1.1-1.82 2.15-2.03-.21 1.04-1.01 1.87-2.03 2.14-.05-.04-.08-.07-.12-.11zm.11-5.29c1.02.27 1.82 1.1 2.03 2.15C7.4 8.23 6.57 7.43 6.3 6.41l.11-.11zm5.29.11c-.27 1.02-1.1 1.82-2.14 2.03.21-1.05 1.01-1.87 2.03-2.15.04.05.07.08.11.12zM9 7.15c-.37-.66-.92-1.19-1.59-1.53.48-.23 1.02-.37 1.59-.37.57 0 1.11.14 1.59.37-.67.34-1.22.87-1.59 1.53zm0 3.7c.37.66.92 1.19 1.59 1.53-.49.23-1.02.37-1.59.37-.57 0-1.11-.14-1.59-.37.67-.34 1.22-.87 1.59-1.53zm-3.86.9C3.86 11.49 2.89 10.36 2.89 9s.97-2.49 2.25-2.75c-.55.78-.89 1.72-.89 2.75s.34 1.97.89 2.75zm7.72-5.5c1.28.26 2.25 1.39 2.25 2.75s-.97 2.49-2.25 2.75c.56-.78.89-1.72.89-2.75s-.34-1.97-.89-2.75zm2.15.08c-.59-.6-1.38-.99-2.25-1.09-.11-.88-.49-1.66-1.09-2.25 1.48.66 2.68 1.86 3.34 3.34zM6.33 2.99c-.6.59-.98 1.38-1.09 2.25-.88.11-1.66.49-2.25 1.09.66-1.48 1.86-2.68 3.34-3.34zm-3.34 8.68c.59.6 1.38.99 2.25 1.09.11.88.49 1.66 1.09 2.25-1.48-.66-2.68-1.86-3.34-3.34zm8.68 3.34c.6-.59.99-1.38 1.09-2.25.88-.11 1.66-.49 2.25-1.09-.66 1.48-1.86 2.68-3.34 3.34z"/>
      <path fill="#10106c" d="M9 0C4.04 0 0 4.04 0 9s4.04 9 9 9 9-4.04 9-9-4.04-9-9-9zm0 17c-4.41 0-8-3.59-8-8s3.59-8 8-8 8 3.59 8 8-3.59 8-8 8z"/>
    </g>
  </g>
</svg>