<?xml version="1.0" encoding="UTF-8" standalone="no"?>
<svg xmlns="http://www.w3.org/2000/svg" xmlns:xlink="http://www.w3.org/1999/xlink" width="96" height="96" version="1.0">
  <defs>
    <path id="P" d="M22.181241 79.821709c-.215606 4.451177 3.241509 8.260251 7.692686 8.475856L59.838796 89.749c4.451177.215605 8.260251-3.24151 8.475857-7.692687l3.483443-71.915684c.215605-4.4511772-3.24151-8.2602516-7.692687-8.4758571L34.14054.21333736c-4.451177-.21560557-8.260251 3.24151004-8.475857 7.69268684L22.181241 79.821709z" opacity=".07999998"/>
    <path id="Q" d="M23.11764276 79.86706597c-.19080321 3.93913267 2.8625094 7.30329407 6.80164207 7.49409727l29.9648685 1.4514345c3.93913267.19080321 7.30329406-2.8625094 7.49409727-6.80164206l3.4834428-71.9156844C71.05249661 6.1561386 67.999184 2.7919772 64.06005133 2.601174l-29.9648685-1.4514345c-3.93913267-.19080321-7.30329407 2.8625094-7.49409727 6.80164207l-3.4834428 71.9156844z" opacity=".12000002"/>
    <path id="S" fill="#91a977" d="M74 11c.552285 0 1 .447715 1 1s-.447715 1-1 1-1-.447715-1-1 .447715-1 1-1zm2.5 2c.828427 0 1.5.671573 1.5 1.5s-.671573 1.5-1.5 1.5c-.182944 0-.369148-.03379-.53125-.09375.003547.034257.03125.058555.03125.09375 0 .552285-.447715 1-1 1s-1-.447715-1-1 .447715-1 1-1c.0352 0 .05949.0277.09375.03125C75.033792 14.869148 75 14.682944 75 14.5c0-.828427.671573-1.5 1.5-1.5zm-.5 7c.552285 0 1 .447715 1 1s-.447715 1-1 1-1-.447715-1-1 .447715-1 1-1zm6.5 3c1.380712 0 2.5 1.119288 2.5 2.5S83.880712 28 82.5 28 80 26.880712 80 25.5c0-.172589.0292-.337256.0625-.5-.02132.0014-.04084 0-.0625 0-.552285 0-1-.447715-1-1s.447715-1 1-1c.399263 0 .714687.255422.875.59375C81.310956 23.223578 81.883282 23 82.5 23zm-6 0c.828427 0 1.5.671573 1.5 1.5s-.671573 1.5-1.5 1.5c-.182944 0-.369148-.03379-.53125-.09375.003547.034257.03125.058555.03125.09375 0 .552285-.447715 1-1 1s-1-.447715-1-1 .447715-1 1-1c.0352 0 .05949.0277.09375.03125C75.033792 24.869148 75 24.682944 75 24.5c0-.828427.671573-1.5 1.5-1.5zm3 4c.828427 0 1.5.671573 1.5 1.5s-.671573 1.5-1.5 1.5-1.5-.671573-1.5-1.5.671573-1.5 1.5-1.5zm3.5 3c.552285 0 1 .447715 1 1s-.447715 1-1 1-1-.447715-1-1 .447715-1 1-1zM22 11c-.552285 0-1 .447715-1 1s.447715 1 1 1 1-.447715 1-1-.447715-1-1-1zm-2.5 2c-.828427 0-1.5.671573-1.5 1.5s.671573 1.5 1.5 1.5c.182944 0 .369148-.03379.53125-.09375C20.027703 15.940507 20 15.964805 20 16c0 .552285.447715 1 1 1s1-.447715 1-1-.447715-1-1-1c-.0352 0-.05949.0277-.09375.03125C20.966208 14.869148 21 14.682944 21 14.5c0-.828427-.671573-1.5-1.5-1.5zm.5 7c-.552285 0-1 .447715-1 1s.447715 1 1 1 1-.447715 1-1-.447715-1-1-1zm-6.5 3c-1.380712 0-2.5 1.119288-2.5 2.5s1.119288 2.5 2.5 2.5 2.5-1.119288 2.5-2.5c0-.172589-.0292-.337256-.0625-.5.02132.0014.04084 0 .0625 0 .552285 0 1-.447715 1-1s-.447715-1-1-1c-.399263 0-.714687.255422-.875.59375C14.689044 23.223578 14.116718 23 13.5 23zm6 0c-.828427 0-1.5.671573-1.5 1.5s.671573 1.5 1.5 1.5c.182944 0 .369148-.03379.53125-.09375C20.027703 25.940507 20 25.964805 20 26c0 .552285.447715 1 1 1s1-.447715 1-1-.447715-1-1-1c-.0352 0-.05949.0277-.09375.03125C20.966208 24.869148 21 24.682944 21 24.5c0-.828427-.671573-1.5-1.5-1.5zm-3 4c-.828427 0-1.5.671573-1.5 1.5s.671573 1.5 1.5 1.5 1.5-.671573 1.5-1.5-.671573-1.5-1.5-1.5zM13 30c-.552285 0-1 .447715-1 1s.447715 1 1 1 1-.447715 1-1-.447715-1-1-1z" color="#000" enable-background="accumulate" opacity=".5" overflow="visible" style="marker:none"/>
    <path id="T" fill="#50643d" d="M11.90625 8C9.6970701 8 8 9.722569 8 11.9375v30.125C8 44.277431 9.6970701 46 11.90625 46h72.1875C86.30293 46 88 44.277431 88 42.0625v-30.125C88 9.722569 86.30293 8 84.09375 8h-72.1875zm3.625 2h64.9375C82.457012 10 84 11.51822 84 13.5v27c0 1.98178-1.542988 3.5-3.53125 3.5h-64.9375C13.542988 44 12 42.48178 12 40.5v-27c0-1.98178 1.542988-3.5 3.53125-3.5z"/>
    <path id="U" fill="#78955e" d="M14 8c-.600847 0-1.133385.2680514-1.5.6875-.274961-.3145865-.642056-.5299489-1.0625-.625-.0098-.00222-.02138.00207-.03125 0-1.062541.1291123-1.9506487.6472561-2.5625 1.4375C8.9333695 9.649872 9 9.8126805 9 10h1c0-.5522847.447715-1 1-1s1 .4477153 1 1h1c0-.5522847.447715-1 1-1s1 .4477153 1 1h1c0-.5522847.447715-1 1-1s1 .4477153 1 1h1c0-.5522847.447715-1 1-1s1 .4477153 1 1h1c0-.5522847.447715-1 1-1s1 .4477153 1 1h1c0-.5522847.447715-1 1-1s1 .4477153 1 1h1c0-.5522847.447715-1 1-1s1 .4477153 1 1h1c0-.5522847.447715-1 1-1s1 .4477153 1 1h1c0-.5522847.447715-1 1-1s1 .4477153 1 1h1c0-.5522847.447715-1 1-1s1 .4477153 1 1h1c0-.5522847.447715-1 1-1s1 .4477153 1 1h1c0-.5522847.447715-1 1-1s1 .4477153 1 1h1c0-.5522847.447715-1 1-1s1 .4477153 1 1h1c0-.5522847.447715-1 1-1s1 .4477153 1 1h1c0-.5522847.447715-1 1-1s1 .4477153 1 1h1c0-.5522847.447715-1 1-1s1 .4477153 1 1h1c0-.5522847.447715-1 1-1s1 .4477153 1 1h1c0-.5522847.447715-1 1-1s1 .4477153 1 1h1c0-.5522847.447715-1 1-1s1 .4477153 1 1h1c0-.5522847.447715-1 1-1s1 .4477153 1 1h1c0-.5522847.447715-1 1-1s1 .4477153 1 1h1c0-.5522847.447715-1 1-1s1 .4477153 1 1h1c0-.1380712.043147-.2553617.09375-.375C76.245558 9.266085 76.585786 9 77 9c.552285 0 1 .4477153 1 1h1c0-.5522847.447715-1 1-1s1 .4477153 1 1h1c0-.5522847.447715-1 1-1s1 .4477153 1 1h1c0-.5522847.447715-1 1-1s1 .4477153 1 1h.5c-.488151-.8950726-1.305278-1.5281368-2.3125-1.8125-.0099-.0028-.02129.00273-.03125 0-.254067.1194439-.472943.2902757-.65625.5C84.133385 8.2680514 83.600847 8 83 8s-1.133385.2680514-1.5.6875C81.133385 8.2680514 80.600847 8 80 8s-1.133385.2680514-1.5.6875c-.019754-.022601-.041762-.0408133-.0625-.0625-.0758-.079644-.162407-.1522947-.25-.21875-.02413-.017934-.03755-.045645-.0625-.0625-.07816-.054079-.164388-.082368-.25-.125-.012573-.0061694-.01853-.0253385-.03125-.03125-.127034-.059722-.266102-.0933163-.40625-.125C77.295314 8.0304256 77.151878 8 77 8c-.300766 0-.587851.0685747-.84375.1875-.013451.0063235-.017965.0246348-.03125.03125-.212568.1043017-.4006.2369413-.5625.40625-.020142.0211643-.043258.0404847-.0625.0625C75.133385 8.2680514 74.600847 8 74 8s-1.133385.2680514-1.5.6875C72.133385 8.2680514 71.600847 8 71 8s-1.133385.2680514-1.5.6875C69.133385 8.2680514 68.600847 8 68 8s-1.133385.2680514-1.5.6875C66.133385 8.2680514 65.600847 8 65 8s-1.133385.2680514-1.5.6875C63.133385 8.2680514 62.600847 8 62 8s-1.133385.2680514-1.5.6875C60.133385 8.2680514 59.600847 8 59 8s-1.133385.2680514-1.5.6875C57.133385 8.2680514 56.600847 8 56 8s-1.133385.2680514-1.5.6875C54.133385 8.2680514 53.600847 8 53 8s-1.133385.2680514-1.5.6875C51.133385 8.2680514 50.600847 8 50 8s-1.133385.2680514-1.5.6875C48.133385 8.2680514 47.600847 8 47 8s-1.133385.2680514-1.5.6875C45.133385 8.2680514 44.600847 8 44 8s-1.133385.2680514-1.5.6875C42.133385 8.2680514 41.600847 8 41 8s-1.133385.2680514-1.5.6875C39.133385 8.2680514 38.600847 8 38 8s-1.133385.2680514-1.5.6875C36.133385 8.2680514 35.600847 8 35 8s-1.133385.2680514-1.5.6875C33.133385 8.2680514 32.600847 8 32 8s-1.133385.2680514-1.5.6875C30.133385 8.2680514 29.600847 8 29 8s-1.133385.2680514-1.5.6875C27.133385 8.2680514 26.600847 8 26 8s-1.133385.2680514-1.5.6875C24.133385 8.2680514 23.600847 8 23 8s-1.133385.2680514-1.5.6875C21.133385 8.2680514 20.600847 8 20 8s-1.133385.2680514-1.5.6875C18.133385 8.2680514 17.600847 8 17 8s-1.133385.2680514-1.5.6875C15.133385 8.2680514 14.600847 8 14 8zm0 38c-.600847 0-1.133385-.268051-1.5-.6875-.274961.314586-.642056.529949-1.0625.625-.0098.0022-.02138-.0021-.03125 0-1.062541-.129112-1.9506487-.647256-2.5625-1.4375C8.9333695 44.350128 9 44.187319 9 44h1c0 .552285.447715 1 1 1s1-.447715 1-1h1c0 .552285.447715 1 1 1s1-.447715 1-1h1c0 .552285.447715 1 1 1s1-.447715 1-1h1c0 .552285.447715 1 1 1s1-.447715 1-1h1c0 .552285.447715 1 1 1s1-.447715 1-1h1c0 .552285.447715 1 1 1s1-.447715 1-1h1c0 .552285.447715 1 1 1s1-.447715 1-1h1c0 .552285.447715 1 1 1s1-.447715 1-1h1c0 .552285.447715 1 1 1s1-.447715 1-1h1c0 .552285.447715 1 1 1s1-.447715 1-1h1c0 .552285.447715 1 1 1s1-.447715 1-1h1c0 .552285.447715 1 1 1s1-.447715 1-1h1c0 .552285.447715 1 1 1s1-.447715 1-1h1c0 .552285.447715 1 1 1s1-.447715 1-1h1c0 .552285.447715 1 1 1s1-.447715 1-1h1c0 .552285.447715 1 1 1s1-.447715 1-1h1c0 .552285.447715 1 1 1s1-.447715 1-1h1c0 .552285.447715 1 1 1s1-.447715 1-1h1c0 .552285.447715 1 1 1s1-.447715 1-1h1c0 .552285.447715 1 1 1s1-.447715 1-1h1c0 .552285.447715 1 1 1s1-.447715 1-1h1c0 .552285.447715 1 1 1s1-.447715 1-1h1c0 .138071.04315.255362.09375.375.151808.358915.492036.625.90625.625.552285 0 1-.447715 1-1h1c0 .552285.447715 1 1 1s1-.447715 1-1h1c0 .552285.447715 1 1 1s1-.447715 1-1h1c0 .552285.447715 1 1 1s1-.447715 1-1h.5c-.488151.895073-1.305278 1.528137-2.3125 1.8125-.0099.0028-.02129-.0027-.03125 0-.254067-.119444-.472943-.290276-.65625-.5-.366615.419449-.899153.6875-1.5.6875s-1.133385-.268051-1.5-.6875c-.366615.419449-.899153.6875-1.5.6875s-1.133385-.268051-1.5-.6875c-.01975.0226-.04176.04081-.0625.0625-.0758.07964-.162407.152295-.25.21875-.02413.01793-.03755.04565-.0625.0625-.07816.05408-.164388.08237-.25.125-.01257.0062-.01853.02534-.03125.03125-.127034.05972-.266102.09332-.40625.125-.142186.032074-.285622.0625-.4375.0625-.300766 0-.587851-.06857-.84375-.1875-.01345-.0063-.01797-.02463-.03125-.03125-.212568-.104302-.4006-.236941-.5625-.40625-.020142-.021164-.043258-.040485-.0625-.0625-.366615.419449-.899153.6875-1.5.6875s-1.133385-.268051-1.5-.6875c-.366615.419449-.899153.6875-1.5.6875s-1.133385-.268051-1.5-.6875c-.366615.419449-.899153.6875-1.5.6875s-1.133385-.268051-1.5-.6875c-.366615.419449-.899153.6875-1.5.6875s-1.133385-.268051-1.5-.6875c-.366615.419449-.899153.6875-1.5.6875s-1.133385-.268051-1.5-.6875c-.366615.419449-.899153.6875-1.5.6875s-1.133385-.268051-1.5-.6875c-.366615.419449-.899153.6875-1.5.6875s-1.133385-.268051-1.5-.6875c-.366615.419449-.899153.6875-1.5.6875s-1.133385-.268051-1.5-.6875c-.366615.419449-.899153.6875-1.5.6875s-1.133385-.268051-1.5-.6875c-.366615.419449-.899153.6875-1.5.6875s-1.133385-.268051-1.5-.6875c-.366615.419449-.899153.6875-1.5.6875s-1.133385-.268051-1.5-.6875c-.366615.419449-.899153.6875-1.5.6875s-1.133385-.268051-1.5-.6875c-.366615.419449-.899153.6875-1.5.6875s-1.133385-.268051-1.5-.6875c-.366615.419449-.899153.6875-1.5.6875s-1.133385-.268051-1.5-.6875c-.366615.419449-.899153.6875-1.5.6875s-1.133385-.268051-1.5-.6875c-.366615.419449-.899153.6875-1.5.6875s-1.133385-.268051-1.5-.6875c-.366615.419449-.899153.6875-1.5.6875s-1.133385-.268051-1.5-.6875c-.366615.419449-.899153.6875-1.5.6875s-1.133385-.268051-1.5-.6875c-.366615.419449-.899153.6875-1.5.6875s-1.133385-.268051-1.5-.6875c-.366615.419449-.899153.6875-1.5.6875s-1.133385-.268051-1.5-.6875c-.366615.419449-.899153.6875-1.5.6875z" color="#000" enable-background="accumulate" overflow="visible" style="marker:none"/>
    <path id="V" fill="#78955e" d="M86 8.5v.6875c.552285 0 1 .447715 1 1s-.447715 1-1 1v1c.552285 0 1 .447715 1 1s-.447715 1-1 1v1c.552285 0 1 .447715 1 1s-.447715 1-1 1v1c.552285 0 1 .447715 1 1s-.447715 1-1 1v1c.552285 0 1 .447715 1 1s-.447715 1-1 1v1c.552285 0 1 .447715 1 1s-.447715 1-1 1v1c.552285 0 1 .447715 1 1s-.447715 1-1 1v1c.552285 0 1 .447715 1 1s-.447715 1-1 1v1c.552285 0 1 .447715 1 1s-.447715 1-1 1v1c.552285 0 1 .447715 1 1s-.447715 1-1 1v1c.552285 0 1 .447715 1 1s-.447715 1-1 1v1c.552285 0 1 .447715 1 1s-.447715 1-1 1v1c.152691 0 .276797.03256.40625.09375.77971-.561047 1.336134-1.409581 1.53125-2.40625.0058-.02972-.0052-.06377 0-.09375-.0021-.0099.0022-.02144 0-.03125-.09505-.420444-.310413-.787539-.625-1.0625.419449-.366615.6875-.899153.6875-1.5s-.268051-1.133385-.6875-1.5c.419449-.366615.6875-.899153.6875-1.5s-.268051-1.133385-.6875-1.5c.419449-.366615.6875-.899153.6875-1.5s-.268051-1.133385-.6875-1.5c.419449-.366615.6875-.899153.6875-1.5s-.268051-1.133385-.6875-1.5c.419449-.366615.6875-.899153.6875-1.5s-.268051-1.133385-.6875-1.5c.419449-.366615.6875-.899153.6875-1.5s-.268051-1.133385-.6875-1.5c.419449-.366615.6875-.899153.6875-1.5s-.268051-1.133385-.6875-1.5c.419449-.366615.6875-.899153.6875-1.5s-.268051-1.133385-.6875-1.5c.419449-.366615.6875-.899153.6875-1.5s-.268051-1.133385-.6875-1.5c.419449-.366615.6875-.899153.6875-1.5s-.268051-1.133385-.6875-1.5c.241467-.211051.412386-.510097.53125-.8125C87.568764 9.8375503 86.907462 9.0000329 86 8.5zm-76 0v.6875c-.552285 0-1 .447715-1 1s.447715 1 1 1v1c-.552285 0-1 .447715-1 1s.447715 1 1 1v1c-.552285 0-1 .447715-1 1s.447715 1 1 1v1c-.552285 0-1 .447715-1 1s.447715 1 1 1v1c-.552285 0-1 .447715-1 1s.447715 1 1 1v1c-.552285 0-1 .447715-1 1s.447715 1 1 1v1c-.552285 0-1 .447715-1 1s.447715 1 1 1v1c-.552285 0-1 .447715-1 1s.447715 1 1 1v1c-.552285 0-1 .447715-1 1s.447715 1 1 1v1c-.552285 0-1 .447715-1 1s.447715 1 1 1v1c-.552285 0-1 .447715-1 1s.447715 1 1 1v1c-.552285 0-1 .447715-1 1s.447715 1 1 1v1c-.152691 0-.276797.03256-.40625.09375-.77971-.561047-1.336134-1.409581-1.53125-2.40625-.0058-.02972.0052-.06377 0-.09375.0021-.0099-.0022-.02144 0-.03125.09505-.420444.310413-.787539.625-1.0625-.419449-.366615-.6875-.899153-.6875-1.5s.268051-1.133385.6875-1.5c-.419449-.366615-.6875-.899153-.6875-1.5s.268051-1.133385.6875-1.5c-.419449-.366615-.6875-.899153-.6875-1.5s.268051-1.133385.6875-1.5c-.419449-.366615-.6875-.899153-.6875-1.5s.268051-1.133385.6875-1.5c-.419449-.366615-.6875-.899153-.6875-1.5s.268051-1.133385.6875-1.5c-.419449-.366615-.6875-.899153-.6875-1.5s.268051-1.133385.6875-1.5c-.419449-.366615-.6875-.899153-.6875-1.5s.268051-1.133385.6875-1.5c-.419449-.366615-.6875-.899153-.6875-1.5s.268051-1.133385.6875-1.5c-.419449-.366615-.6875-.899153-.6875-1.5s.268051-1.133385.6875-1.5c-.419449-.366615-.6875-.899153-.6875-1.5s.268051-1.133385.6875-1.5c-.241467-.211051-.412386-.510097-.53125-.8125C8.431236 9.8375503 9.092538 9.0000329 10 8.5z" color="#000" enable-background="accumulate" overflow="visible" style="marker:none"/>
    <path id="X" fill="#efedc7" d="m15.93675 17.540833 1.61276 2.008677-2.008677-1.61276.392352 2.545945L15 18.081665l-.933185 2.40103.392352-2.545945-2.008677 1.61276 1.61276-2.008677-2.545945.392352L13.918335 17l-2.40103-.933185 2.545945.392352-1.61276-2.008677 2.008677 1.61276-.392352-2.545945L15 15.918335l.933185-2.40103-.392352 2.545945 2.008677-1.61276-1.61276 2.008677 2.545945-.392352L16.081665 17l2.40103.933185z" color="#000" enable-background="accumulate" opacity=".4" overflow="visible" style="marker:none"/>
    <path id="Y" d="M14.75 12.96875a.56885745.56885745 0 0 0-.09375.0625l-2.21875 1.125a.56885745.56885745 0 0 0-.3125.5V15.25a.56885745.56885745 0 0 0 .75.53125c.173765-.0619.281213-.08283.40625-.125v4.65625c-.000001.10895.01432.07692.03125.0625.0091-.0061-.0068.02134-.09375.03125-.113646.01296-.289058.02223-.5.03125A.56885745.56885745 0 0 0 12.1875 21v.5625a.56885745.56885745 0 0 0 .5625.5625h4.5a.56885745.56885745 0 0 0 .5625-.5625v-.59375a.56885745.56885745 0 0 0-.5625-.5625c-.34702 0-.462959-.03656-.5-.03125v-6.8125A.56885745.56885745 0 0 0 16.1875 13l-1.28125-.03125a.56885745.56885745 0 0 0-.15625 0z" font-family="Kedage" font-size="12" font-weight="bold" letter-spacing="0" opacity=".15" style="text-align:start;line-height:125%;-inkscape-font-specification:Kedage Bold" word-spacing="0"/>
    <path id="Z" d="M17.245308 21.568421H12.76243v-.578134c.437808-.01871.707229-.05051.808265-.09542.172128-.08232.258194-.271293.258196-.566908v-5.096563c-.000002-.123478-.0019-.190834-.0057-.202065-.01871-.07109-.07485-.106641-.16839-.106647-.04491.000006-.366714.106652-.965427.319939v-.572521l2.222729-1.128204 1.266657.01152v6.982223c-.000004.194583.07109.318068.213292.370455.123481.04865.40787.07297.853169.07297v.58936" font-family="Kedage" font-size="12" font-weight="bold" letter-spacing="0" opacity=".3" style="text-align:start;line-height:125%;-inkscape-font-specification:Kedage Bold" word-spacing="0"/>
    <path id="aa" fill="#f1eeca" d="M17.245308 21.004608H12.76243v-.578134c.437808-.01871.707229-.05051.808265-.09542.172128-.08232.258194-.271293.258196-.566908v-5.096563c-.000002-.123478-.0019-.190834-.0057-.202065-.01871-.07109-.07485-.106641-.16839-.106647-.04491.000006-.366714.106652-.965427.319939v-.572521l2.222729-1.128204 1.266657.01152v6.982223c-.000004.194583.07109.318068.213292.370455.123481.04865.40787.07297.853169.07297v.58936" font-family="Kedage" font-size="12" font-weight="bold" letter-spacing="0" style="text-align:start;line-height:125%;-inkscape-font-specification:Kedage Bold" word-spacing="0"/>
    <path id="ac" d="M14.862581 41.450064h-2.705293v-.348888c.264205-.01129.426793-.03048.487766-.05758.103874-.04968.155813-.163718.155814-.342113v-3.075635c-.000001-.07451-.0011-.115163-.0034-.12194-.01129-.0429-.04517-.06435-.101619-.06436-.0271.000004-.221301.06436-.582608.193074v-.3455l1.341355-.68084.764393.007v4.213578c-.000003.117425.0429.191945.128715.223559.07452.02936.246139.04404.514864.04404v.355662" font-family="Kedage" font-size="12" font-weight="bold" letter-spacing="0" opacity=".3" style="text-align:start;line-height:125%;-inkscape-font-specification:Kedage Bold" word-spacing="0"/>
    <path id="ad" fill="#f1eeca" d="M14.862581 41.109819h-2.705293v-.348888c.264205-.01129.426793-.03048.487766-.05758.103874-.04968.155813-.163717.155814-.342113v-3.075634c-.000001-.07452-.0011-.115163-.0034-.121941-.01129-.0429-.04517-.06435-.101619-.06436-.0271.000003-.221301.06436-.582608.193074v-.345501l1.341355-.680839.764393.007v4.213577c-.000003.117426.0429.191946.128715.22356.07452.02936.246139.04404.514864.04404v.355663" font-family="Kedage" font-size="12" font-weight="bold" letter-spacing="0" style="text-align:start;line-height:125%;-inkscape-font-specification:Kedage Bold" word-spacing="0"/>
    <path id="ag" fill="#91a977" d="M35 33c-.552285 0-1 .447715-1 1s.447715 1 1 1 1-.447715 1-1-.447715-1-1-1zm1.5 2c-.828427 0-1.5.671573-1.5 1.5s.671573 1.5 1.5 1.5 1.5-.671573 1.5-1.5-.671573-1.5-1.5-1.5zM33 36c-.552285 0-1 .447715-1 1s.447715 1 1 1 1-.447715 1-1-.447715-1-1-1zm7 1c-1.509109 0-2.818827.828628-3.5 2.0625-.159759-.041104-.327411-.0625-.5-.0625-1.104569 0-2 .895431-2 2 0 1.104569.895431 2 2 2 .172589 0 .340241-.0214.5-.0625C37.181173 44.171372 38.490891 45 40 45c2.209139 0 4-1.790861 4-4s-1.790861-4-4-4z" color="#000" enable-background="accumulate" opacity=".5" overflow="visible" style="marker:none"/>
    <path id="ah" fill="#87a26b" d="M40 16v2c1.108 0 2 .892 2 2v18c0 1.108-.892 2-2 2h16c-1.108 0-2-.892-2-2V20c0-1.108.892-2 2-2v-2H40z" color="#000" enable-background="accumulate" opacity=".4" overflow="visible" style="marker:none"/>
    <path id="ai" fill="#91a977" d="M61 33c.552285 0 1 .447715 1 1s-.447715 1-1 1-1-.447715-1-1 .447715-1 1-1zm-1.5 2c.828427 0 1.5.671573 1.5 1.5s-.671573 1.5-1.5 1.5-1.5-.671573-1.5-1.5.671573-1.5 1.5-1.5zm3.5 1c.552285 0 1 .447715 1 1s-.447715 1-1 1-1-.447715-1-1 .447715-1 1-1zm-7 1c1.509109 0 2.818827.828628 3.5 2.0625.159759-.041104.327411-.0625.5-.0625 1.104569 0 2 .895431 2 2 0 1.104569-.895431 2-2 2-.172589 0-.340241-.0214-.5-.0625C58.818827 44.171372 57.509109 45 56 45c-2.209139 0-4-1.790861-4-4s1.790861-4 4-4z" color="#000" enable-background="accumulate" opacity=".5" overflow="visible" style="marker:none"/>
    <path id="al" d="M28.480926 12.059841v.215425h.05984c.207447 0 .291224.01596.327128.05585.02793.0359.02793.04787.02793.303192v1.731383c0 .251329 0 .267287-.02793.299202-.0359.04388-.119681.05984-.327128.05984h-.05984v.215426h1.615692c.414893 0 .62633-.03191.829787-.119681.255319-.115691.422872-.367022.422872-.634309 0-.279255-.159575-.506649-.454787-.638297-.135638-.06383-.255319-.09574-.462766-.123671.195479-.03191.307181-.05984.418883-.111702.239361-.115691.367021-.307181.367021-.546542 0-.227394-.119681-.43883-.315159-.546543-.219415-.127659-.406916-.159574-.881649-.159574h-1.539894m1.132979 1.292553v-.845745c0-.115691.008-.147606.04787-.179521.03989-.0359.09973-.05186.175532-.05186h.119681c.351063 0 .538564.175532.538564.506649 0 .195479-.06782.351064-.195479.450798-.107713.08777-.243351.119681-.490691.119681h-.195479m0 .219415h.275266c.251329 0 .367021.02394.478723.09574.135638.09176.219415.267288.219415.474734 0 .19149-.07181.367022-.1875.462766-.09973.08378-.231383.119681-.422872.119681h-.119681c-.139628 0-.207447-.02394-.231383-.07979-.01197-.03191-.01197-.04388-.01197-.175532v-.897606M32.914478 12l-.905585 2.114362c-.18351.430851-.331117.586436-.566489.610372v.215426h1.152925v-.215426c-.287233-.01596-.398936-.09175-.398936-.275266 0-.06782.01197-.111702.06383-.227393l.06383-.151596h.993351l.151596.390957c.03191.07181.04787.131649.04787.163564 0 .07181-.05186.09575-.231383.09575l-.06782.004v.215426h1.400266v-.215426c-.227394-.008-.291224-.04787-.375-.25133L33.21767 12h-.303192m-.08378.849734.386968.953458h-.789894l.402926-.953458"/>
    <path id="am" d="M35.62232 12.059841h-1.005319v.219415c.179521.004.323138.07979.422872.223404v1.571808c0 .351064-.01995.450798-.103723.538564-.06383.06782-.155586.09973-.327128.107713v.215425h1.136968v-.215425c-.171542-.008-.271277-.03989-.335106-.107713-.08378-.08777-.103724-.1875-.103724-.538564v-1.3125l1.855054 2.206117h.267287v-2.042553c0-.355053.01995-.454787.103723-.542553.06383-.06782.175532-.103724.335107-.107713v-.215425h-1.136969v.215425c.155585.004.263298.03989.327128.107713.08378.08777.103724.19149.103724.542553v.9375l-1.539894-1.803191m3.777863 1.531915.55851.913563c.03192.05585.04787.09176.04787.12766 0 .06383-.08777.09175-.271277.09175h-.05186v.215426h1.452128v-.215426c-.219415-.01197-.235372-.01995-.418883-.307181l-.829787-1.324468.331117-.347074c.347074-.339096.546543-.454787.80984-.470745v-.215425h-1.344415v.215425h.09575c.195479 0 .299202.04787.299202.139628 0 .04388-.05984.139628-.131649.219415l-.881649.93351v-.93351c0-.25133 0-.267288.02793-.299202.0359-.04388.12367-.05984.331117-.05984h.05984v-.215425h-1.551861v.215425h.05984c.207447 0 .291224.01596.327128.05984.02793.03191.02793.04787.02793.299202v1.731383c0 .251329 0 .267287-.02793.299202-.0359.04388-.119681.05984-.327128.05984h-.05984v.215426h1.551861v-.215426h-.05984c-.207447 0-.295213-.01596-.331117-.05984-.02793-.03191-.02793-.04787-.02793-.299202v-.422873l.335107-.351063M43.930352 12c-.386967 0-.714096.111703-.973404.339096-.335106.287234-.534574.738032-.534574 1.204787 0 .845744.622341 1.456117 1.488032 1.456117.406914 0 .722074-.09973.989361-.31117.343085-.275266.534575-.682181.534575-1.148936 0-.462766-.203458-.917554-.534575-1.200798C44.63248 12.107713 44.321309 12 43.930352 12m.004.207447c.215425 0 .382979.103724.49867.307181.131649.239361.203457.598405.203457 1.029255 0 .80984-.247341 1.24867-.702127 1.24867-.231383 0-.398937-.09973-.510639-.30718-.131648-.247341-.203457-.598405-.203457-1.017288 0-.43085.06782-.75.203457-.977393.115692-.195479.275267-.283245.510639-.283245m4.388226-.147606h-2.640957v.215425h.05984c.207447 0 .291224.01596.327128.05984.02792.03191.02792.04787.02792.299202v1.731383c0 .251329 0 .267287-.02792.299202-.0359.04388-.119681.05984-.327128.05984h-.05984v.215426h1.595745v-.215426h-.103724c-.211436 0-.295213-.01596-.331117-.05984-.02793-.03191-.02793-.04787-.02793-.299202v-.805851h.06782c.315159 0 .506649.199468.550532.566489h.215425v-1.352394h-.215425c-.04388.371011-.235373.56649-.550532.56649h-.06782v-.722075c0-.163563.008-.207447.03989-.255319.04388-.05984.139628-.08777.303192-.08777h.0758c.295212 0 .538564.107713.674202.295213.08378.115691.171542.31516.231383.526596h.207447l-.02394-1.037234m4.02833.000005h-2.640958v.215425h.05984c.207446 0 .291223.01596.327127.05984.02793.03191.02793.04787.02793.299202v1.731383c0 .251329 0 .267287-.02793.299202-.0359.04388-.119681.05984-.327127.05984h-.05984v.215426h1.595745v-.215426h-.103724c-.211435 0-.295212-.01596-.331117-.05984-.02793-.03191-.02793-.04787-.02793-.299202v-.805851h.06782c.315159 0 .506649.199468.550532.566489h.215426v-1.352394h-.215426c-.04388.371011-.235373.56649-.550532.56649h-.06782v-.722075c0-.163563.008-.207447.03989-.255319.04388-.05984.139627-.08777.303191-.08777h.0758c.295212 0 .538564.107713.674202.295213.08378.115691.171543.31516.231383.526596h.207447l-.02394-1.037234M53.905378 12l-.905585 2.114362c-.183511.430851-.331118.586436-.56649.610372v.215426h1.152926v-.215426c-.287234-.01596-.398936-.09175-.398936-.275266 0-.06782.01197-.111702.06383-.227393l.06383-.151596h.993351l.151596.390957c.03191.07181.04787.131649.04787.163564 0 .07181-.05186.09575-.231383.09575l-.06782.004v.215426h1.400266v-.215426c-.227393-.008-.291223-.04787-.375-.25133L54.208569 12h-.303191m-.08378.849734.386968.953458h-.789893l.402925-.953458"/>
    <path id="an" d="M58.276784 12.059841h-2.676861v.215425h.05984c.207447 0 .291223.01596.327128.05984.02793.03191.02793.04787.02793.299202v1.731383c0 .251329 0 .267287-.02793.299202-.0359.04388-.119681.05984-.327128.05984h-.05984v.215426h2.708776l.04787-1.073139h-.211437c-.167553.598404-.450798.857713-.93351.857713h-.119681c-.195479 0-.247341-.008-.295213-.05585-.05186-.04787-.06383-.09175-.06383-.223404v-.885638h.06782c.31117 0 .506649.199468.550532.566489h.215426v-1.352394h-.215426c-.04388.367021-.239362.56649-.550532.56649h-.06782v-.722075c0-.163563.008-.207447.03989-.255319.04388-.05984.139628-.08777.303191-.08777h.111703c.295212 0 .538564.107713.674202.295213.08378.119681.171542.319149.231383.526596h.207446l-.02394-1.037234m1.367427.000004h-1.00532v.219415c.179522.004.323139.07979.422873.223404v1.571808c0 .351064-.01995.450798-.103724.538564-.06383.06782-.155585.09973-.327127.107713v.215425h1.136968v-.215425c-.171543-.008-.271277-.03989-.335107-.107713-.08378-.08777-.103723-.1875-.103723-.538564v-1.3125l1.855053 2.206117h.267287v-2.042553c0-.355053.01995-.454787.103724-.542553.06383-.06782.175532-.103724.335106-.107713v-.215425h-1.136968v.215425c.155585.004.263298.03989.327128.107713.08378.08777.103723.19149.103723.542553v.9375L59.6442 12.059841m4.779192 0h-2.285905l-.04787 1.005319h.203458c.06782-.215426.127659-.343085.215425-.462766.175532-.24734.363032-.323138.785904-.323138h.295213l-1.599734 2.429521v.231383h2.369681l.06383-1.101064h-.211436c-.07181.382978-.259309.674202-.514628.801862-.12367.06383-.235373.07979-.518617.07979h-.355053l1.599734-2.4375v-.223404M65.959171 12l-.905585 2.114362c-.183511.430851-.331118.586436-.56649.610372v.215426h1.152926v-.215426c-.287234-.01596-.398936-.09175-.398936-.275266 0-.06782.01197-.111702.06383-.227393l.06383-.151596h.993351l.151596.390957c.03191.07181.04787.131649.04787.163564 0 .07181-.05186.09575-.231383.09575l-.06782.004v.215426h1.400266v-.215426c-.227393-.008-.291223-.04787-.375-.25133L66.262362 12h-.303191m-.08378.849734.386968.953458h-.789894l.402926-.953458"/>
    <path id="ao" fill="#536741" d="M37 41.78125c-.352113 0-.659742.09633-.90625.3125-.322895.276766-.5.724908-.5 1.15625 0 .782913.615139 1.34375 1.40625 1.34375.361767 0 .655426-.08284.90625-.28125.321121-.257644.53125-.65582.53125-1.09375 0-.437722-.219971-.858725-.53125-1.125-.251051-.217328-.552178-.3125-.90625-.3125zm11.8125 0c-.352113 0-.659742.09633-.90625.3125-.290295.248824-.438181.64317-.46875 1.03125-.01564-.453703-.186117-.838531-.53125-1.0625-.230804-.15387-.519134-.21875-1-.21875h-1.1875a.1562681.1562681 0 0 0-.03125 0 .1562681.1562681 0 0 0-.0625.03125.1562681.1562681 0 0 0-.03125.03125.1562681.1562681 0 0 0-.03125.0625.1562681.1562681 0 0 0 0 .03125v.1875a.1562681.1562681 0 0 0 0 .03125.1562681.1562681 0 0 0 .03125.0625.1562681.1562681 0 0 0 .03125.03125.1562681.1562681 0 0 0 .0625.03125.1562681.1562681 0 0 0 .03125 0H44.75c.07337 0 .121295-.0011.15625 0 .0019.02417 0 .04281 0 .125v1.4375c0 .102736.002.14252 0 .15625.03193-.03903.000997 0-.15625 0h-.03125a.1562681.1562681 0 0 0-.03125 0 .1562681.1562681 0 0 0-.0625.03125.1562681.1562681 0 0 0-.03125.03125.1562681.1562681 0 0 0-.03125.0625.1562681.1562681 0 0 0 0 .03125v.1875a.1562681.1562681 0 0 0 0 .03125.1562681.1562681 0 0 0 .03125.0625.1562681.1562681 0 0 0 .03125.03125.1562681.1562681 0 0 0 .0625.03125.1562681.1562681 0 0 0 .03125 0h1.21875c.437733 0 .760441-.08385 1-.25.309534-.215631.440415-.574752.46875-1 .01498.361655.14309.68054.375.90625.24594.239365.604445.375 1 .375.361767 0 .681099-.07843.9375-.28125.325456-.261122.5-.664189.5-1.09375 0-.429281-.184292-.854937-.5-1.125-.251051-.217328-.552178-.3125-.90625-.3125zm7.28125 0a.1562681.1562681 0 0 0-.03125.03125.1562681.1562681 0 0 0-.03125.03125A.1562681.1562681 0 0 0 56 41.875l-.75 1.78125c-.073184.171823-.136106.289511-.1875.34375l.03125-.5a.1562681.1562681 0 0 0 0-.03125.1562681.1562681 0 0 0 0-.03125.1562681.1562681 0 0 0-.03125-.03125.1562681.1562681 0 0 0-.03125-.03125A.1562681.1562681 0 0 0 55 43.34375a.1562681.1562681 0 0 0-.03125 0 .1562681.1562681 0 0 0-.03125 0H54.75a.1562681.1562681 0 0 0-.03125 0 .1562681.1562681 0 0 0-.0625.03125.1562681.1562681 0 0 0-.03125.03125.1562681.1562681 0 0 0-.03125.0625c-.06358.219362-.113436.315728-.1875.40625-.107995.129068-.239903.1875-.4375.1875h-.0625c-.06737 0-.09796.000445-.125 0a.1562681.1562681 0 0 0-.03125 0c-.000675-.0019 0-.0168 0-.0625v-1.53125c0-.08219-.0019-.100825 0-.125.03466-.0011.08152 0 .15625 0h.0625a.1562681.1562681 0 0 0 .03125 0 .1562681.1562681 0 0 0 .0625-.03125.1562681.1562681 0 0 0 .03125-.03125.1562681.1562681 0 0 0 .03125-.0625.1562681.1562681 0 0 0 0-.03125V42a.1562681.1562681 0 0 0 0-.03125.1562681.1562681 0 0 0-.03125-.0625.1562681.1562681 0 0 0-.03125-.03125.1562681.1562681 0 0 0-.0625-.03125.1562681.1562681 0 0 0-.03125 0h-1.3125a.1562681.1562681 0 0 0-.03125 0 .1562681.1562681 0 0 0-.0625.03125.1562681.1562681 0 0 0-.03125.03125.1562681.1562681 0 0 0-.03125.0625.1562681.1562681 0 0 0 0 .03125v.1875a.1562681.1562681 0 0 0 0 .03125.1562681.1562681 0 0 0 .03125.0625.1562681.1562681 0 0 0 .03125.03125.1562681.1562681 0 0 0 .0625.03125.1562681.1562681 0 0 0 .03125 0h.0625c.05869 0 .09034-.000447.125 0-.0024.03587 0 .06185 0 .125v1.4375c0 .08006-.0029.11936 0 .15625.0024-.0087.000797 0-.125 0h-.0625l.03125-.5625a.1562681.1562681 0 0 0 0-.03125.1562681.1562681 0 0 0-.03125-.0625.1562681.1562681 0 0 0-.03125-.03125.1562681.1562681 0 0 0-.03125-.03125.1562681.1562681 0 0 0-.03125 0 .1562681.1562681 0 0 0-.03125 0h-.1875a.1562681.1562681 0 0 0-.03125 0 .1562681.1562681 0 0 0-.0625.03125.1562681.1562681 0 0 0-.03125.03125.1562681.1562681 0 0 0-.03125.0625c-.063583.219362-.113436.315728-.1875.40625-.107995.129068-.239903.1875-.4375.1875H51.5c-.06737 0-.09796.000445-.125 0 .000341-.01814 0-.02214 0-.0625v-1.53125c0-.06315.0024-.08913 0-.125.03463-.000444.06522 0 .125 0h.0625a.1562681.1562681 0 0 0 .03125 0 .1562681.1562681 0 0 0 .0625-.03125.1562681.1562681 0 0 0 .03125-.03125.1562681.1562681 0 0 0 .03125-.0625.1562681.1562681 0 0 0 0-.03125V42a.1562681.1562681 0 0 0 0-.03125.1562681.1562681 0 0 0-.03125-.0625.1562681.1562681 0 0 0-.03125-.03125.1562681.1562681 0 0 0-.0625-.03125.1562681.1562681 0 0 0-.03125 0H50.25a.1562681.1562681 0 0 0-.03125 0 .1562681.1562681 0 0 0-.0625.03125.1562681.1562681 0 0 0-.03125.03125.1562681.1562681 0 0 0-.03125.0625.1562681.1562681 0 0 0 0 .03125v.1875a.1562681.1562681 0 0 0 0 .03125.1562681.1562681 0 0 0 .03125.0625.1562681.1562681 0 0 0 .03125.03125.1562681.1562681 0 0 0 .0625.03125.1562681.1562681 0 0 0 .03125 0h.0625c.05869 0 .09034-.000447.125 0-.0024.03587 0 .06185 0 .125v1.4375c0 .08006-.0029.11936 0 .15625.0024-.0087.000797 0-.125 0H50.25a.1562681.1562681 0 0 0-.03125 0 .1562681.1562681 0 0 0-.0625.03125.1562681.1562681 0 0 0-.03125.03125.1562681.1562681 0 0 0-.03125.0625.1562681.1562681 0 0 0 0 .03125v.1875a.1562681.1562681 0 0 0 0 .03125.1562681.1562681 0 0 0 .03125.0625.1562681.1562681 0 0 0 .03125.03125.1562681.1562681 0 0 0 .0625.03125.1562681.1562681 0 0 0 .03125 0h2.25a.1562681.1562681 0 0 0 .03125 0 .1562681.1562681 0 0 0 .03125-.03125.1562681.1562681 0 0 0 .03125 0 .1562681.1562681 0 0 0 .03125.03125.1562681.1562681 0 0 0 .03125 0H54.875a.1562681.1562681 0 0 0 .03125 0 .1562681.1562681 0 0 0 .03125 0h.96875a.1562681.1562681 0 0 0 .03125 0A.1562681.1562681 0 0 0 56 44.53125a.1562681.1562681 0 0 0 .03125-.03125.1562681.1562681 0 0 0 .03125-.0625.1562681.1562681 0 0 0 0-.03125v-.1875a.1562681.1562681 0 0 0 0-.03125.1562681.1562681 0 0 0-.03125-.0625A.1562681.1562681 0 0 0 56 44.09375a.1562681.1562681 0 0 0-.0625-.03125.1562681.1562681 0 0 0-.03125 0c-.10956-.0061-.172888-.0224-.1875-.03125-.01461-.0088 0 .0097 0-.03125 0-.01049-.0062-.01455 0-.03125s.04019-.04399.0625-.09375H55.75v-.03125h.625l.09375.21875h-.0625a.1562681.1562681 0 0 0-.03125 0 .1562681.1562681 0 0 0-.0625.03125.1562681.1562681 0 0 0-.03125.03125.1562681.1562681 0 0 0-.03125.0625.1562681.1562681 0 0 0 0 .03125v.1875a.1562681.1562681 0 0 0 0 .03125.1562681.1562681 0 0 0 .03125.0625.1562681.1562681 0 0 0 .03125.03125.1562681.1562681 0 0 0 .0625.03125.1562681.1562681 0 0 0 .03125 0h2.53125a.1562681.1562681 0 0 0 .03125 0 .1562681.1562681 0 0 0 .0625-.03125.1562681.1562681 0 0 0 .03125-.03125.1562681.1562681 0 0 0 .03125-.0625.1562681.1562681 0 0 0 0-.03125v-.09375c.04087.06455.09436.113881.15625.15625.123776.08474.272052.125.4375.125.205467 0 .398752-.06466.53125-.1875.132498-.122837.1875-.293732.1875-.5v-.0625a.1562681.1562681 0 0 0 0-.03125.1562681.1562681 0 0 0-.03125-.0625.1562681.1562681 0 0 0-.03125-.03125.1562681.1562681 0 0 0-.0625-.03125.1562681.1562681 0 0 0-.03125 0h-.1875a.1562681.1562681 0 0 0-.03125 0 .1562681.1562681 0 0 0-.0625.03125.1562681.1562681 0 0 0-.03125.03125.1562681.1562681 0 0 0-.03125.03125V43.75a.1562681.1562681 0 0 0 0-.03125c-.02777-.166615-.09073-.319551-.1875-.4375-.0093-.01134-.02125-.02057-.03125-.03125a.1562681.1562681 0 0 0 0-.03125c.24832-.126195.40625-.356024.40625-.625 0-.256066-.140711-.460993-.34375-.59375-.174325-.1101-.42875-.15625-.75-.15625h-1.40625a.1562681.1562681 0 0 0-.03125 0 .1562681.1562681 0 0 0-.0625.03125.1562681.1562681 0 0 0-.03125.03125.1562681.1562681 0 0 0-.03125.0625.1562681.1562681 0 0 0 0 .03125v.1875a.1562681.1562681 0 0 0 0 .03125.1562681.1562681 0 0 0 .03125.0625.1562681.1562681 0 0 0 .03125.03125.1562681.1562681 0 0 0 .0625.03125.1562681.1562681 0 0 0 .03125 0h.0625c.06963 0 .09737-.0011.125 0 .0018.02325 0 .04146 0 .125v1.4375c0 .10443.0019.14409 0 .15625-.01349.0042-.04738 0-.125 0h-.0625c-.08358-.0029-.117403-.02582-.125-.03125-.0076-.0054.00009-.01764-.03125-.09375l-.875-2.0625a.1562681.1562681 0 0 0-.03125-.03125.1562681.1562681 0 0 0-.03125-.03125.1562681.1562681 0 0 0-.0625-.03125.1562681.1562681 0 0 0-.03125 0h-.25a.1562681.1562681 0 0 0-.03125 0 .1562681.1562681 0 0 0-.03125 0zm-17.6875.0625a.1562681.1562681 0 0 0-.03125.03125.1562681.1562681 0 0 0-.03125.03125.1562681.1562681 0 0 0-.03125.0625.1562681.1562681 0 0 0 0 .03125v.1875a.1562681.1562681 0 0 0 0 .03125.1562681.1562681 0 0 0 .03125.0625.1562681.1562681 0 0 0 .03125.03125.1562681.1562681 0 0 0 .0625.03125.1562681.1562681 0 0 0 .03125 0c.08843.002.138002.03631.1875.09375v1.25c0 .142015-.02181.240385-.03125.28125-.0094.04086-.0078.03795-.03125.0625-.01546.01643-.03264.0255-.15625.03125a.1562681.1562681 0 0 0-.03125 0 .1562681.1562681 0 0 0-.03125 0 .1562681.1562681 0 0 0-.03125.03125.1562681.1562681 0 0 0-.03125.03125.1562681.1562681 0 0 0-.03125.03125.1562681.1562681 0 0 0 0 .03125.1562681.1562681 0 0 0 0 .03125v.1875a.1562681.1562681 0 0 0 0 .03125.1562681.1562681 0 0 0 .03125.0625.1562681.1562681 0 0 0 .03125.03125.1562681.1562681 0 0 0 .0625.03125.1562681.1562681 0 0 0 .03125 0h.96875a.1562681.1562681 0 0 0 .03125 0 .1562681.1562681 0 0 0 .0625-.03125.1562681.1562681 0 0 0 .03125-.03125.1562681.1562681 0 0 0 .03125-.0625.1562681.1562681 0 0 0 0-.03125v-.1875a.1562681.1562681 0 0 0 0-.03125.1562681.1562681 0 0 0-.03125-.0625.1562681.1562681 0 0 0-.03125-.03125.1562681.1562681 0 0 0-.0625-.03125.1562681.1562681 0 0 0-.03125 0c-.123612-.0057-.140787-.01482-.15625-.03125-.02343-.02455-.02181-.02164-.03125-.0625-.0094-.04086-.03125-.139235-.03125-.28125v-.65625l1.28125 1.5a.1562681.1562681 0 0 0 .03125.03125.1562681.1562681 0 0 0 .0625.03125.1562681.1562681 0 0 0 .03125 0h.21875a.1562681.1562681 0 0 0 .03125 0 .1562681.1562681 0 0 0 .0625-.03125.1562681.1562681 0 0 0 .03125-.03125.1562681.1562681 0 0 0 .03125-.0625.1562681.1562681 0 0 0 0-.03125v-1.71875c0-.149226-.0048-.237035 0-.28125.0048-.04422.01504-.04552.03125-.0625.01088-.01156.04795-.02854.15625-.03125a.1562681.1562681 0 0 0 .03125 0 .1562681.1562681 0 0 0 .03125 0h.0625c.05869 0 .09034-.000447.125 0-.0024.03587 0 .06185 0 .125v1.4375c0 .07893-.0029.119389 0 .15625.0024-.0087.000797 0-.125 0h-.0625a.1562681.1562681 0 0 0-.03125 0 .1562681.1562681 0 0 0-.0625.03125.1562681.1562681 0 0 0-.03125.03125.1562681.1562681 0 0 0-.03125.0625.1562681.1562681 0 0 0 0 .03125v.1875a.1562681.1562681 0 0 0 0 .03125.1562681.1562681 0 0 0 .03125.0625.1562681.1562681 0 0 0 .03125.03125.1562681.1562681 0 0 0 .0625.03125.1562681.1562681 0 0 0 .03125 0h2.25a.1562681.1562681 0 0 0 .03125 0 .1562681.1562681 0 0 0 .0625-.03125.1562681.1562681 0 0 0 .03125-.03125.1562681.1562681 0 0 0 .03125-.0625.1562681.1562681 0 0 0 0-.03125l.0625-.90625a.1562681.1562681 0 0 0 0-.03125.1562681.1562681 0 0 0 0-.03125.1562681.1562681 0 0 0-.03125-.03125.1562681.1562681 0 0 0-.03125-.03125.1562681.1562681 0 0 0-.03125-.03125.1562681.1562681 0 0 0-.03125 0 .1562681.1562681 0 0 0-.03125 0h-.1875a.1562681.1562681 0 0 0-.03125 0 .1562681.1562681 0 0 0-.0625.03125.1562681.1562681 0 0 0-.03125.03125.1562681.1562681 0 0 0-.03125.0625c-.03608.128863-.109312.167766-.15625.25v-1.125c.04595.08203.08628.17826.125.3125a.1562681.1562681 0 0 0 .03125.0625.1562681.1562681 0 0 0 .03125.03125.1562681.1562681 0 0 0 .0625.03125.1562681.1562681 0 0 0 .03125 0h.15625a.1562681.1562681 0 0 0 .03125 0A.1562681.1562681 0 0 0 43.5625 43a.1562681.1562681 0 0 0 .03125-.03125.1562681.1562681 0 0 0 .03125-.0625.1562681.1562681 0 0 0 0-.03125V42a.1562681.1562681 0 0 0 0-.03125.1562681.1562681 0 0 0-.03125-.0625.1562681.1562681 0 0 0-.03125-.03125.1562681.1562681 0 0 0-.0625-.03125.1562681.1562681 0 0 0-.03125 0h-2.25a.1562681.1562681 0 0 0-.03125 0 .1562681.1562681 0 0 0-.03125 0h-.9375a.1562681.1562681 0 0 0-.03125 0 .1562681.1562681 0 0 0-.0625.03125.1562681.1562681 0 0 0-.03125.03125.1562681.1562681 0 0 0-.03125.0625.1562681.1562681 0 0 0 0 .03125v.1875a.1562681.1562681 0 0 0 0 .03125.1562681.1562681 0 0 0 .03125.0625.1562681.1562681 0 0 0 .03125.03125.1562681.1562681 0 0 0 .0625.03125.1562681.1562681 0 0 0 .03125 0c.104461.0027.147599.02206.15625.03125.02343.02455.02181.02164.03125.0625.0094.04086.03125.139235.03125.28125v.375l-1.03125-1.1875a.1562681.1562681 0 0 0-.03125-.03125.1562681.1562681 0 0 0-.0625-.03125.1562681.1562681 0 0 0-.03125 0h-.8125a.1562681.1562681 0 0 0-.03125 0 .1562681.1562681 0 0 0-.03125 0zm-1.375.4375c.132838 0 .20425.02083.28125.15625.08507.154666.125.466961.125.8125 0 .32327-.05221.552096-.125.6875-.07279.135404-.140733.1875-.28125.1875-.151151 0-.243791-.02865-.3125-.15625-.09568-.179767-.15625-.455396-.15625-.78125 0-.337437.06433-.595893.15625-.75.06942-.117296.146019-.15625.3125-.15625zm11.78125 0c.132838 0 .20425.02083.28125.15625.0911.165645.15625.476028.15625.8125 0 .320858-.04572.551438-.125.6875-.07928.136062-.171983.1875-.3125.1875-.151151 0-.243791-.02865-.3125-.15625-.0899-.168903-.125-.44607-.125-.78125 0-.346503.03957-.606775.125-.75.06942-.117296.146019-.15625.3125-.15625zm-6.5.0625c.03121-.006.09293 0 .15625 0h.09375c.125801 0 .231685.04684.3125.09375h-.1875a.1562681.1562681 0 0 0-.03125 0 .1562681.1562681 0 0 0-.0625.03125.1562681.1562681 0 0 0-.03125.03125.1562681.1562681 0 0 0-.03125.0625c-.01523.127354-.0444.232668-.09375.28125-.02793.0275-.08492.01879-.125.03125v-.40625c0-.06637-.0024-.107781 0-.125zm3.5 0c-.02763.02763-.03942 0 .03125 0h.09375c.196802 0 .290469.03841.375.15625.08453.117838.15625.34146.15625.65625 0 .332937-.09217.662615-.15625.75-.06478.09285-.187709.15625-.375.15625h-.09375c-.01696 0-.02147.000919-.03125 0 .01982.02442 0 .01833 0-.0625v-1.625c0-.07067.02763-.05888 0-.03125zm12.875 0c-.02278.01967-.0055 0 .09375 0h.0625c.13185 0 .21058.02658.25.0625.03942.03592.0625.09496.0625.21875 0 .146263-.01848.187098-.0625.21875-.04402.03165-.165515.0625-.375.0625h-.03125v-.5c0-.02817-.0015-.04853 0-.0625zm-2.59375.75.0625.1875H56l.09375-.1875zm2.59375.3125h.03125c.123087 0 .176979.01956.1875.03125.01787.02123.02778.01286.03125.03125.0035.01839-.0068.05987 0 .15625.01934.21597.05096.376922.0625.4375a.1562681.1562681 0 0 0-.03125 0 .1562681.1562681 0 0 0-.03125 0h-.09375c-.155244 0-.186699-.03383-.15625 0-.0019-.01216 0-.05182 0-.15625v-.5zm-16.375.03125c.04008.01246.09707.0038.125.03125.04935.04858.07852.153896.09375.28125a.1562681.1562681 0 0 0 0 .03125.1562681.1562681 0 0 0 .03125.03125.1562681.1562681 0 0 0 .03125.03125.1562681.1562681 0 0 0 .0625.03125.1562681.1562681 0 0 0 .03125 0h.1875a.1562681.1562681 0 0 0 .03125 0 .1562681.1562681 0 0 0 .0625-.03125c-.01698.0207-.01338.07731-.03125.09375-.09746.08965-.202366.125-.375.125h-.09375c-.06737 0-.09796.000445-.125 0a.1562681.1562681 0 0 0-.03125 0c-.000675-.0019 0-.0168 0-.0625v-.5625z" font-family="Century Schoolbook L" font-size="3.32446814" font-weight="bold" letter-spacing="0" style="text-align:start;line-height:125%;-inkscape-font-specification:Century Schoolbook L Bold" word-spacing="0"/>
    <path id="ap" d="M37.012814 41.750001c-.322473 0-.59508.09309-.81117.28258-.279255.239362-.445479.615027-.445479 1.003989 0 .704787.518618 1.213431 1.240026 1.213431.339096 0 .601729-.08311.824469-.259308.285904-.229388.445478-.568485.445478-.957447 0-.385638-.169548-.764628-.445478-1.000665-.22274-.192819-.482049-.28258-.807846-.28258m.0033.172873c.179521 0 .319149.08644.415559.255984.109707.199468.169548.49867.169548.857712 0 .674867-.206118 1.040559-.585107 1.040559-.192819 0-.332447-.08311-.425532-.255984-.109707-.206117-.169547-.498671-.169547-.847739 0-.359043.05652-.625001.169547-.814495.09641-.162899.229389-.236037.425532-.236037m2.280557-.123006h-.837766v.182846c.149601.0033.269282.06649.352394.18617v1.309841c0 .292553-.01662.375665-.08644.448803-.05319.05652-.129655.08311-.272606.08976v.179521h.947473v-.179521c-.142952-.0066-.226064-.03325-.279255-.08976-.06981-.07314-.08644-.15625-.08644-.448803v-1.09375l1.545878 1.838431h.222739v-1.702128c0-.295877.01662-.37899.08644-.452128.05319-.05652.146276-.08644.279255-.08976v-.179522h-.947473v.179522c.129654.0033.219415.03324.272606.08976.06981.07314.08644.159575.08644.452128v.78125l-1.283245-1.50266m4.158858 0h-2.230718v.179522h.04987c.172872 0 .242686.0133.272606.04987.02327.0266.02327.03989.02327.249335v1.442819c0 .209441 0 .222739-.02327.249335-.02992.03657-.09973.04987-.272606.04987h-.04987v.179521h2.257314l.03989-.894282h-.176196c-.139628.49867-.375666.714761-.777926.714761h-.09973c-.162899 0-.206117-.0066-.246011-.04654-.04322-.03989-.05319-.07646-.05319-.18617v-.738032h.05652c.259308 0 .422207.166224.458776.472075h.179522v-1.126995h-.179522c-.03657.305851-.199468.472075-.458776.472075h-.05652v-.601729c0-.136303.0066-.172873.03325-.212766.03657-.04987.116356-.07314.252659-.07314h.09309c.246011 0 .448804.08976.561835.24601.06981.09973.142953.265958.192819.43883h.172873l-.01995-.864362m1.605294 1.921536c0 .209441 0 .222739-.02327.249335-.02992.03657-.09973.04987-.272607.04987h-.04987v.179521h1.223404c.418883 0 .684841-.05984.890958-.202792.295877-.206117.458776-.568485.458776-1.023936 0-.445479-.162899-.791224-.475398-.994016-.199468-.132979-.44548-.179522-.914229-.179522h-1.183511v.179522h.04987c.172872 0 .242686.0133.272607.04987.02327.0266.02327.03989.02327.249335v1.442819m.797872.299202c-.162899 0-.199468-.03989-.199468-.21609v-1.625665c0-.159575.03989-.199468.199468-.199468h.08311c.4621 0 .68484.322474.68484.987367 0 .355717-.06981.678191-.179521.827792-.09973.142952-.295878.226064-.518617.226064h-.06981m2.952074-2.270618c-.322473 0-.59508.09309-.81117.28258-.279255.239362-.445479.615027-.445479 1.003989 0 .704787.518618 1.213431 1.240026 1.213431.339096 0 .601729-.08311.824469-.259308.285904-.229388.445478-.568485.445478-.957447 0-.385638-.169548-.764628-.445478-1.000665-.22274-.192819-.482049-.28258-.807846-.28258m.0033.172873c.179521 0 .319149.08644.415559.255984.109707.199468.169548.49867.169548.857712 0 .674867-.206118 1.040559-.585107 1.040559-.192819 0-.332447-.08311-.425532-.255984-.109707-.206117-.169547-.498671-.169547-.847739 0-.359043.05652-.625001.169547-.814495.09641-.162899.229389-.236037.425532-.236037m3.537206 1.382978c-.06649.229388-.12633.355719-.21609.465426-.136303.162899-.325798.249335-.561835.249335h-.06981c-.162899 0-.206117-.0066-.246011-.04654-.04322-.03989-.05319-.07646-.05319-.18617v-1.509308c0-.209442 0-.22274.02327-.249335.02992-.03657.09973-.04987.275931-.04987h.07314v-.179522h-1.316489v.179522h.04987c.172872 0 .242686.0133.272606.04987.02327.0266.02327.03989.02327.249335v1.439494c0 .212766 0 .226064-.02327.25266-.02992.03657-.09973.04987-.272606.04987h-.04987v.179521h2.227394l.03989-.894282h-.176197m2.402444-.000006c-.06649.229388-.12633.355719-.21609.465426-.136303.162899-.325798.249335-.561835.249335h-.06981c-.162899 0-.206117-.0066-.246011-.04654-.04322-.03989-.05319-.07646-.05319-.18617v-1.509308c0-.209442 0-.22274.02327-.249335.02992-.03657.09973-.04987.275931-.04987h.07314v-.179522h-1.316489v.179522h.04987c.172872 0 .242686.0133.272606.04987.02327.0266.02327.03989.02327.249335v1.439494c0 .212766 0 .226064-.02327.25266-.02992.03657-.09973.04987-.272606.04987h-.04987v.179521h2.227393l.03989-.894282h-.176197m1.41508-1.555857-.754655 1.761968c-.152925.359043-.275931.488697-.472074.508644v.179521h.960771v-.179521c-.239361-.0133-.332447-.07646-.332447-.229388 0-.05652.01-.09309.05319-.189495l.05319-.12633h.827793l.12633.325798c.0266.05984.03989.109708.03989.136303 0 .05984-.04322.07979-.192819.07979l-.05652.0033v.179521h1.166889v-.179521c-.189495-.0066-.242687-.03989-.3125-.209441l-.854389-2.061171h-.252659m-.06981.708112.322473.794548h-.658244l.335771-.794548m2.439386.588453h.18617c.142952 0 .236037.03325.295878.09973.05319.06316.06649.103059.07979.292553.01995.222739.03657.362367.04654.415559.05652.259308.242687.395611.531915.395611.359042 0 .56516-.202793.56516-.555186v-.03989h-.179521c-.0033.209441-.05319.315824-.152926.315824-.03657 0-.07646-.01995-.09641-.04987-.01995-.0266-.02327-.04987-.03989-.15625 0-.0133-.0066-.04654-.0133-.09309l-.02327-.12633c-.04987-.299202-.176197-.448803-.465426-.545213.176197-.03324.262633-.05652.345745-.09641.202792-.103059.319149-.285905.319149-.501995 0-.199468-.09641-.369016-.269282-.482048-.12633-.07979-.34907-.119681-.65492-.119681h-1.419548v.179522h.04987c.172872 0 .242686.0133.272606.04654.02327.02992.02327.03989.02327.25266v1.439494c0 .212766 0 .22274-.02327.25266-.02992.03325-.09973.04654-.272606.04654h-.04987v.179521h1.329787v-.179521h-.08644c-.172872 0-.246011-.0133-.275931-.04654-.02327-.02992-.02327-.03989-.02327-.25266v-.671542m0-.182846v-.671542c0-.189495.02327-.212766.236037-.212766h.07979c.309175 0 .448803.136303.448803.438829 0 .339096-.139628.445479-.581782.445479h-.182845"/>
    <path id="aq" fill="#546841" d="m27.0625 22-.65625 1.09375-1.15625-.5-.28125 1.21875-1.25-.09375.09375 1.25-1.21875.28125.5 1.15625L22 27.0625l.84375.9375L22 28.9375l1.09375.65625-.5 1.15625 1.21875.28125-.09375 1.25 1.25-.09375.28125 1.21875 1.15625-.5L27.0625 34 28 33.15625 28.9375 34l.65625-1.09375 1.15625.5.28125-1.21875 1.25.09375-.09375-1.25 1.21875-.28125-.5-1.15625L34 28.9375 33.15625 28 34 27.0625l-1.09375-.65625.5-1.15625-1.21875-.28125.09375-1.25-1.25.09375-.28125-1.21875-1.15625.5L28.9375 22 28 22.84375 27.0625 22zM28 24c2.209139 0 4 1.790861 4 4s-1.790861 4-4 4-4-1.790861-4-4 1.790861-4 4-4z" color="#000" enable-background="accumulate" opacity=".8" overflow="visible" style="marker:none"/>
    <path id="ar" fill="#2ca02c" d="m67.0625 22-.65625 1.09375-1.15625-.5-.28125 1.21875-1.25-.09375.09375 1.25-1.21875.28125.5 1.15625L62 27.0625l.84375.9375L62 28.9375l1.09375.65625-.5 1.15625 1.21875.28125-.09375 1.25 1.25-.09375.28125 1.21875 1.15625-.5L67.0625 34 68 33.15625 68.9375 34l.65625-1.09375 1.15625.5.28125-1.21875 1.25.09375-.09375-1.25 1.21875-.28125-.5-1.15625L74 28.9375 73.15625 28 74 27.0625l-1.09375-.65625.5-1.15625-1.21875-.28125.09375-1.25-1.25.09375-.28125-1.21875-1.15625.5L68.9375 22 68 22.84375 67.0625 22zM68 25c1.656854 0 3 1.343146 3 3s-1.343146 3-3 3-3-1.343146-3-3 1.343146-3 3-3z" color="#000" enable-background="accumulate" opacity=".8" overflow="visible" style="marker:none"/>
    <path id="as" fill="#3fa93f" d="M72 28a4 4 0 1 1-8 0 4 4 0 1 1 8 0z" color="#000" enable-background="accumulate" opacity=".6" overflow="visible" style="marker:none"/>
    <path id="at" fill="#afe9af" d="M68 24c-2.209139 0-4 1.790861-4 4s1.790861 4 4 4 4-1.790861 4-4-1.790861-4-4-4zm0 1c1.656854 0 3 1.343146 3 3s-1.343146 3-3 3-3-1.343146-3-3 1.343146-3 3-3z" color="#000" enable-background="accumulate" opacity=".75" overflow="visible" style="marker:none"/>
    <path id="au" d="M34.810338 19.660671h-7.14v.564h.216c.971999 0 1.08.06 1.08.564v6.408c0 .503999-.108001.564-1.08.564h-.216v.564h4.116v-.564h-.396c-.971999 0-1.08-.06-1.08-.564v-3.072h.24c.743999 0 1.032.072 1.284.324.3.311999.42.696.444 1.404h.564v-3.936h-.564c-.06 1.175999-.540001 1.644-1.68 1.644h-.288v-2.736c0-.516.108001-.6.756-.6h.552c1.979998 0 2.496.456002 2.832 2.508h.528l-.168-3.072"/>
  </defs>
  <defs>
    <linearGradient id="m">
      <stop offset="0"/>
      <stop offset="1" stop-opacity="0"/>
    </linearGradient>
    <linearGradient id="j">
      <stop offset="0" stop-color="#fff"/>
      <stop offset="1" stop-color="#fff" stop-opacity="0"/>
    </linearGradient>
    <linearGradient id="p">
      <stop offset="0" stop-color="#9e5e33"/>
      <stop offset="1" stop-color="#4a270f"/>
    </linearGradient>
    <linearGradient id="i">
      <stop offset="0" stop-color="#271c0c"/>
      <stop offset=".40000001" stop-color="#271c0c" stop-opacity=".49803922"/>
      <stop offset="1" stop-color="#271c0c" stop-opacity="0"/>
    </linearGradient>
    <linearGradient id="h">
      <stop offset="0" stop-color="#28170b"/>
      <stop offset=".40000001" stop-color="#28170b" stop-opacity=".49803922"/>
      <stop offset="1" stop-color="#28170b" stop-opacity="0"/>
    </linearGradient>
    <linearGradient id="g">
      <stop offset="0" stop-color="#fff"/>
      <stop offset="1" stop-color="#fff" stop-opacity="0"/>
    </linearGradient>
    <linearGradient id="f">
      <stop offset="0" stop-color="#6a472f"/>
      <stop offset="1" stop-color="#6a472f" stop-opacity="0"/>
    </linearGradient>
    <linearGradient id="e">
      <stop offset="0" stop-color="#be8443"/>
      <stop offset="1" stop-color="#cea372"/>
    </linearGradient>
    <linearGradient id="d">
      <stop offset="0"/>
      <stop offset="1" stop-opacity="0"/>
    </linearGradient>
    <linearGradient id="b">
      <stop offset="0" stop-color="#be8443"/>
      <stop offset="1" stop-color="#d8a56c"/>
    </linearGradient>
    <linearGradient id="n">
      <stop offset="0" stop-color="#6c3007"/>
      <stop offset="1" stop-color="#9b5222"/>
    </linearGradient>
    <linearGradient id="o" x1="45.447727" x2="45.447727" y1="92.539597" y2="7.0165396" gradientTransform="scale(1.00587 .99417)" gradientUnits="userSpaceOnUse">
      <stop offset="0"/>
      <stop offset="1" stop-opacity=".58823532"/>
    </linearGradient>
    <linearGradient id="a">
      <stop offset="0" stop-color="#fff"/>
      <stop offset="1" stop-color="#fff" stop-opacity="0"/>
    </linearGradient>
    <linearGradient xlink:href="#a" id="N" x1="36.357143" x2="36.357143" y1="6" y2="63.893143" gradientUnits="userSpaceOnUse"/>
    <linearGradient xlink:href="#a" id="J" x1="48" x2="48" y1="20.220806" y2="138.66119" gradientUnits="userSpaceOnUse"/>
    <linearGradient xlink:href="#b" id="x" x1="48" x2="48" y1="16" y2="-8" gradientUnits="userSpaceOnUse"/>
    <linearGradient id="c" x1="45.447727" x2="45.447727" y1="92.539597" y2="7.0165396" gradientTransform="matrix(1.00587 0 0 .99417 100 0)" gradientUnits="userSpaceOnUse">
      <stop offset="0"/>
      <stop offset="1" stop-opacity=".58823532"/>
    </linearGradient>
    <linearGradient xlink:href="#c" id="v" x1="32.251034" x2="32.251034" y1="6.1317081" y2="90.238609" gradientTransform="matrix(1.0238 0 0 -1.0119 -1.1428571 98.071429)" gradientUnits="userSpaceOnUse"/>
    <linearGradient xlink:href="#c" id="w" x1="32.251034" x2="32.251034" y1="6.1317081" y2="90.238609" gradientTransform="matrix(1 0 0 -1 0 97)" gradientUnits="userSpaceOnUse"/>
    <linearGradient xlink:href="#b" id="y" x1="48" x2="48" y1="88" y2="16" gradientUnits="userSpaceOnUse"/>
    <linearGradient xlink:href="#d" id="A" x1="32" x2="32" y1="14" y2="10" gradientUnits="userSpaceOnUse"/>
    <linearGradient xlink:href="#e" id="z" x1="43" x2="43" y1="21" y2="83" gradientTransform="translate(-90)" gradientUnits="userSpaceOnUse"/>
    <linearGradient xlink:href="#f" id="D" x1="24" x2="8" y1="56" y2="56" gradientUnits="userSpaceOnUse"/>
    <linearGradient xlink:href="#g" id="C" x1="24" x2="8" y1="56" y2="56" gradientUnits="userSpaceOnUse"/>
    <linearGradient xlink:href="#h" id="E" x1="6" x2="16" y1="48.453125" y2="48.453125" gradientUnits="userSpaceOnUse"/>
    <linearGradient xlink:href="#h" id="F" x1="6" x2="16" y1="48.453125" y2="48.453125" gradientUnits="userSpaceOnUse"/>
    <linearGradient xlink:href="#b" id="aD" x1="80" x2="80" y1="64" y2="38" gradientTransform="translate(0 2)" gradientUnits="userSpaceOnUse"/>
    <linearGradient xlink:href="#d" id="aE" x1="90" x2="90" y1="40" y2="37" gradientUnits="userSpaceOnUse"/>
    <linearGradient xlink:href="#c" id="u" x1="32.251034" x2="32.251034" y1="6.1317081" y2="90.238609" gradientTransform="matrix(1.0238 0 0 -1.0119 -1.1428571 98.071429)" gradientUnits="userSpaceOnUse"/>
    <linearGradient xlink:href="#c" id="t" x1="32.251034" x2="32.251034" y1="6.1317081" y2="90.238609" gradientTransform="matrix(1.0238 0 0 -1.0119 -1.1428571 98.071429)" gradientUnits="userSpaceOnUse"/>
    <linearGradient xlink:href="#c" id="s" x1="32.251034" x2="32.251034" y1="6.1317081" y2="90.238609" gradientTransform="matrix(1.0238 0 0 -1.0119 -1.1428571 98.071429)" gradientUnits="userSpaceOnUse"/>
    <linearGradient xlink:href="#i" id="aF" x1="92" x2="85" y1="52" y2="52" gradientUnits="userSpaceOnUse"/>
    <linearGradient xlink:href="#f" id="aH" x1="84" x2="90" y1="50" y2="50" gradientUnits="userSpaceOnUse"/>
    <linearGradient xlink:href="#a" id="aG" x1="84" x2="90" y1="50" y2="50" gradientTransform="translate(0 1)" gradientUnits="userSpaceOnUse"/>
    <linearGradient xlink:href="#j" id="aJ" x1="71" x2="71" y1="47" y2="50" gradientUnits="userSpaceOnUse"/>
    <linearGradient id="k">
      <stop offset="0" stop-color="#d5dc9d"/>
      <stop offset="1" stop-color="#f5f1cf"/>
    </linearGradient>
    <linearGradient id="q">
      <stop offset="0" stop-color="#455a30"/>
      <stop offset="1" stop-color="#86b05c"/>
    </linearGradient>
    <linearGradient id="r">
      <stop offset="0" stop-color="#829f66"/>
      <stop offset="1" stop-color="#546741"/>
    </linearGradient>
    <linearGradient id="l">
      <stop offset="0" stop-color="#d5dc9d"/>
      <stop offset="1" stop-color="#f5f1cf"/>
    </linearGradient>
    <linearGradient xlink:href="#k" id="av" x1="48" x2="48" y1="48" y2="5.9877172" gradientUnits="userSpaceOnUse"/>
    <linearGradient xlink:href="#l" id="aB" x1="46.048" x2="46.048" y1="33.868999" y2="15.761001" gradientTransform="translate(-3.301261 .672897) scale(1.11408)" gradientUnits="userSpaceOnUse"/>
    <linearGradient xlink:href="#k" id="R" x1="48" x2="48" y1="48" y2="5.9877172" gradientUnits="userSpaceOnUse"/>
    <linearGradient xlink:href="#l" id="ak" x1="46.048" x2="46.048" y1="33.868999" y2="15.761001" gradientTransform="translate(-3.301261 .672897) scale(1.11408)" gradientUnits="userSpaceOnUse"/>
    <linearGradient xlink:href="#m" id="aC" x1="32.002693" x2="32.002693" y1="13.788696" y2="10.886948" gradientUnits="userSpaceOnUse"/>
    <linearGradient xlink:href="#n" id="B" x1="56" x2="56" y1="80" y2="24" gradientUnits="userSpaceOnUse"/>
    <linearGradient xlink:href="#o" id="G" x1="40" x2="40" y1="24" y2="80" gradientTransform="translate(0 90)" gradientUnits="userSpaceOnUse"/>
    <linearGradient xlink:href="#o" id="H" x1="40" x2="40" y1="24" y2="80" gradientTransform="translate(0 90)" gradientUnits="userSpaceOnUse"/>
    <linearGradient xlink:href="#o" id="I" x1="40" x2="40" y1="24" y2="80" gradientTransform="translate(0 90)" gradientUnits="userSpaceOnUse"/>
    <radialGradient xlink:href="#a" id="M" cx="48" cy="90.171875" r="42" fx="48" fy="90.171875" gradientTransform="matrix(1.15731 0 0 .9959 -7.5510206 .19713193)" gradientUnits="userSpaceOnUse"/>
    <radialGradient xlink:href="#p" id="aI" cx="76" cy="51" r="4" fx="76" fy="51" gradientUnits="userSpaceOnUse"/>
    <radialGradient xlink:href="#q" id="aw" cx="13.5" cy="16" r="3.8872983" fx="13.5" fy="16" gradientTransform="matrix(1 0 0 1.64312 0 -10.289923)" gradientUnits="userSpaceOnUse"/>
    <radialGradient xlink:href="#q" id="ax" cx="13.5" cy="38" r="4" fx="13.5" fy="38" gradientTransform="matrix(1 0 0 1.375 0 -14.25)" gradientUnits="userSpaceOnUse"/>
    <radialGradient xlink:href="#q" id="ay" cx="13.5" cy="16" r="3.8872983" fx="13.5" fy="16" gradientTransform="matrix(1 0 0 1.64312 0 -10.289923)" gradientUnits="userSpaceOnUse"/>
    <radialGradient xlink:href="#q" id="az" cx="13.5" cy="38" r="4" fx="13.5" fy="38" gradientTransform="matrix(1 0 0 1.375 0 -14.25)" gradientUnits="userSpaceOnUse"/>
    <radialGradient xlink:href="#r" id="aA" cx="48" cy="28" r="8.3751011" fx="48" fy="28" gradientTransform="matrix(1 0 0 1.4776 0 -13.372973)" gradientUnits="userSpaceOnUse"/>
    <radialGradient xlink:href="#q" id="W" cx="13.5" cy="16" r="3.8872983" fx="13.5" fy="16" gradientTransform="matrix(1 0 0 1.64312 0 -10.289923)" gradientUnits="userSpaceOnUse"/>
    <radialGradient xlink:href="#q" id="ab" cx="13.5" cy="38" r="4" fx="13.5" fy="38" gradientTransform="matrix(1 0 0 1.375 0 -14.25)" gradientUnits="userSpaceOnUse"/>
    <radialGradient xlink:href="#q" id="ae" cx="13.5" cy="16" r="3.8872983" fx="13.5" fy="16" gradientTransform="matrix(1 0 0 1.64312 0 -10.289923)" gradientUnits="userSpaceOnUse"/>
    <radialGradient xlink:href="#q" id="af" cx="13.5" cy="38" r="4" fx="13.5" fy="38" gradientTransform="matrix(1 0 0 1.375 0 -14.25)" gradientUnits="userSpaceOnUse"/>
    <radialGradient xlink:href="#r" id="aj" cx="48" cy="28" r="8.3751011" fx="48" fy="28" gradientTransform="matrix(1 0 0 1.4776 0 -13.372973)" gradientUnits="userSpaceOnUse"/>
    <clipPath id="K">
      <rect width="84" height="84" x="6" y="6" fill="#fff" rx="6" ry="6"/>
    </clipPath>
    <clipPath id="O">
      <rect width="120" height="40" x="-16" y="-26" fill="#f0f" color="#000" enable-background="accumulate" opacity=".6" overflow="visible" rx="1.9444444" style="marker:none"/>
    </clipPath>
    <filter id="L" width="1.3839999" height="1.3839999" x="-.192" y="-.192" color-interpolation-filters="sRGB">
      <feGaussianBlur stdDeviation="5.28"/>
    </filter>
  </defs>
  <path fill="url(#s)" d="M12 3.9375C6.4658972 3.9375 1.9375 8.4658972 1.9375 14v71c0 5.534103 4.528397 10.0625 10.0625 10.0625h72c5.534103 0 10.0625-4.528397 10.0625-10.0625V62.53125c1.048591-.795153 2-1.926261 2-3.53125V39.5c0-1.675253-.948102-2.89671-2-3.78125V14c0-5.534103-4.528397-10.0625-10.0625-10.0625H12z" opacity=".07999998"/>
  <path fill="url(#t)" d="M12 5c-4.9609403 0-9 4.0390597-9 9v71c0 4.96094 4.0390596 9 9 9h72c4.96094 0 9-4.03906 9-9V62.09375c1.083662-.647041 2-1.650188 2-3.09375V39.5c0-1.516647-.911562-2.616923-2-3.375V14c0-4.9609404-4.03906-9-9-9H12z" opacity=".1"/>
  <path fill="url(#u)" d="M12 6c-4.4113324 0-8 3.5886676-8 8v71c0 4.411332 3.5886676 8 8 8h72c4.411332 0 8-3.588668 8-8V61.59375c1.107171-.441143 2-1.337864 2-2.59375V39.5c0-1.342318-.88146-2.356843-2-2.9375V14c0-4.4113324-3.588668-8-8-8H12z" opacity=".2"/>
  <path fill="url(#v)" d="M12 7c-3.878 0-7 3.122-7 7v71c0 3.878 3.122 7 7 7h72c3.878 0 7-3.122 7-7V61c1.108 0 2-.892 2-2V39.5c0-1.211875-.85874-2.205146-2-2.4375V14c0-3.878-3.122-7-7-7H12z" opacity=".3"/>
  <path fill="url(#w)" d="M12 7c-3.324 0-6 2.676-6 6v72c0 3.324 2.676 6 6 6h72c3.324 0 6-2.676 6-6V60c1.108 0 2-.892 2-2V38.5c0-1.211875-.85874-2.205146-2-2.4375V13c0-3.324-2.676-6-6-6H12z" opacity=".45"/>
  <rect width="84" height="84" x="6" y="6" fill="url(#x)" rx="6" ry="6"/>
  <path fill="url(#y)" d="M8.84375 6.90625C7.13947 7.9623505 6 9.8394 6 12v72c0 3.324 2.676 6 6 6h72c3.324 0 6-2.676 6-6V20c0-3.324-2.676-6-6-6H11c-1.662 0-3-1.338-3-3V9c0-.8151132.319704-1.5541205.84375-2.09375z"/>
  <path fill="url(#z)" d="M6 16v63.78125c1.2588513 1.989942 3.4798589 3.3125 6 3.3125h66c2.805085 0 5.09375-2.288665 5.09375-5.09375V26c0-2.805085-2.288665-5.09375-5.09375-5.09375H12c-2.7205214 0-4.90625-2.185729-4.90625-4.90625z" color="#000" enable-background="accumulate" overflow="visible" style="marker:none"/>
  <path fill="url(#A)" d="M11 8c-1.662 0-3 1.338-3 3s1.338 3 3 3h73c3.324 0 6 2.676 6 6v-8c0-1.542238-.581685-2.9393033-1.53125-4H11z" color="#000" enable-background="accumulate" opacity=".3" overflow="visible" style="marker:none"/>
  <path fill="url(#B)" d="M6 16v60c0 3.313708 2.6862915 6 6 6h66c2.216 0 4-1.784 4-4V26c0-2.216-1.784-4-4-4H12c-3.3137085 0-6-2.686292-6-6z" color="#000" enable-background="accumulate" overflow="visible" style="marker:none"/>
  <path fill="url(#C)" d="M6.8125 18.09375c-.1827952.3167-.3455431.649772-.46875 1h2.875v-1H6.8125zm5.40625 0v1h3v-1h-3zm6 0v1h3v-1h-3zm6 0v1h3v-1h-3zm6 0v1h3v-1h-3zm6 0v1h3v-1h-3zm6 0v1h3v-1h-3zm6 0v1h3v-1h-3zm6 0v1h3v-1h-3zm6 0v1h3v-1h-3zm6 0v1h3v-1h-3zm6 0v1h3v-1h-3zm6 0v1h3v-1h-3zm6.1875.40625-.46875.875.53125.28125.0625.03125.4375.375.03125.03125.03125.03125.40625.5.28125.5v.0625l.03125.03125.15625-.09375.78125-.25-.03125-.0625v-.03125l-.03125-.0625-.34375-.65625-.03125-.03125L86.21875 20l-.46875-.59375-.03125-.03125-.0625-.03125-.5625-.46875-.03125-.03125L85 18.8125l-.59375-.3125zM86 24v3h1v-3h-1zm0 6v3h1v-3h-1zm0 6v3h1v-3h-1zm0 6v3h1v-3h-1zm0 6v3h1v-3h-1zm0 7.09375v3h1v-3h-1zm0 6v3h1v-3h-1zm0 6v3h1v-3h-1zm0 6v3h1v-3h-1zm0 6v3h1v-3h-1zm-.25 5.78125-.03125.03125v.0625l-.28125.5-.40625.5L85 86l-.03125.03125-.4375.375-.0625.03125-.53125.28125.46875.875.59375-.3125.0625-.03125.03125-.03125.5625-.46875.0625-.03125.03125-.03125.46875-.59375.03125-.03125.03125-.03125.34375-.65625.03125-.0625v-.03125l.03125-.0625-.78125-.25L85.75 84.875zM6.34375 87c.1232069.350228.2859548.6833.46875 1h2.40625v-1h-2.875zm5.875 0v1h3v-1h-3zm6 0v1h3v-1h-3zm6 0v1h3v-1h-3zm6 0v1h3v-1h-3zm6 0v1h3v-1h-3zm6 0v1h3v-1h-3zm6 0v1h3v-1h-3zm6 0v1h3v-1h-3zm6 0v1h3v-1h-3zm6 0v1h3v-1h-3zm6 0v1h3v-1h-3zm6 0v1h3v-1h-3z" color="#000" enable-background="accumulate" font-family="Sans" opacity=".18999999" overflow="visible" style="text-indent:0;text-align:start;line-height:normal;text-transform:none;block-progression:tb;marker:none;-inkscape-font-specification:Sans"/>
  <path fill="url(#D)" d="M6.8125 17.09375c-.1827952.3167-.3455431.649772-.46875 1h2.875v-1H6.8125zm5.40625 0v1h3v-1h-3zm6 0v1h3v-1h-3zm6 0v1h3v-1h-3zm6 0v1h3v-1h-3zm6 0v1h3v-1h-3zm6 0v1h3v-1h-3zm6 0v1h3v-1h-3zm6 0v1h3v-1h-3zm6 0v1h3v-1h-3zm6 0v1h3v-1h-3zm6 0v1h3v-1h-3zm6 0v1h3v-1h-3zm6.1875.40625-.46875.875.53125.28125.0625.03125.4375.375.03125.03125.03125.03125.40625.5.28125.5v.0625l.03125.03125.15625-.09375.78125-.25-.03125-.0625v-.03125l-.03125-.0625-.34375-.65625-.03125-.03125L86.21875 19l-.46875-.59375-.03125-.03125-.0625-.03125-.5625-.46875-.03125-.03125L85 17.8125l-.59375-.3125zM86 23v3h1v-3h-1zm0 6v3h1v-3h-1zm0 6v3h1v-3h-1zm0 6v3h1v-3h-1zm0 6v3h1v-3h-1zm0 7.09375v3h1v-3h-1zm0 6v3h1v-3h-1zm0 6v3h1v-3h-1zm0 6v3h1v-3h-1zm0 6v3h1v-3h-1zm-.25 5.78125-.03125.03125v.0625l-.28125.5-.40625.5L85 85l-.03125.03125-.4375.375-.0625.03125-.53125.28125.46875.875.59375-.3125.0625-.03125.03125-.03125.5625-.46875.0625-.03125.03125-.03125.46875-.59375.03125-.03125.03125-.03125.34375-.65625.03125-.0625v-.03125l.03125-.0625-.78125-.25L85.75 83.875zM6.34375 86c.1232069.350228.2859548.6833.46875 1h2.40625v-1h-2.875zm5.875 0v1h3v-1h-3zm6 0v1h3v-1h-3zm6 0v1h3v-1h-3zm6 0v1h3v-1h-3zm6 0v1h3v-1h-3zm6 0v1h3v-1h-3zm6 0v1h3v-1h-3zm6 0v1h3v-1h-3zm6 0v1h3v-1h-3zm6 0v1h3v-1h-3zm6 0v1h3v-1h-3zm6 0v1h3v-1h-3z" color="#000" enable-background="accumulate" font-family="Sans" opacity=".7" overflow="visible" style="text-indent:0;text-align:start;line-height:normal;text-transform:none;block-progression:tb;marker:none;-inkscape-font-specification:Sans"/>
  <path fill="#fff" d="M8 11v1c0 1.662 1.338 3 3 3h73c3.324 0 6 2.676 6 6v-1c0-3.324-2.676-6-6-6H11c-1.662 0-3-1.338-3-3z" opacity=".3"/>
  <path fill="url(#E)" d="M6.125 10.90625C6.058287 11.264107 6 11.621895 6 12v72c0 3.324 2.676 6 6 6h4V14h-6c-1.903987 0-3.466389-1.317315-3.875-3.09375z" opacity=".2"/>
  <path fill="url(#F)" d="M7 8.6875C6.3694121 9.6336022 6 10.772084 6 12v72c0 3.324 2.676 6 6 6h4V14h-5c-.212704 0-.421452-.030823-.625-.0625C8.4579355 13.639157 7 12.003296 7 10V8.6875z" opacity=".2"/>
  <g transform="translate(0 -90)">
    <path fill="url(#G)" d="M6 106v60c0 3.31371 2.686291 6 6 6h66c2.216 0 4-1.784 4-4v-52c0-2.216-1.784-4-4-4H12c-3.313709 0-6-2.68629-6-6zm3.53125 9c.806284.22546 1.595375.53125 2.46875.53125h66c.328233 0 .46875.14052.46875.46875v52c0 .32823-.140517.46875-.46875.46875H12c-1.412796 0-2.46875-1.05595-2.46875-2.46875v-51z" color="#000" enable-background="accumulate" opacity=".05" overflow="visible" style="marker:none"/>
    <path fill="url(#H)" d="M6 106v60c0 3.31371 2.686291 6 6 6h66c2.216 0 4-1.784 4-4v-52c0-2.216-1.784-4-4-4H12c-3.313709 0-6-2.68629-6-6zm2.09375 6.90625c1.179744.67573 2.458751 1.1875 3.90625 1.1875h66c1.096 0 1.90625.81025 1.90625 1.90625v52c0 1.096-.81025 1.90625-1.90625 1.90625H12c-2.185911 0-3.90625-1.72034-3.90625-3.90625v-53.09375z" color="#000" enable-background="accumulate" opacity=".12000002" overflow="visible" style="marker:none"/>
    <path fill="url(#I)" d="M6 106v60c0 3.31371 2.686291 6 6 6h66c2.216 0 4-1.784 4-4v-52c0-2.216-1.784-4-4-4H12c-3.313709 0-6-2.68629-6-6zm.96875 4.8125c1.271883 1.32948 3.054301 2.15625 5.03125 2.15625h66c1.691401 0 3.03125 1.33985 3.03125 3.03125v52c0 1.6914-1.339849 3.03125-3.03125 3.03125H12c-2.785456 0-5.03125-2.24579-5.03125-5.03125v-55.1875z" color="#000" enable-background="accumulate" opacity=".3" overflow="visible" style="marker:none"/>
  </g>
  <rect width="66" height="66" x="15" y="15" fill="url(#J)" stroke="#fff" stroke-linecap="round" stroke-width=".5" clip-path="url(#K)" filter="url(#L)" opacity=".1" rx="12" ry="12"/>
  <path fill="url(#M)" d="M12 90c-3.324 0-6-2.676-6-6V12c0-.334721.04135-.6507.09375-.96875.0487-.295596.09704-.596915.1875-.875.0099-.03038.02089-.0636.03125-.09375.09886-.287771.23488-.547452.375-.8125.144592-.273507.315616-.535615.5-.78125.184384-.245635.373776-.473472.59375-.6875.439947-.428056.94291-.814526 1.5-1.09375.278545-.139612.573473-.246947.875-.34375-.256202.100222-.486711.236272-.71875.375-.0074.0044-.02387-.0045-.03125 0-.03193.0193-.06229.04251-.09375.0625-.120395.0767-.231023.163513-.34375.25-.106173.0808-.213281.161112-.3125.25-.17793.161433-.34746.345388-.5.53125-.107579.130255-.218394.265285-.3125.40625-.02509.03838-.03845.08587-.0625.125-.06476.103032-.130228.204517-.1875.3125-.101008.194706-.205675.415701-.28125.625-.008.02181-.02359.04055-.03125.0625-.03183.09195-.0358.186831-.0625.28125-.030332.106618-.070389.203031-.09375.3125C7.052121 10.279012 7 10.635705 7 11v72c0 2.781848 2.218152 5 5 5h72c2.781848 0 5-2.218152 5-5V11c0-.364295-.05212-.720988-.125-1.0625-.04415-.206893-.08838-.397658-.15625-.59375-.0077-.02195-.0233-.04069-.03125-.0625-.06274-.173739-.138383-.367449-.21875-.53125-.04158-.0828-.07904-.169954-.125-.25-.0546-.09721-.126774-.18835-.1875-.28125-.09411-.140965-.204921-.275995-.3125-.40625-.143174-.17445-.303141-.346998-.46875-.5-.01117-.0102-.01998-.02115-.03125-.03125-.138386-.125556-.285091-.234436-.4375-.34375-.102571-.07315-.204318-.153364-.3125-.21875-.0074-.0045-.02384.0044-.03125 0-.232039-.138728-.462548-.274778-.71875-.375.301527.0968.596455.204138.875.34375.55709.279224 1.060053.665694 1.5 1.09375.219973.214028.409366.441865.59375.6875s.355408.507743.5.78125c.14012.265048.276135.524729.375.8125.01041.03078.02133.06274.03125.09375.09046.278085.1388.579404.1875.875.0524.31805.09375.634029.09375.96875v72c0 3.324-2.676 6-6 6H12z" opacity=".2"/>
  <path fill="url(#N)" d="M12 6c-3.324 0-6 2.676-6 6v72c0 .334721.04135.6507.09375.96875.0487.295596.09704.596915.1875.875.00988.03038.020892.0636.03125.09375.098865.287771.2348802.547452.375.8125.1445918.273507.3156161.535615.5.78125.1843839.245635.3737765.473472.59375.6875.439947.428056.94291.814526 1.5 1.09375.278545.139612.5734731.246947.875.34375-.2562018-.100222-.4867109-.236272-.71875-.375-.00741-.0044-.023866.0045-.03125 0-.031933-.0193-.062293-.04251-.09375-.0625-.120395-.0767-.2310226-.163513-.34375-.25-.1061728-.0808-.2132809-.161112-.3125-.25-.1779299-.161433-.3474596-.345388-.5-.53125-.1075789-.130255-.2183939-.265285-.3125-.40625-.025089-.03838-.038446-.08587-.0625-.125-.064763-.103032-.1302275-.204517-.1875-.3125-.1010083-.194706-.2056748-.415701-.28125-.625-.00796-.02181-.023589-.04055-.03125-.0625-.0318251-.09195-.0358045-.186831-.0625-.28125-.0303323-.106618-.0703894-.203031-.09375-.3125C7.0521214 85.720988 7 85.364295 7 85V13c0-2.781848 2.2181517-5 5-5h72c2.781848 0 5 2.218152 5 5v72c0 .364295-.05212.720988-.125 1.0625-.04415.206893-.08838.397658-.15625.59375-.0077.02195-.0233.04069-.03125.0625-.06274.173739-.138383.367449-.21875.53125-.04158.0828-.07904.169954-.125.25-.0546.09721-.126774.18835-.1875.28125-.09411.140965-.204921.275995-.3125.40625-.143174.17445-.303141.346998-.46875.5-.01117.0102-.01998.02115-.03125.03125-.138386.125556-.285091.234436-.4375.34375-.102571.07315-.204318.153364-.3125.21875-.0074.0045-.02384-.0044-.03125 0-.232039.138728-.462548.274778-.71875.375.301527-.0968.596455-.204138.875-.34375.55709-.279224 1.060053-.665694 1.5-1.09375.219973-.214028.409366-.441865.59375-.6875s.355408-.507743.5-.78125c.14012-.265048.276135-.524729.375-.8125.01041-.03078.02133-.06274.03125-.09375.09046-.278085.1388-.579404.1875-.875C89.95865 84.6507 90 84.334721 90 84V12c0-3.324-2.676-6-6-6H12z" opacity=".35"/>
  <g clip-path="url(#O)">
    <g transform="rotate(-3.333 94.55086494 183.97760847)">
      <use xlink:href="#P" opacity=".07999998"/>
      <use xlink:href="#Q" opacity=".12000002"/>
      <rect width="84" height="42" x="-84.640617" y="28.1131" opacity=".3" rx="6" ry="6" transform="rotate(-87.227)"/>
      <g transform="rotate(-87.227 56.40056627 36.01210735)">
        <rect width="84" height="42" x="6" y="6" fill="url(#R)" rx="6" ry="6"/>
        <use xlink:href="#S" color="#000" enable-background="accumulate" opacity=".5" overflow="visible" style="marker:none"/>
        <use xlink:href="#T"/>
        <use xlink:href="#U" color="#000" enable-background="accumulate" overflow="visible" style="marker:none"/>
        <use xlink:href="#V" color="#000" enable-background="accumulate" overflow="visible" style="marker:none"/>
        <path fill="url(#W)" stroke="#edecc5" stroke-width=".77459669" d="M17 16a3.5 6 0 1 1-7 0 3.5 6 0 1 1 7 0z" color="#000" enable-background="accumulate" overflow="visible" style="marker:none" transform="matrix(1.42857 0 0 1.16667 -4.2857143 -1.6666667)"/>
        <use xlink:href="#X" color="#000" enable-background="accumulate" opacity=".4" overflow="visible" style="marker:none" transform="matrix(1.1767 0 0 1.68935 -2.6504522 -11.718917)"/>
        <use xlink:href="#Y" font-family="Kedage" font-size="12" font-weight="bold" letter-spacing="0" opacity=".15" style="text-align:start;line-height:125%;-inkscape-font-specification:Kedage Bold" word-spacing="0"/>
        <use xlink:href="#Z" font-family="Kedage" font-size="12" font-weight="bold" letter-spacing="0" opacity=".3" style="text-align:start;line-height:125%;-inkscape-font-specification:Kedage Bold" word-spacing="0"/>
        <use xlink:href="#aa" font-family="Kedage" font-size="12" font-weight="bold" letter-spacing="0" style="text-align:start;line-height:125%;-inkscape-font-specification:Kedage Bold" word-spacing="0"/>
        <path fill="url(#ab)" stroke="#edecc5" stroke-dashoffset="8.6" stroke-linecap="round" stroke-width=".75" d="M17 38a3.5 5 0 1 1-7 0 3.5 5 0 1 1 7 0z" color="#000" enable-background="accumulate" overflow="visible" style="marker:none" transform="translate(0 1)"/>
        <use xlink:href="#Y" font-family="Kedage" font-size="12" font-weight="bold" letter-spacing="0" opacity=".15" style="text-align:start;line-height:125%;-inkscape-font-specification:Kedage Bold" transform="translate(4.4555159 28.434121) scale(.60347)" word-spacing="0"/>
        <use xlink:href="#ac" font-family="Kedage" font-size="12" font-weight="bold" letter-spacing="0" opacity=".3" style="text-align:start;line-height:125%;-inkscape-font-specification:Kedage Bold" word-spacing="0"/>
        <use xlink:href="#ad" font-family="Kedage" font-size="12" font-weight="bold" letter-spacing="0" style="text-align:start;line-height:125%;-inkscape-font-specification:Kedage Bold" word-spacing="0"/>
        <g transform="translate(66)">
          <path fill="url(#ae)" stroke="#edecc5" stroke-width=".77459669" d="M17 16a3.5 6 0 1 1-7 0 3.5 6 0 1 1 7 0z" color="#000" enable-background="accumulate" overflow="visible" style="marker:none" transform="matrix(1.42857 0 0 1.16667 -4.2857143 -1.6666667)"/>
          <use xlink:href="#X" color="#000" enable-background="accumulate" opacity=".4" overflow="visible" style="marker:none" transform="matrix(1.1767 0 0 1.68935 -2.6504522 -11.718917)"/>
          <use xlink:href="#Y" font-family="Kedage" font-size="12" font-weight="bold" letter-spacing="0" opacity=".15" style="text-align:start;line-height:125%;-inkscape-font-specification:Kedage Bold" word-spacing="0"/>
          <use xlink:href="#Z" font-family="Kedage" font-size="12" font-weight="bold" letter-spacing="0" opacity=".3" style="text-align:start;line-height:125%;-inkscape-font-specification:Kedage Bold" word-spacing="0"/>
          <use xlink:href="#aa" font-family="Kedage" font-size="12" font-weight="bold" letter-spacing="0" style="text-align:start;line-height:125%;-inkscape-font-specification:Kedage Bold" word-spacing="0"/>
        </g>
        <g transform="translate(69)">
          <path fill="url(#af)" stroke="#edecc5" stroke-dashoffset="8.6" stroke-linecap="round" stroke-width=".75" d="M17 38a3.5 5 0 1 1-7 0 3.5 5 0 1 1 7 0z" color="#000" enable-background="accumulate" overflow="visible" style="marker:none" transform="translate(0 1)"/>
          <use xlink:href="#Y" font-family="Kedage" font-size="12" font-weight="bold" letter-spacing="0" opacity=".15" style="text-align:start;line-height:125%;-inkscape-font-specification:Kedage Bold" transform="translate(4.4555159 28.434121) scale(.60347)" word-spacing="0"/>
          <use xlink:href="#ac" font-family="Kedage" font-size="12" font-weight="bold" letter-spacing="0" opacity=".3" style="text-align:start;line-height:125%;-inkscape-font-specification:Kedage Bold" word-spacing="0"/>
          <use xlink:href="#ad" font-family="Kedage" font-size="12" font-weight="bold" letter-spacing="0" style="text-align:start;line-height:125%;-inkscape-font-specification:Kedage Bold" word-spacing="0"/>
        </g>
        <use xlink:href="#ag" color="#000" enable-background="accumulate" opacity=".5" overflow="visible" style="marker:none"/>
        <use xlink:href="#ah" color="#000" enable-background="accumulate" opacity=".4" overflow="visible" style="marker:none"/>
        <use xlink:href="#ai" color="#000" enable-background="accumulate" opacity=".5" overflow="visible" style="marker:none"/>
        <path fill="url(#aj)" stroke="#f0eec9" stroke-width=".75020194" d="M56 28a8 12 0 1 1-16 0 8 12 0 1 1 16 0z" color="#000" enable-background="accumulate" overflow="visible" style="marker:none" transform="matrix(1.25 0 0 1.08333 -12 -.3333333)"/>
        <path fill="url(#ak)" d="M46 20v3.46875c-2.158577.514601-3.625 2.073648-3.625 4.125 0 1.016042.403076 1.961064 1.125 2.65625.656652.634764 1.336448.995261 2.5 1.3125v3.125c-.954224-.586685-1.792549-1.569239-2.53125-3.03125h-1.1875l.125 4.625h1.125l1.03125-.5c.41221.245097.915042.439945 1.4375.59375V40h1v-3.40625c.442271.07114.887288.125 1.34375.125.224095 0 .442057-.044.65625-.0625V40h1v-3.5c2.250066-.536038 3.71875-2.135258 3.71875-4.3125 0-1.122993-.407588-2.081552-1.15625-2.75-.606198-.536251-1.166826-.781508-2.5625-1.15625V25.5c.64444.502322 1.228361 1.251414 1.84375 2.28125h1.25L53 23.53125h-1.15625l-.96875.59375c-.284233-.164556-.584913-.290742-.875-.40625V20h-1v3.40625c-.451956-.09226-.94619-.125-1.46875-.125-.187166 0-.350886.01732-.53125.03125V20h-1zm1.5625 4.65625c.512107 0 .993193.108384 1.4375.28125v3.09375l-2-.5v-2.8125c.180333-.0285.362781-.0625.5625-.0625zM46 25.0625v2.125c-.484526-.232825-.6875-.507954-.6875-.96875 0-.467914.26822-.881048.6875-1.15625zm1 6.75 1.78125.40625c.0864.01901.138977.0421.21875.0625v3c-.204867.03293-.420065.0625-.65625.0625-.478808 0-.919088-.0601-1.34375-.1875V31.8125zm3 .84375c.45345.272574.65625.60706.65625 1.09375 0 .494311-.237939.912732-.65625 1.1875v-2.28125z" font-family="Century Schoolbook L" font-size="24" font-weight="bold" letter-spacing="0" style="text-align:start;line-height:125%;-inkscape-font-specification:Century Schoolbook L Bold" word-spacing="0"/>
        <g fill="#536741" font-family="Century Schoolbook L" font-size="3.98936176" font-weight="bold" letter-spacing="0" style="text-align:start;line-height:125%;-inkscape-font-specification:Century Schoolbook L Bold" word-spacing="0">
          <use xlink:href="#al"/>
          <use xlink:href="#am"/>
          <use xlink:href="#an"/>
        </g>
        <rect width="32" height="4" x="32" y="41" fill="#87a26b" color="#000" enable-background="accumulate" overflow="visible" rx="2" style="marker:none"/>
        <use xlink:href="#ao" font-family="Century Schoolbook L" font-size="3.32446814" font-weight="bold" letter-spacing="0" style="text-align:start;line-height:125%;-inkscape-font-specification:Century Schoolbook L Bold" word-spacing="0"/>
        <use xlink:href="#ap" fill="#e0e4b1" font-family="Century Schoolbook L" font-size="3.32446814" font-weight="bold" letter-spacing="0" style="text-align:start;line-height:125%;-inkscape-font-specification:Century Schoolbook L Bold" word-spacing="0"/>
        <use xlink:href="#aq" color="#000" enable-background="accumulate" opacity=".8" overflow="visible" style="marker:none"/>
        <use xlink:href="#ar" color="#000" enable-background="accumulate" opacity=".8" overflow="visible" style="marker:none"/>
        <use xlink:href="#as" color="#000" enable-background="accumulate" opacity=".6" overflow="visible" style="marker:none" transform="matrix(.5 0 0 .5 34 14)"/>
        <use xlink:href="#at" color="#000" enable-background="accumulate" opacity=".75" overflow="visible" style="marker:none"/>
        <use xlink:href="#au" fill="#637551" font-family="Century Schoolbook L" font-size="12" font-weight="500" letter-spacing="0" opacity=".8" style="text-align:start;line-height:125%;-inkscape-font-specification:Century Schoolbook L Medium" transform="translate(9.9227042 14.153814) scale(.5771)" word-spacing="0"/>
      </g>
    </g>
    <g transform="translate(3)">
      <use xlink:href="#P" opacity=".07999998"/>
      <use xlink:href="#Q" opacity=".12000002"/>
      <rect width="84" height="42" x="-84.640617" y="28.1131" opacity=".3" rx="6" ry="6" transform="rotate(-87.227)"/>
      <g transform="rotate(-87.227 56.40056627 36.01210735)">
        <rect width="84" height="42" x="6" y="6" fill="url(#av)" rx="6" ry="6"/>
        <use xlink:href="#S" color="#000" enable-background="accumulate" opacity=".5" overflow="visible" style="marker:none"/>
        <use xlink:href="#T"/>
        <use xlink:href="#U" color="#000" enable-background="accumulate" overflow="visible" style="marker:none"/>
        <use xlink:href="#V" color="#000" enable-background="accumulate" overflow="visible" style="marker:none"/>
        <path fill="url(#aw)" stroke="#edecc5" stroke-width=".77459669" d="M17 16a3.5 6 0 1 1-7 0 3.5 6 0 1 1 7 0z" color="#000" enable-background="accumulate" overflow="visible" style="marker:none" transform="matrix(1.42857 0 0 1.16667 -4.2857143 -1.6666667)"/>
        <use xlink:href="#X" color="#000" enable-background="accumulate" opacity=".4" overflow="visible" style="marker:none" transform="matrix(1.1767 0 0 1.68935 -2.6504522 -11.718917)"/>
        <use xlink:href="#Y" font-family="Kedage" font-size="12" font-weight="bold" letter-spacing="0" opacity=".15" style="text-align:start;line-height:125%;-inkscape-font-specification:Kedage Bold" word-spacing="0"/>
        <use xlink:href="#Z" font-family="Kedage" font-size="12" font-weight="bold" letter-spacing="0" opacity=".3" style="text-align:start;line-height:125%;-inkscape-font-specification:Kedage Bold" word-spacing="0"/>
        <use xlink:href="#aa" font-family="Kedage" font-size="12" font-weight="bold" letter-spacing="0" style="text-align:start;line-height:125%;-inkscape-font-specification:Kedage Bold" word-spacing="0"/>
        <path fill="url(#ax)" stroke="#edecc5" stroke-dashoffset="8.6" stroke-linecap="round" stroke-width=".75" d="M17 38a3.5 5 0 1 1-7 0 3.5 5 0 1 1 7 0z" color="#000" enable-background="accumulate" overflow="visible" style="marker:none" transform="translate(0 1)"/>
        <use xlink:href="#Y" font-family="Kedage" font-size="12" font-weight="bold" letter-spacing="0" opacity=".15" style="text-align:start;line-height:125%;-inkscape-font-specification:Kedage Bold" transform="translate(4.4555159 28.434121) scale(.60347)" word-spacing="0"/>
        <use xlink:href="#ac" font-family="Kedage" font-size="12" font-weight="bold" letter-spacing="0" opacity=".3" style="text-align:start;line-height:125%;-inkscape-font-specification:Kedage Bold" word-spacing="0"/>
        <use xlink:href="#ad" font-family="Kedage" font-size="12" font-weight="bold" letter-spacing="0" style="text-align:start;line-height:125%;-inkscape-font-specification:Kedage Bold" word-spacing="0"/>
        <g transform="translate(66)">
          <path fill="url(#ay)" stroke="#edecc5" stroke-width=".77459669" d="M17 16a3.5 6 0 1 1-7 0 3.5 6 0 1 1 7 0z" color="#000" enable-background="accumulate" overflow="visible" style="marker:none" transform="matrix(1.42857 0 0 1.16667 -4.2857143 -1.6666667)"/>
          <use xlink:href="#X" color="#000" enable-background="accumulate" opacity=".4" overflow="visible" style="marker:none" transform="matrix(1.1767 0 0 1.68935 -2.6504522 -11.718917)"/>
          <use xlink:href="#Y" font-family="Kedage" font-size="12" font-weight="bold" letter-spacing="0" opacity=".15" style="text-align:start;line-height:125%;-inkscape-font-specification:Kedage Bold" word-spacing="0"/>
          <use xlink:href="#Z" font-family="Kedage" font-size="12" font-weight="bold" letter-spacing="0" opacity=".3" style="text-align:start;line-height:125%;-inkscape-font-specification:Kedage Bold" word-spacing="0"/>
          <use xlink:href="#aa" font-family="Kedage" font-size="12" font-weight="bold" letter-spacing="0" style="text-align:start;line-height:125%;-inkscape-font-specification:Kedage Bold" word-spacing="0"/>
        </g>
        <g transform="translate(69)">
          <path fill="url(#az)" stroke="#edecc5" stroke-dashoffset="8.6" stroke-linecap="round" stroke-width=".75" d="M17 38a3.5 5 0 1 1-7 0 3.5 5 0 1 1 7 0z" color="#000" enable-background="accumulate" overflow="visible" style="marker:none" transform="translate(0 1)"/>
          <use xlink:href="#Y" font-family="Kedage" font-size="12" font-weight="bold" letter-spacing="0" opacity=".15" style="text-align:start;line-height:125%;-inkscape-font-specification:Kedage Bold" transform="translate(4.4555159 28.434121) scale(.60347)" word-spacing="0"/>
          <use xlink:href="#ac" font-family="Kedage" font-size="12" font-weight="bold" letter-spacing="0" opacity=".3" style="text-align:start;line-height:125%;-inkscape-font-specification:Kedage Bold" word-spacing="0"/>
          <use xlink:href="#ad" font-family="Kedage" font-size="12" font-weight="bold" letter-spacing="0" style="text-align:start;line-height:125%;-inkscape-font-specification:Kedage Bold" word-spacing="0"/>
        </g>
        <use xlink:href="#ag" color="#000" enable-background="accumulate" opacity=".5" overflow="visible" style="marker:none"/>
        <use xlink:href="#ah" color="#000" enable-background="accumulate" opacity=".4" overflow="visible" style="marker:none"/>
        <use xlink:href="#ai" color="#000" enable-background="accumulate" opacity=".5" overflow="visible" style="marker:none"/>
        <path fill="url(#aA)" stroke="#f0eec9" stroke-width=".75020194" d="M56 28a8 12 0 1 1-16 0 8 12 0 1 1 16 0z" color="#000" enable-background="accumulate" overflow="visible" style="marker:none" transform="matrix(1.25 0 0 1.08333 -12 -.3333333)"/>
        <path fill="url(#aB)" d="M46 20v3.46875c-2.158577.514601-3.625 2.073648-3.625 4.125 0 1.016042.403076 1.961064 1.125 2.65625.656652.634764 1.336448.995261 2.5 1.3125v3.125c-.954224-.586685-1.792549-1.569239-2.53125-3.03125h-1.1875l.125 4.625h1.125l1.03125-.5c.41221.245097.915042.439945 1.4375.59375V40h1v-3.40625c.442271.07114.887288.125 1.34375.125.224095 0 .442057-.044.65625-.0625V40h1v-3.5c2.250066-.536038 3.71875-2.135258 3.71875-4.3125 0-1.122993-.407588-2.081552-1.15625-2.75-.606198-.536251-1.166826-.781508-2.5625-1.15625V25.5c.64444.502322 1.228361 1.251414 1.84375 2.28125h1.25L53 23.53125h-1.15625l-.96875.59375c-.284233-.164556-.584913-.290742-.875-.40625V20h-1v3.40625c-.451956-.09226-.94619-.125-1.46875-.125-.187166 0-.350886.01732-.53125.03125V20h-1zm1.5625 4.65625c.512107 0 .993193.108384 1.4375.28125v3.09375l-2-.5v-2.8125c.180333-.0285.362781-.0625.5625-.0625zM46 25.0625v2.125c-.484526-.232825-.6875-.507954-.6875-.96875 0-.467914.26822-.881048.6875-1.15625zm1 6.75 1.78125.40625c.0864.01901.138977.0421.21875.0625v3c-.204867.03293-.420065.0625-.65625.0625-.478808 0-.919088-.0601-1.34375-.1875V31.8125zm3 .84375c.45345.272574.65625.60706.65625 1.09375 0 .494311-.237939.912732-.65625 1.1875v-2.28125z" font-family="Century Schoolbook L" font-size="24" font-weight="bold" letter-spacing="0" style="text-align:start;line-height:125%;-inkscape-font-specification:Century Schoolbook L Bold" word-spacing="0"/>
        <g fill="#536741" font-family="Century Schoolbook L" font-size="3.98936176" font-weight="bold" letter-spacing="0" style="text-align:start;line-height:125%;-inkscape-font-specification:Century Schoolbook L Bold" word-spacing="0">
          <use xlink:href="#al"/>
          <use xlink:href="#am"/>
          <use xlink:href="#an"/>
        </g>
        <rect width="32" height="4" x="32" y="41" fill="#87a26b" color="#000" enable-background="accumulate" overflow="visible" rx="2" style="marker:none"/>
        <use xlink:href="#ao" font-family="Century Schoolbook L" font-size="3.32446814" font-weight="bold" letter-spacing="0" style="text-align:start;line-height:125%;-inkscape-font-specification:Century Schoolbook L Bold" word-spacing="0"/>
        <use xlink:href="#ap" fill="#e0e4b1" font-family="Century Schoolbook L" font-size="3.32446814" font-weight="bold" letter-spacing="0" style="text-align:start;line-height:125%;-inkscape-font-specification:Century Schoolbook L Bold" word-spacing="0"/>
        <use xlink:href="#aq" color="#000" enable-background="accumulate" opacity=".8" overflow="visible" style="marker:none"/>
        <use xlink:href="#ar" color="#000" enable-background="accumulate" opacity=".8" overflow="visible" style="marker:none"/>
        <use xlink:href="#as" color="#000" enable-background="accumulate" opacity=".6" overflow="visible" style="marker:none" transform="matrix(.5 0 0 .5 34 14)"/>
        <use xlink:href="#at" color="#000" enable-background="accumulate" opacity=".75" overflow="visible" style="marker:none"/>
        <use xlink:href="#au" fill="#637551" font-family="Century Schoolbook L" font-size="12" font-weight="500" letter-spacing="0" opacity=".8" style="text-align:start;line-height:125%;-inkscape-font-specification:Century Schoolbook L Medium" transform="translate(9.9227042 14.153814) scale(.5771)" word-spacing="0"/>
      </g>
    </g>
  </g>
  <path fill="url(#aC)" d="M17.59375 10v4H72.5l.1875-4H17.59375z" color="#000" enable-background="accumulate" opacity=".4" overflow="visible" style="marker:none"/>
  <path d="M66 38.96875c-3.311516 0-6.03125 2.719734-6.03125 6.03125v12c0 3.311516 2.719734 6.03125 6.03125 6.03125h24V39H75v-.03125h-9z" color="#000" enable-background="accumulate" opacity=".07999998" overflow="visible" style="marker:none"/>
  <path d="M66 39.875c-2.824092 0-5.125 2.300908-5.125 5.125v12c0 2.824092 2.300908 5.125 5.125 5.125h24V40H75v-.125h-9z" color="#000" enable-background="accumulate" opacity=".12000002" overflow="visible" style="marker:none"/>
  <path d="M66 41c-2.216 0-4 1.784-4 4v12c0 2.216 1.784 4 4 4h24V41H66z" color="#000" enable-background="accumulate" opacity=".3" overflow="visible" style="marker:none"/>
  <path fill="url(#aD)" d="M90 36.0625V40H66c-2.216 0-4 1.784-4 4v12c0 2.216 1.784 4 4 4h24c1.108 0 2-.892 2-2V38.5c0-1.211875-.85874-2.205146-2-2.4375z" color="#000" enable-background="accumulate" overflow="visible" style="marker:none"/>
  <path fill="url(#aE)" d="M90 37.09375v2.8125c.586412-.20384 1-.750412 1-1.40625s-.413588-1.20241-1-1.40625z" color="#000" enable-background="accumulate" opacity=".8" overflow="visible" style="marker:none"/>
  <path d="M90 36.0625v3.84375c.557604-.193826.961912-.699625 1-1.3125.002-.03166 0-.06153 0-.09375v-1.96875c-.293826-.221914-.624464-.392293-1-.46875z" color="#000" enable-background="accumulate" opacity=".3" overflow="visible" style="marker:none"/>
  <path fill="url(#aF)" d="M90 36.0625V40h-5v20h5c1.108 0 2-.892 2-2V38.5c0-1.211875-.85874-2.205146-2-2.4375z" color="#000" enable-background="accumulate" opacity=".3" overflow="visible" style="marker:none"/>
  <path fill="#fff" d="M91 38.5c0 .657875-.412983 1.202994-1 1.40625V40H66c-2.216 0-4 1.784-4 4v1c0-2.216 1.784-4 4-4h24v-.09375c.587017-.203256 1-.748375 1-1.40625v-1z" color="#000" enable-background="accumulate" opacity=".3" overflow="visible" style="marker:none"/>
  <path fill="#784421" d="M62 55v1c0 2.216 1.784 4 4 4h24c1.108 0 2-.892 2-2v-1c0 1.108-.892 2-2 2H66c-2.216 0-4-1.784-4-4z" color="#000" enable-background="accumulate" opacity=".2" overflow="visible" style="marker:none"/>
  <path fill="url(#aG)" d="M67.40625 44 67 44.03125h-.0625l-.03125.03125-.375.125H66.5l-.0625.03125-.3125.1875h-.0625l-.03125.03125-.28125.25-.03125.03125-.03125.03125-.25.28125.78125.625.15625-.1875.03125-.03125.0625-.0625.125-.09375.0625-.03125.03125-.03125.15625-.09375.0625-.03125h.03125l.25-.0625.25-.03125h1.125v-1h-1.15625zm4.15625 0v1h3v-1h-3zm6 0v1h3v-1h-3zm6 0v1h3v-1h-3zm6 0v1H92v-1h-2.4375zM65 48.28125v3h1v-3h-1zm0 6v1.3125L65.03125 56v.0625l.03125.03125.125.375V56.5l.03125.0625.1875.3125v.0625l.03125.03125.25.28125.03125.03125.03125.03125.15625.125.625-.75-.0625-.0625-.09375-.09375-.09375-.125-.03125-.0625-.03125-.03125-.09375-.15625-.03125-.0625v-.03125l-.0625-.25-.03125-.25v-1.28125h-1zM69.125 57v1h3v-1h-3zm6 0v1h3v-1h-3zm6 0v1h3v-1h-3zm6 0v1h3v-1h-3z" color="#000" enable-background="accumulate" font-family="Sans" opacity=".2" overflow="visible" style="text-indent:0;text-align:start;line-height:normal;text-transform:none;block-progression:tb;marker:none;-inkscape-font-specification:Sans"/>
  <path fill="url(#aH)" d="M67.40625 43 67 43.03125h-.0625l-.03125.03125-.375.125H66.5l-.0625.03125-.3125.1875h-.0625l-.03125.03125-.28125.25-.03125.03125-.03125.03125-.25.28125.78125.625.15625-.1875.03125-.03125.0625-.0625.125-.09375.0625-.03125.03125-.03125.15625-.09375.0625-.03125h.03125l.25-.0625.25-.03125h1.125v-1h-1.15625zm4.15625 0v1h3v-1h-3zm6 0v1h3v-1h-3zm6 0v1h3v-1h-3zm6 0v1H92v-1h-2.4375zM65 47.28125v3h1v-3h-1zm0 6v1.3125L65.03125 55v.0625l.03125.03125.125.375V55.5l.03125.0625.1875.3125v.0625l.03125.03125.25.28125.03125.03125.03125.03125.15625.125.625-.75-.0625-.0625-.09375-.09375-.09375-.125-.03125-.0625-.03125-.03125-.09375-.15625-.03125-.0625v-.03125l-.0625-.25-.03125-.25v-1.28125h-1zM69.125 56v1h3v-1h-3zm6 0v1h3v-1h-3zm6 0v1h3v-1h-3zm6 0v1h3v-1h-3z" color="#000" enable-background="accumulate" font-family="Sans" opacity=".7" overflow="visible" style="text-indent:0;text-align:start;line-height:normal;text-transform:none;block-progression:tb;marker:none;-inkscape-font-specification:Sans"/>
  <path d="M80 52a4 4 0 1 1-8 0 4 4 0 1 1 8 0z" color="#000" enable-background="accumulate" opacity=".3" overflow="visible" style="marker:none" transform="translate(-4 -1)"/>
  <path d="M76 47.09375c-2.695455 0-4.90625 2.210795-4.90625 4.90625S73.304545 56.90625 76 56.90625 80.90625 54.695455 80.90625 52 78.695455 47.09375 76 47.09375z" color="#000" enable-background="accumulate" opacity=".12000002" overflow="visible" style="marker:none" transform="translate(-4 -1)"/>
  <path fill="url(#aI)" d="M80 52a4 4 0 1 1-8 0 4 4 0 1 1 8 0z" color="#000" enable-background="accumulate" overflow="visible" style="marker:none" transform="translate(-4 -2)"/>
  <path fill="url(#aJ)" d="M72 47c-1.656854 0-3 1.343146-3 3 0 .174764.03382.333425.0625.5C69.305716 49.087354 70.51791 48 72 48s2.694284 1.087354 2.9375 2.5c.028679-.166575.0625-.325236.0625-.5 0-1.656854-1.343146-3-3-3z" color="#000" enable-background="accumulate" opacity=".6" overflow="visible" style="marker:none"/>
</svg>