<?xml version="1.0" encoding="UTF-8" standalone="no"?>
<svg xmlns="http://www.w3.org/2000/svg" xmlns:xlink="http://www.w3.org/1999/xlink" width="96" height="96" version="1.0">
  <defs>
    <path id="p" fill="#915b22" fill-rule="evenodd" d="M66.99966356 47.99999699a19.00000003 19.00000003 0 1 1-38.00000005 0 19.00000003 19.00000003 0 1 1 38.00000005 0z"/>
    <path id="q" fill="#bc8946" fill-rule="evenodd" d="M65.00000133 47.999999a17.0000006 17.0000006 0 1 1-34.0000012 0 17.0000006 17.0000006 0 1 1 34.0000012 0z"/>
    <path id="r" fill="#d5c5aa" fill-rule="evenodd" d="M62.99966787 47.99999866a15.00000026 15.00000026 0 1 1-30.00000052 0 15.00000026 15.00000026 0 1 1 30.00000052 0z" opacity=".6"/>
    <path id="s" fill="#f2ece2" d="M49.05143813 33.0018798a.13573993.14370178 0 0 0-.02919828.0309109.13573993.14370178 0 0 0-.02919828.03091092.13573993.14370178 0 0 0-.02919829.0309109.13573993.14370178 0 0 0-.02919828.03091092.13573993.14370178 0 0 0 0 .03091091v14.1262863a.13573993.14370178 0 0 0 .02919828.06182182.13573993.14370178 0 0 0 0 .03091091.13573993.14370178 0 0 0 .02919829.03091091.13573993.14370178 0 0 0 .02919828 0 .13573993.14370178 0 0 0 .05839656.03091091.13573993.14370178 0 0 0 .02919828 0 .13573993.14370178 0 0 0 .02919828-.0309109l.78835356-.46366367c1.89910007-1.12435298 4.53244766-2.73703505 6.6864062-4.08024025 1.07697927-.6716026 2.0253824-1.28603435 2.71544007-1.731011.3450293-.22248834.62455728-.39409681.81755184-.5254855.09649728-.06568939.18015666-.11446137.23358625-.15455455.02671292-.02005005.04024223-.04569869.05839656-.06182182.00906314-.00811102.01882705-.01886307.02919828-.03091091.00523233-.00603381.02163943.01284905.02919828 0 .00373738-.00642947-.0002121-.03032731 0-.03091091.0002121-.00058261.02918893-.06136682.02919828-.06182182.00177525-.09916517-.04458694-.16114922-.08759484-.2472873-.0430079-.0861351-.10162123-.19387026-.17518968-.3091091-.14713785-.23047769-.3514791-.49794757-.58396561-.80368369-.46497397-.61147222-1.04778847-1.29332636-1.51831058-1.76192192-2.15806311-2.1492292-5.02272368-3.62108809-7.73754428-3.92568569-.3798458-.04261254-.82328219-.12081566-.99274153-.15455455l-.32118108-.06182182a.13573993.14370178 0 0 0-.02919828 0 .13573993.14370178 0 0 0-.02919828 0z" opacity=".6"/>
    <path id="t" fill="none" stroke="#2b1100" stroke-linejoin="round" d="M59.5 47.999999C59.5 54.347999 54.348 59.5 48 59.5s-11.5-5.152001-11.5-11.500001C36.5 41.651999 41.652 36.5 48 36.5s11.5 5.151999 11.5 11.499999z" opacity=".5"/>
    <path id="u" fill="#2b1100" fill-rule="evenodd" d="M48 24v48h1V24h-1z" opacity=".5"/>
    <path id="v" fill="#2b1100" fill-rule="evenodd" d="M76 47H20v1h56v-1z" opacity=".5"/>
    <path id="w" fill="#2b1100" fill-rule="evenodd" d="M60.93717 40.3125 47.62467 48l.375.65625 13.359375-7.710938c-.149797-.203866-.297788-.413423-.421875-.632812z" opacity=".5"/>
    <path id="x" d="M51.307151 54.001482c-.000007.936001-.308007 1.668001-.924 2.196-.584005.488-1.352005.731999-2.304.732-.936003-.000001-1.696002-.244-2.28-.732-.632001-.519999-.948001-1.235999-.948-2.148-.000001-.151998.008-.303997.024-.456h2.208c-.024.128003-.036.252002-.036.372-.000003.328002.092.592002.276.792.183997.200001.439997.300001.768.3.311996.000001.563996-.107999.756-.324.191995-.223998.287995-.491998.288-.804-.000005-.335997-.108005-.603997-.324-.804-.208004-.199997-.480004-.295997-.816-.288v-1.62c.311996.008.571996-.07999.78-.264.215995-.183994.323995-.427994.324-.732-.000005-.295994-.096-.535993-.288-.72-.192004-.183993-.436004-.275993-.732-.276-.296003.000007-.536003.08801-.72.264-.176003.168007-.272003.396006-.288.684h-2.028c-.000001-.839993.295999-1.511992.888-2.016.559998-.479991 1.267997-.719991 2.124-.72.839995.000009 1.547995.236009 2.124.708.623994.496008.935993 1.156007.936 1.98-.000007.832005-.304006 1.444005-.912 1.836.735993.408004 1.103993 1.088003 1.104 2.04" font-weight="normal" style="-inkscape-font-specification:Abandoned Bitplane"/>
  </defs>
  <defs>
    <linearGradient id="d">
      <stop offset="0" stop-color="#6b3715"/>
      <stop offset="1" stop-color="#6b3715" stop-opacity="0"/>
    </linearGradient>
    <linearGradient id="e">
      <stop offset="0" stop-color="#f7e0c0"/>
      <stop offset="1" stop-color="#b67e35"/>
    </linearGradient>
    <linearGradient id="a">
      <stop offset="0" stop-color="#fff"/>
      <stop offset="1" stop-color="#fff" stop-opacity="0"/>
    </linearGradient>
    <linearGradient xlink:href="#a" id="E" x1="36.357143" x2="36.357143" y1="6" y2="63.893143" gradientUnits="userSpaceOnUse"/>
    <linearGradient xlink:href="#a" id="B" x1="48" x2="48" y1="20.220806" y2="138.66119" gradientUnits="userSpaceOnUse"/>
    <linearGradient id="b" x1="45.447727" x2="45.447727" y1="92.539597" y2="7.0165396" gradientTransform="matrix(1.00587 0 0 .99417 100 0)" gradientUnits="userSpaceOnUse">
      <stop offset="0"/>
      <stop offset="1" stop-opacity=".58823532"/>
    </linearGradient>
    <linearGradient xlink:href="#b" id="i" x1="32.251034" x2="32.251034" y1="6.1317081" y2="90.238609" gradientTransform="matrix(1.0238 0 0 -1.0119 -1.1428571 98.071429)" gradientUnits="userSpaceOnUse"/>
    <linearGradient xlink:href="#b" id="j" x1="32.251034" x2="32.251034" y1="6.1317081" y2="90.238609" gradientTransform="matrix(1 0 0 -1 0 97)" gradientUnits="userSpaceOnUse"/>
    <linearGradient id="c" x1="58.650177" x2="58.650177" y1="122" y2="5.4252338" gradientTransform="translate(-1.1034483 -1.1034483) scale(1.01724)" gradientUnits="userSpaceOnUse">
      <stop offset="0"/>
      <stop offset="1" stop-color="#515151"/>
    </linearGradient>
    <linearGradient xlink:href="#c" id="l" x1="48" x2="48" y1="90" y2="5.9877172" gradientTransform="translate(-110)" gradientUnits="userSpaceOnUse"/>
    <linearGradient xlink:href="#b" id="h" x1="32.251034" x2="32.251034" y1="6.1317081" y2="90.238609" gradientTransform="matrix(1.0238 0 0 -1.0119 -1.1428571 98.071429)" gradientUnits="userSpaceOnUse"/>
    <linearGradient xlink:href="#b" id="g" x1="32.251034" x2="32.251034" y1="6.1317081" y2="90.238609" gradientTransform="matrix(1.0238 0 0 -1.0119 -1.1428571 98.071429)" gradientUnits="userSpaceOnUse"/>
    <linearGradient xlink:href="#b" id="f" x1="32.251034" x2="32.251034" y1="6.1317081" y2="90.238609" gradientTransform="matrix(1.0238 0 0 -1.0119 -1.1428571 98.071429)" gradientUnits="userSpaceOnUse"/>
    <linearGradient xlink:href="#c" id="k" x1="48" x2="48" y1="90" y2="5.9877172" gradientUnits="userSpaceOnUse"/>
    <linearGradient xlink:href="#d" id="z" x1="48.495441" x2="48.495441" y1="90.434654" y2="52.387913" gradientUnits="userSpaceOnUse"/>
    <radialGradient xlink:href="#a" id="F" cx="48" cy="90.171875" r="42" fx="48" fy="90.171875" gradientTransform="matrix(1.15731 0 0 .9959 -7.5510206 .19713193)" gradientUnits="userSpaceOnUse"/>
    <radialGradient xlink:href="#e" id="m" cx="48" cy="48" r="28" fx="48" fy="48" gradientTransform="matrix(1.14286 0 0 .85714 -6.8571431 3.8571432)" gradientUnits="userSpaceOnUse"/>
    <radialGradient xlink:href="#e" id="o" cx="48" cy="48" r="28" fx="48" fy="48" gradientTransform="matrix(1.14286 0 0 -.85714 -6.8571431 38.142857)" gradientUnits="userSpaceOnUse"/>
    <radialGradient xlink:href="#e" id="n" cx="48" cy="48" r="28" fx="48" fy="48" gradientTransform="matrix(1.14286 0 0 .85714 -6.8571431 57.857143)" gradientUnits="userSpaceOnUse"/>
    <clipPath id="C">
      <rect width="84" height="84" x="6" y="6" fill="#fff" rx="6" ry="6"/>
    </clipPath>
    <clipPath id="y">
      <path fill="red" d="M22 24c-1.108 0-2 .93035-2 2.09375V36h56v-9.90625C76 24.93035 75.108 24 74 24H22z"/>
    </clipPath>
    <clipPath id="A">
      <path fill="red" d="M22 72c-1.108 0-2-.93035-2-2.09375V60h56v9.90625C76 71.06965 75.108 72 74 72H22z"/>
    </clipPath>
    <filter id="D" width="1.3839999" height="1.3839999" x="-.192" y="-.192" color-interpolation-filters="sRGB">
      <feGaussianBlur stdDeviation="5.28"/>
    </filter>
  </defs>
  <path fill="url(#f)" d="M12 4C6.4912778 4 2 8.4912778 2 14v71c0 5.508722 4.4912778 10 10 10h72c5.508722 0 10-4.491278 10-10V14c0-5.5087222-4.491278-10-10-10H12z" opacity=".07999998"/>
  <path fill="url(#g)" d="M12 5.03125c-4.946415 0-8.96875 4.022335-8.96875 8.96875v71c0 4.946415 4.022335 8.96875 8.96875 8.96875h72c4.946415 0 8.96875-4.022335 8.96875-8.96875V14c0-4.946415-4.022335-8.96875-8.96875-8.96875H12zm-.03125 7.9375h2.0625v.0625h-2.0625v-.0625zm70 0h2.0625v.0625h-2.0625v-.0625zm-70 8h2.0625v.0625h-2.0625v-.0625zm70 0h2.0625v.0625h-2.0625v-.0625zm-70 8h2.0625v.0625h-2.0625v-.0625zm70 0h2.0625v.0625h-2.0625v-.0625zm-70 8h2.0625v.0625h-2.0625v-.0625zm70 0h2.0625v.0625h-2.0625v-.0625zm-70 8h2.0625v.0625h-2.0625v-.0625zm70 0h2.0625v.0625h-2.0625v-.0625zm-70 8h2.0625v.0625h-2.0625v-.0625zm70 0h2.0625v.0625h-2.0625v-.0625zm-70 8h2.0625v.0625h-2.0625v-.0625zm70 0h2.0625v.0625h-2.0625v-.0625zm-70 8h2.0625v.0625h-2.0625v-.0625zm70 0h2.0625v.0625h-2.0625v-.0625zm-70 8h2.0625v.0625h-2.0625v-.0625zm70 0h2.0625v.0625h-2.0625v-.0625zm-70 8h2.0625v.0625h-2.0625v-.0625zm70 0h2.0625v.0625h-2.0625v-.0625z" opacity=".1"/>
  <path fill="url(#h)" d="M12 6c-4.4201936 0-8 3.5798064-8 8v71c0 4.420194 3.5798064 8 8 8h72c4.420194 0 8-3.579806 8-8V14c0-4.4201936-3.579806-8-8-8H12zm-1 6h4v2h-4v-2zm70 0h4v2h-4v-2zm-70 8h4v2h-4v-2zm70 0h4v2h-4v-2zm-70 8h4v2h-4v-2zm70 0h4v2h-4v-2zm-70 8h4v2h-4v-2zm70 0h4v2h-4v-2zm-70 8h4v2h-4v-2zm70 0h4v2h-4v-2zm-70 8h4v2h-4v-2zm70 0h4v2h-4v-2zm-70 8h4v2h-4v-2zm70 0h4v2h-4v-2zm-70 8h4v2h-4v-2zm70 0h4v2h-4v-2zm-70 8h4v2h-4v-2zm70 0h4v2h-4v-2zm-70 8h4v2h-4v-2zm70 0h4v2h-4v-2z" opacity=".2"/>
  <path fill="url(#i)" d="M12 7c-3.878 0-7 3.122-7 7v71c0 3.878 3.122 7 7 7h72c3.878 0 7-3.122 7-7V14c0-3.878-3.122-7-7-7H12zm-2 4h6v4h-6v-4zm70 0h6v4h-6v-4zm-70 8h6v4h-6v-4zm70 0h6v4h-6v-4zm-70 8h6v4h-6v-4zm70 0h6v4h-6v-4zm-70 8h6v4h-6v-4zm70 0h6v4h-6v-4zm-70 8h6v4h-6v-4zm70 0h6v4h-6v-4zm-70 8h6v4h-6v-4zm70 0h6v4h-6v-4zm-70 8h6v4h-6v-4zm70 0h6v4h-6v-4zm-70 8h6v4h-6v-4zm70 0h6v4h-6v-4zm-70 8h6v4h-6v-4zm70 0h6v4h-6v-4zm-70 8h6v4h-6v-4zm70 0h6v4h-6v-4z" opacity=".3"/>
  <path fill="url(#j)" d="M12 7c-3.324 0-6 2.676-6 6v72c0 3.324 2.676 6 6 6h72c3.324 0 6-2.676 6-6V13c0-3.324-2.676-6-6-6H12zm-2 4h6v4h-6v-4zm70 0h6v4h-6v-4zm-70 8h6v4h-6v-4zm70 0h6v4h-6v-4zm-70 8h6v4h-6v-4zm70 0h6v4h-6v-4zm-70 8h6v4h-6v-4zm70 0h6v4h-6v-4zm-70 8h6v4h-6v-4zm70 0h6v4h-6v-4zm-70 8h6v4h-6v-4zm70 0h6v4h-6v-4zm-70 8h6v4h-6v-4zm70 0h6v4h-6v-4zm-70 8h6v4h-6v-4zm70 0h6v4h-6v-4zm-70 8h6v4h-6v-4zm70 0h6v4h-6v-4zm-70 8h6v4h-6v-4zm70 0h6v4h-6v-4z" opacity=".45"/>
  <path fill="url(#k)" d="M12 6c-3.324 0-6 2.676-6 6v72c0 3.324 2.676 6 6 6h72c3.324 0 6-2.676 6-6V12c0-3.324-2.676-6-6-6H12zm-2 4h6v4h-6v-4zm70 0h6v4h-6v-4zm-70 8h6v4h-6v-4zm70 0h6v4h-6v-4zm-70 8h6v4h-6v-4zm70 0h6v4h-6v-4zm-70 8h6v4h-6v-4zm70 0h6v4h-6v-4zm-70 8h6v4h-6v-4zm70 0h6v4h-6v-4zm-70 8h6v4h-6v-4zm70 0h6v4h-6v-4zm-70 8h6v4h-6v-4zm70 0h6v4h-6v-4zm-70 8h6v4h-6v-4zm70 0h6v4h-6v-4zm-70 8h6v4h-6v-4zm70 0h6v4h-6v-4zm-70 8h6v4h-6v-4zm70 0h6v4h-6v-4z"/>
  <rect width="84" height="84" x="-104" y="6" fill="url(#l)" rx="6" ry="6"/>
  <path fill="red" d="M-100 10v4h6v-4h-6zm70 0v4h6v-4h-6zm-70 8v4h6v-4h-6zm70 0v4h6v-4h-6zm-70 8v4h6v-4h-6zm70 0v4h6v-4h-6zm-70 8v4h6v-4h-6zm70 0v4h6v-4h-6zm-70 8v4h6v-4h-6zm70 0v4h6v-4h-6zm-70 8v4h6v-4h-6zm70 0v4h6v-4h-6zm-70 8v4h6v-4h-6zm70 0v4h6v-4h-6zm-70 8v4h6v-4h-6zm70 0v4h6v-4h-6zm-70 8v4h6v-4h-6zm70 0v4h6v-4h-6zm-70 8v4h6v-4h-6zm70 0v4h6v-4h-6z" opacity=".58874458"/>
  <rect width="56" height="48" x="20" y="24" fill="url(#m)" rx="2" ry="2.0999999"/>
  <path fill="url(#n)" d="M22 78c-1.108 0-2 .93035-2 2.09375V90h56v-9.90625C76 78.93035 75.108 78 74 78H22z"/>
  <path fill="url(#o)" d="M22 18c-1.108 0-2-.93035-2-2.09375V6h56v9.90625C76 17.06965 75.108 18 74 18H22z"/>
  <use xlink:href="#p" fill-rule="evenodd"/>
  <use xlink:href="#q" fill-rule="evenodd"/>
  <use xlink:href="#r" fill-rule="evenodd" opacity=".6"/>
  <use xlink:href="#s" opacity=".6"/>
  <use xlink:href="#t" stroke-linejoin="round" opacity=".5"/>
  <use xlink:href="#u" fill-rule="evenodd" opacity=".5"/>
  <use xlink:href="#v" fill-rule="evenodd" opacity=".5"/>
  <use xlink:href="#w" fill-rule="evenodd" opacity=".5"/>
  <g style="text-align:start;line-height:125%;-inkscape-font-specification:Abandoned Bitplane Bold">
    <use xlink:href="#x" fill="#20130b" font-family="American Participants" font-size="12" style="-inkscape-font-specification:Abandoned Bitplane" transform="translate(-33.043659 -39.962043) scale(1.68563)"/>
  </g>
  <g clip-path="url(#y)" transform="translate(0 54)">
    <use xlink:href="#p" fill-rule="evenodd"/>
    <use xlink:href="#q" fill-rule="evenodd"/>
    <use xlink:href="#r" fill-rule="evenodd" opacity=".6"/>
    <use xlink:href="#s" opacity=".6"/>
    <use xlink:href="#t" stroke-linejoin="round" opacity=".5"/>
    <use xlink:href="#u" fill-rule="evenodd" opacity=".5"/>
    <use xlink:href="#v" fill-rule="evenodd" opacity=".5"/>
    <use xlink:href="#w" fill-rule="evenodd" opacity=".5"/>
    <g style="text-align:start;line-height:125%;-inkscape-font-specification:Abandoned Bitplane Bold">
      <use xlink:href="#x" font-family="American Participants" font-size="12" style="-inkscape-font-specification:Abandoned Bitplane" transform="translate(-33.043659 -39.962043) scale(1.68563)"/>
    </g>
  </g>
  <path fill="url(#z)" d="M20 48v21.90625C20 71.06965 20.892 72 22 72h52c1.108 0 2-.93035 2-2.09375V48H20zm2 30c-1.108 0-2 .93035-2 2.09375V90h56v-9.90625C76 78.93035 75.108 78 74 78H22z" opacity=".6"/>
  <g clip-path="url(#A)" transform="translate(0 -54)">
    <use xlink:href="#p" fill-rule="evenodd"/>
    <use xlink:href="#q" fill-rule="evenodd"/>
    <use xlink:href="#r" fill-rule="evenodd" opacity=".6"/>
    <use xlink:href="#s" opacity=".6"/>
    <use xlink:href="#t" stroke-linejoin="round" opacity=".5"/>
    <use xlink:href="#u" fill-rule="evenodd" opacity=".5"/>
    <use xlink:href="#v" fill-rule="evenodd" opacity=".5"/>
    <use xlink:href="#w" fill-rule="evenodd" opacity=".5"/>
    <g style="text-align:start;line-height:125%;-inkscape-font-specification:Abandoned Bitplane Bold">
      <use xlink:href="#x" font-family="American Participants" font-size="12" style="-inkscape-font-specification:Abandoned Bitplane" transform="translate(-33.043659 -39.962043) scale(1.68563)"/>
    </g>
  </g>
  <path d="M102 24c-1.108 0-2 .93035-2 2.09375v43.8125c0 1.1634.892 2.09375 2 2.09375h52c1.108 0 2-.93035 2-2.09375v-43.8125C156 24.93035 155.108 24 154 24h-52zm.03125 2.03125h51.9375c-.0018.0093 0 .0198 0 .0625v43.8125c0 .0427-.0018.05324 0 .0625h-51.9375c.0018-.0093 0-.0198 0-.0625v-43.8125c0-.0427.0018-.05324 0-.0625z" opacity=".1"/>
  <path d="M102 24c-1.108 0-2 .93035-2 2.09375v43.8125c0 1.1634.892 2.09375 2 2.09375h52c1.108 0 2-.93035 2-2.09375v-43.8125C156 24.93035 155.108 24 154 24h-52zm0 .90625h52c.60063 0 1.09375.487391 1.09375 1.1875v43.8125c0 .700109-.49312 1.1875-1.09375 1.1875h-52c-.60063 0-1.09375-.487391-1.09375-1.1875v-43.8125c0-.700109.49312-1.1875 1.09375-1.1875z" opacity=".2"/>
  <path d="M100 6v9.90625c0 1.1634.892 2.09375 2 2.09375h52c1.108 0 2-.93035 2-2.09375V6h-2.03125v9.90625c0 .0427-.0018.05324 0 .0625h-51.9375c.0018-.0093 0-.0198 0-.0625V6H100z" opacity=".1"/>
  <path d="M100 6v9.90625c0 1.1634.892 2.09375 2 2.09375h52c1.108 0 2-.93035 2-2.09375V6h-.90625v9.90625c0 .700109-.49312 1.1875-1.09375 1.1875h-52c-.60063 0-1.09375-.487391-1.09375-1.1875V6H100z" opacity=".2"/>
  <path d="M100 90v-9.90625c0-1.1634.892-2.09375 2-2.09375h52c1.108 0 2 .93035 2 2.09375V90h-2.03125v-9.90625c0-.0427-.0018-.05324 0-.0625h-51.9375c.0018.0093 0 .0198 0 .0625V90H100z" opacity=".1"/>
  <path d="M100 90v-9.90625c0-1.1634.892-2.09375 2-2.09375h52c1.108 0 2 .93035 2 2.09375V90h-.90625v-9.90625c0-.700109-.49312-1.1875-1.09375-1.1875h-52c-.60063 0-1.09375.487391-1.09375 1.1875V90H100z" opacity=".2"/>
  <rect width="66" height="66" x="15" y="15" fill="url(#B)" stroke="#fff" stroke-linecap="round" stroke-width=".5" clip-path="url(#C)" filter="url(#D)" opacity=".1" rx="12" ry="12"/>
  <path fill="url(#E)" d="M12 6c-3.324 0-6 2.676-6 6v72c0 .334721.04135.6507.09375.96875.0487.295596.09704.596915.1875.875.00988.03038.020892.0636.03125.09375.098865.287771.2348802.547452.375.8125.1445918.273507.3156161.535615.5.78125.1843839.245635.3737765.473472.59375.6875.439947.428056.94291.814526 1.5 1.09375.278545.139612.5734731.246947.875.34375-.2562018-.100222-.4867109-.236272-.71875-.375-.00741-.0044-.023866.0045-.03125 0-.031933-.0193-.062293-.04251-.09375-.0625-.120395-.0767-.2310226-.163513-.34375-.25-.1061728-.0808-.2132809-.161112-.3125-.25-.1779299-.161433-.3474596-.345388-.5-.53125-.1075789-.130255-.2183939-.265285-.3125-.40625-.025089-.03838-.038446-.08587-.0625-.125-.064763-.103032-.1302275-.204517-.1875-.3125-.1010083-.194706-.2056748-.415701-.28125-.625-.00796-.02181-.023589-.04055-.03125-.0625-.0318251-.09195-.0358045-.186831-.0625-.28125-.0303323-.106618-.0703894-.203031-.09375-.3125C7.0521214 85.720988 7 85.364295 7 85V13c0-2.781848 2.2181517-5 5-5h72c2.781848 0 5 2.218152 5 5v72c0 .364295-.05212.720988-.125 1.0625-.04415.206893-.08838.397658-.15625.59375-.0077.02195-.0233.04069-.03125.0625-.06274.173739-.138383.367449-.21875.53125-.04158.0828-.07904.169954-.125.25-.0546.09721-.126774.18835-.1875.28125-.09411.140965-.204921.275995-.3125.40625-.143174.17445-.303141.346998-.46875.5-.01117.0102-.01998.02115-.03125.03125-.138386.125556-.285091.234436-.4375.34375-.102571.07315-.204318.153364-.3125.21875-.0074.0045-.02384-.0044-.03125 0-.232039.138728-.462548.274778-.71875.375.301527-.0968.596455-.204138.875-.34375.55709-.279224 1.060053-.665694 1.5-1.09375.219973-.214028.409366-.441865.59375-.6875s.355408-.507743.5-.78125c.14012-.265048.276135-.524729.375-.8125.01041-.03078.02133-.06274.03125-.09375.09046-.278085.1388-.579404.1875-.875C89.95865 84.6507 90 84.334721 90 84V12c0-3.324-2.676-6-6-6H12z" opacity=".25"/>
  <path fill="url(#F)" d="M12 90c-3.324 0-6-2.676-6-6V12c0-.334721.04135-.6507.09375-.96875.0487-.295596.09704-.596915.1875-.875.00988-.03038.020892-.0636.03125-.09375.098865-.287771.2348802-.547452.375-.8125.1445918-.273507.3156161-.535615.5-.78125.1843839-.245635.3737765-.473472.59375-.6875.439947-.428056.94291-.814526 1.5-1.09375.278545-.139612.5734731-.246947.875-.34375-.2562018.100222-.4867109.236272-.71875.375-.00741.0044-.023866-.0045-.03125 0-.031933.0193-.062293.04251-.09375.0625-.120395.0767-.2310226.163513-.34375.25-.1061728.0808-.2132809.161112-.3125.25-.1779299.161433-.3474596.345388-.5.53125-.1075789.130255-.2183939.265285-.3125.40625-.025089.03838-.038446.08587-.0625.125-.064763.103032-.1302275.204517-.1875.3125-.1010083.194706-.2056748.415701-.28125.625-.00796.02181-.023589.04055-.03125.0625-.0318251.09195-.0358045.186831-.0625.28125-.0303323.106618-.0703894.203031-.09375.3125C7.0521214 10.279012 7 10.635705 7 11v72c0 2.781848 2.2181517 5 5 5h72c2.781848 0 5-2.218152 5-5V11c0-.364295-.05212-.720988-.125-1.0625-.04415-.206893-.08838-.397658-.15625-.59375-.0077-.02195-.0233-.04069-.03125-.0625-.06274-.173739-.138383-.367449-.21875-.53125-.04158-.0828-.07904-.169954-.125-.25-.0546-.09721-.126774-.18835-.1875-.28125-.09411-.140965-.204921-.275995-.3125-.40625-.143174-.17445-.303141-.346998-.46875-.5-.01117-.0102-.01998-.02115-.03125-.03125-.138386-.125556-.285091-.234436-.4375-.34375-.102571-.07315-.204318-.153364-.3125-.21875-.0074-.0045-.02384.0044-.03125 0-.232039-.138728-.462548-.274778-.71875-.375.301527.0968.596455.204138.875.34375.55709.279224 1.060053.665694 1.5 1.09375.219973.214028.409366.441865.59375.6875s.355408.507743.5.78125c.14012.265048.276135.524729.375.8125.01041.03078.02133.06274.03125.09375.09046.278085.1388.579404.1875.875.0524.31805.09375.634029.09375.96875v72c0 3.324-2.676 6-6 6H12z" opacity=".15"/>
</svg>