<?xml version="1.0" encoding="UTF-8" standalone="no"?>
<svg xmlns="http://www.w3.org/2000/svg" xmlns:xlink="http://www.w3.org/1999/xlink" width="96" height="96" enable-background="new" version="1.0">
  <defs>
    <linearGradient id="d">
      <stop offset="0" stop-color="#fff"/>
      <stop offset="1" stop-color="#fff" stop-opacity="0"/>
    </linearGradient>
    <linearGradient id="b">
      <stop offset="0" stop-color="#919191"/>
      <stop offset="1" stop-color="#fdfdfd"/>
    </linearGradient>
    <linearGradient id="c">
      <stop offset="0" stop-color="#b4b4b4"/>
      <stop offset="1" stop-color="#e6e6e6"/>
    </linearGradient>
    <linearGradient id="a">
      <stop offset="0" stop-color="#fff"/>
      <stop offset="1" stop-color="#fff" stop-opacity="0"/>
    </linearGradient>
    <linearGradient xlink:href="#a" id="v" x1="36.357143" x2="36.357143" y1="6" y2="63.893143" gradientUnits="userSpaceOnUse"/>
    <linearGradient xlink:href="#b" id="w" x1="43.17857" x2="43.17857" y1="13" y2="83.294571" gradientTransform="translate(-1.4117647 -1.4117647) scale(1.02941)" gradientUnits="userSpaceOnUse"/>
    <linearGradient xlink:href="#c" id="u" x1="48" x2="48" y1="90" y2="5.9877172" gradientUnits="userSpaceOnUse"/>
    <linearGradient xlink:href="#d" id="ab" x1="76.45089" x2="76.45089" y1="8.0625" y2="72.765785" gradientUnits="userSpaceOnUse"/>
    <linearGradient xlink:href="#e" id="ac" x1="65.15625" x2="65.15625" y1="16.125" y2="69.687508" gradientUnits="userSpaceOnUse"/>
    <linearGradient xlink:href="#a" id="ad" x1="65.15625" x2="65.15625" y1="16.125" y2="69.687508" gradientUnits="userSpaceOnUse"/>
    <linearGradient id="e">
      <stop offset="0" stop-color="#fff"/>
      <stop offset="1" stop-color="#fff" stop-opacity="0"/>
    </linearGradient>
    <linearGradient id="j">
      <stop offset="0" stop-color="#917896"/>
      <stop offset=".5" stop-color="#3c356e"/>
      <stop offset="1" stop-color="#121132"/>
    </linearGradient>
    <linearGradient id="k">
      <stop offset="0" stop-color="#fff"/>
      <stop offset=".30000001" stop-color="#fff" stop-opacity=".6171875"/>
      <stop offset=".60000002" stop-color="#fff" stop-opacity=".21875"/>
      <stop offset="1" stop-color="#fff" stop-opacity="0"/>
    </linearGradient>
    <linearGradient id="i">
      <stop offset="0" stop-color="#fff"/>
      <stop offset="1" stop-color="#98b7e5"/>
    </linearGradient>
    <linearGradient xlink:href="#f" id="X" x1="81.454704" x2="81.454704" y1="78.777374" y2="73.280426" gradientUnits="userSpaceOnUse"/>
    <linearGradient id="f">
      <stop offset="0" stop-color="#fff" stop-opacity="0"/>
      <stop offset="1" stop-color="#aac2e7"/>
    </linearGradient>
    <linearGradient xlink:href="#f" id="Y" x1="81.454704" x2="81.454704" y1="78.777374" y2="73.280426" gradientUnits="userSpaceOnUse"/>
    <linearGradient xlink:href="#f" id="Z" x1="81.454704" x2="81.454704" y1="78.777374" y2="73.280426" gradientUnits="userSpaceOnUse"/>
    <linearGradient xlink:href="#f" id="aa" x1="81.454704" x2="81.454704" y1="78.777374" y2="73.280426" gradientUnits="userSpaceOnUse"/>
    <linearGradient xlink:href="#f" id="T" x1="81.454704" x2="81.454704" y1="78.777374" y2="73.280426" gradientUnits="userSpaceOnUse"/>
    <linearGradient xlink:href="#f" id="U" x1="81.454704" x2="81.454704" y1="78.777374" y2="73.280426" gradientUnits="userSpaceOnUse"/>
    <linearGradient xlink:href="#f" id="O" x1="81.454704" x2="81.454704" y1="78.777374" y2="73.280426" gradientUnits="userSpaceOnUse"/>
    <linearGradient xlink:href="#f" id="P" x1="81.454704" x2="81.454704" y1="78.777374" y2="73.280426" gradientUnits="userSpaceOnUse"/>
    <linearGradient xlink:href="#f" id="Q" x1="81.454704" x2="81.454704" y1="78.777374" y2="73.280426" gradientUnits="userSpaceOnUse"/>
    <linearGradient xlink:href="#f" id="R" x1="81.454704" x2="81.454704" y1="78.777374" y2="73.280426" gradientUnits="userSpaceOnUse"/>
    <linearGradient id="l">
      <stop offset="0" stop-color="#fff"/>
      <stop offset=".15000001" stop-color="#fff"/>
      <stop offset=".30000001" stop-color="#fff" stop-opacity=".4375"/>
      <stop offset="1" stop-color="#412788" stop-opacity="0"/>
    </linearGradient>
    <linearGradient id="m">
      <stop offset="0" stop-color="#ffa727"/>
      <stop offset="1" stop-color="#ffe680"/>
    </linearGradient>
    <linearGradient id="g">
      <stop offset="0" stop-color="#fff"/>
      <stop offset="1" stop-color="#fff" stop-opacity="0"/>
    </linearGradient>
    <linearGradient xlink:href="#g" id="y" x1="48" x2="48" y1="20.220806" y2="138.66119" gradientUnits="userSpaceOnUse"/>
    <linearGradient id="h" x1="45.447727" x2="45.447727" y1="92.539597" y2="7.0165396" gradientTransform="matrix(1.00587 0 0 .99417 100 0)" gradientUnits="userSpaceOnUse">
      <stop offset="0"/>
      <stop offset="1" stop-opacity=".58823532"/>
    </linearGradient>
    <linearGradient xlink:href="#h" id="o" x1="32.251034" x2="32.251034" y1="6.1317081" y2="90.238609" gradientTransform="matrix(1.0238 0 0 1.0119 -1.1428571 -98.071429)" gradientUnits="userSpaceOnUse"/>
    <linearGradient xlink:href="#h" id="p" x1="32.251034" x2="32.251034" y1="6.1317081" y2="90.238609" gradientTransform="matrix(1.0238 0 0 1.0119 -1.1428571 -98.071429)" gradientUnits="userSpaceOnUse"/>
    <linearGradient xlink:href="#h" id="q" x1="32.251034" x2="32.251034" y1="6.1317081" y2="90.238609" gradientTransform="matrix(1.0238 0 0 1.0119 -1.1428571 -98.071429)" gradientUnits="userSpaceOnUse"/>
    <linearGradient xlink:href="#h" id="r" x1="32.251034" x2="32.251034" y1="6.1317081" y2="90.238609" gradientTransform="translate(0 -97)" gradientUnits="userSpaceOnUse"/>
    <linearGradient xlink:href="#h" id="n" x1="32.251034" x2="32.251034" y1="6.1317081" y2="90.238609" gradientTransform="matrix(1.0238 0 0 1.0119 -1.1428571 -98.071429)" gradientUnits="userSpaceOnUse"/>
    <linearGradient xlink:href="#i" id="S" x1="66.540642" x2="66.540642" y1="85.294907" y2="92.006165" gradientTransform="translate(1.6229468 6.6011104) scale(.72247)" gradientUnits="userSpaceOnUse"/>
    <linearGradient xlink:href="#i" id="N" x1="86.142303" x2="86.142303" y1="71.481712" y2="86.233299" gradientTransform="translate(3.6229468 3.6011104) scale(.72247)" gradientUnits="userSpaceOnUse"/>
    <linearGradient xlink:href="#i" id="W" x1="47.340527" x2="47.340527" y1="49.56208" y2="56.033688" gradientTransform="translate(1.6229468 3.6011104) scale(.72247)" gradientUnits="userSpaceOnUse"/>
    <radialGradient xlink:href="#e" id="x" cx="48" cy="90.171875" r="42" fx="48" fy="90.171875" gradientTransform="matrix(1.15731 0 0 .9959 -7.551021 .1971319)" gradientUnits="userSpaceOnUse"/>
    <radialGradient xlink:href="#j" id="s" cx="93.877205" cy="99.412842" r="55.625" fx="93.877205" fy="99.412842" gradientTransform="matrix(-.00158 -.80617 2.49832 -.0049 -167.3583 145.83072)" gradientUnits="userSpaceOnUse"/>
    <radialGradient xlink:href="#k" id="V" cx="30.233187" cy="34.052246" r="4.2476377" fx="30.233187" fy="34.052246" gradientUnits="userSpaceOnUse"/>
    <radialGradient xlink:href="#l" id="M" cx="30.233187" cy="34.052246" r="4.2476377" fx="30.233187" fy="34.052246" gradientUnits="userSpaceOnUse"/>
    <radialGradient xlink:href="#k" id="L" cx="30.233187" cy="34.052246" r="4.2476377" fx="30.233187" fy="34.052246" gradientUnits="userSpaceOnUse"/>
    <radialGradient xlink:href="#k" id="K" cx="30.233187" cy="34.052246" r="4.2476377" fx="30.233187" fy="34.052246" gradientUnits="userSpaceOnUse"/>
    <radialGradient xlink:href="#l" id="J" cx="30.233187" cy="34.052246" r="4.2476377" fx="30.233187" fy="34.052246" gradientUnits="userSpaceOnUse"/>
    <radialGradient xlink:href="#k" id="I" cx="30.233187" cy="34.052246" r="4.2476377" fx="30.233187" fy="34.052246" gradientUnits="userSpaceOnUse"/>
    <radialGradient xlink:href="#k" id="H" cx="30.233187" cy="34.052246" r="4.2476377" fx="30.233187" fy="34.052246" gradientUnits="userSpaceOnUse"/>
    <radialGradient xlink:href="#k" id="G" cx="30.233187" cy="34.052246" r="4.2476377" fx="30.233187" fy="34.052246" gradientUnits="userSpaceOnUse"/>
    <radialGradient xlink:href="#k" id="F" cx="30.233187" cy="34.052246" r="4.2476377" fx="30.233187" fy="34.052246" gradientUnits="userSpaceOnUse"/>
    <radialGradient xlink:href="#k" id="E" cx="30.233187" cy="34.052246" r="4.2476377" fx="30.233187" fy="34.052246" gradientUnits="userSpaceOnUse"/>
    <radialGradient xlink:href="#l" id="D" cx="30.233187" cy="34.052246" r="4.2476377" fx="30.233187" fy="34.052246" gradientUnits="userSpaceOnUse"/>
    <radialGradient xlink:href="#l" id="C" cx="30.233187" cy="34.052246" r="4.2476377" fx="30.233187" fy="34.052246" gradientUnits="userSpaceOnUse"/>
    <radialGradient xlink:href="#m" id="B" cx="65.795761" cy="65.119179" r="16.0625" fx="65.795761" fy="65.119179" gradientTransform="matrix(.72247 0 0 .8033 -.3770532 -4.462626)" gradientUnits="userSpaceOnUse"/>
    <filter id="t" color-interpolation-filters="sRGB">
      <feGaussianBlur stdDeviation=".525"/>
    </filter>
    <filter id="A" width="1.3839999" height="1.3839999" x="-.192" y="-.192" color-interpolation-filters="sRGB">
      <feGaussianBlur stdDeviation="5.28"/>
    </filter>
    <clipPath id="z">
      <rect width="84" height="84" x="6" y="6" fill="#fff" rx="6" ry="6"/>
    </clipPath>
  </defs>
  <g transform="scale(1 -1)">
    <path fill="url(#n)" d="M12-95.03125C6.4889097-95.03125 1.96875-90.51109 1.96875-85v71C1.96875-8.4889098 6.4889098-3.96875 12-3.96875h72c5.51109 0 10.03125-4.5201597 10.03125-10.03125v-71c0-5.51109-4.52016-10.03125-10.03125-10.03125H12z" opacity=".07999998"/>
    <path fill="url(#o)" d="M12-94.03125c-4.971633 0-9.03125 4.059617-9.03125 9.03125v71c0 4.9716329 4.0596171 9.03125 9.03125 9.03125h72c4.971633 0 9.03125-4.059617 9.03125-9.03125v-71c0-4.971633-4.059617-9.03125-9.03125-9.03125H12z" opacity=".1"/>
    <path fill="url(#p)" d="M12-93c-4.4091333 0-8 3.590867-8 8v71c0 4.4091333 3.5908667 8 8 8h72c4.409133 0 8-3.5908667 8-8v-71c0-4.409133-3.590867-8-8-8H12z" opacity=".2"/>
    <rect width="86" height="85" x="5" y="-92" fill="url(#q)" opacity=".3" rx="7" ry="7"/>
    <rect width="84" height="84" x="6" y="-91" fill="url(#r)" opacity=".45" rx="6" ry="6"/>
  </g>
  <rect width="78.722359" height="72" x="8.25" y="10.500004" fill="url(#s)" rx="5.9134164" ry="5.6609335"/>
  <rect width="68" height="68" x="104" y="14" fill="none" stroke="#2a284d" stroke-linecap="square" stroke-width="2" filter="url(#t)" rx="3" ry="3"/>
  <path d="M19 13c-3.289406 0-6 2.710594-6 6v58c0 3.289406 2.710594 6 6 6h58c3.289406 0 6-2.710594 6-6V19c0-3.289406-2.710594-6-6-6H19zm0 4h58c1.142594 0 2 .857406 2 2v58c0 1.142594-.857406 2-2 2H19c-1.142594 0-2-.857406-2-2V19c0-1.142594.857406-2 2-2z" color="#000" enable-background="accumulate" font-family="Abandoned Bitplane" font-weight="400" opacity=".07999998" overflow="visible" style="text-indent:0;text-align:start;line-height:normal;text-transform:none;block-progression:tb;marker:none;-inkscape-font-specification:Abandoned Bitplane"/>
  <path d="M17 14c-1.662 0-3 1.338-3 3v62c0 1.662 1.338 3 3 3h62c1.662 0 3-1.338 3-3V17c0-1.662-1.338-3-3-3H17zm0 1.9375h62c.618163 0 1.0625.444337 1.0625 1.0625v62c0 .618163-.444337 1.0625-1.0625 1.0625H17c-.618163 0-1.0625-.444337-1.0625-1.0625V17c0-.618163.444337-1.0625 1.0625-1.0625z" color="#000" enable-background="accumulate" opacity=".1" overflow="visible" style="marker:none"/>
  <path d="M17 14c-1.662 0-3 1.338-3 3v62c0 1.662 1.338 3 3 3h62c1.662 0 3-1.338 3-3V17c0-1.662-1.338-3-3-3H17zm0 .96875h62c1.140081 0 2.03125.891169 2.03125 2.03125v62c0 1.140081-.891169 2.03125-2.03125 2.03125H17c-1.140081 0-2.03125-.891169-2.03125-2.03125V17c0-1.140081.891169-2.03125 2.03125-2.03125z" color="#000" enable-background="accumulate" opacity=".25" overflow="visible" style="marker:none"/>
  <path fill="url(#u)" d="M12 6c-3.324 0-6 2.676-6 6v72c0 3.324 2.676 6 6 6h72c3.324 0 6-2.676 6-6V12c0-3.324-2.676-6-6-6H12zm5 8h62c1.683774 0 3 1.316227 3 3v62c.000001 1.683774-1.316227 3-3 3H17c-1.683771.000001-3-1.316227-3-3V17c0-1.683772 1.316227-3 3-3z"/>
  <path fill="url(#v)" d="M12 6c-3.324 0-6 2.676-6 6v72c0 .334721.04135.6507.09375.96875.0487.295596.09704.596915.1875.875.00988.03038.020892.0636.03125.09375.098865.287771.2348802.547452.375.8125.1445918.273507.3156161.535615.5.78125.1843839.245635.3737765.473472.59375.6875.439947.428056.94291.814526 1.5 1.09375.278545.139612.5734731.246947.875.34375-.2562018-.100222-.4867109-.236272-.71875-.375-.00741-.0044-.023866.0045-.03125 0-.031933-.0193-.062293-.04251-.09375-.0625-.120395-.0767-.2310226-.163513-.34375-.25-.1061728-.0808-.2132809-.161112-.3125-.25-.1779299-.161433-.3474596-.345388-.5-.53125-.1075789-.130255-.2183939-.265285-.3125-.40625-.025089-.03838-.038446-.08587-.0625-.125-.064763-.103032-.1302275-.204517-.1875-.3125-.1010083-.194706-.2056748-.415701-.28125-.625-.00796-.02181-.023589-.04055-.03125-.0625-.0318251-.09195-.0358045-.186831-.0625-.28125-.0303323-.106618-.0703894-.203031-.09375-.3125C7.0521214 85.720988 7 85.364295 7 85V13c0-2.781848 2.2181517-5 5-5h72c2.781848 0 5 2.218152 5 5v72c0 .364295-.05212.720988-.125 1.0625-.04415.206893-.08838.397658-.15625.59375-.0077.02195-.0233.04069-.03125.0625-.06274.173739-.138383.367449-.21875.53125-.04158.0828-.07904.169954-.125.25-.0546.09721-.126774.18835-.1875.28125-.09411.140965-.204921.275995-.3125.40625-.143174.17445-.303141.346998-.46875.5-.01117.0102-.01998.02115-.03125.03125-.138386.125556-.285091.234436-.4375.34375-.102571.07315-.204318.153364-.3125.21875-.0074.0045-.02384-.0044-.03125 0-.232039.138728-.462548.274778-.71875.375.301527-.0968.596455-.204138.875-.34375.55709-.279224 1.060053-.665694 1.5-1.09375.219973-.214028.409366-.441865.59375-.6875s.355408-.507743.5-.78125c.14012-.265048.276135-.524729.375-.8125.01041-.03078.02133-.06274.03125-.09375.09046-.278085.1388-.579404.1875-.875C89.95865 84.6507 90 84.334721 90 84V12c0-3.324-2.676-6-6-6H12z" opacity=".7"/>
  <rect width="70" height="70" x="13.000001" y="13.000001" fill="none" stroke="url(#w)" stroke-linecap="square" stroke-linejoin="round" stroke-opacity=".69658119" stroke-width="2" rx="4" ry="4"/>
  <path fill="url(#x)" d="M12 90c-3.324 0-6-2.676-6-6V12c0-.334721.04135-.6507.09375-.96875.0487-.295596.09704-.596915.1875-.875.00988-.03038.020892-.0636.03125-.09375.098865-.287771.2348802-.547452.375-.8125.1445918-.273507.3156161-.535615.5-.78125.1843839-.245635.3737765-.473472.59375-.6875.439947-.428056.94291-.814526 1.5-1.09375.278545-.139612.5734731-.246947.875-.34375-.2562018.100222-.4867109.236272-.71875.375-.00741.0044-.023866-.0045-.03125 0-.031933.0193-.062293.04251-.09375.0625-.120395.0767-.2310226.163513-.34375.25-.1061728.0808-.2132809.161112-.3125.25-.1779299.161433-.3474596.345388-.5.53125-.1075789.130255-.2183939.265285-.3125.40625-.025089.03838-.038446.08587-.0625.125-.064763.103032-.1302275.204517-.1875.3125-.1010083.194706-.2056748.415701-.28125.625-.00796.02181-.023589.04055-.03125.0625-.0318251.09195-.0358045.186831-.0625.28125-.0303323.106618-.0703894.203031-.09375.3125C7.0521214 10.279012 7 10.635705 7 11v72c0 2.781848 2.2181517 5 5 5h72c2.781848 0 5-2.218152 5-5V11c0-.364295-.05212-.720988-.125-1.0625-.04415-.206893-.08838-.397658-.15625-.59375-.0077-.02195-.0233-.04069-.03125-.0625-.06274-.173739-.138383-.367449-.21875-.53125-.04158-.0828-.07904-.169954-.125-.25-.0546-.09721-.126774-.18835-.1875-.28125-.09411-.140965-.204921-.275995-.3125-.40625-.143174-.17445-.303141-.346998-.46875-.5-.01117-.0102-.01998-.02115-.03125-.03125-.138386-.125556-.285091-.234436-.4375-.34375-.102571-.07315-.204318-.153364-.3125-.21875-.0074-.0045-.02384.0044-.03125 0-.232039-.138728-.462548-.274778-.71875-.375.301527.0968.596455.204138.875.34375.55709.279224 1.060053.665694 1.5 1.09375.219973.214028.409366.441865.59375.6875s.355408.507743.5.78125c.14012.265048.276135.524729.375.8125.01041.03078.02133.06274.03125.09375.09046.278085.1388.579404.1875.875.0524.31805.09375.634029.09375.96875v72c0 3.324-2.676 6-6 6H12z" opacity=".4"/>
  <rect width="66" height="66" x="15" y="15" fill="url(#y)" stroke="#fff" stroke-linecap="round" stroke-width=".5" clip-path="url(#z)" filter="url(#A)" opacity=".1" rx="12" ry="12"/>
  <path d="M36.8125 33c-2.430633-.493216-3.651081 2.604346-5.716613 2.170072-2.616021-.27339-3.237021 2.793548-5.196667 3.30964-2.96486.921957-3.943094 5.21162-1.409797 7.170296 2.400842 2.205948 6.609501 2.038032 8.666827-.556258 2.41722.05757 3.666701 2.6401 6.393301 2.147358 2.545586.177743 3.866412-2.901853 6.463808-1.60074 2.258108.614778 5.493935-.255616 6.111641-2.765368.132518-1.358969-1.456804-2.423028-2.65625-1.78125-1.543052-.433897-1.87197-3.937401-4.207718-4.217109-1.941114.281022-3.242428-.160919-4.13544-2.050473C40.014775 33.662786 38.420846 32.989184 36.8125 33zm6.375 5.84375c2.136955.602468-.724172.710322-.5625.21875.151668-.144792.361528-.196135.5625-.21875zM66.90625 51.1875c-2.483786-.195705-3.57989 2.90902-6 1.53125-3.299016-.294669-4.778666 2.85771-7.906363 2.885085-3.36313.843733-3.042494 5.974094.406363 6.302415-.142496 2.726987 2.975586 3.090987 4.789935 3.878974 2.072617 1.63776 5.028349 1.374792 7.23671 1.443361 2.094878 2.153022 6.01237 1.043387 6.973355-1.697335 2.267154-.914889 4.911419-.692014 7.032955-2.087955 1.320086-.356396 2.300048-1.987892 1.310795-3.162045-1.109247-1.527852-3.063403.112203-4.4375-.5625-.909829-1.47241-1.703851-3.256773-3.565357-3.765254-1.359012-1.803392-2.472522-5.060872-5.840893-4.765996zM49.25 65.3125c-2.248187.978805-5.258269-.646521-6.801008 2.082599-2.288826.626266-4.137925 3.702866-2.116465 5.812015 1.822166 2.283361 5.112716 2.271319 7.563791 1.523977 2.113105.65362 4.4137 1.372463 6.275192-.286421 1.894506-.521639 3.70702-1.173065 5.322769-2.359335 1.600199-2.450356-1.608781-4.372431-3.753124-4.545591-2.248249-.311246-3.900557-2.634412-6.491155-2.227244z" opacity=".05"/>
  <path d="M36.8125 33.90625c-1.842739 0-3.347181 1.012814-4.28125 2.40625-.344065-.09913-.658071-.25-1.0625-.25-1.80925 0-3.401578 1.133803-3.71875 2.75-.898176.137902-1.716866.436116-2.375.9375-.851557.64874-1.468749 1.610504-1.46875 2.71875 0 1.130965.621979 2.124319 1.5 2.78125.878021.656931 2.032342 1.03125 3.28125 1.03125 1.824293 0 3.450211-.816421 4.25-2.15625.557258.190684 1.072009.46875 1.75.46875.3144 0 .556731-.111958.84375-.15625.232854.529253.60467.9954 1.09375 1.28125.718423.419892 1.601647.624997 2.5625.625.853373 0 1.644304-.167177 2.3125-.5.477699-.237938.862623-.621758 1.15625-1.0625.46222-.06137.91225-.144074 1.3125-.3125.813598-.07582 1.88141.282159 3.125.4375s2.812567-.132955 3.9375-1.59375a.93431338.93431338 0 0 0-1.15625-1.40625c-.603294.278981-.937014.285323-1.125.25-.187986-.03532-.299652-.09883-.46875-.3125-.300831-.380133-.607568-1.221924-1.03125-2-.05262-.09664-.06648-.154424-.125-.25l-.03125.03125c-.443829-1.18169-1.562876-2-2.875-2-.520514 0-.999084.152124-1.4375.375-.08833-.09529-.08974-.268784-.1875-.34375-.263662-.202192-.590396-.267991-.90625-.375-.694021-1.967053-2.602046-3.375-4.875-3.375zm6.53125 5.40625h.03125c-.03129.360584-.201882.45618-.1875.4375.01056-.01371.09977-.225768.15625-.4375zm23.5625 12.78125c-1.582743 0-2.863947.88509-3.65625 2.09375-.726675-.274827-1.465774-.5625-2.34375-.5625-1.19432 0-2.294402.281499-3.15625.78125-.606803.351861-1.020401.898645-1.28125 1.53125-.138428-.0093-.259365-.03125-.40625-.03125-1.152964 0-2.192571.221368-3.03125.65625S51.4375 57.737824 51.4375 58.75s.755071 1.752618 1.59375 2.1875c.432622.224329 1.032573.231928 1.5625.34375-.109948.235356-.3125.412253-.3125.6875 0 .918256.65567 1.580411 1.375 1.96875.633756.342141 1.435431.509612 2.28125.59375 1.311885 1.117456 3.163679 1.8125 5.25 1.8125.789327 0 1.496293-.166223 2.1875-.34375.678134.84977 1.651415 1.46875 2.84375 1.46875 1.665422 0 3.076378-1.070385 3.5-2.5625.0062-.02189.02549-.04042.03125-.0625.610402-.09829 1.174805-.327276 1.65625-.65625v.0625c1.78487-.474563 3.365307-.159608 6.4375-2.0625A.93431338.93431338 0 0 0 79.125 60.5c-1.639999.392991-2.508155.346689-2.9375.1875-.429345-.159189-.653633-.449498-1.0625-1.15625l-.03125.03125c-.498823-1.712636-1.975504-3.002526-3.8125-3.0625.005-.0788.0625-.138674.0625-.21875 0-2.327658-2.026526-4.187505-4.4375-4.1875zm-17.625 14.125c-.873879.02717-1.593879.341303-2.28125.6875-.319529-.147964-.623952-.330976-.96875-.375-1.361422-.17383-2.749061.556312-3.09375 1.84375-.477442.125187-.987087.236528-1.375.5-.597496.405823-1.08897 1.009573-1.1875 1.78125-.127182.996085.419439 1.895047 1.15625 2.5.736811.604953 1.71151 1.015673 2.8125 1.15625 1.197939.152956 2.293116-.12857 3.1875-.625.292235.09565.568662.206896.90625.25.32277.04121.632411.01496.9375 0 .427277.375976.933667.70096 1.5625.78125 1.03684.132386 1.943346-.388427 2.53125-1.15625.562908.05392 1.116274.03005 1.59375-.125.439112-.142592.881696-.490775 1.09375-1.03125.423147-.02154.893224-.0093 1.25-.09375.329853-.07811.646221-.186124.9375-.375.291279-.188876.625708-.516054.6875-1 .07092-.555476-.219773-1.010213-.5-1.28125s-.627304-.451471-1-.625c-.745391-.347058-1.680088-.613391-2.75-.75-.265901-.03395-.495263-.02158-.71875-.03125-.800732-1.020474-2.048148-1.767415-3.625-1.96875-.363986-.04648-.758824-.07487-1.15625-.0625z" opacity=".1"/>
  <path fill="url(#B)" d="M49.609122 34.057908c3.05424 2.119105 5.079896 5.644211 5.079896 9.640514-.000002 6.476989-5.263214 11.740204-11.740204 11.740204-1.43726-.000001-2.813515-.271469-4.086494-.745052 2.355381 3.136336 6.096454 5.170205 10.317833 5.170206 7.12469 0 12.89165-5.789535 12.891647-12.914225 0-6.97881-5.539535-12.661528-12.462678-12.891647z"/>
  <path fill="url(#C)" d="M34.480824 34.052246a4.2476377 4.2476377 0 1 1-8.495275 0 4.2476377 4.2476377 0 1 1 8.495275 0z" transform="translate(1.6229468 .6011104) scale(.72247)"/>
  <path fill="url(#D)" d="M34.480824 34.052246a4.2476377 4.2476377 0 1 1-8.495275 0 4.2476377 4.2476377 0 1 1 8.495275 0z" transform="translate(34.509906 -7.431661) scale(1.01996)"/>
  <path fill="url(#E)" d="M34.480824 34.052246a4.2476377 4.2476377 0 1 1-8.495275 0 4.2476377 4.2476377 0 1 1 8.495275 0z" transform="translate(4.2830689 45.227169) scale(.48873)"/>
  <path fill="url(#F)" d="M34.480824 34.052246a4.2476377 4.2476377 0 1 1-8.495275 0 4.2476377 4.2476377 0 1 1 8.495275 0z" transform="translate(56.204518 27.548111) scale(.48873)"/>
  <path fill="url(#G)" d="M34.480824 34.052246a4.2476377 4.2476377 0 1 1-8.495275 0 4.2476377 4.2476377 0 1 1 8.495275 0z" transform="translate(66.088461 26.207007) scale(.36464)"/>
  <path fill="url(#H)" d="M34.480824 34.052246a4.2476377 4.2476377 0 1 1-8.495275 0 4.2476377 4.2476377 0 1 1 8.495275 0z" transform="translate(45.958032 9.1827826) scale(.36464)"/>
  <path fill="url(#I)" d="M34.480824 34.052246a4.2476377 4.2476377 0 1 1-8.495275 0 4.2476377 4.2476377 0 1 1 8.495275 0z" transform="translate(6.785597 23.98527) scale(.36464)"/>
  <path fill="url(#J)" d="M34.480824 34.052246a4.2476377 4.2476377 0 1 1-8.495275 0 4.2476377 4.2476377 0 1 1 8.495275 0z" transform="translate(14.171614 49.576964) scale(.72247)"/>
  <path fill="url(#K)" d="M34.480824 34.052246a4.2476377 4.2476377 0 1 1-8.495275 0 4.2476377 4.2476377 0 1 1 8.495275 0z" transform="translate(31.548843 7.050078) scale(.36464)"/>
  <path fill="url(#L)" d="M34.480824 34.052246a4.2476377 4.2476377 0 1 1-8.495275 0 4.2476377 4.2476377 0 1 1 8.495275 0z" transform="translate(35.22406 11.85257) scale(.48873)"/>
  <path fill="url(#M)" d="M34.480824 34.052246a4.2476377 4.2476377 0 1 1-8.495275 0 4.2476377 4.2476377 0 1 1 8.495275 0z" transform="translate(-9.328636 11.135139) scale(1.20027)"/>
  <path d="M36.8125 34.84375c-1.787692 0-3.328306 1.028658-3.96875 2.46875-.411992-.180363-.873419-.3125-1.375-.3125-1.605061 0-2.90625 1.050783-2.90625 2.34375 0 .08081-.0099.171292 0 .25.000419.0033-.000436.02793 0 .03125-2.069575.0414-3.718749 1.287081-3.71875 2.84375 0 1.582772 1.725962 2.875 3.84375 2.875 1.833946 0 3.371551-.963935 3.75-2.25.548292.33914 1.338973.5625 2.25.5625.576087 0 1.106003-.100973 1.5625-.25-.01788.07908-.03125.167965-.03125.25 0 .980871 1.341398 1.749995 2.96875 1.75 1.442275 0 2.651626-.612448 2.90625-1.4375.665245-.01618 1.271376-.179013 1.78125-.4375 2.208071-.205762 4.522569 1.664825 6.40625-.78125-2.862562 1.323734-3.119232-1.319807-3.9375-2.65625-.238275-.893497-1.105315-1.53125-2.125-1.53125-.650264 0-1.225339.260695-1.625.6875-.04926-.0068-.106433-.02534-.15625-.03125.002-.02305.03125-.03913.03125-.0625 0-.57904-.655647-1.04462-1.5-1.1875-.416965-1.782675-2.104505-3.125-4.15625-3.125zm30.09375 18.1875c-1.527604 0-2.828577.904408-3.3125 2.15625-.686542-.39087-1.645769-.625-2.6875-.625-2.097095 0-3.78125.981668-3.78125 2.1875 0 .05954-.0081.129155 0 .1875-.337543-.05197-.692096-.09375-1.0625-.09375-2.04467 0-3.6875.8577-3.6875 1.90625s1.64283 1.90625 3.6875 1.90625c.181423 0 .356783-.01831.53125-.03125-.843098.312379-1.375.788774-1.375 1.34375 0 .874858 1.350824 1.586817 3.09375 1.6875 1.108027 1.048736 2.875534 1.75 4.875 1.75.88736 0 1.739744-.165611 2.5-.40625.411849.898976 1.380669 1.53125 2.53125 1.53125 1.461489 0 2.659455-1.022555 2.75-2.3125.111847-.059.236811-.103584.34375-.15625.702181-.02886 1.326384-.299523 1.84375-.71875 1.993152-.529941 3.271522-.131367 6.1875-1.9375-3.431398.822261-4.16504.09105-5.03125-1.40625-.332243-1.471866-1.625806-2.59375-3.15625-2.59375-.373992 0-.728338.06695-1.0625.1875.199118-.40495.3125-.839501.3125-1.3125 0-1.782531-1.560187-3.250004-3.5-3.25zm-17.59375 14.125c-.95933.02983-1.789769.276101-2.375.6875-.2824-.20059-.641908-.325288-1.03125-.375-1.06316-.135747-2.014508.447136-2.125 1.3125-.01236.09681-.0089.186636 0 .28125-1.322757.14533-2.351729.80225-2.46875 1.71875-.151531 1.186783 1.271908 2.353153 3.15625 2.59375 1.227172.156689 2.351342-.120336 3.03125-.65625.326271.131534.673092.231529 1.0625.28125.389418.04972.776151.0453 1.125 0 .300181.395703.78779.706274 1.375.78125.991984.126659 1.888068-.416102 2.0625-1.21875.101473.02133.204915.04876.3125.0625 1.013707.129432 1.877519-.155233 1.9375-.625.02062-.16148-.06641-.318525-.21875-.46875 1.606093.08913 2.869598-.186949 2.9375-.71875.07892-.618117-1.459531-1.341198-3.4375-1.59375-.3215-.04105-.637808-.04949-.9375-.0625-.47326-.937667-1.779651-1.729813-3.40625-1.9375-.338077-.04317-.680223-.07245-1-.0625z" opacity=".3"/>
  <path fill="url(#N)" d="M66.891981 52.32703c-1.527604 0-2.81837.898212-3.302293 2.150054-.686542-.39087-1.630988-.629574-2.67272-.629574-2.097095 0-3.8012.979858-3.8012 2.185691 0 .05954.0038.119836.01188.178181-.337542-.05197-.686804-.08315-1.057208-.08315-2.04467 0-3.706171.85205-3.706171 1.9006s1.661501 1.9006 3.706171 1.9006c.181423 0 .360076-.01082.534543-.02376-.843098.312379-1.389814.799203-1.389814 1.354178 0 .874858 1.357429 1.5861 3.100355 1.686783 1.108027 1.048736 2.870822 1.734298 4.870288 1.734298.88736 0 1.734282-.15136 2.494538-.391999.411849.898976 1.391471 1.532359 2.542053 1.532359 1.461489 0 2.653445-1.026412 2.74399-2.316357.111847-.059.225666-.113636.332605-.166302.702181-.02886 1.347598-.281619 1.864964-.700847 1.993152-.52994 3.272852-.153861 6.188829-1.959994-3.431398.822261-4.182258.09561-5.048469-1.401693-.332243-1.471866-1.605547-2.577688-3.13599-2.577688-.373993 0-.734924.06951-1.069086.19006.199118-.40495.308847-.857422.308847-1.330421 0-1.782531-1.576297-3.231024-3.516111-3.23102z"/>
  <path fill="url(#O)" d="M86.202065 76.0289a4.7473602 2.7484715 0 1 1-9.494721 0 4.7473602 2.7484715 0 1 1 9.494721 0z" transform="translate(2.7203561 3.6011104) scale(.72247)"/>
  <path fill="url(#P)" d="M86.202065 76.0289a4.7473602 2.7484715 0 1 1-9.494721 0 4.7473602 2.7484715 0 1 1 9.494721 0z" transform="matrix(.95062 0 0 .95235 -10.08693 -11.800312)"/>
  <path fill="url(#Q)" d="M86.202065 76.0289a4.7473602 2.7484715 0 1 1-9.494721 0 4.7473602 2.7484715 0 1 1 9.494721 0z" transform="matrix(.72116 0 0 .72247 4.2650818 7.0309549)"/>
  <path fill="url(#R)" d="M86.202065 76.0289a4.7473602 2.7484715 0 1 1-9.494721 0 4.7473602 2.7484715 0 1 1 9.494721 0z" transform="matrix(.74149 0 0 .95235 6.5323161 -17.396374)"/>
  <path fill="url(#S)" d="M50.312856 66.490669c-1.352308-.172666-2.604746.100987-3.385054.649519-.2824-.20059-.630927-.342451-1.020269-.392163-1.06316-.135747-2.016872.457139-2.127364 1.322503-.01236.09681-.01107.189777-.0022.284391-1.322757.14533-2.346232.807197-2.463253 1.723698-.151531 1.186782 1.258206 2.346884 3.142549 2.58748 1.227172.156689 2.353529-.124339 3.033437-.660253.326272.131535.691416.22492 1.080824.274641.389418.04972.766308.05108 1.115156.0058.300181.395703.794921.693602 1.382131.768578.991984.126659 1.882609-.414967 2.057041-1.217615.101473.02133.203264.04872.310849.06247 1.013707.129432 1.886193-.147126 1.946173-.616894.02062-.16148-.06076-.321063-.213101-.471287 1.606093.08913 2.849445-.200212 2.917347-.732013.07892-.618117-1.464248-1.325623-3.442216-1.578175-.3215-.04105-.624759-.05948-.924451-.07249-.473259-.937668-1.781049-1.730444-3.407648-1.938132z"/>
  <path fill="url(#T)" d="M86.202065 76.0289a4.7473602 2.7484715 0 1 1-9.494721 0 4.7473602 2.7484715 0 1 1 9.494721 0z" transform="matrix(.66544 0 0 .75531 -9.1653873 13.03999)"/>
  <path fill="url(#U)" d="M86.202065 76.0289a4.7473602 2.7484715 0 1 1-9.494721 0 4.7473602 2.7484715 0 1 1 9.494721 0z" transform="matrix(.87762 0 0 .75531 -22.011437 11.234808)"/>
  <path fill="url(#V)" d="M34.480824 34.052246a4.2476377 4.2476377 0 1 1-8.495275 0 4.2476377 4.2476377 0 1 1 8.495275 0z" transform="translate(17.821929 24.106547) scale(.48873)"/>
  <path fill="url(#W)" d="M36.798224 34.115057c-1.787692 0-3.309381 1.024758-3.949825 2.464849-.411993-.180362-.882373-.28285-1.383954-.28285-1.605061 0-2.909335 1.050665-2.909335 2.343632 0 .08081.01027.163734.0202.242442.000419.0033-.000437.0068 0 .01011-2.069575.0414-3.727585 1.302154-3.727585 2.858823 0 1.582772 1.710815 2.868928 3.828603 2.868928 1.833946 0 3.36934-.966646 3.747789-2.252712.548292.33914 1.361891.5556 2.272918.5556.576087 0 1.10929-.09342 1.565787-.242442-.01788.07908-.03031.160407-.03031.242442 0 .980871 1.322389 1.777922 2.949741 1.777927 1.442275 0 2.644609-.629614 2.899233-1.454665.665245-.01618 1.278156-.175894 1.78803-.434381 2.20807-.205762 4.530997 1.668233 6.414678-.777843-2.862562 1.323735-3.121456-1.310245-3.939724-2.646689-.238275-.893497-1.091603-1.555684-2.111288-1.555684-.650265 0-1.23684.270221-1.636501.697026-.04926-.0068-.10171-.0143-.151527-.02021.002-.02305.0101-.04734.0101-.07071 0-.57904-.630518-1.05924-1.474871-1.20212-.416972-1.782673-2.130424-3.121473-4.182169-3.121473z"/>
  <path fill="url(#X)" d="M86.202065 76.0289a4.7473602 2.7484715 0 1 1-9.494721 0 4.7473602 2.7484715 0 1 1 9.494721 0z" transform="matrix(.95062 0 0 .95235 -43.136049 -32.559897)"/>
  <path fill="url(#Y)" d="M86.202065 76.0289a4.7473602 2.7484715 0 1 1-9.494721 0 4.7473602 2.7484715 0 1 1 9.494721 0z" transform="matrix(.57037 0 0 .62395 -7.4501963 -6.5091016)"/>
  <path fill="url(#Z)" d="M86.202065 76.0289a4.7473602 2.7484715 0 1 1-9.494721 0 4.7473602 2.7484715 0 1 1 9.494721 0z" transform="matrix(.68445 0 0 .75531 -27.031663 -16.315658)"/>
  <path fill="url(#aa)" d="M86.202065 76.0289a4.7473602 2.7484715 0 1 1-9.494721 0 4.7473602 2.7484715 0 1 1 9.494721 0z" transform="matrix(.77951 0 0 .95235 -26.580637 -35.809224)"/>
  <g fill-rule="evenodd">
    <path fill="url(#ab)" d="m44.84375 8.0625 1.34375 3.875H79c2.753976 0 5.0625 2.308526 5.0625 5.0625v62c.000002 2.753977-2.308526 5.0625-5.0625 5.0625h-7.875l1.34375 3.875H84c2.221843 0 3.9375-1.715657 3.9375-3.9375V12c0-2.2218425-1.715657-3.9375-3.9375-3.9375H44.84375z" opacity=".4"/>
    <path fill="url(#ac)" d="m47.65625 16.125 22.03125 63.75H79c.538805 0 .875-.336196.875-.875V17c0-.538805-.336194-.875-.875-.875H47.65625z" opacity=".6"/>
    <path fill="url(#ad)" d="m47.65625 16.125 22.03125 63.75h1l-22.03125-63.75h-1z" opacity=".5"/>
  </g>
</svg>