<?xml version="1.0" encoding="UTF-8" standalone="no"?>
<!-- Created with Inkscape (http://www.inkscape.org/) -->
<svg xmlns:dc="http://purl.org/dc/elements/1.1/" xmlns:cc="http://creativecommons.org/ns#" xmlns:rdf="http://www.w3.org/1999/02/22-rdf-syntax-ns#" xmlns:svg="http://www.w3.org/2000/svg" xmlns="http://www.w3.org/2000/svg" xmlns:xlink="http://www.w3.org/1999/xlink" xmlns:sodipodi="http://sodipodi.sourceforge.net/DTD/sodipodi-0.dtd" xmlns:inkscape="http://www.inkscape.org/namespaces/inkscape" width="255" height="255" viewBox="0 0 67.468749 67.468749" version="1.1" id="svg8" inkscape:version="0.92.5 (2060ec1f9f, 2020-04-08)" sodipodi:docname="emblem-system.svg">
 <defs id="defs2">
  <clipPath clipPathUnits="userSpaceOnUse" id="clipPath2059">
   <path d="m -10.099732,231.68531 c 3.5587363,2.50616 4.8319716,-0.58528 2.9651647,-3.064 -3.1818907,-4.22486 -6.4443207,-9.83985 -12.3548527,-15.91305 -2.594516,-2.66865 -11.860659,-7.80827 -11.860659,-7.80827 0,0 -0.115438,-2.18844 -0.09884,-3.064 0.01106,-0.582 -0.565687,-0.56369 -0.889553,-0.29652 -0.782426,0.64546 -2.47097,2.56981 -2.47097,2.56981 l -1.68026,-0.0988 -1.087226,-1.58142 c -0.296516,-0.41055 -0.636056,-0.34641 -0.88955,0 -0.545383,1.84962 -0.878698,3.8848 -3.459359,3.95355 l 4.447747,3.95356 c 7.76561,1.55335 15.578734,5.58545 20.261957,14.33163 0,0 4.526451,5.19364 7.116396,7.01755 z" id="path2061" sodipodi:nodetypes="csscsscccccccs" inkscape:connector-curvature="0" stroke-dasharray="none" stroke-opacity="1" fill="#ffffff" fill-rule="evenodd" stroke="none" stroke-linejoin="miter" fill-opacity="1" stroke-linecap="butt" stroke-width="0.048" stroke-miterlimit="4"/>
  </clipPath>
  <clipPath id="clipPath2059-5" clipPathUnits="userSpaceOnUse">
   <path stroke-miterlimit="4" stroke-width="0.048" stroke-linecap="butt" fill-opacity="1" stroke-linejoin="miter" stroke="none" fill-rule="evenodd" fill="#ffffff" stroke-opacity="1" stroke-dasharray="none" inkscape:connector-curvature="0" sodipodi:nodetypes="csscsscccccccs" id="path2061-3" d="m -10.099732,231.68531 c 3.5587363,2.50616 4.8319716,-0.58528 2.9651647,-3.064 -3.1818907,-4.22486 -6.4443207,-9.83985 -12.3548527,-15.91305 -2.594516,-2.66865 -11.860659,-7.80827 -11.860659,-7.80827 0,0 -0.115438,-2.18844 -0.09884,-3.064 0.01106,-0.582 -0.565687,-0.56369 -0.889553,-0.29652 -0.782426,0.64546 -2.47097,2.56981 -2.47097,2.56981 l -1.68026,-0.0988 -1.087226,-1.58142 c -0.296516,-0.41055 -0.636056,-0.34641 -0.88955,0 -0.545383,1.84962 -0.878698,3.8848 -3.459359,3.95355 l 4.447747,3.95356 c 7.76561,1.55335 15.578734,5.58545 20.261957,14.33163 0,0 4.526451,5.19364 7.116396,7.01755 z"/>
  </clipPath>
  <clipPath id="clipPath">
   <path fill-opacity="0.95" stroke="none" fill="#1b1b1b" sodipodi:nodetypes="csssscc" inkscape:connector-curvature="0" id="rect5264" d="m -515.73002,435.56445 v 5.83767 c 0,9.74315 -7.84377,17.58692 -17.58692,17.58692 h -135.05122 c -9.74315,0 -17.58692,-7.84377 -17.58692,-17.58692 v -5.83767 z"/>
  </clipPath>
  <clipPath clipPathUnits="userSpaceOnUse" id="clipPath2059-7">
   <path d="m -10.099732,231.68531 c 3.5587363,2.50616 4.8319716,-0.58528 2.9651647,-3.064 -3.1818907,-4.22486 -6.4443207,-9.83985 -12.3548527,-15.91305 -2.594516,-2.66865 -11.860659,-7.80827 -11.860659,-7.80827 0,0 -0.115438,-2.18844 -0.09884,-3.064 0.01106,-0.582 -0.565687,-0.56369 -0.889553,-0.29652 -0.782426,0.64546 -2.47097,2.56981 -2.47097,2.56981 l -1.68026,-0.0988 -1.087226,-1.58142 c -0.296516,-0.41055 -0.636056,-0.34641 -0.88955,0 -0.545383,1.84962 -0.878698,3.8848 -3.459359,3.95355 l 4.447747,3.95356 c 7.76561,1.55335 15.578734,5.58545 20.261957,14.33163 0,0 4.526451,5.19364 7.116396,7.01755 z" id="path2061-5" sodipodi:nodetypes="csscsscccccccs" inkscape:connector-curvature="0" stroke-dasharray="none" stroke-opacity="1" fill="#ffffff" fill-rule="evenodd" stroke="none" stroke-linejoin="miter" fill-opacity="1" stroke-linecap="butt" stroke-width="0.048" stroke-miterlimit="4"/>
  </clipPath>
  <clipPath clipPathUnits="userSpaceOnUse" id="clipPath1162">
   <path stroke-miterlimit="4" stroke-width="0.071" stroke-linecap="round" fill-opacity="0.347" stroke-linejoin="round" stroke="none" fill="#000000" stroke-opacity="1" stroke-dasharray="none" inkscape:connector-curvature="0" d="m -65.649736,239.84563 c -9.358079,0 -16.951888,7.59381 -16.951888,16.95188 0,9.35808 7.593811,16.94076 16.951888,16.94077 0.292439,0 0.578792,-0.008 0.867614,-0.0222 2.122786,-0.10753 4.148336,-0.60587 5.995453,-1.42378 l 2.669587,3.97101 c -0.225515,0.4951 -0.245107,0.96445 -0.01111,1.31255 l 15.67271,23.32553 c 0.495366,0.73695 1.94415,0.6317 3.247998,-0.24471 1.303846,-0.87642 1.96364,-2.17735 1.468276,-2.9143 L -51.42304,274.4168 c -0.233058,-0.34672 -0.682887,-0.49868 -1.22356,-0.47831 l -2.558357,-3.80416 c 3.95991,-3.10036 6.507123,-7.91951 6.507123,-13.33682 0,-9.35807 -7.593809,-16.95188 -16.951889,-16.95188 z m 0,2.5806 c 7.92884,0 14.371283,6.44244 14.371283,14.37128 0,7.92885 -6.442435,14.36016 -14.371283,14.36016 -7.928851,0 -14.349039,-6.43131 -14.349039,-14.36016 0,-0.24777 -0.0013,-0.48941 0.01111,-0.73413 0.384376,-7.58638 6.656848,-13.63715 14.337916,-13.63715 z" id="path1164"/>
  </clipPath>
  <linearGradient id="linearGradient4224" inkscape:collect="always">
   <stop id="stop4226" stop-color="#a8a8a8" stop-opacity="0.682"/>
   <stop offset="0.128" id="stop4232" stop-color="#cacaca" stop-opacity="0.612"/>
   <stop id="stop4228" offset="1" stop-color="#d9d9d9" stop-opacity="0.241"/>
  </linearGradient>
  <linearGradient id="linearGradient4216" inkscape:collect="always">
   <stop id="stop4218" stop-color="#2f2f2f" stop-opacity="1"/>
   <stop id="stop4220" offset="1" stop-color="#a3a3a3" stop-opacity="1"/>
  </linearGradient>
  <linearGradient id="linearGradient4208" inkscape:collect="always">
   <stop id="stop4210" stop-color="#484848" stop-opacity="1"/>
   <stop id="stop4212" offset="1" stop-color="#d2d2d2" stop-opacity="1"/>
  </linearGradient>
  <linearGradient id="linearGradient4202">
   <stop id="stop4204" stop-color="#dfdfdf" stop-opacity="1"/>
   <stop offset="1" id="stop4206" stop-color="#858585" stop-opacity="1"/>
  </linearGradient>
  <linearGradient id="linearGradient4196" inkscape:collect="always">
   <stop id="stop4198" stop-color="#3a3a3a" stop-opacity="1"/>
   <stop id="stop4200" offset="1" stop-color="#ffffff" stop-opacity="1"/>
  </linearGradient>
  <linearGradient id="linearGradient4325" inkscape:collect="always">
   <stop id="stop4327" stop-color="#000000" stop-opacity="1"/>
   <stop id="stop4329" offset="1" stop-color="#d4d4d4" stop-opacity="1"/>
  </linearGradient>
  <linearGradient id="linearGradient3881">
   <stop id="stop3883" stop-color="#6e6e6e" stop-opacity="1"/>
   <stop id="stop3885" offset="1" stop-color="#ececec" stop-opacity="1"/>
  </linearGradient>
  <linearGradient id="linearGradient3871">
   <stop id="stop3873" stop-color="#dddddd" stop-opacity="1"/>
   <stop offset="0.82" id="stop3879" stop-color="#d4d4d4" stop-opacity="1"/>
   <stop id="stop3875" offset="1" stop-color="#8f8f8f" stop-opacity="1"/>
  </linearGradient>
  <linearGradient id="linearGradient3867">
   <stop id="stop3869" stop-color="#ffffff" stop-opacity="1"/>
   <stop id="stop3871" offset="1" stop-color="#858585" stop-opacity="1"/>
  </linearGradient>
  <linearGradient id="linearGradient3167" inkscape:collect="always">
   <stop id="stop3169" stop-color="#ffffff" stop-opacity="1"/>
   <stop id="stop3171" offset="1" stop-color="#dbdbdb" stop-opacity="0"/>
  </linearGradient>
  <linearGradient y2="-296.99" x2="562.84" y1="-296.99" x1="480.38" spreadMethod="reflect" gradientTransform="matrix(0.09858767,0,0,0.08013887,-6.080561,277.0816)" gradientUnits="userSpaceOnUse" id="linearGradient3553" xlink:href="#linearGradient3167" inkscape:collect="always"/>
  <linearGradient y2="-296.99" x2="562.84" y1="-310.62" x1="460.06" spreadMethod="reflect" gradientTransform="matrix(0.09858767,0,0,0.08013887,-6.2669303,281.74084)" gradientUnits="userSpaceOnUse" id="linearGradient3556" xlink:href="#linearGradient3167" inkscape:collect="always"/>
  <linearGradient y2="-296.99" x2="562.84" y1="-291.77" x1="493.31" spreadMethod="reflect" gradientTransform="matrix(0.09858767,0,0,0.08013887,-6.4532997,272.60873)" gradientUnits="userSpaceOnUse" id="linearGradient3559" xlink:href="#linearGradient3167" inkscape:collect="always"/>
  <radialGradient gradientUnits="userSpaceOnUse" gradientTransform="matrix(0.63387799,0.064118,-0.0237115,0.23441466,-52.827936,229.07754)" r="50.23" fy="170.06" fx="122.97" cy="170.06" cx="122.97" id="radialGradient3875" xlink:href="#linearGradient3867" inkscape:collect="always"/>
  <radialGradient gradientUnits="userSpaceOnUse" gradientTransform="matrix(0.55717541,0.36310179,-0.34513066,0.5295989,47.05997,174.38653)" r="35.21" fy="161.69" fx="24.723" cy="161.69" cx="24.723" id="radialGradient3883" xlink:href="#linearGradient4202" inkscape:collect="always"/>
  <radialGradient spreadMethod="reflect" gradientUnits="userSpaceOnUse" gradientTransform="matrix(0.28090603,-0.00874359,0.00603258,0.19380934,-4.1168463,238.47381)" r="102.3" fy="37.438" fx="106.11" cy="97.51" cx="129.16" id="radialGradient3877" xlink:href="#linearGradient3871" inkscape:collect="always"/>
  <linearGradient gradientTransform="matrix(0.31225649,0,0,0.31348142,-6.9901937,226.93949)" spreadMethod="reflect" gradientUnits="userSpaceOnUse" y2="69.26" x2="84.58" y1="93.83" x1="40.4" id="linearGradient3887" xlink:href="#linearGradient3881" inkscape:collect="always"/>
  <radialGradient gradientUnits="userSpaceOnUse" gradientTransform="matrix(0.67877708,0.20529401,-0.59720226,1.9745692,4.0373189,-61.684229)" r="11.12" fy="148.42" fx="208.08" cy="148.42" cx="208.08" id="radialGradient3897" xlink:href="#linearGradient4196" inkscape:collect="always"/>
  <linearGradient gradientTransform="matrix(0.30224074,0,0,0.30224074,-5.495423,226.904)" spreadMethod="reflect" gradientUnits="userSpaceOnUse" y2="44.44" x2="123.15" y1="81.74" x1="104.64" id="linearGradient4331" xlink:href="#linearGradient4325" inkscape:collect="always"/>
  <linearGradient gradientTransform="matrix(0.30224074,0,0,0.30224074,-6.2501545,226.65242)" spreadMethod="reflect" gradientUnits="userSpaceOnUse" y2="128.96" x2="124.06" y1="126.47" x1="65.09" id="linearGradient4214" xlink:href="#linearGradient4208" inkscape:collect="always"/>
  <linearGradient gradientTransform="matrix(0.30224074,0,0,0.30224074,-6.2501545,226.65242)" spreadMethod="reflect" gradientUnits="userSpaceOnUse" y2="79.918" x2="138.53" y1="81.86" x1="100.88" id="linearGradient4222" xlink:href="#linearGradient4216" inkscape:collect="always"/>
  <linearGradient gradientUnits="userSpaceOnUse" y2="97.13" x2="111.7" y1="25.404" x1="106.6" id="linearGradient4230" xlink:href="#linearGradient4224" inkscape:collect="always" gradientTransform="matrix(0.2957997,0,0,0.2957997,-4.6214669,228.25701)"/>
  <filter inkscape:collect="always" id="filter1168" x="-0.011" width="1.023" y="-0.013" height="1.025" color-interpolation-filters="sRGB">
   <feGaussianBlur inkscape:collect="always" stdDeviation="0.26335" id="feGaussianBlur1170"/>
  </filter>
 </defs>
 <sodipodi:namedview id="base" pagecolor="#ff0000" bordercolor="#666666" borderopacity="1.0" inkscape:pageopacity="0" inkscape:pageshadow="2" inkscape:zoom="3.5058824" inkscape:cx="127.5" inkscape:cy="127.5" inkscape:document-units="px" inkscape:current-layer="layer1" showgrid="false" inkscape:snap-to-guides="false" inkscape:snap-grids="false" inkscape:snap-others="false" inkscape:object-nodes="false" inkscape:snap-nodes="false" inkscape:snap-global="false" inkscape:window-width="1920" inkscape:window-height="1056" inkscape:window-x="0" inkscape:window-y="0" inkscape:window-maximized="1" units="px" showguides="false"/>
 <metadata id="metadata5">
  <rdf:RDF>
   <cc:Work>
    <dc:format>image/svg+xml</dc:format>
    <dc:type rdf:resource="http://purl.org/dc/dcmitype/StillImage"/>
    <dc:title/>
   </cc:Work>
  </rdf:RDF>
 </metadata>
 <g inkscape:label="Layer 1" inkscape:groupmode="layer" id="layer1" transform="translate(0,-229.53126)">
  <g id="g1166" transform="matrix(1.1179831,0,0,1.1179831,69.487173,-40.221139)" filter="url(#filter1168)">
   <path sodipodi:nodetypes="cccccccccccccsssss" d="m -23.893242,250.40472 -25.166975,4.90795 -10.129512,16.9863 -0.311367,10.28408 c 0.373506,1.44451 0.762739,2.87601 1.948845,3.50792 3.738851,3.88329 7.818154,7.59557 12.387486,11.06361 2.455985,2.67175 5.751754,3.66273 9.661335,3.42728 6.779492,-0.30942 13.498543,-0.92887 19.869254,-2.26021 1.861164,-0.85507 3.774082,-2.10943 4.82955,-3.97161 2.1757748,-5.53341 3.9437658,-11.248 5.2999608,-16.98631 0.542982,-3.54634 0.9618968,-7.15572 1.0909078,-10.90905 0.255203,-1.69155 -0.6643098,-2.91254 -1.4022778,-4.20681 z m -7.479533,16.26109 c 5.902727,-0.0928 10.539769,2.73613 10.632605,3.97397 0.474447,6.32605 -1.944791,7.03532 -10.632605,7.03532 -8.687814,0 -13.47266,-2.01889 -11.746639,-7.68517 0.427257,-1.40262 4.916395,-3.2167 11.746639,-3.32412 z" id="path3569" inkscape:connector-curvature="0" stroke-opacity="1" fill="#000000" fill-rule="evenodd" stroke="none" stroke-linejoin="miter" fill-opacity="0.327" stroke-linecap="butt" stroke-width="0.072"/>
   <path inkscape:connector-curvature="0" id="path1145" d="m -48.894531,255.55078 c -3.344401,5.60807 -6.688802,11.21615 -10.033203,16.82422 -0.0085,3.55417 -0.41529,7.15386 -0.175782,10.67969 0.317522,2.32937 2.531818,3.39983 3.911632,5.04207 3.861147,3.86152 8.139274,7.29452 12.400521,10.67328 4.376303,2.63887 9.66326,1.2246 14.448006,1.08069 4.398575,-0.46879 8.853571,-0.79705 13.100708,-2.01334 2.489269,-1.11841 4.490371,-3.19016 5.076557,-5.90855 2.5636002,-7.14984 4.9159274,-14.49593 5.2937532,-22.12437 0.102444,-2.33331 0.7590956,-4.92428 -0.8784242,-6.92071 -2.0375541,-1.97016 -4.802749,-3.24697 -7.12529,-4.94557 -3.690404,-2.4182 -7.380808,-4.8364 -11.071213,-7.2546 -8.315755,1.6224 -16.63151,3.2448 -24.947265,4.86719 z m 17.517578,10.85156 c 3.740555,0.0401 7.871141,0.83893 10.613281,3.55664 0.658632,1.45554 0.352865,3.2782 -0.05427,4.78682 -1.131438,2.99642 -4.906691,2.99934 -7.578547,3.15068 -4.50955,-0.022 -9.531389,0.44202 -13.496177,-2.11988 -2.04802,-1.39165 -2.409912,-4.56249 -1.056558,-6.52465 3.19384,-2.45385 7.705928,-2.6519 11.572266,-2.84961 z" stroke-opacity="1" fill="#000000" fill-rule="evenodd" stroke="none" stroke-linejoin="miter" fill-opacity="0.327" stroke-linecap="butt" stroke-width="0.072"/>
   <path inkscape:connector-curvature="0" id="path1149" d="m -48.728516,255.78906 c -3.3125,5.55339 -6.625,11.10677 -9.9375,16.66016 0.06359,3.77574 -0.626767,7.61051 0.01953,11.3457 1.092056,2.31325 3.524764,3.59569 5.105468,5.54102 3.730504,3.40083 7.5353,6.80474 11.699219,9.64648 4.671258,2.10044 9.89299,0.62621 14.7866,0.46937 4.221984,-0.55228 8.634791,-0.61884 12.584494,-2.30531 2.514529,-1.29278 3.858699,-3.91065 4.493891,-6.55256 2.9317788,-8.06441 5.1867449,-16.58133 4.9865776,-25.23064 -0.4686106,-3.28233 -4.1098328,-4.39968 -6.4466316,-6.13414 -4.161447,-2.79427 -8.378842,-5.50782 -12.565087,-8.26625 -8.242188,1.60872 -16.484375,3.21745 -24.726563,4.82617 z m 17.357422,10.34961 c 3.854323,0.05 8.0672,0.85777 10.851563,3.72071 0.750706,2.08676 0.506332,4.78129 -1.009766,6.4707 -2.786209,2.36683 -6.797989,1.6487 -10.165589,1.84858 -3.858223,-0.0349 -8.356927,-0.14845 -11.258896,-3.0404 -1.697777,-2.09931 -1.475438,-6.0768 1.375004,-7.06125 3.138535,-1.61492 6.755451,-1.75185 10.207684,-1.93834 z" stroke-opacity="1" fill="#000000" fill-rule="evenodd" stroke="none" stroke-linejoin="miter" fill-opacity="0.327" stroke-linecap="butt" stroke-width="0.072"/>
   <path inkscape:connector-curvature="0" id="path1153" d="m -48.5625,256.02734 c -3.279948,5.49805 -6.559896,10.9961 -9.839844,16.49414 0.135916,3.84356 -0.824464,7.82878 0.210938,11.57227 1.604051,2.38738 4.06946,4.02531 6.01363,6.1153 3.554873,3.10042 7.012916,6.4819 11.126685,8.80963 4.927973,1.70821 10.21303,0.23488 15.278965,0.0139 4.177882,-0.58433 8.821405,-0.46803 12.434235,-2.95247 2.952801,-2.56109 3.247295,-6.71104 4.6757816,-10.15039 2.0963319,-6.80036 3.7768949,-13.94696 3.2910156,-21.09375 -1.0854753,-3.15605 -4.7237632,-4.04359 -7.0996752,-5.97718 -3.843618,-2.5661 -7.722403,-5.07979 -11.585872,-7.61657 -8.168619,1.59505 -16.337239,3.1901 -24.505859,4.78515 z m 17.199219,9.84766 c 3.95199,0.0542 8.303589,0.89057 11.095703,3.90234 1.086939,2.88555 0.162107,6.97605 -3.101416,7.92645 -3.49184,1.13949 -7.25518,0.60387 -10.866219,0.67361 -3.342767,-0.16685 -7.359788,-0.77529 -9.373494,-3.75531 -1.469013,-2.44003 -0.566271,-6.24174 2.394012,-7.0139 3.073529,-1.42387 6.527293,-1.55365 9.851414,-1.73319 z" stroke-opacity="1" fill="#000000" fill-rule="evenodd" stroke="none" stroke-linejoin="miter" fill-opacity="0.327" stroke-linecap="butt" stroke-width="0.072"/>
   <path inkscape:connector-curvature="0" id="path1157" d="m -48.396484,256.26562 c -3.246745,5.44206 -6.49349,10.88412 -9.740235,16.32618 0.179825,3.85282 -0.957772,7.89006 0.343646,11.60702 2.466668,3.04963 5.619542,5.47917 8.451276,8.16837 2.908917,2.42662 5.705866,5.28952 9.28125,6.67773 5.209457,1.26291 10.589874,-0.17674 15.847656,-0.46875 3.90093,-0.48851 8.454221,-0.48583 11.44336,-3.43555 2.472886,-3.11304 2.8872726,-7.1935 4.306165,-10.8087 1.8480893,-6.36207 3.3987625,-13.04621 2.7348504,-19.6913 -1.4386277,-3.10598 -5.1080104,-3.93433 -7.5637504,-6.00915 -3.592298,-2.38986 -7.208367,-4.74434 -10.817109,-7.10999 -8.095703,1.58138 -16.191406,3.16276 -24.287109,4.74414 z m 17.041015,9.34571 c 4.050142,0.0575 8.536021,0.92534 11.339844,4.08398 1.274049,3.16857 -0.105857,7.72332 -3.784647,8.41226 -4.048452,0.99862 -8.287546,0.53602 -12.404806,0.37876 -3.284201,-0.32441 -7.406841,-1.6971 -8.244141,-5.31055 -0.63412,-2.59424 0.983255,-5.47734 3.64324,-6.03382 2.986428,-1.23515 6.266779,-1.35736 9.45051,-1.53063 z" stroke-opacity="1" fill="#000000" fill-rule="evenodd" stroke="none" stroke-linejoin="miter" fill-opacity="0.327" stroke-linecap="butt" stroke-width="0.072"/>
  </g>
  <path sodipodi:nodetypes="cccccccccccccsssss" inkscape:connector-curvature="0" d="m 41.306972,236.31024 -28.136253,5.48701 -11.3246223,18.99041 -0.3481031,11.49741 c 0.4175731,1.61494 0.8527288,3.21534 2.1787751,3.9218 4.1799726,4.34145 8.7405633,8.49171 13.8490003,12.36892 2.74575,2.98698 6.430365,4.09489 10.80121,3.83165 7.579356,-0.34593 15.091142,-1.03846 22.21349,-2.52688 2.080749,-0.95595 4.219359,-2.35831 5.399355,-4.44019 2.432479,-6.18626 4.409063,-12.57508 5.925268,-18.99041 0.607042,-3.96474 1.075385,-7.99998 1.219617,-12.19612 0.28531,-1.89112 -0.877531,-3.09886 -1.702567,-4.54585 z m -8.361991,4.7908 c 9.71283,0 18.601795,5.92519 18.601795,13.01749 5e-6,7.09228 -8.888965,12.93112 -18.601795,12.93112 -9.712829,0 -17.595487,-6.00656 -17.595487,-13.09884 0,-7.09229 7.882658,-12.84977 17.595487,-12.84977 z" id="path3175" stroke-dasharray="none" stroke-opacity="1" fill="url(#linearGradient4214)" fill-rule="evenodd" stroke="none" stroke-linejoin="miter" fill-opacity="1" stroke-linecap="butt" stroke-width="0.296" stroke-miterlimit="4"/>
  <path sodipodi:nodetypes="ccccccccccccccsssss" inkscape:connector-curvature="0" d="m 38.435639,235.11159 c -0.189023,-0.002 -0.364192,0.004 -0.518402,0.0226 -4.131697,0.14059 -16.658281,1.72197 -21.429628,2.51936 -3.221499,0.71747 -4.358877,1.67437 -5.339251,2.95512 -2.7455233,5.34156 -6.5697192,12.55222 -9.2410148,18.62728 -0.3909123,0.80822 -0.1447275,2.50394 0.9666748,3.58872 3.7623565,3.55788 15.25994,12.56153 17.855943,14.47007 2.23952,1.70816 3.94719,1.82222 6.215769,1.73802 4.237142,0 20.705853,-1.88936 25.722064,-3.04277 1.501352,-0.23956 3.009117,-0.93883 3.551153,-2.0736 2.708407,-6.81832 4.122352,-12.14215 6.739183,-18.92781 0.718788,-1.30246 0.531399,-3.71442 -0.663656,-4.64303 -4.495756,-4.09324 -12.911476,-10.37398 -18.977881,-13.81394 -1.479679,-0.92174 -3.557838,-1.40717 -4.880954,-1.41996 z m -5.279147,5.97535 c 9.65113,0 18.407744,5.67334 18.407744,12.66444 0,6.99111 -8.505037,13.33532 -18.156166,13.33532 -9.65114,0 -17.734375,-6.34421 -17.734375,-13.33532 0,-6.9911 7.831659,-12.66444 17.482797,-12.66444 z" id="path3156" stroke-opacity="1" fill="url(#radialGradient3877)" stroke="none" fill-opacity="1" stroke-width="0.081"/>
  <path inkscape:connector-curvature="0" d="m 33.032638,241.18869 c -9.760921,0 -17.683144,5.67834 -17.683144,12.67447 0,2.68791 1.16925,5.181 3.162976,7.23252 3.185439,-3.33985 8.538796,-5.53459 14.605305,-5.53459 6.010768,0 11.995463,2.65689 15.191042,5.94509 1.939865,-2.03391 3.075329,-4.91121 3.075329,-7.55916 0,-6.99613 -8.590606,-12.75833 -18.351508,-12.75833 z" id="path3180" sodipodi:nodetypes="sscscss" stroke-opacity="1" fill="url(#linearGradient4222)" stroke="none" fill-opacity="1" stroke-width="0.296"/>
  <path inkscape:connector-curvature="0" id="path3185" d="m 26.497835,279.74872 c -2.567802,0.37373 -3.932168,12.25109 0.438676,11.98785 7.579358,-0.34593 16.062313,-0.87075 23.184664,-2.35916 6.132439,-2.52071 4.153836,-13.21786 2.252562,-12.58874 -7.754155,0.65751 -21.418932,2.81455 -25.875902,2.96005 z" sodipodi:nodetypes="ccccc" stroke-opacity="1" fill="url(#radialGradient3875)" fill-rule="evenodd" stroke="none" stroke-linejoin="miter" fill-opacity="1" stroke-linecap="butt" stroke-width="0.296"/>
  <path inkscape:connector-curvature="0" sodipodi:nodetypes="ccccc" d="m 3.3139335,263.79373 c -2.1215757,-1.40698 -1.4215418,10.56652 0.2554356,12.46758 5.3946338,5.33519 9.6915219,9.60168 15.6157869,13.82618 6.011479,2.79694 4.297061,-9.51661 1.83867,-11.94844 -5.928075,-5.01388 -14.3462371,-11.2742 -17.7098925,-14.34532 z" id="path3187" stroke-opacity="1" fill="url(#radialGradient3883)" fill-rule="evenodd" stroke="none" stroke-linejoin="miter" fill-opacity="1" stroke-linecap="butt" stroke-width="0.296"/>
  <path inkscape:connector-curvature="0" d="m 15.256883,256.14422 c -2.312942,-16.52415 38.420822,-15.82599 35.084891,-1.21483 -2.657456,-10.73638 -34.100941,-13.24772 -35.084891,1.21483 z" id="path3189" sodipodi:nodetypes="ccc" stroke-opacity="1" fill="url(#linearGradient3559)" fill-rule="evenodd" stroke="none" stroke-linejoin="miter" fill-opacity="1" stroke-linecap="butt" stroke-width="0.296"/>
  <path inkscape:connector-curvature="0" sodipodi:nodetypes="ccc" id="path3199" d="m 16.910046,263.99285 c -1.87296,-16.07097 36.824277,-15.73516 33.61809,0.0686 -2.23845,-11.80969 -32.383994,-13.88726 -33.61809,-0.0686 z" stroke-opacity="1" fill="url(#linearGradient3556)" fill-rule="evenodd" stroke="none" stroke-linejoin="miter" fill-opacity="1" stroke-linecap="butt" stroke-width="0.296"/>
  <path inkscape:connector-curvature="0" d="m 17.096416,259.33363 c -4.995511,-15.84163 36.82144,-14.8952 33.618089,0.0686 -2.657449,-10.73639 -32.909163,-13.98113 -33.618089,-0.0686 z" id="path3203" sodipodi:nodetypes="ccc" stroke-opacity="1" fill="url(#linearGradient3553)" fill-rule="evenodd" stroke="none" stroke-linejoin="miter" fill-opacity="1" stroke-linecap="butt" stroke-width="0.296"/>
  <path sodipodi:nodetypes="ssssssssss" inkscape:connector-curvature="0" d="m 33.07549,237.64319 c -15.153243,0 -27.4515625,8.38059 -27.4515625,18.70805 0,10.32746 12.2983195,18.71066 27.4515625,18.71066 15.153239,0 27.451561,-8.3832 27.451561,-18.71066 0,-10.32746 -12.298322,-18.70805 -27.451561,-18.70805 z m 0.357054,4.42379 c 9.97095,0 18.397575,5.89859 18.397575,13.16724 0,7.26865 -8.426625,12.66408 -18.397575,12.66408 -9.970963,0 -18.064733,-5.39543 -18.064733,-12.66408 0,-7.26865 8.09377,-13.16724 18.064733,-13.16724 z" id="path3159" stroke-opacity="1" fill="url(#linearGradient3887)" stroke="none" fill-opacity="1" stroke-width="0.306"/>
  <path d="m 62.414353,258.55529 -5.408819,15.21803 -1.008423,3.20862 0.18335,5.5005 1.008422,-1.92518 3.575325,-11.45936 z" id="path3889" inkscape:connector-curvature="0" stroke-opacity="1" fill="url(#radialGradient3897)" stroke="none" stroke-linejoin="miter" fill-opacity="1" stroke-linecap="butt" stroke-width="0.296"/>
  <path d="m 33.83306,239.8301 c -10.480545,-4e-5 -19.563772,6.21989 -19.563834,13.78917 6.3e-5,7.5693 8.999431,14.87939 19.479975,14.87935 10.480544,4e-5 19.228337,-7.39391 19.228399,-14.96321 -6.2e-5,-7.56928 -8.663994,-13.70535 -19.14454,-13.70531 z m 0,2.25281 c 10.024856,3e-5 17.234834,5.14223 17.234813,12.00269 2.1e-5,6.86043 -7.209957,12.75737 -17.234813,12.7574 -10.024855,-3e-5 -17.601531,-5.98865 -17.601512,-12.84908 -2e-5,-6.86045 7.576656,-11.91098 17.601512,-11.91101 z" id="path4320" inkscape:connector-curvature="0" sodipodi:nodetypes="scscssssss" opacity="1" stroke-dasharray="none" stroke-opacity="1" fill="url(#linearGradient4331)" fill-rule="evenodd" stroke="none" stroke-linejoin="round" fill-opacity="1" stroke-linecap="round" stroke-width="0.592" stroke-dashoffset="0" stroke-miterlimit="4"/>
  <path d="m 2.0033979,260.96202 c 0.4459734,-2.28883 1.9849447,-2.6103 3.5220801,-2.93506 l 8.972917,-1.34174 c -0.670591,-6.5553 3.134947,-15.56717 16.77181,-16.6041 15.279602,-0.84188 19.133249,5.6052 21.635634,12.91429 l 7.062023,-1.60075 c 1.084212,-0.21732 2.168428,-0.26096 3.25264,0.84602 -0.189461,-0.55594 -0.30487,-1.07488 -0.922451,-1.84489 -5.839645,-4.85293 -11.82347,-9.64408 -19.203722,-13.83675 -2.068524,-1.60914 -4.137046,-1.5727 -6.20557,-1.4256 l -19.036002,2.4319 c -3.499342,0.64227 -6.084044,1.49318 -7.379596,4.77998 l -8.5536224,17.35882 z" id="path4222" inkscape:connector-curvature="0" sodipodi:nodetypes="cccccccccccccc" stroke-dasharray="none" stroke-opacity="1" fill="url(#linearGradient4230)" fill-rule="evenodd" stroke="none" stroke-linejoin="miter" fill-opacity="1" stroke-linecap="butt" stroke-width="0.059" stroke-miterlimit="4"/>
 </g>
</svg>
