<?xml version="1.0" encoding="UTF-8" standalone="no"?>
<!DOCTYPE svg PUBLIC "-//W3C//DTD SVG 1.1//EN" "http://www.w3.org/Graphics/SVG/1.1/DTD/svg11.dtd">
<svg xmlns="http://www.w3.org/2000/svg" xmlns:xlink="http://www.w3.org/1999/xlink" width="128" height="128" viewBox="-.811 -.732 1708 1708">
  <defs>
    <path id="f" fill="#fff" fill-opacity=".25842698" fill-rule="evenodd" d="M1417.5448 1671.5836c140.9581-10.4224 257.0159-114.8742 282.178-253.9599 0 155.8434-126.3358 282.1782-282.178 282.1782H288.83311c-155.8423 0-282.1781581-126.3348-282.1781581-282.1782C31.816212 1556.7094 147.87494 1661.1612 288.83311 1671.5836H1417.5448z"/>
  </defs>
  <defs>
    <linearGradient id="c">
      <stop offset="0" stop-color="#eb5b07"/>
      <stop offset="1" stop-color="#eb5b07" stop-opacity="0"/>
    </linearGradient>
    <linearGradient id="b">
      <stop offset="0" stop-color="#ff5100"/>
      <stop offset="1" stop-color="#ff9a1e" stop-opacity=".58823532"/>
    </linearGradient>
    <linearGradient id="a">
      <stop offset="0" stop-color="#fff"/>
      <stop offset="1" stop-color="#fff" stop-opacity="0"/>
    </linearGradient>
    <linearGradient xlink:href="#a" id="e" x1="1531.1748" x2="514.25446" y1="-710.26196" y2="1775.3436" gradientTransform="translate(3.833802 3.912899) scale(.99546)" gradientUnits="userSpaceOnUse"/>
    <linearGradient xlink:href="#b" id="d" x1="1026.7279" x2="1703.623" y1="1147.7113" y2="1703.6219" gradientTransform="translate(3.833802 3.912899) scale(.99546)" gradientUnits="userSpaceOnUse"/>
    <linearGradient xlink:href="#c" id="g" x1="1678.5588" x2="1678.5588" y1="288.91214" y2="1417.6237" gradientUnits="userSpaceOnUse"/>
  </defs>
  <g transform="translate(-.0000521 .00004613)">
    <path fill="none" stroke="#e83131" stroke-linecap="round" stroke-linejoin="round" stroke-miterlimit="100" stroke-opacity=".66666667" stroke-width="10.2480011" d="M1417.5448 1699.8019c155.8422 0 282.178-126.3348 282.178-282.1782m-1693.0678481 0c0 155.8434 126.3358581 282.1782 282.1781581 282.1782m.00005.0001H1417.5448M6.654954 288.91214V1417.6238M288.83311 6.7339793c-155.8423 0-282.1781581 126.3358607-282.1781581 282.1781607M1417.5448 6.733994H288.83316M1699.7231 1417.6238V288.91214"/>
    <path fill="url(#d)" d="M1699.7228 288.91214c0-74.83772-29.7294-146.6104-82.648-199.529068-52.9187-52.918673-124.6913-82.6481027-199.5291-82.6481027H288.83311c-74.83871 0-146.61139 29.7294297-199.530058 82.6481027C36.385372 142.30174 6.6549519 214.07442 6.6549519 288.91214V1417.6237c0 74.8388 29.7294301 146.6115 82.6481001 199.5291 52.918668 52.9188 124.691348 82.6482 199.530058 82.6482H1417.5448c74.8387 0 146.6104-29.7294 199.529-82.6482 52.9187-52.9176 82.6481-124.6913 82.6481-199.5291V288.91214h.0009z"/>
    <path fill="url(#e)" d="M1699.7228 288.91214c0-155.8423-126.3358-282.1771707-282.178-282.1771707H288.83311C132.99081 6.7339793 6.6549519 133.06984 6.6549519 288.91214v846.53356C684.27075 1188.7794 1335.8205 863.00502 1699.7228 288.91214z"/>
    <use xlink:href="#f" fill-opacity=".25842698" fill-rule="evenodd"/>
    <path fill="none" stroke="#c6783c" stroke-linecap="round" stroke-linejoin="round" stroke-miterlimit="100" stroke-width="14.931904" d="M1417.5448 1699.8019c155.8422 0 282.178-126.3348 282.178-282.1782m-1693.0678481 0c0 155.8434 126.3358581 282.1782 282.1781581 282.1782m.00005.0001H1417.5448M6.654954 288.91214V1417.6238M288.83311 6.7339793c-155.8423 0-282.1781581 126.3358607-282.1781581 282.1781607M1417.5448 6.733994H288.83316M1699.7228 288.91214c0-155.8423-126.3358-282.1771707-282.178-282.1771707M1699.7231 1417.6238V288.91214"/>
    <use xlink:href="#f" fill-opacity=".58823529" fill-rule="evenodd"/>
    <path fill="#eb5b07" fill-opacity=".5882353" fill-rule="evenodd" d="M6.6549519 1417.6237c23.3764001 0 42.3269701-252.6697 42.3269701-564.35625 0-311.68459-18.95057-564.35531-42.3269701-564.35531V1417.6237z"/>
    <path fill="url(#g)" fill-rule="evenodd" d="M1699.7228 1417.6237c-23.3763 0-42.3279-252.6697-42.3279-564.35625 0-311.68459 18.9506-564.35531 42.3279-564.35531V1417.6237z"/>
    <path fill="#fff" fill-opacity=".54901961" fill-rule="evenodd" d="M1699.7228 288.91214c-47.0115-120.22872-154.5621-206.269329-282.178-225.741526H288.83311C161.21708 82.642811 53.666562 168.68243 6.6549519 288.91214c0-155.8423 126.3358581-282.1771707 282.1781581-282.1771707H1417.5448c155.8422-.00099 282.178 126.3348707 282.178 282.1771707z"/>
  </g>
  <g transform="translate(43.106908 13.199214)">
    <rect width="895.20062" height="672.79132" x="362.30701" y="725.28912" fill="#fff" stroke="#000" stroke-linecap="round" stroke-linejoin="round" stroke-width=".7086615" overflow="visible" rx="111.04942" ry="99.200508" style="marker:none"/>
    <path fill-opacity=".62745098" d="M362.3071 823.6805c18.1559-72.6236 60.5197-96.8315 145.2472-96.8315.071-2.0163 0 0 0-1.2104h-39.3378c-39.3378 0-102.8834 19.3663-105.9094 98.0419zm895.9044.00004c-18.1559-72.6236-60.5197-96.8315-145.2472-96.8315-.071-2.0163 0 0 0-1.2104h39.3378c39.3378 0 102.8834 19.3663 105.9094 98.0419z"/>
    <g transform="rotate(24.285 4689.29917133 -1051.42230155)">
      <path fill="#fff" d="M1658.11433463 1603.06313963c-110.07264679 50.34406003-170.36881477 107.12458295-191.81584863 220.82972802-7.50243675 39.77629358-8.22137894 98.4280076 11.34936368 141.21763242l29.76667994 65.08210194 143.0685529-65.5043845-29.74060104-65.02508283c-20.1376157-44.02904052 13.82254685-86.18108942 35.83720352-96.24995965l77.05084366-35.24083787-75.51619403-165.10919753z"/>
      <path fill="#fff" d="m2133.7341922 1944.5423488-105.722472-231.15244003c-19.57074262-42.78962481-64.41026303-80.60420952-99.40799037-100.94215147-100.04344259-58.13889843-182.43113226-49.65993224-292.50377905.68412779l75.51619402 165.10919753 77.05084366-35.24083786c22.0144748-10.06878705 76.11230237-8.19192795 96.24991807 35.83711258l155.63425439 340.27995164 143.09481368-65.44744857z"/>
      <path fill-opacity=".62745098" d="M1469.17514695 1809.02509296c60.83737472-187.54370259 275.09924047-285.77436379 445.58450311-204.03108651-142.49794397-107.85369525-422.80332505 20.5833687-445.58450311 204.0310865z"/>
    </g>
  </g>
</svg>