<?xml version="1.0" encoding="UTF-8" standalone="no"?>
<svg xmlns="http://www.w3.org/2000/svg" xmlns:xlink="http://www.w3.org/1999/xlink" viewBox="0 0 128 128">
  <linearGradient id="f" x1="76.31" x2="27.75" y1="-43.91" y2="74.3" gradientTransform="matrix(.97 0 0 -.97 -11.02 78.2)" gradientUnits="userSpaceOnUse">
    <stop offset="0" stop-color="#a20000"/>
    <stop offset="1" stop-color="#ff9500"/>
  </linearGradient>
  <linearGradient id="g" x1="3.24" x2="91.38" y1="22.14" y2="22.14" gradientTransform="matrix(.97 0 0 -.97 -11.02 78.2)" gradientUnits="userSpaceOnUse">
    <stop offset="0" stop-color="#fff"/>
    <stop offset=".2" stop-color="#fff800"/>
    <stop offset="1" stop-color="#ff7400"/>
  </linearGradient>
  <linearGradient id="h" x1="37.62" x2="62.37" y1="18.84" y2="18.29" gradientTransform="matrix(.97 0 0 -.97 -11.02 78.2)" gradientUnits="userSpaceOnUse">
    <stop offset="0" stop-color="#fff"/>
    <stop offset=".02" stop-color="#fffff6"/>
    <stop offset=".06" stop-color="#fffede"/>
    <stop offset=".1" stop-color="#fffdb6"/>
    <stop offset=".16" stop-color="#fffb7f"/>
    <stop offset=".21" stop-color="#fffa39"/>
    <stop offset=".26" stop-color="#fff800"/>
    <stop offset="1" stop-color="#ff5b00"/>
  </linearGradient>
  <linearGradient id="a" x1="-52.21" x2="11.92" y1="-72.66" y2="-43.19" gradientTransform="matrix(.99 .04 .04 -1.02 68.05 -39.87)" gradientUnits="userSpaceOnUse">
    <stop offset="0" stop-color="#fff"/>
    <stop offset=".2" stop-color="#ececec"/>
    <stop offset="1" stop-color="#606060"/>
  </linearGradient>
  <linearGradient id="i" x1="35.59" x2="59.39" y1="71.52" y2="51.99" gradientTransform="matrix(.97 0 0 -.97 -11.02 78.2)" xlink:href="#a"/>
  <linearGradient id="j" x1="62.45" x2="46.58" y1="64.6" y2="59.71" gradientTransform="matrix(.97 0 0 -.97 -11.02 78.2)" xlink:href="#a"/>
  <linearGradient id="k" x1="40.02" x2="65.3" y1="58.16" y2="69.78" gradientTransform="matrix(.97 0 0 -.97 -11.02 78.2)" xlink:href="#a"/>
  <linearGradient id="l" x1=".24" x2="93.57" y1="-11.29" y2="-11.29" gradientTransform="matrix(.97 0 0 -.97 -11.02 78.2)" gradientUnits="userSpaceOnUse">
    <stop offset="0" stop-color="#4f4f4f"/>
    <stop offset=".31" stop-color="#fff"/>
    <stop offset=".71" stop-color="#4a4a4a"/>
    <stop offset="1" stop-color="#0d0d0d"/>
  </linearGradient>
  <radialGradient id="b" cx="112.64" cy="-45.83" r="30.91" gradientTransform="matrix(.91 0 -.02 -1 -39.52 76.2)" gradientUnits="userSpaceOnUse">
    <stop offset="0" stop-color="#ffbb9d"/>
    <stop offset="1" stop-color="red"/>
  </radialGradient>
  <radialGradient id="m" cx="111.26" cy="-44.11" r="58.69" gradientTransform="matrix(1 0 0 -1 -13.94 76.71)" xlink:href="#b"/>
  <radialGradient id="n" cx="120.89" cy="-27.78" r="81.26" gradientTransform="matrix(.97 .03 -.03 -.97 -18 77.44)" gradientUnits="userSpaceOnUse">
    <stop offset="0" stop-color="#ffde9a"/>
    <stop offset=".71" stop-color="#ff5b00"/>
  </radialGradient>
  <radialGradient id="o" cx="120.52" cy="-31.42" r="81.28" gradientTransform="matrix(.97 .03 -.03 -.97 -18 77.44)" gradientUnits="userSpaceOnUse">
    <stop offset="0" stop-color="#ffde9a"/>
    <stop offset=".13" stop-color="#ffd994"/>
    <stop offset=".3" stop-color="#ffcc85"/>
    <stop offset=".49" stop-color="#ffb56a"/>
    <stop offset=".69" stop-color="#ff9646"/>
    <stop offset=".9" stop-color="#ff6f17"/>
    <stop offset="1" stop-color="#ff5b00"/>
  </radialGradient>
  <radialGradient id="p" cx="120.52" cy="-31.42" r="81.27" gradientTransform="matrix(.97 .03 -.03 -.97 -18 77.44)" gradientUnits="userSpaceOnUse">
    <stop offset="0" stop-color="#ffde9a"/>
    <stop offset="1" stop-color="#ff5b00"/>
  </radialGradient>
  <radialGradient id="q" cx="200.08" cy="468.9" r="17.22" gradientTransform="matrix(.71 .71 .71 -.71 -408.4 285.7)" xlink:href="#b"/>
  <linearGradient id="e" x1="202.55" x2="202.55" y1="486.43" y2="452.96" gradientTransform="matrix(.71 .71 .71 -.71 -408.4 285.7)" gradientUnits="userSpaceOnUse">
    <stop offset="0" stop-color="#fff"/>
    <stop offset="1" stop-color="#fff" stop-opacity="0"/>
  </linearGradient>
  <linearGradient id="c" x1="189.46" x2="201" y1="506.08" y2="502.67" gradientTransform="matrix(.71 .71 .71 -.71 -408.4 285.7)" gradientUnits="userSpaceOnUse">
    <stop offset=".03" stop-color="#fff"/>
    <stop offset="1" stop-color="#b3b3b3"/>
  </linearGradient>
  <linearGradient id="d" x1="194.53" x2="195.05" y1="521.13" y2="506.17" gradientTransform="matrix(.71 .71 .71 -.71 -408.4 285.7)" gradientUnits="userSpaceOnUse">
    <stop offset="0" stop-color="#9e9e9e"/>
    <stop offset="1" stop-color="#616161"/>
  </linearGradient>
  <linearGradient id="r" x1="208.56" x2="220.1" y1="506.08" y2="502.67" xlink:href="#c"/>
  <linearGradient id="s" x1="213.63" x2="214.16" y1="521.13" y2="506.17" xlink:href="#d"/>
  <linearGradient id="t" x1="118.3" x2="98.94" y1="4.37" y2="-19.06" gradientTransform="matrix(1 0 0 -1 -13.94 76.71)" xlink:href="#e"/>
  <linearGradient id="u" x1="104.89" x2="85.52" y1="17.79" y2="-5.65" gradientTransform="matrix(1 0 0 -1 -13.94 76.71)" xlink:href="#e"/>
  <path fill="url(#f)" d="m73.19 23.37a1.33 1.33 0 0 0 0-.21v-.16-1c-.02-13.36-16.51-21.47-36.19-21.47s-35.09 8.01-35.26 21.26l-.88 66.13.05 7.45s0 .1 0 .16a4.49 4.49 0 0 0 .5 1.32l.2.42c3.61 8.64 16.42 15 31.87 15.82l3.22.1 3.39-.11.91-.08h.38c14.49-1.14 26.31-7.07 30.11-15.13a5.74 5.74 0 0 0 .87-2.61s.05-8.36.05-8.36l.86-63.63s-.07.06-.08.1zm-4.26 62.82-.05 7.88a4 4 0 0 1 -.56 1.42v.06c-3.28 7-14.24 12.32-27.28 13.34h-.35-.8l-3.16.1-3-.09c-13.91-.65-25.73-6.36-28.89-13.82l-.25-.52-.24-.56c0-.32 0-6.85 0-6.85l.85-64.41c.13-11.49 14.13-18.1 31.8-18.1s32.7 6.7 32.7 18.33v1.12.12zm2.54 11.68a.05.05 0 0 1 0 0z"/>
  <path fill="url(#g)" d="m38 2.52c-18.24 0-33 9.78-33.2 21.88l-.86 63.73.06 6.87a7.61 7.61 0 0 0 .58 1.34c3.31 7.88 15.42 13.66 29.59 14.42q1.5.09 3 .09c1.08 0 2.14 0 3.19-.1l1-.07h.22c13.22-1 24.49-6.46 28-13.86a4.49 4.49 0 0 0 .7-2l.05-7.67.83-61.36s-.06-.59-.06-1.19c-.04-12.19-14.74-22.08-33.1-22.08z"/>
  <path fill="url(#h)" d="m44.19 11.21c-14.61 0-26.46 8.79-26.59 19.72l-.83 58.59v5.54a6.77 6.77 0 0 0 .46 1.2c2.65 7.16 12.33 12.38 23.69 13q1.2.09 2.43.09c.86 0 1.71 0 2.55-.1.26 0 .51 0 .77-.06h.17c10.58-.93 19.6-5.83 22.4-12.5a4.27 4.27 0 0 0 .56-1.79v-6.31l.83-56.45s0-.53 0-1.07c.02-10.95-11.75-19.86-26.44-19.86z" opacity=".6"/>
  <path fill="url(#a)" d="m69.23 21.16c.13 9.7-13.86 17.71-31.25 17.91s-31.59-7.51-31.72-17.2 13.87-17.7 31.25-17.87 31.59 7.47 31.72 17.16z"/>
  <path fill="url(#i)" d="m63 20.05c.1 7.76-11.11 14.18-25 14.34s-25.31-6-25.41-13.78 11.11-14.18 25-14.34 25.27 6.01 25.41 13.78z"/>
  <path fill="#fff" d="m41.71 37c-17.64.9-32.41-6.07-33-15.58a10.09 10.09 0 0 1 1.18-5.28 11.22 11.22 0 0 0 -2.89 7.86c.57 9.52 15.33 16.49 33 15.59 14.28-.74 25.31-7.78 29-14.95-5 5.93-14.8 11.72-27.29 12.36z"/>
  <path fill="url(#j)" d="m49.58 19.29c0 4.22-5.57 7.64-12.45 7.64s-12.46-3.42-12.46-7.64 5.58-7.64 12.46-7.64 12.45 3.42 12.45 7.64z"/>
  <path fill="url(#k)" d="m49.58 17.44c0 3.19-5.57 5.78-12.45 5.78s-12.46-2.59-12.46-5.78 5.58-5.79 12.46-5.79 12.45 2.59 12.45 5.79z"/>
  <path fill="none" d="m70.38 67c.26 7 .24 19.91.24 19.91v-.51-19.72c-.06.13-.14.24-.24.32z"/>
  <path fill="url(#l)" d="m4 95a7.94 7.94 0 0 0 .58 1.34c3.31 7.88 15.42 13.66 29.59 14.42q1.5.09 3 .09c1.08 0 2.14 0 3.19-.1l1-.07h.22c13.22-1 24.49-6.46 28-13.87a4.44 4.44 0 0 0 .7-2l.05-7.68.26-19.28a45.44 45.44 0 0 1 -33 13.91 45.4 45.4 0 0 1 -33.38-14.27l-.27 20.64z"/>
  <path fill="#fff" d="m46.8 42.88-11 21.56 11 7.06-23.13 23.13 4.71-21.17-8.63-5.88z" opacity=".87"/>
  <path fill="none" d="m48.9 68.67a5.48 5.48 0 0 0 -5.2 5.89l.54 21.88a5.81 5.81 0 0 0 5.49 5.89h39.32a4.85 4.85 0 0 0 2.3-.59l-.8-32.48a4.91 4.91 0 0 0 -2.33-.59z"/>
  <path fill="url(#b)" d="m41.26 96.36-.08.08c.13 5.1 4 9.25 8.63 9.25h39.32a7.65 7.65 0 0 0 2.31-.36l-.09-3.59a4.85 4.85 0 0 1 -2.3.59h-39.32a5.81 5.81 0 0 1 -5.49-5.89l-.62-3.44z"/>
  <path fill="#a20000" d="m43.4 92.73-2.59 3.71c.14 5.33 4.18 9.66 9 9.66h39.33a8 8 0 0 0 2.41-.38l.27-.09-.12-4.54-.52.28a4.37 4.37 0 0 1 -2.14.55h-39.32a5.4 5.4 0 0 1 -5.11-5.48l-.24-3.71zm.25.81c0 .78.22 2.9.22 2.9.08 3.47 2.72 6.29 5.87 6.29h39.32a5 5 0 0 0 1.94-.42l.06 2.67a7.21 7.21 0 0 1 -1.94.31h-39.32c-4.43 0-8.13-4-8.25-8.85 0 0 1.61-2.9 2.1-2.9z"/>
  <path fill="none" d="m94.45 73.89c-9.59-9.61-21.75-13.08-27.1-7.75a9.26 9.26 0 0 0 -2.5 6.38 8.48 8.48 0 0 1 2-3.11c5.5-5.49 17.87-2 27.63 7.76 5.81 5.82 9.38 12.56 10.16 18.22.55-6.09-3.18-14.47-10.19-21.5z"/>
  <path fill="url(#m)" d="m95.5 71.26c11.25 11.27 15 25.81 8.28 32.47s-33.34 15.06-44.59 3.8-2.81-37.94 3.86-44.6 21.21-2.93 32.45 8.33z"/>
  <path fill="#a20000" d="m62.78 62.65c-6.78 6.83-15.22 33.77-3.86 45.15s38.3 3 45.14-3.8a12.77 12.77 0 0 0 3.43-9.25c0-7.41-4.48-16.51-11.71-23.76-11.38-11.4-26.18-15.14-33-8.34zm-3.31 44.61c-11.06-11.08-2.85-37.37 3.86-44.06 6.51-6.5 20.82-2.76 31.9 8.34 7.09 7.1 11.49 16 11.48 23.21a12 12 0 0 1 -3.2 8.7c-6.7 6.7-33 14.87-44.04 3.81z"/>
  <path fill="url(#n)" d="m93.92 72.85c9.76 9.77 13.21 22.15 7.71 27.63s-17.86 2-27.62-7.76-13.22-22.15-7.72-27.64 17.87-2.01 27.63 7.77z"/>
  <path fill="url(#o)" d="m66 68.62a8.35 8.35 0 0 0 -2 3.11c-.22 6 3.49 14 10.21 20.73 9.59 9.61 21.75 13.09 27.09 7.75a8.89 8.89 0 0 0 2.45-5.61c-.78-5.66-4.35-12.4-10.16-18.22-9.7-9.77-22.07-13.25-27.59-7.76z"/>
  <path fill="url(#p)" d="m101.91 100.76a8.67 8.67 0 0 0 2-3.33 15.28 15.28 0 0 0 -.15-2.83 8.87 8.87 0 0 1 -2.45 5.61c-5.34 5.34-17.5 1.86-27.09-7.75-6.72-6.73-10.43-14.71-10.21-20.73a10.91 10.91 0 0 0 -.58 2.68c.76 5.78 4.37 12.66 10.27 18.56 9.94 9.92 22.58 13.41 28.21 7.79z"/>
  <path fill="url(#q)" d="m104 97.43c2.25-6.4-1.53-16.57-9.78-24.84-9.9-9.91-22.53-13.4-28.16-7.78-2.27 2.27-3.06 5.68-2.55 9.6.77 5.78 4.38 12.66 10.28 18.56 9.89 9.92 22.52 13.41 28.16 7.79a8.67 8.67 0 0 0 2.05-3.33zm-29.69-5c-6.72-6.73-10.43-14.71-10.21-20.73a9.26 9.26 0 0 1 2.5-6.38c5.35-5.33 17.51-1.86 27.1 7.75 7 7 10.74 15.41 10.15 21.5a8.89 8.89 0 0 1 -2.45 5.61c-5.4 5.37-17.54 1.89-27.13-7.72z"/>
  <path fill="url(#e)" d="m71.09 93.16a41.61 41.61 0 0 1 -6.64-10.16 33.83 33.83 0 0 1 -1.78-4.63c-1.54-5.08-1.66-10-.22-13.85a8.34 8.34 0 0 0 -.77.8c-3.08 3.69-3.17 9.49-.81 15.63a32.11 32.11 0 0 0 -4.15 18.48c.07 1 .18 2.08.34 3.09a30 30 0 0 1 5.68-17.52 42.69 42.69 0 0 0 8.26 10.57c8.35 7.78 18.21 11.15 24.79 9.12-7.32 1.37-17.08-2.88-24.73-11.53z"/>
  <path d="m87.67 87.2c-1.71.56-1.72 2.52 0 4.36s4.48 2.88 6.19 2.32l13-4.27a33.1 33.1 0 0 0 -3-7.73z" opacity=".2"/>
  <path d="m74.71 77.54c1.7 1.84 4.47 2.88 6.18 2.32l17.68-5.81q-1.32-1.58-2.79-3.05a47.62 47.62 0 0 0 -3.86-3.46l-17.2 5.65c-1.72.55-1.72 2.51-.01 4.35z" opacity=".2"/>
  <path fill="url(#c)" d="m79.77 79.35c-1.36 1.37-3.78 1.15-5.41-.48s-1.84-4-.47-5.41l18.8-18.8c1.36-1.37 3.79-1.15 5.41.47s1.84 4 .48 5.42z"/>
  <path fill="url(#d)" d="m92.42 54.38-18.81 18.81c-1.51 1.51-1.29 4.18.48 6s4.45 2 6 .47l18.8-18.8c1.51-1.51 1.3-4.18-.47-6s-4.49-1.99-6-.48zm-18.26 19.35 18.84-18.8c1.22-1.21 3.4-1 4.87.48s1.69 3.65.48 4.86l-18.85 18.81c-1.21 1.21-3.39 1-4.86-.48s-1.64-3.6-.48-4.87z"/>
  <path fill="url(#r)" d="m93.28 92.86c-1.36 1.36-3.78 1.15-5.41-.48s-1.84-4-.48-5.41l18.81-18.81c1.36-1.36 3.78-1.15 5.41.48s1.84 4 .48 5.41z"/>
  <path fill="url(#s)" d="m105.93 67.89-18.81 18.81c-1.51 1.51-1.3 4.18.48 6s4.44 2 6 .48l18.81-18.8c1.51-1.52 1.3-4.19-.48-6s-4.49-2-6-.49zm-18.27 19.35 18.81-18.81c1.21-1.21 3.4-1 4.87.48s1.69 3.66.48 4.87l-18.82 18.81c-1.21 1.21-3.39 1-4.87-.48s-1.68-3.66-.47-4.87z"/>
  <path fill="url(#t)" d="m90.54 90a1.7 1.7 0 0 1 -2.4-2.4l16.86-16.87a1.7 1.7 0 0 1 2.41 2.41z"/>
  <path fill="url(#u)" d="m77.13 76.53a1.7 1.7 0 0 1 -2.4-2.4l16.81-16.81a1.68 1.68 0 0 1 2.4 0 1.7 1.7 0 0 1 0 2.4z"/>
</svg>
