<?xml version="1.0" encoding="UTF-8" standalone="no"?>
<svg xmlns="http://www.w3.org/2000/svg" xmlns:xlink="http://www.w3.org/1999/xlink" width="192" height="192" viewBox="0 0 144 144">
  <linearGradient id="b" x1="3.207" x2="165.518" y1="33.053" y2="118.977" gradientUnits="userSpaceOnUse">
    <stop offset="0" stop-color="#a2a2cb"/>
    <stop offset="1" stop-color="#36364c"/>
  </linearGradient>
  <linearGradient id="a">
    <stop offset="0" stop-color="#fff"/>
    <stop offset="1" stop-color="#c1cefe"/>
  </linearGradient>
  <linearGradient id="c" x1="13.66" x2="66.54" y1="67.732" y2="144.798" gradientUnits="userSpaceOnUse" xlink:href="#a"/>
  <linearGradient id="d" x1="21.408" x2="15.093" y1="87.326" y2="75.58" gradientUnits="userSpaceOnUse">
    <stop offset="0" stop-color="#fff"/>
    <stop offset="1" stop-color="#8c8c8c"/>
  </linearGradient>
  <linearGradient id="e" x1="13.626" x2="27.417" y1="79.022" y2="99.122" gradientUnits="userSpaceOnUse">
    <stop offset="0" stop-color="#fff"/>
    <stop offset="1" stop-color="#8c8ca4"/>
  </linearGradient>
  <linearGradient id="f" x1="22.774" x2="12.638" y1="90.321" y2="71.176" gradientUnits="userSpaceOnUse">
    <stop offset=".011" stop-color="#008b00"/>
    <stop offset=".522" stop-color="#0f0"/>
    <stop offset="1" stop-color="#006f00"/>
  </linearGradient>
  <linearGradient id="g" x1="124.23" x2="49.991" y1="88.605" y2="117.186" gradientUnits="userSpaceOnUse">
    <stop offset="0" stop-color="#fff"/>
    <stop offset="1" stop-color="#c1ccfe" stop-opacity=".941"/>
  </linearGradient>
  <linearGradient id="h" x1="91.581" x2="60.415" y1="34.457" y2="104.214" gradientUnits="userSpaceOnUse">
    <stop offset="0" stop-color="#c1ceff" stop-opacity=".67"/>
    <stop offset="1" stop-color="#fff" stop-opacity=".941"/>
  </linearGradient>
  <linearGradient id="i" x1="46.794" x2="113.911" y1="116.025" y2="41.436" gradientUnits="userSpaceOnUse" xlink:href="#a"/>
  <g transform="matrix(1.079172 0 0 1.079172 -4.886052 -8.14342)">
    <path fill="none" d="m144 144h-144v-144h144z"/>
    <path fill="#000030" d="m13.785 95.031v-27.73l73.573-39.415 50.81 46.125v27.371l-74.293 39.413-50.09-45.765z" opacity=".2"/>
    <path fill="#fff" d="m7.361 89.09v-27.729l73.572-39.415 50.811 46.126v27.371l-74.293 39.413z"/>
    <path fill="url(#b)" d="m83.392 20.966 49.414 44.857c.835.758 1.316 1.838 1.316 2.966v25.691c0 1.481-.781 2.821-2.089 3.514l-32.749 17.36c-18.125 9.602-38.668 20.485-39.681 21.037-1.499.816-3.351.592-4.611-.56l-48.704-44.5c-.829-.758-1.304-1.831-1.304-2.955v-26.058c0-1.458.793-2.8 2.07-3.504.776-.427 15.51-8.309 32.571-17.435 17.877-9.563 38.139-20.401 39.144-20.956 1.498-.826 3.356-.607 4.623.542zm-74.408 41.352v26.059c1.016.926 47.074 43.011 48.706 44.502 1.942-1.058 70.811-37.517 72.433-38.398 0-1.853 0-24.306 0-25.691-1.025-.928-47.782-43.374-49.421-44.863-1.937 1.068-70.11 37.506-71.718 38.392z"/>
    <path fill="url(#c)" d="m57.552 109.88.036 19.77-46.918-41.553-.043-24.016 44.578 39.478s1.498 1.097 1.938 2.973.409 3.349.409 3.349z"/>
    <path fill="url(#d)" d="m25.178 87.457s.362.266.469.719c.106.455.099.812.099.812l.008 4.134.736.651-.01-5.479s.009-.409-.113-.93c-.122-.519-.538-.824-.538-.824l-11.801-10.388.013 6.658.912.807-.011-5.162 10.236 9.001z"/>
    <path fill="url(#e)" d="m14.041 82.81.001.651 12.27 10.867-.001-.652z"/>
    <path fill="url(#f)" d="m26.302 89.543s.008-.357-.099-.812c-.106-.454-.47-.719-.47-.719l-10.792-9.556.011 5.162 11.358 10.058z"/>
    <path fill="url(#g)" d="m59.843 110.435-.038 19.768 69.292-36.268.043-24.017-66.869 34.194s-1.551 1.099-2.006 2.974c-.455 1.877-.422 3.349-.422 3.349z"/>
    <path fill="url(#h)" d="m80.511 25.341 47.366 43.542-65.622 33.533s-2.14.719-3.507.594c-1.37-.128-3.041-1.51-3.041-1.51l-43.818-39.24z"/>
    <path fill="url(#i)" d="m77.211 56.084c17.733-12.57 2.77-26.07 3.3-30.743l46.277 43.419-67.224 33.525s-13.799-23.91 17.646-46.201z" opacity=".95"/>
  </g>
</svg>
