<?xml version="1.0" encoding="UTF-8" standalone="no"?>
<svg xmlns="http://www.w3.org/2000/svg" xmlns:xlink="http://www.w3.org/1999/xlink" width="64" height="64" viewBox="0 0 125.957 125.956">
  <linearGradient id="b">
    <stop offset="0" stop-color="#418bde"/>
    <stop offset="1" stop-color="#001b7b"/>
  </linearGradient>
  <linearGradient id="a">
    <stop offset="0" stop-color="#fff"/>
    <stop offset="1" stop-color="#fff" stop-opacity="0"/>
  </linearGradient>
  <linearGradient id="h" x1="31.053" x2="53.82" y1="21.614" y2="60.985" gradientTransform="matrix(.987913 -.00997891 .00997891 .987913 .758045 .758039)" gradientUnits="userSpaceOnUse" xlink:href="#a"/>
  <linearGradient id="g" x1="62.997" x2="62.997" y1="167.233" y2="64.977" gradientUnits="userSpaceOnUse" xlink:href="#a"/>
  <linearGradient id="f" x1="27.003" x2="73.706" y1="26.375" y2="73.758" gradientUnits="userSpaceOnUse" xlink:href="#a"/>
  <linearGradient id="e" x1="65.084" x2="65.084" y1="14.162" y2="77.263" gradientUnits="userSpaceOnUse" xlink:href="#a"/>
  <linearGradient id="d" x1="62.977" x2="62.977" y1="181.128" y2="61.909" gradientUnits="userSpaceOnUse">
    <stop offset="0" stop-color="#a4cdec"/>
    <stop offset="1" stop-color="#0068c6"/>
  </linearGradient>
  <linearGradient id="c" x1="55.344" x2="55.344" y1="154.806" y2="41.343" gradientTransform="matrix(.987967 0 0 .987959 .758045 .758039)" gradientUnits="userSpaceOnUse" xlink:href="#b"/>
  <linearGradient id="i" x1="36.056" x2="55.421" y1="38.162" y2="67.874" gradientTransform="scale(1.010413 .989694)" gradientUnits="userSpaceOnUse" xlink:href="#b"/>
  <linearGradient id="j" x1="-79.891" x2="-87.165" y1="49.112" y2="49.344" gradientTransform="scale(1.010413 .989694)" gradientUnits="userSpaceOnUse" xlink:href="#b"/>
  <g transform="matrix(1.012131 0 0 1.012131 -.763964 -.76396)">
    <path fill="url(#c)" d="m125.1989 62.347652c.34776 34.363329-27.229248 62.502488-61.591589 62.850258-34.363329.34776-62.501503-27.228264-62.849266-61.591593-.34776298-34.362341 27.227272-62.500515 61.589613-62.848278 34.364317-.34776298 62.502492 27.227272 62.851242 61.589613z"/>
    <path fill="url(#d)" d="m118.60919 62.413846c.31022 30.725649-24.344399 55.884124-55.06906 56.195334-30.723674.31022-55.8831394-24.344395-56.1943477-55.069056-.3102204-30.723674 24.3453847-55.8841273 55.0690577-56.1943477 30.725649-.3102204 55.88413 24.3453847 56.19435 55.0680697z"/>
    <path fill="url(#e)" d="m63.449237 11.878551c-27.077102.273665-48.80636 22.447507-48.532694 49.523621.014819 1.492812.107688 2.965865.253906 4.42311 13.537069 5.651149 29.751518 8.863016 47.156462 8.687159 18.997541-.191665 36.499305-4.38952 50.589629-11.324032.04249-.919794.06323-1.845515.05632-2.778152-.27367-27.076114-22.445533-48.805372-49.523623-48.531706z"/>
    <path fill="url(#f)" d="m64.943037 17.198731c24.434301-.24699 45.006653 16.809203 50.084783 39.752668-3.01625-26.324275-25.501299-46.641734-52.580377-46.368068-28.936449.292437-52.156543 23.98873-51.864106 52.92419.148194 14.649515 6.30024 27.82499 16.087002 37.234349-7.371192-8.714821-11.864448-19.950924-11.988931-32.255015-.283546-28.042342 22.219287-51.004578 50.261629-51.288124z"/>
    <path fill="url(#g)" d="m63.435406 110.14728c-26.126682.26477-47.683047-19.937095-49.4515-45.670567-.046435.96524-.074098 1.934431-.06323 2.912515.273666 27.10674 22.469243 48.855762 49.57302 48.581102 27.105752-.27366 48.853784-22.467264 48.580114-49.574005-.00988-.977096-.05631-1.947275-.12349-2.910539-1.24681 25.764099-22.389221 46.396714-48.514914 46.661494z" opacity=".5"/>
    <path fill="url(#h)" d="m53.044011 30.436448c-4.996129-4.060528-10.766821-7.048129-17.030506-8.635785-11.11656 7.676472-19.586367 19.882755-23.516484 34.399884 5.670908-2.812731 11.958305-4.419159 18.596428-4.48634 1.682501-.016796 3.341291.074097 4.977358.253906 4.08819-8.646652 9.924088-16.034639 16.973204-21.531665z" opacity=".6"/>
    <g fill="url(#i)" opacity=".2" transform="translate(2 2)">
      <path d="m88.311389 71.391116c7.760825.425879 7.880363-8.995804 5.013833-12.264093l-26.061333-29.72676c-.157306-.178692-.325033-.34856-.493709-.510704-.05591-.051843-.110871-.099274-.167728-.151117-.1194-.108097-.244485-.208473-.36957-.309952-.061595-.047431-.125086-.097066-.18668-.144498-.170572-.122436-.340194-.239358-.518346-.346352-.058752-.0364-.122243-.068389-.180995-.10148-.132666-.075005-.265333-.146703-.400842-.210679-.081494-.038606-.162042-.072799-.244484-.110303-.124138-.054049-.247328-.099273-.372414-.146704-.07581-.025369-.151618-.056254-.230271-.079418-.191418-.065078-.38947-.118025-.586574-.15994-.036957-.01103-.080548-.015443-.122242-.023164-.168675-.034193-.336405-.05846-.507922-.079419-.066332-.006617-.131719-.013236-.199-.017648-.153513-.011031-.307975-.019854-.463385-.019854-.058751-.002206-.118451-.004412-.176255-.002206-.213215.004411-.423586.017648-.634904.040812-.00379 0-.008528.002206-.008528.002206-.206581.025369-.408422.067285-.609317.110304-.069176.017648-.141195.034193-.21416.054048-.13172.0364-.266282.0728-.396105.118025-.083389.025369-.16678.054048-.246379.086037-.12793.047429-.253962.099273-.377151.157733-.074863.034194-.150672.065079-.226481.101479-.002843 0-.002843 0-.004738.002206-.180995.090449-.356304.189722-.527824.293407-.075808.045225-.149723.097067-.221742.14891-.11845.075007-.234061.157734-.345878.241564-.06823.054049-.138352.103686-.204685.159941-.141196.115818-.278601.234945-.412213.359589-.033168.031987-.068229.060666-.101395.090449-.168677.16766-.329772.340836-.483285.521734-.015162.017649-.029375.029782-.046433.047431l-25.536358 30.333428c-2.811577 3.338884-2.649132 11.966814 2.916064 11.966814z"/>
      <rect width="13.14" height="65.549" x="-91.19" y="29.583" fill="url(#j)" rx="7.486" ry="5.447" transform="rotate(-90)"/>
    </g>
    <g fill="#fff">
      <path d="m88.311389 71.391116c7.760825.425879 7.880363-8.995804 5.013833-12.264093l-26.061333-29.72676c-.157306-.178692-.325033-.34856-.493709-.510704-.05591-.051843-.110871-.099274-.167728-.151117-.1194-.108097-.244485-.208473-.36957-.309952-.061595-.047431-.125086-.097066-.18668-.144498-.170572-.122436-.340194-.239358-.518346-.346352-.058752-.0364-.122243-.068389-.180995-.10148-.132666-.075005-.265333-.146703-.400842-.210679-.081494-.038606-.162042-.072799-.244484-.110303-.124138-.054049-.247328-.099273-.372414-.146704-.07581-.025369-.151618-.056254-.230271-.079418-.191418-.065078-.38947-.118025-.586574-.15994-.036957-.01103-.080548-.015443-.122242-.023164-.168675-.034193-.336405-.05846-.507922-.079419-.066332-.006617-.131719-.013236-.199-.017648-.153513-.011031-.307975-.019854-.463385-.019854-.058751-.002206-.118451-.004412-.176255-.002206-.213215.004411-.423586.017648-.634904.040812-.00379 0-.008528.002206-.008528.002206-.206581.025369-.408422.067285-.609317.110304-.069176.017648-.141195.034193-.21416.054048-.13172.0364-.266282.0728-.396105.118025-.083389.025369-.16678.054048-.246379.086037-.12793.047429-.253962.099273-.377151.157733-.074863.034194-.150672.065079-.226481.101479-.002843 0-.002843 0-.004738.002206-.180995.090449-.356304.189722-.527824.293407-.075808.045225-.149723.097067-.221742.14891-.11845.075007-.234061.157734-.345878.241564-.06823.054049-.138352.103686-.204685.159941-.141196.115818-.278601.234945-.412213.359589-.033168.031987-.068229.060666-.101395.090449-.168677.16766-.329772.340836-.483285.521734-.015162.017649-.029375.029782-.046433.047431l-25.536358 30.333428c-2.811577 3.338884-2.649132 11.966814 2.916064 11.966814z"/>
      <rect width="13.14" height="65.549" x="-91.19" y="29.583" rx="7.486" ry="5.447" transform="rotate(-90)"/>
    </g>
  </g>
</svg>
