<?xml version="1.0" encoding="UTF-8" standalone="no"?>
<svg xmlns="http://www.w3.org/2000/svg" xmlns:xlink="http://www.w3.org/1999/xlink" width="192" height="192" viewBox="0 0 144 144">
  <linearGradient id="a">
    <stop offset="0" stop-color="#fff"/>
    <stop offset="1" stop-color="#8c8ca4"/>
  </linearGradient>
  <linearGradient id="c" x1="31.507" x2="108.509" y1="37.738" y2="90.174" gradientUnits="userSpaceOnUse" xlink:href="#a"/>
  <linearGradient id="b">
    <stop offset="0" stop-color="#fff"/>
    <stop offset="1"/>
  </linearGradient>
  <linearGradient id="d" x1="2.92" x2="129.423" y1="5.319" y2="59.82" gradientUnits="userSpaceOnUse" xlink:href="#b"/>
  <linearGradient id="e" x1="70.84" x2="204.902" y1="28.134" y2="162.196" gradientUnits="userSpaceOnUse" xlink:href="#a"/>
  <linearGradient id="f" x1="60.003" x2="116.436" y1="71.26" y2="103.075" gradientUnits="userSpaceOnUse">
    <stop offset=".011" stop-color="#fff"/>
    <stop offset=".521" stop-color="#ffff62"/>
    <stop offset="1" stop-color="#ffac00"/>
  </linearGradient>
  <linearGradient id="g" x1="76.355" x2="98.165" y1="79.114" y2="95.124" gradientUnits="userSpaceOnUse">
    <stop offset="0" stop-color="#ffff62"/>
    <stop offset="1" stop-color="#ffac00"/>
  </linearGradient>
  <linearGradient id="h" x1="96.043" x2="99.734" y1="101.955" y2="108.265" gradientUnits="userSpaceOnUse" xlink:href="#a"/>
  <linearGradient id="i" x1="6.023" x2="130.026" y1="-2.863" y2="122.14" gradientUnits="userSpaceOnUse" xlink:href="#b"/>
  <linearGradient id="j" x1="59.827" x2="80.178" y1="74.421" y2="87.989" gradientUnits="userSpaceOnUse">
    <stop offset="0" stop-color="#fff"/>
    <stop offset="1" stop-color="#4b4b73"/>
  </linearGradient>
  <radialGradient id="k" cx="68.404" cy="74.89" r="12.179" gradientUnits="userSpaceOnUse">
    <stop offset="0" stop-color="#ff0"/>
    <stop offset=".033" stop-color="#fff300"/>
    <stop offset=".245" stop-color="#fa0"/>
    <stop offset=".444" stop-color="#ff6e00"/>
    <stop offset=".624" stop-color="#ff3e00"/>
    <stop offset=".783" stop-color="#ff1c00"/>
    <stop offset=".913" stop-color="#ff0800"/>
    <stop offset="1" stop-color="red"/>
    <stop offset="1" stop-color="#4a1486"/>
  </radialGradient>
  <g fill="#fff" stroke-width="0">
    <path fill="none" d="m144 144h-144v-144h144z"/>
    <path fill="#000" d="m67.407 138.917-63.338-16.09 9.71-11.251 42.501-23.58 11.126 50.922z" opacity=".2"/>
    <path d="m133.559 89.837c-.337-.849-28.51-72.694-28.51-72.694l-.38-.038-.5-1.375-3.5-1-16.689.81-45.642 21.589-10.736 13.667 32.776 79.811.052.018c.671 1.646 1.069 2.623 1.113 2.73.601.201 2.893.796 3.5 1 .601.201 1.52.395 2.127.599.684-.416 5.38-3.32 11.946-7.383l.489 1.191 42.438-26.344 1.563-1c-.141-.344-.295-.72-.456-1.112 4.957-3.069 8.205-5.08 8.358-5.172.272-.723 1.746-4.49 2.05-5.296z"/>
    <path d="m132.059 89.337c-.337-.849-29.01-73.194-29.01-73.194l2.62-.413-3.5-1-16.689.81-45.642 21.589-10.736 13.667 32.776 79.811.052.018c.671 1.646 1.069 2.623 1.113 2.73.601.201 2.893.796 3.5 1 .683-.415 4.021-3.676 10.617-7.679l.446 1.085 1.594-1c-.134-.326-.281-.686-.435-1.06 0 0 .001-.001.001-.001l.433 1.061 40.844-25.344 1.563-1c-.074-.182-.155-.377-.235-.573 5.159-3.13 8.555-5.191 8.711-5.285.272-.723 1.672-4.416 1.977-5.223z"/>
    <path fill="url(#c)" d="m106.064 15.751-17.084.789-45.642 21.589-10.736 13.667s33.521 81.534 33.941 82.559c.601.201 1.83.858 2.438 1.063 2.613-1.589 63.957-39.07 64.635-39.479.272-.723 1.139-5.295 1.443-6.102-.337-.849-28.994-74.086-28.994-74.086z"/>
    <path fill="url(#d)" d="m45.937 38.385 4.469 10.785c1.001 2.126 3.775 2.621 6.193 1.102l33.285-16.542c2.419-1.524 3.717-4.283 2.716-6.416l-3.71-9.163z" opacity=".8"/>
    <path fill="url(#e)" d="m88.235 32.524-22.598 11.514c-2.515 1.421-4.59 1.089-5.629-1.004l-4.048-9.269 31.479-14.764 3.13 7.504c.91 1.938-.138 4.632-2.334 6.02z"/>
    <path d="m34.425 52.047 34.181 83.412 12.292-7.208-36.667-88.834-9.806 12.629z" opacity=".2"/>
    <path fill="#000" d="m90.703 17.799 14.175 34.352 20.229 49.267 8.51-5.479 1.443-6.102-28.89-72.732-15.466.694z" opacity=".15"/>
    <path fill="url(#f)" d="m100.42 54.956s-36.648 20.022-36.648 20.022c-1.341.729-1.92 2.345-1.255 3.728l18.163 44.093c.236.847.902 1.475 1.736 1.753.828.279 1.739.181 2.493-.27l36.276-21.707c1.283-.766 1.487-2.116.919-3.5l-17.474-42.622c-.323-.788-.968-1.404-1.77-1.689-.803-.286-1.693-.216-2.44.192z"/>
    <path fill="url(#g)" d="m91.357 85.87c-14.532 8.996-14.214 28.426-14.214 28.426l3.546 8.538c.33.816.892 1.44 1.725 1.719.828.279 1.739.181 2.493-.27l36.032-21.47c.42-.251 1.823-2.28 1.236-3.711l-16.185-39.224s-.101 16.997-14.633 25.992z" opacity=".51"/>
    <path fill="url(#h)" d="m123.543 102.417-2.813-6.875-40.958 25.049 2.927 7.17z"/>
    <path fill="#000" d="m123.543 102.417-2.813-6.875-40.958 25.049 2.927 7.17z" opacity=".3"/>
    <path fill="url(#i)" d="m101.767 10.884 3.5 1c1.233.353 2.222 1.274 2.661 2.479 0 0 .027.076.031.086.334.36.628.761.814 1.234l28.503 72.677c.189.481.286.986.286 1.491 0 .473-.085.945-.26 1.398l-2.05 5.296c-.314.812-.927 1.55-1.667 2.008 0 0-3.695 2.287-6.089 3.768-.23.988-.825 1.885-1.732 2.466l-1.61 1.03s-40.819 25.329-40.835 25.338c-.018.011-1.585.995-1.585.995-.941.591-2.08.735-3.147.452-3.207 1.982-9.335 5.77-9.335 5.77-.948.586-2.279.671-3.353.374l-.811-.224-2.882-.818-1.927-.554c-1.178-.338-1.97-1.139-2.433-2.273 0 0-1.118-2.741-1.166-2.749l-32.778-79.812c-.547-1.333-.335-2.857.555-3.99l10.736-13.667c.383-.488.875-.88 1.435-1.145l45.642-21.59c.476-.225.991-.354 1.517-.379l16.688-.81c.436-.021.873.029 1.292.149zm31.792 78.953c-.337-.849-28.51-72.694-28.51-72.694l-.38-.038-.5-1.375-3.5-1-16.689.81-45.642 21.589-10.736 13.667 32.776 79.811.052.018c.671 1.646 1.069 2.623 1.113 2.73.601.201 2.893.796 3.5 1 .601.201 1.52.395 2.127.599.684-.416 5.38-3.32 11.946-7.383l.489 1.191 1.594-1c-.148-.36 0 0 0 0l40.844-25.344 1.563-1c-.141-.344-.295-.72-.456-1.112 4.957-3.069 8.205-5.08 8.358-5.172.272-.723 1.746-4.49 2.05-5.296z"/>
    <path fill="url(#j)" d="m67.019 89.532-3.341-7.957 12.385-6.647 3.093 8.042z"/>
    <path fill="url(#k)" d="m77.907 82.508c-.435-1.131-1.829-4.756-2.371-6.164-.535.287-1.807.968-3.298 1.767l2.486 6.112c1.499-.808 2.747-1.48 3.182-1.715z" opacity=".7"/>
    <path d="m64.746 82.125c.465 1.145 1.931 4.754 2.492 6.134.906-.488 3.963-2.136 6.601-3.558l-2.487-6.114c-2.733 1.464-5.848 3.132-6.605 3.538z"/>
    <path fill="#000" d="m123.755 102.825 1.351-1.407c-6.139-14.971-34.403-83.619-34.403-83.619l15.466-.694-.5-1.375-16.689.81-45.642 21.589-10.736 13.667 32.776 79.811 1.805.608c-5.572-13.587-32.758-80.168-32.758-80.168l9.925-12.757 36.756 89.472 1.594-1c-15.381-37.509-42.246-102.699-36.763-89.377l42.953-20.234 34.865 84.673z" opacity=".29"/>
    <path fill="url(#i)" d="m101.767 10.884 3.5 1c1.233.353 2.222 1.274 2.661 2.479 0 0 .027.076.031.086.334.36.628.761.814 1.234l28.503 72.677c.189.481.286.986.286 1.491 0 .473-.085.945-.26 1.398l-2.05 5.296c-.314.812-.927 1.55-1.667 2.008 0 0-3.695 2.287-6.089 3.768-.23.988-.825 1.885-1.732 2.466l-1.61 1.03s-40.819 25.329-40.835 25.338c-.018.011-1.585.995-1.585.995-.941.591-2.08.735-3.147.452-3.207 1.982-9.335 5.77-9.335 5.77-.948.586-2.279.671-3.353.374l-.811-.224-2.882-.818-1.927-.554c-1.178-.338-1.97-1.139-2.433-2.273 0 0-1.118-2.741-1.166-2.749l-32.778-79.812c-.547-1.333-.335-2.857.555-3.99l10.736-13.667c.383-.488.875-.88 1.435-1.145l45.642-21.59c.476-.225.991-.354 1.517-.379l16.688-.81c.436-.021.873.029 1.292.149zm31.792 78.953c-.337-.849-28.51-72.694-28.51-72.694l-.38-.038-.5-1.375-3.5-1-16.689.81-45.642 21.589-10.736 13.667 32.776 79.811.052.018c.671 1.646 1.069 2.623 1.113 2.73.601.201 2.893.796 3.5 1 .601.201 1.52.395 2.127.599.684-.416 5.38-3.32 11.946-7.383l.489 1.191 42.438-26.344 1.563-1c-.141-.344-.295-.72-.456-1.112 4.957-3.069 8.205-5.08 8.358-5.172.272-.723 1.746-4.49 2.05-5.296z"/>
  </g>
</svg>
