<?xml version="1.0" encoding="UTF-8" standalone="no"?>
<svg xmlns="http://www.w3.org/2000/svg" xmlns:xlink="http://www.w3.org/1999/xlink" width="128" height="128" viewBox="0 0 128 128">
  <linearGradient id="a">
    <stop offset="0" stop-color="#fff"/>
    <stop offset="1" stop-color="#d200de"/>
  </linearGradient>
  <radialGradient id="b" cx="15.001" cy="35.947" r="26.929" gradientUnits="userSpaceOnUse" xlink:href="#a"/>
  <radialGradient id="c" cx="16.743" cy="30.398" r="18.033" gradientUnits="userSpaceOnUse" xlink:href="#a"/>
  <linearGradient id="d" x1="18.056" x2="18.056" y1="3.312" y2="37.536" gradientUnits="userSpaceOnUse" xlink:href="#a"/>
  <radialGradient id="e" cx="107.014" cy="129.831" r="28.053" gradientUnits="userSpaceOnUse" xlink:href="#a"/>
  <radialGradient id="f" cx="107.404" cy="123.215" r="19.293" gradientUnits="userSpaceOnUse" xlink:href="#a"/>
  <linearGradient id="g" x1="111.588" x2="111.588" y1="97.049" y2="121.735" gradientUnits="userSpaceOnUse" xlink:href="#a"/>
  <path fill="url(#b)" d="m27.345 27.345v-26.558l-26.558 26.558z"/>
  <path fill="#7e00b3" d="m26.947.391-26.556 26.556c-.161.161-.208.402-.122.612.087.209.292.346.519.346h26.558c.31 0 .561-.251.561-.561v-26.557c0-.227-.137-.432-.346-.519-.211-.085-.454-.039-.614.123zm-.164 1.751v24.642c-1.019 0-22.256 0-24.642 0 1.713-1.714 22.929-22.93 24.642-24.642z"/>
  <path fill="url(#c)" d="m11.103 20.761c1.093.142 2.218.224 3.37.224 3.93 0 7.56-.865 10.536-2.322v-11.809z"/>
  <path fill="url(#d)" d="m11.103 20.761c1.093.142 2.218.224 3.37.224 3.93 0 7.56-.865 10.536-2.322v-11.809z"/>
  <path fill="url(#e)" d="m100.656 100.656v26.557l26.557-26.557z"/>
  <path fill="#7e00b3" d="m100.656 100.095c-.311 0-.562.251-.562.562v26.557c0 .228.137.432.347.519.209.087.451.039.611-.122l26.557-26.557c.16-.16.209-.402.122-.611-.087-.21-.291-.347-.519-.347h-26.556zm25.202 1.122c-1.714 1.713-22.928 22.928-24.642 24.642 0-2.386 0-23.622 0-24.642z"/>
  <path fill="url(#f)" d="m121.295 103.147h-.674c-.121.364-.249.726-.405 1.079z"/>
  <path fill="url(#g)" d="m103.044 102.532v10.934c3.49-.25 6.702-1.181 9.412-2.602 3.383-1.773 5.969-4.313 7.283-7.283.151-.344.276-.695.394-1.049z"/>
  <path fill="none" d="m128 128h-128v-128h128z"/>
</svg>
