<?xml version="1.0" encoding="UTF-8"?>
<svg width="128" height="128" version="1.1" xml:space="preserve" xmlns="http://www.w3.org/2000/svg" xmlns:xlink="http://www.w3.org/1999/xlink">
  <defs>
    <filter id="al" x="-.019473" y="-.019473" width="1.0389" height="1.0389">
      <feGaussianBlur in="SourceGraphic" stdDeviation="1"/>
    </filter>
  </defs>
  <circle cx="64.125" cy="63.208" r="61.625" filter="url(#al)" opacity=".5"/>
  <circle cx="62.125" cy="61.875" r="61.625" fill="#0D317D"/>
  <linearGradient id="b" x1="61.5" x2="61.5" y1="3.25" y2="120.5" gradientUnits="userSpaceOnUse">
    <stop stop-color="#1c73d9" offset="0"/>
    <stop stop-color="#e5f8ff" offset="1"/>
  </linearGradient>
  <circle cx="61.5" cy="61.75" r="59.25" fill="url(#b)"/>
  <linearGradient id="c" x1="59.31" x2="59.31" y1="4.4668" y2="116.52" gradientUnits="userSpaceOnUse">
    <stop stop-color="#fff" offset="0"/>
    <stop stop-color="#1f7ad4" offset=".511"/>
    <stop stop-color="#257ed5" offset=".5663"/>
    <stop stop-color="#3488d9" offset=".6371"/>
    <stop stop-color="#4f98de" offset=".7163"/>
    <stop stop-color="#73b0e6" offset=".8017"/>
    <stop stop-color="#a2cef1" offset=".8919"/>
    <stop stop-color="#dbf2fd" offset=".9849"/>
    <stop stop-color="#e5f8ff" offset="1"/>
  </linearGradient>
  <path d="M113.87 39.106 103 40s-36.258 77-41.625 77C30.102 117 4.75 91.648 4.75 60.375S30.102 3.75 61.375 3.75c23.751 0 44.087 14.623 52.495 35.356z" fill="url(#c)"/>
  <radialGradient id="d" cx="61.833" cy="62.166" r="53.001" gradientUnits="userSpaceOnUse">
    <stop stop-color="#6098e3" offset=".9505"/>
    <stop stop-color="#2450a1" offset="1"/>
  </radialGradient>
  <circle cx="61.833" cy="62.166" r="53.001" fill="url(#d)"/>
  <defs>
    <circle id="e" cx="61.625" cy="61.875" r="51.375"/>
  </defs>
  <use fill="#A2D2FF" overflow="visible" xlink:href="#e"/>
  <clipPath id="g">
    <use overflow="visible" xlink:href="#e"/>
  </clipPath>
  <linearGradient id="f" x1="61.624" x2="61.624" y1="13.25" y2="114.25" gradientUnits="userSpaceOnUse">
    <stop stop-color="#fff" offset="0"/>
    <stop stop-color="#e1f1ff" offset=".1478"/>
    <stop stop-color="#d4ebff" offset=".2363"/>
    <stop stop-color="#e3f2ff" offset=".3505"/>
    <stop stop-color="#f3f9ff" offset=".5264"/>
    <stop stop-color="#fcfeff" offset=".7262"/>
    <stop stop-color="#fff" offset="1"/>
  </linearGradient>
  <circle cx="61.625" cy="63.875" r="51.375" clip-path="url(#g)" fill="url(#f)"/>
  <linearGradient id="h" x1="59.042" x2="59.042" y1="13.25" y2="114.25" gradientUnits="userSpaceOnUse">
    <stop stop-color="#fff" offset="0"/>
    <stop stop-color="#edf7ff" offset=".1435"/>
    <stop stop-color="#e0f2ff" offset=".2802"/>
    <stop stop-color="#e3f3ff" offset=".3063"/>
    <stop stop-color="#f3faff" offset=".4942"/>
    <stop stop-color="#fcfeff" offset=".7076"/>
    <stop stop-color="#fff" offset="1"/>
  </linearGradient>
  <path d="M107.833 41.917 63.5 62.5l-1.875 52.75c-28.373 0-51.375-23.001-51.375-51.375S33.252 12.5 61.625 12.5c20.927 0 38.198 11.465 46.208 29.417z" clip-path="url(#g)" fill="url(#h)"/>
  <linearGradient id="i" x1="70.877" x2="70.877" y1="17.394" y2="93.756" gradientUnits="userSpaceOnUse">
    <stop stop-color="#6098e3" offset="0"/>
    <stop stop-color="#b1cef4" offset="1"/>
  </linearGradient>
  <path d="M70.877 19.168c-.62 0-1.126-.506-1.126-1.126s.506-1.126 1.126-1.126c.619 0 1.126.506 1.126 1.126s-.507 1.126-1.126 1.126z" fill="url(#i)"/>
  <linearGradient id="j" x1="66.043" x2="66.043" y1="17.288" y2="93.517" gradientUnits="userSpaceOnUse">
    <stop stop-color="#6098e3" offset="0"/>
    <stop stop-color="#b1cef4" offset="1"/>
  </linearGradient>
  <path d="M66.044 18.582c-.621 0-1.125-.504-1.125-1.123 0-.621.504-1.125 1.125-1.125.619 0 1.123.504 1.123 1.125 0 .619-.504 1.123-1.123 1.123z" fill="url(#j)"/>
  <linearGradient id="k" x1="75.459" x2="75.459" y1="17.626" y2="94.021" gradientUnits="userSpaceOnUse">
    <stop stop-color="#6098e3" offset="0"/>
    <stop stop-color="#b1cef4" offset="1"/>
  </linearGradient>
  <path d="M75.46 20.46c-.62 0-1.127-.506-1.127-1.126 0-.62.507-1.126 1.127-1.126.619 0 1.126.507 1.126 1.126 0 .62-.507 1.126-1.126 1.126z" fill="url(#k)"/>
  <linearGradient id="l" x1="79.627" x2="79.627" y1="17.922" y2="94.284" gradientUnits="userSpaceOnUse">
    <stop stop-color="#6098e3" offset="0"/>
    <stop stop-color="#b1cef4" offset="1"/>
  </linearGradient>
  <path d="M79.628 22.084c-.62 0-1.127-.505-1.127-1.125s.507-1.127 1.127-1.127 1.125.507 1.125 1.127-.505 1.125-1.125 1.125z" fill="url(#l)"/>
  <linearGradient id="m" x1="87.919" x2="87.919" y1="18.758" y2="95.054" gradientUnits="userSpaceOnUse">
    <stop stop-color="#6098e3" offset="0"/>
    <stop stop-color="#b1cef4" offset="1"/>
  </linearGradient>
  <path d="M87.919 26.667c-.62 0-1.126-.505-1.126-1.126 0-.619.506-1.124 1.126-1.124.621 0 1.126.505 1.126 1.124 0 .621-.505 1.126-1.126 1.126z" fill="url(#m)"/>
  <linearGradient id="n" x1="95.002" x2="95.002" y1="19.933" y2="96.228" gradientUnits="userSpaceOnUse">
    <stop stop-color="#6098e3" offset="0"/>
    <stop stop-color="#b1cef4" offset="1"/>
  </linearGradient>
  <path d="M95.002 33.126c-.619 0-1.125-.506-1.125-1.125 0-.62.506-1.125 1.125-1.125s1.125.505 1.125 1.125c0 .619-.506 1.125-1.125 1.125z" fill="url(#n)"/>
  <linearGradient id="o" x1="97.961" x2="97.961" y1="20.596" y2="96.908" gradientUnits="userSpaceOnUse">
    <stop stop-color="#6098e3" offset="0"/>
    <stop stop-color="#b1cef4" offset="1"/>
  </linearGradient>
  <path d="M97.96 36.792c-.619 0-1.125-.506-1.125-1.125 0-.62.506-1.125 1.125-1.125.62 0 1.126.506 1.126 1.125 0 .62-.506 1.125-1.126 1.125z" fill="url(#o)"/>
  <linearGradient id="p" x1="102.84" x2="102.84" y1="22.121" y2="98.416" gradientUnits="userSpaceOnUse">
    <stop stop-color="#6098e3" offset="0"/>
    <stop stop-color="#b1cef4" offset="1"/>
  </linearGradient>
  <path d="M102.836 45.167c-.62 0-1.124-.504-1.124-1.124 0-.622.504-1.126 1.124-1.126.621 0 1.126.504 1.126 1.126 0 .62-.505 1.124-1.126 1.124z" fill="url(#p)"/>
  <linearGradient id="q" x1="104.54" x2="104.54" y1="22.911" y2="99.156" gradientUnits="userSpaceOnUse">
    <stop stop-color="#6098e3" offset="0"/>
    <stop stop-color="#b1cef4" offset="1"/>
  </linearGradient>
  <path d="M104.545 49.417c-.622 0-1.126-.504-1.126-1.125 0-.62.504-1.124 1.126-1.124.62 0 1.124.504 1.124 1.124 0 .62-.504 1.125-1.124 1.125z" fill="url(#q)"/>
  <linearGradient id="r" x1="105.54" x2="105.54" y1="23.661" y2="99.99" gradientUnits="userSpaceOnUse">
    <stop stop-color="#6098e3" offset="0"/>
    <stop stop-color="#b1cef4" offset="1"/>
  </linearGradient>
  <path d="M105.545 53.708c-.622 0-1.126-.504-1.126-1.125 0-.622.504-1.126 1.126-1.126.62 0 1.124.504 1.124 1.126 0 .621-.504 1.125-1.124 1.125z" fill="url(#r)"/>
  <linearGradient id="s" x1="106.5" x2="106.5" y1="24.575" y2="100.84" gradientUnits="userSpaceOnUse">
    <stop stop-color="#6098e3" offset="0"/>
    <stop stop-color="#b1cef4" offset="1"/>
  </linearGradient>
  <path d="M106.503 58.583c-.622 0-1.127-.504-1.127-1.125s.505-1.125 1.127-1.125c.62 0 1.124.504 1.124 1.125s-.504 1.125-1.124 1.125z" fill="url(#s)"/>
  <linearGradient id="t" x1="106.42" x2="106.42" y1="26.306" y2="102.57" gradientUnits="userSpaceOnUse">
    <stop stop-color="#6098e3" offset="0"/>
    <stop stop-color="#b1cef4" offset="1"/>
  </linearGradient>
  <path d="M106.42 68.084c-.62 0-1.125-.505-1.125-1.125s.505-1.124 1.125-1.124 1.124.504 1.124 1.124-.504 1.125-1.124 1.125z" fill="url(#t)"/>
  <linearGradient id="u" x1="105.59" x2="105.59" y1="27.11" y2="103.44" gradientUnits="userSpaceOnUse">
    <stop stop-color="#6098e3" offset="0"/>
    <stop stop-color="#b1cef4" offset="1"/>
  </linearGradient>
  <path d="M105.585 72.71c-.62 0-1.124-.505-1.124-1.127 0-.62.504-1.124 1.124-1.124.622 0 1.126.504 1.126 1.124 0 .622-.504 1.127-1.126 1.127z" fill="url(#u)"/>
  <linearGradient id="v" x1="104.42" x2="104.42" y1="27.972" y2="104.3" gradientUnits="userSpaceOnUse">
    <stop stop-color="#6098e3" offset="0"/>
    <stop stop-color="#b1cef4" offset="1"/>
  </linearGradient>
  <path d="M104.418 77.46c-.62 0-1.124-.504-1.124-1.126 0-.62.504-1.125 1.124-1.125.622 0 1.127.505 1.127 1.125 0 .622-.505 1.126-1.127 1.126z" fill="url(#v)"/>
  <linearGradient id="w" x1="102.42" x2="102.42" y1="28.765" y2="105.06" gradientUnits="userSpaceOnUse">
    <stop stop-color="#6098e3" offset="0"/>
    <stop stop-color="#b1cef4" offset="1"/>
  </linearGradient>
  <path d="M102.419 81.709c-.62 0-1.124-.504-1.124-1.124 0-.622.504-1.126 1.124-1.126.622 0 1.126.504 1.126 1.126 0 .62-.504 1.124-1.126 1.124z" fill="url(#w)"/>
  <linearGradient id="x" x1="97.959" x2="97.959" y1="30.254" y2="106.58" gradientUnits="userSpaceOnUse">
    <stop stop-color="#6098e3" offset="0"/>
    <stop stop-color="#b1cef4" offset="1"/>
  </linearGradient>
  <path d="M97.959 90.042c-.619 0-1.125-.506-1.125-1.125s.506-1.126 1.125-1.126c.62 0 1.126.507 1.126 1.126s-.506 1.125-1.126 1.125z" fill="url(#x)"/>
  <linearGradient id="y" x1="94.919" x2="94.919" y1="30.947" y2="107.24" gradientUnits="userSpaceOnUse">
    <stop stop-color="#6098e3" offset="0"/>
    <stop stop-color="#b1cef4" offset="1"/>
  </linearGradient>
  <path d="M94.919 93.708c-.619 0-1.125-.506-1.125-1.125 0-.62.506-1.125 1.125-1.125s1.125.505 1.125 1.125c0 .619-.506 1.125-1.125 1.125z" fill="url(#y)"/>
  <linearGradient id="z" x1="91.629" x2="91.629" y1="31.545" y2="107.84" gradientUnits="userSpaceOnUse">
    <stop stop-color="#6098e3" offset="0"/>
    <stop stop-color="#b1cef4" offset="1"/>
  </linearGradient>
  <path d="M91.629 97c-.62 0-1.126-.506-1.126-1.125s.506-1.125 1.126-1.125c.619 0 1.125.506 1.125 1.125S92.248 97 91.629 97z" fill="url(#z)"/>
  <linearGradient id="bl" x1="88.004" x2="88.004" y1="32.127" y2="108.39" gradientUnits="userSpaceOnUse">
    <stop stop-color="#6098e3" offset="0"/>
    <stop stop-color="#b1cef4" offset="1"/>
  </linearGradient>
  <path d="M88.002 100.04c-.619 0-1.123-.504-1.123-1.123 0-.62.504-1.126 1.123-1.126.62 0 1.126.506 1.126 1.126 0 .619-.506 1.123-1.126 1.123z" fill="url(#bl)"/>
  <linearGradient id="bk" x1="79.543" x2="79.543" y1="32.917" y2="109.25" gradientUnits="userSpaceOnUse">
    <stop stop-color="#6098e3" offset="0"/>
    <stop stop-color="#b1cef4" offset="1"/>
  </linearGradient>
  <path d="M79.545 104.709c-.622 0-1.127-.505-1.127-1.127 0-.619.505-1.124 1.127-1.124.619 0 1.124.505 1.124 1.124 0 .622-.505 1.127-1.124 1.127z" fill="url(#bk)"/>
  <linearGradient id="bj" x1="75.377" x2="75.377" y1="33.257" y2="109.59" gradientUnits="userSpaceOnUse">
    <stop stop-color="#6098e3" offset="0"/>
    <stop stop-color="#b1cef4" offset="1"/>
  </linearGradient>
  <path d="M75.377 106.584c-.62 0-1.125-.505-1.125-1.127 0-.62.505-1.124 1.125-1.124s1.124.504 1.124 1.124c0 .622-.504 1.127-1.124 1.127z" fill="url(#bj)"/>
  <linearGradient id="bi" x1="70.585" x2="70.585" y1="33.51" y2="109.77" gradientUnits="userSpaceOnUse">
    <stop stop-color="#6098e3" offset="0"/>
    <stop stop-color="#b1cef4" offset="1"/>
  </linearGradient>
  <path d="M70.585 107.625c-.62 0-1.124-.504-1.124-1.124s.504-1.125 1.124-1.125 1.124.505 1.124 1.125-.504 1.124-1.124 1.124z" fill="url(#bi)"/>
  <linearGradient id="bh" x1="66.086" x2="66.086" y1="33.677" y2="109.94" gradientUnits="userSpaceOnUse">
    <stop stop-color="#6098e3" offset="0"/>
    <stop stop-color="#b1cef4" offset="1"/>
  </linearGradient>
  <path d="M66.086 108.542c-.62 0-1.125-.504-1.125-1.125 0-.62.505-1.124 1.125-1.124s1.124.504 1.124 1.124c0 .621-.504 1.125-1.124 1.125z" fill="url(#bh)"/>
  <linearGradient id="bg" x1="51.542" x2="51.542" y1="17.394" y2="93.706" gradientUnits="userSpaceOnUse">
    <stop stop-color="#6098e3" offset="0"/>
    <stop stop-color="#b1cef4" offset="1"/>
  </linearGradient>
  <path d="M51.542 19.167c-.62 0-1.125-.505-1.125-1.125s.505-1.125 1.125-1.125 1.125.505 1.125 1.125-.504 1.125-1.125 1.125z" fill="url(#bg)"/>
  <linearGradient id="bf" x1="56.376" x2="56.376" y1="17.288" y2="93.517" gradientUnits="userSpaceOnUse">
    <stop stop-color="#6098e3" offset="0"/>
    <stop stop-color="#b1cef4" offset="1"/>
  </linearGradient>
  <path d="M56.376 18.582c-.621 0-1.126-.503-1.126-1.124s.505-1.124 1.126-1.124 1.124.503 1.124 1.124-.503 1.124-1.124 1.124z" fill="url(#bf)"/>
  <linearGradient id="be" x1="46.96" x2="46.96" y1="17.629" y2="93.892" gradientUnits="userSpaceOnUse">
    <stop stop-color="#6098e3" offset="0"/>
    <stop stop-color="#b1cef4" offset="1"/>
  </linearGradient>
  <path d="M46.959 20.458c-.62 0-1.125-.505-1.125-1.125s.504-1.125 1.125-1.125c.62 0 1.125.505 1.125 1.125s-.505 1.125-1.125 1.125z" fill="url(#be)"/>
  <linearGradient id="bd" x1="42.793" x2="42.793" y1="17.925" y2="94.22" gradientUnits="userSpaceOnUse">
    <stop stop-color="#6098e3" offset="0"/>
    <stop stop-color="#b1cef4" offset="1"/>
  </linearGradient>
  <path d="M42.792 22.084c-.619 0-1.124-.505-1.124-1.126 0-.62.504-1.124 1.124-1.124.622 0 1.126.504 1.126 1.124 0 .621-.505 1.126-1.126 1.126z" fill="url(#bd)"/>
  <linearGradient id="bc" x1="34.5" x2="34.5" y1="18.757" y2="95.053" gradientUnits="userSpaceOnUse">
    <stop stop-color="#6098e3" offset="0"/>
    <stop stop-color="#b1cef4" offset="1"/>
  </linearGradient>
  <path d="M34.5 26.667c-.621 0-1.125-.504-1.125-1.125s.504-1.125 1.125-1.125 1.125.504 1.125 1.125-.504 1.125-1.125 1.125z" fill="url(#bc)"/>
  <linearGradient id="bb" x1="27.416" x2="27.416" y1="19.924" y2="96.269" gradientUnits="userSpaceOnUse">
    <stop stop-color="#6098e3" offset="0"/>
    <stop stop-color="#b1cef4" offset="1"/>
  </linearGradient>
  <path d="M27.417 33.126c-.621 0-1.126-.506-1.126-1.126 0-.621.506-1.125 1.126-1.125s1.125.504 1.125 1.125-.504 1.126-1.125 1.126z" fill="url(#bb)"/>
  <linearGradient id="ba" x1="30.979" x2="30.979" y1="19.303" y2="95.632" gradientUnits="userSpaceOnUse">
    <stop stop-color="#6098e3" offset="0"/>
    <stop stop-color="#b1cef4" offset="1"/>
  </linearGradient>
  <path d="M30.979 29.689c-.621 0-1.125-.506-1.125-1.126s.504-1.125 1.125-1.125 1.124.504 1.124 1.125-.503 1.126-1.124 1.126z" fill="url(#ba)"/>
  <linearGradient id="az" x1="24.458" x2="24.458" y1="20.595" y2="96.907" gradientUnits="userSpaceOnUse">
    <stop stop-color="#6098e3" offset="0"/>
    <stop stop-color="#b1cef4" offset="1"/>
  </linearGradient>
  <path d="M24.457 36.792c-.619 0-1.123-.504-1.123-1.125s.504-1.125 1.123-1.125c.621 0 1.125.504 1.125 1.125s-.504 1.125-1.125 1.125z" fill="url(#az)"/>
  <linearGradient id="ay" x1="19.584" x2="19.584" y1="22.117" y2="98.429" gradientUnits="userSpaceOnUse">
    <stop stop-color="#6098e3" offset="0"/>
    <stop stop-color="#b1cef4" offset="1"/>
  </linearGradient>
  <path d="M19.583 45.167c-.62 0-1.125-.504-1.125-1.126 0-.62.505-1.125 1.125-1.125.622 0 1.126.505 1.126 1.125-.001.622-.505 1.126-1.126 1.126z" fill="url(#ay)"/>
  <linearGradient id="ax" x1="17.874" x2="17.874" y1="22.9" y2="99.179" gradientUnits="userSpaceOnUse">
    <stop stop-color="#6098e3" offset="0"/>
    <stop stop-color="#b1cef4" offset="1"/>
  </linearGradient>
  <path d="M17.875 49.417c-.62 0-1.125-.505-1.125-1.125s.505-1.125 1.125-1.125S19 47.672 19 48.292c-.001.62-.506 1.125-1.125 1.125z" fill="url(#ax)"/>
  <linearGradient id="aw" x1="16.874" x2="16.874" y1="23.693" y2="99.939" gradientUnits="userSpaceOnUse">
    <stop stop-color="#6098e3" offset="0"/>
    <stop stop-color="#b1cef4" offset="1"/>
  </linearGradient>
  <path d="M16.875 53.708c-.62 0-1.125-.505-1.125-1.125s.505-1.123 1.125-1.123 1.124.503 1.124 1.123-.503 1.125-1.124 1.125z" fill="url(#aw)"/>
  <linearGradient id="av" x1="15.916" x2="15.916" y1="24.561" y2="100.86" gradientUnits="userSpaceOnUse">
    <stop stop-color="#6098e3" offset="0"/>
    <stop stop-color="#b1cef4" offset="1"/>
  </linearGradient>
  <path d="M15.917 58.584c-.621 0-1.124-.506-1.124-1.126 0-.621.503-1.124 1.124-1.124s1.124.503 1.124 1.124c0 .62-.504 1.126-1.124 1.126z" fill="url(#av)"/>
  <linearGradient id="au" x1="16" x2="16" y1="26.305" y2="102.57" gradientUnits="userSpaceOnUse">
    <stop stop-color="#6098e3" offset="0"/>
    <stop stop-color="#b1cef4" offset="1"/>
  </linearGradient>
  <path d="M16 68.083c-.619 0-1.124-.505-1.124-1.124 0-.621.504-1.125 1.124-1.125.621 0 1.125.504 1.125 1.125 0 .619-.504 1.124-1.125 1.124z" fill="url(#au)"/>
  <linearGradient id="at" x1="16.834" x2="16.834" y1="27.091" y2="103.45" gradientUnits="userSpaceOnUse">
    <stop stop-color="#6098e3" offset="0"/>
    <stop stop-color="#b1cef4" offset="1"/>
  </linearGradient>
  <path d="M16.833 72.711c-.62 0-1.126-.507-1.126-1.126 0-.62.506-1.126 1.126-1.126s1.126.506 1.126 1.126c0 .619-.506 1.126-1.126 1.126z" fill="url(#at)"/>
  <linearGradient id="as" x1="18" x2="18" y1="27.972" y2="104.3" gradientUnits="userSpaceOnUse">
    <stop stop-color="#6098e3" offset="0"/>
    <stop stop-color="#b1cef4" offset="1"/>
  </linearGradient>
  <path d="M18 77.46c-.62 0-1.127-.507-1.127-1.127 0-.619.507-1.124 1.127-1.124s1.126.505 1.126 1.124c0 .62-.506 1.127-1.126 1.127z" fill="url(#as)"/>
  <linearGradient id="ar" x1="20" x2="20" y1="28.765" y2="105.06" gradientUnits="userSpaceOnUse">
    <stop stop-color="#6098e3" offset="0"/>
    <stop stop-color="#b1cef4" offset="1"/>
  </linearGradient>
  <path d="M19.999 81.709c-.62 0-1.125-.504-1.125-1.125 0-.62.505-1.125 1.125-1.125.621 0 1.127.505 1.127 1.125 0 .621-.506 1.125-1.127 1.125z" fill="url(#ar)"/>
  <linearGradient id="aq" x1="24.46" x2="24.46" y1="30.23" y2="106.59" gradientUnits="userSpaceOnUse">
    <stop stop-color="#6098e3" offset="0"/>
    <stop stop-color="#b1cef4" offset="1"/>
  </linearGradient>
  <path d="M24.458 90.043c-.619 0-1.124-.505-1.124-1.126s.505-1.126 1.124-1.126c.621 0 1.126.505 1.126 1.126s-.505 1.126-1.126 1.126z" fill="url(#aq)"/>
  <linearGradient id="ap" x1="27.5" x2="27.5" y1="30.92" y2="107.25" gradientUnits="userSpaceOnUse">
    <stop stop-color="#6098e3" offset="0"/>
    <stop stop-color="#b1cef4" offset="1"/>
  </linearGradient>
  <path d="M27.5 93.708c-.619 0-1.125-.506-1.125-1.125 0-.621.506-1.126 1.125-1.126s1.125.505 1.125 1.126c0 .619-.506 1.125-1.125 1.125z" fill="url(#ap)"/>
  <linearGradient id="ao" x1="30.79" x2="30.79" y1="31.545" y2="107.84" gradientUnits="userSpaceOnUse">
    <stop stop-color="#6098e3" offset="0"/>
    <stop stop-color="#b1cef4" offset="1"/>
  </linearGradient>
  <path d="M30.79 97c-.619 0-1.125-.506-1.125-1.125s.506-1.125 1.125-1.125c.62 0 1.125.506 1.125 1.125S31.41 97 30.79 97z" fill="url(#ao)"/>
  <linearGradient id="an" x1="34.416" x2="34.416" y1="32.127" y2="108.39" gradientUnits="userSpaceOnUse">
    <stop stop-color="#6098e3" offset="0"/>
    <stop stop-color="#b1cef4" offset="1"/>
  </linearGradient>
  <path d="M34.417 100.04c-.62 0-1.125-.504-1.125-1.123 0-.62.506-1.126 1.125-1.126s1.124.506 1.124 1.126c0 .619-.504 1.123-1.124 1.123z" fill="url(#an)"/>
  <linearGradient id="am" x1="42.875" x2="42.875" y1="32.917" y2="109.25" gradientUnits="userSpaceOnUse">
    <stop stop-color="#6098e3" offset="0"/>
    <stop stop-color="#b1cef4" offset="1"/>
  </linearGradient>
  <path d="M42.875 104.709c-.62 0-1.124-.505-1.124-1.127 0-.619.504-1.124 1.124-1.124.62 0 1.124.505 1.124 1.124 0 .622-.504 1.127-1.124 1.127z" fill="url(#am)"/>
  <linearGradient id="aa" x1="47.042" x2="47.042" y1="33.257" y2="109.59" gradientUnits="userSpaceOnUse">
    <stop stop-color="#6098e3" offset="0"/>
    <stop stop-color="#b1cef4" offset="1"/>
  </linearGradient>
  <path d="M47.042 106.584c-.622 0-1.126-.505-1.126-1.127 0-.62.504-1.124 1.126-1.124.62 0 1.125.504 1.125 1.124 0 .622-.504 1.127-1.125 1.127z" fill="url(#aa)"/>
  <linearGradient id="ab" x1="51.834" x2="51.834" y1="33.51" y2="109.77" gradientUnits="userSpaceOnUse">
    <stop stop-color="#6098e3" offset="0"/>
    <stop stop-color="#b1cef4" offset="1"/>
  </linearGradient>
  <path d="M51.834 107.625c-.62 0-1.125-.504-1.125-1.124s.504-1.125 1.125-1.125 1.125.505 1.125 1.125-.504 1.124-1.125 1.124z" fill="url(#ab)"/>
  <linearGradient id="ac" x1="56.334" x2="56.334" y1="33.677" y2="109.94" gradientUnits="userSpaceOnUse">
    <stop stop-color="#6098e3" offset="0"/>
    <stop stop-color="#b1cef4" offset="1"/>
  </linearGradient>
  <path d="M56.334 108.542c-.62 0-1.125-.504-1.125-1.125 0-.62.504-1.124 1.125-1.124s1.125.504 1.125 1.124c-.001.621-.505 1.125-1.125 1.125z" fill="url(#ac)"/>
  <linearGradient id="ad" x1="61.874" x2="61.874" y1="13.25" y2="110.25" gradientUnits="userSpaceOnUse">
    <stop stop-color="#6098e3" offset="0"/>
    <stop stop-color="#b1cef4" offset="1"/>
  </linearGradient>
  <path d="m60.874 111.25v-8.626h2.001v8.626h-2.001z" fill="url(#ad)"/>
  <linearGradient id="ae" x1="61.874" x2="61.874" y1="12.804" y2="113.54" gradientUnits="userSpaceOnUse">
    <stop stop-color="#6098e3" offset="0"/>
    <stop stop-color="#b1cef4" offset="1"/>
  </linearGradient>
  <path d="M60.874 21.458V12.5h2v8.958h-2z" fill="url(#ae)"/>
  <linearGradient id="af" x1="106.71" x2="106.71" y1="13.25" y2="110.25" gradientUnits="userSpaceOnUse">
    <stop stop-color="#6098e3" offset="0"/>
    <stop stop-color="#b1cef4" offset="1"/>
  </linearGradient>
  <path d="m102.4 63.104v-2.001h8.626v2.001h-8.626z" fill="url(#af)"/>
  <linearGradient id="ag" x1="17.04" x2="17.04" y1="13.25" y2="110.25" gradientUnits="userSpaceOnUse">
    <stop stop-color="#6098e3" offset="0"/>
    <stop stop-color="#b1cef4" offset="1"/>
  </linearGradient>
  <path d="m12.728 63.104v-2h8.626v2h-8.626z" fill="url(#ag)"/>
  <linearGradient id="ah" x1="61.79" x2="61.79" y1="12.5" y2="110.75" gradientUnits="userSpaceOnUse">
    <stop stop-color="#6098e3" offset="0"/>
    <stop stop-color="#b1cef4" offset="1"/>
  </linearGradient>
  <path d="m26.359 42.393.867-1.519-7.754-4.435-.868 1.517.326.188 7.429 4.249zM36.423 19.53l.189.324 4.281 7.408 1.516-.875-4.472-7.732-1.514.875zm0 84.842.324.186 1.194.683 4.434-7.757-1.519-.868-4.433 7.756zM18.636 85.906l.188.326.687 1.191 7.735-4.474-.878-1.514-7.732 4.471zm78.581-43.514 7.758-4.434-.871-1.519-7.754 4.436.186.325.681 1.192zM82.685 27.265l4.47-7.737-1.518-.874-4.468 7.733.324.19 1.192.688zm-1.483 70.22.187.326 4.245 7.429 1.521-.868-4.435-7.757-1.518.87zm15.13-14.535.323.188 7.408 4.285.881-1.517-7.738-4.471-.874 1.515z" fill="url(#ah)"/>
  <path d="M62.93 54.622c.493.988.092 2.189-.896 2.683l-2.088 1.042c-.988.493-2.189.092-2.683-.896l-5.359-10.737c-.493-.988-.092-2.189.896-2.683l2.088-1.042c.988-.493 2.189-.092 2.683.896l5.359 10.737z" fill="#FF8065"/>
  <path d="M60.375 56.396 84.25 104.75" fill="none" stroke="#FF8065" stroke-linecap="round" stroke-linejoin="round" stroke-width="2"/>
  <linearGradient id="ai" x1="55.069" x2="55.069" y1="62.812" y2="65.331" gradientTransform="rotate(-23.584 56.683 67.77)" gradientUnits="userSpaceOnUse">
    <stop stop-color="#524ac9" offset="0"/>
    <stop stop-color="#5855bc" offset=".0957"/>
    <stop stop-color="#5d60af" offset=".2352"/>
    <stop stop-color="#5f64ab" offset=".3681"/>
    <stop stop-color="#190c7f" offset=".7253"/>
  </linearGradient>
  <path d="m68.621 58.644c0.35882 0.82237-0.0174 1.7795-0.83956 2.1393l-26.712 11.689c-0.82237 0.35882-1.7805-0.01719-2.1393-0.83956-0.35903-0.82335 0.01601-1.7813 0.83837-2.1401l26.714-11.688c0.82237-0.35882 1.7813 0.01601 2.1393 0.83956z" fill="url(#ai)"/>
  <linearGradient id="aj" x1="88.666" x2="88.666" y1="42.331" y2="45.547" gradientTransform="matrix(.6552 -.7555 .7555 .6552 -15.622 84.851)" gradientUnits="userSpaceOnUse">
    <stop stop-color="#524ac9" offset="0"/>
    <stop stop-color="#5855bc" offset=".0957"/>
    <stop stop-color="#5d60af" offset=".2352"/>
    <stop stop-color="#5f64ab" offset=".3681"/>
    <stop stop-color="#190c7f" offset=".7253"/>
  </linearGradient>
  <path d="M93.373 26.619c.417.362.463.993.101 1.41L60.017 67.152c-.362.418-.994.463-1.411.102l-.755-.656c-.417-.362-.463-.993-.101-1.41l33.458-39.124c.361-.418.993-.462 1.409-.101l.756.656z" fill="url(#aj)"/>
  <linearGradient id="ak" x1="62.406" x2="62.406" y1="57" y2="65.188" gradientUnits="userSpaceOnUse">
    <stop stop-color="#8ba4d6" offset="0"/>
    <stop stop-color="#1b3ea6" offset="1"/>
  </linearGradient>
  <circle cx="62.406" cy="61.281" r="4.469" fill="url(#ak)"/>
  <radialGradient id="a" cx="61.365" cy="57.292" r="7.5656" gradientUnits="userSpaceOnUse">
    <stop stop-color="#fff" offset="0"/>
    <stop stop-color="#f6faff" offset=".0515"/>
    <stop stop-color="#def" offset=".1361"/>
    <stop stop-color="#b5d9ff" offset=".2432"/>
    <stop stop-color="#7dbdff" offset=".3688"/>
    <stop stop-color="#3699ff" offset=".5081"/>
    <stop stop-color="#1487ff" offset=".5714"/>
    <stop stop-color="#0f85ff" offset=".8132"/>
    <stop stop-color="#3397ff" offset=".967"/>
  </radialGradient>
  <circle cx="62.365" cy="61.292" r="3.75" fill="url(#a)"/>
</svg>
