<?xml version="1.0" encoding="UTF-8" standalone="no"?><svg xmlns="http://www.w3.org/2000/svg" xmlns:xlink="http://www.w3.org/1999/xlink" version="1.1" width="128" height="128">
  <defs>
    <linearGradient id="b">
      <stop offset="0" stop-color="#fdee0d"/>
      <stop offset=".62582445" stop-color="#fdc622"/>
      <stop offset="1" stop-color="#fd9200"/>
    </linearGradient>
    <linearGradient id="a">
      <stop offset="0" stop-color="#fddd0b"/>
      <stop offset=".62582445" stop-color="#fdb819"/>
      <stop offset="1" stop-color="#fd9200"/>
    </linearGradient>
    <linearGradient id="e">
      <stop offset="0" stop-color="#c42f00"/>
      <stop offset="1" stop-color="#fd5900"/>
    </linearGradient>
    <linearGradient id="d">
      <stop offset="0" stop-color="#fdfc83"/>
      <stop offset=".52498668" stop-color="#fdc600"/>
      <stop offset=".76594102" stop-color="#fd9801"/>
      <stop offset="1" stop-color="#f6c092"/>
    </linearGradient>
    <linearGradient id="j">
      <stop offset="0" stop-color="#fd6c00"/>
      <stop offset="1" stop-color="#c42f00"/>
    </linearGradient>
    <linearGradient id="i">
      <stop offset="0" stop-color="#fdfc9a"/>
      <stop offset=".62582445" stop-color="#fdb700"/>
      <stop offset="1" stop-color="#fd6c00"/>
    </linearGradient>
    <linearGradient id="f">
      <stop offset="0" stop-color="#fff"/>
      <stop offset=".5" stop-color="#fff" stop-opacity="0"/>
      <stop offset="1" stop-color="#fff"/>
    </linearGradient>
    <linearGradient id="h">
      <stop offset="0" stop-color="#4178c8"/>
      <stop offset="1" stop-color="#aa9eff"/>
    </linearGradient>
    <linearGradient id="g">
      <stop offset="0" stop-color="#d3f3fd"/>
      <stop offset=".52498668" stop-color="#66afdf"/>
      <stop offset=".76594102" stop-color="#3079cd"/>
      <stop offset="1" stop-color="#88b1f6"/>
    </linearGradient>
    <linearGradient id="l">
      <stop offset="0" stop-color="#fff"/>
      <stop offset="1" stop-color="#fff" stop-opacity="0"/>
    </linearGradient>
    <linearGradient id="k">
      <stop offset="0" stop-color="#1053c3"/>
      <stop offset="1" stop-color="#95b9f7"/>
    </linearGradient>
    <linearGradient id="c">
      <stop offset="0" stop-color="#d3f3fd"/>
      <stop offset=".62582445" stop-color="#66afdf"/>
      <stop offset="1" stop-color="#1053c3"/>
    </linearGradient>
    <radialGradient xlink:href="#a" id="n" gradientUnits="userSpaceOnUse" gradientTransform="matrix(-1.30042 0 0 1.59327 94.5 -514.926)" cx="206.41617" cy="275.02695" fx="206.41617" fy="275.02695" r="43.856468"/>
    <radialGradient xlink:href="#b" id="o" gradientUnits="userSpaceOnUse" gradientTransform="matrix(1.30042 0 0 1.59327 -304.014 -514.926)" cx="206.41617" cy="275.02695" fx="206.41617" fy="275.02695" r="43.856468"/>
    <radialGradient xlink:href="#c" id="p" gradientUnits="userSpaceOnUse" gradientTransform="matrix(-1.30042 0 0 1.59327 -32.414 -441.048)" cx="206.41617" cy="275.02695" fx="206.41617" fy="275.02695" r="43.856468"/>
    <radialGradient xlink:href="#d" id="q" gradientUnits="userSpaceOnUse" gradientTransform="matrix(1.7892 -.0193 .01842 1.70802 -406.618 -670.835)" cx="163.53549" cy="407.1412" fx="163.53549" fy="407.1412" r="90.587906"/>
    <linearGradient xlink:href="#e" id="r" gradientUnits="userSpaceOnUse" gradientTransform="translate(-72.288 -382.98)" x1="-34.232658" y1="411.23557" x2="-34.232658" y2="240.29076"/>
    <radialGradient xlink:href="#c" id="s" gradientUnits="userSpaceOnUse" gradientTransform="matrix(1.30042 0 0 1.59327 -430.928 -441.048)" cx="206.41617" cy="275.02695" fx="206.41617" fy="275.02695" r="43.856468"/>
    <linearGradient xlink:href="#f" id="t" gradientUnits="userSpaceOnUse" gradientTransform="matrix(-1 0 0 1 32.487 -351.76)" x1="216.85551" y1="332.17117" x2="216.85551" y2="224.71921"/>
    <radialGradient xlink:href="#g" id="u" gradientUnits="userSpaceOnUse" gradientTransform="matrix(1.7892 -.0193 .01842 1.70802 -533.532 -596.957)" cx="163.53549" cy="407.1412" fx="163.53549" fy="407.1412" r="90.587906"/>
    <linearGradient xlink:href="#h" id="v" gradientUnits="userSpaceOnUse" gradientTransform="translate(-199.202 -309.103)" x1="-34.232658" y1="411.23557" x2="-34.232658" y2="240.29076"/>
    <linearGradient xlink:href="#f" id="w" gradientUnits="userSpaceOnUse" gradientTransform="matrix(-1 0 0 1 -94.427 -277.884)" x1="216.85551" y1="332.17117" x2="216.85551" y2="224.71921"/>
    <radialGradient xlink:href="#i" id="x" gradientUnits="userSpaceOnUse" gradientTransform="matrix(1.61223 .00743 -.00872 1.89262 -327.753 -541.283)" cx="139.18437" cy="213.22121" fx="139.18437" fy="213.22121" r="59.336514"/>
    <linearGradient xlink:href="#j" id="y" gradientUnits="userSpaceOnUse" gradientTransform="translate(-269.87 -389.834) scale(1.1761)" x1="140" y1="106.16347" x2="140" y2="220.9505"/>
    <radialGradient xlink:href="#c" id="z" gradientUnits="userSpaceOnUse" gradientTransform="matrix(1.61223 .00743 -.00872 1.89262 -454.667 -467.406)" cx="139.18437" cy="213.22121" fx="139.18437" fy="213.22121" r="59.336514"/>
    <linearGradient xlink:href="#k" id="A" gradientUnits="userSpaceOnUse" gradientTransform="translate(-396.784 -315.957) scale(1.1761)" x1="140" y1="106.16347" x2="140" y2="220.9505"/>
    <linearGradient xlink:href="#l" id="B" gradientUnits="userSpaceOnUse" gradientTransform="matrix(.9079 0 0 .62665 -232.32 -326.668)" x1="135.72974" y1="106.95187" x2="135.72974" y2="224.05219"/>
    <linearGradient xlink:href="#l" id="C" gradientUnits="userSpaceOnUse" gradientTransform="matrix(.9079 0 0 .62665 -359.235 -252.79)" x1="135.72974" y1="106.95187" x2="135.72974" y2="224.05219"/>
    <linearGradient xlink:href="#f" id="D" gradientUnits="userSpaceOnUse" gradientTransform="translate(-242.002 -351.76)" x1="216.85551" y1="332.17117" x2="216.85551" y2="224.71921"/>
    <linearGradient xlink:href="#f" id="E" gradientUnits="userSpaceOnUse" gradientTransform="translate(-368.916 -277.884)" x1="216.85551" y1="332.17117" x2="216.85551" y2="224.71921"/>
    <filter id="m">
      <feGaussianBlur stdDeviation="1.2315629"/>
    </filter>
  </defs>
  <path style="text-indent:0;text-align:start;line-height:normal;text-transform:none;block-progression:tb;-inkscape-font-specification:Sans" d="M85.966324 1.6906021c-6.1852 0-12.314361 2.5321962-16.6875 6.90625-4.373139 4.3740539-6.907547 10.4710499-6.90625 16.6562499-.0013 6.141004 2.49675 12.226283 6.8125 16.59375l.09375.09375c1.067371 1.067595 2.248126 2.03689 3.5 2.875-2.432692.835024-4.637945 1.766312-6.625 2.8125-.633172-5.207821-3.003279-10.189431-6.71875-13.90625-4.373232-4.374818-10.50169-6.90625-16.6875-6.90625s-12.28302 2.531432-16.65625 6.90625c-4.37323 4.374818-6.9085 10.501694-6.90625 16.6875.002 6.182937 2.53346 12.28505 6.90625 16.65625 1.06674 1.066349 2.22026 2.03734 3.46875 2.875-9.77137 3.357439-15.75356 8.557893-19.40625 14.5625-3.8223401 6.283497-5.1163101 13.38767-5.7187501 20.093748v.0624c-.008 3.30435 1.17915 6.10584 3.40625 7.0625 1.11355.47833 2.4408201.36821 3.7187501-.3125.01925-.0102.04326-.0208.0625-.0312.4977 4.23659 2.60569 8.04482 6.625 10.875 4.99721 3.51876 12.80741 5.59375 24.0625 5.59375 11.255098 0 19.065287-2.07499 24.0625-5.59375 4.274732-3.01003 6.376736-7.12539 6.6875-11.6875.405149.32864.81372.628 1.21875.84375 1.277933.68071 2.605201.79083 3.71875.3125 2.227099-.95666 3.382539-3.75815 3.375-7.0625v-.0624c-.06039-.67224-.111925-1.35223-.1875-2.03125 1.378701.0712 2.813.125 4.3125.125 11.255097 0 19.096536-2.04373 24.093746-5.562498 4.25529-2.99634 6.36167-7.112272 6.6875-11.65625.38851.319016.79506.603461 1.1875.8125 1.27794.680709 2.6052.75958 3.71875.28125 2.2271-.95666 3.41379-3.726905 3.40625-7.03125v-.0625l-.0312-.03125c-.60243-6.706079-1.86516-13.810253-5.6875-20.09375-3.67922-6.048232-9.75601-11.24131-19.656246-14.59375 1.170526-.792268 2.270736-1.692418 3.281246-2.6875l.125-.125c4.37314-4.374054 6.90755-10.5023 6.90625-16.6875.001-6.1852-2.53311-12.282196-6.90625-16.6562499-4.373135-4.3740538-10.471046-6.90625-16.656246-6.90625z" transform="matrix(.99664 0 0 1 .005 0)" opacity=".5" color="#000" fill-rule="evenodd" filter="url(#m)"/>
  <g fill-rule="evenodd">
    <path d="M-139.16004-136.78964c-61.35462 19.28147-72.61312 61.918212-76.1251 101.012152-.0415 18.18473 13.38332 28.4225195 27.44896 7.31972l55.26388-98.450242-6.58774-9.88163z" fill="url(#n)" stroke="#f96700" stroke-width="5" stroke-linecap="round" transform="matrix(.33616 0 0 .34035 120.527 90.642)"/>
    <path d="M-70.354775-136.78964C-9.0001551-117.50817 2.2583449-74.871428 5.7703249-35.777488c.0415 18.18473-13.38332 28.4225195-27.4489599 7.31972l-55.26388-98.450242 6.58774-9.88163z" fill="url(#o)" stroke="#f96700" stroke-width="5" stroke-linecap="round" transform="matrix(.33616 0 0 .34035 120.527 90.642)"/>
    <path d="M-266.07394-62.912158c-61.35462 19.28147-72.61312 61.9182095-76.1251 101.01215-.0415 18.18473 13.38332 28.42252 27.44896 7.31972l55.26388-98.45024-6.58774-9.88163z" fill="url(#p)" stroke="#417bdb" stroke-width="5" stroke-linecap="round" transform="matrix(.33616 0 0 .34035 120.527 90.642)"/>
    <path d="M-106.5206 29.810182c65.524385 0 89.920025-24.1299002 87.981625-55-1.21846-19.40461-25.63794-115.000012-87.981625-115.000012-62.34368 0-86.76316 95.595402-87.98162 115.000012-1.9384 30.8700998 22.45724 55 87.98162 55z" fill="url(#q)" stroke="url(#r)" stroke-width="5" stroke-linecap="round" transform="matrix(.33616 0 0 .34035 120.527 90.642)"/>
    <path d="M-197.26869-62.912158c61.35462 19.28147 72.61312 61.9182095 76.1251 101.01215.0415 18.18473-13.38332 28.42252-27.44896 7.31972l-55.26388-98.45024 6.58774-9.88163z" fill="url(#s)" stroke="#417bdb" stroke-width="5" stroke-linecap="round" transform="matrix(.33616 0 0 .34035 120.527 90.642)"/>
    <path d="M-156.72737-126.54203c-18.03592 20.36848-44.47299 54.150152-40.99044 95.156372.98212 22.9950995-14.89161 5.30324-14.27345-4.20884 1.40432-37.57185 19.50483-78.419892 55.26389-90.947532z" fill="url(#t)" transform="matrix(.33616 0 0 .34035 120.527 90.642)"/>
    <path d="M-233.43451 103.68766c65.52438 0 89.92002-24.129898 87.98162-54.999998-1.21846-19.40461-25.63794-115.00001-87.98162-115.00001-62.34367 0-86.76315 95.5954-87.98161 115.00001-1.9384 30.8701 22.45724 54.999998 87.98161 54.999998z" fill="url(#u)" stroke="url(#v)" stroke-width="5" stroke-linecap="round" transform="matrix(.33616 0 0 .34035 120.527 90.642)"/>
    <path d="M-283.64128-52.664548c-18.03592 20.36848-44.47299 54.1501495-40.99044 95.15637.98212 22.9951-14.89161 5.30324-14.27345-4.20884 1.40432-37.5718505 19.50483-78.41989 55.26389-90.94753z" fill="url(#w)" transform="matrix(.33616 0 0 .34035 120.527 90.642)"/>
    <path d="M-38.430805-195.18984a66.785713 66.785713 0 1 1-133.571425 0 66.785713 66.785713 0 1 1 133.571425 0z" fill="url(#x)" stroke="url(#y)" stroke-width="5" stroke-linecap="round" transform="matrix(.33616 0 0 .34035 120.527 90.642)"/>
    <path d="M-165.34471-121.31236a66.785711 66.785711 0 0 1-133.57142 0 66.785711 66.785711 0 1 1 133.57142 0z" fill="url(#z)" stroke="url(#A)" stroke-width="5" stroke-linecap="round" transform="matrix(.33616 0 0 .34035 120.527 90.642)"/>
    <path d="M-53.661375-222.95656a51.555124 35.584943 0 1 1-103.110245 0 51.555124 35.584943 0 1 1 103.110245 0z" fill="url(#B)" transform="matrix(.33616 0 0 .34035 120.527 90.642)"/>
    <path d="M-180.57528-149.07907a51.555125 35.584943 0 0 1-103.11024 0 51.555125 35.584943 0 1 1 103.11024 0z" fill="url(#C)" transform="matrix(.33616 0 0 .34035 120.527 90.642)"/>
    <path d="M-52.787445-126.54203c18.03592 20.36848 44.4729899 54.150152 40.99044 95.156372-.98212 22.9950995 14.8916099 5.30324 14.2734499-4.20884-1.40432-37.57185-19.5048299-78.419892-55.2638899-90.947532z" fill="url(#D)" transform="matrix(.33616 0 0 .34035 120.527 90.642)"/>
    <path d="M-179.70136-52.664548c18.03592 20.36848 44.47299 54.1501495 40.99044 95.15637-.98212 22.9951 14.89161 5.30324 14.27345-4.20884-1.40432-37.5718505-19.50483-78.41989-55.26389-90.94753z" fill="url(#E)" transform="matrix(.33616 0 0 .34035 120.527 90.642)"/>
  </g>
</svg>
