<?xml version="1.0" encoding="UTF-8" standalone="no"?>
<svg xmlns="http://www.w3.org/2000/svg" xmlns:xlink="http://www.w3.org/1999/xlink" viewBox="0 0 80 80">
  <linearGradient id="d" x1="170.05" x2="227.86" y1="-12.48" y2="-107.26" gradientTransform="matrix(1.04 0 0 -1.04 -162.71 -13.86)" gradientUnits="userSpaceOnUse">
    <stop offset=".01" stop-color="#d9ffff"/>
    <stop offset=".24" stop-color="#6eaafe"/>
    <stop offset="1" stop-color="#0356fe"/>
  </linearGradient>
  <linearGradient id="b" x1="176.36" x2="215.25" y1="-27.28" y2="-81.53" gradientTransform="matrix(1.04 0 0 -1.04 -162.71 -13.86)" gradientUnits="userSpaceOnUse">
    <stop offset="0" stop-color="#0356fe"/>
    <stop offset="1" stop-color="#032442"/>
  </linearGradient>
  <linearGradient id="a" x1="-268.25" x2="-233.09" y1="1278.98" y2="1455.26" gradientTransform="matrix(0 2.33 .46 0 -586.66 651.75)" gradientUnits="userSpaceOnUse">
    <stop offset=".01" stop-color="#d9ffff"/>
    <stop offset=".13" stop-color="#95d9ff"/>
    <stop offset=".32" stop-color="#68b9ff"/>
    <stop offset=".57" stop-color="#3293fe"/>
    <stop offset=".75" stop-color="#107bfe"/>
    <stop offset=".85" stop-color="#0372fe"/>
    <stop offset="1" stop-color="#0356fe"/>
  </linearGradient>
  <linearGradient id="e" x1="-267.36" x2="-232.2" y1="1441.81" y2="1618.08" gradientTransform="matrix(0 2.33 .46 0 -660.16 614.67)" xlink:href="#a"/>
  <linearGradient id="f" x1="-314.62" x2="-279.46" y1="886.92" y2="1063.19" gradientTransform="matrix(0 2.33 .46 0 -435.62 691.54)" xlink:href="#a"/>
  <linearGradient id="g" x1="-253.74" x2="-218.58" y1="874.78" y2="1051.05" gradientTransform="matrix(0 2.33 .46 0 -398.12 618.23)" xlink:href="#a"/>
  <linearGradient id="h" x1="80.58" x2="133.88" y1="-13.54" y2="-90.17" gradientTransform="matrix(1.04 0 0 -1.04 -71.05 -12.14)" xlink:href="#b"/>
  <linearGradient id="c" x1="71.05" x2="111.24" y1="-22.81" y2="-54.75" gradientTransform="matrix(1.04 0 0 -1.04 -71.05 -12.14)" gradientUnits="userSpaceOnUse">
    <stop offset="0" stop-color="#fff" stop-opacity=".91"/>
    <stop offset="1" stop-color="#fff" stop-opacity="0"/>
  </linearGradient>
  <linearGradient id="i" x1="-238.23" x2="-246.76" y1="-807.51" y2="-735.81" gradientTransform="matrix(3.01 0 0 -.36 750.12 -238.17)" xlink:href="#c"/>
  <radialGradient id="j" cx="112.81" cy="-82.99" r="22.67" gradientTransform="matrix(1.04 0 0 -1.04 -71.05 -12.14)" xlink:href="#c"/>
  <linearGradient id="k" x1="619.15" x2="626.55" y1="157.97" y2="142.59" gradientTransform="matrix(.52 0 0 -2.07 -288.02 332.25)" xlink:href="#c"/>
  <linearGradient id="l" x1="1052.03" x2="1137.39" y1="-735.92" y2="-818.37" gradientTransform="matrix(.31 0 0 -.31 -303.45 -203.49)" xlink:href="#c"/>
  <linearGradient id="m" x1="-182.35" x2="-182.73" y1="-464.01" y2="-435.29" gradientTransform="matrix(2.57 0 0 -.51 533.79 -189.07)" gradientUnits="userSpaceOnUse">
    <stop offset="0" stop-color="#fff" stop-opacity=".73"/>
    <stop offset="1" stop-color="#fff" stop-opacity="0"/>
  </linearGradient>
  <g stroke-linejoin="round">
    <path fill="none" stroke="#000" stroke-opacity=".07" stroke-width="2.46" d="m77.59 40.91-28 9.46-9 27.13-10-27.62-27.94-9.19 27.67-9.31 10.19-28.5 9.4 27.84z"/>
    <path fill="none" stroke="#000" stroke-opacity=".07" stroke-width="3.65" d="m77.59 40.91-28 9.46-9 27.13-10-27.62-27.94-9.19 27.67-9.31 10.19-28.5 9.4 27.84z"/>
    <path fill="none" stroke="#00f" stroke-opacity=".07" stroke-width="4.85" d="m77.59 40.91-28 9.46-9 27.13-10-27.62-27.94-9.19 27.67-9.31 10.19-28.5 9.4 27.84z"/>
    <path fill="url(#d)" stroke="url(#b)" stroke-width="1.61" d="m77.59 40.91-28.11 9.46-8.86 27.13-9.56-27.3-28.41-9.51 27.67-9.16 10.19-28.65 9.25 27.68z"/>
  </g>
  <path fill="url(#a)" d="m40.33 40.9h-37.4l27.36-9.41z"/>
  <path fill="url(#e)" d="m40.49 41h36.66l-27.36 9.61z"/>
  <path fill="url(#f)" d="m40.41 40.91v-37.24l9.49 27.44z"/>
  <path fill="url(#g)" d="m40.57 40.94v36.5l-9.57-27.29z"/>
  <path fill="none" stroke="url(#h)" stroke-linejoin="round" stroke-width="1.61" d="m77.59 40.91-28 9.46-9 27.13-10-27.62-27.94-9.19 27.67-9.31 10.19-28.5 9.4 27.84z"/>
  <path fill="url(#c)" d="m40.22 77.76-1.62-33c.2-1.62.17-2.33-1.68-2.14l-33.44-1.62 32.8-1.64c1.74.31 2.55-1.09 2.47-2.6l1.69-32.39 1.32 33.43c0 1.29.51 1.68 2.14 1.82l33.28 1.55-33.41 1.17c-1.85-.2-2.24.38-2.16 2.44z"/>
  <path fill="url(#i)" d="m2.93 41c22.07-6.62 31.07-5.37 33.07-3.9 2.54 2.38 1.43 1.25 4 3.63-4.57.15-28.7.48-37.07.27z"/>
  <path fill="url(#j)" d="m77.59 40.91-28.11 9-8.86 27.59-9.4-28.26-28.57-8.55 30.43-4.85 7 6.25 4.19-6.27z"/>
  <path fill="url(#k)" d="m40.44 3.49c-1.92 7.42-5.83 15.16-7.74 22.58-.19 1.76 4.7 7.08 6.08 7.39s1.7-7.13 1.77-10.14c-.18-6.61.08-13.22-.11-19.83z"/>
  <path fill="url(#l)" d="m39.68 41.71-36.2-.71 34.64-1.16c1.74.31 1.48 0 1.39-1.49l.93-33.93.56 36.09c0 1.29.53 1-1.32 1.2z"/>
  <path fill="url(#m)" d="m76.08 40.62c-8 0-19.14 1.13-23.88.11-1.44-.31 3.14-5.66 5.33-5.67 5.77-.06 12.36 4.24 18.55 5.56z"/>
</svg>
