<?xml version="1.0" encoding="UTF-8" standalone="no"?>
<!-- Generator: Adobe Illustrator 10.0.3, SVG Export Plug-In . SVG Version: 3.0.0 Build 77)  -->
<svg
   xmlns:a="http://ns.adobe.com/AdobeSVGViewerExtensions/3.0/"
   xmlns:dc="http://purl.org/dc/elements/1.1/"
   xmlns:cc="http://web.resource.org/cc/"
   xmlns:rdf="http://www.w3.org/1999/02/22-rdf-syntax-ns#"
   xmlns:svg="http://www.w3.org/2000/svg"
   xmlns="http://www.w3.org/2000/svg"
   xmlns:sodipodi="http://sodipodi.sourceforge.net/DTD/sodipodi-0.dtd"
   xmlns:inkscape="http://www.inkscape.org/namespaces/inkscape"
   width="128"
   height="128"
   viewBox="0 0 128 128"
   overflow="visible"
   enable-background="new 0 0 128 128"
   xml:space="preserve"
   id="svg47418"
   sodipodi:version="0.32"
   inkscape:version="0.45"
   sodipodi:docname="poznamka.svgz.svg"
   sodipodi:docbase="/home/want"
   inkscape:output_extension="org.inkscape.output.svg.inkscape"><metadata
   id="metadata47527"><rdf:RDF><cc:Work
       rdf:about=""><dc:format>image/svg+xml</dc:format><dc:type
         rdf:resource="http://purl.org/dc/dcmitype/StillImage" /></cc:Work></rdf:RDF></metadata><defs
   id="defs47525">
		
		
	</defs><sodipodi:namedview
   inkscape:window-height="572"
   inkscape:window-width="749"
   inkscape:pageshadow="2"
   inkscape:pageopacity="0.0"
   guidetolerance="10.0"
   gridtolerance="10.0"
   objecttolerance="10.0"
   borderopacity="1.0"
   bordercolor="#666666"
   pagecolor="#ffffff"
   id="base"
   inkscape:zoom="2.984375"
   inkscape:cx="64"
   inkscape:cy="64"
   inkscape:window-x="264"
   inkscape:window-y="225"
   inkscape:current-layer="g47421" />
	<g
   id="g47421">
			
			<path
   style="opacity:0.15"
   id="path47464"
   d="M 74.36,47.218 L 33.942,55.033 L 57.397,101.946 L 105.537,92.502 L 74.36,47.218 z " />
			<g
   id="g47466">
				
					<linearGradient
   gradientTransform="matrix(-0.1925,-0.9813,0.9813,-0.1925,-4238.5669,3022.5256)"
   y2="4798.3682"
   x2="2083.5564"
   y1="4769.501"
   x1="2034.9863"
   gradientUnits="userSpaceOnUse"
   id="XMLID_6_">
					<stop
   id="stop47469"
   style="stop-color:#D9D9D9"
   offset="0" />
					<stop
   id="stop47471"
   style="stop-color:#8C99C9"
   offset="1" />
					<a:midPointStop
   style="stop-color:#D9D9D9"
   offset="0" />
					<a:midPointStop
   style="stop-color:#D9D9D9"
   offset="0.5" />
					<a:midPointStop
   style="stop-color:#8C99C9"
   offset="1" />
				</linearGradient>
				<path
   style="fill:url(#XMLID_6_)"
   id="path47473"
   d="M 24.992,49.616 C 24.909,49.789 24.916,49.992 25.003,50.166 L 49.834,99.58 C 49.96,99.822 50.22,99.956 50.476,99.904 L 101.629,89.871 C 101.826,89.832 101.988,89.69 102.063,89.498 C 102.134,89.304 102.106,89.085 101.989,88.914 L 68.948,41.229 C 68.813,41.036 68.58,40.934 68.353,40.978 L 25.409,49.284 C 25.227,49.322 25.071,49.441 24.992,49.616 z " />
				<path
   style="fill:#ffffff"
   id="path47475"
   d="M 67.615,42.775 L 27.196,50.59 L 50.652,97.502 L 98.792,88.058 L 67.615,42.775 z " />
				<linearGradient
   y2="44.827499"
   x2="83.0056"
   y1="96.727501"
   x1="40.526402"
   gradientUnits="userSpaceOnUse"
   id="XMLID_7_">
					<stop
   id="stop47478"
   style="stop-color:#FFFFFF"
   offset="0" />
					<stop
   id="stop47480"
   style="stop-color:#DFDFEC"
   offset="1" />
					<a:midPointStop
   style="stop-color:#FFFFFF"
   offset="0" />
					<a:midPointStop
   style="stop-color:#FFFFFF"
   offset="0.5" />
					<a:midPointStop
   style="stop-color:#DFDFEC"
   offset="1" />
				</linearGradient>
				<path
   style="fill:url(#XMLID_7_)"
   id="path47482"
   d="M 67.152,45.75 L 31.048,52.729 L 51.922,94.272 L 94.927,85.836 L 67.152,45.75 z " />
			</g>
			<g
   id="g47484">
				
					<linearGradient
   gradientTransform="matrix(0.9121,0.4099,-0.4099,0.9121,1486.1229,-457.4578)"
   y2="1028.8"
   x2="-1078.8097"
   y1="1028.9766"
   x1="-1086.7744"
   gradientUnits="userSpaceOnUse"
   id="XMLID_8_">
					<stop
   id="stop47487"
   style="stop-color:#FFAE00"
   offset="0" />
					<stop
   id="stop47489"
   style="stop-color:#BB4400"
   offset="1" />
					<a:midPointStop
   style="stop-color:#FFAE00"
   offset="0" />
					<a:midPointStop
   style="stop-color:#FFAE00"
   offset="0.5" />
					<a:midPointStop
   style="stop-color:#BB4400"
   offset="1" />
				</linearGradient>
				<path
   style="fill:url(#XMLID_8_)"
   id="path47491"
   d="M 82.676,61.503 L 82.757,61.523 L 106.2,10.207 C 106.908,8.451 103.98,5.487 99.449,3.426 C 94.928,1.364 90.767,1.098 89.982,2.814 L 66.606,54.259 C 66.481,54.204 66.358,76.074 66.358,76.074 L 66.419,76.035 L 66.42,76.043 L 67.959,74.986 L 82.676,61.503 z " />
				<path
   style="fill:#fff0dc"
   id="path47493"
   d="M 67.907,54.534 L 67.106,74.472 L 81.533,60.68 L 81.432,60.635 C 81.54,60.56 81.638,60.478 81.718,60.385 L 81.794,60.419 L 104.784,10.032 L 104.709,10.002 C 105.397,8.502 102.881,5.887 99.098,4.159 C 95.311,2.431 91.69,2.248 91.005,3.747 L 68.018,54.131 L 67.907,54.534 z " />
				<linearGradient
   y2="19.9522"
   x2="86.264603"
   y1="80.526398"
   x1="58.4048"
   gradientUnits="userSpaceOnUse"
   id="XMLID_9_">
					<stop
   id="stop47496"
   style="stop-color:#FFFFFF"
   offset="0" />
					<stop
   id="stop47498"
   style="stop-color:#FFEB00"
   offset="1" />
					<a:midPointStop
   style="stop-color:#FFFFFF"
   offset="0" />
					<a:midPointStop
   style="stop-color:#FFFFFF"
   offset="0.5" />
					<a:midPointStop
   style="stop-color:#FFEB00"
   offset="1" />
				</linearGradient>
				<path
   style="fill:url(#XMLID_9_)"
   id="path47500"
   d="M 91.146,3.443 C 90.678,4.595 92.019,6.366 94.347,7.901 L 71.275,58.465 C 69.217,57.123 68.013,55.315 67.982,54.156 L 91.135,3.437 L 91.146,3.443 z " />
				<linearGradient
   y2="21.876801"
   x2="96.893402"
   y1="81.185501"
   x1="69.455101"
   gradientUnits="userSpaceOnUse"
   id="XMLID_10_">
					<stop
   id="stop47503"
   style="stop-color:#FFFFD9"
   offset="0" />
					<stop
   id="stop47505"
   style="stop-color:#FF9A2B"
   offset="1" />
					<a:midPointStop
   style="stop-color:#FFFFD9"
   offset="0" />
					<a:midPointStop
   style="stop-color:#FFFFD9"
   offset="0.5" />
					<a:midPointStop
   style="stop-color:#FF9A2B"
   offset="1" />
				</linearGradient>
				<path
   style="fill:url(#XMLID_10_)"
   id="path47507"
   d="M 81.942,60.22 C 81.421,61.364 79.1,61.477 76.431,60.768 L 99.494,10.226 C 102.113,10.935 104.262,10.77 104.816,9.682 L 104.96,9.748 L 82.593,58.771 C 82.582,58.812 82.062,59.954 81.942,60.22 z " />
				<linearGradient
   y2="14.9216"
   x2="94.133698"
   y1="89.419899"
   x1="60.577599"
   gradientUnits="userSpaceOnUse"
   id="XMLID_11_">
					<stop
   id="stop47510"
   style="stop-color:#FFFFE8"
   offset="0" />
					<stop
   id="stop47512"
   style="stop-color:#FFBD00"
   offset="1" />
					<a:midPointStop
   style="stop-color:#FFFFE8"
   offset="0" />
					<a:midPointStop
   style="stop-color:#FFFFE8"
   offset="0.5" />
					<a:midPointStop
   style="stop-color:#FFBD00"
   offset="1" />
				</linearGradient>
				<path
   style="fill:url(#XMLID_11_)"
   id="path47514"
   d="M 73.629,59.755 C 72.769,59.363 71.983,58.924 71.275,58.464 L 94.347,7.901 C 95.07,8.374 95.878,8.83 96.763,9.234 C 97.698,9.661 98.624,9.991 99.495,10.225 L 76.432,60.768 C 75.538,60.533 74.587,60.193 73.629,59.755 z " />
				<path
   style="opacity:0.4;fill:#000030"
   id="path47516"
   d="M 67.381,66.612 L 67.092,74.531 L 72.239,69.619 C 72.239,69.619 71.323,69.848 69.62,68.973 C 67.365,67.817 67.381,66.612 67.381,66.612 z " />
				<g
   style="opacity:0.1"
   id="g47518">
					<path
   style="fill:#000030"
   id="path47520"
   d="M 125.904,50.515 C 123.636,46.37 120.666,43.633 119.144,44.285 L 78.891,61.922 C 78.855,61.858 74.893,66.57 71.523,70.599 C 71.516,70.112 71.633,69.912 71.633,69.912 L 69.794,72.668 C 68.103,74.695 66.852,76.198 66.852,76.198 L 66.918,76.208 L 66.913,76.216 L 68.641,76.464 L 73.048,76.496 L 74.606,76.663 C 74.606,76.663 74.539,76.613 74.424,76.508 L 86.989,76.604 L 87.042,76.666 L 127.277,59.156 C 128.762,58.429 128.179,54.667 125.904,50.515 z " />
				</g>
			</g>
		</g><path
   style="fill:none"
   id="path47522"
   d="M 128,128 L 0,128 L 0,0 L 128,0 L 128,128 z " />
</svg>