<?xml version="1.0" encoding="UTF-8" standalone="no"?>
<!DOCTYPE svg PUBLIC "-//W3C//DTD SVG 1.1//EN" 
  "http://www.w3.org/Graphics/SVG/1.1/DTD/svg11.dtd">
<svg xmlns="http://www.w3.org/2000/svg" xmlns:xlink="http://www.w3.org/1999/xlink" width="128" height="128">
  <linearGradient id="b">
    <stop offset="0" stop-color="#bfffbf"/>
    <stop offset="1" stop-color="#bfffbf" stop-opacity="0"/>
  </linearGradient>
  <linearGradient id="a">
    <stop offset="0" stop-color="#003000"/>
    <stop offset="1" stop-color="#003000" stop-opacity="0"/>
  </linearGradient>
  <linearGradient id="h" x1="41.553" x2="41.553" y1="80" y2="110.605" gradientUnits="userSpaceOnUse">
    <stop offset="0" stop-color="#bbb"/>
    <stop offset="1" stop-color="#f6f6f6"/>
  </linearGradient>
  <filter id="f" width="1.063" height="1.204" x="-.031" y="-.102">
    <feGaussianBlur stdDeviation="1.359"/>
  </filter>
  <linearGradient id="e" x1="73.807" x2="73.807" y1="109.78" y2="24" gradientTransform="matrix(1 0 0 .91667 0 2)" gradientUnits="userSpaceOnUse">
    <stop offset="0" stop-color="#0057ae"/>
    <stop offset="1" stop-color="#a4c0e4" stop-opacity=".942"/>
  </linearGradient>
  <filter id="d">
    <feGaussianBlur stdDeviation="1.412"/>
  </filter>
  <filter id="g" width="1.078" height="1.255" x="-.039" y="-.128">
    <feGaussianBlur stdDeviation="1.521"/>
  </filter>
  <linearGradient id="c" x1="-84.002" x2="-23.516" y1="-383.997" y2="-383.998" gradientTransform="rotate(90 -90 50.002)" gradientUnits="userSpaceOnUse">
    <stop offset="0" stop-color="#fff"/>
    <stop offset="1" stop-color="#fff" stop-opacity="0"/>
  </linearGradient>
  <radialGradient id="u" cx="84.357" cy="59.848" r="36.139" gradientTransform="matrix(1.09806 0 0 1.04066 -8.629 -2.282)" gradientUnits="userSpaceOnUse">
    <stop offset="0" stop-color="#2dd22d"/>
    <stop offset="1" stop-color="#008c00"/>
  </radialGradient>
  <radialGradient id="m" cx="55.059" cy="-21.915" r="40.139" gradientTransform="matrix(1.93373 0 0 1.84273 -52.44 11.745)" gradientUnits="userSpaceOnUse">
    <stop offset="0" stop-color="#0f0"/>
    <stop offset="1" stop-color="#008c00"/>
  </radialGradient>
  <radialGradient id="p" cx="80.921" cy="50.432" r="40.139" fx="78.289" fy="57.059" gradientTransform="matrix(1.09543 0 0 1.04387 -7.172 -2.083)" gradientUnits="userSpaceOnUse" xlink:href="#a"/>
  <radialGradient id="v" cx="101.009" cy="1.578" r="36.134" gradientTransform="matrix(2.16785 0 0 1.42955 -117.963 9.624)" gradientUnits="userSpaceOnUse" xlink:href="#b"/>
  <radialGradient id="o" cx="65.532" cy="49.737" r="40.139" gradientTransform="matrix(.36086 .20834 -.20074 .3477 44.95 27.72)" gradientUnits="userSpaceOnUse" xlink:href="#a"/>
  <radialGradient id="w" cx="101.009" cy="1.578" r="36.134" gradientTransform="matrix(2.16785 0 0 1.42955 -117.963 9.624)" gradientUnits="userSpaceOnUse" xlink:href="#c"/>
  <radialGradient id="y" cx="89.296" cy="53.433" r="36.639" gradientTransform="matrix(1.4513 -.38887 .14226 .53092 -47.9 59.212)" gradientUnits="userSpaceOnUse">
    <stop offset="0" stop-color="#abff00"/>
    <stop offset="1" stop-color="#7fff00" stop-opacity="0"/>
  </radialGradient>
  <filter id="l" width="1.235" height="1.602" x="-.118" y="-.301">
    <feGaussianBlur stdDeviation=".938"/>
  </filter>
  <linearGradient id="z" x1="33.904" x2="59.474" y1="24.38" y2="57.211" gradientUnits="userSpaceOnUse" xlink:href="#b"/>
  <radialGradient id="k" cx="52.779" cy="77.091" r="9.558" gradientTransform="matrix(1.30625 0 0 .51114 -16.164 37.687)" gradientUnits="userSpaceOnUse">
    <stop offset="0"/>
    <stop offset="1" stop-opacity="0"/>
  </radialGradient>
  <filter id="j" width="1.143" height="1.365" x="-.071" y="-.182">
    <feGaussianBlur stdDeviation=".568"/>
  </filter>
  <radialGradient id="n" cx="54.868" cy="26.874" r="40.139" fx="75.521" fy="28.646" gradientTransform="matrix(.57072 -.3295 .107 .18533 12.58 41.011)" gradientUnits="userSpaceOnUse" xlink:href="#c"/>
  <filter id="i">
    <feGaussianBlur stdDeviation=".392"/>
  </filter>
  <filter id="x">
    <feGaussianBlur stdDeviation=".357"/>
  </filter>
  <radialGradient id="q" cx="79.5" cy="7.618" r="3.5" gradientTransform="matrix(1.16222 -.67101 1.47968 2.56288 -24.17 40.945)" gradientUnits="userSpaceOnUse" xlink:href="#c"/>
  <filter id="r" width="1.443" height="1.318" x="-.221" y="-.159">
    <feGaussianBlur stdDeviation=".646"/>
  </filter>
  <radialGradient id="s" cx="111" cy="34.141" r="5" gradientTransform="matrix(.99735 -.07273 .02159 .29609 -.443 32.105)" gradientUnits="userSpaceOnUse" xlink:href="#c"/>
  <filter id="t" width="1.151" height="1.509" x="-.075" y="-.254">
    <feGaussianBlur stdDeviation=".315"/>
  </filter>
  <g fill-rule="evenodd">
    <path stroke="#000" stroke-linecap="round" stroke-linejoin="round" stroke-width="8.1" d="M27.12 82.451L16.058 111.55h95.886l-11.065-29.1H27.121z" filter="url(#d)" opacity=".433"/>
    <path fill="url(#e)" d="M12 79l16-55h72l16 55v3.667L112 112H16l-4-29.333z"/>
    <path fill="#a4c0e4" d="M112 112h-4L96 48l2-20 14 52z" opacity=".271"/>
    <path fill="#00316e" d="M16 112h4l12-64-2-20-14 52z" opacity=".364"/>
    <path fill="#e9e9e9" d="M12 80l16-56h72l16 56h-4L98 28H30L16 80z"/>
    <path fill="#00285b" d="M32 48h64l2-20H30z" opacity=".492"/>
    <path d="M12 89l4 32h96l4-32h-16l-16 16H44L28 89z" filter="url(#f)" transform="matrix(.9844 0 0 1 .999 -8)"/>
    <path d="M17.477 78.185l3.579 28.63h85.888l3.579-28.63H96.208L81.893 92.5H46.107L31.792 78.185z" filter="url(#g)" opacity=".754" transform="translate(-3.174 -7.378) scale(1.0496)"/>
    <path fill="#e9e9e9" d="M12 76v4l52 28 52-28v-4h-16L84 92H44L28 76z"/>
    <path fill="url(#h)" d="M12 80l4 32h96l4-32h-16L84 96H44L28 80z"/>
    <path fill="#a5a5a5" d="M28 80v-4l16 16v4z"/>
    <path fill="#008c00" stroke="#008c00" stroke-linecap="round" stroke-linejoin="round" stroke-width="8" d="M80 8v16.125c-14.398.75-58.426 6.603-32 52.375h4C33.728 44.853 62.561 43.964 80 44v16l32-26z" filter="url(#i)" transform="translate(8)"/>
  </g>
  <path d="M62.338 77.09a9.558 3.74 0 1 1-19.117 0 9.558 3.74 0 1 1 19.117 0z" filter="url(#j)" opacity=".323" transform="matrix(.72486 0 0 .84201 19.82 13.426)"/>
  <path fill="url(#k)" d="M62.338 77.09a9.558 3.74 0 1 1-19.117 0 9.558 3.74 0 1 1 19.117 0z" filter="url(#l)" opacity=".484" transform="matrix(1.50951 0 0 1.78993 -21.593 -59.65)"/>
  <path fill="none" stroke="url(#m)" stroke-linecap="round" stroke-linejoin="round" stroke-width="8" d="M80 8v16.125c-14.398.75-58.426 6.603-32 52.375h4C33.728 44.853 62.561 43.964 80 44v16l32-26z" transform="translate(8)"/>
  <path fill="none" stroke="url(#n)" stroke-linecap="round" stroke-linejoin="round" stroke-width="8" d="M80.375 8.781v15.344a.373.373 0 0 1-.344.375c-7.168.373-21.746 2.036-31.125 9.219-4.69 3.591-8.092 8.546-8.718 15.437-.624 6.853 1.533 15.659 8.03 26.969h3.188c-4.334-7.66-5.968-13.559-5.562-18.094.416-4.65 2.936-7.838 6.562-9.968 7.252-4.26 18.868-4.456 27.594-4.438a.373.373 0 0 1 .375.375v15.219L111.406 34z" transform="translate(8)"/>
  <path fill="none" stroke="url(#o)" stroke-linecap="round" stroke-linejoin="round" stroke-width="8" d="M80 8v16.125c-14.398.75-58.426 6.603-32 52.375h4C33.728 44.853 62.561 43.964 80 44v16l32-26z" transform="translate(8)"/>
  <path fill="none" stroke="url(#p)" stroke-linecap="round" stroke-linejoin="round" stroke-width="8" d="M80 8v16.125c-14.398.75-58.426 6.603-32 52.375h4C33.728 44.853 62.561 43.964 80 44v16l32-26z" opacity=".507" transform="translate(8)"/>
  <g fill-rule="evenodd">
    <path fill="url(#q)" d="M79.938 4A4 4 0 0 0 76 8v.719l7 5.031-1.906-9.594A3.956 3.956 0 0 0 79.938 4z" filter="url(#r)" transform="translate(8)"/>
    <path fill="url(#s)" d="M115.63 32.315l-9.663 1.55 9.785 1.417a4.01 4.01 0 0 0 .225-1.645 3.968 3.968 0 0 0-.348-1.322z" filter="url(#t)" transform="translate(8)"/>
    <path fill="url(#q)" d="M79.938 4A4 4 0 0 0 76 8v.719l7 5.031-1.906-9.594A3.956 3.956 0 0 0 79.938 4z" filter="url(#r)" opacity=".471" transform="matrix(1 0 0 -1 8 67.75)"/>
  </g>
  <path fill="url(#u)" fill-rule="evenodd" d="M80 8v16.125c-14.398.75-58.426 6.603-32 52.375h4C33.728 44.853 62.561 43.964 80 44v16l32-26z" transform="translate(8)"/>
  <path fill="url(#v)" fill-rule="evenodd" d="M80 8v16.125c-11.836.616-43.685 4.677-39.969 31.531C40.948 42.794 62.981 32.5 90 32.5c7.541 0 14.68.813 21.094 2.25L112 34z" transform="translate(8)"/>
  <path fill="url(#w)" fill-rule="evenodd" d="M90 31.75c-27.018 0-49.052 9.968-49.969 22.438a28.803 28.803 0 0 1-.281-3.563c-.049 1.58.036 3.257.281 5.031C40.948 42.794 62.981 32.5 90 32.5c7.541 0 14.68.813 21.094 2.25L112 34l-.5-.406-.406.343C104.68 32.544 97.54 31.75 90 31.75z" transform="translate(8)"/>
  <path fill="url(#w)" fill-rule="evenodd" d="M80 8v16.125c-11.836.616-43.685 4.677-39.969 31.531.04-.56.132-1.106.25-1.656-2.328-24.49 28.516-28.263 40.125-28.844v-15.5l31.375 24.532L112 34z" transform="translate(8)"/>
  <path fill="none" stroke="url(#y)" d="M80 8v16.125c-14.398.75-58.426 6.603-32 52.375h4C33.728 44.853 62.561 43.964 80 44v16l32-26z" filter="url(#x)" transform="translate(8)"/>
  <path fill="url(#z)" fill-rule="evenodd" d="M80 8v16.125c-14.398.75-58.426 6.603-32 52.375h1.5c-26.426-45.772 17.602-51.626 32-52.375V9.219zm0 36v16l1.5-1.219V44z" transform="translate(8)"/>
</svg>
