<?xml version="1.0" encoding="UTF-8" standalone="no"?>
<svg xmlns="http://www.w3.org/2000/svg" xmlns:xlink="http://www.w3.org/1999/xlink" width="128" height="128">
  <defs>
    <path id="x" d="M236.75-2.96c0 8.972-14.338 16.254-32.002 16.254-17.572 0-31.849-7.206-31.997-16.113l.126 6.465c0 8.971 14.211 16.254 31.875 16.254s31.87-7.283 31.87-16.254l.127-6.606z" clip-path="url(#a)" filter="url(#b)"/>
    <path id="aa" fill="url(#c)" d="M134.39 526.23c-.286 2.46-.469 4.94-.469 7.437 10.364 61.48 113.231 122.548 252.688 120.125 140.899-2.447 242.96-57.026 252.656-118.57.389-2.468-.151-4.977-.437-7.438-7.709 66.281-117.735 122.793-252.22 122.793-134.483 0-244.51-58.066-252.218-124.347z" filter="url(#d)"/>
    <path id="ab" fill="url(#e)" d="M1050.313 441.16c-.287 2.462-.47 4.941-.47 7.438 0 69.74 113.21 126.344 252.688 126.344 139.479 0 252.657-56.605 252.657-126.344 0-2.497-.152-4.976-.438-7.437-7.708 66.28-117.734 124.906-252.219 124.906-134.484 0-244.51-58.625-252.219-124.906z" filter="url(#f)" opacity=".506"/>
    <path id="ac" fill="url(#g)" d="M162.531 21.443c-17.664 0-32 8.23-32 17.982 0 .168.023.333.032.5.482-9.52 14.609-17.482 31.968-17.482 17.36 0 31.486 7.962 31.969 17.482.008-.167.031-.331.031-.5 0-9.753-14.336-17.982-32-17.982z" clip-path="url(#h)" filter="url(#i)"/>
    <path id="ad" fill="url(#j)" d="M205-30.625c-12.427 0-26.05 4.054-29.65 10.665-1.748 3.21 4.279 7.868 11.463 7.21 15.587-2.332 32.323-5.26 47.218-8.031-.007-.019.007-.044 0-.063-2.337-5.876-17.054-9.781-29.031-9.781z" filter="url(#k)"/>
    <path id="ae" fill="#fff" d="M236.75 26.665c0 8.972-14.338 16.254-32.002 16.254-17.572 0-31.849-7.206-31.997-16.113l.126 6.465c0 8.971 14.211 16.254 31.875 16.254s31.87-7.283 31.87-16.254l.127-6.606z" clip-path="url(#l)" filter="url(#m)" opacity=".66"/>
    <path id="af" fill="url(#c)" d="M134.39 526.23c-.286 2.46-.469 4.94-.469 7.437 10.364 61.48 113.217 121.532 252.688 120.125 137.136-1.383 235.201-53.214 252.656-118.57.645-2.415-.151-4.977-.437-7.438-7.709 66.281-117.735 122.793-252.22 122.793-134.483 0-244.51-58.066-252.218-124.347z" filter="url(#n)"/>
    <path id="ah" fill="url(#o)" d="M227.506-9.68c1.62 5.192-8.056 9.739-22.692 9.739-15.344 0-24.85-4.692-22.693-9.74 2.813-6.584 12.98-9.74 22.693-9.74 9.36 0 20.865 3.888 22.692 9.74z"/>
    <path id="ai" fill="url(#p)" d="M594.21 637.248c0 69.775-113.128 126.34-252.678 126.34S88.854 707.022 88.854 637.247 201.982 510.91 341.532 510.91 594.21 567.473 594.21 637.25z"/>
    <path id="aj" fill="url(#q)" d="M236.75-14.96c0 8.972-14.338 16.254-32.002 16.254-17.572 0-31.849-7.206-31.997-16.113l.126 6.465c0 8.971 14.211 16.254 31.875 16.254s31.87-7.283 31.87-16.254l.127-6.606z"/>
  </defs>
  <filter id="y">
    <feGaussianBlur stdDeviation=".447"/>
  </filter>
  <filter id="b">
    <feGaussianBlur stdDeviation=".804"/>
  </filter>
  <filter id="n">
    <feGaussianBlur stdDeviation="1.575"/>
  </filter>
  <filter id="d">
    <feGaussianBlur stdDeviation=".63"/>
  </filter>
  <filter id="k">
    <feGaussianBlur stdDeviation=".058"/>
  </filter>
  <clipPath id="l">
    <path d="M236.75 21.04c0 8.972-14.338 16.254-32.002 16.254-17.572 0-31.849-7.206-31.997-16.113l.126 6.465c0 8.971 14.211 16.254 31.875 16.254s31.87-7.283 31.87-16.254l.127-6.606z"/>
  </clipPath>
  <filter id="m" width="1.107" height="1.3" x="-.054" y="-.15">
    <feGaussianBlur stdDeviation="1.43"/>
  </filter>
  <clipPath id="a">
    <path d="M236.75 2.29c0 8.972-14.338 16.254-32.002 16.254-17.572 0-31.849-7.206-31.997-16.113l.126 6.465c0 8.971 14.211 16.254 31.875 16.254s31.87-7.283 31.87-16.254l.127-6.606z"/>
  </clipPath>
  <filter id="ag">
    <feGaussianBlur stdDeviation=".268"/>
  </filter>
  <filter id="i">
    <feGaussianBlur stdDeviation=".338"/>
  </filter>
  <linearGradient id="s">
    <stop offset="0" stop-color="#a7a7a7"/>
    <stop offset=".287" stop-color="#b7b7b7"/>
    <stop offset=".358" stop-color="#f2f2f2"/>
    <stop offset=".691" stop-color="#858585"/>
    <stop offset=".767" stop-color="#8f8f8f"/>
    <stop offset=".849" stop-color="#a4a4a4"/>
    <stop offset=".884" stop-color="#757575"/>
    <stop offset=".913" stop-color="#989898"/>
    <stop offset="1" stop-color="#acacac"/>
  </linearGradient>
  <linearGradient id="r">
    <stop offset="0" stop-color="#fff"/>
    <stop offset="1" stop-color="#fff" stop-opacity="0"/>
  </linearGradient>
  <filter id="f" color-interpolation-filters="sRGB">
    <feGaussianBlur stdDeviation="4.717"/>
  </filter>
  <clipPath id="h">
    <path d="M594.21 637.248a252.678 126.339 0 1 1-505.356 0 252.678 126.339 0 1 1 505.356 0z" transform="matrix(.12664 0 0 .13985 119.286 -49.15)"/>
  </clipPath>
  <linearGradient id="t">
    <stop offset="0"/>
    <stop offset="1" stop-opacity="0"/>
  </linearGradient>
  <radialGradient xlink:href="#r" id="o" cx="949.332" cy="517.87" r="119.397" fx="941.931" fy="440.161" gradientTransform="matrix(.21653 .0083 -.0066 .12698 2.616 -83.322)" gradientUnits="userSpaceOnUse"/>
  <linearGradient id="p" x1="341.532" x2="341.532" y1="452.763" y2="668.313" gradientUnits="userSpaceOnUse" spreadMethod="reflect">
    <stop offset="0" stop-color="#d3d3d3"/>
    <stop offset=".262" stop-color="#e4e4e4"/>
    <stop offset=".631" stop-color="#dfdfdf"/>
    <stop offset="1" stop-color="silver"/>
  </linearGradient>
  <radialGradient xlink:href="#s" id="q" cx="902.44" cy="521.147" r="252.672" fy="725.485" gradientTransform="matrix(.12657 .00418 -.0035 .10581 92.347 -74.637)" gradientUnits="userSpaceOnUse"/>
  <radialGradient xlink:href="#r" id="c" cx="1304.426" cy="438.305" r="252.672" gradientTransform="matrix(1.46155 0 0 .79222 -1517.098 316.296)" gradientUnits="userSpaceOnUse"/>
  <linearGradient id="e" x1="1228.482" x2="1228.482" y1="349.261" y2="687.31" gradientUnits="userSpaceOnUse">
    <stop offset="0" stop-color="#474747"/>
    <stop offset="1" stop-color="#474747" stop-opacity="0"/>
  </linearGradient>
  <linearGradient xlink:href="#t" id="ak" x1="154.031" x2="154.031" y1="21.775" y2="47.891" gradientUnits="userSpaceOnUse"/>
  <radialGradient xlink:href="#r" id="j" cx="921.025" cy="489.461" r="119.397" fx="924.295" fy="456.948" gradientTransform="matrix(.4203 0 -.0052 .1936 -191.396 -121.096)" gradientUnits="userSpaceOnUse"/>
  <linearGradient xlink:href="#t" id="g" x1="154.539" x2="154.031" y1="13.391" y2="47.891" gradientUnits="userSpaceOnUse"/>
  <mask id="z" maskUnits="userSpaceOnUse">
    <path fill="#fff" d="M28 1032.362h68v15H28z" filter="url(#u)"/>
  </mask>
  <filter id="u" width="1.098" height="1.456" x="-.049" y="-.228">
    <feGaussianBlur stdDeviation="1.425"/>
  </filter>
  <filter id="G" width="1.044" height="1.519" x="-.022" y="-.259">
    <feGaussianBlur stdDeviation=".202"/>
  </filter>
  <filter id="T" width="1.019" height="1.593" x="-.009" y="-.296" color-interpolation-filters="sRGB">
    <feGaussianBlur stdDeviation=".146"/>
  </filter>
  <filter id="R" width="1.02" height="1.23" x="-.01" y="-.115" color-interpolation-filters="sRGB">
    <feGaussianBlur stdDeviation=".154"/>
  </filter>
  <linearGradient id="v" x1="21" x2="107" y1="70.875" y2="70.875" gradientUnits="userSpaceOnUse">
    <stop offset="0" stop-color="#2f2f2f"/>
    <stop offset=".122" stop-color="#b6b6b6"/>
    <stop offset=".279" stop-color="#f3f3f3"/>
    <stop offset=".478" stop-color="#cbcbcb"/>
    <stop offset=".657" stop-color="#fff"/>
    <stop offset=".72" stop-color="#f1f1f1"/>
    <stop offset=".839" stop-color="#bbb"/>
    <stop offset="1" stop-color="#2f2f2f"/>
  </linearGradient>
  <linearGradient id="w">
    <stop offset="0" stop-color="#1f1f1f"/>
    <stop offset="1" stop-color="#1f1f1f" stop-opacity="0"/>
  </linearGradient>
  <linearGradient xlink:href="#v" id="A" x1="38.357" x2="48.093" y1="86.917" y2="86.917" gradientTransform="matrix(.72078 0 0 .0628 -1070.013 -31.847)" gradientUnits="userSpaceOnUse"/>
  <linearGradient xlink:href="#w" id="B" x1="46.449" x2="47.911" y1="132.179" y2="114.824" gradientTransform="matrix(.87424 0 0 .56484 5.914 971.68)" gradientUnits="userSpaceOnUse"/>
  <linearGradient xlink:href="#r" id="C" x1="46.053" x2="78.561" y1="114.455" y2="114.455" gradientTransform="matrix(.68428 0 0 .46013 -7.513 985.146)" gradientUnits="userSpaceOnUse"/>
  <linearGradient xlink:href="#w" id="D" x1="49.834" x2="46.901" y1="119.694" y2="119.694" gradientTransform="matrix(.87424 0 0 .56484 8.015 971.227)" gradientUnits="userSpaceOnUse"/>
  <linearGradient xlink:href="#v" id="E" x1="38.357" x2="48.093" y1="86.917" y2="86.917" gradientTransform="matrix(.72078 0 0 .0628 -1070.013 -77.612)" gradientUnits="userSpaceOnUse"/>
  <linearGradient xlink:href="#r" id="F" x1="46.053" x2="78.561" y1="114.455" y2="114.455" gradientTransform="matrix(.68428 0 0 .46013 46.18 985.146)" gradientUnits="userSpaceOnUse"/>
  <linearGradient xlink:href="#t" id="H" x1="-112.721" x2="-112.721" y1="-110.766" y2="-105.821" gradientTransform="matrix(.56484 0 0 .87424 -971.68 -6.032)" gradientUnits="userSpaceOnUse"/>
  <linearGradient xlink:href="#r" id="I" x1="-120.916" x2="-121.064" y1="-116.705" y2="-111.317" gradientTransform="matrix(.56484 0 0 .87424 -971.227 .206)" gradientUnits="userSpaceOnUse"/>
  <linearGradient id="J" x1="-117.585" x2="-117.585" y1="-13.914" y2="-16.793" gradientTransform="matrix(.56484 0 0 .87424 -971.227 -10.285)" gradientUnits="userSpaceOnUse">
    <stop offset="0" stop-color="#2b2b2b"/>
    <stop offset="1" stop-color="#2b2b2b" stop-opacity="0"/>
  </linearGradient>
  <linearGradient xlink:href="#v" id="K" x1="38.81" x2="47.566" y1="86.917" y2="86.917" gradientTransform="matrix(.68518 0 0 .03146 266.494 -117.766)" gradientUnits="userSpaceOnUse"/>
  <linearGradient xlink:href="#r" id="L" x1="46.053" x2="78.561" y1="114.455" y2="114.455" gradientTransform="matrix(.37991 0 0 .31595 98.473 -330.213)" gradientUnits="userSpaceOnUse"/>
  <linearGradient id="M" x1="38.357" x2="48.093" y1="86.917" y2="86.917" gradientTransform="matrix(1.25568 0 0 .04994 -184.478 -290.57)" gradientUnits="userSpaceOnUse">
    <stop offset="0" stop-color="#303030"/>
    <stop offset=".19" stop-color="#7e7e7e"/>
    <stop offset=".38" stop-color="#9e9e9e"/>
    <stop offset=".759" stop-color="#dedede"/>
    <stop offset=".934" stop-color="#8d8d8d"/>
    <stop offset="1" stop-color="#2f2f2f"/>
  </linearGradient>
  <linearGradient xlink:href="#r" id="N" x1="-116.854" x2="-116.78" y1="-83.868" y2="-80.228" gradientTransform="matrix(.71711 0 0 .69522 -44.472 -250.922)" gradientUnits="userSpaceOnUse"/>
  <radialGradient id="O" cx="64.71" cy="105.817" r="12.247" gradientTransform="matrix(1.02188 -.00638 .00175 .29878 229.638 93.895)" gradientUnits="userSpaceOnUse">
    <stop offset="0" stop-color="#87b7ff" stop-opacity="0"/>
    <stop offset=".404" stop-color="#87b7ff" stop-opacity="0"/>
    <stop offset=".404" stop-color="#87b7ff" stop-opacity=".498"/>
    <stop offset="1" stop-color="#87b7ff" stop-opacity="0"/>
  </radialGradient>
  <linearGradient xlink:href="#t" id="P" x1="297.317" x2="299.445" y1="-109.588" y2="-119.885" gradientUnits="userSpaceOnUse"/>
  <linearGradient xlink:href="#r" id="Q" x1="46.053" x2="78.561" y1="114.455" y2="114.455" gradientTransform="matrix(1.16573 0 0 .79167 -7.513 23.014)" gradientUnits="userSpaceOnUse"/>
  <linearGradient xlink:href="#r" id="S" x1="46.053" x2="78.561" y1="114.455" y2="114.455" gradientTransform="matrix(1.16573 0 0 .29167 -7.513 90.061)" gradientUnits="userSpaceOnUse"/>
  <linearGradient xlink:href="#t" id="U" x1="51" x2="53" y1="1038.862" y2="1038.862" gradientTransform="matrix(.5 0 0 1 261.585 -908.505)" gradientUnits="userSpaceOnUse"/>
  <linearGradient xlink:href="#v" id="V" x1="285.882" x2="287.398" y1="130.358" y2="130.358" gradientUnits="userSpaceOnUse"/>
  <linearGradient xlink:href="#t" id="W" x1="51" x2="53" y1="1038.862" y2="1038.862" gradientTransform="matrix(.5 0 0 1 280.585 -908.505)" gradientUnits="userSpaceOnUse"/>
  <linearGradient xlink:href="#v" id="X" x1="304.882" x2="306.398" y1="130.358" y2="130.358" gradientUnits="userSpaceOnUse"/>
  <radialGradient xlink:href="#s" id="Z" cx="902.44" cy="521.147" r="252.672" fy="725.485" gradientTransform="matrix(.2001 .00662 -.00553 .16728 -113.19 -22.704)" gradientUnits="userSpaceOnUse"/>
  <radialGradient xlink:href="#r" id="Y" cx="949.332" cy="517.87" r="119.397" fx="941.931" fy="440.161" gradientTransform="matrix(.3423 .01312 -.01044 .20075 -255.047 -36.433)" gradientUnits="userSpaceOnUse"/>
  <use xlink:href="#x" clip-path="url(#a)" filter="url(#b)" transform="translate(-259.183 76.952) scale(1.5809)"/>
  <use xlink:href="#x" clip-path="url(#a)" filter="url(#y)" opacity=".87" transform="translate(-259.183 76.952) scale(1.5809)"/>
  <g transform="translate(-231.044 -8.823)">
    <g mask="url(#z)" transform="translate(234.085 -908.505)">
      <rect width="7.017" height="30.267" x="-1042.366" y="-54.235" fill="url(#A)" rx=".534" ry=".853" transform="matrix(0 -1 -1 0 0 0)"/>
      <path fill="url(#B)" d="M45.67 1035.354c-.753 3.136-2.99 5.704-7.868 7.008h10.982c.642 0 1.175-.326 1.175-.741v-5.525c0-.415-.533-.742-1.175-.742z" opacity=".275"/>
      <path fill="url(#C)" d="M24 1036.362h22v2H24z"/>
      <rect width="1.177" height="7.016" x="49.018" y="1035.328" fill="url(#D)" rx="9.598" ry="0"/>
      <rect width="7.017" height="30.267" x="-1042.366" y="-100" fill="url(#E)" rx=".708" ry="1.099" transform="matrix(0 -1 -1 0 0 0)"/>
      <rect width="25.938" height="2.18" x="74" y="1036.566" fill="url(#F)" filter="url(#G)" rx="1.09"/>
      <rect width="7.017" height="5.148" x="-1042.366" y="-100" fill="url(#H)" rx=".708" ry="1.099" transform="matrix(0 -1 -1 0 0 0)"/>
      <rect width="6.476" height="2.738" x="-1042.028" y="-99.581" fill="url(#I)" rx=".544" ry=".857" transform="matrix(0 -1 -1 0 0 0)"/>
      <rect width="7.017" height="6.299" x="-1042.366" y="-30.267" fill="url(#J)" rx=".726" ry="1.159" transform="matrix(0 -1 -1 0 0 0)"/>
    </g>
    <rect width="6" height="15" x="293.085" y="-128.858" fill="url(#K)" rx=".694" ry=".046" transform="scale(1 -1)"/>
    <path fill="url(#L)" d="M115.969-294.693h12.35v1.284h-12.35z" transform="rotate(90)"/>
    <rect width="11" height="24" x="-135.858" y="-308.085" fill="url(#M)" rx="1.233" ry="1.169" transform="matrix(0 -1 -1 0 0 0)"/>
    <rect width="11.926" height="2.86" x="-136.194" y="-308.139" fill="url(#N)" rx="1.233" ry="1.087" transform="matrix(0 -1 -1 0 0 0)"/>
    <path fill="url(#O)" d="M288.811 124.895c-.391.441-.608.924-.608 1.434 0 2.038 3.483 3.697 7.756 3.697s7.734-1.66 7.734-3.697c0-.51-.216-.993-.608-1.434z" opacity=".361"/>
    <rect width="6" height="15" x="293.085" y="-128.858" fill="url(#P)" rx=".694" ry=".046" transform="scale(1 -1)"/>
    <path fill="url(#Q)" d="M45.815 112.142h38.253v3.091H45.815z" filter="url(#R)" transform="matrix(.6324 0 0 .65232 255.111 52.705)"/>
    <path fill="url(#S)" d="M46.173 122.851h37.895v1.185H46.173z" filter="url(#T)" opacity=".318" transform="matrix(.6218 0 0 .65232 255.494 52.946)"/>
    <path fill="url(#U)" d="M287.085 125.858h1v10h-1z" opacity=".446"/>
    <rect width="1" height="11" x="286.085" y="124.858" fill="url(#V)" opacity=".537" rx=".5"/>
    <path fill="url(#W)" d="M306.085 125.858h1v10h-1z" opacity=".446"/>
    <rect width="1" height="11" x="305.085" y="124.858" fill="url(#X)" opacity=".537" rx=".5"/>
    <path fill="#282828" fill-opacity=".64" d="M293.085 114.515h6v3.342h-6z"/>
  </g>
  <path fill="url(#Y)" d="M100.482 79.987c2.563 8.21-12.736 15.397-35.874 15.397-24.257 0-39.284-7.418-35.875-15.397 4.448-10.409 20.52-15.398 35.875-15.398 14.799 0 32.986 6.146 35.874 15.398z"/>
  <path fill="url(#p)" d="M594.21 637.248a252.678 126.339 0 1 1-505.356 0 252.678 126.339 0 1 1 505.356 0z" transform="matrix(.20021 0 0 .20338 -3.871 -57.963)"/>
  <path fill="url(#Z)" d="M115.095 71.64c0 14.185-22.666 25.697-50.591 25.697-27.78 0-50.35-11.392-50.585-25.474l.2 10.22c0 14.184 22.466 25.696 50.391 25.696s50.385-11.512 50.385-25.696l.2-10.442z"/>
  <use xlink:href="#aa" filter="url(#d)" transform="matrix(.20021 0 0 .20338 -12.893 -34.863)"/>
  <use xlink:href="#ab" filter="url(#f)" opacity=".506" transform="matrix(.19606 0 0 .19916 -190.859 -18.551)"/>
  <use xlink:href="#ac" clip-path="url(#h)" filter="url(#i)" transform="matrix(1.5809 0 0 1.4543 -192.449 13.504)"/>
  <use xlink:href="#ad" filter="url(#k)" transform="translate(-259.183 95.29) scale(1.5809)"/>
  <use xlink:href="#ae" clip-path="url(#l)" filter="url(#m)" opacity=".66" transform="translate(-259.183 38.3) scale(1.5809)"/>
  <use xlink:href="#af" filter="url(#n)" transform="matrix(.20021 0 0 .20338 -12.893 -34.863)"/>
  <use xlink:href="#x" clip-path="url(#a)" filter="url(#ag)" transform="matrix(1.5809 0 0 1.56867 -259.183 63.523)"/>
  <use xlink:href="#ah" transform="matrix(1.5809 0 0 1.56867 -259.183 81.72)"/>
  <use xlink:href="#ai" transform="matrix(.20021 0 0 .2018 -3.871 -70.347)"/>
  <use xlink:href="#aj" transform="matrix(1.5809 0 0 1.56867 -259.183 81.72)"/>
  <use xlink:href="#aa" filter="url(#d)" transform="matrix(.20021 0 0 .2018 -12.893 -47.426)"/>
  <use xlink:href="#ab" filter="url(#f)" opacity=".506" transform="matrix(.19606 0 0 .19762 -190.859 -31.241)"/>
  <use xlink:href="#ac" clip-path="url(#h)" filter="url(#i)" transform="matrix(1.5809 0 0 1.44305 -192.449 .566)"/>
  <use xlink:href="#ad" filter="url(#k)" transform="matrix(1.5809 0 0 1.56867 -259.183 81.72)"/>
  <use xlink:href="#ae" clip-path="url(#l)" filter="url(#m)" opacity=".66" transform="matrix(1.5809 0 0 1.56867 -259.183 25.17)"/>
  <use xlink:href="#af" filter="url(#n)" transform="matrix(.20021 0 0 .2018 -12.893 -47.426)"/>
  <use xlink:href="#x" clip-path="url(#a)" filter="url(#ag)" transform="matrix(1.5809 0 0 1.55424 -259.183 50.33)"/>
  <use xlink:href="#ah" transform="matrix(1.5809 0 0 1.55424 -259.183 68.36)"/>
  <use xlink:href="#ai" transform="matrix(.20021 0 0 .19995 -3.871 -82.31)"/>
  <use xlink:href="#aj" transform="matrix(1.5809 0 0 1.55424 -259.183 68.36)"/>
  <use xlink:href="#aa" filter="url(#d)" transform="matrix(.20021 0 0 .19995 -12.893 -59.6)"/>
  <use xlink:href="#ab" filter="url(#f)" opacity=".506" transform="matrix(.19606 0 0 .1958 -190.859 -43.563)"/>
  <use xlink:href="#ac" clip-path="url(#h)" filter="url(#i)" transform="matrix(1.5809 0 0 1.42978 -192.449 -12.048)"/>
  <use xlink:href="#ad" filter="url(#k)" transform="matrix(1.5809 0 0 1.55424 -259.183 68.36)"/>
  <use xlink:href="#ae" clip-path="url(#l)" filter="url(#m)" opacity=".66" transform="matrix(1.5809 0 0 1.55424 -259.183 12.329)"/>
  <use xlink:href="#af" filter="url(#n)" transform="matrix(.20021 0 0 .19995 -12.893 -59.6)"/>
  <use xlink:href="#x" clip-path="url(#a)" filter="url(#ag)" transform="matrix(1.5809 0 0 1.51022 -259.183 37.829)"/>
  <use xlink:href="#ah" transform="matrix(1.5809 0 0 1.51022 -259.183 55.347)"/>
  <use xlink:href="#ai" transform="matrix(.20021 0 0 .19429 -3.871 -91.054)"/>
  <use xlink:href="#aj" transform="matrix(1.5809 0 0 1.51022 -259.183 55.347)"/>
  <use xlink:href="#aa" filter="url(#d)" transform="matrix(.20021 0 0 .19429 -12.893 -68.987)"/>
  <use xlink:href="#ab" filter="url(#f)" opacity=".506" transform="matrix(.19606 0 0 .19026 -190.859 -53.405)"/>
  <path fill="url(#ak)" d="M162.531 21.443c-17.664 0-32 8.23-32 17.982 0 .168.023.333.032.5.482-9.52 14.609-17.482 31.968-17.482 17.36 0 31.486 7.962 31.969 17.482.008-.167.031-.331.031-.5 0-9.753-14.336-17.982-32-17.982z" clip-path="url(#h)" filter="url(#i)" transform="matrix(1.5809 0 0 1.38928 -192.449 -22.782)"/>
  <use xlink:href="#ad" filter="url(#k)" transform="matrix(1.5809 0 0 1.51022 -259.183 55.347)"/>
  <use xlink:href="#ae" clip-path="url(#l)" filter="url(#m)" opacity=".66" transform="matrix(1.5809 0 0 1.51022 -259.183 .904)"/>
  <use xlink:href="#af" filter="url(#n)" transform="matrix(.20021 0 0 .19429 -12.893 -68.987)"/>
</svg>