<?xml version="1.0" encoding="UTF-8" standalone="no"?>
<svg xmlns="http://www.w3.org/2000/svg" xmlns:xlink="http://www.w3.org/1999/xlink" width="128" height="128">
  <defs>
    <path id="u" d="M236.75-2.96c0 8.972-14.338 16.254-32.002 16.254-17.572 0-31.849-7.206-31.997-16.113l.126 6.465c0 8.971 14.211 16.254 31.875 16.254s31.87-7.283 31.87-16.254l.127-6.606z" clip-path="url(#a)" filter="url(#b)"/>
    <path id="y" fill="url(#c)" d="M134.39 526.23c-.286 2.46-.469 4.94-.469 7.437 10.364 61.48 113.231 122.548 252.688 120.125 140.899-2.447 242.96-57.026 252.656-118.57.389-2.468-.151-4.977-.437-7.438-7.709 66.281-117.735 122.793-252.22 122.793-134.483 0-244.51-58.066-252.218-124.347z" filter="url(#d)"/>
    <path id="z" fill="url(#e)" d="M1050.313 441.16c-.287 2.462-.47 4.941-.47 7.438 0 69.74 113.21 126.344 252.688 126.344 139.479 0 252.657-56.605 252.657-126.344 0-2.497-.152-4.976-.438-7.437-7.708 66.28-117.734 124.906-252.219 124.906-134.484 0-244.51-58.625-252.219-124.906z" filter="url(#f)" opacity=".506"/>
    <path id="A" fill="url(#g)" d="M162.531 21.443c-17.664 0-32 8.23-32 17.982 0 .168.023.333.032.5.482-9.52 14.609-17.482 31.968-17.482 17.36 0 31.486 7.962 31.969 17.482.008-.167.031-.331.031-.5 0-9.753-14.336-17.982-32-17.982z" clip-path="url(#h)" filter="url(#i)"/>
    <path id="B" fill="url(#j)" d="M205-30.625c-12.427 0-26.05 4.054-29.65 10.665-1.748 3.21 4.279 7.868 11.463 7.21 15.587-2.332 32.323-5.26 47.218-8.031-.007-.019.007-.044 0-.063-2.337-5.876-17.054-9.781-29.031-9.781z" filter="url(#k)"/>
    <path id="C" fill="#fff" d="M236.75 26.665c0 8.972-14.338 16.254-32.002 16.254-17.572 0-31.849-7.206-31.997-16.113l.126 6.465c0 8.971 14.211 16.254 31.875 16.254s31.87-7.283 31.87-16.254l.127-6.606z" clip-path="url(#l)" filter="url(#m)" opacity=".66"/>
    <path id="D" fill="url(#c)" d="M134.39 526.23c-.286 2.46-.469 4.94-.469 7.437 10.364 61.48 113.217 121.532 252.688 120.125 137.136-1.383 235.201-53.214 252.656-118.57.645-2.415-.151-4.977-.437-7.438-7.709 66.281-117.735 122.793-252.22 122.793-134.483 0-244.51-58.066-252.218-124.347z" filter="url(#n)"/>
    <path id="F" fill="url(#o)" d="M227.506-9.68c1.62 5.192-8.056 9.739-22.692 9.739-15.344 0-24.85-4.692-22.693-9.74 2.813-6.584 12.98-9.74 22.693-9.74 9.36 0 20.865 3.888 22.692 9.74z"/>
    <path id="G" fill="url(#p)" d="M594.21 637.248c0 69.775-113.128 126.34-252.678 126.34S88.854 707.022 88.854 637.247 201.982 510.91 341.532 510.91 594.21 567.473 594.21 637.25z"/>
    <path id="H" fill="url(#q)" d="M236.75-14.96c0 8.972-14.338 16.254-32.002 16.254-17.572 0-31.849-7.206-31.997-16.113l.126 6.465c0 8.971 14.211 16.254 31.875 16.254s31.87-7.283 31.87-16.254l.127-6.606z"/>
  </defs>
  <filter id="v">
    <feGaussianBlur stdDeviation=".447"/>
  </filter>
  <filter id="b">
    <feGaussianBlur stdDeviation=".804"/>
  </filter>
  <filter id="n">
    <feGaussianBlur stdDeviation="1.575"/>
  </filter>
  <filter id="d">
    <feGaussianBlur stdDeviation=".63"/>
  </filter>
  <filter id="k">
    <feGaussianBlur stdDeviation=".058"/>
  </filter>
  <clipPath id="l">
    <path d="M236.75 21.04c0 8.972-14.338 16.254-32.002 16.254-17.572 0-31.849-7.206-31.997-16.113l.126 6.465c0 8.971 14.211 16.254 31.875 16.254s31.87-7.283 31.87-16.254l.127-6.606z"/>
  </clipPath>
  <filter id="m" width="1.107" height="1.3" x="-.054" y="-.15">
    <feGaussianBlur stdDeviation="1.43"/>
  </filter>
  <clipPath id="a">
    <path d="M236.75 2.29c0 8.972-14.338 16.254-32.002 16.254-17.572 0-31.849-7.206-31.997-16.113l.126 6.465c0 8.971 14.211 16.254 31.875 16.254s31.87-7.283 31.87-16.254l.127-6.606z"/>
  </clipPath>
  <filter id="E">
    <feGaussianBlur stdDeviation=".268"/>
  </filter>
  <filter id="i">
    <feGaussianBlur stdDeviation=".338"/>
  </filter>
  <linearGradient id="s">
    <stop offset="0" stop-color="#a7a7a7"/>
    <stop offset=".287" stop-color="#b7b7b7"/>
    <stop offset=".358" stop-color="#f2f2f2"/>
    <stop offset=".691" stop-color="#858585"/>
    <stop offset=".767" stop-color="#8f8f8f"/>
    <stop offset=".849" stop-color="#a4a4a4"/>
    <stop offset=".884" stop-color="#757575"/>
    <stop offset=".913" stop-color="#989898"/>
    <stop offset="1" stop-color="#acacac"/>
  </linearGradient>
  <linearGradient id="r">
    <stop offset="0" stop-color="#fff"/>
    <stop offset="1" stop-color="#fff" stop-opacity="0"/>
  </linearGradient>
  <filter id="f" color-interpolation-filters="sRGB">
    <feGaussianBlur stdDeviation="4.717"/>
  </filter>
  <clipPath id="h">
    <path d="M594.21 637.248a252.678 126.339 0 1 1-505.356 0 252.678 126.339 0 1 1 505.356 0z" transform="matrix(.12664 0 0 .13985 119.286 -49.15)"/>
  </clipPath>
  <linearGradient id="t">
    <stop offset="0"/>
    <stop offset="1" stop-opacity="0"/>
  </linearGradient>
  <radialGradient xlink:href="#r" id="o" cx="949.332" cy="517.87" r="119.397" fx="941.931" fy="440.161" gradientTransform="matrix(.21653 .0083 -.0066 .12698 2.616 -83.322)" gradientUnits="userSpaceOnUse"/>
  <linearGradient id="p" x1="341.532" x2="341.532" y1="452.763" y2="668.313" gradientUnits="userSpaceOnUse" spreadMethod="reflect">
    <stop offset="0" stop-color="#d3d3d3"/>
    <stop offset=".262" stop-color="#e4e4e4"/>
    <stop offset=".631" stop-color="#dfdfdf"/>
    <stop offset="1" stop-color="silver"/>
  </linearGradient>
  <radialGradient xlink:href="#s" id="q" cx="902.44" cy="521.147" r="252.672" fy="725.485" gradientTransform="matrix(.12657 .00418 -.0035 .10581 92.347 -74.637)" gradientUnits="userSpaceOnUse"/>
  <radialGradient xlink:href="#r" id="c" cx="1304.426" cy="438.305" r="252.672" gradientTransform="matrix(1.46155 0 0 .79222 -1517.098 316.296)" gradientUnits="userSpaceOnUse"/>
  <linearGradient id="e" x1="1228.482" x2="1228.482" y1="349.261" y2="687.31" gradientUnits="userSpaceOnUse">
    <stop offset="0" stop-color="#474747"/>
    <stop offset="1" stop-color="#474747" stop-opacity="0"/>
  </linearGradient>
  <linearGradient xlink:href="#t" id="I" x1="154.031" x2="154.031" y1="21.775" y2="47.891" gradientUnits="userSpaceOnUse"/>
  <radialGradient xlink:href="#r" id="j" cx="921.025" cy="489.461" r="119.397" fx="924.295" fy="456.948" gradientTransform="matrix(.4203 0 -.0052 .1936 -191.396 -121.096)" gradientUnits="userSpaceOnUse"/>
  <linearGradient xlink:href="#t" id="g" x1="154.539" x2="154.031" y1="13.391" y2="47.891" gradientUnits="userSpaceOnUse"/>
  <radialGradient xlink:href="#s" id="x" cx="902.44" cy="521.147" r="252.672" fy="725.485" gradientTransform="matrix(.2001 .00662 -.00553 .16728 -113.19 -16.704)" gradientUnits="userSpaceOnUse"/>
  <radialGradient xlink:href="#r" id="w" cx="949.332" cy="517.87" r="119.397" fx="941.931" fy="440.161" gradientTransform="matrix(.3423 .01312 -.01044 .20075 -255.047 -30.433)" gradientUnits="userSpaceOnUse"/>
  <use xlink:href="#u" clip-path="url(#a)" filter="url(#b)" transform="translate(-259.183 82.952) scale(1.5809)"/>
  <use xlink:href="#u" clip-path="url(#a)" filter="url(#v)" opacity=".87" transform="translate(-259.183 82.952) scale(1.5809)"/>
  <path fill="url(#w)" d="M100.482 85.987c2.563 8.21-12.736 15.397-35.874 15.397-24.257 0-39.284-7.418-35.875-15.397 4.448-10.409 20.52-15.398 35.875-15.398 14.799 0 32.986 6.146 35.874 15.398z"/>
  <path fill="url(#p)" d="M594.21 637.248a252.678 126.339 0 1 1-505.356 0 252.678 126.339 0 1 1 505.356 0z" transform="matrix(.20021 0 0 .20338 -3.871 -51.963)"/>
  <path fill="url(#x)" d="M115.095 77.64c0 14.185-22.666 25.697-50.591 25.697-27.78 0-50.35-11.392-50.585-25.474l.2 10.22c0 14.184 22.466 25.696 50.391 25.696s50.385-11.512 50.385-25.696l.2-10.442z"/>
  <use xlink:href="#y" filter="url(#d)" transform="matrix(.20021 0 0 .20338 -12.893 -28.863)"/>
  <use xlink:href="#z" filter="url(#f)" opacity=".506" transform="matrix(.19606 0 0 .19916 -190.859 -12.551)"/>
  <use xlink:href="#A" clip-path="url(#h)" filter="url(#i)" transform="matrix(1.5809 0 0 1.4543 -192.449 19.504)"/>
  <use xlink:href="#B" filter="url(#k)" transform="translate(-259.183 101.29) scale(1.5809)"/>
  <use xlink:href="#C" clip-path="url(#l)" filter="url(#m)" opacity=".66" transform="translate(-259.183 44.3) scale(1.5809)"/>
  <use xlink:href="#D" filter="url(#n)" transform="matrix(.20021 0 0 .20338 -12.893 -28.863)"/>
  <use xlink:href="#u" clip-path="url(#a)" filter="url(#E)" transform="matrix(1.5809 0 0 1.56867 -259.183 69.523)"/>
  <use xlink:href="#F" transform="matrix(1.5809 0 0 1.56867 -259.183 87.72)"/>
  <use xlink:href="#G" transform="matrix(.20021 0 0 .2018 -3.871 -64.347)"/>
  <use xlink:href="#H" transform="matrix(1.5809 0 0 1.56867 -259.183 87.72)"/>
  <use xlink:href="#y" filter="url(#d)" transform="matrix(.20021 0 0 .2018 -12.893 -41.426)"/>
  <use xlink:href="#z" filter="url(#f)" opacity=".506" transform="matrix(.19606 0 0 .19762 -190.859 -25.241)"/>
  <use xlink:href="#A" clip-path="url(#h)" filter="url(#i)" transform="matrix(1.5809 0 0 1.44305 -192.449 6.566)"/>
  <use xlink:href="#B" filter="url(#k)" transform="matrix(1.5809 0 0 1.56867 -259.183 87.72)"/>
  <use xlink:href="#C" clip-path="url(#l)" filter="url(#m)" opacity=".66" transform="matrix(1.5809 0 0 1.56867 -259.183 31.17)"/>
  <use xlink:href="#D" filter="url(#n)" transform="matrix(.20021 0 0 .2018 -12.893 -41.426)"/>
  <use xlink:href="#u" clip-path="url(#a)" filter="url(#E)" transform="matrix(1.5809 0 0 1.55424 -259.183 56.33)"/>
  <use xlink:href="#F" transform="matrix(1.5809 0 0 1.55424 -259.183 74.36)"/>
  <use xlink:href="#G" transform="matrix(.20021 0 0 .19995 -3.871 -76.31)"/>
  <use xlink:href="#H" transform="matrix(1.5809 0 0 1.55424 -259.183 74.36)"/>
  <use xlink:href="#y" filter="url(#d)" transform="matrix(.20021 0 0 .19995 -12.893 -53.6)"/>
  <use xlink:href="#z" filter="url(#f)" opacity=".506" transform="matrix(.19606 0 0 .1958 -190.859 -37.563)"/>
  <use xlink:href="#A" clip-path="url(#h)" filter="url(#i)" transform="matrix(1.5809 0 0 1.42978 -192.449 -6.048)"/>
  <use xlink:href="#B" filter="url(#k)" transform="matrix(1.5809 0 0 1.55424 -259.183 74.36)"/>
  <use xlink:href="#C" clip-path="url(#l)" filter="url(#m)" opacity=".66" transform="matrix(1.5809 0 0 1.55424 -259.183 18.329)"/>
  <use xlink:href="#D" filter="url(#n)" transform="matrix(.20021 0 0 .19995 -12.893 -53.6)"/>
  <use xlink:href="#u" clip-path="url(#a)" filter="url(#E)" transform="matrix(1.5809 0 0 1.51022 -259.183 43.829)"/>
  <use xlink:href="#F" transform="matrix(1.5809 0 0 1.51022 -259.183 61.347)"/>
  <use xlink:href="#G" transform="matrix(.20021 0 0 .19429 -3.871 -85.054)"/>
  <use xlink:href="#H" transform="matrix(1.5809 0 0 1.51022 -259.183 61.347)"/>
  <use xlink:href="#y" filter="url(#d)" transform="matrix(.20021 0 0 .19429 -12.893 -62.987)"/>
  <use xlink:href="#z" filter="url(#f)" opacity=".506" transform="matrix(.19606 0 0 .19026 -190.859 -47.405)"/>
  <path fill="url(#I)" d="M162.531 21.443c-17.664 0-32 8.23-32 17.982 0 .168.023.333.032.5.482-9.52 14.609-17.482 31.968-17.482 17.36 0 31.486 7.962 31.969 17.482.008-.167.031-.331.031-.5 0-9.753-14.336-17.982-32-17.982z" clip-path="url(#h)" filter="url(#i)" transform="matrix(1.5809 0 0 1.38928 -192.449 -16.782)"/>
  <use xlink:href="#B" filter="url(#k)" transform="matrix(1.5809 0 0 1.51022 -259.183 61.347)"/>
  <use xlink:href="#C" clip-path="url(#l)" filter="url(#m)" opacity=".66" transform="matrix(1.5809 0 0 1.51022 -259.183 6.904)"/>
  <use xlink:href="#D" filter="url(#n)" transform="matrix(.20021 0 0 .19429 -12.893 -62.987)"/>
</svg>