<?xml version="1.0" encoding="UTF-8" standalone="no"?>
<svg xmlns="http://www.w3.org/2000/svg" xmlns:xlink="http://www.w3.org/1999/xlink" width="128" height="128" viewBox="20 24 80 80">
  <linearGradient id="e" x1="57.584" x2="57.584" y1="154.013" y2="-101.485" gradientUnits="userSpaceOnUse">
    <stop offset="0" stop-color="#fff"/>
    <stop offset=".258" stop-color="#f1f1f1"/>
    <stop offset=".74" stop-color="#cecece"/>
    <stop offset=".86" stop-color="#c4c4c4"/>
  </linearGradient>
  <linearGradient id="a">
    <stop offset="0" stop-color="#b2b2b2"/>
    <stop offset="1" stop-color="#828282"/>
  </linearGradient>
  <linearGradient id="f" x1="-32.669" x2="49.83" y1="-26.885" y2="55.614" gradientUnits="userSpaceOnUse" xlink:href="#a"/>
  <linearGradient id="g" x1="36.688" x2="197.673" y1="24.87" y2="110.514" gradientUnits="userSpaceOnUse">
    <stop offset="0" stop-color="#fff"/>
    <stop offset=".503" stop-color="#e7e7e7"/>
    <stop offset="1" stop-color="#d4d4d4"/>
  </linearGradient>
  <linearGradient id="b">
    <stop offset="0"/>
    <stop offset="1"/>
  </linearGradient>
  <radialGradient id="h" cx="75.817" cy="100.608" r="75.218" gradientTransform="matrix(.7964 0 0 1.4264 8.9475 -44.0775)" gradientUnits="userSpaceOnUse" xlink:href="#b"/>
  <linearGradient id="c">
    <stop offset="0" stop-color="#fff"/>
    <stop offset=".012" stop-color="#fffef6"/>
    <stop offset=".105" stop-color="#fff9b0"/>
    <stop offset=".19" stop-color="#fff579"/>
    <stop offset=".262" stop-color="#fff251"/>
    <stop offset=".319" stop-color="#fff139"/>
    <stop offset=".354" stop-color="#fff030"/>
    <stop offset="1" stop-color="#ff8300"/>
  </linearGradient>
  <radialGradient id="i" cx="59.43" cy="99.644" r="54.894" gradientUnits="userSpaceOnUse" xlink:href="#c"/>
  <radialGradient id="j" cx="59.43" cy="99.644" r="54.887" gradientUnits="userSpaceOnUse">
    <stop offset="0" stop-color="#fff"/>
    <stop offset=".012" stop-color="#fffcf6"/>
    <stop offset=".105" stop-color="#ffe4b0"/>
    <stop offset=".19" stop-color="#ffd179"/>
    <stop offset=".262" stop-color="#ffc351"/>
    <stop offset=".319" stop-color="#ffbb39"/>
    <stop offset=".354" stop-color="#ffb830"/>
    <stop offset="1" stop-color="#ff5300"/>
  </radialGradient>
  <radialGradient id="k" cx="59.43" cy="99.645" r="54.894" gradientUnits="userSpaceOnUse" xlink:href="#c"/>
  <linearGradient id="d">
    <stop offset="0" stop-color="#fff"/>
    <stop offset=".063" stop-color="#e6f9ff"/>
    <stop offset=".139" stop-color="#cef2ff"/>
    <stop offset=".185" stop-color="#c5f0ff"/>
    <stop offset="1" stop-color="#1d74d9"/>
  </linearGradient>
  <radialGradient id="l" cx="59.43" cy="99.645" r="54.893" gradientUnits="userSpaceOnUse" xlink:href="#d"/>
  <radialGradient id="m" cx="59.43" cy="99.647" r="54.895" gradientUnits="userSpaceOnUse">
    <stop offset="0" stop-color="#fff"/>
    <stop offset=".011" stop-color="#f4f3ff"/>
    <stop offset=".07" stop-color="#c1bdff"/>
    <stop offset=".121" stop-color="#9b95ff"/>
    <stop offset=".161" stop-color="#847dff"/>
    <stop offset=".185" stop-color="#7c74ff"/>
    <stop offset="1" stop-color="#810aff"/>
  </radialGradient>
  <radialGradient id="n" cx="59.43" cy="99.644" r="54.891" gradientUnits="userSpaceOnUse" xlink:href="#d"/>
  <radialGradient id="o" cx="59.431" cy="99.644" r="54.894" gradientUnits="userSpaceOnUse">
    <stop offset="0" stop-color="#9dff00"/>
    <stop offset=".764" stop-color="#009700"/>
  </radialGradient>
  <radialGradient id="p" cx="59.431" cy="99.644" r="54.892" gradientUnits="userSpaceOnUse">
    <stop offset="0" stop-color="#9dff79"/>
    <stop offset=".764" stop-color="#009f81"/>
  </radialGradient>
  <linearGradient id="q" x1="56.454" x2="56.454" y1="29.584" y2="66.522" gradientUnits="userSpaceOnUse">
    <stop offset=".04" stop-color="#fff"/>
    <stop offset="1" stop-color="#fff" stop-opacity="0"/>
  </linearGradient>
  <linearGradient id="r" x1="57.371" x2="57.371" y1="106.439" y2="72.338" gradientUnits="userSpaceOnUse">
    <stop offset=".092" stop-color="#fff"/>
    <stop offset="1" stop-color="#fff" stop-opacity="0"/>
  </linearGradient>
  <radialGradient id="s" cx="102.131" cy="117.697" r="34.736" gradientUnits="userSpaceOnUse" xlink:href="#b"/>
  <linearGradient id="t" x1="97.681" x2="88.753" y1="97.629" y2="135.242" gradientUnits="userSpaceOnUse">
    <stop offset="0" stop-color="#fff"/>
    <stop offset="1" stop-color="#ccc"/>
  </linearGradient>
  <linearGradient id="u" x1="75.973" x2="89.769" y1="87.541" y2="101.337" gradientUnits="userSpaceOnUse" xlink:href="#a"/>
  <linearGradient id="v" x1="-10.925" x2="120.395" y1="10.1" y2="10.1" gradientUnits="userSpaceOnUse">
    <stop offset="0" stop-color="#b3caff"/>
    <stop offset="1" stop-color="#0053bd"/>
  </linearGradient>
  <path fill="url(#h)" d="m94.831 96.035c0 3.566-16.639 6.46-37.167 6.46-20.526 0-37.166-2.894-37.166-6.46s16.64-6.46 37.166-6.46c20.528 0 37.167 2.894 37.167 6.46z" opacity=".1"/>
  <g fill-rule="evenodd" clip-rule="evenodd">
    <path fill="url(#i)" d="m57.664 62.132-26.409-26.407v.001c-.89.889-1.721 1.813-2.502 2.767-.061.075-.12.153-.18.229-.715.886-1.385 1.797-2.007 2.73-.083.125-.162.253-.243.379-.59.908-1.141 1.834-1.644 2.78-.07.134-.138.272-.208.407-.495.96-.952 1.936-1.357 2.927-.047.115-.091.231-.137.345-.409 1.026-.775 2.063-1.088 3.114-.025.084-.048.17-.072.254-.316 1.082-.585 2.173-.801 3.273-.012.068-.021.133-.035.199-.212 1.117-.377 2.243-.487 3.374-.005.056-.008.114-.013.171-.106 1.148-.165 2.303-.165 3.457z"/>
    <path fill="url(#j)" d="m20.316 62.132c0 1.156.059 2.311.165 3.461.006.055.008.111.013.169.11 1.13.275 2.258.489 3.374.012.066.021.133.033.196.215 1.102.485 2.193.801 3.277.024.084.046.168.071.253.314 1.049.681 2.088 1.09 3.112.046.116.089.231.137.347.406.99.863 1.964 1.357 2.925.071.136.138.274.21.409.501.945 1.05 1.868 1.638 2.775.083.128.164.26.248.388.619.929 1.287 1.833 1.999 2.717.063.081.126.163.19.244.78.949 1.608 1.872 2.497 2.76l.001.002 26.408-26.408v-.002h-37.347z"/>
    <path fill="url(#k)" d="m57.664 62.134-26.409 26.408c.001 0 .001.002.001.002.888.888 1.813 1.718 2.764 2.498.077.063.157.121.234.184.886.715 1.794 1.385 2.727 2.005.125.083.254.161.378.243.909.59 1.835 1.14 2.783 1.643.133.071.27.14.403.208.963.496 1.94.954 2.932 1.36.112.046.225.088.337.133 1.028.41 2.069.777 3.123 1.093.081.025.163.045.244.07 1.085.314 2.18.586 3.284.801.063.012.126.021.188.034 1.121.213 2.249.378 3.382.487.053.005.111.007.166.013 1.15.106 2.304.166 3.461.166v-37.348z"/>
    <path fill="url(#l)" d="m81.309 91.04c.949-.778 1.87-1.606 2.757-2.493.002-.002.005-.003.007-.005l-26.409-26.41v.002 37.347c1.154 0 2.309-.06 3.459-.166.058-.006.114-.008.172-.013 1.13-.109 2.255-.274 3.372-.487.066-.013.134-.022.199-.034 1.1-.215 2.191-.484 3.274-.801.083-.024.169-.046.254-.072 1.049-.313 2.088-.681 3.111-1.089.117-.045.232-.089.349-.136.989-.405 1.961-.861 2.92-1.356.139-.07.278-.14.417-.212.941-.502 1.864-1.052 2.771-1.639.129-.083.261-.163.388-.246.93-.622 1.835-1.288 2.719-2 .079-.064.161-.126.24-.19z"/>
    <path fill="url(#m)" d="m57.664 62.132v-37.346c-.002 0-.002 0-.004 0-1.149 0-2.297.059-3.442.165-.063.004-.126.008-.188.014-1.126.109-2.248.274-3.363.485-.067.013-.138.024-.207.037-1.099.215-2.188.484-3.269.798-.085.025-.171.048-.257.073-1.05.314-2.089.681-3.115 1.09-.112.045-.227.087-.34.134-.993.408-1.97.865-2.932 1.362-.133.069-.27.135-.401.206-.949.503-1.877 1.056-2.788 1.647-.124.08-.249.156-.371.238-.937.624-1.851 1.297-2.741 2.015-.072.058-.146.114-.218.172-.954.782-1.881 1.614-2.771 2.504z"/>
    <path fill="url(#n)" d="m81.304 33.223c-.074-.061-.151-.118-.226-.178-.887-.715-1.798-1.386-2.732-2.008-.124-.083-.254-.163-.38-.245-.909-.588-1.834-1.139-2.777-1.641-.137-.072-.275-.141-.413-.211-.959-.495-1.931-.951-2.922-1.356-.116-.048-.233-.092-.353-.139-1.02-.407-2.055-.772-3.103-1.085-.09-.027-.179-.051-.268-.077-1.078-.313-2.164-.582-3.261-.795-.07-.014-.144-.026-.216-.039-1.111-.21-2.23-.375-3.354-.484-.063-.006-.13-.009-.193-.015-1.142-.105-2.29-.164-3.438-.164-.003 0-.005 0-.006 0v37.347l26.409-26.408c-.888-.89-1.813-1.722-2.767-2.502z"/>
  </g>
  <path fill="url(#o)" d="m94.846 58.675c-.006-.058-.008-.116-.013-.171-.108-1.131-.274-2.256-.487-3.374-.013-.065-.022-.131-.034-.199-.215-1.101-.484-2.192-.801-3.273-.024-.084-.046-.17-.07-.254-.315-1.051-.683-2.088-1.091-3.114-.045-.114-.089-.23-.136-.345-.405-.99-.861-1.965-1.358-2.924-.069-.137-.138-.276-.21-.411-.502-.946-1.052-1.871-1.642-2.779-.082-.126-.16-.254-.243-.379-.622-.934-1.291-1.842-2.005-2.728-.063-.077-.121-.157-.184-.232-.78-.953-1.612-1.877-2.5-2.766 0 0 0 0 0-.001l-26.408 26.407h37.349c-.001-1.154-.06-2.308-.167-3.457z"/>
  <path fill="url(#p)" d="m94.846 65.594c.106-1.15.166-2.305.166-3.461h-37.348l26.409 26.41c.002-.002.003-.005.005-.007.887-.885 1.715-1.806 2.491-2.755.066-.081.129-.165.194-.246.712-.882 1.378-1.786 1.998-2.715.083-.128.163-.26.246-.388.589-.907 1.137-1.83 1.639-2.771.072-.139.142-.277.212-.415.495-.959.951-1.933 1.356-2.923.047-.115.091-.23.136-.347.408-1.024.775-2.063 1.091-3.112.024-.085.046-.169.07-.253.316-1.084.586-2.176.801-3.277.012-.063.021-.13.034-.196.213-1.116.379-2.244.487-3.374.005-.059.007-.116.013-.17z"/>
  <path fill="url(#q)" d="m57.693 64.525c13.562-10.402 26.307-13.927 31.895-15.046-5.38-12.595-17.523-21.383-31.651-21.383-19.118 0-34.618 16.096-34.618 35.945 0 3.118.382 6.144 1.102 9.03 5.609 1.074 19.326 2.151 33.272-8.546z"/>
  <path fill="url(#r)" d="m57.369 88.404c-16.744 0-30.668-9.994-31.943-25.628-.068.77-.108 1.543-.108 2.325 0 16.722 14.478 30.352 32.051 30.352 17.696 0 32.054-13.63 32.054-30.352 0-.782-.043-1.556-.106-2.325-1.268 15.634-15.086 25.628-31.948 25.628z" opacity=".8"/>
</svg>
