<?xml version="1.0" encoding="UTF-8" standalone="no"?>
<!-- Created with Inkscape (http://www.inkscape.org/) -->

<svg
   xmlns:dc="http://purl.org/dc/elements/1.1/"
   xmlns:cc="http://creativecommons.org/ns#"
   xmlns:rdf="http://www.w3.org/1999/02/22-rdf-syntax-ns#"
   xmlns:svg="http://www.w3.org/2000/svg"
   xmlns="http://www.w3.org/2000/svg"
   xmlns:xlink="http://www.w3.org/1999/xlink"
   xmlns:sodipodi="http://sodipodi.sourceforge.net/DTD/sodipodi-0.dtd"
   xmlns:inkscape="http://www.inkscape.org/namespaces/inkscape"
   width="255"
   height="255"
   viewBox="0 0 67.468748 67.468752"
   version="1.1"
   id="svg8"
   inkscape:version="0.92.5 (2060ec1f9f, 2020-04-08)"
   sodipodi:docname="gnome-system-config.svg">
  <defs
     id="defs2">
    <linearGradient
       inkscape:collect="always"
       id="linearGradient981">
      <stop
         style="stop-color:#0004bf;stop-opacity:1"
         offset="0"
         id="stop977" />
      <stop
         id="stop985"
         offset="0.44075984"
         style="stop-color:#5b5fff;stop-opacity:1" />
      <stop
         style="stop-color:#0005ff;stop-opacity:1"
         offset="1"
         id="stop979" />
    </linearGradient>
    <linearGradient
       inkscape:collect="always"
       id="linearGradient51372">
      <stop
         offset="0"
         style="stop-color:#666666"
         id="stop51374" />
      <stop
         offset="1"
         style="stop-color:#202020"
         id="stop51376" />
    </linearGradient>
    <radialGradient
       inkscape:collect="always"
       r="3.5104"
       gradientTransform="matrix(-4.2714,0.040387,-0.26714,-28.252,790.15,10631)"
       cx="242.37"
       cy="365.17"
       gradientUnits="userSpaceOnUse"
       id="radialGradient51887">
      <stop
         offset="0"
         style="stop-color:#4d4d4d"
         id="stop51602" />
      <stop
         offset="1"
         style="stop-color:#000000"
         id="stop51604" />
    </radialGradient>
    <linearGradient
       inkscape:collect="always"
       x1="215.06"
       y1="509.12"
       gradientTransform="translate(-0.58101,0.58101)"
       x2="229.21"
       gradientUnits="userSpaceOnUse"
       xlink:href="#linearGradient51372"
       y2="379.55"
       id="linearGradient51889" />
    <linearGradient
       inkscape:collect="always"
       x1="215.06"
       y1="509.12"
       gradientTransform="matrix(1,0,0,-1,-0.58101,1166.4)"
       x2="229.21"
       gradientUnits="userSpaceOnUse"
       xlink:href="#linearGradient51372"
       y2="379.55"
       id="linearGradient51891" />
    <linearGradient
       inkscape:collect="always"
       x1="209.08"
       y1="539.91"
       gradientTransform="translate(-549.37,-260.92)"
       x2="182.52"
       gradientUnits="userSpaceOnUse"
       y2="539.33"
       id="linearGradient51893">
      <stop
         offset="0"
         style="stop-color:#4d4d4d"
         id="stop51390" />
      <stop
         offset="1"
         style="stop-color:#000000"
         id="stop51392" />
    </linearGradient>
    <linearGradient
       inkscape:collect="always"
       x1="-513.77"
       y1="187.86"
       x2="-372.57"
       gradientUnits="userSpaceOnUse"
       y2="530.58"
       id="linearGradient51895">
      <stop
         offset="0"
         style="stop-color:#404040"
         id="stop49295" />
      <stop
         offset=".47360"
         style="stop-color:#808080"
         id="stop49317" />
      <stop
         offset="1"
         style="stop-color:#313131"
         id="stop49297" />
    </linearGradient>
    <linearGradient
       inkscape:collect="always"
       x1="-342.35"
       y1="239.12"
       x2="-342.35"
       gradientUnits="userSpaceOnUse"
       y2="169.86"
       id="linearGradient51897">
      <stop
         offset="0"
         style="stop-color:#cccccc"
         id="stop51504" />
      <stop
         offset="1"
         style="stop-color:#e6e6e6;stop-opacity:0"
         id="stop51506" />
    </linearGradient>
    <linearGradient
       inkscape:collect="always"
       x1="-342.35"
       y1="239.12"
       gradientTransform="matrix(1,0,0,-1,-0.60186,645.31)"
       x2="-342.35"
       gradientUnits="userSpaceOnUse"
       y2="169.86"
       id="linearGradient51899">
      <stop
         offset="0"
         style="stop-color:#cccccc"
         id="stop51504-4" />
      <stop
         offset="1"
         style="stop-color:#e6e6e6;stop-opacity:0"
         id="stop51506-2" />
    </linearGradient>
    <linearGradient
       inkscape:collect="always"
       x1="-308.95"
       y1="78.633"
       x2="-61.167"
       gradientUnits="userSpaceOnUse"
       y2="424.19"
       id="linearGradient51901">
      <stop
         offset="0"
         style="stop-color:#404040"
         id="stop51782" />
      <stop
         offset=".36074"
         style="stop-color:#808080"
         id="stop51784" />
      <stop
         offset="1"
         style="stop-color:#313131"
         id="stop51786" />
    </linearGradient>
    <linearGradient
       inkscape:collect="always"
       x1="-252.92"
       y1="254.68"
       gradientTransform="matrix(2.0506,0,0,1.1069,238.73,-26.396)"
       x2="-132.17"
       gradientUnits="userSpaceOnUse"
       y2="531"
       id="linearGradient51903">
      <stop
         offset="0"
         style="stop-color:#79a05a"
         id="stop49339" />
      <stop
         offset=".26899"
         style="stop-color:#81a65a"
         id="stop49353" />
      <stop
         offset=".31607"
         style="stop-color:#4e6b34"
         id="stop49357" />
      <stop
         offset=".50602"
         style="stop-color:#9ee466"
         id="stop51471" />
      <stop
         offset=".58648"
         style="stop-color:#4f6e34"
         id="stop49355" />
      <stop
         offset="1"
         style="stop-color:#4f6d34"
         id="stop49341" />
    </linearGradient>
    <linearGradient
       inkscape:collect="always"
       x1="-176.95"
       y1="73.745"
       x2="-150.46"
       gradientUnits="userSpaceOnUse"
       y2="475.78"
       id="linearGradient51905">
      <stop
         offset="0"
         style="stop-color:#404040"
         id="stop51694" />
      <stop
         offset=".27148"
         style="stop-color:#b3b3b3"
         id="stop51696" />
      <stop
         offset="1"
         style="stop-color:#313131"
         id="stop51698" />
    </linearGradient>
    <linearGradient
       inkscape:collect="always"
       x1="-197.67"
       y1="80.967"
       x2="-47.241"
       gradientUnits="userSpaceOnUse"
       y2="503.47"
       id="linearGradient51907">
      <stop
         offset="0"
         style="stop-color:#404040"
         id="stop51678" />
      <stop
         offset=".20464"
         style="stop-color:#b3b3b3"
         id="stop51680" />
      <stop
         offset="1"
         style="stop-color:#313131"
         id="stop51682" />
    </linearGradient>
    <linearGradient
       inkscape:collect="always"
       x1="-232.32"
       y1="248.28"
       gradientTransform="translate(-0.98601,2)"
       x2="-232.6"
       gradientUnits="userSpaceOnUse"
       y2="582.91"
       id="linearGradient51909">
      <stop
         offset="0"
         style="stop-color:#9a9b9b"
         id="stop51618" />
      <stop
         offset="1"
         style="stop-color:#343333"
         id="stop51620" />
    </linearGradient>
    <linearGradient
       inkscape:collect="always"
       x1="-342.35"
       y1="239.12"
       gradientTransform="matrix(1,0,0,-1,105,494.11)"
       x2="-341.85"
       gradientUnits="userSpaceOnUse"
       y2="55.973"
       id="linearGradient51911">
      <stop
         offset="0"
         style="stop-color:#cccccc"
         id="stop51504-4-4" />
      <stop
         offset="1"
         style="stop-color:#e6e6e6;stop-opacity:0"
         id="stop51506-2-5" />
    </linearGradient>
    <linearGradient
       inkscape:collect="always"
       xlink:href="#linearGradient981"
       id="linearGradient983"
       x1="-427.91669"
       y1="452.8475"
       x2="-427.33044"
       y2="279.99713"
       gradientUnits="userSpaceOnUse"
       spreadMethod="reflect" />
    <linearGradient
       id="linearGradient3795">
      <stop
         id="stop3797"
         offset="0"
         style="stop-color:#000000;stop-opacity:1;" />
      <stop
         id="stop3799"
         offset="1"
         style="stop-color:#797979;stop-opacity:1;" />
    </linearGradient>
    <linearGradient
       gradientUnits="userSpaceOnUse"
       y2="-115.31478"
       x2="734.56042"
       y1="-187.52502"
       x1="728.50348"
       id="linearGradient3801"
       xlink:href="#linearGradient3795"
       inkscape:collect="always" />
    <linearGradient
       gradientTransform="translate(96.994041,44.421327)"
       y2="-115.31478"
       x2="734.56042"
       y1="-187.52502"
       x1="728.50348"
       gradientUnits="userSpaceOnUse"
       id="linearGradient3805"
       xlink:href="#linearGradient3795"
       inkscape:collect="always" />
    <clipPath
       id="clipPath">
      <path
         style="fill:#535353;fill-opacity:1;stroke:#000000;stroke-width:1px;stroke-linecap:butt;stroke-linejoin:miter;stroke-opacity:1"
         d="m -396.35157,-311.68994 22.07175,-38.12393 9.69819,0.33442 4.68189,-5.35072 9.36377,1.6721 3.3442,-10.36704 11.3703,2.00653 -2.34095,-11.70472 12.37356,-1.6721 -6.35399,-9.69819 13.71124,-5.01631 -6.68841,-10.03261 11.03587,-5.68515 -8.02609,-9.02936 10.36704,-7.69167 -6.01957,-11.03587 41.46813,-45.14676 c -27.73093,-66.54558 -17.84855,-115.1266 57.52032,-132.43049 l 437.16751,-61.0832 c 98.83794,-18.31961 185.36138,-62.2958 281.51478,-74.50169 96.1534,-12.20588 190.9541,13.1389 294.2078,-5.26709 18.3324,-6.31339 28.9028,1.60368 35.8381,16.18497 l 2.3121,13.87283 c -6.0284,12.98079 -17.9842,21.21959 -33.526,26.5896 -66.6534,32.19852 -195.2157,7.48777 -289.8844,16.18496 -129.2924,11.87807 -215.91041,65.41943 -276.01152,75.14451 l -276.300567,65.89596 c -70.795433,13.01407 -131.188583,32.26951 -156.069373,72.83237 -16.94855,71.87977 -92.79523,151.56114 -187.28323,157.80348 z"
         id="path3808"
         inkscape:connector-curvature="0"
         sodipodi:nodetypes="cccccccccccccccccccsccccsccccc" />
    </clipPath>
    <filter
       color-interpolation-filters="sRGB"
       y="-0.5"
       x="-0.5"
       width="2"
       height="2"
       id="filter">
      <feGaussianBlur
         id="feGaussianBlur3821"
         stdDeviation="5.0" />
    </filter>
    <clipPath
       id="clipPaths">
      <path
         id="path3757"
         d="m 402.47956,-270.78972 c -3.42935,0.11083 -6.85189,0.67795 -10.28125,1.875 l -116.46875,23.46875 -9.875,5.34375 c -32.81686,39.36992 -73.24316,79.40672 -86.4962,127.47167 -7.60107,25.68653 -9.30582,51.37305 0.4962,77.05958 l 4.96875,5.5 27.625,-27.25 -3.96875,-12.1875 10.0625,-5 -8.96875,-10.03125 12.53125,-3.59375 -5.71875,-11.46875 12.90625,-1.78125 -3.25,-11.125 11.46875,0.375 1.09375,-14.34375 11.46875,6.09375 1.0625,-13.28125 14.34375,8.625 2.5,-11.46875 11.84375,3.21875 29.03125,-33.34375 c 13.704,-14.36137 28.52487,-19.4927 46.59375,2.15625 l 133.34375,134.0625 c 21.20028,16.09658 51.25707,23.94302 87.8125,25.78125 l 321.4375,19.71875 c 88.31883,24.99038 183.42664,31.84443 277.15624,42.40625 96.7392,-4.73387 199.728,-18.30541 290.2188,-6.53125 34.7508,-14.33824 16.2595,-26.62369 3.25,-39.125 -95.6522,-34.26419 -191.2853,-14.35713 -286.9375,-14.125 l -302.18754,-42.40625 -175,-19.5625 -65.21875,-27.1875 -214.1875,-175 c -7.54458,-2.59034 -15.11167,-4.58758 -22.65625,-4.34375 z m 2.46875,38.3125 c 9.96007,0.0173 19.30757,5.71683 23.125,23.375 13.09573,4.50261 26.24714,8.94876 27.96875,27.71875 11.54249,2.23594 24.78749,1.29676 25.875,23.0625 14.05166,1.13453 25.26147,6.63403 27.6875,25.5625 20.07314,-0.68184 23.77766,12.91933 28.59375,25.5625 11.71847,-0.45881 37.76806,20.85017 18.53125,44.5 -23.00596,22.01759 -42.2599,1.46278 -48.09375,-15.65625 -11.52927,-2.03471 -20.51811,-8.01968 -23.71875,-23.03125 -18.54531,-4.22819 -29.5382,-12.67214 -30.75,-26.53125 -18.74408,-1.85228 -25.06846,-12.15153 -27.375,-25.21875 -18.36684,-0.134 -24.23279,-11.23646 -26.125,-25.84375 -35.3047,-11.89434 -28.42286,-33.59854 -15.4375,-47.5625 5.80955,-3.31239 12.90396,-5.94932 19.71875,-5.9375 z"
         style="fill:#515151;fill-opacity:1;stroke:#a5a5a5;stroke-width:1px;stroke-linecap:butt;stroke-linejoin:miter;stroke-opacity:1"
         inkscape:connector-curvature="0"
         sodipodi:nodetypes="sccccccccccccccccccccccccccccccccccssccccccccccccs" />
    </clipPath>
    <filter
       color-interpolation-filters="sRGB"
       id="filterJ"
       height="2"
       width="2"
       x="-0.5"
       y="-0.5">
      <feGaussianBlur
         stdDeviation="5.0"
         id="feGaussianBlur3890" />
    </filter>
    <linearGradient
       y2="-115.31478"
       x2="734.56042"
       y1="-187.52502"
       x1="728.50348"
       gradientTransform="translate(80.726923,864.34849)"
       gradientUnits="userSpaceOnUse"
       id="linearGradient4018"
       xlink:href="#linearGradient3795"
       inkscape:collect="always" />
    <linearGradient
       gradientTransform="matrix(0.97913802,-0.20319632,0.20319632,0.97913802,-101.96078,813.72549)"
       y2="-115.31478"
       x2="734.56042"
       y1="-187.52502"
       x1="728.50348"
       gradientUnits="userSpaceOnUse"
       id="linearGradient4021"
       xlink:href="#linearGradient3795"
       inkscape:collect="always" />
    <filter
       color-interpolation-filters="sRGB"
       id="filter4054"
       inkscape:collect="always">
      <feGaussianBlur
         id="feGaussianBlur4056"
         stdDeviation="12.304583"
         inkscape:collect="always" />
    </filter>
    <filter
       color-interpolation-filters="sRGB"
       id="filter4070"
       inkscape:collect="always">
      <feGaussianBlur
         id="feGaussianBlur4072"
         stdDeviation="12.564884"
         inkscape:collect="always" />
    </filter>
    <linearGradient
       gradientTransform="matrix(0.1489465,0.08897286,-0.08897286,0.1489465,11.026901,34.760149)"
       y2="-115.31478"
       x2="734.56042"
       y1="-187.52502"
       x1="728.50348"
       gradientUnits="userSpaceOnUse"
       id="linearGradient4098"
       xlink:href="#linearGradient3795"
       inkscape:collect="always" />
    <linearGradient
       y2="-115.31478"
       x2="734.56042"
       y1="-187.52502"
       x1="728.50348"
       gradientTransform="matrix(0.17349706,0,0,0.17349706,50.189556,22.433787)"
       gradientUnits="userSpaceOnUse"
       id="linearGradient4100"
       xlink:href="#linearGradient3795"
       inkscape:collect="always" />
    <filter
       height="1.0575871"
       y="-0.028793541"
       width="1.0411495"
       x="-0.020574725"
       id="filter915"
       style="color-interpolation-filters:sRGB"
       inkscape:collect="always">
      <feGaussianBlur
         id="feGaussianBlur917"
         stdDeviation="0.79489041"
         inkscape:collect="always" />
    </filter>
  </defs>
  <sodipodi:namedview
     id="base"
     pagecolor="#ff0000"
     bordercolor="#666666"
     borderopacity="1.0"
     inkscape:pageopacity="0"
     inkscape:pageshadow="2"
     inkscape:zoom="3.5058824"
     inkscape:cx="127.5"
     inkscape:cy="127.5"
     inkscape:document-units="mm"
     inkscape:current-layer="layer1"
     showgrid="false"
     units="px"
     inkscape:snap-to-guides="false"
     inkscape:snap-grids="false"
     inkscape:snap-others="false"
     inkscape:object-nodes="false"
     inkscape:snap-nodes="false"
     inkscape:snap-global="false"
     inkscape:window-width="1920"
     inkscape:window-height="1056"
     inkscape:window-x="0"
     inkscape:window-y="0"
     inkscape:window-maximized="1" />
  <metadata
     id="metadata5">
    <rdf:RDF>
      <cc:Work
         rdf:about="">
        <dc:format>image/svg+xml</dc:format>
        <dc:type
           rdf:resource="http://purl.org/dc/dcmitype/StillImage" />
        <dc:title />
      </cc:Work>
    </rdf:RDF>
  </metadata>
  <g
     inkscape:label="Layer 1"
     inkscape:groupmode="layer"
     id="layer1"
     transform="translate(0,-229.53123)">
    <g
       id="g51809"
       transform="matrix(0.10522329,0,0,0.10522329,61.953412,225.06549)">
      <path
         d="m -347.94,258.41 v 127.15 h 25.719 V 256.35 h -25.719 v 1.0283 1.0283 z"
         style="fill:#323232"
         id="path51496"
         inkscape:connector-curvature="0" />
      <path
         d="m -345.21,259.3 7.0208,1.3027 v 122.78 h -7.0208 v -124.08 z"
         style="fill:url(#radialGradient51887)"
         sodipodi:nodetypes="ccccc"
         id="path51434"
         inkscape:connector-curvature="0" />
      <path
         d="m -372.81,89.56 7.5951,0.74274 -0.74273,535.39 -6.8523,1.4855 v -537.62 z"
         style="fill:#616161"
         sodipodi:nodetypes="ccccc"
         id="path49323"
         inkscape:connector-curvature="0" />
      <g
         transform="matrix(1.1836,0,0,1,-595.48,-260.92)"
         id="g51405">
        <path
           d="m 208.58,373.16 23.821,4.0671 -2.86,144.26 -20.961,-0.16495 v -148.16 z"
           style="color:#000000;fill:url(#linearGradient51889)"
           sodipodi:nodetypes="ccccc"
           id="path51396"
           inkscape:connector-curvature="0" />
        <path
           d="m 209.16,869.34 22.078,-5.2291 v -218.46 h -22.659 l 0.58101,223.69 z"
           style="color:#000000;fill:url(#linearGradient51891)"
           sodipodi:nodetypes="ccccc"
           id="path51370"
           inkscape:connector-curvature="0" />
      </g>
      <path
         d="m -364.61,113.99 23.24,-2.324 v 148.98 l -5.8101,-0.23886 v 124.34 h 5.2291 l 1.162,223.11 -23.821,-2.9051 v -490.96 z"
         style="color:#000000;fill:url(#linearGradient51893)"
         sodipodi:nodetypes="ccccccccc"
         id="path51368"
         inkscape:connector-curvature="0" />
      <g
         transform="translate(2)"
         id="g51488">
        <path
           d="m -481.25,103.02 108.68,-13.046 v 537 L -481.25,610.25 Z"
           style="fill:url(#linearGradient51895)"
           sodipodi:nodetypes="ccccc"
           id="rect49274"
           inkscape:connector-curvature="0" />
        <path
           d="m -438.14,234.02 h 6.1605 v 350.11 h -6.1605 z"
           style="fill:#575757"
           id="path49319"
           inkscape:connector-curvature="0" />
        <path
           d="m -432.22,234.02 h 10.604 l 0.74053,351.59 -10.604,-2.2216 -0.74053,-349.37 z"
           style="fill:url(#linearGradient983);fill-opacity:1"
           sodipodi:nodetypes="ccccc"
           id="path49321"
           inkscape:connector-curvature="0" />
        <path
           d="m -372.81,89.56 7.5951,0.74274 -0.74273,535.39 -6.8523,1.4855 v -537.62 z"
           style="fill:#616161"
           sodipodi:nodetypes="ccccc"
           id="path49325"
           inkscape:connector-curvature="0" />
      </g>
      <path
         d="m -322.83,603.85 c 0,3.0468 1.2632,4.6632 -4.8305,4.6632 -6.0936,0 -6.9714,0.95272 -9.7547,-2.7364 -0.11839,-0.15693 0.87328,-2.0756 0.91298,-2.2712 l 13.672,0.34435 z"
         style="color:#000000;fill:#252525"
         sodipodi:nodetypes="csscc"
         id="path51402"
         inkscape:connector-curvature="0" />
      <path
         d="m -341.67,260.68 -0.18219,-111.11 h 1.2037"
         style="color:#000000;fill:none;stroke:url(#linearGradient51897);stroke-width:0.5"
         sodipodi:nodetypes="ccc"
         id="path51500"
         inkscape:connector-curvature="0" />
      <path
         d="m -342.46,384.99 v 110.74 h 1.2037"
         style="color:#000000;fill:none;stroke:url(#linearGradient51899);stroke-width:0.5"
         id="path51500-6"
         inkscape:connector-curvature="0" />
      <path
         d="m -347.1,260.58 v 123.74 h 0.25618"
         style="color:#000000;fill:none;stroke:#666666;stroke-width:0.24382"
         id="path51500-6-2"
         inkscape:connector-curvature="0" />
      <g
         transform="translate(-4)"
         id="g51707">
        <path
           d="m -297.03,76.968 130.06,-13.857 -0.92378,598.42 -130.06,-22.171 0.92379,-562.39 z"
           style="fill:url(#linearGradient51901)"
           sodipodi:nodetypes="ccccc"
           id="rect49276"
           inkscape:connector-curvature="0" />
        <path
           d="m -236.51,232.63 h 21.744 l 1.5185,389.16 -21.744,-2.459 -1.5185,-386.7 z"
           style="fill:url(#linearGradient51903)"
           sodipodi:nodetypes="ccccc"
           id="path49287"
           inkscape:connector-curvature="0" />
        <path
           d="m -161.09,64.43 -0.18203,595 -6.5873,2.4516 0.26502,-598.99 6.5043,1.5312 z"
           style="opacity:0.5;fill:url(#linearGradient51905)"
           sodipodi:nodetypes="ccccc"
           id="rect49272"
           inkscape:connector-curvature="0" />
        <g
           transform="translate(-1.2037)"
           id="g51700">
          <path
             d="m -160.26,91.818 5.617,1.63 4.9649,-1.63 4.15,1.63 4.802,-0.97799 3.987,1.63 4.15,-1.467 4.313,1.63 4.1429,-1.4341 4.595,2.1181 5.192,-0.35801 -0.97799,542.25 h -44.936 V 91.809 Z"
             style="fill:#000000"
             sodipodi:nodetypes="cccccccccccccc"
             id="rect49278"
             inkscape:connector-curvature="0" />
          <path
             d="m -115.59,92.075 27.541,81.174 -2.8991,368.18 -24.642,95.669 V 92.068 Z"
             style="fill:#3a3a3a"
             sodipodi:nodetypes="ccccc"
             id="rect49280"
             inkscape:connector-curvature="0" />
          <path
             d="m -156.75,89.833 v 546.45 h 4 l 1.141,-544.38 -5.141,-2.0713 z m 8.3438,0 v 546.45 h 4 l 1.141,-544.38 -5.141,-2.0713 z m 8.3125,0 v 546.45 h 4 l 1.141,-544.38 -5.141,-2.0713 z m 8.3438,0 v 546.45 h 4 l 1.141,-544.38 -5.141,-2.0713 z m 8.3438,0 v 546.45 h 4 l 1.141,-544.38 -5.141,-2.0713 z"
             style="color:#000000;text-indent:0;text-transform:none;fill:url(#linearGradient51907)"
             sodipodi:nodetypes="ccccccccccccccccccccccccc"
             id="path51337"
             inkscape:connector-curvature="0" />
        </g>
        <path
           d="m -236.67,234.02 h 6.1605 v 384.9 h -6.1605 z"
           style="fill:url(#linearGradient51909)"
           sodipodi:nodetypes="ccccc"
           id="path49291"
           inkscape:connector-curvature="0" />
        <path
           d="m -237.13,233.84 h 22.32"
           style="color:#000000;fill:none;stroke:#666666;stroke-width:3"
           sodipodi:nodetypes="cc"
           id="path51624"
           inkscape:connector-curvature="0" />
        <path
           d="M -236.85,233.79 V 480.11"
           style="color:#000000;fill:none;stroke:url(#linearGradient51911);stroke-width:0.5"
           sodipodi:nodetypes="cc"
           id="path51500-6-5"
           inkscape:connector-curvature="0" />
        <text
           x="-608.31317"
           y="-265.53729"
           transform="matrix(0,-1,1,0.087488,0,0)"
           xml:space="preserve"
           style="line-height:0%;font-family:'Bitstream Vera Sans';fill:#b3b3b3"
           id="text51664">             <tspan
   sodipodi:role="line"
   style="font-size:21.45199966px;line-height:1.25;font-family:'Liberation Serif';fill:#b3b3b3"
   x="-608.31317"
   y="-265.53729"
   id="tspan51666">Mainframe</tspan>          </text>
      </g>
      <path
         d="m -316.03,116.8 1.7101,4.4422 5.081,-6.273 9.0494,-3.3272 -0.66686,498.15 -15.19,-4.0012 0.0165,-488.99 h -2e-5 z"
         style="fill:#1a1a1a"
         sodipodi:nodetypes="cccccccc"
         id="path49289"
         inkscape:connector-curvature="0" />
      <path
         d="m -323.98,115.43 h 7.8546 v 490.15 h -7.8546 z"
         style="fill:#3a3a3a"
         id="path51436"
         inkscape:connector-curvature="0" />
      <path
         d="m -313.97,115.41 h 3.8534 v 490.15 h -3.8534 z"
         style="fill:#808080"
         id="path51438"
         inkscape:connector-curvature="0" />
      <g
         transform="matrix(1,0,0,0.94867,-782.54,-289.42)"
         id="g51444">
        <path
           d="m 476.52,597.05 v 32.01"
           style="color:#000000;fill:#23212c;stroke:#23212c;stroke-width:6"
           id="path51440"
           inkscape:connector-curvature="0" />
        <path
           d="m 477.17,597.05 v 32.01"
           style="color:#000000;fill:#868491;stroke:#868491;stroke-width:4.0605998"
           id="path51442"
           inkscape:connector-curvature="0" />
      </g>
    </g>
    <g
       id="g1087"
       transform="matrix(0.26458333,0,0,0.26458333,-5.4142026,239.16833)">
      <path
         transform="matrix(0.12776022,0.11738209,-0.11738209,0.12776022,11.026901,34.760149)"
         sodipodi:nodetypes="sccccccccccccccccccccccccccccccccccssccccccccccccs"
         inkscape:connector-curvature="0"
         style="fill:#000000;fill-opacity:1;stroke:none;filter:url(#filter4054)"
         d="m 404.44035,-235.4956 c -3.42935,0.11083 -6.85189,0.67795 -10.28125,1.875 l -116.46875,23.46875 -9.875,5.34375 c -32.81686,39.36992 -73.24316,79.40672 -86.4962,127.471667 -7.60107,25.68653 -9.30582,51.37305 0.4962,77.05958045 l 4.96875,5.50000005 27.625,-27.2500005 -3.96875,-12.1875 10.0625,-5 -8.96875,-10.03125 12.53125,-3.59375 -5.71875,-11.46875 12.90625,-1.78125 -3.25,-11.125 11.46875,0.375 1.09375,-14.34375 11.46875,6.09375 1.0625,-13.28125 14.34375,8.625 2.5,-11.468747 11.84375,3.218747 29.03125,-33.343747 c 13.704,-14.36137 28.52487,-19.4927 46.59375,2.15625 L 490.75285,4.8793975 c 21.20028,16.0965795 51.25707,23.9430195 87.8125,25.7812495 l 321.4375,19.71875 c 88.31883,24.99038 183.42665,31.84443 277.15625,42.40625 96.7392,-4.73387 199.728,-18.30541 290.2188,-6.53125 34.7508,-14.33824 16.2595,-26.62369 3.25,-39.125 -95.6522,-34.26419 -191.2853,-14.35713 -286.9375,-14.125 l -302.18755,-42.4062495 -175,-19.5625005 -65.21875,-27.1875 -214.1875,-174.999997 c -7.54458,-2.59034 -15.11167,-4.58758 -22.65625,-4.34375 z m 2.46875,38.3125 c 9.96007,0.0173 19.30757,5.71683 23.125,23.375 13.09573,4.50261 26.24714,8.94876 27.96875,27.71875 11.54249,2.23594 24.78749,1.29676 25.875,23.0625 14.05166,1.13453 25.26147,6.63403 27.6875,25.562497 20.07314,-0.68184 23.77766,12.91933 28.59375,25.5625 11.71847,-0.45881 37.76806,20.85017 18.53125,44.5 -23.00596,22.0175905 -42.2599,1.46278 -48.09375,-15.65625 -11.52927,-2.03471 -20.51811,-8.01968 -23.71875,-23.03125 -18.54531,-4.22819 -29.5382,-12.67214 -30.75,-26.53125 -18.74408,-1.85228 -25.06846,-12.151527 -27.375,-25.218747 -18.36684,-0.134 -24.23279,-11.23646 -26.125,-25.84375 -35.3047,-11.89434 -28.42286,-33.59854 -15.4375,-47.5625 5.80955,-3.31239 12.90396,-5.94932 19.71875,-5.9375 z"
         id="path3977" />
      <path
         transform="matrix(0.12776022,0.11738209,-0.11738209,0.12776022,11.026901,34.760149)"
         style="fill:#000000;fill-opacity:1;stroke:none;filter:url(#filter4070)"
         d="m 240.90334,17.721819 22.07175,-38.12393 9.69819,0.33442 4.68189,-5.35072 9.36377,1.6721 3.3442,-10.36704 11.3703,2.00653 -2.34095,-11.70472 12.37356,-1.6721 -6.35399,-9.69819 13.71124,-5.01631 -6.68841,-10.03261 11.03587,-5.68515 -8.02609,-9.02935 10.36704,-7.69167 -6.01957,-11.035869 41.46813,-45.14676 c -27.73093,-66.54558 -17.84855,-115.1266 57.52032,-132.43049 l 437.16751,-61.0832 c 98.83794,-18.31961 185.3614,-62.2958 281.5148,-74.50169 96.1534,-12.20588 190.9541,13.1389 294.2078,-5.26709 18.3324,-6.31339 28.9028,1.60368 35.8381,16.18497 l 2.3121,13.87283 c -6.0284,12.98079 -17.9842,21.21959 -33.526,26.5896 -66.6534,32.19852 -195.2157,7.48777 -289.8844,16.18496 -129.2924,11.87807 -215.91043,65.41943 -276.01154,75.14451 l -276.30057,65.89596 c -70.79543,13.01407 -131.18858,32.26951 -156.06937,72.83237 -16.94855,71.879759 -92.79523,151.561129 -187.28323,157.803469 z"
         id="path3975"
         inkscape:connector-curvature="0"
         sodipodi:nodetypes="cccccccccccccccccccsccccsccccc" />
      <path
         sodipodi:nodetypes="cccccccccccccccccccsccccsccccc"
         inkscape:connector-curvature="0"
         id="path3755"
         d="m 39.791906,61.20615 7.294959,-2.279894 1.199787,1.18112 1.226238,-0.134039 1.000043,1.312766 1.644161,-0.931946 1.217141,1.591025 1.074844,-1.770184 1.777124,1.238807 0.326606,-1.984888 2.340576,0.968569 0.323136,-2.066868 2.07728,0.569078 0.03447,-2.095711 2.227359,0.234215 0.526352,-2.116535 10.597399,-0.900344 C 78.94773,42.264328 85.912847,37.217621 97.573157,43.853828 l 63.022693,43.511633 c 14.77795,9.261286 30.99422,13.799179 44.71155,23.526439 13.71733,9.72726 22.85407,24.09322 38.20632,33.8618 3.08323,1.3453 3.50438,3.59756 2.67886,6.27455 l -1.33303,2.04379 c -2.2939,0.95081 -4.78847,0.6 -7.40443,-0.53825 C 225.15993,148.82356 211.63539,130.5756 198.5196,120.57434 180.6069,106.91528 163.25577,103.58833 154.43568,97.776013 L 111.40046,73.762157 C 100.828,67.114722 90.851913,62.485727 82.911785,64.747488 72.309038,71.941406 53.265683,73.218474 40.461137,62.924798 Z"
         style="fill:#535353;fill-opacity:1;stroke:#000000;stroke-width:0.17349705px;stroke-linecap:butt;stroke-linejoin:miter;stroke-opacity:1" />
      <path
         id="path3894"
         d="M 94.233641,47.407887 C 93.782497,47.019502 93.278663,46.690213 92.700015,46.440603 L 75.065131,35.76763 73.176238,35.2912 c -8.814012,1.177798 -18.678489,1.547585 -26.013664,6.132704 -3.986253,2.389488 -7.21919,5.471096 -8.98202,9.903394 l -0.01079,1.285924 6.728038,-0.238786 0.923546,-2.022938 1.872498,0.542356 0.03164,-2.334365 2.022837,1.011806 0.615597,-2.136529 1.857993,1.28739 0.890655,-1.802824 1.421231,1.394135 1.823437,-1.704174 0.749953,2.124765 1.694727,-1.572097 0.82014,2.785631 1.665626,-1.171794 1.135337,1.801472 7.622998,-0.852256 c 3.436593,-0.226208 5.932437,0.857917 5.699722,5.744755 l 1.299491,32.780022 c 0.819102,4.545036 3.738132,9.075628 8.192687,13.601429 l 38.752293,40.25028 c 8.35021,13.55983 19.69666,25.59946 30.43181,37.95101 12.91509,10.75065 27.66602,21.10579 37.84507,33.23206 6.12282,2.24726 5.20246,-1.49288 5.00779,-4.61713 C 189.07634,193.06199 174.5215,184.3797 162.27371,173.1815 L 128.64389,132.29227 108.58214,109.25109 103.44111,98.122098 96.61833,50.622283 c -0.659837,-1.216541 -1.39217,-2.359949 -2.384689,-3.214396 z m -4.181793,5.1846 c 1.27047,1.171344 1.795686,2.996747 0.210649,5.700856 1.144587,2.112459 2.302916,4.22424 0.319609,6.824384 1.212211,1.640546 3.014638,3.075282 0.598671,5.983732 1.66207,1.794361 2.448695,3.812809 0.536781,6.515887 2.644585,2.269115 1.521341,4.441648 0.652564,6.622265 1.551011,1.316921 2.37782,7.097116 -2.855946,7.860566 -5.523717,0.112485 -5.570838,-4.77367 -4.306705,-7.64559 -1.234143,-1.613285 -1.680031,-3.433055 -0.326856,-5.726634 -1.873039,-2.717082 -2.286325,-5.086251 -0.814333,-6.999138 -2.177324,-2.436867 -1.77638,-4.49507 -0.537207,-6.435288 -2.330822,-2.173058 -1.777027,-4.280068 -0.304142,-6.36841 -3.114354,-5.663763 0.312556,-7.628892 3.610687,-7.888682 1.131045,0.258746 2.346957,0.754608 3.216228,1.556052 z"
         style="fill:#515151;fill-opacity:1;stroke:#a5a5a5;stroke-width:0.17349705px;stroke-linecap:butt;stroke-linejoin:miter;stroke-opacity:1"
         inkscape:connector-curvature="0"
         sodipodi:nodetypes="sccccccccccccccccccccccccccccccccccssccccccccccccs" />
      <path
         style="fill:#ea0c0c;fill-opacity:1;stroke:none;stroke-width:0.17349705px;stroke-linecap:butt;stroke-linejoin:miter;stroke-opacity:1;filter:url(#filter915)"
         d="m 160.59585,87.365461 c 14.77795,9.261286 30.99422,13.799179 44.71155,23.526439 13.71733,9.72726 22.85407,24.09322 38.20632,33.8618 3.08323,1.3453 3.50438,3.59756 2.67886,6.27455 l -1.33303,2.04379 c -2.2939,0.95081 -4.78847,0.6 -7.40443,-0.53825 -12.29519,-3.71023 -25.81973,-21.95819 -38.93552,-31.95945 -17.9127,-13.65906 -35.26383,-16.98601 -44.08392,-22.798327 -2.97649,-2.049697 6.16017,-10.410552 6.16017,-10.410552 z"
         id="path901"
         inkscape:connector-curvature="0"
         sodipodi:nodetypes="csccccscc" />
      <path
         inkscape:connector-curvature="0"
         id="path3789"
         d="m 92.120022,48.567662 c -3.940529,-3.480411 -11.085299,-2.00659 -13.102511,2.937606 -1.218804,2.775352 -0.293759,5.873571 -0.326185,8.794463 0.595666,10.262622 1.070808,20.544098 1.740188,30.795191 0.437291,3.027705 3.20764,5.190163 6.105395,5.693458 3.551867,0.686842 7.716618,-0.122759 10.133057,-3.015266 1.285297,-1.539294 1.448016,-3.646333 1.089271,-5.551755 -1.108463,-11.784716 -2.106343,-23.603971 -3.28206,-35.367552 -0.293122,-1.639275 -1.087623,-3.19289 -2.357155,-4.286145 z M 89.7791,52.822468 c 1.592138,1.327938 1.1647,3.723366 0.138863,5.274127 -0.01496,0.747101 0.732374,1.469509 0.94261,2.252474 0.75728,1.572688 0.387403,3.463845 -0.746423,4.738298 0.880971,1.225302 2.397443,2.602342 1.688404,4.260735 -0.251046,0.652509 -0.679692,1.201177 -1.119727,1.739615 1.36608,1.262062 2.325601,3.348311 1.376652,5.144981 -0.14931,0.673531 -1.28942,1.35116 -0.387095,1.823715 1.320618,1.04339 1.615419,2.907663 0.961834,4.410449 -0.104045,0.73489 -1.103573,1.650012 -0.356532,2.183119 1.559187,2.096982 1.074858,5.834379 -1.628378,6.764876 -2.143905,0.888319 -5.202928,-0.10085 -5.676697,-2.572354 -0.340148,-1.508033 -0.0429,-3.078635 0.589943,-4.464632 -1.39695,-1.471346 -1.589039,-3.825426 -0.425025,-5.507594 0.120013,-0.601651 -0.719147,-1.176278 -0.890519,-1.819511 -0.938202,-1.636959 -1.152256,-3.907233 0.22194,-5.362309 -1.434281,-1.362833 -2.201961,-3.525574 -1.182237,-5.356583 0.159931,-0.559677 1.008379,-1.123217 0.231208,-1.517814 -1.30718,-1.125985 -1.661347,-3.10793 -0.747133,-4.596049 0.222203,-0.66074 1.175438,-1.228936 0.490311,-1.90474 -0.939244,-1.734115 -1.652453,-4.396027 0.214601,-5.82639 1.406958,-1.002697 3.298548,-1.508545 4.882962,-0.586605 0.509631,0.239007 0.997721,0.538094 1.420438,0.922192 z"
         style="fill:#000000;fill-opacity:1;stroke:none;stroke-width:0.17349705" />
      <g
         id="g3838"
         clip-path="url(#clipPath)"
         transform="matrix(0.12776022,0.11738209,-0.11738209,0.12776022,53.843053,147.5523)"
         style="stroke:#292929;stroke-opacity:1">
        <g
           id="g3840"
           style="stroke:#292929;stroke-opacity:1">
          <path
             style="fill:none;stroke:#292929;stroke-width:10;stroke-opacity:1;filter:url(#filter)"
             d="m -374.27982,-349.81387 9.69819,0.33442 m 4.68189,-5.35072 9.36377,1.6721 m 3.3442,-10.36704 11.3703,2.00653 m -2.34095,-11.70472 12.37356,-1.6721 m -6.35399,-9.69819 13.71124,-5.01631 m -6.68841,-10.03261 11.03587,-5.68515 m -8.02609,-9.02936 10.36704,-7.69167 m 92.96888,-188.61312 437.16751,-61.0832 m 0,0 c 98.83794,-18.31961 185.36138,-62.2958 281.51478,-74.50169 m 0,0 c 96.1534,-12.20588 190.9541,13.1389 294.2078,-5.26709 m 0,0 c 18.3324,-6.31339 28.9028,1.60368 35.8381,16.18497 m 0,0 2.3121,13.87283"
             id="path3842"
             inkscape:connector-curvature="0"
             sodipodi:nodetypes="cccccccccccccccccccsccccsccccc" />
          <path
             style="fill:none;stroke:#292929;stroke-width:10;stroke-opacity:1;filter:url(#filter)"
             d="m -396.35157,-311.68994 22.07175,-38.12393 m 9.69819,0.33442 4.68189,-5.35072 m 9.36377,1.6721 3.3442,-10.36704 m 11.3703,2.00653 -2.34095,-11.70472 m 12.37356,-1.6721 -6.35399,-9.69819 m 13.71124,-5.01631 -6.68841,-10.03261 m 11.03587,-5.68515 -8.02609,-9.02936 m 10.36704,-7.69167 -6.01957,-11.03587 m 0,0 41.46813,-45.14676 m 0,0 c -27.73093,-66.54558 -17.84855,-115.1266 57.52032,-132.43049 M 832.26597,-721.45599 c -6.0284,12.98079 -17.9842,21.21959 -33.526,26.5896 m 0,0 c -66.6534,32.19852 -195.2157,7.48777 -289.8844,16.18496 m 0,0 c -129.2924,11.87807 -215.91041,65.41943 -276.01152,75.14451 m 0,0 -276.300567,65.89596 m 0,0 c -70.795433,13.01407 -131.188583,32.26951 -156.069373,72.83237 m 0,0 c -16.94855,71.87977 -92.79523,151.56114 -187.28323,157.80348"
             id="path3844"
             inkscape:connector-curvature="0"
             sodipodi:nodetypes="cccccccccccccccccccsccccsccccc" />
        </g>
      </g>
      <path
         sodipodi:nodetypes="ccccccc"
         inkscape:connector-curvature="0"
         style="fill:#fc0303;fill-opacity:1;stroke:none;stroke-width:0.17349705px;stroke-linecap:butt;stroke-linejoin:miter;stroke-opacity:1"
         d="m 126.35784,145.35699 c 8.35021,13.55983 17.32903,22.34397 28.06418,34.69552 12.91509,10.75065 27.66602,21.10579 37.84507,33.23206 6.12282,2.24726 5.20246,-1.49288 5.00779,-4.61713 -8.19854,-15.60545 -22.75338,-24.28774 -35.00117,-35.48594 l -28.0067,-32.89848 c -2.63523,-2.88439 -11.77177,1.10982 -7.90917,5.07397 z"
         id="path919" />
      <g
         transform="matrix(0.12776022,0.11738209,-0.11738209,0.12776022,11.026901,34.760149)"
         style="stroke:#292929;stroke-opacity:1"
         clip-path="url(#clipPaths)"
         id="g3909">
        <g
           style="stroke:#292929;stroke-opacity:1"
           id="g3911">
          <path
             id="path3913"
             d="m 265.85456,-240.10222 c -32.81686,39.36992 -73.24316,79.40672 -86.4962,127.47167 m 0,0 c -7.60107,25.68653 -9.30582,51.37305 0.4962,77.05958 m 0,0 4.96875,5.5 m 0,0 27.625,-27.25 m -3.96875,-12.1875 10.0625,-5 m -8.96875,-10.03125 12.53125,-3.59375 m -5.71875,-11.46875 12.90625,-1.78125 m -3.25,-11.125 11.46875,0.375 m 1.09375,-14.34375 11.46875,6.09375 m 1.0625,-13.28125 14.34375,8.625 m 2.5,-11.46875 11.84375,3.21875 m 29.03125,-33.34375 c 13.704,-14.36137 28.52487,-19.4927 46.59375,2.15625 m 0,0 133.34375,134.0625 m 0,0 c 21.20028,16.09658 51.25707,23.94302 87.8125,25.78125 m 0,0 321.4375,19.71875 m 0,0 c 88.31883,24.99038 183.42664,31.84443 277.15624,42.40625 m 0,0 c 96.7392,-4.73387 199.728,-18.30541 290.2188,-6.53125 M 404.94831,-232.47722 c 9.96007,0.0173 19.30757,5.71683 23.125,23.375 m 0,0 c 13.09573,4.50261 26.24714,8.94876 27.96875,27.71875 m 0,0 c 11.54249,2.23594 24.78749,1.29676 25.875,23.0625 m 0,0 c 14.05166,1.13453 25.26147,6.63403 27.6875,25.5625 m 0,0 c 20.07314,-0.68184 23.77766,12.91933 28.59375,25.5625 m 0,0 c 11.71847,-0.45881 37.76806,20.85017 18.53125,44.5 m -171.5,-163.84375 c 5.80955,-3.31239 12.90396,-5.94932 19.71875,-5.9375"
             style="fill:none;stroke:#292929;stroke-width:10;stroke-opacity:1;filter:url(#filterJ)"
             inkscape:connector-curvature="0"
             sodipodi:nodetypes="sccccccccccccccccccccccccccccccccccssccccccccccccs" />
          <path
             id="path3915"
             d="m 402.47956,-270.78972 c -3.42935,0.11083 -6.85189,0.67795 -10.28125,1.875 m 0,0 -116.46875,23.46875 m 0,0 -9.875,5.34375 m -53.40625,182.78125 -3.96875,-12.1875 m 10.0625,-5 -8.96875,-10.03125 m 12.53125,-3.59375 -5.71875,-11.46875 m 12.90625,-1.78125 -3.25,-11.125 m 11.46875,0.375 1.09375,-14.34375 m 11.46875,6.09375 1.0625,-13.28125 m 14.34375,8.625 2.5,-11.46875 m 11.84375,3.21875 29.03125,-33.34375 M 1465.4171,50.96028 c 34.7508,-14.33824 16.2595,-26.62369 3.25,-39.125 m 0,0 c -95.6522,-34.26419 -191.2853,-14.35713 -286.9375,-14.125 m 0,0 -302.18754,-42.40625 m 0,0 -175,-19.5625 m 0,0 -65.21875,-27.1875 m 0,0 -214.1875,-175 m 0,0 c -7.54458,-2.59034 -15.11167,-4.58758 -22.65625,-4.34375 m 154.25,208.09375 c -23.00596,22.01759 -42.2599,1.46278 -48.09375,-15.65625 m 0,0 c -11.52927,-2.03471 -20.51811,-8.01968 -23.71875,-23.03125 m 0,0 c -18.54531,-4.22819 -29.5382,-12.67214 -30.75,-26.53125 m 0,0 c -18.74408,-1.85228 -25.06846,-12.15153 -27.375,-25.21875 m 0,0 c -18.36684,-0.134 -24.23279,-11.23646 -26.125,-25.84375 m 0,0 c -35.3047,-11.89434 -28.42286,-33.59854 -15.4375,-47.5625"
             style="fill:none;stroke:#292929;stroke-width:10;stroke-opacity:1;filter:url(#filterJ)"
             inkscape:connector-curvature="0"
             sodipodi:nodetypes="sccccccccccccccccccccccccccccccccccssccccccccccccs" />
        </g>
      </g>
      <path
         inkscape:connector-curvature="0"
         id="path3761"
         d="m 91.997476,48.922431 c -4.281614,-3.918357 -13.07798,-1.701382 -13.27579,5.642503 l 1.975072,35.867239 c 0.832035,9.37701 18.4033,7.620167 16.779455,-1.466291 L 94.244182,53.681392 C 94.040905,51.600708 93.196328,50.01957 91.997476,48.922431 Z m -1.990844,3.64138 c 1.27047,1.171344 1.795686,2.996746 0.210649,5.700856 1.144587,2.112458 2.302916,4.224239 0.319609,6.824383 1.212211,1.640546 3.014638,3.075282 0.598671,5.983732 1.66207,1.794361 2.448694,3.812809 0.536781,6.515887 2.644585,2.269115 1.521341,4.441648 0.652564,6.622265 1.551011,1.316921 2.374151,7.101109 -2.859614,7.864559 -5.523717,0.112485 -5.570839,-4.77367 -4.306705,-7.645591 -1.234144,-1.613284 -1.676363,-3.437047 -0.323188,-5.730626 -1.873039,-2.717082 -2.289993,-5.082259 -0.818002,-6.995145 -2.177323,-2.436867 -1.772711,-4.499063 -0.533538,-6.43928 -2.330822,-2.173058 -1.78102,-4.283737 -0.308135,-6.372079 -3.114354,-5.663763 0.312881,-7.621231 3.611012,-7.881021 1.131044,0.258746 2.350624,0.750615 3.219896,1.55206 z"
         style="fill:#c5c5c5;fill-opacity:1;stroke:#000000;stroke-width:0.17349705px;stroke-linecap:butt;stroke-linejoin:miter;stroke-opacity:1" />
      <path
         id="path3783"
         d="m 66.158517,45.723915 c -1.052382,-1.95306 -6.911501,-5.40026 -12.897584,-4.553176 -4.601717,0.651184 -12.674289,5.024131 -14.43712,9.45643 l -0.01079,1.285924 6.728038,-0.238787 0.923546,-2.022937 1.872498,0.542356 0.03164,-2.334366 2.022837,1.011807 0.615596,-2.136529 1.857992,1.28739 0.890655,-1.802824 1.421232,1.394136 1.823437,-1.704174 0.749953,2.124765 1.694726,-1.572097 0.82014,2.785631 1.665627,-1.171795 1.135336,1.801472 3.554121,-0.492797 c -0.419782,-1.684008 -0.481177,-2.155683 -0.46188,-3.660429 z"
         style="fill:#000000;fill-opacity:1;stroke:none;stroke-width:0.17349705"
         inkscape:connector-curvature="0"
         sodipodi:nodetypes="csccccccccccccccccccc" />
      <path
         sodipodi:nodetypes="csccccccccccccccccccc"
         inkscape:connector-curvature="0"
         style="fill:#c8c8c8;fill-opacity:1;stroke:#444444;stroke-width:0.17349705px;stroke-linecap:butt;stroke-linejoin:miter;stroke-opacity:1"
         d="m 65.687752,46.469427 c -1.052382,-1.95306 -6.911501,-5.40026 -12.897583,-4.553176 -4.601718,0.651184 -12.67429,5.024131 -14.437121,9.45643 l -0.01079,1.285924 6.728039,-0.238787 0.923545,-2.022937 1.872498,0.542356 0.03164,-2.334366 2.022837,1.011806 0.615596,-2.136528 1.857992,1.28739 0.890655,-1.802824 1.421232,1.394136 1.823437,-1.704174 0.749953,2.124764 1.694726,-1.572096 0.82014,2.785631 1.665627,-1.171795 1.135336,1.801472 3.554122,-0.492797 c -0.41978,-1.684008 -0.481175,-2.155683 -0.461878,-3.660429 z"
         id="path3773" />
      <path
         sodipodi:nodetypes="cccccccccccccccccscc"
         inkscape:connector-curvature="0"
         id="path3785"
         d="m 40.155316,61.621026 7.294958,-2.279894 1.199788,1.18112 1.226238,-0.13404 1.000043,1.312767 1.644161,-0.931946 1.217141,1.591024 1.074844,-1.770183 1.777123,1.238807 0.326607,-1.984888 2.340576,0.968569 0.323136,-2.066868 2.07728,0.569078 0.03447,-2.095711 2.227359,0.234216 0.526352,-2.116535 2.744719,-0.395049 c 1.069018,5.95554 -0.02065,10.313513 -9.017631,11.632034 C 50.507,67.696913 44.947468,65.3489 40.824547,63.339673 Z"
         style="fill:#000000;fill-opacity:1;stroke:none;stroke-width:0.17349705" />
      <path
         style="fill:#c3c3c3;fill-opacity:1;stroke:#292929;stroke-width:0.17349705px;stroke-linecap:butt;stroke-linejoin:miter;stroke-opacity:1"
         d="m 39.695451,61.30561 7.294958,-2.279894 1.199788,1.18112 1.226238,-0.134039 1.000043,1.312766 1.64416,-0.931946 1.217141,1.591024 1.074845,-1.770183 1.777123,1.238807 0.326607,-1.984888 2.340576,0.968569 0.323136,-2.066868 2.07728,0.569078 0.03447,-2.09571 2.227359,0.234215 0.526352,-2.116535 2.744719,-0.395048 c 1.069018,5.955539 -0.02065,10.313513 -9.017631,11.632033 -7.665479,1.123386 -13.22501,-1.224627 -17.347932,-3.233853 z"
         id="path3779"
         inkscape:connector-curvature="0"
         sodipodi:nodetypes="cccccccccccccccccscc" />
      <ellipse
         ry="4.1238837"
         rx="4.0460744"
         cy="-17.683338"
         cx="101.25076"
         transform="rotate(42.575824)"
         id="path3781"
         style="fill:#bababa;fill-opacity:1;stroke:#292929;stroke-width:0.52049118;stroke-linecap:round;stroke-linejoin:round;stroke-miterlimit:4;stroke-dasharray:none;stroke-opacity:1" />
      <path
         sodipodi:nodetypes="ccccc"
         inkscape:connector-curvature="0"
         id="rect3793"
         d="m 111.03544,56.512642 35.4554,23.471376 -6.71299,7.132787 -35.03325,-19.943097 z"
         style="fill:#343434;fill-opacity:1;stroke:url(#linearGradient4098);stroke-width:0.52049118;stroke-miterlimit:4" />
      <rect
         style="fill:#343434;fill-opacity:1;stroke:url(#linearGradient4100);stroke-width:0.52049118;stroke-miterlimit:4;stroke-dasharray:none"
         id="rect3803"
         width="32.156734"
         height="6.1738391"
         x="153.94925"
         y="-6.9750915"
         transform="rotate(48.581249)" />
    </g>
  </g>
</svg>
