<?xml version="1.0" encoding="UTF-8" standalone="no"?>
<!-- Created with Inkscape (http://www.inkscape.org/) -->
<svg xmlns:a="http://ns.adobe.com/AdobeSVGViewerExtensions/3.0/" xmlns:dc="http://purl.org/dc/elements/1.1/" xmlns:cc="http://creativecommons.org/ns#" xmlns:rdf="http://www.w3.org/1999/02/22-rdf-syntax-ns#" xmlns:svg="http://www.w3.org/2000/svg" xmlns="http://www.w3.org/2000/svg" xmlns:xlink="http://www.w3.org/1999/xlink" xmlns:sodipodi="http://sodipodi.sourceforge.net/DTD/sodipodi-0.dtd" xmlns:inkscape="http://www.inkscape.org/namespaces/inkscape" id="svg2" inkscape:version="0.91 r13725" width="256" height="256" sodipodi:docname="package_edutainment_languages.svg">
 <metadata id="metadata8">
  <rdf:RDF>
   <cc:Work>
    <dc:format>image/svg+xml</dc:format>
    <dc:type rdf:resource="http://purl.org/dc/dcmitype/StillImage"/>
    <dc:title/>
   </cc:Work>
  </rdf:RDF>
 </metadata>
 <defs id="defs6">
  <linearGradient id="linearGradient4235">
   <stop id="stop4237" stop-color="#0000bc" stop-opacity="1"/>
   <stop offset="1" id="stop4239" stop-color="#00ccf0" stop-opacity="1"/>
  </linearGradient>
  <linearGradient id="linearGradient4489">
   <stop stop-opacity="1" stop-color="#bcb7b7" id="stop4491"/>
   <stop stop-opacity="1" stop-color="#ffffff" id="stop4493" offset="1"/>
  </linearGradient>
  <linearGradient id="linearGradient3785">
   <stop id="stop3787" stop-color="#c2c2c2" stop-opacity="1"/>
   <stop offset="1" id="stop3789" stop-color="#ffffff" stop-opacity="1"/>
  </linearGradient>
  <linearGradient id="linearGradient3775">
   <stop id="stop3777" stop-color="#ffffff" stop-opacity="1"/>
   <stop id="stop3779" offset="1" stop-color="#434343" stop-opacity="1"/>
  </linearGradient>
  <linearGradient id="linearGradient3757">
   <stop id="stop3759" stop-color="#144754" stop-opacity="1"/>
   <stop offset="1" id="stop3761" stop-color="#ffffff" stop-opacity="1"/>
  </linearGradient>
  <linearGradient inkscape:collect="always" xlink:href="#linearGradient3785" id="linearGradient3346" gradientUnits="userSpaceOnUse" gradientTransform="matrix(0.76044358,0,0,0.76044358,-185.1615,28.694898)" x1="146.42" y1="179.99" x2="156.87" y2="174.76"/>
  <linearGradient inkscape:collect="always" xlink:href="#linearGradient4489" id="linearGradient3350" gradientUnits="userSpaceOnUse" gradientTransform="matrix(0.76044358,0,0,0.76044358,-185.1615,28.694898)" spreadMethod="reflect" x1="32.56" y1="167.07" x2="77.21" y2="129.51"/>
  <linearGradient inkscape:collect="always" xlink:href="#linearGradient3757" id="linearGradient3374" gradientUnits="userSpaceOnUse" gradientTransform="matrix(0.76044358,0,0,0.76044358,-239.6409,-13.026352)" spreadMethod="reflect" x1="187.44" y1="136.9" x2="191.33" y2="136.9"/>
  <radialGradient inkscape:collect="always" xlink:href="#linearGradient3775" id="radialGradient3376" gradientUnits="userSpaceOnUse" spreadMethod="reflect" cx="119.08" cy="8.02" fx="119.08" fy="8.02" r="8.987" gradientTransform="matrix(0.76044358,0,0,0.76044358,-175.39821,30.891637)"/>
  <filter inkscape:collect="always" id="filter4254" x="-0.026" width="1.052" y="-0.022" height="1.045" color-interpolation-filters="sRGB">
   <feGaussianBlur inkscape:collect="always" stdDeviation="2.06922" id="feGaussianBlur4256"/>
  </filter>
  <linearGradient inkscape:collect="always" xlink:href="#linearGradient4235" id="linearGradient4229" gradientUnits="userSpaceOnUse" gradientTransform="matrix(0.76044358,0,0,0.76044358,-185.1615,28.694898)" spreadMethod="reflect" x1="32.56" y1="167.07" x2="77.21" y2="129.51"/>
 </defs>
 <sodipodi:namedview pagecolor="#ffffff" bordercolor="#666666" borderopacity="1" objecttolerance="10" gridtolerance="10" guidetolerance="10" inkscape:pageopacity="0" inkscape:pageshadow="2" inkscape:window-width="1920" inkscape:window-height="1056" id="namedview4" showgrid="false" inkscape:zoom="3.3984375" inkscape:cx="128" inkscape:cy="128" inkscape:window-x="0" inkscape:window-y="0" inkscape:window-maximized="1" inkscape:current-layer="svg2"/>
 <g id="g4495" transform="matrix(-0.99021037,0.13958304,0.13958304,0.99021037,-9.5956445,3.4682093)">
  <path transform="matrix(0.90056614,0,0,0.90056614,-229.17615,26.077066)" inkscape:connector-curvature="0" id="path30238" d="m 158.70496,14.523314 c -4.19123,0 -7.59375,3.40252 -7.59375,7.59375 0,4.044636 3.16826,7.336213 7.15625,7.5625 l 3.71875,7.96875 c -39.20722,30.159096 -55.12908,55.709473 -52.875,77.968746 0.52027,5.13773 2.51293,10.18959 8.125,11.65625 -19.824678,24.99309 -40.325828,42.97053 -62.312498,46.34375 15.79124,24.48587 58.034358,28.65757 71.812498,62.59375 23.95308,-11.44539 46.54655,-28.3236 57.71875,-60.6875 1.79746,-5.20692 0.93104,-7.65679 -0.9375,-8.15625 l -0.0313,0 -7.5,-9.375 c 7.64134,-9.90272 18.08066,-17.90885 29.875,-24.75 l -15.625,-34.874996 50.46875,108.406246 6.375,-2.96875 -82.40625,-176.999996 c 1.02427,-1.293629 1.625,-2.909332 1.625,-4.6875 0,-4.19123 -3.40252,-7.59375 -7.59375,-7.59375 z" fill="#062c38" filter="url(#filter4254)" stroke="none" fill-opacity="0.346"/>
  <path sodipodi:nodetypes="ccccc" inkscape:connector-curvature="0" id="rect3859" d="m -94.248765,171.01134 17.592343,-15.09538 11.009412,13.73339 -14.868374,17.93285 z" stroke-opacity="1" fill="url(#linearGradient3346)" stroke="#000000" fill-opacity="1" stroke-width="0.76"/>
  <path sodipodi:nodetypes="cscccsssscc" inkscape:connector-curvature="0" id="path3781" d="m -83.867417,52.370864 c -35.835923,27.401475 -50.371993,50.601656 -48.328263,70.783816 0.46854,4.62687 3.15119,7.70345 5.55695,11.67254 -17.85344,22.50793 -34.57292,37.52323 -54.37337,40.56103 14.22105,22.05114 52.27363,25.8212 64.68176,56.38298 21.571332,-10.30733 41.928198,-25.52857 51.989494,-54.6744 3.471871,-10.05742 -4.182031,-8.61595 -7.810629,-3.17307 l -4.881644,7.32246 c -7.279601,10.9194 -4.521104,-1.28597 -3.905315,-3.17306 5.61992,-17.22226 19.290388,-29.43052 35.880077,-39.05315 z" stroke-opacity="0.401" fill="url(#linearGradient3350)" stroke="#3caad1" stroke-linejoin="miter" fill-opacity="1" stroke-linecap="butt" stroke-width="0.76"/>
  <path inkscape:connector-curvature="0" id="path3849" d="m -129.73033,130.56225 47.996868,55.30074" fill="none" stroke="none"/>
  <path sodipodi:nodetypes="cc" inkscape:connector-curvature="0" id="path3851" d="m -130.2788,129.91648 48.172891,55.39883" stroke-opacity="0.264" fill="none" stroke="#3b8aa0" stroke-linejoin="miter" stroke-linecap="butt" stroke-width="0.76"/>
  <rect transform="matrix(0.90655385,-0.42209018,0.42209018,0.90655385,0,0)" y="1.861" x="-99.05" height="178.42" width="6.349" id="rect2987" stroke-opacity="1" fill="url(#linearGradient3374)" stroke="#000000" fill-opacity="1" stroke-width="0.76"/>
  <circle id="path3765" cx="-87.53" cy="38.946" r="6.834" fill="url(#radialGradient3376)" stroke="none" fill-opacity="1"/>
 </g>
 <g transform="matrix(-1,0,0,1,48.435737,0.58850534)" id="g4211">
  <path d="m 158.70496,14.523314 c -4.19123,0 -7.59375,3.40252 -7.59375,7.59375 0,4.044636 3.16826,7.336213 7.15625,7.5625 l 3.71875,7.96875 c -39.20722,30.159096 -55.12908,55.709473 -52.875,77.968746 0.52027,5.13773 2.51293,10.18959 8.125,11.65625 -19.824678,24.99309 -40.325828,42.97053 -62.312498,46.34375 15.79124,24.48587 58.034358,28.65757 71.812498,62.59375 23.95308,-11.44539 46.54655,-28.3236 57.71875,-60.6875 1.79746,-5.20692 0.93104,-7.65679 -0.9375,-8.15625 l -0.0313,0 -7.5,-9.375 c 7.64134,-9.90272 18.08066,-17.90885 29.875,-24.75 l -15.625,-34.874996 50.46875,108.406246 6.375,-2.96875 -82.40625,-176.999996 c 1.02427,-1.293629 1.625,-2.909332 1.625,-4.6875 0,-4.19123 -3.40252,-7.59375 -7.59375,-7.59375 z" id="path4213" inkscape:connector-curvature="0" transform="matrix(0.90056614,0,0,0.90056614,-229.17615,26.077066)" fill="#062c38" filter="url(#filter4254)" stroke="none" fill-opacity="0.346"/>
  <path d="m -94.248765,171.01134 17.592343,-15.09538 11.009412,13.73339 -14.868374,17.93285 z" id="path4215" inkscape:connector-curvature="0" sodipodi:nodetypes="ccccc" stroke-opacity="1" fill="url(#linearGradient3346)" stroke="#000000" fill-opacity="1" stroke-width="0.76"/>
  <path d="m -83.867417,52.370864 c -35.835923,27.401475 -50.371993,50.601656 -48.328263,70.783816 0.46854,4.62687 3.15119,7.70345 5.55695,11.67254 -17.85344,22.50793 -34.57292,37.52323 -54.37337,40.56103 14.22105,22.05114 52.27363,25.8212 64.68176,56.38298 21.571332,-10.30733 41.928198,-25.52857 51.989494,-54.6744 3.471871,-10.05742 -4.182031,-8.61595 -7.810629,-3.17307 l -4.881644,7.32246 c -7.279601,10.9194 -4.521104,-1.28597 -3.905315,-3.17306 5.61992,-17.22226 19.290388,-29.43052 35.880077,-39.05315 z" id="path4217" inkscape:connector-curvature="0" sodipodi:nodetypes="cscccsssscc" stroke-opacity="0.401" fill="url(#linearGradient4229)" stroke="#3caad1" stroke-linejoin="miter" fill-opacity="1" stroke-linecap="butt" stroke-width="0.76"/>
  <path d="m -129.73033,130.56225 47.996868,55.30074" id="path4219" inkscape:connector-curvature="0" fill="none" stroke="none"/>
  <path d="m -130.2788,129.91648 48.172891,55.39883" id="path4221" inkscape:connector-curvature="0" sodipodi:nodetypes="cc" stroke-opacity="0.264" fill="none" stroke="#3b8aa0" stroke-linejoin="miter" stroke-linecap="butt" stroke-width="0.76"/>
  <rect id="rect4223" width="6.349" height="178.42" x="-99.05" y="1.861" transform="matrix(0.90655385,-0.42209018,0.42209018,0.90655385,0,0)" stroke-opacity="1" fill="url(#linearGradient3374)" stroke="#000000" fill-opacity="1" stroke-width="0.76"/>
  <circle r="6.834" cy="38.946" cx="-87.53" id="circle4225" fill="url(#radialGradient3376)" stroke="none" fill-opacity="1"/>
 </g>
</svg>
