<?xml version="1.0" encoding="UTF-8" standalone="no"?>
<svg xmlns="http://www.w3.org/2000/svg" xmlns:xlink="http://www.w3.org/1999/xlink" width="128" height="128" viewBox="18 22 88 88">
  <linearGradient id="c" x1="63.92" x2="63.92" y1="154.565" y2="-100.935" gradientUnits="userSpaceOnUse">
    <stop offset="0" stop-color="#fff"/>
    <stop offset=".246" stop-color="#f6f6f6"/>
    <stop offset=".637" stop-color="#dfdfdf"/>
    <stop offset="1" stop-color="#c4c4c4"/>
  </linearGradient>
  <linearGradient id="a">
    <stop offset="0" stop-color="#b3b3b3"/>
    <stop offset="1" stop-color="#828282"/>
  </linearGradient>
  <linearGradient id="d" x1="-26.333" x2="56.166" y1="-26.333" y2="56.166" gradientUnits="userSpaceOnUse" xlink:href="#a"/>
  <linearGradient id="e" x1="43.023" x2="204.007" y1="25.421" y2="111.065" gradientUnits="userSpaceOnUse">
    <stop offset="0" stop-color="#fff"/>
    <stop offset=".86" stop-color="#dadada"/>
    <stop offset="1" stop-color="#d4d4d4"/>
  </linearGradient>
  <linearGradient id="f" x1="-3.728" x2="127.593" y1="10.651" y2="10.651" gradientUnits="userSpaceOnUse">
    <stop offset="0" stop-color="#b3caff"/>
    <stop offset="1" stop-color="#0053bd"/>
  </linearGradient>
  <radialGradient id="g" cx="108.467" cy="118.249" r="34.736" gradientUnits="userSpaceOnUse">
    <stop offset="0"/>
    <stop offset="1"/>
  </radialGradient>
  <linearGradient id="h" x1="104.017" x2="95.088" y1="98.181" y2="135.794" gradientUnits="userSpaceOnUse">
    <stop offset="0" stop-color="#fff"/>
    <stop offset="1" stop-color="#ccc"/>
  </linearGradient>
  <linearGradient id="i" x1="82.309" x2="96.104" y1="88.093" y2="101.888" gradientUnits="userSpaceOnUse" xlink:href="#a"/>
  <linearGradient id="j" x1="85.302" x2="41.845" y1="89.571" y2="46.114" gradientUnits="userSpaceOnUse">
    <stop offset="0" stop-color="#ffe692"/>
    <stop offset="1" stop-color="#ffffdc"/>
  </linearGradient>
  <linearGradient id="b">
    <stop offset="0" stop-color="#744426"/>
    <stop offset="1" stop-color="#de972b"/>
  </linearGradient>
  <linearGradient id="k" x1="88.085" x2="40.494" y1="92.355" y2="44.764" gradientUnits="userSpaceOnUse" xlink:href="#b"/>
  <linearGradient id="l" x1="53.9" x2="32.111" y1="108.346" y2="36.189" gradientUnits="userSpaceOnUse">
    <stop offset="0" stop-color="#ffb82d"/>
    <stop offset="1" stop-color="#ffffdc"/>
  </linearGradient>
  <linearGradient id="m" x1="49.556" x2="87.605" y1="62.829" y2="85.512" gradientUnits="userSpaceOnUse">
    <stop offset="0" stop-color="#ffa221"/>
    <stop offset="1" stop-color="#ffe192"/>
  </linearGradient>
  <linearGradient id="n" x1="62.388" x2="62.388" y1="74.371" y2="36.49" gradientUnits="userSpaceOnUse">
    <stop offset="0" stop-color="#ffac2d"/>
    <stop offset="1" stop-color="#ffffdc"/>
  </linearGradient>
  <linearGradient id="o" x1="80.296" x2="64.229" y1="64.916" y2="48.849" gradientUnits="userSpaceOnUse" xlink:href="#b"/>
  <linearGradient id="p" x1="73.049" x2="61.824" y1="42.362" y2="39.339" gradientUnits="userSpaceOnUse" xlink:href="#b"/>
  <path fill="url(#j)" d="m28.555 81.263v-36.18l37.352-20.586 29.923 27.165v35.968l-37.775 20.585z"/>
  <path fill="url(#k)" d="m65.446 23.661-37.352 20.585c-.305.168-.493.488-.493.836v36.18c0 .269.111.523.31.705l29.5 26.953c.301.275.743.329 1.101.134l37.775-20.586c.309-.167.5-.489.5-.839v-35.967c0-.269-.113-.525-.312-.707l-29.926-27.166c-.304-.274-.746-.325-1.103-.128zm.324 2.002c.966.877 28.503 25.875 29.106 26.421v34.979c-.955.52-35.537 19.365-36.681 19.988-.961-.879-28.086-25.664-28.684-26.21 0-.812 0-34.111 0-35.195.946-.521 35.118-19.354 36.259-19.983z"/>
  <path fill="url(#l)" d="m58.114 73.658.021 31.491-27.632-24.471-.025-33.994 26.253 23.25s.882.646 1.141 1.752c.26 1.104.242 1.972.242 1.972z"/>
  <path fill="url(#m)" d="m59.464 73.985-.023 31.49 34.832-18.733.025-33.993-33.405 17.511s-.913.647-1.181 1.752c-.269 1.105-.248 1.973-.248 1.973z"/>
  <path fill="url(#n)" d="m65.658 26.496 27.896 25.644-32.67 17.123s-1.26.424-2.066.349c-.807-.074-1.791-.889-1.791-.889l-25.806-23.11z"/>
  <path fill="url(#o)" d="m58.992 70.326 5.236-25.838 30.152 7.799-29.395-1.828z" opacity=".8"/>
  <path fill="url(#p)" d="m65.009 26.032-.78 18.456-33.272.706 31.608-1.985z" opacity=".7"/>
</svg>
