<?xml version="1.0" encoding="UTF-8" standalone="no"?>
<!-- Created with Inkscape (http://www.inkscape.org/) -->
<svg xmlns:dc="http://purl.org/dc/elements/1.1/" xmlns:cc="http://creativecommons.org/ns#" xmlns:rdf="http://www.w3.org/1999/02/22-rdf-syntax-ns#" xmlns:svg="http://www.w3.org/2000/svg" xmlns="http://www.w3.org/2000/svg" xmlns:xlink="http://www.w3.org/1999/xlink" xmlns:sodipodi="http://sodipodi.sourceforge.net/DTD/sodipodi-0.dtd" xmlns:inkscape="http://www.inkscape.org/namespaces/inkscape" width="255" height="255" viewBox="0 0 67.468749 67.468749" version="1.1" id="svg8" inkscape:version="0.92.5 (2060ec1f9f, 2020-04-08)" sodipodi:docname="xfce4-session-settings.svg">
 <defs id="defs2">
  <linearGradient inkscape:collect="always" id="linearGradient892">
   <stop id="stop888" stop-color="#fdfdfd" stop-opacity="1"/>
   <stop offset="1" id="stop890" stop-color="#454545" stop-opacity="1"/>
  </linearGradient>
  <linearGradient inkscape:collect="always" id="linearGradient910">
   <stop id="stop906" stop-color="#a6cfff" stop-opacity="1"/>
   <stop id="stop914" offset="0.803" stop-color="#165195" stop-opacity="0.988"/>
   <stop offset="1" id="stop908" stop-color="#000c19" stop-opacity="0.988"/>
  </linearGradient>
  <linearGradient id="linearGradient865" inkscape:collect="always">
   <stop id="stop861" stop-color="#292929" stop-opacity="1"/>
   <stop id="stop863" offset="1" stop-color="#ffffff" stop-opacity="1"/>
  </linearGradient>
  <linearGradient id="linearGradient859" inkscape:collect="always">
   <stop id="stop855" stop-color="#4d4d4d" stop-opacity="1"/>
   <stop id="stop857" offset="1" stop-color="#ffffff" stop-opacity="1"/>
  </linearGradient>
  <linearGradient id="linearGradient856" inkscape:collect="always">
   <stop stop-opacity="1" stop-color="#fbfbfb" id="stop852"/>
   <stop stop-opacity="1" stop-color="#535353" offset="0.738" id="stop860"/>
   <stop stop-opacity="1" stop-color="#000000" id="stop854" offset="1"/>
  </linearGradient>
  <linearGradient id="linearGradient903" inkscape:collect="always">
   <stop id="stop899" stop-color="#fcfcfc" stop-opacity="1"/>
   <stop offset="0.695" stop-opacity="1" stop-color="#383838" id="stop905"/>
   <stop id="stop901" offset="1" stop-color="#ffffff" stop-opacity="1"/>
  </linearGradient>
  <linearGradient id="linearGradient1689" inkscape:collect="always">
   <stop stop-opacity="1" stop-color="#515151" id="stop1685"/>
   <stop stop-opacity="1" stop-color="#ffffff" id="stop1687" offset="1"/>
  </linearGradient>
  <linearGradient inkscape:collect="always" id="linearGradient2820">
   <stop stop-opacity="0.667" stop-color="#fffd07" id="stop2822"/>
   <stop stop-opacity="0" stop-color="#fffd07" offset="1" id="stop2824"/>
  </linearGradient>
  <linearGradient inkscape:collect="always" id="linearGradient2810">
   <stop stop-opacity="0.726" stop-color="#fffd07" id="stop2812"/>
   <stop stop-opacity="0.511" stop-color="#ff4f07" offset="1" id="stop2814"/>
  </linearGradient>
  <linearGradient inkscape:collect="always" id="linearGradient2819">
   <stop stop-opacity="1" stop-color="#2a2a2a" id="stop2821"/>
   <stop stop-opacity="1" stop-color="#fdfdfd" offset="1" id="stop2823"/>
  </linearGradient>
  <linearGradient inkscape:collect="always" id="linearGradient2803">
   <stop stop-opacity="1" stop-color="#0c0c0c" id="stop2805"/>
   <stop stop-opacity="1" stop-color="#aeaeae" offset="1" id="stop2807"/>
  </linearGradient>
  <radialGradient inkscape:collect="always" xlink:href="#linearGradient2820" id="radialGradient3198" gradientUnits="userSpaceOnUse" gradientTransform="matrix(0.23254919,0,0,0.10123745,-294.30679,-6.1131224)" cx="14.276" cy="215.83" fx="14.276" fy="215.83" r="35.09"/>
  <linearGradient inkscape:collect="always" xlink:href="#linearGradient2810" id="linearGradient3200" gradientUnits="userSpaceOnUse" gradientTransform="matrix(0.11365423,-0.14003079,0.14003079,0.11365423,14.294784,267.36635)" x1="-1.568" y1="235.69" x2="46.1" y2="197.08"/>
  <linearGradient inkscape:collect="always" xlink:href="#linearGradient2803" id="linearGradient3212" gradientUnits="userSpaceOnUse" gradientTransform="matrix(0.3460235,0.00952223,-0.01261636,0.38934439,30.585415,236.33598)" spreadMethod="reflect" x1="16.848" y1="109.33" x2="25.851" y2="109.79"/>
  <linearGradient inkscape:collect="always" xlink:href="#linearGradient2819" id="linearGradient3214" gradientUnits="userSpaceOnUse" gradientTransform="matrix(0.3460235,0.00952223,-0.01261636,0.38934439,17.650743,236.40467)" x1="69.948" y1="105.46" x2="78.16" y2="108.24"/>
  <linearGradient inkscape:collect="always" xlink:href="#linearGradient865" id="linearGradient3216" gradientUnits="userSpaceOnUse" gradientTransform="matrix(-0.3460235,-0.00952223,-0.01261636,0.38934439,61.743276,237.89407)" x1="71.53" y1="100.76" x2="79.12" y2="101.07"/>
  <linearGradient spreadMethod="reflect" inkscape:collect="always" xlink:href="#linearGradient859" id="linearGradient3218" gradientUnits="userSpaceOnUse" gradientTransform="matrix(0.53620485,0.01475581,-0.01582879,0.48848243,6.8916523,210.88785)" x1="75.2" y1="115.86" x2="68.46" y2="116.79"/>
  <linearGradient inkscape:collect="always" xlink:href="#linearGradient1689" id="linearGradient4475" gradientUnits="userSpaceOnUse" gradientTransform="matrix(-0.53437581,-0.04664632,-0.04012416,0.48708897,75.266947,215.38383)" x1="73.41" y1="110.84" x2="76.28" y2="110.49"/>
  <radialGradient spreadMethod="reflect" gradientUnits="userSpaceOnUse" gradientTransform="matrix(-0.00734159,0.32318639,-0.08674337,-0.00197049,53.343385,208.22338)" r="90.93" fy="162.89" fx="158.24" cy="162.89" cx="158.24" id="radialGradient897" xlink:href="#linearGradient903" inkscape:collect="always"/>
  <radialGradient gradientUnits="userSpaceOnUse" gradientTransform="matrix(0.00733887,0.54117266,-0.14081514,0.00190961,44.931517,93.401144)" r="16.72" fy="55.611" fx="251.51" cy="55.611" cx="251.51" id="radialGradient858" xlink:href="#linearGradient856" inkscape:collect="always"/>
  <radialGradient inkscape:collect="always" xlink:href="#linearGradient910" id="radialGradient912" cx="32.701" cy="262.92" fx="30.786" fy="246" r="23.358" gradientUnits="userSpaceOnUse" gradientTransform="matrix(1.0696189,0,0,1.0696189,-2.365579,-18.730401)"/>
  <filter inkscape:collect="always" id="filter1255" x="-0.154" width="1.308" y="-0.047" height="1.094" color-interpolation-filters="sRGB">
   <feGaussianBlur inkscape:collect="always" stdDeviation="0.26507" id="feGaussianBlur1257"/>
  </filter>
  <filter inkscape:collect="always" id="filter1259" x="-0.019" width="1.039" y="-0.009" height="1.017" color-interpolation-filters="sRGB">
   <feGaussianBlur inkscape:collect="always" stdDeviation="0.05889" id="feGaussianBlur1261"/>
  </filter>
  <filter inkscape:collect="always" id="filter903" x="-0.046" width="1.092" y="-0.007" height="1.014" color-interpolation-filters="sRGB">
   <feGaussianBlur inkscape:collect="always" stdDeviation="0.52148" id="feGaussianBlur905"/>
  </filter>
  <filter inkscape:collect="always" id="filter4737" x="-0.033" width="1.067" y="-0.085" height="1.171" color-interpolation-filters="sRGB">
   <feGaussianBlur inkscape:collect="always" stdDeviation="0.55948" id="feGaussianBlur4739"/>
  </filter>
  <linearGradient inkscape:collect="always" xlink:href="#linearGradient892" id="linearGradient894" x1="28.11" y1="272.42" x2="29.407" y2="272.42" gradientUnits="userSpaceOnUse" spreadMethod="reflect" gradientTransform="translate(-0.15316402,1.0721481)"/>
  <linearGradient inkscape:collect="always" xlink:href="#linearGradient892" id="linearGradient898" gradientUnits="userSpaceOnUse" gradientTransform="translate(17.767026,1.0721481)" x1="28.11" y1="272.42" x2="29.407" y2="272.42" spreadMethod="reflect"/>
  <radialGradient inkscape:collect="always" xlink:href="#linearGradient856" id="radialGradient915" gradientUnits="userSpaceOnUse" gradientTransform="matrix(0.00733887,0.54117266,-0.14081514,0.00190961,34.278817,125.40879)" cx="251.51" cy="55.611" fx="251.51" fy="55.611" r="16.72"/>
  <radialGradient inkscape:collect="always" xlink:href="#linearGradient856" id="radialGradient919" gradientUnits="userSpaceOnUse" gradientTransform="matrix(0.00733887,0.54117266,-0.14081514,0.00190961,52.314085,125.50788)" cx="251.51" cy="55.611" fx="251.51" fy="55.611" r="16.72"/>
  <linearGradient inkscape:collect="always" xlink:href="#linearGradient2810" id="linearGradient923" gradientUnits="userSpaceOnUse" gradientTransform="matrix(0.11365423,-0.14003079,0.14003079,0.11365423,14.294784,267.36635)" x1="-1.568" y1="235.69" x2="46.1" y2="197.08"/>
  <linearGradient inkscape:collect="always" xlink:href="#linearGradient2810" id="linearGradient927" gradientUnits="userSpaceOnUse" gradientTransform="matrix(0.11365423,-0.14003079,0.14003079,0.11365423,14.294784,267.36635)" x1="-1.568" y1="235.69" x2="46.1" y2="197.08"/>
 </defs>
 <sodipodi:namedview id="base" pagecolor="#ff0000" bordercolor="#666666" borderopacity="1.0" inkscape:pageopacity="0" inkscape:pageshadow="2" inkscape:zoom="3.5254902" inkscape:cx="127.5" inkscape:cy="127.5" inkscape:document-units="mm" inkscape:current-layer="layer1" showgrid="false" inkscape:snap-to-guides="false" inkscape:snap-grids="false" inkscape:snap-others="false" inkscape:object-nodes="false" inkscape:snap-nodes="false" inkscape:snap-global="false" inkscape:window-width="1920" inkscape:window-height="1056" inkscape:window-x="0" inkscape:window-y="0" inkscape:window-maximized="1" units="px"/>
 <metadata id="metadata5">
  <rdf:RDF>
   <cc:Work>
    <dc:format>image/svg+xml</dc:format>
    <dc:type rdf:resource="http://purl.org/dc/dcmitype/StillImage"/>
    <dc:title/>
   </cc:Work>
  </rdf:RDF>
 </metadata>
 <g inkscape:label="Layer 1" inkscape:groupmode="layer" id="layer1" transform="translate(0,-229.53126)">
  <circle id="path1011" cx="32.612" cy="262.49" r="24.984" stroke-miterlimit="4" opacity="1" stroke-dasharray="none" stroke-opacity="1" fill="url(#radialGradient912)" fill-rule="nonzero" stroke="none" stroke-linejoin="round" fill-opacity="1" stroke-linecap="round" stroke-width="1.151" stroke-dashoffset="0"/>
  <g id="g4723" transform="matrix(1.0696189,0,0,1.0696189,46.372992,-19.385709)" fill="#ffffff" filter="url(#filter4737)" fill-opacity="0.419">
   <path inkscape:connector-curvature="0" id="path916" d="m -3.7539773,266.36936 -1.401465,0.9033 c -4.158699,-1.05341 0.277255,0.28905 -0.934827,0.90382 0,0 -1.305157,-0.69774 -2.024683,-0.65577 -0.681293,0.0397 -1.397117,1.00129 -2.0763587,0.94361 -0.522387,-0.0444 -1.188597,0.31179 -1.713073,0.28732 -0.968561,-0.0452 -2.499023,-1.44641 -3.062862,-0.82165 -0.651713,0.72213 1.321799,1.88579 2.284098,2.34146 0.65032,0.30794 2.391857,-0.26577 2.491837,0.32866 0.108485,0.64499 -1.698407,0.73278 -2.491837,0.90382 -0.589111,0.12699 -1.62645,-0.20189 -2.024683,0.16433 -0.05768,0.0531 -0.09336,0.12561 -0.112654,0.20671 -0.608124,-0.13295 -1.238437,-0.88878 -1.841748,-0.92398 -0.719526,-0.042 -2.024683,0.65526 -2.024683,0.65526 -1.212082,-0.61478 3.223872,-1.95672 -0.934827,-0.9033 l -0.31936,-0.20619 c 1.214191,-1.27716 4.413222,-3.34817 3.79305,-3.65094 -1.60685,-0.78449 -3.774739,2.3593 -5.490621,2.13578 -0.601986,-0.0784 -1.175423,-1.03931 -1.761132,-1.22989 -0.390988,-0.12723 -1.445744,-0.48937 -1.346688,0 0.47296,2.33655 0.517183,3.29724 0.334346,3.51761 -0.07613,-0.0612 -0.152749,-0.1145 -0.230477,-0.15245 -0.09127,-0.0446 -0.184864,-0.075 -0.279569,-0.0956 -0.6307,-0.71261 -1.567208,-2.45943 -1.896008,-2.36368 -0.625089,0.18204 -1.594223,-0.12887 -2.123901,0.32401 -0.407352,0.3483 0.198123,2.45869 0.466119,2.97657 0.490506,0.94785 0.898459,-1.75892 1.761136,-1.42369 0.26188,0.10177 0.498125,0.3495 0.727086,0.63975 -1.355469,0.56417 -2.874799,2.24402 -4.146001,2.07843 -0.601985,-0.0784 -1.175424,-1.03931 -1.761132,-1.2299 -0.390988,-0.12722 -0.948368,-0.0846 -1.346687,0 -0.649251,0.13785 -1.430343,0.71963 -2.071709,0.90641 -0.625089,0.18204 -1.594223,-0.1294 -2.123903,0.32349 -0.40735,0.3483 -1.04521,1.2939 -0.777213,1.81178 0.490505,0.94785 2.141794,-0.59413 3.004468,-0.2589 0.83426,0.32418 1.419452,2.07251 2.279449,2.26498 1.12705,0.25222 2.482513,-1.40622 3.625617,-1.48829 1.156189,-0.083 2.664619,1.35222 3.781682,0.97049 0.837562,-0.28622 1.994043,-1.32815 2.204,-2.39882 0.01838,1.3e-4 0.04576,-7.7e-4 0.06356,-5.2e-4 0.243485,0.003 0.504258,-0.0317 0.773079,-0.0832 0.386016,0.30832 0.776709,0.61943 1.149284,0.87592 -0.721047,-0.006 -1.370297,0.0558 -1.714624,0.35708 -0.472964,0.41384 -0.81988,1.50987 -0.259416,1.84847 0.705689,0.42633 1.91144,-0.63449 2.751254,-0.86248 0.736566,-0.19997 1.735818,-0.72284 2.491837,-0.57516 0.14493,0.0283 0.271941,0.10027 0.390674,0.19275 -0.01744,-1.3e-4 -0.03419,-0.002 -0.05168,-0.002 -2.473295,0 -4.481381,1.27508 -4.481381,2.84685 0,1.57177 2.008086,2.84634 4.481381,2.84634 0.897782,0 1.729076,-0.16286 2.430342,-0.45217 0.740237,0.60433 1.721494,0.97048 2.798795,0.97048 2.301737,0 4.1713227,-1.67983 4.1713217,-3.75171 0,-1.20453 -0.634481,-2.27353 -1.615922,-2.96002 -0.0081,-0.12118 -0.04803,-0.23228 -0.1286737,-0.30644 -0.169085,-0.1555 -0.455248,-0.18325 -0.771529,-0.17622 -0.50789,-0.19801 -1.066858,-0.30902 -1.655197,-0.30902 -0.320497,0 -0.632219,0.034 -0.931725,0.0961 -0.647065,-0.12414 -1.220424,-0.3083 -1.158069,-0.67903 0.09998,-0.59442 1.841517,-0.0207 2.491837,-0.32866 0.175645,-0.0832 0.388864,-0.19549 0.609782,-0.31884 1.052206,0.16134 2.3537407,0.32628 3.2654337,0.0522 0.586885,-0.17644 0.89633,-1.03125 1.505851,-1.15032 0.756019,-0.14767 1.755271,0.3752 2.491838,0.57516 0.839813,0.228 2.045564,1.28881 2.751253,0.86248 0.560464,-0.33859 0.213549,-1.43463 -0.259416,-1.84846 -1.046948,-0.91607 -4.898943,0.36354 -5.087545,-0.86248 -0.08164,-0.53069 1.354963,-0.70966 2.024683,-0.78032 0.990058,-0.10445 2.271934,0.50641 3.270601,0.49248 1.053954,-0.0147 3.150591,0.18908 3.426148,-0.61598 0.262116,-0.76579 -2.439645,-1.80713 -2.439645,-1.80713 -3.411901,1.43327 -3.333566,2.43227 -3.270601,0.0408 z m -14.7024617,7.58713 c 0.310869,0.1156 0.529005,0.27027 0.496094,0.48421 -0.06394,0.41568 -0.553085,0.5404 -1.207162,0.56327 0.247635,-0.28817 0.479669,-0.66388 0.711068,-1.04748 z" stroke-opacity="1" fill="#ffffff" fill-rule="evenodd" stroke="none" stroke-linejoin="miter" fill-opacity="0.419" stroke-linecap="butt" stroke-width="0.167"/>
   <path inkscape:connector-curvature="0" id="path4712" d="m -4.9414062,267.60742 c -0.8912474,-0.5159 -0.3226447,1.5929 -1.5410157,0.81641 -1.2821214,-1.11538 -2.3695787,0.0575 -3.5761721,0.43555 -1.543282,0.58895 -3.006856,0.0632 -4.388672,-0.67774 -0.691083,0.31562 1.084998,1.26942 1.468522,1.49221 0.813332,0.73028 3.6364069,-0.48708 3.0471034,1.40037 -1.2282934,1.02759 -3.1123294,0.68492 -4.5156254,0.93555 -0.812266,0.90648 -2.104426,-1.5261 -3.335937,-0.38282 -0.574371,0.63317 -1.833484,0.3303 -1.433594,-0.61523 -2.005193,0.28746 -0.82809,-1.33343 0.21875,-1.89063 0.814496,-0.55646 3.653713,-2.89557 1.072266,-1.54882 -1.397235,0.95598 -3.644052,2.91626 -5.089844,0.91992 -1.48779,-1.36509 -1.300238,0.14476 -0.974609,1.29101 0.210811,0.88739 0.08611,2.66025 -1.03711,1.6211 -1.074427,-0.8343 -1.382061,-2.92511 -3.146484,-2.2793 -1.122488,0.14238 -0.157456,1.71518 -0.04883,2.41797 0.26904,-1.25234 1.828626,-2.03137 2.539062,-0.625 0.581225,0.80124 -1.733017,1.11136 -2.197265,1.9043 -1.134795,1.01458 -2.915565,1.16742 -3.824219,-0.22657 -1.763824,-0.91668 -3.292978,1.32972 -5.171875,0.82813 -0.854019,0.12274 -1.57036,2.23345 -0.103516,1.36523 1.388572,-1.00244 2.875001,-0.0362 3.490235,1.33203 1.517086,1.73317 3.130973,-1.72906 4.990234,-0.82421 1.397303,0.70528 3.275721,1.54518 4.304688,-0.24024 0.380698,-1.44634 1.79839,-1.88523 2.858569,-0.60637 2.811791,1.70384 -1.660175,-0.0515 -1.835132,1.87395 0.04205,1.33269 1.788035,-0.34907 2.492187,-0.41211 2.572488,-0.75177 -0.02054,-0.003 1.53711,-1.60742 0.604792,-2.08694 2.609569,0.66057 0.800781,0.98633 1.031025,0.0171 3.083138,1.56853 0.917698,1.02204 -1.904036,-0.30618 -5.51871,1.21106 -3.933323,3.54241 1.605556,1.75445 4.354107,1.40578 6.298828,0.97265 2.564291,2.47044 7.8692738,-0.44881 5.9433596,-3.94921 -0.7785686,-1.74675 -2.6557236,-2.03734 -4.4003906,-1.78321 -1.049594,0.17368 -2.198898,-1.42864 -0.761719,-1.7207 1.720303,0.12849 3.172667,-0.56254 4.8945315,-0.18945 1.2054344,0.37695 2.0372988,-1.43667 2.8691406,-1.34961 -1.3200508,-0.40492 -0.4408546,-2.01309 0.6972657,-1.85742 0.7619153,-0.32155 2.017789,0.27184 1.5976562,-0.9043 -0.1091898,-0.72718 0.5338009,-2.78699 -0.7226562,-1.4668 z m 3.97656245,1.31446 c -0.88034165,0.47848 -3.43030105,1.35498 -0.89648435,1.38476 0.96732583,-0.11191 2.76133262,0.3894 3.3183593,-0.41211 -0.62241233,-0.46678 -1.63388595,-1.37374 -2.42187495,-0.97265 z m -2.76757815,2.99609 c -0.8482999,0.0959 -2.8139366,-0.0905 -0.953125,0.37109 1.0374475,0.0101 2.2660315,1.58397 3.1035157,0.89649 0.056855,-1.30286 -1.1913051,-1.31892 -2.1503907,-1.26758 z" stroke-opacity="1" fill="#ffffff" fill-rule="evenodd" stroke="none" stroke-linejoin="miter" fill-opacity="0.419" stroke-linecap="butt" stroke-width="0.167"/>
   <path inkscape:connector-curvature="0" id="path4716" d="m -4.6640625,267.89258 c -0.7138375,-0.1419 -0.7173782,1.64428 -1.7988281,0.99414 -1.8007991,-1.50176 -3.6127494,1.27504 -5.6445314,0.57226 -1.697832,-0.32894 0.646135,0.31509 1.203125,0.084 1.6532959,-0.30742 1.9889889,2.11967 0.353516,2.35351 -1.54312,0.42469 -3.221235,0.49244 -4.740235,0.64258 -0.893236,-0.5285 -1.901376,-1.214 -2.753906,-0.27344 -1.200062,0.56287 -1.466524,-0.93957 -2.380859,-1.0332 -1.14305,-0.65311 1.344338,-2.42874 -0.28711,-1.58789 -1.262674,0.63157 -2.438526,-0.77931 -3.107421,-1.13281 0.237548,1.09602 0.900527,3.88645 -1.033204,3.5 -0.7429,-0.79203 -1.641449,0.65281 -2.519531,0.83789 -1.186949,1.52655 -3.653342,1.49664 -4.796875,-0.0176 -1.694392,-0.14844 -3.200627,1.32878 -4.886719,1.12695 -0.952737,1.25817 1.038742,-0.46678 1.726563,0.0664 1.715361,-0.0401 1.950803,3.13207 3.705078,1.8418 1.232312,-1.1419 3.007986,-1.50664 4.398438,-0.42383 1.492389,0.88366 2.655688,-0.27444 3.21289,-1.55469 1.278504,-1.53984 3.161116,0.35598 3.986328,1 0.369743,-0.9605 1.521844,-2.61069 2.525391,-1.20703 0.638997,0.72894 -0.323552,1.68612 0.904297,1.89648 1.150304,0.59964 0.04597,1.732 -0.886719,1.12696 -1.565332,-0.26771 -4.734414,0.86569 -3.5625,2.90039 1.63383,1.79942 4.286368,0.99234 6.25,0.92383 2.393541,2.47328 7.5717645,-0.94909 5.0253906,-3.9961 -1.2445096,-2.24497 -4.8812666,0.26379 -5.5703126,-2.42968 0.234783,-1.88378 2.823238,-0.83334 4.082031,-1.38477 1.4257669,-0.0594 2.9274618,0.4207 3.8984379,-0.98633 -0.9468879,-1.82007 1.6562444,-2.40859 2.8164062,-2.36328 -0.2563568,-0.40082 0.154843,-1.52616 -0.1191406,-1.47656 z m 4.05078125,1.33203 c -0.91611235,0.36477 -2.04478865,0.84166 -0.37890625,0.6875 0.63219389,0.0794 2.5900915,0.18306 1.11523438,-0.47852 -0.22397697,-0.11663 -0.47557681,-0.23616 -0.73632813,-0.20898 z m -27.17382775,0.20117 c -0.939392,-0.17174 -0.466224,1.73819 0.0918,0.6582 0.89383,-0.30903 1.236278,-0.54961 -0.0918,-0.6582 z m 24.3222652,2.87891 c 0.3982578,0.42182 2.2011735,1.02926 1.0488282,0.10937 -0.3348601,-0.11457 -0.6982319,-0.12098 -1.0488282,-0.10937 z m -17.9550782,3.40429 c -0.996015,-0.38874 -1.993587,1.32373 -0.533203,0.36329 -0.197131,-0.035 1.093732,-0.44859 0.533203,-0.36329 z" stroke-opacity="1" fill="#ffffff" fill-rule="evenodd" stroke="none" stroke-linejoin="miter" fill-opacity="0.419" stroke-linecap="butt" stroke-width="0.167"/>
  </g>
  <g transform="matrix(-1.0696189,0,0,1.0696189,20.756259,-42.075767)" id="g4856" fill="#ffffff" filter="url(#filter4737)" fill-opacity="0.419">
   <path d="m -3.7539773,266.36936 -1.401465,0.9033 c -4.158699,-1.05341 0.277255,0.28905 -0.934827,0.90382 0,0 -1.305157,-0.69774 -2.024683,-0.65577 -0.681293,0.0397 -1.397117,1.00129 -2.0763587,0.94361 -0.522387,-0.0444 -1.188597,0.31179 -1.713073,0.28732 -0.968561,-0.0452 -2.499023,-1.44641 -3.062862,-0.82165 -0.651713,0.72213 1.321799,1.88579 2.284098,2.34146 0.65032,0.30794 2.391857,-0.26577 2.491837,0.32866 0.108485,0.64499 -1.698407,0.73278 -2.491837,0.90382 -0.589111,0.12699 -1.62645,-0.20189 -2.024683,0.16433 -0.05768,0.0531 -0.09336,0.12561 -0.112654,0.20671 -0.608124,-0.13295 -1.238437,-0.88878 -1.841748,-0.92398 -0.719526,-0.042 -2.024683,0.65526 -2.024683,0.65526 -1.212082,-0.61478 3.223872,-1.95672 -0.934827,-0.9033 l -0.31936,-0.20619 c 1.214191,-1.27716 4.413222,-3.34817 3.79305,-3.65094 -1.60685,-0.78449 -3.774739,2.3593 -5.490621,2.13578 -0.601986,-0.0784 -1.175423,-1.03931 -1.761132,-1.22989 -0.390988,-0.12723 -1.445744,-0.48937 -1.346688,0 0.47296,2.33655 0.517183,3.29724 0.334346,3.51761 -0.07613,-0.0612 -0.152749,-0.1145 -0.230477,-0.15245 -0.09127,-0.0446 -0.184864,-0.075 -0.279569,-0.0956 -0.6307,-0.71261 -1.567208,-2.45943 -1.896008,-2.36368 -0.625089,0.18204 -1.594223,-0.12887 -2.123901,0.32401 -0.407352,0.3483 0.198123,2.45869 0.466119,2.97657 0.490506,0.94785 0.898459,-1.75892 1.761136,-1.42369 0.26188,0.10177 0.498125,0.3495 0.727086,0.63975 -1.355469,0.56417 -2.874799,2.24402 -4.146001,2.07843 -0.601985,-0.0784 -1.175424,-1.03931 -1.761132,-1.2299 -0.390988,-0.12722 -0.948368,-0.0846 -1.346687,0 -0.649251,0.13785 -1.430343,0.71963 -2.071709,0.90641 -0.625089,0.18204 -1.594223,-0.1294 -2.123903,0.32349 -0.40735,0.3483 -1.04521,1.2939 -0.777213,1.81178 0.490505,0.94785 2.141794,-0.59413 3.004468,-0.2589 0.83426,0.32418 1.419452,2.07251 2.279449,2.26498 1.12705,0.25222 2.482513,-1.40622 3.625617,-1.48829 1.156189,-0.083 2.664619,1.35222 3.781682,0.97049 0.837562,-0.28622 1.994043,-1.32815 2.204,-2.39882 0.01838,1.3e-4 0.04576,-7.7e-4 0.06356,-5.2e-4 0.243485,0.003 0.504258,-0.0317 0.773079,-0.0832 0.386016,0.30832 0.776709,0.61943 1.149284,0.87592 -0.721047,-0.006 -1.370297,0.0558 -1.714624,0.35708 -0.472964,0.41384 -0.81988,1.50987 -0.259416,1.84847 0.705689,0.42633 1.91144,-0.63449 2.751254,-0.86248 0.736566,-0.19997 1.735818,-0.72284 2.491837,-0.57516 0.14493,0.0283 0.271941,0.10027 0.390674,0.19275 -0.01744,-1.3e-4 -0.03419,-0.002 -0.05168,-0.002 -2.473295,0 -4.481381,1.27508 -4.481381,2.84685 0,1.57177 2.008086,2.84634 4.481381,2.84634 0.897782,0 1.729076,-0.16286 2.430342,-0.45217 0.740237,0.60433 1.721494,0.97048 2.798795,0.97048 2.301737,0 4.1713227,-1.67983 4.1713217,-3.75171 0,-1.20453 -0.634481,-2.27353 -1.615922,-2.96002 -0.0081,-0.12118 -0.04803,-0.23228 -0.1286737,-0.30644 -0.169085,-0.1555 -0.455248,-0.18325 -0.771529,-0.17622 -0.50789,-0.19801 -1.066858,-0.30902 -1.655197,-0.30902 -0.320497,0 -0.632219,0.034 -0.931725,0.0961 -0.647065,-0.12414 -1.220424,-0.3083 -1.158069,-0.67903 0.09998,-0.59442 1.841517,-0.0207 2.491837,-0.32866 0.175645,-0.0832 0.388864,-0.19549 0.609782,-0.31884 1.052206,0.16134 2.3537407,0.32628 3.2654337,0.0522 0.586885,-0.17644 0.89633,-1.03125 1.505851,-1.15032 0.756019,-0.14767 1.755271,0.3752 2.491838,0.57516 0.839813,0.228 2.045564,1.28881 2.751253,0.86248 0.560464,-0.33859 0.213549,-1.43463 -0.259416,-1.84846 -1.046948,-0.91607 -4.898943,0.36354 -5.087545,-0.86248 -0.08164,-0.53069 1.354963,-0.70966 2.024683,-0.78032 0.990058,-0.10445 2.271934,0.50641 3.270601,0.49248 1.053954,-0.0147 3.150591,0.18908 3.426148,-0.61598 0.262116,-0.76579 -2.439645,-1.80713 -2.439645,-1.80713 -3.411901,1.43327 -3.333566,2.43227 -3.270601,0.0408 z m -14.7024617,7.58713 c 0.310869,0.1156 0.529005,0.27027 0.496094,0.48421 -0.06394,0.41568 -0.553085,0.5404 -1.207162,0.56327 0.247635,-0.28817 0.479669,-0.66388 0.711068,-1.04748 z" id="path4850" inkscape:connector-curvature="0" stroke-opacity="1" fill="#ffffff" fill-rule="evenodd" stroke="none" stroke-linejoin="miter" fill-opacity="0.419" stroke-linecap="butt" stroke-width="0.167"/>
   <path d="m -4.9414062,267.60742 c -0.8912474,-0.5159 -0.3226447,1.5929 -1.5410157,0.81641 -1.2821214,-1.11538 -2.3695787,0.0575 -3.5761721,0.43555 -1.543282,0.58895 -3.006856,0.0632 -4.388672,-0.67774 -0.691083,0.31562 1.084998,1.26942 1.468522,1.49221 0.813332,0.73028 3.6364069,-0.48708 3.0471034,1.40037 -1.2282934,1.02759 -3.1123294,0.68492 -4.5156254,0.93555 -0.812266,0.90648 -2.104426,-1.5261 -3.335937,-0.38282 -0.574371,0.63317 -1.833484,0.3303 -1.433594,-0.61523 -2.005193,0.28746 -0.82809,-1.33343 0.21875,-1.89063 0.814496,-0.55646 3.653713,-2.89557 1.072266,-1.54882 -1.397235,0.95598 -3.644052,2.91626 -5.089844,0.91992 -1.48779,-1.36509 -1.300238,0.14476 -0.974609,1.29101 0.210811,0.88739 0.08611,2.66025 -1.03711,1.6211 -1.074427,-0.8343 -1.382061,-2.92511 -3.146484,-2.2793 -1.122488,0.14238 -0.157456,1.71518 -0.04883,2.41797 0.26904,-1.25234 1.828626,-2.03137 2.539062,-0.625 0.581225,0.80124 -1.733017,1.11136 -2.197265,1.9043 -1.134795,1.01458 -2.915565,1.16742 -3.824219,-0.22657 -1.763824,-0.91668 -3.292978,1.32972 -5.171875,0.82813 -0.854019,0.12274 -1.57036,2.23345 -0.103516,1.36523 1.388572,-1.00244 2.875001,-0.0362 3.490235,1.33203 1.517086,1.73317 3.130973,-1.72906 4.990234,-0.82421 1.397303,0.70528 3.275721,1.54518 4.304688,-0.24024 0.380698,-1.44634 1.79839,-1.88523 2.858569,-0.60637 2.811791,1.70384 -1.660175,-0.0515 -1.835132,1.87395 0.04205,1.33269 1.788035,-0.34907 2.492187,-0.41211 2.572488,-0.75177 -0.02054,-0.003 1.53711,-1.60742 0.604792,-2.08694 2.609569,0.66057 0.800781,0.98633 1.031025,0.0171 3.083138,1.56853 0.917698,1.02204 -1.904036,-0.30618 -5.51871,1.21106 -3.933323,3.54241 1.605556,1.75445 4.354107,1.40578 6.298828,0.97265 2.564291,2.47044 7.8692738,-0.44881 5.9433596,-3.94921 -0.7785686,-1.74675 -2.6557236,-2.03734 -4.4003906,-1.78321 -1.049594,0.17368 -2.198898,-1.42864 -0.761719,-1.7207 1.720303,0.12849 3.172667,-0.56254 4.8945315,-0.18945 1.2054344,0.37695 2.0372988,-1.43667 2.8691406,-1.34961 -1.3200508,-0.40492 -0.4408546,-2.01309 0.6972657,-1.85742 0.7619153,-0.32155 2.017789,0.27184 1.5976562,-0.9043 -0.1091898,-0.72718 0.5338009,-2.78699 -0.7226562,-1.4668 z m 3.97656245,1.31446 c -0.88034165,0.47848 -3.43030105,1.35498 -0.89648435,1.38476 0.96732583,-0.11191 2.76133262,0.3894 3.3183593,-0.41211 -0.62241233,-0.46678 -1.63388595,-1.37374 -2.42187495,-0.97265 z m -2.76757815,2.99609 c -0.8482999,0.0959 -2.8139366,-0.0905 -0.953125,0.37109 1.0374475,0.0101 2.2660315,1.58397 3.1035157,0.89649 0.056855,-1.30286 -1.1913051,-1.31892 -2.1503907,-1.26758 z" id="path4852" inkscape:connector-curvature="0" stroke-opacity="1" fill="#ffffff" fill-rule="evenodd" stroke="none" stroke-linejoin="miter" fill-opacity="0.419" stroke-linecap="butt" stroke-width="0.167"/>
   <path d="m -4.6640625,267.89258 c -0.7138375,-0.1419 -0.7173782,1.64428 -1.7988281,0.99414 -1.8007991,-1.50176 -3.6127494,1.27504 -5.6445314,0.57226 -1.697832,-0.32894 0.646135,0.31509 1.203125,0.084 1.6532959,-0.30742 1.9889889,2.11967 0.353516,2.35351 -1.54312,0.42469 -3.221235,0.49244 -4.740235,0.64258 -0.893236,-0.5285 -1.901376,-1.214 -2.753906,-0.27344 -1.200062,0.56287 -1.466524,-0.93957 -2.380859,-1.0332 -1.14305,-0.65311 1.344338,-2.42874 -0.28711,-1.58789 -1.262674,0.63157 -2.438526,-0.77931 -3.107421,-1.13281 0.237548,1.09602 0.900527,3.88645 -1.033204,3.5 -0.7429,-0.79203 -1.641449,0.65281 -2.519531,0.83789 -1.186949,1.52655 -3.653342,1.49664 -4.796875,-0.0176 -1.694392,-0.14844 -3.200627,1.32878 -4.886719,1.12695 -0.952737,1.25817 1.038742,-0.46678 1.726563,0.0664 1.715361,-0.0401 1.950803,3.13207 3.705078,1.8418 1.232312,-1.1419 3.007986,-1.50664 4.398438,-0.42383 1.492389,0.88366 2.655688,-0.27444 3.21289,-1.55469 1.278504,-1.53984 3.161116,0.35598 3.986328,1 0.369743,-0.9605 1.521844,-2.61069 2.525391,-1.20703 0.638997,0.72894 -0.323552,1.68612 0.904297,1.89648 1.150304,0.59964 0.04597,1.732 -0.886719,1.12696 -1.565332,-0.26771 -4.734414,0.86569 -3.5625,2.90039 1.63383,1.79942 4.286368,0.99234 6.25,0.92383 2.393541,2.47328 7.5717645,-0.94909 5.0253906,-3.9961 -1.2445096,-2.24497 -4.8812666,0.26379 -5.5703126,-2.42968 0.234783,-1.88378 2.823238,-0.83334 4.082031,-1.38477 1.4257669,-0.0594 2.9274618,0.4207 3.8984379,-0.98633 -0.9468879,-1.82007 1.6562444,-2.40859 2.8164062,-2.36328 -0.2563568,-0.40082 0.154843,-1.52616 -0.1191406,-1.47656 z m 4.05078125,1.33203 c -0.91611235,0.36477 -2.04478865,0.84166 -0.37890625,0.6875 0.63219389,0.0794 2.5900915,0.18306 1.11523438,-0.47852 -0.22397697,-0.11663 -0.47557681,-0.23616 -0.73632813,-0.20898 z m -27.17382775,0.20117 c -0.939392,-0.17174 -0.466224,1.73819 0.0918,0.6582 0.89383,-0.30903 1.236278,-0.54961 -0.0918,-0.6582 z m 24.3222652,2.87891 c 0.3982578,0.42182 2.2011735,1.02926 1.0488282,0.10937 -0.3348601,-0.11457 -0.6982319,-0.12098 -1.0488282,-0.10937 z m -17.9550782,3.40429 c -0.996015,-0.38874 -1.993587,1.32373 -0.533203,0.36329 -0.197131,-0.035 1.093732,-0.44859 0.533203,-0.36329 z" id="path4854" inkscape:connector-curvature="0" stroke-opacity="1" fill="#ffffff" fill-rule="evenodd" stroke="none" stroke-linejoin="miter" fill-opacity="0.419" stroke-linecap="butt" stroke-width="0.167"/>
  </g>
  <path inkscape:connector-curvature="0" sodipodi:nodetypes="cccc" id="path4432" d="m 40.1833,283.032 c 3.881603,-15.42673 10.965776,-31.81857 -1.174001,-45.54264 -13.202957,12.16332 -6.192122,30.9639 -2.592741,45.46397 1.683683,0.53314 2.568801,0.59098 3.766742,0.0787 z" stroke-opacity="1" fill="url(#radialGradient897)" fill-rule="evenodd" stroke="none" stroke-linejoin="miter" fill-opacity="1" stroke-linecap="butt" stroke-width="0.221"/>
  <ellipse id="path2818" transform="matrix(-0.11445697,-1.0634774,1.0620791,-0.1267774,-12.03138,-17.747438)" cx="-290.99" cy="15.736" rx="8.18" ry="3.552" stroke-miterlimit="4" opacity="1" stroke-dasharray="none" stroke-opacity="1" fill="url(#radialGradient3198)" filter="url(#filter1259)" stroke="none" fill-opacity="1" stroke-width="0"/>
  <path d="m 45.769666,280.66027 -0.719155,9.19565 0.08634,3.21745 0.874201,-4.12394 -0.04825,4.90672 0.636556,-5.21607 0.230698,4.00906 0.573667,-4.03065 -0.319314,4.68671 0.903674,-4.43723 -0.01878,4.59341 0.509845,-4.64447 0.166873,3.39523 0.531431,-3.84012 -0.651928,-8.06033 z" id="path1921" sodipodi:nodetypes="cccccccccccccccc" inkscape:connector-curvature="0" stroke-miterlimit="4" transform="matrix(1.0696189,0,0,1.0696189,-12.03138,-17.747438)" stroke-dasharray="none" stroke-opacity="1" fill="url(#linearGradient3200)" filter="url(#filter1255)" fill-rule="evenodd" stroke="#000000" stroke-linejoin="miter" fill-opacity="1" stroke-linecap="butt" stroke-width="0"/>
  <path sodipodi:nodetypes="ccccc" id="path2799" d="m 40.028275,282.60414 c 0.803006,-2.02198 3.30113,-11.03202 2.399254,-7.85079 -2.36886,1.38491 -5.574372,1.24224 -8.087947,-0.29225 -1.28064,-4.20013 1.957475,6.82224 2.122899,8.06069 1.339211,0.51243 2.196741,0.67931 3.565794,0.0824 z" inkscape:connector-curvature="0" stroke-miterlimit="4" stroke-dasharray="none" stroke-opacity="1" fill="url(#linearGradient3212)" fill-rule="evenodd" stroke="none" stroke-linejoin="miter" fill-opacity="1" stroke-linecap="butt" stroke-width="0"/>
  <path d="m 42.209313,273.86294 c -0.693741,0.74215 -1.358254,1.51926 -1.419342,3.01826 l -0.910796,5.34089 2.130532,2.74477 0.739983,-1.92956 z" id="path2809" sodipodi:nodetypes="cccccc" inkscape:connector-curvature="0" stroke-miterlimit="4" stroke-dasharray="none" stroke-opacity="1" fill="url(#linearGradient3214)" fill-rule="evenodd" stroke="none" stroke-linejoin="miter" fill-opacity="1" stroke-linecap="butt" stroke-width="0"/>
  <path sodipodi:nodetypes="cccccc" id="path2827" d="m 34.803031,273.93514 c 0.644443,0.77898 1.25746,1.59124 1.221381,3.09094 l 0.563344,5.38145 -2.304463,2.62273 -0.613724,-1.96682 z" inkscape:connector-curvature="0" stroke-miterlimit="4" stroke-dasharray="none" stroke-opacity="1" fill="url(#linearGradient3216)" fill-rule="evenodd" stroke="none" stroke-linejoin="miter" fill-opacity="1" stroke-linecap="butt" stroke-width="0"/>
  <path sodipodi:nodetypes="cccccc" id="path2831" d="m 45.299388,258.09307 c -1.067757,0.92568 -2.089911,1.89547 -2.170245,3.77607 l -1.360136,6.69484 3.433137,7.34892 1.911104,-2.3047 z" inkscape:connector-curvature="0" stroke-miterlimit="4" stroke-dasharray="none" stroke-opacity="1" fill="url(#linearGradient3218)" fill-rule="evenodd" stroke="none" stroke-linejoin="miter" fill-opacity="1" stroke-linecap="butt" stroke-width="0"/>
  <path inkscape:connector-curvature="0" d="m 31.714,257.88827 c 0.95492,1.04169 1.859491,2.12199 1.724288,3.99944 l 0.585782,6.80644 -4.250839,6.90821 -1.635075,-2.50808 z" id="path4473" sodipodi:nodetypes="cccccc" stroke-miterlimit="4" stroke-dasharray="none" stroke-opacity="1" fill="url(#linearGradient4475)" fill-rule="evenodd" stroke="none" stroke-linejoin="miter" fill-opacity="1" stroke-linecap="butt" stroke-width="0"/>
  <path d="m 38.378963,238.26421 c -0.179777,0.54588 1.407423,0.62348 1.281748,0.0445 -0.588155,-2.70954 -0.469073,-5.61702 -0.49049,-8.4717 0.02884,-0.23462 -0.234576,-0.20524 -0.231538,0.0159 -0.04347,2.85618 0.259819,5.92276 -0.55972,8.41124 z" id="path848" inkscape:connector-curvature="0" sodipodi:nodetypes="ssccs" stroke-opacity="1" fill="url(#radialGradient858)" stroke="none" stroke-linejoin="miter" fill-opacity="1" stroke-linecap="butt" stroke-width="0.058"/>
  <path d="M 84.001137,206.12468 C 119.68123,148.27408 161.7679,102.0718 220.53452,86.196715 l -5.00799,0.790734 C 159.10164,98.297133 117.11035,142.66442 82.419671,203.75248 Z" id="path847" inkscape:connector-curvature="0" sodipodi:nodetypes="ccccc" transform="matrix(0.14332829,-0.14565242,0.14565242,0.14332829,-5.4190416,257.73496)" stroke-opacity="1" fill="#ffffff" filter="url(#filter903)" stroke="none" stroke-linejoin="miter" fill-opacity="0.304" stroke-linecap="butt" stroke-width="0.26"/>
  <path d="m 45.769666,280.66027 -0.719155,9.19565 0.08634,3.21745 0.874201,-4.12394 -0.04825,4.90672 0.636556,-5.21607 0.230698,4.00906 0.573667,-4.03065 -0.319314,4.68671 0.903674,-4.43723 -0.01878,4.59341 0.509845,-4.64447 0.166873,3.39523 0.531431,-3.84012 -0.651928,-8.06033 z" id="path925" sodipodi:nodetypes="cccccccccccccccc" inkscape:connector-curvature="0" stroke-miterlimit="4" transform="matrix(0.62204333,0,0,0.71832661,-0.77568731,74.434797)" stroke-dasharray="none" stroke-opacity="1" fill="url(#linearGradient927)" filter="url(#filter1255)" fill-rule="evenodd" stroke="#000000" stroke-linejoin="miter" fill-opacity="1" stroke-linecap="butt" stroke-width="0"/>
  <rect id="rect886" width="3.063" height="7.199" x="26.957" y="269.89" ry="0.766" rx="1.532" opacity="0.976" stroke-dasharray="none" stroke-opacity="1" paint-order="normal" fill="url(#linearGradient894)" fill-rule="nonzero" stroke="none" stroke-linejoin="round" fill-opacity="1" stroke-linecap="butt" stroke-width="0.08" stroke-dashoffset="0" stroke-miterlimit="4"/>
  <path transform="matrix(0.62204333,0,0,0.71832661,17.085895,74.885089)" stroke-miterlimit="4" inkscape:connector-curvature="0" sodipodi:nodetypes="cccccccccccccccc" id="path921" d="m 45.769666,280.66027 -0.719155,9.19565 0.08634,3.21745 0.874201,-4.12394 -0.04825,4.90672 0.636556,-5.21607 0.230698,4.00906 0.573667,-4.03065 -0.319314,4.68671 0.903674,-4.43723 -0.01878,4.59341 0.509845,-4.64447 0.166873,3.39523 0.531431,-3.84012 -0.651928,-8.06033 z" stroke-dasharray="none" stroke-opacity="1" fill="url(#linearGradient923)" filter="url(#filter1255)" fill-rule="evenodd" stroke="#000000" stroke-linejoin="miter" fill-opacity="1" stroke-linecap="butt" stroke-width="0"/>
  <rect rx="1.532" ry="0.766" y="269.89" x="44.877" height="7.199" width="3.063" id="rect896" opacity="0.976" stroke-dasharray="none" stroke-opacity="1" paint-order="normal" fill="url(#linearGradient898)" fill-rule="nonzero" stroke="none" stroke-linejoin="round" fill-opacity="1" stroke-linecap="butt" stroke-width="0.08" stroke-dashoffset="0" stroke-miterlimit="4"/>
  <ellipse id="path900" cx="28.486" cy="270.59" rx="1.305" ry="0.606" opacity="0.976" stroke-dasharray="none" stroke-opacity="1" fill="#454545" fill-rule="nonzero" stroke="none" stroke-linejoin="round" fill-opacity="1" stroke-linecap="butt" stroke-width="0.057" stroke-dashoffset="0" stroke-miterlimit="4"/>
  <ellipse ry="0.606" rx="1.305" cy="270.64" cx="46.43" id="ellipse902" opacity="0.976" stroke-dasharray="none" stroke-opacity="1" fill="#454545" fill-rule="nonzero" stroke="none" stroke-linejoin="round" fill-opacity="1" stroke-linecap="butt" stroke-width="0.057" stroke-dashoffset="0" stroke-miterlimit="4"/>
  <path sodipodi:nodetypes="ssccs" inkscape:connector-curvature="0" id="path913" d="m 27.726263,270.27186 c -0.179777,0.54588 1.407423,0.62348 1.281748,0.0445 -0.588155,-2.70954 -0.469073,-5.61702 -0.49049,-8.4717 0.02884,-0.23462 -0.234576,-0.20524 -0.231538,0.0159 -0.04347,2.85618 0.259819,5.92276 -0.55972,8.41124 z" stroke-opacity="1" fill="url(#radialGradient915)" stroke="none" stroke-linejoin="miter" fill-opacity="1" stroke-linecap="butt" stroke-width="0.058"/>
  <path d="m 45.761531,270.37095 c -0.179777,0.54588 1.407423,0.62348 1.281748,0.0445 -0.588155,-2.70954 -0.469073,-5.61702 -0.49049,-8.4717 0.02884,-0.23462 -0.234576,-0.20524 -0.231538,0.0159 -0.04347,2.85618 0.259819,5.92276 -0.55972,8.41124 z" id="path917" inkscape:connector-curvature="0" sodipodi:nodetypes="ssccs" stroke-opacity="1" fill="url(#radialGradient919)" stroke="none" stroke-linejoin="miter" fill-opacity="1" stroke-linecap="butt" stroke-width="0.058"/>
 </g>
</svg>
