<?xml version="1.0" encoding="UTF-8" standalone="no"?>
<!-- Created with Inkscape (http://www.inkscape.org/) -->
<svg xmlns:dc="http://purl.org/dc/elements/1.1/" xmlns:cc="http://creativecommons.org/ns#" xmlns:rdf="http://www.w3.org/1999/02/22-rdf-syntax-ns#" xmlns:svg="http://www.w3.org/2000/svg" xmlns="http://www.w3.org/2000/svg" xmlns:xlink="http://www.w3.org/1999/xlink" xmlns:sodipodi="http://sodipodi.sourceforge.net/DTD/sodipodi-0.dtd" xmlns:inkscape="http://www.inkscape.org/namespaces/inkscape" id="svg2" sodipodi:version="0.32" inkscape:version="0.48.0 r9654" width="256" height="256" sodipodi:docname="cdrom_unmount.svg" inkscape:output_extension="org.inkscape.output.svg.inkscape">
 <metadata id="metadata7">
  <rdf:RDF>
   <cc:Work>
    <dc:format>image/svg+xml</dc:format>
    <dc:type rdf:resource="http://purl.org/dc/dcmitype/StillImage"/>
   </cc:Work>
  </rdf:RDF>
 </metadata>
 <defs id="defs5">
  <linearGradient id="linearGradient3901">
   <stop id="stop3903" stop-color="#5a5a5a" stop-opacity="0.837"/>
   <stop id="stop3905" offset="1" stop-color="#ffffff" stop-opacity="0.886"/>
  </linearGradient>
  <linearGradient id="linearGradient3895">
   <stop id="stop3897" stop-color="white" stop-opacity="1"/>
   <stop offset="1" id="stop3899" stop-color="#ffffff" stop-opacity="0"/>
  </linearGradient>
  <linearGradient id="linearGradient3939">
   <stop id="stop3941" stop-color="#0f0f0f" stop-opacity="1"/>
   <stop id="stop3951" offset="0.185" stop-color="#0f0f0f" stop-opacity="0"/>
   <stop id="stop3947" offset="0.254" stop-color="#0f0f0f" stop-opacity="1"/>
   <stop offset="0.9" id="stop3949" stop-color="#0f0f0f" stop-opacity="1"/>
   <stop offset="1" id="stop3943" stop-color="#0f0f0f" stop-opacity="0"/>
  </linearGradient>
  <linearGradient id="linearGradient3894">
   <stop id="stop3896" stop-color="#736d6d" stop-opacity="1"/>
   <stop id="stop3898" offset="1" stop-color="#dedede" stop-opacity="1"/>
  </linearGradient>
  <linearGradient id="linearGradient2820">
   <stop id="stop2822" stop-color="#878787" stop-opacity="1"/>
   <stop offset="1" id="stop2824" stop-color="#e6e6e6" stop-opacity="1"/>
  </linearGradient>
  <linearGradient y2="-7.475" x2="16.09" y1="-7.475" x1="13.515" spreadMethod="reflect" gradientUnits="userSpaceOnUse" id="linearGradient2595" xlink:href="#linearGradient3578" inkscape:collect="always"/>
  <linearGradient y2="-7.475" x2="16.09" y1="-2.21" x1="15.65" spreadMethod="reflect" gradientUnits="userSpaceOnUse" id="linearGradient3610" xlink:href="#linearGradient3578" inkscape:collect="always"/>
  <linearGradient y2="-7.475" x2="16.09" y1="-6.409" x1="10.621" spreadMethod="reflect" gradientUnits="userSpaceOnUse" id="linearGradient3608" xlink:href="#linearGradient3578" inkscape:collect="always"/>
  <linearGradient y2="-1.513" x2="9.718" y1="-5.887" x1="11.187" spreadMethod="reflect" gradientUnits="userSpaceOnUse" id="linearGradient3606" xlink:href="#linearGradient3578" inkscape:collect="always"/>
  <linearGradient y2="-4.516" x2="12.916" y1="-3.754" x1="7.771" spreadMethod="reflect" gradientUnits="userSpaceOnUse" id="linearGradient3604" xlink:href="#linearGradient3578" inkscape:collect="always"/>
  <linearGradient y2="-3.733" x2="14.94" y1="-2.275" x1="17.08" spreadMethod="reflect" gradientUnits="userSpaceOnUse" id="linearGradient3602" xlink:href="#linearGradient3578" inkscape:collect="always"/>
  <linearGradient y2="-1.992" x2="17.377" y1="-6.256" x1="15.582" spreadMethod="reflect" gradientUnits="userSpaceOnUse" id="linearGradient3600" xlink:href="#linearGradient3578" inkscape:collect="always"/>
  <linearGradient y2="-7.475" x2="16.09" y1="-10.978" x1="16.691" spreadMethod="reflect" gradientUnits="userSpaceOnUse" id="linearGradient3598" xlink:href="#linearGradient3578" inkscape:collect="always"/>
  <linearGradient y2="-11.199" x2="11.132" y1="-11.391" x1="16.387" spreadMethod="reflect" gradientUnits="userSpaceOnUse" id="linearGradient3596" xlink:href="#linearGradient3578" inkscape:collect="always"/>
  <linearGradient y2="-2.688" x2="8.696" y1="-11.587" x1="12.04" spreadMethod="reflect" gradientUnits="userSpaceOnUse" id="linearGradient3594" xlink:href="#linearGradient3578" inkscape:collect="always"/>
  <linearGradient y2="-5.778" x2="11.372" y1="-10.151" x1="12.906" spreadMethod="reflect" gradientUnits="userSpaceOnUse" id="linearGradient3592" xlink:href="#linearGradient3578" inkscape:collect="always"/>
  <linearGradient y2="-6.953" x2="17.747" y1="-5.908" x1="16.387" spreadMethod="reflect" gradientUnits="userSpaceOnUse" id="linearGradient3590" xlink:href="#linearGradient3578" inkscape:collect="always"/>
  <linearGradient y2="-8.02" x2="17.07" y1="-7.475" x1="13.515" spreadMethod="reflect" gradientUnits="userSpaceOnUse" id="linearGradient3588" xlink:href="#linearGradient3578" inkscape:collect="always"/>
  <linearGradient y2="-6.583" x2="18.617" y1="-5.212" x1="16.909" spreadMethod="reflect" gradientUnits="userSpaceOnUse" id="linearGradient3586" xlink:href="#linearGradient3578" inkscape:collect="always"/>
  <linearGradient id="linearGradient3578">
   <stop id="stop3580" stop-color="#000000" stop-opacity="1"/>
   <stop id="stop3582" offset="1" stop-color="#fffcfc" stop-opacity="1"/>
  </linearGradient>
  <linearGradient inkscape:collect="always" xlink:href="#linearGradient3901" id="linearGradient3133" gradientUnits="userSpaceOnUse" gradientTransform="matrix(1.044015,0,0,1.044015,-18.324153,-13.442546)" x1="104.51" y1="94.41" x2="155.73" y2="174.3"/>
  <linearGradient inkscape:collect="always" xlink:href="#linearGradient2820" id="linearGradient3135" gradientUnits="userSpaceOnUse" gradientTransform="matrix(1.044015,0,0,1.044015,-18.324153,-13.442546)" x1="134.95" y1="180.35" x2="134.95" y2="84.73"/>
  <linearGradient inkscape:collect="always" xlink:href="#linearGradient3895" id="linearGradient3138" gradientUnits="userSpaceOnUse" gradientTransform="matrix(1.031712,0,0,1.044015,-15.384277,-12.674454)" x1="119.32" y1="21.894" x2="142.84" y2="128.8"/>
  <linearGradient inkscape:collect="always" xlink:href="#linearGradient3894" id="linearGradient3141" gradientUnits="userSpaceOnUse" x1="136.17" y1="242.08" x2="124.07" y2="19.972" gradientTransform="matrix(1.044015,0,0,1.044015,-17.060475,-14.074385)"/>
  <radialGradient inkscape:collect="always" xlink:href="#linearGradient3939" id="radialGradient3144" gradientUnits="userSpaceOnUse" gradientTransform="matrix(1.0881626,0,0,1.0883231,-21.790481,-21.332715)" cx="138.66" cy="139.38" fx="138.66" fy="139.38" r="108.59"/>
  <radialGradient r="10.569" fy="208.66" fx="42.711" cy="208.66" cx="42.711" gradientTransform="matrix(0.992941,-0.118613,0.336764,2.819139,-2.049359,-483.0378)" gradientUnits="userSpaceOnUse" id="radialGradient2845" xlink:href="#linearGradient2800-7" inkscape:collect="always"/>
  <radialGradient r="10.569" fy="208.66" fx="42.711" cy="208.66" cx="42.711" gradientTransform="matrix(0.992941,-0.118613,0.336764,2.819139,-30.58901,-473.645)" gradientUnits="userSpaceOnUse" id="radialGradient2843" xlink:href="#linearGradient2800-7" inkscape:collect="always"/>
  <radialGradient r="10.569" fy="208.66" fx="42.711" cy="208.66" cx="42.711" gradientTransform="matrix(0.992941,-0.118613,0.336764,2.819139,-15.77729,-464.2522)" gradientUnits="userSpaceOnUse" id="radialGradient2841" xlink:href="#linearGradient2800-7" inkscape:collect="always"/>
  <radialGradient r="13.615" fy="198.62" fx="33.22" cy="198.62" cx="33.22" gradientTransform="matrix(-1.830178,-0.384681,-1.120656,5.331681,363.0788,-954.2015)" gradientUnits="userSpaceOnUse" id="radialGradient2839" xlink:href="#linearGradient2760-2" inkscape:collect="always"/>
  <radialGradient r="13.615" fy="198.62" fx="33.22" cy="198.62" cx="33.22" gradientTransform="matrix(1.830178,-0.384681,1.120656,5.331681,-180.9624,-930.1084)" gradientUnits="userSpaceOnUse" id="radialGradient2837" xlink:href="#linearGradient2760-2" inkscape:collect="always"/>
  <radialGradient r="11.85" fy="84.84" fx="98.09" cy="84.84" cx="98.09" gradientTransform="matrix(2.129682,-0.176196,0.592417,7.16053,-168.98,-477.4319)" gradientUnits="userSpaceOnUse" id="radialGradient2835" xlink:href="#linearGradient2760-2" inkscape:collect="always"/>
  <radialGradient r="11.85" fy="84.84" fx="98.09" cy="84.84" cx="98.09" gradientTransform="matrix(2.129682,-0.176196,0.592417,7.16053,-152.5529,-502.3463)" gradientUnits="userSpaceOnUse" id="radialGradient2833" xlink:href="#linearGradient2760-2" inkscape:collect="always"/>
  <radialGradient r="11.85" fy="84.84" fx="98.09" cy="84.84" cx="98.09" gradientTransform="matrix(2.129682,-0.176196,0.592417,7.16053,-161.5878,-492.7638)" gradientUnits="userSpaceOnUse" id="radialGradient2831" xlink:href="#linearGradient2760-2" inkscape:collect="always"/>
  <radialGradient r="11.85" fy="84.84" fx="98.09" cy="84.84" cx="98.09" gradientTransform="matrix(2.129682,-0.176196,0.592417,7.16053,-175.5508,-509.7385)" gradientUnits="userSpaceOnUse" id="radialGradient2829" xlink:href="#linearGradient2760-2" inkscape:collect="always"/>
  <linearGradient id="linearGradient2760-2">
   <stop id="stop2762-7" stop-color="#ede200" stop-opacity="1"/>
   <stop offset="0.25" id="stop2770" stop-color="#e21116" stop-opacity="1"/>
   <stop offset="0.5" id="stop2768" stop-color="#72080c" stop-opacity="1"/>
   <stop id="stop2764-2" offset="1" stop-color="#63181d" stop-opacity="1"/>
  </linearGradient>
  <linearGradient id="linearGradient2800-7">
   <stop id="stop2802" stop-color="#e5e549" stop-opacity="1"/>
   <stop offset="0.5" id="stop2808" stop-color="#ffdf4c" stop-opacity="1"/>
   <stop id="stop2804" offset="1" stop-color="#957411" stop-opacity="1"/>
  </linearGradient>
 </defs>
 <sodipodi:namedview inkscape:window-height="1022" inkscape:window-width="1680" inkscape:pageshadow="2" inkscape:pageopacity="0.0" guidetolerance="10.0" gridtolerance="10.0" objecttolerance="10.0" borderopacity="1.0" bordercolor="#666666" pagecolor="#ffffff" id="base" inkscape:zoom="2.39" inkscape:cx="128" inkscape:cy="128" inkscape:window-x="-2" inkscape:window-y="0" inkscape:current-layer="svg2" showgrid="false" inkscape:window-maximized="1"/>
 <g inkscape:label="1. réteg" id="layer1" transform="translate(0.3708297,1.0013055)">
  <g id="g2637">
   <g id="g3612" transform="translate(-2.5722563,0)">
    <g id="g2650" stroke-opacity="1" fill="url(#linearGradient2595)" font-family="Bitstream Vera Sans" stroke="none" font-style="normal" stroke-linejoin="miter" fill-opacity="1" font-weight="normal" stroke-linecap="butt" stroke-width="1" font-size="12">
     <path id="path2652" d="M 16.1875,-12.21875 L 12.09375,-12.1875 L 12.800857,-11.480393 L 16.894607,-11.511643 L 16.1875,-12.21875 z" fill="url(#linearGradient2595)" fill-opacity="1"/>
     <path id="path2654" d="M 12.09375,-12.1875 L 8.75,-3.4375 L 9.4571068,-2.7303932 L 12.800857,-11.480393 L 12.09375,-12.1875 z" fill="url(#linearGradient2595)" fill-opacity="1"/>
     <path id="path2662" d="M 14.75,-5.6875 L 15.53125,-3.46875 L 16.238357,-2.7616432 L 15.457107,-4.9803932 L 14.75,-5.6875 z" fill="url(#linearGradient2595)" fill-opacity="1"/>
     <path id="path2664" d="M 15.53125,-3.46875 L 15.53125,-3.4375 L 16.238357,-2.7303932 L 16.238357,-2.7616432 L 15.53125,-3.46875 z" fill="url(#linearGradient2595)" fill-opacity="1"/>
     <path id="path2672" d="M 17.92037,-11.519527 C 17.478803,-11.961094 16.896486,-12.233764 16.1875,-12.21875 L 16.894607,-11.511643 C 17.603593,-11.526657 18.185909,-11.253988 18.627477,-10.81242 L 17.92037,-11.519527 z" fill="url(#linearGradient2595)" fill-opacity="1"/>
     <path id="path2674" d="M 16.21875,-11.96875 C 16.818366,-11.965939 17.317195,-11.725944 17.700221,-11.342918 L 18.407328,-10.635811 C 18.024302,-11.018837 17.525473,-11.258832 16.925857,-11.261643 L 16.21875,-11.96875 z" fill="url(#linearGradient3598)" fill-opacity="1"/>
     <path id="path2676" d="M 17.700221,-11.342918 C 19.261676,-9.7814631 18.898615,-5.8429893 15.59375,-5.90625 L 16.300857,-5.1991432 C 19.605722,-5.1358825 19.968783,-9.0743563 18.407328,-10.635811 L 17.700221,-11.342918 z" fill="url(#linearGradient2595)" fill-opacity="1"/>
     <path id="path2678" d="M 15.59375,-5.90625 L 16.375,-3.71875 L 17.082107,-3.0116432 L 16.300857,-5.1991432 L 15.59375,-5.90625 z" fill="url(#linearGradient2595)" fill-opacity="1"/>
     <path id="path2680" d="M 16.375,-3.71875 L 15.71875,-3.71875 L 16.425857,-3.0116432 L 17.082107,-3.0116432 L 16.375,-3.71875 z" fill="url(#linearGradient2595)" fill-opacity="1"/>
     <path id="path2684" d="M 14.875,-5.96875 L 10.5625,-5.96875 L 11.269607,-5.2616432 L 15.582107,-5.2616432 L 14.875,-5.96875 z" fill="url(#linearGradient2595)" fill-opacity="1"/>
     <path id="path2686" d="M 10.5625,-5.96875 L 9.75,-3.75 L 10.457107,-3.0428932 L 11.269607,-5.2616432 L 10.5625,-5.96875 z" fill="url(#linearGradient2595)" fill-opacity="1"/>
     <path id="path2690" d="M 9.1875,-3.75 L 12.28125,-11.90625 L 12.988357,-11.199143 L 9.8946068,-3.0428932 L 9.1875,-3.75 z" fill="url(#linearGradient3594)" fill-opacity="1"/>
     <path id="path2660" d="M 10.8125,-5.6875 L 14.75,-5.6875 L 15.457107,-4.9803932 L 11.519607,-4.9803932 L 10.8125,-5.6875 z" fill="url(#linearGradient3608)" fill-opacity="1"/>
     <path id="path2682" d="M 15.71875,-3.71875 L 14.875,-5.96875 L 15.582107,-5.2616432 L 16.425857,-3.0116432 L 15.71875,-3.71875 z" fill="url(#linearGradient3610)" fill-opacity="1"/>
     <path id="path2688" d="M 9.75,-3.75 L 9.1875,-3.75 L 9.8946068,-3.0428932 L 10.457107,-3.0428932 L 9.75,-3.75 z" fill="url(#linearGradient2595)" fill-opacity="1"/>
     <path id="path2692" d="M 12.28125,-11.90625 L 16.21875,-11.96875 L 16.925857,-11.261643 L 12.988357,-11.199143 L 12.28125,-11.90625 z" fill="url(#linearGradient3596)" fill-opacity="1"/>
     <path id="path2694" d="M 13.59375,-11.375 L 15.4375,-6.4375 L 16.144607,-5.7303932 L 14.300857,-10.667893 L 13.59375,-11.375 z" fill="url(#linearGradient2595)" fill-opacity="1"/>
     <path id="path2698" d="M 17.29651,-10.694689 C 16.87154,-11.11966 16.292483,-11.392236 15.59375,-11.375 L 16.300857,-10.667893 C 16.99959,-10.685129 17.578646,-10.412554 18.003617,-9.9875826 L 17.29651,-10.694689 z" fill="url(#linearGradient2595)" fill-opacity="1"/>
     <path id="path2700" d="M 15.59375,-11.375 L 13.59375,-11.375 L 14.300857,-10.667893 L 16.300857,-10.667893 L 15.59375,-11.375 z" fill="url(#linearGradient2595)" fill-opacity="1"/>
     <path id="path2702" d="M 12.5,-11.25 L 10.71875,-6.375 L 11.425857,-5.6678932 L 13.207107,-10.542893 L 12.5,-11.25 z" fill="url(#linearGradient2595)" fill-opacity="1"/>
     <path id="path2704" d="M 10.71875,-6.375 L 14.71875,-6.3125 L 15.425857,-5.6053932 L 11.425857,-5.6678932 L 10.71875,-6.375 z" fill="url(#linearGradient2595)" fill-opacity="1"/>
     <path id="path2706" d="M 14.71875,-6.3125 L 12.96875,-11.25 L 13.675857,-10.542893 L 15.425857,-5.6053932 L 14.71875,-6.3125 z" fill="url(#linearGradient2595)" fill-opacity="1"/>
     <path id="path2708" d="M 12.96875,-11.25 L 12.5,-11.25 L 13.207107,-10.542893 L 13.675857,-10.542893 L 12.96875,-11.25 z" fill="url(#linearGradient2595)" fill-opacity="1"/>
     <path id="path2710" d="M 13.96875,-11.125 L 15.5625,-11.125 L 16.269607,-10.417893 L 14.675857,-10.417893 L 13.96875,-11.125 z" fill="url(#linearGradient2595)" fill-opacity="1"/>
     <path id="path2712" d="M 15.5625,-11.125 C 16.263236,-11.142285 16.807643,-10.897983 17.18911,-10.516516 L 17.896217,-9.8094094 C 17.51475,-10.190876 16.970342,-10.435179 16.269607,-10.417893 L 15.5625,-11.125 z" fill="url(#linearGradient2595)" fill-opacity="1"/>
     <path id="path2714" d="M 17.18911,-10.516516 C 18.415922,-9.2897044 17.957455,-6.644214 15.59375,-6.71875 L 16.300857,-6.0116432 C 18.664562,-5.9371073 19.123029,-8.5825976 17.896217,-9.8094094 L 17.18911,-10.516516 z" fill="url(#linearGradient3588)" fill-opacity="1"/>
     <path id="path2716" d="M 15.59375,-6.71875 L 13.96875,-11.125 L 14.675857,-10.417893 L 16.300857,-6.0116432 L 15.59375,-6.71875 z" fill="url(#linearGradient2595)" fill-opacity="1"/>
     <path id="path2696" d="M 15.4375,-6.4375 C 18.434536,-6.3628978 18.668368,-9.3228317 17.29651,-10.694689 L 18.003617,-9.9875826 C 19.375475,-8.6157249 19.141643,-5.655791 16.144607,-5.7303932 L 15.4375,-6.4375 z" fill="url(#linearGradient3590)" fill-opacity="1"/>
     <path id="path2722" d="M 11.15625,-6.65625 L 12.75,-11.03125 L 13.457107,-10.324143 L 11.863357,-5.9491432 L 11.15625,-6.65625 z" fill="url(#linearGradient3592)" fill-opacity="1"/>
     <path id="path2718" d="M 12.75,-11.03125 L 14.375,-6.65625 L 15.082107,-5.9491432 L 13.457107,-10.324143 L 12.75,-11.03125 z" fill="url(#linearGradient2595)" fill-opacity="1"/>
     <path id="path2720" d="M 14.375,-6.65625 L 11.15625,-6.65625 L 11.863357,-5.9491432 L 15.082107,-5.9491432 L 14.375,-6.65625 z" fill="url(#linearGradient2595)" fill-opacity="1"/>
     <path id="path2670" d="M 15.96875,-5.6875 C 19.235011,-5.6249782 19.618583,-9.8213136 17.92037,-11.519527 L 18.627477,-10.81242 C 20.32569,-9.1142068 19.942118,-4.9178714 16.675857,-4.9803932 L 15.96875,-5.6875 z" fill="url(#linearGradient3586)" fill-opacity="1"/>
     <path id="path2668" d="M 16.78125,-3.4375 L 15.96875,-5.6875 L 16.675857,-4.9803932 L 17.488357,-2.7303932 L 16.78125,-3.4375 z" fill="url(#linearGradient3600)" fill-opacity="1"/>
     <path id="path2666" d="M 15.53125,-3.4375 L 16.78125,-3.4375 L 17.488357,-2.7303932 L 16.238357,-2.7303932 L 15.53125,-3.4375 z" fill="url(#linearGradient3602)" fill-opacity="1"/>
     <path id="path2656" d="M 8.75,-3.4375 L 10,-3.4375 L 10.707107,-2.7303932 L 9.4571068,-2.7303932 L 8.75,-3.4375 z" fill="url(#linearGradient3604)" fill-opacity="1"/>
     <path id="path2658" d="M 10,-3.4375 L 10.8125,-5.6875 L 11.519607,-4.9803932 L 10.707107,-2.7303932 L 10,-3.4375 z" fill="url(#linearGradient3606)" fill-opacity="1"/>
    </g>
    <path id="path2505" d="M 16.1875,-12.175236 L 12.09375,-12.143986 L 8.7499996,-3.3939857 L 9.9999996,-3.3939857 L 10.8125,-5.6439857 L 14.75,-5.6439857 L 15.53125,-3.4252357 L 15.53125,-3.3939857 L 16.78125,-3.3939857 L 15.96875,-5.6439857 C 20.084301,-5.565207 19.623157,-12.247993 16.1875,-12.175236 z M 16.21875,-11.925236 C 19.262779,-11.910965 19.709301,-5.7839571 15.59375,-5.8627357 L 16.375,-3.6752357 L 15.71875,-3.6752357 L 14.875,-5.9252357 L 10.5625,-5.9252357 L 9.7499996,-3.7064857 L 9.1874996,-3.7064857 L 12.28125,-11.862736 L 16.21875,-11.925236 z M 13.59375,-11.331486 L 15.4375,-6.3939857 C 19.362951,-6.2962734 18.548077,-11.404362 15.59375,-11.331486 L 13.59375,-11.331486 z M 12.5,-11.206486 L 10.71875,-6.3314857 L 14.71875,-6.2689857 L 12.96875,-11.206486 L 12.5,-11.206486 z M 13.96875,-11.081486 L 15.5625,-11.081486 C 18.516827,-11.154362 18.69243,-6.5775234 15.59375,-6.6752357 L 13.96875,-11.081486 z M 12.75,-10.987736 L 14.375,-6.6127357 L 11.15625,-6.6127357 L 12.75,-10.987736 z" stroke-opacity="1" fill="#333333" font-family="Bitstream Vera Sans" stroke="none" font-style="normal" stroke-linejoin="miter" fill-opacity="1" font-weight="normal" stroke-linecap="butt" stroke-width="1" font-size="12"/>
   </g>
   <path id="text2170" d="M 6.0871491,-4.0239012 C 6.0766271,-4.0350472 6.0650871,-4.0430982 6.0525291,-4.0480532 C 6.0403101,-4.0536252 6.0267331,-4.0564122 6.0117991,-4.0564132 C 5.9588511,-4.0564122 5.9181211,-4.0248292 5.8896111,-3.9616652 C 5.8614391,-3.8991182 5.8473541,-3.8090152 5.8473541,-3.6913552 L 5.8473541,-3.1433032 L 5.7531671,-3.1433032 L 5.7531671,-4.1836722 L 5.8473541,-4.1836722 L 5.8473541,-4.0220442 C 5.8670401,-4.0852082 5.8926651,-4.1319622 5.9242311,-4.1623082 C 5.9557961,-4.1932692 5.9941491,-4.2087522 6.0392921,-4.2087532 C 6.0457401,-4.2087522 6.0528681,-4.2078222 6.0606751,-4.2059662 C 6.0684811,-4.2047262 6.0771361,-4.2025592 6.0866401,-4.1994642 L 6.0871491,-4.0239012 M 6.3849841,-4.0638442 C 6.3347511,-4.0638432 6.2950401,-4.0279262 6.2658501,-3.9560922 C 6.2366611,-3.8848752 6.2220661,-3.7870312 6.2220661,-3.6625592 C 6.2220661,-3.5380862 6.2364911,-3.4399322 6.2653411,-3.3680972 C 6.2945301,-3.2968812 6.3344111,-3.2612732 6.3849841,-3.2612732 C 6.4348791,-3.2612732 6.4744201,-3.2971912 6.5036101,-3.3690262 C 6.5327991,-3.4408612 6.5473941,-3.5387052 6.5473941,-3.6625592 C 6.5473941,-3.7857922 6.5327991,-3.8833272 6.5036101,-3.9551632 C 6.4744201,-4.0276162 6.4348791,-4.0638432 6.3849841,-4.0638442 M 6.3849841,-4.2087532 C 6.4664441,-4.2087522 6.5304231,-4.1604492 6.5769231,-4.0638442 C 6.6234221,-3.9672382 6.6466721,-3.8334762 6.6466731,-3.6625592 C 6.6466721,-3.4922602 6.6234221,-3.3584982 6.5769231,-3.2612732 C 6.5304231,-3.1646682 6.4664441,-3.1163652 6.3849841,-3.1163652 C 6.3031851,-3.1163652 6.2390361,-3.1646682 6.1925371,-3.2612732 C 6.1463771,-3.3584982 6.1232971,-3.4922602 6.1232971,-3.6625592 C 6.1232971,-3.8334762 6.1463771,-3.9672382 6.1925371,-4.0638442 C 6.2390361,-4.1604492 6.3031851,-4.2087522 6.3849841,-4.2087532 M 7.0224031,-4.0638442 C 6.9721701,-4.0638432 6.9324581,-4.0279262 6.9032691,-3.9560922 C 6.8740791,-3.8848752 6.8594851,-3.7870312 6.8594851,-3.6625592 C 6.8594851,-3.5380862 6.8739101,-3.4399322 6.9027601,-3.3680972 C 6.9319491,-3.2968812 6.9718301,-3.2612732 7.0224031,-3.2612732 C 7.0722961,-3.2612732 7.1118381,-3.2971912 7.1410281,-3.3690262 C 7.1702171,-3.4408612 7.1848121,-3.5387052 7.1848121,-3.6625592 C 7.1848121,-3.7857922 7.1702171,-3.8833272 7.1410281,-3.9551632 C 7.1118381,-4.0276162 7.0722961,-4.0638432 7.0224031,-4.0638442 M 7.0224031,-4.2087532 C 7.1038621,-4.2087522 7.1678411,-4.1604492 7.2143411,-4.0638442 C 7.2608401,-3.9672382 7.2840901,-3.8334762 7.2840901,-3.6625592 C 7.2840901,-3.4922602 7.2608401,-3.3584982 7.2143411,-3.2612732 C 7.1678411,-3.1646682 7.1038621,-3.1163652 7.0224031,-3.1163652 C 6.9406041,-3.1163652 6.8764551,-3.1646682 6.8299561,-3.2612732 C 6.7837951,-3.3584982 6.7607161,-3.4922602 6.7607161,-3.6625592 C 6.7607161,-3.8334762 6.7837951,-3.9672382 6.8299561,-4.0638442 C 6.8764551,-4.1604492 6.9406041,-4.2087522 7.0224031,-4.2087532 M 7.5315231,-4.4790632 L 7.5315231,-4.1836722 L 7.7244781,-4.1836722 L 7.7244781,-4.0508402 L 7.5315231,-4.0508402 L 7.5315231,-3.4860682 C 7.5315221,-3.4012282 7.5378011,-3.3467322 7.5503591,-3.3225812 C 7.5632571,-3.2984292 7.5892221,-3.2863532 7.6282551,-3.2863542 L 7.7244781,-3.2863542 L 7.7244781,-3.1433032 L 7.6282551,-3.1433032 C 7.5559591,-3.1433032 7.5060671,-3.1677642 7.4785741,-3.2166862 C 7.4510821,-3.2662282 7.4373361,-3.3560212 7.4373361,-3.4860682 L 7.4373361,-4.0508402 L 7.3686041,-4.0508402 L 7.3686041,-4.1836722 L 7.4373361,-4.1836722 L 7.4373361,-4.4790632 L 7.5315231,-4.4790632 M 7.9551091,-4.3759552 L 7.9551091,-3.8548412 L 8.0844261,-3.8548412 C 8.1322831,-3.8548412 8.1692791,-3.8774442 8.1954141,-3.9226512 C 8.2215481,-3.9678572 8.2346161,-4.0322602 8.2346161,-4.1158622 C 8.2346161,-4.1988432 8.2215481,-4.2629372 8.1954141,-4.3081452 C 8.1692791,-4.3533502 8.1322831,-4.3759542 8.0844261,-4.3759552 L 7.9551091,-4.3759552 M 7.8522671,-4.5301522 L 8.0844261,-4.5301522 C 8.1696181,-4.5301512 8.2339371,-4.4948522 8.2773821,-4.4242582 C 8.3211661,-4.3542792 8.3430581,-4.2514812 8.3430581,-4.1158622 C 8.3430581,-3.9790032 8.3211661,-3.8755862 8.2773821,-3.8056102 C 8.2339371,-3.7356322 8.1696181,-3.7006432 8.0844261,-3.7006432 L 7.9551091,-3.7006432 L 7.9551091,-3.1433032 L 7.8522671,-3.1433032 L 7.8522671,-4.5301522 M 8.6897691,-3.6662742 C 8.6140801,-3.6662742 8.5616401,-3.6504832 8.5324511,-3.6189002 C 8.5032611,-3.5873172 8.4886671,-3.5334412 8.4886671,-3.4572722 C 8.4886671,-3.3965832 8.4995281,-3.3482812 8.5212501,-3.3123632 C 8.5433121,-3.2770652 8.5731801,-3.2594162 8.6108561,-3.2594162 C 8.6627861,-3.2594162 8.7043641,-3.2928562 8.7355901,-3.3597372 C 8.7671551,-3.4272372 8.7829381,-3.5167212 8.7829381,-3.6281902 L 8.7829381,-3.6662742 L 8.6897691,-3.6662742 M 8.8766161,-3.7368712 L 8.8766161,-3.1433032 L 8.7829381,-3.1433032 L 8.7829381,-3.3012162 C 8.7615551,-3.2380512 8.7349111,-3.1912962 8.7030061,-3.1609522 C 8.6711011,-3.1312272 8.6320691,-3.1163652 8.5859091,-3.1163652 C 8.5275291,-3.1163652 8.4810301,-3.1460902 8.4464101,-3.2055402 C 8.4121291,-3.2656082 8.3949891,-3.3458032 8.3949891,-3.4461252 C 8.3949891,-3.5631662 8.4163721,-3.6514122 8.4591381,-3.7108622 C 8.5022431,-3.7703102 8.5663921,-3.8000352 8.6515851,-3.8000362 L 8.7829381,-3.8000362 L 8.7829381,-3.8167562 C 8.7829381,-3.8954022 8.7686821,-3.9560912 8.7401721,-3.9988212 C 8.7120001,-4.0421682 8.6722891,-4.0638432 8.6210381,-4.0638442 C 8.5884541,-4.0638432 8.5567191,-4.0567212 8.5258321,-4.0424792 C 8.4949461,-4.0282352 8.4652471,-4.0068712 8.4367361,-3.9783852 L 8.4367361,-4.1362982 C 8.4710171,-4.1604492 8.5042801,-4.1784082 8.5365241,-4.1901742 C 8.5687681,-4.2025592 8.6001641,-4.2087522 8.6307111,-4.2087532 C 8.7131881,-4.2087522 8.7747921,-4.1697372 8.8155221,-4.0917112 C 8.8562511,-4.0136832 8.8766151,-3.8954022 8.8766161,-3.7368712 M 9.0700821,-4.5886732 L 9.1637601,-4.5886732 L 9.1637601,-3.1433032 L 9.0700821,-3.1433032 L 9.0700821,-4.5886732 M 9.7173101,-3.6686217 C 9.7173091,-3.5800657 9.7293591,-3.5103987 9.7534571,-3.4596187 C 9.7775551,-3.4094577 9.8106481,-3.3843777 9.8527351,-3.3843777 C 9.8944841,-3.3843777 9.9272371,-3.4097677 9.9509961,-3.4605477 C 9.9750941,-3.5113277 9.9871441,-3.5806857 9.9871441,-3.6686217 C 9.9871441,-3.7553187 9.9749251,-3.8240567 9.9504871,-3.8748377 C 9.9260491,-3.9262367 9.8931261,-3.9519357 9.8517171,-3.9519367 C 9.8106481,-3.9519357 9.7778941,-3.9265457 9.7534571,-3.8757667 C 9.7293591,-3.8249857 9.7173091,-3.7559377 9.7173101,-3.6686217 M 9.9947811,-3.3908797 C 9.9744161,-3.3431967 9.9509961,-3.3078987 9.9245221,-3.2849857 C 9.8983871,-3.2626917 9.8678391,-3.2515447 9.8328801,-3.2515447 C 9.7745001,-3.2515447 9.7269831,-3.2899397 9.6903261,-3.3667287 C 9.6540091,-3.4441367 9.6358501,-3.5447677 9.6358501,-3.6686217 C 9.6358501,-3.7924747 9.6541781,-3.8931047 9.6908361,-3.9705147 C 9.7274921,-4.0479217 9.7748401,-4.0866257 9.8328801,-4.0866267 C 9.8678391,-4.0866257 9.8985571,-4.0748597 9.9250311,-4.0513287 C 9.9515051,-4.0284147 9.9747551,-3.9934267 9.9947811,-3.9463627 L 9.9947811,-4.0680487 L 10.067585,-4.0680487 L 10.067585,-3.3843777 C 10.117139,-3.3980017 10.155832,-3.4391827 10.183664,-3.5079217 C 10.211835,-3.5772787 10.22592,-3.6667627 10.225921,-3.7763737 C 10.22592,-3.8426357 10.22049,-3.9048717 10.209629,-3.9630827 C 10.199107,-4.0212937 10.182985,-4.0751697 10.161263,-4.1247117 C 10.125963,-4.2058347 10.082858,-4.2677617 10.031947,-4.3104917 C 9.9813731,-4.3538397 9.9262191,-4.3755137 9.8664821,-4.3755157 C 9.8247341,-4.3755137 9.7846831,-4.3652967 9.7463291,-4.3448617 C 9.7079751,-4.3250437 9.6725071,-4.2953187 9.6399231,-4.2556877 C 9.5866351,-4.1925207 9.5448881,-4.1095387 9.5146801,-4.0067417 C 9.4848111,-3.9045617 9.4698771,-3.7937127 9.4698771,-3.6741947 C 9.4698771,-3.5757307 9.4795511,-3.4834607 9.4988971,-3.3973827 C 9.5185831,-3.3113037 9.5469241,-3.2354437 9.5839201,-3.1698017 C 9.6195581,-3.1053977 9.6607971,-3.0564757 9.7076361,-3.0230357 C 9.7544751,-2.9889757 9.8045381,-2.9719457 9.8578271,-2.9719457 C 9.9016111,-2.9719457 9.9445471,-2.9855697 9.9866351,-3.0128177 C 10.029061,-3.0394457 10.067924,-3.0778407 10.103223,-3.1280017 L 10.149044,-3.0248937 C 10.106617,-2.9648247 10.060287,-2.9189987 10.010055,-2.8874157 C 9.9601601,-2.8552147 9.9094181,-2.8391137 9.8578271,-2.8391127 C 9.7950351,-2.8391137 9.7358071,-2.8595487 9.6801441,-2.9004207 C 9.6244801,-2.9406727 9.5749261,-2.9995037 9.5314811,-3.0769117 C 9.4880361,-3.1543197 9.4549431,-3.2438037 9.4322031,-3.3453637 C 9.4094621,-3.4475427 9.3980911,-3.5571537 9.3980921,-3.6741947 C 9.3980911,-3.7869007 9.4096321,-3.8943437 9.4327121,-3.9965237 C 9.4557921,-4.0987017 9.4887151,-4.1884957 9.5314811,-4.2659047 C 9.5752651,-4.3445507 9.6258371,-4.4046197 9.6831991,-4.4461117 C 9.7405591,-4.4882207 9.8013141,-4.5092757 9.8654631,-4.5092767 C 9.9374201,-4.5092757 10.004114,-4.4823377 10.065549,-4.4284627 C 10.127321,-4.3745847 10.179081,-4.2981057 10.22083,-4.1990237 C 10.246285,-4.1383347 10.265632,-4.0723827 10.27887,-4.0011677 C 10.292445,-3.9299517 10.299233,-3.8562587 10.299235,-3.7800897 C 10.299233,-3.6172217 10.27225,-3.4887247 10.218284,-3.3945957 C 10.164317,-3.3004667 10.089816,-3.2515447 9.9947811,-3.2478297 L 9.9947811,-3.3908797 M 10.84552,-3.7020617 C 10.845519,-3.8259147 10.831434,-3.9219007 10.803263,-3.9900217 C 10.775431,-4.0581397 10.736229,-4.0921997 10.685656,-4.0922007 C 10.635423,-4.0921997 10.596221,-4.0581397 10.56805,-3.9900217 C 10.540218,-3.9219007 10.526302,-3.8259147 10.526302,-3.7020617 C 10.526302,-3.5788277 10.540218,-3.4831507 10.56805,-3.4150317 C 10.596221,-3.3469117 10.635423,-3.3128517 10.685656,-3.3128527 C 10.736229,-3.3128517 10.775431,-3.3469117 10.803263,-3.4150317 C 10.831434,-3.4831507 10.845519,-3.5788277 10.84552,-3.7020617 M 10.939198,-3.2989187 C 10.939197,-3.1218087 10.917645,-2.9902147 10.87454,-2.9041367 C 10.831434,-2.8174387 10.765418,-2.7740907 10.676492,-2.7740897 C 10.643569,-2.7740907 10.612513,-2.7787347 10.583323,-2.7880237 C 10.554134,-2.7966937 10.525793,-2.8103177 10.4983,-2.8288957 L 10.4983,-2.9951687 C 10.525793,-2.9679207 10.552946,-2.9477947 10.57976,-2.9347897 C 10.606573,-2.9217857 10.633896,-2.9152837 10.661728,-2.9152827 C 10.723161,-2.9152837 10.769152,-2.9446987 10.799699,-3.0035287 C 10.830246,-3.0617397 10.845519,-3.1499857 10.84552,-3.2682657 L 10.84552,-3.3527957 C 10.826173,-3.2914877 10.801396,-3.2456617 10.771189,-3.2153177 C 10.74098,-3.1849737 10.704833,-3.1698017 10.662746,-3.1698017 C 10.592827,-3.1698017 10.536484,-3.2184147 10.493718,-3.3156387 C 10.450952,-3.4128637 10.429569,-3.5416717 10.429569,-3.7020617 C 10.429569,-3.8630707 10.450952,-3.9921877 10.493718,-4.0894137 C 10.536484,-4.1866377 10.592827,-4.2352507 10.662746,-4.2352517 C 10.704833,-4.2352507 10.74098,-4.2200787 10.771189,-4.1897347 C 10.801396,-4.1593897 10.826173,-4.1135637 10.84552,-4.0522577 L 10.84552,-4.2101707 L 10.939198,-4.2101707 L 10.939198,-3.2989187 M 11.576107,-4.0104577 C 11.599526,-4.0872457 11.627527,-4.1439077 11.660111,-4.1804457 C 11.692695,-4.2169817 11.731048,-4.2352507 11.775172,-4.2352517 C 11.834569,-4.2352507 11.88039,-4.1971647 11.912635,-4.1209957 C 11.944878,-4.0454447 11.961,-3.9376927 11.961001,-3.7977387 L 11.961001,-3.1698017 L 11.866814,-3.1698017 L 11.866814,-3.7921657 C 11.866813,-3.8918667 11.85714,-3.9658687 11.837794,-4.0141727 C 11.818447,-4.0624747 11.788918,-4.0866257 11.749207,-4.0866267 C 11.700671,-4.0866257 11.662317,-4.0572107 11.634146,-3.9983817 C 11.605975,-3.9395497 11.591889,-3.8593557 11.591889,-3.7577967 L 11.591889,-3.1698017 L 11.497702,-3.1698017 L 11.497702,-3.7921657 C 11.497702,-3.8924857 11.488029,-3.9664887 11.468682,-4.0141727 C 11.449336,-4.0624747 11.419467,-4.0866257 11.379077,-4.0866267 C 11.33122,-4.0866257 11.293206,-4.0569017 11.265035,-3.9974527 C 11.236863,-3.9386217 11.222777,-3.8587357 11.222778,-3.7577967 L 11.222778,-3.1698017 L 11.128591,-3.1698017 L 11.128591,-4.2101707 L 11.222778,-4.2101707 L 11.222778,-4.0485427 C 11.24416,-4.1123257 11.269786,-4.1593897 11.299655,-4.1897347 C 11.329523,-4.2200787 11.364991,-4.2352507 11.406061,-4.2352517 C 11.447469,-4.2352507 11.482598,-4.2160527 11.511449,-4.1776597 C 11.540638,-4.1392637 11.56219,-4.0835297 11.576107,-4.0104577 M 12.407499,-3.6927727 C 12.33181,-3.6927727 12.27937,-3.6769817 12.250181,-3.6453987 C 12.220992,-3.6138157 12.206397,-3.5599397 12.206397,-3.4837707 C 12.206397,-3.4230817 12.217258,-3.3747797 12.238981,-3.3388617 C 12.261042,-3.3035637 12.290911,-3.2859147 12.328586,-3.2859147 C 12.380516,-3.2859147 12.422094,-3.3193547 12.45332,-3.3862357 C 12.484885,-3.4537357 12.500668,-3.5432197 12.500668,-3.6546887 L 12.500668,-3.6927727 L 12.407499,-3.6927727 M 12.594346,-3.7633697 L 12.594346,-3.1698017 L 12.500668,-3.1698017 L 12.500668,-3.3277147 C 12.479285,-3.2645497 12.452641,-3.2177947 12.420736,-3.1874507 C 12.388831,-3.1577257 12.349799,-3.1428637 12.303639,-3.1428637 C 12.24526,-3.1428637 12.19876,-3.1725887 12.16414,-3.2320387 C 12.129859,-3.2921067 12.112719,-3.3723017 12.112719,-3.4726237 C 12.112719,-3.5896647 12.134102,-3.6779107 12.176868,-3.7373607 C 12.219973,-3.7968087 12.284122,-3.8265337 12.369315,-3.8265347 L 12.500668,-3.8265347 L 12.500668,-3.8432547 C 12.500668,-3.9219007 12.486412,-3.9825897 12.457902,-4.0253197 C 12.429731,-4.0686667 12.390019,-4.0903417 12.338768,-4.0903427 C 12.306184,-4.0903417 12.274449,-4.0832197 12.243563,-4.0689777 C 12.212676,-4.0547337 12.182977,-4.0333697 12.154467,-4.0048837 L 12.154467,-4.1627967 C 12.188747,-4.1869477 12.22201,-4.2049067 12.254254,-4.2166727 C 12.286498,-4.2290577 12.317894,-4.2352507 12.348441,-4.2352517 C 12.430918,-4.2352507 12.492522,-4.1962357 12.533252,-4.1182097 C 12.573981,-4.0401817 12.594346,-3.9219007 12.594346,-3.7633697 M 12.787812,-4.2101707 L 12.88149,-4.2101707 L 12.88149,-3.1698017 L 12.787812,-3.1698017 L 12.787812,-4.2101707 M 12.787812,-4.6151717 L 12.88149,-4.6151717 L 12.88149,-4.3987377 L 12.787812,-4.3987377 L 12.787812,-4.6151717 M 13.076992,-4.6151717 L 13.17067,-4.6151717 L 13.17067,-3.1698017 L 13.076992,-3.1698017 L 13.076992,-4.6151717 M 13.379409,-3.4057427 L 13.486833,-3.4057427 L 13.486833,-3.1698017 L 13.379409,-3.1698017 L 13.379409,-3.4057427 M 14.108468,-4.1702277 L 14.108468,-4.0104577 C 14.081994,-4.0370847 14.05535,-4.0569017 14.028537,-4.0699067 C 14.002062,-4.0835297 13.975248,-4.0903417 13.948096,-4.0903427 C 13.88734,-4.0903417 13.840162,-4.0550437 13.80656,-3.9844477 C 13.772958,-3.9144697 13.756157,-3.8160067 13.756157,-3.6890577 C 13.756157,-3.5621067 13.772958,-3.4633337 13.80656,-3.3927377 C 13.840162,-3.3227607 13.88734,-3.2877717 13.948096,-3.2877717 C 13.975248,-3.2877717 14.002062,-3.2942747 14.028537,-3.3072787 C 14.05535,-3.3209027 14.081994,-3.3410287 14.108468,-3.3676577 L 14.108468,-3.2097447 C 14.082333,-3.1874507 14.05518,-3.1707307 14.027009,-3.1595837 C 13.999177,-3.1484377 13.969478,-3.1428637 13.937913,-3.1428637 C 13.852041,-3.1428637 13.783819,-3.1920947 13.733247,-3.2905587 C 13.682674,-3.3890217 13.657388,-3.5218547 13.657388,-3.6890577 C 13.657388,-3.8587357 13.682844,-3.9921877 13.733756,-4.0894137 C 13.785007,-4.1866377 13.855096,-4.2352507 13.944023,-4.2352517 C 13.972872,-4.2352507 14.001043,-4.2296767 14.028537,-4.2185307 C 14.056029,-4.2080027 14.082672,-4.1919017 14.108468,-4.1702277 M 14.493363,-4.0903427 C 14.443129,-4.0903417 14.403418,-4.0544247 14.374229,-3.9825907 C 14.345039,-3.9113737 14.330444,-3.8135297 14.330445,-3.6890577 C 14.330444,-3.5645847 14.344869,-3.4664307 14.37372,-3.3945957 C 14.402909,-3.3233797 14.44279,-3.2877717 14.493363,-3.2877717 C 14.543256,-3.2877717 14.582798,-3.3236897 14.611988,-3.3955247 C 14.641177,-3.4673597 14.655772,-3.5652037 14.655772,-3.6890577 C 14.655772,-3.8122907 14.641177,-3.9098257 14.611988,-3.9816617 C 14.582798,-4.0541147 14.543256,-4.0903417 14.493363,-4.0903427 M 14.493363,-4.2352517 C 14.574821,-4.2352507 14.638801,-4.1869477 14.685301,-4.0903427 C 14.7318,-3.9937367 14.75505,-3.8599747 14.75505,-3.6890577 C 14.75505,-3.5187587 14.7318,-3.3849967 14.685301,-3.2877717 C 14.638801,-3.1911667 14.574821,-3.1428637 14.493363,-3.1428637 C 14.411564,-3.1428637 14.347415,-3.1911667 14.300915,-3.2877717 C 14.254755,-3.3849967 14.231675,-3.5187587 14.231675,-3.6890577 C 14.231675,-3.8599747 14.254755,-3.9937367 14.300915,-4.0903427 C 14.347415,-4.1869477 14.411564,-4.2352507 14.493363,-4.2352517 M 15.353775,-4.0104577 C 15.377194,-4.0872457 15.405195,-4.1439077 15.43778,-4.1804457 C 15.470363,-4.2169817 15.508716,-4.2352507 15.552841,-4.2352517 C 15.612237,-4.2352507 15.658058,-4.1971647 15.690303,-4.1209957 C 15.722547,-4.0454447 15.738669,-3.9376927 15.738669,-3.7977387 L 15.738669,-3.1698017 L 15.644482,-3.1698017 L 15.644482,-3.7921657 C 15.644482,-3.8918667 15.634808,-3.9658687 15.615463,-4.0141727 C 15.596115,-4.0624747 15.566586,-4.0866257 15.526876,-4.0866267 C 15.478339,-4.0866257 15.439985,-4.0572107 15.411815,-3.9983817 C 15.383643,-3.9395497 15.369557,-3.8593557 15.369558,-3.7577967 L 15.369558,-3.1698017 L 15.275371,-3.1698017 L 15.275371,-3.7921657 C 15.27537,-3.8924857 15.265697,-3.9664887 15.246351,-4.0141727 C 15.227004,-4.0624747 15.197136,-4.0866257 15.156746,-4.0866267 C 15.108888,-4.0866257 15.070874,-4.0569017 15.042703,-3.9974527 C 15.014531,-3.9386217 15.000446,-3.8587357 15.000446,-3.7577967 L 15.000446,-3.1698017 L 14.906259,-3.1698017 L 14.906259,-4.2101707 L 15.000446,-4.2101707 L 15.000446,-4.0485427 C 15.021829,-4.1123257 15.047455,-4.1593897 15.077323,-4.1897347 C 15.107191,-4.2200787 15.14266,-4.2352507 15.183729,-4.2352517 C 15.225137,-4.2352507 15.260266,-4.2160527 15.289117,-4.1776597 C 15.318306,-4.1392637 15.339859,-4.0835297 15.353775,-4.0104577" sodipodi:nodetypes="csssccccccssscccsssssssccsssssssccsssssssccssssssscccccccsccccsccccccccccsssccccsssccccccssssscccccccssssscccsssccssscccccccsssssssccsssssssccccsssssssssssssssccssssssssssssssscccsssssssccsssccsssccssssssscccccsssccccsssccccsssccccccsssccssssscccccccssssscccsssccssscccccccccccccccccccccccsssssssccsssssssccsssssssccsssssssccsssccccsssccccsssccccccsssc" stroke-opacity="1" fill="#d40000" font-family="Bitstream Vera Sans" stroke="none" font-style="normal" stroke-linejoin="miter" fill-opacity="1" font-weight="normal" stroke-linecap="butt" stroke-width="1" font-size="4"/>
  </g>
 </g>
 <g id="g3152">
  <path sodipodi:nodetypes="csssccsssc" id="path3908" d="M 129.08939,12.175306 C 63.86019,12.175305 10.924919,65.145446 10.924919,130.37464 C 10.924919,195.60383 63.86019,248.53911 129.08939,248.53911 C 194.31859,248.53911 247.25386,195.60383 247.25386,130.37464 C 247.25386,65.145445 194.31859,12.175306 129.08939,12.175306 z M 131.11168,107.39725 C 144.53026,107.39725 155.41402,118.28101 155.41402,131.69959 C 155.41402,145.11816 144.53025,156.00192 131.11168,156.00192 C 117.69311,156.00192 106.80935,145.11816 106.80935,131.69959 C 106.80936,118.28101 117.69311,107.39725 131.11168,107.39725 z" stroke-dasharray="none" stroke-opacity="1" fill="url(#radialGradient3144)" stroke="none" stroke-linejoin="round" fill-opacity="1" stroke-linecap="round" stroke-width="2.8" stroke-dashoffset="0" stroke-miterlimit="4"/>
  <path id="path1873" d="M 120.68425,12.450121 C 59.648625,12.450121 10.11654,62.014831 10.11654,123.05046 C 10.11654,184.08609 59.648625,233.61817 120.68425,233.61817 C 181.71989,233.61817 231.25197,184.08609 231.25197,123.05046 C 231.25197,62.014831 181.71989,12.450121 120.68425,12.450121 z M 123.19642,80.082718 C 147.61067,80.08272 167.43655,99.875969 167.43655,124.29023 C 167.43654,148.70448 147.61067,168.53036 123.19642,168.53036 C 98.782166,168.53036 78.988905,148.70449 78.988905,124.29023 C 78.988905,99.875969 98.782156,80.082718 123.19642,80.082718 z" stroke-dasharray="none" stroke-opacity="1" fill="#000000" stroke="url(#linearGradient3141)" stroke-linejoin="round" fill-opacity="1" stroke-linecap="round" stroke-width="2.923" stroke-dashoffset="0" stroke-miterlimit="4"/>
  <path sodipodi:nodetypes="cccsccc" id="path2796" d="M 120.74513,13.847825 C 60.428783,13.847825 11.452056,63.412536 11.452056,124.44817 C 32.134874,134.92717 53.162378,129.77566 77.483293,123.40415 C 77.483299,98.989903 97.536228,79.164018 122.2301,79.164018 C 135.42358,79.164018 147.26992,84.82094 155.46021,93.812851 C 174.97179,85.873234 197.05521,89.425764 230.00523,124.44817 C 230.00523,63.412536 181.0615,13.847825 120.74513,13.847825 z" stroke-opacity="1" fill="url(#linearGradient3138)" stroke="none" stroke-linejoin="round" fill-opacity="1" stroke-linecap="round" stroke-width="2.8" stroke-dashoffset="0" stroke-miterlimit="4"/>
  <path id="path2807" d="M 122.58525,80.062047 C 98.170989,80.062047 78.34511,99.887933 78.345111,124.30218 C 78.345111,148.71644 98.171,168.54232 122.58525,168.54232 C 146.99951,168.54232 166.79276,148.71644 166.79276,124.30218 C 166.79276,99.887922 146.99951,80.06205 122.58525,80.062047 z M 122.58525,101.56223 C 135.14115,101.56223 145.3252,111.74628 145.3252,124.30218 C 145.32519,136.85808 135.14115,147.04213 122.58525,147.04213 C 110.02934,147.04213 99.845297,136.85808 99.845297,124.30218 C 99.845297,111.74628 110.02935,101.56223 122.58525,101.56223 z" stroke-dasharray="none" stroke-opacity="1" fill="url(#linearGradient3133)" stroke="url(#linearGradient3135)" stroke-linejoin="round" fill-opacity="1" stroke-linecap="round" stroke-width="2.923" stroke-dashoffset="0" stroke-miterlimit="4"/>
  <path sodipodi:nodetypes="cscsscccccccccsscsccccccccccccccccccssssssccccsssssscsccscccccsccscccsccccsscscccccccccsccccsccccsssssssssssccccccccccccccccccsccccscccscccscccscccsccccsssssccccsccssscsssssccccccccccccsccccccccccccccccccccccssssssccccsssssscsccscccccscccssccccccccsccssccccccccccccccscccccccsccccccsccccccccscccccccccsscccccccsccsccscssccccccccssssccccccc" id="text2832" d="M 91.498136,138.69595 C 91.654206,138.60725 91.849562,138.49113 92.013149,138.41966 C 92.374775,138.26164 92.786388,138.19458 93.176954,138.29053 C 93.126455,138.12802 93.081886,137.93216 93.010402,137.76858 C 92.980314,137.69969 92.92923,137.62972 92.899131,137.56084 C 92.495348,136.98874 91.819641,136.87382 91.225544,137.13342 L 91.122228,137.17856 L 90.911546,136.69639 L 96.15509,134.40525 C 96.289591,134.40801 96.452603,134.42906 96.5984,134.45764 L 95.729341,132.46872 C 95.643742,132.57789 95.552213,132.72043 95.455329,132.80377 L 90.211784,135.09492 L 90.031201,134.68163 C 90.208256,134.59402 90.383713,134.45583 90.539281,134.29557 C 91.003795,133.85677 91.018056,133.2558 90.788571,132.73059 C 90.739659,132.61865 90.641271,132.48733 90.575143,132.38292 C 90.286076,132.68354 89.998106,132.96317 89.662319,133.1099 C 89.515948,133.17386 89.302865,133.22595 89.120465,133.25438 L 91.498136,138.69595 M 87.819153,127.66485 C 88.093676,128.69776 88.303127,129.74018 88.456785,130.79078 L 88.445436,130.97286 L 88.628431,130.86063 L 94.327626,130.02705 L 94.70132,130.11483 L 94.423915,128.2182 L 94.088296,128.39074 L 91.094593,128.8286 L 91.437729,128.12318 L 92.247509,127.8813 L 93.146865,127.4079 C 93.942384,126.87372 94.42545,125.89143 94.285395,124.93382 C 94.189283,124.40659 93.776636,123.79272 93.200204,123.87704 L 93.125829,123.88792 L 93.107454,123.95707 C 93.140789,123.99019 93.199285,124.00062 93.241913,124.03237 C 93.343266,124.141 93.446205,124.32536 93.46932,124.48341 C 93.499241,124.68795 93.43232,124.94464 93.328002,125.14032 C 92.928854,125.78746 92.153078,126.26178 91.399999,126.37192 C 91.381405,126.37465 91.341503,126.36149 91.3322,126.36285 C 91.064692,125.44287 90.20647,124.70425 89.248858,124.84431 C 89.155888,124.85791 89.056331,124.89147 88.972664,124.9037 C 87.981246,125.26712 87.642369,126.45621 87.786517,127.44172 L 87.819153,127.66485 M 88.272881,127.84539 C 88.249579,127.23155 88.69837,126.72909 89.259841,126.54251 C 89.396576,126.50352 89.570509,126.45909 89.709958,126.43869 C 89.802938,126.42509 89.907924,126.42873 89.973008,126.4192 C 90.536494,126.44124 91.158685,126.92951 91.240275,127.48734 C 91.263389,127.64539 91.22687,127.85015 91.138421,128.02452 C 91.069704,128.13903 90.958359,128.22179 90.846796,128.23811 C 90.67944,128.26258 90.441134,128.12651 90.351348,127.90224 C 90.288989,127.93035 90.244086,128.01289 90.204393,128.06617 C 90.183523,128.18318 90.185329,128.32536 90.20029,128.42763 L 90.226129,128.60428 C 90.291422,128.6612 90.351515,128.74737 90.432687,128.78298 C 90.435412,128.80157 90.483479,128.87051 90.486193,128.8891 L 90.468957,128.90112 L 88.525846,129.18532 L 88.272881,127.84539 M 87.850922,119.08393 C 87.782737,119.85231 87.703966,120.62872 87.597278,121.40126 C 87.545861,121.77358 87.469397,122.18986 87.419263,122.55286 L 93.785792,123.43212 C 93.77175,122.98436 93.750964,122.51672 93.813949,122.06064 C 93.830664,121.93964 93.873698,121.76536 93.890413,121.64436 C 94.053217,121.22103 94.174625,120.75404 94.235042,120.31658 L 94.282597,119.97219 C 94.322374,118.24187 92.832962,117.14455 91.250642,116.92603 C 91.027254,116.89518 90.745454,116.87523 90.508901,116.87101 C 89.264174,116.95521 88.06554,117.8046 87.850922,119.08393 M 87.966494,120.78828 L 88.074477,120.00643 C 88.127795,119.75769 88.233115,119.54458 88.367636,119.32603 C 88.90474,118.52756 89.927363,118.4032 90.867447,118.53304 C 91.463151,118.61531 92.081939,118.8051 92.542496,118.97305 C 93.475793,119.35804 93.787285,120.33062 93.658746,121.2614 C 93.6446,121.36379 93.60927,121.48222 93.597702,121.56599 L 93.493364,121.70335 L 88.001772,120.94492 C 87.988304,120.90511 87.979962,120.82809 87.966494,120.78828 M 88.850639,114.58713 L 89.199727,114.57908 L 94.495681,116.771 L 94.736963,117.0234 L 96.734853,112.19627 C 96.473191,112.18967 96.180397,112.16001 95.945985,112.06299 C 95.624752,111.93003 95.32419,111.67343 95.136205,111.34139 L 95.097273,111.3863 C 95.026019,111.50934 94.933196,111.68448 94.8721,111.83207 L 94.803832,111.99702 C 94.607985,112.61764 94.958806,113.34248 95.566537,113.59401 C 95.583899,113.6012 95.608455,113.59102 95.61713,113.59461 L 94.96674,115.16604 L 92.058302,113.96228 L 92.769788,112.24326 C 93.018566,112.30555 93.269454,112.3382 93.528129,112.3029 C 93.771531,112.23076 94.012552,112.06612 94.095197,111.86644 C 94.149099,111.73621 94.135642,111.5476 94.067989,111.36706 C 94.011414,111.28263 93.905739,111.21855 93.818919,111.18262 C 93.645278,111.11075 93.413256,111.10624 93.229123,111.18257 C 93.246496,111.18976 93.274037,111.2215 93.291399,111.22868 C 93.344978,111.27119 93.392877,111.35203 93.414728,111.4221 C 93.417119,111.51461 93.429679,111.63166 93.400937,111.70112 C 93.382969,111.74453 93.319493,111.79961 93.280572,111.84451 C 93.09644,111.92084 92.913518,111.89598 92.748563,111.82771 C 92.592285,111.76303 92.410574,111.63697 92.28454,111.52379 C 91.741193,110.99384 91.242467,110.38066 90.862895,109.72527 L 88.850639,114.58713 M 90.000695,113.11065 L 91.02479,110.63632 C 91.401972,111.19919 91.874368,111.67945 92.421014,112.07856 L 91.702345,113.81495 L 90.000695,113.11065 M 94.539414,104.07017 L 93.703085,106.59811 C 93.381362,106.44156 92.961031,106.30096 92.612559,106.42721 L 92.242926,107.81675 C 92.400437,107.78856 92.548447,107.80132 92.70745,107.85975 L 96.55073,111.04137 L 96.842971,111.38089 L 98.005377,109.97675 L 97.611272,109.76028 L 94.093693,106.84829 L 94.515475,105.58732 C 95.545177,105.18334 96.568792,105.49401 97.350477,106.14112 C 98.190063,106.83617 98.777228,107.96874 98.778314,109.04308 L 100.13245,107.40733 L 99.752401,106.70236 L 99.742911,106.7433 C 99.659744,107.06478 99.521162,107.3648 99.317443,107.61089 C 99.269502,107.66879 99.196358,107.74241 99.142435,107.80755 L 99.043598,107.75013 C 99.012497,107.06569 98.894784,106.38273 98.686952,105.73496 C 98.496576,105.2724 98.186117,104.88122 97.816985,104.57563 C 97.433382,104.25808 96.95017,104.01663 96.455213,103.86304 L 96.83156,102.68643 C 97.10291,102.52073 97.487577,102.42443 97.79909,102.40176 C 98.538942,102.39214 99.283481,102.71575 99.855267,103.1891 C 100.68762,103.87816 101.25782,104.97229 101.28887,106.01042 L 102.58907,104.43982 L 102.26444,103.75633 C 102.19325,104.06335 102.01872,104.40678 101.815,104.65287 C 101.77306,104.70354 101.69866,104.76393 101.65673,104.81459 L 101.53866,104.76565 C 101.47166,103.77094 101.33852,102.78245 100.68991,101.98935 C 100.57285,101.88025 100.43284,101.73994 100.30257,101.6321 C 99.303746,100.80523 97.802379,100.4528 96.750377,101.39942 L 96.001432,103.79233 C 95.495972,103.73984 94.994741,103.8738 94.539414,104.07017 M 101.20022,97.65799 C 101.1481,97.715327 101.12986,97.772654 101.08817,97.845631 C 100.98654,98.015022 101.02564,98.25999 101.11425,98.392893 C 101.2654,98.619611 101.56509,98.713416 101.8309,98.536205 C 101.85436,98.520566 101.89084,98.473658 101.92211,98.452809 C 101.91168,98.43718 101.8752,98.416331 101.86999,98.408511 C 101.71883,98.181793 101.73185,97.879488 101.90385,97.663189 L 102.83419,97.042929 L 102.87588,97.071598 C 102.70389,97.355664 102.56578,97.707476 102.46155,98.02541 C 102.20618,99.200731 102.6753,100.37864 103.32161,101.34807 C 103.49882,101.61388 103.70992,101.87968 103.89234,102.11943 L 103.97052,102.23671 C 104.10605,102.43998 104.21811,102.69275 104.17902,102.92208 C 104.13733,102.99506 104.09303,103.04717 104.03048,103.08887 C 103.90279,103.15142 103.78551,103.12797 103.72297,103.03416 C 103.63436,102.90124 103.64218,102.62501 103.77247,102.51555 C 103.63957,102.43477 103.46496,102.46083 103.3477,102.53902 C 103.26951,102.59114 103.18873,102.69017 103.13922,102.76835 C 103.10795,102.85695 103.07407,102.95859 103.09492,103.05763 C 103.11056,103.14883 103.16529,103.28173 103.20698,103.34428 C 103.43111,103.68045 103.95753,103.58923 104.31715,103.34947 C 104.40315,103.29213 104.49436,103.20874 104.5543,103.14619 C 105.38819,101.99171 104.60114,100.47241 103.91313,99.440447 L 103.92876,99.39615 L 105.67998,98.228607 L 107.28014,100.62871 L 107.40002,101.18119 L 109.0496,100.08141 L 108.64827,99.716579 L 105.55222,95.072727 L 105.50009,94.791271 L 101.20022,97.65799 M 103.78798,96.407041 C 103.84791,96.344494 103.92609,96.292377 103.99645,96.245469 C 104.07463,96.193341 104.17627,96.125585 104.25705,96.094317 L 105.42459,97.845526 L 105.38029,97.931532 L 103.74633,99.020878 L 103.63688,98.99222 C 103.11566,98.210431 103.04528,97.071598 103.78798,96.407041 M 110.32825,92.632561 C 109.37852,93.122737 108.4055,93.551399 107.41252,93.927328 L 107.23225,93.955391 L 107.3812,94.109989 L 109.42057,99.496688 L 109.41518,99.88052 L 111.20782,99.201838 L 110.96716,98.911163 L 109.8959,96.0816 L 110.65861,96.265065 L 111.06894,97.003894 L 111.72462,97.780442 C 112.41735,98.442505 113.48051,98.703101 114.38562,98.360435 C 114.87985,98.153229 115.39065,97.618244 115.18438,97.073425 L 115.15776,97.003121 L 115.08627,97.000052 C 115.06111,97.039724 115.06349,97.099097 115.04165,97.14755 C 114.95735,97.269888 114.79943,97.410057 114.65005,97.466612 C 114.45672,97.539807 114.19165,97.529639 113.97811,97.469827 C 113.26029,97.219149 112.63027,96.563486 112.3608,95.851698 C 112.35415,95.834127 112.35841,95.792325 112.35509,95.783534 C 113.19605,95.324491 113.73288,94.32754 113.39021,93.422432 C 113.35694,93.334557 113.30278,93.244552 113.27283,93.165468 C 112.70476,92.275362 111.47061,92.200067 110.53915,92.552715 L 110.32825,92.632561 M 110.24948,93.114489 C 110.84395,92.959755 111.43116,93.29003 111.73409,93.798256 C 111.80157,93.923413 111.88235,94.083721 111.93226,94.215538 C 111.96552,94.303413 111.98454,94.406729 112.00783,94.468242 C 112.10745,95.023293 111.76438,95.735906 111.23713,95.935522 C 111.08774,95.992076 110.87992,96.000428 110.69061,95.951537 C 110.56401,95.909046 110.45924,95.818091 110.41932,95.712645 C 110.35944,95.554467 110.4411,95.292471 110.64082,95.156582 C 110.59996,95.101719 110.5097,95.075608 110.44913,95.048307 C 110.33037,95.053079 110.1919,95.085412 110.09524,95.122004 L 109.92828,95.18522 C 109.88673,95.261224 109.81548,95.338429 109.79816,95.425364 C 109.78059,95.432025 109.7236,95.493789 109.70602,95.500439 L 109.69058,95.486188 L 108.99526,93.64962 L 110.24948,93.114489 M 114.92376,91.172892 C 115.34009,92.133261 115.61444,93.1686 115.7478,94.21249 C 115.86449,95.125888 115.87052,96.062892 115.77977,96.983849 C 115.78375,97.163315 115.74807,97.328906 115.68443,97.498068 L 117.77219,97.231353 C 117.67978,97.101071 117.61293,96.948582 117.57405,96.792512 C 117.39771,96.227752 117.24932,95.659411 117.1755,95.081549 C 117.10525,94.531645 117.10361,93.925615 117.11843,93.374313 L 117.61537,93.11191 L 119.8155,96.468283 L 119.83336,96.608087 C 119.85003,96.738578 119.82822,96.864507 119.7854,96.974171 L 122.08754,96.680072 C 121.95328,96.593032 121.81663,96.487346 121.68812,96.371148 L 118.98621,92.349487 C 119.71931,91.933771 120.34375,91.408798 120.88507,90.752342 C 120.95823,90.657744 121.05341,90.512971 121.08454,90.385851 L 118.93153,90.660897 C 119.01701,90.811016 119.10032,91.018242 119.11818,91.158047 C 119.14437,91.363091 119.06686,91.571915 118.85409,91.76013 C 118.30878,92.237109 117.71785,92.653608 117.08707,92.980479 L 116.87631,91.330768 C 116.8771,91.188584 116.92448,91.040438 116.98357,90.909748 L 114.92376,91.172892 M 128.79918,91.032243 C 128.26917,91.20011 127.71146,91.236316 127.1556,91.138012 C 127.19379,91.223861 127.22491,91.298456 127.24478,91.380119 L 126.04772,96.61007 C 125.97964,96.739069 125.86995,96.839273 125.74614,96.916969 L 127.52304,97.323675 C 127.47283,97.206151 127.45848,97.058276 127.46741,96.93501 L 127.99781,94.617714 L 128.12107,94.626651 L 128.69276,96.887747 C 128.71053,96.978566 128.70579,97.08351 128.68482,97.175102 C 128.65757,97.294172 128.5853,97.441493 128.48477,97.543796 L 130.49065,98.002912 L 130.31043,97.653208 L 129.36948,94.47863 C 129.90523,94.369917 130.42951,94.142906 130.89518,93.835016 C 130.9753,93.737682 131.04415,93.647406 131.06721,93.546659 L 129.62005,93.215424 C 129.67026,93.332949 129.68461,93.480823 129.65735,93.599893 C 129.64478,93.65484 129.62305,93.707709 129.61256,93.753499 C 129.27666,94.168213 128.58233,94.211717 128.08221,94.164716 L 128.79918,91.032243 M 133.21011,92.284894 C 133.23304,92.405237 133.24737,92.572708 133.22151,92.714099 L 131.19117,97.82212 C 131.18423,97.839575 131.15287,97.867566 131.14593,97.885032 C 131.06768,98.005595 130.94576,98.108796 130.8046,98.184132 L 132.87401,99.00668 L 132.85767,98.717081 L 134.96784,93.408233 C 135.05135,93.299875 135.14707,93.186244 135.26204,93.100499 L 133.21011,92.284894 M 140.59261,95.930364 L 137.86202,95.340016 C 137.88185,95.30809 137.93749,95.254156 137.95733,95.22223 C 138.12096,94.958856 137.99619,94.483109 137.85315,94.250419 C 137.33726,94.261747 136.84314,94.220236 136.36173,94.087052 C 136.40186,94.200484 136.42907,94.316944 136.44333,94.436431 L 133.76557,98.746209 C 133.64934,98.862052 133.51716,98.967978 133.38691,99.052982 L 135.00707,100.05962 C 135.03574,99.977875 135.0713,99.86722 135.09997,99.785473 L 137.64879,95.683204 L 139.07274,95.937391 C 139.38169,96.38377 139.55239,96.910193 139.54884,97.450033 C 139.53043,98.013811 139.32673,98.5731 139.04408,99.02803 C 138.47382,99.945844 137.4577,100.61984 136.41972,100.93732 L 138.15162,102.01339 L 138.6864,101.61557 L 137.80617,101.32309 L 137.50483,101.11373 L 137.54342,101.01602 C 138.31872,100.80082 139.091,100.57268 139.77805,100.12566 C 140.11099,99.856853 140.42386,99.531329 140.65693,99.156214 C 141.26686,98.174548 141.40095,96.908283 140.59261,95.930364 M 146.28754,100.75245 C 145.51727,100.65586 144.71535,100.22028 144.15322,99.652925 C 144.03418,99.53278 143.922,99.366155 143.80971,99.226111 C 143.04536,99.282362 142.33344,99.498327 141.69359,99.93388 C 141.5402,100.0594 141.3402,100.20466 141.18667,100.35676 C 140.17211,101.36197 139.5999,102.97384 140.49102,104.23371 C 140.65629,104.41387 140.8215,104.60732 140.99345,104.78086 C 141.60186,105.39493 142.33685,105.93652 142.93866,106.54393 C 143.0643,106.67074 143.19645,106.83081 143.3221,106.95764 C 143.38242,106.84496 143.43613,106.72562 143.503,106.63291 L 145.25846,104.89363 C 145.41822,104.82793 145.57125,104.78213 145.7503,104.85603 L 145.7622,103.71995 L 144.1832,103.22097 C 144.17598,103.34717 144.18204,103.47344 144.10189,103.56609 L 142.26632,105.38472 C 142.06768,105.23763 141.84259,105.06385 141.67064,104.8903 C 141.54499,104.76348 141.40623,104.59673 141.30728,104.44346 C 140.84596,103.63074 141.25484,102.85526 141.85581,102.20693 C 142.06952,101.96873 142.28331,101.71724 142.51024,101.49239 C 143.01753,100.98979 143.6177,100.51419 144.21764,100.09174 L 144.84008,100.54642 L 145.43739,102.12385 L 144.76025,102.00111 L 144.74555,102.30668 C 145.6086,102.45685 146.48456,102.6868 147.29359,103.02276 C 146.88498,102.3033 146.55629,101.54435 146.28754,100.75245" stroke-opacity="1" fill="#f3f3f3" font-family="Becker" text-anchor="start" text-align="start" stroke="none" font-style="normal" stroke-linejoin="miter" line-height="100%" fill-opacity="1" font-weight="bold" stroke-linecap="butt" stroke-width="1" font-stretch="normal" font-size="9" font-variant="normal" writing-mode="lr-tb"/>
 </g>
 <g transform="matrix(2.5888297,0,0,1.778662,-154.50091,-5.0366012)" id="g2818">
  <path d="m 87.337395,19.449809 c -1.64648,64.693085 22.257285,82.140011 0,90.349041 -21.959068,-4.18631 -12.519273,-57.624514 0,-90.349041 z" id="path2776" sodipodi:nodetypes="ccc" inkscape:connector-curvature="0" opacity="0.8" fill="url(#radialGradient2829)" fill-rule="evenodd" stroke="none" fill-opacity="1"/>
  <path d="m 101.30043,36.424475 c -1.646484,64.693085 22.25729,82.140005 0,90.349035 -21.959071,-4.18631 -12.519276,-57.624508 0,-90.349035 z" id="path1873-6" sodipodi:nodetypes="ccc" inkscape:connector-curvature="0" opacity="0.8" fill="url(#radialGradient2831)" fill-rule="evenodd" stroke="none" fill-opacity="1"/>
  <path sodipodi:nodetypes="ccc" id="path2772" d="m 110.33533,26.842002 c -1.64648,64.693085 22.25729,82.140008 0,90.349038 -21.959068,-4.18631 -12.519273,-57.624511 0,-90.349038 z" inkscape:connector-curvature="0" opacity="0.8" fill="url(#radialGradient2833)" fill-rule="evenodd" stroke="none" fill-opacity="1"/>
  <path d="m 93.908233,51.756432 c -1.64648,64.693088 22.257287,82.140008 0,90.349038 -21.959068,-4.18631 -12.519273,-57.624511 0,-90.349038 z" id="path2780" sodipodi:nodetypes="ccc" inkscape:connector-curvature="0" opacity="0.8" fill="url(#radialGradient2835)" fill-rule="evenodd" stroke="none" fill-opacity="1"/>
  <path d="m 94.182019,51.75643 c -6.17641,42.436668 42.022011,72.00544 6.570831,91.99174 1.62063,-28.47363 -24.983099,-61.601615 -6.570831,-91.99174 z" id="path2784" sodipodi:nodetypes="ccc" inkscape:connector-curvature="0" opacity="0.704" fill="url(#radialGradient2837)" fill-rule="evenodd" stroke="none" fill-opacity="1"/>
  <path sodipodi:nodetypes="ccc" id="path2794" d="m 87.934389,27.663355 c 6.17641,42.436668 -42.022011,72.00544 -6.57083,91.991735 -1.620631,-28.473625 24.983101,-61.60161 6.57083,-91.991735 z" inkscape:connector-curvature="0" opacity="0.704" fill="url(#radialGradient2839)" fill-rule="evenodd" stroke="none" fill-opacity="1"/>
  <path d="m 94.709384,80.582953 c 3.18794,31.823667 22.174336,54.546907 5.475696,61.875397 C 85.861826,121.60422 81.578092,128.13868 94.709384,80.582953 z" id="path2798" sodipodi:nodetypes="ccc" inkscape:connector-curvature="0" opacity="0.714" fill="url(#radialGradient2841)" fill-rule="evenodd" stroke="none" fill-opacity="1"/>
  <path sodipodi:nodetypes="ccc" id="path2810" d="M 79.897667,71.190157 C 83.085607,103.01382 102.072,125.73706 85.373363,133.06555 71.050109,112.21142 66.766375,118.74588 79.897667,71.190157 z" inkscape:connector-curvature="0" opacity="0.714" fill="url(#radialGradient2843)" fill-rule="evenodd" stroke="none" fill-opacity="1"/>
  <path d="m 108.43732,61.797361 c 3.18794,31.823663 22.17433,54.546899 5.47569,61.875389 -14.32325,-20.85413 -18.606984,-14.31967 -5.47569,-61.875389 z" id="path2814" sodipodi:nodetypes="ccc" inkscape:connector-curvature="0" opacity="0.714" fill="url(#radialGradient2845)" fill-rule="evenodd" stroke="none" fill-opacity="1"/>
 </g>
</svg>
