<?xml version="1.0" encoding="UTF-8" standalone="no"?>
<svg
   xmlns:dc="http://purl.org/dc/elements/1.1/"
   xmlns:cc="http://creativecommons.org/ns#"
   xmlns:rdf="http://www.w3.org/1999/02/22-rdf-syntax-ns#"
   xmlns:svg="http://www.w3.org/2000/svg"
   xmlns="http://www.w3.org/2000/svg"
   xmlns:xlink="http://www.w3.org/1999/xlink"
   xmlns:sodipodi="http://sodipodi.sourceforge.net/DTD/sodipodi-0.dtd"
   xmlns:inkscape="http://www.inkscape.org/namespaces/inkscape"
   inkscape:output_extension="org.inkscape.output.svg.inkscape"
   sodipodi:docname="audio-flac.svg"
   version="1.0"
   height="256"
   width="256"
   inkscape:version="1.0 (4035a4f, 2020-05-01)"
   sodipodi:version="0.32"
   id="svg2562">
  <metadata
     id="metadata2567">
    <rdf:RDF>
      <cc:Work>
        <dc:format>image/svg+xml</dc:format>
        <dc:type
           rdf:resource="http://purl.org/dc/dcmitype/StillImage" />
        <dc:title></dc:title>
      </cc:Work>
    </rdf:RDF>
  </metadata>
  <defs
     id="defs2565">
    <linearGradient
       id="linearGradient1018">
      <stop
         id="stop1014"
         stop-color="#000000"
         stop-opacity="1" />
      <stop
         style="stop-color:#8b8b8b;stop-opacity:1"
         id="stop1016"
         offset="1"
         stop-color="#f8f8f8"
         stop-opacity="1" />
    </linearGradient>
    <linearGradient
       id="linearGradient1012">
      <stop
         style="stop-color:#8b8b8b;stop-opacity:0.69803923"
         id="stop1008"
         stop-color="#ffffff"
         stop-opacity="0.697" />
      <stop
         offset="1"
         id="stop1010"
         stop-color="#000000"
         stop-opacity="1" />
    </linearGradient>
    <linearGradient
       inkscape:collect="always"
       id="linearGradient3411">
      <stop
         stop-opacity="0.256"
         stop-color="#ffffff"
         id="stop3414" />
      <stop
         stop-opacity="0"
         stop-color="#8f8f8f"
         offset="1"
         id="stop3416" />
    </linearGradient>
    <linearGradient
       inkscape:collect="always"
       id="linearGradient3448">
      <stop
         stop-opacity="0.581"
         stop-color="#cbcbcb"
         id="stop3450" />
      <stop
         stop-opacity="0.591"
         stop-color="#000002"
         offset="1"
         id="stop3452" />
    </linearGradient>
    <linearGradient
       id="linearGradient3434">
      <stop
         stop-opacity="0.263"
         stop-color="#ffffff"
         id="stop3436" />
      <stop
         stop-opacity="0"
         stop-color="#8a8a8a"
         id="stop3438"
         offset="1" />
    </linearGradient>
    <linearGradient
       id="linearGradient3424"
       inkscape:collect="always">
      <stop
         stop-opacity="1"
         stop-color="#ffffff"
         id="stop3426" />
      <stop
         stop-opacity="0"
         stop-color="#929292"
         id="stop3428"
         offset="1" />
    </linearGradient>
    <linearGradient
       id="linearGradient3413">
      <stop
         stop-opacity="0.544"
         stop-color="#cfcfcf"
         id="stop3415" />
      <stop
         stop-opacity="0.386"
         stop-color="#787878"
         id="stop3417"
         offset="1" />
    </linearGradient>
    <linearGradient
       inkscape:collect="always"
       id="linearGradient3453">
      <stop
         stop-opacity="1"
         stop-color="#ffffff"
         id="stop3455" />
      <stop
         stop-opacity="1"
         stop-color="#6a6a6a"
         offset="1"
         id="stop3457" />
    </linearGradient>
    <linearGradient
       id="linearGradient3578">
      <stop
         stop-opacity="1"
         stop-color="#000000"
         id="stop3580" />
      <stop
         stop-opacity="1"
         stop-color="#fffcfc"
         id="stop3582"
         offset="1" />
    </linearGradient>
    <linearGradient
       y2="-7.475"
       x2="16.09"
       y1="-7.475"
       x1="13.515"
       spreadMethod="reflect"
       gradientUnits="userSpaceOnUse"
       id="linearGradient4353"
       xlink:href="#linearGradient3578"
       inkscape:collect="always" />
    <linearGradient
       y2="-7.475"
       x2="16.09"
       y1="-7.475"
       x1="13.515"
       spreadMethod="reflect"
       gradientUnits="userSpaceOnUse"
       id="linearGradient4355"
       xlink:href="#linearGradient3578"
       inkscape:collect="always" />
    <linearGradient
       y2="-7.475"
       x2="16.09"
       y1="-7.475"
       x1="13.515"
       spreadMethod="reflect"
       gradientUnits="userSpaceOnUse"
       id="linearGradient4357"
       xlink:href="#linearGradient3578"
       inkscape:collect="always" />
    <linearGradient
       y2="-7.475"
       x2="16.09"
       y1="-7.475"
       x1="13.515"
       spreadMethod="reflect"
       gradientUnits="userSpaceOnUse"
       id="linearGradient4359"
       xlink:href="#linearGradient3578"
       inkscape:collect="always" />
    <linearGradient
       y2="-7.475"
       x2="16.09"
       y1="-7.475"
       x1="13.515"
       spreadMethod="reflect"
       gradientUnits="userSpaceOnUse"
       id="linearGradient4361"
       xlink:href="#linearGradient3578"
       inkscape:collect="always" />
    <linearGradient
       y2="-7.475"
       x2="16.09"
       y1="-10.978"
       x1="16.691"
       spreadMethod="reflect"
       gradientUnits="userSpaceOnUse"
       id="linearGradient4363"
       xlink:href="#linearGradient3578"
       inkscape:collect="always" />
    <linearGradient
       y2="-7.475"
       x2="16.09"
       y1="-7.475"
       x1="13.515"
       spreadMethod="reflect"
       gradientUnits="userSpaceOnUse"
       id="linearGradient4365"
       xlink:href="#linearGradient3578"
       inkscape:collect="always" />
    <linearGradient
       y2="-7.475"
       x2="16.09"
       y1="-7.475"
       x1="13.515"
       spreadMethod="reflect"
       gradientUnits="userSpaceOnUse"
       id="linearGradient4367"
       xlink:href="#linearGradient3578"
       inkscape:collect="always" />
    <linearGradient
       y2="-7.475"
       x2="16.09"
       y1="-7.475"
       x1="13.515"
       spreadMethod="reflect"
       gradientUnits="userSpaceOnUse"
       id="linearGradient4369"
       xlink:href="#linearGradient3578"
       inkscape:collect="always" />
    <linearGradient
       y2="-7.475"
       x2="16.09"
       y1="-7.475"
       x1="13.515"
       spreadMethod="reflect"
       gradientUnits="userSpaceOnUse"
       id="linearGradient4371"
       xlink:href="#linearGradient3578"
       inkscape:collect="always" />
    <linearGradient
       y2="-7.475"
       x2="16.09"
       y1="-7.475"
       x1="13.515"
       spreadMethod="reflect"
       gradientUnits="userSpaceOnUse"
       id="linearGradient4373"
       xlink:href="#linearGradient3578"
       inkscape:collect="always" />
    <linearGradient
       y2="-2.688"
       x2="8.696"
       y1="-11.587"
       x1="12.04"
       spreadMethod="reflect"
       gradientUnits="userSpaceOnUse"
       id="linearGradient4375"
       xlink:href="#linearGradient3578"
       inkscape:collect="always" />
    <linearGradient
       y2="-7.475"
       x2="16.09"
       y1="-6.409"
       x1="10.621"
       spreadMethod="reflect"
       gradientUnits="userSpaceOnUse"
       id="linearGradient4377"
       xlink:href="#linearGradient3578"
       inkscape:collect="always" />
    <linearGradient
       y2="-7.475"
       x2="16.09"
       y1="-2.21"
       x1="15.65"
       spreadMethod="reflect"
       gradientUnits="userSpaceOnUse"
       id="linearGradient4379"
       xlink:href="#linearGradient3578"
       inkscape:collect="always" />
    <linearGradient
       y2="-7.475"
       x2="16.09"
       y1="-7.475"
       x1="13.515"
       spreadMethod="reflect"
       gradientUnits="userSpaceOnUse"
       id="linearGradient4381"
       xlink:href="#linearGradient3578"
       inkscape:collect="always" />
    <linearGradient
       y2="-11.199"
       x2="11.132"
       y1="-11.391"
       x1="16.387"
       spreadMethod="reflect"
       gradientUnits="userSpaceOnUse"
       id="linearGradient4383"
       xlink:href="#linearGradient3578"
       inkscape:collect="always" />
    <linearGradient
       y2="-7.475"
       x2="16.09"
       y1="-7.475"
       x1="13.515"
       spreadMethod="reflect"
       gradientUnits="userSpaceOnUse"
       id="linearGradient4385"
       xlink:href="#linearGradient3578"
       inkscape:collect="always" />
    <linearGradient
       y2="-7.475"
       x2="16.09"
       y1="-7.475"
       x1="13.515"
       spreadMethod="reflect"
       gradientUnits="userSpaceOnUse"
       id="linearGradient4387"
       xlink:href="#linearGradient3578"
       inkscape:collect="always" />
    <linearGradient
       y2="-7.475"
       x2="16.09"
       y1="-7.475"
       x1="13.515"
       spreadMethod="reflect"
       gradientUnits="userSpaceOnUse"
       id="linearGradient4389"
       xlink:href="#linearGradient3578"
       inkscape:collect="always" />
    <linearGradient
       y2="-7.475"
       x2="16.09"
       y1="-7.475"
       x1="13.515"
       spreadMethod="reflect"
       gradientUnits="userSpaceOnUse"
       id="linearGradient4391"
       xlink:href="#linearGradient3578"
       inkscape:collect="always" />
    <linearGradient
       y2="-7.475"
       x2="16.09"
       y1="-7.475"
       x1="13.515"
       spreadMethod="reflect"
       gradientUnits="userSpaceOnUse"
       id="linearGradient4393"
       xlink:href="#linearGradient3578"
       inkscape:collect="always" />
    <linearGradient
       y2="-7.475"
       x2="16.09"
       y1="-7.475"
       x1="13.515"
       spreadMethod="reflect"
       gradientUnits="userSpaceOnUse"
       id="linearGradient4395"
       xlink:href="#linearGradient3578"
       inkscape:collect="always" />
    <linearGradient
       y2="-7.475"
       x2="16.09"
       y1="-7.475"
       x1="13.515"
       spreadMethod="reflect"
       gradientUnits="userSpaceOnUse"
       id="linearGradient4397"
       xlink:href="#linearGradient3578"
       inkscape:collect="always" />
    <linearGradient
       y2="-7.475"
       x2="16.09"
       y1="-7.475"
       x1="13.515"
       spreadMethod="reflect"
       gradientUnits="userSpaceOnUse"
       id="linearGradient4399"
       xlink:href="#linearGradient3578"
       inkscape:collect="always" />
    <linearGradient
       y2="-7.475"
       x2="16.09"
       y1="-7.475"
       x1="13.515"
       spreadMethod="reflect"
       gradientUnits="userSpaceOnUse"
       id="linearGradient4401"
       xlink:href="#linearGradient3578"
       inkscape:collect="always" />
    <linearGradient
       y2="-8.02"
       x2="17.07"
       y1="-7.475"
       x1="13.515"
       spreadMethod="reflect"
       gradientUnits="userSpaceOnUse"
       id="linearGradient4403"
       xlink:href="#linearGradient3578"
       inkscape:collect="always" />
    <linearGradient
       y2="-7.475"
       x2="16.09"
       y1="-7.475"
       x1="13.515"
       spreadMethod="reflect"
       gradientUnits="userSpaceOnUse"
       id="linearGradient4405"
       xlink:href="#linearGradient3578"
       inkscape:collect="always" />
    <linearGradient
       y2="-6.953"
       x2="17.747"
       y1="-5.908"
       x1="16.387"
       spreadMethod="reflect"
       gradientUnits="userSpaceOnUse"
       id="linearGradient4407"
       xlink:href="#linearGradient3578"
       inkscape:collect="always" />
    <linearGradient
       y2="-5.778"
       x2="11.372"
       y1="-10.151"
       x1="12.906"
       spreadMethod="reflect"
       gradientUnits="userSpaceOnUse"
       id="linearGradient4409"
       xlink:href="#linearGradient3578"
       inkscape:collect="always" />
    <linearGradient
       y2="-7.475"
       x2="16.09"
       y1="-7.475"
       x1="13.515"
       spreadMethod="reflect"
       gradientUnits="userSpaceOnUse"
       id="linearGradient4411"
       xlink:href="#linearGradient3578"
       inkscape:collect="always" />
    <linearGradient
       y2="-7.475"
       x2="16.09"
       y1="-7.475"
       x1="13.515"
       spreadMethod="reflect"
       gradientUnits="userSpaceOnUse"
       id="linearGradient4413"
       xlink:href="#linearGradient3578"
       inkscape:collect="always" />
    <linearGradient
       y2="-6.583"
       x2="18.617"
       y1="-5.212"
       x1="16.909"
       spreadMethod="reflect"
       gradientUnits="userSpaceOnUse"
       id="linearGradient4415"
       xlink:href="#linearGradient3578"
       inkscape:collect="always" />
    <linearGradient
       y2="-1.992"
       x2="17.377"
       y1="-6.256"
       x1="15.582"
       spreadMethod="reflect"
       gradientUnits="userSpaceOnUse"
       id="linearGradient4417"
       xlink:href="#linearGradient3578"
       inkscape:collect="always" />
    <linearGradient
       y2="-3.733"
       x2="14.94"
       y1="-2.275"
       x1="17.08"
       spreadMethod="reflect"
       gradientUnits="userSpaceOnUse"
       id="linearGradient4419"
       xlink:href="#linearGradient3578"
       inkscape:collect="always" />
    <linearGradient
       y2="-4.516"
       x2="12.916"
       y1="-3.754"
       x1="7.771"
       spreadMethod="reflect"
       gradientUnits="userSpaceOnUse"
       id="linearGradient4421"
       xlink:href="#linearGradient3578"
       inkscape:collect="always" />
    <linearGradient
       y2="-1.513"
       x2="9.718"
       y1="-5.887"
       x1="11.187"
       spreadMethod="reflect"
       gradientUnits="userSpaceOnUse"
       id="linearGradient4423"
       xlink:href="#linearGradient3578"
       inkscape:collect="always" />
    <linearGradient
       y2="-7.475"
       x2="16.09"
       y1="-7.475"
       x1="13.515"
       spreadMethod="reflect"
       gradientUnits="userSpaceOnUse"
       id="linearGradient4425"
       xlink:href="#linearGradient3578"
       inkscape:collect="always" />
    <linearGradient
       gradientTransform="matrix(0.92745427,0.37810187,-0.22354989,0.54835037,-241.26227,38.084025)"
       gradientUnits="userSpaceOnUse"
       y2="210.36"
       x2="200.26"
       y1="38.573"
       x1="56.18"
       id="linearGradient3388"
       xlink:href="#linearGradient3453"
       inkscape:collect="always" />
    <linearGradient
       y2="210.36"
       x2="200.26"
       y1="38.573"
       x1="56.18"
       gradientTransform="matrix(0.37441672,0.15264112,-0.09024792,0.22137107,-189.00163,107.69304)"
       gradientUnits="userSpaceOnUse"
       id="linearGradient3419"
       xlink:href="#linearGradient3413"
       inkscape:collect="always" />
    <linearGradient
       gradientTransform="matrix(0.92745427,0.37810187,-0.22354989,0.54835037,-239.96352,38.801665)"
       spreadMethod="reflect"
       gradientUnits="userSpaceOnUse"
       y2="43.14"
       x2="19.932"
       y1="151.03"
       x1="83.42"
       id="linearGradient3430"
       xlink:href="#linearGradient3424"
       inkscape:collect="always" />
    <linearGradient
       gradientTransform="matrix(0.90253298,0.02471707,0.3091603,0.66561112,-305.97492,67.434668)"
       spreadMethod="reflect"
       gradientUnits="userSpaceOnUse"
       y2="53.4"
       x2="156.52"
       y1="53.4"
       x1="121.72"
       id="linearGradient3440"
       xlink:href="#linearGradient3411"
       inkscape:collect="always" />
    <linearGradient
       y2="53.4"
       x2="156.52"
       y1="53.4"
       x1="121.72"
       spreadMethod="reflect"
       gradientTransform="matrix(-0.90253298,-0.02471707,-0.3091603,-0.66561112,0.83717604,243.36393)"
       gradientUnits="userSpaceOnUse"
       id="linearGradient3444"
       xlink:href="#linearGradient3434"
       inkscape:collect="always" />
    <linearGradient
       gradientTransform="matrix(0.92745427,0.37810187,-0.22354989,0.54835037,-241.32805,38.24538)"
       y2="43.14"
       x2="19.932"
       y1="151.03"
       x1="83.42"
       spreadMethod="reflect"
       gradientUnits="userSpaceOnUse"
       id="linearGradient3454"
       xlink:href="#linearGradient3448"
       inkscape:collect="always" />
    <linearGradient
       id="linearGradient4080">
      <stop
         stop-opacity="1"
         stop-color="#000000"
         id="stop4082" />
      <stop
         stop-opacity="0"
         stop-color="#000000"
         offset="1"
         id="stop4084" />
    </linearGradient>
    <linearGradient
       id="linearGradient4062">
      <stop
         stop-opacity="0.697"
         stop-color="#ffffff"
         id="stop4064" />
      <stop
         stop-opacity="1"
         stop-color="#000000"
         id="stop4066"
         offset="1" />
    </linearGradient>
    <linearGradient
       id="linearGradient2403">
      <stop
         stop-opacity="1"
         stop-color="#000000"
         id="stop2405" />
      <stop
         style="stop-color:#808080;stop-opacity:1"
         stop-opacity="1"
         stop-color="#f8f8f8"
         offset="1"
         id="stop2407" />
    </linearGradient>
    <linearGradient
       id="linearGradient2393">
      <stop
         stop-opacity="1"
         stop-color="#f1f1f1"
         id="stop2395" />
      <stop
         stop-opacity="1"
         stop-color="#000000"
         offset="1"
         id="stop2397" />
    </linearGradient>
    <linearGradient
       id="linearGradient2373">
      <stop
         style="stop-color:#d1d1d1;stop-opacity:1"
         stop-opacity="1"
         stop-color="#ffffff"
         id="stop2375" />
      <stop
         style="stop-color:#000000;stop-opacity:0"
         stop-opacity="0"
         stop-color="#aaaaaa"
         id="stop2377"
         offset="1" />
    </linearGradient>
    <linearGradient
       id="linearGradient2361">
      <stop
         style="stop-color:#626262;stop-opacity:1"
         stop-opacity="1"
         stop-color="#ded7d7"
         id="stop2363" />
      <stop
         stop-opacity="1"
         stop-color="#000000"
         offset="1"
         id="stop2365" />
    </linearGradient>
    <linearGradient
       gradientTransform="matrix(1.1785423,0,0,1.1600423,-93.10738,-78.158844)"
       inkscape:collect="always"
       xlink:href="#linearGradient4080"
       id="linearGradient4086"
       x1="182.91"
       y1="295.69"
       x2="160.98"
       y2="252.45"
       gradientUnits="userSpaceOnUse" />
    <linearGradient
       inkscape:collect="always"
       xlink:href="#linearGradient1012"
       id="linearGradient4020"
       gradientUnits="userSpaceOnUse"
       gradientTransform="matrix(1.1554391,0,0,1.1600423,-91.2988,-106.76704)"
       spreadMethod="reflect"
       x1="206.77"
       y1="201.99"
       x2="212.75"
       y2="201.99" />
    <linearGradient
       inkscape:collect="always"
       xlink:href="#linearGradient4062"
       id="linearGradient4023"
       gradientUnits="userSpaceOnUse"
       gradientTransform="matrix(1.1554391,0,0,1.1554391,126.65148,-38.174116)"
       x1="28.67705"
       y1="95.370033"
       x2="89.741692"
       y2="147.45815" />
    <linearGradient
       inkscape:collect="always"
       xlink:href="#linearGradient2403"
       id="linearGradient4026"
       gradientUnits="userSpaceOnUse"
       gradientTransform="matrix(1.1554391,0,0,1.1600423,-89.94634,-107.34188)"
       spreadMethod="reflect"
       x1="209.81"
       y1="173.74"
       x2="245.58"
       y2="174.54" />
    <linearGradient
       inkscape:collect="always"
       xlink:href="#linearGradient4062"
       id="linearGradient4029"
       gradientUnits="userSpaceOnUse"
       gradientTransform="matrix(1.1554391,0,0,1.1554391,127.14667,-38.646726)"
       x1="31.043755"
       y1="70.535362"
       x2="83.86"
       y2="107.33" />
    <linearGradient
       inkscape:collect="always"
       xlink:href="#linearGradient1018"
       id="linearGradient4032"
       gradientUnits="userSpaceOnUse"
       gradientTransform="matrix(1.1554391,0,0,1.1600423,-90.25388,-157.68373)"
       spreadMethod="reflect"
       x1="215.44"
       y1="176.44"
       x2="248.41"
       y2="178.17" />
    <linearGradient
       inkscape:collect="always"
       xlink:href="#linearGradient2393"
       id="linearGradient4035"
       gradientUnits="userSpaceOnUse"
       gradientTransform="matrix(1.1554391,0,0,1.1600423,-91.48275,-107.34188)"
       spreadMethod="reflect"
       x1="206.77"
       y1="201.99"
       x2="212.75"
       y2="201.99" />
    <radialGradient
       inkscape:collect="always"
       xlink:href="#linearGradient2361"
       id="radialGradient4065"
       gradientUnits="userSpaceOnUse"
       gradientTransform="matrix(0.05924022,-1.0405371,1.5866278,0.08751671,-334.96159,406.42545)"
       cx="181.84"
       cy="281.29"
       fx="181.84"
       fy="281.29"
       r="40.08" />
    <radialGradient
       inkscape:collect="always"
       xlink:href="#linearGradient2373"
       id="radialGradient4067"
       gradientUnits="userSpaceOnUse"
       gradientTransform="matrix(0.09601085,0.55267431,-1.6006053,0.26939778,508.94221,21.585493)"
       cx="205.52"
       cy="268.28"
       fx="205.52"
       fy="268.28"
       r="40.08" />
    <filter
       color-interpolation-filters="sRGB"
       height="1.1127137"
       y="-0.056356834"
       width="1.0786826"
       x="-0.039341279"
       id="filter5387"
       inkscape:collect="always">
      <feGaussianBlur
         stdDeviation="3.3487566"
         id="feGaussianBlur5389"
         inkscape:collect="always" />
    </filter>
    <filter
       color-interpolation-filters="sRGB"
       height="1.038"
       y="-0.019"
       width="1.062"
       x="-0.031"
       id="filter1215"
       inkscape:collect="always">
      <feGaussianBlur
         id="feGaussianBlur1217"
         stdDeviation="1.59826"
         inkscape:collect="always" />
    </filter>
  </defs>
  <sodipodi:namedview
     inkscape:document-rotation="0"
     inkscape:window-maximized="1"
     inkscape:current-layer="svg2562"
     inkscape:window-y="0"
     inkscape:window-x="0"
     inkscape:cy="128"
     inkscape:cx="128"
     inkscape:zoom="3.5429688"
     showgrid="false"
     id="base"
     pagecolor="#ff0000"
     bordercolor="#666666"
     borderopacity="1.0"
     objecttolerance="10.0"
     gridtolerance="10.0"
     guidetolerance="10.0"
     inkscape:pageopacity="0"
     inkscape:pageshadow="2"
     inkscape:window-width="1920"
     inkscape:window-height="1056" />
  <g
     transform="translate(2.1760732,0.9332439)"
     id="layer1"
     inkscape:label="1. réteg">
    <g
       id="g2637">
      <g
         transform="translate(-2.5722563,0)"
         id="g3612">
        <g
           font-size="12"
           stroke-width="1"
           stroke-linecap="butt"
           font-weight="normal"
           fill-opacity="1"
           stroke-linejoin="miter"
           font-style="normal"
           stroke="none"
           font-family="Bitstream Vera Sans"
           fill="url(#linearGradient4425)"
           stroke-opacity="1"
           id="g2650">
          <path
             fill-opacity="1"
             fill="url(#linearGradient4353)"
             d="M 16.1875,-12.21875 L 12.09375,-12.1875 L 12.800857,-11.480393 L 16.894607,-11.511643 L 16.1875,-12.21875 z"
             id="path2652" />
          <path
             fill-opacity="1"
             fill="url(#linearGradient4355)"
             d="M 12.09375,-12.1875 L 8.75,-3.4375 L 9.4571068,-2.7303932 L 12.800857,-11.480393 L 12.09375,-12.1875 z"
             id="path2654" />
          <path
             fill-opacity="1"
             fill="url(#linearGradient4357)"
             d="M 14.75,-5.6875 L 15.53125,-3.46875 L 16.238357,-2.7616432 L 15.457107,-4.9803932 L 14.75,-5.6875 z"
             id="path2662" />
          <path
             fill-opacity="1"
             fill="url(#linearGradient4359)"
             d="M 15.53125,-3.46875 L 15.53125,-3.4375 L 16.238357,-2.7303932 L 16.238357,-2.7616432 L 15.53125,-3.46875 z"
             id="path2664" />
          <path
             fill-opacity="1"
             fill="url(#linearGradient4361)"
             d="M 17.92037,-11.519527 C 17.478803,-11.961094 16.896486,-12.233764 16.1875,-12.21875 L 16.894607,-11.511643 C 17.603593,-11.526657 18.185909,-11.253988 18.627477,-10.81242 L 17.92037,-11.519527 z"
             id="path2672" />
          <path
             fill-opacity="1"
             fill="url(#linearGradient4363)"
             d="M 16.21875,-11.96875 C 16.818366,-11.965939 17.317195,-11.725944 17.700221,-11.342918 L 18.407328,-10.635811 C 18.024302,-11.018837 17.525473,-11.258832 16.925857,-11.261643 L 16.21875,-11.96875 z"
             id="path2674" />
          <path
             fill-opacity="1"
             fill="url(#linearGradient4365)"
             d="M 17.700221,-11.342918 C 19.261676,-9.7814631 18.898615,-5.8429893 15.59375,-5.90625 L 16.300857,-5.1991432 C 19.605722,-5.1358825 19.968783,-9.0743563 18.407328,-10.635811 L 17.700221,-11.342918 z"
             id="path2676" />
          <path
             fill-opacity="1"
             fill="url(#linearGradient4367)"
             d="M 15.59375,-5.90625 L 16.375,-3.71875 L 17.082107,-3.0116432 L 16.300857,-5.1991432 L 15.59375,-5.90625 z"
             id="path2678" />
          <path
             fill-opacity="1"
             fill="url(#linearGradient4369)"
             d="M 16.375,-3.71875 L 15.71875,-3.71875 L 16.425857,-3.0116432 L 17.082107,-3.0116432 L 16.375,-3.71875 z"
             id="path2680" />
          <path
             fill-opacity="1"
             fill="url(#linearGradient4371)"
             d="M 14.875,-5.96875 L 10.5625,-5.96875 L 11.269607,-5.2616432 L 15.582107,-5.2616432 L 14.875,-5.96875 z"
             id="path2684" />
          <path
             fill-opacity="1"
             fill="url(#linearGradient4373)"
             d="M 10.5625,-5.96875 L 9.75,-3.75 L 10.457107,-3.0428932 L 11.269607,-5.2616432 L 10.5625,-5.96875 z"
             id="path2686" />
          <path
             fill-opacity="1"
             fill="url(#linearGradient4375)"
             d="M 9.1875,-3.75 L 12.28125,-11.90625 L 12.988357,-11.199143 L 9.8946068,-3.0428932 L 9.1875,-3.75 z"
             id="path2690" />
          <path
             fill-opacity="1"
             fill="url(#linearGradient4377)"
             d="M 10.8125,-5.6875 L 14.75,-5.6875 L 15.457107,-4.9803932 L 11.519607,-4.9803932 L 10.8125,-5.6875 z"
             id="path2660" />
          <path
             fill-opacity="1"
             fill="url(#linearGradient4379)"
             d="M 15.71875,-3.71875 L 14.875,-5.96875 L 15.582107,-5.2616432 L 16.425857,-3.0116432 L 15.71875,-3.71875 z"
             id="path2682" />
          <path
             fill-opacity="1"
             fill="url(#linearGradient4381)"
             d="M 9.75,-3.75 L 9.1875,-3.75 L 9.8946068,-3.0428932 L 10.457107,-3.0428932 L 9.75,-3.75 z"
             id="path2688" />
          <path
             fill-opacity="1"
             fill="url(#linearGradient4383)"
             d="M 12.28125,-11.90625 L 16.21875,-11.96875 L 16.925857,-11.261643 L 12.988357,-11.199143 L 12.28125,-11.90625 z"
             id="path2692" />
          <path
             fill-opacity="1"
             fill="url(#linearGradient4385)"
             d="M 13.59375,-11.375 L 15.4375,-6.4375 L 16.144607,-5.7303932 L 14.300857,-10.667893 L 13.59375,-11.375 z"
             id="path2694" />
          <path
             fill-opacity="1"
             fill="url(#linearGradient4387)"
             d="M 17.29651,-10.694689 C 16.87154,-11.11966 16.292483,-11.392236 15.59375,-11.375 L 16.300857,-10.667893 C 16.99959,-10.685129 17.578646,-10.412554 18.003617,-9.9875826 L 17.29651,-10.694689 z"
             id="path2698" />
          <path
             fill-opacity="1"
             fill="url(#linearGradient4389)"
             d="M 15.59375,-11.375 L 13.59375,-11.375 L 14.300857,-10.667893 L 16.300857,-10.667893 L 15.59375,-11.375 z"
             id="path2700" />
          <path
             fill-opacity="1"
             fill="url(#linearGradient4391)"
             d="M 12.5,-11.25 L 10.71875,-6.375 L 11.425857,-5.6678932 L 13.207107,-10.542893 L 12.5,-11.25 z"
             id="path2702" />
          <path
             fill-opacity="1"
             fill="url(#linearGradient4393)"
             d="M 10.71875,-6.375 L 14.71875,-6.3125 L 15.425857,-5.6053932 L 11.425857,-5.6678932 L 10.71875,-6.375 z"
             id="path2704" />
          <path
             fill-opacity="1"
             fill="url(#linearGradient4395)"
             d="M 14.71875,-6.3125 L 12.96875,-11.25 L 13.675857,-10.542893 L 15.425857,-5.6053932 L 14.71875,-6.3125 z"
             id="path2706" />
          <path
             fill-opacity="1"
             fill="url(#linearGradient4397)"
             d="M 12.96875,-11.25 L 12.5,-11.25 L 13.207107,-10.542893 L 13.675857,-10.542893 L 12.96875,-11.25 z"
             id="path2708" />
          <path
             fill-opacity="1"
             fill="url(#linearGradient4399)"
             d="M 13.96875,-11.125 L 15.5625,-11.125 L 16.269607,-10.417893 L 14.675857,-10.417893 L 13.96875,-11.125 z"
             id="path2710" />
          <path
             fill-opacity="1"
             fill="url(#linearGradient4401)"
             d="M 15.5625,-11.125 C 16.263236,-11.142285 16.807643,-10.897983 17.18911,-10.516516 L 17.896217,-9.8094094 C 17.51475,-10.190876 16.970342,-10.435179 16.269607,-10.417893 L 15.5625,-11.125 z"
             id="path2712" />
          <path
             fill-opacity="1"
             fill="url(#linearGradient4403)"
             d="M 17.18911,-10.516516 C 18.415922,-9.2897044 17.957455,-6.644214 15.59375,-6.71875 L 16.300857,-6.0116432 C 18.664562,-5.9371073 19.123029,-8.5825976 17.896217,-9.8094094 L 17.18911,-10.516516 z"
             id="path2714" />
          <path
             fill-opacity="1"
             fill="url(#linearGradient4405)"
             d="M 15.59375,-6.71875 L 13.96875,-11.125 L 14.675857,-10.417893 L 16.300857,-6.0116432 L 15.59375,-6.71875 z"
             id="path2716" />
          <path
             fill-opacity="1"
             fill="url(#linearGradient4407)"
             d="M 15.4375,-6.4375 C 18.434536,-6.3628978 18.668368,-9.3228317 17.29651,-10.694689 L 18.003617,-9.9875826 C 19.375475,-8.6157249 19.141643,-5.655791 16.144607,-5.7303932 L 15.4375,-6.4375 z"
             id="path2696" />
          <path
             fill-opacity="1"
             fill="url(#linearGradient4409)"
             d="M 11.15625,-6.65625 L 12.75,-11.03125 L 13.457107,-10.324143 L 11.863357,-5.9491432 L 11.15625,-6.65625 z"
             id="path2722" />
          <path
             fill-opacity="1"
             fill="url(#linearGradient4411)"
             d="M 12.75,-11.03125 L 14.375,-6.65625 L 15.082107,-5.9491432 L 13.457107,-10.324143 L 12.75,-11.03125 z"
             id="path2718" />
          <path
             fill-opacity="1"
             fill="url(#linearGradient4413)"
             d="M 14.375,-6.65625 L 11.15625,-6.65625 L 11.863357,-5.9491432 L 15.082107,-5.9491432 L 14.375,-6.65625 z"
             id="path2720" />
          <path
             fill-opacity="1"
             fill="url(#linearGradient4415)"
             d="M 15.96875,-5.6875 C 19.235011,-5.6249782 19.618583,-9.8213136 17.92037,-11.519527 L 18.627477,-10.81242 C 20.32569,-9.1142068 19.942118,-4.9178714 16.675857,-4.9803932 L 15.96875,-5.6875 z"
             id="path2670" />
          <path
             fill-opacity="1"
             fill="url(#linearGradient4417)"
             d="M 16.78125,-3.4375 L 15.96875,-5.6875 L 16.675857,-4.9803932 L 17.488357,-2.7303932 L 16.78125,-3.4375 z"
             id="path2668" />
          <path
             fill-opacity="1"
             fill="url(#linearGradient4419)"
             d="M 15.53125,-3.4375 L 16.78125,-3.4375 L 17.488357,-2.7303932 L 16.238357,-2.7303932 L 15.53125,-3.4375 z"
             id="path2666" />
          <path
             fill-opacity="1"
             fill="url(#linearGradient4421)"
             d="M 8.75,-3.4375 L 10,-3.4375 L 10.707107,-2.7303932 L 9.4571068,-2.7303932 L 8.75,-3.4375 z"
             id="path2656" />
          <path
             fill-opacity="1"
             fill="url(#linearGradient4423)"
             d="M 10,-3.4375 L 10.8125,-5.6875 L 11.519607,-4.9803932 L 10.707107,-2.7303932 L 10,-3.4375 z"
             id="path2658" />
        </g>
        <path
           font-size="12"
           stroke-width="1"
           stroke-linecap="butt"
           font-weight="normal"
           fill-opacity="1"
           stroke-linejoin="miter"
           font-style="normal"
           stroke="none"
           font-family="Bitstream Vera Sans"
           fill="#333333"
           stroke-opacity="1"
           d="M 16.1875,-12.175236 L 12.09375,-12.143986 L 8.7499996,-3.3939857 L 9.9999996,-3.3939857 L 10.8125,-5.6439857 L 14.75,-5.6439857 L 15.53125,-3.4252357 L 15.53125,-3.3939857 L 16.78125,-3.3939857 L 15.96875,-5.6439857 C 20.084301,-5.565207 19.623157,-12.247993 16.1875,-12.175236 z M 16.21875,-11.925236 C 19.262779,-11.910965 19.709301,-5.7839571 15.59375,-5.8627357 L 16.375,-3.6752357 L 15.71875,-3.6752357 L 14.875,-5.9252357 L 10.5625,-5.9252357 L 9.7499996,-3.7064857 L 9.1874996,-3.7064857 L 12.28125,-11.862736 L 16.21875,-11.925236 z M 13.59375,-11.331486 L 15.4375,-6.3939857 C 19.362951,-6.2962734 18.548077,-11.404362 15.59375,-11.331486 L 13.59375,-11.331486 z M 12.5,-11.206486 L 10.71875,-6.3314857 L 14.71875,-6.2689857 L 12.96875,-11.206486 L 12.5,-11.206486 z M 13.96875,-11.081486 L 15.5625,-11.081486 C 18.516827,-11.154362 18.69243,-6.5775234 15.59375,-6.6752357 L 13.96875,-11.081486 z M 12.75,-10.987736 L 14.375,-6.6127357 L 11.15625,-6.6127357 L 12.75,-10.987736 z"
           id="path2505" />
      </g>
      <path
         font-size="4"
         stroke-width="1"
         stroke-linecap="butt"
         font-weight="normal"
         fill-opacity="1"
         stroke-linejoin="miter"
         font-style="normal"
         stroke="none"
         font-family="Bitstream Vera Sans"
         fill="#d40000"
         stroke-opacity="1"
         sodipodi:nodetypes="csssccccccssscccsssssssccsssssssccsssssssccssssssscccccccsccccsccccccccccsssccccsssccccccssssscccccccssssscccsssccssscccccccsssssssccsssssssccccsssssssssssssssccssssssssssssssscccsssssssccsssccsssccssssssscccccsssccccsssccccsssccccccsssccssssscccccccssssscccsssccssscccccccccccccccccccccccsssssssccsssssssccsssssssccsssssssccsssccccsssccccsssccccccsssc"
         d="M 6.0871491,-4.0239012 C 6.0766271,-4.0350472 6.0650871,-4.0430982 6.0525291,-4.0480532 C 6.0403101,-4.0536252 6.0267331,-4.0564122 6.0117991,-4.0564132 C 5.9588511,-4.0564122 5.9181211,-4.0248292 5.8896111,-3.9616652 C 5.8614391,-3.8991182 5.8473541,-3.8090152 5.8473541,-3.6913552 L 5.8473541,-3.1433032 L 5.7531671,-3.1433032 L 5.7531671,-4.1836722 L 5.8473541,-4.1836722 L 5.8473541,-4.0220442 C 5.8670401,-4.0852082 5.8926651,-4.1319622 5.9242311,-4.1623082 C 5.9557961,-4.1932692 5.9941491,-4.2087522 6.0392921,-4.2087532 C 6.0457401,-4.2087522 6.0528681,-4.2078222 6.0606751,-4.2059662 C 6.0684811,-4.2047262 6.0771361,-4.2025592 6.0866401,-4.1994642 L 6.0871491,-4.0239012 M 6.3849841,-4.0638442 C 6.3347511,-4.0638432 6.2950401,-4.0279262 6.2658501,-3.9560922 C 6.2366611,-3.8848752 6.2220661,-3.7870312 6.2220661,-3.6625592 C 6.2220661,-3.5380862 6.2364911,-3.4399322 6.2653411,-3.3680972 C 6.2945301,-3.2968812 6.3344111,-3.2612732 6.3849841,-3.2612732 C 6.4348791,-3.2612732 6.4744201,-3.2971912 6.5036101,-3.3690262 C 6.5327991,-3.4408612 6.5473941,-3.5387052 6.5473941,-3.6625592 C 6.5473941,-3.7857922 6.5327991,-3.8833272 6.5036101,-3.9551632 C 6.4744201,-4.0276162 6.4348791,-4.0638432 6.3849841,-4.0638442 M 6.3849841,-4.2087532 C 6.4664441,-4.2087522 6.5304231,-4.1604492 6.5769231,-4.0638442 C 6.6234221,-3.9672382 6.6466721,-3.8334762 6.6466731,-3.6625592 C 6.6466721,-3.4922602 6.6234221,-3.3584982 6.5769231,-3.2612732 C 6.5304231,-3.1646682 6.4664441,-3.1163652 6.3849841,-3.1163652 C 6.3031851,-3.1163652 6.2390361,-3.1646682 6.1925371,-3.2612732 C 6.1463771,-3.3584982 6.1232971,-3.4922602 6.1232971,-3.6625592 C 6.1232971,-3.8334762 6.1463771,-3.9672382 6.1925371,-4.0638442 C 6.2390361,-4.1604492 6.3031851,-4.2087522 6.3849841,-4.2087532 M 7.0224031,-4.0638442 C 6.9721701,-4.0638432 6.9324581,-4.0279262 6.9032691,-3.9560922 C 6.8740791,-3.8848752 6.8594851,-3.7870312 6.8594851,-3.6625592 C 6.8594851,-3.5380862 6.8739101,-3.4399322 6.9027601,-3.3680972 C 6.9319491,-3.2968812 6.9718301,-3.2612732 7.0224031,-3.2612732 C 7.0722961,-3.2612732 7.1118381,-3.2971912 7.1410281,-3.3690262 C 7.1702171,-3.4408612 7.1848121,-3.5387052 7.1848121,-3.6625592 C 7.1848121,-3.7857922 7.1702171,-3.8833272 7.1410281,-3.9551632 C 7.1118381,-4.0276162 7.0722961,-4.0638432 7.0224031,-4.0638442 M 7.0224031,-4.2087532 C 7.1038621,-4.2087522 7.1678411,-4.1604492 7.2143411,-4.0638442 C 7.2608401,-3.9672382 7.2840901,-3.8334762 7.2840901,-3.6625592 C 7.2840901,-3.4922602 7.2608401,-3.3584982 7.2143411,-3.2612732 C 7.1678411,-3.1646682 7.1038621,-3.1163652 7.0224031,-3.1163652 C 6.9406041,-3.1163652 6.8764551,-3.1646682 6.8299561,-3.2612732 C 6.7837951,-3.3584982 6.7607161,-3.4922602 6.7607161,-3.6625592 C 6.7607161,-3.8334762 6.7837951,-3.9672382 6.8299561,-4.0638442 C 6.8764551,-4.1604492 6.9406041,-4.2087522 7.0224031,-4.2087532 M 7.5315231,-4.4790632 L 7.5315231,-4.1836722 L 7.7244781,-4.1836722 L 7.7244781,-4.0508402 L 7.5315231,-4.0508402 L 7.5315231,-3.4860682 C 7.5315221,-3.4012282 7.5378011,-3.3467322 7.5503591,-3.3225812 C 7.5632571,-3.2984292 7.5892221,-3.2863532 7.6282551,-3.2863542 L 7.7244781,-3.2863542 L 7.7244781,-3.1433032 L 7.6282551,-3.1433032 C 7.5559591,-3.1433032 7.5060671,-3.1677642 7.4785741,-3.2166862 C 7.4510821,-3.2662282 7.4373361,-3.3560212 7.4373361,-3.4860682 L 7.4373361,-4.0508402 L 7.3686041,-4.0508402 L 7.3686041,-4.1836722 L 7.4373361,-4.1836722 L 7.4373361,-4.4790632 L 7.5315231,-4.4790632 M 7.9551091,-4.3759552 L 7.9551091,-3.8548412 L 8.0844261,-3.8548412 C 8.1322831,-3.8548412 8.1692791,-3.8774442 8.1954141,-3.9226512 C 8.2215481,-3.9678572 8.2346161,-4.0322602 8.2346161,-4.1158622 C 8.2346161,-4.1988432 8.2215481,-4.2629372 8.1954141,-4.3081452 C 8.1692791,-4.3533502 8.1322831,-4.3759542 8.0844261,-4.3759552 L 7.9551091,-4.3759552 M 7.8522671,-4.5301522 L 8.0844261,-4.5301522 C 8.1696181,-4.5301512 8.2339371,-4.4948522 8.2773821,-4.4242582 C 8.3211661,-4.3542792 8.3430581,-4.2514812 8.3430581,-4.1158622 C 8.3430581,-3.9790032 8.3211661,-3.8755862 8.2773821,-3.8056102 C 8.2339371,-3.7356322 8.1696181,-3.7006432 8.0844261,-3.7006432 L 7.9551091,-3.7006432 L 7.9551091,-3.1433032 L 7.8522671,-3.1433032 L 7.8522671,-4.5301522 M 8.6897691,-3.6662742 C 8.6140801,-3.6662742 8.5616401,-3.6504832 8.5324511,-3.6189002 C 8.5032611,-3.5873172 8.4886671,-3.5334412 8.4886671,-3.4572722 C 8.4886671,-3.3965832 8.4995281,-3.3482812 8.5212501,-3.3123632 C 8.5433121,-3.2770652 8.5731801,-3.2594162 8.6108561,-3.2594162 C 8.6627861,-3.2594162 8.7043641,-3.2928562 8.7355901,-3.3597372 C 8.7671551,-3.4272372 8.7829381,-3.5167212 8.7829381,-3.6281902 L 8.7829381,-3.6662742 L 8.6897691,-3.6662742 M 8.8766161,-3.7368712 L 8.8766161,-3.1433032 L 8.7829381,-3.1433032 L 8.7829381,-3.3012162 C 8.7615551,-3.2380512 8.7349111,-3.1912962 8.7030061,-3.1609522 C 8.6711011,-3.1312272 8.6320691,-3.1163652 8.5859091,-3.1163652 C 8.5275291,-3.1163652 8.4810301,-3.1460902 8.4464101,-3.2055402 C 8.4121291,-3.2656082 8.3949891,-3.3458032 8.3949891,-3.4461252 C 8.3949891,-3.5631662 8.4163721,-3.6514122 8.4591381,-3.7108622 C 8.5022431,-3.7703102 8.5663921,-3.8000352 8.6515851,-3.8000362 L 8.7829381,-3.8000362 L 8.7829381,-3.8167562 C 8.7829381,-3.8954022 8.7686821,-3.9560912 8.7401721,-3.9988212 C 8.7120001,-4.0421682 8.6722891,-4.0638432 8.6210381,-4.0638442 C 8.5884541,-4.0638432 8.5567191,-4.0567212 8.5258321,-4.0424792 C 8.4949461,-4.0282352 8.4652471,-4.0068712 8.4367361,-3.9783852 L 8.4367361,-4.1362982 C 8.4710171,-4.1604492 8.5042801,-4.1784082 8.5365241,-4.1901742 C 8.5687681,-4.2025592 8.6001641,-4.2087522 8.6307111,-4.2087532 C 8.7131881,-4.2087522 8.7747921,-4.1697372 8.8155221,-4.0917112 C 8.8562511,-4.0136832 8.8766151,-3.8954022 8.8766161,-3.7368712 M 9.0700821,-4.5886732 L 9.1637601,-4.5886732 L 9.1637601,-3.1433032 L 9.0700821,-3.1433032 L 9.0700821,-4.5886732 M 9.7173101,-3.6686217 C 9.7173091,-3.5800657 9.7293591,-3.5103987 9.7534571,-3.4596187 C 9.7775551,-3.4094577 9.8106481,-3.3843777 9.8527351,-3.3843777 C 9.8944841,-3.3843777 9.9272371,-3.4097677 9.9509961,-3.4605477 C 9.9750941,-3.5113277 9.9871441,-3.5806857 9.9871441,-3.6686217 C 9.9871441,-3.7553187 9.9749251,-3.8240567 9.9504871,-3.8748377 C 9.9260491,-3.9262367 9.8931261,-3.9519357 9.8517171,-3.9519367 C 9.8106481,-3.9519357 9.7778941,-3.9265457 9.7534571,-3.8757667 C 9.7293591,-3.8249857 9.7173091,-3.7559377 9.7173101,-3.6686217 M 9.9947811,-3.3908797 C 9.9744161,-3.3431967 9.9509961,-3.3078987 9.9245221,-3.2849857 C 9.8983871,-3.2626917 9.8678391,-3.2515447 9.8328801,-3.2515447 C 9.7745001,-3.2515447 9.7269831,-3.2899397 9.6903261,-3.3667287 C 9.6540091,-3.4441367 9.6358501,-3.5447677 9.6358501,-3.6686217 C 9.6358501,-3.7924747 9.6541781,-3.8931047 9.6908361,-3.9705147 C 9.7274921,-4.0479217 9.7748401,-4.0866257 9.8328801,-4.0866267 C 9.8678391,-4.0866257 9.8985571,-4.0748597 9.9250311,-4.0513287 C 9.9515051,-4.0284147 9.9747551,-3.9934267 9.9947811,-3.9463627 L 9.9947811,-4.0680487 L 10.067585,-4.0680487 L 10.067585,-3.3843777 C 10.117139,-3.3980017 10.155832,-3.4391827 10.183664,-3.5079217 C 10.211835,-3.5772787 10.22592,-3.6667627 10.225921,-3.7763737 C 10.22592,-3.8426357 10.22049,-3.9048717 10.209629,-3.9630827 C 10.199107,-4.0212937 10.182985,-4.0751697 10.161263,-4.1247117 C 10.125963,-4.2058347 10.082858,-4.2677617 10.031947,-4.3104917 C 9.9813731,-4.3538397 9.9262191,-4.3755137 9.8664821,-4.3755157 C 9.8247341,-4.3755137 9.7846831,-4.3652967 9.7463291,-4.3448617 C 9.7079751,-4.3250437 9.6725071,-4.2953187 9.6399231,-4.2556877 C 9.5866351,-4.1925207 9.5448881,-4.1095387 9.5146801,-4.0067417 C 9.4848111,-3.9045617 9.4698771,-3.7937127 9.4698771,-3.6741947 C 9.4698771,-3.5757307 9.4795511,-3.4834607 9.4988971,-3.3973827 C 9.5185831,-3.3113037 9.5469241,-3.2354437 9.5839201,-3.1698017 C 9.6195581,-3.1053977 9.6607971,-3.0564757 9.7076361,-3.0230357 C 9.7544751,-2.9889757 9.8045381,-2.9719457 9.8578271,-2.9719457 C 9.9016111,-2.9719457 9.9445471,-2.9855697 9.9866351,-3.0128177 C 10.029061,-3.0394457 10.067924,-3.0778407 10.103223,-3.1280017 L 10.149044,-3.0248937 C 10.106617,-2.9648247 10.060287,-2.9189987 10.010055,-2.8874157 C 9.9601601,-2.8552147 9.9094181,-2.8391137 9.8578271,-2.8391127 C 9.7950351,-2.8391137 9.7358071,-2.8595487 9.6801441,-2.9004207 C 9.6244801,-2.9406727 9.5749261,-2.9995037 9.5314811,-3.0769117 C 9.4880361,-3.1543197 9.4549431,-3.2438037 9.4322031,-3.3453637 C 9.4094621,-3.4475427 9.3980911,-3.5571537 9.3980921,-3.6741947 C 9.3980911,-3.7869007 9.4096321,-3.8943437 9.4327121,-3.9965237 C 9.4557921,-4.0987017 9.4887151,-4.1884957 9.5314811,-4.2659047 C 9.5752651,-4.3445507 9.6258371,-4.4046197 9.6831991,-4.4461117 C 9.7405591,-4.4882207 9.8013141,-4.5092757 9.8654631,-4.5092767 C 9.9374201,-4.5092757 10.004114,-4.4823377 10.065549,-4.4284627 C 10.127321,-4.3745847 10.179081,-4.2981057 10.22083,-4.1990237 C 10.246285,-4.1383347 10.265632,-4.0723827 10.27887,-4.0011677 C 10.292445,-3.9299517 10.299233,-3.8562587 10.299235,-3.7800897 C 10.299233,-3.6172217 10.27225,-3.4887247 10.218284,-3.3945957 C 10.164317,-3.3004667 10.089816,-3.2515447 9.9947811,-3.2478297 L 9.9947811,-3.3908797 M 10.84552,-3.7020617 C 10.845519,-3.8259147 10.831434,-3.9219007 10.803263,-3.9900217 C 10.775431,-4.0581397 10.736229,-4.0921997 10.685656,-4.0922007 C 10.635423,-4.0921997 10.596221,-4.0581397 10.56805,-3.9900217 C 10.540218,-3.9219007 10.526302,-3.8259147 10.526302,-3.7020617 C 10.526302,-3.5788277 10.540218,-3.4831507 10.56805,-3.4150317 C 10.596221,-3.3469117 10.635423,-3.3128517 10.685656,-3.3128527 C 10.736229,-3.3128517 10.775431,-3.3469117 10.803263,-3.4150317 C 10.831434,-3.4831507 10.845519,-3.5788277 10.84552,-3.7020617 M 10.939198,-3.2989187 C 10.939197,-3.1218087 10.917645,-2.9902147 10.87454,-2.9041367 C 10.831434,-2.8174387 10.765418,-2.7740907 10.676492,-2.7740897 C 10.643569,-2.7740907 10.612513,-2.7787347 10.583323,-2.7880237 C 10.554134,-2.7966937 10.525793,-2.8103177 10.4983,-2.8288957 L 10.4983,-2.9951687 C 10.525793,-2.9679207 10.552946,-2.9477947 10.57976,-2.9347897 C 10.606573,-2.9217857 10.633896,-2.9152837 10.661728,-2.9152827 C 10.723161,-2.9152837 10.769152,-2.9446987 10.799699,-3.0035287 C 10.830246,-3.0617397 10.845519,-3.1499857 10.84552,-3.2682657 L 10.84552,-3.3527957 C 10.826173,-3.2914877 10.801396,-3.2456617 10.771189,-3.2153177 C 10.74098,-3.1849737 10.704833,-3.1698017 10.662746,-3.1698017 C 10.592827,-3.1698017 10.536484,-3.2184147 10.493718,-3.3156387 C 10.450952,-3.4128637 10.429569,-3.5416717 10.429569,-3.7020617 C 10.429569,-3.8630707 10.450952,-3.9921877 10.493718,-4.0894137 C 10.536484,-4.1866377 10.592827,-4.2352507 10.662746,-4.2352517 C 10.704833,-4.2352507 10.74098,-4.2200787 10.771189,-4.1897347 C 10.801396,-4.1593897 10.826173,-4.1135637 10.84552,-4.0522577 L 10.84552,-4.2101707 L 10.939198,-4.2101707 L 10.939198,-3.2989187 M 11.576107,-4.0104577 C 11.599526,-4.0872457 11.627527,-4.1439077 11.660111,-4.1804457 C 11.692695,-4.2169817 11.731048,-4.2352507 11.775172,-4.2352517 C 11.834569,-4.2352507 11.88039,-4.1971647 11.912635,-4.1209957 C 11.944878,-4.0454447 11.961,-3.9376927 11.961001,-3.7977387 L 11.961001,-3.1698017 L 11.866814,-3.1698017 L 11.866814,-3.7921657 C 11.866813,-3.8918667 11.85714,-3.9658687 11.837794,-4.0141727 C 11.818447,-4.0624747 11.788918,-4.0866257 11.749207,-4.0866267 C 11.700671,-4.0866257 11.662317,-4.0572107 11.634146,-3.9983817 C 11.605975,-3.9395497 11.591889,-3.8593557 11.591889,-3.7577967 L 11.591889,-3.1698017 L 11.497702,-3.1698017 L 11.497702,-3.7921657 C 11.497702,-3.8924857 11.488029,-3.9664887 11.468682,-4.0141727 C 11.449336,-4.0624747 11.419467,-4.0866257 11.379077,-4.0866267 C 11.33122,-4.0866257 11.293206,-4.0569017 11.265035,-3.9974527 C 11.236863,-3.9386217 11.222777,-3.8587357 11.222778,-3.7577967 L 11.222778,-3.1698017 L 11.128591,-3.1698017 L 11.128591,-4.2101707 L 11.222778,-4.2101707 L 11.222778,-4.0485427 C 11.24416,-4.1123257 11.269786,-4.1593897 11.299655,-4.1897347 C 11.329523,-4.2200787 11.364991,-4.2352507 11.406061,-4.2352517 C 11.447469,-4.2352507 11.482598,-4.2160527 11.511449,-4.1776597 C 11.540638,-4.1392637 11.56219,-4.0835297 11.576107,-4.0104577 M 12.407499,-3.6927727 C 12.33181,-3.6927727 12.27937,-3.6769817 12.250181,-3.6453987 C 12.220992,-3.6138157 12.206397,-3.5599397 12.206397,-3.4837707 C 12.206397,-3.4230817 12.217258,-3.3747797 12.238981,-3.3388617 C 12.261042,-3.3035637 12.290911,-3.2859147 12.328586,-3.2859147 C 12.380516,-3.2859147 12.422094,-3.3193547 12.45332,-3.3862357 C 12.484885,-3.4537357 12.500668,-3.5432197 12.500668,-3.6546887 L 12.500668,-3.6927727 L 12.407499,-3.6927727 M 12.594346,-3.7633697 L 12.594346,-3.1698017 L 12.500668,-3.1698017 L 12.500668,-3.3277147 C 12.479285,-3.2645497 12.452641,-3.2177947 12.420736,-3.1874507 C 12.388831,-3.1577257 12.349799,-3.1428637 12.303639,-3.1428637 C 12.24526,-3.1428637 12.19876,-3.1725887 12.16414,-3.2320387 C 12.129859,-3.2921067 12.112719,-3.3723017 12.112719,-3.4726237 C 12.112719,-3.5896647 12.134102,-3.6779107 12.176868,-3.7373607 C 12.219973,-3.7968087 12.284122,-3.8265337 12.369315,-3.8265347 L 12.500668,-3.8265347 L 12.500668,-3.8432547 C 12.500668,-3.9219007 12.486412,-3.9825897 12.457902,-4.0253197 C 12.429731,-4.0686667 12.390019,-4.0903417 12.338768,-4.0903427 C 12.306184,-4.0903417 12.274449,-4.0832197 12.243563,-4.0689777 C 12.212676,-4.0547337 12.182977,-4.0333697 12.154467,-4.0048837 L 12.154467,-4.1627967 C 12.188747,-4.1869477 12.22201,-4.2049067 12.254254,-4.2166727 C 12.286498,-4.2290577 12.317894,-4.2352507 12.348441,-4.2352517 C 12.430918,-4.2352507 12.492522,-4.1962357 12.533252,-4.1182097 C 12.573981,-4.0401817 12.594346,-3.9219007 12.594346,-3.7633697 M 12.787812,-4.2101707 L 12.88149,-4.2101707 L 12.88149,-3.1698017 L 12.787812,-3.1698017 L 12.787812,-4.2101707 M 12.787812,-4.6151717 L 12.88149,-4.6151717 L 12.88149,-4.3987377 L 12.787812,-4.3987377 L 12.787812,-4.6151717 M 13.076992,-4.6151717 L 13.17067,-4.6151717 L 13.17067,-3.1698017 L 13.076992,-3.1698017 L 13.076992,-4.6151717 M 13.379409,-3.4057427 L 13.486833,-3.4057427 L 13.486833,-3.1698017 L 13.379409,-3.1698017 L 13.379409,-3.4057427 M 14.108468,-4.1702277 L 14.108468,-4.0104577 C 14.081994,-4.0370847 14.05535,-4.0569017 14.028537,-4.0699067 C 14.002062,-4.0835297 13.975248,-4.0903417 13.948096,-4.0903427 C 13.88734,-4.0903417 13.840162,-4.0550437 13.80656,-3.9844477 C 13.772958,-3.9144697 13.756157,-3.8160067 13.756157,-3.6890577 C 13.756157,-3.5621067 13.772958,-3.4633337 13.80656,-3.3927377 C 13.840162,-3.3227607 13.88734,-3.2877717 13.948096,-3.2877717 C 13.975248,-3.2877717 14.002062,-3.2942747 14.028537,-3.3072787 C 14.05535,-3.3209027 14.081994,-3.3410287 14.108468,-3.3676577 L 14.108468,-3.2097447 C 14.082333,-3.1874507 14.05518,-3.1707307 14.027009,-3.1595837 C 13.999177,-3.1484377 13.969478,-3.1428637 13.937913,-3.1428637 C 13.852041,-3.1428637 13.783819,-3.1920947 13.733247,-3.2905587 C 13.682674,-3.3890217 13.657388,-3.5218547 13.657388,-3.6890577 C 13.657388,-3.8587357 13.682844,-3.9921877 13.733756,-4.0894137 C 13.785007,-4.1866377 13.855096,-4.2352507 13.944023,-4.2352517 C 13.972872,-4.2352507 14.001043,-4.2296767 14.028537,-4.2185307 C 14.056029,-4.2080027 14.082672,-4.1919017 14.108468,-4.1702277 M 14.493363,-4.0903427 C 14.443129,-4.0903417 14.403418,-4.0544247 14.374229,-3.9825907 C 14.345039,-3.9113737 14.330444,-3.8135297 14.330445,-3.6890577 C 14.330444,-3.5645847 14.344869,-3.4664307 14.37372,-3.3945957 C 14.402909,-3.3233797 14.44279,-3.2877717 14.493363,-3.2877717 C 14.543256,-3.2877717 14.582798,-3.3236897 14.611988,-3.3955247 C 14.641177,-3.4673597 14.655772,-3.5652037 14.655772,-3.6890577 C 14.655772,-3.8122907 14.641177,-3.9098257 14.611988,-3.9816617 C 14.582798,-4.0541147 14.543256,-4.0903417 14.493363,-4.0903427 M 14.493363,-4.2352517 C 14.574821,-4.2352507 14.638801,-4.1869477 14.685301,-4.0903427 C 14.7318,-3.9937367 14.75505,-3.8599747 14.75505,-3.6890577 C 14.75505,-3.5187587 14.7318,-3.3849967 14.685301,-3.2877717 C 14.638801,-3.1911667 14.574821,-3.1428637 14.493363,-3.1428637 C 14.411564,-3.1428637 14.347415,-3.1911667 14.300915,-3.2877717 C 14.254755,-3.3849967 14.231675,-3.5187587 14.231675,-3.6890577 C 14.231675,-3.8599747 14.254755,-3.9937367 14.300915,-4.0903427 C 14.347415,-4.1869477 14.411564,-4.2352507 14.493363,-4.2352517 M 15.353775,-4.0104577 C 15.377194,-4.0872457 15.405195,-4.1439077 15.43778,-4.1804457 C 15.470363,-4.2169817 15.508716,-4.2352507 15.552841,-4.2352517 C 15.612237,-4.2352507 15.658058,-4.1971647 15.690303,-4.1209957 C 15.722547,-4.0454447 15.738669,-3.9376927 15.738669,-3.7977387 L 15.738669,-3.1698017 L 15.644482,-3.1698017 L 15.644482,-3.7921657 C 15.644482,-3.8918667 15.634808,-3.9658687 15.615463,-4.0141727 C 15.596115,-4.0624747 15.566586,-4.0866257 15.526876,-4.0866267 C 15.478339,-4.0866257 15.439985,-4.0572107 15.411815,-3.9983817 C 15.383643,-3.9395497 15.369557,-3.8593557 15.369558,-3.7577967 L 15.369558,-3.1698017 L 15.275371,-3.1698017 L 15.275371,-3.7921657 C 15.27537,-3.8924857 15.265697,-3.9664887 15.246351,-4.0141727 C 15.227004,-4.0624747 15.197136,-4.0866257 15.156746,-4.0866267 C 15.108888,-4.0866257 15.070874,-4.0569017 15.042703,-3.9974527 C 15.014531,-3.9386217 15.000446,-3.8587357 15.000446,-3.7577967 L 15.000446,-3.1698017 L 14.906259,-3.1698017 L 14.906259,-4.2101707 L 15.000446,-4.2101707 L 15.000446,-4.0485427 C 15.021829,-4.1123257 15.047455,-4.1593897 15.077323,-4.1897347 C 15.107191,-4.2200787 15.14266,-4.2352507 15.183729,-4.2352517 C 15.225137,-4.2352507 15.260266,-4.2160527 15.289117,-4.1776597 C 15.318306,-4.1392637 15.339859,-4.0835297 15.353775,-4.0104577"
         id="text2170" />
    </g>
  </g>
  <path
     style="filter:url(#filter5387)"
     stroke-miterlimit="4"
     stroke-dashoffset="0"
     stroke-width="3"
     stroke-linecap="round"
     fill-opacity="0.78"
     stroke-linejoin="round"
     stroke="none"
     filter="url(#filter5387)"
     fill="#000000"
     stroke-opacity="1"
     stroke-dasharray="none"
     opacity="1"
     inkscape:connector-curvature="0"
     d="M 150.08176,107.98241 C 95.274977,85.638937 40.091747,93.817357 26.881347,126.22145 c -13.21041,32.40408 20.52601,76.833 75.332783,99.17647 54.80677,22.34346 110.01896,14.17685 123.22938,-18.22723 13.2104,-32.40409 -20.555,-76.84482 -75.36175,-99.18828 z m -14.18146,34.78597 c 22.3352,9.10555 36.09142,27.21095 30.70783,40.41647 -5.38359,13.20552 -27.87734,16.53264 -50.21255,7.42709 -22.335213,-9.10555 -36.091423,-27.21096 -30.707843,-40.41647 5.38359,-13.20552 27.877373,-16.53264 50.212563,-7.42709 z"
     id="path3478" />
  <g
     transform="translate(277.57374,2.8700089)"
     id="g5350">
    <path
       stroke-miterlimit="4"
       stroke-dashoffset="0"
       stroke-width="2.31"
       stroke-linecap="round"
       fill-opacity="0.656"
       stroke-linejoin="round"
       stroke="url(#linearGradient3388)"
       fill="#929292"
       stroke-opacity="1"
       stroke-dasharray="none"
       opacity="1"
       inkscape:connector-curvature="0"
       d="m -129.20474,96.756886 c -54.80677,-22.343466 -109.98999,-14.165047 -123.2004,18.239044 -13.2104,32.40409 20.52601,76.83301 75.33278,99.17648 54.80677,22.34346 110.018972,14.17686 123.229387,-18.22723 13.210407,-32.40409 -20.554993,-76.84483 -75.361767,-99.188294 z m -14.18144,34.785974 c 22.3352,9.10555 36.09142,27.21096 30.70783,40.41648 -5.38359,13.20552 -27.87736,16.53264 -50.21256,7.42709 -22.3352,-9.10555 -36.09142,-27.21095 -30.70783,-40.41648 5.38359,-13.20552 27.87735,-16.53264 50.21256,-7.42709 z"
       id="path2610" />
    <path
       stroke-miterlimit="4"
       stroke-dashoffset="0"
       stroke-width="3"
       stroke-linecap="round"
       fill-opacity="1"
       stroke-linejoin="round"
       stroke="none"
       fill="url(#linearGradient3454)"
       stroke-opacity="1"
       stroke-dasharray="none"
       opacity="1"
       inkscape:connector-curvature="0"
       d="m -129.54863,97.600902 c -54.16954,-22.083681 -108.71113,-14.000349 -121.76795,18.026988 -13.0568,32.02733 20.28735,75.93967 74.45689,98.02335 54.16953,22.08368 108.739779,14.01203 121.796598,-18.0153 13.056811,-32.02734 -20.316001,-75.95136 -74.485538,-98.035038 z m -14.01656,34.381518 c 22.07552,8.99968 35.67179,26.89457 30.35079,39.94656 -5.32099,13.05198 -27.55322,16.34042 -49.62873,7.34074 -22.07551,-8.99968 -35.67179,-26.89457 -30.3508,-39.94656 5.321,-13.05199 27.55324,-16.34042 49.62874,-7.34074 z"
       id="path3446" />
    <path
       stroke-miterlimit="4"
       stroke-dashoffset="0"
       stroke-width="3"
       stroke-linecap="round"
       fill-opacity="1"
       stroke-linejoin="round"
       stroke="none"
       fill="url(#linearGradient3430)"
       stroke-opacity="1"
       stroke-dasharray="none"
       opacity="1"
       inkscape:connector-curvature="0"
       id="path3422"
       d="m -128.1841,98.157188 c -54.16953,-22.083679 -108.71113,-14.000347 -121.76794,18.026982 -13.05681,32.02733 20.28734,75.93967 74.45688,98.02335 54.16953,22.08368 108.739778,14.01203 121.796596,-18.0153 13.05681,-32.02733 -20.316002,-75.95135 -74.485536,-98.035032 z m -14.01656,34.381522 c 22.07552,8.99968 35.67178,26.89457 30.35079,39.94655 -5.32099,13.05198 -27.55322,16.34042 -49.62873,7.34074 -22.07551,-8.99968 -35.67179,-26.89457 -30.35079,-39.94656 5.32099,-13.05198 27.55322,-16.34041 49.62873,-7.34073 z" />
    <path
       stroke-width="1"
       stroke-linecap="butt"
       fill-opacity="1"
       stroke-linejoin="miter"
       stroke="none"
       fill-rule="evenodd"
       fill="url(#linearGradient3440)"
       stroke-opacity="1"
       inkscape:connector-curvature="0"
       d="m -215.10058,88.174144 c 15.78916,-4.484375 34.19475,-3.86271 53.99507,-0.238221 l 3.37009,38.355057 c -7.08063,-1.76891 -14.9497,-2.07869 -23.20835,0.18243 l -34.15681,-38.299266 z"
       id="path3432"
       sodipodi:nodetypes="ccccc" />
    <path
       stroke-width="1"
       stroke-linecap="butt"
       fill-opacity="1"
       stroke-linejoin="miter"
       stroke="none"
       fill-rule="evenodd"
       fill="url(#linearGradient3444)"
       stroke-opacity="1"
       inkscape:connector-curvature="0"
       sodipodi:nodetypes="ccccc"
       id="path3442"
       d="m -90.037165,222.62446 c -15.789155,4.48437 -34.194745,3.86271 -53.995065,0.23822 l -3.3701,-38.35506 c 7.08063,1.7689 14.94971,2.07869 23.20836,-0.18243 l 34.156805,38.29927 z" />
    <path
       stroke-miterlimit="4"
       stroke-dashoffset="0"
       stroke-width="1.54"
       stroke-linecap="round"
       fill-opacity="0.374"
       stroke-linejoin="round"
       stroke="url(#linearGradient3419)"
       fill="#abb2f2"
       stroke-opacity="1"
       stroke-dasharray="none"
       opacity="1"
       inkscape:connector-curvature="0"
       d="m -143.75667,131.37382 c -22.1257,-9.02014 -44.41539,-5.70725 -49.74848,7.3744 -5.33309,13.08166 8.29409,31.01723 30.41979,40.03737 22.1257,9.02015 44.40847,5.72423 49.74156,-7.35742 5.33309,-13.08165 -8.28717,-31.03421 -30.41287,-40.05435 z m -5.89618,14.46289 c 8.63631,3.52082 13.95758,10.52448 11.87592,15.63063 -2.08167,5.10615 -10.77593,6.3762 -19.41224,2.85537 -8.63633,-3.52083 -13.96451,-10.5075 -11.88285,-15.61366 2.08166,-5.10615 10.78285,-6.39317 19.41917,-2.87234 z"
       id="path3403" />
    <path
       stroke-miterlimit="4"
       stroke-dashoffset="0"
       stroke-width="0.68"
       stroke-linecap="round"
       fill-opacity="1"
       stroke-linejoin="round"
       stroke="#787878"
       fill="none"
       stroke-opacity="1"
       stroke-dasharray="none"
       opacity="1"
       inkscape:connector-curvature="0"
       id="path3456"
       d="m -132.01539,103.65607 c -48.36667,-19.717981 -97.06555,-12.500572 -108.72366,16.09586 -11.65811,28.59643 18.11409,67.8047 66.48076,87.52268 48.36666,19.71798 97.091113,12.511 108.749231,-16.08543 11.65811,-28.59643 -18.139661,-67.81512 -66.506331,-87.53311 z"
       sodipodi:nodetypes="csssc" />
    <path
       stroke-miterlimit="4"
       stroke-dashoffset="0"
       stroke-width="0.662"
       stroke-linecap="round"
       fill-opacity="1"
       stroke-linejoin="round"
       stroke="#787878"
       fill="none"
       stroke-opacity="1"
       stroke-dasharray="none"
       opacity="1"
       inkscape:connector-curvature="0"
       sodipodi:nodetypes="csssc"
       d="m -132.56522,105.00572 c -47.10683,-19.20438 -94.53722,-12.174967 -105.89167,15.67659 -11.35444,27.85156 17.64226,66.03855 64.7491,85.24293 47.10683,19.20438 94.56212,12.18512 105.916573,-15.66644 11.354443,-27.85156 -17.667169,-66.0487 -64.774003,-85.25308 z"
       id="path3458" />
    <path
       stroke-miterlimit="4"
       stroke-dashoffset="0"
       stroke-width="0.644"
       stroke-linecap="round"
       fill-opacity="1"
       stroke-linejoin="round"
       stroke="#787878"
       fill="none"
       stroke-opacity="1"
       stroke-dasharray="none"
       opacity="1"
       inkscape:connector-curvature="0"
       id="path3460"
       d="m -133.11505,106.35536 c -45.847,-18.690768 -92.0089,-11.849352 -103.05967,15.25734 -11.05078,27.10669 17.17042,64.2724 63.01742,82.96317 45.847,18.69077 92.033137,11.85923 103.083924,-15.24745 11.050777,-27.1067 -17.194675,-64.28229 -63.041674,-82.97306 z"
       sodipodi:nodetypes="csssc" />
    <path
       stroke-miterlimit="4"
       stroke-dashoffset="0"
       stroke-width="0.627"
       stroke-linecap="round"
       fill-opacity="1"
       stroke-linejoin="round"
       stroke="#787878"
       fill="none"
       stroke-opacity="1"
       stroke-dasharray="none"
       opacity="1"
       inkscape:connector-curvature="0"
       sodipodi:nodetypes="csssc"
       d="m -133.66488,107.70501 c -44.58716,-18.177167 -89.48057,-11.523747 -100.22768,14.83808 -10.74711,26.36182 16.69859,62.50624 61.28576,80.68341 44.58716,18.17716 89.504144,11.53335 100.251265,-14.82847 10.747111,-26.36182 -16.722181,-62.51586 -61.309345,-80.69302 z"
       id="path3462" />
    <path
       stroke-miterlimit="4"
       stroke-dashoffset="0"
       stroke-width="0.611"
       stroke-linecap="round"
       fill-opacity="1"
       stroke-linejoin="round"
       stroke="#787878"
       fill="none"
       stroke-opacity="1"
       stroke-dasharray="none"
       opacity="1"
       inkscape:connector-curvature="0"
       id="path3464"
       d="m -134.15369,108.90487 c -43.46714,-17.720562 -87.23284,-11.234275 -97.70999,14.46535 -10.47714,25.69961 16.27913,60.9361 59.74628,78.65666 43.46714,17.72056 87.255829,11.24364 97.732984,-14.45598 10.477147,-25.69962 -16.302131,-60.94547 -59.769274,-78.66603 z"
       sodipodi:nodetypes="csssc" />
    <path
       stroke-miterlimit="4"
       stroke-dashoffset="0"
       stroke-width="0.593"
       stroke-linecap="round"
       fill-opacity="1"
       stroke-linejoin="round"
       stroke="#787878"
       fill="none"
       stroke-opacity="1"
       stroke-dasharray="none"
       opacity="1"
       inkscape:connector-curvature="0"
       sodipodi:nodetypes="csssc"
       d="m -134.7036,110.25471 c -42.20712,-17.20688 -84.70414,-10.908616 -94.87758,14.04603 -10.17344,24.95464 15.80723,59.1697 58.01436,76.37658 42.20712,17.20687 84.726467,10.9177 94.899912,-14.03694 10.173436,-24.95464 -15.82957,-59.1788 -58.036692,-76.38567 z"
       id="path3466" />
    <path
       stroke-miterlimit="4"
       stroke-dashoffset="0"
       stroke-width="0.577"
       stroke-linecap="round"
       fill-opacity="1"
       stroke-linejoin="round"
       stroke="#787878"
       fill="none"
       stroke-opacity="1"
       stroke-dasharray="none"
       opacity="1"
       inkscape:connector-curvature="0"
       id="path3468"
       d="m -135.1924,111.45457 c -41.08711,-16.750275 -82.45642,-10.61914 -92.3599,13.6733 -9.90347,24.29243 15.38777,57.59956 56.47488,74.34983 41.0871,16.75027 82.478152,10.62799 92.381631,-13.66444 9.903472,-24.29244 -15.409519,-57.60842 -56.496611,-74.35869 z"
       sodipodi:nodetypes="csssc" />
    <path
       stroke-miterlimit="4"
       stroke-dashoffset="0"
       stroke-width="0.56"
       stroke-linecap="round"
       fill-opacity="1"
       stroke-linejoin="round"
       stroke="#787878"
       fill="none"
       stroke-opacity="1"
       stroke-dasharray="none"
       opacity="1"
       inkscape:connector-curvature="0"
       sodipodi:nodetypes="csssc"
       d="m -135.74231,112.80441 c -39.82709,-16.236593 -79.92773,-10.29349 -89.52749,13.25398 -9.59976,23.54746 14.91587,55.83315 54.74296,72.06974 39.82707,16.23659 79.948789,10.30206 89.548558,-13.24539 9.599762,-23.54747 -14.936957,-55.84174 -54.764028,-72.07833 z"
       id="path3470" />
    <path
       stroke-miterlimit="4"
       stroke-dashoffset="0"
       stroke-width="0.542"
       stroke-linecap="round"
       fill-opacity="1"
       stroke-linejoin="round"
       stroke="#787878"
       fill="none"
       stroke-opacity="1"
       stroke-dasharray="none"
       opacity="1"
       inkscape:connector-curvature="0"
       id="path3472"
       d="m -136.29222,114.15425 c -38.56707,-15.722911 -77.39904,-9.96783 -86.69509,12.83466 -9.29605,22.80248 14.44398,54.06674 53.01104,69.78966 38.56706,15.7229 77.419437,9.97612 86.715496,-12.82635 9.29605,-22.80249 -14.464395,-54.07507 -53.031446,-69.79797 z"
       sodipodi:nodetypes="csssc" />
    <path
       stroke-miterlimit="4"
       stroke-dashoffset="0"
       stroke-width="0.524"
       stroke-linecap="round"
       fill-opacity="1"
       stroke-linejoin="round"
       stroke="#787878"
       fill="none"
       stroke-opacity="1"
       stroke-dasharray="none"
       opacity="1"
       inkscape:connector-curvature="0"
       sodipodi:nodetypes="csssc"
       d="m -136.84205,115.50389 c -37.30724,-15.2093 -74.87071,-9.64221 -83.86309,12.4154 -8.99239,22.05762 13.97214,52.3006 51.27937,67.5099 37.30722,15.2093 74.890444,9.65025 83.882827,-12.40736 8.992385,-22.05762 -13.991892,-52.30864 -51.299107,-67.51794 z"
       id="path3474" />
    <path
       stroke-miterlimit="4"
       stroke-dashoffset="0"
       stroke-width="0.508"
       stroke-linecap="round"
       fill-opacity="1"
       stroke-linejoin="round"
       stroke="#787878"
       fill="none"
       stroke-opacity="1"
       stroke-dasharray="none"
       opacity="1"
       inkscape:connector-curvature="0"
       id="path3476"
       d="m -137.33079,116.70358 c -36.18738,-14.75277 -72.6233,-9.35279 -81.34576,12.04272 -8.72246,21.39551 13.55274,50.73068 49.74011,65.48345 36.18737,14.75276 72.642446,9.36057 81.364905,-12.03493 8.722459,-21.39551 -13.571895,-50.73848 -49.759255,-65.49124 z"
       sodipodi:nodetypes="csssc" />
  </g>
  <g
     fill-opacity="0.224"
     filter="url(#filter1215)"
     fill="#000000"
     transform="matrix(1.1554391,0,0.24396797,1.0314093,-342.67954,-18.717307)"
     id="g3951">
    <path
       fill-opacity="0.224"
       stroke="none"
       fill="#000000"
       d="m 376.0625,58.46875 c -2.81816,4.703215 0.15171,10.996385 -0.97065,16.312498 -0.14558,43.968572 0.30249,87.939502 -0.2481,131.906252 -4.15603,3.67988 -7.80306,-2.77377 -12.15625,-2.40625 -21.32634,-4.48673 -46.62713,6.15233 -54.75,27.0625 -2.50931,9.57932 5.14558,19.5211 14.875,20.4375 20.06256,4.803 43.10092,-5.05888 53.25,-22.78125 4.05194,-11.51714 0.54495,-24.03237 1.6875,-36 0,-21.75 0,-43.5 0,-65.25 12.01856,14.13299 32.60328,16.52859 45.03125,30.125 -1.3988,3.00813 -0.17627,0.49675 0.8572,0.94248 9.90804,12.86444 4.87812,30.44211 -0.9197,44.02627 8.02603,-12.24949 14.24075,-30.08653 4.59375,-43 -5.11104,-5.91374 2.56421,-12.51142 3.5,-18.5625 3.81112,-12.23673 -0.24562,-26.51096 -10.65251,-34.29287 C 405.31493,92.777621 384.66139,81.902066 379,60.875 c 0.46595,-1.820387 -1.34371,-2.719479 -2.9375,-2.40625 z m 3.25,26.71875 c 13.85031,14.389527 38.21711,15.96981 47.5625,34.90625 5.09087,11.20256 1.43633,23.96536 -2.78125,34.8125 -16.11494,-16.15842 -39.89582,-27.73502 -45.6875,-51.40625 -1.63473,-6.513758 0.0519,-13.299542 -0.9375,-19.90625 0.61458,0.53125 1.22917,1.0625 1.84375,1.59375 z"
       id="path3947"
       inkscape:connector-curvature="0" />
    <path
       fill-opacity="0.224"
       stroke="none"
       fill="#000000"
       d="m 375.46875,57.53125 c -3.17685,2.890854 -0.48206,11.14771 -1.375,16.125 -0.17082,44.15375 0.3389,88.40781 -0.25,132.5 -3.19139,2.60911 -6.33287,-2.93559 -9.9375,-2.625 -21.5724,-5.09136 -47.1247,5.42335 -56.34375,25.75 -3.53416,9.4325 2.25759,20.59687 12.25,22.6875 19.42574,6.30125 42.00801,-2.34158 54.34375,-17.90625 7.65342,-9.48947 3.78386,-21.92914 4.59375,-33 0,-23.60417 0,-47.20833 0,-70.8125 11.91312,12.55196 30.85276,15.24795 42.78125,27.75 -1.05381,1.67198 0.0872,5.62253 1.6875,1.9375 9.60778,13.1887 3.63129,30.54281 -2.0625,44.0625 -0.27611,3.14411 1.75735,1.47007 2.28125,-0.40625 8.14439,-12.45028 14.56323,-30.54444 5.03125,-44.03125 -4.79277,-4.24461 0.6155,-10.05534 2.09375,-14.4375 5.00107,-12.35222 3.01758,-27.83776 -7.55086,-36.73836 C 408.2205,93.188564 386.18219,82.594951 380,60.9375 c 0.37157,-2.90853 -1.95905,-3.830005 -4.53125,-3.40625 z m 4.9375,29.90625 c 13.74343,13.3818 37.50394,15.10878 45.96875,33.9375 4.13612,10.32812 1.08024,21.79961 -2.6875,31.75 -15.64743,-15.42446 -38.30036,-26.62386 -44.15625,-49.3125 -1.69838,-5.786616 -0.28396,-11.928911 -0.875,-17.875 0.58333,0.5 1.16667,1 1.75,1.5 z"
       id="path3943"
       inkscape:connector-curvature="0" />
    <path
       fill-opacity="0.224"
       stroke="none"
       fill="#000000"
       d="m 373.09375,204.875 c -0.0337,3.42031 -5.12824,-2.2074 -7.96875,-2.0625 -20.35624,-5.46175 -44.26315,3.50947 -55.9375,20.96875 -6.036,8.52097 -4.52185,22.00137 5.25,26.9375 17.48491,9.23662 39.75576,2.83781 54.125,-9.1875 7.77197,-6.36094 13.07596,-16.24335 11.1875,-26.46875 0,-27.51042 0,-55.02083 0,-82.53125 11.67648,11.33337 29.17598,14.05392 40.625,25.75 -0.75,1.9104 0.40833,6.35329 2.71875,3.3125 8.39597,12.75322 2.64052,28.74049 -2.75,41.4375 -0.89188,2.37421 1.22597,6.0508 3.125,2.34375 8.79336,-13.24965 15.8362,-31.72603 6,-46.28125 -3.19175,-2.76614 -2.11057,-5.67389 -0.0407,-8.93499 6.16355,-12.025 7.20163,-27.86748 -2.11559,-38.53376 C 412.65997,94.026482 388.03445,84.194564 381,60.9375 c 0.11947,-5.09615 -3.79268,-4.604041 -7.90625,-4.21875 0,49.38542 0,98.77083 0,148.15625 z m 8.3125,-115.25 c 13.19396,11.89602 35.09573,14.08417 43.625,31.1875 4.44882,9.73209 1.76367,20.94252 -1.78125,30.53125 -15.31293,-14.84525 -37.83853,-26.19749 -43,-48.8125 -1.14298,-4.675497 -0.19524,-9.577327 -0.5,-14.34375 0.55208,0.479167 1.10417,0.958333 1.65625,1.4375 z"
       id="path3939"
       inkscape:connector-curvature="0" />
    <path
       fill-opacity="0.224"
       stroke="none"
       fill="#000000"
       d="m 371.09375,55.71875 c 0,49.14583 0,98.29167 0,147.4375 -18.12839,-8.74154 -40.57694,-2.32123 -55.3125,9.96875 -9.23412,7.36114 -16.41706,21.48115 -9.40625,32.625 9.07206,12.89991 27.72317,13.05482 41.59375,9.03125 15.09108,-4.60998 31.32524,-15.23763 33.9375,-32.03125 -0.30829,-28.57127 -0.0933,-57.2355 -0.15625,-85.84375 11.09985,9.02446 26.39264,12.01755 36.5,22.28125 -0.38368,2.4174 1.08218,6.44386 4.15625,5.3125 6.65517,12.20944 0.64458,26.41675 -4.0625,38.21875 -1.11252,3.18054 1.87485,8.53803 5.3125,5.375 8.01227,-10.62369 14.18046,-24.49064 12.1875,-38.125 -0.85041,-5.4171 -3.35271,-10.48734 -6.6875,-14.75 7.3507,-12.78713 10.72276,-30.22011 1.21875,-42.78125 -14.06756,-19.225843 -40.89681,-28.498135 -47.71875,-53.03125 0.28789,-6.519064 -5.84874,-4.48782 -10.5625,-4.6875 h -1 z m 10.8125,36.9375 c 12.93047,10.62316 33.09535,13.03601 41.3125,29 3.75168,8.05007 2.06906,18.94938 -1.125,25.8125 -14.78992,-13.41435 -35.02453,-24.44786 -39.90625,-45.40625 -0.83794,-2.957441 -0.39985,-6.941764 -0.28125,-9.40625 z"
       id="path3935"
       inkscape:connector-curvature="0" />
    <path
       fill-opacity="0.224"
       stroke="none"
       fill="#000000"
       d="M 372.09375,55.71875 V 204.875 c -7.01456,-4.42411 -17.52843,-6.01824 -29.28125,-3.65625 -21.10264,4.24106 -38.24999,19.63641 -38.25,34.375 0,0.0627 -6.2e-4,0.12505 0,0.1875 -6.2e-4,0.0627 0,0.12482 0,0.1875 0,14.73859 17.14736,23.2723 38.25,19.03125 21.10264,-4.24106 38.21875,-19.66767 38.21875,-34.40625 0,-0.0641 6.5e-4,-0.12361 0,-0.1875 6.2e-4,-0.0627 0,-0.12482 0,-0.1875 0,-1.08982 -0.0993,-2.13708 -0.28125,-3.15625 V 134.75 c 10.75498,9.70828 28.68566,13.64693 38.5625,23.90625 -0.38085,2.85525 0.77744,6.48587 3.46875,4.4375 4.97165,8.07964 5.47073,19.6563 -3.03125,38.3125 -1.54551,3.39135 0.45973,11.65912 5.90625,2.46875 C 439.45079,180.5984 436.79743,166.52755 428,155.3125 457.45046,100.0386 388.75219,99.449645 380.75,55.71875 Z M 380.75,90.375 c 18.32339,16.54011 57.55934,16.35412 42.0625,59.1875 -14.68842,-14.31924 -37.64114,-25.30662 -42.0625,-49.46875 z"
       id="rect3903"
       inkscape:connector-curvature="0" />
  </g>
  <path
     inkscape:connector-curvature="0"
     d="m 148.73231,45.216509 c 21.99944,20.825069 77.16697,19.968373 50.36032,78.791181 -1.78573,3.9185 0.52574,13.47462 6.81889,2.85572 20.35987,-34.354777 8.56217,-51.200642 -9.55557,-65.873292 -9.05956,-7.336878 -39.97472,-38.172813 -42.07946,-54.0388456 0.007,-2.924144 -3.22672,-4.485097 -5.42973,-4.01211 z"
     id="path2411"
     sodipodi:nodetypes="csssccc"
     fill="url(#linearGradient4032)"
     fill-rule="evenodd"
     stroke="none"
     fill-opacity="1"
     style="fill:url(#linearGradient4032)" />
  <path
     sodipodi:nodetypes="ccccc"
     inkscape:connector-curvature="0"
     id="rect2391"
     d="m 144.35614,6.0016564 c 0.25919,-4.979183 10.047,-5.3803608 9.98658,0 V 198.31415 h -9.98658 z"
     fill="url(#linearGradient4035)"
     stroke="none"
     fill-opacity="1"
     style="fill:url(#linearGradient4035)" />
  <path
     sodipodi:nodetypes="cssc"
     id="path4050"
     d="m 149.03986,43.986322 c 21.99943,20.82507 77.16697,19.968374 50.36032,78.791178 -1.78573,3.9185 0.52574,13.47461 6.81888,2.85572 20.35987,-34.354777 7.39271,-50.031166 -10.72504,-64.703815"
     inkscape:connector-curvature="0"
     stroke-opacity="1"
     fill="none"
     stroke="url(#linearGradient4029)"
     stroke-width="1.155"
     style="stroke:url(#linearGradient4029)" />
  <path
     inkscape:connector-curvature="0"
     sodipodi:nodetypes="csscc"
     id="path2401"
     d="m 151.32774,97.038163 c 21.99944,20.825067 74.87909,18.488557 48.07244,77.311367 -1.78573,3.9185 0.52576,13.47462 6.81888,2.85572 C 246.9388,108.49568 161.0168,105.11097 151.54254,53.335378 Z"
     fill="url(#linearGradient4026)"
     fill-rule="evenodd"
     stroke="none"
     fill-opacity="1"
     style="fill:url(#linearGradient4026)" />
  <path
     d="m 150.83256,97.203233 c 21.99943,20.825067 74.87908,18.488567 48.07243,77.311357 -1.78573,3.9185 0.52574,13.47462 6.81888,2.85572 20.35988,-34.35479 9.05931,-52.37836 -8.51551,-68.28517"
     id="path4070"
     sodipodi:nodetypes="cssc"
     inkscape:connector-curvature="0"
     stroke-opacity="1"
     fill="none"
     stroke="url(#linearGradient4023)"
     stroke-linejoin="miter"
     stroke-linecap="butt"
     stroke-width="1.158"
     style="stroke:url(#linearGradient4023)" />
  <path
     d="m 144.5401,6.5765014 c 0.25918,-4.979184 10.047,-5.380361 9.98657,0 V 198.889 h -9.98657 z"
     id="path4060"
     inkscape:connector-curvature="0"
     sodipodi:nodetypes="ccccc"
     fill="url(#linearGradient4020)"
     stroke="none"
     fill-opacity="1"
     style="fill:url(#linearGradient4020)" />
  <ellipse
     ry="30.850164"
     rx="45.055672"
     cy="227.18219"
     cx="112.7038"
     transform="matrix(0.98039684,-0.1970331,0,1,0,0)"
     id="path2359"
     fill="url(#radialGradient4065)"
     stroke="none"
     fill-opacity="1"
     style="fill:url(#radialGradient4065);stroke-width:1.16926" />
  <ellipse
     ry="30.850164"
     rx="45.055672"
     cy="227.50069"
     cx="111.79398"
     transform="matrix(0.98039684,-0.1970331,0,1,0,0)"
     id="path2371"
     fill="url(#radialGradient4067)"
     stroke="url(#linearGradient4086)"
     fill-opacity="1"
     style="fill:url(#radialGradient4067);stroke:url(#linearGradient4086);stroke-width:1.16926" />
</svg>
