<?xml version="1.0" encoding="UTF-8" standalone="no"?>
<!-- Created with Inkscape (http://www.inkscape.org/) -->
<svg
   xmlns:dc="http://purl.org/dc/elements/1.1/"
   xmlns:cc="http://web.resource.org/cc/"
   xmlns:rdf="http://www.w3.org/1999/02/22-rdf-syntax-ns#"
   xmlns:svg="http://www.w3.org/2000/svg"
   xmlns="http://www.w3.org/2000/svg"
   xmlns:xlink="http://www.w3.org/1999/xlink"
   xmlns:sodipodi="http://sodipodi.sourceforge.net/DTD/sodipodi-0.dtd"
   xmlns:inkscape="http://www.inkscape.org/namespaces/inkscape"
   id="svg2153"
   sodipodi:version="0.32"
   inkscape:version="0.44"
   width="256"
   height="256"
   version="1.0"
   sodipodi:docbase="/media/disk-hda1/temp"
   sodipodi:docname="j.svg">
  <metadata
     id="metadata2158">
    <rdf:RDF>
      <cc:Work
         rdf:about="">
        <dc:format>image/svg+xml</dc:format>
        <dc:type
           rdf:resource="http://purl.org/dc/dcmitype/StillImage" />
      </cc:Work>
    </rdf:RDF>
  </metadata>
  <defs
     id="defs2156">
    <linearGradient
       inkscape:collect="always"
       id="linearGradient2849">
      <stop
         style="stop-color:black;stop-opacity:0.53439152"
         offset="0"
         id="stop2851" />
      <stop
         style="stop-color:#0b1c7e;stop-opacity:0.21693122"
         offset="1"
         id="stop2853" />
    </linearGradient>
    <linearGradient
       inkscape:collect="always"
       id="linearGradient2839">
      <stop
         style="stop-color:#888cff;stop-opacity:1"
         offset="0"
         id="stop2841" />
      <stop
         style="stop-color:black;stop-opacity:1"
         offset="1"
         id="stop2843" />
    </linearGradient>
    <linearGradient
       inkscape:collect="always"
       id="linearGradient2831">
      <stop
         style="stop-color:white;stop-opacity:1"
         offset="0"
         id="stop2833" />
      <stop
         style="stop-color:#0b1c7e;stop-opacity:1"
         offset="1"
         id="stop2835" />
    </linearGradient>
    <linearGradient
       inkscape:collect="always"
       id="linearGradient2812">
      <stop
         style="stop-color:white;stop-opacity:1"
         offset="0"
         id="stop2814" />
      <stop
         style="stop-color:#0d26b9;stop-opacity:1"
         offset="1"
         id="stop2816" />
    </linearGradient>
    <linearGradient
       inkscape:collect="always"
       id="linearGradient2804">
      <stop
         style="stop-color:white;stop-opacity:1"
         offset="0"
         id="stop2806" />
      <stop
         style="stop-color:#0d26b9;stop-opacity:1"
         offset="1"
         id="stop2808" />
    </linearGradient>
    <linearGradient
       inkscape:collect="always"
       id="linearGradient2788">
      <stop
         style="stop-color:white;stop-opacity:0.70899469"
         offset="0"
         id="stop2790" />
      <stop
         style="stop-color:#3552fa;stop-opacity:0.36862746"
         offset="1"
         id="stop2792" />
    </linearGradient>
    <linearGradient
       inkscape:collect="always"
       id="linearGradient2762">
      <stop
         style="stop-color:#4a5dea;stop-opacity:1;"
         offset="0"
         id="stop2764" />
      <stop
         style="stop-color:white;stop-opacity:1"
         offset="1"
         id="stop2766" />
    </linearGradient>
    <linearGradient
       inkscape:collect="always"
       xlink:href="#linearGradient2831"
       id="linearGradient2837"
       x1="116.85341"
       y1="132.79678"
       x2="177.13885"
       y2="164.00826"
       gradientUnits="userSpaceOnUse"
       spreadMethod="reflect" />
    <linearGradient
       inkscape:collect="always"
       xlink:href="#linearGradient2762"
       id="linearGradient2898"
       gradientUnits="userSpaceOnUse"
       spreadMethod="reflect"
       x1="160.98553"
       y1="115.8221"
       x2="119.37024"
       y2="11.236251" />
    <linearGradient
       inkscape:collect="always"
       xlink:href="#linearGradient2812"
       id="linearGradient2900"
       gradientUnits="userSpaceOnUse"
       x1="57.494827"
       y1="35.329327"
       x2="192.7446"
       y2="225.88365" />
    <linearGradient
       inkscape:collect="always"
       xlink:href="#linearGradient2788"
       id="linearGradient2902"
       gradientUnits="userSpaceOnUse"
       gradientTransform="translate(-1.095166,0.547595)"
       spreadMethod="reflect"
       x1="129.21875"
       y1="143.20695"
       x2="172.375"
       y2="144.30209" />
    <linearGradient
       inkscape:collect="always"
       xlink:href="#linearGradient2804"
       id="linearGradient2904"
       gradientUnits="userSpaceOnUse"
       gradientTransform="translate(-1.095166,0.547595)"
       x1="101.39445"
       y1="90.092674"
       x2="148.8295"
       y2="171.03125" />
    <linearGradient
       inkscape:collect="always"
       xlink:href="#linearGradient2831"
       id="linearGradient2906"
       gradientUnits="userSpaceOnUse"
       spreadMethod="reflect"
       x1="116.85341"
       y1="132.79678"
       x2="177.13885"
       y2="164.00826" />
    <linearGradient
       inkscape:collect="always"
       xlink:href="#linearGradient2839"
       id="linearGradient2908"
       gradientUnits="userSpaceOnUse"
       x1="132.18536"
       y1="93.657921"
       x2="220.67358"
       y2="133.08295" />
    <linearGradient
       inkscape:collect="always"
       xlink:href="#linearGradient2849"
       id="linearGradient2910"
       gradientUnits="userSpaceOnUse"
       x1="199.36302"
       y1="151.14037"
       x2="251.39992"
       y2="157.7112" />
    <linearGradient
       gradientUnits="userSpaceOnUse"
       y2="42.245087"
       x2="150.11748"
       y1="202.21474"
       x1="142.96986"
       id="linearGradient2865"
       xlink:href="#linearGradient2837"
       inkscape:collect="always" />
    <linearGradient
       gradientUnits="userSpaceOnUse"
       y2="204.89578"
       x2="113.72008"
       y1="41.947189"
       x1="121.57563"
       id="linearGradient2857"
       xlink:href="#linearGradient2837"
       inkscape:collect="always" />
    <linearGradient
       spreadMethod="reflect"
       gradientUnits="userSpaceOnUse"
       y2="165.71899"
       x2="145.41264"
       y1="77.370277"
       x1="144.8076"
       id="linearGradient2995"
       xlink:href="#linearGradient2837"
       inkscape:collect="always" />
    <linearGradient
       gradientUnits="userSpaceOnUse"
       y2="53.922462"
       x2="122.81"
       y1="165.71899"
       x1="123.61967"
       id="linearGradient2835"
       xlink:href="#linearGradient2837"
       inkscape:collect="always" />
    <linearGradient
       gradientUnits="userSpaceOnUse"
       y2="190.7674"
       x2="177.70123"
       y1="172.18156"
       x1="177.02089"
       id="linearGradient2827"
       xlink:href="#linearGradient2813"
       inkscape:collect="always" />
    <linearGradient
       gradientUnits="userSpaceOnUse"
       y2="172.18156"
       x2="165.0208"
       y1="190.7674"
       x1="165.0208"
       id="linearGradient2819"
       xlink:href="#linearGradient2813"
       inkscape:collect="always" />
    <linearGradient
       id="linearGradient2813"
       inkscape:collect="always">
      <stop
         id="stop2815"
         offset="0"
         style="stop-color:white;stop-opacity:1" />
      <stop
         id="stop2817"
         offset="1"
         style="stop-color:black;stop-opacity:1" />
    </linearGradient>
  </defs>
  <sodipodi:namedview
     inkscape:window-height="716"
     inkscape:window-width="1024"
     inkscape:pageshadow="2"
     inkscape:pageopacity="0.0"
     guidetolerance="10.0"
     gridtolerance="10.0"
     objecttolerance="10.0"
     borderopacity="1.0"
     bordercolor="#666666"
     pagecolor="#ffffff"
     id="base"
     inkscape:zoom="1.4860291"
     inkscape:cx="128"
     inkscape:cy="128"
     inkscape:window-x="0"
     inkscape:window-y="0"
     inkscape:current-layer="svg2153" />
  <g
     id="g2891"
     transform="translate(-6.729343,-1.345869)">
    <path
       id="path2882"
       d="M 142.06633,22.675883 C 79.801065,22.675883 29.285084,73.223114 29.285084,135.48838 C 29.285084,197.75365 79.801065,248.26964 142.06633,248.26963 C 204.3316,248.26963 254.87884,197.75365 254.87883,135.48838 C 254.87883,73.223114 204.3316,22.675883 142.06633,22.675883 z M 142.06633,115.11338 C 153.30116,115.11338 162.44133,124.25355 162.44133,135.48838 C 162.44134,146.72322 153.30115,155.83213 142.06633,155.83213 C 130.83149,155.83214 121.72258,146.72322 121.72258,135.48838 C 121.72258,124.25355 130.83148,115.11338 142.06633,115.11338 z "
       style="opacity:1;fill:black;fill-opacity:0.21693121;stroke:none;stroke-width:2;stroke-linecap:round;stroke-linejoin:round;stroke-miterlimit:4;stroke-dasharray:none;stroke-dashoffset:0;stroke-opacity:1" />
    <path
       sodipodi:nodetypes="csssccsssc"
       id="path2162"
       d="M 129.21875,15.0625 C 66.953481,15.0625 16.4375,65.609731 16.4375,127.875 C 16.4375,190.14027 66.953481,240.65626 129.21875,240.65625 C 191.48402,240.65625 242.03126,190.14027 242.03125,127.875 C 242.03125,65.609731 191.48402,15.0625 129.21875,15.0625 z M 129.21875,85.71875 C 152.49264,85.71875 171.375,104.60111 171.375,127.875 C 171.375,151.14889 152.49264,170.03125 129.21875,170.03125 C 105.94487,170.03126 87.0625,151.14889 87.0625,127.875 C 87.062504,104.60112 105.94486,85.71875 129.21875,85.71875 z "
       style="opacity:1;fill:url(#linearGradient2898);fill-opacity:1;stroke:url(#linearGradient2900);stroke-width:2;stroke-linecap:round;stroke-linejoin:round;stroke-miterlimit:4;stroke-dasharray:none;stroke-dashoffset:0;stroke-opacity:1" />
    <path
       style="opacity:1;fill:url(#linearGradient2902);fill-opacity:1;stroke:url(#linearGradient2904);stroke-width:2;stroke-linecap:round;stroke-linejoin:round;stroke-miterlimit:4;stroke-dasharray:none;stroke-dashoffset:0;stroke-opacity:1"
       d="M 128.12361,86.266325 C 104.84972,86.266325 85.967364,105.14869 85.96736,128.42257 C 85.96736,151.69646 104.84973,170.57883 128.12361,170.57882 C 151.3975,170.57882 170.27986,151.69646 170.27986,128.42257 C 170.27986,105.14868 151.3975,86.266325 128.12361,86.266325 z M 127.15486,109.26632 C 127.48136,109.24975 127.79301,109.26632 128.12361,109.26632 C 138.70266,109.26632 147.31111,117.84351 147.31111,128.42257 C 147.31112,139.00162 138.70267,147.57882 128.12361,147.57882 C 117.54455,147.57883 108.96736,139.00163 108.96736,128.42257 C 108.96736,118.17411 117.03332,109.77993 127.15486,109.26632 z "
       id="path2820" />
    <path
       sodipodi:nodetypes="cccc"
       id="path2829"
       d="M 98.040783,164.65625 C 115.52982,188.57068 147.13598,197.06252 117.71875,239.5625 C 196.6994,233.66981 212.02765,140.57215 229.4375,73.65625 C 178.48318,141.74732 140.82687,161.92379 98.040783,164.65625 z "
       style="fill:url(#linearGradient2906);fill-opacity:1;fill-rule:evenodd;stroke:url(#linearGradient2908);stroke-width:1px;stroke-linecap:butt;stroke-linejoin:miter;stroke-opacity:1" />
    <path
       sodipodi:nodetypes="ccc"
       id="path2847"
       d="M 229.43178,75.301937 C 209.01084,135.3822 204.28669,225.78886 117.72753,240.12047 C 208.57043,238.05964 245.67084,127.00019 229.43178,75.301937 z "
       style="fill:url(#linearGradient2910);fill-opacity:1;fill-rule:evenodd;stroke:none;stroke-width:1px;stroke-linecap:butt;stroke-linejoin:miter;stroke-opacity:1" />
  </g>
  <g
     id="layer1"
     inkscape:label="1. réteg"
     transform="translate(5.935995,0.286435)">
    <path
       id="text3905"
       d="M 14.672896,-7.9438771 L 9.3818802,-7.9438771 L 8.5469192,-5.5532521 L 5.1455522,-5.5532521 L 10.005903,-18.675323 L 14.040083,-18.675323 L 18.900435,-5.5532521 L 15.499067,-5.5532521 L 14.672896,-7.9438771 M 10.22563,-10.378448 L 13.820357,-10.378448 L 12.027388,-15.599151 L 10.22563,-10.378448 M 20.63188,-18.675323 L 26.248091,-18.675323 C 27.918004,-18.67531 29.198276,-18.30324 30.088911,-17.559112 C 30.985384,-16.820819 31.433625,-15.766133 31.433638,-14.395049 C 31.433625,-13.018089 30.985384,-11.957543 30.088911,-11.213409 C 29.198276,-10.475122 27.918004,-10.105982 26.248091,-10.105987 L 24.015669,-10.105987 L 24.015669,-5.5532521 L 20.63188,-5.5532521 L 20.63188,-18.675323 M 24.015669,-16.223174 L 24.015669,-12.558135 L 25.887739,-12.558135 C 26.543982,-12.558128 27.050817,-12.716331 27.408247,-13.032745 C 27.76566,-13.355002 27.944371,-13.809103 27.94438,-14.395049 C 27.944371,-14.980977 27.76566,-15.432149 27.408247,-15.748565 C 27.050817,-16.064961 26.543982,-16.223164 25.887739,-16.223174 L 24.015669,-16.223174"
       style="font-size:18px;font-style:normal;font-weight:bold;fill:black;fill-opacity:1;stroke:none;stroke-width:1px;stroke-linecap:butt;stroke-linejoin:miter;stroke-opacity:1;font-family:Bitstream Vera Sans" />
  </g>
</svg>
