<?xml version="1.0" encoding="UTF-8" standalone="no"?>
<!-- Created with Inkscape (http://www.inkscape.org/) -->

<svg
   xmlns:dc="http://purl.org/dc/elements/1.1/"
   xmlns:cc="http://creativecommons.org/ns#"
   xmlns:rdf="http://www.w3.org/1999/02/22-rdf-syntax-ns#"
   xmlns:svg="http://www.w3.org/2000/svg"
   xmlns="http://www.w3.org/2000/svg"
   xmlns:xlink="http://www.w3.org/1999/xlink"
   xmlns:sodipodi="http://sodipodi.sourceforge.net/DTD/sodipodi-0.dtd"
   xmlns:inkscape="http://www.inkscape.org/namespaces/inkscape"
   id="svg2"
   sodipodi:version="0.32"
   inkscape:version="0.91 r13725"
   width="256"
   height="256"
   version="1.0"
   sodipodi:docname="kate.svg"
   inkscape:output_extension="org.inkscape.output.svg.inkscape">
  <metadata
     id="metadata7">
    <rdf:RDF>
      <cc:Work
         rdf:about="">
        <dc:format>image/svg+xml</dc:format>
        <dc:type
           rdf:resource="http://purl.org/dc/dcmitype/StillImage" />
      </cc:Work>
    </rdf:RDF>
  </metadata>
  <defs
     id="defs5">
    <linearGradient
       id="linearGradient4274"
       inkscape:collect="always">
      <stop
         id="stop4276"
         offset="0"
         style="stop-color:#ffffff;stop-opacity:1" />
      <stop
         id="stop4278"
         offset="1"
         style="stop-color:#bdb494;stop-opacity:1" />
    </linearGradient>
    <linearGradient
       id="linearGradient4268"
       inkscape:collect="always">
      <stop
         id="stop4270"
         offset="0"
         style="stop-color:#b7ab69;stop-opacity:1" />
      <stop
         id="stop4272"
         offset="1"
         style="stop-color:#f2f1e3;stop-opacity:1" />
    </linearGradient>
    <linearGradient
       inkscape:collect="always"
       id="linearGradient10763">
      <stop
         style="stop-color:#ffffff;stop-opacity:1"
         offset="0"
         id="stop10765" />
      <stop
         style="stop-color:#71694c;stop-opacity:1"
         offset="1"
         id="stop10767" />
    </linearGradient>
    <inkscape:perspective
       sodipodi:type="inkscape:persp3d"
       inkscape:vp_x="0 : 64 : 1"
       inkscape:vp_y="0 : 1000 : 0"
       inkscape:vp_z="128 : 64 : 1"
       inkscape:persp3d-origin="64 : 42.666667 : 1"
       id="perspective26" />
    <linearGradient
       inkscape:collect="always"
       id="linearGradient3188">
      <stop
         style="stop-color:#ecc071;stop-opacity:1"
         offset="0"
         id="stop3190" />
      <stop
         style="stop-color:#ffffff;stop-opacity:1"
         offset="1"
         id="stop3192" />
    </linearGradient>
    <linearGradient
       id="linearGradient2163">
      <stop
         style="stop-color:#ffffff;stop-opacity:1"
         offset="0"
         id="stop2165" />
      <stop
         style="stop-color:#000000;stop-opacity:1"
         offset="1"
         id="stop2167" />
    </linearGradient>
    <linearGradient
       inkscape:collect="always"
       xlink:href="#linearGradient3188"
       id="linearGradient3194"
       x1="67.533585"
       y1="71.660393"
       x2="68.913887"
       y2="20.602631"
       gradientUnits="userSpaceOnUse"
       spreadMethod="reflect" />
    <linearGradient
       y2="-7.4748664"
       x2="16.093008"
       y1="-2.2096405"
       x1="15.650429"
       spreadMethod="reflect"
       gradientUnits="userSpaceOnUse"
       id="linearGradient3610"
       xlink:href="#linearGradient3578"
       inkscape:collect="always" />
    <linearGradient
       y2="-7.4748664"
       x2="16.093008"
       y1="-6.4087667"
       x1="10.621114"
       spreadMethod="reflect"
       gradientUnits="userSpaceOnUse"
       id="linearGradient3608"
       xlink:href="#linearGradient3578"
       inkscape:collect="always" />
    <linearGradient
       y2="-1.5134122"
       x2="9.7181683"
       y1="-5.8865957"
       x1="11.186799"
       spreadMethod="reflect"
       gradientUnits="userSpaceOnUse"
       id="linearGradient3606"
       xlink:href="#linearGradient3578"
       inkscape:collect="always" />
    <linearGradient
       y2="-4.5158963"
       x2="12.916467"
       y1="-3.7543969"
       x1="7.7709298"
       spreadMethod="reflect"
       gradientUnits="userSpaceOnUse"
       id="linearGradient3604"
       xlink:href="#linearGradient3578"
       inkscape:collect="always" />
    <linearGradient
       y2="-3.7326398"
       x2="14.93988"
       y1="-2.2749119"
       x1="17.082983"
       spreadMethod="reflect"
       gradientUnits="userSpaceOnUse"
       id="linearGradient3602"
       xlink:href="#linearGradient3578"
       inkscape:collect="always" />
    <linearGradient
       y2="-1.9920692"
       x2="17.376678"
       y1="-6.2564669"
       x1="15.58174"
       spreadMethod="reflect"
       gradientUnits="userSpaceOnUse"
       id="linearGradient3600"
       xlink:href="#linearGradient3578"
       inkscape:collect="always" />
    <linearGradient
       y2="-7.4748664"
       x2="16.093008"
       y1="-10.977764"
       x1="16.691353"
       spreadMethod="reflect"
       gradientUnits="userSpaceOnUse"
       id="linearGradient3598"
       xlink:href="#linearGradient3578"
       inkscape:collect="always" />
    <linearGradient
       y2="-11.199143"
       x2="11.132382"
       y1="-11.39115"
       x1="16.386753"
       spreadMethod="reflect"
       gradientUnits="userSpaceOnUse"
       id="linearGradient3596"
       xlink:href="#linearGradient3578"
       inkscape:collect="always" />
    <linearGradient
       y2="-2.6882975"
       x2="8.6955833"
       y1="-11.586965"
       x1="12.035328"
       spreadMethod="reflect"
       gradientUnits="userSpaceOnUse"
       id="linearGradient3594"
       xlink:href="#linearGradient3578"
       inkscape:collect="always" />
    <linearGradient
       y2="-5.7778101"
       x2="11.371711"
       y1="-10.150993"
       x1="12.905613"
       spreadMethod="reflect"
       gradientUnits="userSpaceOnUse"
       id="linearGradient3592"
       xlink:href="#linearGradient3578"
       inkscape:collect="always" />
    <linearGradient
       y2="-6.9526954"
       x2="17.74655"
       y1="-5.9083529"
       x1="16.386753"
       spreadMethod="reflect"
       gradientUnits="userSpaceOnUse"
       id="linearGradient3590"
       xlink:href="#linearGradient3578"
       inkscape:collect="always" />
    <linearGradient
       y2="-8.018795"
       x2="17.07476"
       y1="-7.4748664"
       x1="13.514812"
       spreadMethod="reflect"
       gradientUnits="userSpaceOnUse"
       id="linearGradient3588"
       xlink:href="#linearGradient3578"
       inkscape:collect="always" />
    <linearGradient
       y2="-6.5828238"
       x2="18.616835"
       y1="-5.2121248"
       x1="16.908924"
       spreadMethod="reflect"
       gradientUnits="userSpaceOnUse"
       id="linearGradient3586"
       xlink:href="#linearGradient3578"
       inkscape:collect="always" />
    <linearGradient
       spreadMethod="reflect"
       gradientUnits="userSpaceOnUse"
       y2="-7.4748664"
       x2="16.093008"
       y1="-7.4748664"
       x1="13.514812"
       id="linearGradient3584"
       xlink:href="#linearGradient3578"
       inkscape:collect="always" />
    <inkscape:perspective
       sodipodi:type="inkscape:persp3d"
       inkscape:vp_x="0 : 128 : 1"
       inkscape:vp_y="0 : 1000 : 0"
       inkscape:vp_z="256 : 128 : 1"
       inkscape:persp3d-origin="128 : 85.333333 : 1"
       id="perspective2503" />
    <linearGradient
       id="linearGradient3578">
      <stop
         id="stop3580"
         offset="0"
         style="stop-color:#000000;stop-opacity:1;" />
      <stop
         id="stop3582"
         offset="1"
         style="stop-color:#fffcfc;stop-opacity:1;" />
    </linearGradient>
    <linearGradient
       inkscape:collect="always"
       xlink:href="#linearGradient3578"
       id="linearGradient2627"
       gradientUnits="userSpaceOnUse"
       spreadMethod="reflect"
       x1="13.514812"
       y1="-7.4748664"
       x2="16.093008"
       y2="-7.4748664" />
    <linearGradient
       inkscape:collect="always"
       xlink:href="#linearGradient3578"
       id="linearGradient2629"
       gradientUnits="userSpaceOnUse"
       spreadMethod="reflect"
       x1="13.514812"
       y1="-7.4748664"
       x2="16.093008"
       y2="-7.4748664" />
    <linearGradient
       inkscape:collect="always"
       xlink:href="#linearGradient3578"
       id="linearGradient2631"
       gradientUnits="userSpaceOnUse"
       spreadMethod="reflect"
       x1="13.514812"
       y1="-7.4748664"
       x2="16.093008"
       y2="-7.4748664" />
    <linearGradient
       inkscape:collect="always"
       xlink:href="#linearGradient3578"
       id="linearGradient2633"
       gradientUnits="userSpaceOnUse"
       spreadMethod="reflect"
       x1="13.514812"
       y1="-7.4748664"
       x2="16.093008"
       y2="-7.4748664" />
    <linearGradient
       inkscape:collect="always"
       xlink:href="#linearGradient3578"
       id="linearGradient2635"
       gradientUnits="userSpaceOnUse"
       spreadMethod="reflect"
       x1="13.514812"
       y1="-7.4748664"
       x2="16.093008"
       y2="-7.4748664" />
    <linearGradient
       inkscape:collect="always"
       xlink:href="#linearGradient3578"
       id="linearGradient2637"
       gradientUnits="userSpaceOnUse"
       spreadMethod="reflect"
       x1="13.514812"
       y1="-7.4748664"
       x2="16.093008"
       y2="-7.4748664" />
    <linearGradient
       inkscape:collect="always"
       xlink:href="#linearGradient3578"
       id="linearGradient2639"
       gradientUnits="userSpaceOnUse"
       spreadMethod="reflect"
       x1="13.514812"
       y1="-7.4748664"
       x2="16.093008"
       y2="-7.4748664" />
    <linearGradient
       inkscape:collect="always"
       xlink:href="#linearGradient3578"
       id="linearGradient2641"
       gradientUnits="userSpaceOnUse"
       spreadMethod="reflect"
       x1="13.514812"
       y1="-7.4748664"
       x2="16.093008"
       y2="-7.4748664" />
    <linearGradient
       inkscape:collect="always"
       xlink:href="#linearGradient3578"
       id="linearGradient2643"
       gradientUnits="userSpaceOnUse"
       spreadMethod="reflect"
       x1="13.514812"
       y1="-7.4748664"
       x2="16.093008"
       y2="-7.4748664" />
    <linearGradient
       inkscape:collect="always"
       xlink:href="#linearGradient3578"
       id="linearGradient2645"
       gradientUnits="userSpaceOnUse"
       spreadMethod="reflect"
       x1="13.514812"
       y1="-7.4748664"
       x2="16.093008"
       y2="-7.4748664" />
    <linearGradient
       inkscape:collect="always"
       xlink:href="#linearGradient3578"
       id="linearGradient2647"
       gradientUnits="userSpaceOnUse"
       spreadMethod="reflect"
       x1="13.514812"
       y1="-7.4748664"
       x2="16.093008"
       y2="-7.4748664" />
    <linearGradient
       inkscape:collect="always"
       xlink:href="#linearGradient3578"
       id="linearGradient2649"
       gradientUnits="userSpaceOnUse"
       spreadMethod="reflect"
       x1="13.514812"
       y1="-7.4748664"
       x2="16.093008"
       y2="-7.4748664" />
    <linearGradient
       inkscape:collect="always"
       xlink:href="#linearGradient3578"
       id="linearGradient2651"
       gradientUnits="userSpaceOnUse"
       spreadMethod="reflect"
       x1="13.514812"
       y1="-7.4748664"
       x2="16.093008"
       y2="-7.4748664" />
    <linearGradient
       inkscape:collect="always"
       xlink:href="#linearGradient3578"
       id="linearGradient2653"
       gradientUnits="userSpaceOnUse"
       spreadMethod="reflect"
       x1="13.514812"
       y1="-7.4748664"
       x2="16.093008"
       y2="-7.4748664" />
    <linearGradient
       inkscape:collect="always"
       xlink:href="#linearGradient3578"
       id="linearGradient2655"
       gradientUnits="userSpaceOnUse"
       spreadMethod="reflect"
       x1="13.514812"
       y1="-7.4748664"
       x2="16.093008"
       y2="-7.4748664" />
    <linearGradient
       inkscape:collect="always"
       xlink:href="#linearGradient3578"
       id="linearGradient2657"
       gradientUnits="userSpaceOnUse"
       spreadMethod="reflect"
       x1="13.514812"
       y1="-7.4748664"
       x2="16.093008"
       y2="-7.4748664" />
    <linearGradient
       inkscape:collect="always"
       xlink:href="#linearGradient3578"
       id="linearGradient2659"
       gradientUnits="userSpaceOnUse"
       spreadMethod="reflect"
       x1="13.514812"
       y1="-7.4748664"
       x2="16.093008"
       y2="-7.4748664" />
    <linearGradient
       inkscape:collect="always"
       xlink:href="#linearGradient3578"
       id="linearGradient2661"
       gradientUnits="userSpaceOnUse"
       spreadMethod="reflect"
       x1="13.514812"
       y1="-7.4748664"
       x2="16.093008"
       y2="-7.4748664" />
    <linearGradient
       inkscape:collect="always"
       xlink:href="#linearGradient3578"
       id="linearGradient2663"
       gradientUnits="userSpaceOnUse"
       spreadMethod="reflect"
       x1="13.514812"
       y1="-7.4748664"
       x2="16.093008"
       y2="-7.4748664" />
    <linearGradient
       inkscape:collect="always"
       xlink:href="#linearGradient3578"
       id="linearGradient2665"
       gradientUnits="userSpaceOnUse"
       spreadMethod="reflect"
       x1="13.514812"
       y1="-7.4748664"
       x2="16.093008"
       y2="-7.4748664" />
    <linearGradient
       inkscape:collect="always"
       xlink:href="#linearGradient3578"
       id="linearGradient2667"
       gradientUnits="userSpaceOnUse"
       spreadMethod="reflect"
       x1="13.514812"
       y1="-7.4748664"
       x2="16.093008"
       y2="-7.4748664" />
    <linearGradient
       inkscape:collect="always"
       xlink:href="#linearGradient3578"
       id="linearGradient2669"
       gradientUnits="userSpaceOnUse"
       spreadMethod="reflect"
       x1="13.514812"
       y1="-7.4748664"
       x2="16.093008"
       y2="-7.4748664" />
    <linearGradient
       inkscape:collect="always"
       xlink:href="#linearGradient3578"
       id="linearGradient2671"
       gradientUnits="userSpaceOnUse"
       spreadMethod="reflect"
       x1="13.514812"
       y1="-7.4748664"
       x2="16.093008"
       y2="-7.4748664" />
    <inkscape:perspective
       id="perspective9983"
       inkscape:persp3d-origin="372.04724 : 350.78739 : 1"
       inkscape:vp_z="744.09448 : 526.18109 : 1"
       inkscape:vp_y="0 : 1000 : 0"
       inkscape:vp_x="0 : 526.18109 : 1"
       sodipodi:type="inkscape:persp3d" />
    <linearGradient
       inkscape:collect="always"
       xlink:href="#linearGradient10763"
       id="linearGradient10769"
       x1="342.3494"
       y1="157.29939"
       x2="364.93277"
       y2="167.43925"
       gradientUnits="userSpaceOnUse" />
    <linearGradient
       inkscape:collect="always"
       xlink:href="#linearGradient2163"
       id="linearGradient3308"
       gradientUnits="userSpaceOnUse"
       gradientTransform="translate(41.358719,51.89118)"
       spreadMethod="reflect"
       x1="117.45374"
       y1="18.797787"
       x2="117.45374"
       y2="24.079624" />
    <radialGradient
       inkscape:collect="always"
       xlink:href="#linearGradient2163"
       id="radialGradient3310"
       gradientUnits="userSpaceOnUse"
       gradientTransform="matrix(1.739078,-0.02111651,0.00744091,0.6128061,-48.11636,63.9398)"
       spreadMethod="reflect"
       cx="121.09113"
       cy="16.934301"
       fx="121.09113"
       fy="16.934301"
       r="6.9480085" />
    <linearGradient
       inkscape:collect="always"
       xlink:href="#linearGradient4268"
       id="linearGradient3339"
       gradientUnits="userSpaceOnUse"
       gradientTransform="matrix(2.0516785,0,0,2.0516785,295.75191,153.51766)"
       spreadMethod="reflect"
       x1="94.573082"
       y1="15.907661"
       x2="95.065727"
       y2="27.645079" />
    <linearGradient
       inkscape:collect="always"
       xlink:href="#linearGradient4268"
       id="linearGradient3352"
       gradientUnits="userSpaceOnUse"
       gradientTransform="matrix(-2.1453368,0,0.49822057,1.7366575,495.21236,25.017704)"
       spreadMethod="reflect"
       x1="67.533585"
       y1="71.660393"
       x2="68.913887"
       y2="20.602631" />
    <linearGradient
       inkscape:collect="always"
       xlink:href="#linearGradient3188"
       id="linearGradient3355"
       gradientUnits="userSpaceOnUse"
       spreadMethod="reflect"
       x1="94.573082"
       y1="15.907661"
       x2="95.065727"
       y2="27.645079"
       gradientTransform="matrix(-2.0516785,0,0,2.0516785,490.96917,7.7516196)" />
    <linearGradient
       inkscape:collect="always"
       xlink:href="#linearGradient3188"
       id="linearGradient3362"
       gradientUnits="userSpaceOnUse"
       spreadMethod="reflect"
       x1="94.573082"
       y1="15.907661"
       x2="95.065727"
       y2="27.645079"
       gradientTransform="matrix(-2.0516785,0,0,2.0516785,489.72795,18.30199)" />
    <linearGradient
       inkscape:collect="always"
       xlink:href="#linearGradient2163"
       id="linearGradient3367"
       gradientUnits="userSpaceOnUse"
       spreadMethod="reflect"
       x1="80.492775"
       y1="19.854946"
       x2="80.492775"
       y2="24.503885" />
    <linearGradient
       inkscape:collect="always"
       xlink:href="#linearGradient2163"
       id="linearGradient3369"
       gradientUnits="userSpaceOnUse"
       gradientTransform="translate(-0.1467177,-1.1737417)"
       spreadMethod="reflect"
       x1="117.45374"
       y1="18.797787"
       x2="117.45374"
       y2="24.079624" />
    <radialGradient
       inkscape:collect="always"
       xlink:href="#linearGradient2163"
       id="radialGradient3371"
       gradientUnits="userSpaceOnUse"
       gradientTransform="matrix(1.739078,-0.02111651,0.00744091,0.6128061,-89.621797,10.874878)"
       spreadMethod="reflect"
       cx="121.09113"
       cy="16.934301"
       fx="121.09113"
       fy="16.934301"
       r="6.9480085" />
    <linearGradient
       inkscape:collect="always"
       xlink:href="#linearGradient2163"
       id="linearGradient3373"
       gradientUnits="userSpaceOnUse"
       spreadMethod="reflect"
       x1="80.492775"
       y1="19.854946"
       x2="80.679695"
       y2="24.130051" />
    <linearGradient
       inkscape:collect="always"
       xlink:href="#linearGradient2163"
       id="linearGradient3375"
       gradientUnits="userSpaceOnUse"
       gradientTransform="translate(-0.1467177,-1.1737417)"
       spreadMethod="reflect"
       x1="117.45374"
       y1="18.797787"
       x2="117.45374"
       y2="24.079624" />
    <radialGradient
       inkscape:collect="always"
       xlink:href="#linearGradient2163"
       id="radialGradient3377"
       gradientUnits="userSpaceOnUse"
       gradientTransform="matrix(1.739078,-0.02111651,0.00744091,0.6128061,-89.621797,10.874878)"
       spreadMethod="reflect"
       cx="121.09113"
       cy="16.934301"
       fx="121.09113"
       fy="16.934301"
       r="6.9480085" />
    <linearGradient
       inkscape:collect="always"
       xlink:href="#linearGradient2163"
       id="linearGradient3379"
       gradientUnits="userSpaceOnUse"
       gradientTransform="translate(41.358719,51.89118)"
       spreadMethod="reflect"
       x1="117.45374"
       y1="18.797787"
       x2="117.45374"
       y2="24.079624" />
    <radialGradient
       inkscape:collect="always"
       xlink:href="#linearGradient2163"
       id="radialGradient3381"
       gradientUnits="userSpaceOnUse"
       gradientTransform="matrix(1.739078,-0.02111651,0.00744091,0.6128061,-48.11636,63.9398)"
       spreadMethod="reflect"
       cx="121.09113"
       cy="16.934301"
       fx="121.09113"
       fy="16.934301"
       r="6.9480085" />
    <linearGradient
       inkscape:collect="always"
       xlink:href="#linearGradient4274"
       id="linearGradient3387"
       gradientUnits="userSpaceOnUse"
       x1="342.3494"
       y1="157.29939"
       x2="364.93277"
       y2="167.43925" />
  </defs>
  <sodipodi:namedview
     inkscape:window-height="1057"
     inkscape:window-width="1920"
     inkscape:pageshadow="2"
     inkscape:pageopacity="0.0"
     guidetolerance="10.0"
     gridtolerance="10.0"
     objecttolerance="10.0"
     borderopacity="1.0"
     bordercolor="#666666"
     pagecolor="#ffffff"
     id="base"
     inkscape:zoom="2.99"
     inkscape:cx="128"
     inkscape:cy="128"
     inkscape:window-x="-2"
     inkscape:window-y="-5"
     inkscape:current-layer="g10771"
     showgrid="false"
     inkscape:window-maximized="1" />
  <g
     inkscape:label="1. réteg"
     id="layer1"
     transform="translate(-4.4247414,0.4634916)">
    <g
       id="g3652">
      <g
         id="g3612">
        <g
           id="g2650"
           style="font-size:12px;font-style:normal;font-weight:normal;fill:url(#linearGradient3584);fill-opacity:1;stroke:none;stroke-width:1px;stroke-linecap:butt;stroke-linejoin:miter;stroke-opacity:1;font-family:Bitstream Vera Sans">
          <path
             style="fill:url(#linearGradient2627);fill-opacity:1"
             id="path2652"
             d="M 16.1875,-12.21875 L 12.09375,-12.1875 L 12.800857,-11.480393 L 16.894607,-11.511643 L 16.1875,-12.21875 z" />
          <path
             style="fill:url(#linearGradient2629);fill-opacity:1"
             id="path2654"
             d="M 12.09375,-12.1875 L 8.75,-3.4375 L 9.4571068,-2.7303932 L 12.800857,-11.480393 L 12.09375,-12.1875 z" />
          <path
             style="fill:url(#linearGradient2631);fill-opacity:1"
             id="path2662"
             d="M 14.75,-5.6875 L 15.53125,-3.46875 L 16.238357,-2.7616432 L 15.457107,-4.9803932 L 14.75,-5.6875 z" />
          <path
             style="fill:url(#linearGradient2633);fill-opacity:1"
             id="path2664"
             d="M 15.53125,-3.46875 L 15.53125,-3.4375 L 16.238357,-2.7303932 L 16.238357,-2.7616432 L 15.53125,-3.46875 z" />
          <path
             style="fill:url(#linearGradient2635);fill-opacity:1"
             id="path2672"
             d="M 17.92037,-11.519527 C 17.478803,-11.961094 16.896486,-12.233764 16.1875,-12.21875 L 16.894607,-11.511643 C 17.603593,-11.526657 18.185909,-11.253988 18.627477,-10.81242 L 17.92037,-11.519527 z" />
          <path
             style="fill:url(#linearGradient3598);fill-opacity:1"
             id="path2674"
             d="M 16.21875,-11.96875 C 16.818366,-11.965939 17.317195,-11.725944 17.700221,-11.342918 L 18.407328,-10.635811 C 18.024302,-11.018837 17.525473,-11.258832 16.925857,-11.261643 L 16.21875,-11.96875 z" />
          <path
             style="fill:url(#linearGradient2637);fill-opacity:1"
             id="path2676"
             d="M 17.700221,-11.342918 C 19.261676,-9.7814631 18.898615,-5.8429893 15.59375,-5.90625 L 16.300857,-5.1991432 C 19.605722,-5.1358825 19.968783,-9.0743563 18.407328,-10.635811 L 17.700221,-11.342918 z" />
          <path
             style="fill:url(#linearGradient2639);fill-opacity:1"
             id="path2678"
             d="M 15.59375,-5.90625 L 16.375,-3.71875 L 17.082107,-3.0116432 L 16.300857,-5.1991432 L 15.59375,-5.90625 z" />
          <path
             style="fill:url(#linearGradient2641);fill-opacity:1"
             id="path2680"
             d="M 16.375,-3.71875 L 15.71875,-3.71875 L 16.425857,-3.0116432 L 17.082107,-3.0116432 L 16.375,-3.71875 z" />
          <path
             style="fill:url(#linearGradient2643);fill-opacity:1"
             id="path2684"
             d="M 14.875,-5.96875 L 10.5625,-5.96875 L 11.269607,-5.2616432 L 15.582107,-5.2616432 L 14.875,-5.96875 z" />
          <path
             style="fill:url(#linearGradient2645);fill-opacity:1"
             id="path2686"
             d="M 10.5625,-5.96875 L 9.75,-3.75 L 10.457107,-3.0428932 L 11.269607,-5.2616432 L 10.5625,-5.96875 z" />
          <path
             style="fill:url(#linearGradient3594);fill-opacity:1"
             id="path2690"
             d="M 9.1875,-3.75 L 12.28125,-11.90625 L 12.988357,-11.199143 L 9.8946068,-3.0428932 L 9.1875,-3.75 z" />
          <path
             style="fill:url(#linearGradient3608);fill-opacity:1"
             id="path2660"
             d="M 10.8125,-5.6875 L 14.75,-5.6875 L 15.457107,-4.9803932 L 11.519607,-4.9803932 L 10.8125,-5.6875 z" />
          <path
             style="fill:url(#linearGradient3610);fill-opacity:1"
             id="path2682"
             d="M 15.71875,-3.71875 L 14.875,-5.96875 L 15.582107,-5.2616432 L 16.425857,-3.0116432 L 15.71875,-3.71875 z" />
          <path
             style="fill:url(#linearGradient2647);fill-opacity:1"
             id="path2688"
             d="M 9.75,-3.75 L 9.1875,-3.75 L 9.8946068,-3.0428932 L 10.457107,-3.0428932 L 9.75,-3.75 z" />
          <path
             style="fill:url(#linearGradient3596);fill-opacity:1"
             id="path2692"
             d="M 12.28125,-11.90625 L 16.21875,-11.96875 L 16.925857,-11.261643 L 12.988357,-11.199143 L 12.28125,-11.90625 z" />
          <path
             style="fill:url(#linearGradient2649);fill-opacity:1"
             id="path2694"
             d="M 13.59375,-11.375 L 15.4375,-6.4375 L 16.144607,-5.7303932 L 14.300857,-10.667893 L 13.59375,-11.375 z" />
          <path
             style="fill:url(#linearGradient2651);fill-opacity:1"
             id="path2698"
             d="M 17.29651,-10.694689 C 16.87154,-11.11966 16.292483,-11.392236 15.59375,-11.375 L 16.300857,-10.667893 C 16.99959,-10.685129 17.578646,-10.412554 18.003617,-9.9875826 L 17.29651,-10.694689 z" />
          <path
             style="fill:url(#linearGradient2653);fill-opacity:1"
             id="path2700"
             d="M 15.59375,-11.375 L 13.59375,-11.375 L 14.300857,-10.667893 L 16.300857,-10.667893 L 15.59375,-11.375 z" />
          <path
             style="fill:url(#linearGradient2655);fill-opacity:1"
             id="path2702"
             d="M 12.5,-11.25 L 10.71875,-6.375 L 11.425857,-5.6678932 L 13.207107,-10.542893 L 12.5,-11.25 z" />
          <path
             style="fill:url(#linearGradient2657);fill-opacity:1"
             id="path2704"
             d="M 10.71875,-6.375 L 14.71875,-6.3125 L 15.425857,-5.6053932 L 11.425857,-5.6678932 L 10.71875,-6.375 z" />
          <path
             style="fill:url(#linearGradient2659);fill-opacity:1"
             id="path2706"
             d="M 14.71875,-6.3125 L 12.96875,-11.25 L 13.675857,-10.542893 L 15.425857,-5.6053932 L 14.71875,-6.3125 z" />
          <path
             style="fill:url(#linearGradient2661);fill-opacity:1"
             id="path2708"
             d="M 12.96875,-11.25 L 12.5,-11.25 L 13.207107,-10.542893 L 13.675857,-10.542893 L 12.96875,-11.25 z" />
          <path
             style="fill:url(#linearGradient2663);fill-opacity:1"
             id="path2710"
             d="M 13.96875,-11.125 L 15.5625,-11.125 L 16.269607,-10.417893 L 14.675857,-10.417893 L 13.96875,-11.125 z" />
          <path
             style="fill:url(#linearGradient2665);fill-opacity:1"
             id="path2712"
             d="M 15.5625,-11.125 C 16.263236,-11.142285 16.807643,-10.897983 17.18911,-10.516516 L 17.896217,-9.8094094 C 17.51475,-10.190876 16.970342,-10.435179 16.269607,-10.417893 L 15.5625,-11.125 z" />
          <path
             style="fill:url(#linearGradient3588);fill-opacity:1"
             id="path2714"
             d="M 17.18911,-10.516516 C 18.415922,-9.2897044 17.957455,-6.644214 15.59375,-6.71875 L 16.300857,-6.0116432 C 18.664562,-5.9371073 19.123029,-8.5825976 17.896217,-9.8094094 L 17.18911,-10.516516 z" />
          <path
             style="fill:url(#linearGradient2667);fill-opacity:1"
             id="path2716"
             d="M 15.59375,-6.71875 L 13.96875,-11.125 L 14.675857,-10.417893 L 16.300857,-6.0116432 L 15.59375,-6.71875 z" />
          <path
             style="fill:url(#linearGradient3590);fill-opacity:1"
             id="path2696"
             d="M 15.4375,-6.4375 C 18.434536,-6.3628978 18.668368,-9.3228317 17.29651,-10.694689 L 18.003617,-9.9875826 C 19.375475,-8.6157249 19.141643,-5.655791 16.144607,-5.7303932 L 15.4375,-6.4375 z" />
          <path
             style="fill:url(#linearGradient3592);fill-opacity:1"
             id="path2722"
             d="M 11.15625,-6.65625 L 12.75,-11.03125 L 13.457107,-10.324143 L 11.863357,-5.9491432 L 11.15625,-6.65625 z" />
          <path
             style="fill:url(#linearGradient2669);fill-opacity:1"
             id="path2718"
             d="M 12.75,-11.03125 L 14.375,-6.65625 L 15.082107,-5.9491432 L 13.457107,-10.324143 L 12.75,-11.03125 z" />
          <path
             style="fill:url(#linearGradient2671);fill-opacity:1"
             id="path2720"
             d="M 14.375,-6.65625 L 11.15625,-6.65625 L 11.863357,-5.9491432 L 15.082107,-5.9491432 L 14.375,-6.65625 z" />
          <path
             style="fill:url(#linearGradient3586);fill-opacity:1"
             id="path2670"
             d="M 15.96875,-5.6875 C 19.235011,-5.6249782 19.618583,-9.8213136 17.92037,-11.519527 L 18.627477,-10.81242 C 20.32569,-9.1142068 19.942118,-4.9178714 16.675857,-4.9803932 L 15.96875,-5.6875 z" />
          <path
             style="fill:url(#linearGradient3600);fill-opacity:1"
             id="path2668"
             d="M 16.78125,-3.4375 L 15.96875,-5.6875 L 16.675857,-4.9803932 L 17.488357,-2.7303932 L 16.78125,-3.4375 z" />
          <path
             style="fill:url(#linearGradient3602);fill-opacity:1"
             id="path2666"
             d="M 15.53125,-3.4375 L 16.78125,-3.4375 L 17.488357,-2.7303932 L 16.238357,-2.7303932 L 15.53125,-3.4375 z" />
          <path
             style="fill:url(#linearGradient3604);fill-opacity:1"
             id="path2656"
             d="M 8.75,-3.4375 L 10,-3.4375 L 10.707107,-2.7303932 L 9.4571068,-2.7303932 L 8.75,-3.4375 z" />
          <path
             style="fill:url(#linearGradient3606);fill-opacity:1"
             id="path2658"
             d="M 10,-3.4375 L 10.8125,-5.6875 L 11.519607,-4.9803932 L 10.707107,-2.7303932 L 10,-3.4375 z" />
        </g>
        <path
           id="path2505"
           d="M 16.1875,-12.175236 L 12.09375,-12.143986 L 8.7499996,-3.3939857 L 9.9999996,-3.3939857 L 10.8125,-5.6439857 L 14.75,-5.6439857 L 15.53125,-3.4252357 L 15.53125,-3.3939857 L 16.78125,-3.3939857 L 15.96875,-5.6439857 C 20.084301,-5.565207 19.623157,-12.247993 16.1875,-12.175236 z M 16.21875,-11.925236 C 19.262779,-11.910965 19.709301,-5.7839571 15.59375,-5.8627357 L 16.375,-3.6752357 L 15.71875,-3.6752357 L 14.875,-5.9252357 L 10.5625,-5.9252357 L 9.7499996,-3.7064857 L 9.1874996,-3.7064857 L 12.28125,-11.862736 L 16.21875,-11.925236 z M 13.59375,-11.331486 L 15.4375,-6.3939857 C 19.362951,-6.2962734 18.548077,-11.404362 15.59375,-11.331486 L 13.59375,-11.331486 z M 12.5,-11.206486 L 10.71875,-6.3314857 L 14.71875,-6.2689857 L 12.96875,-11.206486 L 12.5,-11.206486 z M 13.96875,-11.081486 L 15.5625,-11.081486 C 18.516827,-11.154362 18.69243,-6.5775234 15.59375,-6.6752357 L 13.96875,-11.081486 z M 12.75,-10.987736 L 14.375,-6.6127357 L 11.15625,-6.6127357 L 12.75,-10.987736 z"
           style="font-size:12px;font-style:normal;font-weight:normal;fill:#333333;fill-opacity:1;stroke:none;stroke-width:1px;stroke-linecap:butt;stroke-linejoin:miter;stroke-opacity:1;font-family:Bitstream Vera Sans" />
      </g>
      <path
         id="text2170"
         d="M 8.5523057,-4.1288719 C 8.5417837,-4.1400179 8.5302437,-4.1480689 8.5176857,-4.1530239 C 8.5054667,-4.1585959 8.4918897,-4.1613829 8.4769557,-4.1613839 C 8.4240077,-4.1613829 8.3832777,-4.1297999 8.3547677,-4.0666359 C 8.3265957,-4.0040889 8.3125107,-3.9139859 8.3125107,-3.7963259 L 8.3125107,-3.2482739 L 8.2183237,-3.2482739 L 8.2183237,-4.2886429 L 8.3125107,-4.2886429 L 8.3125107,-4.1270149 C 8.3321967,-4.1901789 8.3578217,-4.2369329 8.3893877,-4.2672789 C 8.4209527,-4.2982399 8.4593057,-4.3137229 8.5044487,-4.3137239 C 8.5108967,-4.3137229 8.5180247,-4.3127929 8.5258317,-4.3109369 C 8.5336377,-4.3096969 8.5422927,-4.3075299 8.5517967,-4.3044349 L 8.5523057,-4.1288719 M 8.8501407,-4.1688149 C 8.7999077,-4.1688139 8.7601967,-4.1328969 8.7310067,-4.0610629 C 8.7018177,-3.9898459 8.6872227,-3.8920019 8.6872227,-3.7675299 C 8.6872227,-3.6430569 8.7016477,-3.5449029 8.7304977,-3.4730679 C 8.7596867,-3.4018519 8.7995677,-3.3662439 8.8501407,-3.3662439 C 8.9000352,-3.3662439 8.9395762,-3.4021619 8.9687662,-3.4739969 C 8.9979552,-3.5458319 9.0125502,-3.6436759 9.0125502,-3.7675299 C 9.0125502,-3.8907629 8.9979552,-3.9882979 8.9687662,-4.0601339 C 8.9395762,-4.1325869 8.9000352,-4.1688139 8.8501407,-4.1688149 M 8.8501407,-4.3137239 C 8.9316002,-4.3137229 8.9955792,-4.2654199 9.0420792,-4.1688149 C 9.0885782,-4.0722089 9.1118282,-3.9384469 9.1118292,-3.7675299 C 9.1118282,-3.5972309 9.0885782,-3.4634689 9.0420792,-3.3662439 C 8.9955792,-3.2696389 8.9316002,-3.2213359 8.8501407,-3.2213359 C 8.7683417,-3.2213359 8.7041927,-3.2696389 8.6576937,-3.3662439 C 8.6115337,-3.4634689 8.5884537,-3.5972309 8.5884537,-3.7675299 C 8.5884537,-3.9384469 8.6115337,-4.0722089 8.6576937,-4.1688149 C 8.7041927,-4.2654199 8.7683417,-4.3137229 8.8501407,-4.3137239 M 9.4875592,-4.1688149 C 9.4373262,-4.1688139 9.3976142,-4.1328969 9.3684252,-4.0610629 C 9.3392352,-3.9898459 9.3246412,-3.8920019 9.3246412,-3.7675299 C 9.3246412,-3.6430569 9.3390662,-3.5449029 9.3679162,-3.4730679 C 9.3971052,-3.4018519 9.4369862,-3.3662439 9.4875592,-3.3662439 C 9.5374522,-3.3662439 9.5769942,-3.4021619 9.6061842,-3.4739969 C 9.6353732,-3.5458319 9.6499682,-3.6436759 9.6499682,-3.7675299 C 9.6499682,-3.8907629 9.6353732,-3.9882979 9.6061842,-4.0601339 C 9.5769942,-4.1325869 9.5374522,-4.1688139 9.4875592,-4.1688149 M 9.4875592,-4.3137239 C 9.5690182,-4.3137229 9.6329972,-4.2654199 9.6794972,-4.1688149 C 9.7259962,-4.0722089 9.7492462,-3.9384469 9.7492462,-3.7675299 C 9.7492462,-3.5972309 9.7259962,-3.4634689 9.6794972,-3.3662439 C 9.6329972,-3.2696389 9.5690182,-3.2213359 9.4875592,-3.2213359 C 9.4057602,-3.2213359 9.3416112,-3.2696389 9.2951122,-3.3662439 C 9.2489512,-3.4634689 9.2258722,-3.5972309 9.2258722,-3.7675299 C 9.2258722,-3.9384469 9.2489512,-4.0722089 9.2951122,-4.1688149 C 9.3416112,-4.2654199 9.4057602,-4.3137229 9.4875592,-4.3137239 M 9.9966792,-4.5840339 L 9.9966792,-4.2886429 L 10.189635,-4.2886429 L 10.189635,-4.1558109 L 9.9966792,-4.1558109 L 9.9966792,-3.5910389 C 9.9966782,-3.5061989 10.002958,-3.4517029 10.015516,-3.4275519 C 10.028414,-3.4033999 10.054379,-3.3913239 10.093412,-3.3913249 L 10.189635,-3.3913249 L 10.189635,-3.2482739 L 10.093412,-3.2482739 C 10.021116,-3.2482739 9.9712232,-3.2727349 9.9437302,-3.3216569 C 9.9162382,-3.3711989 9.9024922,-3.4609919 9.9024922,-3.5910389 L 9.9024922,-4.1558109 L 9.8337602,-4.1558109 L 9.8337602,-4.2886429 L 9.9024922,-4.2886429 L 9.9024922,-4.5840339 L 9.9966792,-4.5840339 M 10.420266,-4.4809259 L 10.420266,-3.9598119 L 10.549583,-3.9598119 C 10.59744,-3.9598119 10.634436,-3.9824149 10.660571,-4.0276219 C 10.686705,-4.0728279 10.699773,-4.1372309 10.699773,-4.2208329 C 10.699773,-4.3038139 10.686705,-4.3679079 10.660571,-4.4131159 C 10.634436,-4.4583209 10.59744,-4.4809249 10.549583,-4.4809259 L 10.420266,-4.4809259 M 10.317424,-4.6351229 L 10.549583,-4.6351229 C 10.634775,-4.6351219 10.699094,-4.5998229 10.742539,-4.5292289 C 10.786323,-4.4592499 10.808215,-4.3564519 10.808215,-4.2208329 C 10.808215,-4.0839739 10.786323,-3.9805569 10.742539,-3.9105809 C 10.699094,-3.8406029 10.634775,-3.8056139 10.549583,-3.8056139 L 10.420266,-3.8056139 L 10.420266,-3.2482739 L 10.317424,-3.2482739 L 10.317424,-4.6351229 M 11.154926,-3.7712449 C 11.079237,-3.7712449 11.026797,-3.7554539 10.997608,-3.7238709 C 10.968418,-3.6922879 10.953824,-3.6384119 10.953824,-3.5622429 C 10.953824,-3.5015539 10.964685,-3.4532519 10.986407,-3.4173339 C 11.008469,-3.3820359 11.038337,-3.3643869 11.076013,-3.3643869 C 11.127943,-3.3643869 11.169521,-3.3978269 11.200747,-3.4647079 C 11.232312,-3.5322079 11.248095,-3.6216919 11.248095,-3.7331609 L 11.248095,-3.7712449 L 11.154926,-3.7712449 M 11.341773,-3.8418419 L 11.341773,-3.2482739 L 11.248095,-3.2482739 L 11.248095,-3.4061869 C 11.226712,-3.3430219 11.200068,-3.2962669 11.168163,-3.2659229 C 11.136258,-3.2361979 11.097226,-3.2213359 11.051066,-3.2213359 C 10.992686,-3.2213359 10.946187,-3.2510609 10.911567,-3.3105109 C 10.877286,-3.3705789 10.860146,-3.4507739 10.860146,-3.5510959 C 10.860146,-3.6681369 10.881529,-3.7563829 10.924295,-3.8158329 C 10.9674,-3.8752809 11.031549,-3.9050059 11.116742,-3.9050069 L 11.248095,-3.9050069 L 11.248095,-3.9217269 C 11.248095,-4.0003729 11.233839,-4.0610619 11.205329,-4.1037919 C 11.177157,-4.1471389 11.137446,-4.1688139 11.086195,-4.1688149 C 11.053611,-4.1688139 11.021876,-4.1616919 10.990989,-4.1474499 C 10.960103,-4.1332059 10.930404,-4.1118419 10.901893,-4.0833559 L 10.901893,-4.2412689 C 10.936174,-4.2654199 10.969437,-4.2833789 11.001681,-4.2951449 C 11.033925,-4.3075299 11.065321,-4.3137229 11.095868,-4.3137239 C 11.178345,-4.3137229 11.239949,-4.2747079 11.280679,-4.1966819 C 11.321408,-4.1186539 11.341772,-4.0003729 11.341773,-3.8418419 M 11.535239,-4.6936439 L 11.628917,-4.6936439 L 11.628917,-3.2482739 L 11.535239,-3.2482739 L 11.535239,-4.6936439 M 11.824419,-4.2886429 L 11.918097,-4.2886429 L 11.918097,-3.2482739 L 11.824419,-3.2482739 L 11.824419,-4.2886429 M 11.824419,-4.6936439 L 11.918097,-4.6936439 L 11.918097,-4.4772099 L 11.824419,-4.4772099 L 11.824419,-4.6936439 M 12.403288,-3.7470939 C 12.403287,-3.6585379 12.415337,-3.5888709 12.439435,-3.5380909 C 12.463533,-3.4879299 12.496626,-3.4628499 12.538713,-3.4628499 C 12.580461,-3.4628499 12.613214,-3.4882399 12.636973,-3.5390199 C 12.661071,-3.5897999 12.673121,-3.6591579 12.673121,-3.7470939 C 12.673121,-3.8337909 12.660902,-3.9025289 12.636464,-3.9533099 C 12.612026,-4.0047089 12.579103,-4.0304079 12.537695,-4.0304089 C 12.496626,-4.0304079 12.463872,-4.0050179 12.439435,-3.9542389 C 12.415337,-3.9034579 12.403287,-3.8344099 12.403288,-3.7470939 M 12.680758,-3.4693519 C 12.660393,-3.4216689 12.636973,-3.3863709 12.610499,-3.3634579 C 12.584364,-3.3411639 12.553817,-3.3300169 12.518858,-3.3300169 C 12.460478,-3.3300169 12.412961,-3.3684119 12.376304,-3.4452009 C 12.339987,-3.5226089 12.321828,-3.6232399 12.321828,-3.7470939 C 12.321828,-3.8709469 12.340156,-3.9715769 12.376814,-4.0489869 C 12.41347,-4.1263939 12.460818,-4.1650979 12.518858,-4.1650989 C 12.553817,-4.1650979 12.584534,-4.1533319 12.611008,-4.1298009 C 12.637482,-4.1068869 12.660732,-4.0718989 12.680758,-4.0248349 L 12.680758,-4.1465209 L 12.753562,-4.1465209 L 12.753562,-3.4628499 C 12.803116,-3.4764739 12.841809,-3.5176549 12.869641,-3.5863939 C 12.897812,-3.6557509 12.911897,-3.7452349 12.911898,-3.8548459 C 12.911897,-3.9211079 12.906467,-3.9833439 12.895606,-4.0415549 C 12.885084,-4.0997659 12.868962,-4.1536419 12.84724,-4.2031839 C 12.81194,-4.2843069 12.768835,-4.3462339 12.717924,-4.3889639 C 12.66735,-4.4323119 12.612196,-4.4539859 12.55246,-4.4539879 C 12.510712,-4.4539859 12.470661,-4.4437689 12.432307,-4.4233339 C 12.393953,-4.4035159 12.358485,-4.3737909 12.325901,-4.3341599 C 12.272613,-4.2709929 12.230866,-4.1880109 12.200658,-4.0852139 C 12.170789,-3.9830339 12.155855,-3.8721849 12.155855,-3.7526669 C 12.155855,-3.6542029 12.165529,-3.5619329 12.184875,-3.4758549 C 12.204561,-3.3897759 12.232902,-3.3139159 12.269898,-3.2482739 C 12.305536,-3.1838699 12.346775,-3.1349479 12.393614,-3.1015079 C 12.440453,-3.0674479 12.490516,-3.0504179 12.543805,-3.0504179 C 12.587588,-3.0504179 12.630524,-3.0640419 12.672612,-3.0912899 C 12.715038,-3.1179179 12.753901,-3.1563129 12.7892,-3.2064739 L 12.835021,-3.1033659 C 12.792594,-3.0432969 12.746264,-2.9974709 12.696032,-2.9658879 C 12.646137,-2.9336869 12.595395,-2.9175859 12.543805,-2.9175849 C 12.481013,-2.9175859 12.421785,-2.9380209 12.366122,-2.9788929 C 12.310458,-3.0191449 12.260904,-3.0779759 12.217459,-3.1553839 C 12.174014,-3.2327919 12.140921,-3.3222759 12.118181,-3.4238359 C 12.09544,-3.5260149 12.084069,-3.6356259 12.08407,-3.7526669 C 12.084069,-3.8653729 12.09561,-3.9728159 12.11869,-4.0749959 C 12.14177,-4.1771739 12.174693,-4.2669679 12.217459,-4.3443769 C 12.261243,-4.4230229 12.311815,-4.4830919 12.369177,-4.5245839 C 12.426537,-4.5666929 12.487292,-4.5877479 12.551441,-4.5877489 C 12.623397,-4.5877479 12.690091,-4.5608099 12.751526,-4.5069349 C 12.813298,-4.4530569 12.865058,-4.3765779 12.906807,-4.2774959 C 12.932262,-4.2168069 12.951609,-4.1508549 12.964847,-4.0796399 C 12.978422,-4.0084239 12.98521,-3.9347309 12.985212,-3.8585619 C 12.98521,-3.6956939 12.958227,-3.5671969 12.904261,-3.4730679 C 12.850294,-3.3789389 12.775793,-3.3300169 12.680758,-3.3263019 L 12.680758,-3.4693519 M 13.531497,-3.7805339 C 13.531496,-3.9043869 13.517411,-4.0003729 13.48924,-4.0684939 C 13.461408,-4.1366119 13.422206,-4.1706719 13.371633,-4.1706729 C 13.3214,-4.1706719 13.282198,-4.1366119 13.254027,-4.0684939 C 13.226195,-4.0003729 13.212279,-3.9043869 13.212279,-3.7805339 C 13.212279,-3.6572999 13.226195,-3.5616229 13.254027,-3.4935039 C 13.282198,-3.4253839 13.3214,-3.3913239 13.371633,-3.3913249 C 13.422206,-3.3913239 13.461408,-3.4253839 13.48924,-3.4935039 C 13.517411,-3.5616229 13.531496,-3.6572999 13.531497,-3.7805339 M 13.625175,-3.3773909 C 13.625174,-3.2002809 13.603622,-3.0686869 13.560517,-2.9826089 C 13.517411,-2.8959109 13.451395,-2.8525629 13.362469,-2.8525619 C 13.329546,-2.8525629 13.29849,-2.8572069 13.2693,-2.8664959 C 13.240111,-2.8751659 13.21177,-2.8887899 13.184277,-2.9073679 L 13.184277,-3.0736409 C 13.21177,-3.0463929 13.238923,-3.0262669 13.265737,-3.0132619 C 13.29255,-3.0002579 13.319873,-2.9937559 13.347705,-2.9937549 C 13.409138,-2.9937559 13.455129,-3.0231709 13.485676,-3.0820009 C 13.516223,-3.1402119 13.531496,-3.2284579 13.531497,-3.3467379 L 13.531497,-3.4312679 C 13.51215,-3.3699599 13.487373,-3.3241339 13.457166,-3.2937899 C 13.426957,-3.2634459 13.39081,-3.2482739 13.348723,-3.2482739 C 13.278804,-3.2482739 13.222461,-3.2968869 13.179695,-3.3941109 C 13.136929,-3.4913359 13.115546,-3.6201439 13.115546,-3.7805339 C 13.115546,-3.9415429 13.136929,-4.0706599 13.179695,-4.1678859 C 13.222461,-4.2651099 13.278804,-4.3137229 13.348723,-4.3137239 C 13.39081,-4.3137229 13.426957,-4.2985509 13.457166,-4.2682069 C 13.487373,-4.2378619 13.51215,-4.1920359 13.531497,-4.1307299 L 13.531497,-4.2886429 L 13.625175,-4.2886429 L 13.625175,-3.3773909 M 14.262084,-4.0889299 C 14.285503,-4.1657179 14.313504,-4.2223799 14.346088,-4.2589179 C 14.378672,-4.2954539 14.417025,-4.3137229 14.461149,-4.3137239 C 14.520546,-4.3137229 14.566367,-4.2756369 14.598612,-4.1994679 C 14.630855,-4.1239169 14.646977,-4.0161649 14.646978,-3.8762109 L 14.646978,-3.2482739 L 14.552791,-3.2482739 L 14.552791,-3.8706379 C 14.55279,-3.9703389 14.543117,-4.0443409 14.523771,-4.0926449 C 14.504424,-4.1409469 14.474895,-4.1650979 14.435184,-4.1650989 C 14.386648,-4.1650979 14.348294,-4.1356829 14.320123,-4.0768539 C 14.291952,-4.0180219 14.277866,-3.9378279 14.277866,-3.8362689 L 14.277866,-3.2482739 L 14.183679,-3.2482739 L 14.183679,-3.8706379 C 14.183679,-3.9709579 14.174006,-4.0449609 14.154659,-4.0926449 C 14.135313,-4.1409469 14.105444,-4.1650979 14.065054,-4.1650989 C 14.017197,-4.1650979 13.979183,-4.1353739 13.951012,-4.0759249 C 13.92284,-4.0170939 13.908754,-3.9372079 13.908755,-3.8362689 L 13.908755,-3.2482739 L 13.814568,-3.2482739 L 13.814568,-4.2886429 L 13.908755,-4.2886429 L 13.908755,-4.1270149 C 13.930137,-4.1907979 13.955763,-4.2378619 13.985632,-4.2682069 C 14.0155,-4.2985509 14.050968,-4.3137229 14.092038,-4.3137239 C 14.133446,-4.3137229 14.168575,-4.2945249 14.197426,-4.2561319 C 14.226615,-4.2177359 14.248167,-4.1620019 14.262084,-4.0889299 M 15.093476,-3.7712449 C 15.017787,-3.7712449 14.965347,-3.7554539 14.936158,-3.7238709 C 14.906969,-3.6922879 14.892374,-3.6384119 14.892374,-3.5622429 C 14.892374,-3.5015539 14.903235,-3.4532519 14.924958,-3.4173339 C 14.947019,-3.3820359 14.976888,-3.3643869 15.014563,-3.3643869 C 15.066493,-3.3643869 15.108071,-3.3978269 15.139297,-3.4647079 C 15.170862,-3.5322079 15.186645,-3.6216919 15.186645,-3.7331609 L 15.186645,-3.7712449 L 15.093476,-3.7712449 M 15.280323,-3.8418419 L 15.280323,-3.2482739 L 15.186645,-3.2482739 L 15.186645,-3.4061869 C 15.165262,-3.3430219 15.138618,-3.2962669 15.106713,-3.2659229 C 15.074808,-3.2361979 15.035776,-3.2213359 14.989616,-3.2213359 C 14.931237,-3.2213359 14.884737,-3.2510609 14.850117,-3.3105109 C 14.815836,-3.3705789 14.798696,-3.4507739 14.798696,-3.5510959 C 14.798696,-3.6681369 14.820079,-3.7563829 14.862845,-3.8158329 C 14.90595,-3.8752809 14.970099,-3.9050059 15.055292,-3.9050069 L 15.186645,-3.9050069 L 15.186645,-3.9217269 C 15.186645,-4.0003729 15.172389,-4.0610619 15.143879,-4.1037919 C 15.115708,-4.1471389 15.075996,-4.1688139 15.024745,-4.1688149 C 14.992161,-4.1688139 14.960426,-4.1616919 14.92954,-4.1474499 C 14.898653,-4.1332059 14.868954,-4.1118419 14.840444,-4.0833559 L 14.840444,-4.2412689 C 14.874724,-4.2654199 14.907987,-4.2833789 14.940231,-4.2951449 C 14.972475,-4.3075299 15.003871,-4.3137229 15.034418,-4.3137239 C 15.116895,-4.3137229 15.178499,-4.2747079 15.219229,-4.1966819 C 15.259958,-4.1186539 15.280323,-4.0003729 15.280323,-3.8418419 M 15.473789,-4.2886429 L 15.567467,-4.2886429 L 15.567467,-3.2482739 L 15.473789,-3.2482739 L 15.473789,-4.2886429 M 15.473789,-4.6936439 L 15.567467,-4.6936439 L 15.567467,-4.4772099 L 15.473789,-4.4772099 L 15.473789,-4.6936439 M 15.762969,-4.6936439 L 15.856647,-4.6936439 L 15.856647,-3.2482739 L 15.762969,-3.2482739 L 15.762969,-4.6936439 M 16.065386,-3.4842149 L 16.17281,-3.4842149 L 16.17281,-3.2482739 L 16.065386,-3.2482739 L 16.065386,-3.4842149 M 16.794445,-4.2486999 L 16.794445,-4.0889299 C 16.767971,-4.1155569 16.741327,-4.1353739 16.714514,-4.1483789 C 16.688039,-4.1620019 16.661225,-4.1688139 16.634073,-4.1688149 C 16.573317,-4.1688139 16.526139,-4.1335159 16.492537,-4.0629199 C 16.458935,-3.9929419 16.442134,-3.8944789 16.442134,-3.7675299 C 16.442134,-3.6405789 16.458935,-3.5418059 16.492537,-3.4712099 C 16.526139,-3.4012329 16.573317,-3.3662439 16.634073,-3.3662439 C 16.661225,-3.3662439 16.688039,-3.3727469 16.714514,-3.3857509 C 16.741327,-3.3993749 16.767971,-3.4195009 16.794445,-3.4461299 L 16.794445,-3.2882169 C 16.76831,-3.2659229 16.741157,-3.2492029 16.712986,-3.2380559 C 16.685154,-3.2269099 16.655455,-3.2213359 16.62389,-3.2213359 C 16.538018,-3.2213359 16.469796,-3.2705669 16.419224,-3.3690309 C 16.368651,-3.4674939 16.343365,-3.6003269 16.343365,-3.7675299 C 16.343365,-3.9372079 16.368821,-4.0706599 16.419733,-4.1678859 C 16.470984,-4.2651099 16.541073,-4.3137229 16.63,-4.3137239 C 16.658849,-4.3137229 16.68702,-4.3081489 16.714514,-4.2970029 C 16.742006,-4.2864749 16.768649,-4.2703739 16.794445,-4.2486999 M 17.17934,-4.1688149 C 17.129106,-4.1688139 17.089395,-4.1328969 17.060206,-4.0610629 C 17.031016,-3.9898459 17.016421,-3.8920019 17.016422,-3.7675299 C 17.016421,-3.6430569 17.030846,-3.5449029 17.059697,-3.4730679 C 17.088886,-3.4018519 17.128767,-3.3662439 17.17934,-3.3662439 C 17.229233,-3.3662439 17.268775,-3.4021619 17.297965,-3.4739969 C 17.327154,-3.5458319 17.341749,-3.6436759 17.341749,-3.7675299 C 17.341749,-3.8907629 17.327154,-3.9882979 17.297965,-4.0601339 C 17.268775,-4.1325869 17.229233,-4.1688139 17.17934,-4.1688149 M 17.17934,-4.3137239 C 17.260798,-4.3137229 17.324778,-4.2654199 17.371278,-4.1688149 C 17.417777,-4.0722089 17.441027,-3.9384469 17.441027,-3.7675299 C 17.441027,-3.5972309 17.417777,-3.4634689 17.371278,-3.3662439 C 17.324778,-3.2696389 17.260798,-3.2213359 17.17934,-3.2213359 C 17.097541,-3.2213359 17.033392,-3.2696389 16.986892,-3.3662439 C 16.940732,-3.4634689 16.917652,-3.5972309 16.917652,-3.7675299 C 16.917652,-3.9384469 16.940732,-4.0722089 16.986892,-4.1688149 C 17.033392,-4.2654199 17.097541,-4.3137229 17.17934,-4.3137239 M 18.039752,-4.0889299 C 18.063171,-4.1657179 18.091172,-4.2223799 18.123757,-4.2589179 C 18.15634,-4.2954539 18.194693,-4.3137229 18.238818,-4.3137239 C 18.298214,-4.3137229 18.344035,-4.2756369 18.37628,-4.1994679 C 18.408524,-4.1239169 18.424646,-4.0161649 18.424646,-3.8762109 L 18.424646,-3.2482739 L 18.330459,-3.2482739 L 18.330459,-3.8706379 C 18.330459,-3.9703389 18.320785,-4.0443409 18.30144,-4.0926449 C 18.282092,-4.1409469 18.252563,-4.1650979 18.212853,-4.1650989 C 18.164316,-4.1650979 18.125962,-4.1356829 18.097792,-4.0768539 C 18.06962,-4.0180219 18.055534,-3.9378279 18.055535,-3.8362689 L 18.055535,-3.2482739 L 17.961348,-3.2482739 L 17.961348,-3.8706379 C 17.961347,-3.9709579 17.951674,-4.0449609 17.932328,-4.0926449 C 17.912981,-4.1409469 17.883113,-4.1650979 17.842723,-4.1650989 C 17.794865,-4.1650979 17.756851,-4.1353739 17.72868,-4.0759249 C 17.700508,-4.0170939 17.686423,-3.9372079 17.686423,-3.8362689 L 17.686423,-3.2482739 L 17.592236,-3.2482739 L 17.592236,-4.2886429 L 17.686423,-4.2886429 L 17.686423,-4.1270149 C 17.707806,-4.1907979 17.733432,-4.2378619 17.7633,-4.2682069 C 17.793168,-4.2985509 17.828637,-4.3137229 17.869706,-4.3137239 C 17.911114,-4.3137229 17.946243,-4.2945249 17.975094,-4.2561319 C 18.004283,-4.2177359 18.025836,-4.1620019 18.039752,-4.0889299"
         style="font-size:4px;font-style:normal;font-weight:normal;fill:#d40000;fill-opacity:1;stroke:none;stroke-width:1px;stroke-linecap:butt;stroke-linejoin:miter;stroke-opacity:1;font-family:Bitstream Vera Sans" />
    </g>
  </g>
  <g
     id="g10771"
     transform="matrix(-0.7672943,0,0,0.7672943,421.57861,36.743371)">
    <g
       id="g4302">
      <g
         id="g2722"
         transform="matrix(2.0516785,0,0,2.0516785,129.66984,-119.95285)">
        <rect
           y="68.18692"
           x="157.71732"
           height="12.046537"
           width="2.1902795"
           id="rect2724"
           style="fill:url(#linearGradient3308);fill-opacity:1;stroke:#000000;stroke-width:0.5;stroke-miterlimit:4;stroke-dasharray:none;stroke-opacity:1" />
        <path
           sodipodi:nodetypes="csscc"
           id="path2726"
           d="m 159.90664,70.439762 c 0,0 9.49251,0.966686 12.32429,2.787637 1.49315,0.960159 1.88674,1.012706 0,2.640919 -2.47283,2.134003 -11.88414,2.787636 -11.88414,2.787636 l -0.44015,-8.216192 z"
           style="fill:url(#radialGradient3310);fill-opacity:1;fill-rule:evenodd;stroke:#000000;stroke-width:0.30000001;stroke-linecap:butt;stroke-linejoin:miter;stroke-miterlimit:4;stroke-dasharray:none;stroke-opacity:1"
           inkscape:connector-curvature="0" />
      </g>
      <path
         sodipodi:nodetypes="ccccc"
         id="path3199"
         d="m 275.40342,43.112942 c -10.20369,1.404749 -13.02009,42.543813 6.02036,42.142468 l 167.96781,0.602024 -8.42849,-43.346526 -165.55968,0.602034 z"
         style="fill:url(#linearGradient3362);fill-opacity:1;fill-rule:evenodd;stroke:#000000;stroke-width:0.82067138;stroke-linecap:butt;stroke-linejoin:miter;stroke-miterlimit:4;stroke-dasharray:none;stroke-opacity:1"
         inkscape:connector-curvature="0" />
      <g
         transform="matrix(-2.0516785,0,0,2.0516785,506.44727,19.487483)"
         id="g3163">
        <rect
           style="fill:url(#linearGradient3367);fill-opacity:1;fill-rule:evenodd;stroke:#000000;stroke-width:0.5;stroke-linecap:butt;stroke-linejoin:miter;stroke-miterlimit:4;stroke-dasharray:none;stroke-opacity:1"
           id="rect2161"
           width="99.657722"
           height="9.0349035"
           x="16.700882"
           y="16.843313" />
        <rect
           style="fill:url(#linearGradient3369);fill-opacity:1;stroke:#000000;stroke-width:0.5;stroke-miterlimit:4;stroke-dasharray:none;stroke-opacity:1"
           id="rect3143"
           width="2.1902795"
           height="12.046537"
           x="116.21188"
           y="15.122001" />
        <path
           style="fill:url(#radialGradient3371);fill-opacity:1;fill-rule:evenodd;stroke:#000000;stroke-width:0.30000001;stroke-linecap:butt;stroke-linejoin:miter;stroke-miterlimit:4;stroke-dasharray:none;stroke-opacity:1"
           d="m 118.4012,17.37484 c 0,0 9.49251,0.966686 12.32429,2.787637 1.49315,0.960159 1.88674,1.012706 0,2.640919 -2.47283,2.134003 -11.88414,2.787636 -11.88414,2.787636 L 118.4012,17.37484 Z"
           id="path3153"
           sodipodi:nodetypes="csscc"
           inkscape:connector-curvature="0" />
      </g>
      <path
         style="fill:url(#linearGradient3355);fill-opacity:1;fill-rule:evenodd;stroke:#000000;stroke-width:0.82067138;stroke-linecap:butt;stroke-linejoin:miter;stroke-miterlimit:4;stroke-dasharray:none;stroke-opacity:1"
         d="m 283.86907,43.399205 c 5.44922,6.22103 16.47962,26.288869 -1.20407,31.305829 l 167.96781,0.602035 c 9.03496,-11.20064 7.00801,-21.70991 -9.63256,-31.305828 L 283.86907,43.399205 Z"
         id="path3209"
         sodipodi:nodetypes="ccccc"
         inkscape:connector-curvature="0" />
      <path
         sodipodi:nodetypes="cccccccccccccccccccccc"
         id="rect3186"
         d="m 447.72089,42.521298 -171.85837,0 c 4.57067,1.351854 9.95811,2.001164 9.91714,7.319787 l 9.8682,34.397792 2.69416,15.663833 -10.26761,12.48513 c -1.54276,18.11624 5.05043,25.03531 9.86821,34.39779 l 17.13879,11.46593 c 6.09139,6.22912 -6.83073,7.69637 -10.55999,11.46594 l 30.59925,52.11252 171.85836,0 -6.5788,-22.93185 -17.76831,-11.46593 c -4.67844,-4.42795 -14.06279,-10.56747 0.0699,-13.63972 l -3.2894,-11.46594 -7.69602,-11.46591 1.11722,-11.46594 -3.28939,-11.46593 c -7.04215,-1.74381 -14.72056,-2.49285 -18.44257,-9.42754 l 11.86377,-13.50432 c 0.0863,-18.652235 2.22958,-37.599358 -5.32736,-55.155855 -0.86593,-6.637162 -6.108,-5.745941 -9.91716,-7.319787 z"
         style="fill:url(#linearGradient3352);fill-opacity:1;stroke:#a49d78;stroke-width:1.30328095;stroke-linecap:round;stroke-linejoin:round;stroke-miterlimit:4;stroke-dasharray:none;stroke-opacity:1"
         inkscape:connector-curvature="0" />
      <g
         id="g2673"
         transform="matrix(-1.906847,0,0,2.0516785,543.29348,157.44057)">
        <rect
           y="16.843313"
           x="16.700882"
           height="9.0349035"
           width="99.657722"
           id="rect2675"
           style="fill:url(#linearGradient3373);fill-opacity:1;fill-rule:evenodd;stroke:#000000;stroke-width:0.5;stroke-linecap:butt;stroke-linejoin:miter;stroke-miterlimit:4;stroke-dasharray:none;stroke-opacity:1" />
        <rect
           y="15.122001"
           x="116.21188"
           height="12.046537"
           width="2.1902795"
           id="rect2677"
           style="fill:url(#linearGradient3375);fill-opacity:1;stroke:#000000;stroke-width:0.5;stroke-miterlimit:4;stroke-dasharray:none;stroke-opacity:1" />
        <path
           sodipodi:nodetypes="csscc"
           id="path2679"
           d="m 118.4012,17.37484 c 0,0 9.49251,0.966686 12.32429,2.787637 1.49315,0.960159 1.88674,1.012706 0,2.640919 -2.47283,2.134003 -11.88414,2.787636 -11.88414,2.787636 L 118.4012,17.37484 Z"
           style="fill:url(#radialGradient3377);fill-opacity:1;fill-rule:evenodd;stroke:#000000;stroke-width:0.30000001;stroke-linecap:butt;stroke-linejoin:miter;stroke-miterlimit:4;stroke-dasharray:none;stroke-opacity:1"
           inkscape:connector-curvature="0" />
      </g>
      <g
         transform="matrix(2.0516785,0,0,2.0516785,185.88632,48.337242)"
         id="g2714">
        <rect
           style="fill:url(#linearGradient3379);fill-opacity:1;stroke:#000000;stroke-width:0.5;stroke-miterlimit:4;stroke-dasharray:none;stroke-opacity:1"
           id="rect2695"
           width="2.1902795"
           height="12.046537"
           x="157.71732"
           y="68.18692" />
        <path
           style="fill:url(#radialGradient3381);fill-opacity:1;fill-rule:evenodd;stroke:#000000;stroke-width:0.30000001;stroke-linecap:butt;stroke-linejoin:miter;stroke-miterlimit:4;stroke-dasharray:none;stroke-opacity:1"
           d="m 159.90664,70.439762 c 0,0 9.49251,0.966686 12.32429,2.787637 1.49315,0.960159 1.88674,1.012706 0,2.640919 -2.47283,2.134003 -11.88414,2.787636 -11.88414,2.787636 l -0.44015,-8.216192 z"
           id="path2697"
           sodipodi:nodetypes="csscc"
           inkscape:connector-curvature="0" />
      </g>
      <path
         style="fill:url(#linearGradient3339);fill-opacity:1;fill-rule:evenodd;stroke:#bdb493;stroke-width:1.30328095;stroke-linecap:butt;stroke-linejoin:miter;stroke-miterlimit:4;stroke-dasharray:none;stroke-opacity:0.61352659"
         d="m 510.07644,178.32861 c 10.2037,1.40474 16.05027,43.55388 -2.99019,43.15252 L 336.08827,221.0731 c 22.81087,5.40511 33.04135,-38.58204 8.42849,-43.34653 l 165.55968,0.60204 z"
         id="path2687"
         sodipodi:nodetypes="ccccc"
         inkscape:connector-curvature="0" />
      <g
         transform="translate(-3.8349415,-4.6019298)"
         id="g3383">
        <path
           sodipodi:nodetypes="csccssccccsssssssssssssssssssssssssssssssssssssscccssssssssssssssssssssscccssc"
           id="path9989"
           d="m 282.75709,262.77623 c 9.28476,-13.88808 18.69706,-28.8077 27.6367,-43.55751 9.71648,-16.03155 27.05854,-42.23779 32.47169,-50.62191 12.6115,7.65719 -18.21121,32.2291 -26.80053,50.96941 -2.68241,4.31812 -8.95209,14.66812 -13.93262,23 -10.86641,18.17832 -12.35111,20.33611 -14.94928,21.72661 -1.86054,0.99573 -1.91866,0.90485 -0.80084,-1.25204 l -9.17959,10.92507 5.55447,-11.18963 z m 57.67078,-98.50883 c 0.48785,-2.17124 0.7173,-6.55874 0.50991,-9.75 -0.58028,-8.92869 1.60988,-21.09736 4.87783,-27.10166 3.2092,-5.89637 11.24255,-14.04186 23.01268,-23.33392 4.4,-3.47363 15.65,-13.770583 25,-22.882113 24.67973,-24.05027 39.19485,-37.411527 68.9797,-63.496224 4.38883,-3.843612 16.08883,-14.9099509 26,-24.591865 17.41616,-17.013321 23.83655,-21.896521 28.78933,-21.896521 4.51338,0 5.86884,2.063725 6.39059,9.729853 0.47373,6.960457 0.41843,7.170977 -2.33721,8.896987 -1.55232,0.9723128 -3.02026,1.9143888 -3.26208,2.0935018 -0.24181,0.1791142 0.56387,1.0285642 1.79041,1.8876671 1.54749,1.083905 2.03938,2.1628371 1.60705,3.524986 -0.34267,1.07964 -0.0233,2.68956705 0.70959,3.57761505 1.04721,1.26882915 1.06491,1.70473715 0.0826,2.03534615 -0.6875,0.2313911 -1.25,1.1932121 -1.25,2.1373776 0,0.944167 -0.5625,2.312917 -1.25,3.0416665 -1,1.06 -1,1.416667 0,1.783333 1.74539,0.6399778 1.56521,2.2916668 -0.25,2.2916668 -1.78395,0 -2.02615,2.657951 -0.29479,3.23507 3.17631,1.05877 -7.97085,20.894017 -21.87254,38.919968 -7.26491,9.420222 -33.17962,36.844962 -34.81624,36.844962 -0.26348,0 -7.79996,7.461873 -16.74774,16.581943 -8.94778,9.12007 -17.61869,17.21543 -19.26869,17.9897 -2.54041,1.19209 -2.61701,1.32265 -0.5,0.85228 2.17706,-0.48372 1.91955,0.002 -1.99342,3.7603 -2.47139,2.37368 -4.55264,4.65328 -4.625,5.06578 -0.0724,0.4125 -0.24408,0.975 -0.38158,1.25 -0.1375,0.275 -0.30625,0.94454 -0.375,1.48786 -0.37554,2.96782 -15.26467,10.01214 -21.16202,10.01214 -1.90464,0 -3.46298,0.42961 -3.46298,0.95469 0,1.26904 6.12661,2.36609 10.41671,1.86524 2.84857,-0.33255 3.28675,-0.13958 2.58827,1.13987 -1.49741,2.74291 -7.41406,7.83317 -11.00498,9.46789 -1.925,0.87634 -2.51439,1.41277 -1.30975,1.19207 1.92909,-0.35342 2.04872,-0.17464 1.00329,1.49935 -0.65283,1.04535 -1.3447,1.42741 -1.5375,0.84902 -0.23584,-0.70754 -0.80949,-0.6707 -1.75329,0.11258 -1.01239,0.84021 -1.40275,0.85182 -1.40275,0.0417 0,-0.64641 -1.59038,-1.08419 -3.75,-1.03225 l -3.75,0.0902 3.38613,0.97368 c 2.36321,0.67954 3.06919,1.29062 2.33697,2.02284 -2.13781,2.13781 -9.73454,2.05872 -18.56352,-0.19324 -4.8102,-1.22692 -9.02641,-1.95016 -9.36936,-1.60721 -0.34296,0.34295 -0.0504,0.62355 0.65015,0.62355 0.70053,0 4.2201,1.40619 7.82127,3.12487 5.71486,2.72745 7.28891,3.05765 12.37661,2.59631 5.68279,-0.5153 5.80075,-0.47572 4.70199,1.57733 -0.84122,1.57183 -0.83549,2.20307 0.0226,2.4891 2.20146,0.73382 -0.004,2.21239 -3.2994,2.21239 -1.8252,0 -3.85473,0.64607 -4.51008,1.43572 -0.65535,0.78965 -2.62295,1.75334 -4.37245,2.14154 -2.71497,0.60243 -2.89121,0.80855 -1.2032,1.40723 1.97026,0.69879 1.97026,0.70534 0,1.74234 -3.91623,2.06121 -10.01698,2.34234 -17.90804,0.82521 -4.36169,-0.83858 -8.09786,-1.35717 -8.3026,-1.15243 -0.835,0.835 6.6624,4.60039 9.15999,4.60039 1.48004,0 2.44336,0.40066 2.14072,0.89035 -0.30265,0.48969 1.07941,1.19608 3.07123,1.56975 6.25304,1.17308 2.2341,2.73847 -7.57789,2.95162 -7.11781,0.15462 -9.01611,-0.0866 -8.62856,-1.09655 0.2948,-0.76823 -0.50265,-1.54564 -1.96094,-1.91165 -1.35178,-0.33928 -2.1796,-3.68267 -1.83959,-4.23282 -3.87919,-7.66782 -3.34131,-14.71771 -1.53244,-23.1184 z m 52.90042,-10.89805 c 0,-0.8662 -13.47786,-4.15425 -17.02842,-4.15425 -4.48142,0 -1.46509,1.64102 5.77842,3.14373 9.36988,1.94384 11.25,2.11272 11.25,1.01052 z"
           style="fill:#ece8c2;fill-opacity:1;stroke:#ffffff;stroke-width:1;stroke-opacity:1"
           inkscape:connector-curvature="0" />
        <path
           sodipodi:nodetypes="cccccc"
           id="path9991"
           d="m 277.46479,274.91348 5.03018,-10.86519 C 344.76389,164.80108 380.14226,106.0379 456.13682,51.573441 l 0.60362,0.201207 C 382.44509,107.50356 338.6005,187.16136 291.14688,260.82897 l -13.68209,14.08451 z"
           style="fill:#ded9bd;fill-opacity:1;fill-rule:evenodd;stroke:url(#linearGradient3387);stroke-width:0.99961644;stroke-linecap:butt;stroke-linejoin:miter;stroke-miterlimit:4;stroke-dasharray:none;stroke-opacity:1"
           inkscape:connector-curvature="0" />
      </g>
    </g>
  </g>
</svg>
