<?xml version="1.0" encoding="UTF-8" standalone="no"?>
<!-- Generator: Adobe Illustrator 17.0.0, SVG Export Plug-In . SVG Version: 6.00 Build 0)  -->

<svg
   xmlns:dc="http://purl.org/dc/elements/1.1/"
   xmlns:cc="http://creativecommons.org/ns#"
   xmlns:rdf="http://www.w3.org/1999/02/22-rdf-syntax-ns#"
   xmlns:svg="http://www.w3.org/2000/svg"
   xmlns="http://www.w3.org/2000/svg"
   xmlns:xlink="http://www.w3.org/1999/xlink"
   xmlns:sodipodi="http://sodipodi.sourceforge.net/DTD/sodipodi-0.dtd"
   xmlns:inkscape="http://www.inkscape.org/namespaces/inkscape"
   version="1.1"
   id="svg1931"
   sodipodi:docname="Padlock-lightblue.svg"
   inkscape:version="0.48.4 r9939"
   sodipodi:version="0.32"
   x="0px"
   y="0px"
   width="128px"
   height="128px"
   viewBox="0 0 128 128"
   enable-background="new 0 0 128 128"
   xml:space="preserve"><metadata
   id="metadata3521"><rdf:RDF><cc:Work
       rdf:about=""><dc:format>image/svg+xml</dc:format><dc:type
         rdf:resource="http://purl.org/dc/dcmitype/StillImage" /><dc:title></dc:title></cc:Work></rdf:RDF></metadata><defs
   id="defs3519"><linearGradient
     inkscape:collect="always"
     xlink:href="#linearGradient2713"
     id="linearGradient3145"
     gradientUnits="userSpaceOnUse"
     gradientTransform="matrix(2.21879,0,0,1.825981,-219.0513,58.987174)"
     spreadMethod="reflect"
     x1="24.261463"
     y1="44.011002"
     x2="24.605862"
     y2="45.887836" /><linearGradient
     id="linearGradient2713"><stop
       id="stop2715"
       offset="0.00000000"
       style="stop-color:#000000;stop-opacity:1.0000000;" /><stop
       id="stop2717"
       offset="1.0000000"
       style="stop-color:#ffffff;stop-opacity:1.0000000;" /></linearGradient><linearGradient
     y2="45.887836"
     x2="24.605862"
     y1="44.011002"
     x1="24.261463"
     spreadMethod="reflect"
     gradientTransform="matrix(2.21879,0,0,1.825981,-0.410419,-1.501512)"
     gradientUnits="userSpaceOnUse"
     id="linearGradient3538"
     xlink:href="#linearGradient2713"
     inkscape:collect="always" /><linearGradient
     inkscape:collect="always"
     xlink:href="#linearGradient2713-7"
     id="linearGradient3148"
     gradientUnits="userSpaceOnUse"
     gradientTransform="matrix(2.21879,0,0,1.825981,-102.0513,-20.012826)"
     spreadMethod="reflect"
     x1="29.093641"
     y1="46.357063"
     x2="29.093641"
     y2="47.295517" /><linearGradient
     id="linearGradient2713-7"><stop
       id="stop2715-4"
       offset="0.00000000"
       style="stop-color:#000000;stop-opacity:1.0000000;" /><stop
       id="stop2717-0"
       offset="1.0000000"
       style="stop-color:#ffffff;stop-opacity:1.0000000;" /></linearGradient><linearGradient
     y2="47.295517"
     x2="29.093641"
     y1="46.357063"
     x1="29.093641"
     spreadMethod="reflect"
     gradientTransform="matrix(2.21879,0,0,1.825981,-0.1709833,-0.18759)"
     gradientUnits="userSpaceOnUse"
     id="linearGradient3572"
     xlink:href="#linearGradient2713-7"
     inkscape:collect="always" /></defs>
<sodipodi:namedview
   id="base"
   inkscape:current-layer="svg1931"
   inkscape:window-y="255"
   inkscape:window-x="1347"
   inkscape:pageopacity="0.0"
   inkscape:pageshadow="2"
   inkscape:window-width="808"
   inkscape:window-height="591"
   bordercolor="#666666"
   borderopacity="1.0"
   objecttolerance="10.0"
   inkscape:cy="87.686082"
   inkscape:cx="64.239444"
   inkscape:zoom="1"
   guidetolerance="10.0"
   gridtolerance="10.0"
   pagecolor="#ffffff"
   showgrid="false"
   inkscape:window-maximized="0">
	</sodipodi:namedview>
<g
   id="g5908">
	<g
   id="g5889">
		<path
   id="rect2723"
   fill="#282828"
   d="M64.359,2C44.287,2,28.128,18.159,28.128,38.231v40.257h10.064V38.231    c0-14.496,11.67-26.167,26.167-26.167s26.167,11.67,26.167,26.167v40.257h10.064V38.231C100.59,18.159,84.431,2,64.359,2z" />
		
			<linearGradient
   id="path3082_1_"
   gradientUnits="userSpaceOnUse"
   x1="-54.0555"
   y1="322.7957"
   x2="-54.0555"
   y2="312.7097"
   gradientTransform="matrix(1.632 0 0 -2.4361 152.5779 792.3214)">
			<stop
   offset="0"
   style="stop-color:#FFFFFF"
   id="stop3378" />
			<stop
   offset="1"
   style="stop-color:#FFFFFF;stop-opacity:0"
   id="stop3380" />
		</linearGradient>
		<path
   id="path3082"
   opacity="0.65"
   fill="url(#path3082_1_)"
   enable-background="new    "
   d="M64.359,4.629    c-18.957,0-34.218,16.307-34.218,34.909v37.528c0,14.089,8.776,26.05,21.26,31.047c-8.945-4.073-15.222-12.8-15.222-23.147V37.563    c0-14.225,11.67-26.621,26.167-26.621h4.026c14.496,0,26.167,12.396,26.167,26.621v47.404c0,10.347-6.277,19.074-15.222,23.147    c12.484-4.998,21.26-16.958,21.26-31.047V39.538C98.577,20.936,83.316,4.629,64.359,4.629z" />
		
			<linearGradient
   id="path2931_1_"
   gradientUnits="userSpaceOnUse"
   x1="-51.7455"
   y1="314.2961"
   x2="-50.3847"
   y2="319.3744"
   gradientTransform="matrix(1.6375 0 0 -2.4741 153.9098 807.8333)">
			<stop
   offset="0"
   style="stop-color:#FFFFFF"
   id="stop3384" />
			<stop
   offset="1"
   style="stop-color:#FFFFFF;stop-opacity:0"
   id="stop3386" />
		</linearGradient>
		<path
   id="path2931"
   opacity="0.5"
   fill="url(#path2931_1_)"
   enable-background="new    "
   d="M64.359,2.854    c-19.51,0-35.217,15.601-35.217,34.98v39.095c0,14.677,9.033,27.137,21.881,32.344c-9.206-4.243-15.666-13.334-15.666-24.113    V35.776c0-14.819,12.011-29.082,26.93-29.082h4.143c14.919,0,26.93,14.263,26.93,29.082V85.16c0,10.779-6.46,19.87-15.666,24.113    c12.848-5.206,21.881-17.666,21.881-32.344V37.834C99.576,18.455,83.869,2.854,64.359,2.854z" />
		
			<radialGradient
   id="path2861_1_"
   cx="-117.8581"
   cy="259.5129"
   r="6.0679"
   gradientTransform="matrix(2.3666 0 0 -1.7265 329.6203 463.5455)"
   gradientUnits="userSpaceOnUse">
			<stop
   offset="0"
   style="stop-color:#635EE4"
   id="stop3390" />
			<stop
   offset="1"
   style="stop-color:#4F56B7;stop-opacity:0"
   id="stop3392" />
		</radialGradient>
		<path
   id="path2861"
   opacity="0.8"
   fill="url(#path2861_1_)"
   enable-background="new    "
   d="M49.471,12.003    c-5.438,3.405-8.499,9.21-7.9,11.145c0.646,2.085,4.467-7.234,15.283-10.119C65.195,10.804,56.854,7.38,49.471,12.003z" />
		
			<radialGradient
   id="path2871_1_"
   cx="-321.9517"
   cy="259.5129"
   r="6.0679"
   gradientTransform="matrix(-2.3666 0 0 -1.7265 -683.9021 463.4454)"
   gradientUnits="userSpaceOnUse">
			<stop
   offset="0"
   style="stop-color:#635EE4"
   id="stop3396" />
			<stop
   offset="1"
   style="stop-color:#4F56B7;stop-opacity:0"
   id="stop3398" />
		</radialGradient>
		<path
   id="path2871"
   opacity="0.8"
   fill="url(#path2871_1_)"
   enable-background="new    "
   d="M79.248,11.903    c5.438,3.405,8.499,9.21,7.9,11.145c-0.646,2.085-4.467-7.234-15.283-10.119C63.523,10.704,71.864,7.28,79.248,11.903z" />
		
			<linearGradient
   id="rect2875_1_"
   gradientUnits="userSpaceOnUse"
   x1="-54.0555"
   y1="317.3912"
   x2="-54.0555"
   y2="319.3794"
   gradientTransform="matrix(1.632 0 0 -2.4825 152.5779 811.6825)">
			<stop
   offset="0"
   style="stop-color:#FFFFFF"
   id="stop3402" />
			<stop
   offset="1"
   style="stop-color:#FFFFFF;stop-opacity:0"
   id="stop3404" />
		</linearGradient>
		<path
   id="rect2875"
   opacity="0.5"
   fill="url(#rect2875_1_)"
   enable-background="new    "
   d="M64.359,6.279    c-18.957,0-34.218,12.995-34.218,31.951v38.244c0,14.358,8.776,26.546,21.26,31.639C42.457,103.963,36.18,95.07,36.18,84.526    V36.218c0-14.496,11.67-26.182,26.167-26.182h4.026c14.496,0,26.167,11.686,26.167,26.182v48.308    c0,10.544-6.277,19.437-15.222,23.588c12.484-5.093,21.26-17.281,21.26-31.639V38.231C98.577,19.274,83.316,6.279,64.359,6.279z" />
		
			<linearGradient
   id="path2933_1_"
   gradientUnits="userSpaceOnUse"
   x1="-102.4303"
   y1="267.3516"
   x2="-102.4303"
   y2="304.9062"
   gradientTransform="matrix(2.2102 0 0 -1.9643 290.7527 570.881)">
			<stop
   offset="0"
   style="stop-color:#FFFFFF"
   id="stop3408" />
			<stop
   offset="1"
   style="stop-color:#FFFFFF;stop-opacity:0"
   id="stop3410" />
		</linearGradient>
		<path
   id="path2933"
   opacity="0.8"
   fill="url(#path2933_1_)"
   enable-background="new    "
   d="M64.359,4.039    c-26.762,0-32.937,23.315-32.937,33.86c0,31.634,2.059,31.634,2.059,0c0-23.199,16.463-32.355,30.879-32.355    s30.879,10.103,30.879,32.355c0,31.634,2.059,31.634,2.059,0C97.297,27.354,91.121,4.039,64.359,4.039z" />
		
			<linearGradient
   id="path2885_1_"
   gradientUnits="userSpaceOnUse"
   x1="-99.9458"
   y1="252.4124"
   x2="-99.9458"
   y2="289.9671"
   gradientTransform="matrix(2.1611 0 0 -1.8045 280.3503 501.7591)">
			<stop
   offset="0"
   style="stop-color:#FFFFFF"
   id="stop3414" />
			<stop
   offset="1"
   style="stop-color:#FFFFFF;stop-opacity:0"
   id="stop3416" />
		</linearGradient>
		<path
   id="path2885"
   opacity="0.6"
   fill="url(#path2885_1_)"
   enable-background="new    "
   d="M64.359,7.091    c-26.167,0-32.205,22.3-32.205,31.987c0,29.062,2.013,29.062,2.013,0c0-21.312,16.097-30.605,30.192-30.605    s30.192,10.162,30.192,30.605c0,29.062,2.013,29.062,2.013,0C96.564,29.391,90.526,7.091,64.359,7.091z" />
		<path
   id="path2897"
   opacity="0.8"
   fill="#FFFFFF"
   enable-background="new    "
   d="M36.98,16.488    c-2.875,5.248,3.027,1.931,4.398,0.274c3.854-4.659,10.368-8.036,16.085-9.139c4.795-0.924,5.526-2.776,1.578-3.082    C51.168,3.93,39.736,11.456,36.98,16.488z" />
		<path
   id="path2901"
   opacity="0.6"
   fill="#FFFFFF"
   enable-background="new    "
   d="M32.623,25.156    c0.305,2.565,5.263-5.798,9.168-9.724c4.768-4.795,11.996-8.151,15.473-8.594c6.198-0.79,3.256-3.828-0.629-3.061    C42.516,6.566,31.846,18.616,32.623,25.156z" />
		<path
   id="path2909"
   opacity="0.8"
   fill="#FFFFFF"
   enable-background="new    "
   d="M91.58,16.452    c2.895,5.238-3.02,1.942-4.397,0.29c-3.871-4.645-10.397-7.998-16.119-9.079c-4.798-0.907-6.148-2.752-2.201-3.073    C76.733,3.949,88.805,11.43,91.58,16.452z" />
		<path
   id="path2911"
   opacity="0.6"
   fill="#FFFFFF"
   enable-background="new    "
   d="M95.798,24.925    c-0.295,2.566-5.285-5.778-9.203-9.69c-4.786-4.777-12.026-8.107-15.505-8.537c-6.201-0.768-3.292-3.695,0.617-3.062    C85.848,5.937,96.551,18.382,95.798,24.925z" />
		
			<radialGradient
   id="path2953_1_"
   cx="-141.6239"
   cy="290.0394"
   r="6.0679"
   gradientTransform="matrix(3.085 0 0 -2.0529 487.5529 610.7089)"
   gradientUnits="userSpaceOnUse">
			<stop
   offset="0"
   style="stop-color:#635EE4"
   id="stop3424" />
			<stop
   offset="1"
   style="stop-color:#4F56B7;stop-opacity:0"
   id="stop3426" />
		</radialGradient>
		<path
   id="path2953"
   opacity="0.4"
   fill="url(#path2953_1_)"
   enable-background="new    "
   d="M49.032,11.138    C41.943,15.187,37.953,22.09,38.734,24.39c0.842,2.479,5.823-8.601,19.923-12.032C69.53,9.712,58.657,5.641,49.032,11.138z" />
		
			<radialGradient
   id="path2957_1_"
   cx="-304.7525"
   cy="292.7499"
   r="6.0679"
   gradientTransform="matrix(-2.8463 0 0 -2.0879 -789.351 626.4116)"
   gradientUnits="userSpaceOnUse">
			<stop
   offset="0"
   style="stop-color:#635EE4"
   id="stop3430" />
			<stop
   offset="1"
   style="stop-color:#4F56B7;stop-opacity:0"
   id="stop3432" />
		</radialGradient>
		<path
   id="path2957"
   opacity="0.4"
   fill="url(#path2957_1_)"
   enable-background="new    "
   d="M79.54,10.945    c6.541,4.118,10.221,11.138,9.501,13.478c-0.777,2.521-5.372-8.748-18.381-12.238C60.629,9.495,70.661,5.355,79.54,10.945z" />
		
			<radialGradient
   id="path3055_1_"
   cx="-201.416"
   cy="-387.7112"
   r="7.4833"
   gradientTransform="matrix(7.5313 0 0 -0.5379 1581.2842 -83.7869)"
   gradientUnits="userSpaceOnUse">
			<stop
   offset="0"
   style="stop-color:#282828"
   id="stop3436" />
			<stop
   offset="1"
   style="stop-color:#282828;stop-opacity:0"
   id="stop3438" />
		</radialGradient>
		<path
   id="path3055"
   opacity="0.4"
   fill="url(#path3055_1_)"
   enable-background="new    "
   d="M120.718,124.782    c0,2.223-25.233,4.026-56.359,4.026S8,127.006,8,124.782s25.233-4.026,56.359-4.026S120.718,122.559,120.718,124.782    L120.718,124.782z" />
		
			<radialGradient
   id="path3065_1_"
   cx="-201.416"
   cy="-264.466"
   r="7.4833"
   gradientTransform="matrix(7.5313 0 0 -0.6724 1581.2842 -56.0736)"
   gradientUnits="userSpaceOnUse">
			<stop
   offset="0"
   style="stop-color:#282828"
   id="stop3442" />
			<stop
   offset="1"
   style="stop-color:#282828;stop-opacity:0"
   id="stop3444" />
		</radialGradient>
		<path
   id="path3065"
   opacity="0.4"
   fill="url(#path3065_1_)"
   enable-background="new    "
   d="M120.718,121.763    c0,2.779-25.233,5.032-56.359,5.032S8,124.542,8,121.763s25.233-5.032,56.359-5.032S120.718,118.984,120.718,121.763    L120.718,121.763z" />
		
			<radialGradient
   id="path3067_1_"
   cx="-201.416"
   cy="-387.7112"
   r="7.4833"
   gradientTransform="matrix(7.5313 0 0 -0.5379 1581.2842 -85.7997)"
   gradientUnits="userSpaceOnUse">
			<stop
   offset="0"
   style="stop-color:#282828"
   id="stop3448" />
			<stop
   offset="1"
   style="stop-color:#282828;stop-opacity:0"
   id="stop3450" />
		</radialGradient>
		<path
   id="path3067"
   opacity="0.4"
   fill="url(#path3067_1_)"
   enable-background="new    "
   d="M120.718,122.77    c0,2.223-25.233,4.026-56.359,4.026S8,124.993,8,122.77c0-2.223,25.233-4.026,56.359-4.026S120.718,120.546,120.718,122.77    L120.718,122.77z" />
	</g>
	<g
   id="g4928">
		<path
   id="rect1941"
   fill="#00579A"
   d="M24.603,57.359h79.513c0.276,0,0.5,0.224,0.5,0.5v65.259c0,0.276-0.224,0.5-0.5,0.5H24.603    c-0.276,0-0.5-0.224-0.5-0.5V57.859C24.103,57.583,24.326,57.359,24.603,57.359z" />
		
			<linearGradient
   id="rect2709_1_"
   gradientUnits="userSpaceOnUse"
   x1="-103.6274"
   y1="232.5967"
   x2="-103.6274"
   y2="231.6582"
   gradientTransform="matrix(2.2188 0 0 -1.826 294.2865 508.3514)">
			<stop
   offset="0"
   style="stop-color:#000000"
   id="stop3456" />
			<stop
   offset="1"
   style="stop-color:#FFFFFF"
   id="stop3458" />
		</linearGradient>
		<path
   id="rect2709"
   opacity="0.03"
   fill="url(#rect2709_1_)"
   enable-background="new    "
   d="M24.603,57.359h79.513    c0.276,0,0.5,0.224,0.5,0.5v65.259c0,0.276-0.224,0.5-0.5,0.5H24.603c-0.276,0-0.5-0.224-0.5-0.5V57.859    C24.103,57.583,24.326,57.359,24.603,57.359z" />
		
			<linearGradient
   id="rect2734_1_"
   gradientUnits="userSpaceOnUse"
   x1="-104.8655"
   y1="235.5905"
   x2="-104.5211"
   y2="233.7137"
   gradientTransform="matrix(2.2188 0 0 -1.826 294.2865 508.3514)">
			<stop
   offset="0"
   style="stop-color:#000000"
   id="stop3462" />
			<stop
   offset="1"
   style="stop-color:#FFFFFF"
   id="stop3464" />
		</linearGradient>
		<path
   id="rect2734"
   opacity="0.03"
   fill="url(#rect2734_1_)"
   enable-background="new    "
   d="M24.603,57.359h79.513    c0.276,0,0.5,0.224,0.5,0.5v65.259c0,0.276-0.224,0.5-0.5,0.5H24.603c-0.276,0-0.5-0.224-0.5-0.5V57.859    C24.103,57.583,24.326,57.359,24.603,57.359z" />
		
			<linearGradient
   id="rect2738_1_"
   gradientUnits="userSpaceOnUse"
   x1="-104.8764"
   y1="217.4161"
   x2="-105.1328"
   y2="215.0699"
   gradientTransform="matrix(2.2188 0 0 -1.826 294.2865 508.3514)">
			<stop
   offset="0"
   style="stop-color:#000000"
   id="stop3468" />
			<stop
   offset="1"
   style="stop-color:#FFFFFF"
   id="stop3470" />
		</linearGradient>
		<path
   id="rect2738"
   opacity="0.03"
   fill="url(#rect2738_1_)"
   enable-background="new    "
   d="M24.603,57.359h79.513    c0.276,0,0.5,0.224,0.5,0.5v65.259c0,0.276-0.224,0.5-0.5,0.5H24.603c-0.276,0-0.5-0.224-0.5-0.5V57.859    C24.103,57.583,24.326,57.359,24.603,57.359z" />
		<path
   id="path2727"
   opacity="0.5"
   fill="#FFFFFF"
   enable-background="new    "
   d="M26.619,57.359    c1.81,2.122,18.145,3.786,38.655,3.786c20.229,0,36.293-1.647,38.484-3.727c-0.031-0.003-0.026-0.059-0.057-0.059H26.619z" />
		<g
   id="g2798"
   transform="matrix(1.719497,0,0,1.981605,4.420926,1.487591)">
			
				<radialGradient
   id="path2778_1_"
   cx="57.312"
   cy="161.4274"
   r="15.1566"
   gradientTransform="matrix(0.7451 0 0 -2.8435 -27.4715 491.2631)"
   gradientUnits="userSpaceOnUse">
				<stop
   offset="0"
   style="stop-color:#FFFFFF"
   id="stop3476" />
				<stop
   offset="1"
   style="stop-color:#FFFFFF;stop-opacity:0"
   id="stop3478" />
			</radialGradient>
			<path
   id="path2778"
   opacity="0.4028"
   fill="url(#path2778_1_)"
   enable-background="new    "
   d="M13.971,30.767     c-0.44,2.63-0.931,19.309,0.696,22.88c1.592,3.493,1.393-16.667,5.273-19.84C23.862,30.6,14.386,28.287,13.971,30.767z" />
			
				<radialGradient
   id="path2790_1_"
   cx="32.1588"
   cy="169.8642"
   r="15.1566"
   gradientTransform="matrix(0.8599 0 0 -3.3196 -12.4676 596.5372)"
   gradientUnits="userSpaceOnUse">
				<stop
   offset="0"
   style="stop-color:#FFFFFF"
   id="stop3482" />
				<stop
   offset="1"
   style="stop-color:#FFFFFF;stop-opacity:0"
   id="stop3484" />
			</radialGradient>
			<path
   id="path2790"
   opacity="0.3"
   fill="url(#path2790_1_)"
   enable-background="new    "
   d="M13.729,30.942     c-0.507,3.07-1.074,22.541,0.804,26.71c1.837,4.078,1.607-19.457,6.085-23.161C25.142,30.747,14.207,28.046,13.729,30.942z" />
			
				<radialGradient
   id="path2794_1_"
   cx="0.2672"
   cy="175.4033"
   r="15.1566"
   gradientTransform="matrix(1.0685 0 0 -3.7295 14.7553 687.1899)"
   gradientUnits="userSpaceOnUse">
				<stop
   offset="0"
   style="stop-color:#FFFFFF"
   id="stop3488" />
				<stop
   offset="1"
   style="stop-color:#FFFFFF;stop-opacity:0"
   id="stop3490" />
			</radialGradient>
			<path
   id="path2794"
   opacity="0.2"
   fill="url(#path2794_1_)"
   enable-background="new    "
   d="M13.232,31.092     c-0.63,3.449-1.335,25.325,0.999,30.009c2.283,4.582,1.997-21.86,7.561-26.022C27.415,30.873,13.826,27.839,13.232,31.092z" />
		</g>
		<g
   id="g2803"
   transform="matrix(-1.719497,0,0,1.981605,124.2973,1.487605)">
			
				<radialGradient
   id="path2805_1_"
   cx="389.3842"
   cy="161.4274"
   r="15.1566"
   gradientTransform="matrix(-0.7451 0 0 -2.8435 305.3714 491.2631)"
   gradientUnits="userSpaceOnUse">
				<stop
   offset="0"
   style="stop-color:#FFFFFF"
   id="stop3495" />
				<stop
   offset="1"
   style="stop-color:#FFFFFF;stop-opacity:0"
   id="stop3497" />
			</radialGradient>
			<path
   id="path2805"
   opacity="0.4028"
   fill="url(#path2805_1_)"
   enable-background="new    "
   d="M13.971,30.767     c-0.44,2.63-0.931,19.309,0.696,22.88c1.592,3.493,1.393-16.667,5.273-19.84C23.862,30.6,14.386,28.287,13.971,30.767z" />
			
				<radialGradient
   id="path2807_1_"
   cx="364.231"
   cy="169.8641"
   r="15.1566"
   gradientTransform="matrix(-0.8599 0 0 -3.3196 328.3749 596.5371)"
   gradientUnits="userSpaceOnUse">
				<stop
   offset="0"
   style="stop-color:#FFFFFF"
   id="stop3501" />
				<stop
   offset="1"
   style="stop-color:#FFFFFF;stop-opacity:0"
   id="stop3503" />
			</radialGradient>
			<path
   id="path2807"
   opacity="0.3"
   fill="url(#path2807_1_)"
   enable-background="new    "
   d="M13.729,30.942     c-0.507,3.07-1.074,22.541,0.804,26.71c1.837,4.078,1.607-19.457,6.085-23.161C25.142,30.747,14.207,28.046,13.729,30.942z" />
			
				<radialGradient
   id="path2809_1_"
   cx="332.3394"
   cy="175.4033"
   r="15.1566"
   gradientTransform="matrix(-1.0685 0 0 -3.7295 370.1422 687.1899)"
   gradientUnits="userSpaceOnUse">
				<stop
   offset="0"
   style="stop-color:#FFFFFF"
   id="stop3507" />
				<stop
   offset="1"
   style="stop-color:#FFFFFF;stop-opacity:0"
   id="stop3509" />
			</radialGradient>
			<path
   id="path2809"
   opacity="0.2"
   fill="url(#path2809_1_)"
   enable-background="new    "
   d="M13.232,31.092     c-0.63,3.449-1.335,25.325,0.999,30.009c2.283,4.582,1.997-21.86,7.561-26.022C27.415,30.873,13.826,27.839,13.232,31.092z" />
		</g>
		
			<linearGradient
   id="rect3077_1_"
   gradientUnits="userSpaceOnUse"
   x1="-99.4148"
   y1="210.2737"
   x2="-99.4148"
   y2="233.9725"
   gradientTransform="matrix(2.1361 0 0 -1.826 276.7207 508.3514)">
			<stop
   offset="0"
   style="stop-color:#FFFFFF"
   id="stop3513" />
			<stop
   offset="1"
   style="stop-color:#FFFFFF;stop-opacity:0"
   id="stop3515" />
		</linearGradient>
		<path
   id="rect3077"
   opacity="0.25"
   fill="url(#rect3077_1_)"
   enable-background="new    "
   d="M103.116,114.725v7.887    c0,0.558-0.432,1.006-0.969,1.006H26.572c-0.537,0-0.969-0.449-0.969-1.006V94.596C25.603,124.113,103.116,73.717,103.116,114.725    z" />
		<path
   id="path2768"
   opacity="0.5"
   enable-background="new    "
   d="M25.647,123.618c1.81-2.122,18.145-3.786,38.655-3.786    c20.229,0,36.293,1.647,38.484,3.727c-0.031,0.003-0.025,0.059-0.057,0.059H25.647z" />
	</g>
</g>
<rect
   y="56.870445"
   x="23.743484"
   width="80.513039"
   style="opacity:0.02999998;fill:url(#linearGradient3538);fill-opacity:1;fill-rule:evenodd;stroke:none"
   ry="0.5"
   rx="0.49999997"
   id="rect2734-1"
   height="66.259109" /><rect
   y="58.184364"
   x="23.982925"
   width="80.513039"
   style="opacity:0.02999998;fill:url(#linearGradient3572);fill-opacity:1;fill-rule:evenodd;stroke:none"
   ry="0.5"
   rx="0.49999997"
   id="rect2709-9"
   height="66.259109" /></svg>