<?xml version="1.0" encoding="UTF-8" standalone="no"?>
<!-- Created with Inkscape (http://www.inkscape.org/) -->
<svg height="128" width="128" xmlns="http://www.w3.org/2000/svg" xmlns:xlink="http://www.w3.org/1999/xlink">
  <defs>
    <linearGradient id="linearGradient5936">
      <stop offset="0"/>
      <stop offset="1" stop-opacity="0"/>
    </linearGradient>
    <linearGradient gradientUnits="userSpaceOnUse" x1="86.88201248139" x2="95.70883902098" y1="93.75643919115" y2="102.58326471875">
      <stop offset="0" stop-color="#fcfcfc"/>
      <stop offset=".52275378" stop-color="#f8f8f8"/>
      <stop offset=".77457333" stop-color="#f0efef"/>
      <stop offset=".90122044" stop-color="#e3e1e1"/>
      <stop offset="1" stop-color="#cecbcb"/>
    </linearGradient>
    <filter id="filter6296">
      <feGaussianBlur stdDeviation=".61501941"/>
    </filter>
    <filter id="filter6161">
      <feGaussianBlur stdDeviation="1.5214555"/>
    </filter>
    <filter id="filter6070">
      <feGaussianBlur stdDeviation=".50819632"/>
    </filter>
    <clipPath id="clipPath6046">
      <path d="m665.72548 30.745097c10.51032-21.0034928 22.53421-42.696901 51.92157-56.313725-2.49685-21.762736-1.07935-43.264316 10.66667-63.372549 1.74869-3.012147-4.73358-12.842133-12.11092-16.082473-6.83439-3.00187-15.04158-.74585-15.96751 1.80797-6.38543 18.878224-13.76913 36.077939-21.6371 57.311913-9.49547 25.626276-9.82259 54.3187513-12.87271 76.648864z"/>
    </clipPath>
    <linearGradient id="linearGradient10204">
      <stop offset="0" stop-color="#fff"/>
      <stop offset="1" stop-color="#fff" stop-opacity="0"/>
    </linearGradient>
    <linearGradient id="linearGradient5934">
      <stop offset="0" stop-color="#18689a"/>
      <stop offset="1" stop-color="#3ba1e1"/>
    </linearGradient>
    <linearGradient id="lg1">
      <stop offset="0" stop-color="#fff"/>
      <stop offset="1" stop-color="#ddd"/>
    </linearGradient>
    <linearGradient id="linearGradient5048" gradientUnits="userSpaceOnUse" x1="10" x2="10" xlink:href="#lg1" y1="15.5566" y2="12.4442"/>
    <linearGradient id="lg2">
      <stop offset="0" stop-color="#bbb"/>
      <stop offset="1" stop-color="#616161"/>
    </linearGradient>
    <linearGradient id="linearGradient5050" gradientUnits="userSpaceOnUse" x1="11.1006" x2="8.9005" xlink:href="#lg2" y1="15.1006" y2="12.9005"/>
    <linearGradient id="linearGradient5052" gradientUnits="userSpaceOnUse" x1="10" x2="10" xlink:href="#lg1" y1="23.5566" y2="20.4442"/>
    <linearGradient id="linearGradient5054" gradientUnits="userSpaceOnUse" x1="11.1006" x2="8.9005" xlink:href="#lg2" y1="23.1006" y2="20.9005"/>
    <linearGradient id="linearGradient5056" gradientUnits="userSpaceOnUse" x1="10" x2="10" xlink:href="#lg1" y1="31.5566" y2="28.4442"/>
    <linearGradient id="linearGradient5058" gradientUnits="userSpaceOnUse" x1="11.1006" x2="8.9005" xlink:href="#lg2" y1="31.1006" y2="28.9005"/>
    <linearGradient id="linearGradient5060" gradientUnits="userSpaceOnUse" x1="10" x2="10" xlink:href="#lg1" y1="39.5566" y2="36.4442"/>
    <linearGradient id="linearGradient5062" gradientUnits="userSpaceOnUse" x1="11.1006" x2="8.9005" xlink:href="#lg2" y1="39.1006" y2="36.9005"/>
    <linearGradient id="linearGradient5064" gradientUnits="userSpaceOnUse" x1="10" x2="10" xlink:href="#lg1" y1="47.5566" y2="44.4442"/>
    <linearGradient id="linearGradient5066" gradientUnits="userSpaceOnUse" x1="11.1006" x2="8.9005" xlink:href="#lg2" y1="47.1006" y2="44.9005"/>
    <linearGradient id="linearGradient5068" gradientUnits="userSpaceOnUse" x1="10" x2="10" xlink:href="#lg1" y1="55.5566" y2="52.4442"/>
    <linearGradient id="linearGradient5070" gradientUnits="userSpaceOnUse" x1="11.1006" x2="8.9005" xlink:href="#lg2" y1="55.1006" y2="52.9005"/>
    <linearGradient id="linearGradient5072" gradientUnits="userSpaceOnUse" x1="10" x2="10" xlink:href="#lg1" y1="63.5566" y2="60.4442"/>
    <linearGradient id="linearGradient5074" gradientUnits="userSpaceOnUse" x1="11.1006" x2="8.9005" xlink:href="#lg2" y1="63.1006" y2="60.9005"/>
    <linearGradient id="linearGradient5076" gradientUnits="userSpaceOnUse" x1="10" x2="10" xlink:href="#lg1" y1="71.5566" y2="68.4442"/>
    <linearGradient id="linearGradient5082" gradientUnits="userSpaceOnUse" x1="10" x2="10" xlink:href="#lg1" y1="79.5566" y2="76.4442"/>
    <linearGradient id="linearGradient5084" gradientUnits="userSpaceOnUse" x1="11.1006" x2="8.9005" xlink:href="#lg2" y1="79.1006" y2="76.9005"/>
    <linearGradient id="linearGradient5086" gradientUnits="userSpaceOnUse" x1="10" x2="10" xlink:href="#lg1" y1="87.5566" y2="84.4442"/>
    <linearGradient id="linearGradient5088" gradientUnits="userSpaceOnUse" x1="11.1006" x2="8.9005" xlink:href="#lg2" y1="87.1006" y2="84.9005"/>
    <linearGradient id="linearGradient5090" gradientUnits="userSpaceOnUse" x1="10" x2="10" xlink:href="#lg1" y1="95.5566" y2="92.4442"/>
    <linearGradient id="linearGradient5092" gradientUnits="userSpaceOnUse" x1="11.1006" x2="8.9005" xlink:href="#lg2" y1="95.1006" y2="92.9005"/>
    <linearGradient id="linearGradient5094" gradientUnits="userSpaceOnUse" x1="10" x2="10" xlink:href="#lg1" y1="103.5566" y2="100.4442"/>
    <linearGradient id="linearGradient5096" gradientUnits="userSpaceOnUse" x1="11.1006" x2="8.9005" xlink:href="#lg2" y1="103.1006" y2="100.9005"/>
    <linearGradient id="linearGradient5098" gradientUnits="userSpaceOnUse" x1="10" x2="10" xlink:href="#lg1" y1="111.5566" y2="108.4442"/>
    <linearGradient id="linearGradient5100" gradientUnits="userSpaceOnUse" x1="11.1006" x2="8.9005" xlink:href="#lg2" y1="111.1006" y2="108.9005"/>
    <linearGradient id="linearGradient5110" gradientUnits="userSpaceOnUse" x1="1045.960769" x2="1028.209669" y1="-31.267752" y2="-37.855988">
      <stop offset="0" stop-color="#83560b"/>
      <stop offset="1" stop-color="#fff2bc"/>
    </linearGradient>
    <linearGradient id="linearGradient5112" gradientUnits="userSpaceOnUse" x1="1044.39213" x2="1073.25493" xlink:href="#linearGradient10204" y1="-55.058824" y2="-55.058824"/>
    <linearGradient id="linearGradient5116" gradientUnits="userSpaceOnUse" x1="1373.62446" x2="943.59006" xlink:href="#linearGradient10204" y1="-256.617017" y2="-439.371507"/>
    <linearGradient id="linearGradient5118" gradientUnits="userSpaceOnUse" x1="891.845425" x2="904.708225" xlink:href="#linearGradient10204" y1="-84.782006" y2="-162.585925"/>
    <radialGradient id="radialGradient5127" cx="99.156181" cy="13.639135" gradientTransform="matrix(.14213087 .10801832 -.54383795 .70972577 78.286738 18.720762)" gradientUnits="userSpaceOnUse" r="9.857213" xlink:href="#linearGradient5936"/>
    <linearGradient id="linearGradient5130" gradientTransform="matrix(.70285859 0 0 .69997609 12.693283 30.6812)" gradientUnits="userSpaceOnUse" spreadMethod="reflect" x1="78.431374" x2="71.282555" y1="62.459103" y2="57.225536">
      <stop offset="0" stop-color="#888"/>
      <stop offset="1" stop-color="#bbb"/>
    </linearGradient>
    <linearGradient id="linearGradient5133" gradientTransform="matrix(.13164275 .04206687 -.02557821 .11917545 1.900668 92.888162)" gradientUnits="userSpaceOnUse" x1="539.04834" x2="555.34161" xlink:href="#linearGradient10204" y1="-767.43756" y2="-610.23682"/>
    <linearGradient id="linearGradient5146" gradientTransform="matrix(.12220531 .03928121 -.02374452 .11128369 -62.490544 67.492234)" gradientUnits="userSpaceOnUse" x1="951.13098" x2="1036.245" xlink:href="#linearGradient10204" y1="-451.47937" y2="-424.01111"/>
    <linearGradient id="linearGradient5149" gradientTransform="matrix(.12220531 .03928121 -.02374452 .11128369 -62.490544 67.492234)" gradientUnits="userSpaceOnUse" x1="932.66144" x2="908.24371" y1="-257.53949" y2="-262.86356">
      <stop offset="0"/>
      <stop offset="1" stop-color="#464646"/>
    </linearGradient>
    <linearGradient id="linearGradient5152" gradientTransform="matrix(.9992167 0 0 .9951188 7.763801 -4.454918)" gradientUnits="userSpaceOnUse" x1="24.932909" x2="48.557693" xlink:href="#linearGradient5934" y1="110.67589" y2="1.859072"/>
    <linearGradient id="linearGradient5929" gradientTransform="matrix(.9992167 0 0 .9951188 7.759895 -4.447106)" gradientUnits="userSpaceOnUse" x1="24.932909" x2="48.557693" xlink:href="#linearGradient5934" y1="110.67589" y2="1.859072"/>
    <linearGradient id="linearGradient5931" gradientUnits="userSpaceOnUse" x1="679.65686" x2="729.10187" y1="-52.91481" y2="-37.855988">
      <stop offset="0" stop-color="#5b3b07"/>
      <stop offset="1" stop-color="#fef4e6"/>
    </linearGradient>
    <linearGradient id="linearGradient5944" gradientUnits="userSpaceOnUse" x1="12.916" x2="99.494949" xlink:href="#linearGradient5936" y1="112.64986" y2="95.649863"/>
    <filter id="filter5958" height="1.395651" width="1.149766" x="-.074883" y="-.197826">
      <feGaussianBlur stdDeviation="1.9525458"/>
    </filter>
    <linearGradient id="linearGradient6087" gradientUnits="userSpaceOnUse" x1="11.1006" x2="8.9005" xlink:href="#lg2" y1="71.1006" y2="68.9005"/>
    <radialGradient id="radialGradient3919-5" cx="90.750004025" cy="110.25296681175" gradientUnits="userSpaceOnUse" r="24.50127823847" xlink:href="#linearGradient10204"/>
    <clipPath id="clipPath3889-6">
      <path d="m112 82.502986c0 4.465301-2.79749 6.409952-5.27972 8.093625-5.10854 3.46508-14.939114 3.32536-20.720284 3.40638-.081 5.781159.16586 15.504599-3.29922 20.613139-1.68367 2.48224-5.29051 5.38687-8.20078 5.38687 2.31803 0 4.74284-1.33476 7.58402-4.08481 9.14197-8.84873 17.36714-16.13535 25.673154-25.297529 1.91895-2.116745 4.24283-3.641881 4.24283-8.117675z"/>
    </clipPath>
    <filter id="filter3909-6" color-interpolation-filters="sRGB">
      <feGaussianBlur stdDeviation=".43040059"/>
    </filter>
    <linearGradient id="linearGradient3895-3" gradientUnits="userSpaceOnUse" x1="86.88201748139" x2="95.42765061063" y1="93.75644019115" y2="102.30207534436">
      <stop offset="0" stop-color="#fcfcfc"/>
      <stop offset=".52275378" stop-color="#f8f8f8"/>
      <stop offset=".72337759" stop-color="#f0efef"/>
      <stop offset=".89024991" stop-color="#e3e1e1"/>
      <stop offset="1" stop-color="#cecbcb"/>
    </linearGradient>
    <clipPath id="clipPath6093-7">
      <path d="m17.000001 8-.000001 112h57.5c1.675283 0 3.914297-.56468 7-3.6 8.870045-8.72523 20.24047-19.851805 27.49904-27.175957 2.44056-2.462612 3.00096-4.47117 3.00096-6.724043v-74.5z"/>
    </clipPath>
    <filter id="filter6118-4" color-interpolation-filters="sRGB" height="1.241294" width="1.225275" x="-.112638" y="-.120647">
      <feGaussianBlur stdDeviation="2.3860572"/>
    </filter>
    <radialGradient id="radialGradient5988-0" cx="64" cy="64.004021" fx="63.793392" fy="47.274845" gradientTransform="matrix(1.6842105 -.08429519 .06886339 1.3758846 -48.196996 -18.663232)" gradientUnits="userSpaceOnUse" r="47.5" xlink:href="#linearGradient10204"/>
    <filter id="filter6171-8" color-interpolation-filters="sRGB" height="2.025501" width="1.957419" x="-.478709" y="-.512751">
      <feGaussianBlur stdDeviation="10.140743"/>
    </filter>
    <linearGradient id="linearGradient4524-4" gradientUnits="userSpaceOnUse" x1="72.000004" x2="72.000004" y1=".000001" y2="116.400911">
      <stop offset="0" stop-color="#eeecec"/>
      <stop offset=".40000001" stop-color="#f4f4f4"/>
      <stop offset="1" stop-color="#f6f5f5"/>
    </linearGradient>
    <filter id="filter3826" color-interpolation-filters="sRGB">
      <feGaussianBlur stdDeviation="1.036"/>
    </filter>
    <filter id="filter3834" color-interpolation-filters="sRGB">
      <feGaussianBlur stdDeviation="1.50075"/>
    </filter>
  </defs>
  <g>
    <path d="m17.000004 8.5000006v111.9999994h58.1875c2.11556 0 4.52892-1.77169 7-4.25.71234-.71442 1.44075-1.39395 2.15625-2.09375.41561-.40649.83219-.81443 1.25-1.21875 7.77396-7.40962 14.983406-14.0226 22.218746-22 .42065-.42064.81207-.8111 1.15625-1.1875 1.46444-1.49766 2.76158-2.8378 2.99375-5.8625l.0375-.73125v-74.6562494z" filter="url(#filter3834)" opacity=".262376"/>
    <path d="m17.000004 8.0000006v112.1999994h57.74642c4.16816 0 7.72858-4.85625 20.85358-17.1 7.486356-6.9837 10.439576-10.88943 13.150086-13.59993 1.74325-1.74325 3.24991-3.03751 3.24991-7.20007v-74.2999994z" fill-opacity=".700535" filter="url(#filter3826)"/>
    <path d="m17.000004 8.0000006v111.9999994h57.5c1.67528 0 3.9143-.56468 7-3.6 8.87004-8.72523 20.240466-19.8518 27.499036-27.17596 2.44056-2.46261 3.00096-4.47117 3.00096-6.72404v-74.4999994z" fill="#fff"/>
    <path d="m18.500004 9.0000006c-.33984 0-.5.234618-.5.5v107.9687494c0 .82158.67932 1.5 1.5 1.5h53.6875c.0531 0 .81038.0234 1.5.0313 1.77766-.0401 3.13197-.75374 4.35603-1.59328 1.05187-.29103 20.64984-19.61959 29.770956-28.80924 1.36239-1.37262 2.18546-3.94817 2.18546-4.89561l.00005-74.2019194c0-.322718-.16322-.5-.5-.5z" fill="url(#linearGradient4524-4)"/>
    <path clip-path="url(#clipPath6093-7)" d="m114.4 82.502986c0 4.465301-4.99749 6.609952-7.47972 8.293625-5.10854 3.46508-14.739114 3.52536-20.520284 3.60638-.081 5.781159-.03414 15.304599-3.49922 20.413139-1.68367 2.48224-5.79051 8.68687-8.70078 8.68687-2.091359 1.5337 3.488204 8.21101 6.734971 5.31989 9.501888-8.46107 35.131683-30.022704 43.350823-39.262889 2.04044-2.29392-4.90514-9.844666-9.88579-7.057015z" filter="url(#filter6171-8)" opacity=".277228" transform="translate(.000004 .000001)"/>
    <path clip-path="url(#clipPath6093-7)" d="m113.9 82.502986c0 4.465301-4.49749 6.609952-6.97972 8.293625-5.10854 3.46508-14.739114 3.52536-20.520284 3.60638-.081 5.781159.76586 15.304599-2.69922 20.413139-1.68367 2.48224-5.79051 7.98687-8.70078 7.98687-2.091359 1.5337 3.488204 11.21101 6.734971 8.31989 9.501888-8.46107 45.998943-30.20138 54.218083-39.441569 2.04044-2.29392-17.0724-11.965986-22.05305-9.178335z" filter="url(#filter6118-4)" opacity=".40099" transform="translate(.000004 .000001)"/>
    <path d="m112 82.50299c0 4.4653-2.79749 6.40995-5.27972 8.09362-5.10854 3.46508-14.939106 3.32536-20.720276 3.40638-.081 5.78116.16586 15.5046-3.29922 20.61314-1.68367 2.48224-5.29051 5.38687-8.20078 5.38687 2.31803 0 4.74284-1.33476 7.58402-4.08481 9.14197-8.84873 17.36714-16.13535 25.673146-25.29753 1.91895-2.11674 4.24283-3.64188 4.24283-8.11767z" fill="url(#linearGradient3895-3)"/>
    <path d="m112.01875 83.2125c-.31643 3.89911-3.52291 5.90281-5.85 7.48125-5.10854 3.46508-15.337576 2.32523-21.118746 2.40625-.081 5.78116.85258 16.31646-2.6125 21.425-1.47321 2.17196-4.09946 4.6601-6.7625 5.25 1.98046-.3623 3.88493-1.66139 6.26875-3.96875.33912-.38853.5743-.67895 1.10625-1.5 3.46508-5.10854 2.8315-14.51259 2.9125-20.29375 5.78117-.081 15.810206.25883 20.918746-3.20625.46542-.31569 1.59399-1.18774 2.00625-1.6 1.53629-1.53629 2.90171-2.61342 3.13125-5.99375zm-36.343746 36.5625c-.15766.0349-.31344.0414-.46875.0625.15699-.0169.31044-.0335.46875-.0625z" fill="#fff"/>
    <path clip-path="url(#clipPath3889-6)" d="m117.31456 81.861283-44.675455 43.487067" fill="none" filter="url(#filter3909-6)" stroke="url(#radialGradient3919-5)" stroke-width="1.2" transform="translate(.000004 .000001)"/>
    <g transform="matrix(.333692 0 0 .333692 -610.81394 -151.23635)"/>
    <g transform="matrix(.6433923 0 0 .6433923 563.19164 120.38376)"/>
    <g transform="matrix(.6433923 0 0 .6433923 563.19164 120.38376)"/>
    <path d="m35.748641 106.56407c-16.47235-32.440714-19.55086-68.956358-11.61065-98.567208h40c-1.37167 5.33713-40.97114 60.046234-28.38935 98.567208z" fill="url(#linearGradient5152)" fill-rule="evenodd"/>
    <g transform="matrix(.333692 0 0 .333692 -795.31394 -151.73635)"/>
    <g transform="matrix(.6433923 0 0 .6433923 378.69164 119.88376)"/>
    <g transform="matrix(.6433923 0 0 .6433923 378.69164 119.88376)"/>
    <circle cx="10" cy="110" fill="url(#linearGradient5098)" r="2" stroke-width=".1" transform="translate(12.07031 2.056348)"/>
    <path d="m18.500004 9.0000006c-.33984 0-.5.234618-.5.5v107.9687494c0 .82158.67932 1.49953 1.5 1.5l54.5.0313c.0531.00003 3.27388-.008 3.9635.00005 6.54097-4.50361 22.637296-21.95328 31.582526-30.95509 1.47685-1.65649.4576-.37007 1.45391-1.60746l.00006-76.9374994c0-.322718-.16322-.5-.5-.5z" fill="url(#radialGradient5988-0)" opacity=".846535"/>
    <circle cx="10" cy="110" fill="url(#linearGradient5100)" r="1.556" stroke-width=".1" transform="matrix(1.1486856 0 0 1.1486856 10.583454 -14.299075)"/>
    <circle cx="10" cy="102" fill="url(#linearGradient5094)" r="2" stroke-width=".1" transform="translate(12.07031 2.056348)"/>
    <circle cx="10" cy="102" fill="url(#linearGradient5096)" r="1.556" stroke-width=".1" transform="matrix(1.1486856 0 0 1.1486856 10.583454 -13.10959)"/>
    <circle cx="10" cy="94" fill="url(#linearGradient5090)" r="2" stroke-width=".1" transform="translate(12.07031 2.056348)"/>
    <circle cx="10" cy="94" fill="url(#linearGradient5092)" r="1.556" stroke-width=".1" transform="matrix(1.1486856 0 0 1.1486856 10.583454 -11.920105)"/>
    <circle cx="10" cy="86" fill="url(#linearGradient5086)" r="2" stroke-width=".1" transform="translate(12.07031 2.056348)"/>
    <circle cx="10" cy="86" fill="url(#linearGradient5088)" r="1.556" stroke-width=".1" transform="matrix(1.1486856 0 0 1.1486856 10.583454 -10.73062)"/>
    <circle cx="10" cy="78" fill="url(#linearGradient5082)" r="2" stroke-width=".1" transform="translate(12.07031 2.056348)"/>
    <circle cx="10" cy="78" fill="url(#linearGradient5084)" r="1.556" stroke-width=".1" transform="matrix(1.1486856 0 0 1.1486856 10.583454 -9.541134)"/>
    <path d="m45.870282 89.19128c-.449474 1.329915 3.643693 4.690617 4.918295 3.446271 20.03379-18.60443 25.229672-32.686886 42.101419-55.466547.812855-1.097494.732096-3.082994-.840902-4.435988-1.400643-1.204751-3.76842-1.567127-4.942873.04438-16.758043 22.993838-30.071306 32.626883-41.235939 56.411884z" fill="url(#linearGradient5149)" fill-rule="evenodd"/>
    <path d="m85.105618 39.6627-5.098405 4.237641c-11.593039 13.558825-24.234334 27.67354-33.189515 45.074486l.950766.153252c4.393051-6.883869 10.359577-13.476435 14.769863-19.588324 4.274141-5.923223 9.604874-15.248014 22.567291-29.877055z" fill="url(#linearGradient5146)" fill-rule="evenodd"/>
    <path d="m45.870282 89.19128c-.552783 1.334016 3.643693 4.690617 4.918295 3.446271 20.03379-18.60443 25.229672-32.686886 42.101419-55.466547.812855-1.097494.732096-3.082994-.840902-4.435988-1.400643-1.204751-3.76842-1.567127-4.942873.04438-16.758043 22.993838-30.071306 32.626883-41.235939 56.411884z" fill="none" stroke="#000" stroke-width=".120549"/>
    <g transform="matrix(.14225207 .03826372 -.03842128 .14166866 -106.90435 64.224517)">
      <g fill-rule="evenodd">
        <path d="m1016.4706 30.745097c10.5103-21.0034928 22.5342-42.696901 51.9215-56.313725-2.4968-21.762736-1.0793-43.264316 10.6667-63.372549 1.7487-3.012147-4.7336-12.842133-12.1109-16.082473-6.8344-3.00187-15.0416-.74585-15.9675 1.80797-6.3854 18.878224-13.7691 36.077939-21.6371 57.311913-9.4955 25.626276-9.8226 54.3187513-12.8727 76.648864z" fill="url(#linearGradient5110)"/>
        <path d="m1049.098-95.686275c-5.4979 18.186575 4.3657 9.063874 13.4902 1.254902l-24.4706 37.333334z" fill="#deca94"/>
        <path d="m1016.4706 32c4.7559-21.294507 8.7082-47.411019 14.2745-63.843137.6797-.07843 2.36-2.791333 2.9804-4.54902.6345-1.797868 1.3116-5.352431.3137-5.960784-1.0036-.611851-3.074 3.376471-3.7647 5.333333-.5642 1.598693-.9412 4.496732-.2353 4.862746-6.0598 14.881648-10.2173 41.4185186-13.5686 64.156862z" fill="#665123"/>
        <path d="m1070.4314-93.176467 2.8235 3.450977c-13.0516 25.969524-15.1877 44.234005-14.1176 60.235294-6.9456 5.136481-10.0162 7.967758-14.7451 12.54902 6.0632-25.482077 16.1906-54.555685 26.0392-76.235291z" fill="url(#linearGradient5112)"/>
      </g>
      <path clip-path="url(#clipPath6046)" d="m665.72548 30.745097c10.51032-21.0034928 22.53421-42.696901 51.92157-56.313725-2.49685-21.762736-1.07935-43.264316 10.66667-63.372549 1.74869-3.012147-4.73358-12.842133-12.11092-16.082473-6.83439-3.00187-15.04158-.74585-15.96751 1.80797-6.38543 18.878224-13.76913 36.077939-21.6371 57.311913-9.49547 25.626276-9.82259 54.3187513-12.87271 76.648864z" fill="none" filter="url(#filter6070)" stroke="url(#linearGradient5931)" stroke-width="1.6" transform="translate(350.67224)"/>
    </g>
    <path d="m53.044581 76.692951c-.0072.03292-.0141.06584 0 0z" fill="none" stroke="#000" stroke-width=".120549"/>
    <path d="m1111.1754-707.88918c-.3331.002-.6668.0183-1 .0313 3.1382.34911 6.1858 1.22559 8.9687 2.53125 14.4292 6.76941 20.4838 23.95747 14.5626 34.6875-112.6536 204.13514-118.9106 350.87592-226.35576 553.96145 3.0501 5.08767 7.87482 5.28784 4.94942 16.35105l.0937-.0313c117.38324-204.4168 135.15904-336.39659 225.56264-569.5 4.4313-11.42625.5689-27.90536-13.6876-35.03125-3.9669-1.98283-8.5104-3.02347-13.0937-3z" fill="url(#linearGradient5116)" fill-rule="evenodd" filter="url(#filter6161)" transform="matrix(.12220531 .03928121 -.02374452 .11128369 -62.490544 67.492234)"/>
    <path d="m904.7082-96.703574c4.40901-10.042796-1.79701-16.955986-14.7451-19.450976 8.87887 4.42433 15.79321 8.95071 14.7451 19.450976z" fill="url(#linearGradient5118)" fill-rule="evenodd" filter="url(#filter6296)" transform="matrix(.14225207 .03826372 -.03842128 .14166866 -81.731529 72.044751)"/>
    <path d="m90.3139 32.258715c-.937115-.294819-1.980269-.163998-2.59372.672798-3.076508 4.093964-6.745518 8.612638-9.084473 13.175895 2.668671-3.219927 3.72088-3.023866 9.729311-12.230322.824677-1.26364 2.332462-.895266 3.396615.01469.324907.277825.564106.590132.73053.915494-.051468-.654742-.365463-1.351055-1.016684-1.907924-.332555-.284352-.735621-.506623-1.161579-.640629z" fill="url(#linearGradient5133)" fill-rule="evenodd"/>
    <path d="m58.857937 67.714478c3.745215.585582 7.075015 3.487083 8.547898 6.607421l2.18441-2.969556c-1.450634-2.661687-5.213193-5.777165-8.658155-6.316836z" fill-rule="evenodd"/>
    <path d="m58.699575 67.872841c3.745213.585581 7.075014 3.487082 8.547896 6.607421l2.184412-2.969555c-1.450635-2.661688-5.213195-5.777166-8.658157-6.316836z" fill-rule="evenodd"/>
    <path d="m58.778756 67.793659c3.745214.585582 7.075014 3.487083 8.547898 6.607422l2.18441-2.969555c-1.450635-2.661689-5.213193-5.777167-8.658155-6.316837z" fill="url(#linearGradient5130)" fill-rule="evenodd"/>
    <path d="m90.3139 32.258715c-.937115-.294819-1.980269-.163998-2.59372.672798-3.076508 4.093964-6.745511 8.612638-9.084473 13.175895 2.668671-3.219927 3.720888-3.023866 9.729311-12.230322.824677-1.26364 2.332462-.895266 3.396615.01469.324907.277825.564106.590132.73053.915494-.051468-.654742-.365463-1.351055-1.016684-1.907924-.332555-.284352-.735621-.506623-1.161579-.640629z" fill="url(#radialGradient5127)" fill-rule="evenodd"/>
    <path d="m35.744735 106.57188c-16.47235-32.440711-19.55086-68.956355-11.61065-98.5672055h40c-1.37167 5.3371305-40.97114 60.0462345-28.38935 98.5672055z" fill="url(#linearGradient5929)" fill-rule="evenodd" opacity=".700377"/>
    <g stroke-width=".1">
      <circle cx="10" cy="70" fill="url(#linearGradient5076)" r="2" transform="translate(12.07031 2.056348)"/>
      <circle cx="10" cy="70" fill="url(#linearGradient6087)" r="1.556" transform="matrix(1.1486856 0 0 1.1486856 10.583454 -8.351649)"/>
      <circle cx="10" cy="62" fill="url(#linearGradient5072)" r="2" transform="translate(12.07031 2.056348)"/>
      <circle cx="10" cy="62" fill="url(#linearGradient5074)" r="1.556" transform="matrix(1.1486856 0 0 1.1486856 10.583454 -7.162163)"/>
      <circle cx="10" cy="54" fill="url(#linearGradient5068)" r="2" transform="translate(12.07031 2.056348)"/>
      <circle cx="10" cy="54" fill="url(#linearGradient5070)" r="1.556" transform="matrix(1.1486856 0 0 1.1486856 10.583454 -5.972678)"/>
      <circle cx="10" cy="46" fill="url(#linearGradient5064)" r="2" transform="translate(12.07031 2.056348)"/>
      <circle cx="10" cy="46" fill="url(#linearGradient5066)" r="1.556" transform="matrix(1.1486856 0 0 1.1486856 10.583454 -4.783193)"/>
      <circle cx="10" cy="38" fill="url(#linearGradient5060)" r="2" transform="translate(12.07031 2.056348)"/>
      <circle cx="10" cy="38" fill="url(#linearGradient5062)" r="1.556" transform="matrix(1.1486856 0 0 1.1486856 10.583454 -3.593707)"/>
      <circle cx="10" cy="30" fill="url(#linearGradient5056)" r="2" transform="translate(12.07031 2.056348)"/>
      <circle cx="10" cy="30" fill="url(#linearGradient5058)" r="1.556" transform="matrix(1.1486856 0 0 1.1486856 10.583454 -2.404222)"/>
      <circle cx="10" cy="22" fill="url(#linearGradient5052)" r="2" transform="translate(12.07031 2.056348)"/>
      <circle cx="10" cy="22" fill="url(#linearGradient5054)" r="1.556" transform="matrix(1.1486856 0 0 1.1486856 10.583454 -1.214737)"/>
      <circle cx="10" cy="14" fill="url(#linearGradient5048)" r="2" transform="translate(12.07031 2.056348)"/>
      <circle cx="10" cy="14" fill="url(#linearGradient5050)" r="1.556" transform="matrix(1.1486856 0 0 1.1486856 10.583454 -.025251)"/>
    </g>
    <path d="m36.415999 107.4939c16.573265-11.468012 39.318731-20.542523 61.07895-27.688074-19.590838 8.68148-32.532482 24.550554-61.07895 27.688074z" fill="url(#linearGradient5944)" filter="url(#filter5958)" opacity=".246862" transform="matrix(1.0704797 0 0 1.0704797 -2.236312 -7.906408)"/>
    <rect fill="#fff" height=".5625" opacity=".493724" width="53.4375" x="23.1875" y="7.9375"/>
  </g>
</svg>
