<?xml version="1.0" encoding="UTF-8" standalone="no"?>
<!-- Created with Inkscape (http://www.inkscape.org/) -->
<svg xmlns:dc="http://purl.org/dc/elements/1.1/" xmlns:cc="http://creativecommons.org/ns#" xmlns:rdf="http://www.w3.org/1999/02/22-rdf-syntax-ns#" xmlns:svg="http://www.w3.org/2000/svg" xmlns="http://www.w3.org/2000/svg" xmlns:xlink="http://www.w3.org/1999/xlink" xmlns:sodipodi="http://sodipodi.sourceforge.net/DTD/sodipodi-0.dtd" xmlns:inkscape="http://www.inkscape.org/namespaces/inkscape" id="svg2" sodipodi:version="0.32" inkscape:version="0.91 r13725" width="256" height="256" sodipodi:docname="desktop2.svg" inkscape:output_extension="org.inkscape.output.svg.inkscape">
 <metadata id="metadata7">
  <rdf:RDF>
   <cc:Work>
    <dc:format>image/svg+xml</dc:format>
    <dc:type rdf:resource="http://purl.org/dc/dcmitype/StillImage"/>
    <dc:title/>
   </cc:Work>
  </rdf:RDF>
 </metadata>
 <defs id="defs5">
  <linearGradient inkscape:collect="always" id="linearGradient4730">
   <stop id="stop4732" stop-color="#000000" stop-opacity="1"/>
   <stop id="stop4738" offset="0.751" stop-color="#000000" stop-opacity="1"/>
   <stop offset="1" id="stop4734" stop-color="#000000" stop-opacity="0"/>
  </linearGradient>
  <linearGradient id="linearGradient3862">
   <stop id="stop3864" stop-color="#000000" stop-opacity="1"/>
   <stop offset="0.474" id="stop3868" stop-color="#000000" stop-opacity="1"/>
   <stop id="stop3866" offset="1" stop-color="#515151" stop-opacity="1"/>
  </linearGradient>
  <linearGradient id="linearGradient3853">
   <stop id="stop3855" stop-color="#ffffff" stop-opacity="0.722"/>
   <stop offset="1" id="stop3857" stop-color="#5f5f5f" stop-opacity="0"/>
  </linearGradient>
  <linearGradient id="linearGradient3405">
   <stop id="stop3407" stop-color="#000000" stop-opacity="1"/>
   <stop offset="1" id="stop3409" stop-color="#9e9e9e" stop-opacity="1"/>
  </linearGradient>
  <linearGradient id="linearGradient3376">
   <stop id="stop3378" stop-color="#c9c9c9" stop-opacity="1"/>
   <stop offset="1" id="stop3380" stop-color="#000000" stop-opacity="1"/>
  </linearGradient>
  <linearGradient id="linearGradient3328">
   <stop id="stop3330" stop-color="#ffffff" stop-opacity="0.5"/>
   <stop offset="1" id="stop3332" stop-color="#ffffff" stop-opacity="0"/>
  </linearGradient>
  <linearGradient id="linearGradient3320">
   <stop id="stop3322" stop-color="#ffffff" stop-opacity="0.659"/>
   <stop offset="1" id="stop3324" stop-color="#ffffff" stop-opacity="0"/>
  </linearGradient>
  <linearGradient id="linearGradient3312">
   <stop id="stop3314" stop-color="#575757" stop-opacity="0.714"/>
   <stop id="stop3316" offset="1" stop-color="#515151" stop-opacity="0"/>
  </linearGradient>
  <linearGradient id="linearGradient3298">
   <stop id="stop3300" stop-color="#ffffff" stop-opacity="0.714"/>
   <stop offset="1" id="stop3302" stop-color="#ffffff" stop-opacity="0"/>
  </linearGradient>
  <linearGradient id="linearGradient3278">
   <stop id="stop3280" stop-color="#868686" stop-opacity="1"/>
   <stop offset="1" id="stop3282" stop-color="#000000" stop-opacity="1"/>
  </linearGradient>
  <linearGradient id="linearGradient3245">
   <stop id="stop3247" stop-color="#ffffff" stop-opacity="1"/>
   <stop id="stop3249" offset="1" stop-color="#6c6c6c" stop-opacity="0"/>
  </linearGradient>
  <linearGradient id="linearGradient3196">
   <stop id="stop3198" stop-color="#000000" stop-opacity="1"/>
   <stop offset="1" id="stop3200" stop-color="#1f1f1f" stop-opacity="1"/>
  </linearGradient>
  <linearGradient id="linearGradient3176">
   <stop id="stop3178" stop-color="#000000" stop-opacity="1"/>
   <stop id="stop3180" offset="1" stop-color="#cccccc" stop-opacity="0.873"/>
  </linearGradient>
  <linearGradient inkscape:collect="always" xlink:href="#linearGradient3328" id="linearGradient3344" gradientUnits="userSpaceOnUse" gradientTransform="translate(328.18792,34.899328)" spreadMethod="reflect" x1="-532.65" y1="636.51" x2="-506.28" y2="636.51"/>
  <radialGradient inkscape:collect="always" xlink:href="#linearGradient3320" id="radialGradient3346" gradientUnits="userSpaceOnUse" gradientTransform="matrix(1.2727529,-0.06878648,0.1159603,2.145608,397.73946,-744.96564)" cx="-531.29" cy="649.88" fx="-531.29" fy="649.88" r="21.17"/>
  <radialGradient inkscape:collect="always" xlink:href="#linearGradient3298" id="radialGradient3348" gradientUnits="userSpaceOnUse" gradientTransform="matrix(0.701002,-3.5376671e-8,0,0.1153983,168.96737,625.49884)" spreadMethod="reflect" cx="-532.51" cy="663.49" fx="-532.51" fy="663.49" r="39.844"/>
  <radialGradient inkscape:collect="always" xlink:href="#linearGradient3312" id="radialGradient3350" gradientUnits="userSpaceOnUse" gradientTransform="matrix(0.5418056,-2.031218e-8,0,0.0662581,86.990939,670.648)" spreadMethod="reflect" cx="-532.51" cy="663.49" fx="-532.51" fy="663.49" r="39.844"/>
  <radialGradient inkscape:collect="always" xlink:href="#linearGradient3376" id="radialGradient3416" gradientUnits="userSpaceOnUse" gradientTransform="matrix(1.0127954,0.00974573,-0.00141658,0.1472139,7.7251231,608.02824)" spreadMethod="reflect" cx="-536.91" cy="603.63" fx="-536.91" fy="603.63" r="228.02"/>
  <linearGradient inkscape:collect="always" xlink:href="#linearGradient3176" id="linearGradient3418" gradientUnits="userSpaceOnUse" x1="-516.28" y1="735.96" x2="-516.28" y2="672.87"/>
  <linearGradient inkscape:collect="always" xlink:href="#linearGradient3405" id="linearGradient3420" gradientUnits="userSpaceOnUse" spreadMethod="reflect" x1="-545.13" y1="805.7" x2="-425.34" y2="805.7"/>
  <radialGradient inkscape:collect="always" xlink:href="#linearGradient3278" id="radialGradient3464" gradientUnits="userSpaceOnUse" gradientTransform="matrix(0.21329522,0.0038978,-0.00223127,0.20861361,9.3910207,74.179251)" spreadMethod="reflect" cx="242.57" cy="607.83" fx="242.57" fy="607.83" r="26.831"/>
  <linearGradient inkscape:collect="always" xlink:href="#linearGradient3176" id="linearGradient3466" gradientUnits="userSpaceOnUse" x1="249.97" y1="603.19" x2="249.2" y2="647.39" gradientTransform="matrix(0.25313497,0,0,0.33087715,-1.6289747,0.14513737)"/>
  <radialGradient inkscape:collect="always" xlink:href="#linearGradient3278" id="radialGradient3468" gradientUnits="userSpaceOnUse" gradientTransform="matrix(0.21329522,0.0038978,-0.00223127,0.20861361,142.79675,73.865626)" spreadMethod="reflect" cx="242.57" cy="607.83" fx="242.57" fy="607.83" r="26.831"/>
  <linearGradient inkscape:collect="always" xlink:href="#linearGradient3176" id="linearGradient3470" gradientUnits="userSpaceOnUse" x1="248.81" y1="602.03" x2="249.2" y2="647.39" gradientTransform="matrix(0.25313497,0,0,0.33087715,131.77676,-0.16849113)"/>
  <linearGradient inkscape:collect="always" xlink:href="#linearGradient3853" id="linearGradient3475" gradientUnits="userSpaceOnUse" gradientTransform="matrix(0.25313497,0,0,-0.33087715,0.36059009,218.05281)" spreadMethod="pad" x1="502.61" y1="-0.882" x2="502.61" y2="39.05"/>
  <linearGradient inkscape:collect="always" xlink:href="#linearGradient3245" id="linearGradient3478" gradientUnits="userSpaceOnUse" spreadMethod="pad" x1="502.61" y1="-0.882" x2="502.61" y2="55.877" gradientTransform="matrix(0.25313497,0,0,0.33087715,0.03156582,27.78082)"/>
  <linearGradient inkscape:collect="always" xlink:href="#linearGradient3196" id="linearGradient3481" gradientUnits="userSpaceOnUse" spreadMethod="repeat" x1="-33.928" y1="571.13" x2="489.75" y2="243" gradientTransform="matrix(0.25313497,0,0,0.33087715,-0.5219473,7.0640563)"/>
  <linearGradient inkscape:collect="always" xlink:href="#linearGradient3176" id="linearGradient3486" gradientUnits="userSpaceOnUse" x1="534.1" y1="32.794" x2="534.1" y2="657.15" gradientTransform="matrix(0.25313497,0,0,0.33087715,-0.96233049,9.2652628)"/>
  <linearGradient inkscape:collect="always" xlink:href="#linearGradient3862" id="linearGradient3870" x1="252.09" y1="593.84" x2="253.75" y2="631.71" gradientUnits="userSpaceOnUse" spreadMethod="reflect" gradientTransform="matrix(0.13760138,0,0,0.17986117,26.712607,92.368597)"/>
  <linearGradient inkscape:collect="always" xlink:href="#linearGradient3862" id="linearGradient3874" gradientUnits="userSpaceOnUse" spreadMethod="reflect" x1="252.09" y1="593.84" x2="253.75" y2="631.71" gradientTransform="matrix(0.13760138,0,0,0.17986117,160.34186,92.116968)"/>
  <linearGradient id="linearGradient4215" inkscape:collect="always">
   <stop id="stop4217" stop-color="#1209db" stop-opacity="0.11"/>
   <stop id="stop4219" offset="1" stop-color="#000000" stop-opacity="0.225"/>
  </linearGradient>
  <linearGradient inkscape:collect="always" id="linearGradient4172">
   <stop id="stop4174" stop-color="#1209db" stop-opacity="0.247"/>
   <stop offset="1" id="stop4184" stop-color="#000000" stop-opacity="0.286"/>
  </linearGradient>
  <linearGradient id="linearGradient4139" inkscape:collect="always">
   <stop id="stop4141" stop-color="#db3609" stop-opacity="1"/>
   <stop offset="0.08" id="stop4147" stop-color="#dc390a" stop-opacity="1"/>
   <stop id="stop4149" offset="0.19" stop-color="#e69122" stop-opacity="1"/>
   <stop offset="0.349" id="stop4151" stop-color="#7f7ee0" stop-opacity="1"/>
   <stop id="stop4164" offset="0.661" stop-color="#1e2980" stop-opacity="1"/>
   <stop id="stop4143" offset="1" stop-color="#121620" stop-opacity="1"/>
  </linearGradient>
  <radialGradient gradientUnits="userSpaceOnUse" gradientTransform="matrix(5.0618147,-0.03301374,0.00698235,1.1227004,-2163.4912,-312.29346)" r="521.71" fy="813.43" fx="529.78" cy="813.43" cx="529.78" id="radialGradient4166-6" xlink:href="#linearGradient4139" inkscape:collect="always"/>
  <radialGradient r="521.71" fy="813.43" fx="529.78" cy="813.43" cx="529.78" gradientTransform="matrix(5.1439393,-0.07260525,0.00709643,0.38163064,-2206.9671,-851.8669)" gradientUnits="userSpaceOnUse" id="radialGradient4170" xlink:href="#linearGradient4172" inkscape:collect="always"/>
  <radialGradient r="521.71" fy="813.43" fx="529.78" cy="813.43" cx="529.78" gradientTransform="matrix(5.1439393,-0.07260525,0.00709643,0.38163064,-2214.0291,-849.21863)" gradientUnits="userSpaceOnUse" id="radialGradient4209" xlink:href="#linearGradient4215" inkscape:collect="always"/>
  <radialGradient r="521.71" fy="813.43" fx="529.78" cy="813.43" cx="529.78" gradientTransform="matrix(5.0705195,-0.01344451,0.00699436,0.45720832,-2167.2087,-945.82341)" gradientUnits="userSpaceOnUse" id="radialGradient4213" xlink:href="#linearGradient4139" inkscape:collect="always"/>
  <filter height="1.026" y="-0.013" width="1.01" x="-0.004" id="filter4160" inkscape:collect="always" color-interpolation-filters="sRGB">
   <feGaussianBlur id="feGaussianBlur4162" inkscape:collect="always"/>
  </filter>
  <filter height="1.255" y="-0.128" width="1.154" x="-0.077" id="filter4234" inkscape:collect="always" color-interpolation-filters="sRGB">
   <feGaussianBlur id="feGaussianBlur4236" stdDeviation="4.98605" inkscape:collect="always"/>
  </filter>
  <radialGradient inkscape:collect="always" xlink:href="#linearGradient4730" id="radialGradient4736" cx="126.85" cy="237.45" fx="126.85" fy="237.45" r="68.991" gradientTransform="matrix(1,0,0,0.19354839,0,192.83048)" gradientUnits="userSpaceOnUse"/>
 </defs>
 <sodipodi:namedview inkscape:window-height="1056" inkscape:window-width="1920" inkscape:pageshadow="2" inkscape:pageopacity="0" guidetolerance="10.0" gridtolerance="10.0" objecttolerance="10.0" borderopacity="1.0" bordercolor="#666666" pagecolor="#ffffff" id="base" showgrid="false" inkscape:zoom="3.5351562" inkscape:cx="128" inkscape:cy="128" inkscape:window-x="0" inkscape:window-y="0" inkscape:current-layer="svg2" inkscape:window-maximized="1" inkscape:pagecheckerboard="true" inkscape:snap-global="false"/>
 <ellipse id="path4728" cx="126.85" cy="238.79" rx="68.991" ry="13.353" fill="url(#radialGradient4736)" fill-opacity="1"/>
 <g id="g5205" transform="matrix(0.22547963,0,0,0.22547963,13.714063,34.484278)">
  <rect transform="scale(1,-1)" id="rect4211" width="1028.41" height="191.56" x="-1.766" y="-773.3" opacity="1" stroke-dasharray="none" stroke-opacity="0.309" fill="url(#radialGradient4213)" fill-rule="nonzero" stroke="none" stroke-linejoin="round" fill-opacity="1" stroke-linecap="round" stroke-width="17" stroke-miterlimit="4"/>
  <rect transform="scale(1,-1)" id="rect4168" width="1037.18" height="196.35" x="-3.985" y="-777.22" opacity="1" stroke-dasharray="none" stroke-opacity="0.309" fill="url(#radialGradient4170)" fill-rule="nonzero" stroke="none" stroke-linejoin="round" fill-opacity="1" stroke-linecap="round" stroke-width="17" stroke-miterlimit="4"/>
  <path d="m -1.765519,38.470273 1026.649319,0 0,543.267867 -1026.649319,0 z" id="rect4137" inkscape:connector-curvature="0" sodipodi:nodetypes="ccccc" opacity="1" stroke-dasharray="none" stroke-opacity="0.309" fill="url(#radialGradient4166-6)" fill-rule="nonzero" stroke="none" stroke-linejoin="round" fill-opacity="1" stroke-linecap="round" stroke-width="17" stroke-miterlimit="4"/>
  <path sodipodi:nodetypes="cccccccccccccccccccccccccccccccccccccccccccccccccccccccccccccccccccccccccccccccccccccccccccccccccccccccccccccccccccccccccccccccccccccccccccccccccccccccccccccccccccccccccccccccscccccccccccccccccccccccccccccccccccccccccccccccccccccccccccccccccccccccccccccccccccccccccccccccccccccccccccccccccccccccccccccccccccccccccccccccccccccccccccccccccccccccccccccccccccccccccccccccccccccccccccccccccccccccccccccccccccccccccccccccccccccccccccccccccccccccccccccccccccccccccccccccccccccccccccccccccccccccccccccccccccccccccccccccccccccccccccccccccccccccccccccccccccccccccccccccccccccccccccccccccccccccccccccccccccccccccccccccccccccccccccccccccccccccccccccccccccccccccccccccccccccccccccccccccccccccccccccccccccccccccccccccccccccccccccccccccccccccccccccccccccccccccc" inkscape:connector-curvature="0" d="m 457,101 -1,1 0,-1 z m 0,6 4.95,-1 c -3.02,9.96 -0.78,6.29 0,15 l 4.47,36 c 0.83,5.6 3.45,14.97 1.58,20 l -2.6,-11.83 C 464.39,156.35 464.69,141.96 461,134 l 0,14 -1.25,14 2.25,12 -3,-1 -1,25 -1,16 -1,38 -1,13 0,14 -1,16 -1,42 -1,17 0,18 -1,16 0,21 -1,13 0,24 -1,15 -1,44 3,1 0,3 c -3.48,3.77 -4.64,14.5 1.06,17.15 3.3,1.53 8.32,1.76 11.94,2.27 l 28,3.58 -2,5 10,1 c -0.25,-5.41 -3.77,-14.28 1,-18 l 1,9 1,0 1,-2 2,0 c 3.89,2.86 4.9,1.38 9,2.54 l 5,1.92 c 5.13,1.44 11.47,0.12 16,-2.46 2.77,4.14 7.41,3.05 12,3 l 23,-1 c -2.28,3.92 -4.82,2.79 -8.91,2.66 -6.91,-0.24 -22.18,-0.12 -28.09,2.34 l 8,1 c -1.25,3.21 -1.74,3.08 -5,4 1.12,2.04 2.89,4.76 3.4,7 l 0,6 c 0.88,5.96 4.18,12.35 9.68,15.15 2.8,1.43 4.95,0.86 7.93,1.16 l 18.99,1.51 11,-0.73 17,0.7 12,0 15,0.68 6,0 c 5.79,-0.33 16.18,0.58 17,-7.47 l 4,0 0,-2 -3,0 c 2.44,-4.19 5.16,-2.58 9,-1 l 1,-1 -1,-3 c 5.59,-0.22 8.03,3.17 10,8 l 7,-4 6,1 -4,0 4,-2 1,-3 -5,-3 4,0 -2,-4 15,-1 c 1.46,3.71 4.02,0.83 6.9,1.67 3.14,0.91 3.7,3.55 4.1,6.33 l 3,0 -1,5 5,-3 1,10 6,-1 c -0.25,-6.68 -1.78,-11.35 7,-11 l 1,-5 c 4.08,0.72 4.73,0.94 6,5 l 4,1 -3,1 c 5.2,3.18 6.94,4.86 5,11 5.97,1.07 11.95,1.14 18,1.3 l 17.42,0.87 10.58,0 12,0.78 26,0 12,-0.95 c 11.47,-0.02 15.13,1.18 25,-6 l -6,0 c 0.93,-3.1 0.62,-3.25 -1,-6 2.18,-2.73 1.9,-2.64 1,-6 l 3,-1 c 2.35,3.53 3.45,2.58 7,1 l -1,3 4,-3 -1,5 17,-3.67 5,0 10,0 3.83,-13.99 c 2.4,-3.52 14.86,-8.67 19.17,-10.34 -2.19,-10.41 7.56,-8.47 15,-10 l 0,4 4,-3 c -0.97,-4.78 -0.04,-5.35 3,-9 -2.11,-2.99 -1.75,-3.48 -1,-7 -4.87,-1.74 -4.77,-5.36 -5,-10 l -6,-2 3,-1 0,-4 4,1 0,-4 6,0 7.82,-4.85 5.18,-6.15 2,3 7,-3 0,-2 c -5.04,-2.77 -4.88,-5.66 -5,-11 l 8,2 3,-9 11,-1 -3,-3 c 7.8,-3.04 10.91,-3.22 18.8,0 l 0,-4 c -0.48,-10.3 6.86,-3.76 12.2,-3 l -1,-2 -1,0 0,-2 c 3.66,-4.52 1.79,-4.7 8,-7 l 0,76 0,18 c -0.07,3.42 0.32,4.62 -3,6 l 2.9,6 0,14 0,27 0,105 c -3.77,-1.04 -4.57,-1.11 -5.9,-5 -8.16,0.4 -13.44,4.53 -12,-4 l -1,-1 -12,1 1,-4 c -8.43,1.32 -11.77,1.89 -15,-7 l -5,1 6,-5 c -5.69,0.71 -5.29,-1.54 -10,-3.15 l -5,-1.26 -7,-3.12 -8,-1.97 -6,-2.5 5.41,-14 -1.41,-8 c -10.66,2.37 -5.36,0.98 -15,0 -1.99,-9.26 -9.72,-8.06 -16.95,-11.79 -4.92,-2.54 -3.91,-5.29 -8.16,-7.93 -3.67,-2.29 -19.86,-3.23 -24.89,-3.39 -6.62,-0.22 -10.42,2.75 -14.03,1.42 -4.61,-1.7 -3.93,-6.61 -8.1,-9.57 C 858.1,594.77 847.68,594.05 844,594 l -64,-1 -15,1 c -5.74,0.01 -10.34,-0.38 -16.2,1 0.32,2.18 0.44,2.8 0,5 -2.22,7 -4.8,6.95 -10.8,4.93 -2.4,-0.81 -3.82,-1.22 -6,-2.62 -1.83,-1.18 -4.71,-4.11 -6.86,-4.11 -3.38,0 -1.39,3.5 -7.14,5.8 -0.16,0.73 0.19,1.28 -0.77,2.41 -1.36,1.62 -4.29,1.54 -6.23,1.75 -6.99,0.78 -10.06,0.96 -17,-1.16 l 1,-2 c -3.94,-1.75 -10.42,-5.99 -14.9,-5.48 -3,0.34 -3.73,2.95 -6.31,3.8 -1.41,0.46 -8.07,-0.22 -9.75,-0.54 -3.98,-0.75 -8.24,-4.91 -12.04,-7.15 L 645,592 c 5.79,-1.78 5.84,-5.06 0.98,-5.89 l -17.98,0 -64,0 -14.94,0 c -172.48063,2.1457 -262.30221,-4.44506 -383.76276,-2.76245 -0.46,-3.07 -161.5098234,0.73914 -165.12982339,0.30914 0.0816216,-2.24836 -1.17153441,-4.98658 -1.15154432,-8.35992 5.58000001,-0.86 166.92584771,0.35396 166.56584771,-3.55604 L 166.91,515 168,505 c 0.03,-4.74 1.12,-13.89 -0.72,-17.87 -2.13,-4.57 -7.05,-3.45 -11.09,-6.93 -1.06,-0.91 -2.77,-2.83 -1.31,-4.18 2.46,-2.26 10.37,2.85 14.07,2.06 3.39,-0.73 3.93,-4.19 7.18,-5.48 3.96,-1.57 8.02,1.2 10.87,1.56 5.14,0.65 11.96,-5.72 14.11,2.86 0.14,1 0.21,1.95 0,2.98 -0.05,1.54 -0.58,2.6 -1.11,4 l 6,2 -2,3 33,9.29 9,2.42 c 2.17,-0.02 4.13,-1.13 6,-2.11 6.14,-3.24 6.29,-4.97 6,-11.6 4.26,1.77 3.07,5.24 2,9 l 9,1 4,7 9,-4 -3,6 c -2.58,0.86 -3.8,2.82 -0.8,4.49 2.12,1.18 5.45,1.18 7.8,1.14 l 17,1.44 17,-7.07 -9,-2 19,1 0,-2 c -5.6,-0.02 -12.98,-0.44 -18,-3 9.38,0.76 22.93,4.34 31.98,2.86 5.6,-0.92 4.4,-4.95 8.16,-5.33 2.06,-0.2 4.54,1.41 6.86,1.65 1.88,0.5 8.83,0.04 11,0 L 356,492 c 2.41,-10.51 12.9,-2.63 19,0 -0.54,3.69 -0.3,5.51 -4,7 6.76,6.96 18.88,5 28,5 0.61,7.46 3.68,7.43 10,9.69 7.66,2.74 22.13,6.47 30,4.31 L 409,504.31 322,463.74 256,430.35 228,416.57 217,410.26 198,401 c -2.56,3.68 -7.9,3.81 -12,5 l 1,-5 -7,0 -1,3 -10,-11 7,2 -2,-4 4,3 -2,-6 c -3.7,-0.44 -6.69,-3.03 -10,-4.74 l -23,-12.4 c -2.65,-1.47 -9.82,-4.23 -11.24,-6.16 -3.06,-4.14 0.86,-7.04 4.24,-8.7 4.43,5.04 11.13,7.72 17,10.78 l 17.83,9.67 5.94,1.12 4.23,1.43 c 2.88,6.56 11.12,8.7 17,11.9 l 28,15.79 16,8.17 110,56.39 c 15.36,7.67 69.62,34.08 83,38.75 2.14,-9.31 -3.08,-9.9 -11,-16.2 -8.41,-6.69 -25.63,-20.69 -36,-22.86 -2.48,-0.6 -4.53,-0.21 -7,0 -2.77,-4.57 -6.99,-4.61 -12,-5.52 -9.36,-1.69 -20.54,-3.41 -30,-3.42 0.8,-1.19 0.74,-1.7 2.29,-2.41 3.29,-1.48 19.35,1.16 23.71,1.83 11.84,1.84 25.48,5.17 36,11.02 l 20,12.85 c 6.18,4.56 11.01,9.12 18,12.71 l 1,-35 1,-17 0,-19 1,-14 0,-18 1,-15 0,-16 0.96,-12 0,-15 1.04,-16 1,-47 1.04,-15 0,-14 0.96,-14 0,-21 0.91,-10 1.09,-25 1,-18 -0.63,-10 1.14,-10 -1.17,-9 5.66,-24 z m 139,11 -2,-4 z m -7,2.6 c 7.76,-2.21 17.09,-2.06 24,2.4 l -9,0 3,7 c -2.97,-1.99 -2.71,-2.51 -3,-6 l -10.99,-0.83 c -5.33,0.29 -9.92,2.83 -15.01,0.83 6.36,-1.09 6.01,-1.99 11,-3.4 z m 1,0.4 1,1 0,-1 z m 11,0 1,1 0,-1 z m 6,0 1,1 0,-1 z m -18,1 1,1 0,-1 z m 11,0 1,1 0,-1 z m -16,1 1,1 0,-1 z m 17,0 1,1 0,-1 z m 156,8 1,3 -11,2 c 1.67,-7.76 3.76,-5.85 10,-5 z m 22,8 c -7.11,-3.92 -9.66,-3.3 -15,3 l 4,3 c -5.1,-1.58 -9.71,-5.29 -9,-11 10.1,0.38 12.5,-5.2 20,5 z m -31,-5 1,1 0,-1 z m 12,1 1,1 0,-1 z m -311,0 -1,1 0,-1 z m 310,1 1,1 0,-1 z m 1,2 1,1 0,-1 z m 3,2 1,1 0,-1 z m -318,9 -1,1 0,-1 z m 377,9 c -6.29,-0.1 -7.34,1.02 -5,7 L 806.83,157.18 798,156 l 1,3 -5,1 c 4,-8.11 4.82,-7.15 13,-7 l -1,-4 z m -12,-5 1,1 0,-1 z m 2,2 1,1 0,-1 z m 2,0 1,1 0,-1 z m -18,2 1,1 0,-1 z m -5.96,10.9 c 3.06,0.2 6.93,-2.22 9.96,-2.91 5.12,-1.15 11.26,1.66 15,5.01 l -11,-1.3 -12,5.3 4,7 c -7.6,-4.37 -9.71,-8.25 -13,-16 l -6,0 2,-4 c 5.3,2.87 7.53,6.68 11.04,6.9 z M 448,164 l -1,1 0,-1 z m 349,3 1,1 0,-1 z m -3,2 1,1 0,-1 z m -3,2 1,1 0,-1 z m 139,2 -8,2 c -2.04,8.79 -16.97,3.89 -15,16 -6.66,-3.31 -6.27,-7.42 -10,-13 l 2,-2.23 c 5.57,8.75 10.81,2.66 19,0 4.88,-1.94 5.33,-1.09 11,-3.77 z m -141,1 1,1 0,-1 z m -327,1 -1,1 0,-1 z m 434,1 -1,1 0,-1 z m -434,12 -1,-9 c 1.46,3.16 2.12,5.63 1,9 z m 7,-8 2,9 c -3.43,-2.36 -3.44,-5.08 -4,-9 z m 492,25 -12,-3 1,9 L 938.96,198.57 927,195 940.46,195.54 942,194 c 8.54,9.72 14.34,2.65 19,11 z m -489,1 -3,-9 c 3.19,2.84 5.1,4.79 3,9 z m -30,-6 -1,1 0,-1 z m 524,7 -3,-3 z m -503,7 0,-7 z m 13,16 c -0.92,-5.84 -6.21,-9.95 -4,-16 l 2,4 0,-5 c 1.79,4.19 3.63,12.74 2,17 z m 1,10 2,-3 1,7 c -4.53,-2.23 -6.19,-3.97 -7,-9 z m 5,23 c -4.53,-2.25 -5.95,-4.07 -7,-9 3.78,2.24 5.32,5.03 7,9 z m 4,21 c -5.11,-2.79 -7.76,-5.2 -9,-11 3.65,3 7.54,6.42 9,11 z m -1,-7 -1,1 0,-1 z m 3,26 c -5.13,-2.11 -7.47,-4.64 -9,-10 z m 2,20 c -4.47,-2.08 -6.41,-3.82 -9,-8 4.87,1.69 6.53,3.54 9,8 z m 3,21 c -4.52,-1.76 -7.42,-3.22 -9,-8 4.58,2.6 6.11,3.5 9,8 z m 4,22 c -5.48,-1.62 -8.24,-3.74 -12,-8 l 1,-1 c 5.06,2.84 7.45,4.28 11,9 z m -9,1 -3,-4 z m 13,-4 -1,1 0,-1 z m -352,15 -4,0 4,4 c -7.28,-3.76 -9.36,-3.85 -12,-12 5.94,2.09 7.89,3.12 12,8 z m 351,10 c -5.38,-1.58 -8.41,-3.7 -12,-8 4.62,1.24 9.5,3.83 12,8 z m -349,-6 -1,1 0,-1 z m 2,1 -1,1 0,-1 z m 5,3 -1,1 0,-1 z m 5,0 -1,1 0,-1 z m 0,4 -4,-3 z m 2,0 -1,1 0,-1 z m 23,8 c -1.58,-4.95 -3.48,-4.93 -8,-7 -1.67,5.34 3.88,6.53 8,7 z m -13,15 c -1.21,-4.61 -0.8,-5.66 1,-10 z m 329,-3 c -5.14,-0.93 -9.88,-2.74 -14,-6 5.68,0.52 9.9,1.91 14,6 z m -7,25 c 4.38,5.55 10.23,8.09 12.05,10.61 2.84,3.93 1.62,14.33 1.95,19.39 l -8,0 1,-7 c -9.82,-2.22 -6.55,-11.92 -10,-23 z m -151,15 -1,1 0,-1 z m -1,2 -1,1 0,-1 z m 151,2 -1,1 0,-1 z m 4,5 0,1 -1,13 7,0 7,5 c -6.52,-0.92 -20.34,-3.3 -14,-13 -2.38,-2.18 -1.78,-3.02 -1,-6 z m 476,11 1,1 0,-1 z m 2,6 1,1 0,-1 z m -465,10 c -3.66,0.71 -10.35,0.33 -13.11,-2.58 -1.02,-1.08 -2.23,-3.99 -2.89,-5.42 8.88,-1.61 10.65,2.82 16,8 z m -257,1 -4,-4 z m 705,2 5,-1 z m -450.86,7.31 c 2.85,2.18 4.43,1.51 6.86,4.69 l -9,-2 c -1.16,3.31 -1.81,3.65 -5,5 l -5,-10 c 10.11,-5.46 6.54,-1.97 12.14,2.31 z M 940,490 l -1,1 0,-1 z m -741,4 1,1 0,-1 z m 5,1 c 1.8,2.81 6.97,6.16 10.17,7.3 3.5,1.26 18.18,2.15 21.83,0.7 z m 107,5 -12,-2 z m -50.98,1.61 c -1.17,1.42 -1,4.62 -1.02,6.39 l 11,1 c -1.3,-7.99 -7.76,-10.05 -9.98,-7.39 z M 250,506 l 8,1 0,-6 c -4.13,0.84 -5.77,1.29 -8,5 z m 685,2 c -1.2,3.39 -1.46,3.47 -5,3 z m 3,4 -3,4 0,-4 z m -433,1 -1,1 0,-1 z m 32,3 -1,1 0,-1 z m -98,7 c -2.44,-3.65 -4.85,-2.97 -9,-4 0.07,3.28 6.4,3.63 9,4 z m 488,0 -5,0 4,-1 z m -407,0 -1,1 0,-1 z m 409,0 -1,1 0,-1 z m -413,13 0,4 c 4.27,-0.44 9.46,-1.3 12,-5 z m 504,2 1,1 0,-1 z m 1,1 1,1 0,-1 z m -320,7 -1,1 0,-1 z m -4,2 -1,1 0,-1 z m 170,5 -1,1 0,-1 z m -177,3 1,1 0,-1 z m 5,2 1,1 0,-1 z m 171,4 1,1 0,-1 z m 2,4 1,-3 z m -322,6 1,-4 z m 109,-3 1,1 0,-1 z m -108,4 1,1 0,-1 z m 90,4 -27,0 -26,-1 -31,0.56 c -3.55,1.11 -6.19,3.29 -8,6.48 l 15,0 12,0.96 54,0 17,0 6.58,-0.57 L 652,580 c -8.11,-1.62 -4.89,-2.98 -15,-3 z m 171,3 -12,-0.91 -27.28,-0.93 c -8.2,-0.19 -13.56,-1.71 -19.72,4.84 l 17,0.96 17,0 9,-1.49 9,0.53 42,-0.83 13,-1.17 z m -28,7 -29,0 c 2.77,5.57 6.45,4.99 12,5 7.86,0.01 18.97,1.26 26,-2 -3.3,-3.25 -4.53,-2.97 -9,-3 z m 32,0.79 -9,1.37 c 7.87,3.42 9.17,0.4 16,0 5.06,0.28 8.8,1.9 14,0 z m -196,5.21 -1,1 0,-1 z m 348,57 0,5 2,0 0,-5 z" id="Selection" fill="#000000" stroke="#000000" fill-opacity="1" stroke-width="1"/>
  <path sodipodi:nodetypes="ccsccsscsccccsscssccssccc" d="m 138.94343,585.22339 c -53.879405,2.355 -83.07799,4.2362 -144.5734434,3.2381 -1.4267475,-0.6741 1.8582577,-73.0191 3.2842324,-73.0191 0.5001387,0 0.6732339,0.4449 0.3847419,0.9886 -0.2905526,0.5475 0.020607,0.7449 0.6971032,0.4425 0.67194592,-0.3003 1.45267741,0.1548 1.73490158,1.0114 0.91819452,2.7869 3.14284562,1.8172 3.14284562,-1.3699 0,-1.9315 0.7302454,-3.5965 2.1465179,-4.8939 1.1805848,-1.0816 2.1465179,-2.8496 2.1465179,-3.9288 0,-2.3699 5.3069649,-10.7046 7.4692819,-11.7306 3.090041,-1.4663 9.366287,-1.4242 13.348336,0.09 3.315168,1.2602 4.647554,1.3288 7.147904,0.3677 3.41657,-1.3132 9.063972,-0.6571 13.680789,1.5896 1.618732,0.7878 5.371103,1.8742 8.338535,2.4143 10.282422,1.8716 16.842867,3.6797 18.841791,5.193 1.104684,0.8363 4.360694,1.7651 7.235568,2.064 5.742107,0.5969 9.167778,2.2928 13.126472,6.4981 3.138636,3.3341 8.708766,6.7049 13.519796,8.1816 2.41707,0.7419 5.00337,2.7954 8.15677,6.4765 2.53968,2.9645 6.48334,7.0379 8.76372,9.0518 3.48758,3.0802 4.71495,3.6135 7.72746,3.3581 3.35089,-0.2841 3.63234,-0.5443 4.37469,-4.0441 0.5775,-2.7225 0.47954,-4.4236 -0.35975,-6.25 -0.90721,-1.9744 -0.93606,-2.9893 -0.13506,-4.7595 19.43021,50.9888 6.76583,47.7812 -0.19972,59.0306 z" id="path4164" inkscape:connector-curvature="0" fill="#0b0f1f"/>
  <path d="m 451.88276,771.68109 c -0.20029,-39.01623 -2.40894,-77.96252 -3,-117 -3.38687,-18.79512 14.64805,-26.48401 35.64531,-25.93179 13.48104,-14.44581 16.3527,3.13855 17.84072,6.55755 6.44256,-10.76284 35.8152,-4.48699 50.91098,-7.43459 42.46463,1.19754 -10.52391,-6.81931 -14.02983,-4.73707 -0.94714,-7.7891 4.55168,-41.8635 30.61111,-34.63625 26.39221,0.38014 52.99323,-2.05378 79.38546,-0.44785 12.71149,13.6418 14.85473,12.4258 32.36817,8.90538 11.46,-2.7746 4.45717,5.90189 5.26808,11.72462 10.87359,6.22722 48.34952,-14.79031 31.77397,-9.73562 4.83716,-25.42375 12.00714,21.08231 26.22603,1.73562 -4.65321,-16.77525 25.54765,-13.14872 41.82116,-14.17 24.87962,-0.81253 50.27378,-2.09268 74.72165,2.20625 5.30059,1.37849 -3.51344,23.79894 11.21765,14.2841 0.78011,-5.38238 18.99407,1.99551 29.84128,0.34965 7.5474,12.02163 29.27197,39.43618 41.39826,30.33 20.51481,11.62966 -14.2344,33.94813 2,35 5.93821,5.53782 18.43154,14.18364 27.06796,14.60055 -7.1291,10.50717 3.53271,18.98903 17.88976,21.39561 -3.73089,10.65949 21.18832,-2.27569 19.75972,12.65134 8.328,-8.44669 15.9083,19.85914 14.2825,-4.85099 -0.1899,-28.18358 0.3779,-56.39543 -0.2813,-84.56151 -1.4881,-9.29253 1.3731,-25.30515 0.1813,-37.63907 0,-38.86531 0,-77.73062 0,-116.59593 -16.8141,11.11002 -31.6085,5.31694 -44.89994,20 -0.17932,0.65026 -11.8721,10.62155 -27.41025,13.10852 -17.27485,2.3201 13.65261,34.87248 -18.58975,24.89148 -22.00393,29.69279 -61.99455,16.77779 -89,34 -31.74118,0.12846 -63.59283,2.33917 -95.2,-1 -2.04492,-24.2528 -28.02839,7.50418 -37.8,-13.16 -21.1156,8.40837 -43.92216,0.94309 -66,16.16 9.87329,10.51015 -21.87463,4.18166 -30.20349,5.89 -133.28834,-1.16418 -266.55095,0.85811 -399.81727,3.02878 -71.5836,0.78192 -143.175335,1.03062 -214.8118239,-0.57547 12.7669179,18.91102 63.8373399,3.79703 92.0259209,9.05377 22.014303,7.68992 78.914053,-16.21714 73.800393,20.46202 -0.43926,22.38217 2.81073,44.777 1.28627,67.0109 -34.49887,12.49794 30.8195,21.25669 33.83,7.13 -0.68373,-11.7309 17.15767,-12.14538 30.42718,-16.75213 19.41912,-14.0405 28.30406,18.84666 32.83706,0.2661 10.24394,-8.86176 20.14587,-0.33935 13.82576,-14.00397 14.31569,-3.14387 28.93169,-3.54196 41.8,4.49 -25.44595,3.9456 34.84181,-0.89157 -3.85719,4.45406 0.59723,-2.50981 44.51992,2.27703 51.8991,3.37016 -29.69236,8.03013 15.09061,17.85123 2.95809,-0.82422 19.54018,-1.93977 54.76176,-25.7018 63.99603,-17.17286 -80.20879,35.87401 -158.92059,74.97066 -236.99603,115.17286 -11.88698,-3.31343 -18.30429,-4.52419 -29,8 23.15496,-5.61642 -18.62471,17.91961 17.06365,8.73131 75.99761,-42.38889 153.90606,-81.42213 232.48291,-118.78506 41.79659,-13.56875 -24.65793,36.6242 -42.70656,36.24625 -17.76153,2.18907 -55.00991,9.21116 -15.92141,6.16422 30.65402,-1.43777 55.20845,-20.44948 79.08141,-37.35672 1.45804,39.35389 2.20773,78.6885 4,118 8.28023,14.73146 3.04548,-5.66517 8,-8 z m -246,-4 c -8.54877,3.4882 6.75078,11.83069 0,0 z m -55,9 c -16.06587,-0.92432 -80.881814,-4.65337 -35.36315,-2.03455 11.78772,0.67818 23.57543,1.35637 35.36315,2.03455 z m 3,0 c -1.04044,-3.31658 -1.84518,1.37377 0,0 z m 5,-3 c -1.04044,-3.31658 -1.84518,1.37377 0,0 z m 5,0 c -1.04044,-3.31658 -1.84518,1.37377 0,0 z m 0,-4 c -4.2383,3.17873 -5.83828,4.37871 0,0 z m 2,0 c -1.04044,-3.31658 -1.84518,1.37377 0,0 z m 23,-8 c -6.90812,15.55823 -14.87466,0.52274 0,0 z m -13,-15 c -1.09033,13.59355 2.37561,12.18886 0,0 z m 329,3 c -20.67917,4.22794 -16.15085,12.11605 0,0 z m -7,-25 c 24.72153,-12.88488 9.4586,-47.39613 -0.38875,-14.8225 3.19282,3.06071 -8.78988,17.27641 0.38875,14.8225 z m -151,-15 c -1.04044,-3.31658 -1.84518,1.37377 0,0 z m -1,-2 c -1.04044,-3.31658 -1.84518,1.37377 0,0 z m 48,-2 c -9.03451,-15.52488 -8.80975,-0.53404 0,0 z m 103,0 c -1.04044,-3.31658 -1.84518,1.37377 0,0 z m -65,-3 c -1.04044,-3.31658 -1.84518,1.37377 0,0 z m 69,-2 c -8.7278,-17.17493 28.71103,-23.12751 -2.40406,-11.99406 2.85875,3.4668 -3.24191,12.24515 2.40406,11.99406 z m -114,-4 c -1.04044,-3.31658 -1.84518,1.37377 0,0 z m 45,-12 c -0.90995,7.95391 1.75082,9.70415 0,0 z m 545,5 c 1.04044,-3.31658 1.84518,1.37377 0,0 z m 2,-6 c 1.04044,-3.31658 1.84518,1.37377 0,0 z m -465,-10 c -22.2332,-3.37203 -17.29677,20.97961 0,0 z m -257,-1 c -3.58811,3.58811 -6.75922,6.75922 0,0 z m 705,-2 c 5.26046,1.05209 7.29229,1.45846 0,0 z m -450.86,-7.31 c 18.00046,-8.64533 -28.8209,-4.50398 -4.37875,4.8075 l 4.37875,-4.8075 z m 429.86,6.31 c -1.04044,-3.31658 -1.84518,1.37377 0,0 z m -741,-4 c 1.04044,-3.31658 1.84518,1.37377 0,0 z m 5,-1 c 14.45846,-15.03632 45.62922,-7.32161 12.78611,-3.19653 -4.26204,1.06551 -8.52407,2.13102 -12.78611,3.19653 z m 107,-5 c -12.49429,2.08238 -16.15181,2.69197 0,0 z m -50.98,-1.61 c -5.74501,-13.68513 23.12621,-5.46579 2.31312,1.09109 l -2.31312,-1.09109 z m -10.02,-4.39 c 12.22422,-6.75734 10.58884,14.75109 0,0 z m 685,-2 c -3.79559,-7.23243 -7.56937,-2.11406 0,0 z m 3,-4 c -3.28277,-9.45151 -5.71376,1.60235 0,0 z m -433,-1 c -1.04044,-3.31658 -1.84518,1.37377 0,0 z m 32,-3 c -1.04044,-3.31658 -1.84518,1.37377 0,0 z m -98,-7 c -9.17251,9.20457 -13.92807,0.22475 0,0 z m 488,0 c -8.37218,-0.99073 -4.79504,1.99188 0,0 z m -407,0 c -1.04044,-3.31658 -1.84518,1.37377 0,0 z m 409,0 c -1.04044,-3.31658 -1.84518,1.37377 0,0 z m -413,-13 c 3.18754,-10.14255 19.44888,5.91021 1.0351,0.0863 l -1.0351,-0.0863 z m 503.99994,-2 c 1.0404,-3.31658 1.8452,1.37377 0,0 z m 1,-1 c 1.0404,-3.31658 1.8452,1.37377 0,0 z m -319.99994,-7 c -1.04044,-3.31658 -1.84518,1.37377 0,0 z m -4,-2 c -1.04044,-3.31658 -1.84518,1.37377 0,0 z m 170,-5 c -1.04044,-3.31658 -1.84518,1.37377 0,0 z m -177,-3 c 1.04044,-3.31658 1.84518,1.37377 0,0 z m 5,-2 c 1.04044,-3.31658 1.84518,1.37377 0,0 z m 171,-4 c 1.04044,-3.31658 1.84518,1.37377 0,0 z m 2,-4 c 1.31278,3.93835 0.95841,2.87523 0,0 z m -322,-6 c 1.47907,5.91629 1.18348,4.73394 0,0 z m 109,3 c 1.04044,-3.31658 1.84518,1.37377 0,0 z m -108,-4 c 1.04044,-3.31658 1.84518,1.37377 0,0 z m 90,-4 c -28.01778,-0.51849 -55.98672,1.79212 -84,0.44 -18.46181,-10.87422 18.28113,-5.41747 27.80232,-7.44 22.91925,0.34377 45.89878,-0.70686 68.77768,0.57 8.87219,7.54174 -10.87046,4.58255 -12.58,6.43 z m 171,-3 c -18.09066,0.81253 -36.66886,3.34025 -54.47313,0.54625 -6.86481,-7.34301 24.32246,-4.07692 33.81519,-3.7874 22.73626,1.16659 45.87451,-0.29367 68.65794,2.24115 -16,0.33333 -32,0.66667 -48,1 z m -28,-7 c -15.20228,1.97531 -45.55046,-2.17398 -10.61016,-5.15016 7.52822,-2.5107 29.69381,3.69356 10.61016,5.15016 z m 32,-0.79 c -26.5365,-4.41431 45.23399,-1.23395 5.62861,-0.3672 -1.8762,0.1224 -3.75241,0.2448 -5.62861,0.3672 z m -196,-5.21 c -1.04044,-3.31658 -1.84518,1.37377 0,0 z m 348,-57 c -1.98978,-12.3405 6.57641,-0.17855 0,0 z" id="path4205" inkscape:connector-curvature="0" transform="matrix(1.0001431,0,0,0.96360878,-0.07332438,17.164495)" fill="#000000" filter="url(#filter4160)" stroke="#000000" fill-opacity="1" stroke-width="1"/>
  <rect y="-774.57" x="-11.05" height="196.35" width="1037.18" id="rect4207" transform="scale(1,-1)" opacity="1" stroke-dasharray="none" stroke-opacity="0.309" fill="url(#radialGradient4209)" fill-rule="nonzero" stroke="none" stroke-linejoin="round" fill-opacity="1" stroke-linecap="round" stroke-width="17" stroke-miterlimit="4"/>
  <path inkscape:connector-curvature="0" id="path4158" d="m 143.93953,361.82282 313.5201,-251.16574 47.20286,424.82557" stroke-dasharray="none" stroke-opacity="1" fill="none" fill-rule="evenodd" stroke="#000000" stroke-linejoin="miter" stroke-linecap="butt" stroke-width="2.333" stroke-miterlimit="4"/>
  <path inkscape:connector-curvature="0" id="path4160" d="m 460.95614,119.98109 61.18889,418.41533" stroke-dasharray="none" stroke-opacity="1" fill="none" fill-rule="evenodd" stroke="#000000" stroke-linejoin="miter" stroke-linecap="butt" stroke-width="2.333" stroke-miterlimit="4"/>
  <path inkscape:connector-curvature="0" id="path4188" d="m 138.06067,585.79335 c -53.879404,-2.355 -83.077989,-4.2362 -144.5734428,-3.2381 -1.4267475,0.6741 1.8582577,73.0191 3.2842324,73.0191 0.5001387,0 0.6732339,-0.4449 0.3847419,-0.9886 -0.2905526,-0.5475 0.020607,-0.7449 0.6971032,-0.4425 0.6719459,0.3003 1.45267737,-0.1548 1.73490154,-1.0114 0.91819452,-2.7869 3.14284566,-1.8172 3.14284566,1.3699 0,1.9315 0.7302454,3.5965 2.1465179,4.8939 1.1805848,1.0816 2.1465179,2.8496 2.1465179,3.9288 0,2.3699 5.3069653,10.7046 7.4692823,11.7306 3.090041,1.4663 9.366287,1.4242 13.348336,-0.09 3.315168,-1.2602 4.647554,-1.3288 7.147904,-0.3677 3.41657,1.3132 9.063972,0.6571 13.680789,-1.5896 1.618732,-0.7878 5.371103,-1.8742 8.338535,-2.4143 10.282422,-1.8716 16.842867,-3.6797 18.841791,-5.193 1.104684,-0.8363 4.360694,-1.7651 7.235568,-2.064 5.742107,-0.5969 9.167778,-2.2928 13.126472,-6.4981 3.138636,-3.3341 8.708765,-6.7049 13.519795,-8.1816 2.41707,-0.7419 5.00337,-2.7954 8.15677,-6.4765 2.53968,-2.9645 6.48334,-7.0379 8.76372,-9.0518 3.48758,-3.0802 4.71495,-3.6135 7.72746,-3.3581 3.35089,0.2841 3.63234,0.5443 4.37469,4.0441 0.5775,2.7225 0.47954,4.4236 -0.35975,6.25 -0.90721,1.9744 -0.93606,2.9893 -0.13506,4.7595 19.43021,-50.9888 6.76583,-47.7812 -0.19972,-59.0306 z" sodipodi:nodetypes="ccsccsscsccccsscssccssccc" fill="#0b0f1f" filter="url(#filter4234)"/>
  <path inkscape:connector-curvature="0" id="path4238" d="M 341.62789,458.15178 457.2694,111.22733" stroke-dasharray="none" stroke-opacity="1" fill="none" fill-rule="evenodd" stroke="#000000" stroke-linejoin="miter" stroke-linecap="butt" stroke-width="2" stroke-miterlimit="4"/>
  <path inkscape:connector-curvature="0" id="path4240" d="M 458.15214,113.87561 394.59347,470.51042" stroke-dasharray="none" stroke-opacity="1" fill="none" fill-rule="evenodd" stroke="#000000" stroke-linejoin="miter" stroke-linecap="butt" stroke-width="2" stroke-miterlimit="4"/>
  <path inkscape:connector-curvature="0" id="path4242" d="M 172.13809,479.33803 463.44871,106.81354" stroke-dasharray="none" stroke-opacity="1" fill="none" fill-rule="evenodd" stroke="#000000" stroke-linejoin="miter" stroke-linecap="butt" stroke-width="2" stroke-miterlimit="4"/>
  <path inkscape:connector-curvature="0" id="path4244" d="M 460.80044,107.6963 568.49707,531.42082" stroke-dasharray="none" stroke-opacity="1" fill="none" fill-rule="evenodd" stroke="#000000" stroke-linejoin="miter" stroke-linecap="butt" stroke-width="2.333" stroke-miterlimit="4"/>
 </g>
 <g id="g3422" transform="matrix(0.25313497,0,0,0.33087715,265.85676,-50.571468)">
  <g transform="translate(-3.125,81.25)" id="g3411">
   <path d="m -760.40268,781.75839 1.67785,15.43624 c 32.11486,28.72012 359.97045,44.82617 448.65772,3.69127 l 4.69798,-19.79865 c -150.86352,21.3962 -302.38325,25.73105 -455.03355,0.67114 z" id="path3392" sodipodi:nodetypes="ccccc" inkscape:connector-curvature="0" stroke-opacity="1" fill="#000000" fill-rule="evenodd" stroke="#000000" stroke-linejoin="miter" fill-opacity="1" stroke-linecap="butt" stroke-width="1"/>
   <ellipse id="path3374" transform="translate(-1.6778523,77.516779)" cx="-531.21" cy="704.07" rx="227.52" ry="27.685" opacity="1" stroke-dasharray="none" stroke-opacity="1" fill="url(#radialGradient3416)" stroke="url(#linearGradient3418)" fill-opacity="1" stroke-width="1" stroke-miterlimit="4"/>
   <path d="m -740.60403,794.51007 c 116.73375,22.60846 317.281,21.22924 422.48322,-2.68457" id="path3395" sodipodi:nodetypes="cc" inkscape:connector-curvature="0" stroke-dasharray="none" stroke-opacity="1" fill="none" fill-rule="evenodd" stroke="url(#linearGradient3420)" stroke-linejoin="round" stroke-linecap="round" stroke-width="2.2" stroke-miterlimit="4"/>
  </g>
  <g id="g3352" transform="matrix(1,0,0,-0.6686024,-333.47735,1321.9723)" opacity="0.782">
   <path sodipodi:nodetypes="ccccccc" id="path3354" d="m -238.75423,646.28776 0.82645,41.32231 c -1.60397,13.08097 -8.9883,24.87741 -40.08265,31.40496 48.67864,9.43678 96.63565,7.32733 144.21488,-0.82644 -23.49424,-5.67172 -35.04559,-16.22916 -34.29752,-31.81819 l -0.82645,-40.08264 z" inkscape:connector-curvature="0" stroke-opacity="1" fill="#000000" fill-rule="evenodd" stroke="none" stroke-linejoin="miter" fill-opacity="0.91" stroke-linecap="butt" stroke-width="1"/>
   <path sodipodi:nodetypes="cccsscc" id="path3356" d="m -230.82847,645.24906 52.18579,1.36612 0.54645,38.79781 c -2.09472,5.49558 -3.61717,7.27529 -6.28416,8.46995 -12.70651,5.69182 -25.52699,3.30258 -37.43169,2.45901 -6.72998,-0.47689 -7.65291,-5.6544 -7.9235,-11.20218 z" inkscape:connector-curvature="0" stroke-opacity="1" fill="url(#linearGradient3344)" fill-rule="evenodd" stroke="none" stroke-linejoin="miter" fill-opacity="1" stroke-linecap="butt" stroke-width="1"/>
   <path d="m -225.36399,646.06873 42.34973,0.54645 -1.91257,35.51912 c -2.09472,5.49558 -2.82937,8.18429 -5.73771,8.46995 -12.70651,1.24804 -10.77289,1.13752 -22.67759,0.54644 -6.73855,-0.33457 -9.56548,-5.6544 -9.83607,-11.20218 z" id="path3358" sodipodi:nodetypes="cccsscc" inkscape:connector-curvature="0" stroke-opacity="1" fill="url(#radialGradient3346)" fill-rule="evenodd" stroke="none" stroke-linejoin="miter" fill-opacity="1" stroke-linecap="butt" stroke-width="1"/>
   <path sodipodi:nodetypes="ccccc" id="path3360" d="m -241.75744,696.34195 c 24.33587,6.15751 49.29355,5.16433 74.59017,0.27323 l 2.18579,3.00546 c -28.12831,10.82703 -54.41084,11.04088 -78.68852,-0.27322 z" inkscape:connector-curvature="0" stroke-opacity="1" fill="url(#radialGradient3348)" fill-rule="evenodd" stroke="none" stroke-linejoin="miter" fill-opacity="1" stroke-linecap="butt" stroke-width="1"/>
   <path d="m -230.45893,711.3239 c 18.80923,3.53545 38.09906,2.9652 57.65086,0.15688 l 1.6894,1.72564 c -21.74041,6.21654 -42.05422,6.33933 -60.81848,-0.15687 z" id="path3362" sodipodi:nodetypes="ccccc" inkscape:connector-curvature="0" stroke-opacity="1" fill="url(#radialGradient3350)" fill-rule="evenodd" stroke="none" stroke-linejoin="miter" fill-opacity="1" stroke-linecap="butt" stroke-width="1"/>
   <ellipse transform="translate(328.18792,34.899328)" id="path3364" cx="-531.86" cy="685.69" rx="26.986" ry="3.249" stroke-dasharray="none" stroke-opacity="1" fill="#696969" stroke="#000000" fill-opacity="0.275" stroke-width="1" stroke-miterlimit="4"/>
  </g>
  <g transform="translate(-331.02349,122.75784)" id="g3336">
   <path d="m -238.75423,646.28776 0.82645,41.32231 c -1.60397,13.08097 -8.9883,24.87741 -40.08265,31.40496 48.67864,9.43678 96.63565,7.32733 144.21488,-0.82644 -23.49424,-5.67172 -35.04559,-16.22916 -34.29752,-31.81819 l -0.82645,-40.08264 z" id="path3290" sodipodi:nodetypes="ccccccc" inkscape:connector-curvature="0" stroke-opacity="1" fill="#000000" fill-rule="evenodd" stroke="none" stroke-linejoin="miter" fill-opacity="0.91" stroke-linecap="butt" stroke-width="1"/>
   <path d="m -230.82847,645.24906 52.18579,1.36612 0.54645,38.79781 c -2.09472,5.49558 -3.61717,7.27529 -6.28416,8.46995 -12.70651,5.69182 -25.52699,3.30258 -37.43169,2.45901 -6.72998,-0.47689 -7.65291,-5.6544 -7.9235,-11.20218 z" id="path3292" sodipodi:nodetypes="cccsscc" inkscape:connector-curvature="0" stroke-opacity="1" fill="url(#linearGradient3344)" fill-rule="evenodd" stroke="none" stroke-linejoin="miter" fill-opacity="1" stroke-linecap="butt" stroke-width="1"/>
   <path sodipodi:nodetypes="cccsscc" id="path3294" d="m -225.36399,646.06873 42.34973,0.54645 -1.91257,35.51912 c -2.09472,5.49558 -2.82937,8.18429 -5.73771,8.46995 -12.70651,1.24804 -10.77289,1.13752 -22.67759,0.54644 -6.73855,-0.33457 -9.56548,-5.6544 -9.83607,-11.20218 z" inkscape:connector-curvature="0" stroke-opacity="1" fill="url(#radialGradient3346)" fill-rule="evenodd" stroke="none" stroke-linejoin="miter" fill-opacity="1" stroke-linecap="butt" stroke-width="1"/>
   <path d="m -241.75744,696.34195 c 24.33587,6.15751 49.29355,5.16433 74.59017,0.27323 l 2.18579,3.00546 c -28.12831,10.82703 -54.41084,11.04088 -78.68852,-0.27322 z" id="path3296" sodipodi:nodetypes="ccccc" inkscape:connector-curvature="0" stroke-opacity="1" fill="url(#radialGradient3348)" fill-rule="evenodd" stroke="none" stroke-linejoin="miter" fill-opacity="1" stroke-linecap="butt" stroke-width="1"/>
   <path sodipodi:nodetypes="ccccc" id="path3308" d="m -230.45893,711.3239 c 18.80923,3.53545 38.09906,2.9652 57.65086,0.15688 l 1.6894,1.72564 c -21.74041,6.21654 -42.05422,6.33933 -60.81848,-0.15687 z" inkscape:connector-curvature="0" stroke-opacity="1" fill="url(#radialGradient3350)" fill-rule="evenodd" stroke="none" stroke-linejoin="miter" fill-opacity="1" stroke-linecap="butt" stroke-width="1"/>
   <ellipse id="path3318" transform="translate(328.18792,34.899328)" cx="-531.86" cy="685.69" rx="26.986" ry="3.249" stroke-dasharray="none" stroke-opacity="1" fill="#696969" stroke="#000000" fill-opacity="0.275" stroke-width="1" stroke-miterlimit="4"/>
  </g>
 </g>
 <path d="M 16.660011,46.84717 242.38255,47.581122 242.24598,199.32539 17.848767,199.28649 Z" id="rect3166" inkscape:connector-curvature="0" sodipodi:nodetypes="ccccc" stroke-opacity="1" fill="none" stroke="url(#linearGradient3486)" stroke-width="1.158" stroke-miterlimit="4"/>
 <path d="m 12.308832,35.122156 c -2.254721,0 -4.0738913,2.367528 -4.0738913,5.314714 l 0,165.23619 c 0,2.94718 1.8191703,5.32506 4.0738913,5.32505 l 234.078648,0 c 2.25472,0 4.06599,-2.37787 4.06598,-5.32505 l 0,-165.23619 c 0,-2.947186 -1.81126,-5.314714 -4.06598,-5.314714 z M 16.760269,46.264662 243.04543,45.090928 242.82094,197.79686 17.658226,197.20999 Z" id="rect3204" sodipodi:nodetypes="cccccccccccccc" inkscape:connector-curvature="0" stroke-dasharray="none" stroke-opacity="1" fill="url(#linearGradient3481)" stroke="none" fill-opacity="1" stroke-width="4.02" stroke-miterlimit="4"/>
 <path sodipodi:nodetypes="cccccccccc" id="path3243" d="m 251.00699,46.514922 0,-6.078051 c 0,-2.947186 -1.81126,-5.314714 -4.06598,-5.314714 l -234.078666,0 c -2.25472,0 -4.0738908,2.367528 -4.0738908,5.314714 l 0,7.251785 M 17.313781,46.264663 243.59896,45.090929" inkscape:connector-curvature="0" stroke-dasharray="none" stroke-opacity="1" fill="url(#linearGradient3478)" stroke="none" fill-opacity="1" stroke-width="4.02" stroke-miterlimit="4"/>
 <path d="m 251.336,199.31871 0,6.07805 c 0,2.94718 -1.81126,5.31471 -4.06598,5.31471 l -234.078651,0 c -2.25472,0 -4.0738904,-2.36753 -4.0738904,-5.31471 l 0,-7.25179 m 8.5253284,1.42399 226.285163,1.17374" id="path3253" sodipodi:nodetypes="cccccccccc" inkscape:connector-curvature="0" stroke-dasharray="none" stroke-opacity="1" fill="url(#linearGradient3475)" stroke="none" fill-opacity="1" stroke-width="4.02" stroke-miterlimit="4"/>
 <ellipse id="path3260" cx="61.45" cy="203.49" rx="6.286" ry="5.575" stroke-dasharray="none" stroke-opacity="1" fill="url(#radialGradient3464)" stroke="url(#linearGradient3466)" fill-opacity="1" stroke-width="1.158" stroke-miterlimit="4"/>
 <ellipse id="path3284" cx="194.86" cy="203.18" rx="6.286" ry="5.575" stroke-dasharray="none" stroke-opacity="1" fill="url(#radialGradient3468)" stroke="url(#linearGradient3470)" fill-opacity="1" stroke-width="1.158" stroke-miterlimit="4"/>
 <ellipse id="path3856" cx="61" cy="202.91" rx="3.417" ry="3.03" fill="url(#linearGradient3870)" stroke="none" fill-opacity="1" stroke-width="0.544"/>
 <ellipse id="path3872" cx="194.63" cy="202.66" rx="3.417" ry="3.03" fill="url(#linearGradient3874)" stroke="none" fill-opacity="1" stroke-width="0.544"/>
</svg>
