<?xml version="1.0" encoding="UTF-8" standalone="no"?>
<svg xmlns="http://www.w3.org/2000/svg" xmlns:xlink="http://www.w3.org/1999/xlink" width="127.99588" height="127.99588" version="1.0">
  <defs>
    <linearGradient id="i">
      <stop offset="0"/>
      <stop offset="1" stop-opacity="0"/>
    </linearGradient>
    <linearGradient id="d">
      <stop offset="0" stop-color="#303030"/>
      <stop offset=".05769231" stop-color="#fff" stop-opacity=".59215689"/>
      <stop offset=".11538462" stop-color="#4b4b4b" stop-opacity=".18431373"/>
      <stop offset=".69156802" stop-opacity="0"/>
      <stop offset=".90384614" stop-opacity=".09747292"/>
      <stop offset=".95192307" stop-color="#fff" stop-opacity=".54509807"/>
      <stop offset="1" stop-color="#5d5d5d"/>
    </linearGradient>
    <linearGradient id="c">
      <stop offset="0" stop-color="#414141"/>
      <stop offset="1" stop-color="#414141" stop-opacity="0"/>
    </linearGradient>
    <linearGradient id="a">
      <stop offset="0" stop-color="#fff"/>
      <stop offset="1" stop-color="#fff" stop-opacity="0"/>
    </linearGradient>
    <linearGradient id="g">
      <stop offset="0" stop-color="#303030"/>
      <stop offset=".11538462" stop-color="#555"/>
      <stop offset=".26590282" stop-color="#3b3b3b"/>
      <stop offset=".28553563" stop-color="#646464"/>
      <stop offset=".43724003" stop-color="#7b7b7b"/>
      <stop offset=".69156802" stop-color="#888"/>
      <stop offset=".90384614" stop-color="#747474"/>
      <stop offset="1" stop-color="#5d5d5d"/>
    </linearGradient>
    <linearGradient id="e">
      <stop offset="0"/>
      <stop offset="1" stop-opacity="0"/>
    </linearGradient>
    <linearGradient id="j">
      <stop offset="0" stop-color="#fff"/>
      <stop offset="1" stop-color="#fff" stop-opacity="0"/>
    </linearGradient>
    <linearGradient id="b">
      <stop offset="0" stop-color="#fff"/>
      <stop offset="1" stop-color="#fff" stop-opacity="0"/>
    </linearGradient>
    <linearGradient id="f">
      <stop offset="0" stop-color="#fff"/>
      <stop offset="1" stop-color="#fff" stop-opacity="0"/>
    </linearGradient>
    <linearGradient id="h">
      <stop offset="0" stop-color="#fff"/>
      <stop offset="1" stop-color="#fff" stop-opacity="0"/>
    </linearGradient>
    <linearGradient xlink:href="#a" id="A" x1="38.875084" x2="90.409752" y1="67.528122" y2="67.528122" gradientTransform="matrix(.5115 0 0 1.80649 12.74754 -29.23923)" gradientUnits="userSpaceOnUse"/>
    <linearGradient xlink:href="#a" id="z" x1="38.875084" x2="90.409752" y1="67.528122" y2="67.528122" gradientTransform="matrix(.5115 0 0 .77135 12.74754 -16.48632)" gradientUnits="userSpaceOnUse"/>
    <linearGradient xlink:href="#b" id="y" x1="11.543377" x2="10.88339" y1="3.4375" y2="5.9006019" gradientTransform="matrix(5.46753 0 0 5.82057 -31.3529 -25.48731)" gradientUnits="userSpaceOnUse"/>
    <linearGradient xlink:href="#c" id="w" x1="43.918915" x2="43.918915" y1="7.8450942" y2="15.315003" gradientTransform="matrix(1.01819 0 0 .86461 -17.75454 -106.3913)" gradientUnits="userSpaceOnUse"/>
    <linearGradient xlink:href="#c" id="v" x1="63.948738" x2="43.918915" y1="-163.6496" y2="54.970299" gradientTransform="matrix(1.0169 0 0 .83956 -17.73117 -106.1082)" gradientUnits="userSpaceOnUse"/>
    <linearGradient xlink:href="#a" id="u" x1="38.875084" x2="90.409752" y1="67.528122" y2="67.528122" gradientTransform="matrix(.5115 0 0 .96108 12.74754 -18.82388)" gradientUnits="userSpaceOnUse"/>
    <linearGradient xlink:href="#c" id="t" x1="69.07917" x2="63.575024" y1="1.0128831" y2="39.769947" gradientTransform="matrix(1.00344 0 0 .96108 -16.62023 -18.82388)" gradientUnits="userSpaceOnUse"/>
    <linearGradient xlink:href="#d" id="s" x1="18.01074" x2="72.498932" y1="65.760353" y2="65.760353" gradientTransform="matrix(1.01772 0 0 .96017 -17.74614 -18.81356)" gradientUnits="userSpaceOnUse"/>
    <linearGradient xlink:href="#e" id="r" x1="5.6568542" x2="5.6568542" y1="6.0850325" y2="1.4639859" gradientTransform="matrix(4.86106 0 0 5.38373 11.29209 -18.0711)" gradientUnits="userSpaceOnUse"/>
    <linearGradient xlink:href="#f" id="q" x1="11.434079" x2="11.174653" y1="1.0289581" y2="2.2792649" gradientTransform="matrix(5.48095 0 0 5.82057 -30.55542 -25.48731)" gradientUnits="userSpaceOnUse"/>
    <linearGradient xlink:href="#e" id="p" x1="6.4523492" x2="5.5593128" y1="-2.8016193" y2="1.0485095" gradientTransform="matrix(4.86106 0 0 5.38373 11.29209 -18.0711)" gradientUnits="userSpaceOnUse"/>
    <linearGradient xlink:href="#g" id="o" x1="1.4227993" x2="5.5960732" y1="1.022699" y2="1.022699" gradientTransform="matrix(4.86106 0 0 5.38373 11.29209 -18.0711)" gradientUnits="userSpaceOnUse"/>
    <radialGradient id="k" cx="538.77338" cy="651.10352" r="126.0234" gradientTransform="translate(-484 -674)" gradientUnits="userSpaceOnUse">
      <stop offset="0" stop-color="#cceaac"/>
      <stop offset=".5393" stop-color="#3ba42a"/>
      <stop offset="1" stop-color="#91e851"/>
    </radialGradient>
    <radialGradient xlink:href="#h" id="C" cx="12.308078" cy="3.0406888" r="2.9831069" fx="13.944797" fy="3.0406888" gradientTransform="matrix(1 0 0 .02963 0 2.950605)" gradientUnits="userSpaceOnUse"/>
    <radialGradient xlink:href="#h" id="B" cx="12.308078" cy="3.0406888" r="2.9831069" fx="13.944797" fy="3.0406888" gradientTransform="matrix(1 0 0 .02963 0 2.950605)" gradientUnits="userSpaceOnUse"/>
    <radialGradient xlink:href="#i" id="n" cx="63.912209" cy="115.70919" r="63.912209" fx="66.022942" fy="115.70919" gradientTransform="matrix(1 0 0 .1978 0 92.82166)" gradientUnits="userSpaceOnUse"/>
    <radialGradient xlink:href="#j" id="x" cx="68.000046" cy="-117.34602" r="27.999956" fx="68.000046" fy="-117.34602" gradientTransform="matrix(.99037 0 0 1.66416 -39.03091 98.65651)" gradientUnits="userSpaceOnUse"/>
    <radialGradient xlink:href="#k" id="m" cx="-2.1224115" cy="14.219431" r="20.361954" fx="-2.1224115" fy="14.219431" gradientTransform="matrix(-4.10427 .03658 -.08114 -9.10458 -18.63497 67.44112)" gradientUnits="userSpaceOnUse"/>
    <radialGradient xlink:href="#k" id="l" cx="-2.1224115" cy="14.219431" r="20.361954" fx="-2.1224115" fy="14.219431" gradientTransform="matrix(-4.10427 .03658 -.08114 -9.10458 -18.63497 67.44112)" gradientUnits="userSpaceOnUse"/>
  </defs>
  <g transform="translate(31.81612 23.08885)">
    <path fill="url(#l)" d="M8.158268 48.865055h40.723907V64.85481H8.158268z"/>
    <path fill="#d8e6b9" fill-opacity=".52941179" d="M8.158268 24.880419h40.723907v15.989755H8.158268z"/>
    <path fill="url(#m)" d="M8.158268 72.849678h40.723907v15.989755H8.158268z"/>
    <path fill="#fff" fill-opacity=".75688076" d="M19.076679-19.807554v-2.794709 2.794709z"/>
    <path fill="url(#n)" d="M127.82442 115.70919a63.912209 12.641975 0 1 1-127.82442 0 63.912209 12.641975 0 1 1 127.82442 0z" opacity=".38139535" transform="matrix(.56858 0 0 .4169 -8.55638 51.30996)"/>
    <path fill="url(#o)" d="M18.408864-18.071072H38.36072c1.249669 0 2.255713 1.114221 2.255713 2.498261v8.292409H16.153145v-8.292409c0-1.38404 1.006048-2.498261 2.255719-2.498261z"/>
    <path fill="url(#p)" d="M18.408864-18.071072H38.36072c1.249669 0 2.255713 1.114221 2.255713 2.498261v3.146607H16.153145v-3.146607c0-1.38404 1.006048-2.498261 2.255719-2.498261z"/>
    <path fill="url(#q)" d="M19.923689-17.252554h17.821028c1.116215 0 2.014809.954286 2.014809 2.13966v1.200771c-15.556285 3.673702-4.695961.257235-21.850648 0v-1.200771c0-1.185374.898604-2.13966 2.014811-2.13966z"/>
    <path fill="url(#r)" d="M40.616433-10.189082v2.860597H16.153145v-2.860597h24.463288z"/>
    <rect width="55.453815" height="104.63548" x=".58381283" y="-7.9904442" fill="url(#s)" rx="2.1937749" ry="1.9589152"/>
    <rect width="54.675182" height="37.029793" x="1.4523507" y="-7.9904442" fill="url(#t)" opacity=".51000001" rx="2.2019448" ry="1.9633386"/>
    <rect width="13.170826" height="102.8517" x="32.695271" y="-6.9834423" fill="url(#u)" opacity=".22540984" rx="0" ry="0"/>
    <rect width="55.408527" height="59.717663" x=".58381283" y="-96.645035" fill="url(#v)" opacity=".87000002" rx="2.0819607" ry="1.924963" transform="scale(1 -1)"/>
    <rect width="55.479202" height="61.501431" x=".58381283" y="-96.645035" fill="url(#w)" rx="2.0762138" ry="1.9149517" transform="scale(1 -1)"/>
    <rect width="55.460392" height="61.206009" x=".58381283" y="-96.599617" fill="url(#x)" opacity=".41000001" rx="2.0960798" ry="1.9391078" transform="scale(1 -1)"/>
    <path fill="url(#y)" d="M5.21119-5.479094c-.52061 0-.854303.53713-.854303 1.091356v3.092181C15.242404 17.335932 37.56278 7.07362 52.881181 3.797445v-8.185183c0-.554226-.333682-1.091356-.854292-1.091356H5.21119z" opacity=".48360656"/>
    <rect width="13.170826" height="31.863861" x="32.695271" y="-6.9834423" fill="url(#z)" opacity=".22540984" rx="0" ry="0"/>
    <rect width="13.170826" height="71.838249" x="32.695271" y="-6.9834423" fill="url(#A)" opacity=".22540984" rx="0" ry="0"/>
    <path fill="url(#B)" d="M15.291185 3.0406995a2.9831069.08838835 0 1 1-5.966214 0 2.9831069.08838835 0 1 1 5.966214 0z" transform="matrix(5.46753 0 0 5.82057 -32.73139 -24.9369)"/>
    <path fill="url(#C)" d="M15.291185 3.0406995a2.9831069.08838835 0 1 1-5.966214 0 2.9831069.08838835 0 1 1 5.966214 0z" transform="matrix(3.13812 0 0 5.82057 -10.52524 -34.85006)"/>
  </g>
</svg>