<?xml version="1.0" encoding="UTF-8" standalone="no"?>
<svg xmlns="http://www.w3.org/2000/svg" xmlns:xlink="http://www.w3.org/1999/xlink" width="96" height="96" version="1.0">
  <defs>
    <path id="A" d="M-77 16.96875c-1.666716 0-3.03125 1.364534-3.03125 3.03125v8c0 1.666716 1.364534 3.03125 3.03125 3.03125h8c1.666716 0 3.03125-1.364534 3.03125-3.03125v-8c0-1.666716-1.364534-3.03125-3.03125-3.03125h-8z" color="#000" opacity=".25" overflow="visible" style="marker:none"/>
    <path id="D" d="M23.4375 67.96875c-.431808 0-.8125.376623-.8125.8125V69c-.04203.01818-.08448.04317-.125.0625l-.15625-.15625c-.317664-.317662-.841284-.315-1.15625 0l-.78125.78125c-.314985.31498-.317638.838572 0 1.15625L20.5625 71c-.01933.04052-.04432.08297-.0625.125h-.21875c-.435877 0-.8125.380694-.8125.8125v1.125c0 .431807.376621.8125.8125.8125H20.5c.01818.04203.04317.08448.0625.125l-.15625.15625c-.31766.317663-.315007.841285 0 1.15625l.78125.78125c.314978.314978.838572.317638 1.15625 0L22.5 75.9375c.04052.01933.08297.04432.125.0625v.21875c0 .435877.380694.8125.8125.8125h1.125c.431807 0 .8125-.376621.8125-.8125V76c.04203-.01818.08448-.04317.125-.0625l.15625.15625c.317665.317665.841282.315008 1.15625 0l.78125-.78125c.314974-.314977.317637-.838574 0-1.15625L27.4375 74c.01933-.04052.04432-.08297.0625-.125h.21875c.43588 0 .8125-.380695.8125-.8125v-1.125c0-.431806-.376623-.8125-.8125-.8125H27.5c-.018178-.042031-.04317-.08448-.0625-.125l.15625-.15625c.103626-.103626.247896-.313883.25-.5625.0023-.265408-.07854-.422307-.25-.59375l-.78125-.78125c-.314977-.314974-.838574-.317637-1.15625 0L25.5 69.0625c-.040516-.019328-.082971-.044321-.125-.0625v-.21875c-.000003-.435873-.380692-.8125-.8125-.8125h-1.125zM24 71.8125c.373104 0 .6875.314397.6875.6875 0 .373107-.314394.6875-.6875.6875-.373105 0-.6875-.314394-.6875-.6875 0-.373102.314397-.6875.6875-.6875z" display="block" opacity=".15" overflow="visible" style="marker:none"/>
    <path id="E" d="M27.999967 71.947622c0-.15742-.130588-.284886-.290698-.284886h-.563953c-.07499-.281476-.188277-.550428-.331396-.79651l.401163-.401163c.05661-.05661.08659-.124418.08721-.197675.000626-.07326-.02574-.147831-.0814-.203487l-.784884-.784884c-.111313-.111312-.287948-.107401-.401163.0058l-.401163.401163c-.246076-.143078-.515028-.256357-.796506-.331356v-.563953c-.000001-.160109-.127465-.290697-.284885-.290697h-1.104651c-.15742 0-.284883.130588-.284883.290697v.563953c-.281478.075-.550431.188278-.796512.331397l-.401163-.401164c-.113215-.113214-.28985-.117125-.401163-.0058l-.784883.784884c-.111313.111311-.107401.287947.0058.401162l.401137.401163c-.143119.246082-.2564.515034-.331396.79651h-.563953c-.16011 0-.290698.127466-.290698.284886v1.10465c0 .157419.130588.284884.290698.284884h.563953c.075.281477.188277.550428.331396.796511l-.401163.401163c-.113215.113216-.117127.289851-.0058.401163l.784883.784883c.111312.111312.287948.107401.401163-.0058l.401162-.401162c.246082.143119.515035.256398.796512.331395v.563953c0 .16011.127464.290698.284884.290698h1.104651c.157419 0 .284884-.130588.284884-.290698v-.563953c.281477-.07499.550429-.188276.796511-.331395l.401163.401163c.113214.113214.28985.117126.401162.0058l.784885-.784884c.111312-.111313.107401-.287948-.0058-.401163l-.401163-.401163c.143119-.246083.2564-.515034.331395-.796511h.563953c.160111 0 .290697-.127465.290697-.284883v-1.104652zm-2.790697.552324c0 .667536-.541768 1.209304-1.209303 1.209304-.667534 0-1.209302-.541768-1.209302-1.209304 0-.667533.541768-1.209302 1.209302-1.209302.667535 0 1.209303.541769 1.209303 1.209302z" display="block" opacity=".3" overflow="visible" style="marker:none"/>
    <path id="F" fill="#fff" d="M27.999967 71.447668c0-.15742-.130588-.284886-.290698-.284886h-.563953c-.07499-.281476-.188277-.550428-.331396-.79651l.401163-.401163c.05661-.05661.08659-.124418.08721-.197675.000626-.07326-.02574-.147831-.0814-.203487l-.784884-.784884c-.111313-.111312-.287948-.107401-.401163.0058l-.401163.401163c-.246076-.143078-.515028-.256357-.796506-.331356v-.563953c-.000001-.160109-.127465-.290697-.284885-.290697h-1.104651c-.15742 0-.284883.130588-.284883.290697v.563953c-.281478.075-.550431.188278-.796512.331397l-.401163-.401164c-.113215-.113214-.28985-.117125-.401163-.0058l-.784883.784884c-.111313.111311-.107401.287947.0058.401162l.401137.401163c-.143119.246082-.2564.515034-.331396.79651h-.563953c-.16011 0-.290698.127466-.290698.284886v1.10465c0 .157419.130588.284884.290698.284884h.563953c.075.281477.188277.550428.331396.796511l-.401163.401163c-.113215.113216-.117127.289851-.0058.401163l.784883.784883c.111312.111312.287948.107401.401163-.0058l.401162-.401162c.246082.143119.515035.256398.796512.331395v.563953c0 .16011.127464.290698.284884.290698h1.104651c.157419 0 .284884-.130588.284884-.290698v-.563953c.281477-.07499.550429-.188276.796511-.331395l.401163.401163c.113214.113214.28985.117126.401162.0058l.784885-.784884c.111312-.111313.107401-.287948-.0058-.401163l-.401163-.401163c.143119-.246083.2564-.515034.331395-.796511h.563953c.160111 0 .290697-.127465.290697-.284883v-1.104652zm-2.790697.552324c0 .667536-.541768 1.209304-1.209303 1.209304-.667534 0-1.209302-.541768-1.209302-1.209304 0-.667533.541768-1.209302 1.209302-1.209302.667535 0 1.209303.541769 1.209303 1.209302z" display="block" overflow="visible" style="marker:none"/>
  </defs>
  <defs>
    <linearGradient id="p">
      <stop offset="0" stop-color="gray"/>
      <stop offset="1" stop-color="gray" stop-opacity="0"/>
    </linearGradient>
    <linearGradient id="o">
      <stop offset="0" stop-color="#deaa87"/>
      <stop offset="1" stop-color="#784421"/>
    </linearGradient>
    <linearGradient id="n">
      <stop offset="0" stop-color="#2a7fff"/>
      <stop offset="1" stop-color="#003380"/>
    </linearGradient>
    <linearGradient id="l">
      <stop offset="0" stop-color="#ccc"/>
      <stop offset="1" stop-color="#1a1a1a"/>
    </linearGradient>
    <linearGradient id="m">
      <stop offset="0" stop-color="#71c837"/>
      <stop offset="1" stop-color="#447821"/>
    </linearGradient>
    <linearGradient id="j">
      <stop offset="0" stop-color="#ffdb5b"/>
      <stop offset="1" stop-color="#26a4bc"/>
    </linearGradient>
    <linearGradient id="k">
      <stop offset="0" stop-color="#a535c0"/>
      <stop offset="1" stop-color="#732586"/>
    </linearGradient>
    <linearGradient id="i">
      <stop offset="0" stop-color="#008eca"/>
      <stop offset="1" stop-color="#35c3ff"/>
    </linearGradient>
    <linearGradient id="h">
      <stop offset="0" stop-color="#ff9800"/>
      <stop offset="1" stop-color="#ff4600"/>
    </linearGradient>
    <linearGradient id="g">
      <stop offset="0" stop-color="#fff"/>
      <stop offset="1" stop-color="#fff" stop-opacity="0"/>
    </linearGradient>
    <linearGradient id="d">
      <stop offset="0" stop-color="#b4b4b4"/>
      <stop offset="1" stop-color="#dcdcdc"/>
    </linearGradient>
    <linearGradient id="a">
      <stop offset="0" stop-color="#fff"/>
      <stop offset="1" stop-color="#fff" stop-opacity="0"/>
    </linearGradient>
    <linearGradient id="b">
      <stop offset="0" stop-color="#141414"/>
      <stop offset="1" stop-color="#323232"/>
    </linearGradient>
    <linearGradient xlink:href="#a" id="x" x1="36.357143" x2="36.357143" y1="6" y2="63.893143" gradientUnits="userSpaceOnUse"/>
    <linearGradient xlink:href="#b" id="v" x1="48" x2="48" y1="90" y2="5.9877172" gradientUnits="userSpaceOnUse"/>
    <linearGradient id="c" x1="45.447727" x2="45.447727" y1="92.539597" y2="7.0165396" gradientTransform="matrix(1.00587 0 0 .99417 100 0)" gradientUnits="userSpaceOnUse">
      <stop offset="0"/>
      <stop offset="1" stop-opacity=".58823532"/>
    </linearGradient>
    <linearGradient xlink:href="#c" id="r" x1="32.251034" x2="32.251034" y1="6.1317081" y2="90.238609" gradientTransform="matrix(1.0238 0 0 1.0119 -1.1428571 -98.071429)" gradientUnits="userSpaceOnUse"/>
    <linearGradient xlink:href="#c" id="s" x1="32.251034" x2="32.251034" y1="6.1317081" y2="90.238609" gradientTransform="matrix(1.0238 0 0 1.0119 -1.1428571 -98.071429)" gradientUnits="userSpaceOnUse"/>
    <linearGradient xlink:href="#c" id="t" x1="32.251034" x2="32.251034" y1="6.1317081" y2="90.238609" gradientTransform="matrix(1.0238 0 0 1.0119 -1.1428571 -98.071429)" gradientUnits="userSpaceOnUse"/>
    <linearGradient xlink:href="#c" id="u" x1="32.251034" x2="32.251034" y1="6.1317081" y2="90.238609" gradientTransform="translate(0 -97)" gradientUnits="userSpaceOnUse"/>
    <linearGradient xlink:href="#c" id="q" x1="32.251034" x2="32.251034" y1="6.1317081" y2="90.238609" gradientTransform="matrix(1.0238 0 0 1.0119 -1.1428571 -98.071429)" gradientUnits="userSpaceOnUse"/>
    <linearGradient xlink:href="#d" id="w" x1="48" x2="48" y1="90" y2="5.9877172" gradientUnits="userSpaceOnUse"/>
    <linearGradient xlink:href="#e" id="ab" x1="65.15625" x2="65.15625" y1="16.125" y2="69.687508" gradientTransform="translate(-8.7333273 -6.7176465) scale(1.16078)" gradientUnits="userSpaceOnUse"/>
    <linearGradient id="e">
      <stop offset="0" stop-color="#fff"/>
      <stop offset="1" stop-color="#fff" stop-opacity="0"/>
    </linearGradient>
    <linearGradient id="f">
      <stop offset="0" stop-color="#fff"/>
      <stop offset="1" stop-color="#fff" stop-opacity="0"/>
    </linearGradient>
    <linearGradient xlink:href="#f" id="aa" x1="142.47113" x2="142.47113" y1="16.125" y2="64.188072" gradientTransform="translate(-101.59608 -6.7176465) scale(1.16078)" gradientUnits="userSpaceOnUse"/>
    <linearGradient xlink:href="#g" id="C" x1="24" x2="24" y1="62" y2="75" gradientUnits="userSpaceOnUse"/>
    <linearGradient xlink:href="#h" id="B" x1="18" x2="30" y1="72" y2="72" gradientTransform="translate(-96 -48)" gradientUnits="userSpaceOnUse"/>
    <linearGradient xlink:href="#i" id="G" x1="18" x2="30" y1="72" y2="72" gradientTransform="translate(-96 -48)" gradientUnits="userSpaceOnUse"/>
    <linearGradient xlink:href="#g" id="H" x1="24" x2="24" y1="62" y2="75" gradientUnits="userSpaceOnUse"/>
    <linearGradient xlink:href="#j" id="I" x1="18" x2="32" y1="72" y2="72" gradientTransform="translate(-96 -48)" gradientUnits="userSpaceOnUse"/>
    <linearGradient xlink:href="#g" id="J" x1="24" x2="24" y1="62" y2="75" gradientUnits="userSpaceOnUse"/>
    <linearGradient xlink:href="#k" id="K" x1="18" x2="30" y1="72" y2="72" gradientTransform="translate(-96 -48)" gradientUnits="userSpaceOnUse"/>
    <linearGradient xlink:href="#g" id="L" x1="24" x2="24" y1="62" y2="75" gradientUnits="userSpaceOnUse"/>
    <linearGradient xlink:href="#l" id="M" x1="18" x2="30" y1="72" y2="72" gradientTransform="translate(-96 -48)" gradientUnits="userSpaceOnUse"/>
    <linearGradient xlink:href="#g" id="N" x1="24" x2="24" y1="62" y2="75" gradientUnits="userSpaceOnUse"/>
    <linearGradient xlink:href="#m" id="O" x1="18" x2="30" y1="72" y2="72" gradientTransform="translate(-96 -48)" gradientUnits="userSpaceOnUse"/>
    <linearGradient xlink:href="#g" id="P" x1="24" x2="24" y1="62" y2="75" gradientUnits="userSpaceOnUse"/>
    <linearGradient xlink:href="#n" id="Q" x1="18" x2="30" y1="72" y2="72" gradientTransform="translate(-96 -48)" gradientUnits="userSpaceOnUse"/>
    <linearGradient xlink:href="#g" id="R" x1="24" x2="24" y1="62" y2="75" gradientUnits="userSpaceOnUse"/>
    <linearGradient xlink:href="#h" id="S" x1="18" x2="30" y1="72" y2="72" gradientTransform="translate(-96 -48)" gradientUnits="userSpaceOnUse"/>
    <linearGradient xlink:href="#g" id="T" x1="24" x2="24" y1="62" y2="75" gradientUnits="userSpaceOnUse"/>
    <linearGradient xlink:href="#i" id="U" x1="18" x2="30" y1="72" y2="72" gradientTransform="translate(-96 -48)" gradientUnits="userSpaceOnUse"/>
    <linearGradient xlink:href="#g" id="V" x1="24" x2="24" y1="62" y2="75" gradientUnits="userSpaceOnUse"/>
    <linearGradient xlink:href="#o" id="W" x1="18" x2="30" y1="72" y2="72" gradientTransform="translate(-96 -48)" gradientUnits="userSpaceOnUse"/>
    <linearGradient xlink:href="#g" id="X" x1="24" x2="24" y1="62" y2="75" gradientUnits="userSpaceOnUse"/>
    <linearGradient xlink:href="#l" id="Y" x1="18" x2="30" y1="72" y2="72" gradientTransform="translate(-96 -48)" gradientUnits="userSpaceOnUse"/>
    <linearGradient xlink:href="#g" id="Z" x1="24" x2="24" y1="62" y2="75" gradientUnits="userSpaceOnUse"/>
    <linearGradient xlink:href="#p" id="z" x1="32" x2="32" y1="72" y2="84" gradientUnits="userSpaceOnUse"/>
    <radialGradient xlink:href="#a" id="y" cx="48" cy="90.171875" r="42" fx="48" fy="90.171875" gradientTransform="matrix(1.15731 0 0 .9959 -7.5510206 .19713193)" gradientUnits="userSpaceOnUse"/>
  </defs>
  <g transform="scale(1 -1)">
    <path fill="url(#q)" d="M12-95.03125C6.4889097-95.03125 1.96875-90.51109 1.96875-85v71C1.96875-8.4889098 6.4889098-3.96875 12-3.96875h72c5.51109 0 10.03125-4.5201597 10.03125-10.03125v-71c0-5.51109-4.52016-10.03125-10.03125-10.03125H12z" opacity=".07999998"/>
    <path fill="url(#r)" d="M12-94.03125c-4.971633 0-9.03125 4.059617-9.03125 9.03125v71c0 4.9716329 4.0596171 9.03125 9.03125 9.03125h72c4.971633 0 9.03125-4.059617 9.03125-9.03125v-71c0-4.971633-4.059617-9.03125-9.03125-9.03125H12z" opacity=".1"/>
    <path fill="url(#s)" d="M12-93c-4.4091333 0-8 3.590867-8 8v71c0 4.4091333 3.5908667 8 8 8h72c4.409133 0 8-3.5908667 8-8v-71c0-4.409133-3.590867-8-8-8H12z" opacity=".2"/>
    <rect width="86" height="85" x="5" y="-92" fill="url(#t)" opacity=".3" rx="7" ry="7"/>
    <rect width="84" height="84" x="6" y="-91" fill="url(#u)" opacity=".45" rx="6" ry="6"/>
  </g>
  <rect width="84" height="84" x="6" y="6" fill="url(#v)" rx="6" ry="6"/>
  <path fill="none" stroke="#000" stroke-width="2" d="M12 10c-1.202502 0-2 .797498-2 2v72c0 1.202502.797498 2 2 2h72c1.2025 0 2-.797498 2-2V12c0-1.202502-.7975-2-2-2H12z" opacity=".4"/>
  <path fill="url(#w)" d="M12 6c-3.324 0-6 2.676-6 6v72c0 3.324 2.676 6 6 6h72c3.324 0 6-2.676 6-6V12c0-3.324-2.676-6-6-6H12zm0 4h72c1.202502 0 2 .797498 2 2v72c0 1.202502-.797498 2-2 2H12c-1.202502 0-2-.797498-2-2V12c0-1.202502.797498-2 2-2z"/>
  <path fill="url(#x)" d="M12 6c-3.324 0-6 2.676-6 6v72c0 .334721.04135.6507.09375.96875.0487.295596.09704.596915.1875.875.00988.03038.020892.0636.03125.09375.098865.287771.2348802.547452.375.8125.1445918.273507.3156161.535615.5.78125.1843839.245635.3737765.473472.59375.6875.439947.428056.94291.814526 1.5 1.09375.278545.139612.5734731.246947.875.34375-.2562018-.100222-.4867109-.236272-.71875-.375-.00741-.0044-.023866.0045-.03125 0-.031933-.0193-.062293-.04251-.09375-.0625-.120395-.0767-.2310226-.163513-.34375-.25-.1061728-.0808-.2132809-.161112-.3125-.25-.1779299-.161433-.3474596-.345388-.5-.53125-.1075789-.130255-.2183939-.265285-.3125-.40625-.025089-.03838-.038446-.08587-.0625-.125-.064763-.103032-.1302275-.204517-.1875-.3125-.1010083-.194706-.2056748-.415701-.28125-.625-.00796-.02181-.023589-.04055-.03125-.0625-.0318251-.09195-.0358045-.186831-.0625-.28125-.0303323-.106618-.0703894-.203031-.09375-.3125C7.0521214 85.720988 7 85.364295 7 85V13c0-2.781848 2.2181517-5 5-5h72c2.781848 0 5 2.218152 5 5v72c0 .364295-.05212.720988-.125 1.0625-.04415.206893-.08838.397658-.15625.59375-.0077.02195-.0233.04069-.03125.0625-.06274.173739-.138383.367449-.21875.53125-.04158.0828-.07904.169954-.125.25-.0546.09721-.126774.18835-.1875.28125-.09411.140965-.204921.275995-.3125.40625-.143174.17445-.303141.346998-.46875.5-.01117.0102-.01998.02115-.03125.03125-.138386.125556-.285091.234436-.4375.34375-.102571.07315-.204318.153364-.3125.21875-.0074.0045-.02384-.0044-.03125 0-.232039.138728-.462548.274778-.71875.375.301527-.0968.596455-.204138.875-.34375.55709-.279224 1.060053-.665694 1.5-1.09375.219973-.214028.409366-.441865.59375-.6875s.355408-.507743.5-.78125c.14012-.265048.276135-.524729.375-.8125.01041-.03078.02133-.06274.03125-.09375.09046-.278085.1388-.579404.1875-.875C89.95865 84.6507 90 84.334721 90 84V12c0-3.324-2.676-6-6-6H12z" opacity=".5"/>
  <path fill="url(#y)" d="M12 90c-3.324 0-6-2.676-6-6V12c0-.334721.04135-.6507.09375-.96875.0487-.295596.09704-.596915.1875-.875.00988-.03038.020892-.0636.03125-.09375.098865-.287771.2348802-.547452.375-.8125.1445918-.273507.3156161-.535615.5-.78125.1843839-.245635.3737765-.473472.59375-.6875.439947-.428056.94291-.814526 1.5-1.09375.278545-.139612.5734731-.246947.875-.34375-.2562018.100222-.4867109.236272-.71875.375-.00741.0044-.023866-.0045-.03125 0-.031933.0193-.062293.04251-.09375.0625-.120395.0767-.2310226.163513-.34375.25-.1061728.0808-.2132809.161112-.3125.25-.1779299.161433-.3474596.345388-.5.53125-.1075789.130255-.2183939.265285-.3125.40625-.025089.03838-.038446.08587-.0625.125-.064763.103032-.1302275.204517-.1875.3125-.1010083.194706-.2056748.415701-.28125.625-.00796.02181-.023589.04055-.03125.0625-.0318251.09195-.0358045.186831-.0625.28125-.0303323.106618-.0703894.203031-.09375.3125C7.0521214 10.279012 7 10.635705 7 11v72c0 2.781848 2.2181517 5 5 5h72c2.781848 0 5-2.218152 5-5V11c0-.364295-.05212-.720988-.125-1.0625-.04415-.206893-.08838-.397658-.15625-.59375-.0077-.02195-.0233-.04069-.03125-.0625-.06274-.173739-.138383-.367449-.21875-.53125-.04158-.0828-.07904-.169954-.125-.25-.0546-.09721-.126774-.18835-.1875-.28125-.09411-.140965-.204921-.275995-.3125-.40625-.143174-.17445-.303141-.346998-.46875-.5-.01117-.0102-.01998-.02115-.03125-.03125-.138386-.125556-.285091-.234436-.4375-.34375-.102571-.07315-.204318-.153364-.3125-.21875-.0074-.0045-.02384.0044-.03125 0-.232039-.138728-.462548-.274778-.71875-.375.301527.0968.596455.204138.875.34375.55709.279224 1.060053.665694 1.5 1.09375.219973.214028.409366.441865.59375.6875s.355408.507743.5.78125c.14012.265048.276135.524729.375.8125.01041.03078.02133.06274.03125.09375.09046.278085.1388.579404.1875.875.0524.31805.09375.634029.09375.96875v72c0 3.324-2.676 6-6 6H12z" opacity=".4"/>
  <path fill="url(#z)" d="M14 72v8c0 1.108.892 2 2 2h64c1.108 0 2-.892 2-2v-8H14z" color="#000" opacity=".8" overflow="visible" style="marker:none"/>
  <use xlink:href="#A" color="#000" opacity=".25" overflow="visible" style="marker:none" transform="rotate(-90)"/>
  <rect width="12" height="12" x="-79" y="18" color="#000" opacity=".5" overflow="visible" rx="2" ry="2" style="marker:none" transform="rotate(-90)"/>
  <rect width="12" height="12" x="-78" y="18" fill="url(#B)" color="#000" overflow="visible" rx="2" ry="2" style="marker:none" transform="rotate(-90)"/>
  <path fill="url(#C)" d="M20 66c-1.108 0-2 .892-2 2v2.625c1.466595.841182 3.592841 1.375 6 1.375s4.533405-.533818 6-1.375V68c0-1.108-.892-2-2-2h-8z" color="#000" overflow="visible" style="marker:none"/>
  <use xlink:href="#D" display="block" opacity=".15" overflow="visible" style="marker:none"/>
  <use xlink:href="#E" display="block" opacity=".3" overflow="visible" style="marker:none"/>
  <use xlink:href="#F" display="block" overflow="visible" style="marker:none"/>
  <g transform="translate(16)">
    <use xlink:href="#A" color="#000" opacity=".25" overflow="visible" style="marker:none" transform="rotate(-90)"/>
    <rect width="12" height="12" x="-79" y="18" color="#000" opacity=".5" overflow="visible" rx="2" ry="2" style="marker:none" transform="rotate(-90)"/>
    <rect width="12" height="12" x="-78" y="18" fill="url(#G)" color="#000" overflow="visible" rx="2" ry="2" style="marker:none" transform="rotate(-90)"/>
    <path fill="url(#H)" d="M20 66c-1.108 0-2 .892-2 2v2.625c1.466595.841182 3.592841 1.375 6 1.375s4.533405-.533818 6-1.375V68c0-1.108-.892-2-2-2h-8z" color="#000" overflow="visible" style="marker:none"/>
    <use xlink:href="#D" display="block" opacity=".15" overflow="visible" style="marker:none"/>
    <use xlink:href="#E" display="block" opacity=".3" overflow="visible" style="marker:none"/>
    <use xlink:href="#F" display="block" overflow="visible" style="marker:none"/>
  </g>
  <g transform="translate(32)">
    <use xlink:href="#A" color="#000" opacity=".25" overflow="visible" style="marker:none" transform="rotate(-90)"/>
    <rect width="12" height="12" x="-79" y="18" color="#000" opacity=".5" overflow="visible" rx="2" ry="2" style="marker:none" transform="rotate(-90)"/>
    <rect width="12" height="12" x="-78" y="18" fill="url(#I)" color="#000" overflow="visible" rx="2" ry="2" style="marker:none" transform="rotate(-90)"/>
    <path fill="url(#J)" d="M20 66c-1.108 0-2 .892-2 2v2.625c1.466595.841182 3.592841 1.375 6 1.375s4.533405-.533818 6-1.375V68c0-1.108-.892-2-2-2h-8z" color="#000" overflow="visible" style="marker:none"/>
    <use xlink:href="#D" display="block" opacity=".15" overflow="visible" style="marker:none"/>
    <use xlink:href="#E" display="block" opacity=".3" overflow="visible" style="marker:none"/>
    <use xlink:href="#F" display="block" overflow="visible" style="marker:none"/>
  </g>
  <g transform="translate(48)">
    <use xlink:href="#A" color="#000" opacity=".25" overflow="visible" style="marker:none" transform="rotate(-90)"/>
    <rect width="12" height="12" x="-79" y="18" color="#000" opacity=".5" overflow="visible" rx="2" ry="2" style="marker:none" transform="rotate(-90)"/>
    <rect width="12" height="12" x="-78" y="18" fill="url(#K)" color="#000" overflow="visible" rx="2" ry="2" style="marker:none" transform="rotate(-90)"/>
    <path fill="url(#L)" d="M20 66c-1.108 0-2 .892-2 2v2.625c1.466595.841182 3.592841 1.375 6 1.375s4.533405-.533818 6-1.375V68c0-1.108-.892-2-2-2h-8z" color="#000" overflow="visible" style="marker:none"/>
    <use xlink:href="#D" display="block" opacity=".15" overflow="visible" style="marker:none"/>
    <use xlink:href="#E" display="block" opacity=".3" overflow="visible" style="marker:none"/>
    <use xlink:href="#F" display="block" overflow="visible" style="marker:none"/>
  </g>
  <g transform="translate(0 -48)">
    <use xlink:href="#A" color="#000" opacity=".25" overflow="visible" style="marker:none" transform="rotate(-90)"/>
    <rect width="12" height="12" x="-79" y="18" color="#000" opacity=".5" overflow="visible" rx="2" ry="2" style="marker:none" transform="rotate(-90)"/>
    <rect width="12" height="12" x="-78" y="18" fill="url(#M)" color="#000" overflow="visible" rx="2" ry="2" style="marker:none" transform="rotate(-90)"/>
    <path fill="url(#N)" d="M20 66c-1.108 0-2 .892-2 2v2.625c1.466595.841182 3.592841 1.375 6 1.375s4.533405-.533818 6-1.375V68c0-1.108-.892-2-2-2h-8z" color="#000" overflow="visible" style="marker:none"/>
    <use xlink:href="#D" display="block" opacity=".15" overflow="visible" style="marker:none"/>
    <use xlink:href="#E" display="block" opacity=".3" overflow="visible" style="marker:none"/>
    <path fill="#ececec" d="M27.999967 71.447668c0-.15742-.130588-.284886-.290698-.284886h-.563953c-.07499-.281476-.188277-.550428-.331396-.79651l.401163-.401163c.05661-.05661.08659-.124418.08721-.197675.000626-.07326-.02574-.147831-.0814-.203487l-.784884-.784884c-.111313-.111312-.287948-.107401-.401163.0058l-.401163.401163c-.246076-.143078-.515028-.256357-.796506-.331356v-.563953c-.000001-.160109-.127465-.290697-.284885-.290697h-1.104651c-.15742 0-.284883.130588-.284883.290697v.563953c-.281478.075-.550431.188278-.796512.331397l-.401163-.401164c-.113215-.113214-.28985-.117125-.401163-.0058l-.784883.784884c-.111313.111311-.107401.287947.0058.401162l.401137.401163c-.143119.246082-.2564.515034-.331396.79651h-.563953c-.16011 0-.290698.127466-.290698.284886v1.10465c0 .157419.130588.284884.290698.284884h.563953c.075.281477.188277.550428.331396.796511l-.401163.401163c-.113215.113216-.117127.289851-.0058.401163l.784883.784883c.111312.111312.287948.107401.401163-.0058l.401162-.401162c.246082.143119.515035.256398.796512.331395v.563953c0 .16011.127464.290698.284884.290698h1.104651c.157419 0 .284884-.130588.284884-.290698v-.563953c.281477-.07499.550429-.188276.796511-.331395l.401163.401163c.113214.113214.28985.117126.401162.0058l.784885-.784884c.111312-.111313.107401-.287948-.0058-.401163l-.401163-.401163c.143119-.246083.2564-.515034.331395-.796511h.563953c.160111 0 .290697-.127465.290697-.284883v-1.104652zm-2.790697.552324c0 .667536-.541768 1.209304-1.209303 1.209304-.667534 0-1.209302-.541768-1.209302-1.209304 0-.667533.541768-1.209302 1.209302-1.209302.667535 0 1.209303.541769 1.209303 1.209302z" display="block" overflow="visible" style="marker:none"/>
  </g>
  <g transform="translate(16 -48)">
    <use xlink:href="#A" color="#000" opacity=".25" overflow="visible" style="marker:none" transform="rotate(-90)"/>
    <rect width="12" height="12" x="-79" y="18" color="#000" opacity=".5" overflow="visible" rx="2" ry="2" style="marker:none" transform="rotate(-90)"/>
    <rect width="12" height="12" x="-78" y="18" fill="url(#O)" color="#000" overflow="visible" rx="2" ry="2" style="marker:none" transform="rotate(-90)"/>
    <path fill="url(#P)" d="M20 66c-1.108 0-2 .892-2 2v2.625c1.466595.841182 3.592841 1.375 6 1.375s4.533405-.533818 6-1.375V68c0-1.108-.892-2-2-2h-8z" color="#000" overflow="visible" style="marker:none"/>
    <use xlink:href="#D" display="block" opacity=".15" overflow="visible" style="marker:none"/>
    <use xlink:href="#E" display="block" opacity=".3" overflow="visible" style="marker:none"/>
    <use xlink:href="#F" display="block" overflow="visible" style="marker:none"/>
  </g>
  <g transform="translate(32 -48)">
    <use xlink:href="#A" color="#000" opacity=".25" overflow="visible" style="marker:none" transform="rotate(-90)"/>
    <rect width="12" height="12" x="-79" y="18" color="#000" opacity=".5" overflow="visible" rx="2" ry="2" style="marker:none" transform="rotate(-90)"/>
    <rect width="12" height="12" x="-78" y="18" fill="url(#Q)" color="#000" overflow="visible" rx="2" ry="2" style="marker:none" transform="rotate(-90)"/>
    <path fill="url(#R)" d="M20 66c-1.108 0-2 .892-2 2v2.625c1.466595.841182 3.592841 1.375 6 1.375s4.533405-.533818 6-1.375V68c0-1.108-.892-2-2-2h-8z" color="#000" overflow="visible" style="marker:none"/>
    <use xlink:href="#D" display="block" opacity=".15" overflow="visible" style="marker:none"/>
    <use xlink:href="#E" display="block" opacity=".3" overflow="visible" style="marker:none"/>
    <use xlink:href="#F" display="block" overflow="visible" style="marker:none"/>
  </g>
  <g transform="translate(48 -48)">
    <use xlink:href="#A" color="#000" opacity=".25" overflow="visible" style="marker:none" transform="rotate(-90)"/>
    <rect width="12" height="12" x="-79" y="18" color="#000" opacity=".5" overflow="visible" rx="2" ry="2" style="marker:none" transform="rotate(-90)"/>
    <rect width="12" height="12" x="-78" y="18" fill="url(#S)" color="#000" overflow="visible" rx="2" ry="2" style="marker:none" transform="rotate(-90)"/>
    <path fill="url(#T)" d="M20 66c-1.108 0-2 .892-2 2v2.625c1.466595.841182 3.592841 1.375 6 1.375s4.533405-.533818 6-1.375V68c0-1.108-.892-2-2-2h-8z" color="#000" overflow="visible" style="marker:none"/>
    <use xlink:href="#D" display="block" opacity=".15" overflow="visible" style="marker:none"/>
    <use xlink:href="#E" display="block" opacity=".3" overflow="visible" style="marker:none"/>
    <path fill="#a40" d="M27.999967 71.447668c0-.15742-.130588-.284886-.290698-.284886h-.563953c-.07499-.281476-.188277-.550428-.331396-.79651l.401163-.401163c.05661-.05661.08659-.124418.08721-.197675.000626-.07326-.02574-.147831-.0814-.203487l-.784884-.784884c-.111313-.111312-.287948-.107401-.401163.0058l-.401163.401163c-.246076-.143078-.515028-.256357-.796506-.331356v-.563953c-.000001-.160109-.127465-.290697-.284885-.290697h-1.104651c-.15742 0-.284883.130588-.284883.290697v.563953c-.281478.075-.550431.188278-.796512.331397l-.401163-.401164c-.113215-.113214-.28985-.117125-.401163-.0058l-.784883.784884c-.111313.111311-.107401.287947.0058.401162l.401137.401163c-.143119.246082-.2564.515034-.331396.79651h-.563953c-.16011 0-.290698.127466-.290698.284886v1.10465c0 .157419.130588.284884.290698.284884h.563953c.075.281477.188277.550428.331396.796511l-.401163.401163c-.113215.113216-.117127.289851-.0058.401163l.784883.784883c.111312.111312.287948.107401.401163-.0058l.401162-.401162c.246082.143119.515035.256398.796512.331395v.563953c0 .16011.127464.290698.284884.290698h1.104651c.157419 0 .284884-.130588.284884-.290698v-.563953c.281477-.07499.550429-.188276.796511-.331395l.401163.401163c.113214.113214.28985.117126.401162.0058l.784885-.784884c.111312-.111313.107401-.287948-.0058-.401163l-.401163-.401163c.143119-.246083.2564-.515034.331395-.796511h.563953c.160111 0 .290697-.127465.290697-.284883v-1.104652zm-2.790697.552324c0 .667536-.541768 1.209304-1.209303 1.209304-.667534 0-1.209302-.541768-1.209302-1.209304 0-.667533.541768-1.209302 1.209302-1.209302.667535 0 1.209303.541769 1.209303 1.209302z" display="block" overflow="visible" style="marker:none"/>
  </g>
  <g transform="translate(0 -32)">
    <use xlink:href="#A" color="#000" opacity=".25" overflow="visible" style="marker:none" transform="rotate(-90)"/>
    <rect width="12" height="12" x="-79" y="18" color="#000" opacity=".5" overflow="visible" rx="2" ry="2" style="marker:none" transform="rotate(-90)"/>
    <rect width="12" height="12" x="-78" y="18" fill="url(#U)" color="#000" overflow="visible" rx="2" ry="2" style="marker:none" transform="rotate(-90)"/>
    <path fill="url(#V)" d="M20 66c-1.108 0-2 .892-2 2v2.625c1.466595.841182 3.592841 1.375 6 1.375s4.533405-.533818 6-1.375V68c0-1.108-.892-2-2-2h-8z" color="#000" overflow="visible" style="marker:none"/>
    <use xlink:href="#D" display="block" opacity=".15" overflow="visible" style="marker:none"/>
    <use xlink:href="#E" display="block" opacity=".3" overflow="visible" style="marker:none"/>
    <use xlink:href="#F" display="block" overflow="visible" style="marker:none"/>
  </g>
  <g transform="translate(16 -32)">
    <use xlink:href="#A" color="#000" opacity=".25" overflow="visible" style="marker:none" transform="rotate(-90)"/>
    <rect width="12" height="12" x="-79" y="18" color="#000" opacity=".5" overflow="visible" rx="2" ry="2" style="marker:none" transform="rotate(-90)"/>
    <rect width="12" height="12" x="-78" y="18" fill="url(#W)" color="#000" overflow="visible" rx="2" ry="2" style="marker:none" transform="rotate(-90)"/>
    <path fill="url(#X)" d="M20 66c-1.108 0-2 .892-2 2v2.625c1.466595.841182 3.592841 1.375 6 1.375s4.533405-.533818 6-1.375V68c0-1.108-.892-2-2-2h-8z" color="#000" overflow="visible" style="marker:none"/>
    <use xlink:href="#D" display="block" opacity=".15" overflow="visible" style="marker:none"/>
    <use xlink:href="#E" display="block" opacity=".3" overflow="visible" style="marker:none"/>
    <path fill="#a0501c" d="M27.999967 71.447668c0-.15742-.130588-.284886-.290698-.284886h-.563953c-.07499-.281476-.188277-.550428-.331396-.79651l.401163-.401163c.05661-.05661.08659-.124418.08721-.197675.000626-.07326-.02574-.147831-.0814-.203487l-.784884-.784884c-.111313-.111312-.287948-.107401-.401163.0058l-.401163.401163c-.246076-.143078-.515028-.256357-.796506-.331356v-.563953c-.000001-.160109-.127465-.290697-.284885-.290697h-1.104651c-.15742 0-.284883.130588-.284883.290697v.563953c-.281478.075-.550431.188278-.796512.331397l-.401163-.401164c-.113215-.113214-.28985-.117125-.401163-.0058l-.784883.784884c-.111313.111311-.107401.287947.0058.401162l.401137.401163c-.143119.246082-.2564.515034-.331396.79651h-.563953c-.16011 0-.290698.127466-.290698.284886v1.10465c0 .157419.130588.284884.290698.284884h.563953c.075.281477.188277.550428.331396.796511l-.401163.401163c-.113215.113216-.117127.289851-.0058.401163l.784883.784883c.111312.111312.287948.107401.401163-.0058l.401162-.401162c.246082.143119.515035.256398.796512.331395v.563953c0 .16011.127464.290698.284884.290698h1.104651c.157419 0 .284884-.130588.284884-.290698v-.563953c.281477-.07499.550429-.188276.796511-.331395l.401163.401163c.113214.113214.28985.117126.401162.0058l.784885-.784884c.111312-.111313.107401-.287948-.0058-.401163l-.401163-.401163c.143119-.246083.2564-.515034.331395-.796511h.563953c.160111 0 .290697-.127465.290697-.284883v-1.104652zm-2.790697.552324c0 .667536-.541768 1.209304-1.209303 1.209304-.667534 0-1.209302-.541768-1.209302-1.209304 0-.667533.541768-1.209302 1.209302-1.209302.667535 0 1.209303.541769 1.209303 1.209302z" display="block" overflow="visible" style="marker:none"/>
  </g>
  <g transform="translate(32 -32)">
    <use xlink:href="#A" color="#000" opacity=".25" overflow="visible" style="marker:none" transform="rotate(-90)"/>
    <rect width="12" height="12" x="-79" y="18" color="#000" opacity=".5" overflow="visible" rx="2" ry="2" style="marker:none" transform="rotate(-90)"/>
    <rect width="12" height="12" x="-78" y="18" fill="url(#Y)" color="#000" overflow="visible" rx="2" ry="2" style="marker:none" transform="rotate(-90)"/>
    <path fill="url(#Z)" d="M20 66c-1.108 0-2 .892-2 2v2.625c1.466595.841182 3.592841 1.375 6 1.375s4.533405-.533818 6-1.375V68c0-1.108-.892-2-2-2h-8z" color="#000" overflow="visible" style="marker:none"/>
    <use xlink:href="#D" display="block" opacity=".15" overflow="visible" style="marker:none"/>
    <use xlink:href="#E" display="block" opacity=".3" overflow="visible" style="marker:none"/>
    <use xlink:href="#F" display="block" overflow="visible" style="marker:none"/>
  </g>
  <g fill-rule="evenodd">
    <path fill="url(#aa)" d="m46.5853 12 25.57353 74h10.809803c.625437 0 1.015687-.390252 1.015687-1.015686V13.015686C83.98432 12.39025 83.594071 12 82.968633 12H46.5853z" opacity=".6"/>
    <path fill="url(#ab)" d="m46.5853 12 25.57353 74h1.160784L47.746085 12H46.5853z" opacity=".4"/>
  </g>
</svg>