<?xml version="1.0" encoding="UTF-8" standalone="no"?>
<svg xmlns="http://www.w3.org/2000/svg" width="160" height="160">
  <radialGradient id="a" cx="40.527" cy="151.654" r="24.463" gradientUnits="userSpaceOnUse">
    <stop offset="0" stop-color="#cadfff"/>
    <stop offset="1" stop-color="#fff"/>
  </radialGradient>
  <radialGradient id="b" cx="6905.254" cy="5029.018" r="3479.268" gradientTransform="scale(.773723 1.292453)" gradientUnits="userSpaceOnUse">
    <stop offset="0" stop-color="#004188"/>
    <stop offset="1" stop-color="#4a6cb3"/>
  </radialGradient>
  <g transform="translate(-5.345502 2.419542)">
    <g fill-rule="evenodd">
      <rect width="40.03" height="40.03" x="7.533" y="117.552" fill-opacity=".22" rx="2.961"/>
      <rect width="40.03" height="40.03" x="5.361" y="115.693" fill="#0071bc" rx="2.961"/>
      <rect width="34.043" height="34.043" x="8.579" y="118.674" fill="url(#a)" rx="1.654"/>
    </g>
    <path fill="url(#b)" d="m2792 8162c7-9 314-338 682-732l669-715-49-8c-370-61-655-183-963-411-141-106-393-359-507-511-668-892-825-2101-407-3150 185-466 454-868 837-1251 306-306 574-513 986-761 244-146 618-332 875-434 33-13 73-33 88-44l28-20 34 40c19 22 34 45 34 50 0 6-62 61-137 122-158 130-425 381-568 533-608 648-1000 1352-1115 2005-27 152-36 425-20 562 45 368 192 675 446 929 179 179 373 311 629 426 203 92 538 202 555 182 4-5 31-479 60-1054 28-575 55-1062 59-1083 7-36 65 92 897 1974 490 1107 893 2019 896 2029 6 14-247 99-1755 595-2354 773-2269 746-2254 727z" transform="matrix(.00501238 -.00125319 -.00093966 -.00375839 9.373946 156.511753)"/>
  </g>
</svg>
