<?xml version="1.0" encoding="UTF-8" standalone="no"?>
<svg xmlns="http://www.w3.org/2000/svg" width="60" height="60">
  <linearGradient id="a" x2="60" y1=".313" y2="60.199" gradientUnits="userSpaceOnUse">
    <stop offset="0" stop-color="#313436" stop-opacity="0"/>
    <stop offset="1" stop-color="#8b9399" stop-opacity=".298"/>
  </linearGradient>
  <g fill-rule="evenodd">
    <path fill="#313436" d="m19.1875 7.59375c-3.684222.0783899-6.780086 1.6792143-9.125 3.84375-2.3449126 2.164536-4.0583041 4.870514-5.3125 7.5-.9791223 2.052779-1.4897475 3.857816-2 5.5625h-1.21875c-.83741239 0-1.53125.725094-1.53125 1.5625v6.5c.00000031.83737.69388871 1.53125 1.53125 1.53125h6.53125c.8373656.000002 1.5625-.69387 1.5625-1.53125v-6.5c-.0000001-.837409-.7250838-1.5625-1.5625-1.5625h-.03125c.3957306-1.157443.6646453-2.179024 1.25-3.40625 1.073363-2.250361 2.484116-4.425242 4.15625-5.96875s3.52362-2.481219 5.875-2.53125c1.548442.024196 2.458222.437938 3.40625 1.21875.948029.780811 1.780585 2.030737 2.53125 3.6875 1.501328 3.313524 2.45705 8.168925 3.40625 13.15625.949201 4.987326 1.928474 10.101934 4 14.28125 2.071527 4.179317 5.843913 7.546872 11.15625 7.46875.010512.000067.020737.000066.03125 0 3.522581-.080153 6.398227-1.725603 8.375-3.9375 1.976773-2.211895 3.209156-4.959127 4.03125-7.5625.92789-2.938398 1.3032-5.520227 1.5-7.46875h.6875c.837389.000002 1.5625-.725099 1.5625-1.5625v-6.5c.000002-.837401-.72512-1.53125-1.5625-1.53125h-6.5c-.837391.000001-1.53125.69385-1.53125 1.53125v6.5c.000002.837395.69387 1.5625 1.53125 1.5625h.8125c-.204262 1.667788-.599591 3.841354-1.28125 6-.688449 2.180161-1.6962 4.263588-2.96875 5.6875-1.27255 1.423913-2.660059 2.232985-4.78125 2.28125-3.420018.050292-4.997366-1.466784-6.59375-4.6875-1.596383-3.220714-2.586298-8.035004-3.53125-13-.944952-4.964998-1.840252-10.066323-3.75-14.28125-.954872-2.107463-2.183754-4.055584-3.9375-5.5-1.753744-1.4444162-4.064098-2.3037345-6.625-2.34375-.031535-.0005968-.062214-.0005968-.09375 0z"/>
    <path fill="url(#a)" d="m19.1875 7.59375c-3.684222.0783899-6.780086 1.6792143-9.125 3.84375-2.3449126 2.164536-4.0583041 4.870514-5.3125 7.5-.9791223 2.052779-1.4897475 3.857816-2 5.5625h-1.21875c-.83741239 0-1.53125.725094-1.53125 1.5625v6.5c.00000031.83737.69388871 1.53125 1.53125 1.53125h6.53125c.8373656.000002 1.5625-.69387 1.5625-1.53125v-6.5c-.0000001-.837409-.7250838-1.5625-1.5625-1.5625h-.03125c.3957306-1.157443.6646453-2.179024 1.25-3.40625 1.073363-2.250361 2.484116-4.425242 4.15625-5.96875s3.52362-2.481219 5.875-2.53125c1.548442.024196 2.458222.437938 3.40625 1.21875.948029.780811 1.780585 2.030737 2.53125 3.6875 1.501328 3.313524 2.45705 8.168925 3.40625 13.15625.949201 4.987326 1.928474 10.101934 4 14.28125 2.071527 4.179317 5.843913 7.546872 11.15625 7.46875.010512.000067.020737.000066.03125 0 3.522581-.080153 6.398227-1.725603 8.375-3.9375 1.976773-2.211895 3.209156-4.959127 4.03125-7.5625.92789-2.938398 1.3032-5.520227 1.5-7.46875h.6875c.837389.000002 1.5625-.725099 1.5625-1.5625v-6.5c.000002-.837401-.72512-1.53125-1.5625-1.53125h-6.5c-.837391.000001-1.53125.69385-1.53125 1.53125v6.5c.000002.837395.69387 1.5625 1.53125 1.5625h.8125c-.204262 1.667788-.599591 3.841354-1.28125 6-.688449 2.180161-1.6962 4.263588-2.96875 5.6875-1.27255 1.423913-2.660059 2.232985-4.78125 2.28125-3.420018.050292-4.997366-1.466784-6.59375-4.6875-1.596383-3.220714-2.586298-8.035004-3.53125-13-.944952-4.964998-1.840252-10.066323-3.75-14.28125-.954872-2.107463-2.183754-4.055584-3.9375-5.5-1.753744-1.4444162-4.064098-2.3037345-6.625-2.34375-.031535-.0005968-.062214-.0005968-.09375 0z"/>
  </g>
</svg>
