<?xml version="1.0" encoding="UTF-8" standalone="no"?>
<svg xmlns="http://www.w3.org/2000/svg" xmlns:xlink="http://www.w3.org/1999/xlink" width="60" height="60">
  <linearGradient id="a">
    <stop offset="0" stop-color="#fff" stop-opacity=".908"/>
    <stop offset="1" stop-color="#fff" stop-opacity="0"/>
  </linearGradient>
  <linearGradient id="g">
    <stop offset="0" stop-color="#fff"/>
    <stop offset="1" stop-color="#d5d4d4"/>
  </linearGradient>
  <linearGradient id="f">
    <stop offset="0" stop-color="#ff0d00"/>
    <stop offset=".746" stop-color="#ff3900"/>
    <stop offset="1" stop-color="#d05521"/>
  </linearGradient>
  <linearGradient id="c">
    <stop offset="0" stop-color="#7d7d7d"/>
    <stop offset="1"/>
  </linearGradient>
  <linearGradient id="e">
    <stop offset="0"/>
    <stop offset="1" stop-opacity="0"/>
  </linearGradient>
  <linearGradient id="d">
    <stop offset="0" stop-color="#ff8b00"/>
    <stop offset="1" stop-color="#4d0200"/>
  </linearGradient>
  <linearGradient id="b">
    <stop offset="0" stop-color="#fff"/>
    <stop offset="1" stop-color="#fff" stop-opacity="0"/>
  </linearGradient>
  <linearGradient id="h" x1="10.878" x2="39.857" y1="4.549" y2="36.874" gradientTransform="matrix(.934473 0 0 .94155 -3.27316 10.81419)" gradientUnits="userSpaceOnUse" xlink:href="#a"/>
  <radialGradient id="i" cx="48.488" cy="46.914" r="31.678" gradientTransform="matrix(.922906 0 0 .953351 -3.844255 9.876188)" gradientUnits="userSpaceOnUse" xlink:href="#a"/>
  <linearGradient id="G" x1="149.748" x2="144.137" y1="120.636" y2="216.482" gradientTransform="matrix(.251838 0 0 .135659 7.587247 -14.29214)" gradientUnits="userSpaceOnUse" xlink:href="#b"/>
  <linearGradient id="F" x1="42.081" x2="88.821" y1="215.05" y2="172.018" gradientTransform="matrix(.138296 0 0 .247035 7.587247 -14.29214)" gradientUnits="userSpaceOnUse" xlink:href="#b"/>
  <linearGradient id="E" x1="132.73" x2="84.004" y1="279.475" y2="210.463" gradientTransform="matrix(.148555 -.01034192 0 .203839 7.587243 -13.64974)" gradientUnits="userSpaceOnUse" xlink:href="#c"/>
  <linearGradient id="m" x1="136.557" x2="54.608" y1="213.436" y2="250.543" gradientTransform="matrix(.148555 -.01034192 0 .203839 7.587243 -13.64974)" gradientUnits="userSpaceOnUse" xlink:href="#b"/>
  <linearGradient id="D" x1="145.422" x2="198.285" y1="264.702" y2="218.749" gradientTransform="matrix(.148555 -.01034192 0 .203839 7.587243 -13.64974)" gradientUnits="userSpaceOnUse" xlink:href="#c"/>
  <linearGradient id="o" x1="159.182" x2="184.119" y1="219.685" y2="234.354" gradientTransform="matrix(.137376 -.0095637 0 .220427 7.587243 -13.64974)" gradientUnits="userSpaceOnUse" xlink:href="#b"/>
  <linearGradient id="C" x1="24.254" x2="189.539" y1="213.059" y2="213.059" gradientTransform="matrix(.251838 0 0 .135659 7.587247 -14.29214)" gradientUnits="userSpaceOnUse" xlink:href="#b"/>
  <radialGradient id="B" cx="86.514" cy="332.373" r="83.26" gradientTransform="matrix(.213776 -.01488243 0 .141649 7.587243 -13.64974)" gradientUnits="userSpaceOnUse" xlink:href="#c"/>
  <linearGradient id="k" x1="86.514" x2="73.286" y1="335.761" y2="247.073" gradientTransform="matrix(.213776 -.01488243 0 .141649 7.587243 -13.64974)" gradientUnits="userSpaceOnUse" xlink:href="#b"/>
  <linearGradient id="A" x1="203.795" x2="120.083" y1="203.681" y2="229.926" gradientTransform="matrix(.1902 0 0 .179621 7.587243 -14.29213)" gradientUnits="userSpaceOnUse" spreadMethod="reflect" xlink:href="#d"/>
  <linearGradient id="z" x1="119.803" x2="129.065" y1="179.833" y2="189.546" gradientTransform="matrix(.229385 -.01606838 .01314509 .148017 14.63618 -10.20351)" gradientUnits="userSpaceOnUse" spreadMethod="reflect" xlink:href="#d"/>
  <linearGradient id="y" x1="119.803" x2="129.065" y1="179.833" y2="189.546" gradientTransform="matrix(.229385 -.01606838 .01314509 .148017 10.60571 -12.79916)" gradientUnits="userSpaceOnUse" spreadMethod="reflect" xlink:href="#d"/>
  <linearGradient id="x" x1="119.803" x2="129.065" y1="179.833" y2="189.546" gradientTransform="matrix(.229385 -.01606838 .01314509 .148017 6.523484 -15.47198)" gradientUnits="userSpaceOnUse" spreadMethod="reflect" xlink:href="#d"/>
  <radialGradient id="w" cx="145.828" cy="265.9" r="24.113" gradientTransform="matrix(.214121 -.01490648 0 .141421 7.587247 -10.30339)" gradientUnits="userSpaceOnUse">
    <stop offset="0" stop-color="#fff" stop-opacity=".475"/>
    <stop offset=".5" stop-color="#fff" stop-opacity=".258"/>
    <stop offset="1" stop-color="#fff" stop-opacity=".108"/>
  </radialGradient>
  <linearGradient id="v" x1="163.743" x2="137.31" y1="301.157" y2="301.158" gradientTransform="matrix(.207236 -.0144272 0 .146119 7.587247 -10.30339)" gradientUnits="userSpaceOnUse" xlink:href="#e"/>
  <linearGradient id="u" x1="124.513" x2="99.415" y1="199.205" y2="224.954" gradientTransform="matrix(.207236 -.0144272 0 .146119 7.587247 -10.30339)" gradientUnits="userSpaceOnUse" xlink:href="#e"/>
  <linearGradient id="t" x1="138.685" x2="90.955" y1="221.05" y2="574.67" gradientTransform="matrix(.198922 -.01384834 0 .171745 7.587243 -14.29213)" gradientUnits="userSpaceOnUse" spreadMethod="reflect" xlink:href="#c"/>
  <linearGradient id="r" x1="77.83" x2="40.121" y1="43.692" y2="18.128" gradientTransform="matrix(.660667 -.04599357 0 .906535 10.91416 -.430682)" gradientUnits="userSpaceOnUse" xlink:href="#f"/>
  <linearGradient id="s" x1="188.097" x2="269.306" y1="173.354" y2="220.313" gradientTransform="matrix(.165487 -.01152071 0 .182982 7.587243 -13.64974)" gradientUnits="userSpaceOnUse" xlink:href="#b"/>
  <linearGradient id="p" x1="36.607" x2="28.654" y1="4.884" y2="47.245" gradientTransform="matrix(.966397 -.06727759 0 .619743 10.91416 -.430682)" gradientUnits="userSpaceOnUse" xlink:href="#f"/>
  <linearGradient id="q" x1="134.593" x2="126.826" y1="300.555" y2="189.893" gradientTransform="matrix(.217299 -.01512773 0 .139352 7.587243 -13.64974)" gradientUnits="userSpaceOnUse" xlink:href="#b"/>
  <linearGradient id="n" x1="145.422" x2="198.285" y1="264.702" y2="218.749" gradientTransform="matrix(.148555 -.01034192 0 .203839 7.587243 -13.64974)" gradientUnits="userSpaceOnUse" xlink:href="#g"/>
  <linearGradient id="l" x1="132.73" x2="84.004" y1="279.475" y2="210.463" gradientTransform="matrix(.148555 -.01034192 0 .203839 7.587243 -13.64974)" gradientUnits="userSpaceOnUse" xlink:href="#g"/>
  <radialGradient id="j" cx="86.514" cy="332.373" r="83.26" gradientTransform="matrix(.213776 -.01488243 0 .141649 7.587243 -13.64974)" gradientUnits="userSpaceOnUse" xlink:href="#g"/>
  <g transform="matrix(1.00338 0 0 .98934 .000306 .621087)">
    <path fill="#0028c6" fill-opacity=".181" d="m6.1800241 11.752191h36.2317389c1.915867 0 3.458245 2.010287 3.458245 4.507371v35.556844c0 2.497083-1.542378 4.507371-3.458245 4.507371h-36.2317389c-1.9158677 0-3.4582453-2.010288-3.4582453-4.507371v-35.556844c0-2.497084 1.5423776-4.507371 3.4582453-4.507371z" opacity=".794"/>
    <path fill="url(#h)" d="m6.75112 12.690196h36.231738c1.555263 23.799943-22.020329 10.467435-39.6899833 40.064215v-35.556844c0-2.497084 1.5423776-4.507371 3.4582453-4.507371z" opacity=".794"/>
    <path fill="url(#i)" d="m6.1800241 11.752191h36.2317389c1.915867 0 3.458245 2.010287 3.458245 4.507371v35.556844c0 2.497083-1.542378 4.507371-3.458245 4.507371h-36.2317389c-1.9158677 0-3.4582453-2.010288-3.4582453-4.507371v-35.556844c0-2.497084 1.5423776-4.507371 3.4582453-4.507371z" opacity=".972"/>
    <g fill="#343435" fill-rule="evenodd">
      <path d="m2.1039429 9.7820744c-.5787654-.0156863-1.13907701.2074154-1.55294658.6183446-.41386883.410927-.64594254.97458-.64320938 1.562207v6.905078c0 1.204286.96187735 2.180551 2.14841346 2.180551 1.186536 0 2.1484133-.976265 2.1484133-2.180551v-4.700299l1.6232457.024228c.7849375.05291 1.5351474-.335734 1.9534131-1.011957.418265-.676223.4370824-1.530892.0489961-2.225404-.3880856-.694511-1.1204414-1.1167812-1.9069242-1.0995126z"/>
      <path d="m31.871403 9.7814365c-1.186536-.0133806-2.159101.9520375-2.172284 2.1563225-.013184 1.204286.938006 2.191399 2.124542 2.20478l9.09495.121141c.787364.047374 1.536527-.34887 1.949322-1.031026.412795-.682157.422234-1.539524.024559-2.230872-.397676-.691346-1.137929-1.1044812-1.926139-1.0749753z"/>
      <path d="m45.573507 14.722417c-.570595.003867-1.116017.238956-1.51499.652997s-.618422.97271-.609552 1.551783v9.231c0 1.204286.961878 2.180551 2.148414 2.180551s2.148413-.976265 2.148413-2.180551v-9.231c.009058-.587514-.216898-1.153665-.62626-1.569152-.409362-.415485-.96717-.644821-1.546025-.635628z"/>
      <path d="m43.832534 26.692588c.885529.174319 1.302619-2.702723 1.236951-7.08797-.05381-3.533374 1.408468-2.107742 1.518713-4.021854.016991-.295015-.375058-.448413-.849229-.433615-.474172.014799-1.030466.197796-1.341964.575567-.178003.149127-.316276.362438-.410107.612386-.093829.249947-.143217.536531-.143444.832208-.000228.295676-.0091 7.160759-.01092 9.523278z"/>
      <path d="m44.85555 25.920267c-.008035.907183.571655 1.650768 1.294775 1.660849.723119.01008 1.315837-.717166 1.323871-1.624347l.072741-9.10801c.028446-.601989-.209482-1.174773-.619086-1.490381-.409605-.315606-.924415-.322823-1.339539-.018776-.415123.304048-.663192.870019-.645475 1.472654z" opacity=".794"/>
      <path d="m45.573507 46.899901c-.570595.003867-1.116017.238956-1.51499.652998-.398973.41404-.618422.972709-.609552 1.551782v4.797213h-1.670988c-1.186536 0-2.148413.976266-2.148413 2.180551 0 1.204286.961877 2.180551 2.148413 2.180551h3.819402c.570555.002534 1.118464-.226389 1.521912-.635873.403448-.409483.628997-.965588.626501-1.544678v-6.977764c.009058-.587514-.216898-1.153665-.62626-1.569152-.409362-.415486-.96717-.644821-1.546025-.635628z"/>
      <path d="m8.4272673 53.827824c-1.0790411-.000207-1.9536387.975948-1.9534694 2.180306s.8750419 2.180851 1.9540829 2.181058l8.2711732.020167c.716421.038631 1.393628-.365906 1.762093-1.052602.368464-.686698.36839-1.544116-.00019-2.231007-.368581-.686889-1.045856-1.091781-1.762271-1.053527z"/>
      <path d="m2.1056606 23.987353c-.5705949.003478-1.11601759.214913-1.51499078.587296-.3989724.372382-.61842146.87484-.60955129 1.395651v8.302223c0 1.083117.9618773 1.961155 2.14841337 1.961155 1.1865361 0 2.1484134-.878038 2.1484134-1.961155v-8.302223c.0090581-.528402-.2168977-1.03759-.6262596-1.411272-.4093627-.373682-.9671703-.579943-1.5460251-.571675z"/>
      <path d="m2.1056606 40.878909c-.5705949.003594-1.11601759.222126-1.51499078.607006-.3989724.38488-.61842146.904202-.60955129 1.44249v8.580856c0 1.119468.9618773 2.026975 2.14841337 2.026975 1.1865361 0 2.1484134-.907507 2.1484134-2.026975v-8.580856c.0090581-.546135-.2168977-1.072412-.6262596-1.458635-.4093627-.386223-.9671703-.599407-1.5460251-.590861z"/>
      <path d="m45.443435 29.434493c-.570595.003594-1.116018.222126-1.514991.607006-.398972.38488-.618421.904202-.609551 1.44249v8.580856c0 1.119468.961877 2.026975 2.148413 2.026975s2.148414-.907507 2.148414-2.026975v-8.580856c.009058-.546135-.216898-1.072412-.626259-1.458636-.409364-.386222-.967171-.599406-1.546026-.59086z"/>
      <path d="m25.311357 53.827824c-1.079041-.000207-1.953639.975948-1.953469 2.180306s.875042 2.180851 1.954083 2.181058l8.271173.020167c.716421.038631 1.393628-.365906 1.762093-1.052602.368464-.686698.36839-1.544116-.00019-2.231007-.368581-.686889-1.045856-1.091781-1.762271-1.053527z"/>
      <path d="m14.055297 9.7458205c-1.079041-.0002073-1.953639.9759485-1.953469 2.1803055.00017 1.204358.875042 2.180851 1.954083 2.181058l8.271173.020168c.716421.03863 1.393628-.365907 1.762093-1.052602.368464-.686699.36839-1.544117-.00019-2.231008-.368581-.686889-1.045856-1.0917804-1.762271-1.0535267z"/>
    </g>
  </g>
  <g stroke-linecap="round" stroke-linejoin="round">
    <g fill="none" stroke="#000" stroke-opacity=".036" transform="matrix(.696199 0 0 .708248 21.27651 37.84947)">
      <path stroke-width="8.475" d="m31.44357-46.786978 20.013287 11.782427.02267 13.751831-41.949656 27.6790862-19.862161-11.716782-.094076-13.9904392z"/>
      <path stroke-width="7.516" d="m31.44357-46.786978 20.013287 11.782427.02267 13.751831-41.949656 27.6790862-19.862161-11.716782-.094076-13.9904392z"/>
      <path stroke-width="6.663" d="m31.44357-46.786978 20.013287 11.782427.02267 13.751831-41.949656 27.6790862-19.862161-11.716782-.094076-13.9904392z"/>
      <path stroke-width="5.704" d="m31.44357-46.786978 20.013287 11.782427.02267 13.751831-41.949656 27.6790862-19.862161-11.716782-.094076-13.9904392z"/>
      <path stroke-width="4.744" d="m31.44357-46.786978 20.013287 11.782427.02267 13.751831-41.949656 27.6790862-19.862161-11.716782-.094076-13.9904392z"/>
      <path stroke-width="3.998" d="m31.44357-46.786978 20.013287 11.782427.02267 13.751831-41.949656 27.6790862-19.862161-11.716782-.094076-13.9904392z"/>
      <path stroke-width="3.145" d="m31.44357-46.786978 20.013287 11.782427.02267 13.751831-41.949656 27.6790862-19.862161-11.716782-.094076-13.9904392z"/>
      <path stroke-width="2.292" d="m31.44357-46.786978 20.013287 11.782427.02267 13.751831-41.949656 27.6790862-19.862161-11.716782-.094076-13.9904392z"/>
    </g>
    <path fill="url(#j)" fill-rule="evenodd" stroke="url(#k)" stroke-width=".649" d="m23.52725 16.908295 14.147776 8.758816-9.727625 6.742527-14.202724-8.70429z"/>
    <path fill="url(#l)" fill-rule="evenodd" stroke="url(#m)" stroke-width=".672" d="m13.651327 33.802483 14.147775 8.621857.148299-10.014702-14.202724-8.70429z"/>
    <path fill="url(#n)" fill-rule="evenodd" stroke="url(#o)" stroke-width=".626" d="m37.600441 35.833072-9.801339 6.591268.148299-10.014702 9.746389-6.673701z"/>
    <path fill="url(#p)" fill-rule="evenodd" stroke="url(#q)" stroke-width=".626" d="m23.52725 16.908295 14.147776 8.758816 19.850762-13.440695-14.202722-8.7042938z"/>
    <path fill="url(#r)" fill-rule="evenodd" stroke="url(#s)" stroke-width=".603" d="m37.600441 35.833072 19.875809-13.553178.148299-10.014702-19.930759 13.470745z"/>
    <path fill="none" stroke="url(#t)" stroke-width=".881" d="m43.352337 3.495598 14.188175 8.626975.016072 10.068953-29.739697 20.26635-14.081036-8.57891-.066694-10.24366z"/>
  </g>
  <path fill="url(#u)" fill-rule="evenodd" d="m23.734387 16.986475 13.714415 8.696385-1.357343.931088-13.573431-8.88506z"/>
  <path fill="url(#u)" fill-rule="evenodd" d="m37.313783 35.763019.135019-10.080159-1.357343.931088.005963 9.891486z"/>
  <path fill="url(#v)" fill-rule="evenodd" d="m37.313783 35.763019.135019-10.080159-1.357343.931088.005963 9.891486z"/>
  <path fill="url(#w)" fill-rule="evenodd" d="m57.115009 12.516946-18.535087 12.155661c-.570185.275531-1.33789.199591-1.710557.004842l-12.866529-7.725028 12.314847 8.181738c.183894.327152.02213.952281-.337152 1.180293l-8.259354 6.110935 8.596506-5.618039c.522501-.375058.649967.190439.678671.580202l.423743 8.322418.585-9.020095c.020118-.511004.385892-1.091723.801049-1.310655z"/>
  <path fill="url(#x)" fill-rule="evenodd" d="m28.382239 16.190139 2.346124 1.508033 14.950211-10.5642722-2.381197-1.4698648z" opacity=".451"/>
  <path fill="url(#y)" fill-rule="evenodd" d="m34.354677 17.707185 2.346123 1.508032 13.059987-9.4084875-2.381196-1.469864z" opacity=".451"/>
  <path fill="url(#z)" fill-rule="evenodd" d="m40.470919 18.807103 2.346123 1.508033 10.974225-7.912766-2.381196-1.469864z" opacity=".451"/>
  <path fill="none" stroke="url(#A)" stroke-linecap="round" stroke-width=".936" d="m23.685829 16.889742 19.644793-13.3870954 14.25677 8.6735714-.129904 10.091849-19.782462 13.464862"/>
  <path fill="url(#B)" fill-rule="evenodd" stroke="url(#k)" stroke-linecap="round" stroke-linejoin="round" stroke-width=".649" d="m23.52725 16.908295 14.147776 8.758816-9.727625 6.742527-14.202724-8.70429z" opacity=".091"/>
  <path fill="url(#C)" fill-rule="evenodd" d="m43.358168 3.5906688c4.004854 2.5188101 7.957463 4.8468831 11.962318 7.3656912-3.528925 3.01278-10.137799 2.481444-16.518154 2.715517-6.315176.234075-18.202851 5.924686-21.372892 12.150424-1.244714-.786561-2.349757-1.405011-3.594471-2.191573 9.870208-6.687567 19.65299-13.352492 29.523199-20.0400592z"/>
  <path fill="url(#D)" fill-rule="evenodd" stroke="url(#o)" stroke-linecap="round" stroke-linejoin="round" stroke-width=".626" d="m37.600441 35.833072-9.801339 6.591268.148299-10.014702 9.746389-6.673701z" opacity=".099"/>
  <path fill="url(#E)" fill-rule="evenodd" stroke="url(#m)" stroke-linecap="round" stroke-linejoin="round" stroke-width=".672" d="m13.651327 33.802483 14.147775 8.621857.148299-10.014702-14.202724-8.70429z" opacity=".15"/>
  <path fill="url(#F)" fill-rule="evenodd" d="m13.844539 33.722286c4.004855 2.518811 3.642648 2.454104 8.625203 5.51681.447059-3.514006-5.194443-8.152669-5.040302-13.416795-1.244714-.786561-2.346892-1.414729-3.591606-2.201286-.155343 3.113818.020227 8.643061.006705 10.101271z"/>
  <path fill="url(#G)" fill-rule="evenodd" d="m43.3711 3.6038926c4.004855 2.51881 7.944531 4.8336593 11.949386 7.3524674-3.528925 3.01278-10.137799 2.481444-16.518154 2.715517-6.315176.234075-18.202851 5.924686-21.372892 12.150424-1.244714-.786561-2.033167-1.573117-3.277882-2.359674 9.870208-6.687567 19.349334-13.171168 29.219542-19.8587344z"/>
</svg>
