<?xml version="1.0" encoding="UTF-8" standalone="no"?>
<!DOCTYPE svg PUBLIC '-//W3C//DTD SVG 1.1//EN' 'http://www.w3.org/Graphics/SVG/1.1/DTD/svg11.dtd'>
<svg height="128" width="128" xmlns="http://www.w3.org/2000/svg" xmlns:xlink="http://www.w3.org/1999/xlink">
 <linearGradient id="a" gradientUnits="userSpaceOnUse">
  <stop offset="0" stop-color="#fff"/>
  <stop offset="1" stop-color="#fff" stop-opacity="0"/>
 </linearGradient>
 <linearGradient id="b" gradientUnits="userSpaceOnUse" x1="72" x2="72" y2="116.4">
  <stop offset="0" stop-color="#eeecec"/>
  <stop offset=".4" stop-color="#f4f4f4"/>
  <stop offset="1" stop-color="#f6f5f5"/>
 </linearGradient>
 <filter id="c">
  <feGaussianBlur stdDeviation=".52"/>
 </filter>
 <radialGradient id="d" cx="64" cy="64" fx="63.79" fy="47.27" gradientTransform="matrix(1.6842 -.0843 .06886 1.3759 -48.2 -18.66)" r="47.5" xlink:href="#a"/>
 <clipPath id="e">
  <path d="m17 8v112h57.5c1.68 0 3.91-.565 7-3.6 8.87-8.72 20.2-19.8 27.499-27.176 2.44-2.46 3-4.47 3.001-6.724v-74.5z"/>
 </clipPath>
 <filter id="f" height="2.03" width="1.96" x="-.48" y="-.51">
  <feGaussianBlur stdDeviation="10.141"/>
 </filter>
 <filter id="g">
  <feGaussianBlur stdDeviation="1.005"/>
 </filter>
 <filter id="h">
  <feGaussianBlur stdDeviation=".278"/>
 </filter>
 <radialGradient id="i" cx="52" cy="-9" gradientUnits="userSpaceOnUse" r="111">
  <stop offset=".15" stop-color="#c20600"/>
  <stop offset=".575" stop-color="#860202"/>
  <stop offset="1" stop-color="#760101"/>
 </radialGradient>
 <linearGradient id="j" gradientUnits="userSpaceOnUse">
  <stop offset="0" stop-color="#cd0000"/>
  <stop offset="1" stop-color="#cd0000" stop-opacity="0"/>
 </linearGradient>
 <linearGradient id="k" gradientTransform="matrix(-1 0 0 -1 99.5 96)" x1="64" x2="64" xlink:href="#i" y1="41.5" y2="39.5"/>
 <radialGradient id="l" cx="65.09" cy="40.77" gradientTransform="matrix(1.3171 0 0 .67066 -20.34 25.43)" r="19.39" xlink:href="#j"/>
 <linearGradient id="m" gradientTransform="matrix(1.3718 0 0 -1.9871 -25.54 246.8)" gradientUnits="userSpaceOnUse" x1="92.83" x2="82.16" y1="63.86" y2="108.15">
  <stop offset="0" stop-color="#004fcd"/>
  <stop offset="1" stop-color="#29bfff" stop-opacity=".49"/>
 </linearGradient>
 <radialGradient id="n" cx="64" cy="64" fx="63.79" fy="47.27" gradientTransform="matrix(1.0926 -.05469 .04468 .89261 7.5 -90.83)" r="47.5" xlink:href="#a"/>
 <mask id="o">
  <path d="m50.444-73.209c-.221 0-.324.152-.324.324v70.694a.98.98 0 0 0 .973.973l35.682.02c.034 0 .647-.005 1.095 0 6.552-2.592 16.487-14.567 22.29-20.407.958-1.075.723-.747.943-1.874v-49.407c0-.209-.106-.324-.324-.324z" fill="url(#n)" opacity=".85"/>
 </mask>
 <radialGradient id="p" cx="73.97" cy="-42.72" gradientTransform="matrix(1.9051 0 0 1.9929 -66.95 42.6)" gradientUnits="userSpaceOnUse" r="29.65">
  <stop offset="0"/>
  <stop offset="1" stop-opacity="0"/>
 </radialGradient>
 <radialGradient id="q" cx="48.85" cy="76.9" gradientTransform="matrix(1.3168 .03007 .09027 -3.9526 -36.33 355.42)" r="19.39" xlink:href="#j"/>
 <filter id="r">
  <feGaussianBlur stdDeviation="1.002"/>
 </filter>
 <radialGradient id="s" cx="65.09" cy="40.77" gradientTransform="matrix(1.3171 0 0 .67066 -70.34 42.43)" r="19.39" xlink:href="#j"/>
 <linearGradient id="t" gradientTransform="matrix(-1 0 0 -1 58 132.45)" x1="64" x2="64" xlink:href="#i" y1="41.5" y2="39.5"/>
 <radialGradient id="u" cx="48.85" cy="76.9" gradientTransform="matrix(-1.3168 -.03007 -.09027 3.9526 65.35 -208.48)" r="19.39" xlink:href="#j"/>
 <mask id="v">
  <path d="m-4.476 112.5v3h-3v-3h2.5zm-.5.5h-2v2h2z" fill="#0075cd" transform="matrix(0 1 -1 0 71.75 91.15)"/>
  <path d="m-5.7 69.5v40" fill="none" filter="url(#h)" stroke="url(#s)" stroke-width=".1" transform="matrix(0 -1 -1 0 71.75 79.17)"/>
  <path d="m-5 92.953v-2.5h-2.5v2.5z" fill="url(#t)" transform="matrix(0 1 -1 0 71.75 91.15)"/>
  <path d="m-4.476 66.5v3h-3v-3h2.5zm-.5.5h-2v2h2z" fill="#0075cd" transform="matrix(0 1 -1 0 71.75 91.15)"/>
  <path d="m-5.976 69.5v43h-.5v-43z" fill="url(#u)" transform="matrix(0 1 -1 0 71.75 91.15)"/>
 </mask>
 <filter id="w">
  <feGaussianBlur stdDeviation=".051"/>
 </filter>
 <filter id="x">
  <feGaussianBlur stdDeviation=".096"/>
 </filter>
 <filter id="y">
  <feGaussianBlur stdDeviation=".049"/>
 </filter>
 <filter id="z">
  <feGaussianBlur stdDeviation=".381"/>
 </filter>
 <linearGradient id="A" gradientUnits="userSpaceOnUse">
  <stop offset=".051" stop-color="#eeeeec"/>
  <stop offset="1" stop-color="#888a85"/>
 </linearGradient>
 <linearGradient id="B" x1="66.53" x2="67.86" xlink:href="#A" y1="114.65" y2="121.31"/>
 <linearGradient id="C" gradientTransform="matrix(-1 0 0 1 134 0)" x1="72.53" x2="73.86" xlink:href="#A" y1="110.65" y2="117.31"/>
 <linearGradient id="D" x1="66.53" x2="67.86" xlink:href="#A" y1="106.65" y2="113.31"/>
 <linearGradient id="E" gradientTransform="matrix(-1 0 0 1 134 0)" x1="72.53" x2="73.86" xlink:href="#A" y1="102.65" y2="109.31"/>
 <linearGradient id="F" x1="66.53" x2="67.86" xlink:href="#A" y1="98.65" y2="105.31"/>
 <linearGradient id="G" gradientTransform="matrix(-1 0 0 1 134 0)" x1="72.53" x2="73.86" xlink:href="#A" y1="94.65" y2="101.31"/>
 <linearGradient id="H" gradientUnits="userSpaceOnUse" x1="67" x2="67" y1="58" y2="119">
  <stop offset=".051" stop-color="#bdbec4"/>
  <stop offset="1" stop-color="#fff"/>
 </linearGradient>
 <linearGradient id="I" gradientUnits="userSpaceOnUse" x1="61" x2="61" y1="58" y2="119">
  <stop offset=".051" stop-color="#eeeeec"/>
  <stop offset="1" stop-color="#f3f3f2"/>
 </linearGradient>
 <filter id="J" height="1.71" width="1.12" x="-.06" y="-.36">
  <feGaussianBlur stdDeviation=".228"/>
 </filter>
 <filter id="K">
  <feGaussianBlur stdDeviation=".43"/>
 </filter>
 <clipPath id="L">
  <path d="m112 82.503c0 4.46-2.8 6.41-5.28 8.094-5.11 3.46-14.9 3.32-20.72 3.406-.081 5.78.166 15.5-3.299 20.613-1.68 2.48-5.29 5.39-8.201 5.387 2.32 0 4.74-1.34 7.584-4.085 9.14-8.85 17.4-16.1 25.673-25.298 1.92-2.12 4.24-3.64 4.243-8.118z"/>
 </clipPath>
 <filter id="M" height="1.24" width="1.23" x="-.11" y="-.12">
  <feGaussianBlur stdDeviation="2.386"/>
 </filter>
 <clipPath id="N">
  <path d="m17 8v112h57.5c1.68 0 3.91-.565 7-3.6 8.87-8.72 20.2-19.8 27.499-27.176 2.44-2.46 3-4.47 3.001-6.724v-74.5z"/>
 </clipPath>
 <linearGradient id="O" gradientUnits="userSpaceOnUse" x1="86.86" x2="95.4" y1="93.74" y2="102.29">
  <stop offset="0" stop-color="#fcfcfc"/>
  <stop offset=".523" stop-color="#f8f8f8"/>
  <stop offset=".723" stop-color="#f0efef"/>
  <stop offset=".89" stop-color="#e3e1e1"/>
  <stop offset="1" stop-color="#cecbcb"/>
 </linearGradient>
 <linearGradient id="P" gradientTransform="matrix(-.76826 0 0 .76826 117.65 -22.96)" x1="72.53" x2="73.86" xlink:href="#A" y1="86.65" y2="93.31"/>
 <linearGradient id="Q" x1="61.57" x2="61.57" xlink:href="#I" y1="21.6" y2="68.46"/>
 <linearGradient id="R" x1="65.82" x2="66.84" xlink:href="#A" y1="46.68" y2="51.8"/>
 <linearGradient id="S" x1="66.18" x2="66.18" xlink:href="#H" y1="21.6" y2="68.46"/>
 <linearGradient id="T" gradientTransform="matrix(-.76826 0 0 .76826 117.65 -22.96)" x1="72.53" x2="73.86" xlink:href="#G" y1="94.65" y2="101.31"/>
 <linearGradient id="U" x1="65.82" x2="66.84" xlink:href="#F" y1="52.83" y2="57.95"/>
 <linearGradient id="V" gradientTransform="matrix(-.76826 0 0 .76826 117.65 -22.96)" x1="72.53" x2="73.86" xlink:href="#E" y1="102.65" y2="109.31"/>
 <linearGradient id="W" x1="65.82" x2="66.84" xlink:href="#D" y1="58.97" y2="64.09"/>
 <linearGradient id="X" gradientTransform="matrix(-.76826 0 0 .76826 117.65 -22.96)" x1="72.53" x2="73.86" xlink:href="#C" y1="110.65" y2="117.31"/>
 <linearGradient id="Y" x1="65.82" x2="66.84" xlink:href="#B" y1="65.12" y2="70.24"/>
 <linearGradient id="Z" gradientTransform="matrix(-.76826 0 0 .76826 117.65 -3.96)" x1="72.53" x2="73.86" xlink:href="#G" y1="94.65" y2="101.31"/>
 <linearGradient id="aa" x1="61.57" x2="61.57" xlink:href="#I" y1="40.6" y2="87.46"/>
 <linearGradient id="ab" x1="65.82" x2="66.84" xlink:href="#F" y1="71.83" y2="76.95"/>
 <linearGradient id="ac" x1="66.18" x2="66.18" xlink:href="#H" y1="40.6" y2="87.46"/>
 <linearGradient id="ad" gradientTransform="matrix(-.76826 0 0 .76826 117.65 -3.96)" x1="72.53" x2="73.86" xlink:href="#E" y1="102.65" y2="109.31"/>
 <linearGradient id="ae" x1="65.82" x2="66.84" xlink:href="#D" y1="77.97" y2="83.09"/>
 <linearGradient id="af" gradientTransform="matrix(-.76826 0 0 .76826 117.65 -3.96)" x1="72.53" x2="73.86" xlink:href="#C" y1="110.65" y2="117.31"/>
 <linearGradient id="ag" x1="65.82" x2="66.84" xlink:href="#B" y1="84.12" y2="89.24"/>
 <linearGradient id="ah" gradientTransform="matrix(-.76826 0 0 .76826 117.65 2.04)" x1="72.53" x2="73.86" xlink:href="#C" y1="110.65" y2="117.31"/>
 <linearGradient id="ai" x1="61.57" x2="61.57" xlink:href="#I" y1="46.6" y2="93.46"/>
 <linearGradient id="aj" x1="65.82" x2="66.84" xlink:href="#B" y1="90.12" y2="95.24"/>
 <linearGradient id="ak" x1="66.18" x2="66.18" xlink:href="#H" y1="46.6" y2="93.46"/>
 <linearGradient id="al" gradientTransform="matrix(-.76826 0 0 .76826 117.65 8.04)" x1="72.53" x2="73.86" xlink:href="#C" y1="110.65" y2="117.31"/>
 <linearGradient id="am" x1="61.57" x2="61.57" xlink:href="#I" y1="52.6" y2="99.46"/>
 <linearGradient id="an" gradientTransform="matrix(-.68683 .34426 .34426 .68683 93.45 -41.69)" x1="81.43" x2="82.76" xlink:href="#A" y1="64.79" y2="71.45"/>
 <linearGradient id="ao" x1="60.32" x2="60.32" xlink:href="#A" y1="21.6" y2="68.46"/>
 <linearGradient id="ap" x1="56.88" x2="57.65" xlink:href="#A" y1="24.6" y2="31.51"/>
 <linearGradient id="aq" x1="57.2" x2="57.2" xlink:href="#A" y1="21.6" y2="68.46"/>
 <linearGradient id="ar" gradientTransform="matrix(-.45804 .61676 .61676 .45804 61.15 -49.72)" x1="83.06" x2="84.4" xlink:href="#A" y1="44.91" y2="51.57"/>
 <linearGradient id="as" x1="52.04" x2="52.04" xlink:href="#A" y1="21.6" y2="68.46"/>
 <linearGradient id="at" gradientTransform="matrix(-.32597 .69566 .69566 .32597 46.56 -50.87)" x1="83.39" x2="84.72" xlink:href="#A" y1="36.47" y2="43.13"/>
 <linearGradient id="au" x1="46.23" x2="46.23" xlink:href="#A" y1="21.6" y2="68.46"/>
 <linearGradient id="av" gradientTransform="matrix(-.19637 .74276 .74276 .19637 34.33 -50.55)" x1="84.01" x2="85.34" xlink:href="#A" y1="28.52" y2="35.18"/>
 <linearGradient id="aw" x1="40.67" x2="40.67" xlink:href="#A" y1="21.6" y2="68.46"/>
 <linearGradient id="ax" gradientUnits="userSpaceOnUse" x1="61.06" x2="67.27" y1="28.98" y2="56.92">
  <stop offset=".051" stop-color="#515151"/>
  <stop offset="1" stop-color="#343633"/>
 </linearGradient>
 <linearGradient id="ay" gradientUnits="userSpaceOnUse" x1="58.42" x2="67.64" y1="29.2" y2="40.72">
  <stop offset="0" stop-color="#fff"/>
  <stop offset="1" stop-color="#373836"/>
 </linearGradient>
 <linearGradient id="az" gradientUnits="userSpaceOnUse" x1="62.38" x2="66.22" y1="30.53" y2="41.28">
  <stop offset="0" stop-color="#fff"/>
  <stop offset=".133" stop-color="#fafafa"/>
  <stop offset=".288" stop-color="#ecedec"/>
  <stop offset=".453" stop-color="#d5d6d5"/>
  <stop offset=".625" stop-color="#b5b6b4"/>
  <stop offset=".803" stop-color="#8c8d8a"/>
  <stop offset=".984" stop-color="#5a5c58"/>
  <stop offset="1" stop-color="#555753"/>
 </linearGradient>
 <linearGradient id="aA" gradientUnits="userSpaceOnUse" x1="63.53" x2="64.29" y1="33.96" y2="37.8">
  <stop offset="0" stop-color="#a9ada4"/>
  <stop offset="1" stop-color="#3f403d"/>
 </linearGradient>
 <linearGradient id="aB" gradientUnits="userSpaceOnUse" x1="61.82" x2="67.2" y1="40.88" y2="54.71">
  <stop offset=".006" stop-color="#fff"/>
  <stop offset=".135" stop-color="#f0f0f0"/>
  <stop offset=".384" stop-color="#cacac9"/>
  <stop offset=".723" stop-color="#8c8d8b"/>
  <stop offset="1" stop-color="#555753"/>
 </linearGradient>
 <linearGradient id="aC" gradientUnits="userSpaceOnUse" x1="62.12" x2="66.77" y1="36.6" y2="59.87">
  <stop offset="0" stop-color="#eeeeec"/>
  <stop offset="1" stop-color="#babdb6"/>
 </linearGradient>
 <linearGradient id="aD" gradientUnits="userSpaceOnUse" x1="62.34" x2="65.42" y1="35.43" y2="35.43">
  <stop offset=".051" stop-color="#fff"/>
  <stop offset=".933" stop-color="#d3d7cf"/>
  <stop offset="1" stop-color="#888a85"/>
 </linearGradient>
 <linearGradient id="aE" gradientUnits="userSpaceOnUse" x1="63.19" x2="64.73" y1="32.34" y2="39.25">
  <stop offset=".051" stop-color="#fff"/>
  <stop offset="1" stop-color="#d3d7cf"/>
 </linearGradient>
 <radialGradient id="aF" cx="90.75" cy="110.25" r="24.5" xlink:href="#a"/>
 <clipPath id="aG">
  <path d="m18 8.5c-.34 0-.5.235-.5.5v108.969c0 .822.679 1.5 1.5 1.5l55 .031c.053 0 .998-.008 1.688 0 10.099-3.995 25.413-22.453 34.359-31.455 1.477-1.657 1.114-1.151 1.454-2.889v-76.156c0-.323-.163-.5-.5-.5z"/>
 </clipPath>
 <clipPath id="aH">
  <path d="m-107.62 49.267c-.554-.002-1.08.017-1.563.031-2.57.078-4.06.375-4.063.375v-18.406c30.4 1.3 62.8 1.38 93.969 2.483v15.923c-.174-.017-29.5-2.92-49.063 16.656-14.8-14.8-31-17-39.281-17.063z"/>
 </clipPath>
 <filter id="aI">
  <feGaussianBlur stdDeviation="2.027"/>
 </filter>
 <path d="m17 8.5v112h58.188c2.12 0 4.53-1.77 7-4.25.712-.714 1.44-1.39 2.156-2.094.416-.407.832-.814 1.25-1.219 7.77-7.41 15-14 22.219-22 .421-.421.812-.811 1.156-1.188 1.46-1.5 2.76-2.84 2.994-5.863l.037-.731v-74.656z" filter="url(#g)" opacity=".26"/>
 <path d="m17 8v112.2h57.746c4.17 0 7.73-4.86 20.854-17.1 7.49-6.98 10.4-10.9 13.15-13.6 1.74-1.74 3.25-3.04 3.25-7.2v-74.3z" fill-opacity=".7" filter="url(#c)"/>
 <path d="m17 8v112h57.5c1.68 0 3.91-.565 7-3.6 8.87-8.72 20.2-19.8 27.499-27.176 2.44-2.46 3-4.47 3.001-6.724v-74.5z" fill="#fff"/>
 <path d="m18 8.5c-.34 0-.5.235-.5.5v108.969c0 .822.679 1.5 1.5 1.5h54.188c.053 0 .81.023 1.5.031 1.778-.04 3.132-.754 4.356-1.593 1.052-.291 21.15-20.12 30.271-29.309 1.362-1.373 2.186-3.948 2.186-4.896v-74.702c0-.323-.163-.5-.5-.5z" fill="url(#b)"/>
 <path d="m-57.81 69.31h54.01v31.47h-54.01z" filter="url(#w)" mask="url(#v)" opacity=".95" stroke="#000" stroke-linejoin="round" stroke-width=".5" transform="matrix(.81769 .57566 -.57566 .81769 131.52 -1.94)"/>
 <g filter="url(#r)" mask="url(#o)" opacity=".62" transform="matrix(1.5414 0 0 1.5414 -59.76 121.35)">
  <path d="m83.952-33.81c-.573-.329-1.17-.531-1.765-.571-1.96-.132-4.14.535-5.625 1.615-1.08.786-2.19 2.1-2.5 3.645-.103.507-.679.993-.969 1.201s-.67.42-1.094.58c-.663.256-1.6.337-2.625.207-2.22-.352-4.04-1.78-5.188-3.52-1.3-2.28-1.49-4.94-1-7.289.557-2.58 2.18-5.24 4.438-7.621 2-2.15 4.57-4 7.469-5.633s6.1-3.05 9.313-4.432c9.18-3.75 19.3-8.45 25.156-15.448.726-.89 1.35-1.76 1.938-2.651v-3.81c-1.13 1.62-2.46 3.28-4.094 4.846-1.76 1.7-3.84 3.27-6.188 4.639-2.58 1.53-5.52 2.81-8.75 3.935-3.23 1.12-6.75 2.11-10.344 3.231-3.46 1.03-7.05 2.2-10.563 3.769s-6.94 3.55-10.031 6.047c-1.74 1.42-3.3 3.02-4.625 4.804s-2.4 3.73-3.188 5.798c-.858 2.25-1.27 4.58-1.219 6.917s.541 4.69 1.469 6.875c1.11 2.56 2.84 4.74 4.938 6.461s4.56 2.97 7.156 3.728c2.46.679 4.93.822 7.226.579m6.714-2.093c1.37-.738 2.47-1.51 3.404-2.379 1.48-1.39 2.34-2.72 2.875-3.728s.762-1.71.813-1.947c.139-.653.172-1.37.125-2.112a8.26 8.26 0 0 0 -.381-1.987" fill="none" stroke="url(#p)" stroke-width=".3"/>
  <path d="m91.75-67.375-37.314 18.284" fill="none" stroke="#000" stroke-width=".1"/>
  <path d="m91.5-69.5v3h3v-3h-2.5zm.5.5h2v2h-2zm-40.5 19.5v3h3v-3h-2.5zm.5.5h2v2h-2z"/>
  <path d="m91.75-67.375-37.314 18.284" fill="none" filter="url(#h)" stroke="#000" stroke-width=".2"/>
  <path d="m71-59.5v2.5h2.5v-2.5z"/>
  <path d="m77.368-34.608v1.946h1.946v-1.946zm.324.324h1.298v1.298h-1.298zm-20.436 12.651v1.946h1.946v-1.946zm.324.324h1.298v1.298h-1.298zm28.546-7.461v1.946h1.946v-1.946zm.324.324h1.298v1.298h-1.298z" opacity=".4"/>
 </g>
 <path d="m18 8.5c-.34 0-.5.235-.5.5v108.969c0 .822.679 1.5 1.5 1.5l55 .031c.053 0 .998-.008 1.688 0 10.099-3.995 25.413-22.453 34.359-31.455 1.477-1.657 1.114-1.151 1.454-2.889v-76.156c0-.323-.163-.5-.5-.5z" fill="url(#d)" opacity=".85"/>
 <path clip-path="url(#aG)" d="m69.952 29.413a26.81 26.81 0 0 1 6.779 2.533c1.88 1.01 3.65 2.23 5.223 3.684 1.73 1.63 3.22 3.52 4.33 5.62.496.933 1 1.9 1.227 2.947.223 1.05.256 2.13.188 3.196-.107 1.58-.5 3.16-1.232 4.574-.684 1.32-1.65 2.5-2.843 3.387-1.04.775-2.26 1.36-3.568 1.446-3 .2-6.07-.673-8.496-2.445-1.84-1.34-3.33-3.28-3.781-5.523-.14-.733-.786-1.28-1.416-1.747a6.863 6.863 0 0 0 -1.619-.859c-1.22-.472-2.58-.472-3.896-.307-1.42.108-2.79.684-3.992 1.475a13.02 13.02 0 0 0 -3.727 3.762c-.953 1.45-1.49 3.15-1.724 4.872a17.42 17.42 0 0 0 .23 5.997c.933 4.34 3.57 8.16 6.63 11.396 3.19 3.43 7.1 6.13 11.179 8.44 4.48 2.54 9.22 4.61 13.953 6.649 5.08 2.14 10.2 4.24 15.142 6.619-1.01 2.06-2.03 4.12-3.039 6.174 1.01-2.06 2.02-4.12 3.032-6.172-4.97-2.38-10.1-4.46-15.149-6.588-4.74-2.03-9.48-4.1-13.969-6.63-4.09-2.3-8-5-11.209-8.436-3.07-3.24-5.72-7.06-6.671-11.431a17.516 17.516 0 0 1 -.241-6.035c.236-1.74.773-3.45 1.735-4.924a13.11 13.11 0 0 1 3.757-3.805c1.21-.803 2.6-1.39 4.051-1.503 1.32-.171 2.71-.171 3.961.31.585.22 1.14.51 1.654.875.645.458 1.31 1.04 1.478 1.836.444 2.19 1.92 4.1 3.729 5.422 2.4 1.74 5.43 2.6 8.388 2.4 1.26-.085 2.45-.656 3.471-1.416 1.17-.873 2.11-2.03 2.784-3.328.717-1.39 1.1-2.94 1.204-4.5.065-1.05.031-2.12-.189-3.141-.217-1.02-.717-1.96-1.212-2.893-1.1-2.08-2.58-3.95-4.296-5.558-1.56-1.43-3.32-2.64-5.182-3.642a26.304 26.304 0 0 0 -8.506-2.833c-4.06-.634-8.25-.42-12.214.671-3.88 1.14-7.56 3-10.694 5.562-3.16 2.59-5.76 5.89-7.38 9.644a27.923 27.923 0 0 0 -2.201 10.271c-.076 3.52.562 7.05 1.815 10.338 1.18 3.09 2.79 6.02 4.763 8.677 1.99 2.68 4.34 5.08 6.917 7.194 4.56 3.68 9.67 6.67 15.02 9.066 5.12 2.29 10.4 4.06 15.826 5.658 5.17 1.62 10.4 3.07 15.508 4.854-5.12-1.77-10.3-3.22-15.516-4.825-5.38-1.59-10.7-3.35-15.843-5.631-5.36-2.39-10.5-5.37-15.054-9.049-2.59-2.11-4.95-4.52-6.948-7.199a36.41 36.41 0 0 1 -4.795-8.697c-1.27-3.3-1.91-6.85-1.844-10.388.07-3.54.815-7.07 2.195-10.335 1.63-3.78 4.23-7.11 7.414-9.727 3.15-2.59 6.85-4.47 10.757-5.62 4.44-1.23 9.17-1.37 13.687-.453.141.029.281.059.421.09z" fill-rule="evenodd" opacity=".29" transform="matrix(.91496 0 0 1 2.99 -.1)"/>
 <g mask="url(#o)" opacity=".28" transform="matrix(1.5414 0 0 1.5414 -59.76 121.35)">
  <path d="m83.97-33.8c-.578-.335-1.18-.541-1.782-.581-1.96-.132-4.14.535-5.625 1.615-1.08.786-2.19 2.1-2.5 3.645-.103.507-.679.993-.969 1.201s-.67.42-1.094.58c-.663.256-1.6.337-2.625.207-2.22-.352-4.04-1.78-5.188-3.52-1.3-2.28-1.49-4.94-1-7.289.557-2.58 2.18-5.24 4.438-7.621 2-2.15 4.57-4 7.469-5.633s6.1-3.05 9.313-4.432c9.18-3.75 19.3-8.45 25.156-15.448.726-.89 1.35-1.76 1.938-2.651v-3.81c-1.13 1.62-2.46 3.28-4.094 4.846-1.76 1.7-3.84 3.27-6.188 4.639-2.58 1.53-5.52 2.81-8.75 3.935-3.23 1.12-6.75 2.11-10.344 3.231-3.46 1.03-7.05 2.2-10.563 3.769s-6.94 3.55-10.031 6.047c-1.74 1.42-3.3 3.02-4.625 4.804s-2.4 3.73-3.188 5.798c-.858 2.25-1.27 4.58-1.219 6.917s.541 4.69 1.469 6.875c1.11 2.56 2.84 4.74 4.938 6.461s4.56 2.97 7.156 3.728c2.46.679 4.93.822 7.224.579m6.716-2.093c1.37-.738 2.47-1.51 3.404-2.379 1.48-1.39 2.34-2.72 2.875-3.728s.762-1.71.813-1.947c.139-.653.172-1.37.125-2.112a8.21 8.21 0 0 0 -.367-1.944" fill="none" stroke="url(#p)" stroke-width=".13"/>
  <path d="m91.75-67.375-37.314 18.284" fill="none" stroke="#000" stroke-width=".1"/>
  <path d="m91.5-69.5v3h3v-3h-2.5zm.5.5h2v2h-2zm-40.5 19.5v3h3v-3h-2.5zm.5.5h2v2h-2z"/>
  <path d="m91.75-67.375-37.314 18.284" fill="none" filter="url(#h)" stroke="#000" stroke-width=".2"/>
  <path d="m71-59.5v2.5h2.5v-2.5z"/>
  <path d="m77.368-34.608v1.946h1.946v-1.946zm.324.324h1.298v1.298h-1.298zm-20.436 12.651v1.946h1.946v-1.946zm.324.324h1.298v1.298h-1.298zm28.546-7.461v1.946h1.946v-1.946zm.324.324h1.298v1.298h-1.298z" opacity=".4"/>
 </g>
 <path clip-path="url(#e)" d="m114.4 82.503c0 4.46-5 6.61-7.48 8.294-5.11 3.46-13.7 4.52-19.52 4.606-.081 5.78-1.03 14.3-4.499 19.413-1.68 2.48-5.79 8.69-8.701 8.687-2.09 1.53 3.49 8.21 6.735 5.32 9.5-8.46 35.1-30 43.351-39.263 2.04-2.29-4.9-9.84-9.886-7.057z" filter="url(#f)" opacity=".28"/>
 <path d="m90.334 101.19c-4.43-1.68-9.26-3.16-14.19-4.844-4.75-1.54-9.67-3.3-14.49-5.651s-9.51-5.33-13.761-9.066c-2.38-2.13-4.52-4.53-6.345-7.203s-3.29-5.6-4.373-8.694c-1.18-3.37-1.74-6.86-1.672-10.37s.742-7.03 2.015-10.308c1.52-3.84 3.89-7.1 6.773-9.687s6.26-4.45 9.817-5.589c4.31-1.3 8.65-1.29 12.475-.435 2.49.563 4.68 1.5 6.559 2.608s3.47 2.37 4.759 3.664c2.03 2.09 3.21 4.08 3.944 5.589s1.04 2.56 1.115 2.919c.191.979.236 2.05.172 3.167-.096 1.56-.463 3.16-1.115 4.533s-1.56 2.52-2.572 3.353-2.12 1.35-3.215 1.428c-2.69.198-5.68-.802-7.717-2.422-1.48-1.18-3-3.15-3.43-5.465-.141-.76-.931-1.49-1.329-1.801s-.919-.63-1.5-.869c-.909-.383-2.2-.506-3.601-.311-1.15.097-2.42.577-3.687 1.49s-2.52 2.26-3.43 3.788c-.824 1.37-1.35 3.03-1.586 4.906s-.189 3.97.214 6.023c.765 3.87 3 7.86 6.088 11.426 2.75 3.22 6.28 5.99 10.246 8.445s8.38 4.58 12.775 6.644c4.64 2.13 9.38 4.25 13.847 6.582z" fill="url(#m)" fill-rule="evenodd"/>
 <path d="m33.5 34.5v-3.5h3.5v3.5h-3zm.5-.5h2.5v-2.5h-2.5z" fill="#0075cd"/>
 <path d="m44.3 52.5v40" fill="none" filter="url(#h)" stroke="url(#l)" stroke-width=".1" transform="matrix(1 0 0 -1 -9 129.94)"/>
 <path d="m33.5 81v-3.5h3.5v3.5h-3zm.5-.5h2.5v-2.5h-2.5z" fill="#0075cd"/>
 <path d="m35 77.438v-43h.5v43z" fill="url(#q)"/>
 <path clip-path="url(#aH)" d="m-107.62 49.267c-.554-.002-1.08.017-1.563.031-2.57.078-4.06.375-4.063.375v68.594a1.5 1.5 0 0 0 1.469 1.188l55 .031c.053 0 .998-.008 1.688 0 10.1-4 25.4-22.5 34.344-31.469 1.48-1.66 1.13-1.14 1.469-2.875v-35.469c-.174-.017-29.5-2.92-49.063 16.656-14.8-14.8-31-17-39.281-17.063z" fill="#2e4855" filter="url(#aI)" opacity=".75" transform="translate(130.7)"/>
 <path d="m36.5 56.5v-2.5h-2.5v2.5z" fill="url(#k)"/>
 <path d="m23.132 49.267c-.554-.002-1.08.017-1.563.031-2.57.078-4.06.375-4.063.375v68.594a1.5 1.5 0 0 0 1.469 1.188l55 .031c.053 0 .998-.008 1.688 0 10.1-4 25.4-22.5 34.344-31.469 1.48-1.66 1.13-1.14 1.469-2.875v-35.469c-.174-.017-29.5-2.92-49.063 16.656-14.8-14.8-31-17-39.281-17.063z" fill="#95defd" opacity=".4"/>
 <path clip-path="url(#N)" d="m114.4 82.503c0 4.46-5 6.61-7.48 8.294-5.11 3.46-13.7 4.52-19.52 4.606-.081 5.78-1.03 14.3-4.499 19.413-1.68 2.48-5.79 8.69-8.701 8.687-2.09 1.53 3.49 8.21 6.735 5.32 9.5-8.46 35.1-30 43.351-39.263 2.04-2.29-4.9-9.84-9.886-7.057z" filter="url(#f)" opacity=".28" transform="translate(-.02 -.01)"/>
 <path d="m22.632 49.267c-.364.006-.735.021-1.063.031-2.567.078-4.063.375-4.063.375v5.094l62.406 62.406c1.913-1.258 3.932-2.833 6-4.625l-63.281-63.281zm83.844.25a75.3 75.3 0 0 0 -8.75.594l13.75 13.781v-10.625l-3.75-3.75a57.807 57.807 0 0 0 -1.25 0zm-71.875 1.125 56.813 56.813c1.766-1.728 3.517-3.535 5.25-5.344l-43.219-43.219c-6.643-4.515-13.188-6.954-18.844-8.25zm54.188 1.156a65.608 65.608 0 0 0 -8 2.625l30.688 30.656v-10.594zm-15.156 6.063a53.326 53.326 0 0 0 -6.375 4.219l34.563 34.563c1.814-1.946 3.553-3.744 5.156-5.438zm-56.125 7.531v10.563l43.5 43.531h10.625zm0 21.188v10.625l22.281 22.25 10.625.031zm0 21.219v10.469c.017.08.065.144.094.219l.844.844c.013.005.018.026.031.031.16.058.321.094.5.094h10.188l-11.656-11.656z" opacity=".1"/>
 <path d="m22.632 49.267c-.364.006-.735.021-1.063.031-2.567.078-4.363.375-4.363.375v4.794l62.706 62.706c1.913-1.258 3.932-2.833 6-4.625zm83.844.25a75.3 75.3 0 0 0 -8.75.594l14.05 14.081v-10.625l-4.05-4.05a57.807 57.807 0 0 0 -1.25 0zm-71.875 1.125 56.813 56.813c1.766-1.728 3.517-3.535 5.25-5.344l-43.219-43.219c-6.643-4.515-13.188-6.954-18.844-8.25zm54.188 1.156a65.608 65.608 0 0 0 -8 2.625l30.57 30.539.417-.649v-9.528zm-15.156 6.063a53.326 53.326 0 0 0 -6.375 4.219l34.563 34.563c1.814-1.946 3.553-3.744 5.156-5.438zm-56.425 7.231v10.563l44.1 44.131h10.625zm0 21.188v10.625l22.881 22.85 10.625.031zm0 21.219v10.469c.017.08.365.444.394.519l.844.844c.013.005.018.026.031.031.16.058.621.394.8.394h10.188z" fill="#152c4d" opacity=".11"/>
 <path clip-path="url(#N)" d="m113.9 82.503c0 4.46-4.5 6.61-6.98 8.294-5.11 3.46-13.7 4.52-19.52 4.606-.081 5.78-.234 14.3-3.699 19.413-1.68 2.48-5.79 7.99-8.701 7.987-2.09 1.53 3.49 11.2 6.735 8.32 9.5-8.46 46-30.2 54.218-39.442 2.04-2.29-17.1-12-22.053-9.178z" filter="url(#M)" opacity=".4" transform="translate(-.02 -.01)"/>
 <path d="m23.125 49.319c-.554-.002-1.08.017-1.563.031-2.57.078-4.06.375-4.063.375v.188s1.5-.297 4.063-.375c.481-.015 1.01-.033 1.563-.031 8.31.032 24.5 2.29 39.281 17.063 19.6-19.6 49.1-16.7 49.094-16.656v-.188s-29.5-2.98-49.094 16.656c-14.8-14.8-31-17-39.281-17.063z" fill="#fff"/>
 <path d="m23.132 49.217c-.554-.002-1.08.017-1.563.031-2.57.078-4.06.375-4.063.375v.6s1.5-.297 4.063-.375c7.7-.235 25.1 1.17 40.844 16.931 19.6-19.6 49.1-16.7 49.081-16.656v-.5s-29.4-2.98-49.081 16.656c-14.8-14.8-31-17-39.281-17.063z" fill="#fff" opacity=".5"/>
 <path d="m33.5 34.5v-3.5h3.5v3.5h-3zm.5-.5h2.5v-2.5h-2.5z" fill="#0075cd" opacity=".44"/>
 <path d="m44.3 52.5v40" fill="none" filter="url(#h)" opacity=".44" stroke="url(#l)" stroke-width=".1" transform="matrix(1 0 0 -1 -9 129.94)"/>
 <path d="m64.977 65.01a.732.732 0 0 0 .015-.079.717.717 0 0 0 .011-.081c.003-.027.006-.054.007-.081a2.355 2.355 0 0 0 -.007.081 1.053 1.053 0 0 1 -.011.081z" fill="#828282"/>
 <path d="m61.465 64.641-.041-.083a.348.348 0 0 0 -.312-.193h-1.741a.348.348 0 0 0 -.348.348v1.393c0 .193.156.348.348.348h3.482a.347.347 0 0 0 .348-.348v-.697c0-.576-.469-1.045-1.045-1.045a1.03 1.03 0 0 0 -.692.276z" fill-opacity=".66"/>
 <path d="m61.57 43.877.768 1.537a1.537 1.537 0 1 1 3.074 0v1.537h-7.683v-3.073z" fill="url(#P)" transform="matrix(.45318 0 0 .45318 33.21 44.48)"/>
 <path d="m63.107 45.414a.768.768 0 0 1 -.769.768h2.305v-.768a.769.769 0 0 0 -1.536 0zm-4.61-.768v1.537h3.841a.77.77 0 0 1 -.687-.425l-.556-1.112z" fill="url(#Q)" transform="matrix(.45318 0 0 .45318 33.21 44.48)"/>
 <path d="m63.201 65.758a.35.35 0 0 0 -.312.193l-.041.083a1.03 1.03 0 0 0 -.692-.276c-.576 0-1.045.469-1.045 1.045v.697c0 .193.156.348.348.348h3.482a.347.347 0 0 0 .348-.348v-1.393a.347.347 0 0 0 -.348-.348h-1.741z" fill-opacity=".66"/>
 <path d="m66.18 46.95-.768 1.537a1.537 1.537 0 1 0 -3.074 0v1.537h7.683v-3.073z" fill="url(#R)" transform="matrix(.45318 0 0 .45318 33.21 44.48)"/>
 <path d="m66.654 47.719-.556 1.112a.767.767 0 0 1 -.686.425h3.841v-1.537h-2.598zm-3.548.768v.768h2.304a.769.769 0 0 1 -.768-.768.769.769 0 0 0 -1.536 0z" fill="url(#S)" transform="matrix(.45318 0 0 .45318 33.21 44.48)"/>
 <path d="m61.465 67.426-.041-.083a.348.348 0 0 0 -.312-.193h-1.741a.348.348 0 0 0 -.348.348v1.393c0 .193.156.348.348.348h3.482a.347.347 0 0 0 .348-.348v-.697c0-.576-.469-1.045-1.045-1.045a1.03 1.03 0 0 0 -.692.276z" fill-opacity=".66"/>
 <path d="m61.57 50.023.768 1.537a1.537 1.537 0 1 1 3.074 0v1.537h-7.683v-3.073z" fill="url(#T)" transform="matrix(.45318 0 0 .45318 33.21 44.48)"/>
 <path d="m63.107 51.56a.768.768 0 0 1 -.769.768h2.305v-.768a.769.769 0 0 0 -1.536 0zm-4.61-.768v1.537h3.841a.77.77 0 0 1 -.687-.425l-.556-1.112z" fill="url(#Q)" transform="matrix(.45318 0 0 .45318 33.21 44.48)"/>
 <path d="m63.201 68.544a.35.35 0 0 0 -.312.193l-.041.083a1.03 1.03 0 0 0 -.692-.276c-.576 0-1.045.469-1.045 1.045v.697c0 .193.156.348.348.348h3.482a.347.347 0 0 0 .348-.348v-1.393a.347.347 0 0 0 -.348-.348h-1.741z" fill-opacity=".66"/>
 <path d="m66.18 53.096-.768 1.537a1.537 1.537 0 1 0 -3.074 0v1.537h7.683v-3.073z" fill="url(#U)" transform="matrix(.45318 0 0 .45318 33.21 44.48)"/>
 <path d="m66.654 53.865-.556 1.112a.768.768 0 0 1 -.687.425h3.841v-1.537zm-3.548.768v.768h2.304a.769.769 0 0 1 -.768-.768.769.769 0 0 0 -1.536 0z" fill="url(#S)" transform="matrix(.45318 0 0 .45318 33.21 44.48)"/>
 <path d="m61.465 70.212-.041-.083a.348.348 0 0 0 -.312-.193h-1.741a.348.348 0 0 0 -.348.348v1.393c0 .193.156.348.348.348h3.482a.347.347 0 0 0 .348-.348v-.697c0-.576-.469-1.045-1.045-1.045a1.03 1.03 0 0 0 -.692.276z" fill-opacity=".66"/>
 <path d="m61.57 56.169.768 1.537a1.537 1.537 0 1 1 3.074 0v1.537h-7.683v-3.073z" fill="url(#V)" transform="matrix(.45318 0 0 .45318 33.21 44.48)"/>
 <path d="m63.107 57.706a.768.768 0 0 1 -.769.768h2.305v-.768a.769.769 0 0 0 -1.536 0zm-4.61-.768v1.537h3.841a.77.77 0 0 1 -.687-.425l-.556-1.112z" fill="url(#Q)" transform="matrix(.45318 0 0 .45318 33.21 44.48)"/>
 <path d="m63.201 71.329a.35.35 0 0 0 -.312.193l-.041.083a1.03 1.03 0 0 0 -.692-.276c-.576 0-1.045.469-1.045 1.045v.697c0 .193.156.348.348.348h3.482a.347.347 0 0 0 .348-.348v-1.393a.347.347 0 0 0 -.348-.348h-1.741z" fill-opacity=".66"/>
 <path d="m66.18 59.243-.768 1.537a1.537 1.537 0 1 0 -3.074 0v1.537h7.683v-3.073z" fill="url(#W)" transform="matrix(.45318 0 0 .45318 33.21 44.48)"/>
 <path d="m66.654 60.011-.556 1.112a.768.768 0 0 1 -.687.425h3.841v-1.537zm-3.548.768v.768h2.304a.769.769 0 0 1 -.768-.768.769.769 0 0 0 -1.536 0z" fill="url(#S)" transform="matrix(.45318 0 0 .45318 33.21 44.48)"/>
 <path d="m61.465 72.997-.041-.083a.348.348 0 0 0 -.312-.193h-1.741a.348.348 0 0 0 -.348.348v1.393c0 .193.156.348.348.348h3.482a.347.347 0 0 0 .348-.348v-.697c0-.576-.469-1.045-1.045-1.045a1.03 1.03 0 0 0 -.692.276z" fill-opacity=".66"/>
 <path d="m61.57 62.316.768 1.537a1.537 1.537 0 1 1 3.074 0v1.537h-7.683v-3.073z" fill="url(#X)" transform="matrix(.45318 0 0 .45318 33.21 44.48)"/>
 <path d="m63.107 63.852a.768.768 0 0 1 -.769.768h2.305v-.768a.769.769 0 0 0 -1.536 0zm-4.61-.768v1.537h3.841a.77.77 0 0 1 -.687-.425l-.556-1.112z" fill="url(#Q)" transform="matrix(.45318 0 0 .45318 33.21 44.48)"/>
 <path d="m63.201 74.114a.35.35 0 0 0 -.312.193l-.041.083a1.03 1.03 0 0 0 -.692-.276c-.576 0-1.045.469-1.045 1.045v.697c0 .193.156.348.348.348h3.482a.347.347 0 0 0 .348-.348v-1.393a.347.347 0 0 0 -.348-.348h-1.741z" fill-opacity=".66"/>
 <path d="m66.18 65.389-.768 1.537a1.537 1.537 0 1 0 -3.074 0v1.537h7.683v-3.073z" fill="url(#Y)" transform="matrix(.45318 0 0 .45318 33.21 44.48)"/>
 <path d="m66.654 66.157-.556 1.112a.768.768 0 0 1 -.687.425h3.841v-1.537zm-3.548.768v.768h2.304a.769.769 0 0 1 -.768-.768.769.769 0 0 0 -1.536 0z" fill="url(#S)" transform="matrix(.45318 0 0 .45318 33.21 44.48)"/>
 <path d="m61.465 76.037-.041-.083a.348.348 0 0 0 -.312-.193h-1.741a.348.348 0 0 0 -.348.348v1.393c0 .193.156.348.348.348h3.482a.347.347 0 0 0 .348-.348v-.697c0-.576-.469-1.045-1.045-1.045a1.03 1.03 0 0 0 -.692.276z" fill-opacity=".66"/>
 <path d="m61.57 69.023.768 1.537a1.537 1.537 0 1 1 3.074 0v1.537h-7.683v-3.073z" fill="url(#Z)" transform="matrix(.45318 0 0 .45318 33.21 44.48)"/>
 <path d="m63.107 70.56a.768.768 0 0 1 -.769.768h2.305v-.768a.769.769 0 0 0 -1.536 0zm-4.61-.768v1.537h3.841a.77.77 0 0 1 -.687-.425l-.556-1.112z" fill="url(#aa)" transform="matrix(.45318 0 0 .45318 33.21 44.48)"/>
 <path d="m63.201 77.154a.35.35 0 0 0 -.312.193l-.041.083a1.03 1.03 0 0 0 -.692-.276c-.576 0-1.045.469-1.045 1.045v.697c0 .193.156.348.348.348h3.482a.347.347 0 0 0 .348-.348v-1.393a.347.347 0 0 0 -.348-.348z" fill-opacity=".66"/>
 <path d="m66.18 72.096-.768 1.537a1.537 1.537 0 1 0 -3.074 0v1.537h7.683v-3.073z" fill="url(#ab)" transform="matrix(.45318 0 0 .45318 33.21 44.48)"/>
 <path d="m66.654 72.865-.556 1.112a.768.768 0 0 1 -.687.425h3.841v-1.537zm-3.548.768v.768h2.304a.769.769 0 0 1 -.768-.768.769.769 0 0 0 -1.536 0z" fill="url(#ac)" transform="matrix(.45318 0 0 .45318 33.21 44.48)"/>
 <path d="m59.406 78.563c-.192 0-.375.151-.375.344v1.406c0 .193.183.344.375.344h1.813c-.039.11-.094.221-.094.344v.344h-1.719c-.192 0-.375.151-.375.344v1.406c0 .193.183.344.375.344h1.813c-.039.11-.094.221-.094.344v.281h-1.719c-.192 0-.375.151-.375.344v1.406c0 .193.183.344.375.344h1.813c-.039.109-.094.22-.094.343v.281h-1.719c-.192 0-.375.151-.375.344v1.406c0 .193.183.344.375.344h1.813a1.03 1.03 0 0 0 -.094.375v.344h-1.719a.396.396 0 0 0 -.375.375v1.375c0 .193.183.344.375.344h1.813c-.039.11-.094.221-.094.344v.625h-1.719c-.192 0-.375.151-.375.344v1.375c0 .193.183.375.375.375h1.813c-.039.11-.094.221-.094.344v.344h-1.719c-.192 0-.375.151-.375.344v1.406c0 .193.183.344.375.344h1.813c-.039.109-.094.22-.094.343v.344h-1.719c-.192 0-.375.151-.375.344v1.406c0 .193.183.344.375.344h1.813c-.039.11-.094.221-.094.344v.281h-1.719c-.192 0-.375.151-.375.344v1.406c0 .193.183.344.375.344h1.813c-.039.11-.094.221-.094.344v.281h-1.719c-.192 0-.375.151-.375.344v1.406c0 .193.183.344.375.344h1.781c-.032.1-.063.203-.063.313v.344h-1.719a.396.396 0 0 0 -.375.375v1.375c0 .193.183.344.375.344h1.813c-.039.11-.094.221-.094.344v.625h-1.719c-.192 0-.375.151-.375.344v1.375c0 .193.183.375.375.375h1.813c-.039.11-.094.221-.094.344v.344h-1.719c-.192 0-.375.151-.375.344v1.406c0 .193.183.344.375.344h1.813c-.039.11-.094.221-.094.344v.344h-1.719c-.192 0-.375.151-.375.344v1.406c0 .193.183.344.375.344h1.813c-.039.11-.094.221-.094.344v.281h-1.719c-.192 0-.375.151-.375.344v1.406c0 .193.183.344.375.344h3.469a.34.34 0 0 0 .344-.344v-.719c0-.1-.036-.19-.063-.281h1.813a.34.34 0 0 0 .344-.344v-1.375a.34.34 0 0 0 -.344-.344h-1.75v-.375c0-.123-.055-.234-.094-.344h1.844a.34.34 0 0 0 .344-.344v-1.375c0-.193-.151-.375-.344-.375h-1.75v-.344c0-.123-.055-.234-.094-.344h1.844a.34.34 0 0 0 .344-.344v-1.406a.34.34 0 0 0 -.344-.344h-1.75v-.344c0-.229-.093-.421-.219-.594h1.969a.34.34 0 0 0 .344-.344v-1.406a.34.34 0 0 0 -.344-.344h-1.75v-.344c0-.123-.055-.234-.094-.344h1.844a.34.34 0 0 0 .344-.344v-1.406a.34.34 0 0 0 -.344-.344h-1.75v-.344c0-.1-.036-.19-.063-.281h1.813a.34.34 0 0 0 .344-.344v-1.375a.34.34 0 0 0 -.344-.344h-1.75v-.375c0-.1-.036-.19-.063-.281h1.813a.34.34 0 0 0 .344-.344v-1.375a.34.34 0 0 0 -.344-.344h-1.75v-.375c0-.123-.055-.234-.094-.344h1.844a.34.34 0 0 0 .344-.344v-1.375c0-.193-.151-.375-.344-.375h-1.75v-.344c0-.123-.055-.234-.094-.344h1.844a.34.34 0 0 0 .344-.344v-1.406a.34.34 0 0 0 -.344-.344h-1.75v-.344c0-.229-.093-.421-.219-.594h1.969a.34.34 0 0 0 .344-.344v-1.406a.34.34 0 0 0 -.343-.343h-1.75v-.344c0-.123-.055-.234-.094-.344h1.844a.34.34 0 0 0 .344-.344v-1.406a.34.34 0 0 0 -.344-.344h-1.75v-.406c0-.1-.036-.19-.063-.281h1.813a.34.34 0 0 0 .344-.344v-1.375a.34.34 0 0 0 -.344-.344h-1.75v-.375c0-.1-.036-.19-.063-.281h1.813a.34.34 0 0 0 .344-.344v-1.375a.34.34 0 0 0 -.344-.344h-1.75v-.375c0-.123-.055-.234-.094-.344h1.844a.34.34 0 0 0 .344-.344v-1.375c0-.193-.151-.375-.344-.375h-1.75v-.344c0-.576-.455-1.031-1.031-1.031a1.03 1.03 0 0 0 -.688.281c-.008-.017-.063-.093-.063-.093a.346.346 0 0 0 -.313-.188h-1.719z" fill-opacity=".25" filter="url(#y)" transform="matrix(.99999 0 0 .99999 -.02 -.01)"/>
 <path d="m61.57 75.169.768 1.537a1.537 1.537 0 1 1 3.074 0v1.537h-7.683v-3.073h3.841z" fill="url(#ad)" transform="matrix(.45318 0 0 .45318 33.21 44.48)"/>
 <path d="m63.107 76.706a.768.768 0 0 1 -.769.768h2.305v-.768a.769.769 0 0 0 -1.536 0zm-4.61-.768v1.537h3.841a.77.77 0 0 1 -.687-.425l-.556-1.112z" fill="url(#aa)" transform="matrix(.45318 0 0 .45318 33.21 44.48)"/>
 <path d="m59.406 78.813c-.053 0-.125.069-.125.094v1.406c0 .025.072.094.125.094h1.813a.266.266 0 0 1 .094 0 .266.266 0 0 1 .125.094.266.266 0 0 1 .031.125.266.266 0 0 1 0 .125c-.047.129-.094.205-.094.25v.344a.266.266 0 0 1 0 .094.266.266 0 0 1 -.094.125.266.266 0 0 1 -.125.031.266.266 0 0 1 -.031 0h-1.719c-.053 0-.125.069-.125.094v1.406c0 .025.072.094.125.094h1.813a.266.266 0 0 1 .094 0 .266.266 0 0 1 .125.094.266.266 0 0 1 .031.125.266.266 0 0 1 0 .125c-.046.13-.094.206-.094.25v.281a.266.266 0 0 1 0 .094.266.266 0 0 1 -.094.125.266.266 0 0 1 -.125.031.266.266 0 0 1 -.031 0h-1.719c-.053 0-.125.069-.125.094v1.406c0 .025.072.094.125.094h1.813a.266.266 0 0 1 .094 0 .266.266 0 0 1 .125.094.266.266 0 0 1 .031.125.266.266 0 0 1 0 .125c-.046.129-.094.205-.094.249v.281a.266.266 0 0 1 0 .094.266.266 0 0 1 -.094.125.266.266 0 0 1 -.125.031.266.266 0 0 1 -.031 0h-1.719c-.053 0-.125.069-.125.094v1.406c0 .025.072.094.125.094h1.813a.266.266 0 0 1 .094 0 .266.266 0 0 1 .125.094.266.266 0 0 1 .031.125.266.266 0 0 1 0 .125c-.046.116-.094.211-.094.281v.344a.266.266 0 0 1 0 .094.266.266 0 0 1 -.094.125.266.266 0 0 1 -.125.031.266.266 0 0 1 -.031 0h-1.719c-.024 0-.125.101-.125.125v1.375c0 .025.072.094.125.094h1.813a.266.266 0 0 1 .094 0 .266.266 0 0 1 .125.094.266.266 0 0 1 .031.125.266.266 0 0 1 0 .125c-.046.13-.094.206-.094.25v.625a.266.266 0 0 1 0 .094.266.266 0 0 1 -.094.125.266.266 0 0 1 -.125.031.266.266 0 0 1 -.031 0h-1.719c-.053 0-.125.069-.125.094v1.375c0 .025.101.125.125.125h1.813a.266.266 0 0 1 .094 0 .266.266 0 0 1 .125.094.266.266 0 0 1 .031.125.266.266 0 0 1 0 .125c-.046.13-.094.206-.094.25v.344a.266.266 0 0 1 0 .094.266.266 0 0 1 -.094.125.266.266 0 0 1 -.125.031.266.266 0 0 1 -.031 0h-1.719c-.053 0-.125.069-.125.094v1.406c0 .025.072.094.125.094h1.813a.266.266 0 0 1 .094 0 .266.266 0 0 1 .125.094.266.266 0 0 1 .031.125.266.266 0 0 1 0 .125c-.046.13-.094.206-.094.25v.344a.266.266 0 0 1 0 .094.266.266 0 0 1 -.094.125.266.266 0 0 1 -.125.031.266.266 0 0 1 -.031 0h-1.719c-.053 0-.125.069-.125.094v1.406c0 .025.072.094.125.094h1.813a.266.266 0 0 1 .094 0 .266.266 0 0 1 .125.094.266.266 0 0 1 .031.125.266.266 0 0 1 0 .125c-.046.13-.094.206-.094.25v.281a.266.266 0 0 1 0 .094.266.266 0 0 1 -.094.125.266.266 0 0 1 -.125.031.266.266 0 0 1 -.031 0h-1.719c-.053 0-.125.069-.125.094v1.406c0 .025.072.094.125.094h1.813a.266.266 0 0 1 .094 0 .266.266 0 0 1 .125.094.266.266 0 0 1 .031.125.266.266 0 0 1 0 .125c-.046.13-.094.206-.094.25v.281a.266.266 0 0 1 0 .094.266.266 0 0 1 -.094.125.266.266 0 0 1 -.125.031.266.266 0 0 1 -.031 0h-1.719c-.053 0-.125.069-.125.094v1.406c0 .025.072.094.125.094h1.781a.266.266 0 0 1 .094 0 .266.266 0 0 1 .125.094.266.266 0 0 1 .031.125.266.266 0 0 1 0 .125c-.031.097-.063.158-.063.219v.344a.266.266 0 0 1 0 .094.266.266 0 0 1 -.094.125.266.266 0 0 1 -.125.031.266.266 0 0 1 -.031 0h-1.719c-.024 0-.125.101-.125.125v1.375c0 .025.072.094.125.094h1.813a.266.266 0 0 1 .094 0 .266.266 0 0 1 .125.094.266.266 0 0 1 .031.125.266.266 0 0 1 0 .125c-.046.13-.094.206-.094.25v.625a.266.266 0 0 1 0 .094.266.266 0 0 1 -.094.125.266.266 0 0 1 -.125.031.266.266 0 0 1 -.031 0h-1.719c-.053 0-.125.069-.125.094v1.375c0 .025.101.125.125.125h1.813a.266.266 0 0 1 .094 0 .266.266 0 0 1 .125.094.266.266 0 0 1 .031.125.266.266 0 0 1 0 .125c-.046.13-.094.206-.094.25v.344a.266.266 0 0 1 0 .094.266.266 0 0 1 -.094.125.266.266 0 0 1 -.125.031.266.266 0 0 1 -.031 0h-1.719c-.053 0-.125.069-.125.094v1.406c0 .025.072.094.125.094h1.813a.266.266 0 0 1 .094 0 .266.266 0 0 1 .125.094.266.266 0 0 1 .031.125.266.266 0 0 1 0 .125c-.046.13-.094.206-.094.25v.344a.266.266 0 0 1 0 .094.266.266 0 0 1 -.094.125.266.266 0 0 1 -.125.031.266.266 0 0 1 -.031 0h-1.719c-.053 0-.125.069-.125.094v1.406c0 .025.072.094.125.094h1.813a.266.266 0 0 1 .094 0 .266.266 0 0 1 .125.094.266.266 0 0 1 .031.125.266.266 0 0 1 0 .125c-.046.13-.094.206-.094.25v.281a.266.266 0 0 1 0 .094.266.266 0 0 1 -.094.125.266.266 0 0 1 -.125.031.266.266 0 0 1 -.031 0h-1.719c-.053 0-.125.069-.125.094v1.406c0 .025.072.094.125.094h3.469c.054 0 .094-.04.094-.094v-.719c0-.035-.031-.11-.063-.219a.266.266 0 0 1 0-.156.266.266 0 0 1 .063-.094.266.266 0 0 1 .188-.063h1.813c.054 0 .094-.04.094-.094v-1.375a.091.091 0 0 0 -.094-.094h-1.75a.266.266 0 0 1 -.094 0 .266.266 0 0 1 -.125-.094.266.266 0 0 1 -.031-.125.266.266 0 0 1 0-.031v-.375c0-.044-.047-.12-.094-.25a.266.266 0 0 1 0-.094.266.266 0 0 1 .063-.188.266.266 0 0 1 .094-.063.266.266 0 0 1 .094 0h1.844c.054 0 .094-.04.094-.094v-1.375c0-.054-.069-.125-.094-.125h-1.75a.266.266 0 0 1 -.094 0 .266.266 0 0 1 -.125-.094.266.266 0 0 1 -.031-.125.266.266 0 0 1 0-.031v-.344c0-.044-.047-.12-.094-.25a.266.266 0 0 1 0-.094.266.266 0 0 1 .063-.188.266.266 0 0 1 .094-.063.266.266 0 0 1 .094 0h1.844c.054 0 .094-.04.094-.094v-1.406a.091.091 0 0 0 -.094-.094h-1.75a.266.266 0 0 1 -.094 0 .266.266 0 0 1 -.124-.095.266.266 0 0 1 -.031-.125.266.266 0 0 1 0-.031v-.344c0-.157-.081-.291-.188-.438a.266.266 0 0 1 -.031-.187.266.266 0 0 1 .031-.125.266.266 0 0 1 .125-.094.266.266 0 0 1 .094 0h1.969c.054 0 .094-.04.094-.094v-1.406a.091.091 0 0 0 -.094-.094h-1.75a.266.266 0 0 1 -.094 0 .266.266 0 0 1 -.125-.094.266.266 0 0 1 -.031-.125.266.266 0 0 1 0-.031v-.344c0-.044-.047-.12-.094-.25a.266.266 0 0 1 0-.094.266.266 0 0 1 .063-.188.266.266 0 0 1 .094-.063.266.266 0 0 1 .094 0h1.844c.054 0 .094-.04.094-.094v-1.406a.091.091 0 0 0 -.094-.094h-1.75a.266.266 0 0 1 -.094 0 .266.266 0 0 1 -.125-.094.266.266 0 0 1 -.031-.125.266.266 0 0 1 0-.031v-.344c0-.035-.031-.11-.063-.219a.266.266 0 0 1 0-.156.266.266 0 0 1 .063-.094.266.266 0 0 1 .188-.063h1.813c.054 0 .094-.04.094-.094v-1.375a.091.091 0 0 0 -.094-.094h-1.75a.266.266 0 0 1 -.094 0 .266.266 0 0 1 -.125-.094.266.266 0 0 1 -.031-.125.266.266 0 0 1 0-.031v-.375c0-.035-.031-.11-.063-.219a.266.266 0 0 1 0-.156.266.266 0 0 1 .063-.094.266.266 0 0 1 .188-.063h1.813c.054 0 .094-.04.094-.094v-1.375a.091.091 0 0 0 -.094-.094h-1.75a.266.266 0 0 1 -.094 0 .266.266 0 0 1 -.125-.094.266.266 0 0 1 -.031-.125.266.266 0 0 1 0-.031v-.375c0-.044-.047-.12-.094-.25a.266.266 0 0 1 0-.094.266.266 0 0 1 .063-.188.266.266 0 0 1 .094-.063.266.266 0 0 1 .094 0h1.844c.054 0 .094-.04.094-.094v-1.375c0-.054-.069-.125-.094-.125h-1.75a.266.266 0 0 1 -.094 0 .266.266 0 0 1 -.125-.094.266.266 0 0 1 -.031-.125.266.266 0 0 1 0-.031v-.344c0-.044-.047-.12-.094-.25a.266.266 0 0 1 0-.094.266.266 0 0 1 .063-.188.266.266 0 0 1 .094-.063.266.266 0 0 1 .094 0h1.844c.054 0 .094-.04.094-.094v-1.406a.091.091 0 0 0 -.094-.094h-1.75a.266.266 0 0 1 -.094 0 .266.266 0 0 1 -.125-.093.266.266 0 0 1 -.031-.125.266.266 0 0 1 0-.031v-.344c0-.157-.081-.291-.188-.438a.266.266 0 0 1 -.031-.187.266.266 0 0 1 .031-.125.266.266 0 0 1 .125-.094.266.266 0 0 1 .094 0h1.969c.054 0 .094-.04.094-.094v-1.406a.091.091 0 0 0 -.094-.094h-1.75a.266.266 0 0 1 -.094 0 .266.266 0 0 1 -.125-.094.266.266 0 0 1 -.031-.125.266.266 0 0 1 0-.031v-.344c0-.044-.047-.12-.094-.25a.266.266 0 0 1 0-.094.266.266 0 0 1 .063-.188.266.266 0 0 1 .094-.063.266.266 0 0 1 .094 0h1.844c.054 0 .094-.04.094-.094v-1.406a.091.091 0 0 0 -.094-.094h-1.75a.266.266 0 0 1 -.094 0 .266.266 0 0 1 -.125-.093.266.266 0 0 1 -.031-.125.266.266 0 0 1 0-.031v-.406c0-.035-.031-.11-.063-.219a.266.266 0 0 1 0-.156.266.266 0 0 1 .063-.094.266.266 0 0 1 .188-.063h1.813c.054 0 .094-.04.094-.094v-1.375a.091.091 0 0 0 -.094-.094h-1.75a.266.266 0 0 1 -.094 0 .266.266 0 0 1 -.125-.093.266.266 0 0 1 -.031-.125.266.266 0 0 1 0-.031v-.375c0-.035-.031-.11-.063-.219a.266.266 0 0 1 0-.156.266.266 0 0 1 .063-.094.266.266 0 0 1 .188-.063h1.813c.054 0 .094-.04.094-.094v-1.375a.092.092 0 0 0 -.094-.094h-1.75a.266.266 0 0 1 -.094 0 .266.266 0 0 1 -.125-.094.266.266 0 0 1 -.031-.125.266.266 0 0 1 0-.031v-.375c0-.044-.047-.12-.094-.25a.266.266 0 0 1 0-.094.266.266 0 0 1 .063-.188.266.266 0 0 1 .094-.063.266.266 0 0 1 .094 0h1.844c.054 0 .094-.04.094-.094v-1.375c0-.054-.069-.125-.094-.125h-1.75a.266.266 0 0 1 -.094 0 .266.266 0 0 1 -.125-.094.266.266 0 0 1 -.031-.125.266.266 0 0 1 0-.031v-.344a.775.775 0 0 0 -.781-.781c-.193 0-.353.086-.5.219a.266.266 0 0 1 -.219.063.266.266 0 0 1 -.125-.031.266.266 0 0 1 -.031-.031.266.266 0 0 1 -.063-.063c.028.059.013-.012 0-.031s-.031-.031-.031-.031a.266.266 0 0 1 -.031-.031c-.012-.024-.024-.063-.063-.063h-1.719z" fill-opacity=".25" filter="url(#x)" transform="matrix(.99999 0 0 .99999 -.02 -.01)"/>
 <path d="m66.18 78.243-.768 1.537a1.537 1.537 0 1 0 -3.074 0v1.537h7.683v-3.073z" fill="url(#ae)" transform="matrix(.45318 0 0 .45318 33.21 44.48)"/>
 <path d="m66.654 79.011-.556 1.112a.768.768 0 0 1 -.687.425h3.841v-1.537zm-3.548.768v.768h2.304a.769.769 0 0 1 -.768-.768.769.769 0 0 0 -1.536 0z" fill="url(#ac)" transform="matrix(.45318 0 0 .45318 33.21 44.48)"/>
 <path d="m61.57 81.316.768 1.537a1.537 1.537 0 1 1 3.074 0v1.537h-7.683v-3.073z" fill="url(#af)" transform="matrix(.45318 0 0 .45318 33.21 44.48)"/>
 <path d="m63.107 82.852a.768.768 0 0 1 -.769.768h2.305v-.768a.769.769 0 0 0 -1.536 0zm-4.61-.768v1.537h3.841a.77.77 0 0 1 -.687-.425l-.556-1.112z" fill="url(#aa)" transform="matrix(.45318 0 0 .45318 33.21 44.48)"/>
 <path d="m66.18 84.389-.768 1.537a1.537 1.537 0 1 0 -3.074 0v1.537h7.683v-3.073h-3.841z" fill="url(#ag)" transform="matrix(.45318 0 0 .45318 33.21 44.48)"/>
 <path d="m66.654 85.157-.556 1.112a.768.768 0 0 1 -.687.425h3.841v-1.537zm-3.548.768v.768h2.304a.769.769 0 0 1 -.768-.768.769.769 0 0 0 -1.536 0z" fill="url(#ac)" transform="matrix(.45318 0 0 .45318 33.21 44.48)"/>
 <path d="m61.57 87.316.768 1.537a1.537 1.537 0 1 1 3.074 0v1.537h-7.683v-3.073z" fill="url(#ah)" transform="matrix(.45318 0 0 .45318 33.21 44.48)"/>
 <path d="m63.107 88.852a.768.768 0 0 1 -.769.768h2.305v-.768a.769.769 0 0 0 -1.536 0zm-4.61-.768v1.537h3.841a.77.77 0 0 1 -.687-.425l-.556-1.112z" fill="url(#ai)" transform="matrix(.45318 0 0 .45318 33.21 44.48)"/>
 <path d="m66.18 90.389-.768 1.537a1.537 1.537 0 1 0 -3.074 0v1.537h7.683v-3.073h-3.841z" fill="url(#aj)" transform="matrix(.45318 0 0 .45318 33.21 44.48)"/>
 <path d="m66.654 91.157-.556 1.112a.768.768 0 0 1 -.687.425h3.841v-1.537zm-3.548.768v.768h2.304a.769.769 0 0 1 -.768-.768.769.769 0 0 0 -1.536 0z" fill="url(#ak)" transform="matrix(.45318 0 0 .45318 33.21 44.48)"/>
 <path d="m61.57 93.316.768 1.537a1.537 1.537 0 1 1 3.074 0v1.537h-7.683v-3.073z" fill="url(#al)" transform="matrix(.45318 0 0 .45318 33.21 44.48)"/>
 <path d="m63.107 94.852a.768.768 0 0 1 -.769.768h2.305v-.768a.769.769 0 0 0 -1.536 0zm-4.61-.768v1.537h3.841a.77.77 0 0 1 -.687-.425l-.556-1.112z" fill="url(#am)" transform="matrix(.45318 0 0 .45318 33.21 44.48)"/>
 <path d="m60.02 63.448a.962.962 0 0 0 -.397.54l-.059-.054a.239.239 0 0 0 -.291-.032l-1.244.758a.327.327 0 0 0 -.14.196.41.41 0 0 0 .015.258l.5 1.21c.068.166.236.233.373.15l2.489-1.515c.137-.085.192-.288.124-.454l-.25-.605a.905.905 0 0 0 -.483-.51.696.696 0 0 0 -.638.058z" fill-opacity=".65"/>
 <path d="m59.626 31.245 1.376 1.03a1.537 1.537 0 0 1 2.747-1.377l.688 1.374-6.868 3.442-1.378-2.747 3.434-1.721z" fill="url(#an)" transform="matrix(.36238 0 0 .44023 37.79 50.11)"/>
 <path d="m62.032 30.898a.77.77 0 0 0 -.343 1.031.769.769 0 0 1 -1.147.959l-.996-.745c-.503.252-1.58.791-2.323 1.165l.688 1.374 5.495-2.754-.344-.687a.766.766 0 0 0 -1.03-.343z" fill="url(#ao)" transform="matrix(.36238 0 0 .44023 37.79 50.11)"/>
 <path d="m58.219 61.704c-.17.161-.255.392-.288.632l-.078-.044a.239.239 0 0 0 -.291.04l-1.094 1.044a.39.39 0 0 0 -.047.475l.688 1.064c.046.07.112.116.186.127a.244.244 0 0 0 .205-.07l2.188-2.09a.389.389 0 0 0 .047-.475l-.344-.532a.808.808 0 0 0 -.558-.38.73.73 0 0 0 -.615.21z" fill-opacity=".66"/>
 <path d="m56.251 26.321 1.554.733a1.536 1.536 0 1 1 2.416-1.899l.95 1.207-6.039 4.749-1.899-2.417z" fill="url(#ap)" transform="matrix(.36238 0 0 .44023 37.35 50.67)"/>
 <path d="m58.538 25.5a.77.77 0 0 0 -.129 1.08.768.768 0 0 1 -.932 1.169l-1.125-.53-2.042 1.605.95 1.209 4.832-3.799-.475-.603a.77.77 0 0 0 -1.078-.13z" fill="url(#aq)" transform="matrix(.36238 0 0 .44023 37.35 50.67)"/>
 <path d="m56.402 59.624a.821.821 0 0 0 -.548.4 1.16 1.16 0 0 0 -.165.603c0 .033.016.063.019.097l-.08-.017c-.105-.023-.21.028-.273.131l-.83 1.357a.388.388 0 0 0 .057.473l.894.807c.06.054.134.077.207.064a.276.276 0 0 0 .183-.133l1.66-2.716a.399.399 0 0 0 .053-.251.357.357 0 0 0 -.11-.223l-.447-.402a.722.722 0 0 0 -.62-.19z" fill-opacity=".66"/>
 <path d="m50.8 22.533 1.692.299a1.537 1.537 0 0 1 1.833-2.467l1.233.915-4.581 6.168-2.467-1.833z" fill="url(#ar)" transform="matrix(.36238 0 0 .44023 37.17 50.78)"/>
 <path d="m53.296 20.838a.77.77 0 0 0 -.346 1.378.769.769 0 0 1 -.592 1.372l-1.225-.217-1.549 2.084c.463.343.771.573 1.233.917l3.665-4.934a240.38 240.38 0 0 1 -.615-.457.77.77 0 0 0 -.571-.143z" fill="url(#as)" transform="matrix(.36238 0 0 .44023 37.17 50.78)"/>
 <path d="m54.283 58.134a.911.911 0 0 0 -.541.45 1.19 1.19 0 0 0 -.145.71l-.067-.008c-.105-.011-.21.05-.27.158l-.804 1.43a.403.403 0 0 0 -.047.139.35.35 0 0 0 .116.326l.916.713c.06.047.136.062.209.042s.138-.074.18-.15l1.608-2.863a.408.408 0 0 0 .046-.255.323.323 0 0 0 -.115-.21l-.457-.355a.697.697 0 0 0 -.628-.126z" fill-opacity=".66"/>
 <path d="m44.84 19.469 1.718-.045a1.536 1.536 0 1 1 1.305-2.782l1.391.651-3.26 6.958-2.783-1.305 1.63-3.478z" fill="url(#at)" transform="matrix(.35866 .05181 -.06294 .43571 38.68 48.48)"/>
 <path d="m46.947 17.31a.76.76 0 0 0 -.432.395l-.001.002a.771.771 0 0 0 .371 1.022.768.768 0 0 1 -.307 1.463l-1.244.032-1.103 2.352 1.391.652 2.608-5.566-.695-.325a.763.763 0 0 0 -.589-.027z" fill="url(#au)" transform="matrix(.35866 .05181 -.06294 .43571 38.68 48.48)"/>
 <path d="m62.45 65.028a.962.962 0 0 1 .397.54l.059-.054a.239.239 0 0 1 .291-.032l1.244.758c.066.04.116.11.14.196a.41.41 0 0 1 -.015.258l-.5 1.21c-.068.166-.236.233-.373.15l-2.489-1.515c-.137-.085-.192-.288-.124-.454l.25-.605a.905.905 0 0 1 .483-.51.696.696 0 0 1 .638.058z" fill-opacity=".65"/>
 <path d="m59.626 31.245 1.376 1.03a1.537 1.537 0 0 1 2.747-1.377l.688 1.374-6.868 3.442-1.378-2.747 3.434-1.721z" fill="url(#an)" transform="matrix(-.36238 0 0 .44023 84.68 51.69)"/>
 <path d="m62.032 30.898a.77.77 0 0 0 -.343 1.031.769.769 0 0 1 -1.147.959l-.996-.745c-.503.252-1.58.791-2.323 1.165l.688 1.374 5.495-2.754-.344-.687a.766.766 0 0 0 -1.03-.343z" fill="url(#ao)" transform="matrix(-.36238 0 0 .44023 84.68 51.69)"/>
 <path d="m64.291 63.164c.17.161.255.392.288.632l.078-.044a.239.239 0 0 1 .291.04l1.094 1.044a.39.39 0 0 1 .047.475l-.688 1.064a.274.274 0 0 1 -.186.127.244.244 0 0 1 -.205-.07l-2.188-2.09a.389.389 0 0 1 -.047-.475l.344-.532a.808.808 0 0 1 .558-.38.73.73 0 0 1 .615.21z" fill-opacity=".66"/>
 <path d="m56.251 26.321 1.554.733a1.536 1.536 0 1 1 2.416-1.899l.95 1.207-6.039 4.749-1.899-2.417z" fill="url(#ap)" transform="matrix(-.36238 0 0 .44023 85.16 52.13)"/>
 <path d="m58.538 25.5a.77.77 0 0 0 -.129 1.08.768.768 0 0 1 -.932 1.169l-1.125-.53-2.042 1.605.95 1.209 4.832-3.799-.475-.603a.77.77 0 0 0 -1.078-.13z" fill="url(#aq)" transform="matrix(-.36238 0 0 .44023 85.16 52.13)"/>
 <path d="m65.846 61.455a.821.821 0 0 1 .594.328c.132.166.212.37.238.578.004.033-.008.065-.006.099l.077-.027c.1-.035.211.002.287.097l.992 1.243c.11.137.11.35.002.477l-.787.911a.244.244 0 0 1 -.197.089.276.276 0 0 1 -.198-.11l-1.985-2.488a.399.399 0 0 1 -.083-.243c0-.089.029-.173.081-.234l.393-.455a.722.722 0 0 1 .592-.265z" fill-opacity=".66"/>
 <path d="m50.8 22.533 1.692.299a1.537 1.537 0 0 1 1.833-2.467l1.233.915-4.581 6.168-2.467-1.833z" fill="url(#ar)" transform="matrix(-.35957 .04502 .0547 .43682 83.83 50.29)"/>
 <path d="m53.296 20.838a.77.77 0 0 0 -.346 1.378.769.769 0 0 1 -.592 1.372l-1.225-.217-1.549 2.084c.463.343.771.573 1.233.917l3.665-4.934a240.38 240.38 0 0 1 -.615-.457.77.77 0 0 0 -.571-.143z" fill="url(#as)" transform="matrix(-.35957 .04502 .0547 .43682 83.83 50.29)"/>
 <path d="m68.017 59.882c.225.041.43.184.579.4a1.19 1.19 0 0 1 .207.694l.067-.013c.103-.021.212.03.283.133l.927 1.353a.4.4 0 0 1 .059.134.35.35 0 0 1 -.086.335l-.849.791c-.056.053-.13.074-.204.06s-.145-.06-.194-.133l-1.855-2.708a.408.408 0 0 1 -.069-.25.323.323 0 0 1 .096-.219l.424-.395a.697.697 0 0 1 .614-.181z" fill="#4a4a4a"/>
 <path d="m44.84 19.469 1.718-.045a1.536 1.536 0 1 1 1.305-2.782l1.391.651-3.26 6.958-2.783-1.305 1.63-3.478z" fill="url(#at)" transform="matrix(-.35263 .08347 .10141 .42839 82.7 48.88)"/>
 <path d="m46.947 17.31a.76.76 0 0 0 -.432.395l-.001.002a.771.771 0 0 0 .371 1.022.768.768 0 0 1 -.307 1.463l-1.244.032-1.103 2.352 1.391.652 2.608-5.566-.695-.325a.763.763 0 0 0 -.589-.027z" fill="url(#au)" transform="matrix(-.35263 .08347 .10141 .42839 82.7 48.88)"/>
 <path d="m70.274 58.309c.226.068.426.231.564.462.046.076.083.156.11.238.051.151.061.31.05.465l.077-.006c.106-.008.214.055.28.164l.858 1.435a.419.419 0 0 1 .037.08c.048.141.014.298-.092.375l-.91.672a.237.237 0 0 1 -.211.034.338.338 0 0 1 -.189-.154l-1.718-2.871a.4.4 0 0 1 -.055-.252.295.295 0 0 1 .11-.203l.455-.335a.704.704 0 0 1 .634-.104z" fill="#4a4a4a"/>
 <path d="m39.179 17.868 1.682-.351a1.535 1.535 0 0 1 -1.092-1.878 1.533 1.533 0 0 1 1.878-1.092l1.485.391-1.964 7.428-2.971-.786z" fill="url(#av)" transform="matrix(-.3434 .11573 .1406 .41718 81.96 47.49)"/>
 <path d="m40.868 15.367a.762.762 0 0 0 -.356.467v.001a.75.75 0 0 0 .079.582c.103.178.27.304.468.357a.77.77 0 0 1 .572.742v.021a.767.767 0 0 1 -.611.731l-1.218.254-.664 2.511 1.485.393 1.57-5.942-.741-.196a.766.766 0 0 0 -.585.078z" fill="url(#aw)" transform="matrix(-.3434 .11573 .1406 .41718 81.96 47.49)"/>
 <path d="m63.868 28.512h-.006c-3.67 0-6.7 3.19-6.898 7.261a2.307 2.307 0 0 0 1.09 2.073c.151.093.299.279.444.469v16.318c0 1.27 1.03 2.3 2.305 2.305h6.146c1.27 0 2.3-1.03 2.305-2.305v-16.352c.138-.174.277-.348.417-.435a2.307 2.307 0 0 0 1.091-2.072c-.185-3.78-2.88-6.89-6.279-7.229l-.606-.034h-.007zm.775 14.597v.768h-1.537v-.768z" fill="url(#ax)" filter="url(#z)" transform="matrix(.79341 0 0 .67327 11.81 41.58)"/>
 <path d="m57.73 35.811a1.538 1.538 0 0 0 .727 1.382c.935.578 1.563 2.03 1.563 3.612 0 .847.689 1.537 1.537 1.537h4.61c.848 0 1.537-.689 1.537-1.537 0-1.583.628-3.034 1.563-3.612.476-.294.753-.823.726-1.381-.178-3.663-2.871-6.531-6.13-6.531s-5.952 2.868-6.132 6.53z" fill="url(#ay)" transform="matrix(.79341 0 0 .67327 11.81 41.58)"/>
 <path d="m58.512 35.08a.77.77 0 0 0 .363.691c1.171.725 1.927 2.398 1.927 4.265 0 .425.344.768.768.768h4.61a.767.767 0 0 0 .768-.768c0-1.868.756-3.541 1.928-4.265a.77.77 0 0 0 .363-.691c-.16-3.253-2.515-5.8-5.364-5.8s-5.204 2.547-5.363 5.8z" fill="url(#az)" transform="matrix(.79341 0 0 .67327 11.81 41.58)"/>
 <path d="m68.054 36.195c.134-.112.272-.22.416-.309a6.157 6.157 0 0 0 -.189-1.228h-8.814c-.1.393-.168.803-.189 1.228.144.089.282.197.416.309h8.359z" fill="url(#aA)" filter="url(#J)" transform="matrix(.79341 0 0 .67327 11.81 41.58)"/>
 <path d="m60.802 36.195c-.847 0-1.537.689-1.537 1.537v16.902c0 .847.689 1.537 1.537 1.537h6.146c.847 0 1.537-.689 1.537-1.537v-16.902c0-.847-.689-1.537-1.537-1.537zm1.537 3.073h3.073v5.378h-3.073zm3.073 12.292v.768h-3.073v-.768z" fill="url(#aB)" transform="matrix(.79341 0 0 .67327 11.81 41.58)"/>
 <path d="m66.948 36.195h-6.146a.768.768 0 0 0 -.768.768v16.902c0 .425.344.768.768.768h6.146a.767.767 0 0 0 .768-.768v-16.902a.767.767 0 0 0 -.768-.768zm-.768 16.326a.576.576 0 0 1 -.576.576h-3.457a.576.576 0 0 1 -.576-.576v-1.152c0-.318.258-.576.576-.576h3.457c.318 0 .576.258.576.576zm0-7.875a.767.767 0 0 1 -.768.768h-3.073a.768.768 0 0 1 -.768-.768v-6.146c0-.425.344-.768.768-.768h3.073c.425 0 .768.343.768.768z" fill="url(#aC)" transform="matrix(.79341 0 0 .67327 11.81 41.58)"/>
 <path d="m65.411 39.268a.767.767 0 0 1 -.768.768h-1.537a.768.768 0 0 1 -.768-.768v-7.683c0-.425.344-.768.768-.768h1.537c.425 0 .768.343.768.768z" fill="url(#aD)" transform="matrix(.79341 0 0 .67327 11.81 41.58)"/>
 <path d="m63.11 31.59h1.54v7.68h-1.54z" fill="url(#aE)" transform="matrix(.79341 0 0 .67327 11.81 41.58)"/>
 <path d="m66.18 59.243-.768 1.537a1.537 1.537 0 1 0 -3.074 0v1.537h7.683v-3.073z" fill="url(#W)" transform="matrix(.45318 0 0 .45318 33.21 61.36)"/>
 <path d="m66.654 60.011-.556 1.112a.768.768 0 0 1 -.687.425h3.841v-1.537zm-3.548.768v.768h2.304a.769.769 0 0 1 -.768-.768.769.769 0 0 0 -1.536 0z" fill="url(#S)" transform="matrix(.45318 0 0 .45318 33.21 61.36)"/>
 <path d="m61.57 62.316.768 1.537a1.537 1.537 0 1 1 3.074 0v1.537h-7.683v-3.073z" fill="url(#X)" transform="matrix(.45318 0 0 .45318 33.21 61.36)"/>
 <path d="m63.107 63.852a.768.768 0 0 1 -.769.768h2.305v-.768a.769.769 0 0 0 -1.536 0zm-4.61-.768v1.537h3.841a.77.77 0 0 1 -.687-.425l-.556-1.112z" fill="url(#Q)" transform="matrix(.45318 0 0 .45318 33.21 61.36)"/>
 <path d="m66.18 65.389-.768 1.537a1.537 1.537 0 1 0 -3.074 0v1.537h7.683v-3.073z" fill="url(#Y)" transform="matrix(.45318 0 0 .45318 33.21 61.36)"/>
 <path d="m66.654 66.157-.556 1.112a.768.768 0 0 1 -.687.425h3.841v-1.537zm-3.548.768v.768h2.304a.769.769 0 0 1 -.768-.768.769.769 0 0 0 -1.536 0z" fill="url(#S)" transform="matrix(.45318 0 0 .45318 33.21 61.36)"/>
 <path d="m61.57 69.023.768 1.537a1.537 1.537 0 1 1 3.074 0v1.537h-7.683v-3.073z" fill="url(#Z)" transform="matrix(.45318 0 0 .45318 33.21 61.36)"/>
 <path d="m63.107 70.56a.768.768 0 0 1 -.769.768h2.305v-.768a.769.769 0 0 0 -1.536 0zm-4.61-.768v1.537h3.841a.77.77 0 0 1 -.687-.425l-.556-1.112z" fill="url(#aa)" transform="matrix(.45318 0 0 .45318 33.21 61.36)"/>
 <path d="m66.18 72.096-.768 1.537a1.537 1.537 0 1 0 -3.074 0v1.537h7.683v-3.073z" fill="url(#ab)" transform="matrix(.45318 0 0 .45318 33.21 61.36)"/>
 <path d="m66.654 72.865-.556 1.112a.768.768 0 0 1 -.687.425h3.841v-1.537zm-3.548.768v.768h2.304a.769.769 0 0 1 -.768-.768.769.769 0 0 0 -1.536 0z" fill="url(#ac)" transform="matrix(.45318 0 0 .45318 33.21 61.36)"/>
 <path d="m61.57 75.169.768 1.537a1.537 1.537 0 1 1 3.074 0v1.537h-7.683v-3.073h3.841z" fill="url(#ad)" transform="matrix(.45318 0 0 .45318 33.21 61.36)"/>
 <path d="m63.107 76.706a.768.768 0 0 1 -.769.768h2.305v-.768a.769.769 0 0 0 -1.536 0zm-4.61-.768v1.537h3.841a.77.77 0 0 1 -.687-.425l-.556-1.112z" fill="url(#aa)" transform="matrix(.45318 0 0 .45318 33.21 61.36)"/>
 <path d="m66.18 78.243-.768 1.537a1.537 1.537 0 1 0 -3.074 0v1.537h7.683v-3.073z" fill="url(#ae)" transform="matrix(.45318 0 0 .45318 33.21 61.36)"/>
 <path d="m66.654 79.011-.556 1.112a.768.768 0 0 1 -.687.425h3.841v-1.537zm-3.548.768v.768h2.304a.769.769 0 0 1 -.768-.768.769.769 0 0 0 -1.536 0z" fill="url(#ac)" transform="matrix(.45318 0 0 .45318 33.21 61.36)"/>
 <path d="m61.57 81.316.768 1.537a1.537 1.537 0 1 1 3.074 0v1.537h-7.683v-3.073z" fill="url(#af)" transform="matrix(.45318 0 0 .45318 33.21 61.36)"/>
 <path d="m63.107 82.852a.768.768 0 0 1 -.769.768h2.305v-.768a.769.769 0 0 0 -1.536 0zm-4.61-.768v1.537h3.841a.77.77 0 0 1 -.687-.425l-.556-1.112z" fill="url(#aa)" transform="matrix(.45318 0 0 .45318 33.21 61.36)"/>
 <path d="m66.18 84.389-.768 1.537a1.537 1.537 0 1 0 -3.074 0v1.537h7.683v-3.073h-3.841z" fill="url(#ag)" transform="matrix(.45318 0 0 .45318 33.21 61.36)"/>
 <path d="m66.654 85.157-.556 1.112a.768.768 0 0 1 -.687.425h3.841v-1.537zm-3.548.768v.768h2.304a.769.769 0 0 1 -.768-.768.769.769 0 0 0 -1.536 0z" fill="url(#ac)" transform="matrix(.45318 0 0 .45318 33.21 61.36)"/>
 <path d="m61.57 87.316.768 1.537a1.537 1.537 0 1 1 3.074 0v1.537h-7.683v-3.073z" fill="url(#ah)" transform="matrix(.45318 0 0 .45318 33.21 61.36)"/>
 <path d="m63.107 88.852a.768.768 0 0 1 -.769.768h2.305v-.768a.769.769 0 0 0 -1.536 0zm-4.61-.768v1.537h3.841a.77.77 0 0 1 -.687-.425l-.556-1.112z" fill="url(#ai)" transform="matrix(.45318 0 0 .45318 33.21 61.36)"/>
 <path d="m66.18 90.389-.768 1.537a1.537 1.537 0 1 0 -3.074 0v1.537h7.683v-3.073h-3.841z" fill="url(#aj)" transform="matrix(.45318 0 0 .45318 33.21 61.36)"/>
 <path d="m66.654 91.157-.556 1.112a.768.768 0 0 1 -.687.425h3.841v-1.537zm-3.548.768v.768h2.304a.769.769 0 0 1 -.768-.768.769.769 0 0 0 -1.536 0z" fill="url(#ak)" transform="matrix(.45318 0 0 .45318 33.21 61.36)"/>
 <path d="m61.57 93.316.768 1.537a1.537 1.537 0 1 1 3.074 0v1.537h-7.683v-3.073z" fill="url(#al)" transform="matrix(.45318 0 0 .45318 33.21 61.36)"/>
 <path d="m63.107 94.852a.768.768 0 0 1 -.769.768h2.305v-.768a.769.769 0 0 0 -1.536 0zm-4.61-.768v1.537h3.841a.77.77 0 0 1 -.687-.425l-.556-1.112z" fill="url(#am)" transform="matrix(.45318 0 0 .45318 33.21 61.36)"/>
 <path d="m66.18 59.243-.768 1.537a1.537 1.537 0 1 0 -3.074 0v1.537h7.683v-3.073z" fill="url(#W)" transform="matrix(.45318 0 0 .45318 33.21 78.17)"/>
 <path d="m66.654 60.011-.556 1.112a.768.768 0 0 1 -.687.425h3.841v-1.537zm-3.548.768v.768h2.304a.769.769 0 0 1 -.768-.768.769.769 0 0 0 -1.536 0z" fill="url(#S)" transform="matrix(.45318 0 0 .45318 33.21 78.17)"/>
 <path d="m61.57 62.316.768 1.537a1.537 1.537 0 1 1 3.074 0v1.537h-7.683v-3.073z" fill="url(#X)" transform="matrix(.45318 0 0 .45318 33.21 78.17)"/>
 <path d="m63.107 63.852a.768.768 0 0 1 -.769.768h2.305v-.768a.769.769 0 0 0 -1.536 0zm-4.61-.768v1.537h3.841a.77.77 0 0 1 -.687-.425l-.556-1.112z" fill="url(#Q)" transform="matrix(.45318 0 0 .45318 33.21 78.17)"/>
 <path d="m66.18 65.389-.768 1.537a1.537 1.537 0 1 0 -3.074 0v1.537h7.683v-3.073z" fill="url(#Y)" transform="matrix(.45318 0 0 .45318 33.21 78.17)"/>
 <path d="m66.654 66.157-.556 1.112a.768.768 0 0 1 -.687.425h3.841v-1.537zm-3.548.768v.768h2.304a.769.769 0 0 1 -.768-.768.769.769 0 0 0 -1.536 0z" fill="url(#S)" transform="matrix(.45318 0 0 .45318 33.21 78.17)"/>
 <path d="m61.57 69.023.768 1.537a1.537 1.537 0 1 1 3.074 0v1.537h-7.683v-3.073z" fill="url(#Z)" transform="matrix(.45318 0 0 .45318 33.21 78.17)"/>
 <path d="m63.107 70.56a.768.768 0 0 1 -.769.768h2.305v-.768a.769.769 0 0 0 -1.536 0zm-4.61-.768v1.537h3.841a.77.77 0 0 1 -.687-.425l-.556-1.112z" fill="url(#aa)" transform="matrix(.45318 0 0 .45318 33.21 78.17)"/>
 <path d="m66.18 72.096-.768 1.537a1.537 1.537 0 1 0 -3.074 0v1.537h7.683v-3.073z" fill="url(#ab)" transform="matrix(.45318 0 0 .45318 33.21 78.17)"/>
 <path d="m66.654 72.865-.556 1.112a.768.768 0 0 1 -.687.425h3.841v-1.537zm-3.548.768v.768h2.304a.769.769 0 0 1 -.768-.768.769.769 0 0 0 -1.536 0z" fill="url(#ac)" transform="matrix(.45318 0 0 .45318 33.21 78.17)"/>
 <path d="m61.57 75.169.768 1.537a1.537 1.537 0 1 1 3.074 0v1.537h-7.683v-3.073h3.841z" fill="url(#ad)" transform="matrix(.45318 0 0 .45318 33.21 78.17)"/>
 <path d="m63.107 76.706a.768.768 0 0 1 -.769.768h2.305v-.768a.769.769 0 0 0 -1.536 0zm-4.61-.768v1.537h3.841a.77.77 0 0 1 -.687-.425l-.556-1.112z" fill="url(#aa)" transform="matrix(.45318 0 0 .45318 33.21 78.17)"/>
 <path d="m66.18 78.243-.768 1.537a1.537 1.537 0 1 0 -3.074 0v1.537h7.683v-3.073z" fill="url(#ae)" transform="matrix(.45318 0 0 .45318 33.21 78.17)"/>
 <path d="m66.654 79.011-.556 1.112a.768.768 0 0 1 -.687.425h3.841v-1.537zm-3.548.768v.768h2.304a.769.769 0 0 1 -.768-.768.769.769 0 0 0 -1.536 0z" fill="url(#ac)" transform="matrix(.45318 0 0 .45318 33.21 78.17)"/>
 <path d="m61.57 81.316.768 1.537a1.537 1.537 0 1 1 3.074 0v1.537h-7.683v-3.073z" fill="url(#af)" transform="matrix(.45318 0 0 .45318 33.21 78.17)"/>
 <path d="m63.107 82.852a.768.768 0 0 1 -.769.768h2.305v-.768a.769.769 0 0 0 -1.536 0zm-4.61-.768v1.537h3.841a.77.77 0 0 1 -.687-.425l-.556-1.112z" fill="url(#aa)" transform="matrix(.45318 0 0 .45318 33.21 78.17)"/>
 <path d="m66.18 84.389-.768 1.537a1.537 1.537 0 1 0 -3.074 0v1.537h7.683v-3.073h-3.841z" fill="url(#ag)" transform="matrix(.45318 0 0 .45318 33.21 78.17)"/>
 <path d="m66.654 85.157-.556 1.112a.768.768 0 0 1 -.687.425h3.841v-1.537zm-3.548.768v.768h2.304a.769.769 0 0 1 -.768-.768.769.769 0 0 0 -1.536 0z" fill="url(#ac)" transform="matrix(.45318 0 0 .45318 33.21 78.17)"/>
 <path d="m61.57 87.316.768 1.537a1.537 1.537 0 1 1 3.074 0v1.537h-7.683v-3.073z" fill="url(#ah)" transform="matrix(.45318 0 0 .45318 33.21 78.17)"/>
 <path d="m63.107 88.852a.768.768 0 0 1 -.769.768h2.305v-.768a.769.769 0 0 0 -1.536 0zm-4.61-.768v1.537h3.841a.77.77 0 0 1 -.687-.425l-.556-1.112z" fill="url(#ai)" transform="matrix(.45318 0 0 .45318 33.21 78.17)"/>
 <path d="m72.704 56.899c.226.068.426.231.564.462.046.076.083.156.11.238.051.151.061.31.05.465l.077-.006c.106-.008.214.055.28.164l.858 1.435a.419.419 0 0 1 .037.08c.048.141.014.298-.092.375l-.91.672a.237.237 0 0 1 -.211.034.338.338 0 0 1 -.189-.154l-1.718-2.871a.4.4 0 0 1 -.055-.252.295.295 0 0 1 .11-.203l.455-.335a.704.704 0 0 1 .634-.104z" fill="#4a4a4a"/>
 <path d="m39.179 17.868 1.682-.351a1.535 1.535 0 0 1 -1.092-1.878 1.533 1.533 0 0 1 1.878-1.092l1.485.391-1.964 7.428-2.971-.786z" fill="url(#av)" transform="matrix(-.3434 .11573 .1406 .41718 84.39 46.08)"/>
 <path d="m40.868 15.367a.762.762 0 0 0 -.356.467v.001a.75.75 0 0 0 .079.582c.103.178.27.304.468.357a.77.77 0 0 1 .572.742v.021a.767.767 0 0 1 -.611.731l-1.218.254-.664 2.511 1.485.393 1.57-5.942-.741-.196a.766.766 0 0 0 -.585.078z" fill="url(#aw)" transform="matrix(-.3434 .11573 .1406 .41718 84.39 46.08)"/>
 <path d="m51.933 56.494a.911.911 0 0 0 -.541.45 1.19 1.19 0 0 0 -.145.71l-.067-.008c-.105-.011-.21.05-.27.158l-.804 1.43a.403.403 0 0 0 -.047.139.35.35 0 0 0 .116.326l.916.713c.06.047.136.062.209.042s.138-.074.18-.15l1.608-2.863a.408.408 0 0 0 .046-.255.323.323 0 0 0 -.115-.21l-.457-.355a.697.697 0 0 0 -.628-.126z" fill-opacity=".66"/>
 <path d="m44.84 19.469 1.718-.045a1.536 1.536 0 1 1 1.305-2.782l1.391.651-3.26 6.958-2.783-1.305 1.63-3.478z" fill="url(#at)" transform="matrix(.35866 .05181 -.06294 .43571 36.33 46.84)"/>
 <path d="m46.947 17.31a.76.76 0 0 0 -.432.395l-.001.002a.771.771 0 0 0 .371 1.022.768.768 0 0 1 -.307 1.463l-1.244.032-1.103 2.352 1.391.652 2.608-5.566-.695-.325a.763.763 0 0 0 -.589-.027z" fill="url(#au)" transform="matrix(.35866 .05181 -.06294 .43571 36.33 46.84)"/>
 <path d="m33.5 81v-3.5h3.5v3.5h-3zm.5-.5h2.5v-2.5h-2.5z" fill="#0075cd" opacity=".44"/>
 <path d="m35 77.438v-43h.5v43z" fill="url(#q)" opacity=".44"/>
 <path d="m36.5 56.5v-2.5h-2.5v2.5z" fill="url(#k)" opacity=".44"/>
 <path d="m111.98 82.489c0 4.46-2.8 6.41-5.28 8.094-5.11 3.46-14.9 3.32-20.72 3.406-.081 5.78.166 15.5-3.299 20.613-1.68 2.48-5.29 5.39-8.201 5.387 2.32 0 4.74-1.34 7.584-4.085 9.14-8.85 17.4-16.1 25.673-25.298 1.92-2.12 4.24-3.64 4.243-8.118z" fill="url(#O)"/>
 <path d="m111.994 83.198c-.316 3.899-3.123 5.903-5.45 7.481-5.109 3.465-14.738 3.125-20.519 3.206-.081 5.781.153 15.517-3.313 20.625-1.473 2.172-4.4 4.66-7.063 5.25 1.981-.362 3.885-1.661 6.269-3.969.339-.389.574-.679 1.106-1.5 3.465-5.109 3.232-14.313 3.313-20.094 5.781-.081 15.41.059 20.519-3.406.465-.316 1.594-1.188 2.006-1.6 1.536-1.536 2.902-2.613 3.131-5.994zm-36.344 36.563c-.158.035-.313.041-.469.063.157-.017.31-.034.469-.063z" fill="#fff"/>
 <path clip-path="url(#L)" d="m117.32 81.861-44.676 43.487" fill="none" filter="url(#K)" stroke="url(#aF)" stroke-width=".8" transform="translate(-.02 -.01)"/>
</svg>
