<?xml version="1.0" encoding="UTF-8" standalone="no"?>
<!-- Created with Inkscape (http://www.inkscape.org/) -->
<svg height="128" width="128" xmlns="http://www.w3.org/2000/svg" xmlns:xlink="http://www.w3.org/1999/xlink">
  <defs>
    <linearGradient id="linearGradient4336">
      <stop offset="0" stop-color="#fff"/>
      <stop offset="1" stop-color="#fff" stop-opacity="0"/>
    </linearGradient>
    <linearGradient id="linearGradient2959">
      <stop offset="0" stop-color="#fff"/>
      <stop offset="1" stop-opacity="0"/>
    </linearGradient>
    <linearGradient id="linearGradient3591" gradientUnits="userSpaceOnUse" x1="315.97525" x2="317.24475" xlink:href="#linearGradient4336" y1="153.1756" y2="-118.44309"/>
    <linearGradient id="linearGradient3595" gradientUnits="userSpaceOnUse" x1="315.97525" x2="174.34512" xlink:href="#linearGradient4336" y1="153.1756" y2="-94.264137"/>
    <linearGradient id="linearGradient3599" gradientUnits="userSpaceOnUse" x1="315.97525" x2="78.715927" xlink:href="#linearGradient4336" y1="153.1756" y2="-18.500385"/>
    <linearGradient id="linearGradient3603" gradientUnits="userSpaceOnUse" x1="315.97525" x2="32.773327" xlink:href="#linearGradient4336" y1="153.1756" y2="140.3024"/>
    <linearGradient id="linearGradient3607" gradientUnits="userSpaceOnUse" x1="315.97525" x2="581.50769" xlink:href="#linearGradient4336" y1="153.1756" y2="145.16879"/>
    <filter id="filter4010" height="1.916436" width="1.117908" x="-.058954" y="-.458218">
      <feGaussianBlur stdDeviation="5.9996441"/>
    </filter>
    <filter id="filter4014" height="1.491835" width="1.117851" x="-.058925" y="-.245918">
      <feGaussianBlur stdDeviation="5.9996441"/>
    </filter>
    <filter id="filter4018">
      <feGaussianBlur stdDeviation="5.9996441"/>
    </filter>
    <filter id="filter4022" height="1.128898" width="1.205533" x="-.102766" y="-.064449">
      <feGaussianBlur stdDeviation="5.9996441"/>
    </filter>
    <filter id="filter4026" height="1.117716" width="1.277903" x="-.138952" y="-.058858">
      <feGaussianBlur stdDeviation="5.9996441"/>
    </filter>
    <linearGradient id="linearGradient4042" gradientUnits="userSpaceOnUse" x1="114.10660692773" x2="114.10660692773" xlink:href="#linearGradient2959" y1="318.57339882194" y2="344.27190299975"/>
    <linearGradient id="linearGradient4044" gradientUnits="userSpaceOnUse" x1="330.57614575627" x2="330.57614575627" xlink:href="#linearGradient2959" y1="291.90134100418" y2="318.6247499134"/>
    <linearGradient id="linearGradient4046" gradientUnits="userSpaceOnUse" x1="338.7321340772" x2="193.72365935333" xlink:href="#linearGradient4336" y1="17.50864468658" y2="148.02701554621"/>
    <linearGradient id="linearGradient4048" gradientUnits="userSpaceOnUse" x1="-31.85797060175" x2="172.495993676" xlink:href="#linearGradient4336" y1="2.03043052506" y2="170.967496384"/>
    <linearGradient id="linearGradient4050" gradientUnits="userSpaceOnUse" x1="212.77951553186" x2="212.77951553186" xlink:href="#linearGradient4336" y1="59.06891370658" y2="258.35848127888"/>
    <linearGradient id="linearGradient4052" gradientUnits="userSpaceOnUse" x1="305.46776722473" x2="310.9970528451" xlink:href="#linearGradient2959" y1="319.24065240195" y2="348.3422390551"/>
    <linearGradient id="linearGradient4054" gradientUnits="userSpaceOnUse" x1="217.91417" x2="206.34135" xlink:href="#linearGradient4336" y1="214.50394" y2="375.45081"/>
    <radialGradient id="radialGradient4180" cx="196.71767" cy="220.25488" gradientTransform="matrix(1 0 0 .9868526 0 2.895778)" gradientUnits="userSpaceOnUse" r="168.58784">
      <stop offset="0"/>
      <stop offset="1" stop-opacity="0"/>
    </radialGradient>
    <linearGradient id="linearGradient4342" gradientUnits="userSpaceOnUse" x1="204.58527" x2="204.89148" xlink:href="#linearGradient4336" y1="364.6275" y2="186.28485"/>
    <filter id="filter4380">
      <feGaussianBlur stdDeviation="5.4811503"/>
    </filter>
  </defs>
  <path d="m248.005-85.393691a244.36258 244.36258 0 0 1 103.62712-.468805l-50.73322 239.038096z" fill="url(#linearGradient3591)" filter="url(#filter4026)" opacity=".430712" transform="matrix(.2577305 0 0 .2577305 -13.662494 34.851726)"/>
  <path d="m160.78347-47.026146a244.36258 244.36258 0 0 1 41.13619-23.217551l98.97924 223.419297z" fill="url(#linearGradient3595)" filter="url(#filter4022)" opacity=".430712" transform="matrix(.2577305 0 0 .2577305 -13.662494 34.851726)"/>
  <path d="m78.715925 51.451472a244.36258 244.36258 0 0 1 48.285225-69.951857l173.89775 171.675985z" fill="url(#linearGradient3599)" filter="url(#filter4018)" opacity=".430712" transform="matrix(.2577305 0 0 .2577305 -13.662494 34.851726)"/>
  <path d="m56.536319 153.21723a244.36258 244.36258 0 0 1 7.108449-58.552737l237.254132 58.511107z" fill="url(#linearGradient3603)" filter="url(#filter4014)" opacity=".430712" transform="matrix(.2577305 0 0 .2577305 -13.662494 34.851726)"/>
  <path d="m543.23253 121.75138a244.36258 244.36258 0 0 1 2.02894 31.42422" fill="url(#linearGradient3607)" filter="url(#filter4010)" opacity=".430712" transform="matrix(.2577305 0 0 .2577305 -13.662494 34.851726)"/>
  <path d="m160.78347-47.026146a244.36258 244.36258 0 0 1 41.13619-23.217551l98.97924 223.419297z" fill="url(#linearGradient3595)" filter="url(#filter4022)" opacity=".430712" transform="matrix(-.2577305 0 0 .2577305 141.32744 34.851726)"/>
  <path d="m78.715925 51.451472a244.36258 244.36258 0 0 1 48.285225-69.951857l173.89775 171.675985z" fill="url(#linearGradient3599)" filter="url(#filter4018)" opacity=".430712" transform="matrix(-.2577305 0 0 .2577305 141.32744 34.851726)"/>
  <path d="m56.536319 153.21723a244.36258 244.36258 0 0 1 7.108449-58.552737l237.254132 58.511107z" fill="url(#linearGradient3603)" filter="url(#filter4014)" opacity=".430712" transform="matrix(-.2577305 0 0 .2577305 141.32744 34.851726)"/>
  <g transform="matrix(.2967245 0 0 .2967245 5.173318 1.663238)">
    <path d="m193.85221 53.883613c-10.42583-.020847-20.74857 3.7791-28.23033 11.436902l-124.474037 127.369455c-42.05537176 52.08047 28.624106 46.00588 58.921767 61.00646 10.86824 11.10914-41.675497 19.31244-30.807255 30.43085 10.868244 11.10914 65.725995 21.40641 76.612765 32.51555 10.86824 11.10914-22.24723 22.88307-11.37899 33.99221 10.86823 11.10913 36.00279.25962 40.70958 25.90608 3.35406 18.32683 45.2994 8.21353 65.81286-6.79632 10.86825-11.1184-20.77057-10.08532-9.90233-21.19446 27.02699-27.63852 52.16502-10.03321 61.41182-37.7273 4.56781-13.68491-39.78304-21.08791-28.89627-32.19705 31.27051-18.26198 139.36227-30.16447 88.07863-81.44812l-129.01985-131.857355c-7.88943-7.574414-18.41254-11.416055-28.83836-11.436902zm-58.02419 206.703917c3.32626 2.06616 53.63357 12.29395 65.92868 14.33232 4.26205.89874 1.24155 5.28703-4.63267 8.25194-13.24944 3.52083-77.51035-22.58426-61.29601-22.58426z" fill="url(#linearGradient4342)" filter="url(#filter4380)" opacity=".64794"/>
    <path d="m193.85221 53.883613c-10.42583-.020847-20.74857 3.7791-28.23033 11.436902l-124.474037 127.369455c-42.05537176 52.08047 28.624106 46.00588 58.921767 61.00646 10.86824 11.10914-41.675497 19.31244-30.807255 30.43085 10.868244 11.10914 65.725995 21.40641 76.612765 32.51555 10.86824 11.10914-22.24723 22.88307-11.37899 33.99221 10.86823 11.10913 36.00279.25962 40.70958 25.90608 3.35406 18.32683 45.2994 8.21353 65.81286-6.79632 10.86825-11.1184-20.77057-10.08532-9.90233-21.19446 27.02699-27.63852 52.16502-10.03321 61.41182-37.7273 4.56781-13.68491-39.78304-21.08791-28.89627-32.19705 31.27051-18.26198 139.36227-30.16447 88.07863-81.44812l-129.01985-131.857355c-7.88943-7.574414-18.41254-11.416055-28.83836-11.436902zm-58.02419 206.703917c3.32626 2.06616 53.63357 12.29395 65.92868 14.33232 4.26205.89874 1.24155 5.28703-4.63267 8.25194-13.24944 3.52083-77.51035-22.58426-61.29601-22.58426z"/>
    <path d="m308.58953 310.82072c0 6.31896 46.55833 10.46057 46.55833-1.49172-6.63399-19.19778-41.05472-17.90063-46.55833 1.49172z"/>
    <path d="m98.859321 344.39831c11.025749 9.53403 28.055449-2.37193 33.160649-15.67695-10.68294-14.1945-50.672139.50959-33.160649 15.67695z"/>
    <path d="m302.75237 323.80146c-14.21303 12.74911 1.59363 25.68352 15.60283 17.44663 3.12241-3.16874-.08339-14.27788-15.60283-17.44663z"/>
    <path d="m117.50763 324.19981c-10.86867-.10082-23.313657 6.46205-20.806869 14.29103 4.695879-.19863 10.233139-1.07144 16.043189-2.62824 6.73207-1.80385 12.69052-4.22168 17.11091-6.78961-2.73778-3.36651-7.36639-4.82698-12.34723-4.87318z" fill="url(#linearGradient4042)"/>
    <path d="m331.82858 296.6206c-7.79316.2684-15.48889 3.65012-19.30958 9.94899 5.58516 1.54407 12.74894 2.48724 20.56658 2.48724 7.35456 0 14.12233-.83682 19.55029-2.21981-3.84218-7.16071-12.37506-10.50683-20.80729-10.21642z" fill="url(#linearGradient4044)"/>
    <path d="m190.90409 60.26171c-9.72361-.019443-19.30269 3.528676-26.22554 10.614428l-121.247257 124.042012c-.027832.03448-.056965.05029-.08469.08469l-.02823.05646c-10.004329 12.43099-12.979332 21.11944-11.969461 27.07244 1.014134 5.97814 6.011515 10.05306 13.663253 13.29626 15.303476 6.48643 39.916656 8.62862 55.274075 16.23218l.28229.11292.19761.22583c1.61787 1.65372 2.32089 3.81076 1.77848 5.70244-.5424 1.89167-1.94654 3.34872-3.669877 4.68615-3.446691 2.67488-8.584182 4.98556-13.663254 7.33977-5.079071 2.35421-10.110148 4.73377-12.957506 6.94454-1.42368 1.10539-2.209744 2.16063-2.399539 2.82299s-.156262 1.11857.875126 2.1737c2.215344 2.26445 7.440524 4.99202 14.030242 7.59383 6.589717 2.60182 14.572561 5.21082 22.583878 7.81967 8.01133 2.60886 16.05685 5.2108 22.80974 7.87613 6.75287 2.66533 12.18551 5.26261 15.27235 8.4125 1.54069 1.57485 2.45357 3.36041 2.65361 5.16607.20003 1.80566-.28401 3.54535-1.07274 5.13783-1.57747 3.18497-4.40258 6.01889-7.11392 8.80772-2.71134 2.78884-5.29965 5.52395-6.46464 7.87614-.58251 1.17608-.80962 2.19591-.70574 3.13351.10386.9376.5007 1.88763 1.6091 3.02059 4.61189 4.71411 12.93474 4.99393 21.22885 6.97278 4.14706.98942 8.28542 2.49928 11.71539 5.50482 3.42999 3.00555 6.0241 7.47664 7.22685 14.03025.69203 3.78126 3.15062 5.90454 7.33977 7.11392 4.18914 1.20938 9.99923 1.21283 16.40155.16937 12.74987-2.07797 27.76897-8.22209 37.46102-15.27235 1.08435-1.13974 1.51597-2.01051 1.6091-2.51245.09658-.52041.02316-.76566-.36699-1.27035-.78027-1.00936-3.11469-2.32844-5.64597-3.55696-2.53127-1.22852-5.25209-2.38544-6.94454-4.57324-.84623-1.09389-1.35896-2.60854-1.07274-4.14979.28623-1.54125 1.20897-2.98303 2.68184-4.48855 13.50528-13.81084 26.82567-16.41774 37.31988-18.85755 5.2471-1.2199 9.73588-2.43631 13.38096-4.8273 3.64507-2.391 6.59347-5.93038 8.75125-12.39291.40995-1.22818.28581-2.23238-.2823-3.38758-.56811-1.15521-1.6756-2.40601-3.18997-3.66989-3.02877-2.52776-7.61425-5.00881-12.08238-7.42445-4.46814-2.41564-8.81678-4.73289-11.63071-7.45269-1.40696-1.35989-2.50465-2.87761-2.7383-4.74261-.23364-1.86501.59718-3.81142 2.17371-5.42014l.16938-.16938.1976-.11291c7.93967-4.63677 20.28853-8.66803 33.67823-13.0422 13.38969-4.37418 27.78776-9.06884 39.57826-14.67953 11.79051-5.61068 20.81073-12.20238 23.82601-19.81737 1.50763-3.80748 1.63341-7.8886-.08469-12.6752s-5.36401-10.24777-11.48956-16.37332l-125.76403-128.530562c-7.33323-7.04044-17.1512-10.623216-26.87483-10.642658zm-56.57264 197.91956h.53636l.42345.2823c-.17784-.11047 1.10314.41694 2.7383.87513s3.85707 1.01589 6.46464 1.63733c5.21515 1.24288 12.0097 2.73984 19.08338 4.23448 14.14738 2.98926 29.43879 5.9938 35.3438 6.97278h.02822.05646c1.37147.28919 2.65927 1.03511 3.16174 2.34307.50248 1.30797.06221 2.60641-.56459 3.64166-1.25361 2.07048-3.61795 3.89756-6.69048 5.44836l-.16938.08469-.16937.05646c-4.11541 1.0936-10.38351-.07558-17.92597-2.00432s-16.14513-4.80195-23.85423-7.79144c-7.70911-2.98949-14.46774-6.04448-18.51879-8.49719-1.01276-.61318-1.85852-1.20668-2.54069-1.77848-.68217-.57181-1.28037-1.05583-1.6091-2.06078-.16437-.50248-.173-1.22826.14115-1.83494.31414-.60669.80263-.95673 1.24211-1.15743.87894-.40139 1.71374-.45168 2.82299-.45168z" fill="url(#linearGradient4046)"/>
    <path d="m198.35231 58.707453c-9.77616-.019548-19.407 3.547747-26.36728 10.671791l-121.902502 124.712366c-.027983.03466-.057273.05055-.085147.08515l-.028383.05677c-10.058394 12.49816-13.049474 21.23357-12.034147 27.21874 1.019615 6.01044 6.044003 10.10738 13.737093 13.36812 15.386179 6.52148 40.132374 8.67524 55.572786 16.31989l.28383.11353.19867.22706c1.62661 1.66265 2.33342 3.83135 1.78809 5.73325-.54533 1.90191-1.95706 3.36682-3.68971 4.71148-3.46532 2.68933-8.630575 5.0125-13.737095 7.37944-5.10652 2.36692-10.164786 4.75935-13.027533 6.98207-1.431373 1.11136-2.221685 2.1723-2.412506 2.83824-.19082.66594-.157106 1.12462.879855 2.18545 2.227317 2.27669 7.480736 5.01899 14.106065 7.63487s14.651314 5.23898 22.705934 7.86193 16.14362 5.23896 22.933 7.9187c6.78937 2.67974 12.25137 5.29104 15.35489 8.45796 1.54902 1.58336 2.46682 3.37857 2.66795 5.19398.20112 1.81542-.28554 3.56452-1.07853 5.16561-1.586 3.20217-4.42638 6.05141-7.15237 8.85531-2.726 2.8039-5.32829 5.5538-6.49958 7.91869-.58565 1.18245-.81399 2.20779-.70956 3.15046.10443.94266.50341 1.89783 1.6178 3.03692 4.63681 4.73958 13.00465 5.02091 21.34358 7.01045 4.16947.99476 8.33019 2.51279 11.7787 5.53458 3.44852 3.02178 6.05665 7.51704 7.26591 14.10606.69576 3.8017 3.16765 5.93645 7.37942 7.15237 4.21178 1.21592 10.05328 1.21938 16.49019.17029 12.81878-2.0892 27.91904-8.26653 37.66348-15.35489 1.09021-1.1459 1.52416-2.02138 1.6178-2.52603.09709-.52322.02327-.7698-.36898-1.27721-.78448-1.01482-3.13152-2.34103-5.67648-3.57618-2.54496-1.23516-5.28048-2.39834-6.98207-4.59795-.8508-1.09982-1.36631-2.62264-1.07853-4.17222.28776-1.54959 1.2155-2.99916 2.69632-4.51281 13.57827-13.88549 26.97064-16.50648 37.52157-18.95946 5.27546-1.2265 9.78849-2.44948 13.45327-4.85339 3.66477-2.40391 6.62911-5.96243 8.79855-12.45988.41217-1.23482.28735-2.24446-.28383-3.40589-.57118-1.16145-1.68465-2.41902-3.20721-3.68972-3.04513-2.54142-7.6554-5.03589-12.14768-7.46458s-8.86442-4.75847-11.69356-7.49296c-1.41456-1.36724-2.51819-2.89317-2.75309-4.76825-.23491-1.87508.60041-3.83201 2.18544-5.44943l.1703-.17028.19867-.11354c7.98258-4.66183 20.39819-8.71487 33.86024-13.11268s27.93792-9.11784 39.79216-14.75886c11.85422-5.64101 20.92319-12.26833 23.95476-19.92446 1.51578-3.82807 1.64224-7.93123-.08515-12.74371-1.72738-4.81247-5.393-10.30315-11.55164-16.4618l-126.4437-129.225173c-7.37287-7.078487-17.24389-10.680626-27.02006-10.700174zm-56.87838 198.989167h.53926l.42574.28383c-.17881-.11107 1.1091.41918 2.7531.87985 1.64398.46067 3.8779 1.02138 6.49957 1.64619 5.24334 1.24959 12.07461 2.75464 19.18651 4.25735 14.22384 3.00543 29.59789 6.0262 35.5348 7.01046h.02838.05677c1.37889.29077 2.67364 1.04071 3.17883 2.35574.50519 1.31504.06254 2.6205-.56764 3.66134-1.26039 2.08167-3.63751 3.91863-6.72664 5.47781l-.1703.08514-.17029.05677c-4.13765 1.09951-10.43962-.07599-18.02284-2.01516-7.58323-1.93916-16.23238-4.8279-23.98314-7.83355-7.75077-3.00564-14.54593-6.07714-18.61888-8.5431-1.01823-.6165-1.86856-1.2132-2.55441-1.78809-.68586-.5749-1.28729-1.06154-1.61781-2.07193-.16524-.50518-.17393-1.23489.14192-1.84485.31584-.60996.80697-.96189 1.24883-1.16368.88369-.40357 1.72299-.45412 2.83824-.45412z" fill="url(#linearGradient4048)"/>
    <path d="m303.28515 325.06096c-2.98472 2.32682-4.95633 6.29116-4.20056 9.86805 7.31029 2.90274 12.21396 2.10889 17.58728-1.5741-2.44463-4.63675-7.98743-7.63041-13.38672-8.29395z" fill="url(#linearGradient4052)" fill-rule="evenodd"/>
    <path d="m262.69863 274.93273c-97.74922 36.60293-101.22922-19.87928-114.36423 34.47824 24.4097 14.34322-16.50775 24.79363-6.03514 33.26345 18.64166 15.07661 64.64477 5.56298 93.10699-6.86192 12.88542-5.625 25.10786-12.01573 38.97034-14.36227 13.13282-2.22303 24.96992-15.85318 19.56489-22.30193-9.67227-11.54001-29.64082-13.69065-31.24285-24.21557z" fill="url(#linearGradient4054)" fill-rule="evenodd" opacity=".329588" transform="matrix(.9265339 0 0 .9265339 14.452086 28.403932)"/>
    <path d="m193.85221 53.883613c-10.42583-.020847-20.74857 3.7791-28.23033 11.436902l-124.474037 127.369455c-42.05537176 52.08047 28.624106 46.00588 58.921767 61.00646 10.86824 11.10914-41.675497 19.31244-30.807255 30.43085 10.868244 11.10914 65.725995 21.40641 76.612765 32.51555 10.86824 11.10914-22.24723 22.88307-11.37899 33.99221 10.86823 11.10913 36.00279.25962 40.70958 25.90608 3.35406 18.32683 45.2994 8.21353 65.81286-6.79632 10.86825-11.1184-20.77057-10.08532-9.90233-21.19446 27.02699-27.63852 52.16502-10.03321 61.41182-37.7273 4.56781-13.68491-39.78304-21.08791-28.89627-32.19705 31.27051-18.26198 139.36227-30.16447 88.07863-81.44812l-129.01985-131.857355c-7.88943-7.574414-18.41254-11.416055-28.83836-11.436902zm-58.02419 206.703917c3.32626 2.06616 53.63357 12.29395 65.92868 14.33232 4.26205.89874 1.24155 5.28703-4.63267 8.25194-13.24944 3.52083-77.51035-22.58426-61.29601-22.58426z" fill="url(#radialGradient4180)"/>
    <path d="m216.46557 68.981352 52.25685 53.072898c4.9553 5.06346 4.88648 14.87575 2.11386 17.69752l-25.94652-20.75526-5.10278 30.7347-21.67947-11.4444-34.71664 21.9351-11.49355-46.2397-18.65122 32.26848h-28.51267c-11.62138 0-12.98802-14.74793-2.4285-25.30745 18.44475-19.90971 39.61295-40.202869 51.11634-51.961888 11.56238-11.818011 31.70806-11.483725 43.0443 0z" fill="url(#linearGradient4050)"/>
  </g>
</svg>
