<?xml version="1.0" encoding="UTF-8" standalone="no"?>
<!-- Created with Inkscape (http://www.inkscape.org/) -->
<svg height="128" width="128" xmlns="http://www.w3.org/2000/svg" xmlns:xlink="http://www.w3.org/1999/xlink">
  <defs>
    <radialGradient id="radialGradient3336" cx="63.912209" cy="115.70919" fy="115.7093" gradientTransform="matrix(1 0 0 .197802 0 92.82166)" gradientUnits="userSpaceOnUse" r="63.912209">
      <stop offset="0"/>
      <stop offset="1" stop-opacity="0"/>
    </radialGradient>
    <linearGradient id="linearGradient2934">
      <stop offset="0" stop-color="#fff"/>
      <stop offset="1" stop-color="#fff" stop-opacity="0"/>
    </linearGradient>
    <radialGradient id="radialGradient2854" cx="196.90475" cy="130.04858" gradientTransform="matrix(1.549768 -.258418 1.49383 6.309891 -406.3887 -686.4279)" gradientUnits="userSpaceOnUse" r="4.88499" xlink:href="#linearGradient2934"/>
    <radialGradient id="radialGradient2857" cx="200.24985" cy="134.45642" gradientTransform="matrix(1.312696 -.837636 6.556817 10.85398 -1039.388 -1182.19)" gradientUnits="userSpaceOnUse" r="4.88499" xlink:href="#linearGradient2934"/>
    <radialGradient id="radialGradient2864" cx="193.3486" cy="131.29668" gradientTransform="matrix(1.867631 -.928216 1.38337 2.766881 -453.995 -87.06092)" gradientUnits="userSpaceOnUse" r="17.107521">
      <stop offset="0" stop-color="#fff" stop-opacity="0"/>
      <stop offset=".86263734" stop-color="#fff" stop-opacity="0"/>
      <stop offset="1" stop-color="#fff"/>
    </radialGradient>
    <radialGradient id="radialGradient2867" cx="200.0015" cy="130.46106" gradientTransform="matrix(1.718227 -.965481 1.396683 2.553804 -425.9114 -51.57472)" gradientUnits="userSpaceOnUse" r="17.107522">
      <stop offset="0" stop-opacity="0"/>
      <stop offset=".71978021" stop-opacity="0"/>
      <stop offset="1"/>
    </radialGradient>
    <radialGradient id="radialGradient2870" cx="202.2841" cy="130.64581" gradientTransform="matrix(.368175 -.227187 2.213081 3.761264 -280.8341 -379.0429)" gradientUnits="userSpaceOnUse" r="4.88499" xlink:href="#linearGradient2934"/>
    <radialGradient id="radialGradient2873" cx="198.04857" cy="133.20532" fx="204.73868" fy="122.55286" gradientTransform="matrix(1.57277 -.235136 .55273 2.480848 -286.139 -187.0808)" gradientUnits="userSpaceOnUse" r="17.107521">
      <stop offset="0" stop-color="#ffae5d"/>
      <stop offset=".5" stop-color="#cf6f10"/>
      <stop offset="1" stop-color="#643100"/>
    </radialGradient>
  </defs>
  <g>
    <path d="m127.82442 115.70919a63.912209 12.641975 0 1 1 -127.82442 0 63.912209 12.641975 0 1 1 127.82442 0z" fill="url(#radialGradient3336)" opacity=".381395" transform="matrix(1.001374 0 0 .410379 -.000024 75.32738)"/>
    <path d="m50.892799 3.2812959v-2.79470843z" fill="#fff" fill-opacity=".756881"/>
    <g transform="matrix(.995915 0 0 1 .013429 0)">
      <g fill="none" transform="translate(-159.7688 -.044194)">
        <path d="m214.21875 5.0625c-7.78711.0238123-15.6802 1.903843-23.40625 5.90625-25.01603 12.977932-35.99785 44.378482-18.53125 68.75 37.27502 51.98842 76.44448 42.59166 91.21875 26.625.82954-.89649 1.03047-1.57657.84375-2.125-.04697-.14285-.12353-.27978-.21875-.40625-.17818-.23848-.41327-.45962-.71875-.65625-.00738-.00473-.02382.00471-.03125 0-.15017-.09554-.2986-.19198-.46875-.28125-.00791-.00414-.02331.00413-.03125 0-.35098-.18275-.73334-.35936-1.125-.53125-.00885-.0039-.0224.0039-.03125 0-.33693-.14776-.67289-.31474-1-.46875-.06341-.03029-.12536-.06289-.1875-.09375-.16983-.08283-.34252-.16199-.5-.25-.02136-.01225-.04144-.01888-.0625-.03125-.49234-.28924-.89085-.63919-1.125-1.03125.6549.04142 1.34129.07439 2 .0625.69406-.01253 1.37731-.0906 2.0625-.15625.21789-.02008.45847-.03581.6875-.0625.13452-.01626.27258-.01314.40625-.03125.09017-.01189.18969-.01823.28125-.03125.29896-.04353.58151-.10391.875-.15625.39573-.06993.80614-.156079 1.21875-.25.33619-.075489.64438-.164082.96875-.25.09358-.024788.18876-.036893.28125-.0625.06239-.017825.12492-.044043.1875-.0625.37654-.10738.73816-.223762 1.09375-.34375 1.32808-.448138 2.50973-.957334 3.4375-1.53125.30392-.121942.54896-.266816.6875-.375.01404-.008486.01915-.02267.03125-.03125.03528-.019853.07332-.039665.09375-.0625.00537-.008312-.00403-.023085 0-.03125.0228-.023894.0332-.061214.03125-.09375-.06615.052053-.14729.105696-.21875.15625-.00797.001628-.02283-.001452-.03125 0 .08063-.05211.16985-.102535.25-.15625.68932-.461947 1.35895-1.004628 2-1.59375 9.72817-8.940145 10.80493-24.132375 7.15625-33.125-13.73299-33.846859-40.31389-57.303794-68.125-57.21875z" opacity=".300366" stroke="#574739" stroke-width="2"/>
        <g stroke="#2e231a">
          <path d="m214.21875 5.0625c-7.78711.0238123-15.6802 1.903843-23.40625 5.90625-25.01603 12.977932-35.99785 44.378482-18.53125 68.75 37.27502 51.98842 76.44448 42.59166 91.21875 26.625.82954-.89649 1.03047-1.57657.84375-2.125-.04697-.14285-.12353-.27978-.21875-.40625-.17818-.23848-.41327-.45962-.71875-.65625-.00738-.00473-.02382.00471-.03125 0-.15017-.09554-.2986-.19198-.46875-.28125-.00791-.00414-.02331.00413-.03125 0-.35098-.18275-.73334-.35936-1.125-.53125-.00885-.0039-.0224.0039-.03125 0-.33693-.14776-.67289-.31474-1-.46875-.06341-.03029-.12536-.06289-.1875-.09375-.16983-.08283-.34252-.16199-.5-.25-.02136-.01225-.04144-.01888-.0625-.03125-.49234-.28924-.89085-.63919-1.125-1.03125.6549.04142 1.34129.07439 2 .0625.69406-.01253 1.37731-.0906 2.0625-.15625.21789-.02008.45847-.03581.6875-.0625.13452-.01626.27258-.01314.40625-.03125.09017-.01189.18969-.01823.28125-.03125.29896-.04353.58151-.10391.875-.15625.39573-.06993.80614-.156079 1.21875-.25.33619-.075489.64438-.164082.96875-.25.09358-.024788.18876-.036893.28125-.0625.06239-.017825.12492-.044043.1875-.0625.37654-.10738.73816-.223762 1.09375-.34375 1.32808-.448138 2.50973-.957334 3.4375-1.53125.30392-.121942.54896-.266816.6875-.375.01404-.008486.01915-.02267.03125-.03125.03528-.019853.07332-.039665.09375-.0625.00537-.008312-.00403-.023085 0-.03125.0228-.023894.0332-.061214.03125-.09375-.06615.052053-.14729.105696-.21875.15625-.00797.001628-.02283-.001452-.03125 0 .08063-.05211.16985-.102535.25-.15625.68932-.461947 1.35895-1.004628 2-1.59375 9.72817-8.940145 10.80493-24.132375 7.15625-33.125-13.73299-33.846859-40.31389-57.303794-68.125-57.21875z" opacity=".25" stroke-width="4"/>
          <path d="m214.21875 5.0625c-7.78711.0238123-15.6802 1.903843-23.40625 5.90625-25.01603 12.977932-35.99785 44.378482-18.53125 68.75 37.27502 51.98842 76.44448 42.59166 91.21875 26.625.82954-.89649 1.03047-1.57657.84375-2.125-.04697-.14285-.12353-.27978-.21875-.40625-.17818-.23848-.41327-.45962-.71875-.65625-.00738-.00473-.02382.00471-.03125 0-.15017-.09554-.2986-.19198-.46875-.28125-.00791-.00414-.02331.00413-.03125 0-.35098-.18275-.73334-.35936-1.125-.53125-.00885-.0039-.0224.0039-.03125 0-.33693-.14776-.67289-.31474-1-.46875-.06341-.03029-.12536-.06289-.1875-.09375-.16983-.08283-.34252-.16199-.5-.25-.02136-.01225-.04144-.01888-.0625-.03125-.49234-.28924-.89085-.63919-1.125-1.03125.6549.04142 1.34129.07439 2 .0625.69406-.01253 1.37731-.0906 2.0625-.15625.21789-.02008.45847-.03581.6875-.0625.13452-.01626.27258-.01314.40625-.03125.09017-.01189.18969-.01823.28125-.03125.29896-.04353.58151-.10391.875-.15625.39573-.06993.80614-.156079 1.21875-.25.33619-.075489.64438-.164082.96875-.25.09358-.024788.18876-.036893.28125-.0625.06239-.017825.12492-.044043.1875-.0625.37654-.10738.73816-.223762 1.09375-.34375 1.32808-.448138 2.50973-.957334 3.4375-1.53125.30392-.121942.54896-.266816.6875-.375.01404-.008486.01915-.02267.03125-.03125.03528-.019853.07332-.039665.09375-.0625.00537-.008312-.00403-.023085 0-.03125.0228-.023894.0332-.061214.03125-.09375-.06615.052053-.14729.105696-.21875.15625-.00797.001628-.02283-.001452-.03125 0 .08063-.05211.16985-.102535.25-.15625.68932-.461947 1.35895-1.004628 2-1.59375 9.72817-8.940145 10.80493-24.132375 7.15625-33.125-13.73299-33.846859-40.31389-57.303794-68.125-57.21875z" opacity=".2" stroke-width="6"/>
          <path d="m214.21875 5.0625c-7.78711.0238123-15.6802 1.903843-23.40625 5.90625-25.01603 12.977932-35.99785 44.378482-18.53125 68.75 37.27502 51.98842 76.44448 42.59166 91.21875 26.625.82954-.89649 1.03047-1.57657.84375-2.125-.04697-.14285-.12353-.27978-.21875-.40625-.17818-.23848-.41327-.45962-.71875-.65625-.00738-.00473-.02382.00471-.03125 0-.15017-.09554-.2986-.19198-.46875-.28125-.00791-.00414-.02331.00413-.03125 0-.35098-.18275-.73334-.35936-1.125-.53125-.00885-.0039-.0224.0039-.03125 0-.33693-.14776-.67289-.31474-1-.46875-.06341-.03029-.12536-.06289-.1875-.09375-.16983-.08283-.34252-.16199-.5-.25-.02136-.01225-.04144-.01888-.0625-.03125-.49234-.28924-.89085-.63919-1.125-1.03125.6549.04142 1.34129.07439 2 .0625.69406-.01253 1.37731-.0906 2.0625-.15625.21789-.02008.45847-.03581.6875-.0625.13452-.01626.27258-.01314.40625-.03125.09017-.01189.18969-.01823.28125-.03125.29896-.04353.58151-.10391.875-.15625.39573-.06993.80614-.156079 1.21875-.25.33619-.075489.64438-.164082.96875-.25.09358-.024788.18876-.036893.28125-.0625.06239-.017825.12492-.044043.1875-.0625.37654-.10738.73816-.223762 1.09375-.34375 1.32808-.448138 2.50973-.957334 3.4375-1.53125.30392-.121942.54896-.266816.6875-.375.01404-.008486.01915-.02267.03125-.03125.03528-.019853.07332-.039665.09375-.0625.00537-.008312-.00403-.023085 0-.03125.0228-.023894.0332-.061214.03125-.09375-.06615.052053-.14729.105696-.21875.15625-.00797.001628-.02283-.001452-.03125 0 .08063-.05211.16985-.102535.25-.15625.68932-.461947 1.35895-1.004628 2-1.59375 9.72817-8.940145 10.80493-24.132375 7.15625-33.125-13.73299-33.846859-40.31389-57.303794-68.125-57.21875z" opacity=".1" stroke-width="8"/>
        </g>
      </g>
      <g fill-rule="evenodd" transform="matrix(1.748749 -.803677 .504731 1.633089 -154.1897 -10.21558)">
        <path d="m89.606354 55.866666c20.898206-1.127834 36.451486 22.923489 38.587666 50.997344.44341 5.82721-2.49993 13.86873-8.87092 16.3097-4.04797 1.55093-8.53232-1.0206-9.13871-1.34112.32045 1.51772 3.7122 3.24153 1.45455 4.36718-10.0523 5.01199-31.516582.31737-42.333014-37.432509-5.066807-17.6948 5.495587-32.091594 20.300428-32.900595z" fill="url(#radialGradient2873)"/>
        <path d="m80.120358 62.917497c4.375276 7.346984 11.784189 18.391492 15.667248 26.424914 2.122366 5.412468 4.254604 11.752109 6.382124 17.649929 2.07524 5.41041 4.85831 9.59808 7.28766 14.39683-.16358.54599.72659 1.4767 1.10078 1.83788-.13236.58425-1.87317-2.12024-2.8575-3.73166-1.37929-2.25794-5.48613-8.21969-6.31737-10.73888-1.830027-5.79636-4.282428-12.189559-7.659001-18.684284-2.851329-6.220085-17.590359-28.724589-13.603941-27.154729z" fill="url(#radialGradient2870)" opacity=".213115"/>
        <path d="m89.606354 55.866666c-15.209697 10.801916 1.079355 61.478734 20.543066 65.936294.32045 1.51772 3.74717 3.27116 1.48952 4.39681-10.0523 5.01199-31.516582.31737-42.333014-37.432509-5.066807-17.6948 5.495587-32.091594 20.300428-32.900595z" fill="url(#radialGradient2867)"/>
        <path d="m89.42448 56.258292c20.8342-1.115003 36.34017 22.806001 38.47017 50.722778.4421 5.7946-2.49232 13.78951-8.84357 16.2153 6.21362-30.997052-7.33801-42.55623-29.6266-66.938078z" fill="url(#radialGradient2864)" opacity=".840164"/>
        <path d="m82.808439 67.096944c4.375283 7.346985 9.096108 14.212045 12.979167 22.245467 2.122366 5.412468 4.254604 11.752109 6.382124 17.649929 2.07524 5.41041 4.85831 9.59808 7.28766 14.39683 2.95955 1.95765 6.74818 2.67201 8.58962 2.15287-.13233.58428-7.39558-2.66139-8.37991-4.27284-1.3793-2.25795-6.00236-14.41974-5.85955-14.279-1.83003-5.796359-2.96355-11.365594-6.340134-17.860321-4.181256-8.541008-13.188191-20.173497-14.658977-20.032935z" opacity=".106557"/>
        <path d="m82.808439 67.096944c4.375283 7.346985 9.096108 14.212045 12.979167 22.245467 2.122366 5.412468 4.254604 11.752109 6.382124 17.649929 2.07524 5.41041 4.85831 9.59808 7.28766 14.39683 2.95955 1.95765 6.74818 2.67201 8.58962 2.15287-.13233.58428-7.10285-1.64017-8.3228-3.06188-1.60413-1.8695-7.61999-14.38251-7.26771-14.60359-1.83003-5.79636-3.151797-11.385059-6.528371-17.879767-4.181257-8.541009-11.648904-21.040421-13.11969-20.899859z" opacity=".20082"/>
        <path d="m83.593244 68.084879c4.375281 7.346961 8.311303 13.22411 12.194362 21.257532 2.122366 5.412468 4.254604 11.752109 6.382124 17.649929 2.07524 5.41041 4.85831 9.59808 7.28766 14.39683 2.95955 1.95765 6.74818 2.67201 8.58962 2.15287-.13233.58428-6.70752-1.90949-7.92746-3.33121-1.60414-1.86948-7.57799-14.59292-7.22572-14.814-1.83852-5.794948-3.353039-11.351499-6.528369-17.879767-4.181241-8.541009-11.301433-19.572768-12.772217-19.432184z" opacity=".20082"/>
        <path d="m80.918885 64.157401c4.375293 7.346983 10.985662 17.151588 14.868721 25.18501 2.122366 5.412468 4.254604 11.752109 6.382124 17.649929 2.07524 5.41041 4.85831 9.59808 7.28766 14.39683 2.95955 1.95765 6.74818 2.67201 8.58962 2.15287-.13233.58428-6.02861-3.09279-7.01296-4.70419-1.37927-2.25796-5.22486-11.52361-6.05611-14.0428-1.83004-5.796367-2.96899-11.873238-6.345557-18.367965-4.181239-8.541006-14.337119-22.117774-17.713498-22.269684z" opacity=".106557"/>
        <path d="m80.918885 64.157401c4.375293 7.346983 10.985662 17.151588 14.868721 25.18501 2.122366 5.412468 4.254604 11.752109 6.382124 17.649929 2.07524 5.41041 4.85831 9.59808 7.28766 14.39683-.16358.54599.72659 1.4767 1.10078 1.83788-.13236.58425-1.87317-2.12024-2.8575-3.73166-1.37929-2.25794-5.48613-8.21969-6.31737-10.73888-1.830027-5.79636-4.105764-12.219025-7.482354-18.713738-2.851328-6.220103-13.607722-24.506736-12.982061-25.885371z" fill="url(#radialGradient2857)" opacity=".213115"/>
        <path d="m80.640003 64.927857c4.375293 7.346983 11.232721 17.044161 14.868721 25.18501 2.369425 5.305041 4.254604 11.752123 6.382146 17.649943 2.07524 5.41041 4.85831 9.59808 7.28766 14.39683-.16358.54599.72659 1.4767 1.10078 1.83788-.13236.58425-1.87317-2.12024-2.8575-3.73166-1.37929-2.25794-5.28434-9.83552-6.11558-12.35472-1.830058-5.79637-3.835886-10.793217-7.056094-17.367553-3.007695-6.140473-14.235794-24.237095-13.610133-25.61573z" fill="url(#radialGradient2854)" opacity=".74"/>
        <path d="m80.918885 64.157401c4.375293 7.346983 10.985662 17.151588 14.868721 25.18501 2.122366 5.412468 4.254604 11.752109 6.382124 17.649929 2.07524 5.41041 4.85831 9.59808 7.28766 14.39683 2.95955 1.95765 6.74818 2.67201 8.58962 2.15287-.13233.58428-7.15961-1.27683-8.14393-2.88825-1.37928-2.25795-6.36664-12.27406-7.19787-14.79324-1.83005-5.79638-3.486677-11.151246-6.863253-17.645974-4.181256-8.541009-12.046403-20.974149-14.923072-24.057175z" opacity=".106557"/>
        <path d="m80.536484 63.501989c4.375279 7.346984 11.036521 17.868682 14.672521 26.009531 2.369425 5.305041 4.776064 11.60262 6.960725 17.48082 2.0181 5.43003 4.38203 8.73965 6.81138 13.5384 2.95955 1.95765 7.22446 3.53044 9.0659 3.0113-.13233.58428-6.17624-4.49204-8.71844-11.13249-4.15408-10.85072-7.50173-23.990201-12.842565-34.234744-4.394431-8.429224-17.183668-17.815469-15.949521-14.672817z" opacity=".106557"/>
      </g>
    </g>
  </g>
</svg>
