<?xml version="1.0" encoding="UTF-8" standalone="no"?>
<!-- Created with Inkscape (http://www.inkscape.org/) -->
<svg height="128" width="128" xmlns="http://www.w3.org/2000/svg" xmlns:xlink="http://www.w3.org/1999/xlink">
  <defs>
    <linearGradient id="linearGradient12009">
      <stop offset="0" stop-color="#fefefe"/>
      <stop offset="1" stop-color="#fefefe" stop-opacity="0"/>
    </linearGradient>
    <linearGradient id="linearGradient4560">
      <stop offset="0" stop-color="#edffb5" stop-opacity="0"/>
      <stop offset=".90268654" stop-color="#a2b85a" stop-opacity=".196078"/>
      <stop offset="1" stop-color="#577200" stop-opacity=".396552"/>
    </linearGradient>
    <linearGradient id="linearGradient4178">
      <stop offset="0" stop-color="#fff"/>
      <stop offset="1" stop-color="#fff" stop-opacity="0"/>
    </linearGradient>
    <linearGradient id="lg1">
      <stop offset=".183432" stop-color="#2e3436"/>
      <stop offset=".5392354" stop-color="#5c605e"/>
      <stop offset=".8359358" stop-color="#7c7f7a"/>
      <stop offset="1" stop-color="#888a85"/>
    </linearGradient>
    <linearGradient id="linearGradient15639" gradientUnits="userSpaceOnUse" x1="111.583496" x2="120.408691" xlink:href="#lg1" y1="62.621582" y2="62.621582"/>
    <linearGradient id="lg2">
      <stop offset=".183432" stop-color="#555753"/>
      <stop offset=".227065" stop-color="#5c5e5a"/>
      <stop offset=".5828972" stop-color="#8f918b"/>
      <stop offset=".851515" stop-color="#aeb1aa"/>
      <stop offset="1" stop-color="#babdb6"/>
    </linearGradient>
    <linearGradient id="linearGradient15641" gradientUnits="userSpaceOnUse" x1="13.746582" x2="20.19043" xlink:href="#lg2" y1="43.694336" y2="43.694336"/>
    <linearGradient id="linearGradient15643" gradientUnits="userSpaceOnUse" x1="114.98584" x2="128.000488" xlink:href="#lg1" y1="83.816406" y2="83.816406"/>
    <linearGradient id="linearGradient15645" gradientUnits="userSpaceOnUse" x1=".000488" x2="11.767578" xlink:href="#lg2" y1="63.398438" y2="63.398438"/>
    <linearGradient id="linearGradient15647" gradientUnits="userSpaceOnUse" x1="102.82666" x2="117.675293" xlink:href="#lg2" y1="106.59668" y2="106.59668"/>
    <linearGradient id="linearGradient15649" gradientUnits="userSpaceOnUse" x1="86.366699" x2="107.905762" xlink:href="#lg2" y1="107.231445" y2="107.231445"/>
    <linearGradient id="linearGradient15651" gradientUnits="userSpaceOnUse" x1="5.962891" x2="20.277344" y1="91.194336" y2="91.194336">
      <stop offset=".183432" stop-color="#555753"/>
      <stop offset=".277781" stop-color="#5c5e5a"/>
      <stop offset=".7422958" stop-color="#7c7e79"/>
      <stop offset="1" stop-color="#888a85"/>
    </linearGradient>
    <linearGradient id="linearGradient15653" gradientUnits="userSpaceOnUse" x1="18.756348" x2="35.310547" xlink:href="#lg2" y1="96.170898" y2="96.170898"/>
    <linearGradient id="linearGradient15655" gradientUnits="userSpaceOnUse" x1="49.718262" x2="75.080566" xlink:href="#lg2" y1="111.513672" y2="111.513672"/>
    <linearGradient id="linearGradient15657" gradientUnits="userSpaceOnUse" x1="73.483887" x2="78.916512" xlink:href="#lg2" y1="113.162109" y2="125.338867"/>
    <linearGradient id="linearGradient15659" gradientUnits="userSpaceOnUse" x1="77.078613" x2="91.842285" xlink:href="#lg2" y1="124.479492" y2="124.479492"/>
    <linearGradient id="linearGradient15661" gradientUnits="userSpaceOnUse" x1="31.115723" x2="42.230469" xlink:href="#lg2" y1="117.553711" y2="117.553711"/>
    <linearGradient id="linearGradient15663" gradientUnits="userSpaceOnUse" x1="41.891113" x2="50.731445" xlink:href="#lg1" y1="114.730469" y2="114.730469"/>
    <radialGradient id="radialGradient15697" cx="98.134277" cy="40.590332" gradientTransform="matrix(.88444704 -.21179474 .21179474 .88444704 -7.132587 11.109997)" gradientUnits="userSpaceOnUse" r="104.478279">
      <stop offset=".183432" stop-color="#babdb6"/>
      <stop offset=".3132166" stop-color="#d2d3d1"/>
      <stop offset=".39645" stop-color="#ddd"/>
      <stop offset=".4776049" stop-color="#d8d9d8"/>
      <stop offset=".5787593" stop-color="#caccc8"/>
      <stop offset=".662722" stop-color="#babdb6"/>
      <stop offset=".7758383" stop-color="#d6d7d3"/>
      <stop offset=".9199813" stop-color="#f4f4f3"/>
      <stop offset="1" stop-color="#fff"/>
    </radialGradient>
    <radialGradient id="radialGradient15700" cx="129.540527" cy="52.300781" gradientTransform="matrix(.88444704 -.21179474 .21179474 .88444704 -7.132587 11.109997)" gradientUnits="userSpaceOnUse" r="144.167007">
      <stop offset="0" stop-color="#eeeeec"/>
      <stop offset=".0460057" stop-color="#e9e9e7"/>
      <stop offset=".1034707" stop-color="#dadbd7"/>
      <stop offset=".166794" stop-color="#c2c4be"/>
      <stop offset=".183432" stop-color="#babdb6"/>
      <stop offset=".3098631" stop-color="#c4c6c0"/>
      <stop offset=".7537286" stop-color="#e2e3e0"/>
      <stop offset="1" stop-color="#eeeeec"/>
    </radialGradient>
    <linearGradient id="linearGradient15703" gradientTransform="matrix(.88444704 -.21179474 .21179474 .88444704 -7.132587 11.109997)" gradientUnits="userSpaceOnUse" x1="30.962891" x2="105.868584" y1="39.53125" y2="92.379829">
      <stop offset=".183432" stop-color="#555753"/>
      <stop offset=".2394944" stop-color="#5c5e5a"/>
      <stop offset=".5155104" stop-color="#7c7e79"/>
      <stop offset=".668639" stop-color="#888a85"/>
      <stop offset="1" stop-color="#2e3436"/>
    </linearGradient>
    <filter id="filter4156" height="1.129778" width="1.368842" x="-.184421" y="-.064889">
      <feGaussianBlur stdDeviation=".365"/>
    </filter>
    <filter id="filter4160" height="1.147556" width="1.274759" x="-.137379" y="-.073778">
      <feGaussianBlur stdDeviation=".415"/>
    </filter>
    <linearGradient id="linearGradient4176" gradientUnits="userSpaceOnUse" x1="36.5" x2="30" xlink:href="#linearGradient4178" y1="97.375" y2="94.125"/>
    <linearGradient id="linearGradient4184" gradientUnits="userSpaceOnUse" x1="75.5" x2="69.5" xlink:href="#linearGradient4178" y1="108.25" y2="109.5"/>
    <linearGradient id="linearGradient4194" gradientUnits="userSpaceOnUse" x1="104.1518" x2="108.33379" y1="100.688" y2="98.389908">
      <stop offset="0" stop-color="#fff" stop-opacity="0"/>
      <stop offset="1" stop-color="#fff"/>
    </linearGradient>
    <filter id="filter4196" height="1.265091" width="1.150503" x="-.075252" y="-.132545">
      <feGaussianBlur stdDeviation=".4359799"/>
    </filter>
    <filter id="filter4507">
      <feGaussianBlur stdDeviation="1.8284823"/>
    </filter>
    <linearGradient id="linearGradient4544" gradientUnits="userSpaceOnUse" x1="73.68645758236" x2="73.68645758236" y1="17.9850970963" y2="54.39956633007">
      <stop offset="0" stop-color="#edffb5"/>
      <stop offset="1" stop-color="#edffb5" stop-opacity="0"/>
    </linearGradient>
    <radialGradient id="radialGradient4566" cx="65.070396" cy="53.689514" gradientTransform="matrix(.96133163 0 0 .71268677 2.786193 16.04091)" gradientUnits="userSpaceOnUse" r="46.562275" xlink:href="#linearGradient4560"/>
    <filter id="filter4640" color-interpolation-filters="sRGB">
      <feGaussianBlur stdDeviation=".70511037"/>
    </filter>
    <linearGradient id="linearGradient4746" gradientUnits="userSpaceOnUse" x1="29.72745534045" x2="61.31587059726" xlink:href="#lg1" y1="67.13021187667" y2="67.13021187667"/>
    <linearGradient id="linearGradient4748" gradientUnits="userSpaceOnUse" x1="7.45469" x2="49.48531" xlink:href="#linearGradient12009" y1="18.403559" y2="67.3125"/>
    <linearGradient id="linearGradient10784" gradientTransform="matrix(.81707336 0 0 .81389036 9.918202 21.711279)" gradientUnits="userSpaceOnUse" x1="26.242651" x2="61.18428" xlink:href="#linearGradient4178" y1="3.945772" y2="39.024052"/>
    <filter id="filter12017" height="1.204716" width="1.170185" x="-.085092" y="-.102358">
      <feGaussianBlur stdDeviation=".48887685"/>
    </filter>
    <radialGradient id="radialGradient12023" cx="86.090248" cy="48.804039" gradientTransform="matrix(1 0 0 .82051283 0 8.759699)" gradientUnits="userSpaceOnUse" r="6.894291" xlink:href="#linearGradient12009"/>
    <radialGradient id="radialGradient12033" cx="65.070393" cy="53.939516" fx="93.001114" fy="77.307732" gradientTransform="matrix(.87246223 0 0 .64680312 8.280562 19.70487)" gradientUnits="userSpaceOnUse" r="46.562275">
      <stop offset="0" stop-color="#f7ffb9"/>
      <stop offset="1" stop-color="#f7ffb9" stop-opacity="0"/>
    </radialGradient>
    <filter id="filter12059" height="1.267808" width="1.612133" x="-.306067" y="-.133904">
      <feGaussianBlur stdDeviation="2.5249201"/>
    </filter>
    <filter id="filter12087" height="1.333853" width="1.232306" x="-.116153" y="-.166926">
      <feGaussianBlur stdDeviation="4.6603691"/>
    </filter>
    <clipPath id="clipPath12125">
      <path d="m65.05-64.3182c-17.462182 0-32.839955 8.925909-41.8125 22.46875-.361075.544994-.691197 1.096598-1.03125 1.65625-.20333.334637-.398097.691534-.59375 1.03125-1.927056 3.662956-2.976405 7.732047-2.78125 12.0625.225634 5.006516 2.094123 9.844944 5.40625 14.21875 3.572676 4.7180028 8.751256 8.7766548 15.1875 11.8437498 6.742699 3.21221 14.595497 5.199122 22.9375 5.65625 8.38007.459408 16.861987-.646829 24.6875-3.4375 7.492235-2.670968 13.36854-6.516744 17.53125-11 3.86644-4.1653148 6.17063-8.7957298 7-13.4687498.74107-4.173738.29858-8.370943-1.21875-12.34375-8.03798-16.947964-25.308221-28.6875-45.3125-28.6875z"/>
    </clipPath>
    <radialGradient cx="65.070396" cy="53.689514" gradientTransform="matrix(1 0 0 .74135371 .3 -69.602006)" gradientUnits="userSpaceOnUse" r="46.562275" xlink:href="#linearGradient4560"/>
    <radialGradient id="radialGradient12138" cx="64.171875" cy="61.53125" fx="102.66016" fy="44.958344" gradientTransform="matrix(1 0 0 .53351547 0 28.703376)" gradientUnits="userSpaceOnUse" r="61.731683">
      <stop offset="0" stop-color="#c0ed32"/>
      <stop offset=".75772667" stop-color="#c0ed32" stop-opacity=".498039"/>
      <stop offset="1" stop-color="#c0ed32" stop-opacity="0"/>
    </radialGradient>
    <filter id="filter4870">
      <feGaussianBlur stdDeviation=".81081391"/>
    </filter>
  </defs>
  <g>
    <path d="m111.90197 51.040589c.61078.7705 1.19716 1.550222 1.75447 2.340186.56711.803477 1.10609 1.616992 1.60928 2.441236.51223.838896.99108 1.686043 1.43225 2.544327.44742.873548.85532 1.758637 1.21819 2.652553l8.56279 2.455145 1.80986 5.521744-8.00357.193278c.0188 1.024595-.003 2.057933-.0669 3.095753-.0658 1.058645-.17839 2.121653-.34539 3.18671-.1704 1.085354-.3953 2.171828-.68362 3.254507-.29318 1.105253-.65091 2.205984-1.08185 3.298218l8.92996 7.018928-3.2779 6.625936-10.72557-4.330907c-.97108.991808-1.99631 1.972927-3.08334 2.935237-1.10232.97737-2.26757 1.9352-3.501 2.8629-1.25244.94358-2.57439 1.85536-3.9707 2.72662-1.41521.88319-2.905897 1.72514-4.479578 2.51377l3.968338 12.00212-10.191866 4.01898-7.993841-10.45653c-1.988511.34313-3.987764.62797-5.997016.8534-2.015787.22683-4.037327.39137-6.06056.48979-2.028095.0985-4.052287.12964-6.070109.089-2.018752-.0404-4.025343-.15296-6.015693-.34137l-5.880266 12.08387-11.696175-2.60288 1.216263-12.40575c-1.78952-.71422-3.535463-1.4663-5.230706-2.26169-1.677927-.78547-3.304273-1.61249-4.870225-2.48101-1.547715-.85881-3.035769-1.758-4.455904-2.70228-1.401547-.93074-2.735967-1.90348-3.994182-2.91921l-11.463763 6.18223-5.4938387-6.67995 8.1561527-8.218392c-.660469-1.162545-1.271178-2.330061-1.824241-3.502309-.543045-1.150961-1.030323-2.306247-1.454565-3.468415-.415886-1.139543-.771279-2.286395-1.058147-3.437414-.281928-1.130583-.497815-2.267726-.641909-3.409749l-9.7876274.552506.7284464-6.126404 9.003922-3.198974c.289735-1.038009.612578-2.051939.969938-3.042096.350755-.971115.735148-1.920222 1.155192-2.844825.411884-.908159.858345-1.794513 1.340105-2.660199.473815-.848309.982529-1.677817 1.526552-2.486656l-5.854691-2.114057 3.805894-4.055781 7.080591-.07831c.769136-.657414 1.548742-1.300482 2.343218-1.922347.781504-.614147 1.577213-1.207922 2.388401-1.784533.799544-.567228 1.614087-1.11719 2.446779-1.646659.821118-.522058 1.659973-1.02549 2.518387-1.508736l-2.472208-2.887909 4.891681-2.184042 4.793119 1.514101c.928005-.325325 1.861655-.638191 2.802095-.937865.932711-.297014 1.873337-.580107 2.822758-.847515.942367-.263914 1.894049-.514212 2.85747-.746533.956623-.229862 1.925044-.443714 2.907935-.638231l.08277-2.8479 5.191552-.699477 2.716203 2.299889c1.004103-.06126 2.003108-.107718 2.994296-.140737.989515-.03168 1.973072-.05033 2.950338-.05294.975201-.0031 1.945051.0096 2.908619.03828.963765.02966 1.924046.07476 2.878447.137752l2.184977-2.426671 5.181416.59641.724278 2.678966c.955507.193785 1.907443.398126 2.853626.616433.951055.218224 1.898422.45094 2.839292.69876.945019.248874 1.88448.512647 2.815577.791929.93772.282731 1.868229.581703 2.789111.89939l4.226085-1.65283 4.928487 1.962781-1.520497 2.720997c.837134.449361 1.671284.91208 2.496354 1.391447.834903.48407 1.662573.984381 2.479503 1.502676.8253.525276 1.64004 1.069473 2.44051 1.633401.81017.572572 1.60625 1.165814 2.3838 1.78167l6.44208-.228679 4.10496 3.618677-4.4049 2.156249zm-24.584653 46.944901c7.803568-2.60214 13.960323-6.461976 18.359873-11.008856 4.08646-4.22445 6.56708-8.952808 7.52413-13.766875.87977-4.423696.46647-8.889435-1.1273-13.136203-1.46867-3.910263-3.94352-7.645383-7.36156-11.050891-3.17689-3.16468-6.931569-5.803584-10.980382-7.920797-3.856691-2.016293-8.064021-3.604194-12.409105-4.7426-4.234949-1.108613-8.694502-1.816285-13.205274-2.076685-4.500302-.261702-9.16142-.08551-13.841909.603376-4.792738.705514-9.270216 1.897774-13.330457 3.494928-4.250573 1.672832-8.128524 3.821876-11.451944 6.366444-3.547066 2.716484-6.518448 5.925582-8.62764 9.521865-2.287012 3.900006-3.584861 8.296445-3.469315 13.022599.126689 5.181356 1.931227 10.209475 5.262708 14.802356 3.593549 4.954316 8.8688 9.272483 15.458326 12.580799 6.9033 3.46488 14.987788 5.69271 23.603375 6.343 8.654898.65345 17.44576-.31364 25.596474-3.03246" fill-opacity=".699422" filter="url(#filter4507)" transform="matrix(.92936036 -.01913971 .01913971 .92936036 3.077063 4.953425)"/>
    <path d="m87.317317 97.98549c7.803568-2.60214 13.960323-6.461976 18.359873-11.008856 4.08646-4.22445 6.56708-8.952808 7.52413-13.766875.87977-4.423696.46647-8.889435-1.1273-13.136203-1.46867-3.910263-3.94352-7.645383-7.36156-11.050891-3.17689-3.16468-6.931569-5.803584-10.980382-7.920797-3.856691-2.016293-8.064021-3.604194-12.409105-4.7426-4.234949-1.108613-8.694502-1.816285-13.205274-2.076685-4.500302-.261702-9.16142-.08551-13.841909.603376-4.792738.705514-9.270216 1.897774-13.330457 3.494928-4.250573 1.672832-8.128524 3.821876-11.451944 6.366444-3.547066 2.716484-6.518448 5.925582-8.62764 9.521865-2.287012 3.900006-3.584861 8.296445-3.469315 13.022599.126689 5.181356 1.931227 10.209475 5.262708 14.802356 3.593549 4.954316 8.8688 9.272483 15.458326 12.580799 6.9033 3.46488 14.987788 5.69271 23.603375 6.343 8.654898.65345 17.44576-.31364 25.596474-3.03246" fill="#a9d700" fill-opacity=".699422" filter="url(#filter12087)" transform="matrix(.90237401 -.01858395 .01858395 .90237401 4.831053 9.454711)"/>
    <g transform="matrix(.88444704 -.21179474 .21179474 .88444704 -7.132587 11.109997)">
      <polygon fill="#2e3436" points="104.30811 42.665039 101.44287 48.28125 99.324707 50.762695 102.19775 45.051758 104.30811 42.665039"/>
      <polygon fill="#888a85" points="36.694824 31.943359 36.777344 38.529297 35.018066 35.045898 34.854004 28.521484 36.694824 31.943359"/>
      <polygon fill="url(#linearGradient15639)" points="120.40869 59.164062 116.31006 64.799805 111.5835 66.079102 115.54053 60.359375 120.40869 59.164062"/>
      <polygon fill="url(#linearGradient15641)" points="19.133789 41.833008 20.19043 48.94043 15.072266 45.602539 13.746582 38.448242 19.133789 41.833008"/>
      <polygon fill="url(#linearGradient15643)" points="128.00049 81.855469 122.55322 87.325195 114.98584 85.897461 119.96533 80.307617 128.00049 81.855469"/>
      <polygon fill="url(#linearGradient15645)" points="9.8955078 60.540039 11.767578 67.833984 2.5415039 66.416992 .0004883 58.962891 9.8955078 60.540039"/>
      <polygon fill="url(#linearGradient15647)" points="117.67529 107.50879 111.71631 112.3418 102.82666 106.03809 107.90576 100.85059 117.67529 107.50879"/>
      <path d="m89.930176 112.5c2.571289-.89453 5.072265-1.9707 7.479492-3.24121 1.924805-1.01563 4.290042-2.06934 5.826172-3.63867 1.55664-1.58985 3.11328-3.17969 4.66992-4.76953-5.07129 3.33398-10.566404 5.78222-16.38574 7.46679-.731446.21094-.975586.22071-1.414063.75293-.458008.55664-.916015 1.11328-1.375 1.66895-.788086.95801-1.576172 1.91504-2.364258 2.87207 1.202149-.3252 2.386719-.7041 3.563477-1.11133" fill="url(#linearGradient15649)"/>
      <polygon fill="#2e3436" points="5.9628906 89.722656 8.5844727 96.345703 4.7539062 88.810547 1.9291992 81.856445 5.9628906 89.722656"/>
      <polygon fill="url(#linearGradient15651)" points="18.756348 86.041992 20.277344 92.666992 8.5844727 96.345703 5.9628906 89.722656 18.756348 86.041992"/>
      <path d="m20.095703 91.875c.339356 1.478516 1.731934 2.685547 2.72168 3.766602 1.17041 1.27832 2.398926 2.501953 3.674316 3.674804 2.762207 2.541014 5.733887 4.848634 8.818848 6.982424-.05762-1.20508-.115723-2.41016-.17334-3.61524-.03174-.65625-.06299-1.31347-.09473-1.9707-.01563-.32715.03174-.25293-.305664-.4834-.68164-.464842-1.35791-.937498-2.029297-1.41699-5.135253-3.664062-9.987304-7.84082-13.951171-12.770508.446777 1.944336.891601 3.888672 1.339355 5.833008" fill="url(#linearGradient15653)"/>
      <path d="m49.825684 112.3584c6.05371 1.92578 12.354004 3.04394 18.68457 3.50976.816406.0615 3.30664.61329 3.761719-.1416.251953-.41797.503906-.83496.754882-1.25293.684571-1.13476 1.369141-2.26953 2.053711-3.40429-8.236328-.35938-16.484863-1.65528-24.349121-4.16211-.17334.91699-.347168 1.833-.520508 2.75-.09033.47851-.746093 2.2539-.385253 2.70117" fill="url(#linearGradient15655)"/>
      <polygon fill="url(#linearGradient15657)" points="80.789551 123.25098 77.078613 127.50488 72.062012 116.07324 75.080566 111.06934 80.789551 123.25098"/>
      <polygon fill="url(#linearGradient15659)" points="91.842285 121.4541 87.284668 125.75098 77.078613 127.50488 80.789551 123.25098 91.842285 121.4541"/>
      <polygon fill="url(#linearGradient15661)" points="42.230469 117.69629 41.891113 122.55371 31.766602 117.80566 31.115723 112.55273 42.230469 117.69629"/>
      <polygon fill="url(#linearGradient15663)" points="50.731445 106.90723 49.706543 112.32227 41.891113 122.55371 42.230469 117.69629 50.731445 106.90723"/>
    </g>
    <path d="m106.09075 44.325048c-5.89907-9.455917-16.723238-14.9644-27.282116-17.439134-10.758099-2.521091-22.323927-2.200798-32.866373 1.159376-10.297273 3.281832-20.859993 10.111718-24.471433 20.818594-1.691846 5.014751-1.503423 10.482901.432745 15.401019.90641 2.303505 2.032401 4.534338 3.060396 6.784985.06536.143256.130713.28651.196064.429765-2.261903-4.958837-2.845278-10.579441-1.466859-15.865717 1.352883-5.187005 4.45928-9.759668 8.377844-13.362429 7.976706-7.333917 18.984045-10.859757 29.662836-11.379507 10.857125-.528211 22.209119 2.00546 31.29853 8.110633 9.177476 6.163997 15.856366 16.660584 13.421616 28.029065-.43912 2.048545-1.15229 4.035773-2.09117 5.908096 1.36347-2.71921 2.9269-5.42329 3.99831-8.275299 2.54707-6.7844 1.54233-14.214156-2.27039-20.319447" fill="url(#linearGradient15703)"/>
    <path d="m107.84068 40.02379c.58238.704383 1.14227 1.417803 1.67533 2.141296.54243.735865 1.05889 1.481599 1.54232 2.237986.4921.769834.95335 1.547974 1.37977 2.337186.43255.803277.82857 1.618036 1.18291 2.441862l8.00492 2.117823 1.78769 5.09705-7.43451.332811c.0371.951859.0367 1.912618-.003 2.878351-.0408.985123-.12518 1.975195-.25998 2.968212-.1376 1.011947-.32582 2.025977-.57305 3.037695-.25132 1.03279-.56271 2.062612-.94231 3.085939l8.4335 6.352197-2.91952 6.220618-10.05081-3.819686c-.88351.940331-1.81754 1.871771-2.80936 2.786908-1.00575.92943-2.07037 1.841899-3.1989 2.72767-1.1459.9009-2.35703 1.773569-3.63802 2.610008-1.298351.847898-2.667613 1.658897-4.115035 2.421945l3.917726 11.078342-9.394987 3.930147-7.629295-9.564887c-1.841476.356952-3.694051.659936-5.557055.907898-1.869051.249389-3.74464.440997-5.62307.571189-1.882945.130359-3.763553.198042-5.639615.198892-1.876922.0011-3.743922-.06511-5.597281-.202116l-5.233769 11.342824-10.919779-2.19515.892905-11.552701c-1.67678-.629517-3.313785-1.295054-4.9045-2.001815-1.574431-.697867-3.101723-1.435336-4.573679-2.212537-1.454823-.768521-2.854972-1.575706-4.192863-2.426107-1.320355-.838166-2.57913-1.716648-3.767906-2.636547l-10.535641 5.964931-5.233608-6.102932 7.422707-7.793952c-.636064-1.067782-1.225979-2.141136-1.762411-3.219992-.526712-1.059263-1.001681-2.123612-1.418199-3.195566-.408318-1.051087-.760557-2.110122-1.049191-3.174344-.283651-1.045323-.506052-2.098007-.661826-3.156601l-9.085658.700812.5597316-5.707581 8.3066614-3.145331c.2494-.970231.530033-1.918716.843196-2.845768.307392-.90923.646465-1.79865 1.019141-2.665978.365407-.85189.763365-1.684178 1.194525-2.497933.424108-.797454.88101-1.578102 1.371123-2.340217l-5.48158-1.852664 3.45942-3.842126 6.578922-.208299c.702222-.625696 1.414449-1.238258 2.140901-1.831401.714545-.585721 1.44268-1.152782 2.185529-1.704187.732208-.542463 1.478686-1.069165 2.242424-1.57717.753122-.500897 1.523085-.984821 2.311613-1.450362l-2.352847-2.63659 4.504332-2.123388 4.483515 1.315407c.856224-.320105 1.717933-.628741 2.586206-.925245.861138-.293886 1.729901-.574983 2.607138-.841675.870748-.263307 1.750412-.514138 2.64133-.748488.884649-.231935 1.780567-.449216 2.690304-.648804l.02241-2.64831 4.811435-.74943 2.568349 2.085438c.932002-.07614 1.859548-.138449 2.780087-.188106.91901-.04839 1.832732-.08453 2.740915-.105669.906253-.02155 1.807836-.0283 2.703887-.0201.896252.0092 1.789563.03265 2.677751.07292l1.984185-2.297072 4.826818.455111.724389 2.475861c.89172.161809 1.780323.333495 2.663846.518271.888051.184605 1.772949.382751 2.652099.595056.883028.213206 1.761173.440367 2.631844.682098.87689.244812 1.747392.504855 2.609303.782475l3.89592-1.61696 4.617908 1.729801-1.36101 2.557889c.7866.401594 1.570682.815663 2.346644 1.245375.785187.433896 1.563971.883024 2.333115 1.349071.777054.472375 1.544665.962536 2.299378 1.471308.76389.516619 1.5151 1.052717 2.24952 1.610187l5.98262-.335824 3.88425 3.284488-4.05247 2.088241zm-21.949488 44.099275c7.202523-2.567685 12.850491-6.272703 16.852238-10.582598 3.71693-4.004249 5.93183-8.446077 6.72913-12.938399.73295-4.128046.26338-8.270415-1.29909-12.186689-1.43977-3.605934-3.81129-7.029838-7.05305-10.129363-3.013052-2.880323-6.55301-5.260952-10.356339-7.151113-3.622847-1.800047-7.563365-3.195252-11.623302-4.170077-3.957012-.949245-8.115088-1.521574-12.312206-1.677243-4.18741-.157083-8.515896.09588-12.852572.825682-4.440678.747408-8.579049 1.941146-12.321908 3.503189-3.918296 1.636018-7.481177 3.707477-10.52113 6.135908-3.244509 2.592483-5.944573 5.631762-7.83594 9.014373-2.050814 3.668284-3.172837 7.779001-2.974995 12.169091.216909 4.812922 1.990211 9.451317 5.174264 13.655995 3.434527 4.535566 8.419783 8.447733 14.607148 11.396228 6.48197 3.087999 14.038013 5.003717 22.057444 5.443169 8.056027.441643 16.207396-.625392 23.730308-3.308153" fill="url(#radialGradient15700)"/>
    <path d="m50.150782 25.699131-3.362834.811221-2.608918.738901-2.576563.832068-2.840233 1.016212-.295624-.07899s-3.58376-1.051413-4.152417-1.217979c-.398878.187755-1.94819.918125-3.090071 1.456408.696548.780695 2.258785 2.531717 2.258785 2.531717l-3.203283 2.009548-2.204998 1.550401-2.150031 1.676966c-.0019.00085-2.355458 2.014743-2.355458 2.014743l-.333472.02233s-5.504838.174379-6.191042.195782c-.316059.350571-1.383595 1.536809-2.274912 2.526507 1.517352.512908 5.229734 1.767766 5.229734 1.767766l-1.917183 3.270986-1.162078 2.429431c.000101.000432-.993158 2.599026-.993158 2.599026l-.951979 3.21337-.430798.191746s-6.8527307 2.594424-7.7787349 2.945396c-.070648.721479-.2763987 2.819627-.3987687 4.066743 1.6780896-.129694 8.8511086-.682998 8.8511086-.682998l.123487.83984c.109557.745457.256166 1.502591.437556 2.260074.0632.263863.130893.52756.202166.790859l1.019082 3.082924 1.385022 3.11995 2.048239 3.742415-.44193.509482s-5.888227 6.183571-6.855629 7.198794c.773001.901659 3.500426 4.082342 4.211248 4.911218 1.146423-.648959 10.411015-5.894013 10.411015-5.894013l.477998.369558c1.145814.887267 2.390233 1.757314 3.698806 2.588253 1.285232.817351 2.674868 1.62066 4.130326 2.389943l4.517304 2.184943c.000923.000661 5.469821 2.232649 5.469821 2.232649l-.02692.67129s-.723321 9.358648-.830855 10.749698c1.264341.2534 8.288999 1.66622 9.425852 1.89444.53497-1.15823 5.197039-11.262822 5.197039-11.262822l.628346.04592c1.806442.13363 3.666951.201352 5.530094.199931 1.827165-.001 3.703664-.0668 5.577129-.19677l5.565921-.565736 6.030009-.984617.357808.411124s6.437825 8.071213 7.201222 9.028133c1.002829-.41915 6.737124-2.817889 7.968169-3.332779-.492391-1.392604-3.893004-11.009383-3.893004-11.009383l.695769-.366619c1.373587-.724359 2.733484-1.524896 4.04136-2.378732 1.224176-.799083 2.425946-1.661297 3.573376-2.563471.00066-.0011 3.14349-2.680614 3.14349-2.680614.00067-.0011 3.17986-3.154178 3.17986-3.154178l.57031.184891s7.92387 3.011212 9.26214 3.51997c.48372-1.030915 1.81671-3.869765 2.24783-4.788538-1.02053-.768399-8.38452-6.315518-8.38452-6.315518l.23508-.635293c.35682-.962162.66343-1.966181.91179-2.984566-.0002-.000865.55511-2.944813.55511-2.944813-.00022-.000864.25289-2.883407.25289-2.883407l.003-3.674742.86781-.07539s4.50438-.201018 6.2121-.277533c-.4288-1.222437-1.02456-2.920881-1.22316-3.487025-.82694-.219329-7.94257-2.101698-7.94257-2.101698l-1.34777-2.783208-1.34557-2.278251-1.50759-2.188311-2.32144-2.966942.96163-.52252s1.65108-.850635 2.842-1.464582c-1.00659-.851202-2.22839-1.884199-2.56837-2.171281-.63799.03587-5.94026.333444-5.94026.333444l-2.490183-1.782748-2.262659-1.447678-2.300239-1.330005c-.000923-.00066-3.12493-1.658093-3.12493-1.658093l.415265-.810789s.472393-.887556.874212-1.642687c-1.099477-.4116-2.864165-1.072585-3.311527-1.239888-.554937.23015-3.863483 1.603714-3.863483 1.603714l-2.902486-.871086-2.601554-.673826-2.623188-.588739c-.000915-.000226-3.184902-.619523-3.184902-.619523l-.167124-.533521s-.349987-1.198389-.550724-1.884115c-.832444-.07829-3.090788-.291371-3.745797-.353242-.438246.507686-1.959888 2.268876-1.959888 2.268876l-3.093285-.08438-2.672962.01954-2.714633.104859-3.11075.21067-.290307-.224548s-1.770851-1.438051-2.254432-1.830929c-.555559.08647-2.675512.416948-3.649297.568399-.0063.775006-.0218 2.586062-.0218 2.586062zm-10.438508 57.109533c-6.249119-2.977545-11.415823-7.012471-14.941143-11.667847-3.329703-4.397199-5.131999-9.16244-5.35759-14.164153-.197334-4.376512.842134-8.633669 3.089565-12.653604 1.904192-3.405319 4.61672-6.527949 8.061977-9.281289 3.099446-2.475554 6.71245-4.583674 10.738685-6.264718 3.87243-1.615902 8.085051-2.81418 12.521411-3.560551 4.277882-.719839 8.664279-1.001734 13.03784-.83763 4.235776.156917 8.437797.72968 12.489793 1.701842 4.214883 1.011694 8.190311 2.438268 11.816254 4.239853 4.056281 2.015891 7.615936 4.474911 10.579344 7.308214 3.32448 3.177894 5.77005 6.693656 7.2694 10.449247 1.6543 4.147251 2.10908 8.414629 1.35039 12.683085-.84773 4.773799-3.25321 9.407391-6.95797 13.397761-4.252809 4.580978-10.2053 8.322395-17.213477 10.820705-7.442058 2.654267-15.771 3.814965-24.085606 3.359442-7.976806-.436871-15.722015-2.349301-22.398873-5.530357z" fill="url(#radialGradient15697)" opacity=".84878"/>
    <path d="m64.864183 28.575143c-23.961889 0-43.38009 13.631959-43.38009 30.432154 0 2.367369.381775 4.667693 1.111541 6.87953.775452 1.621186 1.762947 3.19647 2.914036 4.716533 3.434527 4.535566 8.412859 8.437276 14.600224 11.385772 6.48197 3.087999 14.031113 4.99808 22.050544 5.437532 8.056027.441643 16.209962-.621818 23.732876-3.304578 7.202522-2.567686 12.851599-6.264752 16.853346-10.574648.5361-.577537 1.02822-1.177875 1.50208-1.772456 2.56638-3.883787 3.99554-8.205848 3.99554-12.767685 0-16.800195-19.418207-30.432154-43.380097-30.432154z" fill="#a1b85a" opacity=".746341"/>
    <path d="m64.98435 21.168466c-16.786948 0-31.570088 8.58076-40.195679 21.599921-.347112.52392-.66447 1.054194-.991373 1.592206-.195467.321697-.382704.664793-.570791.991372-1.852539 3.521316-2.861312 7.433062-2.673704 11.596064.216909 4.812921 2.013148 9.464255 5.1972 13.668933 3.434526 4.535566 8.412859 8.437276 14.600224 11.385772 6.48197 3.088 14.031113 4.99808 22.050545 5.437533 8.056026.441642 16.209961-.621818 23.732874-3.304578 7.202522-2.567687 12.8516-6.264753 16.853344-10.574648 3.71694-4.00425 5.93203-8.455613 6.72933-12.947935.7124-4.012347.28702-8.047253-1.17163-11.866438-7.72716-16.292614-24.329593-27.578202-43.56034-27.578202z" fill="url(#linearGradient4544)"/>
    <path d="m65.032417 21.1204c-16.786948 0-31.570088 8.580758-40.19568 21.59992-.347112.52392-.664469 1.054194-.991372 1.592205-.195468.321698-.382704.664794-.570791.991374-1.85254 3.521316-2.861313 7.433062-2.673704 11.596063.21691 4.812922 2.013147 9.464256 5.1972 13.668934 3.434526 4.535565 8.412858 8.437276 14.600223 11.385771 6.481971 3.087999 14.031113 4.998081 22.050545 5.437532 8.056027.441644 16.209961-.621816 23.732875-3.304577 7.202523-2.567686 12.8516-6.264752 16.853347-10.574648 3.71693-4.004249 5.93202-8.455614 6.72932-12.947936.71242-4.012345.28704-8.047251-1.17163-11.866436-7.72716-16.292614-24.329587-27.578202-43.560333-27.578202z" fill="url(#radialGradient4566)"/>
    <path d="m38.465776 44.399308c-9.270318.07911-15.561555 4.47679-15.561555 12.106771 0 9.325286 9.393724 20.530296 22.140669 27.36791 5.411114 2.002752 11.395183 3.231401 17.664469 3.574953 5.303083.290725 10.652681-.0943 15.831931-1.141582 2.430168-2.040743 3.815284-4.890301 3.815284-8.471736 0-11.098152-13.286898-24.873913-29.711155-30.762613-5.132581-1.840218-9.965862-2.709668-14.179643-2.673703z" fill="#fff" fill-opacity=".836066"/>
    <path d="m61.31587 55.933866-31.588415 7.849739 17.703025 14.54295z" fill="url(#linearGradient4746)"/>
    <path d="m61.18396 56.334194-32.859019 8.165485 18.415107 15.127922z" filter="url(#filter4640)" opacity=".334884" transform="matrix(.96133163 0 0 .96133163 2.497794 2.739355)"/>
    <path d="m59.03125 56.46875-29.65625 7.375 4.25 3.46875c8.515286-.949497 15.82495-2.398967 21.25-4.1875z" fill="url(#linearGradient4748)" transform="matrix(.96133163 0 0 .96133163 3.046714 2.761632)"/>
    <g transform="matrix(.5 0 0 .5 -120.22808 -50.384555)"/>
    <g transform="matrix(.333692 0 0 .333692 -1700.6938 -29.807321)"/>
    <path d="m63.160287 23.924039c-19.131966 0-35.34617 12.526727-40.833671 29.783317-.0066 9.229093 6.61123 19.918764 16.470409 26.007029 1.657937-21.1729 11.781785-44.975608 32.702712-54.976452-2.697754-.531187-5.485787-.813894-8.33945-.813894z" fill="url(#linearGradient10784)"/>
    <path d="m92.984539 48.804039a6.8942909 5.6568542 0 1 1 -13.788582 0 6.8942909 5.6568542 0 1 1 13.788582 0z" fill="url(#radialGradient12023)" filter="url(#filter12017)" opacity=".781395" transform="matrix(.94028305 .09643929 0 .94028305 1.624117 -15.983298)"/>
    <path d="m64.744127 21.420554c-16.781003 0-31.558904 8.577719-40.181441 21.592269-.34699.523735-.664234 1.053822-.991023 1.591642-.195397.321582-.382567.664558-.570587.991021-1.851885 3.520069-2.860299 7.430429-2.672757 11.591957.216833 4.811216 2.012433 9.460903 5.195358 13.664092 3.43331 4.533959 8.409878 8.434286 14.595052 11.381737 6.479674 3.086905 14.026142 4.996311 22.042735 5.435606 8.053171.441488 16.204219-.621597 23.724467-3.303407 7.199971-2.566776 12.847043-6.262532 16.847369-10.570901 3.71562-4.002831 5.92992-8.452618 6.72695-12.943349.71215-4.010925.28693-8.044402-1.17121-11.862234-7.72443-16.286843-24.32098-27.568433-43.544913-27.568433z" fill="url(#radialGradient12033)" opacity=".762791"/>
    <path d="m28.28125 34.65625-7.0625 3.1875-4.25 2.46875-1.40625 6.375-2.46875 7.78125-4.59375 3.875 3.875 3.90625 4.59375 3.53125 2.46875 9.53125.71875 2.125 3.1875 2.46875 2.8125-4.59375s-5.280421-7.930041-5.633974-10.051362c-.353554-2.12132-2.147276-14.698638-2.147276-14.698638l3.53125-7.40625 6.03125-6.375zm78.125 0 3.5625 10.96875 1.0625 1.75 1.75 8.5-.71875 8.125-5.28125 7.4375-6.71875 7.0625-5.3125 3.90625v6l6.71875-3.1875 5.65625-7.0625 7.0625-1.40625 2.125-2.84375.375-4.9375-.71875-10.25 1.75-3.5625 2.125-2.8125-6-1.40625-.34375-6.03125z" fill="url(#radialGradient12138)" filter="url(#filter12059)" opacity=".553488" transform="matrix(.96133163 0 0 .96133163 2.497794 2.739355)"/>
    <path d="m65.05-64.5182c-17.462182 0-32.839955 8.925909-41.8125 22.46875-.361075.544994-.691197 1.096598-1.03125 1.65625-.20333.334637-.398097.691534-.59375 1.03125-1.927056 3.662956-2.976405 7.732047-2.78125 12.0625.225634 5.006516 2.094123 9.844944 5.40625 14.21875 3.572676 4.7180028 8.751256 8.7766548 15.1875 11.8437498 6.742699 3.21221 14.595497 5.199122 22.9375 5.65625 8.38007.459408 16.861987-.646829 24.6875-3.4375 7.492235-2.670968 13.36854-6.516744 17.53125-10.9999998 3.86644-4.165315 6.17063-8.79573 7-13.46875.74107-4.173738.29858-8.370943-1.21875-12.34375-8.03798-16.947964-25.308221-28.6875-45.3125-28.6875z" style="opacity:.925581;fill:none;stroke:#334d0d;stroke-width:.999655;clip-path:url(#clipPath12125);filter:url(#filter4870)" transform="matrix(.96133163 0 0 .96133163 2.497794 82.967941)"/>
  </g>
  <g fill="none">
    <path d="m81 119.25h-.5l-5.75-12.5-4.75.5" filter="url(#filter4160)" stroke="url(#linearGradient4184)" transform="matrix(.88444704 -.21179474 .21179474 .88444704 -6.42817 14.04973)"/>
    <path d="m32.25 109.25v.25l3.75-12.5-5.5-4v-.25" filter="url(#filter4156)" stroke="url(#linearGradient4176)" transform="matrix(.88444704 -.21179474 .21179474 .88444704 -6.42817 14.04973)"/>
    <path d="m116.84939 103.7816-9.19238-6.540745-3.00521 1.944544" filter="url(#filter4196)" stroke="url(#linearGradient4194)" stroke-linecap="round" transform="matrix(.88444704 -.21179474 .21179474 .88444704 -6.42817 14.04973)"/>
  </g>
</svg>
