<?xml version="1.0" encoding="UTF-8" standalone="no"?>
<svg height="128" width="128" xmlns="http://www.w3.org/2000/svg" xmlns:xlink="http://www.w3.org/1999/xlink">
  <defs>
    <clipPath id="r">
      <path d="M20.809 937.362c-1 0-1.809.806-1.809 1.803v99.395c0 .996.809 1.802 1.809 1.802h82.137a4.033 4.033 0 0 0 4.054-4.04v-94.888c0-2.243-1.804-4.072-4.054-4.072H29.821z"/>
    </clipPath>
    <filter id="s" color-interpolation-filters="sRGB" height="1.049" width="2.862" x="-.931" y="-.025">
      <feGaussianBlur stdDeviation=".97"/>
    </filter>
    <filter id="t" color-interpolation-filters="sRGB" height="1.101" width="2.798" x="-.899" y="-.051">
      <feGaussianBlur stdDeviation="2.06"/>
    </filter>
    <linearGradient id="u" gradientUnits="userSpaceOnUse" x1="34.16" x2="45.648" y1="988.362" y2="988.362">
      <stop offset="0" stop-color="#ffbf80"/>
      <stop offset="1" stop-color="#ffbf80" stop-opacity="0"/>
    </linearGradient>
    <filter id="q" color-interpolation-filters="sRGB" height="1.259" width="1.013" x="-.006" y="-.13">
      <feGaussianBlur stdDeviation=".246"/>
    </filter>
    <filter id="p" color-interpolation-filters="sRGB" height="1.365" width="1.019" x="-.009" y="-.183">
      <feGaussianBlur stdDeviation=".347"/>
    </filter>
    <filter id="o" color-interpolation-filters="sRGB">
      <feGaussianBlur stdDeviation=".475"/>
    </filter>
    <filter id="n" color-interpolation-filters="sRGB">
      <feGaussianBlur stdDeviation=".64"/>
    </filter>
    <filter id="m" color-interpolation-filters="sRGB" height="1.025" width="1.554" x="-.277" y="-.013">
      <feGaussianBlur stdDeviation=".488"/>
    </filter>
    <clipPath id="k">
      <path d="M20.809 13c-1 0-1.809.806-1.809 1.803v99.394c0 .997.809 1.803 1.809 1.803h82.137a4.033 4.033 0 0 0 4.054-4.04V17.072c0-2.243-1.804-4.072-4.054-4.072H20.81z"/>
    </clipPath>
    <filter id="l" color-interpolation-filters="sRGB" height="1.225" width="1.258" x="-.129" y="-.112">
      <feGaussianBlur stdDeviation="4.738"/>
    </filter>
    <filter id="j" color-interpolation-filters="sRGB" height="2.77" width="1.024" x="-.012" y="-.885">
      <feGaussianBlur stdDeviation=".394"/>
    </filter>
    <linearGradient id="i" gradientUnits="userSpaceOnUse" x1="13.992" x2="36.505" xlink:href="#a" y1="64.5" y2="64.5"/>
    <linearGradient id="a">
      <stop offset="0" stop-color="#e9b96e"/>
      <stop offset="1" stop-color="#e9b96e" stop-opacity="0"/>
    </linearGradient>
    <radialGradient id="h" cx="19.217" cy="933.68" gradientTransform="matrix(1.00816 -.4606 1.19876 2.60654 -1119.851 -2424.19)" gradientUnits="userSpaceOnUse" r="44.094" xlink:href="#a"/>
    <pattern id="g" patternTransform="translate(12 9.638) scale(1.09638)" xlink:href="#b"/>
    <filter id="f" color-interpolation-filters="sRGB">
      <feGaussianBlur stdDeviation=".49"/>
    </filter>
    <radialGradient id="d" cx="64.668" cy="115.112" fx="97.296" fy="41.258" gradientTransform="matrix(1 0 0 .03446 0 111.144)" gradientUnits="userSpaceOnUse" r="62.407">
      <stop offset="0"/>
      <stop offset="1" stop-opacity="0"/>
    </radialGradient>
    <filter id="e" color-interpolation-filters="sRGB" height="1.486" width="1.033" x="-.017" y="-.243">
      <feGaussianBlur stdDeviation=".869"/>
    </filter>
    <filter id="c" color-interpolation-filters="sRGB" height="3.944" width="1.151" x="-.076" y="-1.472">
      <feGaussianBlur stdDeviation="2.76"/>
    </filter>
  </defs>
  <rect filter="url(#c)" height="4.5" opacity=".5" rx="2.18" ry="2.614" transform="matrix(1.03203 0 0 .86072 -.72 15.67)" width="87.5" x="22.5" y="112.5"/>
  <path d="M127.075 115.112a62.407 4.296 0 1 1-124.814 0 62.407 4.296 0 1 1 124.814 0z" fill="url(#d)" filter="url(#e)" transform="matrix(.9199 0 0 1.69045 10.38 -78.292)"/>
  <path d="M19 12.63v14.058c0 .587 2.528 1.083 6 1.25v84.25c0 .996.813 1.812 1.812 1.812h82.125c2.25 0 4.063-1.789 4.063-4.031V15.063A4.06 4.06 0 0 0 108.937 11H35.812l-10.803.11c-3.425.035-6.009.52-6.009 1.52z" fill="#4d2600"/>
  <path d="M111.531 11.969c.591.706.969 1.6.969 2.594v94.906c0 2.242-1.813 4.031-4.063 4.031H26.312a1.76 1.76 0 0 1-1-.312c.326.482.875.812 1.5.812h82.125c2.25 0 4.063-1.789 4.063-4.031V15.063c0-1.25-.58-2.349-1.469-3.094zM19 26.625v.063c0 .556 2.305 1.028 5.5 1.218v-.468c-2.552-.123-4.597-.43-5.5-.813z" fill="#301800" filter="url(#f)"/>
  <path d="M22.809 13c-1 0-1.809.806-1.809 1.803v96.894c0 .997.809 1.803 1.809 1.803h82.137a4.033 4.033 0 0 0 4.054-4.04V17.072c0-2.243-1.804-4.072-4.054-4.072H31.821z" fill="#321900" opacity=".5"/>
  <path d="M22.25 15.336v12.948c0 .553 2.367 1.02 5.618 1.177v80.34c0 .939.76 1.707 1.697 1.707h76.897a3.787 3.787 0 0 0 3.804-3.796V17.337c0-2.112-1.698-3.826-3.804-3.826h-68.47c.202-.117-15.742.287-15.742 1.825z" fill="none" opacity=".5" stroke="#bf5e00" stroke-dasharray="1.5,1.5" stroke-width=".5"/>
  <path d="M20.809 13c-.771 0-1.772.155-1.765-.176L19 14.803v99.394c0 .997.809 1.803 1.809 1.803h82.137a4.033 4.033 0 0 0 4.054-4.04V17.072c0-2.243-1.804-4.072-4.054-4.072H29.821z" fill="#bf5e00"/>
  <path d="M20.809 13c-1 0-1.809.806-1.809 1.803v99.394c0 .997.809 1.803 1.809 1.803h82.137a4.033 4.033 0 0 0 4.054-4.04V17.072c0-2.243-1.804-4.072-4.054-4.072H20.81z" fill="url(#g)" opacity=".062"/>
  <path d="M21.625 13v.313h-.469L19 17.03v2.032L22.5 13zm3.719 0L19 23.969V26l7.5-13zm4 0L19 30.906v2L30.5 13h-.688zm4 0L19 37.844v2L34.5 13zm4 0L19 44.75v2.031L38.5 13zm4 0L19 51.687v2.032L42.5 13zm4 0L19 58.625v2.187l5.594-9.687-.094-.031L46.5 13h-1.156zm4 0L19 65.562v2.188l9.594-16.625-.063-.031L50.5 13h-1.156zm4 0L19 72.469v2.187l13.594-23.531-.063-.031L54.5 13h-1.156zm3.968 0L19 79.406v2.188l17.594-30.469-.063-.031 22-38.094h-1.219zm3.844.313L19 86.343v2.188l21.594-37.406-.094-.031 21.812-37.781h-1.156zm4 0L19 93.28v2.188l25.594-44.344-.094-.031 21.812-37.781h-1.156zm4 0L19 100.219v2.156l29.594-51.25-.063-.031 21.781-37.781h-1.156zm4 0l-52.312 90.625c.03.01.063 0 .093 0L19 107.313v2l33.594-58.188-.094-.031 21.812-37.781h-1.156zm4 0L24.812 104h.094L19 114.188v.03c.008.454.186.876.469 1.188l37.125-64.281-.094-.031 21.812-37.782h-1.156zm4 0L28.812 104h.094l-6.937 12h1.187l36.875-63.875c-.002-.061.007-.128 0-.188l22.281-38.624h-1.156zm4 0L32.812 104h.094l-6.937 12h1.156l35.187-60.938h-.093l24.094-41.75h-1.157zm4 0L36.812 104h.094l-6.937 12h1.187l35.156-60.938h-.093l24.094-41.75h-1.157zm4 0L40.812 104h.094L34 116h1.156l35.156-60.938h-.093l24.094-41.75h-1.157zm4 0L44.812 104h.094l-6.937 12h1.156l35.187-60.938h-.093l24.094-41.75h-1.157zm4 0L48.812 104h.094l-6.937 12h1.156l35.187-60.938h-.093l24.094-41.75h-1.157zm3.844.25L52.812 104h.094l-6.937 12h1.156l35.187-60.938h-.093l23.594-40.874a4.03 4.03 0 0 0-.813-.625zm2 3.5L56.812 104h.094l-6.937 12h1.156l35.187-60.938h-.093l20.781-36v-2zm0 6.906L60.812 104h.094l-6.937 12h1.156l35.187-60.938h-.093L107 25.97zm0 6.937L64.812 104h.094l-6.937 12h1.156l35.187-60.938h-.093l12.78-22.156v-2zm0 6.938L68.812 104h.094l-6.937 12h1.156l35.187-60.938h-.093L107 39.844zm0 6.937L72.812 104h.094l-6.937 12h1.156l35.187-60.938h-.093l4.781-8.28zm0 6.906L76.812 104h.094l-6.937 12h1.156l35.187-60.938h-.093L107 53.72zm0 6.938L80.812 104h.094l-6.937 12h1.156L107 60.812v-2.187zm0 6.937L84.812 104h.094l-6.937 12h1.156L107 67.719v-2.157zm0 6.938L88.812 104h.094l-6.937 12h1.156L107 74.656V72.5zm0 7.094L85.969 116h1.156L107 81.594zm0 6.937L89.969 116h1.156L107 88.531zm0 6.907L93.969 116h1.156L107 95.438zm0 6.937L97.969 116h1.156L107 102.375zm0 6.938L102 116h.937c.074 0 .147-.027.22-.031l3.843-6.656zM23.625 13v.313h-.469L21 17.03v2.032L24.5 13zm3.719 0L21 23.969V26l7.5-13zm4 0L21 30.906v2L32.5 13zm4 0L21 37.844v2L36.5 13zm4 0L21 44.75v2.031L40.5 13zm4 0L21 51.687v2.032L44.5 13zm4 0L21 58.625v2.187l5.594-9.687-.094-.031L48.5 13h-1.156zm4 0L21 65.562v2.188l9.594-16.625-.063-.031L52.5 13h-1.156zm4 0L21 72.469v2.187l13.594-23.531-.063-.031L56.5 13h-1.156zm3.968 0L21 79.406v2.188l17.594-30.469-.063-.031 22-38.094h-1.219zm3.844.313L21 86.343v2.188l21.594-37.406-.094-.031 21.812-37.782h-1.156zm4 0L21 93.28v2.188l25.594-44.344-.094-.031 21.812-37.782h-1.156zm4 0L21 100.219v2.156l29.594-51.25-.063-.031 21.781-37.782h-1.156zm4 0l-52.312 90.624c.03.01.063 0 .093 0L21 107.314v2l33.594-58.188-.094-.031 21.812-37.782h-1.156zm4 0L26.812 104h.094L21 114.188v.03c.008.454.186.876.469 1.188l37.125-64.281-.094-.031 21.812-37.782h-1.156zm4 0L30.812 104h.094l-6.937 12h1.187l36.875-63.875c-.002-.061.006-.128 0-.188l22.281-38.624zm4 0L34.812 104h.094l-6.937 12h1.156l35.187-60.938h-.093l24.094-41.75h-1.157zm4 0L38.812 104h.094l-6.937 12h1.187l35.156-60.938h-.093l24.094-41.75h-1.157zm4 0L42.812 104h.094L36 116h1.156l35.156-60.938h-.093l24.094-41.75h-1.157zm4 0L46.812 104h.094l-6.937 12h1.156l35.187-60.938h-.093l24.094-41.75h-1.157zm4 0L50.812 104h.094l-6.937 12h1.156l35.187-60.938h-.093l24.094-41.75h-1.157zm3.125 1.468L54.812 104h.094l-6.937 12h1.156l35.187-60.938h-.093l22.594-39.124a3.973 3.973 0 0 0-.532-1.157zm.719 5.75L58.812 104h.094l-6.937 12h1.156l35.187-60.938h-.093L107 22.532v-2zm0 6.907L62.812 104h.094l-6.937 12h1.156l35.187-60.938h-.093L107 29.438zm0 6.937L66.812 104h.094l-6.937 12h1.156l35.187-60.938h-.093L107 36.375zm0 6.938L70.812 104h.094l-6.937 12h1.156l35.187-60.938h-.093L107 43.312zm0 6.937L74.812 104h.094l-6.937 12h1.156l35.187-60.938h-.093l2.78-4.812v-2zm0 6.906L78.812 104h.094l-6.937 12h1.156L107 57.344v-2.188zm0 6.938L82.812 104h.094l-6.937 12h1.156L107 64.281v-2.187zm0 6.937L86.812 104h.094l-6.937 12h1.156L107 71.187v-2.156zm0 6.938L90.812 104h.094l-6.937 12h1.156L107 78.125v-2.156zm0 7.093L87.969 116h1.156L107 85.062zM107 90l-15.031 26h1.156L107 92zm0 6.906L95.969 116h1.156L107 98.906zm0 6.938L99.969 116h1.156L107 105.844zm0 6.937l-2.906 5.031a3.983 3.983 0 0 0 1.718-1l.032-.03.969-1.688c.105-.362.187-.728.187-1.125v-1.188z" fill="#803f00" opacity=".2"/>
  <path d="M20.809 13c-1 0-1.809.806-1.809 1.803v99.394c0 .997.809 1.803 1.809 1.803h82.137a4.033 4.033 0 0 0 4.054-4.04V17.072c0-2.243-1.804-4.072-4.054-4.072H20.81z" fill="url(#h)" opacity=".5"/>
  <path d="M19.414 13c-.229 0-.414.806-.414 1.803v99.394c0 1.39.61 1.803 2.48 1.803H37.2V13H21.48z" fill="url(#i)"/>
  <path d="M23.219 19.044a.288.288 0 0 0 .281-.219.284.284 0 0 0 0-.062v-.5a.289.289 0 0 0-.219-.281.326.326 0 0 0-.062 0c-3.007-.223-2.89 1.062 0 1.062zm1.906-1.062a.286.286 0 0 0-.188.218.284.284 0 0 0 0 .063v.5a.289.289 0 0 0 .22.281c.02.002.041.002.062 0h2a.288.288 0 0 0 .281-.219.284.284 0 0 0 0-.062v-.5a.289.289 0 0 0-.219-.281.326.326 0 0 0-.062 0h-2a.295.295 0 0 0-.094 0zm4 0a.286.286 0 0 0-.188.218.284.284 0 0 0 0 .063v.5a.289.289 0 0 0 .22.281c.02.002.041.002.062 0h2a.288.288 0 0 0 .281-.219.284.284 0 0 0 0-.062v-.5a.289.289 0 0 0-.219-.281.326.326 0 0 0-.062 0h-2a.295.295 0 0 0-.094 0zm4 0a.286.286 0 0 0-.188.218.284.284 0 0 0 0 .063v.5a.289.289 0 0 0 .22.281c.02.002.041.002.062 0h2a.288.288 0 0 0 .281-.219.284.284 0 0 0 0-.062v-.5a.289.289 0 0 0-.219-.281.326.326 0 0 0-.062 0h-2a.295.295 0 0 0-.094 0zm4 0a.286.286 0 0 0-.188.218.284.284 0 0 0 0 .063v.5a.289.289 0 0 0 .22.281c.02.002.041.002.062 0h2a.288.288 0 0 0 .281-.219.284.284 0 0 0 0-.062v-.5a.289.289 0 0 0-.219-.281.326.326 0 0 0-.062 0h-2a.295.295 0 0 0-.094 0zm4 0a.286.286 0 0 0-.188.218.284.284 0 0 0 0 .063v.5a.289.289 0 0 0 .22.281c.02.002.041.002.062 0h2a.288.288 0 0 0 .281-.219.284.284 0 0 0 0-.062v-.5a.289.289 0 0 0-.219-.281.326.326 0 0 0-.062 0h-2a.295.295 0 0 0-.094 0zm4 0a.286.286 0 0 0-.188.218.284.284 0 0 0 0 .063v.5a.289.289 0 0 0 .22.281c.02.002.041.002.062 0h2a.288.288 0 0 0 .281-.219.284.284 0 0 0 0-.062v-.5a.289.289 0 0 0-.219-.281.326.326 0 0 0-.062 0h-2a.295.295 0 0 0-.094 0zm4 0a.286.286 0 0 0-.188.218.284.284 0 0 0 0 .063v.5a.289.289 0 0 0 .22.281c.02.002.041.002.062 0h2a.288.288 0 0 0 .281-.219.284.284 0 0 0 0-.062v-.5a.289.289 0 0 0-.219-.281.326.326 0 0 0-.062 0h-2a.295.295 0 0 0-.094 0zm4 0a.286.286 0 0 0-.188.218.284.284 0 0 0 0 .063v.5a.289.289 0 0 0 .22.281c.02.002.041.002.062 0h2a.288.288 0 0 0 .281-.219.284.284 0 0 0 0-.062v-.5a.289.289 0 0 0-.219-.281.326.326 0 0 0-.062 0h-2a.295.295 0 0 0-.094 0zm4 0a.286.286 0 0 0-.188.218.284.284 0 0 0 0 .063v.5a.289.289 0 0 0 .22.281c.02.002.041.002.062 0h2a.288.288 0 0 0 .281-.219.284.284 0 0 0 0-.062v-.5a.289.289 0 0 0-.219-.281.326.326 0 0 0-.062 0h-2a.295.295 0 0 0-.094 0zm4 0a.286.286 0 0 0-.188.218.326.326 0 0 0 0 .063v.5a.288.288 0 0 0 .22.281c.02.002.041.002.062 0h2a.288.288 0 0 0 .281-.219.326.326 0 0 0 0-.062v-.5a.288.288 0 0 0-.219-.281.326.326 0 0 0-.062 0h-2a.295.295 0 0 0-.094 0zm4 0a.286.286 0 0 0-.188.218.326.326 0 0 0 0 .063v.5a.288.288 0 0 0 .22.281c.02.002.041.002.062 0h2a.288.288 0 0 0 .281-.219.326.326 0 0 0 0-.062v-.5a.288.288 0 0 0-.219-.281.326.326 0 0 0-.062 0h-2a.295.295 0 0 0-.094 0zm4 0a.286.286 0 0 0-.188.218.326.326 0 0 0 0 .063v.5a.288.288 0 0 0 .22.281c.02.002.041.002.062 0h2a.288.288 0 0 0 .281-.219.326.326 0 0 0 0-.062v-.5a.288.288 0 0 0-.219-.281.326.326 0 0 0-.062 0h-2a.295.295 0 0 0-.094 0zm4 0a.286.286 0 0 0-.188.218.326.326 0 0 0 0 .063v.5a.288.288 0 0 0 .22.281c.02.002.041.002.062 0h2a.288.288 0 0 0 .281-.219.326.326 0 0 0 0-.062v-.5a.288.288 0 0 0-.219-.281.326.326 0 0 0-.062 0h-2a.295.295 0 0 0-.094 0zm4 0a.286.286 0 0 0-.188.218.326.326 0 0 0 0 .063v.5a.288.288 0 0 0 .22.281c.02.002.041.002.062 0h2a.288.288 0 0 0 .281-.219.326.326 0 0 0 0-.062v-.5a.288.288 0 0 0-.219-.281.326.326 0 0 0-.062 0h-2a.295.295 0 0 0-.094 0zm4 0a.286.286 0 0 0-.188.218.326.326 0 0 0 0 .063v.5a.288.288 0 0 0 .22.281c.02.002.041.002.062 0h2a.288.288 0 0 0 .281-.219.326.326 0 0 0 0-.062v-.5a.288.288 0 0 0-.219-.281.326.326 0 0 0-.062 0h-2a.295.295 0 0 0-.094 0zm4 0a.286.286 0 0 0-.188.218.326.326 0 0 0 0 .063v.5a.288.288 0 0 0 .22.281c.02.002.041.002.062 0h2a.288.288 0 0 0 .281-.219.326.326 0 0 0 0-.062v-.5a.288.288 0 0 0-.219-.281.326.326 0 0 0-.062 0h-2a.295.295 0 0 0-.094 0zm4 0a.285.285 0 0 0-.188.218.326.326 0 0 0 0 .063v.5a.288.288 0 0 0 .22.281.32.32 0 0 0 .062 0h2a.288.288 0 0 0 .281-.219.326.326 0 0 0 0-.062v-.5a.288.288 0 0 0-.219-.281.326.326 0 0 0-.062 0h-2a.295.295 0 0 0-.094 0zm4 0a.285.285 0 0 0-.188.218.326.326 0 0 0 0 .063v.5a.288.288 0 0 0 .22.281.32.32 0 0 0 .062 0h2a.288.288 0 0 0 .281-.219.326.326 0 0 0 0-.062v-.5a.288.288 0 0 0-.219-.281.326.326 0 0 0-.062 0h-2a.295.295 0 0 0-.094 0zm-72.406 92.987c-1.966.025-1.469 1.4 0 1.062a.293.293 0 0 0 .281-.219.284.284 0 0 0 0-.062v-.5a.289.289 0 0 0-.219-.281zm1.906 0a.286.286 0 0 0-.188.219.284.284 0 0 0 0 .062v.5a.289.289 0 0 0 .22.281h2.062a.293.293 0 0 0 .281-.219.284.284 0 0 0 0-.062v-.5a.289.289 0 0 0-.219-.281H22.72zm4 0a.286.286 0 0 0-.188.219.284.284 0 0 0 0 .062v.5a.289.289 0 0 0 .22.281h2.062a.293.293 0 0 0 .281-.219.284.284 0 0 0 0-.062v-.5a.289.289 0 0 0-.219-.281H26.72zm4 0a.286.286 0 0 0-.188.219.284.284 0 0 0 0 .062v.5a.289.289 0 0 0 .22.281h2.062a.293.293 0 0 0 .281-.219.284.284 0 0 0 0-.062v-.5a.289.289 0 0 0-.219-.281H30.72zm4 0a.286.286 0 0 0-.188.219.284.284 0 0 0 0 .062v.5a.289.289 0 0 0 .22.281h2.062a.293.293 0 0 0 .281-.219.284.284 0 0 0 0-.062v-.5a.289.289 0 0 0-.219-.281H34.72zm4 0a.286.286 0 0 0-.188.219.284.284 0 0 0 0 .062v.5a.289.289 0 0 0 .22.281h2.062a.293.293 0 0 0 .281-.219.284.284 0 0 0 0-.062v-.5a.289.289 0 0 0-.219-.281H38.72zm4 0a.286.286 0 0 0-.188.219.284.284 0 0 0 0 .062v.5a.289.289 0 0 0 .22.281h2.062a.293.293 0 0 0 .281-.219.284.284 0 0 0 0-.062v-.5a.289.289 0 0 0-.219-.281H42.72zm4 0a.286.286 0 0 0-.188.219.284.284 0 0 0 0 .062v.5a.289.289 0 0 0 .22.281h2.062a.293.293 0 0 0 .281-.219.284.284 0 0 0 0-.062v-.5a.289.289 0 0 0-.219-.281H46.72zm4 0a.286.286 0 0 0-.188.219.284.284 0 0 0 0 .062v.5a.289.289 0 0 0 .22.281h2.062a.293.293 0 0 0 .281-.219.284.284 0 0 0 0-.062v-.5a.289.289 0 0 0-.219-.281H50.72zm4 0a.286.286 0 0 0-.188.219.284.284 0 0 0 0 .062v.5a.289.289 0 0 0 .22.281h2.062a.293.293 0 0 0 .281-.219.284.284 0 0 0 0-.062v-.5a.289.289 0 0 0-.219-.281H54.72zm4 0a.286.286 0 0 0-.188.219.284.284 0 0 0 0 .062v.5a.289.289 0 0 0 .22.281h2.062a.293.293 0 0 0 .281-.219.326.326 0 0 0 0-.062v-.5a.288.288 0 0 0-.219-.281H58.72zm4 0a.286.286 0 0 0-.188.219.326.326 0 0 0 0 .062v.5a.288.288 0 0 0 .22.281h2.062a.293.293 0 0 0 .281-.219.326.326 0 0 0 0-.062v-.5a.288.288 0 0 0-.219-.281h-2.156zm4 0a.286.286 0 0 0-.188.219.326.326 0 0 0 0 .062v.5a.288.288 0 0 0 .22.281h2.062a.293.293 0 0 0 .281-.219.326.326 0 0 0 0-.062v-.5a.288.288 0 0 0-.219-.281h-2.156zm4 0a.286.286 0 0 0-.188.219.326.326 0 0 0 0 .062v.5a.288.288 0 0 0 .22.281h2.062a.293.293 0 0 0 .281-.219.326.326 0 0 0 0-.062v-.5a.288.288 0 0 0-.219-.281h-2.156zm4 0a.286.286 0 0 0-.188.219.326.326 0 0 0 0 .062v.5a.288.288 0 0 0 .22.281h2.062a.293.293 0 0 0 .281-.219.326.326 0 0 0 0-.062v-.5a.288.288 0 0 0-.219-.281h-2.156zm4 0a.286.286 0 0 0-.188.219.326.326 0 0 0 0 .062v.5a.288.288 0 0 0 .22.281h2.062a.293.293 0 0 0 .281-.219.326.326 0 0 0 0-.062v-.5a.288.288 0 0 0-.219-.281h-2.156zm4 0a.286.286 0 0 0-.188.219.326.326 0 0 0 0 .062v.5a.288.288 0 0 0 .22.281h2.062a.293.293 0 0 0 .281-.219.326.326 0 0 0 0-.062v-.5a.288.288 0 0 0-.219-.281h-2.156zm4 0a.286.286 0 0 0-.188.219.326.326 0 0 0 0 .062v.5a.288.288 0 0 0 .22.281h2.062a.293.293 0 0 0 .281-.219.326.326 0 0 0 0-.062v-.5a.288.288 0 0 0-.219-.281h-2.156zm4 0a.286.286 0 0 0-.188.219.326.326 0 0 0 0 .062v.5a.288.288 0 0 0 .22.281h2.062a.293.293 0 0 0 .281-.219.326.326 0 0 0 0-.062v-.5a.288.288 0 0 0-.219-.281h-2.156zm4.25 0a.286.286 0 0 0-.188.219.326.326 0 0 0 0 .062v.5a.288.288 0 0 0 .22.281h2.062a.293.293 0 0 0 .281-.219.326.326 0 0 0 0-.062v-.5a.288.288 0 0 0-.219-.281h-2.156z" fill="#4d2600" filter="url(#j)" opacity=".5"/>
  <path clip-path="url(#k)" d="M104.69 14.532c-24.062 10.607 3.952 68.593-22.851 84.067-21.21 12.246-49.813 9.981-62.475 17.182h84.199a4.048 4.048 0 0 0 4.062-4.062V48.938c-3.23-1.747.226-34.402-2.935-34.406z" fill="#803f00" filter="url(#l)"/>
  <path d="M97.969 942.75a.468.468 0 0 0-.344.281l-.188.469a.468.468 0 0 0 .25.625l.47.188a.468.468 0 0 0 .062.03l.031.032h.031l.531.344.032.031a.468.468 0 0 0 .062.031l.313.25a.468.468 0 0 0 .625-.062l.344-.375a.468.468 0 0 0-.063-.688l-.313-.25a.468.468 0 0 0-.062-.03.468.468 0 0 0 0-.032.468.468 0 0 0-.031 0 .468.468 0 0 0 0-.031h-.031l-.626-.375-.03-.032a.468.468 0 0 0-.063-.031.468.468 0 0 0-.094-.063l-.625-.28a.468.468 0 0 0-.281-.032zm2.969 2.813a.468.468 0 0 0-.032.03l-.469.126a.468.468 0 0 0-.343.531l.062.219a.468.468 0 0 0 0 .031v.031l.031.25v1.312a.468.468 0 0 0 .47.47h.5a.468.468 0 0 0 .468-.47v-1.312a.468.468 0 0 0 0-.03l-.031-.345v-.062a.468.468 0 0 0-.032-.125l-.093-.313a.468.468 0 0 0-.532-.343zm-.376 4.062a.468.468 0 0 0-.374.469v2a.468.468 0 0 0 .468.468h.5a.468.468 0 0 0 .469-.468v-2a.468.468 0 0 0-.469-.469h-.5a.468.468 0 0 0-.093 0zm0 4a.468.468 0 0 0-.374.469v2a.468.468 0 0 0 .468.468h.5a.468.468 0 0 0 .469-.468v-2a.468.468 0 0 0-.469-.469h-.5a.468.468 0 0 0-.093 0zm0 4a.468.468 0 0 0-.374.469v2a.468.468 0 0 0 .468.468h.5a.468.468 0 0 0 .469-.468v-2a.468.468 0 0 0-.469-.469h-.5a.468.468 0 0 0-.093 0zm0 4a.468.468 0 0 0-.374.469v2a.468.468 0 0 0 .468.468h.5a.468.468 0 0 0 .469-.468v-2a.468.468 0 0 0-.469-.469h-.5a.468.468 0 0 0-.093 0zm0 4a.468.468 0 0 0-.374.469v2a.468.468 0 0 0 .468.468h.5a.468.468 0 0 0 .469-.468v-2a.468.468 0 0 0-.469-.469h-.5a.468.468 0 0 0-.093 0zm0 4a.468.468 0 0 0-.374.469v2a.468.468 0 0 0 .468.468h.5a.468.468 0 0 0 .469-.468v-2a.468.468 0 0 0-.469-.469h-.5a.468.468 0 0 0-.093 0zm0 4a.468.468 0 0 0-.374.469v2a.468.468 0 0 0 .468.468h.5a.468.468 0 0 0 .469-.468v-2a.468.468 0 0 0-.469-.469h-.5a.468.468 0 0 0-.093 0zm0 4a.468.468 0 0 0-.374.469v2a.468.468 0 0 0 .468.468h.5a.468.468 0 0 0 .469-.468v-2a.468.468 0 0 0-.469-.469h-.5a.468.468 0 0 0-.093 0zm0 4a.468.468 0 0 0-.374.469v2a.468.468 0 0 0 .468.468h.5a.468.468 0 0 0 .469-.468v-2a.468.468 0 0 0-.469-.469h-.5a.468.468 0 0 0-.093 0zm0 4a.468.468 0 0 0-.374.469v2a.468.468 0 0 0 .468.468h.5a.468.468 0 0 0 .469-.468v-2a.468.468 0 0 0-.469-.469h-.5a.468.468 0 0 0-.093 0zm0 4a.468.468 0 0 0-.374.469v2a.468.468 0 0 0 .468.468h.5a.468.468 0 0 0 .469-.468v-2a.468.468 0 0 0-.469-.469h-.5a.468.468 0 0 0-.093 0zm0 4a.468.468 0 0 0-.374.469v2a.468.468 0 0 0 .468.468h.5a.468.468 0 0 0 .469-.468v-2a.468.468 0 0 0-.469-.469h-.5a.468.468 0 0 0-.093 0zm0 4a.468.468 0 0 0-.374.469v2a.468.468 0 0 0 .468.468h.5a.468.468 0 0 0 .469-.468v-2a.468.468 0 0 0-.469-.469h-.5a.468.468 0 0 0-.093 0zm0 4a.468.468 0 0 0-.374.469v2a.468.468 0 0 0 .468.468h.5a.468.468 0 0 0 .469-.468v-2a.468.468 0 0 0-.469-.469h-.5a.468.468 0 0 0-.093 0zm0 4a.468.468 0 0 0-.374.469v2a.468.468 0 0 0 .468.468h.5a.468.468 0 0 0 .469-.468v-2a.468.468 0 0 0-.469-.469h-.5a.468.468 0 0 0-.093 0zm0 4a.468.468 0 0 0-.374.469v2a.468.468 0 0 0 .468.468h.5a.468.468 0 0 0 .469-.468v-2a.468.468 0 0 0-.469-.469h-.5a.468.468 0 0 0-.093 0zm0 4a.468.468 0 0 0-.374.469v2a.468.468 0 0 0 .468.468h.5a.468.468 0 0 0 .469-.468v-2a.468.468 0 0 0-.469-.469h-.5a.468.468 0 0 0-.093 0zm0 4a.468.468 0 0 0-.374.469v2a.468.468 0 0 0 .468.468h.5a.468.468 0 0 0 .469-.468v-2a.468.468 0 0 0-.469-.469h-.5a.468.468 0 0 0-.093 0zm0 4a.468.468 0 0 0-.374.469v2a.468.468 0 0 0 .468.469h.5a.468.468 0 0 0 .469-.47v-2a.468.468 0 0 0-.469-.468h-.5a.468.468 0 0 0-.093 0zm0 4a.468.468 0 0 0-.374.469v2a.468.468 0 0 0 .468.469h.5a.468.468 0 0 0 .469-.47v-2a.468.468 0 0 0-.469-.468h-.5a.468.468 0 0 0-.093 0zm0 4a.468.468 0 0 0-.374.469v2a.468.468 0 0 0 .468.469h.5a.468.468 0 0 0 .469-.47v-2a.468.468 0 0 0-.469-.468h-.5a.468.468 0 0 0-.093 0zm-.312 3.813a.468.468 0 0 0-.313.25l-.187.312-.031.031a.468.468 0 0 0-.031.063v.031l-.344.375v.031h-.031v.031l-.376.313a.468.468 0 0 0-.062.062.468.468 0 0 0-.031 0 .468.468 0 0 0-.031.032.468.468 0 0 0-.094.562l.25.438a.468.468 0 0 0 .625.187l.062-.031a.468.468 0 0 0 .125-.063l.031-.031.5-.406a.468.468 0 0 0 .032-.031l.031-.031a.468.468 0 0 0 0-.031l.469-.563a.468.468 0 0 0 .062-.094.468.468 0 0 0 .063-.125l.219-.343a.468.468 0 0 0-.188-.657l-.438-.25a.468.468 0 0 0-.312-.063z" fill="#4d2600" filter="url(#m)" opacity=".5" transform="translate(0 -924.362)"/>
  <path d="M19.117 111.75H97.63a3.623 3.623 0 0 0 3.622-3.648V22.424c0-2.025-2.658-3.676-4.668-3.676h-77.38" fill="none" stroke="#ffbf80" stroke-width=".5" stroke-linecap="round" stroke-dasharray="2,2" stroke-dashoffset="3.4"/>
  <g transform="rotate(180 83.438 499.412)">
    <rect fill="#803f00" filter="url(#n)" height="16" rx="1.684" ry="1.628" transform="matrix(1.07415 0 0 1.11123 -5.722 -106.89)" width="16" x="73.939" y="953.009"/>
    <rect fill="#ffbf80" filter="url(#n)" height="16" opacity=".2" rx="1.75" ry="1.756" transform="matrix(1.03352 0 0 1.02996 .286 -26.846)" width="16" x="73.939" y="953.009"/>
    <rect fill="#4d2600" height="16" rx="1.809" transform="matrix(0 -1 -1 0 0 0)" width="16" x="-969.362" y="-91"/>
    <path d="M89.19 969.354a1.81 1.81 0 0 0 1.812-1.812v-12.375c0-.626-.332-1.176-.813-1.5.195.289.313.624.313 1v12.375a1.81 1.81 0 0 1-1.813 1.812H76.314c-.36 0-.718-.1-1-.28a1.79 1.79 0 0 0 1.5.78z" fill="#ffbf80" opacity=".588"/>
  </g>
  <path d="M105.781 14.188c.299.567.469 1.189.469 1.875v94.906c0 2.242-1.563 4.531-3.813 4.531h-4.5l-68.875.03h-9c-.277 0-.546-.607-.78-.718a1.815 1.815 0 0 0 1.78 1.438h82.125c2.25 0 4.063-1.79 4.063-4.032V17.312a4.064 4.064 0 0 0-1.469-3.125z" fill="#4d2600" filter="url(#o)" opacity=".728"/>
  <path d="M19 12.281c0 .969 5.531.719 5.531.719L19 14.406z" fill="#edb86f"/>
  <path d="M20.812 13c-1 0-1.812.816-1.812 1.813v.5c0-.997.813-1.813 1.812-1.813h82.125A4.06 4.06 0 0 1 107 17.563v-.5A4.06 4.06 0 0 0 102.937 13H29.812z" fill="#ffbf80" filter="url(#p)" opacity=".704"/>
  <path d="M35.812 11L25 11.125c-3.425.035-6 .5-6 1.5v.5c0-1 2.575-1.465 6-1.5l10.812-.125h73.125A4.06 4.06 0 0 1 113 15.563v-.5A4.06 4.06 0 0 0 108.937 11z" fill="#ffbf80" filter="url(#q)" opacity=".696"/>
  <g clip-path="url(#r)" transform="translate(0 -924.362)">
    <rect fill="#ffbf80" filter="url(#s)" height="97.5" opacity=".5" rx="1.25" ry="1.809" width="2.5" x="20.5" y="939.362"/>
    <rect fill="#803f00" filter="url(#t)" height="112.002" opacity=".188" rx="1.768" ry="2.75" transform="matrix(1.5553 0 0 1 -17.936 0)" width="5.81" x="29.19" y="933.861"/>
    <rect fill="url(#u)" filter="url(#t)" height="116" opacity=".192" rx=".728" ry="2.75" transform="matrix(3.77654 0 0 1 -95.174 0)" width="5.5" x="35.5" y="930.362"/>
  </g>
</svg>
