<?xml version="1.0" encoding="UTF-8" standalone="no"?>
<svg xmlns="http://www.w3.org/2000/svg" xmlns:xlink="http://www.w3.org/1999/xlink" width="128" height="128">
  <defs>
    <linearGradient id="a">
      <stop offset="0"/>
      <stop offset="1" stop-opacity="0"/>
    </linearGradient>
    <linearGradient id="d" x1="-30.97364" x2="93.725433" y1="83.571533" y2="83.571533" gradientUnits="userSpaceOnUse">
      <stop offset="0" stop-color="#00438a"/>
      <stop offset="1" stop-color="#00438a" stop-opacity="0"/>
    </linearGradient>
    <linearGradient id="f" x1="-7.940327" x2="68.140739" y1="29.173187" y2="137.08116" gradientUnits="userSpaceOnUse">
      <stop offset="0" stop-color="#fff"/>
      <stop offset=".50720751" stop-color="#e9e5e9"/>
      <stop offset="1" stop-color="#fff"/>
    </linearGradient>
    <linearGradient id="h" x1="40.854919" x2="42.264725" y1="21.155762" y2="137.40915" gradientUnits="userSpaceOnUse">
      <stop offset="0" stop-color="#fff"/>
      <stop offset="1" stop-color="#fff" stop-opacity="0"/>
    </linearGradient>
    <linearGradient id="i" x1="51.655071" x2="109.11894" y1="138.82434" y2="58.016612" gradientUnits="userSpaceOnUse">
      <stop offset="0" stop-color="#00316e"/>
      <stop offset="1" stop-color="#00316e" stop-opacity="0"/>
    </linearGradient>
    <linearGradient id="q" x1="118.04734811" x2="111.30363915" y1="118.52887532" y2="111.31661248" gradientUnits="userSpaceOnUse">
      <stop offset="0" stop-color="#a2a2a2"/>
      <stop offset="1" stop-color="#fff"/>
    </linearGradient>
    <linearGradient id="m" x1="27.936609" x2="32.048244" y1="31.109358" y2="177.5768" gradientTransform="matrix(.5998 0 0 .62067 49.445555 47.036568)" gradientUnits="userSpaceOnUse">
      <stop offset="0" stop-color="#fff"/>
      <stop offset="1" stop-color="#eee"/>
    </linearGradient>
    <linearGradient id="s" x1="24" x2="24" y1="8" y2="-16.569082" gradientTransform="matrix(.76155 0 0 .7917 5.73877 0)" gradientUnits="userSpaceOnUse" spreadMethod="reflect">
      <stop offset="0" stop-color="#fff"/>
      <stop offset="1" stop-color="#555"/>
    </linearGradient>
    <linearGradient xlink:href="#a" id="t" x1="25.559429" x2="25.559429" y1="-.202853" y2="4.002753" gradientTransform="matrix(.76155 0 0 1.09557 5.73877 .222239)" gradientUnits="userSpaceOnUse"/>
    <linearGradient xlink:href="#a" id="u" x1="25.559429" x2="25.559429" y1="-.202853" y2="4.002753" gradientTransform="matrix(.76155 0 0 .64436 5.584286 -12.520676)" gradientUnits="userSpaceOnUse"/>
    <radialGradient xlink:href="#a" id="b" cx="81.562538" cy="151.97745" r="80.225449" fx="73.268311" gradientTransform="matrix(1 0 0 .13333 0 131.7138)" gradientUnits="userSpaceOnUse"/>
    <radialGradient id="c" cx="59.106853" cy="65.424416" r="57.468739" gradientTransform="matrix(.63925 -.6394 .63923 .63938 -23.605707 68.488943)" gradientUnits="userSpaceOnUse">
      <stop offset="0" stop-color="#00438a"/>
      <stop offset=".69999999" stop-color="#00438a"/>
      <stop offset=".88" stop-color="#ccf6ff"/>
      <stop offset="1" stop-color="#2c72c7"/>
    </radialGradient>
    <radialGradient id="o" cx="48" cy="-.2148" r="55.147999" gradientTransform="matrix(.74486 -.00003 .00003 .58825 54.219115 56.020551)" gradientUnits="userSpaceOnUse">
      <stop offset="0" stop-color="#72d13d"/>
      <stop offset=".3553" stop-color="#35ac1c"/>
      <stop offset=".6194" stop-color="#0f9508"/>
      <stop offset=".7574" stop-color="#008c00"/>
      <stop offset="1" stop-color="#007a00"/>
    </radialGradient>
    <radialGradient id="n" cx="48.125" cy="8.625" r="49.875" gradientTransform="matrix(.70833 0 0 .62745 56.000005 52.000003)" gradientUnits="userSpaceOnUse">
      <stop offset="0" stop-color="#d6ffc0"/>
      <stop offset=".0735" stop-color="#ccfab7"/>
      <stop offset=".61132425" stop-color="#4cb544"/>
      <stop offset=".7574" stop-color="#008c00"/>
    </radialGradient>
    <radialGradient id="r" cx="24" cy="17.363621" r="10.839936" gradientTransform="matrix(1.18722 0 0 .30517 -4.544854 7.220271)" gradientUnits="userSpaceOnUse">
      <stop offset="0"/>
      <stop offset="1" stop-color="#060"/>
    </radialGradient>
    <filter id="p" width="1.257627" height="1.257627" x="-.128814" y="-.128814">
      <feGaussianBlur stdDeviation="1.1413633"/>
    </filter>
    <filter id="e">
      <feGaussianBlur stdDeviation="2.4939826"/>
    </filter>
    <filter id="g">
      <feGaussianBlur stdDeviation=".52679"/>
    </filter>
    <filter id="k">
      <feGaussianBlur stdDeviation="2.2929748"/>
    </filter>
    <filter id="l">
      <feGaussianBlur stdDeviation="1.4"/>
    </filter>
    <clipPath id="j">
      <path d="M92.586622 17.902616C70.339967-4.5023238 33.814477-4.7694413 11.261188 17.330814c-22.553291 22.100256-22.803418 58.404269-.556763 80.809208 22.246659 22.404948 58.791105 22.653478 81.344399.55323 22.553286-22.100255 22.784466-58.38569.537798-80.790636z"/>
    </clipPath>
  </defs>
  <path fill="url(#b)" d="M161.78799 151.97745a80.225449 10.696727 0 1 1-160.4509005 0 80.225449 10.696727 0 1 1 160.4509005 0z" opacity=".6" transform="matrix(.51854 0 0 .56092 9.706668 18.752916)"/>
  <path fill="url(#c)" d="M56.356556 20.534574C27.718564 20.338908 4.1977436 43.521382 4.0012929 72.166026 3.8048418 100.81066 27.005328 124.33644 55.643322 124.5321c28.638002.19568 52.158988-23.01088 52.355438-51.655529.19644-28.644644-23.004198-52.146338-51.642204-52.341997z" transform="translate(-3.999999 -20.533342)"/>
  <path fill="#505050" d="m52.890192 22.678476-2.296745 26.004896c-1.236812.508637-2.131472 1.728837-2.165673 3.138868-.034096 1.405704.800205 2.602582 2.007176 3.079067l-.192561 7.938969 2.45914-.035246.192562-7.938966c1.233877-.510039 2.12384-1.730891 2.157988-3.13876.03422-1.410749-.80086-2.605919-2.014857-3.078958z"/>
  <path fill="#a00000" d="m15.673413 39.148552 32.868408 12.917877c.099507 1.333859.981487 2.563213 2.310953 3.033318 1.325393.468663 2.721859.04681 3.549345-.952948l7.485391 2.64686.729802-2.349185-7.485388-2.64686c-.101748-1.331503-.985804-2.556592-2.313234-3.02598-1.330149-.470345-2.725237-.047227-3.551626.960286z"/>
  <path fill="url(#d)" d="M93.725433 83.571533a62.349537 62.349537 0 1 1-124.699073 0 62.349537 62.349537 0 1 1 124.699073 0z" filter="url(#e)" transform="matrix(.00465 .68109 .68109 -.00467 -5.065722 31.020645)"/>
  <path fill="url(#f)" d="M93.725433 83.571533a62.349537 62.349537 0 1 1-124.699073 0 62.349537 62.349537 0 1 1 124.699073 0z" transform="matrix(.66719 .00456 -.00458 .66719 31.4488 -3.901129)"/>
  <path fill="#505050" fill-opacity=".138211" d="m52.894408 23.961492-2.296746 26.004895c-1.236813.508636-2.131473 1.728839-2.165673 3.138867-.034095 1.405706.800204 2.602582 2.007175 3.079069l-.192559 7.938969 2.459138-.035246.192564-7.938967c1.233877-.510039 2.12384-1.730891 2.157986-3.138759.034219-1.410749-.80086-2.605922-2.014855-3.078958z"/>
  <path fill-opacity=".097561" d="m15.677628 40.431568 32.868408 12.917874c.099507 1.333862.981485 2.563216 2.310953 3.03332 1.325392.468663 2.72186.04681 3.549346-.95295l7.485389 2.646863.729802-2.349185-7.485386-2.646863c-.101748-1.3315-.985803-2.556591-2.313235-3.025976-1.330149-.470347-2.725237-.047228-3.551626.960285z"/>
  <path d="M57.09035922 52.0348282a5.09051787 5.0917084 3.5498513 1 1-10.18080533-.06956081 5.09051787 5.0917084 3.5498513 1 1 10.18080533.0695608z"/>
  <path fill="#505050" d="m53.096988 24.445007-2.403155 23.582455c-1.294116.532203-2.230227 1.808937-2.266011 3.284297-.035678 1.470832.837279 2.723162 2.10017 3.221724l-.201483 8.306793 2.573075-.036879.201484-8.306787c1.291045-.533673 2.222242-1.811089 2.257971-3.284186.035804-1.476111-.837966-2.726656-2.108209-3.221611z"/>
  <path fill="#555753" d="m15.673413 39.148552 32.868408 12.917877c.099507 1.333859.981487 2.563213 2.310953 3.033318 1.325393.468663 2.721859.04681 3.549345-.952948l7.485391 2.64686.729802-2.349185-7.485388-2.64686c-.101748-1.331503-.985804-2.556592-2.313234-3.02598-1.330149-.470345-2.725237-.047227-3.551626.960286z"/>
  <path d="m51.48712239 13.8666422.77482103.00529237-.04460668 6.50273302-.77482103-.00529237zm-18.99834225 5.36629197.67366924-.38282361 3.2127194 5.65371794-.67366924.3828236zm52.79225562 51.38826596-.39201162.66836392-5.60921039-3.2898193.39201162-.66836392zM18.71891275 33.37887172l.39201163-.66836392 5.60921039 3.2898193-.39201163.66836392zm52.7920998 51.38839116-.67366924.3828236-3.2127194-5.65371793.67366924-.3828236zM19.23215306 71.51216524l-.38280531-.6736569 5.65382023-3.21288016.38280531.6736569zm65.53560227-39.02411999.38280532.6736569-5.65382023 3.21288015-.38280532-.6736569zm-51.3899146 52.79352208-.66835392-.39199165 3.28998767-5.6092956.66835392.39199164zm37.24431624-66.56307668.66835392.39199165-3.28998767 5.6092956-.66835392-.39199165zM52.51329324 90.13331034l-.77481797-.0052926.0446054-6.50270533.77481798.0052926zm37.62004142-38.6476404-.00531486.77481668-6.50271411-.04441846.00531486-.77481668zM13.86666697 52.5144212l.00531487-.77481667 6.50271411.04441846-.00531487.77481667z" opacity=".696721"/>
  <path fill="#fff" fill-rule="evenodd" d="M21.701833 28.555334c26.153137-20.7015719 55.13962-15.96051 74.744189-3.156361C77.212173 8.2136775 43.911864 7.351829 21.701833 28.555334z" filter="url(#g)" transform="matrix(.63925 -.59632 .64347 .60025 -27.882542 47.982052)"/>
  <path fill="url(#h)" d="M93.725433 83.571533a62.349537 62.349537 0 1 1-124.699073 0 62.349537 62.349537 0 1 1 124.699073 0z" opacity=".5" transform="matrix(-.5004 .00228 .00343 .3336 68.280071 8.449441)"/>
  <path fill="none" stroke="url(#i)" stroke-dashoffset="4" stroke-linecap="round" stroke-linejoin="round" stroke-width="3.821626" d="M92.586622 17.902616C70.339967-4.5023238 33.814477-4.7694413 11.261188 17.330814c-22.553291 22.100256-22.803418 58.404269-.556763 80.809208 22.246659 22.404948 58.791105 22.653478 81.344399.55323 22.553286-22.100255 22.784466-58.38569.537798-80.790636z" clip-path="url(#j)" filter="url(#k)" transform="matrix(.63925 -.6394 .64347 .64362 -18.349261 47.6787)"/>
  <path d="M55 51v75h51.9375L123 110.5625V51z" filter="url(#l)" opacity=".6" transform="matrix(1.02941 0 0 1 -1.617647 0)"/>
  <path fill="#fff" d="M56.000005 52.00195h68.000005v56.56569L107.92724 124H56.000005z"/>
  <path fill="url(#m)" d="M57.106725 53.261002H122.6032v56.492208l-13.90973 12.98775H57.106725z"/>
  <path fill="url(#n)" d="M55.999992 52h68v20h-68z"/>
  <path fill="url(#o)" d="M56.679855 56h66.582329v16H56.679855z"/>
  <path fill="#060606" d="M104.81141 122.58003s6.05884-5.44599 9.41773-8.80487c3.35889-3.35889 9.88572-8.98929 9.88572-8.98929s-9.29635-3.08127-19.816-1.05275c-1.62283 9.50538.51255 18.84691.51255 18.84691z" filter="url(#p)" opacity=".485876" transform="matrix(.77437 0 0 .77177 27.809918 27.746195)"/>
  <path fill="url(#q)" d="M105.40432 122.18455s6.015-4.25336 9.37389-7.61224c3.35889-3.35889 8.15248-9.01378 8.15248-9.01378s-10.3576.54909-16.61735.54909c0 6.25974-.90902 16.07693-.90902 16.07693z" transform="matrix(.77437 0 0 .77177 27.809918 27.746195)"/>
  <g id="v" transform="matrix(.97402 0 0 .94733 46.673622 48)">
    <rect width="16.426695" height="4.222407" x="15.735108" y="9.500417" fill="url(#r)" rx="3.327495" ry="2.579282"/>
    <path fill="url(#s)" d="M17.923616 0h12.184849v12.667222H17.923616z"/>
    <path fill="url(#t)" d="M17.942926 0h12.165537v4.604516H17.942926z" opacity=".451977"/>
    <path fill="url(#u)" d="M17.788445-12.651385h12.165537v2.708131H17.788445z" opacity=".638418" transform="scale(1 -1)"/>
  </g>
  <path fill="#dfbfff" d="M108.000004 103.874784h4v4h-4z"/>
  <path fill="#eee" d="M68 80h4v4h-4z"/>
  <path fill="#dfbfff" d="M108.000004 79.874779h4v4h-4z"/>
  <path fill="#ddd" d="M76 79.874779h4v4h-4zm8 0h4v4h-4zm8 0h4v4h-4zm8.000004 0h4v4h-4zM68 87.874787h4v4h-4z"/>
  <path fill="#dfbfff" d="M108.000004 87.874787h4v4h-4z"/>
  <path fill="#ddd" d="M76 87.874787h4v4h-4zm8 0h4v4h-4zm8 0h4v4h-4zm8.000004 0h4v4h-4zm-32.000004 8h4v4h-4z"/>
  <path fill="#dfbfff" d="M108.000004 95.874787h4v4h-4z"/>
  <path fill="#ddd" d="M76 95.874787h4v4h-4zm8 0h4v4h-4zm8 0h4v4h-4zm8.000004 0h4v4h-4zM68 103.874784h4v4h-4zm8 0h4v4h-4zm8 0h4v4h-4zm8 0h4v4h-4zm8.000004 0h4v4h-4zm-32.000004 8h4v4h-4zm8 0h4v4h-4zm8 0h4v4h-4zm8 0h4v4h-4z"/>
  <path fill="#eee" d="M100.125214 112.000004h4v4h-4z"/>
  <path fill="#fff" d="M88 96.000008h4v4h-4z" opacity=".9"/>
  <use xlink:href="#v" width="128" height="128" transform="translate(40)"/>
</svg>