<?xml version="1.0" encoding="UTF-8" standalone="no"?>
<!-- Created with Inkscape (http://www.inkscape.org/) -->
<svg height="128" width="128" xmlns="http://www.w3.org/2000/svg" xmlns:xlink="http://www.w3.org/1999/xlink">
  <defs>
    <linearGradient id="linearGradient7226">
      <stop offset="0" stop-color="#fff"/>
      <stop offset=".5" stop-color="#fff" stop-opacity=".608541"/>
      <stop offset="1" stop-color="#fff" stop-opacity="0"/>
    </linearGradient>
    <linearGradient id="linearGradient3477">
      <stop offset="0" stop-color="#fff"/>
      <stop offset="1" stop-color="#aeaeae"/>
    </linearGradient>
    <filter id="filter4231">
      <feGaussianBlur stdDeviation="1.0971168"/>
    </filter>
    <linearGradient id="linearGradient4956" gradientTransform="matrix(.123298 0 0 .153457 76.21577 169.2063)" gradientUnits="userSpaceOnUse" x1="399.77466" x2="399.77466" y1="731.09662" y2="549.06134">
      <stop offset="0" stop-color="#cbcbcd"/>
      <stop offset=".5" stop-color="#e0e0e2"/>
      <stop offset="1" stop-color="#f2f2f2"/>
    </linearGradient>
    <linearGradient id="linearGradient4958" gradientTransform="matrix(.12333 0 0 .152975 161.5176 240.3719)" gradientUnits="userSpaceOnUse" x1="297.94482" x2="168.35521" y1="723.46216" y2="435.02948">
      <stop offset="0" stop-color="#dededf"/>
      <stop offset="1" stop-color="#bbbcbe" stop-opacity="0"/>
    </linearGradient>
    <linearGradient id="linearGradient4960" gradientTransform="matrix(.12333 0 0 .152975 170.8559 239.269)" gradientUnits="userSpaceOnUse" x1="-556.60114" x2="-556.60114" y1="-.209811" y2="855.81775">
      <stop offset="0" stop-color="#fff"/>
      <stop offset=".81364954" stop-color="#fff"/>
      <stop offset=".82474351" stop-color="#b1b1b1"/>
      <stop offset="1" stop-color="#636363"/>
    </linearGradient>
    <radialGradient id="radialGradient5031" cx="1055.3002" cy="-478.60516" fx="1055.3754" fy="-480.427" gradientTransform="matrix(.9755103 -.0251103 .01449854 .5838665 -906.51728 348.7922)" gradientUnits="userSpaceOnUse" r="5.060289" xlink:href="#linearGradient7226"/>
    <radialGradient id="radialGradient5034" cx="1055.3002" cy="-478.60516" fx="1055.1852" fy="-476.07501" gradientTransform="matrix(.6775104 0 0 .6897691 -598.93997 374.1823)" gradientUnits="userSpaceOnUse" r="5.060289">
      <stop offset="0" stop-color="#e7e7e7"/>
      <stop offset="1" stop-color="#dbdbdb"/>
    </radialGradient>
    <radialGradient id="radialGradient5037" cx="1055.3002" cy="-478.60516" fx="1055.3754" fy="-480.427" gradientTransform="matrix(1.0360261 -.02666699 .01539796 .6200625 -969.94893 367.97469)" gradientUnits="userSpaceOnUse" r="5.060289" xlink:href="#linearGradient7226"/>
    <radialGradient id="radialGradient5040" cx="1055.3002" cy="-478.60516" gradientTransform="matrix(.7700573 0 0 .7839903 -696.64146 419.24974)" gradientUnits="userSpaceOnUse" r="5.060289">
      <stop offset="0"/>
      <stop offset="1" stop-opacity="0"/>
    </radialGradient>
    <radialGradient id="radialGradient5425" cx="1055.3002" cy="-478.60516" fx="1055.1852" fy="-476.07501" gradientTransform="matrix(.6775104 0 0 .6897691 -598.93997 374.1823)" gradientUnits="userSpaceOnUse" r="5.060289">
      <stop offset="0" stop-color="#fff"/>
      <stop offset=".0626" stop-color="#e6f9ff"/>
      <stop offset=".1386" stop-color="#cef2ff"/>
      <stop offset=".1854" stop-color="#c5f0ff"/>
      <stop offset="1" stop-color="#1d74d9"/>
    </radialGradient>
    <radialGradient id="radialGradient5433" cx="1055.3002" cy="-478.60516" fx="1055.1852" fy="-476.07501" gradientTransform="matrix(.6775104 0 0 .6897691 -598.93997 374.1823)" gradientUnits="userSpaceOnUse" r="5.060289" xlink:href="#linearGradient3477"/>
    <radialGradient id="radialGradient5449" cx="1055.3002" cy="-478.60516" fx="1055.1852" fy="-476.07501" gradientTransform="matrix(.6775104 0 0 .6897691 -598.93997 374.1823)" gradientUnits="userSpaceOnUse" r="5.060289">
      <stop offset="0" stop-color="#f8f8f8"/>
      <stop offset="1" stop-color="#a4a4a4"/>
    </radialGradient>
    <filter id="filter4321">
      <feGaussianBlur stdDeviation="2.3354601"/>
    </filter>
    <linearGradient id="linearGradient4333" gradientUnits="userSpaceOnUse" x1="202.44987" x2="202.44987" xlink:href="#linearGradient3477" y1="335.07404" y2="276.20297"/>
    <radialGradient id="radialGradient5733" cx="13.332139" cy="15.942465" gradientTransform="matrix(.6893609 -1.0862598 .9319468 2.4028086 -10.716046 -4.151053)" gradientUnits="userSpaceOnUse" r="5.532005" spreadMethod="reflect" xlink:href="#linearGradient3233"/>
    <linearGradient id="linearGradient5729" gradientUnits="userSpaceOnUse" x1="18.180271" x2="15.672464" xlink:href="#linearGradient3233" y1="14.206214" y2="19.299807"/>
    <linearGradient id="linearGradient5645" gradientUnits="userSpaceOnUse" x1="9.154032" x2="7.677631" xlink:href="#linearGradient3233" y1="3.24891" y2="19.013866"/>
    <radialGradient id="radialGradient5643" cx="10.857204" cy="16.091434" gradientTransform="matrix(1.1106976 -.4036489 .6516398 1.7930801 -9.212751 -4.797263)" gradientUnits="userSpaceOnUse" r="5.32381" spreadMethod="reflect" xlink:href="#linearGradient3233"/>
    <radialGradient id="radialGradient5332" cx="10.275363" cy="14.151872" gradientUnits="userSpaceOnUse" r="2.60757" xlink:href="#linearGradient3233"/>
    <linearGradient id="linearGradient3233">
      <stop offset="0" stop-color="#fff"/>
      <stop offset="1" stop-color="#fff" stop-opacity="0"/>
    </linearGradient>
    <filter id="filter3484" height="1.236743" width="1.400572" x="-.200286" y="-.118371">
      <feGaussianBlur stdDeviation=".97202214"/>
    </filter>
    <clipPath id="clipPath3496">
      <rect height="22.63365" ry="1.171887" width="13.277639" x="5.309958" y="1.231668"/>
    </clipPath>
    <filter id="filter5378">
      <feGaussianBlur stdDeviation="1.2917742"/>
    </filter>
    <filter id="filter5396" height="1.211272" width="1.208169" x="-.104084" y="-.105636">
      <feGaussianBlur stdDeviation="2.5835483"/>
    </filter>
  </defs>
  <path d="m11.0625 24.28125c.139107.011366-.43841.056354-.25.03125-.297318 0-.557762.138709-.6875.375-.018922.032483-.039794.06379-.0625.09375-.138406.195991-.21875.48976-.21875.78125l-.75 76.71875c0 .73084.546409 1.28125 1.21875 1.28125h94.65625c.67235 0 1.21875-.55041 1.21875-1.28125v-77.375c0-.219658-.05665-.396899-.1875-.625-.02393-.040043-.04483-.081827-.0625-.125-.13529-.343659-.38857-.53125-.6875-.53125z" style="opacity:.668317;fill:none;stroke:#000;stroke-width:3.207022;stroke-linecap:round;stroke-linejoin:round;stroke-dashoffset:4;filter:url(#filter4321)"/>
  <g transform="translate(-181.41925 -265.66219)"/>
  <g transform="translate(-181.41925 -265.66219)"/>
  <g opacity=".401639" transform="matrix(-.782995 0 0 .650879 -2784.8106 258.5792)"/>
  <g opacity=".401639" transform="matrix(-.782995 0 0 .650879 -2784.8106 258.5792)"/>
  <g opacity=".401639" transform="matrix(1 0 0 .650879 416.15145 265.9069)"/>
  <g opacity=".401639" transform="matrix(1 0 0 .650879 416.15145 265.9069)"/>
  <g transform="translate(-40.99425 -108.8736)"/>
  <g transform="translate(-40.99425 -108.8736)"/>
  <g opacity=".401639" transform="matrix(-.782995 0 0 .650879 -2644.3857 415.3678)"/>
  <g opacity=".401639" transform="matrix(-.782995 0 0 .650879 -2644.3857 415.3678)"/>
  <g opacity=".401639" transform="matrix(1 0 0 .650879 556.57655 422.6956)"/>
  <g opacity=".401639" transform="matrix(1 0 0 .650879 556.57655 422.6956)"/>
  <g transform="translate(-90.49425 -160.87355)"/>
  <g transform="translate(-90.49425 -160.87355)"/>
  <g opacity=".401639" transform="matrix(-.782995 0 0 .650879 -2693.8857 363.3678)"/>
  <g opacity=".401639" transform="matrix(-.782995 0 0 .650879 -2693.8857 363.3678)"/>
  <g opacity=".401639" transform="matrix(1 0 0 .650879 507.07655 370.6956)"/>
  <g opacity=".401639" transform="matrix(1 0 0 .650879 507.07655 370.6956)"/>
  <g transform="translate(-477.74425 -37.1236)"/>
  <g transform="translate(-477.74425 -37.1236)"/>
  <g opacity=".401639" transform="matrix(-.782995 0 0 .650879 -3081.1357 487.1178)"/>
  <g opacity=".401639" transform="matrix(-.782995 0 0 .650879 -3081.1357 487.1178)"/>
  <g opacity=".401639" transform="matrix(1 0 0 .650879 119.82655 494.4456)"/>
  <g opacity=".401639" transform="matrix(1 0 0 .650879 119.82655 494.4456)"/>
  <g transform="translate(-225.35205 139.2685)"/>
  <g transform="translate(-225.35205 139.2685)"/>
  <g opacity=".401639" transform="matrix(-.782995 0 0 .650879 -2828.7436 663.5099)"/>
  <g opacity=".401639" transform="matrix(-.782995 0 0 .650879 -2828.7436 663.5099)"/>
  <g opacity=".401639" transform="matrix(1 0 0 .650879 372.21865 670.8377)"/>
  <g opacity=".401639" transform="matrix(1 0 0 .650879 372.21865 670.8377)"/>
  <g transform="translate(-326.00175 -94.2951)"/>
  <g transform="translate(-326.00175 -94.2951)"/>
  <g opacity=".401639" transform="matrix(-.782995 0 0 .650879 -2929.3927 429.9463)"/>
  <g opacity=".401639" transform="matrix(-.782995 0 0 .650879 -2929.3927 429.9463)"/>
  <g opacity=".401639" transform="matrix(1 0 0 .650879 271.56905 437.2741)"/>
  <g opacity=".401639" transform="matrix(1 0 0 .650879 271.56905 437.2741)"/>
  <g transform="translate(-323.99425 -95.2199)"/>
  <g transform="translate(-323.99425 -95.2199)"/>
  <g opacity=".401639" transform="matrix(-.782995 0 0 .650879 -2927.3857 429.0215)"/>
  <g opacity=".401639" transform="matrix(-.782995 0 0 .650879 -2927.3857 429.0215)"/>
  <g opacity=".401639" transform="matrix(1 0 0 .650879 273.57655 436.3493)"/>
  <g opacity=".401639" transform="matrix(1 0 0 .650879 273.57655 436.3493)"/>
  <g transform="matrix(.8252918 0 0 .8693033 -61.08023 -198.10416)">
    <rect height="93.43602" rx="2.607015" ry="2.535507" style="opacity:.688119;fill:none;stroke:#000;stroke-width:1.893139;stroke-linecap:round;stroke-linejoin:round;stroke-dashoffset:4;filter:url(#filter4231)" width="120.32997" x="84.165688" y="254.08844"/>
    <rect fill="url(#linearGradient4956)" height="93.773827" rx="2.068033" ry="2.102477" width="120.12793" x="84.110901" y="253.53488"/>
    <rect height="93.156235" rx="2.607015" ry="2.535507" style="stroke-width:1.180621;stroke-linecap:round;stroke-linejoin:round;stroke-dashoffset:4;fill:url(#linearGradient4958);stroke:url(#linearGradient4960)" width="119.95078" x="84.312439" y="253.76636"/>
    <rect fill="url(#linearGradient4333)" height="69.020561" rx="1.312757" width="116.32249" x="86.127388" y="276.20297"/>
    <rect fill="#fff" height="67.484138" rx=".651855" width="114.82265" x="86.917503" y="277.08655"/>
  </g>
  <g transform="translate(-16 -15.4)">
    <path d="m119.897 44.027912c0 2.191042-1.74462 3.967225-3.89669 3.967225-2.15208 0-3.89673-1.776183-3.89673-3.967225 0-2.19104 1.74465-3.967225 3.89673-3.967225 2.15207 0 3.89669 1.776185 3.89669 3.967225z" fill="url(#radialGradient5040)"/>
    <path d="m118.75107 43.067917c0 1.294788-1.23162 2.344422-2.75089 2.344422-1.51926 0-2.75088-1.049634-2.75088-2.344422 0-1.294791 1.23162-2.344422 2.75088-2.344422 1.51927 0 2.75089 1.049631 2.75089 2.344422z" fill="url(#radialGradient5037)" opacity=".478814"/>
    <path d="m119.46529 44.055251c0 1.927718-1.53496 3.490438-3.4284 3.490438-1.89343 0-3.42841-1.56272-3.42841-3.490438s1.53498-3.49044 3.42841-3.49044c1.89344 0 3.4284 1.562722 3.4284 3.49044z" fill="url(#radialGradient5034)"/>
    <path d="m118.58992 42.851892c0 1.219206-1.15968 2.207565-2.5902 2.207565-1.43053 0-2.59021-.988359-2.59021-2.207565s1.15968-2.207565 2.59021-2.207565c1.43052 0 2.5902.988359 2.5902 2.207565z" fill="url(#radialGradient5031)" opacity=".478814"/>
  </g>
  <g transform="translate(-29.3 -15.4)">
    <path d="m119.897 44.027912c0 2.191042-1.74462 3.967225-3.89669 3.967225-2.15208 0-3.89673-1.776183-3.89673-3.967225 0-2.19104 1.74465-3.967225 3.89673-3.967225 2.15207 0 3.89669 1.776185 3.89669 3.967225z" fill="url(#radialGradient5040)"/>
    <path d="m118.75107 43.067917c0 1.294788-1.23162 2.344422-2.75089 2.344422-1.51926 0-2.75088-1.049634-2.75088-2.344422 0-1.294791 1.23162-2.344422 2.75088-2.344422 1.51927 0 2.75089 1.049631 2.75089 2.344422z" fill="url(#radialGradient5037)" opacity=".478814"/>
    <path d="m119.46529 44.055251c0 1.927718-1.53496 3.490438-3.4284 3.490438-1.89343 0-3.42841-1.56272-3.42841-3.490438s1.53498-3.49044 3.42841-3.49044c1.89344 0 3.4284 1.562722 3.4284 3.49044z" fill="url(#radialGradient5034)"/>
    <path d="m118.58992 42.851892c0 1.219206-1.15968 2.207565-2.5902 2.207565-1.43053 0-2.59021-.988359-2.59021-2.207565s1.15968-2.207565 2.59021-2.207565c1.43052 0 2.5902.988359 2.5902 2.207565z" fill="url(#radialGradient5031)" opacity=".478814"/>
  </g>
  <g transform="translate(-42.6 -15.4)">
    <path d="m119.897 44.027912c0 2.191042-1.74462 3.967225-3.89669 3.967225-2.15208 0-3.89673-1.776183-3.89673-3.967225 0-2.19104 1.74465-3.967225 3.89673-3.967225 2.15207 0 3.89669 1.776185 3.89669 3.967225z" fill="url(#radialGradient5040)"/>
    <path d="m118.75107 43.067917c0 1.294788-1.23162 2.344422-2.75089 2.344422-1.51926 0-2.75088-1.049634-2.75088-2.344422 0-1.294791 1.23162-2.344422 2.75088-2.344422 1.51927 0 2.75089 1.049631 2.75089 2.344422z" fill="url(#radialGradient5037)" opacity=".478814"/>
    <path d="m119.46529 44.055251c0 1.927718-1.53496 3.490438-3.4284 3.490438-1.89343 0-3.42841-1.56272-3.42841-3.490438s1.53498-3.49044 3.42841-3.49044c1.89344 0 3.4284 1.562722 3.4284 3.49044z" fill="url(#radialGradient5034)"/>
    <path d="m118.58992 42.851892c0 1.219206-1.15968 2.207565-2.5902 2.207565-1.43053 0-2.59021-.988359-2.59021-2.207565s1.15968-2.207565 2.59021-2.207565c1.43052 0 2.5902.988359 2.5902 2.207565z" fill="url(#radialGradient5031)" opacity=".478814"/>
  </g>
  <g transform="translate(-101.4 -15.4)">
    <path d="m119.897 44.027912c0 2.191042-1.74462 3.967225-3.89669 3.967225-2.15208 0-3.89673-1.776183-3.89673-3.967225 0-2.19104 1.74465-3.967225 3.89673-3.967225 2.15207 0 3.89669 1.776185 3.89669 3.967225z" fill="url(#radialGradient5040)"/>
    <path d="m118.75107 43.067917c0 1.294788-1.23162 2.344422-2.75089 2.344422-1.51926 0-2.75088-1.049634-2.75088-2.344422 0-1.294791 1.23162-2.344422 2.75088-2.344422 1.51927 0 2.75089 1.049631 2.75089 2.344422z" fill="url(#radialGradient5037)" opacity=".478814"/>
    <path d="m119.46529 44.055251c0 1.927718-1.53496 3.490438-3.4284 3.490438-1.89343 0-3.42841-1.56272-3.42841-3.490438s1.53498-3.49044 3.42841-3.49044c1.89344 0 3.4284 1.562722 3.4284 3.49044z" fill="url(#radialGradient5034)"/>
    <path d="m118.58992 42.851892c0 1.219206-1.15968 2.207565-2.5902 2.207565-1.43053 0-2.59021-.988359-2.59021-2.207565s1.15968-2.207565 2.59021-2.207565c1.43052 0 2.5902.988359 2.5902 2.207565z" fill="url(#radialGradient5031)" opacity=".478814"/>
  </g>
  <g transform="matrix(1.1556878 0 0 1.1556878 -34.059833 -22.25461)">
    <path d="m119.897 44.027912c0 2.191042-1.74462 3.967225-3.89669 3.967225-2.15208 0-3.89673-1.776183-3.89673-3.967225 0-2.19104 1.74465-3.967225 3.89673-3.967225 2.15207 0 3.89669 1.776185 3.89669 3.967225z" fill="url(#radialGradient5040)"/>
    <path d="m118.75107 43.067917c0 1.294788-1.23162 2.344422-2.75089 2.344422-1.51926 0-2.75088-1.049634-2.75088-2.344422 0-1.294791 1.23162-2.344422 2.75088-2.344422 1.51927 0 2.75089 1.049631 2.75089 2.344422z" fill="url(#radialGradient5037)" opacity=".478814"/>
    <path d="m119.46529 44.055251c0 1.927718-1.53496 3.490438-3.4284 3.490438-1.89343 0-3.42841-1.56272-3.42841-3.490438s1.53498-3.49044 3.42841-3.49044c1.89344 0 3.4284 1.562722 3.4284 3.49044z" fill="url(#radialGradient5425)"/>
    <path d="m118.58992 42.851892c0 1.219206-1.15968 2.207565-2.5902 2.207565-1.43053 0-2.59021-.988359-2.59021-2.207565s1.15968-2.207565 2.59021-2.207565c1.43052 0 2.5902.988359 2.5902 2.207565z" fill="url(#radialGradient5031)" opacity=".478814"/>
  </g>
  <g transform="matrix(1.1556878 0 0 1.1556878 -47.359833 -22.25461)">
    <path d="m119.897 44.027912c0 2.191042-1.74462 3.967225-3.89669 3.967225-2.15208 0-3.89673-1.776183-3.89673-3.967225 0-2.19104 1.74465-3.967225 3.89673-3.967225 2.15207 0 3.89669 1.776185 3.89669 3.967225z" fill="url(#radialGradient5040)"/>
    <path d="m118.75107 43.067917c0 1.294788-1.23162 2.344422-2.75089 2.344422-1.51926 0-2.75088-1.049634-2.75088-2.344422 0-1.294791 1.23162-2.344422 2.75088-2.344422 1.51927 0 2.75089 1.049631 2.75089 2.344422z" fill="url(#radialGradient5037)" opacity=".478814"/>
    <path d="m119.46529 44.055251c0 1.927718-1.53496 3.490438-3.4284 3.490438-1.89343 0-3.42841-1.56272-3.42841-3.490438s1.53498-3.49044 3.42841-3.49044c1.89344 0 3.4284 1.562722 3.4284 3.49044z" fill="url(#radialGradient5433)"/>
    <path d="m118.58992 42.851892c0 1.219206-1.15968 2.207565-2.5902 2.207565-1.43053 0-2.59021-.988359-2.59021-2.207565s1.15968-2.207565 2.59021-2.207565c1.43052 0 2.5902.988359 2.5902 2.207565z" fill="url(#radialGradient5031)" opacity=".478814"/>
  </g>
  <g transform="matrix(1.1556878 0 0 1.1556878 -60.659833 -22.25461)">
    <path d="m119.897 44.027912c0 2.191042-1.74462 3.967225-3.89669 3.967225-2.15208 0-3.89673-1.776183-3.89673-3.967225 0-2.19104 1.74465-3.967225 3.89673-3.967225 2.15207 0 3.89669 1.776185 3.89669 3.967225z" fill="url(#radialGradient5040)"/>
    <path d="m118.75107 43.067917c0 1.294788-1.23162 2.344422-2.75089 2.344422-1.51926 0-2.75088-1.049634-2.75088-2.344422 0-1.294791 1.23162-2.344422 2.75088-2.344422 1.51927 0 2.75089 1.049631 2.75089 2.344422z" fill="url(#radialGradient5037)" opacity=".478814"/>
    <path d="m119.46529 44.055251c0 1.927718-1.53496 3.490438-3.4284 3.490438-1.89343 0-3.42841-1.56272-3.42841-3.490438s1.53498-3.49044 3.42841-3.49044c1.89344 0 3.4284 1.562722 3.4284 3.49044z" fill="url(#radialGradient5433)"/>
    <path d="m118.58992 42.851892c0 1.219206-1.15968 2.207565-2.5902 2.207565-1.43053 0-2.59021-.988359-2.59021-2.207565s1.15968-2.207565 2.59021-2.207565c1.43052 0 2.5902.988359 2.5902 2.207565z" fill="url(#radialGradient5031)" opacity=".478814"/>
  </g>
  <g transform="matrix(1.1556878 0 0 1.1556878 -119.45983 -22.25461)">
    <path d="m119.897 44.027912c0 2.191042-1.74462 3.967225-3.89669 3.967225-2.15208 0-3.89673-1.776183-3.89673-3.967225 0-2.19104 1.74465-3.967225 3.89673-3.967225 2.15207 0 3.89669 1.776185 3.89669 3.967225z" fill="url(#radialGradient5040)"/>
    <path d="m118.75107 43.067917c0 1.294788-1.23162 2.344422-2.75089 2.344422-1.51926 0-2.75088-1.049634-2.75088-2.344422 0-1.294791 1.23162-2.344422 2.75088-2.344422 1.51927 0 2.75089 1.049631 2.75089 2.344422z" fill="url(#radialGradient5037)" opacity=".478814"/>
    <path d="m119.46529 44.055251c0 1.927718-1.53496 3.490438-3.4284 3.490438-1.89343 0-3.42841-1.56272-3.42841-3.490438s1.53498-3.49044 3.42841-3.49044c1.89344 0 3.4284 1.562722 3.4284 3.49044z" fill="url(#radialGradient5449)"/>
    <path d="m118.58992 42.851892c0 1.219206-1.15968 2.207565-2.5902 2.207565-1.43053 0-2.59021-.988359-2.59021-2.207565s1.15968-2.207565 2.59021-2.207565c1.43052 0 2.5902.988359 2.5902 2.207565z" fill="url(#radialGradient5031)" opacity=".478814"/>
  </g>
  <g transform="matrix(1.2823401 .3223864 -.497365 .8311977 87.593125 64.677453)">
    <g fill-rule="evenodd">
      <path clip-path="url(#clipPath3496)" d="m10.3366 13.200539-4.3366 5.276474 3.9136329.405834 2.1376721 2.71884 2.17213-.67208.038161-4.26501 2.386024-1.837274z" filter="url(#filter3484)" opacity=".725979" stroke="#000" transform="matrix(1.0551164 .00539891 -.00539891 1.0551164 -.496887 -2.074123)"/>
      <path d="m94.8125 70.65625-7.0625 11.84375 4.0625 1.40625c.094238.032169.179789.085638.25.15625l2.5 2.5h.875l2.4375-2.5625c.061184-.066811.135706-.120042.21875-.15625l4.125-1.625zm16.4375 19.8125-1.65625 4.125c-.03621.083044-.08944.157566-.15625.21875l-2.5625 2.46875v.84375l2.5 2.5c.07061.07021.12408.15576.15625.25l1.40625 4.0625 11.84375-7.0625zm-32.375.34375-11.53125 7.40625 11.84375 7.03125 1.375-4.0625c.032169-.09424.085638-.17979.15625-.25l2.5-2.46875.03125-.875-2.59375-2.46875c-.066811-.061184-.120042-.135706-.15625-.21875zm16.625 4.59375c-1.537387 0-2.750001 1.212617-2.75 2.75 0 1.537384 1.219763 2.78125 2.75 2.78125 1.530235 0 2.781251-1.25101 2.78125-2.78125 0-1.530233-1.243868-2.750002-2.78125-2.75zm-.9375 13.90625-2.5 2.5c-.070211.07061-.155762.12408-.25.15625l-4.0625 1.40625 7.0625 11.84375 7.40625-11.5625-4.125-1.625c-.083044-.03621-.157566-.08944-.21875-.15625l-2.4375-2.5625z" style="fill:#000100;stroke:#000100;stroke-width:4.13455;stroke-linejoin:round;opacity:.40099;filter:url(#filter5378)" transform="matrix(.6778526 -.2629103 .4056077 1.0457652 -86.13619 -45.967781)"/>
      <path d="m94.8125 70.65625-7.0625 11.84375 4.0625 1.40625c.094238.032169.179789.085638.25.15625l2.5 2.5h.875l2.4375-2.5625c.061184-.066811.135706-.120042.21875-.15625l4.125-1.625zm16.4375 19.8125-1.65625 4.125c-.03621.083044-.08944.157566-.15625.21875l-2.5625 2.46875v.84375l2.5 2.5c.07061.07021.12408.15576.15625.25l1.40625 4.0625 11.84375-7.0625zm-32.375.34375-11.53125 7.40625 11.84375 7.03125 1.375-4.0625c.032169-.09424.085638-.17979.15625-.25l2.5-2.46875.03125-.875-2.59375-2.46875c-.066811-.061184-.120042-.135706-.15625-.21875zm16.625 4.59375c-1.537387 0-2.750001 1.212617-2.75 2.75 0 1.537384 1.219763 2.78125 2.75 2.78125 1.530235 0 2.781251-1.25101 2.78125-2.78125 0-1.530233-1.243868-2.750002-2.78125-2.75zm-.9375 13.90625-2.5 2.5c-.070211.07061-.155762.12408-.25.15625l-4.0625 1.40625 7.0625 11.84375 7.40625-11.5625-4.125-1.625c-.083044-.03621-.157566-.08944-.21875-.15625l-2.4375-2.5625z" style="opacity:.40099;fill:#000100;stroke:#000100;stroke-width:4.13455;stroke-linejoin:round;filter:url(#filter5396)" transform="matrix(.6778526 -.2629103 .4056077 1.0457652 -86.501237 -46.908969)"/>
      <path d="m5.9988381 1.0786288-.0939801 15.9258662 4.0425806.358431 2.8597064 2.485045 1.089168-.485511.519387-3.558479 2.573346-3.273387z" fill="#d3d7cf"/>
      <path d="m5.9983584 1.1723776-.0935004 15.8321174 4.0737621.344501 2.8454209 2.457434 1.168235-.388998.418708-3.674306 2.557884-3.173736z" fill="url(#radialGradient5643)"/>
    </g>
    <path d="m6.7153305 2.9231325.0172604 13.1471245 3.1977189.292396 3.0595692 2.530815.795495-3.622859 2.05043-2.739915z" fill="none" stroke="url(#linearGradient5645)" stroke-width="1.725656"/>
  </g>
  <g transform="matrix(1.2823401 -.3223864 -.497365 -.8311977 87.593125 127.19842)">
    <g fill-rule="evenodd">
      <path clip-path="url(#clipPath3496)" d="m10.3366 13.200539-4.3366 5.276474 3.9136329.405834 2.1376721 2.71884 2.17213-.67208.038161-4.26501 2.386024-1.837274z" filter="url(#filter3484)" opacity=".725979" stroke="#000" transform="matrix(1.0551164 .00539891 -.00539891 1.0551164 -.496887 -2.074123)"/>
      <path d="m5.9988381 1.0786288-.0939801 15.9258662 4.0425806.358431 2.8597064 2.485045 1.089168-.485511.519387-3.558479 2.573346-3.273387z" fill="#d3d7cf"/>
      <path d="m5.9983584 1.1723776-.0935004 15.8321174 4.0737621.344501 2.8454209 2.457434 1.168235-.388998.418708-3.674306 2.557884-3.173736z" fill="url(#radialGradient5643)"/>
    </g>
    <path d="m6.7153305 2.9231325.0172604 13.1471245 3.1977189.292396 3.0595692 2.530815.795495-3.622859 2.05043-2.739915z" fill="none" stroke="url(#linearGradient5645)" stroke-width="1.725656"/>
  </g>
  <g transform="matrix(-.3223864 -1.2823401 -.8311977 .497365 126.77185 103.11376)">
    <g fill-rule="evenodd">
      <path clip-path="url(#clipPath3496)" d="m10.3366 13.200539-4.3366 5.276474 3.9136329.405834 2.1376721 2.71884 2.17213-.67208.038161-4.26501 2.386024-1.837274z" filter="url(#filter3484)" opacity=".725979" stroke="#000" transform="matrix(1.0551164 .00539891 -.00539891 1.0551164 -.496887 -2.074123)"/>
      <path d="m5.9988381 1.0786288-.0939801 15.9258662 4.0425806.358431 2.8597064 2.485045 1.089168-.485511.519387-3.558479 2.573346-3.273387z" fill="#d3d7cf"/>
      <path d="m5.9983584 1.1723776-.0935004 15.8321174 4.0737621.344501 2.8454209 2.457434 1.168235-.388998.418708-3.674306 2.557884-3.173736z" fill="url(#radialGradient5643)"/>
    </g>
    <path d="m6.7153305 2.9231325.0172604 13.1471245 3.1977189.292396 3.0595692 2.530815.795495-3.622859 2.05043-2.739915z" fill="none" stroke="url(#linearGradient5645)" stroke-width="1.725656"/>
  </g>
  <g transform="matrix(.3223864 -1.2823401 .8311977 .497365 63.344455 103.42999)">
    <g fill-rule="evenodd">
      <path clip-path="url(#clipPath3496)" d="m10.3366 13.200539-4.3366 5.276474 3.9136329.405834 2.1376721 2.71884 2.17213-.67208.038161-4.26501 2.386024-1.837274z" filter="url(#filter3484)" opacity=".725979" stroke="#000" transform="matrix(1.0551164 .00539891 -.00539891 1.0551164 -.496887 -2.074123)"/>
      <path d="m5.9988381 1.0786288-.0939801 15.9258662 4.0425806.358431 2.8597064 2.485045 1.089168-.485511.519387-3.558479 2.573346-3.273387z" fill="#d3d7cf"/>
      <path d="m5.9983584 1.1723776-.0935004 15.8321174 4.0737621.344501 2.8454209 2.457434 1.168235-.388998.418708-3.674306 2.557884-3.173736z" fill="url(#radialGradient5733)"/>
    </g>
    <path d="m6.7153305 2.9231325.0172604 13.1471245 3.1977189.292396 3.0595692 2.530815.795495-3.622859 2.05043-2.739915z" fill="none" stroke="url(#linearGradient5645)" stroke-width="1.725656"/>
  </g>
  <g transform="matrix(1.3622799 0 0 1.3622799 79.625352 80.716557)">
    <path d="m13.563471 12.480784a2.1740491 2.1740491 0 1 1 -4.3480987 0 2.1740491 2.1740491 0 1 1 4.3480987 0z" fill="#d3d7cf" transform="matrix(1.1767003 0 0 1.1767003 -1.741159 -3.34692)"/>
    <path d="m13.563471 12.480784a2.1740491 2.1740491 0 1 1 -4.3480987 0 2.1740491 2.1740491 0 1 1 4.3480987 0z" fill="url(#radialGradient5332)" transform="matrix(1.1716595 0 0 1.1716595 -1.643933 -3.303914)"/>
  </g>
  <path d="m18.561553 16.75301a1.5467961 1.5467961 0 1 1 -3.093592 0 1.5467961 1.5467961 0 1 1 3.093592 0z" style="opacity:.822064;fill:none;stroke-width:1.23586;stroke-linecap:round;stroke-linejoin:round;stroke:url(#linearGradient5729)" transform="matrix(1.6025675 0 0 1.5616051 68.292881 70.014087)"/>
</svg>
