<?xml version="1.0" encoding="UTF-8" standalone="no"?>
<!-- Created with Inkscape (http://www.inkscape.org/) -->
<svg height="128" width="128" xmlns="http://www.w3.org/2000/svg" xmlns:xlink="http://www.w3.org/1999/xlink">
  <defs>
    <linearGradient id="linearGradient4376">
      <stop offset="0" stop-color="#fff"/>
      <stop offset="1" stop-color="#fff" stop-opacity="0"/>
    </linearGradient>
    <linearGradient id="linearGradient5406">
      <stop offset="0"/>
      <stop offset="1" stop-opacity="0"/>
    </linearGradient>
    <linearGradient id="linearGradient5237">
      <stop offset="0" stop-color="#fff" stop-opacity=".621622"/>
      <stop offset="1" stop-color="#fff" stop-opacity="0"/>
    </linearGradient>
    <linearGradient id="XMLID_18_" gradientUnits="userSpaceOnUse" x1="26" x2="220" y1="69" y2="69">
      <stop offset="0" stop-color="#3383e6"/>
      <stop offset="1" stop-color="#6ecaf7"/>
    </linearGradient>
    <filter id="filter3600">
      <feGaussianBlur stdDeviation=".47186117"/>
    </filter>
    <filter id="filter3649">
      <feGaussianBlur stdDeviation=".53709441"/>
    </filter>
    <filter id="filter5178">
      <feGaussianBlur stdDeviation=".42032926"/>
    </filter>
    <filter id="filter5214">
      <feGaussianBlur stdDeviation=".94493222"/>
    </filter>
    <filter id="filter5257" height="1.233946" width="1.097917" x="-.048959" y="-.116973">
      <feGaussianBlur stdDeviation=".71942638"/>
    </filter>
    <filter id="filter5346" height="1.205601" width="1.14478" x="-.07239" y="-.102801">
      <feGaussianBlur stdDeviation="3.0237831"/>
    </filter>
    <filter id="filter5402" height="1.910861" width="1.250487" x="-.125243" y="-.45543">
      <feGaussianBlur stdDeviation="1.2915062"/>
    </filter>
    <radialGradient id="radialGradient5645" cx="-498.49612" cy="-97.979721" gradientTransform="matrix(1.1439156 0 0 1.0941763 71.741347 8.948429)" gradientUnits="userSpaceOnUse" r="50.496159">
      <stop offset="0" stop-color="#fff"/>
      <stop offset=".30253538" stop-color="#fff" stop-opacity=".866667"/>
      <stop offset=".70000011" stop-color="#fff" stop-opacity=".509804"/>
      <stop offset="1" stop-color="#fff" stop-opacity="0"/>
    </radialGradient>
    <mask id="mask5641" maskUnits="userSpaceOnUse">
      <rect fill="url(#radialGradient5645)" height="26.352942" width="100.99232" x="-548.99231" y="-108.19437"/>
    </mask>
    <linearGradient id="linearGradient5666" gradientUnits="userSpaceOnUse" x1="-493.85455" x2="-493.85455" y1="-118.343312" y2="-74.99992">
      <stop offset="0" stop-color="#cacaca"/>
      <stop offset=".61419845" stop-color="#ebebeb"/>
      <stop offset="1" stop-color="#cbcbcb"/>
    </linearGradient>
    <radialGradient id="radialGradient5668" cx="-307.625" cy="70.359375" fx="-320.35294" fy="87.258614" gradientTransform="matrix(1.2680305 -.0211603 .00907596 .5438769 -108.5458 -159.1423)" gradientUnits="userSpaceOnUse" r="50.125" xlink:href="#linearGradient4376"/>
    <linearGradient id="linearGradient5670" gradientUnits="userSpaceOnUse" x1="-190.20325" x2="-190.20325" xlink:href="#linearGradient5406" y1="80.369522" y2="112.08436"/>
    <radialGradient id="radialGradient5672" cx="-322.72327" cy="85.487053" gradientTransform="matrix(1.4273864 0 0 .434579 -52.49666 -139.76369)" gradientUnits="userSpaceOnUse" r="18.133475" xlink:href="#linearGradient5237"/>
    <radialGradient id="radialGradient5674" cx="-317.63007" cy="84.673492" gradientTransform="matrix(1.4273864 0 0 .434579 -52.49666 -139.76369)" gradientUnits="userSpaceOnUse" r="18.133475" xlink:href="#linearGradient5237"/>
    <linearGradient id="linearGradient5676" gradientUnits="userSpaceOnUse" x1="-492.87499" x2="-492.87499" xlink:href="#linearGradient5406" y1="-124.8225" y2="-105.119627"/>
    <linearGradient id="linearGradient5678" gradientUnits="userSpaceOnUse" x1="-487.11025" x2="-487.11025" y1="-64.95675" y2="-92.661328">
      <stop offset="0" stop-color="#050505"/>
      <stop offset="1" stop-color="#050505" stop-opacity="0"/>
    </linearGradient>
    <radialGradient id="radialGradient5682" cx="-107.83378" cy="-43.067612" gradientTransform="matrix(1 0 0 .275 -377.3601 -90.187081)" gradientUnits="userSpaceOnUse" r="12.374368" xlink:href="#linearGradient5406"/>
    <radialGradient id="radialGradient5684" cx="-195.32214" cy="133.89294" gradientTransform="matrix(1.4809016 0 0 .3819503 -208.92937 -132.80629)" gradientUnits="userSpaceOnUse" r="48.96864" xlink:href="#linearGradient4376"/>
    <radialGradient id="radialGradient5686" cx="-195.32211" cy="144.36551" gradientTransform="matrix(.5314418 0 0 .3819503 -394.3799 -132.80629)" gradientUnits="userSpaceOnUse" r="48.96864" xlink:href="#linearGradient4376"/>
    <radialGradient id="radialGradient5688" cx="-75.703278" cy="119.10338" gradientTransform="matrix(2.8313727 .0000001 -.00000001 .3289326 19.372101 67.439863)" gradientUnits="userSpaceOnUse" r="50.125">
      <stop offset="0" stop-opacity="0"/>
      <stop offset=".52602422" stop-opacity=".214286"/>
      <stop offset="1"/>
    </radialGradient>
    <radialGradient id="radialGradient5690" cx="-75.711166" cy="113.45824" fx="-75.514481" fy="99.224663" gradientTransform="matrix(1.8505064 -.00000012 .00000003 .4986511 -54.882697 47.225801)" gradientUnits="userSpaceOnUse" r="50.125">
      <stop offset="0" stop-opacity="0"/>
      <stop offset=".5" stop-opacity=".214286"/>
      <stop offset="1"/>
    </radialGradient>
    <linearGradient id="linearGradient5692" gradientUnits="userSpaceOnUse" x1="-493.38198389623" x2="-493.38198389623" xlink:href="#linearGradient4376" y1="-114.58061181379" y2="-91.38990169995"/>
    <linearGradient id="linearGradient4331" gradientUnits="userSpaceOnUse" x1="56.09228889138" x2="82.83877026316" xlink:href="#XMLID_18_" y1="85.06383089362" y2="21.94502049889"/>
    <radialGradient id="radialGradient4335" cx="-120" cy="-109.7959" gradientTransform="matrix(.8183544 -.00000005 .00000013 2.242391 162.20254 332.54575)" gradientUnits="userSpaceOnUse" r="78" xlink:href="#linearGradient4376"/>
    <radialGradient id="radialGradient4338" cx="-120" cy="-150.6152" fx="-120.37437" fy="-166.52031" gradientTransform="matrix(1.3748192 0 .00000002 1.5795433 228.97831 259.76779)" gradientUnits="userSpaceOnUse" r="78" xlink:href="#linearGradient4376"/>
    <linearGradient id="linearGradient4341" gradientUnits="userSpaceOnUse" x1="133.06814265253" x2="133.06814265253" xlink:href="#linearGradient4376" y1="123.25204595269" y2="43.89875336512"/>
    <linearGradient id="linearGradient4347" gradientUnits="userSpaceOnUse" x1="59.13806774676" x2="59.13806774676" xlink:href="#linearGradient4376" y1="-7.87045262524" y2="14.55698664449"/>
    <linearGradient id="linearGradient4350" gradientUnits="userSpaceOnUse" x1="89.531918" x2="89.531918" y1="79.96656897061" y2="-9.44011277602">
      <stop offset="0" stop-color="#1f1f1f"/>
      <stop offset="1" stop-color="#424242"/>
    </linearGradient>
    <linearGradient id="linearGradient4353" gradientUnits="userSpaceOnUse" x1="76.76596" x2="76.76596" y1="55.30537939132" y2="-22.73514952235">
      <stop offset="0" stop-color="#d6d6d6"/>
      <stop offset="1" stop-color="#fff"/>
    </linearGradient>
    <radialGradient id="radialGradient4356" cx="-122.25" cy="-192.92754" gradientTransform="matrix(.9982816 -.00000003 .00000002 .7333812 184.60376 154.42559)" gradientUnits="userSpaceOnUse" r="94">
      <stop offset="0" stop-color="#efefef"/>
      <stop offset="1" stop-color="#b8b8b8"/>
    </radialGradient>
    <linearGradient id="linearGradient4382" gradientUnits="userSpaceOnUse" x1="50.59408585738" x2="78.86857006133" xlink:href="#linearGradient4376" y1="-60.19710924358" y2="72.49049012324"/>
    <radialGradient id="radialGradient4386" cx="-526.78827" cy="-120.68829" gradientTransform="matrix(2.5032896 0 0 .8793526 1344.4536 190.12756)" gradientUnits="userSpaceOnUse" r="76" xlink:href="#XMLID_18_"/>
    <filter id="filter3486">
      <feGaussianBlur stdDeviation=".24499996"/>
    </filter>
    <clipPath id="clipPath3470">
      <rect height="7.999996" rx="2.449761" width="39.999996" x="44" y="-56"/>
    </clipPath>
    <filter id="filter3269">
      <feGaussianBlur stdDeviation="1.9199998"/>
    </filter>
    <linearGradient id="linearGradient3103" gradientTransform="matrix(.8333333 0 0 .1666666 10.686944 -68.668732)" gradientUnits="userSpaceOnUse" x1="54.507175" x2="54.507175" xlink:href="#linearGradient4376" y1="102.68581" y2="27.983446"/>
    <linearGradient id="linearGradient3107" gradientTransform="matrix(.8333333 0 0 .1666666 10.686944 -56.668732)" gradientUnits="userSpaceOnUse" x1="54.507175" x2="54.507175" xlink:href="#linearGradient4376" y1="102.68581" y2="27.983446"/>
    <linearGradient id="linearGradient3126" gradientUnits="userSpaceOnUse" x1="54.527449" x2="54.527449" y1="69.290739" y2="26.208042">
      <stop offset="0" stop-color="#969696"/>
      <stop offset="1" stop-color="#eee"/>
    </linearGradient>
    <linearGradient id="linearGradient3175" gradientUnits="userSpaceOnUse" x1="61.760765" x2="61.760765" xlink:href="#linearGradient5406" y1="-48.000004" y2="-57.930981"/>
    <filter id="filter4767">
      <feGaussianBlur stdDeviation=".032667312"/>
    </filter>
    <filter id="filter4826">
      <feGaussianBlur stdDeviation=".16756081"/>
    </filter>
    <radialGradient id="radialGradient4836" cx="64.002678" cy="25.674944" gradientTransform="matrix(4.7079371 0 0 2.180008 -237.3179 -30.745325)" gradientUnits="userSpaceOnUse" r="7.350622">
      <stop offset="0" stop-color="#969696"/>
      <stop offset="1" stop-color="#969696" stop-opacity="0"/>
    </radialGradient>
  </defs>
  <g>
    <g transform="matrix(.679161 0 0 .679161 402.22218 168.7293)">
      <g fill-rule="evenodd">
        <path d="m-498-139.31937-14.5625 5.4375c1.28562 3.30562 1.77043 27.83222-1.0625 31.15625-1.96509 2.30575-6.97583 3.311808-10.96875 3.718748-11.9257 1.21541-23.53125 7.587115-23.53125 13.687495 0 10.91453 28.21176 16.59375 50.125 16.59375 21.78824 0 50.125-5.67922 50.125-16.59375 0-6.350325-11.6368-12.472085-23.5625-13.687495-3.99292-.40694-9.15288-1.293738-10.96875-3.718748-2.8714-3.83463-2.27652-28.28154-1.03125-31.15625z" fill-opacity=".762162" filter="url(#filter5346)" opacity=".481982"/>
        <path d="m-498-141.31937-14.5625 5.4375c1.28562 3.30562 1.77043 27.83222-1.0625 31.15625-1.96509 2.30575-6.97583 3.31181-10.96875 3.71875-11.9257 1.215408-23.53125 7.587113-23.53125 13.687493 0 10.91453 28.21176 16.59375 50.125 16.59375 21.78824 0 50.125-5.67922 50.125-16.59375 0-6.350325-11.6368-12.472085-23.5625-13.687493-3.99292-.40694-9.15288-1.29374-10.96875-3.71875-2.8714-3.83463-2.27652-28.28154-1.03125-31.15625z" fill-opacity=".762162" filter="url(#filter5214)"/>
        <path d="m-498-141.61937-14.5625 5.4375c1.28562 3.30562 1.77043 27.83222-1.0625 31.15625-1.96509 2.30575-6.97583 3.31181-10.96875 3.71875-11.9257 1.21541-23.53125 7.587113-23.53125 13.687493 0 10.91453 28.21176 16.59375 50.125 16.59375 21.78824 0 50.125-5.67922 50.125-16.59375 0-6.350325-11.6368-12.472083-23.5625-13.687493-3.99292-.40694-9.15288-1.29374-10.96875-3.71875-2.8714-3.83463-2.27652-28.28154-1.03125-31.15625z" fill="url(#linearGradient5666)"/>
        <path d="m-497.9851-141.63165-14.5625 5.4375c.08226.2115.14371.53213.21875.90625l14.34375-5.34375 14.28125 5.34375c.07864-.3886.19552-.70835.28125-.90625zm-13.5625 21.21875c-.0808 6.89711-.65883 13.728-2.0625 15.375-1.9651 2.30575-6.97583 3.31181-10.96875 3.71875-11.92571 1.21541-23.53125 7.587123-23.53125 13.687503 0 .144795.0214.294549.03125.4375.692-5.921036 11.94697-11.947572 23.5-13.125003 3.99292-.40694 9.00365-1.413 10.96875-3.71875 1.47226-1.72748 2.02909-9.1492 2.0625-16.375zm27.125 2.0625c.12575 6.40052.70665 12.54356 2.03125 14.3125 1.81587 2.42501 6.97582 3.31181 10.96875 3.71875 11.63062 1.18534 22.94516 7.039381 23.5 13.218753.01461-.173402.0625-.355119.0625-.53125-.00001-6.350323-11.6368-12.472093-23.5625-13.687503-3.99293-.40694-9.15288-1.29374-10.96875-3.71875-1.25624-1.67765-1.86615-7.27675-2.03125-13.3125z" fill="url(#radialGradient5668)"/>
        <path d="m-215.03125 91.125c1.79705.578786 3.37742 1.345738 4.28125 2.40625 2.41859 2.837859 2.41412 21.09051 1.5625 28.4375 4.74841.47841 9.54702.71875 14.0625.71875 4.50925 0 9.27026-.23618 14.03125-.71875-.83121-7.18431-.87047-25.188384 1.5625-28.4375.81106-1.083138 2.28787-1.842548 4.03125-2.40625-10.41058-.396513-21.97647-1.083033-39.53125 0z" fill="url(#linearGradient5670)" filter="url(#filter3600)" opacity=".117117" transform="matrix(.9370573 0 0 .9370573 -315.15064 -187.06378)"/>
        <path d="m-511.82885-112.6004c-.0609 5.48859-.3553 10.83813-8.03125 11.25-3.86166.69826-4.19519 2.151173-4.875 3.531253 9.03627-1.36341 19.4666-4.011823 26.94953-2.786613l.13258-8.98705c-4.24239-1.08888-9.97027-1.89853-14.17586-3.00759z" fill="url(#radialGradient5672)" filter="url(#filter5257)" opacity=".468468"/>
        <path d="m-510.4226-109.2254c-.35428 4.99035-5.21804 8.28427-9.96166 9.09727 5.05584-.89459 16.56776-1.03031 22.5324-1.04798l.11048-6.20554c-3.46184-.52011-8.29888-.68808-12.68122-1.84375z" fill="url(#radialGradient5674)" filter="url(#filter5257)" opacity=".40991"/>
        <path d="m-498-141.61937-14.5625 5.4375c1.28562 3.30562 1.77043 27.83222-1.0625 31.15625-1.96509 2.30575-6.97583 3.31181-10.96875 3.71875h53.15625c-3.99292-.40694-9.15288-1.29374-10.96875-3.71875-2.8714-3.83463-2.27652-28.28154-1.03125-31.15625z" fill="url(#linearGradient5676)"/>
      </g>
      <path d="m-498-141.61937-14.5625 5.4375c1.28562 3.30562 1.77043 27.83222-1.0625 31.15625-1.96509 2.30575-6.97583 3.31181-10.96875 3.71875-11.9257 1.21541-23.53125 7.587113-23.53125 13.687493 0 10.91453 28.21176 16.59375 50.125 16.59375 21.78824 0 50.125-5.67922 50.125-16.59375 0-6.350325-11.6368-12.472083-23.5625-13.687493-3.99292-.40694-9.15288-1.29374-10.96875-3.71875-2.8714-3.83463-2.27652-28.28154-1.03125-31.15625z" fill="none" opacity=".54955" stroke="url(#linearGradient5678)" stroke-width=".3"/>
      <path d="m-215.03125 91.125c1.79705.578786 3.37742 1.345738 4.28125 2.40625 2.41859 2.837859 2.41412 21.09051 1.5625 28.4375 4.74841.47841 9.54702.71875 14.0625.71875 4.50925 0 9.27026-.23618 14.03125-.71875-.83121-7.18431-.87047-25.188384 1.5625-28.4375.81106-1.083138 2.28787-1.842548 4.03125-2.40625-10.15799-.507294-21.02253-.676229-39.53125 0z" fill="url(#linearGradient5670)" fill-rule="evenodd" filter="url(#filter3600)" opacity=".117117" transform="matrix(.9370573 0 0 .9370573 -315.15064 -187.06378)"/>
      <path d="m-484.9792-110.89486c-.03089 6.01372-3.42647 8.66713-12.45647 8.86418 13.73668-.71873 21.51974 1.32042 27.66815 2.278495-3.12515-1.117485-8.27754-1.167505-11.4047-2.985595-3.35231-1.94899-3.48432-5.07232-3.80698-8.15708z" fill-opacity=".497297" fill-rule="evenodd" filter="url(#filter5402)" opacity=".554054" stroke="url(#radialGradient5682)"/>
      <path d="m-511.63312-136.00757-.77482.27894c.47095 1.21093.83949 5.34079.96078 10.19663.06376-3.69336.00682-7.47744-.18596-10.47557zm26.93275 0c-.206 3.1902-.30814 7.24261-.21695 11.18841.10566-5.25273.47249-9.78227.96078-10.90947zm34.68095 44.784613c-2.5131 9.379008-28.98934 15.17194-48.16282 15.17194-19.23909 0-45.75355-6.234085-48.13183-15.10996-.53243.94277-.83681 1.90053-.83681 2.85134 0 10.66206 27.56228 16.20924 48.96864 16.20924 21.28424 0 48.96864-5.54718 48.96864-16.20924 0-.98976-.27209-1.95349-.80582-2.91332z" fill="url(#radialGradient5684)" fill-rule="evenodd" filter="url(#filter3649)" opacity=".432432"/>
      <path d="m-511.63312-136.00757-.77482.27894c.47095 1.21093.83949 5.34079.96078 10.19663.06376-3.69336.00682-7.47744-.18596-10.47557zm26.93275 0c-.206 3.1902-.30814 7.24261-.21695 11.18841.10566-5.25273.47249-9.78227.96078-10.90947zm34.68095 44.784613c-2.41916 9.028413-28.98934 15.17194-48.16282 15.17194-19.23909 0-45.72354-6.122102-48.13183-15.10996-.53243.94277-.83681 1.90053-.83681 2.85134 0 10.66206 27.56228 16.20924 48.96864 16.20924 21.28424 0 48.96864-5.54718 48.96864-16.20924 0-.98976-.27209-1.95349-.80582-2.91332z" fill="url(#radialGradient5686)" fill-rule="evenodd" filter="url(#filter3649)"/>
      <g fill-rule="evenodd" mask="url(#mask5641)">
        <path d="m-221.76796 93.20625c-9.66876.985393-19.22404 5.312612-22.36077 10.23165-2.95517 4.63431 6.61982 3.87902 10.65303 2.25713 9.14413-3.49527 22.59713-3.45175 37.58274-3.45175 17.89278 0 33.6687.89525 42.39208 5.61044 5.43293 2.93663 9.21476-.42103 8.02165-3.09878-2.41912-5.429356-12.55538-10.470722-23.13248-11.54869-30.70887-2.692478-35.76778-1.861224-53.15625 0z" fill="url(#radialGradient5688)" filter="url(#filter5178)" opacity=".27027" transform="matrix(.9478225 0 0 .9234897 -313.03905 -186.89507)"/>
        <path d="m-221.76796 93.20625c-9.8876 1.007694-19.55436 5.201049-22.5707 10.56315-2.20296 3.91619 6.14869 3.79059 10.73888 1.97324 9.1757-3.44127 22.65328-3.63195 37.70682-3.63195 17.80642 0 33.44474.99076 42.26424 5.67477 5.13681 3.01365 9.64454-.29612 8.02046-3.33328-2.45487-5.409725-12.61965-10.187663-23.00345-11.24593-29.41254-2.955932-35.37204-1.884684-53.15625 0z" fill="url(#radialGradient5690)" filter="url(#filter5178)" opacity=".27027" transform="matrix(.9410153 0 0 .9168573 -314.3667 -186.17274)"/>
        <path d="m-499.8125-102.09375c-4.83212.03993-10.33985.16863-16.84375.40625 1.68391.54236 3.18431 1.28749 4.03125 2.28125 1.26736 1.487077 1.80071 7.479387 1.90625 13.6875h11.25c.91468 0 1.65625-.832157 1.65625-1.84375v-14.53125c-.66994.00224-1.30348-.00576-2 0z" fill="url(#linearGradient5692)" filter="url(#filter3600)" opacity=".148649"/>
      </g>
    </g>
    <g transform="matrix(.5 0 0 .5 189 14.866996)"/>
    <rect fill="url(#radialGradient4356)" height="88.085106" rx="5.114236" width="120" x="4" y="4"/>
    <rect fill="url(#linearGradient4353)" height="86" rx="4.437219" width="118" x="5" y="5"/>
    <rect fill="url(#linearGradient4350)" height="82.000008" rx="2.575422" width="114.00002" x="7" y="7"/>
    <path d="m9.5682781 7c-1.4267812 0-2.5731386 1.1463577-2.5731386 2.5731383v1.9148947c0-1.426782 1.1463574-3.2114365 2.5731386-3.2114365l108.8585819-.0110711c1.42679 0 2.57314 1.7846546 2.57314 3.2114356v-1.9148938c0-1.4267806-1.14635-2.5731383-2.57314-2.5731383z" fill="url(#linearGradient4347)"/>
    <rect fill="url(#radialGradient4338)" height="76" opacity=".707207" rx="1.300001" width="100" x="14" y="10"/>
    <rect fill="url(#radialGradient4335)" height="76" opacity=".707207" rx="1.300001" width="100" x="14" y="10"/>
    <rect height="74" rx=".641756" width="98" x="15" y="11"/>
    <path d="m9.5731386 7.011812c-1.4267812 0-2.5731386 1.1463578-2.5731386 2.5731384v42.4150496c15.082806 2.009541 31.213417 3.12367 48.622346 3.12367 24.127258 0 46.223634-2.143206 65.377654-5.844415v-39.7027979c0-1.4267806-1.14635-2.5731384-2.57314-2.5731384z" fill="url(#linearGradient4341)"/>
    <rect fill="url(#linearGradient4331)" height="72" width="96" x="16" y="12"/>
    <rect fill="url(#radialGradient4386)" height="72" width="96" x="16" y="12"/>
    <path d="m16 12h96l-96 72z" fill="url(#linearGradient4382)" opacity=".324324"/>
    <g transform="matrix(.5 0 0 .5 307 -89.132994)"/>
    <rect filter="url(#filter3269)" height="47.999996" opacity=".661458" rx="1.125" transform="matrix(1.0170122 0 0 1 -1.068506 -3.997934)" width="47.999996" x="40" y="29.000004"/>
    <rect fill="url(#linearGradient3126)" height="47.999996" rx="1.59099" width="47.999996" x="40.020267" y="24.002073"/>
    <rect fill="url(#linearGradient3107)" height="7.999996" rx="2.449761" transform="scale(1 -1)" width="39.999996" x="44.020267" y="-52.002064"/>
    <rect height="7.999996" rx="2.449761" style="opacity:.661458;fill:none;stroke-linecap:round;stroke-linejoin:round;clip-path:url(#clipPath3470);filter:url(#filter3486);stroke:url(#linearGradient3175)" transform="matrix(1 0 0 -1 .020274 -3.997934)" width="39.999996" x="44" y="-56"/>
    <rect fill="url(#linearGradient3103)" height="7.999996" rx="2.449761" transform="scale(1 -1)" width="39.999996" x="44.020267" y="-64.002068"/>
    <rect height="7.999996" rx="2.449761" style="opacity:.661458;fill:none;stroke-linecap:round;stroke-linejoin:round;clip-path:url(#clipPath3470);stroke:url(#linearGradient3175);filter:url(#filter3486)" transform="matrix(1 0 0 -1 .020274 8.002066)" width="39.999996" x="44" y="-56"/>
    <path d="m47.38545 45.950526h.340538v1.691649l1.010572-.889082h.432576l-1.093405.964553 1.139424 1.097086h-.44178l-1.047387-1.00689v1.00689h-.340538zm2.858684 1.040023c-.181622.000002-.3252.071178-.430736.213527-.105536.141126-.158305.335018-.158304.581677-.000001.246661.052154.441167.156464.583518.105535.141124.249727.211686.432576.211686.180392 0 .323357-.071175.428895-.213527.105534-.142351.158302-.336243.158304-.581677-.000002-.244205-.05277-.437483-.158304-.579836-.105538-.143577-.248503-.215366-.428895-.215368m0-.287157c.294518.000003.525839.095721.693963.287157.168119.19144.25218.456508.252182.795204-.000002.337472-.084063.602539-.252182.795204-.168124.191438-.399445.287157-.693963.287157-.295748 0-.527682-.095719-.695803-.287157-.166895-.192665-.250343-.457732-.250342-.795204-.000001-.338696.083447-.603764.250342-.795204.168121-.191436.400055-.287154.695803-.287157m3.219471.866994v1.244346h-.338698v-1.233302c-.000002-.195118-.038044-.341151-.114127-.438098-.076085-.096945-.190212-.145418-.342379-.14542-.182849.000002-.327041.058293-.432576.174872-.105537.116582-.158305.2755-.158305.476754v1.165194h-.340538v-2.061639h.340538v.32029c.080993-.123942.176098-.216593.285317-.277953.110443-.061356.237455-.092035.381035-.092038.236841.000003.416007.073632.537499.22089.121487.146035.182232.361402.182234.646104m.881719.215367c0 .249116.050927.444849.152782.587199.103082.141125.244206.211687.423373.211687.179165 0 .320289-.070562.423372-.211687.103081-.14235.154622-.338083.154623-.587199-.000001-.249113-.051542-.444233-.154623-.585358-.103083-.14235-.244207-.213525-.423372-.213527-.179167.000002-.320291.071177-.423373.213527-.101855.141125-.152782.336245-.152782.585358m1.15415.719733c-.071177.122717-.161374.214141-.27059.274272-.107992.058904-.238071.088356-.390239.088356-.249115 0-.452211-.0994-.609288-.298201-.15585-.198801-.233775-.460187-.233775-.78416 0-.32397.077925-.585357.233775-.784159.157077-.198799.360173-.298199.609288-.298202.152168.000003.282247.030068.390239.090197.109216.058906.199413.149716.27059.272431v-.312927h.338698v2.845799h-.338698zm1.001368-.504365v-1.248028h.338698v1.235143c0 .19512.038042.341766.114127.439939.076083.096946.19021.145419.342379.145419.182847 0 .327039-.05829.432576-.174871.106762-.11658.160144-.275498.160146-.476754v-1.168876h.338698v2.061639h-.338698v-.316609c-.082222.125172-.177941.218436-.287157.279794-.107992.060132-.233777.090197-.377354.090197-.236844 0-.416624-.07363-.53934-.22089-.122717-.14726-.184075-.362627-.184075-.646103m2.427949-1.248028h.338698v2.061639h-.338698zm0-.802567h.338698v.428894h-.338698z"/>
    <path d="m0 42a2 2 0 1 1 -4 0 2 2 0 1 1 4 0z" opacity=".661458" transform="matrix(.5 0 0 .5 49.020274 39.002066)"/>
    <path d="m0 42a2 2 0 1 1 -4 0 2 2 0 1 1 4 0z" opacity=".661458" transform="matrix(.5 0 0 .5 53.020274 39.002066)"/>
    <path d="m0 42a2 2 0 1 1 -4 0 2 2 0 1 1 4 0z" opacity=".661458" transform="matrix(.5 0 0 .5 57.020274 39.002066)"/>
    <path d="m0 42a2 2 0 1 1 -4 0 2 2 0 1 1 4 0z" opacity=".661458" transform="matrix(.5 0 0 .5 61.020274 39.002066)"/>
    <path d="m16 12h96l-96 72z" fill="url(#linearGradient4382)" opacity=".504505"/>
    <g filter="url(#filter4826)" transform="matrix(.8717435 0 0 .8717435 8.20876 4.298597)">
      <path d="m65.222264 25.76873-2.582651.248332v10.639638l2.555058-.386294v-4.536195l3.438015 5.032859 2.693021-.855366-3.520793-4.839711 3.548386-4.563787-2.748206-.629107-3.410423 4.563786zm-5.855113 2.593688c-.029205.003013-.060792.01108-.082777.033111l-1.015402 1.0154c-.042646.042779-.047855.108251-.016556.160036l1.186475 1.959062c-.210672.354153-.381747.734049-.502181 1.136809l-2.179802.452515c-.060659.012538-.104852.070284-.104852.132444v1.434806c0 .060658.046135.11262.104852.126925l2.11358.513219c.113018.466287.287624.912495.518736 1.318917l-1.225103 1.865249c-.03417.052094-.027503.121583.016556.165554l1.015401 1.015402c.042777.042644.108383.047985.160036.016556l1.920432-1.164402c.376668.217472.784467.39168 1.214068.507701l.446996 2.152209c.012538.060836.064809.104852.126926.104852h1.434805c.060218 0 .112622-.04044.126926-.099334l.529775-2.163245c.443064-.119465.860796-.296808 1.247177-.524257l1.89284 1.24166c.052183.033993.121318.027416.165554-.016557l1.009883-1.0154c.042911-.042822.053506-.108383.022074-.160036l-.68981-1.136808-.226258.07174c-.03267.010066-.068872-.004681-.088296-.03311 0 0-.435742-.64099-1.004364-1.473436-.68005 1.330697-2.066925 2.240504-3.664274 2.240504-2.269806 0-4.111271-1.841464-4.111271-4.111271 0-1.669618.998412-3.103643 2.428133-3.74705v-1.05955c-.260205.091076-.511586.200962-.750514.331109-.000441-.000263.000441-.005252 0-.005518l-1.936988-1.269252c-.026047-.01704-.053574-.019567-.082777-.016554z" fill="url(#radialGradient4836)" opacity=".509009"/>
      <path d="m65.21875 25.73125-2.59375.25v.28125l2.59375-.25zm3.375.09375-3.40625 4.5625v.3125l3.40625-4.5625 2.53125.59375.21875-.28125zm-9.21875 2.5c-.029203.003013-.071765.009219-.09375.03125l-1 1c-.042644.042779-.062549.104465-.03125.15625l.0625.125.96875-1c.021985-.022031.064547-.028237.09375-.03125s.036453.01421.0625.03125l1.9375 1.25c.000441.000266-.000442.030987 0 .03125.238928-.130147.489797-.252674.75-.34375v-.3125c-.260203.091076-.511072.213603-.75.34375l-1.9375-1.28125c-.026047-.01704-.033297-.003013-.0625 0zm8.5625 2.84375-.125.15625 3.3125 4.59375.1875-.0625zm-8.59375.46875c-.170258.309309-.303212.624166-.40625.96875l-2.1875.46875c-.060659.012538-.09375.06284-.09375.125v.3125c0-.06216.033091-.112462.09375-.125l2.1875-.46875c.120434-.40276.289327-.770847.5-1.125zm.375 2.5625c-.002764.061766 0 .125046 0 .1875 0 2.269807 1.823944 4.09375 4.09375 4.09375 1.597349 0 3.007452-.888053 3.6875-2.21875.568622.832446 1.000002 1.46875 1 1.46875.019424.028429.029833.041316.0625.03125l.25-.0625.625 1.03125.03125-.03125c.04291-.042822.062682-.135847.03125-.1875l-.6875-1.125-.25.0625c-.032667.010066-.043076-.002821-.0625-.03125.000002 0-.431378-.636304-1-1.46875-.680048 1.330697-2.090151 2.25-3.6875 2.25-2.228002 0-4.02764-1.787955-4.09375-4zm-.40625 2.53125-1.15625 1.71875c-.034169.052094-.012809.143529.03125.1875l.03125.03125 1.15625-1.78125c-.028348-.049852-.035861-.105237-.0625-.15625z" fill="#2d2d2d" fill-opacity=".508108" opacity=".630631"/>
      <path d="m71.21875 26.46875-3.40625 4.40625.0625.09375 3.46875-4.46875zm-12.9375 2.9375c-.042644.042779-.062549.104465-.03125.15625l1.125 1.875c.018946-.033468.042856-.060728.0625-.09375zm3.84375.78125c-1.304487.587049-2.219382 1.830673-2.375 3.3125.210649-1.401792 1.123994-2.562019 2.375-3.125zm3.0625 1.34375v.1875l3.4375 5.0625 2.6875-.875-.125-.15625-2.5625.8125zm-8.53125 2.96875v.1875c-.000002.060658.035033.110695.09375.125l2.125.5c.101977.42073.238974.845191.4375 1.21875l.0625-.09375c-.231112-.406422-.386981-.846213-.5-1.3125l-2.125-.5c-.058717-.014305-.093752-.064342-.09375-.125zm8.53125 1.5625-2.5625.40625v.1875l2.5625-.375zm1.21875 2.25c-.386381.227449-.806938.411785-1.25.53125l-.53125 2.15625c-.014304.058894-.064785.09375-.125.09375h-1.4375c-.062117 0-.112463-.032914-.125-.09375l-.4375-2.15625c-.429601-.116021-.842082-.282528-1.21875-.5l-1.9375 1.15625c-.051653.031429-.113474.042644-.15625 0l-1-1.03125-.03125.03125c-.034169.052094-.012809.143529.03125.1875l1 1c.042776.042644.104597.062679.15625.03125l1.9375-1.1875c.376668.217472.789149.415229 1.21875.53125l.4375 2.15625c.012537.060836.062883.09375.125.09375h1.4375c.060215 0 .110696-.034856.125-.09375l.53125-2.1875c.443062-.119465.863619-.272551 1.25-.5l1.875 1.21875c.052183.033993.143264.043973.1875 0l1-1.03125c.04291-.042822.062682-.104597.03125-.15625l-.03125-.03125-1 1.03125c-.044236.043973-.135317.033993-.1875 0z" fill="#fff" filter="url(#filter4767)"/>
      <path d="m65.21875 25.71875-2.59375.25v.125l2.59375-.25zm3.375.09375-3.40625 4.5625v.125l3.40625-4.5625 2.65625.59375.09375-.09375zm-9.21875 2.5c-.029203.003012-.071765.009219-.09375.03125l-1 1c-.042644.042778-.062549.104465-.03125.15625.007932-.015459.018457-.018416.03125-.03125l1-1c.021985-.022031.064547-.028236.09375-.03125.029203-.003013.036453-.017039.0625 0l1.9375 1.28125c.238928-.130147.489797-.252673.75-.34375v-.125c-.260203.091075-.511072.213603-.75.34375l-1.9375-1.28125c-.026047-.017041-.033297-.003013-.0625 0zm8.5625 2.84375-.125.15625.0625.0625.0625-.09375 3.3125 4.59375.0625-.03125zm-8.59375.46875c-.170258.309308-.303212.624166-.40625.96875l-2.1875.46875c-.060659.012537-.09375.06284-.09375.125v.125c0-.06216.033091-.112461.09375-.125l2.1875-.46875c.103038-.344584.235992-.65944.40625-.96875l.0625.09375c.011445-.019765.019546-.042825.03125-.0625zm.375 2.6875c.000307.020915 0 .041682 0 .0625.010052.221137.050359.414054.09375.625-.050795-.221025-.079815-.454733-.09375-.6875zm.09375.6875c.006393.031082-.007084.062923 0 .09375.419211 1.824123 2.050498 3.218751 4 3.21875 1.597349 0 3.007452-.919302 3.6875-2.25.568622.832446 1.000002 1.468751 1 1.46875.019424.028429.029833.041317.0625.03125l.25-.0625.6875 1.125c.006378-.035066.015716-.099174 0-.125l-.6875-1.125-.25.0625c-.032667.010065-.043076-.002821-.0625-.03125.000002-.000001-.431378-.636304-1-1.46875-.680048 1.330696-2.090151 2.25-3.6875 2.25-1.949502-.000001-3.580789-1.363377-4-3.1875zm-.5 1.71875-1.15625 1.71875c-.017085.026047-.006576.058883 0 .09375l1.15625-1.6875c.015616.029904.020729.062837.03125.09375l.03125-.0625c-.028348-.049853-.035861-.105237-.0625-.15625z" fill="#2d2d2d" fill-opacity=".508108" opacity=".630631"/>
    </g>
  </g>
</svg>
