<?xml version="1.0" encoding="UTF-8" standalone="no"?>
<svg height="128" width="128" xmlns="http://www.w3.org/2000/svg" xmlns:xlink="http://www.w3.org/1999/xlink">
  <defs>
    <radialGradient id="L" cx="21.556" cy="118.776" gradientTransform="matrix(1.23265 .0493 -.01012 .2531 -3.868 80.875)" gradientUnits="userSpaceOnUse" r="5.07" xlink:href="#a"/>
    <linearGradient id="a">
      <stop offset="0" stop-color="#fff"/>
      <stop offset="1" stop-color="#fff" stop-opacity="0"/>
    </linearGradient>
    <filter id="M" color-interpolation-filters="sRGB" height="2.282" width="1.067" x="-.034" y="-.641">
      <feGaussianBlur stdDeviation=".133"/>
    </filter>
    <radialGradient id="w" cx="115.5" cy="10.073" gradientTransform="matrix(2.0835 0 0 2.5068 -125.144 -15.163)" gradientUnits="userSpaceOnUse" r=".5">
      <stop offset="0" stop-color="#7c7c7c"/>
      <stop offset=".085" stop-color="#434343"/>
      <stop offset=".25" stop-color="#fff"/>
      <stop offset=".375" stop-color="#9c9c9c"/>
      <stop offset=".5" stop-color="#717171"/>
      <stop offset=".625" stop-color="#a0a0a0"/>
      <stop offset=".75" stop-color="#dfdfdf"/>
      <stop offset=".875" stop-color="#909090"/>
      <stop offset="1" stop-color="#4f4f4f"/>
    </radialGradient>
    <linearGradient id="x" gradientTransform="matrix(.4507 0 0 .67995 -45.197 .222)" gradientUnits="userSpaceOnUse" x1="138.508" x2="149.602" y1="32" y2="32">
      <stop offset="0" stop-color="#7c7c7c"/>
      <stop offset=".031" stop-color="#434343"/>
      <stop offset=".302" stop-color="#fff"/>
      <stop offset=".434" stop-color="#9c9c9c"/>
      <stop offset=".537" stop-color="#717171"/>
      <stop offset=".625" stop-color="#a0a0a0"/>
      <stop offset=".75" stop-color="#dfdfdf"/>
      <stop offset=".875" stop-color="#909090"/>
      <stop offset="1" stop-color="#4f4f4f"/>
    </linearGradient>
    <linearGradient id="y" gradientTransform="matrix(.83333 0 0 .80314 -76.522 7.893)" gradientUnits="userSpaceOnUse" x1="116" x2="116" xlink:href="#b" y1="20.575" y2="19"/>
    <linearGradient id="b">
      <stop offset="0"/>
      <stop offset="1" stop-opacity="0"/>
    </linearGradient>
    <linearGradient id="z" gradientTransform="matrix(.32886 0 0 .07627 -170.352 12.948)" gradientUnits="userSpaceOnUse" x1="471.8" x2="471.804" xlink:href="#b" y1="141.475" y2="144.057"/>
    <linearGradient id="A" gradientTransform="matrix(.12253 0 0 .87581 2.06 -10.713)" gradientUnits="userSpaceOnUse" x1="138.508" x2="149.602" y1="32" y2="32">
      <stop offset="0" stop-color="#7c7c7c"/>
      <stop offset=".031" stop-color="#434343"/>
      <stop offset=".25" stop-color="#fff"/>
      <stop offset=".375" stop-color="#9c9c9c"/>
      <stop offset=".5" stop-color="#717171"/>
      <stop offset=".625" stop-color="#a0a0a0"/>
      <stop offset=".75" stop-color="#dfdfdf"/>
      <stop offset=".875" stop-color="#909090"/>
      <stop offset="1" stop-color="#4f4f4f"/>
    </linearGradient>
    <linearGradient id="B" gradientTransform="matrix(-.1219 -.00046 .0065 -1.14661 78.51 203.61)" gradientUnits="userSpaceOnUse" x1="446.257" x2="470.738" xlink:href="#a" y1="108.021" y2="108.021"/>
    <linearGradient id="C" gradientTransform="matrix(-.46543 -.00256 .00071 -1.6724 357.35 264.355)" gradientUnits="userSpaceOnUse" x1="469.106" x2="460.064" xlink:href="#a" y1="108.021" y2="108.021"/>
    <filter id="D" color-interpolation-filters="sRGB" height="1.006" width="1.204" x="-.102" y="-.003">
      <feGaussianBlur stdDeviation=".118"/>
    </filter>
    <linearGradient id="E" gradientTransform="matrix(-.12262 -.00068 .00242 -1.67239 201.309 263.496)" gradientUnits="userSpaceOnUse" x1="446.257" x2="470.738" xlink:href="#a" y1="108.021" y2="108.021"/>
    <filter id="F" color-interpolation-filters="sRGB" height="1.006" width="1.488" x="-.244" y="-.003">
      <feGaussianBlur stdDeviation=".116"/>
    </filter>
    <linearGradient id="G" gradientTransform="matrix(.40822 0 0 .44155 -207.055 -174.268)" gradientUnits="userSpaceOnUse" x1="471.303" x2="471.304" xlink:href="#b" y1="141.252" y2="141.701"/>
    <linearGradient id="H" gradientUnits="userSpaceOnUse" x1="14.236" x2="25.33" xlink:href="#c" y1="40.94" y2="40.94"/>
    <linearGradient id="c">
      <stop offset="0" stop-color="#afbfff"/>
      <stop offset=".128" stop-color="#2050ac"/>
      <stop offset=".481" stop-color="#4085d1"/>
      <stop offset=".914" stop-color="#204795"/>
      <stop offset="1" stop-color="#000959"/>
    </linearGradient>
    <linearGradient id="I" gradientTransform="matrix(-.12188 .00008 .02678 .19806 75.739 7.878)" gradientUnits="userSpaceOnUse" x1="446.257" x2="470.738" xlink:href="#a" y1="108.021" y2="108.021"/>
    <linearGradient id="J" gradientTransform="matrix(.83333 0 0 .80314 -76.522 -36.067)" gradientUnits="userSpaceOnUse" x1="116" x2="116" xlink:href="#b" y1="23.08" y2="19.517"/>
    <linearGradient id="K" gradientTransform="matrix(.9075 0 0 .30208 -85.135 -119.02)" gradientUnits="userSpaceOnUse" x1="110.008" x2="121.102" xlink:href="#c" y1="37" y2="37"/>
    <filter id="v" color-interpolation-filters="sRGB" height="2.217" width="1.122" x="-.061" y="-.609">
      <feGaussianBlur stdDeviation=".254"/>
    </filter>
    <linearGradient id="t" gradientUnits="userSpaceOnUse" x1="-88" x2="48" y1="207" y2="55">
      <stop offset="0"/>
      <stop offset=".687" stop-opacity=".498"/>
      <stop offset=".787" stop-opacity=".167"/>
      <stop offset="1" stop-opacity="0"/>
    </linearGradient>
    <filter id="u" color-interpolation-filters="sRGB">
      <feGaussianBlur stdDeviation=".983"/>
    </filter>
    <pattern id="s" patternTransform="translate(126.829 -42.821) scale(.13212)" xlink:href="#d"/>
    <linearGradient id="r" gradientUnits="userSpaceOnUse" x1="102.5" x2="107" y1="51.5" y2="49">
      <stop offset="0" stop-color="#e3e3e3"/>
      <stop offset="1" stop-color="#e3e3e3" stop-opacity="0"/>
    </linearGradient>
    <linearGradient id="q" gradientUnits="userSpaceOnUse" x1="108" x2="114" xlink:href="#e" y1="44" y2="36"/>
    <linearGradient id="e">
      <stop offset="0" stop-color="#f9f9f9"/>
      <stop offset="1" stop-color="#959595"/>
    </linearGradient>
    <linearGradient id="p" gradientUnits="userSpaceOnUse" x1="107" x2="111" xlink:href="#e" y1="40" y2="36"/>
    <linearGradient id="n" gradientUnits="userSpaceOnUse" x1="97.414" x2="120" xlink:href="#b" y1="44" y2="44"/>
    <clipPath id="m">
      <path d="M88 32h7.901C100 32 120 50.197 120 55.963V72H88z"/>
    </clipPath>
    <filter id="o" color-interpolation-filters="sRGB">
      <feGaussianBlur stdDeviation=".565"/>
    </filter>
    <radialGradient id="l" cx="93.192" cy="36.253" fx="98.434" fy="39.756" gradientTransform="matrix(2.07479 0 0 1.75167 -85.51 -33.598)" gradientUnits="userSpaceOnUse" r="50.75" xlink:href="#f"/>
    <linearGradient id="f">
      <stop offset="0" stop-color="#656565"/>
      <stop offset=".031" stop-color="#8b8b8b"/>
      <stop offset=".06" stop-color="#9e9e9e"/>
      <stop offset=".098" stop-color="#c7c7c7"/>
      <stop offset=".223" stop-color="#eaeaea"/>
      <stop offset=".383" stop-color="#fff"/>
      <stop offset="1" stop-color="#e2e2e2"/>
    </linearGradient>
    <linearGradient id="k" gradientUnits="userSpaceOnUse" x1="101.5" x2="101.5" xlink:href="#a" y1="98.781" y2="108.335"/>
    <radialGradient id="j" cx="91.882" cy="39.875" fx="97.124" fy="43.377" gradientTransform="matrix(75.57775 0 0 63.80776 -6828.24 -2508.334)" gradientUnits="userSpaceOnUse" r="50.75" xlink:href="#f"/>
    <filter id="i" color-interpolation-filters="sRGB" height="4.829" width="1.095" x="-.048" y="-1.914">
      <feGaussianBlur stdDeviation="2.232"/>
    </filter>
    <filter id="g" color-interpolation-filters="sRGB" height="11.393" width="1.143" x="-.071" y="-5.196">
      <feGaussianBlur stdDeviation="2.989"/>
    </filter>
    <filter id="h" color-interpolation-filters="sRGB" height="1.957" width="1.024" x="-.012" y="-.479">
      <feGaussianBlur stdDeviation=".558"/>
    </filter>
  </defs>
  <g filter="url(#g)">
    <path d="M7.782 106.887h112.25v2.794c-35.016-.014-72.463.015-112.25 0z" filter="url(#h)" transform="matrix(.9879 0 0 .09103 .773 98.27)"/>
  </g>
  <path d="M7.782 106.887h112.25v2.794c-35.016-.014-72.463.015-112.25 0z" filter="url(#i)" transform="matrix(.9879 0 0 .09103 .773 98.27)"/>
  <path d="M8 28h87.901C100 28 120 46.197 120 51.963V108H8z" fill="url(#j)"/>
  <path d="M7.719 29.469v71.562H108.28V50.72c0-1.043-1.045-3.06-2.781-5.313s-4.108-4.811-6.594-7.187c-2.485-2.376-5.081-4.576-7.281-6.188-1.1-.806-2.114-1.46-2.938-1.906s-1.485-.656-1.78-.656z" fill="url(#k)" transform="translate(0 -4) scale(1.10345)"/>
  <path d="M8.156 29.906v70.688h99.688V50.719c0-.78-1.004-2.805-2.719-5.032s-4.058-4.76-6.531-7.124c-2.473-2.365-5.073-4.561-7.25-6.157-1.09-.797-2.08-1.444-2.875-1.875s-1.435-.625-1.563-.625z" fill="url(#l)" transform="translate(0 -4) scale(1.10345)"/>
  <path d="M14 33v70h101V47h-.5v55.5h-100v-69H102V33z" fill-opacity=".402"/>
  <path clip-path="url(#m)" d="M97.414 32c4 0 5.901 16.04 6.586 21.635C107.86 51.171 120 52 120 56c0-5.759-16.896-24-22.586-24z" fill="url(#n)" filter="url(#o)" transform="translate(0 -4)"/>
  <path d="M96 28c4 0 5.06 15.155 5.746 20.751C105.606 46.288 120 48 120 52v-.031C120 46.209 101.69 28 96 28z" fill="url(#p)"/>
  <path d="M98.25 33.188c.227.35.493.627.688 1.062.702 1.574 1.226 3.674 1.656 5.938.811 4.273 1.261 9.007 1.594 11.874 1.066-.48 2.406-.8 4-.906 1.929-.127 4.116 0 6.187.313s4.016.816 5.5 1.531c.367.177.601.42.906.625-.492-1.036-1.204-2.247-2.125-3.531-1.783-2.486-4.246-5.286-6.875-7.907s-5.42-5.068-7.906-6.843c-1.325-.947-2.572-1.667-3.625-2.157z" fill="url(#q)" transform="translate(0 -4)"/>
  <path d="M98.25 33.188c.227.35.493.627.688 1.062.702 1.574 1.226 3.674 1.656 5.938.811 4.273 1.261 9.007 1.594 11.874 1.066-.48 2.406-.8 4-.906 1.929-.127 4.116 0 6.187.313s4.016.816 5.5 1.531c.367.177.601.42.906.625-.492-1.036-1.204-2.247-2.125-3.531-1.783-2.486-4.246-5.286-6.875-7.907s-5.42-5.068-7.906-6.843c-1.325-.947-2.572-1.667-3.625-2.157z" fill="url(#r)" transform="translate(0 -4)"/>
  <g fill-opacity=".402">
    <path d="M77 93v9.5h.5v-9h37V93h-37z"/>
    <path d="M93 93.5h.5v9H93zm0 4.5H77.5v.5H93zm11-4.5h.5v9h-.5zM58.281 36.781l-6.656 3.875a.749.749 0 0 0-.469-.156c-.321 0-.58.218-.687.5h-8.032c-.106-.282-.365-.5-.687-.5s-.58.218-.687.5h-7.938L30 39.188v.562L32.156 41H18v.5h14.375L30 42.875v.563l3.281-1.938h7.782a.749.749 0 0 0 .437.438V46a5.754 5.754 0 0 0-5.5 5.75c0 3.092 2.44 5.62 5.5 5.75v5c-3.07.12-5.531 2.651-5.531 5.75S38.43 73.88 41.5 74v5c-3.07.12-5.531 2.651-5.531 5.75s2.462 5.63 5.531 5.75v4.062a.749.749 0 0 0-.437.438H30.969l2.375-1.375v-.563l-3.188 1.844-.031.094H19v.5h11.219l3.125 1.812v-.562l-2.157-1.25h9.876c.106.282.365.5.687.5.322 0 .58-.218.688-.5H69V85.437a.749.749 0 0 0 .437-.437h4.532a5.754 5.754 0 0 0 11.5-.25 5.754 5.754 0 1 0-11.5-.25h-4.532a.749.749 0 0 0-.437-.438V69.437a.749.749 0 0 0 .437-.437H74v-.156a5.75 5.75 0 1 0-.031-.594c0 .083-.004.167 0 .25h-4.532a.749.749 0 0 0-.437-.438V52.437a.746.746 0 0 0 .437-.437H74a5.754 5.754 0 0 0 5.75 5.5c3.092 0 5.62-2.44 5.75-5.5h4.563a.749.749 0 0 0 .437.437v15.625a.749.749 0 0 0-.437.438H85.5v.5h4.563a.749.749 0 0 0 .437.437v14.625a.746.746 0 0 0-.437.438H85.53v.5h4.532c.1.295.356.5.687.5.414 0 .75-.339.75-.75a.743.743 0 0 0-.5-.688V69.437a.744.744 0 0 0 .5-.687.744.744 0 0 0-.5-.688V52.437c.284-.105.5-.368.5-.687s-.216-.582-.5-.688V41H60.437a.744.744 0 0 0-.687-.5.752.752 0 0 0-.75.75c0 .411.336.75.75.75.322 0 .58-.218.687-.5H90.5v9.562a.749.749 0 0 0-.437.438H85.5a5.754 5.754 0 0 0-5.75-5.5A5.754 5.754 0 0 0 74 51.5h-4.563a.714.714 0 0 0-.687-.5.752.752 0 0 0-.75.75c0 .32.215.582.5.687v15.625a.744.744 0 0 0-.5.688c0 .32.216.582.5.687v14.625a.744.744 0 0 0-.5.688c0 .32.216.582.5.687V95H42.437a.749.749 0 0 0-.437-.438V90.5a5.755 5.755 0 0 0 5.469-5.75A5.755 5.755 0 0 0 42 79v-5a5.755 5.755 0 0 0 5.469-5.75A5.755 5.755 0 0 0 42 62.5v-5a5.754 5.754 0 0 0 5.5-5.75c0-3.092-2.44-5.62-5.5-5.75v-4.062a.749.749 0 0 0 .437-.438h8.032c.106.282.366.5.687.5.414 0 .75-.339.75-.75 0-.057-.019-.103-.031-.156l6.656-3.875-.25-.438zM41.75 46.5c1.361 0 2.598.525 3.531 1.375l-3.531 3.531-3.531-3.531A5.229 5.229 0 0 1 41.75 46.5zm38 0c1.361 0 2.598.525 3.531 1.375l-3.531 3.531-3.531-3.531A5.229 5.229 0 0 1 79.75 46.5zm-41.875 1.719l3.531 3.531-3.531 3.531A5.229 5.229 0 0 1 36.5 51.75c0-1.361.525-2.598 1.375-3.531zm7.75 0A5.229 5.229 0 0 1 47 51.75a5.229 5.229 0 0 1-1.375 3.531l-3.531-3.531zm30.25 0l3.531 3.531-3.531 3.531A5.229 5.229 0 0 1 74.5 51.75c0-1.361.525-2.598 1.375-3.531zm7.75 0A5.229 5.229 0 0 1 85 51.75a5.229 5.229 0 0 1-1.375 3.531l-3.531-3.531zM41.75 52.094l3.531 3.531A5.229 5.229 0 0 1 41.75 57a5.229 5.229 0 0 1-3.531-1.375zm38 0l3.531 3.531A5.229 5.229 0 0 1 79.75 57a5.229 5.229 0 0 1-3.531-1.375zM41.719 63a5.23 5.23 0 0 1 3.5 1.344l-3.469 3.469-3.469-3.47C39.208 63.522 40.382 63 41.72 63zm38 0a5.23 5.23 0 0 1 3.5 1.344l-3.469 3.469-3.469-3.47C77.208 63.522 78.382 63 79.72 63zm-41.813 1.656l3.5 3.5-3.531 3.532.344.343L41.75 68.5l3.531 3.531.344-.343-3.531-3.532 3.469-3.468a5.218 5.218 0 0 1 1.406 3.562 5.25 5.25 0 1 1-10.5 0 5.27 5.27 0 0 1 1.437-3.594zm38 0l3.5 3.5-3.531 3.532.344.343L79.75 68.5l3.531 3.531.344-.343-3.531-3.532 3.469-3.468a5.218 5.218 0 0 1 1.406 3.562 5.25 5.25 0 1 1-10.5 0 5.27 5.27 0 0 1 1.437-3.594zM41.72 79.5a5.23 5.23 0 0 1 3.5 1.344l-3.469 3.469-3.469-3.47c.927-.822 2.101-1.343 3.438-1.343zm38 0a5.23 5.23 0 0 1 3.5 1.344l-3.469 3.469-3.469-3.47c.927-.822 2.101-1.343 3.438-1.343zm-41.813 1.656l3.5 3.5-3.531 3.532.344.343L41.75 85l3.531 3.531.344-.343-3.531-3.532 3.469-3.468a5.218 5.218 0 0 1 1.406 3.562 5.25 5.25 0 1 1-10.5 0 5.27 5.27 0 0 1 1.437-3.594zm38 0l3.5 3.5-3.531 3.532.344.343L79.75 85l3.531 3.531.344-.343-3.531-3.532 3.469-3.468a5.218 5.218 0 0 1 1.406 3.562 5.25 5.25 0 1 1-10.5 0 5.27 5.27 0 0 1 1.437-3.594z"/>
  </g>
  <path d="M8 28h87.901C100 28 120 46.197 120 51.963V108H8z" fill="url(#s)" opacity=".035"/>
  <path d="M113.281 94.719c-.107.05-.205.106-.312.156-.791.374-1.585.752-2.344 1.187-.282.174-.473.287-.75.47-.47.309-.92.66-1.344 1.03-.257.236-.32.286-.562.532-.294.296-.566.595-.844.906-.071.086-.148.164-.219.25.008-.124.023-.251.032-.375.05-.665.104-1.31.218-1.969.019-.094.043-.187.063-.281.04-.19.099-.377.156-.563-.13-.114-.279-.218-.562-.53a6.625 6.625 0 0 0-.063.312c-.019.104-.046.208-.062.312-.104.669-.155 1.327-.22 2-.04.447-.09.897-.124 1.344-.037.444-.03.449.187 1.156.012.037.055.028.094.032.143.015.167-.007.281-.063.027-.024.07-.036.094-.062.098-.105.168-.227.25-.344.186-.267.045-.049.25-.344.31-.45.648-.893 1.031-1.281.09-.09.19-.161.281-.25.516-.48 1.064-.902 1.657-1.281.125-.08.248-.172.375-.25a15.28 15.28 0 0 1 1.968-1c.117-.05.259-.077.375-.125.108-.044.205-.113.313-.157l-.219-.812z" fill="#00619a" fill-opacity=".847" opacity=".871"/>
  <path d="M30 44v63l-14 6h11l12-6V44z" fill="url(#t)" filter="url(#u)" opacity=".871"/>
  <rect filter="url(#v)" height="1" opacity=".871" ry=".5" width="10" x="16.5" y="112"/>
  <g transform="translate(0 -12) scale(1.10345)">
    <path d="M116 10.06a.5.5 0 1 1-1 0 .5.5 0 0 1 1 0z" fill="url(#w)" transform="translate(-137.297 1.052) scale(1.35938)"/>
    <rect fill="url(#x)" height="4.08" rx="0" width="5" x="17.228" y="19.94"/>
    <rect fill="url(#y)" height="4.08" rx="0" width="5" x="17.228" y="19.94"/>
    <rect fill="url(#z)" height=".443" rx="1.062" ry=".157" transform="matrix(-1 .00036 .0066 .99998 0 0)" width="8.057" x="-23.598" y="23.546"/>
    <rect fill="url(#A)" height="5.255" rx="0" width="1.359" x="19.031" y="14.686"/>
    <g fill-rule="evenodd">
      <path d="M24.726 111.927l.602-64.987h-11.1l.5 64.949 9.998.038z"/>
      <path d="M24.458 111.926L25 46.974l-2.984-.027-.192 64.969 2.634.01z" fill="url(#B)" opacity=".426"/>
      <path d="M142.528 129.636l.039-94.523-2.784-.04.288 94.55 2.457.013z" fill="url(#C)" filter="url(#D)" transform="matrix(.99404 0 0 .82439 -123.423 5.988)"/>
      <path d="M146.604 129.772l.313-94.735-1.14-.03.039 94.76.788.004z" fill="url(#E)" filter="url(#F)" opacity=".426" transform="matrix(.99404 0 0 .68562 -123.423 22.943)"/>
    </g>
    <rect fill="url(#G)" height="2.563" rx="1.318" ry=".909" transform="rotate(-179.905) skewX(.014)" width="10.001" x="-24.886" y="-112.916"/>
    <rect fill="url(#H)" height="12" rx="0" width="11.094" x="14.236" y="34.94"/>
    <path d="M23.726 23.715l1.602 11.225h-11.1l1.5-11.219 7.998-.006z" fill-rule="evenodd"/>
    <path d="M23.309 23.715l1.69 11.22-2.983.004-.841-11.222 2.134-.002z" fill="url(#I)" fill-rule="evenodd" opacity=".426"/>
    <path d="M142.126 129.75l.44-94.637-2.783-.04.288 94.663 2.055.013z" fill="url(#C)" fill-rule="evenodd" filter="url(#D)" transform="matrix(.99404 0 .00747 -.11843 -124.039 39.086)"/>
    <path d="M146.604 129.772l.313-94.735-1.14-.03.039 94.76.788.004z" fill="url(#E)" fill-rule="evenodd" filter="url(#F)" opacity=".426" transform="matrix(.99404 0 -.00746 -.11843 -123.162 39.086)"/>
    <rect fill="url(#J)" height="1.606" rx="0" transform="scale(1 -1)" width="5" x="17.228" y="-21.547"/>
    <rect fill="url(#K)" height="3.625" rx="0" transform="scale(1 -1)" width="10.068" x="14.698" y="-109.656"/>
  </g>
  <rect fill="url(#L)" filter="url(#M)" height="1" opacity=".51" ry=".25" width="9.5" x="17" y="111"/>
</svg>
