<?xml version="1.0" encoding="UTF-8" standalone="no"?>
<!DOCTYPE svg PUBLIC "-//W3C//DTD SVG 1.1//EN" 
  "http://www.w3.org/Graphics/SVG/1.1/DTD/svg11.dtd">
<svg xmlns="http://www.w3.org/2000/svg" xmlns:xlink="http://www.w3.org/1999/xlink" width="128" height="128">
  <linearGradient id="d">
    <stop offset="0"/>
    <stop offset="1" stop-opacity="0"/>
  </linearGradient>
  <linearGradient id="b">
    <stop offset="0" stop-color="#fff"/>
    <stop offset="1" stop-color="#fff" stop-opacity="0"/>
  </linearGradient>
  <linearGradient id="f">
    <stop offset="0" stop-color="#bf0303"/>
    <stop offset="1" stop-color="#e20800"/>
  </linearGradient>
  <linearGradient id="e">
    <stop offset="0" stop-color="#b4942a"/>
    <stop offset="1" stop-color="#e4dcc9"/>
  </linearGradient>
  <linearGradient id="c">
    <stop offset="0" stop-color="#fff"/>
    <stop offset="1" stop-color="#252525" stop-opacity="0"/>
  </linearGradient>
  <filter id="p">
    <feGaussianBlur stdDeviation=".298"/>
  </filter>
  <filter id="h" width="1.118" height="1.514" x="-.059" y="-.257">
    <feGaussianBlur stdDeviation="1.672"/>
  </filter>
  <linearGradient id="m" x1="330.002" x2="330.002" y1="61.543" y2="122.543" gradientTransform="matrix(1 0 0 .2295 -265.686 90.627)" gradientUnits="userSpaceOnUse">
    <stop offset="0" stop-color="#b1aecf"/>
    <stop offset="1" stop-color="#fff"/>
  </linearGradient>
  <linearGradient id="k" x1="292" x2="368" y1="9.5" y2="9.5" gradientTransform="matrix(1 0 0 1.00001 -265.686 20)" gradientUnits="userSpaceOnUse">
    <stop offset="0" stop-color="#aba8cb"/>
    <stop offset=".45" stop-color="#cac8de"/>
    <stop offset="1" stop-color="#aba8cb"/>
  </linearGradient>
  <linearGradient id="a">
    <stop offset="0" stop-color="#fff"/>
    <stop offset=".272" stop-color="#e9e9f2"/>
    <stop offset=".45" stop-color="#cac8de"/>
    <stop offset=".663" stop-color="#cac8de"/>
    <stop offset="1" stop-color="#fff"/>
  </linearGradient>
  <linearGradient id="K" x1="330" x2="330" y1="20" gradientTransform="matrix(1 0 0 1.00001 -265.686 20)" gradientUnits="userSpaceOnUse" xlink:href="#a"/>
  <linearGradient id="i" x1="330" x2="330" y1="100" gradientTransform="matrix(1 0 0 1.00001 -265.686 20)" gradientUnits="userSpaceOnUse">
    <stop offset="0" stop-color="#cac8de"/>
    <stop offset=".243" stop-color="#fff"/>
    <stop offset=".414" stop-color="#e9e9f2"/>
    <stop offset=".663" stop-color="#cac8de"/>
    <stop offset="1" stop-color="#fff"/>
  </linearGradient>
  <linearGradient id="j" x1="292" x2="368" y1="54.25" y2="54.25" gradientTransform="matrix(1 0 0 1.00001 -265.686 20)" gradientUnits="userSpaceOnUse" xlink:href="#a"/>
  <radialGradient id="q" cx="15.727" cy="58.09" r="2.614" gradientTransform="matrix(1.96225 1.86162 -26.6761 28.74703 2057.344 -1354.472)" gradientUnits="userSpaceOnUse">
    <stop offset="0" stop-color="#252525"/>
    <stop offset=".5" stop-color="#252525"/>
    <stop offset=".75" stop-color="#252525"/>
    <stop offset="1"/>
  </radialGradient>
  <radialGradient id="r" cx="36.676" cy="95.769" r="47.746" fx="16.217" fy="64.141" gradientTransform="matrix(.06675 .06401 -1.3404 1.41446 677.177 197.64)" gradientUnits="userSpaceOnUse">
    <stop offset="0" stop-color="#ffe57e"/>
    <stop offset=".5" stop-color="#ffd235"/>
    <stop offset="1" stop-color="#d1a51a"/>
  </radialGradient>
  <linearGradient id="s" x1="11.326" x2="14.494" y1="57.384" y2="57.384" gradientTransform="matrix(1.08533 1.01315 -1.00946 1.0893 590.677 254.16)" gradientUnits="userSpaceOnUse">
    <stop offset="0" stop-color="#fcc900"/>
    <stop offset="1" stop-color="#f9ff06"/>
  </linearGradient>
  <radialGradient id="t" cx="34.678" cy="7.462" r="47.595" gradientTransform="matrix(.99991 -.00784 .00057 .02048 -.001 7.581)" gradientUnits="userSpaceOnUse">
    <stop offset="0" stop-color="#fff" stop-opacity=".683"/>
    <stop offset="1" stop-color="#fff" stop-opacity="0"/>
  </radialGradient>
  <radialGradient id="u" cx="34.678" cy="7.462" r="47.595" gradientTransform="matrix(-1.5103 .00264 -.00012 -.00911 87.052 7.439)" gradientUnits="userSpaceOnUse" xlink:href="#b"/>
  <radialGradient id="O" cx="49.01" cy="8.495" r="3.975" fx="47.371" fy="6.77" gradientTransform="matrix(1.40965 1.31208 -.49252 .53303 520.47 227.175)" gradientUnits="userSpaceOnUse">
    <stop offset="0" stop-color="#fff"/>
    <stop offset="1" stop-color="#aeaeae"/>
  </radialGradient>
  <radialGradient id="P" cx="49.012" cy="2.674" r="1.725" gradientTransform="matrix(1.92579 0 0 .23435 536.442 -194.043)" gradientUnits="userSpaceOnUse" xlink:href="#c"/>
  <linearGradient id="Q" x1="48.499" x2="48.733" y1=".812" y2="2.366" gradientTransform="matrix(1.40965 1.31208 -1.3073 1.4148 527.392 219.684)" gradientUnits="userSpaceOnUse" xlink:href="#b"/>
  <radialGradient id="R" cx="49.012" cy="2.674" r="1.725" gradientTransform="matrix(1.32071 0 0 .15968 526.39 -235.536)" gradientUnits="userSpaceOnUse" xlink:href="#c"/>
  <radialGradient id="S" cx="49.012" cy="2.674" r="1.725" gradientTransform="matrix(1.32071 0 0 .15968 -718.723 -184.053)" gradientUnits="userSpaceOnUse" xlink:href="#c"/>
  <clipPath id="M">
    <path d="M540.675 318.962c-32.005 0-49.463-7.309-49.463-11.064 0-1.878-8.652-35.883-.286-38.18h99.496c8.365 2.297-.287 36.302-.287 38.18 0 3.755-17.457 11.064-49.46 11.064z"/>
  </clipPath>
  <linearGradient id="L" x1="78.125" x2="91.031" y1="30.078" y2="30.078" gradientUnits="userSpaceOnUse" xlink:href="#d"/>
  <linearGradient id="l" x1="55" x2="86.892" y1="112.879" y2="38.148" gradientUnits="userSpaceOnUse">
    <stop offset="0" stop-color="#644a9b"/>
    <stop offset="1" stop-color="#c3b4da"/>
  </linearGradient>
  <radialGradient id="o" cx="42.618" cy="120.642" r="3.407" gradientTransform="matrix(1.56067 1.63645 -14.83371 14.16488 2233.39 -1397.747)" gradientUnits="userSpaceOnUse" xlink:href="#e"/>
  <linearGradient id="v" x1="520.153" x2="553.485" y1="357.31" y2="357.31" gradientUnits="userSpaceOnUse" xlink:href="#e"/>
  <linearGradient id="w" x1="1316.358" x2="1328.429" y1="335.241" y2="323.17" gradientTransform="matrix(.46958 0 0 .4681 905.63 21.58)" gradientUnits="userSpaceOnUse">
    <stop offset="0" stop-color="#888"/>
    <stop offset="1" stop-color="#888" stop-opacity="0"/>
  </linearGradient>
  <linearGradient id="x" x1="1182.049" x2="1152.983" y1="508.391" y2="441.958" gradientTransform="matrix(.46452 0 0 .46389 911.01 24.174)" gradientUnits="userSpaceOnUse">
    <stop offset="0" stop-color="#ddd"/>
    <stop offset="1" stop-color="#eee"/>
  </linearGradient>
  <linearGradient id="y" x1="1509.025" x2="1474.129" y1="182.033" y2="235.096" gradientUnits="userSpaceOnUse">
    <stop offset="0" stop-color="#eee"/>
    <stop offset="1" stop-color="#dfdfdf"/>
  </linearGradient>
  <linearGradient id="z" x1="1465.481" x2="1464.507" y1="261.605" y2="260.597" gradientTransform="rotate(180 1454.352 244.033)" gradientUnits="userSpaceOnUse" xlink:href="#d"/>
  <linearGradient id="A" x1="1465.824" x2="1465.232" y1="261.93" y2="261.309" gradientTransform="matrix(-.48292 -1.46777 .509 -1.54703 2090.872 2716.927)" gradientUnits="userSpaceOnUse" xlink:href="#d"/>
  <linearGradient id="B" x1="1480.383" x2="1480.383" y1="204.039" y2="160.582" gradientUnits="userSpaceOnUse" xlink:href="#f"/>
  <linearGradient id="C" x1="1465.824" x2="1465.232" y1="261.93" y2="261.309" gradientTransform="matrix(1.82559 .48292 1.92417 -.509 -1642.15 -392.854)" gradientUnits="userSpaceOnUse" xlink:href="#d"/>
  <linearGradient id="D" x1="1487.892" x2="1487.892" y1="233.436" y2="188.175" gradientUnits="userSpaceOnUse" xlink:href="#f"/>
  <radialGradient id="E" cx="1518.174" cy="154.831" r="45.835" gradientTransform="matrix(3.16775 -1.93178 .55536 .91069 -3369.55 2935.457)" gradientUnits="userSpaceOnUse" xlink:href="#b"/>
  <linearGradient id="F" x1="1465.481" x2="1464.492" y1="261.605" y2="260.638" gradientUnits="userSpaceOnUse" xlink:href="#d"/>
  <linearGradient id="G" x1="1465.824" x2="1465.232" y1="261.93" y2="261.309" gradientTransform="matrix(0 2.07574 -2.18783 0 2014.203 -2796.184)" gradientUnits="userSpaceOnUse" xlink:href="#d"/>
  <linearGradient id="H" x1="1465.824" x2="1465.055" y1="261.93" y2="261.141" gradientTransform="matrix(0 -2.07574 2.18783 0 963.788 3222.59)" gradientUnits="userSpaceOnUse" xlink:href="#d"/>
  <linearGradient id="I" x1="1183.029" x2="1183.356" y1="-950.544" y2="-953.163" gradientUnits="userSpaceOnUse" xlink:href="#b"/>
  <linearGradient id="J" x1="1462.971" x2="1461.313" y1="237.539" y2="239.196" gradientUnits="userSpaceOnUse" xlink:href="#d"/>
  <linearGradient id="g" x2="76" y1="54.25" y2="54.25" gradientTransform="translate(26.314 20)" gradientUnits="userSpaceOnUse">
    <stop offset="0"/>
    <stop offset=".272" stop-color="#fff"/>
    <stop offset=".663" stop-color="#fff"/>
    <stop offset="1"/>
  </linearGradient>
  <mask id="n">
    <path fill="url(#g)" d="M64.315 38c-23.237 0-36.486-5.014-37.873-8h-.128l7.601 82h.058c.816 2.088 11.385 6.5 30.342 6.5 18.955 0 29.524-4.412 30.341-6.499h.058l7.6-82.001h-.128c-1.387 2.986-14.635 8-37.871 8z"/>
  </mask>
  <linearGradient id="N" x1="591.295" x2="590.699" y1="292.682" y2="282.65" gradientUnits="userSpaceOnUse">
    <stop offset="0"/>
    <stop offset="1" stop-color="#696969"/>
  </linearGradient>
  <path d="M296 95.201c0 2.265 11.916 7.799 34.001 7.799C352.089 103 364 97.466 364 95.201c0-2.271-11.911-7.808-33.999-7.808C307.916 87.394 296 92.93 296 95.201z" filter="url(#h)" opacity=".6" transform="translate(-265.686 20)"/>
  <path fill="url(#i)" d="M64.315 20c-22.092 0-40.001 4.478-40.001 10l8 82c0 4.419 14.327 8 32 8 17.674.001 32-3.58 32-7.998l8-82c0-5.524-17.907-10.002-40-10.002z"/>
  <path fill="url(#j)" d="M26.313 30l7.593 82h.063c.816 2.087 11.387 6.5 30.343 6.5s29.527-4.413 30.344-6.5h.063l7.594-82h-.126c-1.397 2.987-14.65 8-37.874 8-23.226 0-36.478-5.013-37.876-8h-.125z" opacity=".5"/>
  <path fill="url(#k)" d="M64.315 38c-24.588 0-38.001-5.615-38.001-8.5s13.413-8.5 38-8.5c24.588 0 38 5.615 38 8.5s-13.412 8.5-38 8.5z" opacity=".9"/>
  <path fill="url(#l)" d="M86.892 38.148l-5.978.919-5.832 11.396-3.066 13.08 6.126 9.897z" opacity=".2"/>
  <path fill="url(#m)" d="M33.916 111.752c0 2.032 10.652 6.999 30.399 6.999 19.746 0 30.398-4.967 30.398-7 0-2.031-10.652-7-30.398-7-19.747 0-30.4 4.969-30.4 7z" opacity=".5"/>
  <g mask="url(#n)" opacity=".4">
    <path fill="#fff" fill-opacity=".757" d="M-311.972-204.53v-2.146 2.147z"/>
    <path fill="#8f6b32" fill-rule="evenodd" d="M35 114l18.45-22.37.092-.175-10.358-5.732-.125.236z"/>
    <path fill="url(#o)" fill-rule="evenodd" d="M486.428 403.372l28.66-20.42.174-.188-10.499-10.103-.236.256-18.1 30.455z" filter="url(#p)" transform="rotate(-15 -545.545 1493.823) scale(.76827)"/>
    <path fill="url(#q)" d="M509.007 378.8c1.391 1.295 2.814.81 3.31 1.273a.67.67 0 0 1 .172.286l82.7-89.676-5.467-5.088-82.856 89.845c.249-.02.47-.004.627.142.455.423.117 1.918 1.514 3.218z" transform="rotate(-15 -545.545 1493.823) scale(.76827)"/>
    <path d="M52.203 86.804l-1.707 3.245c.418.268.237 1.364 1.012 1.775.834.443 1.371-.457 1.912-.173l1.727-3.285z" opacity=".353"/>
    <path fill="url(#r)" d="M594.99 290.497l-82.637 89.608c.436.48-.008 1.636.831 2.418.905.842 1.733.054 2.321.595l82.676-89.65-3.192-2.97z" transform="rotate(-15 -545.545 1493.823) scale(.76827)"/>
    <path fill="#252525" d="M46.9 85.933l-.876 1.664-.033.062c.349.2.213 1.302 1.361 2.05l.064.035.459.243.064.034c1.276.537 2.1-.214 2.561.03l.925-1.77z" opacity=".386"/>
    <path fill="#131313" d="M43.964 84.353l-.906 1.61c.016.009-.056.147-.04.156.331.176.23 1.268.826 1.73l.056.03.25.132.032.017c.735.25 1.433-.494 1.809-.37l.917-1.743z" opacity=".353"/>
    <path fill="url(#s)" d="M505.087 375.105c.876.796 1.943.046 2.406.477l82.637-89.607-3.226-3.003-82.676 89.65.053.049c.362.337-.076 1.631.806 2.434z" transform="rotate(-15 -545.545 1493.823) scale(.76827)"/>
    <path fill="url(#t)" d="M82.173 7.462a47.495.971 0 1 1-94.99 0 47.495.971 0 1 1 94.99 0z" transform="matrix(.37577 -.7141 -1.3568 -.71696 67.464 67.407)"/>
    <path fill="url(#u)" d="M106.56 7.462a71.883.423 0 1 1-.035-.013" transform="matrix(.3107 -.59296 -.98356 -.52229 63.943 70.86)"/>
    <path fill-rule="evenodd" d="M42.942 104.413c-1.57.26-3.507-1.708-4.544-2.191L35 113.995z"/>
    <path fill="url(#v)" d="M521.522 372.594c-.255.275-.398.539-.431.79a.718.718 0 0 0 .242.65c.194.18.415.245.663.193.247-.051.498-.215.753-.49.256-.277.4-.54.433-.792a.717.717 0 0 0-.241-.649.712.712 0 0 0-.664-.194c-.247.051-.5.216-.755.492m-.345-.322c.52-.562 1.013-.924 1.478-1.085.465-.16.847-.1 1.147.178.298.279.385.656.26 1.134-.125.477-.447.997-.968 1.56-.52.561-1.012.923-1.478 1.085-.465.16-.847.102-1.146-.177-.3-.279-.387-.657-.262-1.134.127-.48.45-1 .969-1.56m4.881-3.39l2.067-.335-.87.94-1.388.23-.12 1.4-.873.945.18-2.094-1.985.325.872-.943 1.304-.212.112-1.319.877-.947zm.267-2.109l.913-.987 1.396-.184.079-1.41.915-.99-.165 2.33.779.726-.835.903-.779-.726zm8.282-5.511c-.15.279-.323.553-.518.822a8.42 8.42 0 0 1-.65.79c-.54.584-1.053.966-1.54 1.147-.488.18-.88.133-1.174-.142-.298-.278-.371-.67-.221-1.176s.504-1.06 1.062-1.664c.216-.233.433-.445.653-.636a6.5 6.5 0 0 1 .662-.51l.383.357a5.485 5.485 0 0 0-1.251 1c-.332.36-.535.687-.61.982-.073.292-.012.53.186.714.195.182.433.229.713.14.28-.088.58-.305.9-.65.086-.094.163-.184.231-.269a2.47 2.47 0 0 0 .172-.246l-.359-.334-.51.551-.319-.297 1.302-1.407zm-.977-2.387l2.254-2.436.36.335-1.419 1.534.344.32 1.334-1.442.36.336-1.333 1.442.423.395 1.466-1.586.36.336-2.301 2.488zm3.037-3.283l.932-1.008 2.446-.093-1.268-1.18.792-.857 1.848 1.722-.933 1.009-2.445.092 1.267 1.181-.791.856zm5.257-5.684l.933-1.009 2.445-.092-1.267-1.18.792-.857 1.848 1.722-.933 1.008-2.445.093 1.267 1.18-.792.857zm4.526-4.96c.308-.334.597-.554.866-.66.271-.109.485-.09.642.056s.192.357.105.634c-.088.277-.286.583-.595.917-.31.335-.6.557-.87.666-.268.108-.48.089-.638-.057-.156-.146-.192-.358-.105-.636.087-.28.286-.586.595-.92m.279 2.058l1.785-1.93.247.23-1.785 1.93zm-.068-1.863c-.122.132-.19.258-.204.378a.356.356 0 0 0 .124.312c.095.09.201.122.318.1.117-.025.237-.102.358-.234.12-.13.187-.253.201-.371a.349.349 0 0 0-.12-.313.35.35 0 0 0-.322-.1c-.117.023-.235.099-.355.228m5.533-4.624c.25-.206.472-.333.665-.38.193-.05.352-.017.475.097.183.171.2.434.05.789-.152.354-.463.786-.934 1.296a8.53 8.53 0 0 1-1.087.99l-.368-.342a5.057 5.057 0 0 0 1.055-.869c.22-.239.368-.442.441-.61.075-.168.072-.29-.01-.367-.084-.078-.208-.072-.373.02-.163.088-.363.26-.599.515l-.334.361-.307-.286.352-.38c.21-.226.347-.412.412-.558s.06-.255-.018-.327c-.07-.066-.175-.063-.314.009-.139.071-.299.206-.481.403a5.56 5.56 0 0 0-.715.98l-.35-.326a10.092 10.092 0 0 1 .889-1.12c.42-.454.775-.758 1.062-.909.288-.154.512-.157.67-.009.108.1.147.237.117.41-.032.172-.13.376-.298.613" transform="rotate(-15 -545.545 1493.823) scale(.76827)"/>
    <path fill="#fff" fill-opacity=".757" d="M106.396 93.53l1.44.52z"/>
    <path fill="#888" d="M72.724 63.155L67.9 52.875 47.632 62.39l4.825 10.28 20.267-9.514z"/>
    <path fill="#bbb" d="M91.515 110.508l1.823-5.048-21.43 9.94 5.458 1.972z"/>
    <path fill="#4b4b4b" d="M93.317 105.606l-1.793 4.968-1.784-4.238 3.147-1.56z" opacity=".583"/>
    <path fill="url(#w)" d="M1516.781 160.608h-9.71l30.083 30.456v-10.532z" transform="rotate(109.854 453.054 -160.162) scale(.54748)"/>
    <path fill="url(#x)" d="M1447.608 221.853l-14.509 14.489 28.135 28.213 14.509-14.488z" transform="rotate(109.854 453.054 -160.162) scale(.54748)"/>
    <path fill="url(#y)" d="M1517.536 171.167l-61.105 61.105 9.465 9.465 61.031-61.046 10.522 10.536.073-.073z" transform="rotate(109.854 453.054 -160.162) scale(.54748)"/>
    <path fill="url(#z)" d="M1434.837 237.812l14.151-14.136-1.569-1.57-14.207 14.275 1.625 1.43z" opacity=".906" transform="rotate(109.854 453.054 -160.162) scale(.54748)"/>
    <path fill="#fff" d="M72.434 64.056l-4.989-10.641-.264.705 4.749 10.173z" opacity=".483"/>
    <path fill="url(#A)" d="M1507.189 162.54l8.132-.39 1.45-1.522-9.639.151.057 1.76z" opacity=".828" transform="rotate(109.854 453.054 -160.162) scale(.54748)"/>
    <path fill="url(#B)" d="M1506.97 160.602l-61.104 61.104 10.565 10.566 61.105-61.105z" transform="rotate(109.854 453.054 -160.162) scale(.54748)"/>
    <path fill="#fff" d="M75.133 113.275l-3.192 1.375.363.861 4.968 1.794-2.14-4.03z" opacity=".583"/>
    <path fill="url(#C)" d="M1534.954 190.829l.736-8.1 1.601-1.839-.147 9.995z" opacity=".828" transform="rotate(109.854 453.054 -160.162) scale(.54748)"/>
    <path fill="url(#D)" d="M1526.927 180.697l-61.104 61.105 10.566 10.565 61.104-61.104z" transform="rotate(109.854 453.054 -160.162) scale(.54748)"/>
    <path fill="url(#E)" d="M1506.97 160.653l-61.104 61.104 30.565 30.816 61.105-61.104z" opacity=".494" transform="rotate(109.854 453.054 -160.162) scale(.54748)"/>
    <path fill="#fff" d="M93.09 105.514L72.856 62.94l-.302.134 19.858 42.284-20.493 10.03.023.012 14.047-6.54 7.1-3.346z" opacity=".244"/>
    <path fill="#f0f8ff" d="M69.551 107.428a.767.767 0 0 1-.084-.447.353.353 0 0 1 .203-.279.348.348 0 0 1 .345.022.784.784 0 0 1 .293.356.787.787 0 0 1 .087.452.348.348 0 0 1-.201.28.35.35 0 0 1-.348-.02c-.115-.07-.213-.19-.295-.364m.078-.033a.49.49 0 0 0 .21.244c.085.042.175.04.272-.006a.292.292 0 0 0 .171-.204.48.48 0 0 0-.05-.313.478.478 0 0 0-.21-.24.292.292 0 0 0-.267.005.299.299 0 0 0-.174.203.465.465 0 0 0 .048.31m.25.685l.545.224.181-.543.094.199-.136.413.411.173.075.16-.525-.217-.188.564-.093-.199.142-.436-.43-.178zm.671 1.429l.3-.142.23-.594.091.193-.178.461.48.18.073.156-.615-.228-.301.142zm.8 1.651a2.486 2.486 0 0 1-.214-.359c-.09-.189-.125-.35-.107-.481a.347.347 0 0 1 .208-.283.344.344 0 0 1 .349.023c.114.07.215.198.301.383.057.121.106.252.145.393l-.094.044a2.247 2.247 0 0 0-.126-.4.546.546 0 0 0-.22-.262.288.288 0 0 0-.272-.001.281.281 0 0 0-.167.218c-.017.1.007.22.071.357.027.056.061.114.104.174l.233-.11.08.167zm.12.305l.716-.339.312.664-.076.036-.232-.495-.23.108.195.416-.076.035-.195-.415-.26.122.25.53-.076.036-.329-.698m.42.893l.717-.339.078.165-.273.86.554-.261.068.144-.717.339-.078-.165.273-.86-.554.261z"/>
    <path fill="#00142d" d="M51.75 72.47l19.703 41.924.033-.051-19.323-41.711 19.29-9.143-.022-.011z"/>
    <path fill="#9c0f0f" d="M64.783 76.295l3.25-1.526 1.567 3.34-.344.161-1.17-2.491-1.043.49.98 2.087-.34.16-.98-2.088-1.177.553 1.25 2.665-.344.162-1.65-3.513m2.108 4.49l3.25-1.526.85 1.81c.269.572.406 1.044.411 1.412.007.372-.121.62-.383.742-.433.204-.93-.055-1.49-.774l-.585 2.709-.489-1.042.577-2.345-.372-.792-1.374.646zm2.114.033l.13.274c.5 1.066.977 1.492 1.433 1.279.335-.158.293-.683-.127-1.577l-.25-.533zm3.008 7.645l.923-1.675-1.88-.364zm-.823 1.48l.596-1.073-1.189-2.532-1.21-.235-.369-.788 4.363.845.394.84-2.154 3.86-.43-.917m1.302 2.986c-.189-.401-.382-.937-.58-1.606l.457-.214c.146.753.32 1.346.524 1.779.157.334.33.58.52.737.192.16.365.203.52.13.127-.06.204-.178.23-.354.028-.174.012-.466-.046-.875l-.064-.473c-.08-.583-.1-1.012-.06-1.287.043-.274.158-.454.344-.541.25-.118.534-.047.852.21.319.258.6.645.842 1.162.217.46.403.966.56 1.517l-.422.198c-.161-.693-.314-1.195-.46-1.504-.137-.294-.293-.516-.468-.667-.175-.152-.326-.197-.455-.137-.109.051-.172.166-.19.345-.017.18.003.482.062.908l.07.49c.082.591.1 1.023.055 1.294-.046.271-.169.454-.368.547-.282.133-.6.047-.952-.258-.35-.301-.674-.769-.971-1.401m1.624 3.248l3.25-1.525 1.568 3.34-.345.161-1.17-2.491-1.043.49.98 2.087-.34.16-.98-2.088-1.177.553 1.25 2.665-.344.161-1.65-3.513m2.109 4.49l3.25-1.525.849 1.809c.27.573.406 1.044.412 1.413.006.372-.122.619-.384.742-.433.203-.93-.055-1.49-.774l-.585 2.709-.489-1.042.577-2.345-.371-.792-1.375.646-.394-.84m2.113.032l.13.275c.5 1.066.978 1.492 1.433 1.278.335-.157.293-.683-.126-1.576l-.25-.533z"/>
    <path fill="url(#F)" d="M1473.867 250.254l-14.151 14.135 1.569 1.57 14.207-14.274z" transform="rotate(109.854 453.054 -160.162) scale(.54748)"/>
    <path fill="url(#G)" d="M1462.414 264.475l-28.918-28.661-1.169 1.249 28.963 28.778z" opacity=".867" transform="rotate(109.854 453.054 -160.162) scale(.54748)"/>
    <path fill="url(#H)" d="M1515.165 162.342l20.612 20.106 1.58-1.662-20.656-20.222z" opacity=".661" transform="rotate(109.854 453.054 -160.162) scale(.54748)"/>
    <path fill="url(#I)" d="M1180.472-953.336l40.748.436 1.226 1.067s-.01 1.158.027 1.23l-43.236.018-.167-1.514z" opacity=".85" transform="rotate(154.854 299.587 -269.458) scale(.54748)"/>
    <path fill="url(#J)" d="M1446.897 222.674l-1.031 1.03 28.978 28.805 1-1z" transform="rotate(109.854 453.054 -160.162) scale(.54748)"/>
  </g>
  <path fill="url(#K)" d="M64.315 20c-22.092 0-40.001 4.478-40.001 10s17.909 10 40 10c22.093 0 40-4.478 40-10s-17.907-10-40-10zm0 18c-24.588 0-38.001-5.615-38.001-8.5s13.413-8.5 38-8.5c24.588 0 38 5.615 38 8.5s-13.412 8.5-38 8.5z" opacity=".7"/>
  <path fill="url(#L)" fill-rule="evenodd" d="M86.438 22.813l-8.313 14.53c3.598-.357 6.837-.843 9.656-1.406l3.25-12.156a75.162 75.162 0 0 0-4.594-.968z" opacity=".6"/>
  <g clip-path="url(#M)" transform="translate(-351.072 -207.05) scale(.76827)">
    <path fill="#fff" fill-opacity=".757" d="M50.893 3.281V.487 3.28z"/>
    <path fill="url(#N)" fill-rule="evenodd" d="M587.427 282.406c.535-.578 3.98-.242 7.6 3.126 3.654 3.402 4.347 6.646 3.677 7.37l-1.307 1.415c-3.76-3.498-7.518-6.997-11.277-10.496z" transform="rotate(-15 541.914 343.665)"/>
    <path fill="url(#q)" d="M509.007 378.8c1.391 1.295 2.814.81 3.31 1.273a.67.67 0 0 1 .172.286l82.7-89.676-5.467-5.088-82.856 89.845c.249-.02.47-.004.627.142.455.423.117 1.918 1.514 3.218z" transform="rotate(-15 541.914 343.665)"/>
    <path d="M524.91 382.486l-2.222 4.223c.544.35.309 1.776 1.317 2.31 1.086.577 1.785-.593 2.49-.225l2.247-4.275-3.833-2.033z" opacity=".353"/>
    <path fill="url(#r)" d="M594.99 290.497l-82.637 89.608c.436.48-.008 1.636.831 2.418.905.842 1.733.054 2.321.595l82.676-89.65-3.192-2.97z" transform="rotate(-15 541.914 343.665)"/>
    <path fill="#252525" d="M518.007 381.351l-1.14 2.167-.043.08c.454.26.277 1.695 1.772 2.67l.083.044.597.317.084.044c1.66.699 2.733-.28 3.333.039l1.204-2.304z" opacity=".386"/>
    <path fill="#131313" d="M514.185 379.295l-1.179 2.096c.021.012-.072.192-.051.203.43.228.299 1.65 1.074 2.251l.074.039.324.172.042.022c.957.326 1.866-.642 2.355-.48l1.194-2.27z" opacity=".353"/>
    <path fill="url(#s)" d="M505.087 375.105c.876.796 1.943.046 2.406.477l82.637-89.607-3.226-3.003-82.676 89.65.053.049c.362.337-.076 1.631.806 2.434z" transform="rotate(-15 541.914 343.665)"/>
    <path fill="url(#t)" d="M82.173 7.462a47.495.971 0 1 1-94.99 0 47.495.971 0 1 1 94.99 0z" transform="matrix(.48911 -.92948 -1.76604 -.93321 544.773 357.238)"/>
    <path fill="url(#u)" d="M106.56 7.462a71.883.423 0 1 1-.035-.013" transform="matrix(.40442 -.7718 -1.28023 -.67982 540.191 361.732)"/>
    <path fill="url(#O)" d="M581.645 288.674c-1.594 1-3.104 2.743-3.916 4.237l9.066 8.362 3.916-4.238zm8.113 7.475l-3.916 4.237 3.176 2.956c1.389-.834 2.981-2.495 3.916-4.237z" transform="rotate(-15 541.914 343.665)"/>
    <path fill="url(#P)" d="M627.507-194h6.643v1.454h-6.643z" transform="matrix(.88338 .46865 -.46543 .88508 -70.482 151.968)"/>
    <path fill="url(#Q)" fill-rule="evenodd" d="M593.897 284.778c2.341 1.87 3.994 4.424 4.083 4.669.09.244-2.17-2.621-4.108-3.948-1.923-1.316-4.64-1.393-4.838-1.553s-1.532-1.618-.301-1.545c1.287.077 3.355.934 5.164 2.377z" transform="rotate(-15 541.914 343.665)"/>
    <path fill="url(#R)" d="M588.844-235.506h4.555v.991h-4.555z" transform="matrix(.85038 .52617 -.59439 .80418 -70.482 151.968)"/>
    <path fill="url(#S)" d="M-656.27-184.024h4.555v.991h-4.555z" transform="matrix(-.89102 -.45396 -.37906 .92537 -70.482 151.968)"/>
  </g>
  <g fill-rule="evenodd">
    <path fill="#8e79a5" d="M71.902 107.498l-36.294 8.036 27.684-8.655z" opacity=".2"/>
    <path fill="#644a9b" d="M65.154 104.762l.178-3.307 1.568 3.343z" opacity=".3"/>
  </g>
</svg>
