<?xml version="1.0" encoding="UTF-8" standalone="no"?>
<!-- Copyright 2021 mathsisfun.com -->
<svg xmlns:sodipodi="http://sodipodi.sourceforge.net/DTD/sodipodi-0.dtd" xmlns="http://www.w3.org/2000/svg" xmlns:xlink="http://www.w3.org/1999/xlink" width="315" height="208.7" version="1.1" style="fill:white; stroke-width:1.21;">
<defs>
	<linearGradient id="id7">
		<stop offset="0" style="stop-color:#454545; stop-opacity:1;"/>
		<stop offset="0.5" style="stop-color:#c4c4c4; stop-opacity:1;"/>
		<stop offset="1" style="stop-color:#3d3d3d; stop-opacity:1;"/>
	</linearGradient>
	<linearGradient id="id13" gradientTransform="matrix(0.7499999,0,0,0.7500001,-2.9999963,-12.750023)" xlink:href="#id1" x1="30.2" y1="102" x2="30.2" y2="112" gradientUnits="userSpaceOnUse"/>
	<linearGradient id="id1">
		<stop offset="0" style="stop-color:#323232; stop-opacity:1;"/>
		<stop offset="0.5" style="stop-color:#a1a1a1; stop-opacity:1;"/>
		<stop offset="1" style="stop-color:#505050; stop-opacity:1;"/>
	</linearGradient>
	<linearGradient id="id14" gradientTransform="matrix(0.7499999,0,0,0.7500001,15.000004,-12.750023)" xlink:href="#id1" x1="30.2" y1="102" x2="30.2" y2="112" gradientUnits="userSpaceOnUse"/>
	<linearGradient id="id15" gradientTransform="matrix(0.7499999,0,0,0.7500001,33.000006,-12.750023)" xlink:href="#id1" x1="30.2" y1="102" x2="30.2" y2="112" gradientUnits="userSpaceOnUse"/>
	<linearGradient id="id16" gradientTransform="matrix(0.7499999,0,0,0.7500001,3.0000056,-0.75002)" xlink:href="#id2" x1="95.7" y1="96" x2="95.7" y2="86" gradientUnits="userSpaceOnUse"/>
	<linearGradient id="id2">
		<stop offset="0" style="stop-color:#bc500d; stop-opacity:1;"/>
		<stop offset="0.5" style="stop-color:#ff8f4d; stop-opacity:1;"/>
		<stop offset="1" style="stop-color:#9b3900; stop-opacity:1;"/>
	</linearGradient>
	<linearGradient id="id17" gradientTransform="matrix(0.7499999,0,0,0.7500001,-2.9999963,-24.750019)" xlink:href="#id1" x1="30.2" y1="102" x2="30.2" y2="112" gradientUnits="userSpaceOnUse"/>
	<linearGradient id="id18" gradientTransform="matrix(0.7499999,0,0,0.7500001,15.000004,-24.750019)" xlink:href="#id1" x1="30.2" y1="102" x2="30.2" y2="112" gradientUnits="userSpaceOnUse"/>
	<linearGradient id="id19" gradientTransform="matrix(0.7499999,0,0,0.7500001,33.000006,-24.750019)" xlink:href="#id1" x1="30.2" y1="102" x2="30.2" y2="112" gradientUnits="userSpaceOnUse"/>
	<linearGradient id="id20" gradientTransform="matrix(0.7499999,0,0,0.7500001,3.0000056,-0.7500124)" xlink:href="#id2" x1="96" y1="80" x2="96" y2="70" gradientUnits="userSpaceOnUse"/>
	<linearGradient id="id21" gradientTransform="matrix(0.7499999,0,0,0.7500001,-2.9999963,-36.750022)" xlink:href="#id1" x1="30.2" y1="102" x2="30.2" y2="112" gradientUnits="userSpaceOnUse"/>
	<linearGradient id="id22" gradientTransform="matrix(0.7499999,0,0,0.7500001,15.000004,-36.750022)" xlink:href="#id1" x1="30.2" y1="102" x2="30.2" y2="112" gradientUnits="userSpaceOnUse"/>
	<linearGradient id="id23" gradientTransform="matrix(0.7499999,0,0,0.7500001,33.000006,-36.750022)" xlink:href="#id1" x1="30.2" y1="102" x2="30.2" y2="112" gradientUnits="userSpaceOnUse"/>
	<linearGradient id="id24" gradientTransform="matrix(0.7499999,0,0,0.7500001,3.0000056,-0.7500124)" xlink:href="#id3" x1="93.7" y1="54" x2="93.7" y2="64" gradientUnits="userSpaceOnUse"/>
	<linearGradient>
		<stop offset="0" style="stop-color:#802b27; stop-opacity:1;"/>
		<stop offset="1" style="stop-color:#a93833; stop-opacity:1;"/>
	</linearGradient>
	<linearGradient id="id25" gradientTransform="matrix(0.7499999,0,0,0.7500001,-2.9999963,-0.7500239)" xlink:href="#id1" x1="30.2" y1="102" x2="30.2" y2="112" gradientUnits="userSpaceOnUse"/>
	<linearGradient id="id26" gradientTransform="matrix(0.7499999,0,0,0.7500001,-0.9999944,-159.75)" xlink:href="#id2" x1="53.3" y1="102" x2="53.3" y2="112" gradientUnits="userSpaceOnUse"/>
	<linearGradient id="id27" gradientTransform="matrix(0.7499999,0,0,0.7500001,1.0000094,-0.7500239)" xlink:href="#id2" x1="74.7" y1="112" x2="74.7" y2="102" gradientUnits="userSpaceOnUse"/>
	<linearGradient id="id28" gradientTransform="matrix(0.7499999,0,0,0.7500001,3.0000056,-0.7500239)" xlink:href="#id3" x1="94.7" y1="102" x2="94.7" y2="112" gradientUnits="userSpaceOnUse"/>
	<linearGradient id="id3">
		<stop offset="0" style="stop-color:#c017ad; stop-opacity:1;"/>
		<stop offset="0.5" style="stop-color:#d397ea; stop-opacity:1;"/>
		<stop offset="1" style="stop-color:#7c3be8; stop-opacity:1;"/>
	</linearGradient>
	<linearGradient id="id12" gradientTransform="matrix(1.8312728,0,0,1.9232895,880.19932,1003.7367)" xlink:href="#id4" x1="64" y1="15.5" x2="64" y2="35.8" gradientUnits="userSpaceOnUse"/>
	<linearGradient id="id4">
		<stop offset="0" style="stop-color:#ccc7c1; stop-opacity:1;"/>
		<stop offset="1" style="stop-color:#fefefd; stop-opacity:0.58;"/>
	</linearGradient>
	<linearGradient id="id10" gradientTransform="matrix(1.4549727,0.24331337,-3.1878177,2.9847109,389.40814,545.69457)" xlink:href="#id5" x1="99.5" y1="95.2" x2="99.5" y2="144.8" gradientUnits="userSpaceOnUse"/>
	<linearGradient id="id5">
		<stop offset="0" style="stop-color:#2e2e2e; stop-opacity:1;"/>
		<stop offset="0.771" style="stop-color:#5a5a5a; stop-opacity:1;"/>
		<stop offset="1" style="stop-color:#101010; stop-opacity:1;"/>
	</linearGradient>
	<linearGradient id="id8" gradientTransform="matrix(2.4944084,0,0,1.5023592,12.14071,825.64739)" xlink:href="#id6" x1="37" y1="16" x2="37" y2="49" gradientUnits="userSpaceOnUse"/>
	<linearGradient id="id6">
		<stop offset="0" style="stop-color:#2cd8c8; stop-opacity:1;"/>
		<stop offset="1" style="stop-color:#639a99; stop-opacity:0;"/>
	</linearGradient>
	<linearGradient id="id9" gradientTransform="matrix(2.4944084,0,0,1.5023592,12.14071,825.64739)" xlink:href="#id6" x1="34" y1="14" x2="34" y2="39" gradientUnits="userSpaceOnUse"/>
	<linearGradient id="id11" gradientTransform="matrix(0.7063401,0.11812042,-0.76513226,0.71638306,767.84286,251.45061)" xlink:href="#id7" x1="11.8" y1="860.2" x2="243.8" y2="860.2" gradientUnits="userSpaceOnUse"/>
</defs>
<g transform="translate(-771.71128,-876.4393)">
	<g transform="matrix(1,0,0,1.149518,776.16811,-90.151163)">
		<path style="stop-color:black; fill:none; stroke:#282828; stroke-width:12.31; stroke-linecap:round;" d="m 1.7,991.3 c 0,0 135.3,23 149,24.8 6.5,0.9 15.8,-7.3 29.2,-19.6 76,-69.6 122.8,-123.1 124.5,-124"/>
		<g transform="matrix(0.70643525,0.11813633,-0.8795333,0.82349522,864.67608,157.62881)">
			<rect x="45.6" y="841.7" rx="7.5" ry="4.3" width="170.6" height="39.2" style="fill:#98e3e6;"/>
			<path style="opacity:0.3; fill:url(#id8); stroke-width:1.81;" d="m 54.5,846.7 c -1.4,0 -2.5,0.7 -2.5,1.5 v 27 c 0,0.8 1.1,1.5 2.5,1.5 H 209.2 c 1.4,0 2.5,-0.7 2.5,-1.5 v -27 c 0,-0.8 -1.1,-1.5 -2.5,-1.5 z m 2.6,3.1 H 206.6 v 23.9 H 57.1 Z"/>
			<path style="opacity:0.6; fill:url(#id9); stroke-width:1.81;" d="m 54.5,846.7 c -1.4,0 -2.5,0.7 -2.5,1.5 v 27 c 0,0.8 1.1,1.5 2.5,1.5 H 209.2 c 1.4,0 2.5,-0.7 2.5,-1.5 v -27 c 0,-0.8 -1.1,-1.5 -2.5,-1.5 z m 0.1,1.5 H 209.1 V 875.2 H 54.6 Z"/>
		</g>
		<path style="fill:url(#id10); stroke:#494949; stroke-width:1.49;" d="m 157.2,841.7 c -4.7,-0.8 -14,3.8 -21,10.3 L 2.9,976.8 c -6.9,6.5 -8.7,12.3 -4,13.1 L 145.9,1014.5 c 4.7,0.8 14,-3.8 20.9,-10.3 L 300.1,879.4 c 6.9,-6.5 8.7,-12.3 4.1,-13.1 z m 10.4,13.8 109.2,18.3 c 2,0.3 2.4,1.7 0.9,3.1 l -23.8,22.3 c -1.2,1.1 -3.2,1.8 -5,1.9 l -2.8,2.6 c -1.5,1.4 -4.2,2.2 -6.1,1.9 l -109.2,-18.3 c -2,-0.3 -2.4,-1.7 -0.9,-3.1 l 23.8,-22.3 c 1.2,-1.1 3.2,-1.8 5,-1.9 l 2.8,-2.6 c 1.5,-1.4 4.2,-2.2 6.1,-1.9 z"/>
		<path style="fill:url(#id11); stroke-width:0.93;" d="m 157.2,841.7 c -4.7,-0.8 -11.9,1.9 -20.9,10.3 l -49.1,45.9 163.9,27.4 49,-45.9 c 9,-8.4 8.8,-12.3 4.1,-13.1 z m 2.7,18.4 109.2,18.3 c 2,0.3 2.3,1.7 0.9,3.1 l -23.8,22.3 c -1.5,1.4 -4.2,2.2 -6.1,1.9 l -109.2,-18.3 c -2,-0.3 -2.4,-1.7 -0.9,-3.1 l 23.8,-22.3 c 1.5,-1.4 4.2,-2.2 6.2,-1.9 z"/>
		<rect x="924.1" y="1034.5" rx="4.2" ry="4.2" width="117.9" height="39.8" transform="matrix(0.98630387,0.16493843,-0.72997902,0.68346955,0,0)" style="fill:none; stroke:url(#id12); stroke-width:4.34; stroke-linecap:square; stroke-linejoin:round;"/>
		<g style="fill:black;" transform="matrix(0.78835228,0.13183522,-1.0994167,1.029369,219.72443,856.98379)">
			<path style="font-weight:900; opacity:0.5; fill:black;" d="m 68.2,22.2 -1.9,1.5 -1.9,-1.5 v -3 l 1.9,-1.5 1.9,1.5 v 3 m -2.2,-4.7 -1.9,1.5 H 60.3 L 58.4,17.5 60.3,16 h 3.8 l 1.9,1.5 m 2.2,11.2 -1.9,1.5 -1.9,-1.5 v -3 l 1.9,-1.5 1.9,1.5 v 3 m -8.2,-6.5 -1.9,1.5 -1.9,-1.5 v -3 l 1.9,-1.5 1.9,1.5 v 3 M 66,30.5 64.1,32 h -3.8 l -1.9,-1.5 1.9,-1.5 h 3.8 l 1.9,1.5 m -6,-1.8 -1.9,1.5 -1.9,-1.5 v -3 l 1.9,-1.5 1.9,1.5 v 3"/>
			<path style="font-weight:900; opacity:0.5; fill:black;" d="M 74.1,30.5 72.1,32 l -1.9,-1.5 2,-1.6 2,1.6"/>
		</g>
		<g transform="matrix(1.7841261,0.29835731,-1.636789,1.5325035,137.75742,846.47256)">
			<path style="opacity:0.72; fill:#232323;" d="m 16.1,39.8 c -1,0 -1.8,0.8 -1.8,1.8 v 5.3 c 0,1 0.8,1.8 1.8,1.8 h 9.8 c 1,0 1.8,-0.8 1.8,-1.8 v -5.3 c 0,-1 -0.8,-1.8 -1.8,-1.8 z m 18,0 c -1,0 -1.8,0.8 -1.8,1.8 v 5.3 c 0,1 0.8,1.8 1.8,1.8 h 9.8 c 1,0 1.8,-0.8 1.8,-1.8 v -5.3 c 0,-1 -0.8,-1.8 -1.8,-1.8 z m 18,0 c -1,0 -1.8,0.8 -1.8,1.8 v 5.3 c 0,1 0.8,1.8 1.8,1.8 h 9.8 c 1,0 1.8,-0.8 1.8,-1.8 v -5.3 c 0,-1 -0.8,-1.8 -1.8,-1.8 z m 18,0 c -1,0 -1.8,0.8 -1.8,1.8 v 5.3 c 0,1 0.8,1.8 1.8,1.8 h 9.8 c 1,0 1.8,-0.8 1.8,-1.8 v -5.3 c 0,-1 -0.8,-1.8 -1.8,-1.8 z m -54,12 c -1,0 -1.8,0.8 -1.8,1.8 v 5.3 c 0,1 0.8,1.8 1.8,1.8 h 9.8 c 1,0 1.8,-0.8 1.8,-1.8 v -5.3 c 0,-1 -0.8,-1.8 -1.8,-1.8 z m 18,0 c -1,0 -1.8,0.8 -1.8,1.8 v 5.3 c 0,1 0.8,1.8 1.8,1.8 h 9.8 c 1,0 1.8,-0.8 1.8,-1.8 v -5.3 c 0,-1 -0.8,-1.8 -1.8,-1.8 z m 18,0 c -1,0 -1.8,0.8 -1.8,1.8 v 5.3 c 0,1 0.8,1.8 1.8,1.8 h 9.8 c 1,0 1.8,-0.8 1.8,-1.8 v -5.3 c 0,-1 -0.8,-1.8 -1.8,-1.8 z m 18,0 c -1,0 -1.8,0.8 -1.8,1.8 v 5.3 c 0,1 0.8,1.8 1.8,1.8 h 9.8 c 1,0 1.8,-0.8 1.8,-1.8 v -5.3 c 0,-1 -0.8,-1.8 -1.8,-1.8 z m -54,12 c -1,0 -1.8,0.8 -1.8,1.8 v 5.3 c 0,1 0.8,1.8 1.8,1.8 h 9.8 c 1,0 1.8,-0.8 1.8,-1.8 v -5.3 c 0,-1 -0.8,-1.8 -1.8,-1.8 z m 18,0 c -1,0 -1.8,0.8 -1.8,1.8 v 5.3 c 0,1 0.8,1.8 1.8,1.8 h 9.8 c 1,0 1.8,-0.8 1.8,-1.8 v -5.3 c 0,-1 -0.8,-1.8 -1.8,-1.8 z m 18,0 c -1,0 -1.8,0.8 -1.8,1.8 v 5.3 c 0,1 0.8,1.8 1.8,1.8 h 9.8 c 1,0 1.8,-0.8 1.8,-1.8 v -5.3 c 0,-1 -0.8,-1.8 -1.8,-1.8 z m 18,0 c -1,0 -1.8,0.8 -1.8,1.8 v 5.3 c 0,1 0.8,1.8 1.8,1.8 h 9.8 c 1,0 1.8,-0.8 1.8,-1.8 v -5.3 c 0,-1 -0.8,-1.8 -1.8,-1.8 z m -54,12 c -1,0 -1.8,0.8 -1.8,1.8 v 5.3 c 0,1 0.8,1.8 1.8,1.8 h 9.8 c 1,0 1.8,-0.8 1.8,-1.8 v -5.3 c 0,-1 -0.8,-1.8 -1.8,-1.8 z m 18,0 c -1,-2e-6 -1.8,0.8 -1.8,1.8 v 5.3 c 0,1 0.8,1.8 1.8,1.8 h 9.8 c 1,0 1.8,-0.8 1.8,-1.8 v -5.3 c -2e-6,-1 -0.8,-1.8 -1.8,-1.8 z m 18,0 c -1,0 -1.8,0.8 -1.8,1.8 v 5.3 c 0,1 0.8,1.8 1.8,1.8 h 9.8 c 1,0 1.8,-0.8 1.8,-1.8 v -5.3 c 0,-1 -0.8,-1.8 -1.8,-1.8 z m 18,0 c -1,0 -1.8,0.8 -1.8,1.8 v 5.3 c 0,1 0.8,1.8 1.8,1.8 h 9.8 c 1,0 1.8,-0.8 1.8,-1.8 v -5.3 c 0,-1 -0.8,-1.8 -1.8,-1.8 z"/>
			<path style="opacity:0.6; fill:black;" d="M 16.1,40.5 C 15.5,40.5 15,41 15,41.6 v 5.3 c 0,0.6 0.5,1.1 1.1,1.1 h 9.8 c 0.6,0 1.1,-0.5 1.1,-1.1 v -5.3 C 27,41 26.5,40.5 25.9,40.5 Z m 18,0 C 33.5,40.5 33,41 33,41.6 v 5.3 c 0,0.6 0.5,1.1 1.1,1.1 h 9.8 c 0.6,0 1.1,-0.5 1.1,-1.1 v -5.3 C 45,41 44.5,40.5 43.9,40.5 Z m 18,0 C 51.5,40.5 51,41 51,41.6 v 5.3 c 0,0.6 0.5,1.1 1.1,1.1 h 9.8 c 0.6,0 1.1,-0.5 1.1,-1.1 v -5.3 C 63,41 62.5,40.5 61.9,40.5 Z m 18,0 C 69.5,40.5 69,41 69,41.6 v 5.3 c 0,0.6 0.5,1.1 1.1,1.1 h 9.8 c 0.6,0 1.1,-0.5 1.1,-1.1 v -5.3 C 81,41 80.5,40.5 79.9,40.5 Z m -54,12 C 15.5,52.5 15,53 15,53.6 v 5.3 c 0,0.6 0.5,1.1 1.1,1.1 h 9.8 c 0.6,0 1.1,-0.5 1.1,-1.1 v -5.3 C 27,53 26.5,52.5 25.9,52.5 Z m 18,0 C 33.5,52.5 33,53 33,53.6 v 5.3 c 0,0.6 0.5,1.1 1.1,1.1 h 9.8 c 0.6,0 1.1,-0.5 1.1,-1.1 v -5.3 C 45,53 44.5,52.5 43.9,52.5 Z m 18,0 C 51.5,52.5 51,53 51,53.6 v 5.3 c 0,0.6 0.5,1.1 1.1,1.1 h 9.8 c 0.6,0 1.1,-0.5 1.1,-1.1 v -5.3 C 63,53 62.5,52.5 61.9,52.5 Z m 18,0 C 69.5,52.5 69,53 69,53.6 v 5.3 c 0,0.6 0.5,1.1 1.1,1.1 h 9.8 c 0.6,0 1.1,-0.5 1.1,-1.1 v -5.3 C 81,53 80.5,52.5 79.9,52.5 Z m -54,12 C 15.5,64.5 15,65 15,65.6 v 5.3 c 0,0.6 0.5,1.1 1.1,1.1 h 9.8 c 0.6,0 1.1,-0.5 1.1,-1.1 v -5.3 C 27,65 26.5,64.5 25.9,64.5 Z m 18,0 C 33.5,64.5 33,65 33,65.6 v 5.3 c 0,0.6 0.5,1.1 1.1,1.1 h 9.8 c 0.6,0 1.1,-0.5 1.1,-1.1 v -5.3 C 45,65 44.5,64.5 43.9,64.5 Z m 18,0 C 51.5,64.5 51,65 51,65.6 v 5.3 c 0,0.6 0.5,1.1 1.1,1.1 h 9.8 c 0.6,0 1.1,-0.5 1.1,-1.1 v -5.3 C 63,65 62.5,64.5 61.9,64.5 Z m 18,0 C 69.5,64.5 69,65 69,65.6 v 5.3 c 0,0.6 0.5,1.1 1.1,1.1 h 9.8 c 0.6,0 1.1,-0.5 1.1,-1.1 v -5.3 C 81,65 80.5,64.5 79.9,64.5 Z m -54,12 C 15.5,76.5 15,77 15,77.6 v 5.3 c 0,0.6 0.5,1.1 1.1,1.1 h 9.8 c 0.6,0 1.1,-0.5 1.1,-1.1 v -5.3 C 27,77 26.5,76.5 25.9,76.5 Z m 18,0 C 33.5,76.5 33,77 33,77.6 v 5.3 C 33,83.5 33.5,84 34.1,84 h 9.8 C 44.5,84 45,83.5 45,82.9 v -5.3 C 45,77 44.5,76.5 43.9,76.5 Z m 18,0 C 51.5,76.5 51,77 51,77.6 v 5.3 c 0,0.6 0.5,1.1 1.1,1.1 h 9.8 c 0.6,0 1.1,-0.5 1.1,-1.1 v -5.3 C 63,77 62.5,76.5 61.9,76.5 Z m 18,0 C 69.5,76.5 69,77 69,77.6 v 5.3 c 0,0.6 0.5,1.1 1.1,1.1 h 9.8 c 0.6,0 1.1,-0.5 1.1,-1.1 v -5.3 C 81,77 80.5,76.5 79.9,76.5 Z"/>
			<g transform="translate(0,0.2499986)">
				<rect x="15" y="63.8" rx="1.3" ry="1.3" width="12" height="7.5" style="fill:url(#id13);"/>
				<path style="font-weight:bold;" d="m 19.4,69.8 v -0.7 h 1.2 v -3.2 l -1.1,0.7 v -0.7 l 1.2,-0.8 h 0.9 v 4 h 1.1 v 0.7 h -3.1"/>
				<rect x="33" y="63.8" rx="1.3" ry="1.3" width="12" height="7.5" style="fill:url(#id14); stroke-width:0.52; stroke-linejoin:round;"/>
				<path style="font-weight:bold;" d="m 37.4,69.9 v -0.6 c 0.1,-0.2 0.2,-0.4 0.4,-0.6 0.2,-0.2 0.3,-0.4 0.5,-0.5 0.2,-0.2 0.3,-0.3 0.5,-0.4 0.2,-0.1 0.3,-0.3 0.4,-0.4 0.1,-0.1 0.2,-0.3 0.3,-0.4 0.1,-0.1 0.1,-0.3 0.1,-0.4 -7e-6,-0.2 -0.1,-0.4 -0.2,-0.5 -0.1,-0.1 -0.3,-0.1 -0.5,-0.1 -0.2,5e-6 -0.3,0.1 -0.5,0.2 -0.1,0.1 -0.2,0.3 -0.2,0.5 l -0.9,-0.1 c 0,-0.2 0.1,-0.4 0.1,-0.5 0.1,-0.2 0.2,-0.3 0.3,-0.4 0.1,-0.1 0.3,-0.2 0.5,-0.3 0.2,-0.1 0.4,-0.1 0.7,-0.1 0.3,4e-6 0.5,0 0.7,0.1 0.2,0.1 0.4,0.1 0.5,0.3 0.1,0.1 0.2,0.2 0.3,0.4 0.1,0.2 0.1,0.3 0.1,0.6 -7e-6,0.2 -0,0.4 -0.1,0.6 -0.1,0.2 -0.2,0.3 -0.3,0.5 -0.1,0.1 -0.3,0.3 -0.4,0.4 -0.2,0.1 -0.3,0.3 -0.5,0.4 -0.2,0.1 -0.3,0.2 -0.4,0.4 -0.1,0.1 -0.2,0.3 -0.3,0.4 h 2.2 v 0.8 h -3.2"/>
				<rect x="51" y="63.8" rx="1.3" ry="1.3" width="12" height="7.5" style="fill:url(#id15);"/>
				<path style="font-weight:bold;" d="m 58.7,68.5 c 0,0.2 -0,0.4 -0.1,0.6 -0.1,0.2 -0.2,0.3 -0.3,0.4 -0.1,0.1 -0.3,0.2 -0.5,0.3 -0.2,0.1 -0.4,0.1 -0.7,0.1 -0.3,0 -0.6,-0 -0.8,-0.1 -0.2,-0.1 -0.4,-0.2 -0.5,-0.3 -0.1,-0.1 -0.2,-0.3 -0.3,-0.4 -0.1,-0.2 -0.1,-0.3 -0.1,-0.5 l 0.9,-0.1 c 0,0.1 0,0.2 0.1,0.3 0,0.1 0.1,0.2 0.1,0.2 0.1,0.1 0.1,0.1 0.2,0.1 0.1,0 0.2,0 0.3,0 0.2,10e-7 0.4,-0.1 0.5,-0.2 0.1,-0.1 0.2,-0.3 0.2,-0.5 -8e-6,-0.1 -0,-0.2 -0.1,-0.3 -0.1,-0.1 -0.1,-0.1 -0.2,-0.2 -0.1,-0 -0.2,-0.1 -0.3,-0.1 -0.1,-0 -0.2,-0 -0.3,-0 H 56.5 v -0.7 h 0.3 c 0.1,4e-6 0.2,-0 0.3,-0 0.1,-0 0.2,-0 0.3,-0.1 0.1,-0 0.1,-0.1 0.2,-0.2 0,-0.1 0.1,-0.2 0.1,-0.3 0,-0.2 -0.1,-0.3 -0.2,-0.4 -0.1,-0.1 -0.3,-0.2 -0.5,-0.2 -0.2,3e-6 -0.3,0.1 -0.5,0.2 -0.1,0.1 -0.2,0.3 -0.2,0.4 l -0.9,-0.1 c 0,-0.2 0.1,-0.4 0.2,-0.6 0.1,-0.2 0.2,-0.3 0.4,-0.4 0.1,-0.1 0.3,-0.2 0.5,-0.2 0.2,-0.1 0.4,-0.1 0.6,-0.1 0.3,5e-6 0.5,0 0.7,0.1 0.2,0.1 0.4,0.2 0.5,0.3 0.1,0.1 0.2,0.2 0.3,0.4 0.1,0.1 0.1,0.3 0.1,0.5 0,0.1 -0,0.3 -0.1,0.4 -0,0.1 -0.1,0.2 -0.2,0.3 -0.1,0.1 -0.2,0.2 -0.3,0.2 -0.1,0.1 -0.3,0.1 -0.4,0.1 v 0 c 0.2,0 0.4,0.1 0.5,0.1 0.1,0.1 0.3,0.1 0.3,0.2 0.1,0.1 0.2,0.2 0.2,0.3 0,0.1 0.1,0.2 0.1,0.4"/>
				<rect x="69" y="63.8" rx="1.3" ry="1.3" width="12" height="7.5" style="fill:url(#id16);"/>
				<path style="font-weight:bold;" d="m 75.4,67.9 v 1.5 h -0.8 v -1.5 h -1.5 v -0.8 h 1.5 v -1.5 h 0.8 v 1.5 h 1.5 v 0.8 h -1.5"/>
			</g>
			<g transform="translate(0,0.2499986)">
				<rect x="15" y="51.8" rx="1.3" ry="1.3" width="12" height="7.5" style="fill:url(#id17);"/>
				<path style="font-weight:bold;" d="m 22.2,56.9 v 0.9 h -0.9 v -0.9 h -2.1 v -0.7 l 2,-3 h 1 v 3 h 0.6 v 0.7 h -0.6 m -0.9,-2.2 c -3e-6,-0 -3e-6,-0.1 0,-0.1 0,-0.1 0,-0.1 0,-0.2 0,-0.1 0,-0.1 0,-0.2 0,-0.1 0,-0.1 0,-0.1 -0,0 -0,0.1 -0.1,0.1 -0,0 -0.1,0.1 -0.1,0.1 -0,0.1 -0.1,0.1 -0.1,0.2 -0,0.1 -0.1,0.1 -0.1,0.1 l -1.1,1.6 h 1.4 v -1.5"/>
				<rect x="33" y="51.8" rx="1.3" ry="1.3" width="12" height="7.5" style="fill:url(#id18);"/>
				<path style="font-weight:bold;" d="m 40.7,56.2 c -8e-6,0.2 -0,0.4 -0.1,0.6 -0.1,0.2 -0.2,0.4 -0.3,0.5 -0.1,0.1 -0.3,0.3 -0.5,0.3 -0.2,0.1 -0.5,0.1 -0.7,0.1 -0.3,-10e-7 -0.5,-0 -0.7,-0.1 -0.2,-0.1 -0.4,-0.2 -0.5,-0.3 -0.1,-0.1 -0.2,-0.2 -0.3,-0.4 -0.1,-0.1 -0.1,-0.3 -0.2,-0.5 l 0.9,-0.1 c 0,0.1 0,0.1 0.1,0.2 0,0.1 0.1,0.1 0.1,0.2 0.1,0.1 0.1,0.1 0.2,0.1 0.1,0 0.2,0 0.3,0 0.2,1e-6 0.4,-0.1 0.6,-0.2 0.1,-0.1 0.2,-0.4 0.2,-0.6 0,-0.1 -0,-0.2 -0.1,-0.3 -0,-0.1 -0.1,-0.2 -0.1,-0.3 -0.1,-0.1 -0.1,-0.1 -0.2,-0.2 -0.1,-0 -0.2,-0.1 -0.3,-0.1 -0.2,3e-6 -0.3,0 -0.4,0.1 -0.1,0.1 -0.2,0.1 -0.3,0.2 h -0.9 l 0.2,-2.6 h 2.8 v 0.7 h -2 l -0.1,1.2 c 0.1,-0.1 0.2,-0.2 0.3,-0.2 0.1,-0.1 0.3,-0.1 0.5,-0.1 0.2,3e-6 0.4,0 0.6,0.1 0.2,0.1 0.3,0.2 0.5,0.3 0.1,0.1 0.2,0.3 0.3,0.5 0.1,0.2 0.1,0.4 0.1,0.6"/>
				<rect x="51" y="51.8" rx="1.3" ry="1.3" width="12" height="7.5" style="fill:url(#id19);"/>
				<path style="font-weight:bold;" d="m 58.6,56.3 c -8e-6,0.2 -0,0.4 -0.1,0.6 -0.1,0.2 -0.2,0.4 -0.3,0.5 -0.1,0.1 -0.3,0.2 -0.5,0.3 -0.2,0.1 -0.4,0.1 -0.7,0.1 -0.5,0 -1,-0.2 -1.3,-0.6 -0.3,-0.4 -0.4,-1 -0.4,-1.7 0,-0.8 0.1,-1.5 0.4,-1.9 0.3,-0.4 0.7,-0.6 1.3,-0.6 0.2,4e-6 0.4,0 0.5,0.1 0.2,0 0.3,0.1 0.4,0.2 0.1,0.1 0.2,0.2 0.3,0.3 0.1,0.1 0.2,0.3 0.2,0.5 l -0.9,0.1 c -0,-0.2 -0.1,-0.3 -0.2,-0.3 -0.1,-0.1 -0.2,-0.1 -0.3,-0.1 -0.2,3e-6 -0.4,0.1 -0.6,0.4 -0.1,0.2 -0.2,0.6 -0.2,1.1 0.1,-0.2 0.2,-0.3 0.4,-0.4 0.2,-0.1 0.4,-0.1 0.6,-0.1 0.2,3e-6 0.4,0 0.6,0.1 0.2,0.1 0.3,0.2 0.4,0.3 0.1,0.1 0.2,0.3 0.3,0.5 0.1,0.2 0.1,0.4 0.1,0.6 m -0.9,0 c 0,-0.1 -0,-0.2 -0,-0.3 -0,-0.1 -0.1,-0.2 -0.1,-0.3 -0.1,-0.1 -0.1,-0.1 -0.2,-0.2 -0.1,-0 -0.2,-0.1 -0.3,-0.1 -0.1,10e-7 -0.2,0 -0.2,0 -0.1,0 -0.2,0.1 -0.2,0.1 -0.1,0.1 -0.1,0.1 -0.2,0.2 -0,0.1 -0.1,0.2 -0.1,0.3 0,0.1 0,0.3 0,0.4 0,0.1 0.1,0.2 0.1,0.3 0.1,0.1 0.1,0.1 0.2,0.2 0.1,0 0.2,0.1 0.3,0.1 0.2,10e-7 0.4,-0.1 0.5,-0.2 0.1,-0.1 0.2,-0.4 0.2,-0.6"/>
				<rect x="69" y="51.8" rx="1.3" ry="1.3" width="12" height="7.5" style="fill:url(#id20);"/>
				<path style="font-weight:bold;" d="m 73.4,55.9 v -0.9 h 3.2 v 0.9 h -3.2"/>
			</g>
			<g transform="translate(0,0.2499986)">
				<rect x="15" y="39.8" rx="1.3" ry="1.3" width="12" height="7.5" style="fill:url(#id21);"/>
				<path style="font-weight:bold;" d="m 22.6,41.9 c -0.2,0.3 -0.4,0.6 -0.6,1 -0.2,0.3 -0.3,0.6 -0.5,0.9 -0.1,0.3 -0.2,0.6 -0.3,1 -0.1,0.3 -0.1,0.7 -0.1,1 h -1 c -1e-6,-0.4 0,-0.7 0.1,-1 0.1,-0.3 0.2,-0.7 0.4,-1 0.1,-0.3 0.3,-0.6 0.5,-0.9 0.2,-0.3 0.4,-0.6 0.6,-0.9 h -2.3 v -0.8 h 3.2 v 0.7"/>
				<rect x="33" y="39.8" rx="1.3" ry="1.3" width="12" height="7.5" style="fill:url(#id22);"/>
				<path style="font-weight:bold;" d="m 40.7,44.5 c 0,0.2 -0,0.4 -0.1,0.6 -0.1,0.2 -0.2,0.3 -0.3,0.4 -0.1,0.1 -0.3,0.2 -0.5,0.3 -0.2,0.1 -0.5,0.1 -0.7,0.1 -0.3,0 -0.5,-0 -0.7,-0.1 -0.2,-0.1 -0.4,-0.2 -0.5,-0.3 -0.1,-0.1 -0.2,-0.3 -0.3,-0.4 -0.1,-0.2 -0.1,-0.3 -0.1,-0.5 -1e-6,-0.2 0,-0.3 0.1,-0.4 0.1,-0.1 0.1,-0.2 0.2,-0.3 0.1,-0.1 0.2,-0.2 0.3,-0.2 0.1,-0.1 0.2,-0.1 0.4,-0.1 v -0 c -0.1,-0 -0.2,-0.1 -0.3,-0.1 -0.1,-0.1 -0.2,-0.1 -0.3,-0.2 -0.1,-0.1 -0.1,-0.2 -0.2,-0.3 -0,-0.1 -0.1,-0.2 -0.1,-0.4 0,-0.2 0,-0.4 0.1,-0.5 0.1,-0.2 0.2,-0.3 0.3,-0.4 0.1,-0.1 0.3,-0.2 0.5,-0.2 0.2,-0.1 0.4,-0.1 0.7,-0.1 0.3,4e-6 0.5,0 0.7,0.1 0.2,0.1 0.4,0.1 0.5,0.3 0.1,0.1 0.2,0.2 0.3,0.4 0.1,0.2 0.1,0.3 0.1,0.5 0,0.1 -0,0.2 -0.1,0.4 -0,0.1 -0.1,0.2 -0.2,0.3 -0.1,0.1 -0.2,0.2 -0.3,0.2 -0.1,0.1 -0.2,0.1 -0.4,0.1 v 0 c 0.1,0 0.3,0.1 0.4,0.1 0.1,0.1 0.2,0.1 0.3,0.2 0.1,0.1 0.2,0.2 0.2,0.3 0,0.1 0.1,0.3 0.1,0.4 M 39.6,42.4 c 0,-0.1 -0,-0.2 -0,-0.3 -0,-0.1 -0.1,-0.1 -0.1,-0.2 -0,-0.1 -0.1,-0.1 -0.2,-0.1 -0.1,-0 -0.2,-0 -0.3,-0 -0.1,4e-6 -0.2,0 -0.3,0 -0.1,0 -0.1,0.1 -0.2,0.1 -0,0.1 -0.1,0.1 -0.1,0.2 -0,0.1 -0,0.2 -0,0.3 -2e-6,0.1 0,0.2 0,0.2 0,0.1 0,0.2 0.1,0.2 0,0.1 0.1,0.1 0.2,0.2 0.1,0 0.2,0.1 0.3,0.1 0.1,2e-6 0.2,-0 0.3,-0.1 0.1,-0 0.1,-0.1 0.2,-0.2 0,-0.1 0.1,-0.1 0.1,-0.2 0,-0.1 0,-0.2 0,-0.2 m 0.1,2 c 0,-0.1 -0,-0.2 -0,-0.3 -0,-0.1 -0.1,-0.2 -0.1,-0.2 -0.1,-0.1 -0.1,-0.1 -0.2,-0.2 -0.1,-0 -0.2,-0.1 -0.4,-0.1 -0.1,3e-6 -0.2,0 -0.3,0.1 -0.1,0 -0.2,0.1 -0.2,0.2 -0.1,0.1 -0.1,0.1 -0.1,0.2 -0,0.1 -0,0.2 -0,0.3 -1e-6,0.1 0,0.2 0,0.3 0,0.1 0.1,0.2 0.1,0.3 0.1,0.1 0.1,0.1 0.2,0.2 0.1,0 0.2,0.1 0.3,0.1 0.1,10e-7 0.3,-0 0.3,-0.1 0.1,-0 0.2,-0.1 0.2,-0.2 0.1,-0.1 0.1,-0.2 0.1,-0.3 0,-0.1 0,-0.2 0,-0.3"/>
				<rect x="51" y="39.8" rx="1.3" ry="1.3" width="12" height="7.5" style="fill:url(#id23);"/>
				<path style="font-weight:bold;" d="m 58.6,43.4 c 0,0.8 -0.2,1.4 -0.5,1.8 -0.3,0.4 -0.7,0.6 -1.3,0.6 -0.2,0 -0.4,-0 -0.5,-0.1 -0.2,-0 -0.3,-0.1 -0.4,-0.2 -0.1,-0.1 -0.2,-0.2 -0.3,-0.3 -0.1,-0.1 -0.1,-0.3 -0.2,-0.5 l 0.9,-0.1 c 0,0.2 0.1,0.3 0.2,0.4 0.1,0.1 0.2,0.1 0.4,0.1 0.1,10e-7 0.2,-0 0.3,-0.1 0.1,-0.1 0.2,-0.1 0.3,-0.3 0.1,-0.1 0.1,-0.3 0.2,-0.5 0,-0.2 0.1,-0.4 0.1,-0.7 -0,0.1 -0.1,0.2 -0.2,0.2 -0.1,0.1 -0.2,0.1 -0.2,0.2 -0.1,0 -0.2,0.1 -0.3,0.1 -0.1,0 -0.2,0 -0.3,0 -0.2,2e-6 -0.4,-0 -0.6,-0.1 -0.2,-0.1 -0.3,-0.2 -0.4,-0.3 -0.1,-0.1 -0.2,-0.3 -0.3,-0.5 -0.1,-0.2 -0.1,-0.4 -0.1,-0.6 0,-0.2 0,-0.5 0.1,-0.7 0.1,-0.2 0.2,-0.4 0.3,-0.5 0.1,-0.1 0.3,-0.2 0.5,-0.3 0.2,-0.1 0.4,-0.1 0.7,-0.1 0.3,4e-6 0.5,0 0.7,0.1 0.2,0.1 0.4,0.2 0.5,0.4 0.1,0.2 0.2,0.4 0.3,0.7 0.1,0.3 0.1,0.6 0.1,1 m -1,-0.6 c -8e-6,-0.1 -0,-0.3 -0,-0.4 -0,-0.1 -0.1,-0.2 -0.1,-0.3 -0.1,-0.1 -0.1,-0.2 -0.2,-0.2 -0.1,-0 -0.2,-0.1 -0.3,-0.1 -0.1,5e-6 -0.2,0 -0.3,0.1 -0.1,0 -0.2,0.1 -0.2,0.2 -0.1,0.1 -0.1,0.2 -0.1,0.3 -0,0.1 -0,0.2 -0,0.3 0,0.1 0,0.2 0,0.3 0,0.1 0.1,0.2 0.1,0.3 0.1,0.1 0.1,0.1 0.2,0.2 0.1,0 0.2,0.1 0.3,0.1 0.1,2e-6 0.2,-0 0.3,-0 0.1,-0 0.2,-0.1 0.2,-0.1 0.1,-0.1 0.1,-0.1 0.2,-0.2 0,-0.1 0.1,-0.2 0.1,-0.3"/>
				<rect x="69" y="39.8" rx="1.3" ry="1.3" width="12" height="7.5" style="fill:url(#id24);"/>
				<path style="font-weight:bold;" d="m 73.2,44.9 c 0.2,10e-7 0.3,-0 0.4,-0.1 0.1,-0 0.2,-0.1 0.3,-0.2 0.1,-0.1 0.2,-0.2 0.2,-0.3 0.1,-0.1 0.1,-0.2 0.1,-0.3 l 0.8,0.3 c -0.1,0.1 -0.1,0.3 -0.2,0.4 -0.1,0.1 -0.2,0.3 -0.4,0.4 -0.1,0.1 -0.3,0.2 -0.5,0.3 -0.2,0.1 -0.4,0.1 -0.7,0.1 -0.4,0 -0.7,-0.1 -0.9,-0.2 -0.3,-0.1 -0.5,-0.3 -0.7,-0.4 -0.2,-0.2 -0.3,-0.4 -0.4,-0.7 -0.1,-0.3 -0.1,-0.5 -0.1,-0.9 0,-0.3 0,-0.6 0.1,-0.9 0.1,-0.3 0.2,-0.5 0.4,-0.7 0.2,-0.2 0.4,-0.3 0.6,-0.4 0.3,-0.1 0.6,-0.1 0.9,-0.1 0.3,4e-6 0.5,0 0.7,0.1 0.2,0.1 0.4,0.1 0.5,0.2 0.1,0.1 0.3,0.2 0.4,0.4 0.1,0.1 0.2,0.3 0.2,0.5 l -0.8,0.2 c -0,-0.1 -0.1,-0.2 -0.1,-0.3 -0.1,-0.1 -0.1,-0.2 -0.2,-0.2 -0.1,-0.1 -0.2,-0.1 -0.3,-0.1 -0.1,-0 -0.3,-0.1 -0.4,-0.1 -0.2,2e-6 -0.4,0 -0.5,0.1 -0.2,0.1 -0.3,0.2 -0.4,0.3 -0.1,0.1 -0.2,0.3 -0.2,0.5 -0,0.2 -0.1,0.4 -0.1,0.6 0,0.2 0,0.4 0.1,0.6 0,0.2 0.1,0.3 0.2,0.5 0.1,0.1 0.2,0.2 0.4,0.3 0.2,0.1 0.3,0.1 0.6,0.1 m 2.4,0.6 v -4.1 h 3.2 v 0.7 h -2.4 v 1 h 2.2 v 0.7 h -2.2 v 1.1 h 2.5 v 0.7 h -3.4"/>
			</g>
			<g transform="translate(0,0.2499986)">
				<rect x="15" y="75.8" rx="1.3" ry="1.3" width="12" height="7.5" style="fill:url(#id25);"/>
				<path style="font-weight:bold;" d="m 22.6,79.5 c -3e-6,0.4 -0,0.8 -0.1,1.1 -0.1,0.3 -0.2,0.5 -0.3,0.7 -0.1,0.2 -0.3,0.3 -0.5,0.4 -0.2,0.1 -0.4,0.1 -0.6,0.1 -0.2,0 -0.4,-0 -0.6,-0.1 -0.2,-0.1 -0.4,-0.2 -0.5,-0.4 -0.1,-0.2 -0.3,-0.4 -0.3,-0.7 -0.1,-0.3 -0.1,-0.7 -0.1,-1.1 0,-0.5 0,-0.9 0.1,-1.2 0.1,-0.3 0.2,-0.6 0.3,-0.7 0.1,-0.2 0.3,-0.3 0.5,-0.4 0.2,-0.1 0.4,-0.1 0.7,-0.1 0.2,0 0.4,0 0.6,0.1 0.2,0.1 0.4,0.2 0.5,0.4 0.1,0.2 0.3,0.4 0.3,0.7 0.1,0.3 0.1,0.7 0.1,1.2 m -0.9,0 c -2e-6,-0.3 -0,-0.6 -0,-0.8 -0,-0.2 -0.1,-0.4 -0.1,-0.5 -0.1,-0.1 -0.1,-0.2 -0.2,-0.3 -0.1,-0.1 -0.2,-0.1 -0.3,-0.1 -0.1,8e-6 -0.2,0 -0.3,0.1 -0.1,0.1 -0.2,0.1 -0.2,0.3 -0.1,0.1 -0.1,0.3 -0.1,0.5 -0,0.2 -0,0.5 -0,0.8 -1e-6,0.3 0,0.6 0,0.8 0,0.2 0.1,0.4 0.1,0.5 0.1,0.1 0.1,0.2 0.2,0.3 0.1,0.1 0.2,0.1 0.3,0.1 0.1,0 0.2,-0 0.3,-0.1 0.1,-0.1 0.2,-0.1 0.2,-0.3 0.1,-0.1 0.1,-0.3 0.1,-0.5 0,-0.2 0,-0.5 0,-0.8"/>
				<rect x="33" y="-83.3" rx="1.3" ry="1.3" width="12" height="7.5" transform="scale(1,-1)" style="fill:url(#id26);"/>
				<path style="font-weight:bold;" d="m 38.5,81.6 v -1.1 h 1.1 v 1.1 h -1.1"/>
				<rect x="51" y="75.8" rx="1.3" ry="1.3" width="12" height="7.5" style="fill:url(#id27);"/>
				<path style="font-weight:bold;" d="m 59.8,80.4 c 0,0.3 -0,0.5 -0.1,0.7 -0.1,0.2 -0.1,0.3 -0.3,0.5 -0.1,0.1 -0.2,0.2 -0.4,0.2 -0.1,0.1 -0.3,0.1 -0.5,0.1 -0.2,0 -0.3,-0 -0.5,-0.1 -0.1,-0.1 -0.3,-0.1 -0.4,-0.2 -0.1,-0.1 -0.2,-0.3 -0.2,-0.5 -0.1,-0.2 -0.1,-0.4 -0.1,-0.7 -8e-6,-0.3 0,-0.5 0.1,-0.7 0.1,-0.2 0.1,-0.3 0.3,-0.5 0.1,-0.1 0.2,-0.2 0.4,-0.2 0.1,-0 0.3,-0.1 0.5,-0.1 0.2,0 0.3,0 0.4,0.1 0.1,0 0.3,0.1 0.4,0.2 0.1,0.1 0.2,0.3 0.2,0.5 0.1,0.2 0.1,0.4 0.1,0.7 m -4,1.4 h -0.7 l 3,-4.6 h 0.7 l -3,4.6 m -0.5,-4.7 c 0.2,7e-6 0.3,0 0.4,0.1 0.1,0 0.3,0.1 0.4,0.2 0.1,0.1 0.2,0.3 0.3,0.5 0.1,0.2 0.1,0.4 0.1,0.7 0,0.3 -0,0.5 -0.1,0.7 -0.1,0.2 -0.1,0.3 -0.3,0.5 -0.1,0.1 -0.2,0.2 -0.4,0.3 -0.1,0.1 -0.3,0.1 -0.5,0.1 -0.2,7e-6 -0.3,-0 -0.5,-0.1 -0.1,-0.1 -0.3,-0.1 -0.4,-0.2 -0.1,-0.1 -0.2,-0.3 -0.2,-0.5 -0.1,-0.2 -0.1,-0.4 -0.1,-0.7 0,-0.3 0,-0.5 0.1,-0.7 0.1,-0.2 0.1,-0.3 0.2,-0.5 0.1,-0.1 0.2,-0.2 0.4,-0.2 0.1,-0 0.3,-0.1 0.5,-0.1 m 3.8,3.3 c -8e-6,-0.2 -0,-0.3 -0,-0.5 -0,-0.1 -0,-0.2 -0.1,-0.3 -0,-0.1 -0.1,-0.1 -0.1,-0.2 -0.1,-0 -0.1,-0 -0.2,-0 -0.1,7e-6 -0.2,0 -0.2,0 -0.1,0 -0.1,0.1 -0.1,0.2 -0,0.1 -0.1,0.2 -0.1,0.3 -0,0.1 -0,0.3 -0,0.5 -8e-6,0.2 0,0.3 0,0.5 0,0.1 0,0.2 0.1,0.3 0,0.1 0.1,0.1 0.1,0.2 0.1,0 0.1,0 0.2,0 0.1,0 0.1,-0 0.2,-0 0.1,-0 0.1,-0.1 0.1,-0.2 0,-0.1 0.1,-0.2 0.1,-0.3 0,-0.1 0,-0.3 0,-0.5 M 55.8,78.6 c 0,-0.2 -0,-0.3 -0,-0.5 -0,-0.1 -0,-0.2 -0.1,-0.3 -0,-0.1 -0.1,-0.1 -0.1,-0.2 -0.1,-0 -0.1,-0 -0.2,-0 -0.1,8e-6 -0.2,0 -0.2,0 -0.1,0 -0.1,0.1 -0.1,0.2 -0,0.1 -0.1,0.2 -0.1,0.3 -0,0.1 -0,0.3 -0,0.5 0,0.2 0,0.3 0,0.5 0,0.1 0,0.2 0.1,0.3 0,0.1 0.1,0.1 0.1,0.2 0.1,0 0.1,0 0.2,0 0.1,0 0.1,-0 0.2,-0 0.1,-0 0.1,-0.1 0.1,-0.2 0,-0.1 0.1,-0.2 0.1,-0.3 0,-0.1 0,-0.3 0,-0.5"/>
				<rect x="69" y="75.8" rx="1.3" ry="1.3" width="12" height="7.5" style="fill:url(#id28);"/>
				<path style="font-weight:bold;" d="m 73.1,78.9 v -0.8 h 3.8 v 0.8 h -3.8 m 0,2 v -0.8 h 3.8 v 0.8 h -3.8"/>
			</g>
		</g>
		<path style="opacity:0.7; fill:black; stroke-width:1;" d="m 163.4,856.8 c -0.4,-0.1 -0.8,-0.1 -1.2,-0.1 -0.1,0 -0.1,0 -0.2,0 -0.1,0 -0.1,-0 -0.2,0 -0.1,0 -0.2,0 -0.3,0 -0.2,0 -0.5,0 -0.7,0.1 -0,0 -0.1,0 -0.1,0 -0.4,0.1 -0.8,0.2 -1.1,0.4 -0.1,0 -0.1,0 -0.2,0.1 -0.2,0.1 -0.4,0.2 -0.5,0.2 -0,0 -0.1,0 -0.1,0.1 -0.1,0.1 -0.2,0.1 -0.3,0.2 -0.2,0.1 -0.4,0.2 -0.5,0.3 -0,0 -0.1,0 -0.1,0.1 -0.1,0 -0.1,0.1 -0.2,0.1 -0.1,0.1 -0.3,0.2 -0.4,0.3 l -3.5,3.3 c 0.1,-0.1 0.3,-0.2 0.4,-0.3 0.1,-0 0.1,-0.1 0.2,-0.1 0,-0 0.1,-0 0.1,-0.1 0.2,-0.1 0.3,-0.2 0.5,-0.3 0.1,-0.1 0.2,-0.1 0.3,-0.2 0,-0 0.1,-0 0.1,-0.1 0.2,-0.1 0.4,-0.2 0.5,-0.2 0.1,-0 0.1,-0 0.2,-0.1 0.4,-0.1 0.7,-0.3 1.1,-0.4 0,-0 0.1,-0 0.1,-0 0.2,-0 0.5,-0.1 0.7,-0.1 0.1,-0 0.2,-0 0.3,-0 0.1,-0 0.1,5.2e-4 0.2,-0 0.1,-0 0.1,-0 0.2,-0 0.4,-0 0.8,-0 1.2,0.1 l 109.2,18.3 c 2,0.3 2.3,1.7 0.9,3.1 l 3.5,-3.3 c 1.5,-1.4 1.1,-2.7 -0.9,-3.1 z m 91.2,65.3 -3.5,3.3 0,0 3.5,-3.3 z M 6.5,973.5 2.9,976.8 c -6.9,6.5 -8.7,12.3 -4,13.1 L 145.9,1014.5 c 4.7,0.8 14,-3.8 20.9,-10.3 l 3.5,-3.3 c -6.9,6.5 -16.2,11.1 -20.9,10.3 L 2.4,986.6 c -4.7,-0.8 -2.9,-6.6 4,-13.1 z"/>
	</g>
</g>
</svg>