<?xml version="1.0" encoding="UTF-8" standalone="no"?>
<!-- Created with Inkscape (http://www.inkscape.org/) -->

<svg
   xmlns:dc="http://purl.org/dc/elements/1.1/"
   xmlns:cc="http://creativecommons.org/ns#"
   xmlns:rdf="http://www.w3.org/1999/02/22-rdf-syntax-ns#"
   xmlns:svg="http://www.w3.org/2000/svg"
   xmlns="http://www.w3.org/2000/svg"
   xmlns:xlink="http://www.w3.org/1999/xlink"
   xmlns:sodipodi="http://sodipodi.sourceforge.net/DTD/sodipodi-0.dtd"
   xmlns:inkscape="http://www.inkscape.org/namespaces/inkscape"
   width="255"
   height="255"
   viewBox="0 0 67.468749 67.468749"
   version="1.1"
   id="svg8"
   inkscape:version="0.92.5 (2060ec1f9f, 2020-04-08)"
   sodipodi:docname="facebook.svg">
  <defs
     id="defs2">
    <linearGradient
       inkscape:collect="always"
       id="linearGradient854">
      <stop
         style="stop-color:#ff0000;stop-opacity:0.37634408"
         offset="0"
         id="stop850" />
      <stop
         id="stop858"
         offset="0.82025808"
         style="stop-color:#ff0000;stop-opacity:1" />
      <stop
         style="stop-color:#ff0000;stop-opacity:0"
         offset="1"
         id="stop852" />
    </linearGradient>
    <linearGradient
       inkscape:collect="always"
       id="linearGradient847">
      <stop
         style="stop-color:#ffffff;stop-opacity:0.74731183"
         offset="0"
         id="stop843" />
      <stop
         style="stop-color:#ffffff;stop-opacity:0.18817204"
         offset="1"
         id="stop845" />
    </linearGradient>
    <linearGradient
       inkscape:collect="always"
       id="linearGradient966">
      <stop
         style="stop-color:#000000;stop-opacity:1;"
         offset="0"
         id="stop962" />
      <stop
         id="stop970"
         offset="0.9191919"
         style="stop-color:#000000;stop-opacity:0.99462366" />
      <stop
         style="stop-color:#000000;stop-opacity:0;"
         offset="1"
         id="stop964" />
    </linearGradient>
    <linearGradient
       inkscape:collect="always"
       id="linearGradient935">
      <stop
         style="stop-color:#ffffff;stop-opacity:0"
         offset="0"
         id="stop931" />
      <stop
         style="stop-color:#ffffff;stop-opacity:0.77419353"
         offset="1"
         id="stop933" />
    </linearGradient>
    <linearGradient
       id="linearGradient893-3"
       inkscape:collect="always">
      <stop
         id="stop917"
         offset="0"
         style="stop-color:#f2dd46;stop-opacity:0" />
      <stop
         id="stop919"
         offset="1"
         style="stop-color:#ffffff;stop-opacity:1" />
    </linearGradient>
    <linearGradient
       inkscape:collect="always"
       id="linearGradient893-3-6">
      <stop
         style="stop-color:#f2dd46;stop-opacity:0"
         offset="0"
         id="stop889" />
      <stop
         style="stop-color:#a43800;stop-opacity:1"
         offset="1"
         id="stop891" />
    </linearGradient>
    <linearGradient
       inkscape:collect="always"
       id="linearGradient883">
      <stop
         style="stop-color:#8d6800;stop-opacity:1"
         offset="0"
         id="stop879" />
      <stop
         style="stop-color:#febb00;stop-opacity:0.98924732"
         offset="1"
         id="stop881" />
    </linearGradient>
    <linearGradient
       inkscape:collect="always"
       xlink:href="#linearGradient883"
       id="linearGradient885"
       x1="44.574062"
       y1="290.759"
       x2="15.374722"
       y2="238.89716"
       gradientUnits="userSpaceOnUse"
       gradientTransform="matrix(0.85147328,0,0,0.85147328,6.2162149,38.362152)" />
    <radialGradient
       inkscape:collect="always"
       xlink:href="#linearGradient893-3-6"
       id="radialGradient895"
       cx="31.424763"
       cy="263.99304"
       fx="31.424763"
       fy="263.99304"
       r="25.799072"
       gradientUnits="userSpaceOnUse"
       gradientTransform="matrix(0.85147328,0,0,0.85147328,6.2162149,38.362152)" />
    <linearGradient
       inkscape:collect="always"
       xlink:href="#linearGradient893-3"
       id="linearGradient924"
       x1="37.709717"
       y1="273.31061"
       x2="47.11517"
       y2="284.03458"
       gradientUnits="userSpaceOnUse"
       gradientTransform="matrix(0.85147328,0,0,0.85147328,6.2162149,38.362152)" />
    <linearGradient
       inkscape:collect="always"
       xlink:href="#linearGradient935"
       id="linearGradient929"
       gradientUnits="userSpaceOnUse"
       x1="28.623375"
       y1="261.51355"
       x2="49.826778"
       y2="286.72006"
       gradientTransform="matrix(-0.81931727,0.23178859,-0.23178859,-0.81931727,119.51232,471.96979)" />
    <radialGradient
       inkscape:collect="always"
       xlink:href="#linearGradient966"
       id="radialGradient968"
       cx="33.094891"
       cy="264.95993"
       fx="33.094891"
       fy="264.95993"
       r="30.45785"
       gradientUnits="userSpaceOnUse"
       gradientTransform="matrix(0.86498875,0,0,0.86498875,5.3572711,34.369448)" />
    <linearGradient
       inkscape:collect="always"
       xlink:href="#linearGradient847"
       id="linearGradient849"
       x1="16.151493"
       y1="238.97723"
       x2="28.663317"
       y2="258.96512"
       gradientUnits="userSpaceOnUse"
       gradientTransform="matrix(0.83699066,0,0,0.83699066,5.5341633,42.962219)" />
    <radialGradient
       inkscape:collect="always"
       xlink:href="#linearGradient854"
       id="radialGradient856"
       cx="34.042213"
       cy="262.86578"
       fx="34.042213"
       fy="262.86578"
       r="31.321546"
       gradientTransform="matrix(1,0,0,0.96058292,0,10.361402)"
       gradientUnits="userSpaceOnUse" />
  </defs>
  <sodipodi:namedview
     id="base"
     pagecolor="#001eff"
     bordercolor="#666666"
     borderopacity="1.0"
     inkscape:pageopacity="0"
     inkscape:pageshadow="2"
     inkscape:zoom="3.454902"
     inkscape:cx="127.5"
     inkscape:cy="127.5"
     inkscape:document-units="mm"
     inkscape:current-layer="layer1"
     showgrid="false"
     inkscape:snap-to-guides="false"
     inkscape:snap-grids="false"
     inkscape:snap-others="false"
     inkscape:object-nodes="false"
     inkscape:snap-nodes="false"
     inkscape:snap-global="false"
     inkscape:window-width="1920"
     inkscape:window-height="1056"
     inkscape:window-x="0"
     inkscape:window-y="0"
     inkscape:window-maximized="1"
     units="px" />
  <metadata
     id="metadata5">
    <rdf:RDF>
      <cc:Work
         rdf:about="">
        <dc:format>image/svg+xml</dc:format>
        <dc:type
           rdf:resource="http://purl.org/dc/dcmitype/StillImage" />
        <dc:title />
      </cc:Work>
    </rdf:RDF>
  </metadata>
  <g
     inkscape:label="Layer 1"
     inkscape:groupmode="layer"
     id="layer1"
     transform="translate(0,-229.53126)">
    <circle
       style="opacity:1;fill:url(#radialGradient968);fill-opacity:1;fill-rule:nonzero;stroke:none;stroke-width:3.12672162;stroke-linecap:round;stroke-linejoin:round;stroke-miterlimit:4;stroke-dasharray:none;stroke-dashoffset:0;stroke-opacity:1"
       id="path960"
       cx="33.983978"
       cy="263.55679"
       r="26.345695" />
    <circle
       style="opacity:1;fill:#e6ed0a;fill-opacity:1;fill-rule:nonzero;stroke:url(#linearGradient885);stroke-width:2.98015642;stroke-linecap:round;stroke-linejoin:round;stroke-miterlimit:4;stroke-dasharray:none;stroke-dashoffset:0;stroke-opacity:1"
       id="path877"
       cx="32.936142"
       cy="263.10773"
       r="23.875784" />
    <path
       style="opacity:1;fill:url(#radialGradient856);fill-opacity:1;fill-rule:nonzero;stroke:none;stroke-width:3.5;stroke-linecap:round;stroke-linejoin:round;stroke-miterlimit:4;stroke-dasharray:none;stroke-dashoffset:0;stroke-opacity:1"
       inkscape:transform-center-x="-0.10656732"
       inkscape:transform-center-y="0.10656733"
       d="m 14.734652,239.38488 c 0.787513,-0.57301 10.157158,15.85015 10.798689,15.17333 0.641531,-0.67683 -8.013195,-16.20027 -7.146012,-16.57768 0.867183,-0.37741 9.1571,14.80303 10.067085,14.45081 0.909984,-0.35222 -4.904163,-19.14003 -3.946309,-19.30369 0.957853,-0.16366 7.375272,16.11281 8.35947,16.01737 0.984199,-0.0954 -1.342477,-16.25619 -0.415958,-16.36567 0.926519,-0.10949 2.322421,17.31421 3.271223,17.49932 0.948801,0.18512 3.970472,-16.41176 4.887405,-16.27461 0.916933,0.13716 -4.721478,13.55881 -3.817592,13.90712 0.903886,0.3483 10.169309,-12.26069 10.92047,-11.73971 0.751161,0.52098 -7.707936,15.34513 -6.89774,15.84253 0.810196,0.49739 13.481499,-12.87812 14.242535,-12.25928 0.761036,0.61883 -11.254082,16.41818 -10.63102,17.20418 0.623062,0.786 16.570131,-13.19925 17.043978,-12.39693 0.473847,0.80233 -17.165152,13.34838 -16.842754,14.29061 0.322397,0.94222 17.844343,-9.6596 18.081885,-8.76952 0.237541,0.89008 -18.343455,8.48357 -18.200745,9.44922 0.142711,0.96564 19.276693,-0.2855 19.473994,0.68502 0.197301,0.97051 -14.833947,0.0111 -14.954582,0.99295 -0.120634,0.98182 16.23023,7.22234 15.969531,8.18151 -0.260699,0.95917 -19.016635,-6.6013 -19.320994,-5.65956 -0.304358,0.94174 20.030705,12.81019 19.682117,13.68782 -0.348589,0.87764 -19.140809,-11.88064 -19.641332,-11.10967 -0.500523,0.77098 16.035818,12.97177 15.519254,13.80132 -0.516563,0.82955 -15.791159,-10.69144 -16.473822,-9.98519 -0.682663,0.70625 10.476462,15.76151 9.740468,16.34291 -0.735994,0.58139 -14.096949,-12.32697 -14.861958,-11.77123 -0.765009,0.55574 7.406397,15.60618 6.524836,15.83258 -0.88156,0.22639 -8.383616,-16.9696 -9.277575,-16.80565 -0.893958,0.16395 3.139032,18.67417 2.167715,18.83021 -0.971316,0.15604 -3.624442,-14.18683 -4.595274,-14.27391 -0.970832,-0.0871 -2.496968,14.67586 -3.413234,14.67133 -0.916266,-0.005 2.778379,-17.27346 1.866153,-17.63255 -0.912225,-0.35908 -10.520265,15.83766 -11.395384,15.38935 -0.875119,-0.4483 6.094977,-14.35669 5.207433,-14.68839 -0.887544,-0.33169 -9.670306,12.22439 -10.51182,11.72321 -0.841513,-0.50118 10.728969,-14.55683 9.903348,-15.11948 C 25.292514,272.0622 9.56119,281.70801 8.9066197,281.05288 8.2520493,280.39774 21.556593,267.68031 20.963567,266.9197 20.370541,266.15909 5.1443349,280.25998 4.6812082,279.42963 4.2180815,278.59929 20.027943,268.18538 19.761781,267.24673 c -0.266163,-0.93865 -16.7307864,2.49458 -17.037572,1.56887 -0.3067856,-0.92572 19.413482,-6.31318 19.275091,-7.24399 -0.138391,-0.9308 -19.2870697,2.28039 -19.2127236,1.28377 0.074346,-0.99662 18.7617026,1.22388 18.7936546,0.29998 0.03195,-0.9239 -16.7945538,-7.94703 -16.5062753,-8.86963 0.2882784,-0.92259 13.8251543,6.46371 14.2405503,5.55754 C 19.729902,258.9371 6.7438732,244.73798 7.2847903,243.90696 7.8257075,243.07593 25.889872,254.95914 26.394218,254.18581 26.898563,253.41248 13.94714,239.9579 14.734652,239.38488 Z"
       id="path847"
       inkscape:connector-curvature="0"
       sodipodi:nodetypes="ccssscccccsccsccccccssccsscscsscccccsccscsccsccscsc" />
    <circle
       style="opacity:1;fill:url(#radialGradient895);fill-opacity:1;fill-rule:nonzero;stroke:none;stroke-width:3.11272573;stroke-linecap:round;stroke-linejoin:round;stroke-miterlimit:4;stroke-dasharray:none;stroke-dashoffset:0;stroke-opacity:1"
       id="path887"
       cx="32.97356"
       cy="263.14517"
       r="21.96722" />
    <path
       sodipodi:nodetypes="cccscccscscccccccscccscscsccc"
       inkscape:connector-curvature="0"
       id="path900"
       d="m 21.648551,244.57917 c 0.781141,-0.0976 8.721295,13.54162 9.443048,13.13853 0.884211,-0.37439 -0.835403,-16.35046 -0.515647,-16.41442 0.331486,-0.0664 2.145907,15.92488 3.134374,16.17013 1.134868,0.28157 6.655361,-14.78817 6.849865,-14.6585 0.245664,0.18425 -5.208063,15.08492 -4.384472,15.57462 1.059041,0.15143 12.454158,-10.4284 12.531598,-10.23481 0.0427,0.0854 -11.5874,11.17846 -10.707847,12.1299 0.968592,1.04775 15.823314,-4.06005 15.731295,-3.784 0,0.27407 -15.239961,5.0294 -14.910397,6.2827 0.289141,1.0996 15.913293,2.92591 15.815215,3.4163 0,0.35873 -15.59618,-1.88758 -16.159762,-0.80887 -0.03929,1.30696 13.239846,9.75071 12.76674,9.93995 -0.282329,0.56466 -13.3587,-8.23009 -14.208489,-7.74023 -0.595368,1.12195 7.612456,14.49487 7.189654,14.49487 -0.461657,0.277 -8.441031,-13.32244 -9.443048,-13.13852 -1.116731,0.50499 0.7611,16.17888 0.188569,16.17888 -0.360916,0.12031 -1.450906,-15.57812 -2.807296,-15.93459 -1.269545,-0.33366 -6.018024,14.65849 -6.849866,14.65849 -0.696195,-0.27847 5.480905,-14.79039 4.384475,-15.57462 -1.1344,-0.71185 -11.811422,10.81096 -12.531599,10.23482 0.02159,0.0144 11.556222,-10.79697 10.707846,-12.1299 -0.773447,-1.21519 -15.588094,4.3568 -15.731296,3.78399 -0.284613,-0.42692 15.221441,-4.84347 14.910398,-6.28269 -0.288462,-1.33475 -16.358772,-2.73685 -15.815215,-3.4163 0.716491,-0.2866 15.879931,2.24834 16.159762,0.80886 0.241956,-1.24463 -13.025039,-9.29419 -12.76674,-9.93995 0,0 13.042659,8.86218 14.208488,7.74023 0.950747,-0.69179 -7.373226,-14.12772 -7.189653,-14.49487 z"
       style="opacity:1;fill:#efb455;fill-opacity:1;fill-rule:nonzero;stroke:none;stroke-width:2.93969584;stroke-linecap:round;stroke-linejoin:round;stroke-miterlimit:4;stroke-dasharray:none;stroke-dashoffset:0;stroke-opacity:1" />
    <path
       style="opacity:1;fill:#efad55;fill-opacity:1;fill-rule:nonzero;stroke:none;stroke-width:2.93969584;stroke-linecap:round;stroke-linejoin:round;stroke-miterlimit:4;stroke-dasharray:none;stroke-dashoffset:0;stroke-opacity:1"
       d="m 17.458934,247.85506 c 0,0 10.963013,11.33408 12.333013,10.47324 1.369998,-0.86082 -4.459209,-15.80552 -4.459209,-15.80552 0,0 5.33389,15.11802 6.941715,14.93686 1.607826,-0.18116 3.112372,-15.87782 3.112372,-15.87782 0,0 -2.026013,15.6379 -0.49881,16.17229 1.527202,0.53439 9.69328,-12.95501 9.69328,-12.95501 0,0 -8.61041,13.21022 -7.466312,14.35432 1.144098,1.1441 14.354315,-7.46632 14.354315,-7.46632 0,0 -13.489409,8.16608 -12.955018,9.69329 0.534392,1.5272 16.172303,-0.49881 16.172303,-0.49881 0,0 -15.696667,1.50454 -15.877824,3.11237 -0.181159,1.60782 14.787166,6.56748 14.787166,6.56748 0,0 -14.795006,-5.45498 -15.655834,-4.08498 -0.860827,1.36999 10.473252,12.33301 10.473252,12.33301 0,0 -10.963013,-11.33408 -12.333012,-10.47324 -1.369999,0.86082 4.084979,15.65582 4.084979,15.65582 0,0 -4.95966,-14.96832 -6.567486,-14.78716 -1.607826,0.18116 -3.112372,15.87782 -3.112372,15.87782 0,0 2.026012,-15.63791 0.49881,-16.1723 -1.527202,-0.53438 -9.693279,12.95502 -9.693279,12.95502 0,0 8.610409,-13.21022 7.466311,-14.35432 -1.144099,-1.1441 -14.354316,7.46632 -14.354316,7.46632 0,0 13.48941,-8.16608 12.955018,-9.69329 -0.53439,-1.5272 -16.172302,0.49881 -16.172302,0.49881 0,0 15.696667,-1.50454 15.877825,-3.11237 0.181158,-1.60782 -14.787167,-6.56748 -14.787167,-6.56748 0,0 14.795005,5.45498 15.655834,4.08498 0.860827,-1.37001 -10.473252,-12.33301 -10.473252,-12.33301 z"
       id="path897"
       inkscape:connector-curvature="0"
       sodipodi:nodetypes="cccscccscscccccccscccscscsccc" />
    <path
       style="opacity:1;fill:#d69833;fill-opacity:1;fill-rule:nonzero;stroke:none;stroke-width:2.23998404;stroke-linecap:round;stroke-linejoin:round;stroke-miterlimit:4;stroke-dasharray:none;stroke-dashoffset:0;stroke-opacity:1"
       d="m 26.240158,248.01749 c 0.599836,0.003 5.255089,11.09123 5.840156,10.85781 0.704987,-0.19575 0.980132,-12.43639 1.228034,-12.45321 0.257001,-0.0174 0.052,12.24398 0.774694,12.5267 0.829733,0.32459 6.486024,-10.51773 6.620208,-10.40058 0.167461,0.16342 -5.421722,10.88457 -4.847695,11.33574 0.785264,0.2188 10.437814,-6.65212 10.477246,-6.4982 0.02385,0.0687 -9.856828,7.30426 -9.286021,8.10983 0.628591,0.88711 12.355871,-1.5083 12.259137,-1.30878 -0.02701,0.20707 -12.010629,2.29819 -11.885133,3.27765 0.110103,0.85931 11.735389,3.77901 11.612955,4.13986 -0.03535,0.27105 -11.598112,-2.96321 -12.13025,-2.2037 -0.158485,0.98363 9.042804,8.67221 8.666686,8.76857 -0.268968,0.39882 -9.282465,-7.53499 -9.972823,-7.2486 -0.560416,0.78904 4.323331,11.70222 4.003871,11.66055 -0.376115,0.16379 -5.064927,-10.89802 -5.840155,-10.85781 -0.893544,0.27151 -1.019363,12.29943 -1.451956,12.24301 -0.284555,0.0553 0.438955,-11.91348 -0.550773,-12.3165 -0.926358,-0.37721 -5.991687,10.48257 -6.620209,10.40059 -0.498586,-0.27903 5.598851,-10.63516 4.847699,-11.33575 -0.786975,-0.64966 -9.989877,7.0045 -10.477248,6.49821 0.01489,0.013 9.795675,-7.01909 9.28602,-8.10982 -0.464642,-0.99441 -12.207388,1.75568 -12.259137,1.30876 -0.172975,-0.35061 11.978315,-2.15953 11.885133,-3.27764 -0.08642,-1.03693 -12.090615,-3.68007 -11.612955,-4.13987 0.569609,-0.14594 11.776956,3.26377 12.130251,2.20371 0.305476,-0.91658 -8.92549,-8.30611 -8.666686,-8.76858 0,0 8.98138,7.98142 9.972822,7.2486 0.78654,-0.42901 -4.178758,-11.40123 -4.003871,-11.66055 z"
       id="path902"
       inkscape:connector-curvature="0"
       sodipodi:nodetypes="cccscccscscccccccscccscscsccc" />
    <path
       style="opacity:1;fill:url(#linearGradient924);fill-opacity:1;fill-rule:nonzero;stroke:none;stroke-width:3.11272573;stroke-linecap:round;stroke-linejoin:round;stroke-miterlimit:4;stroke-dasharray:none;stroke-dashoffset:0;stroke-opacity:1"
       d="m 54.94078,263.14517 c 1e-6,12.13215 -9.83506,21.96721 -21.96722,21.96721 -1.980258,0 -3.899317,-0.26202 -5.724397,-0.75329 2.59136,-15.92321 10.216186,-26.03327 26.194375,-29.20128 0.966678,2.47557 1.497242,5.1695 1.497242,7.98736 z"
       id="circle915"
       inkscape:connector-curvature="0"
       sodipodi:nodetypes="ssccs" />
    <path
       sodipodi:nodetypes="ssccs"
       inkscape:connector-curvature="0"
       id="path927"
       d="M 8.5182865,268.34081 C 5.215662,256.66683 13.199526,242.50504 24.873512,239.20243 c 1.905475,-0.53907 6.293297,-0.13574 7.43473,1.78614 6.406719,11.83593 4.441613,23.19074 -10.070761,30.5887 -4.747594,0.94974 -12.9521156,-0.52502 -13.7191945,-3.23646 z"
       style="opacity:1;fill:url(#linearGradient929);fill-opacity:1;fill-rule:nonzero;stroke:none;stroke-width:3.11272573;stroke-linecap:round;stroke-linejoin:round;stroke-miterlimit:4;stroke-dasharray:none;stroke-dashoffset:0;stroke-opacity:1"
       inkscape:transform-center-x="11.138999"
       inkscape:transform-center-y="-4.4216136" />
    <ellipse
       style="opacity:1;fill:url(#linearGradient849);fill-opacity:1;fill-rule:nonzero;stroke:none;stroke-width:3.33093643;stroke-linecap:round;stroke-linejoin:round;stroke-miterlimit:4;stroke-dasharray:none;stroke-dashoffset:0;stroke-opacity:1"
       id="path937"
       cx="21.08403"
       cy="251.76541"
       rx="8.8256512"
       ry="8.4910297" />
    <path
       style="opacity:1;fill:#000000;fill-opacity:1;fill-rule:nonzero;stroke:none;stroke-width:4.23230886;stroke-linecap:round;stroke-linejoin:round;stroke-miterlimit:4;stroke-dasharray:none;stroke-dashoffset:0;stroke-opacity:1"
       d="m 37.457399,262.85452 a 4.4545956,13.509653 0 0 1 -4.454595,13.50966 4.4545956,13.509653 0 0 1 -4.454596,-13.50966 4.4545956,13.509653 0 0 1 4.454596,-13.50965 4.4545956,13.509653 0 0 1 4.454595,13.50965 z"
       id="path939" />
    <path
       id="path854"
       d="m 38.144156,262.70136 a 5.1030621,14.198891 0 0 1 -5.103061,14.1989 5.1030621,14.198891 0 0 1 -5.103062,-14.1989 5.1030621,14.198891 0 0 1 5.103062,-14.19889 5.1030621,14.198891 0 0 1 5.103061,14.19889 z"
       style="opacity:1;fill:#000000;fill-opacity:0.27956992;fill-rule:nonzero;stroke:none;stroke-width:4.64401674;stroke-linecap:round;stroke-linejoin:round;stroke-miterlimit:4;stroke-dasharray:none;stroke-dashoffset:0;stroke-opacity:1"
       inkscape:connector-curvature="0" />
    <path
       inkscape:connector-curvature="0"
       style="opacity:1;fill:#000000;fill-opacity:0.27956992;fill-rule:nonzero;stroke:none;stroke-width:5.04066706;stroke-linecap:round;stroke-linejoin:round;stroke-miterlimit:4;stroke-dasharray:none;stroke-dashoffset:0;stroke-opacity:1"
       d="m 38.774777,262.70136 a 5.7336834,14.888129 0 0 1 -5.733682,14.88814 5.7336834,14.888129 0 0 1 -5.733683,-14.88814 5.7336834,14.888129 0 0 1 5.733683,-14.88813 5.7336834,14.888129 0 0 1 5.733682,14.88813 z"
       id="path856" />
  </g>
</svg>
