<?xml version="1.0" encoding="UTF-8"?><svg id="uuid-dd8c73b2-3a24-47ca-b016-13a07cde286e" xmlns="http://www.w3.org/2000/svg" xmlns:xlink="http://www.w3.org/1999/xlink" viewBox="0 0 35 36">
<title>Microsoft OneNote 2025 logo - Brandlogos.net</title><defs><radialGradient id="uuid-50d6a62b-9aad-4d02-8594-795bcc1c54e9" cx="-562.51" cy="464.6" fx="-562.51" fy="464.6" r="1" gradientTransform="translate(26794.49 9350.33) scale(47.57 -20.05)" gradientUnits="userSpaceOnUse"><stop offset=".16" stop-color="#a931d8"/><stop offset=".57" stop-color="#6e1996"/></radialGradient><linearGradient id="uuid-18de38b9-53c2-4fd0-8ba3-a6ad4c169a59" x1="38.88" y1="48.5" x2="21.61" y2="57.23" gradientTransform="translate(0 70) scale(1 -1)" gradientUnits="userSpaceOnUse"><stop offset=".22" stop-color="#ca59f7"/><stop offset=".89" stop-color="#691a90"/></linearGradient><linearGradient id="uuid-52460405-89b2-46e8-b113-358e34148f1a" x1="36.33" y1="55" x2="5.01" y2="55" gradientTransform="translate(0 70) scale(1 -1)" gradientUnits="userSpaceOnUse"><stop offset=".81" stop-color="#de66ff"/><stop offset="1" stop-color="#fcb1ff"/></linearGradient><radialGradient id="uuid-9fdd75d9-5b25-435b-9e54-d861015099f0" cx="-572.74" cy="498.79" fx="-572.74" fy="498.79" r="1" gradientTransform="translate(-30198.43 875.93) rotate(121.48) scale(28.88 -50.78)" gradientUnits="userSpaceOnUse"><stop offset="0" stop-color="#ffc7a3"/><stop offset=".83" stop-color="#de67fd" stop-opacity="0"/></radialGradient><radialGradient id="uuid-325a9e95-4965-433d-a32f-7178ccbb54da" cx="-543.89" cy="490.05" fx="-543.89" fy="490.05" r="1" gradientTransform="translate(861.5 16559.98) rotate(45) scale(22.63 -22.63)" gradientUnits="userSpaceOnUse"><stop offset=".07" stop-color="#ac13eb"/><stop offset=".88" stop-color="#580087"/></radialGradient><radialGradient id="uuid-9c52f393-a7a6-42ff-8678-b8968ca9fe11" cx="-537.98" cy="529.22" fx="-537.98" fy="529.22" r="1" gradientTransform="translate(-6819 6052) rotate(90) scale(11.2 -12.9)" gradientUnits="userSpaceOnUse"><stop offset=".58" stop-color="#841fb0" stop-opacity="0"/><stop offset=".97" stop-color="#d373fc"/></radialGradient></defs><path d="M5,27.55c0-3.61,2.93-6.55,6.55-6.55h23.45v11.73c0,1.81-1.47,3.27-3.27,3.27H11.13c-3.39,0-6.13-2.75-6.13-6.14v-2.31Z" style="fill:url(#uuid-50d6a62b-9aad-4d02-8594-795bcc1c54e9);"/><path d="M21,8.5l14-.5v12.73c0,1.81-1.47,3.27-3.27,3.27h-10.73v-15.5Z" style="fill:url(#uuid-18de38b9-53c2-4fd0-8ba3-a6ad4c169a59);"/><path d="M5.01,6c0-3.31,2.69-6,6-6h20.49c1.93,0,3.5,1.57,3.5,3.5v5c0,1.93-1.57,3.5-3.5,3.5h-3c-1.93,0-3.5,1.57-3.5,3.5v5c0,1.93-1.57,3.5-3.5,3.5h-10.5c-3.31,0-6,2.69-6,6V6Z" style="fill:url(#uuid-52460405-89b2-46e8-b113-358e34148f1a);"/><path d="M5.01,6c0-3.31,2.69-6,6-6h20.49c1.93,0,3.5,1.57,3.5,3.5v5c0,1.93-1.57,3.5-3.5,3.5h-3c-1.93,0-3.5,1.57-3.5,3.5v5c0,1.93-1.57,3.5-3.5,3.5h-10.5c-3.31,0-6,2.69-6,6V6Z" style="fill:url(#uuid-9fdd75d9-5b25-435b-9e54-d861015099f0);"/><rect y="17" width="16" height="16" rx="3.25" ry="3.25" style="fill:url(#uuid-325a9e95-4965-433d-a32f-7178ccbb54da);"/><rect y="17" width="16" height="16" rx="3.25" ry="3.25" style="fill:url(#uuid-9c52f393-a7a6-42ff-8678-b8968ca9fe11); fill-opacity:.8;"/><path d="M12.11,29.57h-2.08l-3.77-5.64c-.11-.17-.2-.32-.27-.44-.07-.13-.13-.23-.17-.32h-.03c0,.16.01.37.02.61,0,.25,0,.54,0,.87v4.92h-1.94v-9.14h2.22l3.63,5.46c.08.12.15.25.22.38.08.12.15.25.21.37h.03c0-.11-.01-.26-.02-.47,0-.21,0-.47,0-.78v-4.95h1.94v9.14Z" style="fill:#fff;"/></svg>