<?xml version="1.0" encoding="UTF-8" standalone="no"?>
<svg xmlns="http://www.w3.org/2000/svg" xmlns:xlink="http://www.w3.org/1999/xlink" width="116" height="127" viewBox="-.358 -.104 116 127">
  <linearGradient id="d" x1="57.584" x2="57.584" y1="154.013" y2="-101.487" gradientUnits="userSpaceOnUse">
    <stop offset="0" stop-color="#fff"/>
    <stop offset=".246" stop-color="#f6f6f6"/>
    <stop offset=".637" stop-color="#dfdfdf"/>
    <stop offset="1" stop-color="#c4c4c4"/>
  </linearGradient>
  <linearGradient id="a">
    <stop offset="0" stop-color="#b2b2b2"/>
    <stop offset="1" stop-color="#828282"/>
  </linearGradient>
  <linearGradient id="e" x1="-32.669" x2="49.83" y1="-26.884" y2="55.614" gradientUnits="userSpaceOnUse" xlink:href="#a"/>
  <linearGradient id="f" x1="36.688" x2="197.672" y1="24.87" y2="110.514" gradientUnits="userSpaceOnUse">
    <stop offset="0" stop-color="#fff"/>
    <stop offset=".86" stop-color="#dadada"/>
    <stop offset="1" stop-color="#d4d4d4"/>
  </linearGradient>
  <linearGradient id="g" x1="-9.665" x2="121.656" y1="10.1" y2="10.1" gradientUnits="userSpaceOnUse">
    <stop offset="0" stop-color="#b3caff"/>
    <stop offset="1" stop-color="#0053bd"/>
  </linearGradient>
  <linearGradient id="h" x1="56.863" x2="56.863" y1="107.234" y2="40.597" gradientTransform="matrix(1 .0025 -.0025 1 .4024 -.3567)" gradientUnits="userSpaceOnUse">
    <stop offset="0" stop-color="#9e9e9e"/>
    <stop offset="1" stop-color="#616161"/>
  </linearGradient>
  <linearGradient id="b">
    <stop offset=".034" stop-color="#fff"/>
    <stop offset="1" stop-color="#b2b2b2"/>
  </linearGradient>
  <linearGradient id="i" x1="56.143" x2="59.373" y1="83.959" y2=".99" gradientTransform="matrix(1 .0025 -.0025 1 .4024 -.3567)" gradientUnits="userSpaceOnUse" xlink:href="#b"/>
  <linearGradient id="j" x1="44.926" x2="101.829" y1="53.53" y2="110.432" gradientTransform="matrix(1 .0025 -.0025 1 .4024 -.3567)" gradientUnits="userSpaceOnUse" xlink:href="#b"/>
  <linearGradient id="k" x1="14.676" x2="14.676" y1="11.358" y2="73.871" gradientTransform="matrix(1 .0025 -.0025 1 .4024 -.3567)" gradientUnits="userSpaceOnUse">
    <stop offset=".052" stop-color="#fff"/>
    <stop offset="1" stop-color="#fff" stop-opacity="0"/>
  </linearGradient>
  <linearGradient id="c">
    <stop offset="0" stop-color="#fff"/>
    <stop offset="1" stop-color="#fff" stop-opacity="0"/>
  </linearGradient>
  <linearGradient id="l" x1="57.112" x2="57.112" y1="30.596" y2="76.051" gradientTransform="matrix(1 .0025 -.0025 1 .4024 -.3567)" gradientUnits="userSpaceOnUse" xlink:href="#c"/>
  <radialGradient id="m" cx="-15.29" cy="103.876" r="44.757" gradientTransform="matrix(1.0388 .0026 -.0025 1 70.6406 -.1638)" gradientUnits="userSpaceOnUse">
    <stop offset="0" stop-color="#858585"/>
    <stop offset="1"/>
  </radialGradient>
  <linearGradient id="n" x1="56.813" x2="56.813" y1="76.676" y2="8.756" gradientTransform="matrix(1 .0025 -.0025 1 .4024 -.3567)" gradientUnits="userSpaceOnUse">
    <stop offset="0" stop-color="#ccc"/>
    <stop offset="1" stop-color="#616161"/>
  </linearGradient>
  <linearGradient id="o" x1="56.871" x2="56.871" y1="22.539" y2="67.677" gradientTransform="matrix(1 .0025 -.0025 1 .4024 -.3567)" gradientUnits="userSpaceOnUse" xlink:href="#c"/>
  <radialGradient id="p" cx="102.131" cy="117.697" r="34.736" gradientUnits="userSpaceOnUse">
    <stop offset="0"/>
    <stop offset="1"/>
  </radialGradient>
  <linearGradient id="q" x1="97.681" x2="88.752" y1="97.629" y2="135.242" gradientUnits="userSpaceOnUse">
    <stop offset="0" stop-color="#fff"/>
    <stop offset="1" stop-color="#ccc"/>
  </linearGradient>
  <linearGradient id="r" x1="75.973" x2="89.768" y1="87.541" y2="101.337" gradientUnits="userSpaceOnUse" xlink:href="#a"/>
  <path fill="#fff" d="m114.828.5h-114.328v125.896h80.701l33.627-33.627z"/>
  <path fill="url(#d)" d="m111.398 3.467h-107.468l-.16 122.654h76.457l31.172-31.252v-91.402z"/>
  <path fill="url(#e)" d="m114.828 0h-114.828v126.896h81.408l33.92-33.92v-92.976zm-.5 1v91.563c-.289.289-33.045 33.045-33.334 33.334-.41 0-79.01 0-79.994 0 0-.989 0-123.909 0-124.897z"/>
  <path fill="url(#f)" d="m111.67 14.671v-11.283h-107.807l-.096 65.34c9.975 4.547 21.151 7.096 32.954 7.096 37.345 0 68.398-27.499 74.949-61.153z"/>
  <path fill="url(#g)" d="m111.755 16.471h-107.384v-12.743h107.384z"/>
  <g fill="#fff">
    <path d="m9.674 11.887 1.688-.172c.102.564.308.979.618 1.244.311.264.729.396 1.257.396.559 0 .979-.117 1.263-.354.283-.235.425-.511.425-.826 0-.203-.06-.375-.178-.518-.119-.142-.326-.266-.622-.37-.203-.07-.664-.195-1.384-.374-.926-.23-1.577-.514-1.95-.85-.525-.474-.788-1.051-.788-1.731 0-.438.124-.848.371-1.229s.604-.671 1.069-.871c.465-.199 1.027-.299 1.685-.299 1.074 0 1.883.238 2.426.715.543.478.828 1.114.855 1.91l-1.734.063c-.074-.444-.232-.764-.475-.958s-.606-.292-1.091-.292c-.501 0-.893.104-1.176.312-.183.134-.274.313-.274.536 0 .204.085.379.257.523.218.185.747.376 1.588.575.841.198 1.463.404 1.866.618.403.213.718.505.946.874.228.37.342.827.342 1.371 0 .493-.137.955-.41 1.386-.273.43-.66.75-1.16.959-.5.21-1.123.314-1.869.314-1.086 0-1.92-.252-2.502-.754-.582-.503-.929-1.235-1.043-2.198z"/>
    <path d="m18.131 14.684v-8.594h1.734v3.375h3.406v-3.375h1.734v8.594h-1.734v-3.766h-3.406v3.766z"/>
    <path d="m26.797 14.684v-8.594h6.359v1.453h-4.625v1.906h4.297v1.453h-4.297v2.328h4.797v1.453h-6.531z"/>
    <path d="m34.848 14.684v-8.516h1.734v7.063h4.313v1.453z"/>
    <path d="m42.178 14.684v-8.516h1.734v7.063h4.313v1.453z"/>
  </g>
  <path fill="url(#h)" d="m22.495 30.273c-4.823-.012-8.758 3.755-8.77 8.399l-.134 52.937c-.012 4.645 3.904 8.435 8.727 8.446l69.391.176c4.825.012 8.756-3.759 8.768-8.403l.134-52.936c.012-4.645-3.9-8.432-8.726-8.444zm-6.823 61.341.134-52.937c.009-3.54 3.007-6.412 6.684-6.402l69.391.175c3.677.009 6.659 2.896 6.65 6.436l-.134 52.937c-.009 3.541-3.006 6.412-6.683 6.403l-69.391-.176c-3.676-.008-6.66-2.895-6.651-6.436z"/>
  <path fill="url(#i)" d="m99.438 91.826c-.01 4.101-3.469 7.413-7.727 7.402l-69.391-.176c-4.256-.011-7.699-3.341-7.688-7.441l.134-52.936c.01-4.098 3.47-7.413 7.726-7.402l69.391.175c4.258.011 7.699 3.343 7.688 7.441z"/>
  <path fill="url(#j)" d="m98.612 91.297c-.011 3.986-3.377 7.207-7.516 7.196l-68.156-.172c-4.141-.011-7.489-3.248-7.479-7.234l.131-51.883c.01-3.985 3.375-7.208 7.516-7.197l68.157.172c4.139.01 7.488 3.25 7.479 7.235z"/>
  <path fill="url(#k)" d="m14.276 75.727c-.007 2.807.355 5.531 1.034 8.13.053.009.114.02.17.03l.08-31.397c-.799 2.772-1.277 20.214-1.284 23.237z"/>
  <path fill="url(#l)" d="m90.714 32.872-66.562-.168c-3.99-.01-7.231 3.094-7.241 6.935l-.11 43.577c5.247.936 24.498 4.246 38.423-13.729 16.608-21.437 36.682-18.871 42.67-20.352l.023-9.292c.011-3.842-3.215-6.962-7.203-6.971z"/>
  <path fill="url(#m)" d="m91.371 91.081-68.851-.174.13-51.477 68.851.174z"/>
  <path fill="url(#n)" d="m91.582 39.582-68.932-.174-.129 51.377 1.156.003.127-50.234 67.775.171z"/>
  <path fill="#fff" d="m90.534 39.575-.128 50.346-67.888-.171-.003 1.143 67.888.171v.032l1.155.003.131-51.521z"/>
  <path fill="#edffff" d="m26.917 56.548 9.549-3.644-9.531-3.707.012-4.902 15.681 6.543-.01 4.141-15.714 6.44z"/>
  <path fill="#edffff" d="m43.896 63.805 14.501.036-.006 2.508-14.501-.036z"/>
  <path fill="url(#o)" d="m24.642 50.155c-.027 10.579 15.491 19.198 34.658 19.247 19.17.048 30.326-8.504 30.353-19.083.009-3.535-1.726-6.846-4.744-9.7l-55.476-.14c-3.035 2.839-4.783 6.142-4.791 9.676z"/>
  <path fill="url(#p)" d="m78.855 90.424v35.754h1.793l33.639-33.639v-2.115z" opacity=".1"/>
  <path fill="#fff" d="m81.201 126.396 33.627-33.627h-33.627z"/>
  <path fill="url(#q)" d="m83.529 124.504 29.594-29.592h-29.594z"/>
  <path fill="url(#r)" d="m81.201 92.27c-.277 0-.5.223-.5.5v33.627c0 .203.121.385.309.463.186.076.402.033.545-.109l33.627-33.627c.143-.145.186-.359.109-.545-.078-.188-.26-.309-.463-.309zm32.42 1c-1.58 1.578-30.342 30.34-31.92 31.92 0-2.209 0-30.986 0-31.92z"/>
</svg>
