<?xml version="1.0" encoding="UTF-8" standalone="no"?>
<svg xmlns="http://www.w3.org/2000/svg" xmlns:xlink="http://www.w3.org/1999/xlink" width="116" height="127" viewBox="-.358 -.104 116 127">
  <linearGradient id="c" x1="57.584" x2="57.584" y1="154.013" y2="-101.487" gradientUnits="userSpaceOnUse">
    <stop offset="0" stop-color="#fff"/>
    <stop offset=".246" stop-color="#f6f6f6"/>
    <stop offset=".637" stop-color="#dfdfdf"/>
    <stop offset="1" stop-color="#c4c4c4"/>
  </linearGradient>
  <linearGradient id="a">
    <stop offset="0" stop-color="#b2b2b2"/>
    <stop offset="1" stop-color="#828282"/>
  </linearGradient>
  <linearGradient id="d" x1="-32.669" x2="49.83" y1="-26.884" y2="55.614" gradientUnits="userSpaceOnUse" xlink:href="#a"/>
  <linearGradient id="e" x1="36.688" x2="197.672" y1="24.87" y2="110.514" gradientUnits="userSpaceOnUse">
    <stop offset="0" stop-color="#fff"/>
    <stop offset=".86" stop-color="#dadada"/>
    <stop offset="1" stop-color="#d4d4d4"/>
  </linearGradient>
  <linearGradient id="f" x1="-10.063" x2="121.257" y1="10.1" y2="10.1" gradientUnits="userSpaceOnUse">
    <stop offset="0" stop-color="#b3caff"/>
    <stop offset="1" stop-color="#0053bd"/>
  </linearGradient>
  <linearGradient id="g" x1="62.346" x2="47.853" y1="83.543" y2="82.766" gradientUnits="userSpaceOnUse">
    <stop offset="0" stop-color="#fff"/>
    <stop offset=".248" stop-color="#d4d4d4"/>
    <stop offset=".597" stop-color="#9d9d9d"/>
    <stop offset=".859" stop-color="#7b7b7b"/>
    <stop offset="1" stop-color="#6e6e6e"/>
  </linearGradient>
  <linearGradient id="b">
    <stop offset="0" stop-color="#fff"/>
    <stop offset="1" stop-color="#757575"/>
  </linearGradient>
  <linearGradient id="h" x1="71.586" x2="52.434" y1="98.066" y2="69.08" gradientUnits="userSpaceOnUse" xlink:href="#b"/>
  <linearGradient id="i" x1="59.283" x2="57.212" y1="45.503" y2="87.175" gradientUnits="userSpaceOnUse">
    <stop offset="0" stop-color="#d1d1d1"/>
    <stop offset="1" stop-color="#6b6b6b"/>
  </linearGradient>
  <linearGradient id="j" x1="58.608" x2="58.608" y1="77.678" y2="30.312" gradientUnits="userSpaceOnUse">
    <stop offset="0" stop-color="#fff"/>
    <stop offset="1" stop-color="#525252"/>
  </linearGradient>
  <linearGradient id="k" x1="58.608" x2="59.644" y1="57.455" y2="111.03" gradientUnits="userSpaceOnUse" xlink:href="#b"/>
  <linearGradient id="l" x1="58.047" x2="59.076" y1="46.815" y2="72.041" gradientUnits="userSpaceOnUse" xlink:href="#b"/>
  <linearGradient id="m" x1="55.546" x2="55.029" y1="45.516" y2="62.599" gradientUnits="userSpaceOnUse">
    <stop offset=".132" stop-color="#fff"/>
    <stop offset="1" stop-color="#fff" stop-opacity="0"/>
  </linearGradient>
  <radialGradient id="n" cx="102.131" cy="117.697" r="34.736" gradientUnits="userSpaceOnUse">
    <stop offset="0"/>
    <stop offset="1"/>
  </radialGradient>
  <linearGradient id="o" x1="97.681" x2="88.752" y1="97.629" y2="135.242" gradientUnits="userSpaceOnUse">
    <stop offset="0" stop-color="#fff"/>
    <stop offset="1" stop-color="#ccc"/>
  </linearGradient>
  <linearGradient id="p" x1="75.973" x2="89.768" y1="87.541" y2="101.337" gradientUnits="userSpaceOnUse" xlink:href="#a"/>
  <path fill="#fff" d="m114.828.5h-114.328v125.896h80.701l33.627-33.627z"/>
  <path fill="url(#c)" d="m111.398 3.467h-107.468l-.16 122.654h76.457l31.172-31.252v-91.402z"/>
  <path fill="url(#d)" d="m114.828 0h-114.828v126.896h81.408l33.92-33.92v-92.976zm-.5 1v91.563c-.289.289-33.045 33.045-33.334 33.334-.41 0-79.01 0-79.994 0 0-.989 0-123.909 0-124.897z"/>
  <path fill="url(#e)" d="m111.67 14.671v-11.283h-107.807l-.096 65.34c9.975 4.547 21.151 7.096 32.954 7.096 37.345 0 68.398-27.499 74.949-61.153z"/>
  <path fill="url(#f)" d="m111.356 16.471h-107.384v-12.743h107.385v12.743z"/>
  <path d="m87.642 87.896c0 8.561-12.536 15.5-28 15.5s-28-6.939-28-15.5 12.536-15.5 28-15.5c15.463 0 28 6.94 28 15.5z" opacity=".1"/>
  <path fill="url(#g)" d="m78.611 83.341c0 7.742-8.954 14.015-20.002 14.015-11.049 0-20.003-6.272-20.003-14.015 0-7.738 8.954-14.012 20.003-14.012 11.048 0 20.002 6.274 20.002 14.012z"/>
  <path fill="#505050" d="m37.833 83.341c0 8.156 9.319 14.79 20.775 14.79s20.776-6.634 20.776-14.79c0-8.152-9.32-14.784-20.776-14.784-11.455 0-20.775 6.631-20.775 14.784zm1.545 0c0-7.3 8.626-13.24 19.231-13.24s19.231 5.94 19.231 13.24c0 7.304-8.626 13.245-19.231 13.245s-19.231-5.941-19.231-13.245z"/>
  <path fill="url(#h)" d="m78.611 78.424c0 7.742-8.954 14.017-20.002 14.017-11.049 0-20.003-6.274-20.003-14.017 0-7.737 8.954-14.014 20.003-14.014 11.048 0 20.002 6.277 20.002 14.014z"/>
  <path fill="url(#i)" d="m95.361 59.079c0 17.005-16.456 30.788-36.753 30.788s-36.752-13.783-36.752-30.788 16.455-30.789 36.752-30.789 36.753 13.784 36.753 30.789z"/>
  <path fill="#505050" d="m21.084 59.079c0 17.402 16.833 31.561 37.524 31.561s37.524-14.158 37.524-31.561-16.833-31.562-37.524-31.562c-20.691.001-37.524 14.159-37.524 31.562zm1.544 0c0-16.552 16.14-30.017 35.98-30.017s35.979 13.465 35.979 30.017c0 16.55-16.14 30.019-35.979 30.019-19.84 0-35.98-13.469-35.98-30.019z"/>
  <path fill="#fff" stroke="#000" d="m74.137 66.207c0 6.645-6.951 12.033-15.528 12.033-8.576 0-15.528-5.389-15.528-12.033 0-6.648 6.952-12.036 15.528-12.036 8.577 0 15.528 5.388 15.528 12.036z"/>
  <path fill="url(#j)" d="m89.925 57.48c0 14.489-14.021 26.236-31.316 26.236-17.296 0-31.317-11.747-31.317-26.236 0-14.49 14.021-26.235 31.317-26.235 17.295 0 31.316 11.746 31.316 26.235z"/>
  <path fill="url(#k)" d="m26.519 57.48c0 14.893 14.395 27.009 32.089 27.009s32.09-12.116 32.09-27.009c0-14.892-14.396-27.007-32.09-27.007s-32.089 12.115-32.089 27.007zm1.544 0c0-14.041 13.702-25.463 30.545-25.463s30.545 11.422 30.545 25.463c0 14.04-13.702 25.464-30.545 25.464s-30.545-11.423-30.545-25.464z"/>
  <path fill="url(#l)" d="m74.338 60.575c0 7.278-7.043 13.177-15.729 13.177-8.688 0-15.729-5.899-15.729-13.177 0-7.276 7.042-13.177 15.729-13.177 8.686-.001 15.729 5.9 15.729 13.177z"/>
  <path fill="url(#m)" d="m64.129 56.928c0 3.574-3.998 6.471-8.928 6.471-4.933 0-8.93-2.896-8.93-6.471 0-3.574 3.998-6.471 8.93-6.471 4.93 0 8.928 2.897 8.928 6.471z"/>
  <path fill="url(#n)" d="m78.855 90.424v35.754h1.793l33.639-33.639v-2.115z" opacity=".1"/>
  <path fill="#fff" d="m81.201 126.396 33.627-33.627h-33.627z"/>
  <path fill="url(#o)" d="m83.529 124.504 29.594-29.592h-29.594z"/>
  <path fill="url(#p)" d="m81.201 92.27c-.277 0-.5.223-.5.5v33.627c0 .203.121.385.309.463.186.076.402.033.545-.109l33.627-33.627c.143-.145.186-.359.109-.545-.078-.188-.26-.309-.463-.309zm32.42 1c-1.58 1.578-30.342 30.34-31.92 31.92 0-2.209 0-30.986 0-31.92z"/>
  <g fill="#fff">
    <path d="m6.563 12.1 1.688-.172c.102.564.308.979.618 1.244s.729.397 1.257.397c.559 0 .979-.118 1.263-.354.283-.235.425-.511.425-.826 0-.203-.06-.375-.178-.517s-.326-.266-.622-.371c-.203-.07-.664-.195-1.384-.375-.927-.23-1.577-.513-1.95-.85-.525-.473-.788-1.05-.788-1.731 0-.438.124-.848.371-1.229.247-.38.603-.67 1.068-.87s1.027-.299 1.685-.299c1.075 0 1.884.238 2.427.715s.828 1.114.855 1.91l-1.734.063c-.074-.445-.232-.765-.475-.959s-.606-.292-1.091-.292c-.501 0-.893.104-1.176.312-.183.133-.274.312-.274.536 0 .204.086.378.257.523.218.185.748.376 1.589.575.841.198 1.463.404 1.866.618.403.213.719.505.946.874.228.37.342.827.342 1.371 0 .493-.137.955-.41 1.385-.273.431-.66.75-1.16.96s-1.123.314-1.869.314c-1.086 0-1.92-.251-2.502-.754s-.93-1.235-1.044-2.198z"/>
    <path d="m14.661 10.652c0-.877.131-1.613.393-2.209.195-.438.461-.832.799-1.181.337-.349.708-.607 1.11-.775.535-.227 1.151-.341 1.851-.341 1.265 0 2.277.394 3.037 1.181s1.139 1.882 1.139 3.284c0 1.391-.377 2.479-1.13 3.264s-1.761 1.178-3.022 1.178c-1.277 0-2.292-.391-3.045-1.172s-1.132-1.858-1.132-3.229zm1.781-.058c0 .976.225 1.716.676 2.219.45.503 1.022.755 1.716.755s1.262-.25 1.707-.75c.444-.5.667-1.249.667-2.249 0-.987-.217-1.725-.649-2.21s-1.008-.729-1.725-.729-1.295.246-1.733.738c-.439.492-.659 1.235-.659 2.226z"/>
    <path d="m24.354 6.303h1.734v4.66c0 .739.021 1.219.064 1.438.074.353.25.635.529.848s.66.32 1.144.32c.491 0 .861-.101 1.111-.302.249-.202.399-.449.45-.743.051-.293.076-.78.076-1.461v-4.76h1.734v4.519c0 1.033-.047 1.763-.141 2.189s-.267.786-.518 1.08-.588.527-1.01.702c-.421.174-.972.261-1.651.261-.82 0-1.441-.095-1.865-.285s-.758-.436-1.004-.739-.407-.621-.485-.954c-.113-.493-.17-1.221-.17-2.184v-4.589z"/>
    <path d="m33.021 14.896v-8.593h1.686l3.533 5.756v-5.756h1.609v8.594h-1.739l-3.479-5.64v5.64h-1.61z"/>
    <path d="m41.687 6.303h3.171c.715 0 1.26.055 1.635.164.504.148.936.413 1.295.792s.633.843.821 1.392.281 1.227.281 2.031c0 .708-.088 1.317-.264 1.829-.215.625-.521 1.131-.92 1.518-.301.293-.708.522-1.22.686-.383.121-.895.182-1.535.182h-3.265v-8.594zm1.734 1.453v5.688h1.3c.486 0 .837-.027 1.053-.082.282-.07.517-.189.703-.357s.338-.444.456-.829c.118-.384.177-.909.177-1.573s-.059-1.173-.177-1.529c-.117-.355-.282-.632-.494-.832-.212-.199-.48-.334-.806-.404-.243-.055-.72-.082-1.429-.082z"/>
  </g>
</svg>
