<?xml version="1.0" encoding="UTF-8" standalone="no"?>
<svg xmlns="http://www.w3.org/2000/svg" xmlns:xlink="http://www.w3.org/1999/xlink" width="128" height="128" version="1.0">
  <defs>
    <linearGradient id="b">
      <stop offset="0"/>
      <stop offset="1" stop-color="#636363"/>
    </linearGradient>
    <linearGradient id="d">
      <stop offset="0"/>
      <stop offset="1" stop-opacity="0"/>
    </linearGradient>
    <linearGradient id="e">
      <stop offset="0" stop-color="#fff"/>
      <stop offset="1" stop-color="#ddd"/>
    </linearGradient>
    <linearGradient id="c">
      <stop offset="0" stop-color="#fff"/>
      <stop offset="1" stop-color="#fff" stop-opacity="0"/>
    </linearGradient>
    <linearGradient id="h">
      <stop offset="0" stop-color="#5e605c"/>
      <stop offset="1" stop-color="#222321"/>
    </linearGradient>
    <linearGradient id="a">
      <stop offset="0" stop-color="#fff"/>
      <stop offset="1" stop-color="#fff" stop-opacity="0"/>
    </linearGradient>
    <linearGradient xlink:href="#a" id="p" x1="121.65269" x2="121.23848" y1="8.2953033" y2="17.57608" gradientTransform="translate(1.11738 -.839689)" gradientUnits="userSpaceOnUse"/>
    <linearGradient xlink:href="#a" id="r" x1="121.65269" x2="121.23848" y1="8.2953033" y2="17.57608" gradientTransform="translate(1.11738 -.839689)" gradientUnits="userSpaceOnUse"/>
    <linearGradient xlink:href="#b" id="n" x1="46.373646" x2="31.716814" y1="91.695389" y2="53.271236" gradientTransform="matrix(.97462 0 0 .88581 4.47208 -5.2872)" gradientUnits="userSpaceOnUse"/>
    <linearGradient xlink:href="#c" id="m" x1="65.227325" x2="65.020218" y1="109.28265" y2="88.039612" gradientTransform="matrix(0 .66437 .44193 0 73.468 24.8632)" gradientUnits="userSpaceOnUse"/>
    <linearGradient xlink:href="#d" id="l" x1="64.851028" x2="64.643921" y1="138.13362" y2="93.696671" gradientTransform="matrix(1 0 0 .44193 .21092 58.468)" gradientUnits="userSpaceOnUse"/>
    <linearGradient xlink:href="#e" id="k" x1="65.204582" x2="65.351028" y1="39.569283" y2="105" gradientUnits="userSpaceOnUse"/>
    <linearGradient xlink:href="#a" id="t" x1="121.65269" x2="121.23848" y1="8.2953033" y2="17.57608" gradientTransform="translate(1.11738 -.839689)" gradientUnits="userSpaceOnUse"/>
    <linearGradient id="g">
      <stop offset="0" stop-color="#004600" stop-opacity=".40397352"/>
      <stop offset="1" stop-color="#004600" stop-opacity="0"/>
    </linearGradient>
    <linearGradient xlink:href="#f" id="v" x1="449.82605" x2="449.82605" y1="-66.881706" y2="-288.39447" gradientTransform="matrix(.15815 0 0 .2127 131.83726 105.2311)" gradientUnits="userSpaceOnUse"/>
    <linearGradient xlink:href="#g" id="y" x1="-81.855209" x2="-134.36946" y1="-774.37683" y2="-873.27527" gradientTransform="matrix(.13232 0 0 .08742 129.89187 115.31947)" gradientUnits="userSpaceOnUse"/>
    <linearGradient id="i">
      <stop offset="0" stop-color="#b8f37f" stop-opacity=".94117647"/>
      <stop offset="1" stop-color="#b8f37f" stop-opacity="0"/>
    </linearGradient>
    <linearGradient id="f">
      <stop offset="0" stop-color="#6cba10"/>
      <stop offset="1" stop-color="#8eec1f" stop-opacity=".94117647"/>
    </linearGradient>
    <radialGradient xlink:href="#h" id="o" cx="10.125" cy="5.710938" r="21" fx="10.125" fy="5.710938" gradientTransform="matrix(4.09273 0 0 3.67819 -11.1378 6.31852)" gradientUnits="userSpaceOnUse"/>
    <radialGradient xlink:href="#h" id="q" cx="10.125" cy="5.710938" r="21" fx="10.125" fy="5.710938" gradientTransform="matrix(4.09273 0 0 3.67819 -11.1378 6.31852)" gradientUnits="userSpaceOnUse"/>
    <radialGradient xlink:href="#h" id="s" cx="10.125" cy="5.710938" r="21" fx="10.125" fy="5.710938" gradientTransform="matrix(4.09273 0 0 3.67819 -11.1378 6.31852)" gradientUnits="userSpaceOnUse"/>
    <radialGradient xlink:href="#i" id="w" cx="202.97545" cy="66.344177" r="22.454985" fx="202.97545" fy="66.344177" gradientUnits="userSpaceOnUse"/>
    <filter id="j" width="1.2006924" height="1.2809844" x="-.1003462" y="-.14049219" color-interpolation-filters="sRGB">
      <feGaussianBlur stdDeviation="4.3600386"/>
    </filter>
    <filter id="x" color-interpolation-filters="sRGB">
      <feGaussianBlur stdDeviation=".17085938"/>
    </filter>
    <filter id="z" color-interpolation-filters="sRGB">
      <feGaussianBlur stdDeviation=".34171874"/>
    </filter>
    <filter id="u" color-interpolation-filters="sRGB">
      <feGaussianBlur stdDeviation="1.5718489"/>
    </filter>
  </defs>
  <g transform="translate(-3 -4)">
    <rect width="104.27991" height="74.481674" x="15.470078" y="35.25" fill="#434343" filter="url(#j)" overflow="visible" rx="9.5459414" ry="9.5459414" style="marker:none" transform="matrix(.91101 0 0 .93647 5.90661 2.23936)"/>
    <rect width="104.27992" height="74.481674" x="15.259162" y="30.259163" fill="url(#k)" stroke="#545454" stroke-linecap="round" stroke-width=".5" overflow="visible" rx="9.5459414" ry="9.5459414" style="marker:none"/>
    <path fill="url(#l)" d="M119.75 95c-1.32389.306139-2.83418.483357-4.4375.483357H15.46875l1.237437 4.524203c0 2.3371 3.036613 4.74244 8.325063 4.74244h85.1875c5.28845 0 8.11704-3.11245 8.11704-5.449547L119.75 95z" opacity=".80149799" overflow="visible" style="marker:none"/>
    <path fill="url(#m)" d="M110 104.28125c.30614-.87955.48336-1.88294.48336-2.94814V35l4.17065.70467c2.3371 0 4.59599 2.884877 4.59599 6.39836l-.5 54.970951c0 3.513479-2.99633 6.502599-5.33343 6.502599L110 104.28125z" opacity=".80149799" overflow="visible" style="marker:none"/>
    <path fill="url(#n)" d="M39.984771 40c-5.496074 0-9.959391 4.056625-9.959391 9.051904s4.463317 9.051906 9.959391 9.051904c5.496076 0 9.959388-4.056625 9.959388-9.051904S45.480847 39.999999 39.984771 40zm-8.771573 17.577857c-2.244736.10584-4.177492 1.821071-6.213198 2.961937V80h30V60.539794c-3.474272-1.947079-6.622584-5.587203-11.60406 0l-3.411169 4.81661-3.380711-4.81661c-1.868053-2.0952-3.469912-2.886043-4.93401-2.961937-.15251-.0079-.307204-.007-.456852 0z" overflow="visible" style="marker:none"/>
    <rect width="2.656249" height="14.931019" x="25" y="85.068985" fill-rule="evenodd" opacity=".73144902" overflow="visible" rx="0" ry="0" style="marker:none"/>
    <rect width="5.3125" height="7.4286017" x="30.3125" y="85" fill-rule="evenodd" opacity=".73144902" overflow="visible" rx="0" ry="0" style="marker:none"/>
    <path fill-rule="evenodd" d="M38.28125 85h2.65625v7.4286017h-2.65625zm5.3125 0h5.3125v7.4286017h-5.3125zm10.625 0h2.6318417v7.4286017H54.21875zm5.3125 0h5.3125v7.4286017h-5.3125zM67.5 85h5.3125v7.4286017H67.5zm7.96875.068985h2.6562517v7.4286017H75.46875zM83.4375 85h2.65625v7.4286017H83.4375zm5.3125 0h5.3125v7.4286017H88.75zm13.28125.068985h2.6562531v7.4286017H102.03125zm5.3125 0h2.6562517v14.931019H107.34375z" opacity=".73144902" overflow="visible" style="marker:none"/>
    <path d="M31.52435 97.856972c.173546.04786.308803.147432.40574.298716.09814.151296.147225.338091.147225.560388 0 .341174-.09097.60516-.272895.791955-.181926.186795-.440446.280196-.775575.280196-.112513 0-.228625-.01467-.348295-.044-.118493-.02779-.241174-.07024-.36805-.127362v-.451554c.100549.07564.210664.132768.330331.171357.119699.0386.244769.05789.375228.05789.227425 0 .40037-.05789.518866-.173672.11967-.115782.179517-.284056.179517-.504816 0-.203769-.05566-.362781-.16695-.477021-.110134-.115785-.263931-.173673-.461393-.173673h-.312397v-.384397h.326746c.178346.000004.314778-.04554.409333-.136623.09455-.09263.141827-.225389.141827-.398292 0-.177533-.04906-.313385-.147201-.407554-.09696-.09571-.236404-.143571-.418308-.143571-.09935 0-.205873.0139-.319574.04168-.11372.02779-.238789.07102-.375225.129674v-.416813c.137642-.0494.266298-.08645.385991-.111153.12088-.0247.234578-.03704.341102-.03705.275302.000007.493117.08105.653512.243147.160376.160549.240574.378221.240574.653012 0 .191427-.04251.353523-.127474.486284-.08497.131226-.205867.222307-.362655.273247m1.554751 1.47044h1.265704v.393658h-1.701983v-.393658c.137666-.183708.324967-.429939.561951-.738693.238189-.310298.387797-.510215.448827-.599751.116108-.168272.196887-.310301.242375-.426083.04668-.117324.07002-.232336.07002-.34503 0-.183708-.05027-.333454-.150817-.449234-.09934-.115787-.229205-.173676-.389576-.173676-.113703 0-.234003.02547-.360854.07641-.125691.05095-.260318.128134-.403955.231567v-.472392c.146023-.07564.282455-.132765.409328-.171358.126874-.03859.242984-.05789.348301-.05789.277664.000007.499086.08954.664278.268615.165168.179081.247751.418365.247751.71785 0 .142034-.02095.277112-.06283.405243-.0407.12659-.115506.276332-.224416.449232-.02994.04477-.125088.174452-.285464.38903-.160374.213042-.386593.511759-.678635.89616m3.025123-2.656053-.915617 1.845573h.915617v-1.845573m-.09516-.407554h.456028v2.253127h.382401v.389031h-.382401v.815107h-.360871v-.815107h-1.210044v-.451551l1.114887-2.190607m1.443462 0h1.423692v.393663H37.78465v.847526c.05267-.02316.105339-.04013.157988-.05094.05267-.01235.105342-.01852.157986-.01853.299221.000005.536207.10575.710959.317244.174749.211502.262127.497868.262127.859109 0 .372046-.08979.661501-.269308.868369-.179546.205322-.432663.307982-.759432.307982-.112498 0-.227401-.01235-.344688-.03705-.116107-.0247-.236382-.06175-.360872-.111153v-.470077c.107727.07565.219045.131995.333946.169042.11488.03705.236382.05558.364437.05558.207071 0 .371036-.07024.491932-.21072.120881-.140489.181332-.331143.181332-.571968 0-.24083-.06045-.431484-.181332-.571965-.120896-.140484-.284861-.210725-.491932-.210725-.09694 0-.193898.01389-.290838.04168-.09575.02779-.193895.07102-.294424.129678v-1.73674m4.283647.307978c-.186724.000005-.327351.11888-.421903.356617-.09337.236193-.140048.592035-.140048 1.067511 0 .473939.04668.829776.140048 1.067514.09455.236199.235179.354296.421903.354296.187897 0 .328549-.118097.421895-.354296.09455-.237738.141833-.593575.141833-1.067514 0-.475476-.04728-.831318-.141833-1.067511-.09335-.237737-.233998-.356612-.421895-.356617m0-.370501c.300418.000007.529627.153609.687612.460815.159173.305666.238771.750274.238771 1.333814 0 .581999-.0796 1.026606-.238771 1.333815-.157985.305667-.387194.458501-.687612.458501-.300425 0-.53023-.152834-.689401-.458501-.157991-.307209-.236985-.751816-.236985-1.333815 0-.58354.07899-1.028148.236985-1.333814.159171-.307206.388976-.460808.689401-.460815m1.569102.06252h1.423691v.393663h-1.091548v.847526c.05267-.02316.105318-.04013.157992-.05094.05267-.01235.105316-.01852.157988-.01853.299218.000005.536201.10575.71095.317244.174734.211502.262108.497868.262108.859109 0 .372046-.08976.661501-.26928.868369-.179549.205322-.432692.307982-.75944.307982-.112492 0-.227396-.01235-.344707-.03705-.116086-.0247-.236385-.06175-.360848-.111153v-.470077c.107726.07565.219017.131995.333922.169042.114904.03705.236379.05558.364461.05558.207047 0 .371036-.07024.491911-.21072.120878-.140489.181329-.331143.181329-.571968 0-.24083-.06045-.431484-.181329-.571965-.120875-.140484-.284864-.210725-.491911-.210725-.09696 0-.193901.01389-.290836.04168-.09576.02779-.1939.07102-.294453.129678v-1.73674m2.341118 0h1.423692v.393663h-1.091554v.847526c.05265-.02316.10532-.04013.157988-.05094.05265-.01235.105323-.01852.157991-.01853.299216.000005.536204.10575.710932.317244.174753.211502.26213.497868.26213.859109 0 .372046-.08977.661501-.26931.868369-.17952.205322-.432663.307982-.759408.307982-.112519 0-.227423-.01235-.344709-.03705-.11611-.0247-.236384-.06175-.36085-.111153v-.470077c.107703.07565.219019.131995.333925.169042.1149.03705.23638.05558.364454.05558.207052 0 .371014-.07024.491914-.21072.120877-.140489.181326-.331143.181326-.571968 0-.24083-.06045-.431484-.181326-.571965-.1209-.140484-.284862-.210725-.491914-.210725-.09696 0-.193896.01389-.290857.04168-.09576.02779-.193895.07102-.294424.129678v-1.73674m2.245955 0h1.72351v.199147l-.97308 3.258118h-.37881l.915617-3.063602h-1.287237v-.393663m3.606816 0h1.423691v.393663h-1.091573v.847526c.05267-.02316.10534-.04013.157989-.05094.05267-.01235.105344-.01852.157991-.01853.299219.000005.536201.10575.710953.317244.174753.211502.26213.497868.26213.859109 0 .372046-.08978.661501-.269307.868369-.179544.205322-.432687.307982-.759435.307982-.112493 0-.227397-.01235-.344688-.03705-.116105-.0247-.23638-.06175-.36087-.111153v-.470077c.107724.07565.219042.131995.333946.169042.114883.03705.23638.05558.364434.05558.207074 0 .371037-.07024.491914-.21072.1209-.140489.181327-.331143.181351-.571968-.000024-.24083-.06045-.431484-.181351-.571965-.120877-.140484-.28484-.210725-.491914-.210725-.09693 0-.193898.01389-.290835.04168-.09576.02779-.193898.07102-.294426.129678v-1.73674m2.400338 3.063607h.592463v-2.637525l-.644533.166725v-.426078l.640945-.166729h.362653v3.063607h.592463v.393658h-1.543991v-.393658m3.053851-2.755629c-.186721.000005-.327346.11888-.421898.356617-.09335.236193-.140024.592035-.140024 1.067511 0 .473939.04667.829776.140024 1.067514.09455.236199.235177.354296.421898.354296.187901 0 .328551-.118097.4219-.354296.09455-.237738.141831-.593575.141831-1.067514 0-.475476-.04728-.831318-.141831-1.067511-.09335-.237737-.233999-.356612-.4219-.356617m0-.370501c.300422.000007.529624.153609.687616.460815.159173.305666.238768.750274.238768 1.333814 0 .581999-.07959 1.026606-.238768 1.333815-.157992.305667-.387194.458501-.687616.458501-.300419 0-.530206-.152834-.6894-.458501-.157989-.307209-.236983-.751816-.236983-1.333815 0-.58354.07899-1.028148.236983-1.333814.159194-.307206.388981-.460808.6894-.460815m2.385982 1.604747c-.162759.000003-.292038.07179-.387773.215358-.09455.143567-.141833.340397-.141833.590489 0 .248545.04728.445374.141833.590488.09573.143571.225014.215357.387773.215357.162783 0 .291462-.07179.386014-.215357.09574-.145114.143613-.341943.143613-.590488 0-.250092-.04788-.446922-.143613-.590489-.09455-.143572-.223231-.215355-.386014-.215358m.71994-1.465808v.426078c-.09096-.05557-.183133-.09802-.276485-.127359-.09217-.02933-.183711-.044-.274677-.044-.239391 0-.4225.104205-.549376.312613-.125668.20841-.197487.523339-.21543.944785.07062-.134305.159173-.236965.265697-.307981.10652-.07256.223807-.108834.351884-.108839.269307.000005.481748.10575.637332.317244.156812.209955.235198.496326.235198.859109 0 .355068-.0814.639892-.244157.854473-.162783.214581-.379416.321878-.649926.321878-.309982 0-.546967-.152834-.71093-.458501-.163988-.307209-.245968-.751816-.245968-1.333815 0-.546493.100529-.981832.301627-1.306024.201079-.325734.470959-.488598.809671-.488605.09096.000007.182532.01158.274704.03474.09335.02316.190283.05789.290836.104202m1.974844-.07642h1.423708v.393663h-1.091576V97.505c.05267-.02316.105344-.04013.157989-.05094.05268-.01235.105347-.01852.157994-.01853.299216.000005.536201.10575.710953.317244.174749.211502.262127.497868.262127.859109 0 .372046-.08978.661501-.269308.868369-.179543.205322-.432689.307982-.759431.307982-.112496 0-.2274-.01235-.344684-.03705-.116112-.0247-.236387-.06175-.36087-.111153v-.470077c.10773.07565.219038.131995.333944.169042.114875.03705.23638.05558.364432.05558.207071 0 .371036-.07024.491911-.21072.120902-.140489.181332-.331143.181351-.571968-.000019-.24083-.06045-.431484-.181351-.571965-.120875-.140484-.28484-.210725-.491911-.210725-.09694 0-.193895.01389-.290835.04168-.09575.02779-.193898.07102-.294443.129678v-1.73674m3.333939.407554-.915617 1.845573h.915617V96.67137m-.09515-.407554h.456003v2.253127h.382402v.389031h-.382402v.815107h-.360849v-.815107h-1.210065v-.451551l1.114911-2.190607m2.215421.307978c-.186724.000005-.327349.11888-.421898.356617-.09335.236193-.140027.592035-.140027 1.067511 0 .473939.04667.829776.140027 1.067514.09455.236199.235174.354296.421898.354296.187903 0 .328548-.118097.4219-.354296.09455-.237738.141827-.593575.141827-1.067514 0-.475476-.04727-.831318-.141827-1.067511-.09335-.237737-.233997-.356612-.4219-.356617m0-.370501c.300419.000007.529624.153609.687618.460815.159165.305666.238767.750274.238767 1.333814 0 .581999-.0796 1.026606-.238767 1.333815-.157994.305667-.387199.458501-.687618.458501-.300425 0-.530228-.152834-.6894-.458501-.157989-.307209-.236983-.751816-.236983-1.333815 0-.58354.07899-1.028148.236983-1.333814.159172-.307206.388975-.460808.6894-.460815m2.385982 1.604747c-.162759.000003-.292039.07179-.38777.215358-.09456.143567-.141833.340397-.141833.590489 0 .248545.04727.445374.141833.590488.09573.143571.225011.215357.38777.215357.162782 0 .29144-.07179.385992-.215357.09576-.145114.143634-.341943.143634-.590488 0-.250092-.04788-.446922-.143634-.590489-.09455-.143572-.22321-.215355-.385992-.215358m.719937-1.465808v.426078c-.09097-.05557-.183136-.09802-.276485-.127359-.09217-.02933-.183732-.044-.274672-.044-.239392 0-.422505.104205-.549376.312613-.125673.20841-.197485.523339-.215454.944785.07061-.134305.159195-.236965.265715-.307981.106524-.07256.223814-.108834.35189-.108839.269303.000005.481748.10575.637327.317244.156812.209955.235203.496326.235203.859109 0 .355068-.0814.639892-.244162.854473-.162778.214581-.379416.321878-.649923.321878-.309982 0-.546971-.152834-.710936-.458501-.16398-.307209-.245962-.751816-.245962-1.333815 0-.546493.100526-.981832.301601-1.306024.201078-.325734.470982-.488598.809699-.488605.09097.000007.182529.01158.274699.03474.09335.02316.190288.05789.290836.104202m1.974847-.07642h1.423712v.393663h-1.091573v.847526c.05267-.02316.105343-.04013.157992-.05094.05267-.01235.105318-.01852.157991-.01853.299216.000005.536198.10575.710948.317244.174757.211502.262108.497868.262132.859109-.000024.372046-.08978.661501-.269306.868369-.179545.205322-.432691.307982-.759433.307982-.112495 0-.227401-.01235-.344688-.03705-.116108-.0247-.236385-.06175-.360873-.111153v-.470077c.10773.07565.219042.131995.333925.169042.114901.03705.236403.05558.364458.05558.207074 0 .371034-.07024.491912-.21072.120899-.140489.181328-.331143.181328-.571968 0-.24083-.06043-.431484-.181328-.571965-.120878-.140484-.284838-.210725-.491912-.210725-.09694 0-.193898.01389-.290835.04168-.09576.02779-.193901.07102-.29445.129678v-1.73674m3.33392.407554-.915588 1.845573h.915588v-1.845573m-.09511-.407554h.455975v2.253127h.382425v.389031h-.382425v.815107h-.36086v-.815107h-1.210054v-.451551l1.114939-2.190607m2.260291 1.542224c-.162781.000003-.292041.07179-.387781.215358-.09456.143567-.141832.340397-.141832.590489 0 .248545.04727.445374.141832.590488.09574.143571.225.215357.387781.215357.162782 0 .291452-.07179.386007-.215357.09574-.145114.143607-.341943.143635-.590488-.000028-.250092-.0479-.446922-.143635-.590489-.09455-.143572-.223225-.215355-.386007-.215358m.719913-1.465808v.426078c-.09095-.05557-.183109-.09802-.276481-.127359-.09213-.02933-.183699-.044-.274672-.044-.239379 0-.422488.104205-.54938.312613-.125651.20841-.197486.523339-.215416.944785.07059-.134305.159176-.236965.265681-.307981.106539-.07256.223847-.108834.351895-.108839.269319.000005.481745.10575.637367.317244.156772.209955.235173.496326.235173.859109 0 .355068-.08139.639892-.24417.854473-.162781.214581-.379408.321878-.64991.321878-.310001 0-.546983-.152834-.710948-.458501-.163989-.307209-.245972-.751816-.245972-1.333815 0-.546493.100561-.981832.301626-1.306024.201091-.325734.470977-.488598.809702-.488605.09095.000007.182516.01158.274675.03474.09334.02316.190325.05789.29083.104202m.804314-.07642h1.423698v.393663h-1.091565v.847526c.05266-.02316.105352-.04013.157989-.05094.05269-.01235.105322-.01852.157983-.01853.299232.000005.536214.10575.710976.317244.174737.211502.262101.497868.262101.859109 0 .372046-.08976.661501-.269288.868369-.17956.205322-.432692.307982-.759438.307982-.112487 0-.227394-.01235-.344672-.03705-.116123-.0247-.236394-.06175-.360889-.111153v-.470077c.107721.07565.219053.131995.333935.169042.114881.03705.236388.05558.364438.05558.207102 0 .371036-.07024.491922-.21072.120915-.140489.181329-.331143.181329-.571968 0-.24083-.06041-.431484-.181329-.571965-.120886-.140484-.28482-.210725-.491922-.210725-.09693 0-.193877.01389-.290828.04168-.09574.02779-.193905.07102-.29444.129678v-1.73674m3.416506 0h1.723516v.199147l-.973071 3.258118h-.378819l.91562-3.063602h-1.287246v-.393663m3.208278.307978c-.186716.000005-.327364.11888-.421919.356617-.09337.236193-.140032.592035-.140032 1.067511 0 .473939.04666.829776.140032 1.067514.09455.236199.235203.354296.421919.354296.187897 0 .32852-.118097.421895-.354296.09455-.237738.141833-.593575.141833-1.067514 0-.475476-.04728-.831318-.141833-1.067511-.09337-.237737-.233998-.356612-.421895-.356617m0-.370501c.300385.000007.529584.153609.687573.460815.159202.305666.238818.750274.238818 1.333814 0 .581999-.07962 1.026606-.238818 1.333815-.157989.305667-.387188.458501-.687573.458501-.300444 0-.530238-.152834-.689438-.458501-.157988-.307209-.23698-.751816-.23698-1.333815 0-.58354.07899-1.028148.23698-1.333814.1592-.307206.388994-.460808.689438-.460815m2.385971 1.604747c-.162781.000003-.292038.07179-.387807.215358-.09453.143567-.141804.340397-.141804.590489 0 .248545.04728.445374.141804.590488.09577.143571.225026.215357.387807.215357.162753 0 .291452-.07179.386006-.215357.09571-.145114.143613-.341943.143613-.590488 0-.250092-.0479-.446922-.143613-.590489-.09455-.143572-.223253-.215355-.386006-.215358m.719913-1.465808v.426078c-.09095-.05557-.183135-.09802-.276481-.127359-.09213-.02933-.183696-.044-.274672-.044-.239379 0-.422514.104205-.549382.312613-.125675.20841-.197482.523339-.215408.944785.07059-.134305.15914-.236965.265678-.307981.10651-.07256.223847-.108834.351892-.108839.26929.000005.481745.10575.637338.317244.156803.209955.235173.496326.235173.859109 0 .355068-.08136.639892-.244141.854473-.162778.214581-.379434.321878-.64991.321878-.309998 0-.546981-.152834-.710946-.458501-.163994-.307209-.245976-.751816-.245976-1.333815 0-.546493.100566-.981832.301631-1.306024.201061-.325734.470945-.488598.80967-.488605.09098.000007.182542.01158.274707.03474.09334.02316.190293.05789.290827.104202m.80432-.07642h1.423695v.393663h-1.091568v.847526c.05266-.02316.105358-.04013.157989-.05094.05266-.01235.105355-.01852.157988-.01853.299229.000005.536212.10575.710942.317244.174766.211502.262133.497868.262133.859109 0 .372046-.08976.661501-.269291.868369-.179555.205322-.43269.307982-.759432.307982-.112519 0-.227402-.01235-.344707-.03705-.116097-.0247-.236362-.06175-.360857-.111153v-.470077c.107721.07565.219053.131995.333933.169042.114883.03705.23639.05558.364437.05558.207073 0 .371038-.07024.491922-.21072.120888-.140489.181332-.331143.181363-.571968-.000031-.24083-.06047-.431484-.181363-.571965-.120884-.140484-.284849-.210725-.491922-.210725-.09692 0-.193906.01389-.290827.04168-.09577.02779-.193903.07102-.294435.129678v-1.73674m3.416501 0h1.723518v.199147l-.973074 3.258118h-.378816l.91562-3.063602h-1.287248v-.393663m3.253129 1.542224c-.162775.000003-.292041.07179-.387779.215358-.09456.143567-.141837.340397-.141837.590489 0 .248545.04728.445374.141837.590488.09574.143571.225004.215357.387779.215357.162785 0 .291446-.07179.386004-.215357.09574-.145114.143612-.341943.143612-.590488 0-.250092-.04787-.446922-.143612-.590489-.09456-.143572-.223219-.215355-.386004-.215358m.71995-1.465808v.426078c-.09099-.05557-.183137-.09802-.276486-.127359-.09216-.02933-.183723-.044-.274701-.044-.239379 0-.422516.104205-.549383.312613-.125678.20841-.197484.523339-.215409.944785.07059-.134305.159167-.236965.26571-.307981.106505-.07256.223814-.108834.35189-.108839.269261.000005.481714.10575.637311.317244.156797.209955.235167.496326.235167.859109 0 .355068-.08135.639892-.244139.854473-.162775.214581-.379402.321878-.64991.321878-.309967 0-.546947-.152834-.71094-.458501-.163965-.307209-.245952-.751816-.245952-1.333815 0-.546493.100536-.981832.301599-1.306024.201063-.325734.470975-.488598.8097-.488605.09095.000007.182514.01158.274673.03474.09338.02316.190296.05789.29087.104202m.709136-.07642h1.723517v.199147l-.97308 3.258118h-.378779l.915582-3.063602h-1.28724v-.393663m2.443458 3.38548v-.426078c.0909.05558.1831.09803.27645.127357.0934.02934.18494.044.2747.044.23938 0 .42189-.103433.54757-.310293.12687-.20841.19927-.524108.21722-.947103-.0694.13276-.15736.234651-.26391.305668-.1065.07101-.2244.10652-.35366.10652-.26811 0-.48056-.104205-.63734-.31262-.15562-.209947-.2334-.496314-.2334-.859104 0-.35506.0814-.639889.24414-.854474.16281-.214581.37944-.321869.64994-.321876.30997.000007.54636.153609.70914.460815.16397.305666.24594.750274.24598 1.333814-.00004.544952-.10056.980291-.30163 1.306029-.19988.324188-.46917.486287-.80789.486287-.091 0-.18314-.01158-.27649-.03473-.0934-.02316-.19029-.0579-.29082-.104208m.72171-1.465803c.16275 0 .29145-.07179.38598-.215357.0957-.143572.14363-.340401.14363-.590493 0-.248545-.0479-.444598-.14363-.588173-.0945-.14511-.22323-.217671-.38598-.217676-.16278.000005-.29205.07257-.38781.217676-.0945.143575-.1418.339628-.1418.588173 0 .250092.0473.446921.1418.590493.0958.143568.22503.215357.38781.215357m1.61938 1.465803v-.426078c.0909.05558.18313.09803.27647.127357.0934.02934.18492.044.27471.044.23935 0 .4219-.103433.54757-.310293.12686-.20841.19926-.524108.21723-.947103-.0695.13276-.1574.234651-.26392.305668-.1065.07101-.22443.10652-.35369.10652-.2681 0-.48053-.104205-.63733-.31262-.1556-.209947-.23338-.496314-.23338-.859104 0-.35506.0814-.639889.24414-.854474.16279-.214581.37943-.321869.64991-.321876.31.000007.54639.153609.70918.460815.16395.305666.24594.750274.24594 1.333814 0 .544952-.10054.980291-.3016 1.306029-.19991.324188-.46917.486287-.80792.486287-.0909 0-.18311-.01158-.27649-.03473-.0933-.02316-.19029-.0579-.29082-.104208m.72171-1.465803c.16279 0 .29145-.07179.38598-.215357.0958-.143572.14364-.340401.14364-.590493 0-.248545-.0479-.444598-.14364-.588173-.0945-.14511-.22319-.217671-.38598-.217676-.16275.000005-.29204.07257-.38778.217676-.0945.143575-.14183.339628-.14183.588173 0 .250092.0473.446921.14183.590493.0957.143568.22503.215357.38778.215357" font-family="Bitstream Vera Sans" font-size="1.58811998" font-weight="400" opacity=".73144902" style="line-height:120.00000477%"/>
    <path fill-rule="evenodd" d="M96.71875 85H99.375v7.4286017h-2.65625z" opacity=".73144902" overflow="visible" style="marker:none"/>
    <g transform="matrix(-.7442 0 0 .53489 152.279 58.9733)">
      <rect width="60.006844" height="8.8477125" x="63.742355" y="11.472268" fill="url(#o)" stroke="#2e3436" stroke-linecap="round" stroke-width=".79249102" overflow="visible" rx="3.7617927" ry="3.6865468" style="marker:none"/>
      <path fill="none" stroke="url(#p)" stroke-width=".5" d="M65.537331 15.136255c.04237.597954.227552 1.407788.525873 1.927739.280374.48867.820897 1.069766 1.31468 1.341035.424074.232973 1.577617.335259 1.577617.335259l52.937809-.08382s1.18608-.40518 1.57762-.754333c.22154-.197561.39733-.570585.52587-.838146.20756-.432034.26767-1.030807.3049-1.508666.0457-.586032.0991-1.474639-.12961-2.016127-.26434-.625849-.7945-1.318535-1.31469-1.755535-.26778-.224962-1.05175-.502889-1.05175-.502889l-53.288376-.08382s-.982002.110858-1.272715.286491c-.562763.339993-1.138255.989073-1.444292 1.557433-.306037.56836-.307716 1.463414-.262936 2.09537v.000009z" opacity=".858657" transform="translate(-1.01647 .574524)"/>
    </g>
    <g transform="matrix(-.49644 0 0 .53489 121.562 68.9924)">
      <rect width="60.006844" height="8.8477125" x="63.742355" y="11.472268" fill="url(#q)" stroke="#2e3436" stroke-linecap="round" stroke-width=".97030002" overflow="visible" rx="3.7617927" ry="3.6865468" style="marker:none"/>
      <path fill="none" stroke="url(#r)" stroke-width=".5" d="M65.537331 15.136255c.04237.597954.227552 1.407788.525873 1.927739.280374.48867.820897 1.069766 1.31468 1.341035.424074.232973 1.577617.335259 1.577617.335259l52.937809-.08382s1.18608-.40518 1.57762-.754333c.22154-.197561.39733-.570585.52587-.838146.20756-.432034.26767-1.030807.3049-1.508666.0457-.586032.0991-1.474639-.12961-2.016127-.26434-.625849-.7945-1.318535-1.31469-1.755535-.26778-.224962-1.05175-.502889-1.05175-.502889l-53.288376-.08382s-.982002.110858-1.272715.286491c-.562763.339993-1.138255.989073-1.444292 1.557433-.306037.56836-.307716 1.463414-.262936 2.09537v.000009z" opacity=".858657" transform="translate(-1.01647 .574524)"/>
    </g>
    <text xml:space="preserve" x="62.397938" y="42.823952" font-family="Bitstream Vera Sans" font-size="5.78030443" font-weight="400" transform="scale(.95346 1.0488)"><tspan x="62.397938" y="42.823952" font-weight="700" style="text-align:justify">Breathe Contact</tspan></text>
    <g transform="matrix(-.7442 0 0 .53489 152.18668 48.881046)">
      <rect width="60.006844" height="8.8477125" x="63.742355" y="11.472268" fill="url(#s)" stroke="#2e3436" stroke-linecap="round" stroke-width=".79249102" overflow="visible" rx="3.7617927" ry="3.6865468" style="marker:none"/>
      <path fill="none" stroke="url(#t)" stroke-width=".5" d="M65.537331 15.136255c.04237.597954.227552 1.407788.525873 1.927739.280374.48867.820897 1.069766 1.31468 1.341035.424074.232973 1.577617.335259 1.577617.335259l52.937809-.08382s1.18608-.40518 1.57762-.754333c.22154-.197561.39733-.570585.52587-.838146.20756-.432034.26767-1.030807.3049-1.508666.0457-.586032.0991-1.474639-.12961-2.016127-.26434-.625849-.7945-1.318535-1.31469-1.755535-.26778-.224962-1.05175-.502889-1.05175-.502889l-53.288376-.08382s-.982002.110858-1.272715.286491c-.562763.339993-1.138255.989073-1.444292 1.557433-.306037.56836-.307716 1.463414-.262936 2.09537v.000009z" opacity=".858657" transform="translate(-1.01647 .574524)"/>
    </g>
  </g>
  <g transform="translate(-3.000001 -3.9999971)">
    <path d="M225.43043 66.344177c0 12.401546-10.05344 22.454985-22.45498 22.454985-12.40155 0-22.45499-10.053439-22.45499-22.454985 0-12.401545 10.05344-22.454984 22.45499-22.454984 12.40154 0 22.45498 10.053439 22.45498 22.454984z" enable-background="new" filter="url(#u)" opacity=".5" overflow="visible" style="marker:none" transform="translate(-96.748027 -35.116755)"/>
    <path fill="url(#v)" d="M225.43043 66.344177c0 12.401546-10.05344 22.454985-22.45498 22.454985-12.40155 0-22.45499-10.053439-22.45499-22.454985 0-12.401545 10.05344-22.454984 22.45499-22.454984 12.40154 0 22.45498 10.053439 22.45498 22.454984z" enable-background="new" overflow="visible" style="marker:none" transform="translate(-98.430433 -35.889193)"/>
    <path fill="url(#w)" d="M225.43043 66.344177c0 12.401546-10.05344 22.454985-22.45498 22.454985-12.40155 0-22.45499-10.053439-22.45499-22.454985 0-12.401545 10.05344-22.454984 22.45499-22.454984 12.40154 0 22.45498 10.053439 22.45498 22.454984z" enable-background="new" opacity=".7" overflow="visible" style="marker:none" transform="translate(-71.402822 -28.02557) scale(.8664)"/>
    <path fill="#fff" stroke="#355c08" d="m100.56513 33.529411-12.12763-.125.125-6.90126 12.00263.125V14.562499l6.96376.0625-.0625 12.003152h11.97111v6.90126h-11.97111L107.40389 45.25l-6.83876.125V33.529411" font-family="Droid Sans" font-size="8.96358585" font-weight="700" opacity=".87804877" style="-inkscape-font-specification:Droid Sans Bold"/>
    <path fill="#fbfbfb" fill-opacity=".11278196" d="M104.59375 9.000001C92.684683 9.000001 83.000004 18.653432 83 30.5625c0 3.511037.853728 6.819192 2.34375 9.75-.656414-2.10897-1-4.332159-1-6.65625.000003-12.395152 10.042348-22.46875 22.4375-22.46875 4.9544 0 9.53508 1.622633 13.25 4.34375C116.11125 11.505259 110.65246 9 104.59375 9z" enable-background="new" filter="url(#x)" overflow="visible" style="marker:none"/>
    <path fill="url(#y)" d="M104.40625 51C116.31532 51 126 41.34657 126 29.437497c0-3.511037-.85373-6.819192-2.34375-9.75.65641 2.10897 1 4.332159 1 6.65625 0 12.395153-10.04235 22.468753-22.4375 22.468753-4.954401 0-9.535075-1.622639-13.249995-4.34375C92.888755 48.49474 98.347539 51 104.40625 51z" enable-background="new" filter="url(#z)" overflow="visible" style="marker:none"/>
  </g>
</svg>