<?xml version="1.0" encoding="UTF-8"?>
<svg xmlns="http://www.w3.org/2000/svg" width="60" height="60" version="1.0" viewBox="0 0 128 128">
  <linearGradient id="a" x1="111.25" x2="12.678" y1="111.25" y2="12.678" gradientUnits="userSpaceOnUse">
    <stop offset=".005618" stop-color="#0032a4"/>
    <stop offset="1" stop-color="#00008d"/>
  </linearGradient>
  <path fill="url(#a)" d="M115.96 109.94c0 3.3291-2.6973 6.0244-6.0244 6.0244h-91.879c-3.3267 0-6.0244-2.6953-6.0244-6.0244V18.063c0-3.3257 2.6978-6.0244 6.0244-6.0244h91.879c3.3272 0 6.0244 2.6987 6.0244 6.0244v91.877z"/>
  <linearGradient id="b" x1="64" x2="64" y1="112.79" y2="15.211" gradientUnits="userSpaceOnUse">
    <stop offset="0" stop-color="#e6e6e6"/>
    <stop offset="1" stop-color="#fff"/>
  </linearGradient>
  <path fill="url(#b)" d="M18.061 15.21c-1.5728 0-2.8516 1.2783-2.8516 2.8511v91.877c0 1.5713 1.2788 2.8516 2.8516 2.8516h91.879c1.5713 0 2.8516-1.2803 2.8516-2.8516v-91.877c0-1.5728-1.2803-2.8511-2.8516-2.8511H18.061z"/>
  <radialGradient id="c" cx="64.752" cy="113.13" r="90.881" gradientUnits="userSpaceOnUse">
    <stop offset="0" stop-color="#b1e1ff"/>
    <stop offset=".49438" stop-color="#428aff"/>
    <stop offset="1" stop-color="#039"/>
  </radialGradient>
  <path fill="url(#c)" d="M19.73 19.732v88.537h88.539V19.732H19.73z"/>
  <linearGradient id="d" x1="64" x2="64" y1="11.195" y2="49.628" gradientUnits="userSpaceOnUse">
    <stop offset="0" stop-color="#fff"/>
    <stop offset="1" stop-color="#428aff"/>
  </linearGradient>
  <path fill="url(#d)" d="M98.27 20.992H29.731c-3.0469 1.458-5.7617 3.1069-8.0801 4.9121.68018 9.0078 2.2549 26.899 2.2549 29.148 2.877 0 21.884 5.125 40.095 5.125 18.938 0 37.104-5.125 40.096-5.125 0-2.249 1.5752-20.138 2.2559-29.146-2.3184-1.8057-5.0342-3.4551-8.082-4.9136z"/>
  <linearGradient id="e" x1="64" x2="64" y1="101.2" y2="26.801" gradientUnits="userSpaceOnUse">
    <stop offset="0" stop-color="#b1e1ff"/>
    <stop offset=".49438" stop-color="#428aff"/>
    <stop offset="1" stop-color="#039"/>
  </linearGradient>
  <path fill="url(#e)" d="M38.304 36.035c0 3.4224 1.9512 6.4966 4.9546 8.0908-.01367.77344-.02539 1.585-.02539 2.5063 0 2.5747.08203 5.646.30957 8.7202-8.4922 3.9629-13.965 12.405-13.965 21.737 0 13.293 10.815 24.108 24.109 24.108 13.285 0 24.094-10.8 24.108-24.081 2.7061 4.5078 5.7412 10.503 5.7412 14.796 0 .1377-.0039.27246-.0098.40625-.000976.01367-.000976.02832-.000976.04199 0 .32812.17773.63281.4668.79102.30176.16699.6709.14746.95508-.04883l13.089-9.123c.25488-.17774.40137-.47266.38672-.7832-.013671-.30957-.18555-.59082-.45508-.74414-.22852-.13086-5.3643-2.96-10.239-1.4951-5.2705-12.811-8.9727-19.177-10.984-18.842.04883-.0083.09863-.01221.14844-.01221h-23.029c-.16455-1.0425-.68896-4.3589-.90478-5.7275h18.773c.5 0 .9043-.40527.9043-.9043v-4.3638c0-.49951-.4043-.9043-.9043-.9043h-21.279c.0376-1.2656.14062-4.6641.1665-5.5337 3.646-1.3013 6.1523-4.7422 6.1523-8.6353 0-5.0918-4.1426-9.2344-9.2344-9.2344-5.0918 0-9.2339 4.1426-9.2339 9.2344zm4.9595 7.6064v-.01855.01855zm-8.7046 33.448c0-6.8389 3.6606-13.007 9.5869-16.437.66553 4.2852 1.6831 7.437 3.0698 9.2515.1709.22363.43701.35547.71875.35547h23.497c.88379 2.2559 1.3799 4.5488 1.3799 6.8301 0 10.547-8.5791 19.127-19.124 19.127-10.547 0-19.128-8.5801-19.128-19.127z"/>
  <path fill="#fff" d="M97.52 83.238s-5.5537-3.1729-10.314-1.1904c0 0-7.9316-19.436-10.312-19.04H53.093l-1.1904-7.5361h19.832v-4.3638h-22.211l.21338-7.0732c3.5273-.96875 6.1333-4.1631 6.1333-8 0-4.5991-3.7295-8.3301-8.3301-8.3301-4.6001 0-8.3296 3.731-8.3296 8.3301 0 3.3994 2.0415 6.311 4.9595 7.6064-.06787 3.333-.04785 7.8403.31006 12.239-8.2139 3.5693-13.996 11.68-13.996 21.209 0 12.817 10.39 23.204 23.205 23.204 12.815 0 23.206-10.387 23.206-23.204 0-1.2236-.1084-2.4199-.29394-3.5918 3.2627 4.9678 8.0928 13.313 7.8311 18.863l13.09-9.123zM53.687 97.121c-11.047 0-20.032-8.9863-20.032-20.031 0-7.8525 4.5762-14.602 11.17-17.881.54834 4.2363 1.4995 8.0391 3.1094 10.146h24.154c1.0137 2.3896 1.627 4.9795 1.627 7.7344 0 11.045-8.9844 20.031-20.028 20.031z"/>
  <path fill="none" d="M0 128V0h128v128"/>
</svg>