<?xml version="1.0" encoding="UTF-8" standalone="no"?>
<svg height="48" width="48" xmlns="http://www.w3.org/2000/svg" xmlns:xlink="http://www.w3.org/1999/xlink">
  <defs>
    <linearGradient id="a" gradientUnits="userSpaceOnUse" x1="11.875" x2="32.125" y1="-15.125" y2="33.5">
      <stop offset="0" stop-color="#fff"/>
      <stop offset="1" stop-color="#fff" stop-opacity="0"/>
    </linearGradient>
    <linearGradient id="b" gradientUnits="userSpaceOnUse" x1="52.00001" x2=".00001" y1="49.94201" y2=".00001">
      <stop offset="0" stop-color="#0b5dbd"/>
      <stop offset="1" stop-color="#0dc4fb"/>
    </linearGradient>
    <linearGradient id="c" gradientUnits="userSpaceOnUse" x1="18" x2="37" y1="13" y2="33">
      <stop offset="0"/>
      <stop offset="1" stop-opacity="0"/>
    </linearGradient>
  </defs>
  <rect fill="url(#b)" height="40" rx="1" stroke-linejoin="round" stroke-width=".5" width="40" x="4" y="4"/>
  <path d="m5 4c-.5540042 0-1 .4459933-1 1v7 6 16 9c0 .554007.4459958 1 1 1h1 2 2v-8h28v8h2 2 1c.554004 0 1-.445993 1-1v-38c0-.5540067-.445996-1-1-1h-1v2h-2v-2h-2v6 2h-28v-2-6h-2v2h-2v-2zm1 4h2v2h-2zm34 0h2v2h-2zm-34 4h2v2h-2zm34 0h2v2h-2zm-34 4h2v2h-2zm4-2h28v2 18h-28v-2-16zm30 2h2v2h-2zm-34 4h2v2h-2zm34 0h2v2h-2zm-34 4h2v2h-2zm34 0h2v2h-2zm-34 4h2v2h-2zm34 0h2v2h-2zm-34 4h2v2h-2zm34 0h2v2h-2zm-34 4h2v2h-2zm34 0h2v2h-2zm-34 4h2v2h-2zm34 0h2v2h-2z" opacity=".656" stroke-linejoin="round" stroke-width=".5"/>
  <path d="m3.99999 42.00001v1c0 .55401.446 1 1 1h38c.554 0 1-.44599 1-1v-1c0 .55401-.446 1-1 1h-38c-.554 0-1-.44599-1-1z" opacity=".3"/>
  <path d="m3.99999 6.00001v-1c0-.55401.446-1 1-1h38c.554 0 1 .44599 1 1v1c0-.55401-.446-1-1-1h-38c-.554 0-1 .44599-1 1z" fill="#fff" opacity=".3"/>
  <path d="m28 14-12 12v4l14 14h13c.554004 0 1-.445993 1-1v-13z" fill="url(#c)" fill-rule="evenodd" opacity=".242"/>
  <path d="m28 14-11.992 11.992h-.004v4.01h4.01v-.004l11.992-11.992-.002-.002.002-.002-4-4-.002.002zm-1.998 3.412 2.59 2.59-7.588 7.588v-1.59h-2v-1.59zm-7.998 7.998v1.59h2v1.59l-.41.41h-1.59l-1-1v-1.59zm5 3.59-1 1h10v-1z" fill="#fff" fill-rule="evenodd" opacity=".872"/>
  <g>
    <g transform="translate(-.00001 .00001)">
      <rect fill="url(#a)" height="40" opacity=".436" rx="1" width="40" x="4" y="4"/>
    </g>
  </g>
  <rect fill="#fff" fill-rule="evenodd" height="1" opacity=".872" rx="0" ry="1" width="12" x="18" y="31"/>
</svg>
