<?xml version="1.0" encoding="UTF-8" standalone="no"?>
<!-- Created with Inkscape (http://www.inkscape.org/) -->

<svg
   xmlns:osb="http://www.openswatchbook.org/uri/2009/osb"
   xmlns:dc="http://purl.org/dc/elements/1.1/"
   xmlns:cc="http://creativecommons.org/ns#"
   xmlns:rdf="http://www.w3.org/1999/02/22-rdf-syntax-ns#"
   xmlns:svg="http://www.w3.org/2000/svg"
   xmlns="http://www.w3.org/2000/svg"
   xmlns:xlink="http://www.w3.org/1999/xlink"
   xmlns:sodipodi="http://sodipodi.sourceforge.net/DTD/sodipodi-0.dtd"
   xmlns:inkscape="http://www.inkscape.org/namespaces/inkscape"
   width="256"
   height="256"
   id="svg2"
   version="1.1"
   inkscape:version="0.48.1 r9760"
   sodipodi:docname="adobe-reader.svg">
  <defs
     id="defs4">
    <linearGradient
       id="linearGradient3778"
       osb:paint="solid">
      <stop
         style="stop-color:#ae0000;stop-opacity:1;"
         offset="0"
         id="stop3780" />
    </linearGradient>
    <linearGradient
       id="linearGradient3614">
      <stop
         style="stop-color:#ffffff;stop-opacity:1;"
         offset="0"
         id="stop3616" />
      <stop
         style="stop-color:#dcdcdc;stop-opacity:1;"
         offset="1"
         id="stop3618" />
    </linearGradient>
    <linearGradient
       id="linearGradient3606">
      <stop
         style="stop-color:#fbbbb4;stop-opacity:0.87096775;"
         offset="0"
         id="stop3608" />
      <stop
         id="stop3774"
         offset="0.21190935"
         style="stop-color:#e95c4c;stop-opacity:0.37419355;" />
      <stop
         id="stop3772"
         offset="0.29029366"
         style="stop-color:#e5796e;stop-opacity:0.85161293;" />
      <stop
         id="stop3768"
         offset="0.32815334"
         style="stop-color:#ec4f3f;stop-opacity:0.41290322;" />
      <stop
         id="stop3764"
         offset="0.39760342"
         style="stop-color:#fa7c73;stop-opacity:0.81935483;" />
      <stop
         style="stop-color:#86100b;stop-opacity:0.14193548;"
         offset="0.75"
         id="stop3766" />
      <stop
         id="stop3770"
         offset="0.875"
         style="stop-color:#f51812;stop-opacity:0.67096776;" />
      <stop
         style="stop-color:#700000;stop-opacity:0.26451612;"
         offset="1"
         id="stop3610" />
    </linearGradient>
    <inkscape:perspective
       sodipodi:type="inkscape:persp3d"
       inkscape:vp_x="0 : 526.18109 : 1"
       inkscape:vp_y="0 : 1000 : 0"
       inkscape:vp_z="744.09448 : 526.18109 : 1"
       inkscape:persp3d-origin="372.04724 : 350.78739 : 1"
       id="perspective10" />
    <inkscape:perspective
       id="perspective2824"
       inkscape:persp3d-origin="0.5 : 0.33333333 : 1"
       inkscape:vp_z="1 : 0.5 : 1"
       inkscape:vp_y="0 : 1000 : 0"
       inkscape:vp_x="0 : 0.5 : 1"
       sodipodi:type="inkscape:persp3d" />
    <linearGradient
       inkscape:collect="always"
       xlink:href="#linearGradient3614"
       id="linearGradient3620"
       x1="23.999998"
       y1="1010.4678"
       x2="23.999998"
       y2="1046.2566"
       gradientUnits="userSpaceOnUse"
       gradientTransform="matrix(5.1147003,0,0,5.1147003,16.105598,-4336.8268)" />
    <radialGradient
       inkscape:collect="always"
       xlink:href="#linearGradient3606"
       id="radialGradient3597"
       cx="12.28278"
       cy="1019.2319"
       fx="12.28278"
       fy="1019.2319"
       r="22"
       gradientUnits="userSpaceOnUse"
       gradientTransform="matrix(2.9381503,13.614978,-14.854052,3.2055452,15157.248,-2573.6215)" />
    <linearGradient
       inkscape:collect="always"
       xlink:href="#linearGradient3778"
       id="linearGradient3782"
       x1="1.1"
       y1="924.71045"
       x2="255.40359"
       y2="924.71045"
       gradientUnits="userSpaceOnUse" />
  </defs>
  <sodipodi:namedview
     id="base"
     pagecolor="#ffffff"
     bordercolor="#666666"
     borderopacity="1.0"
     inkscape:pageopacity="0.0"
     inkscape:pageshadow="2"
     inkscape:zoom="1.4142136"
     inkscape:cx="21.311052"
     inkscape:cy="21.817549"
     inkscape:document-units="px"
     inkscape:current-layer="layer1"
     showgrid="false"
     inkscape:window-width="1280"
     inkscape:window-height="970"
     inkscape:window-x="0"
     inkscape:window-y="26"
     inkscape:window-maximized="1" />
  <metadata
     id="metadata7">
    <rdf:RDF>
      <cc:Work
         rdf:about="">
        <dc:format>image/svg+xml</dc:format>
        <dc:type
           rdf:resource="http://purl.org/dc/dcmitype/StillImage" />
        <dc:title></dc:title>
      </cc:Work>
    </rdf:RDF>
  </metadata>
  <g
     inkscape:label="Livello 1"
     inkscape:groupmode="layer"
     id="layer1"
     transform="translate(0,-796.3622)">
    <rect
       ry="123.74368"
       y="798.05865"
       x="1.6"
       height="253.3036"
       width="253.3036"
       id="rect3776"
       style="fill:#e80000;fill-opacity:1;stroke:none" />
    <rect
       style="fill:url(#radialGradient3597);fill-opacity:1;stroke:url(#linearGradient3782);opacity:1;stroke-opacity:1;stroke-linejoin:round;stroke-linecap:round;stroke-width:1.60000001999999997;stroke-miterlimit:4;stroke-dasharray:0.16000000000000000, 0.16000000000000000;stroke-dashoffset:13.44000020000000006;"
       id="rect3604"
       width="253.3036"
       height="253.3036"
       x="1.6"
       y="798.05865"
       ry="123.74368" />
    <path
       sodipodi:nodetypes="cssssssssssssssssccsssssscccsscccsssccssssscccc"
       id="path3626"
       d="m 52.235897,1013.813 c -4.070369,-2.2085 -4.485623,-5.0548 -1.707102,-11.705 2.648355,-6.33863 8.819744,-13.67723 16.100955,-19.14638 8.750978,-6.57291 10.862813,-7.10637 12.943186,-7.96308 1.254887,-0.51607 2.947494,-1.01117 0.669412,1.63517 -0.60175,0.69918 -2.226741,3.97259 -6.997871,8.82797 -7.837269,7.97539 -16.758119,20.12132 -16.758119,22.81572 0,4.7843 12.639659,-7.2854 21.623093,-20.64863 14.018872,-20.85313 36.034219,-67.5662 42.378579,-89.92153 2.05812,-7.25111 2.04279,-8.13187 -0.29609,-17.00178 -3.17804,-12.05279 -4.53323,-38.46766 -2.25563,-43.96647 1.51493,-3.65752 2.14822,-3.96953 8.05711,-3.96953 5.7467,0 6.55094,0.36315 7.7412,3.49386 2.82144,7.42092 -1.20317,11.04315 -4.71797,4.24674 -1.67039,-3.23045 -2.43688,-3.77721 -3.32632,-2.3722 -1.38268,2.18295 -1.30162,22.42643 0.11207,27.9815 1.19508,4.69734 1.05152,5.02059 3.18705,-7.1928 1.31032,-7.49406 1.76728,-8.94715 2.5968,-7.52014 l 0.86062,2.28882 c 0.12495,0.43475 0.8761,3.7143 0.58563,16.21872 -0.44988,19.36681 -0.2788,21.25823 2.48985,27.51862 7.70785,17.42885 22.6788,35.116 35.07646,41.44083 4.85943,2.4791 6.70154,2.64993 19.84261,1.8413 23.95616,-1.47406 37.47436,2.11851 38.44099,10.21764 0.48155,4.03498 -1.1084,4.35823 -5.92337,1.20297 -2.63017,-1.72366 -6.75905,-2.33741 -17.28298,-2.57013 l -13.82729,-0.30689 9.80887,3.30052 c 5.63312,1.89499 13.02628,3.34757 17.36659,3.40997 8.2541,0.11763 10.24361,1.46178 6.9912,4.71422 -4.68064,4.67994 -29.04633,1.16666 -47.01654,-6.78056 l -7.2087,-3.1885 -14.5399,2.48114 c -16.93633,2.8898 -31.94674,6.52329 -46.11854,11.16436 -9.85294,3.22585 -10.19307,3.48209 -14.290189,10.73218 -14.315878,25.33317 -29.137768,40.93857 -38.678359,40.72487 -1.281908,0 -3.949202,-0.9309 -5.927326,-2.0035 z m 72.258633,-59.60827 c 9.44264,-3.30819 31.74567,-8.95636 35.36478,-8.95636 2.22451,0 1.4564,-0.95491 -3.50663,-4.35823 -7.34711,-5.039 -17.05479,-16.499 -23.28302,-27.48742 -2.38497,-4.20787 -4.61298,-7.15035 -4.95113,-6.53915 -0.33813,0.61377 -2.02756,5.50649 -3.75422,10.87948 -1.72667,5.37197 -6.96486,17.5291 -11.64042,27.01483 l -8.50102,17.24676 6.53924,-2.6402 c 3.59659,-1.45156 9.77618,-3.77363 13.73242,-5.15971 z"
       style="fill:#de4016;fill-opacity:1;stroke:none"
       inkscape:connector-curvature="0" />
    <path
       sodipodi:nodetypes="cssssssssssssssssccsssssscccsscccsssccssssscccc"
       id="path3622"
       d="m 52.235897,1011.1002 c -4.070369,-2.2085 -4.485623,-5.0549 -1.707102,-11.70503 2.648355,-6.3386 8.819744,-13.67724 16.100955,-19.14639 8.750978,-6.5729 10.862813,-7.10636 12.943186,-7.96307 1.254887,-0.51608 2.947494,-1.01118 0.669412,1.63516 -0.60175,0.69919 -2.226741,3.97259 -6.997871,8.82798 -7.837269,7.97532 -16.758119,20.12125 -16.758119,22.81565 0,4.7844 12.639659,-7.28533 21.623093,-20.64855 14.018872,-20.85315 36.034219,-67.56621 42.378579,-89.92155 2.05812,-7.25111 2.04279,-8.13186 -0.29609,-17.00178 -3.17804,-12.05279 -4.53323,-38.46765 -2.25563,-43.96647 1.51493,-3.65752 2.14822,-3.96952 8.05711,-3.96952 5.7467,0 6.55094,0.36314 7.7412,3.49385 2.82144,7.42092 -1.20317,11.04316 -4.71797,4.24674 -1.67039,-3.23045 -2.43688,-3.7772 -3.32632,-2.3722 -1.38268,2.18295 -1.30162,22.42643 0.11207,27.98151 1.19508,4.69733 1.05152,5.02058 3.18705,-7.19281 1.31032,-7.49406 1.76728,-8.94715 2.5968,-7.52014 l 0.86062,2.28882 c 0.12495,0.43476 0.8761,3.7143 0.58563,16.21872 -0.44988,19.36681 -0.2788,21.25823 2.48985,27.51862 7.70785,17.42885 22.6788,35.116 35.07646,41.44083 4.85943,2.4791 6.70154,2.64993 19.84261,1.8413 23.95616,-1.47406 37.47436,2.11851 38.44099,10.21764 0.48155,4.03499 -1.1084,4.35823 -5.92337,1.20297 -2.63017,-1.72365 -6.75905,-2.33741 -17.28298,-2.57013 l -13.82729,-0.30689 9.80887,3.30052 c 5.63312,1.89499 13.02628,3.34757 17.36659,3.40997 8.2541,0.11763 10.24361,1.46178 6.9912,4.71422 -4.68064,4.67995 -29.04633,1.16666 -47.01654,-6.78056 l -7.2087,-3.1885 -14.5399,2.48114 c -16.93633,2.88981 -31.94674,6.52329 -46.11854,11.16437 -9.85294,3.22584 -10.19307,3.48209 -14.290189,10.73217 -14.315878,25.33318 -29.137768,40.93861 -38.678359,40.72481 -1.281908,0 -3.949202,-0.9308 -5.927326,-2.0034 z m 72.258633,-59.60831 c 9.44264,-3.30819 31.74567,-8.95635 35.36478,-8.95635 2.22451,0 1.4564,-0.95492 -3.50663,-4.35824 -7.34711,-5.039 -17.05479,-16.499 -23.28302,-27.48742 -2.38497,-4.20787 -4.61298,-7.15035 -4.95113,-6.53914 -0.33813,0.61376 -2.02756,5.50649 -3.75422,10.87947 -1.72667,5.37197 -6.96486,17.52911 -11.64042,27.01483 l -8.50102,17.24677 6.53924,-2.64021 c 3.59659,-1.45155 9.77618,-3.77363 13.73242,-5.15971 z"
       style="fill:#640000;fill-opacity:1;stroke:none"
       inkscape:connector-curvature="0" />
    <path
       style="fill:url(#linearGradient3620);fill-opacity:1;stroke:none"
       d="m 52.235897,1012.4566 c -4.070369,-2.2086 -4.485623,-5.0549 -1.707102,-11.705 2.648355,-6.33863 8.819744,-13.67723 16.100955,-19.1464 8.750978,-6.57291 10.862813,-7.10636 12.943186,-7.96308 1.254887,-0.51607 2.947494,-1.01117 0.669412,1.63517 -0.60175,0.69918 -2.226741,3.97259 -6.997871,8.82798 -7.837269,7.9753 -16.758119,20.12123 -16.758119,22.81573 0,4.7843 12.639659,-7.28543 21.623093,-20.64863 14.018872,-20.85315 36.034219,-67.56622 42.378579,-89.92155 2.05812,-7.25111 2.04279,-8.13186 -0.29609,-17.00178 -3.17804,-12.05279 -4.53323,-38.46766 -2.25563,-43.96647 1.51493,-3.65752 2.14822,-3.96952 8.05711,-3.96952 5.7467,0 6.55094,0.36314 7.7412,3.49385 2.82144,7.42092 -1.20317,11.04315 -4.71797,4.24674 -1.67039,-3.23045 -2.43688,-3.77721 -3.32632,-2.3722 -1.38268,2.18295 -1.30162,22.42643 0.11207,27.9815 1.19508,4.69734 1.05152,5.02059 3.18705,-7.1928 1.31032,-7.49406 1.76728,-8.94715 2.5968,-7.52014 l 0.86062,2.28882 c 0.12495,0.43476 0.8761,3.7143 0.58563,16.21872 -0.44988,19.36681 -0.2788,21.25823 2.48985,27.51862 7.70785,17.42885 22.6788,35.116 35.07646,41.44083 4.85943,2.4791 6.70154,2.64993 19.84261,1.8413 23.95616,-1.47406 37.47436,2.11851 38.44099,10.21764 0.48155,4.03499 -1.1084,4.35823 -5.92337,1.20297 -2.63017,-1.72366 -6.75905,-2.33741 -17.28298,-2.57013 l -13.82729,-0.30689 9.80887,3.30052 c 5.63312,1.89499 13.02628,3.34757 17.36659,3.40997 8.2541,0.11763 10.24361,1.46178 6.9912,4.71422 -4.68064,4.67995 -29.04633,1.16666 -47.01654,-6.78056 l -7.2087,-3.1885 -14.5399,2.48114 c -16.93633,2.88981 -31.94674,6.52329 -46.11854,11.16436 -9.85294,3.22585 -10.19307,3.48209 -14.290189,10.73218 -14.315878,25.33316 -29.137768,40.93859 -38.678359,40.72489 -1.281908,0 -3.949202,-0.9309 -5.927326,-2.0035 z m 72.258633,-59.60829 c 9.44264,-3.30819 31.74567,-8.95636 35.36478,-8.95636 2.22451,0 1.4564,-0.95491 -3.50663,-4.35823 -7.34711,-5.039 -17.05479,-16.499 -23.28302,-27.48742 -2.38497,-4.20787 -4.61298,-7.15035 -4.95113,-6.53914 -0.33813,0.61376 -2.02756,5.50648 -3.75422,10.87947 -1.72667,5.37197 -6.96486,17.52911 -11.64042,27.01483 l -8.50102,17.24676 6.53924,-2.6402 c 3.59659,-1.45156 9.77618,-3.77363 13.73242,-5.15971 z"
       id="path2830"
       sodipodi:nodetypes="cssssssssssssssssccsssssscccsscccsssccssssscccc"
       inkscape:connector-curvature="0" />
  </g>
</svg>
