<?xml version="1.0" encoding="UTF-8" standalone="no"?>
<!-- Created with Inkscape (http://www.inkscape.org/) -->

<svg
   xmlns:dc="http://purl.org/dc/elements/1.1/"
   xmlns:cc="http://creativecommons.org/ns#"
   xmlns:rdf="http://www.w3.org/1999/02/22-rdf-syntax-ns#"
   xmlns:svg="http://www.w3.org/2000/svg"
   xmlns="http://www.w3.org/2000/svg"
   xmlns:xlink="http://www.w3.org/1999/xlink"
   xmlns:sodipodi="http://sodipodi.sourceforge.net/DTD/sodipodi-0.dtd"
   xmlns:inkscape="http://www.inkscape.org/namespaces/inkscape"
   sodipodi:docname="gold-fish.svg"
   inkscape:version="0.92.5 (2060ec1f9f, 2020-04-08)"
   id="svg8"
   version="1.1"
   viewBox="0 0 255 255"
   height="255mm"
   width="255mm">
  <defs
     id="defs2">
    <linearGradient
       inkscape:collect="always"
       id="linearGradient931">
      <stop
         style="stop-color:#e59d67;stop-opacity:1"
         offset="0"
         id="stop927" />
      <stop
         style="stop-color:#c15a0d;stop-opacity:0;"
         offset="1"
         id="stop929" />
    </linearGradient>
    <linearGradient
       inkscape:collect="always"
       id="linearGradient930">
      <stop
         style="stop-color:#914513;stop-opacity:1;"
         offset="0"
         id="stop926" />
      <stop
         style="stop-color:#914513;stop-opacity:0;"
         offset="1"
         id="stop928" />
    </linearGradient>
    <linearGradient
       inkscape:collect="always"
       id="linearGradient918">
      <stop
         style="stop-color:#ffffff;stop-opacity:0.04301075"
         offset="0"
         id="stop914" />
      <stop
         style="stop-color:#ffc69c;stop-opacity:0.48387095"
         offset="1"
         id="stop916" />
    </linearGradient>
    <linearGradient
       inkscape:collect="always"
       id="linearGradient911">
      <stop
         style="stop-color:#c46413;stop-opacity:1;"
         offset="0"
         id="stop907" />
      <stop
         style="stop-color:#c46413;stop-opacity:0;"
         offset="1"
         id="stop909" />
    </linearGradient>
    <linearGradient
       inkscape:collect="always"
       id="linearGradient881">
      <stop
         style="stop-color:#ed7b1b;stop-opacity:1;"
         offset="0"
         id="stop876" />
      <stop
         style="stop-color:#ed7b1b;stop-opacity:0;"
         offset="1"
         id="stop878" />
    </linearGradient>
    <linearGradient
       id="linearGradient872"
       inkscape:collect="always">
      <stop
         id="stop868"
         offset="0"
         style="stop-color:#fc7814;stop-opacity:0.82258064" />
      <stop
         style="stop-color:#fc7814;stop-opacity:0.22580644"
         offset="0.63287717"
         id="stop874" />
      <stop
         id="stop923"
         offset="0.89754009"
         style="stop-color:#994f17;stop-opacity:0.78431374" />
      <stop
         id="stop870"
         offset="1"
         style="stop-color:#763a0c;stop-opacity:1" />
    </linearGradient>
    <linearGradient
       inkscape:collect="always"
       id="linearGradient855">
      <stop
         style="stop-color:#fc7814;stop-opacity:1;"
         offset="0"
         id="stop851" />
      <stop
         style="stop-color:#fc7814;stop-opacity:0.33870968"
         offset="1"
         id="stop853" />
    </linearGradient>
    <linearGradient
       inkscape:collect="always"
       id="linearGradient890">
      <stop
         style="stop-color:#b81509;stop-opacity:1"
         offset="0"
         id="stop886" />
      <stop
         id="stop862"
         offset="0.3012802"
         style="stop-color:#b31e0b;stop-opacity:1" />
      <stop
         style="stop-color:#ee8435;stop-opacity:1"
         offset="1"
         id="stop888" />
    </linearGradient>
    <linearGradient
       inkscape:collect="always"
       id="linearGradient873">
      <stop
         style="stop-color:#841010;stop-opacity:1"
         offset="0"
         id="stop869" />
      <stop
         style="stop-color:#cc8383;stop-opacity:1"
         offset="1"
         id="stop871" />
    </linearGradient>
    <linearGradient
       inkscape:collect="always"
       id="linearGradient841">
      <stop
         style="stop-color:#f29191;stop-opacity:1;"
         offset="0"
         id="stop837" />
      <stop
         style="stop-color:#ffffff;stop-opacity:1"
         offset="1"
         id="stop839" />
    </linearGradient>
    <linearGradient
       inkscape:collect="always"
       id="linearGradient831">
      <stop
         style="stop-color:#ffffff;stop-opacity:0.8924731"
         offset="0"
         id="stop827" />
      <stop
         style="stop-color:#ffffff;stop-opacity:0.40860215"
         offset="1"
         id="stop829" />
    </linearGradient>
    <radialGradient
       inkscape:collect="always"
       xlink:href="#linearGradient831"
       id="radialGradient835"
       cx="-81.852005"
       cy="178.74365"
       fx="-81.852005"
       fy="178.74365"
       r="1.5964243"
       gradientTransform="matrix(1.0000022,0,0,1.2432127,1.8336326e-4,-43.583713)"
       gradientUnits="userSpaceOnUse" />
    <linearGradient
       inkscape:collect="always"
       xlink:href="#linearGradient841"
       id="linearGradient843"
       x1="-82.85022"
       y1="174.89067"
       x2="-73.792526"
       y2="190.10551"
       gradientUnits="userSpaceOnUse" />
    <linearGradient
       inkscape:collect="always"
       xlink:href="#linearGradient841"
       id="linearGradient858"
       gradientUnits="userSpaceOnUse"
       x1="-82.85022"
       y1="174.89067"
       x2="-73.792526"
       y2="190.10551" />
    <radialGradient
       inkscape:collect="always"
       xlink:href="#linearGradient831"
       id="radialGradient860"
       gradientUnits="userSpaceOnUse"
       gradientTransform="matrix(1.0000022,0,0,1.2432127,1.8336326e-4,-43.583713)"
       cx="-81.852005"
       cy="178.74365"
       fx="-81.852005"
       fy="178.74365"
       r="1.5964243" />
    <linearGradient
       inkscape:collect="always"
       xlink:href="#linearGradient873"
       id="linearGradient875"
       x1="-16.545343"
       y1="184.40927"
       x2="-16.551798"
       y2="203.28726"
       gradientUnits="userSpaceOnUse" />
    <radialGradient
       inkscape:collect="always"
       xlink:href="#linearGradient890"
       id="radialGradient892"
       cx="137.54747"
       cy="171.01274"
       fx="137.54747"
       fy="171.01274"
       r="30.46709"
       gradientTransform="matrix(1.2579182,0,0,2.6470867,-61.756833,-275.22263)"
       gradientUnits="userSpaceOnUse" />
    <linearGradient
       inkscape:collect="always"
       xlink:href="#linearGradient855"
       id="linearGradient880"
       x1="150.63666"
       y1="215.87793"
       x2="184.27478"
       y2="237.09973"
       gradientUnits="userSpaceOnUse"
       gradientTransform="matrix(1.2579184,0,0,1.2579184,-61.756856,-50.211061)" />
    <linearGradient
       inkscape:collect="always"
       xlink:href="#linearGradient855"
       id="linearGradient888"
       x1="137.56677"
       y1="222.47794"
       x2="164.67842"
       y2="263.26785"
       gradientUnits="userSpaceOnUse"
       gradientTransform="matrix(1.2579184,0,0,1.2579184,-61.756856,-50.211061)" />
    <linearGradient
       inkscape:collect="always"
       xlink:href="#linearGradient855"
       id="linearGradient896"
       x1="122.60049"
       y1="219.46584"
       x2="117.10408"
       y2="245.64856"
       gradientUnits="userSpaceOnUse"
       gradientTransform="matrix(1.2579184,0,0,1.2579184,-61.756856,-50.211061)" />
    <linearGradient
       inkscape:collect="always"
       xlink:href="#linearGradient855"
       id="linearGradient904"
       x1="100.61707"
       y1="207.07307"
       x2="51.866508"
       y2="204.86819"
       gradientUnits="userSpaceOnUse"
       gradientTransform="matrix(1.2579184,0,0,1.2579184,-61.756856,-50.211061)" />
    <radialGradient
       inkscape:collect="always"
       xlink:href="#linearGradient872"
       id="radialGradient866"
       cx="204.65244"
       cy="188.90222"
       fx="204.65244"
       fy="188.90222"
       r="54.137447"
       gradientTransform="matrix(-1.9064145,0.13444256,-0.09796757,-1.3891935,629.58022,396.98117)"
       gradientUnits="userSpaceOnUse" />
    <linearGradient
       inkscape:collect="always"
       xlink:href="#linearGradient881"
       id="linearGradient883"
       x1="156.51639"
       y1="163.56091"
       x2="228.28328"
       y2="161.64919"
       gradientUnits="userSpaceOnUse"
       gradientTransform="matrix(1,-0.20350845,0,1,0.63724359,29.940677)" />
    <linearGradient
       inkscape:collect="always"
       xlink:href="#linearGradient881"
       id="linearGradient889"
       gradientUnits="userSpaceOnUse"
       gradientTransform="matrix(1,-0.03815784,0,1,1.9117308,8.8399224)"
       x1="156.51639"
       y1="163.56091"
       x2="228.28328"
       y2="161.64919" />
    <linearGradient
       inkscape:collect="always"
       xlink:href="#linearGradient881"
       id="linearGradient893"
       gradientUnits="userSpaceOnUse"
       gradientTransform="matrix(0.87280722,0.10340657,0,1.0968418,23.412594,-22.844008)"
       x1="156.51639"
       y1="163.56091"
       x2="228.28328"
       y2="161.64919" />
    <linearGradient
       inkscape:collect="always"
       xlink:href="#linearGradient881"
       id="linearGradient897"
       gradientUnits="userSpaceOnUse"
       gradientTransform="matrix(0.76424913,0.29181497,-0.36833901,0.88197108,104.82444,-10.035078)"
       x1="156.51639"
       y1="163.56091"
       x2="209.18419"
       y2="159.1756" />
    <linearGradient
       inkscape:collect="always"
       xlink:href="#linearGradient881"
       id="linearGradient901"
       gradientUnits="userSpaceOnUse"
       gradientTransform="matrix(0.79569626,0.4920506,-0.62321415,0.756971,143.7127,-14.414031)"
       x1="156.51639"
       y1="163.56091"
       x2="228.28328"
       y2="161.64919" />
    <linearGradient
       inkscape:collect="always"
       xlink:href="#linearGradient881"
       id="linearGradient905"
       gradientUnits="userSpaceOnUse"
       gradientTransform="matrix(0.84164977,0.74619812,-0.96510951,0.49682482,192.90411,-7.4833967)"
       x1="156.51639"
       y1="163.56091"
       x2="228.28328"
       y2="161.64919" />
    <linearGradient
       inkscape:collect="always"
       xlink:href="#linearGradient911"
       id="linearGradient913"
       x1="131.67578"
       y1="139.39412"
       x2="152.83417"
       y2="129.33997"
       gradientUnits="userSpaceOnUse"
       gradientTransform="translate(-43.99546,20.261067)" />
    <linearGradient
       inkscape:collect="always"
       xlink:href="#linearGradient881"
       id="linearGradient891"
       gradientUnits="userSpaceOnUse"
       gradientTransform="matrix(0.8754125,-0.48488037,-0.51753068,-0.85566465,94.213571,443.12808)"
       x1="156.51639"
       y1="163.56091"
       x2="228.28328"
       y2="161.64919" />
    <linearGradient
       inkscape:collect="always"
       xlink:href="#linearGradient881"
       id="linearGradient895"
       gradientUnits="userSpaceOnUse"
       gradientTransform="matrix(0.76787285,-0.22294899,-0.20448498,-0.96566336,54.300745,423.38274)"
       x1="156.51639"
       y1="163.56091"
       x2="228.28328"
       y2="161.64919" />
    <linearGradient
       inkscape:collect="always"
       xlink:href="#linearGradient881"
       id="linearGradient899"
       gradientUnits="userSpaceOnUse"
       gradientTransform="matrix(0.54792805,-0.38304642,-0.26778353,-0.8962168,109.8105,426.89742)"
       x1="156.51639"
       y1="163.56091"
       x2="228.28328"
       y2="161.64919" />
    <linearGradient
       inkscape:collect="always"
       xlink:href="#linearGradient881"
       id="linearGradient903"
       gradientUnits="userSpaceOnUse"
       gradientTransform="matrix(-0.8754125,-0.48488037,0.51753068,-0.85566465,154.05266,436.85563)"
       x1="156.51639"
       y1="163.56091"
       x2="204.92625"
       y2="154.09297" />
    <linearGradient
       inkscape:collect="always"
       xlink:href="#linearGradient881"
       id="linearGradient909"
       gradientUnits="userSpaceOnUse"
       gradientTransform="matrix(0.06381811,1.2572151,-1.2578189,0.01582246,321.10862,30.17389)"
       x1="156.51639"
       y1="163.56091"
       x2="204.92625"
       y2="154.09297" />
    <filter
       inkscape:collect="always"
       style="color-interpolation-filters:sRGB"
       id="filter919"
       x="-0.013210195"
       width="1.0264204"
       y="-0.01099293"
       height="1.0219859">
      <feGaussianBlur
         inkscape:collect="always"
         stdDeviation="0.39416277"
         id="feGaussianBlur921" />
    </filter>
    <filter
       inkscape:collect="always"
       style="color-interpolation-filters:sRGB"
       id="filter932"
       x="-0.0090822875"
       width="1.0181646"
       y="-0.017679637"
       height="1.0353593">
      <feGaussianBlur
         inkscape:collect="always"
         stdDeviation="0.19627247"
         id="feGaussianBlur934" />
    </filter>
    <filter
       inkscape:collect="always"
       style="color-interpolation-filters:sRGB"
       id="filter940"
       x="-0.008015353"
       width="1.0160307"
       y="-0.023862876"
       height="1.0477258">
      <feGaussianBlur
         inkscape:collect="always"
         stdDeviation="0.16135921"
         id="feGaussianBlur942" />
    </filter>
    <filter
       inkscape:collect="always"
       style="color-interpolation-filters:sRGB"
       id="filter948"
       x="-0.01680162"
       width="1.0336032"
       y="-0.0093328334"
       height="1.0186657">
      <feGaussianBlur
         inkscape:collect="always"
         stdDeviation="0.19813409"
         id="feGaussianBlur950" />
    </filter>
    <linearGradient
       inkscape:collect="always"
       xlink:href="#linearGradient881"
       id="linearGradient952"
       gradientUnits="userSpaceOnUse"
       gradientTransform="matrix(-0.8754125,-0.48488037,0.51753068,-0.85566465,154.05266,436.85563)"
       x1="156.51639"
       y1="163.56091"
       x2="204.92625"
       y2="154.09297" />
    <filter
       inkscape:collect="always"
       style="color-interpolation-filters:sRGB"
       id="filter1093"
       x="-0.020552744"
       width="1.0411055"
       y="-0.028836701"
       height="1.0576734">
      <feGaussianBlur
         inkscape:collect="always"
         stdDeviation="2.076581"
         id="feGaussianBlur1095" />
    </filter>
    <linearGradient
       inkscape:collect="always"
       xlink:href="#linearGradient918"
       id="linearGradient920"
       x1="119.4118"
       y1="167.1067"
       x2="135.92027"
       y2="155.2395"
       gradientUnits="userSpaceOnUse" />
    <linearGradient
       inkscape:collect="always"
       xlink:href="#linearGradient930"
       id="linearGradient932"
       x1="143.17366"
       y1="193.8728"
       x2="98.018822"
       y2="193.58336"
       gradientUnits="userSpaceOnUse" />
    <linearGradient
       inkscape:collect="always"
       xlink:href="#linearGradient931"
       id="linearGradient933"
       x1="178.90768"
       y1="111.32414"
       x2="190.72501"
       y2="133.90076"
       gradientUnits="userSpaceOnUse" />
  </defs>
  <sodipodi:namedview
     id="base"
     pagecolor="#001fff"
     bordercolor="#666666"
     borderopacity="1.0"
     inkscape:pageopacity="0"
     inkscape:pageshadow="2"
     inkscape:zoom="0.91410948"
     inkscape:cx="481.88976"
     inkscape:cy="481.88976"
     inkscape:document-units="mm"
     inkscape:current-layer="layer1"
     showgrid="false"
     inkscape:snap-to-guides="false"
     inkscape:snap-grids="false"
     inkscape:snap-others="false"
     inkscape:object-nodes="false"
     inkscape:snap-nodes="false"
     inkscape:snap-global="false"
     inkscape:window-width="1920"
     inkscape:window-height="1056"
     inkscape:window-x="0"
     inkscape:window-y="0"
     inkscape:window-maximized="1" />
  <metadata
     id="metadata5">
    <rdf:RDF>
      <cc:Work
         rdf:about="">
        <dc:format>image/svg+xml</dc:format>
        <dc:type
           rdf:resource="http://purl.org/dc/dcmitype/StillImage" />
        <dc:title />
      </cc:Work>
    </rdf:RDF>
  </metadata>
  <g
     inkscape:label="Layer 1"
     inkscape:groupmode="layer"
     id="layer1"
     transform="translate(0,-42)">
    <path
       style="fill:#371b06;fill-opacity:0.76881719;stroke:none;stroke-width:0.29382998px;stroke-linecap:butt;stroke-linejoin:miter;stroke-opacity:0.52150538;filter:url(#filter1093)"
       d="m 109.56279,110.47319 c -3.6759,0.0513 -5.04596,5.49376 -6.51174,10.71282 -0.1057,1.42933 -0.22416,2.86126 -0.34572,4.29351 -3.886597,18.68947 -3.62839,39.24918 -24.350451,58.27528 -14.222242,13.05825 -23.404264,29.05311 -7.753529,49.40713 -21.914626,2.01334 -43.436496,-12.11885 -62.1527863,-4.00271 10.6162003,8.98208 20.6581103,18.35062 52.0655513,13.33766 7.125262,-3.64352 13.07191,-3.91859 17.892959,-0.97712 1.971619,4.41843 2.026869,8.81104 2.132168,14.03122 0.1978,9.80576 12.515612,8.85557 19.297531,1.41857 2.130707,-2.33653 4.172597,-4.77947 6.862117,-7.05771 11.94439,8.55653 20.71827,18.18037 28.81942,30.3276 4.63872,6.95553 11.79725,0.49746 6.91741,-3.97289 -17.21066,-15.76643 -23.93596,-20.51616 -26.60044,-24.0094 21.48473,9.9766 38.80204,0.0581 55.99555,-10.45102 l 2.64583,1.82615 c 31.4871,9.30794 53.3672,6.1368 76.45993,4.54041 -30.02719,-8.01631 -62.45188,-24.14638 -63.35272,-42.56693 l 16.38453,-30.64781 c 8.30381,-13.62399 16.56724,-17.212 30.21986,-21.28347 -24.52506,2.68494 -19.48682,-4.11792 5.46168,-17.31056 -19.97892,1.75621 -39.88932,3.7663 -56.071,19.58055 -15.54822,10.97442 -30.84047,23.22629 -48.04099,25.9588 4.04967,-8.83456 3.88056,-18.38399 -5.54385,-29.50154 -17.18868,-9.50646 -16.52722,-25.196 -16.74833,-40.58007 -1.44348,-0.95419 -2.65372,-1.36284 -3.68298,-1.34847 z m 29.15068,107.7376 0.80977,1.30012 14.4601,9.97898 c -7.34381,0.56505 -14.74804,1.9268 -22.08289,2.37311 3.82216,-4.53396 6.00949,-9.11662 6.81302,-13.65221 z"
       id="path954"
       inkscape:connector-curvature="0" />
    <path
       style="fill:#fc7814;fill-opacity:0.57526879;stroke:#fc7814;stroke-width:0.33282423px;stroke-linecap:butt;stroke-linejoin:miter;stroke-opacity:0.52150538"
       d="m 104.2087,69.802941 c 1.8762,-8.571167 3.59591,-17.611801 10.19471,-12.015196 0.22111,19.738262 -0.44024,39.868733 16.74845,52.065835 13.05609,19.76087 8.35284,35.661 -0.7282,50.60944 C 96.700411,136.16048 102.32192,102.53944 104.2087,69.802941 Z"
       id="path879"
       inkscape:connector-curvature="0"
       sodipodi:nodetypes="ccccc" />
    <path
       style="fill:url(#radialGradient866);fill-opacity:1;stroke:#c15a0d;stroke-width:0.33282423px;stroke-linecap:butt;stroke-linejoin:miter;stroke-opacity:1"
       d="m 116.28643,145.71153 c 26.1031,10.59532 47.03313,-11.91696 68.45018,-31.31232 16.18167,-20.290228 36.09197,-22.869401 56.07089,-25.122672 -24.9485,16.926602 -29.9865,25.654762 -5.46144,22.209902 -13.65262,5.22384 -21.91622,9.82722 -30.22003,27.30724 l -16.38435,39.32246 c 0.90084,23.63417 33.32563,44.32931 63.35282,54.6145 -23.09273,2.04822 -44.97321,6.11684 -76.46031,-5.82555 l -34.95328,-30.94822 z"
       id="path881"
       inkscape:connector-curvature="0"
       sodipodi:nodetypes="cccccccccc" />
    <path
       id="path3564"
       d="m 87.63986,132.71527 c 3.69082,0.94651 2.72427,-0.93975 4.51541,-1.61497 3.68659,-2.49914 1.287,-0.22026 3.82395,-0.77774 -0.41519,-0.68661 -1.95475,-0.77918 -4.57546,-0.29301 2.82155,-0.891 2.93078,-2.5624 4.90251,-4.31677 -3.8155,1.63861 -2.45482,1.16143 -5.9732,4.00763 -5.24412,4.3271 0.23559,2.23561 -2.392,-0.55455 l -0.0266,1.53528 m 0.0606,8.48978 c 3.66376,0.96017 -0.33943,1.28413 4.93067,-1.49676 2.65763,-2.49914 3.03256,-1.01161 5.58092,-1.57488 -0.42984,-0.67916 -1.32198,-0.99387 -3.9348,-0.51168 2.81665,-0.88853 0.79685,-0.63073 2.77623,-2.38897 -3.81312,1.63742 -3.15345,-0.77822 -6.68272,2.07347 -5.26115,4.33572 -0.27551,3.68115 -2.9031,0.89101 l -0.1334,1.81764 m -0.98688,6.31291 c 3.70923,0.937 2.55936,3.91644 7.82644,1.13711 2.63808,-2.48918 4.72918,-2.10898 7.29751,-2.68294 -0.45552,-0.66541 -3.43234,-0.39909 -6.0584,0.0898 2.82487,-0.89272 2.59677,-1.21365 4.56328,-2.96534 -3.81709,1.63944 -2.14962,-0.40678 -5.6606,2.4356 -5.23249,4.32111 -5.17013,2.71117 -7.75776,-0.0992 l -0.21047,2.08491 m 1.06277,7.0716 c 3.78895,0.89433 7.26536,2.7322 12.52199,-0.0414 2.57047,-2.45171 5.14574,-2.05717 7.75738,-2.65698 -0.51125,-0.63215 -6.08562,-0.16074 -8.75746,0.35356 2.85326,-0.90846 3.01064,-1.77006 4.93265,-3.49709 -3.83083,1.64704 -4.01781,-0.38842 -7.49672,2.43679 -5.18225,4.29423 -6.12733,4.11453 -8.78214,1.33842 l -0.17571,2.06668 m 1.39462,6.88832 c 3.96187,0.79117 7.68604,2.47145 12.92884,-0.29322 2.48097,-2.39413 5.20308,-2.09346 7.84294,-2.71209 -0.54755,-0.60794 -2.7362,-0.8606 -5.46864,-0.30731 2.89084,-0.93263 3.56181,-1.48222 5.42492,-3.17136 -3.84901,1.65874 -4.58355,-0.2532 -7.9929,2.5305 -5.07326,4.22919 -9.77657,4.5931 -12.66358,1.94567 l -0.0716,2.00781 m 1.89937,6.5731 c 4.16899,0.64826 8.22791,2.07877 13.45029,-0.67003 2.34893,-2.29151 5.25613,-2.13469 7.97288,-2.8131 -0.64648,-0.53104 -2.96203,-0.68659 -5.76239,-0.0819 2.93296,-0.9645 3.8357,-1.78915 5.63278,-3.42834 -3.86939,1.67415 -5.07498,0.2064 -8.37373,2.91181 -4.9,4.10652 -9.79149,4.61239 -12.98592,2.16273 l 0.0661,1.91885 m 2.58131,6.07148 c 4.38152,0.4774 8.86725,1.52144 14.07418,-1.21284 2.24891,-2.19753 4.49505,-1.65961 7.28991,-2.41353 -0.74696,-0.43388 -4.65976,-0.32847 -7.52636,0.33521 2.97405,-1.00109 5.75168,-1.6769 7.46206,-3.23665 -3.89615,1.6987 -4.94456,-0.37037 -8.15453,2.25994 -4.76088,3.98886 -9.88285,4.70117 -13.42185,2.51211 l 0.27659,1.75576 m 3.36098,5.3787 c 4.69337,0.17588 6.65156,1.27286 11.83765,-1.43763 2.11415,-2.04358 3.14315,-1.28942 6.01531,-2.13686 -0.84642,-0.31356 -1.46887,-0.94804 -4.42734,-0.18519 3.03102,-1.0626 2.80282,-1.15982 4.44623,-2.64526 -3.91683,1.72163 -4.44744,0.47888 -7.53072,2.97982 -4.56239,3.78617 -6.83509,3.64275 -10.82655,1.86836 l 0.48542,1.55676"
       style="fill:url(#linearGradient913);fill-opacity:1;stroke:none;stroke-width:0.26458332px;stroke-linecap:butt;stroke-linejoin:miter;stroke-opacity:1;filter:url(#filter948)"
       inkscape:connector-curvature="0"
       sodipodi:nodetypes="cccccccccccccccccccccccccccccccccccccccccccccccccccccccccccccccc"
       transform="matrix(1.2579184,0,0,1.2579184,-6.4141571,-75.69783)" />
    <path
       style="fill:url(#linearGradient880);fill-opacity:1;stroke:#d4620b;stroke-width:0.33282423px;stroke-linecap:butt;stroke-linejoin:miter;stroke-opacity:0.5322581"
       d="m 129.75801,211.97712 c 18.07235,-0.41775 36.68709,-10.05609 53.88632,4.36917 -23.44218,17.2564 -45.58465,42.47347 -76.46031,14.19976 z"
       id="path883"
       inkscape:connector-curvature="0"
       sodipodi:nodetypes="cccc" />
    <path
       style="fill:url(#linearGradient896);fill-opacity:1;stroke:#ed6d0a;stroke-width:0.33282423px;stroke-linecap:butt;stroke-linejoin:miter;stroke-opacity:1"
       d="m 75.507605,216.34629 45.512085,9.83061 c -11.23338,4.23756 -15.41866,11.35933 -20.02532,17.84074 -6.78192,9.54192 -19.099332,10.76062 -19.297127,-1.82048 -0.153126,-9.74007 -0.20172,-17.23391 -6.189638,-25.85087 z"
       id="path885"
       inkscape:connector-curvature="0"
       sodipodi:nodetypes="ccssc" />
    <path
       style="fill:url(#linearGradient904);fill-opacity:1;stroke:#ef6f0c;stroke-width:0.33282423px;stroke-linecap:butt;stroke-linejoin:miter;stroke-opacity:1"
       d="M 77.32809,212.34123 C 53.506159,219.3269 29.90581,197.0419 9.606097,208.33615 c 10.616205,11.5243 20.658383,23.54434 52.065827,17.11255 8.022286,-5.26328 14.551676,-5.05263 19.661227,0.36411 z"
       id="path887"
       inkscape:connector-curvature="0"
       sodipodi:nodetypes="ccccc" />
    <path
       style="fill:url(#linearGradient888);fill-opacity:1;stroke:#e66502;stroke-width:0.33282423px;stroke-linecap:butt;stroke-linejoin:miter;stroke-opacity:1"
       d="m 105.36353,232.73064 c 13.23582,11.53779 22.65768,24.49279 31.31232,41.14293 4.63872,8.92414 11.79768,0.63824 6.91784,-5.09737 -27.71091,-32.57051 -28.24874,-28.50255 -28.39955,-40.05062 z"
       id="path889"
       inkscape:connector-curvature="0"
       sodipodi:nodetypes="csscc" />
    <path
       style="fill:url(#radialGradient892);fill-opacity:1;stroke:#ca681f;stroke-width:1.25791848;stroke-linecap:butt;stroke-linejoin:miter;stroke-miterlimit:4;stroke-dasharray:none;stroke-opacity:1"
       d="m 104.27125,72.892175 c -0.27468,27.687965 -7.297532,54.854705 17.11254,78.280795 19.70261,18.9084 27.51639,44.48242 5.82555,68.08609 -17.65918,19.21644 -37.304292,21.32822 -53.158128,-2.18459 -18.772395,-27.8413 -9.408664,-49.47642 5.461454,-66.99379 21.421314,-25.23484 20.422052,-52.572702 24.758584,-77.188505 z"
       id="path877"
       inkscape:connector-curvature="0"
       sodipodi:nodetypes="cssssc" />
    <g
       id="g848"
       transform="matrix(1.5651385,0,0,1.5651385,207.01251,-101.91229)">
      <path
         style="fill:url(#linearGradient843);fill-opacity:1;stroke:none;stroke-width:0.31562322;stroke-opacity:1"
         d="m -74.650758,182.86743 c 0.804918,1.89357 -0.536163,5.64846 -2.299907,6.65869 -0.08973,0.47098 2.313955,0.23895 2.151432,0.62467 -0.525091,1.2462 -1.698211,1.83214 -3.12737,1.09675 -1.258604,-0.64763 -2.440732,-1.92371 -3.073624,-2.33273 -1.758367,-1.13637 -4.452637,-3.5421 -4.580534,-7.22089 -0.103679,-2.98218 2.524932,-6.69233 4.668045,-6.56294 2.528897,0.15268 4.349855,3.23823 6.261958,7.73645 z"
         id="path823"
         inkscape:connector-curvature="0"
         sodipodi:nodetypes="sccsssss" />
      <path
         sodipodi:nodetypes="sssss"
         inkscape:connector-curvature="0"
         id="path820"
         d="m -76.004021,183.19544 c 0.625973,2.72894 -1.472535,4.44196 -3.478305,4.71226 -1.269241,0.17105 -5.260561,-2.05778 -5.406365,-6.25165 -0.08691,-2.49993 2.116621,-5.61011 3.913168,-5.50164 2.119946,0.12799 4.055428,3.0474 4.971502,7.04103 z"
         style="fill:#000000;fill-opacity:1;stroke:none;stroke-width:0.26458332;stroke-opacity:1" />
      <path
         sodipodi:nodetypes="ccccc"
         inkscape:connector-curvature="0"
         id="path825"
         d="m -81.624864,177.21529 1.730315,1.26711 c -0.586658,0.82941 -0.56089,1.73538 -0.04759,2.70228 l -2.95349,-0.40496 c -0.675034,-1.76479 0.596668,-2.60911 1.270767,-3.56443 z"
         style="fill:url(#radialGradient835);fill-opacity:1;stroke:none;stroke-width:0.26458332px;stroke-linecap:butt;stroke-linejoin:miter;stroke-opacity:1" />
    </g>
    <path
       sodipodi:nodetypes="sssssss"
       inkscape:connector-curvature="0"
       id="path911"
       d="m 118.21137,173.27312 c 5.765,-1.85096 11.44775,-4.39117 17.95776,0 1.18823,0.8015 2.46194,1.31432 2.46194,2.94688 0,1.63258 -1.23045,3.64862 -2.46194,2.94689 -5.98592,-3.41089 -11.97184,-3.05667 -17.95776,0 -1.25453,0.64062 -2.46196,-1.31431 -2.46196,-2.94689 0,-1.63256 1.14459,-2.52391 2.46196,-2.94688 z"
       style="fill:#934f1c;fill-opacity:0.57526879;stroke:none;stroke-width:1.14976978;stroke-miterlimit:4;stroke-dasharray:none;stroke-opacity:1" />
    <path
       style="fill:none;stroke:url(#linearGradient932);stroke-width:1;stroke-linecap:butt;stroke-linejoin:miter;stroke-miterlimit:4;stroke-dasharray:none;stroke-opacity:1"
       d="m 103.62088,103.36209 c -3.824372,42.78006 25.13539,48.31006 33.28604,70.33484 2.81129,13.65406 6.9642,27.06419 -6.6572,43.70602 -10.89981,8.48556 -20.44869,19.24311 -39.364362,15.34052"
       id="path922"
       inkscape:connector-curvature="0"
       sodipodi:nodetypes="cccc" />
    <g
       transform="matrix(-1.5651385,0,0,1.5651385,8.289572,-99.843342)"
       id="g856">
      <path
         sodipodi:nodetypes="sccsssss"
         inkscape:connector-curvature="0"
         id="path850"
         d="m -74.650758,182.86743 c 0.804918,1.89357 -0.536163,5.64846 -2.299907,6.65869 -0.08973,0.47098 2.313955,0.23895 2.151432,0.62467 -0.525091,1.2462 -1.698211,1.83214 -3.12737,1.09675 -1.258604,-0.64763 -2.440732,-1.92371 -3.073624,-2.33273 -1.758367,-1.13637 -4.452637,-3.5421 -4.580534,-7.22089 -0.103679,-2.98218 2.524932,-6.69233 4.668045,-6.56294 2.528897,0.15268 4.349855,3.23823 6.261958,7.73645 z"
         style="fill:url(#linearGradient858);fill-opacity:1;stroke:none;stroke-width:0.31562322;stroke-opacity:1" />
      <path
         style="fill:#000000;fill-opacity:1;stroke:none;stroke-width:0.26458332;stroke-opacity:1"
         d="m -76.004021,183.19544 c 0.625973,2.72894 -1.472535,4.44196 -3.478305,4.71226 -1.269241,0.17105 -5.260561,-2.05778 -5.406365,-6.25165 -0.08691,-2.49993 2.116621,-5.61011 3.913168,-5.50164 2.119946,0.12799 4.055428,3.0474 4.971502,7.04103 z"
         id="path852"
         inkscape:connector-curvature="0"
         sodipodi:nodetypes="sssss" />
      <path
         style="fill:url(#radialGradient860);fill-opacity:1;stroke:none;stroke-width:0.26458332px;stroke-linecap:butt;stroke-linejoin:miter;stroke-opacity:1"
         d="m -81.624864,177.21529 1.730315,1.26711 c -0.586658,0.82941 -0.56089,1.73538 -0.04759,2.70228 l -2.95349,-0.40496 c -0.675034,-1.76479 0.596668,-2.60911 1.270767,-3.56443 z"
         id="path854"
         inkscape:connector-curvature="0"
         sodipodi:nodetypes="ccccc" />
    </g>
    <g
       id="g884"
       transform="matrix(1.2579184,0,0,1.2579184,127.27025,-39.970314)">
      <path
         sodipodi:nodetypes="ccccccc"
         inkscape:connector-curvature="0"
         id="path862"
         d="m -17.665046,183.16937 c 1.477199,-1.30831 2.172836,-0.53246 2.959745,0 8.8358416,3.85519 10.4824726,10.05469 8.3411006,17.4894 -0.896893,1.13953 -1.5751211,3.41007 -2.4720141,3.59351 -4.8386345,1.20979 -10.0216305,1.27125 -14.6250335,0.12872 -0.824746,-0.7143 -1.663453,-0.89355 -2.275834,-3.0944 -3.025649,-9.09665 0.841857,-14.50626 8.072036,-18.11723 z"
         style="fill:#f6c7c7;fill-opacity:1;stroke:none;stroke-width:0.26458332px;stroke-linecap:butt;stroke-linejoin:miter;stroke-opacity:1" />
      <path
         style="fill:url(#linearGradient875);fill-opacity:1;stroke:none;stroke-width:0.21679163px;stroke-linecap:butt;stroke-linejoin:miter;stroke-opacity:1"
         d="m -17.390966,185.01272 c 1.210373,-1.07199 1.780357,-0.43628 2.425126,0 7.2398236,3.15883 8.5890236,8.23852 6.8344486,14.33029 -0.734888,0.9337 -1.469774,1.53994 -2.2046606,1.69025 -3.964633,0.99126 -7.912813,1.81802 -11.684703,0.88186 -0.675772,-0.58527 -1.482427,-0.25437 -1.984194,-2.05768 -2.479126,-7.45352 0.689792,-11.88599 6.613983,-14.84472 z"
         id="path864"
         inkscape:connector-curvature="0"
         sodipodi:nodetypes="ccccccc" />
      <path
         sodipodi:nodetypes="sssssss"
         inkscape:connector-curvature="0"
         id="rect866"
         d="m -21.246843,202.53719 c 3.401438,0.61102 6.802877,0.34453 10.204315,0 0.462005,-0.0468 0.838212,0.37385 0.838212,0.83822 0,0.46437 -0.390991,0.71318 -0.838212,0.83821 -3.657034,1.02238 -6.925714,0.49135 -10.204315,0 -0.45924,-0.0688 -0.838212,-0.37384 -0.838212,-0.83821 0,-0.46437 0.381159,-0.92032 0.838212,-0.83822 z"
         style="fill:#e2c592;fill-opacity:1;stroke:none;stroke-width:0.26458332;stroke-opacity:1" />
      <path
         sodipodi:nodetypes="cccccc"
         inkscape:connector-curvature="0"
         id="path878"
         d="m -22.886822,189.27158 c 2.302697,-0.59395 4.471869,-1.45495 6.195477,-3.20707 2.623967,2.12646 5.247934,2.66533 7.8719008,3.49862 -1.2623008,-1.80061 -2.6860378,-3.52784 -6.0497018,-4.37328 -1.171514,-1.03458 -1.806176,-0.63756 -2.405303,-0.14578 -2.200365,1.17376 -4.703962,2.13093 -5.612373,4.22751 z"
         style="fill:#da5a5a;fill-opacity:1;stroke:none;stroke-width:0.26458332px;stroke-linecap:butt;stroke-linejoin:miter;stroke-opacity:1" />
    </g>
    <path
       style="fill:#f4d4bb;fill-opacity:0.21505378;stroke:none;stroke-width:0.33282423px;stroke-linecap:butt;stroke-linejoin:miter;stroke-opacity:1"
       d="m 120.94978,221.80998 c -10.5949,1.58553 -20.4618,5.11274 -31.202261,-1.04007 C 54.213796,195.9161 70.318616,180.53949 71.37284,172.92642 83.797728,164.32858 91.085541,149.7375 98.068118,134.79031 l 3.466932,-26.34859 -7.62723,25.30851 c -10.335675,22.60996 -26.660362,29.68518 -27.735353,40.90965 -4.833107,22.99864 5.850905,37.37666 17.334594,51.3104 6.702705,6.66592 13.405427,6.12481 20.108129,6.58716 15.18001,-4.92561 14.29471,-7.55616 17.33459,-10.74746 z"
       id="path906"
       inkscape:connector-curvature="0"
       sodipodi:nodetypes="cccccccccc" />
    <path
       style="fill:#934f1c;fill-opacity:0.57526879;stroke:none;stroke-width:1.14976978;stroke-miterlimit:4;stroke-dasharray:none;stroke-opacity:1"
       d="m 75.914957,168.76613 c 5.765002,-1.85097 11.447749,-4.39118 17.957754,0 1.18823,0.80149 2.461948,1.31431 2.461948,2.94687 0,1.63258 -1.230458,3.64862 -2.461948,2.94689 -5.985918,-3.41088 -11.971836,-3.05666 -17.957754,0 -1.254535,0.64062 -2.46196,-1.31431 -2.46196,-2.94689 0,-1.63256 1.144592,-2.52391 2.46196,-2.94687 z"
       id="rect908"
       inkscape:connector-curvature="0"
       sodipodi:nodetypes="sssssss" />
    <g
       id="g917"
       style="filter:url(#filter919)"
       transform="matrix(1.2579184,0,0,1.2579184,-61.756857,-50.211061)">
      <path
         sodipodi:nodetypes="cccccccc"
         inkscape:connector-curvature="0"
         id="path867"
         d="m 152.93399,167.80526 c 7.65121,-5.57557 18.30276,-14.34284 30.46281,-16.55039 6.43632,0.41849 21.35336,-8.6552 26.99044,-10.80892 -0.70681,1.43878 -14.59337,9.8441 -20.37349,12.19062 6.3333,-2.01462 17.15123,-4.62083 21.91633,-4.45311 -8.69437,2.1205 -18.32625,8.13802 -26.74395,8.23462 -12.57192,0.0258 -26.13569,5.99133 -30.94828,12.90695 z"
         style="fill:url(#linearGradient883);fill-opacity:1;stroke:none;stroke-width:0.48343703px;stroke-linecap:butt;stroke-linejoin:miter;stroke-opacity:1" />
      <path
         style="fill:url(#linearGradient889);fill-opacity:1;stroke:none;stroke-width:0.48343703px;stroke-linecap:butt;stroke-linejoin:miter;stroke-opacity:1"
         d="m 155.57701,171.55819 c 7.65121,-4.31044 16.93422,-10.98779 29.09427,-11.18467 6.43632,1.48274 11.65957,-1.1391 17.29665,-2.36073 -0.70681,1.32191 -4.89958,3.44577 -10.6797,4.83655 6.3333,-0.96741 10.30855,-1.41758 15.07365,-0.46195 -8.69437,0.68288 -11.48357,4.74048 -19.90127,3.44521 -12.57192,-2.05298 -24.76715,1.75955 -29.57974,7.87941 z"
         id="path886"
         inkscape:connector-curvature="0"
         sodipodi:nodetypes="cccccccc" />
      <path
         sodipodi:nodetypes="cccccccc"
         inkscape:connector-curvature="0"
         id="path891"
         d="m 158.76674,177.10576 c 6.67803,-3.61646 13.54633,-8.74423 24.15971,-7.19381 5.61767,2.56128 15.87879,-1.72259 20.79887,-2.24365 -0.61691,1.34724 -9.97862,5.23459 -15.02355,5.92045 5.52775,-0.14119 7.58133,0.18001 11.74034,1.92034 -7.5885,-0.51392 -8.60689,3.29403 -15.95392,0.65055 -10.97286,-4.07799 -19.32756,-1.91213 -23.52802,4.10131 z"
         style="fill:url(#linearGradient893);fill-opacity:1;stroke:none;stroke-width:0.47301081px;stroke-linecap:butt;stroke-linejoin:miter;stroke-opacity:1" />
      <path
         style="fill:url(#linearGradient897);fill-opacity:1;stroke:none;stroke-width:0.42737922px;stroke-linecap:butt;stroke-linejoin:miter;stroke-opacity:1"
         d="m 162.76871,183.31256 c 7.3276,-1.31145 14.15022,-4.00087 23.34513,-0.21679 4.28235,3.40255 9.16652,2.79017 13.8454,3.54743 -1.01716,0.93584 -4.94485,1.4444 -9.79334,0.78978 5.10754,1.20807 7.66619,2.22005 10.88895,4.61378 -6.774,-2.22747 -9.77165,0.32822 -15.60944,-3.55388 -8.6752,-5.90243 -17.05048,-6.15827 -22.91504,-2.32708 z"
         id="path895"
         inkscape:connector-curvature="0"
         sodipodi:nodetypes="cccccccc" />
      <path
         sodipodi:nodetypes="cccccccc"
         inkscape:connector-curvature="0"
         id="path899"
         d="m 162.30703,188.77402 c 8.59242,0.72291 18.53352,0.53882 28.04275,6.72435 4.04425,4.47529 14.72808,5.89587 19.84076,7.90769 -1.36943,0.63245 -10.94747,-0.62827 -16.276,-2.58657 3.72052,5.71566 26.64351,12.58681 30.6301,14.18561 -7.75131,-0.32591 -30.79304,-7.47026 -36.2158,-14.44225 -8.42503,-8.10319 -19.3172,-10.86345 -26.8461,-8.73794 z"
         style="fill:url(#linearGradient901);fill-opacity:1;stroke:none;stroke-width:0.46090892px;stroke-linecap:butt;stroke-linejoin:miter;stroke-opacity:1" />
      <path
         style="fill:url(#linearGradient905);fill-opacity:1;stroke:none;stroke-width:0.51578796px;stroke-linecap:butt;stroke-linejoin:miter;stroke-opacity:1"
         d="m 163.0419,192.49526 c 10.31792,3.71284 20.7281,5.94007 30.70481,15.14656 3.74911,5.66145 24.51075,12.23295 30.22659,15.93927 -1.84465,0.11593 -21.29632,-5.91449 -27.29056,-9.64623 6.03085,4.36533 12.17907,8.44472 15.09186,12.56555 -7.65649,-6.31328 -16.33173,-7.6929 -21.85638,-14.77728 -8.13684,-10.63944 -18.96996,-16.35282 -28.74958,-16.9947 z"
         id="path903"
         inkscape:connector-curvature="0"
         sodipodi:nodetypes="cccccccc" />
    </g>
    <g
       id="g926"
       style="filter:url(#filter932)"
       transform="matrix(1.2579184,0,0,1.2579184,-61.756857,-50.211061)">
      <path
         sodipodi:nodetypes="cccccccc"
         inkscape:connector-curvature="0"
         id="path888"
         d="m 141.48781,224.36931 c 8.77765,-0.27144 20.17653,0.63789 30.68335,-5.48685 4.73997,-4.59972 10.56621,-5.05949 16.02189,-6.93155 -1.28893,-0.76532 -5.97569,-0.41274 -11.64131,1.38861 5.91985,-2.4499 9.55431,-4.12202 13.13706,-7.4058 -7.79287,3.91528 -12.27943,1.88683 -18.81181,7.35157 -9.69487,8.26302 -22.103,11.31217 -29.38817,8.56629 z"
         style="fill:url(#linearGradient891);fill-opacity:1;stroke:none;stroke-width:0.48343703px;stroke-linecap:butt;stroke-linejoin:miter;stroke-opacity:1" />
      <path
         style="fill:url(#linearGradient895);fill-opacity:1;stroke:none;stroke-width:0.42889786px;stroke-linecap:butt;stroke-linejoin:miter;stroke-opacity:1"
         d="m 137.82368,226.32995 c 6.69687,2.17468 15.11803,6.21105 24.40078,3.24203 4.58886,-3.10396 9.09503,-1.92912 13.62941,-2.21393 -0.80754,-1.0929 -4.42864,-2.05456 -9.10633,-1.89593 5.01158,-0.71118 8.12511,-1.30922 11.55149,-3.47 -6.74796,1.59933 -9.69767,-1.59432 -15.83085,1.84337 -9.13573,5.24863 -19.18457,4.73528 -24.09389,0.0759 z"
         id="path893"
         inkscape:connector-curvature="0"
         sodipodi:nodetypes="cccccccc" />
      <path
         sodipodi:nodetypes="cccccccc"
         inkscape:connector-curvature="0"
         id="path897"
         d="m 148.86457,216.95064 c 5.2684,0.67067 12.04805,2.78173 18.63935,-2.11553 3.06382,-4.01437 6.57451,-3.844 9.93275,-5.10119 -0.73404,-0.88981 -3.55727,-1.04383 -7.03773,0.12145 3.66454,-1.77553 5.92263,-3.03073 8.22895,-5.87539 -4.8579,3.01566 -7.44424,0.54295 -11.62368,5.21603 -6.21028,7.08547 -13.78871,8.75701 -18.01529,5.28035 z"
         style="fill:url(#linearGradient899);fill-opacity:1;stroke:none;stroke-width:0.37247744px;stroke-linecap:butt;stroke-linejoin:miter;stroke-opacity:1" />
    </g>
    <g
       id="g938"
       style="filter:url(#filter940)"
       transform="matrix(1.2579184,0,0,1.2579184,-61.756857,-50.211061)">
      <path
         style="fill:url(#linearGradient952);fill-opacity:1;stroke:none;stroke-width:0.48343703px;stroke-linecap:butt;stroke-linejoin:miter;stroke-opacity:1"
         d="m 107.69078,213.30699 c -8.777655,-0.27144 -21.088891,5.42776 -31.595711,-0.69698 -4.73997,-4.59972 -10.56621,-1.41006 -16.02189,-3.28212 1.28893,-0.76532 12.932407,-0.75488 18.598027,1.04647 -5.91985,-2.4499 -15.712715,-3.09562 -19.295465,-6.3794 7.79287,3.91528 11.481118,-2.44686 18.013498,3.01788 9.69487,8.26302 21.874911,6.63634 29.160081,3.89046 z"
         id="path901"
         inkscape:connector-curvature="0"
         sodipodi:nodetypes="cccccccc" />
      <path
         sodipodi:nodetypes="cccccccc"
         inkscape:connector-curvature="0"
         id="path905"
         d="m 107.69078,213.30699 c -8.777655,-0.27144 -20.860802,11.24403 -31.367622,5.11929 -4.73997,-4.59972 -6.460606,-3.46286 -11.916286,-5.33492 1.28893,-0.76532 8.826803,1.29792 14.492423,3.09927 -5.91985,-2.4499 -13.203735,-2.29731 -16.786485,-5.58109 7.79287,3.91528 10.112583,-0.85023 16.644963,4.61451 9.69487,8.26302 20.506377,-1.57487 27.791547,-4.32075 z"
         style="fill:url(#linearGradient903);fill-opacity:1;stroke:none;stroke-width:0.48343703px;stroke-linecap:butt;stroke-linejoin:miter;stroke-opacity:1" />
    </g>
    <path
       sodipodi:nodetypes="cccccccc"
       inkscape:connector-curvature="0"
       id="path907"
       d="m 110.8523,231.683 c 5.54281,9.55562 14.25136,17.24821 24.15968,28.09302 4.30304,8.07307 5.67614,7.78764 9.68007,14.2642 -1.13906,-1.40299 -8.76782,-7.29265 -11.91481,-13.2348 1.31704,7.95083 8.75895,11.61238 8.0627,16.33001 -3.29068,-4.75554 -0.1297,2.37284 -10.14872,-16.97115 -7.08491,-12.25922 -14.30435,-20.28217 -22.07816,-26.23871 z"
       style="fill:url(#linearGradient909);fill-opacity:1;stroke:none;stroke-width:0.60812438px;stroke-linecap:butt;stroke-linejoin:miter;stroke-opacity:1" />
    <path
       style="fill:url(#linearGradient920);fill-opacity:1;stroke:none;stroke-width:0.26458332px;stroke-linecap:butt;stroke-linejoin:miter;stroke-opacity:1"
       d="m 109.6992,137.51646 c 5.11325,18.29399 5.65465,29.11274 23.44495,32.70716 -1.96554,-11.54956 -15.89161,-16.22875 -23.44495,-32.70716 z"
       id="path912"
       inkscape:connector-curvature="0"
       sodipodi:nodetypes="ccc" />
    <path
       style="fill:none;stroke:#ffc29a;stroke-width:1;stroke-linecap:butt;stroke-linejoin:miter;stroke-miterlimit:4;stroke-dasharray:none;stroke-opacity:0.54838711"
       d="m 101.30533,84.548241 c -0.20632,25.937849 -4.522244,48.801699 -27.207715,73.229289 -5.948554,10.60409 -17.325763,26.43965 -3.762768,52.67876"
       id="path924"
       inkscape:connector-curvature="0"
       sodipodi:nodetypes="ccc" />
    <path
       sodipodi:nodetypes="cccc"
       inkscape:connector-curvature="0"
       id="path925"
       d="m 116.28643,145.71153 c 26.1031,10.59532 47.03313,-11.91696 68.45018,-31.31232 C 200.91828,94.108982 220.82858,91.529809 240.8075,89.276538 215.859,106.20314 210.821,114.9313 235.34606,111.48644"
       style="fill:none;fill-opacity:1;stroke:url(#linearGradient933);stroke-width:1;stroke-linecap:butt;stroke-linejoin:miter;stroke-miterlimit:4;stroke-dasharray:none;stroke-opacity:1" />
    <path
       style="fill:none;stroke:#de7a2f;stroke-width:1;stroke-linecap:butt;stroke-linejoin:miter;stroke-miterlimit:4;stroke-dasharray:none;stroke-opacity:1"
       d="m 141.53802,195.98411 33.57549,31.25993 c 24.10792,9.2277 50.31906,7.93928 76.7026,5.78888"
       id="path935"
       inkscape:connector-curvature="0"
       sodipodi:nodetypes="ccc" />
  </g>
</svg>
