<?xml version="1.0" encoding="UTF-8" standalone="no"?>
<svg xmlns="http://www.w3.org/2000/svg" xmlns:xlink="http://www.w3.org/1999/xlink" width="157.27245" height="157.30139">
  <defs>
    <linearGradient id="y">
      <stop offset="0" stop-color="#ccc"/>
      <stop offset="1" stop-color="#fff"/>
    </linearGradient>
    <linearGradient id="E">
      <stop offset="0" stop-color="#a0a0a0"/>
      <stop offset="1" stop-color="#fff"/>
    </linearGradient>
    <linearGradient id="x">
      <stop offset="0" stop-color="#66706a"/>
      <stop offset="1" stop-color="#fbfbfb"/>
    </linearGradient>
    <linearGradient id="w">
      <stop offset="0" stop-color="#c2c2c2"/>
      <stop offset="1" stop-opacity=".52941179"/>
    </linearGradient>
    <linearGradient id="D">
      <stop offset="0" stop-color="#a3a3a3"/>
      <stop offset="1" stop-color="#fff" stop-opacity=".9818182"/>
    </linearGradient>
    <linearGradient id="C">
      <stop offset="0" stop-color="#fffddb"/>
      <stop offset="1" stop-color="#ffd500"/>
    </linearGradient>
    <linearGradient id="B">
      <stop offset="0" stop-color="#ffffc0"/>
      <stop offset="1" stop-color="#ffc747"/>
    </linearGradient>
    <linearGradient id="A">
      <stop offset="0" stop-color="#ffef00"/>
      <stop offset="1" stop-color="#fb0"/>
    </linearGradient>
    <linearGradient id="z">
      <stop offset="0" stop-color="#fde3a7"/>
      <stop offset=".23921256" stop-color="#e6cb31"/>
      <stop offset="1" stop-color="#dc612a"/>
    </linearGradient>
    <linearGradient id="v">
      <stop offset="0" stop-color="#9599a3"/>
      <stop offset=".75113082" stop-color="#e0e1e4"/>
      <stop offset="1" stop-color="#656977"/>
    </linearGradient>
    <linearGradient id="u">
      <stop offset="0" stop-color="#abafb7"/>
      <stop offset="1" stop-color="#616573"/>
    </linearGradient>
    <linearGradient id="t">
      <stop offset="0" stop-color="#7b7f8b"/>
      <stop offset="1" stop-color="#8e999f"/>
    </linearGradient>
    <linearGradient id="s">
      <stop offset="0" stop-color="#ffff82"/>
      <stop offset="1" stop-color="#fffad7"/>
    </linearGradient>
    <linearGradient id="r">
      <stop offset="0" stop-color="#fff573"/>
      <stop offset="1" stop-color="#ffe531"/>
    </linearGradient>
    <linearGradient id="q">
      <stop offset="0" stop-color="#d5ac04" stop-opacity=".82745099"/>
      <stop offset="1" stop-color="#e7be0a"/>
    </linearGradient>
    <linearGradient id="a">
      <stop offset="0" stop-color="#6683ff"/>
      <stop offset="1" stop-color="#64e0ff"/>
    </linearGradient>
    <linearGradient id="d">
      <stop offset="0" stop-color="#9393ca"/>
      <stop offset="1" stop-color="#527eca" stop-opacity="0"/>
    </linearGradient>
    <linearGradient id="c">
      <stop offset="0" stop-color="#527eca"/>
      <stop offset="1" stop-color="#e0f3eb"/>
    </linearGradient>
    <linearGradient id="b">
      <stop offset="0" stop-color="#039"/>
      <stop offset=".5" stop-color="#597bbd"/>
      <stop offset="1" stop-color="#d0eee0"/>
    </linearGradient>
    <linearGradient id="f">
      <stop offset="0" stop-color="#8fe3ab"/>
      <stop offset="1" stop-color="#063"/>
    </linearGradient>
    <linearGradient id="e">
      <stop offset="0" stop-color="#004033"/>
      <stop offset="1" stop-color="#0b9d3c"/>
    </linearGradient>
    <linearGradient id="i">
      <stop offset="0" stop-color="#0f6c42"/>
      <stop offset="1" stop-color="#063" stop-opacity=".65882355"/>
    </linearGradient>
    <linearGradient id="h">
      <stop offset="0" stop-color="#0f8542"/>
      <stop offset="1" stop-color="#e4f8eb"/>
    </linearGradient>
    <linearGradient id="g">
      <stop offset="0" stop-color="#003100"/>
      <stop offset="1" stop-color="#7de27d"/>
    </linearGradient>
    <linearGradient id="p">
      <stop offset="0" stop-color="#022689"/>
      <stop offset="1" stop-color="#7c7c7d" stop-opacity=".35151514"/>
    </linearGradient>
    <linearGradient id="o">
      <stop offset="0" stop-color="#5b64ff"/>
      <stop offset="1" stop-color="#859eff"/>
    </linearGradient>
    <linearGradient id="n">
      <stop offset="0" stop-color="#002488"/>
      <stop offset="1" stop-color="#88b0ff"/>
    </linearGradient>
    <linearGradient id="m">
      <stop offset="0" stop-color="#7db8ff"/>
      <stop offset="1" stop-color="#e2e2ff" stop-opacity=".39215687"/>
    </linearGradient>
    <linearGradient id="l">
      <stop offset="0" stop-color="#0057ff"/>
      <stop offset="1" stop-color="#82a5ff"/>
    </linearGradient>
    <linearGradient id="k">
      <stop offset="0" stop-color="#00e0ff"/>
      <stop offset="1" stop-color="#9ff7ff"/>
    </linearGradient>
    <linearGradient id="j">
      <stop offset="0" stop-color="#003eff"/>
      <stop offset="1" stop-color="#8db3dd"/>
    </linearGradient>
    <linearGradient xlink:href="#a" id="F" x1="394.22168" x2="394.60254" y1="658.00684" y2="675.16943" gradientTransform="translate(160 -20)" gradientUnits="userSpaceOnUse"/>
    <linearGradient xlink:href="#b" id="G" x1="445.05676" x2="366.1488" y1="678.81458" y2="686.81201" gradientTransform="translate(99.466838 40.266581)" gradientUnits="userSpaceOnUse"/>
    <linearGradient xlink:href="#c" id="H" x1="536.79272" x2="469.34778" y1="703.22076" y2="721.34827" gradientUnits="userSpaceOnUse"/>
    <linearGradient xlink:href="#d" id="I" x1="536.66003" x2="524.67145" y1="712.16077" y2="715.09314" gradientUnits="userSpaceOnUse"/>
    <linearGradient xlink:href="#e" id="J" x1="523.5661" x2="455.42261" y1="726.15271" y2="737.99811" gradientUnits="userSpaceOnUse"/>
    <linearGradient xlink:href="#f" id="K" x1="362.68567" x2="421.94513" y1="686.77802" y2="686.77802" gradientTransform="translate(100 40)" gradientUnits="userSpaceOnUse"/>
    <linearGradient xlink:href="#g" id="L" x1="446.9437" x2="394.87628" y1="687.98529" y2="694.0661" gradientTransform="translate(100 40)" gradientUnits="userSpaceOnUse"/>
    <linearGradient xlink:href="#h" id="M" x1="533.42975" x2="495.80099" y1="722.49457" y2="738.21582" gradientUnits="userSpaceOnUse"/>
    <linearGradient xlink:href="#i" id="N" x1="542.07544" x2="535.2226" y1="721.31097" y2="726.28265" gradientTransform="translate(.13436944 .26873888)" gradientUnits="userSpaceOnUse"/>
    <linearGradient xlink:href="#j" id="O" x1="452.6272" x2="388.40973" y1="710.19562" y2="726.53595" gradientTransform="translate(0 40)" gradientUnits="userSpaceOnUse"/>
    <linearGradient xlink:href="#k" id="P" x1="451.31998" x2="372.06937" y1="713.46375" y2="735.19635" gradientTransform="translate(0 30)" gradientUnits="userSpaceOnUse"/>
    <linearGradient xlink:href="#l" id="Q" x1="449.42056" x2="376.3183" y1="702.36023" y2="706.11853" gradientTransform="translate(0 40)" gradientUnits="userSpaceOnUse"/>
    <linearGradient xlink:href="#m" id="R" x1="449.35913" x2="384.32462" y1="701.61694" y2="718.12073" gradientTransform="translate(0 40)" gradientUnits="userSpaceOnUse"/>
    <linearGradient xlink:href="#n" id="S" x1="448.35532" x2="383.3035" y1="737.40137" y2="750.14685" gradientUnits="userSpaceOnUse"/>
    <linearGradient xlink:href="#o" id="T" x1="411.20261" x2="394.72815" y1="743.84491" y2="746.3161" gradientUnits="userSpaceOnUse"/>
    <linearGradient xlink:href="#p" id="U" x1="443.49005" x2="381.70111" y1="693.49072" y2="706.92981" gradientTransform="translate(0 40)" gradientUnits="userSpaceOnUse"/>
    <linearGradient xlink:href="#q" id="W" x1="460.79617" x2="424.75095" y1="607.23834" y2="671.75446" gradientUnits="userSpaceOnUse"/>
    <linearGradient xlink:href="#r" id="V" x1="458.64563" x2="426.74786" y1="611.3858" y2="667.91418" gradientUnits="userSpaceOnUse"/>
    <linearGradient xlink:href="#s" id="X" x1="425.48737" x2="404.72675" y1="631.72736" y2="671.64209" gradientTransform="translate(20)" gradientUnits="userSpaceOnUse"/>
    <linearGradient xlink:href="#t" id="Z" x1="425.1235" x2="411.26724" y1="671.90131" y2="697.12665" gradientUnits="userSpaceOnUse"/>
    <linearGradient xlink:href="#u" id="Y" x1="416.00592" x2="421.49921" y1="681.93066" y2="684.66589" gradientUnits="userSpaceOnUse"/>
    <linearGradient xlink:href="#v" id="aa" x1="416.23422" x2="418.52762" y1="684.6712" y2="685.99182" gradientUnits="userSpaceOnUse"/>
    <linearGradient xlink:href="#w" id="ad" x1="508.23309" x2="508.87561" y1="679.67676" y2="743.67676" gradientUnits="userSpaceOnUse"/>
    <linearGradient xlink:href="#x" id="ai" x1="417.5" x2="401.27188" y1="690.79968" y2="682.24268" gradientTransform="translate(112.625 -13.25)" gradientUnits="userSpaceOnUse"/>
    <linearGradient xlink:href="#y" id="aj" x1="512.94775" x2="513.25464" y1="683.39105" y2="692.58344" gradientUnits="userSpaceOnUse"/>
    <radialGradient xlink:href="#z" id="ab" cx="409.6326" cy="700.35535" r="4.4961905" fx="409.6326" fy="700.35535" gradientTransform="matrix(1.0604 .31789 -.6339 2.1145 419.48052 -912.2022)" gradientUnits="userSpaceOnUse"/>
    <radialGradient xlink:href="#A" id="ae" cx="432.4375" cy="764.6803" r="31.1875" fx="432.4375" fy="764.6803" gradientTransform="matrix(.99996 -.00866 .004 .46293 76.951356 382.54866)" gradientUnits="userSpaceOnUse"/>
    <radialGradient xlink:href="#B" id="af" cx="353.0625" cy="764.17993" r="26.0625" fx="353.0625" fy="764.17993" gradientTransform="matrix(1 0 0 .3095 160 496.79431)" gradientUnits="userSpaceOnUse"/>
    <radialGradient xlink:href="#C" id="ag" cx="352.4375" cy="749.19275" r="32.1875" fx="352.4375" fy="749.19275" gradientTransform="matrix(.99998 -.00565 .00388 .68738 156.97114 207.49924)" gradientUnits="userSpaceOnUse"/>
    <radialGradient xlink:href="#D" id="ac" cx="510.77008" cy="755.52045" r="39.196262" fx="510.77008" fy="755.52045" gradientTransform="matrix(.99972 -.02365 .00638 .2696 -4.5166519 542.44564)" gradientUnits="userSpaceOnUse"/>
    <radialGradient xlink:href="#E" id="ah" cx="526.72174" cy="676.83539" r="4.781723" fx="526.72174" fy="676.83539" gradientTransform="matrix(3.23022 -.00915 .00435 1.5369 -1177.6528 -355.29634)" gradientUnits="userSpaceOnUse"/>
  </defs>
  <g transform="translate(-471.48309 -587.56761)">
    <path fill="#fff" fill-rule="evenodd" stroke="#333" stroke-width=".5" d="m475.9771 637.64163 120.76295-25.50171 28.79225 88.02204-120.26936 28.79225-18.42704-47.71288Z"/>
    <path fill="url(#F)" fill-rule="evenodd" d="M487.22538 643.89072s26.34385-8.29096 30.22188-6.95371c3.87803 1.33725 27.6811-.93608 31.9603-3.61058 4.27921-2.6745 7.48861-1.73842 8.02351-.40117.5349 1.33725 2.1396 3.07567 3.34313 2.00587 1.20353-1.0698 2.00588-2.80822 3.61058-2.40705 1.6047.40118.66862 3.2094-1.47098 3.7443-2.1396.53491-13.50624 2.80823-14.04114 4.14548-.5349 1.33725-3.47685 3.87803-.5349 4.27921 2.94196.40117 5.48273-3.20941 7.62233-3.34313 2.13961-.13373 3.87803.66863 2.40706 1.87215-1.47098 1.20353-4.27921 5.61646-3.74431 6.68626.5349 1.0698 3.74431-1.0698 5.61646-1.0698s7.48861-.40118 7.48861-.40118l10.16311-18.58779s7.4886-.26745 9.49448-1.6047c2.00588-1.33725 5.08155-2.67451 5.08155-2.67451l6.01763 20.1925-67.39746 32.4952-39.04773-11.50036z"/>
    <g fill-rule="evenodd" transform="translate(60 -60)">
      <path fill="url(#G)" d="M468.81461 722.61456s26.65809-4.79846 28.25757-7.19768c1.59949-2.39923 6.93111-3.59885 9.99679-3.73214 3.06568-.13329 11.0631.13329 13.46233-.93303 2.39923-1.06632 14.27102-7.86413 16.53696-8.13072 2.26594-.26658 7.18874 21.99292 7.18874 21.99292l-84.37284 8.26401z"/>
      <path fill="url(#H)" d="M537.05931 701.82125s-11.46298 4.79846-13.8622 5.86478c-2.39923 1.06632-.13329 1.86607-2.39923 2.53252s-16.92788 1.19961-18.79395 1.86606c-1.86606.66646-4.53188 3.19898-8.93046 4.53188s-23.99228 5.86696-23.99228 5.86696 23.19254-1.86825 26.5248-3.33444c3.33226-1.4662 9.86349-4.66517 13.99549-4.79846 4.13201-.13329 10.79653-.13329 13.06247-1.46619 2.26593-1.33291 3.73213-2.39923 6.39794-3.99871 2.6658-1.59949 10.39665-3.33227 10.39665-3.33227l-1.59949-2.79909z"/>
      <path fill="url(#I)" d="M523.59762 715.28359s3.86542-.39988 5.06504-1.19962c1.19961-.79974 8.13071-.79974 7.86413-1.59948-.26658-.79975-6.66452-.66646-9.06375.39987-2.39922 1.06632-3.86542 2.39923-3.86542 2.39923z"/>
    </g>
    <g fill-rule="evenodd" transform="translate(59.466838 -59.733419)">
      <path fill="url(#J)" d="M461.22195 726.77617s29.92518-8.35411 35.91022-8.35411c5.98504 0 24.18953 1.12219 25.18703 2.49376.99751 1.37157 2.86784 7.10723.62345 8.4788-2.24439 1.37157-15.46135 13.8404-15.46135 13.8404l-51.62095 4.86285z"/>
      <path fill="url(#K)" d="M468.70324 734.25747s7.60599-3.36659 8.4788-3.36659c.87282 0 .24938 4.11472 1.37158 4.11472 1.12219 0 5.2369.9975 5.36159-.24938.12469-1.24688-.9975-.49875-1.37157-1.24688-.37406-.74813-1.62095-2.99252.49875-3.2419 2.1197-.24937 1.87033 1.99501 3.49128 2.36908 1.62094.37406.9975-1.99501 1.49626-2.24439.49875-.24938 1.24688.87282 1.62094-.24938.37407-1.12219-3.86533-1.74563-4.2394-4.73815-.37406-2.99252 6.48379-5.98504 7.4813-4.98753.9975.9975-.99751 3.74065 0 4.48878.9975.74813 8.22942.24937 9.47631.62344 1.24688.37406 1.49626 1.37157 2.99252 1.37157s2.86783-4.61347 4.11471-4.73816c1.24688-.12468-.99751 1.74564-.62344 2.86783.37406 1.1222 2.49376-.62344 3.1172-.62344.62345 0 6.98255 5.3616 6.98255 5.3616l4.2334-8.03263c-2.3091-2.61111-11.70868-2.32005-16.57754-2.93994-10.50719-1.33775-19.64597-.148-42.96309 7.41874-7.63196 2.47668 5.05785 8.04261 5.05785 8.04261z"/>
    </g>
    <g fill-rule="evenodd" transform="translate(60 -60)">
      <path fill="url(#L)" d="M496.20647 736.06142s8.93128-6.08087 11.2116-7.22103c2.28033-1.14016 10.26146-6.46092 13.68195-7.22103 3.42049-.76011 22.04314-.95014 22.04314-.95014l3.99057 13.49193-52.25745 7.22103z"/>
      <path fill="url(#M)" d="M499.07724 737.22377s1.07496-1.88117 1.7468-1.88117c.67185 0 3.49361-.40311 3.49361-.40311l2.14991-3.0905h5.24041l.94058-3.09049s8.06217.80621 8.19654-.67185c.13437-1.47806-2.41865-1.34369-2.14991-2.41865.26874-1.07496 6.71847.80622 6.85284-.26874.13437-1.07495.53748-2.14991 2.01554-2.41865 1.47807-.26874 6.98722-1.34369 8.19654-1.88117 1.20933-.53747-11.95888-.40311-14.64627.40311-2.68739.80621-23.38028 12.09324-25.53019 15.85559-1.5549 2.72108 3.4936-.13437 3.4936-.13437z"/>
      <path fill="url(#N)" d="M535.7601 722.84624c1.34369 0-2.14991 3.62798 1.7468 4.29983 3.89671.67184 5.10604-.94059 5.24041-3.0905.13437-2.14991.40311-3.35924.40311-3.35924l-7.9278.13437z"/>
    </g>
    <g fill-rule="evenodd" transform="translate(160 -60)">
      <path fill="url(#O)" d="m383.99782 771.11127 69.93662-16.01353-2.77786-9.15059-64.38091 16.34034-1.96084 1.14382-.65361 2.77786z"/>
      <path fill="url(#P)" d="m435.79667 751.82967-53.59629 12.90887.1634-1.14383 68.7928-17.64756-1.47063-4.41189-77.12637 18.46458 2.12425 8.49697 61.60305-15.68672z"/>
      <path fill="url(#Q)" d="m391.35097 757.8756 59.64221-12.90887-5.22891-14.54289s-27.28835 5.39231-38.07297 5.88252c-10.78462.49021-14.5429.65361-16.99395 1.30722-2.45105.65362-15.35991 8.00677-15.35991 8.00677l4.41189 14.8697z"/>
      <path fill="url(#R)" d="M450.01276 741.69867s-20.42542 3.43147-25.16411 4.08508c-.90132.12432-1.96313.90649-4.67966 1.56246-11.56572 2.79285-36.17118 9.38556-36.17118 9.38556l.65362 2.12425s33.17087-9.15059 38.72659-10.29441c5.55571-1.14383 26.63474-6.86294 26.63474-6.86294z"/>
      <path fill="url(#S)" d="M390.37055 752.48329s31.21003-7.84336 32.84406-7.84336c1.63404 0 2.94126-.49021 4.7387-1.14383 1.79744-.65361 20.42542-5.2289 20.42542-5.2289l-.81702-3.10467s-25.16411 5.88252-28.10537 6.53614c-2.94126.65361-12.41865 1.14382-12.41865 1.14382s-3.75828 2.28765-1.96084 2.61445c1.79743.32681 18.95478-3.43147 18.95478-3.43147s-37.90957 9.8042-40.03381 10.13101c-2.12425.32681 6.37273.32681 6.37273.32681z"/>
      <path fill="url(#T)" d="M410.04942 743.10356s-10.21416.32948-13.17957 1.64744c-2.9654 1.31796-3.13015 3.78913-3.13015 3.78913s2.80066-1.4827 5.43658-2.14168c2.63591-.65898 10.87314-3.29489 10.87314-3.29489z"/>
      <path fill="url(#U)" d="M443.95346 733.36853s-34.44733 6.17889-39.23597 7.10572c-4.78865.92684-18.07327 4.63417-19.15457 6.48784-1.08131 1.85367-4.17075-1.54472-4.17075-1.54472s20.0814-6.02442 23.17084-5.86995c3.08945.15447 2.00814-.61789 3.39839-.92683 1.39026-.30895 35.99206-5.25206 35.99206-5.25206z"/>
    </g>
    <path fill="none" stroke="#fff" d="M537.57297 712.70015c1.99692 0 76.34408-17.66513 76.34408-17.66513l-23.19509-76.95853-103.99385 25.80645 17.2043 75.26882z"/>
    <path fill-opacity=".17575755" fill-rule="evenodd" d="M548.61807 688.10144s24.14524-12.78277 33.65037-18.90102c9.50514-6.11825 44.35731-30.7005 44.68508-31.68379.32776-.98329 1.4203-2.18509.32776-2.29435-1.09255-.10925-3.38689-.76478-4.58869.10926-1.2018.87403-52.00512 32.44857-54.84573 34.5244-2.84062 2.07584-21.85089 16.27892-21.85089 16.27892z"/>
    <g fill-rule="evenodd" transform="translate(141.84789 -18.152115)">
      <path fill="url(#V)" stroke="url(#W)" stroke-width="1.5" d="M421.68971 671.40982s12.44239-26.42089 14.1321-29.8003c1.68971-3.37942 19.50845-32.56529 21.50538-33.48695 1.99693-.92166 2.91859-.76805 3.84024-.15361.92166.61444 0 2.45776 0 3.68664 0 1.22888-14.1321 30.87558-17.51152 36.71275-3.37941 5.83717-16.58986 25.19201-16.58986 25.19201z"/>
      <path fill="url(#X)" d="M423.40254 672.15886s8.50974-19.55216 9.92804-21.37568c1.41829-1.82351 10.63718-19.34954 11.95416-19.24823 1.31699.1013-9.72542 22.38874-12.76462 28.16321-3.03919 5.77447-6.07839 12.4607-7.49668 12.96724-1.41829.50653-1.6209-.50654-1.6209-.50654z"/>
      <path fill="url(#Y)" stroke="url(#Z)" d="m421.47771 671.24711 5.87577 2.43135-13.87898 23.19919s-.96241.20261-2.12743-.50654c-1.0946-.66629-.81046-1.6209-.81046-1.6209z"/>
      <path fill="url(#aa)" d="M412.07466 695.35696s5.66561-7.81711 6.31106-9.10801c.64545-1.2909 6.16763-11.04435 6.16763-11.04435l-2.79695-1.07575c-3.23922 7.07071-6.2639 11.21672-9.68174 21.22811z"/>
      <path fill="url(#ab)" d="M404.39808 707.90072s6.77915-4.36282 7.92019-6.84627c1.14105-2.48345 1.69184-4.38947 0-5.43675-2.42467-1.50091-3.96009.13424-5.03402 2.08073-1.07392 1.94649-2.88617 10.20229-2.88617 10.20229z"/>
    </g>
    <path fill="url(#ac)" fill-rule="evenodd" stroke="url(#ad)" stroke-linecap="round" stroke-linejoin="round" d="M490.70711 679.6122s-17.33211 8-17.70711 15.375 5.75 33.125 14.5 40.875 22.125 7.375 25.75 7.5 18.375-1.5 23.625-8.75c4.39882-6.07457 13.375-24.75 13.5-36.125s-18.80806-19.08839-18.80806-19.08839"/>
    <path fill="url(#ae)" fill-rule="evenodd" d="M481.125 712.7372s2.11835 24.73898 30.5 24.625c31.125-.125 31.875-24.125 31.875-24.125z"/>
    <path fill="url(#af)" fill-rule="evenodd" d="M486.5 721.3622s7.75315 11.32102 26.25 11.5c19.12778.18509 25.875-12.5 25.875-12.5s-2.99794 16.53144-25.75 16.125c-25.37588-.45332-26.375-15.125-26.375-15.125z"/>
    <ellipse cx="512.3125" cy="708.86218" fill="url(#ag)" rx="32.1875" ry="17.75"/>
    <path fill="url(#ah)" fill-rule="evenodd" d="m531.59987 674.00604.15987 8.71877-3.40879 3.03384S527.5 689.9872 522.75 689.9872s-23.28921 2.47855-27.78921-1.64645-5.3488-12.15685-2.4738-13.03185c2.875-.875 3.88801 1.9283 3.88801 1.9283z"/>
    <ellipse cx="510.9375" cy="670.04968" fill="url(#ai)" rx="19.8125" ry="10.0625"/>
    <ellipse cx="511.3125" cy="670.11218" fill="none" stroke="#ccc" stroke-linecap="round" stroke-linejoin="round" rx="20.458818" ry="10.646318"/>
    <path fill="none" stroke="url(#aj)" stroke-linecap="round" stroke-linejoin="round" d="m490.90889 670.39196.13587 11.95495s6.90235 9.41001 20.26615 9.41001 20.53558-10.14053 20.53558-10.14053l-.10219-11.35701"/>
    <path fill="none" stroke="#fff" stroke-linecap="round" stroke-linejoin="round" stroke-width="2.5999999" d="M478.02128 704.7066s13.70019 13.16986 34.20629 12.1092c20.50609-1.06066 34.29467-12.28598 34.29467-12.28598"/>
    <path fill="#aeaeae" fill-rule="evenodd" d="M548.20598 695.96164s-5.75616-7.89798-9.50435-10.17367c-3.7482-2.27569-8.29958-3.48046-8.29958-3.48046s-1.50158-.87467.13386-1.8741c2.40956-1.47251 8.38177 3.31948 10.57527 4.8191 4.66663 3.19042 8.22624 11.32628 7.0948 10.70913z"/>
    <path fill="#b0b0b0" fill-rule="evenodd" d="M474.11794 696.22937s3.88206-6.6932 7.63025-8.96889c3.7482-2.27569 10.17368-4.68524 10.17368-4.68524s1.50158-.87467-.13386-1.8741c-2.40956-1.47251-10.52359 5.05971-12.71709 6.55933-4.66663 3.19042-6.08442 9.58605-4.95298 8.9689z"/>
  </g>
</svg>