<?xml version="1.0" encoding="UTF-8" standalone="no"?>
<svg xmlns="http://www.w3.org/2000/svg" xmlns:xlink="http://www.w3.org/1999/xlink" width="64" height="64" viewBox="0 0 125.957 125.956">
  <linearGradient id="b">
    <stop offset="0" stop-color="#a4cdec"/>
    <stop offset="1" stop-color="#040404"/>
  </linearGradient>
  <linearGradient id="c" x1="55.344" x2="55.344" y1="154.806" y2="41.343" gradientTransform="matrix(.999952 0 0 .999944 .003277 .003275)" gradientUnits="userSpaceOnUse">
    <stop offset="0" stop-color="#418bde"/>
    <stop offset="1" stop-color="#001b7b"/>
  </linearGradient>
  <linearGradient id="d" x1="62.978" x2="62.978" y1="182.561" y2="61.897" gradientUnits="userSpaceOnUse">
    <stop offset="0" stop-color="#a4cdec"/>
    <stop offset="1" stop-color="#0068c6"/>
  </linearGradient>
  <linearGradient id="a">
    <stop offset="0" stop-color="#fff"/>
    <stop offset="1" stop-color="#fff" stop-opacity="0"/>
  </linearGradient>
  <linearGradient id="e" x1="65.11" x2="65.11" y1="13.57" y2="77.436" gradientUnits="userSpaceOnUse" xlink:href="#a"/>
  <linearGradient id="f" x1="26.567" x2="73.836" y1="25.931" y2="73.889" gradientUnits="userSpaceOnUse" xlink:href="#a"/>
  <linearGradient id="g" x1="62.997" x2="62.997" y1="168.497" y2="65.001" gradientUnits="userSpaceOnUse" xlink:href="#a"/>
  <linearGradient id="h" x1="31.053" x2="53.82" y1="21.614" y2="60.985" gradientTransform="matrix(.999897 -.01009996 .01009996 .999897 .003277 .003275)" gradientUnits="userSpaceOnUse" xlink:href="#a"/>
  <linearGradient id="i" x1="55.344" x2="55.344" y1="154.806" y2="41.343" gradientTransform="matrix(.999952 0 0 .999944 .003277 .003275)" gradientUnits="userSpaceOnUse" xlink:href="#b"/>
  <linearGradient id="j" x1="62.978" x2="62.978" y1="182.561" y2="61.897" gradientUnits="userSpaceOnUse" xlink:href="#b"/>
  <g transform="matrix(.319463 0 0 .319463 .000032 21.42927)">
    <path fill="url(#c)" d="m125.95372 62.340031c.35198 34.780191-27.559562 63.260709-62.338753 63.612699-34.78019.35197-63.25970844-27.558574-63.61169016-62.338765-.35198169-34.77919 27.55756616-63.25870852 62.33675616-63.61069023 34.781191-.35198169 63.260707 27.55756623 63.613687 62.33675623z"/>
    <path fill="url(#d)" d="m119.28407 62.407028c.31399 31.098382-24.639717 56.562052-55.737099 56.877042-31.096383.31398-56.5610574-24.639719-56.876041-55.737101-.3139837-31.096383 24.640719-56.5620574 55.7371-56.8760411 31.098382-.3139837 56.56206 24.6407181 56.87604 55.7361001z"/>
    <path fill="url(#e)" d="m63.454976 11.25869c-27.405575.276985-49.39843 22.719817-49.121444 50.124392.014998 1.510921.108994 3.001844.256986 4.476766 13.701287 5.719704 30.112433 8.970534 47.728517 8.792543 19.228-.19399 36.942078-4.442769 51.203335-11.461403.043-.930952.06399-1.867903.057-2.811854-.27699-27.404575-22.71782-49.39743-50.124394-49.120444z"/>
    <path fill="url(#f)" d="m64.966897 16.643409c24.730713-.249986 45.552633 17.013115 50.692363 40.234907-3.05284-26.643614-25.810657-47.2075445-53.218231-46.9305586-29.287477.2959846-52.7892541 24.2797376-52.4932695 53.5662136.1499915 14.827228 6.3766685 28.162535 16.2821535 37.686039-7.460612-8.820541-12.008376-20.192949-12.134369-32.646301-.286986-28.382524 22.488829-51.623314 50.871353-51.9103z"/>
    <path fill="url(#g)" d="m63.440977 110.71952c-26.443625.26798-48.26149-20.178955-50.051396-46.2246-.046999.976949-.074997 1.957898-.063997 2.947847.276986 27.435572 22.741817 49.448433 50.17439 49.170443 27.434572-.27698 49.446426-22.739818 49.169436-50.175391-.01-.988949-.05699-1.970898-.12498-2.945847-1.26194 26.076643-22.660829 46.959548-49.103453 47.227548z" opacity=".5"/>
    <path fill="url(#h)" d="m52.923524 30.041713c-5.056737-4.109787-10.897433-7.13363-17.237103-8.740546-11.251415 7.769595-19.823969 20.123953-23.801763 34.817189 5.739702-2.846852 12.103372-4.472768 18.822022-4.540764 1.702911-.017 3.381824.074996 5.037738.256986 4.137784-8.751544 10.044477-16.229155 17.179106-21.792865z" opacity=".6"/>
  </g>
  <g transform="matrix(.319463 0 0 .319463 .000032 64.28847)">
    <path fill="url(#c)" d="m125.95372 62.340031c.35198 34.780191-27.559562 63.260709-62.338753 63.612699-34.78019.35197-63.25970844-27.558574-63.61169016-62.338765-.35198169-34.77919 27.55756616-63.25870852 62.33675616-63.61069023 34.781191-.35198169 63.260707 27.55756623 63.613687 62.33675623z"/>
    <path fill="url(#d)" d="m119.28407 62.407028c.31399 31.098382-24.639717 56.562052-55.737099 56.877042-31.096383.31398-56.5610574-24.639719-56.876041-55.737101-.3139837-31.096383 24.640719-56.5620574 55.7371-56.8760411 31.098382-.3139837 56.56206 24.6407181 56.87604 55.7361001z"/>
    <path fill="url(#e)" d="m63.454976 11.25869c-27.405575.276985-49.39843 22.719817-49.121444 50.124392.014998 1.510921.108994 3.001844.256986 4.476766 13.701287 5.719704 30.112433 8.970534 47.728517 8.792543 19.228-.19399 36.942078-4.442769 51.203335-11.461403.043-.930952.06399-1.867903.057-2.811854-.27699-27.404575-22.71782-49.39743-50.124394-49.120444z"/>
    <path fill="url(#f)" d="m64.966897 16.643409c24.730713-.249986 45.552633 17.013115 50.692363 40.234907-3.05284-26.643614-25.810657-47.2075445-53.218231-46.9305586-29.287477.2959846-52.7892541 24.2797376-52.4932695 53.5662136.1499915 14.827228 6.3766685 28.162535 16.2821535 37.686039-7.460612-8.820541-12.008376-20.192949-12.134369-32.646301-.286986-28.382524 22.488829-51.623314 50.871353-51.9103z"/>
    <path fill="url(#g)" d="m63.440977 110.71952c-26.443625.26798-48.26149-20.178955-50.051396-46.2246-.046999.976949-.074997 1.957898-.063997 2.947847.276986 27.435572 22.741817 49.448433 50.17439 49.170443 27.434572-.27698 49.446426-22.739818 49.169436-50.175391-.01-.988949-.05699-1.970898-.12498-2.945847-1.26194 26.076643-22.660829 46.959548-49.103453 47.227548z" opacity=".5"/>
    <path fill="url(#h)" d="m52.923524 30.041713c-5.056737-4.109787-10.897433-7.13363-17.237103-8.740546-11.251415 7.769595-19.823969 20.123953-23.801763 34.817189 5.739702-2.846852 12.103372-4.472768 18.822022-4.540764 1.702911-.017 3.381824.074996 5.037738.256986 4.137784-8.751544 10.044477-16.229155 17.179106-21.792865z" opacity=".6"/>
  </g>
  <g transform="matrix(.319463 0 0 .319463 42.85923 21.42927)">
    <path fill="url(#c)" d="m125.95372 62.340031c.35198 34.780191-27.559562 63.260709-62.338753 63.612699-34.78019.35197-63.25970844-27.558574-63.61169016-62.338765-.35198169-34.77919 27.55756616-63.25870852 62.33675616-63.61069023 34.781191-.35198169 63.260707 27.55756623 63.613687 62.33675623z"/>
    <path fill="url(#d)" d="m119.28407 62.407028c.31399 31.098382-24.639717 56.562052-55.737099 56.877042-31.096383.31398-56.5610574-24.639719-56.876041-55.737101-.3139837-31.096383 24.640719-56.5620574 55.7371-56.8760411 31.098382-.3139837 56.56206 24.6407181 56.87604 55.7361001z"/>
    <path fill="url(#e)" d="m63.454976 11.25869c-27.405575.276985-49.39843 22.719817-49.121444 50.124392.014998 1.510921.108994 3.001844.256986 4.476766 13.701287 5.719704 30.112433 8.970534 47.728517 8.792543 19.228-.19399 36.942078-4.442769 51.203335-11.461403.043-.930952.06399-1.867903.057-2.811854-.27699-27.404575-22.71782-49.39743-50.124394-49.120444z"/>
    <path fill="url(#f)" d="m64.966897 16.643409c24.730713-.249986 45.552633 17.013115 50.692363 40.234907-3.05284-26.643614-25.810657-47.2075445-53.218231-46.9305586-29.287477.2959846-52.7892541 24.2797376-52.4932695 53.5662136.1499915 14.827228 6.3766685 28.162535 16.2821535 37.686039-7.460612-8.820541-12.008376-20.192949-12.134369-32.646301-.286986-28.382524 22.488829-51.623314 50.871353-51.9103z"/>
    <path fill="url(#g)" d="m63.440977 110.71952c-26.443625.26798-48.26149-20.178955-50.051396-46.2246-.046999.976949-.074997 1.957898-.063997 2.947847.276986 27.435572 22.741817 49.448433 50.17439 49.170443 27.434572-.27698 49.446426-22.739818 49.169436-50.175391-.01-.988949-.05699-1.970898-.12498-2.945847-1.26194 26.076643-22.660829 46.959548-49.103453 47.227548z" opacity=".5"/>
    <path fill="url(#h)" d="m52.923524 30.041713c-5.056737-4.109787-10.897433-7.13363-17.237103-8.740546-11.251415 7.769595-19.823969 20.123953-23.801763 34.817189 5.739702-2.846852 12.103372-4.472768 18.822022-4.540764 1.702911-.017 3.381824.074996 5.037738.256986 4.137784-8.751544 10.044477-16.229155 17.179106-21.792865z" opacity=".6"/>
  </g>
  <g transform="matrix(.319463 0 0 .319463 42.85923 64.28848)">
    <path fill="url(#i)" d="m125.95372 62.340031c.35198 34.780191-27.559562 63.260709-62.338753 63.612699-34.78019.35197-63.25970844-27.558574-63.61169016-62.338765-.35198169-34.77919 27.55756616-63.25870852 62.33675616-63.61069023 34.781191-.35198169 63.260707 27.55756623 63.613687 62.33675623z"/>
    <path fill="url(#j)" d="m119.28407 62.407028c.31399 31.098382-24.639717 56.562052-55.737099 56.877042-31.096383.31398-56.5610574-24.639719-56.876041-55.737101-.3139837-31.096383 24.640719-56.5620574 55.7371-56.8760411 31.098382-.3139837 56.56206 24.6407181 56.87604 55.7361001z"/>
    <path fill="url(#e)" d="m63.454976 11.25869c-27.405575.276985-49.39843 22.719817-49.121444 50.124392.014998 1.510921.108994 3.001844.256986 4.476766 13.701287 5.719704 30.112433 8.970534 47.728517 8.792543 19.228-.19399 36.942078-4.442769 51.203335-11.461403.043-.930952.06399-1.867903.057-2.811854-.27699-27.404575-22.71782-49.39743-50.124394-49.120444z"/>
    <path fill="url(#f)" d="m64.966897 16.643409c24.730713-.249986 45.552633 17.013115 50.692363 40.234907-3.05284-26.643614-25.810657-47.2075445-53.218231-46.9305586-29.287477.2959846-52.7892541 24.2797376-52.4932695 53.5662136.1499915 14.827228 6.3766685 28.162535 16.2821535 37.686039-7.460612-8.820541-12.008376-20.192949-12.134369-32.646301-.286986-28.382524 22.488829-51.623314 50.871353-51.9103z"/>
    <path fill="url(#g)" d="m63.440977 110.71952c-26.443625.26798-48.26149-20.178955-50.051396-46.2246-.046999.976949-.074997 1.957898-.063997 2.947847.276986 27.435572 22.741817 49.448433 50.17439 49.170443 27.434572-.27698 49.446426-22.739818 49.169436-50.175391-.01-.988949-.05699-1.970898-.12498-2.945847-1.26194 26.076643-22.660829 46.959548-49.103453 47.227548z" opacity=".5"/>
    <path fill="url(#h)" d="m52.923524 30.041713c-5.056737-4.109787-10.897433-7.13363-17.237103-8.740546-11.251415 7.769595-19.823969 20.123953-23.801763 34.817189 5.739702-2.846852 12.103372-4.472768 18.822022-4.540764 1.702911-.017 3.381824.074996 5.037738.256986 4.137784-8.751544 10.044477-16.229155 17.179106-21.792865z" opacity=".6"/>
  </g>
  <g transform="matrix(.319463 0 0 .319463 85.71841 64.28848)">
    <path fill="url(#c)" d="m125.95372 62.340031c.35198 34.780191-27.559562 63.260709-62.338753 63.612699-34.78019.35197-63.25970844-27.558574-63.61169016-62.338765-.35198169-34.77919 27.55756616-63.25870852 62.33675616-63.61069023 34.781191-.35198169 63.260707 27.55756623 63.613687 62.33675623z"/>
    <path fill="url(#d)" d="m119.28407 62.407028c.31399 31.098382-24.639717 56.562052-55.737099 56.877042-31.096383.31398-56.5610574-24.639719-56.876041-55.737101-.3139837-31.096383 24.640719-56.5620574 55.7371-56.8760411 31.098382-.3139837 56.56206 24.6407181 56.87604 55.7361001z"/>
    <path fill="url(#e)" d="m63.454976 11.25869c-27.405575.276985-49.39843 22.719817-49.121444 50.124392.014998 1.510921.108994 3.001844.256986 4.476766 13.701287 5.719704 30.112433 8.970534 47.728517 8.792543 19.228-.19399 36.942078-4.442769 51.203335-11.461403.043-.930952.06399-1.867903.057-2.811854-.27699-27.404575-22.71782-49.39743-50.124394-49.120444z"/>
    <path fill="url(#f)" d="m64.966897 16.643409c24.730713-.249986 45.552633 17.013115 50.692363 40.234907-3.05284-26.643614-25.810657-47.2075445-53.218231-46.9305586-29.287477.2959846-52.7892541 24.2797376-52.4932695 53.5662136.1499915 14.827228 6.3766685 28.162535 16.2821535 37.686039-7.460612-8.820541-12.008376-20.192949-12.134369-32.646301-.286986-28.382524 22.488829-51.623314 50.871353-51.9103z"/>
    <path fill="url(#g)" d="m63.440977 110.71952c-26.443625.26798-48.26149-20.178955-50.051396-46.2246-.046999.976949-.074997 1.957898-.063997 2.947847.276986 27.435572 22.741817 49.448433 50.17439 49.170443 27.434572-.27698 49.446426-22.739818 49.169436-50.175391-.01-.988949-.05699-1.970898-.12498-2.945847-1.26194 26.076643-22.660829 46.959548-49.103453 47.227548z" opacity=".5"/>
    <path fill="url(#h)" d="m52.923524 30.041713c-5.056737-4.109787-10.897433-7.13363-17.237103-8.740546-11.251415 7.769595-19.823969 20.123953-23.801763 34.817189 5.739702-2.846852 12.103372-4.472768 18.822022-4.540764 1.702911-.017 3.381824.074996 5.037738.256986 4.137784-8.751544 10.044477-16.229155 17.179106-21.792865z" opacity=".6"/>
  </g>
  <g transform="matrix(.319463 0 0 .319463 85.71842 21.42928)">
    <path fill="url(#i)" d="m125.95372 62.340031c.35198 34.780191-27.559562 63.260709-62.338753 63.612699-34.78019.35197-63.25970844-27.558574-63.61169016-62.338765-.35198169-34.77919 27.55756616-63.25870852 62.33675616-63.61069023 34.781191-.35198169 63.260707 27.55756623 63.613687 62.33675623z"/>
    <path fill="url(#j)" d="m119.28407 62.407028c.31399 31.098382-24.639717 56.562052-55.737099 56.877042-31.096383.31398-56.5610574-24.639719-56.876041-55.737101-.3139837-31.096383 24.640719-56.5620574 55.7371-56.8760411 31.098382-.3139837 56.56206 24.6407181 56.87604 55.7361001z"/>
    <path fill="url(#e)" d="m63.454976 11.25869c-27.405575.276985-49.39843 22.719817-49.121444 50.124392.014998 1.510921.108994 3.001844.256986 4.476766 13.701287 5.719704 30.112433 8.970534 47.728517 8.792543 19.228-.19399 36.942078-4.442769 51.203335-11.461403.043-.930952.06399-1.867903.057-2.811854-.27699-27.404575-22.71782-49.39743-50.124394-49.120444z"/>
    <path fill="url(#f)" d="m64.966897 16.643409c24.730713-.249986 45.552633 17.013115 50.692363 40.234907-3.05284-26.643614-25.810657-47.2075445-53.218231-46.9305586-29.287477.2959846-52.7892541 24.2797376-52.4932695 53.5662136.1499915 14.827228 6.3766685 28.162535 16.2821535 37.686039-7.460612-8.820541-12.008376-20.192949-12.134369-32.646301-.286986-28.382524 22.488829-51.623314 50.871353-51.9103z"/>
    <path fill="url(#g)" d="m63.440977 110.71952c-26.443625.26798-48.26149-20.178955-50.051396-46.2246-.046999.976949-.074997 1.957898-.063997 2.947847.276986 27.435572 22.741817 49.448433 50.17439 49.170443 27.434572-.27698 49.446426-22.739818 49.169436-50.175391-.01-.988949-.05699-1.970898-.12498-2.945847-1.26194 26.076643-22.660829 46.959548-49.103453 47.227548z" opacity=".5"/>
    <path fill="url(#h)" d="m52.923524 30.041713c-5.056737-4.109787-10.897433-7.13363-17.237103-8.740546-11.251415 7.769595-19.823969 20.123953-23.801763 34.817189 5.739702-2.846852 12.103372-4.472768 18.822022-4.540764 1.702911-.017 3.381824.074996 5.037738.256986 4.137784-8.751544 10.044477-16.229155 17.179106-21.792865z" opacity=".6"/>
  </g>
</svg>
