<?xml version="1.0" encoding="UTF-8" standalone="no"?>
<svg xmlns="http://www.w3.org/2000/svg" xmlns:xlink="http://www.w3.org/1999/xlink" xml:space="preserve" width="128" height="128">
  <defs>
    <radialGradient xlink:href="#a" id="l" cx="60.824699" cy="107.7041" r="48.575199" gradientUnits="userSpaceOnUse"/>
    <radialGradient id="a" cx="60.824699" cy="107.7041" r="48.575199" gradientUnits="userSpaceOnUse">
      <stop offset="0" stop-color="#ffe791"/>
      <stop offset="1" stop-color="#e74200"/>
    </radialGradient>
    <radialGradient xlink:href="#b" id="m" cx="34.716801" cy="109.125" r="21.6693" gradientUnits="userSpaceOnUse"/>
    <radialGradient id="b" cx="34.716801" cy="109.125" r="21.6693" gradientUnits="userSpaceOnUse">
      <stop offset=".0934" stop-color="#ffe791"/>
      <stop offset=".3547" stop-color="#f7af60"/>
      <stop offset=".6573" stop-color="#ee742c"/>
      <stop offset=".88129997" stop-color="#e9500c"/>
      <stop offset="1" stop-color="#e74200"/>
    </radialGradient>
    <radialGradient xlink:href="#c" id="p" cx="68.1436" cy="108.8955" r="60.0242" gradientUnits="userSpaceOnUse"/>
    <radialGradient id="c" cx="68.1436" cy="108.8955" r="60.0242" gradientUnits="userSpaceOnUse">
      <stop offset="0" stop-color="#d3fe96"/>
      <stop offset="1" stop-color="#67da00"/>
    </radialGradient>
    <radialGradient xlink:href="#d" id="q" cx="94.75" cy="108.5" r="21.33" gradientUnits="userSpaceOnUse"/>
    <radialGradient id="d" cx="94.75" cy="108.5" r="21.33" gradientUnits="userSpaceOnUse">
      <stop offset="0" stop-color="#d3fe96"/>
      <stop offset="1" stop-color="#67da00"/>
    </radialGradient>
    <linearGradient id="g" x1="34.700699" x2="34.700699" y1="14.5" y2="53.512699" gradientUnits="userSpaceOnUse">
      <stop offset="0" stop-color="#dea4a5"/>
      <stop offset="1" stop-color="#ec7346"/>
    </linearGradient>
    <linearGradient id="h" x1="5" x2="64" y1="52.5" y2="52.5" gradientUnits="userSpaceOnUse">
      <stop offset="0" stop-color="#d83600"/>
      <stop offset="1" stop-color="#f54c00"/>
    </linearGradient>
    <linearGradient id="e" x1="93.458" x2="93.458" y1="14.5" y2="53.494099" gradientUnits="userSpaceOnUse">
      <stop offset="0" stop-color="#8fb4ec"/>
      <stop offset="1" stop-color="#51c8ff"/>
    </linearGradient>
    <linearGradient id="f" x1="64" x2="123.5" y1="51.959999" y2="51.959999" gradientUnits="userSpaceOnUse">
      <stop offset="0" stop-color="#2bc6ff"/>
      <stop offset="1" stop-color="#1d9ef5"/>
    </linearGradient>
    <linearGradient xlink:href="#e" id="o" x1="93.458" x2="93.458" y1="14.5" y2="53.494099" gradientUnits="userSpaceOnUse"/>
    <linearGradient xlink:href="#f" id="n" x1="64" x2="123.5" y1="51.959999" y2="51.959999" gradientUnits="userSpaceOnUse"/>
    <linearGradient xlink:href="#g" id="k" x1="34.700699" x2="34.700699" y1="14.5" y2="53.512699" gradientUnits="userSpaceOnUse"/>
    <linearGradient xlink:href="#h" id="j" x1="5" x2="64" y1="52.5" y2="52.5" gradientUnits="userSpaceOnUse"/>
  </defs>
  <filter id="r" color-interpolation-filters="sRGB">
    <feGaussianBlur in="SourceGraphic" stdDeviation="1.3"/>
  </filter>
  <filter id="i" color-interpolation-filters="sRGB">
    <feGaussianBlur in="SourceGraphic" stdDeviation="2"/>
  </filter>
  <path d="M125.5 117v-12l-5-87H7.5l-4 87v12z" filter="url(#i)"/>
  <path fill="url(#j)" d="M6.5 14.5 5.40625 46.625v.09375L5 58.375h59V14.5H6.5z"/>
  <path fill="url(#k)" d="M64 53.494V14.5H6.5L5.401 46.728C24.141 51.564 44.07 53.739 64 53.494z"/>
  <path fill="url(#l)" d="M62.999 101.5H4.536l1.43-42h57.033v42z"/>
  <path fill="#cf3900" d="M64 58.5v44H3.5l1.5-44h59m-2 2H6.933l-1.364 40H62v-40z"/>
  <path fill="url(#m)" d="M63 113.501H4.5v-10.002H63v10.002z"/>
  <path fill="#b22208" d="M64 102.5v12H3.5v-12H64m-2 2H5.5v8H62v-8z"/>
  <path fill="url(#n)" d="M64 14.5v43.875h59.5l-.59375-12.71875v-.125L121.5 14.5H64z"/>
  <path fill="url(#o)" d="M122.916 45.649 121.5 14.5H64v38.994c20.042-.247 40.085-2.942 58.916-7.845z"/>
  <path fill="url(#p)" d="M124.452 101.498h-59.45V59.502h57.542l1.908 41.996z"/>
  <path fill="#009400" d="m123.5 58.5 2 44H64v-44h59.5m-1.911 2H66v40h57.407l-1.818-40z"/>
  <path fill="url(#q)" d="M124.498 113.499H65.002V103.5h59.496v9.999z"/>
  <path fill="#009400" d="M125.5 102.5v12H64v-12h61.5m-2 2H66v8h57.5v-8z"/>
  <path fill="#cf3900" d="M64 14.5v44H5l1.5-44H64m-2 2H8.433l-1.364 40H62v-40z"/>
  <path fill="#262db2" d="m121.5 14.5 2 44H64v-44h57.5m-1.911 2H66v40h55.407l-1.818-40z"/>
  <path fill="#fff" d="M122.5 102.564c-1-4.687-113.333-2.343-116 0 32.333 1.171 81 .912 116 0z" filter="url(#r)" opacity=".82999998"/>
</svg>