<?xml version="1.0" encoding="UTF-8" standalone="no"?>
<svg xmlns="http://www.w3.org/2000/svg" width="256" height="256" viewBox="0 0 256 256">
  <linearGradient id="a" x1="127.999" x2="127.999" y1="192.741" y2="237.75" gradientUnits="userSpaceOnUse">
    <stop offset="0" stop-color="#fff"/>
    <stop offset="1"/>
  </linearGradient>
  <linearGradient id="b" x1="127.999" x2="127.999" y1="18.25" y2="236.75" gradientUnits="userSpaceOnUse">
    <stop offset="0" stop-color="#0032a4"/>
    <stop offset="1" stop-color="#0053bd"/>
  </linearGradient>
  <linearGradient id="c" x1="128" x2="128" y1="231.75" y2="23.25" gradientUnits="userSpaceOnUse">
    <stop offset="0" stop-color="#428aff"/>
    <stop offset="1" stop-color="#0053bd"/>
  </linearGradient>
  <linearGradient id="d" x1="128" x2="128" y1="184.602" y2="25.25" gradientUnits="userSpaceOnUse">
    <stop offset="0" stop-color="#428aff"/>
    <stop offset=".321" stop-color="#458cff"/>
    <stop offset=".518" stop-color="#4d93ff"/>
    <stop offset=".682" stop-color="#5b9eff"/>
    <stop offset=".827" stop-color="#70aeff"/>
    <stop offset=".959" stop-color="#8ac2ff"/>
    <stop offset="1" stop-color="#94caff"/>
  </linearGradient>
  <linearGradient id="e" x1="128" x2="128" y1="223.75" y2="31.25" gradientUnits="userSpaceOnUse">
    <stop offset="0" stop-color="#fff"/>
    <stop offset="1" stop-color="#bdbdcf"/>
  </linearGradient>
  <linearGradient id="f" x1="127.999" x2="127.999" y1="37.25" y2="217.75" gradientUnits="userSpaceOnUse">
    <stop offset="0" stop-color="#e9e9ef"/>
    <stop offset="1" stop-color="#b1b1c5"/>
  </linearGradient>
  <path fill="url(#a)" d="m18.641 196.803c-10.129 2.476-15.266 6.023-15.266 10.545 0 4.454 5.022 7.973 14.928 10.458 10.911 2.737 26.473 4.125 46.255 4.125 5.254 0 10.3-.107 15.065-.318-3.518 1.372-24.219 9.448-24.219 9.448-1.483.578-2.268 1.232-2.268 1.892 0 .748.995 1.48 2.878 2.115 3.6 1.214 10.156 1.968 17.11 1.968h19.211c7.466 0 14.256-.839 17.72-2.188.002-.001 17.988-7.018 21.416-8.354 1.947 2.919 6.582 5.314 13.832 7.133 10.911 2.737 26.474 4.125 46.255 4.125 19.449 0 34.88-1.363 45.865-4.051 10.087-2.468 15.201-6.02 15.201-10.556 0-4.45-4.991-7.966-14.836-10.449-10.872-2.743-26.426-4.134-46.23-4.134-5.089 0-10.106.114-14.978.335 3.53-1.377 24.265-9.465 24.265-9.465 1.483-.578 2.268-1.232 2.268-1.892 0-.748-.995-1.479-2.879-2.115-3.6-1.214-10.155-1.968-17.109-1.968h-19.215c-7.469 0-14.259.839-17.722 2.189 0 0-16.876 6.584-21.6 8.426-1.907-2.945-6.531-5.363-13.799-7.196-10.874-2.743-26.428-4.134-46.231-4.134-19.444-.001-34.893 1.365-45.917 4.061zm45.484 10.545c0-.737.151-1.342.387-1.839.222.491.363 1.089.363 1.815 0 .74-.152 1.348-.386 1.847-.221-.496-.364-1.096-.364-1.823zm127 15.819c0-.737.151-1.342.387-1.839.222.491.363 1.09.363 1.815 0 .74-.152 1.348-.387 1.847-.22-.495-.363-1.095-.363-1.823z" opacity=".3"/>
  <path fill="url(#b)" d="m19.408 37.787c-9.975 11.946-15.033 29.112-15.033 51.022 0 21.586 4.947 38.61 14.704 50.602 10.712 13.165 26.013 19.84 45.479 19.84 5.146 0 10.144-.517 14.854-1.536.379-.082.772.063 1.007.372s.271.726.091 1.069l-24.219 46.286c-1.409 2.691-2.154 5.735-2.154 8.803 0 3.486.945 6.891 2.734 9.845 3.42 5.65 9.648 9.161 16.254 9.161h19.211c7.093 0 13.543-3.904 16.834-10.188-.008.017 3.883-7.421 3.883-7.421l17.533-33.507c.201-.386.63-.596 1.059-.521s.759.419.818.851c1.923 14.118 6.504 25.707 13.616 34.447 10.713 13.165 26.014 19.84 45.479 19.84 19.138 0 34.311-6.556 45.098-19.484 9.933-11.907 14.969-29.091 14.969-51.074 0-21.567-4.917-38.579-14.613-50.561-10.673-13.191-25.966-19.88-45.453-19.88-4.969 0-9.936.544-14.761 1.617-.38.084-.774-.059-1.011-.368-.236-.309-.272-.727-.092-1.072l24.265-46.368c1.408-2.692 2.153-5.736 2.153-8.803 0-3.486-.945-6.89-2.734-9.845-3.42-5.651-9.648-9.161-16.254-9.161h-19.215c-7.095 0-13.546 3.905-16.836 10.192l-21.599 41.281c-.202.386-.631.597-1.061.521-.429-.076-.76-.421-.817-.854-1.883-14.251-6.454-25.946-13.585-34.759-10.674-13.195-25.967-19.884-45.453-19.884-19.135 0-34.325 6.573-45.151 19.537zm44.085 60.045c-.244-2.687-.368-5.723-.368-9.023 0-3.357.132-6.42.392-9.105.049-.514.481-.905.998-.904.516.001.946.395.993.908.244 2.647.368 5.669.368 8.983 0 3.362-.131 6.438-.391 9.145-.049.514-.482.906-.998.905s-.947-.395-.994-.909zm126.999 77.5c-.243-2.684-.367-5.72-.367-9.023 0-3.355.132-6.419.392-9.104.05-.513.481-.904.997-.903.517.001.946.395.994.908.243 2.647.367 5.669.367 8.982 0 3.358-.132 6.436-.392 9.146-.049.514-.481.905-.998.904-.515-.002-.946-.396-.993-.91z"/>
  <path fill="url(#c)" d="m23.246 40.991c0 .001 0 .001 0 0-9.204 11.023-13.871 27.111-13.871 47.818 0 20.406 4.57 36.37 13.582 47.445 9.716 11.941 23.713 17.996 41.602 17.996 10.544 0 19.726-2.184 27.523-6.427-14.183 27.104-31.362 59.936-31.362 59.936-1.058 2.022-1.583 4.255-1.583 6.485 0 2.523.673 5.045 2.011 7.255 2.52 4.164 7.109 6.751 11.977 6.751h19.211c5.227 0 9.979-2.877 12.404-7.508 0 0 17.333-33.123 31.82-60.809-.104 2.083-.185 4.188-.185 6.375 0 20.406 4.569 36.37 13.582 47.445 9.717 11.941 23.714 17.996 41.602 17.996 17.585 0 31.467-5.951 41.258-17.688 9.163-10.984 13.809-27.09 13.809-47.871 0-20.393-4.542-36.346-13.5-47.416-9.677-11.961-23.662-18.026-41.566-18.026-10.459 0-19.582 2.163-27.354 6.352 14.157-27.055 31.324-59.861 31.324-59.861 1.059-2.023 1.584-4.255 1.584-6.485 0-2.524-.674-5.045-2.012-7.256-2.52-4.163-7.109-6.75-11.977-6.75h-19.215c-5.229 0-9.981 2.877-12.405 7.51 0 0-17.418 33.289-32.077 61.304.119-2.236.197-4.515.197-6.872 0-20.392-4.542-36.345-13.499-47.416-9.679-11.959-23.664-18.024-41.567-18.024-17.583 0-31.482 5.969-41.313 17.741zm34.879 47.818c0-11.939 1.59-17.904 2.923-20.805.179-.39.269-.488.272-.492.161-.129 1.116-.512 3.239-.512 2.48 0 3.235.487 3.254.5.001.009.072.113.195.38 1.307 2.852 2.867 8.783 2.867 20.811 0 11.967-1.577 17.961-2.899 20.883-.157.346-.238.442-.242.447-.002-.004-.741.479-3.176.479-2.458 0-3.348-.414-3.509-.5-.041-.083-.113-.226-.113-.226.014.028.019.037.019.036 0-.002-.022-.049-.03-.064-1.279-2.963-2.8-8.996-2.8-20.937zm127 77.5c0-11.938 1.59-17.904 2.924-20.806.179-.39.268-.487.271-.491.16-.129 1.114-.512 3.238-.512 2.479 0 3.233.486 3.254.5.001.01.072.113.194.38 1.308 2.854 2.868 8.784 2.868 20.812 0 11.967-1.576 17.962-2.898 20.885-.156.344-.238.44-.241.444-.002-.004-.74.479-3.177.479-2.459 0-3.348-.413-3.51-.5-.041-.083-.113-.227-.113-.227.015.027.02.037.02.036 0-.003-.021-.049-.029-.063-1.28-2.963-2.801-8.994-2.801-20.937z"/>
  <path fill="url(#d)" d="m231.57 120.034c-9.278-11.469-22.74-17.284-40.012-17.284-9.997 0-18.881 2.057-26.404 6.112-.774.417-1.729.28-2.354-.337s-.774-1.571-.367-2.35l31.324-59.861c.888-1.695 1.356-3.617 1.356-5.558 0-2.207-.596-4.358-1.723-6.22-2.16-3.569-6.094-5.786-10.266-5.786h-19.214c-4.481 0-8.556 2.466-10.633 6.437l-32.077 61.304c-.432.825-1.375 1.219-2.276.983-.901-.235-1.52-1.086-1.493-2.017l.194-6.766c0-19.922-4.392-35.452-13.054-46.158-9.28-11.468-22.742-17.283-40.012-17.283-16.961 0-30.344 5.728-39.777 17.023-8.896 10.654-13.406 26.311-13.406 46.536 0 1.223.018 2.428.051 3.618 15.047-.778 30.549 3.471 45.48 9.394-.467-3.335-.781-7.59-.781-13.012 0-12.3 1.689-18.558 3.106-21.641l.599-.99c.122-.202.058-.082.242-.229.754-.603 2.389-.949 4.486-.949 2.758 0 3.941.54 4.401.862.267.188.454.38.603.671l.263.514c1.391 3.036 3.049 9.255 3.049 21.645 0 9.555-1.007 15.469-2.113 19.094 6.275 2.88 12.383 5.875 18.238 8.714 31 15 55 40 86 54 2.765 1.21 5.554 2.323 8.361 3.358-.148-2.228-.236-4.724-.236-7.55 0-12.302 1.689-18.559 3.106-21.642.001 0 .675-1.069.675-1.069.118-.188-.013-.006.16-.144 1.031-.83 3.257-.954 4.492-.954 2.705 0 3.895.523 4.363.836.284.189.486.396.643.701l.261.51c1.392 3.036 3.05 9.256 3.05 21.645 0 5.193-.299 9.304-.748 12.565 14.345 3.67 29.108 5.431 44.052 5.845.957-5.636 1.446-11.771 1.446-18.41 0-19.922-4.393-35.453-13.055-46.157z"/>
  <path fill="url(#e)" d="m29.387 46.119c-7.97 9.545-12.012 23.908-12.012 42.689 0 18.52 3.966 32.784 11.788 42.396 8.123 9.983 20.032 15.045 35.396 15.045 15.101 0 26.915-4.983 35.115-14.813 7.93-9.506 11.951-23.888 11.951-42.746 0-18.514-3.943-32.773-11.718-42.383-8.085-9.991-19.978-15.057-35.348-15.057-15.1 0-26.934 5.003-35.172 14.869zm24.211 66.839c-2.304-5.309-3.473-13.434-3.473-24.15 0-10.747 1.229-18.871 3.655-24.146 1.211-2.638 3.529-5.662 10.779-5.662 7.245 0 9.534 2.962 10.719 5.542 2.386 5.208 3.597 13.334 3.597 24.149 0 10.753-1.215 18.889-3.611 24.182-1.187 2.618-3.477 5.626-10.706 5.626-7.582.001-9.841-2.96-10.96-5.541zm110.312-78.208c-2.232 0-4.281 1.24-5.316 3.218l-90.785 173.5c-.973 1.86-.903 4.094.184 5.89s3.034 2.893 5.133 2.893h19.211c2.233 0 4.281-1.24 5.316-3.218l90.79-173.5c.973-1.86.903-4.093-.184-5.889s-3.033-2.893-5.133-2.893h-19.216zm-7.523 88.869c-7.971 9.545-12.012 23.908-12.012 42.689 0 18.52 3.966 32.784 11.787 42.396 8.124 9.983 20.032 15.045 35.396 15.045 15.101 0 26.915-4.983 35.115-14.813 7.93-9.506 11.951-23.888 11.951-42.746 0-18.514-3.942-32.773-11.719-42.383-8.084-9.992-19.978-15.058-35.348-15.058-15.098.001-26.932 5.004-35.17 14.87zm24.211 66.84c-2.305-5.309-3.473-13.435-3.473-24.15 0-10.746 1.229-18.87 3.654-24.146 1.211-2.638 3.529-5.662 10.779-5.662 7.245 0 9.534 2.962 10.719 5.543 2.387 5.208 3.598 13.334 3.598 24.148 0 10.753-1.215 18.889-3.61 24.183-1.187 2.617-3.478 5.626-10.706 5.626-7.583-.001-9.841-2.962-10.961-5.542z"/>
  <path fill="url(#f)" d="m105.625 88.691c0 17.5-3.52 30.465-10.559 38.902s-17.211 12.657-30.507 12.657c-13.535 0-23.781-4.277-30.742-12.832s-10.441-21.422-10.441-38.609c0-17.418 3.539-30.367 10.617-38.844s17.265-12.715 30.566-12.715c13.531 0 23.762 4.277 30.684 12.832s10.382 21.426 10.382 38.609zm-20.75 0c0-11.742-1.383-20.625-4.145-26.652-2.765-6.023-8.156-9.039-16.171-9.039-8.02 0-13.43 3.055-16.23 9.156-2.805 6.102-4.203 14.988-4.203 26.652 0 11.59 1.32 20.438 3.969 26.539s8.137 9.152 16.465 9.152c8.016 0 13.406-3.051 16.172-9.152 2.76-6.101 4.143-14.988 4.143-26.656zm98.25-47.941-90.789 173.5h-19.211l90.785-173.5zm49.5 125.441c0 17.5-3.52 30.465-10.559 38.902s-17.211 12.656-30.508 12.656c-13.535 0-23.781-4.277-30.742-12.832s-10.441-21.422-10.441-38.609c0-17.418 3.539-30.367 10.617-38.844s17.266-12.715 30.566-12.715c13.531 0 23.762 4.277 30.684 12.832s10.383 21.427 10.383 38.61zm-20.75 0c0-11.742-1.383-20.625-4.145-26.652-2.766-6.023-8.156-9.039-16.172-9.039-8.02 0-13.43 3.055-16.23 9.156-2.805 6.102-4.203 14.988-4.203 26.652 0 11.59 1.32 20.438 3.969 26.539s8.136 9.153 16.465 9.153c8.016 0 13.406-3.051 16.172-9.152 2.761-6.102 4.144-14.989 4.144-26.657z"/>
</svg>
