<?xml version="1.0" encoding="UTF-8"?>
<svg xmlns="http://www.w3.org/2000/svg" xmlns:xlink="http://www.w3.org/1999/xlink" width="127.99999" height="127.99999" viewBox="0 0 33.866664 33.866666">
  <defs>
    <linearGradient id="a">
      <stop offset="0" stop-color="#01297d"/>
      <stop offset="1" stop-color="#2359b3"/>
    </linearGradient>
    <linearGradient xlink:href="#a" id="g" x1="23.680208" x2="24.738541" y1="275.56876" y2="276.62708" gradientUnits="userSpaceOnUse"/>
    <linearGradient id="h" x1="18.007687" x2="31.353125" y1="278.97784" y2="264.32394" gradientUnits="userSpaceOnUse">
      <stop offset="0" stop-color="#fff"/>
      <stop offset="1" stop-color="#e6e6e6"/>
    </linearGradient>
    <linearGradient id="i" x1="68.060547" x2="118.5" y1="59.884766" y2="4.4999809" gradientTransform="translate(-6.2e-7 263.13333) scale(.26458)" gradientUnits="userSpaceOnUse">
      <stop offset="0" stop-color="#a4a4a4"/>
      <stop offset="1" stop-color="#fff" stop-opacity=".93333334"/>
    </linearGradient>
    <linearGradient xlink:href="#a" id="j" x1="16.933332" x2="20.108334" y1="278.08228" y2="280.72812" gradientUnits="userSpaceOnUse"/>
    <linearGradient id="k" x1="12.567708" x2="18.785416" y1="286.68124" y2="279.93436" gradientUnits="userSpaceOnUse">
      <stop offset="0" stop-color="#fff" stop-opacity="0"/>
      <stop offset="1" stop-color="#fff"/>
    </linearGradient>
    <linearGradient id="l" x1="11.641666" x2="12.038541" y1="288.40103" y2="289.0625" gradientUnits="userSpaceOnUse">
      <stop offset="0" stop-color="#fff"/>
      <stop offset="1" stop-color="#5a5d73"/>
    </linearGradient>
    <linearGradient id="f" x1=".39687386" x2="30.030208" y1="280.19894" y2="280.19894" gradientTransform="translate(264.9854 -295.41248)" gradientUnits="userSpaceOnUse">
      <stop offset="0" stop-color="#1462da"/>
      <stop offset="1" stop-color="#fff"/>
    </linearGradient>
    <linearGradient id="c" x1="266.17603" x2="294.22186" y1="-15.213541" y2="-15.213541" gradientUnits="userSpaceOnUse">
      <stop offset="0" stop-color="#73b4e1"/>
      <stop offset=".50262153" stop-color="#a3d4f6"/>
      <stop offset="1" stop-color="#e0f7ff" stop-opacity=".94117647"/>
    </linearGradient>
    <linearGradient id="e" x1="15.478125" x2="15.478125" y1="281.65417" y2="265.77917" gradientTransform="matrix(1 0 0 .975 -.26458263 7.0415573)" gradientUnits="userSpaceOnUse">
      <stop offset="0" stop-color="#fff" stop-opacity="0"/>
      <stop offset="1" stop-color="#fff"/>
    </linearGradient>
    <linearGradient id="d" x1="57.5" x2="57.5" y1="117.49999" y2="11.499992" gradientUnits="userSpaceOnUse">
      <stop offset="0" stop-color="#0032bb"/>
      <stop offset="1" stop-color="#0032bb" stop-opacity="0"/>
    </linearGradient>
    <filter id="b" width="1.059476" height="1.0605333" x="-.02973799" y="-.03026666" color-interpolation-filters="sRGB">
      <feGaussianBlur stdDeviation=".3918639"/>
    </filter>
  </defs>
  <g transform="translate(6.2e-7 -263.13333)">
    <path fill="#040d13" d="M30.977942 264.20866c-.147582-.007-.294069.0131-.434081.0538-.37337.10841-.707403.35409-.962734.63303l-4.229199 4.52789c-2.621777-2.34687-6.08156-3.77599-9.874332-3.77599-8.178323 0-14.81666748 6.63834-14.81666745 14.81666 0 8.17832 6.63834445 14.81615 14.81666745 14.81615 8.178322 0 14.816149-6.63783 14.816149-14.81615 0-2.51482-.629738-4.88291-1.736844-6.95823 1.41324-1.85099 2.749732-3.96158 3.164665-5.39554.0038-.013.01963-.0341.02326-.047a.1323049.1323049 0 0 0-.134358-.16795.1323049.1323049 0 0 0-.09612.0491l-3.602881 4.47053c-.078-.12019-.156359-.23985-.237713-.3576l4.313431-5.40432c.441325-.58843.432927-1.59162-.287319-2.16783-.227179-.18174-.475948-.26558-.721921-.27647z" filter="url(#b)" opacity=".75"/>
    <ellipse cx="15.213541" cy="293.69272" opacity=".1" rx="13.096875" ry="1.7197876"/>
    <ellipse cx="280.19894" cy="-15.213542" fill="url(#c)" rx="14.419792" ry="14.419799" transform="rotate(90)"/>
    <path fill="url(#d)" d="m51 14-2 10 10-10h-8zm30.150391 1.474609L66 18l-3 4v3h2l8-5v5l3-.5.5-1.5v2.5l-5 3h-5L66 27h-2v1.5l-4.5 1L56 33l-3 4.5v2L41 48v4.5l8.5 8.5H55l5.5-1L64 81l3 7 6-1 5.5-10 6.5-3.5 1-5 7.5-7.5.5 4h2v-6l-3-2 2-1 1.5 1 .5-2h2l-1 7h2l4-4.5 1.5 1.5-.5 4-2 2 .58789 2.058594L103 69l-1.5-2-.5-3h-2l-1 2v2l2 2h4l2.5-3.5-.5-3.5 1.5-3 1.5 3 .5 4.5.5-8.5.21484-8.179688c-4.033-15.475577-14.659638-28.39878-29.064449-35.345703zm-52.074219 2.578125C16.934056 25.49795 8.1889768 37.400604 4.7128906 51.212891L6 52.5l2 2-4.7910156 5.818359C3.0857877 61.709074 3.0160751 63.103956 3 64.5c.0184554 13.71016 5.2035663 26.909692 14.521484 36.9668L18.5 100l1.5-2-4.5-9.5 3-3.5 4-5 3.5 1 3.5-8.5 3.5-2V68l-7-5v-3L9 53.5v-2l1-.5v-6l2.5-4H14v2l2 .5v-1l1-.5 2-4.5 19-8 8-6.5-8-2.5-4 3.5.5-4.5-5.423828-1.447266zM54 25v6l3-1v-4l-3-1zm6 12h3.5l2.5 3h-9l3-3zm-48 7-1 2 3 2 2-1.5-4-2.5zm71 3 4.5 5 2.5 7-4.5-5-2.5-7zm13.5 22-2 2.5 1 1L98 69h-1.5zm0 4-3 3H95l.5 11 4.5 1.5 2 1.5 4-6 2-8-1.5 1h-3l-1.5-3h-2v2h-2l-1.5-3zM84 76l-4 2-4 6h2l6-8zm6 7-2 3v2.5h-1V92h1.5l1.5-4v-5zm-49.5 27.5L39 113l-4.5-.5-2.958984-.08984C39.511182 116.73174 48.433579 118.99679 57.5 119c6.537196-.0113 13.019349-1.19509 19.136719-3.5H67.5l-1-2-9.5 1-15-1.5-1.5-2.5z" transform="translate(-6.2e-7 263.13333) scale(.26458)"/>
    <ellipse cx="15.213542" cy="273.9151" fill="url(#e)" rx="11.244792" ry="7.7390518"/>
    <ellipse cx="280.19894" cy="-15.213542" fill="none" stroke="url(#f)" stroke-linecap="round" stroke-linejoin="round" stroke-width=".79374999" rx="14.419792" ry="14.419799" transform="rotate(90)"/>
    <ellipse cx="15.213541" cy="286.68124" fill="#fff" opacity=".25" rx="7.0114584" ry="5.0270829"/>
    <path fill="#fff9f9" d="M3.0132523 280.97565a12.303126 10.980209 0 0 0-.1028362 1.33997 12.303126 10.980209 0 0 0 12.3031249 10.98021 12.303126 10.980209 0 0 0 12.303126-10.98021 12.303126 10.980209 0 0 0-.102836-1.30586 12.303126 10.980209 0 0 1-12.20029 9.64024 12.303126 10.980209 0 0 1-12.2002887-9.67435z" opacity=".5"/>
    <path d="M33.254239 278.05048c-.392832-.18135-.866218-.0947-1.243247.0811l-13.319626 6.05712-.0065.002a.10593338.10593338 0 0 0-.0074.004.10593338.10593338 0 0 0-.0025.002c-.0038.002-4.162211 2.29173-4.887207 2.67228-.728402.38232-1.277279.60982-1.830859.83912-.138395.0573-.456585.18837-.74585.38208-.267194.17895-.503495.42407-.544636.73103l-2.5247905 2.50252a.10593338.10593338 0 0 0 .088858.18012l3.5180495-.48689c.111233.0781.232805.1377.362235.13749.157746-.00017.316949-.0431.468486-.10062.303076-.11491.589167-.2944.703094-.34159.578048-.23943 1.386214-.81884 2.108476-1.19795.353442-.18552 1.591196-.73986 2.730488-1.24216 1.139294-.5023 2.187213-.95665 2.187213-.95665a.10593338.10593338 0 0 0 .000552-.00023.10593338.10593338 0 0 0 .0086-.005l.000553-.00022a.10593338.10593338 0 0 0 .001-.00045l12.930464-7.13952a.10593338.10593338 0 0 0 .0029-.002c.506759-.30004.807391-1.04448.451154-1.6914-.112362-.20404-.270871-.34467-.449602-.42718zm-.662334 2.92241a.10593338.10593338 0 0 0-.08538.007l-8.000273 4.36772a.10593338.10593338 0 0 0-.04421.0462c-.04983.10083-.07595.19173-.053.28259.02296.0908.105829.15529.192388.17777.17312.0449.399727.0008.69885-.0881.598242-.17775 1.463232-.56732 2.404967-1.06931 1.883468-1.00399 4.060244-2.44396 4.935354-3.55833a.10593338.10593338 0 0 0-.04869-.16573z" color="#000" opacity=".1" style="font-feature-settings:normal;font-variant-alternates:normal;font-variant-caps:normal;font-variant-ligatures:normal;font-variant-numeric:normal;font-variant-position:normal;isolation:auto;mix-blend-mode:normal;shape-padding:0;solid-color:#000;text-decoration-color:#000;text-decoration-line:none;text-decoration-style:solid;text-indent:0;text-orientation:mixed;text-transform:none;white-space:normal"/>
    <path fill="url(#g)" stroke="#039" stroke-linecap="round" stroke-linejoin="round" stroke-width=".26458335" d="M31.353125 267.76354c-.926042 3.30729-7.276042 10.84791-7.14375 8.86354z"/>
    <path fill="url(#h)" d="m20.108333 280.72812 11.509375-14.41979c.396875-.52917.396875-1.45521-.264583-1.98438-.661459-.52916-1.455209-.13229-1.939507.39679l-12.612577 13.49384"/>
    <path fill="url(#i)" d="m31.353125 264.32396-13.477731 14.78617 2.100647 1.75028 11.641668-14.55208c.396875-.52917.396875-1.4552-.264584-1.98437z"/>
    <path fill="none" stroke="#5a5d73" stroke-width=".26458335" d="m20.108333 280.72812 11.509375-14.41979c.396875-.52917.396875-1.45521-.264583-1.98438-.661459-.52916-1.455209-.13229-1.939507.39679l-12.480285 13.36155"/>
    <path fill="url(#j)" d="M9.7895831 287.21041c-.2645835-.66146.7937499-1.5875 1.0583329-1.85208.529166-.52917 1.058339-1.05833 1.719792-1.85208.661458-.79376 4.365625-5.42396 4.365625-5.42396.264583.79375 2.513542 2.38125 3.175 2.64583 0 0-3.96875 4.10104-4.630208 4.89479-.661459.79375-1.322914 1.85209-1.852084 2.38125-.264583.26458-1.058332 1.32292-1.719791 1.05833"/>
    <path fill="url(#k)" d="m18.785417 279.93437-1.984376-1.71979-5.027083 6.21771-1.190625 1.19062-.6614584 1.05834 1.3229164 1.32291z"/>
    <path fill="none" stroke="#039" stroke-linecap="round" stroke-linejoin="round" stroke-width=".26458335" d="M9.9218746 287.21041c-.2645835-.66146.6614584-1.5875.9260414-1.85208.529166-.52917 1.058339-1.05833 1.719792-1.85208.661458-.79376 4.365625-5.42396 4.365625-5.42396.264583.79375 2.513542 2.38125 3.175 2.64583 0 0-3.96875 4.10104-4.630208 4.89479-.661459.79375-1.322914 1.85209-1.852084 2.38125-.264583.26458-.926041 1.32292-1.5875 1.05833"/>
    <path fill="url(#l)" stroke="#5a5d73" stroke-linecap="round" stroke-linejoin="round" stroke-width=".26458335" d="m9.9218746 287.21041-1.7197917 4.10104 3.8364581-2.24895c-.661458-.26459-1.852083-1.32292-2.1166664-1.85209z"/>
    <path fill="#5a5d73" d="m8.5989578 290.5177.396875.39688-.7937499.39687z"/>
  </g>
</svg>