<?xml version="1.0" encoding="UTF-8" standalone="no"?>
<svg xmlns="http://www.w3.org/2000/svg" xmlns:xlink="http://www.w3.org/1999/xlink" width="64" height="64" viewBox="0 0 125.957 125.956">
  <linearGradient id="c" x1="62.978" x2="62.978" y1="182.567" y2="61.897" gradientUnits="userSpaceOnUse">
    <stop offset="0" stop-color="#a4cdec"/>
    <stop offset="1" stop-color="#0068c6"/>
  </linearGradient>
  <linearGradient id="a">
    <stop offset="0" stop-color="#fff"/>
    <stop offset="1" stop-color="#fff" stop-opacity="0"/>
  </linearGradient>
  <linearGradient id="d" x1="65.11" x2="65.11" y1="13.568" y2="77.437" gradientUnits="userSpaceOnUse" xlink:href="#a"/>
  <linearGradient id="e" x1="26.565" x2="73.837" y1="25.929" y2="73.889" gradientUnits="userSpaceOnUse" xlink:href="#a"/>
  <linearGradient id="f" x1="62.997" x2="62.997" y1="168.503" y2="65.001" gradientUnits="userSpaceOnUse" xlink:href="#a"/>
  <linearGradient id="g" x1="61.227" x2="61.227" y1="51.561" y2="141.419" gradientTransform="matrix(-1 0 0 1 122.4541 0)" gradientUnits="userSpaceOnUse">
    <stop offset="0" stop-color="#000072"/>
    <stop offset="1" stop-color="#3995e5"/>
  </linearGradient>
  <linearGradient id="h" x1="31.053" x2="53.82" y1="21.614" y2="60.985" gradientTransform="matrix(.999949 -.01010049 .01010049 .999949 0 0)" gradientUnits="userSpaceOnUse" xlink:href="#a"/>
  <linearGradient id="b" x1="55.344" x2="55.344" y1="154.806" y2="41.343" gradientTransform="scale(1.000004 .999996)" gradientUnits="userSpaceOnUse">
    <stop offset="0" stop-color="#418bde"/>
    <stop offset="1" stop-color="#001b7b"/>
  </linearGradient>
  <g transform="matrix(.999948 0 0 .999948 .003275 .003275)">
    <path fill="url(#b)" d="m125.957 62.34c.352 34.782-27.561 63.264-62.342 63.616-34.782.352-63.263-27.56-63.615-62.342-.352-34.781 27.559-63.262 62.34-63.614 34.783-.352 63.264 27.559 63.617 62.34z"/>
    <path fill="url(#c)" d="m119.287 62.407c.314 31.1-24.641 56.565-55.74 56.88-31.098.314-56.564-24.641-56.879-55.74-.314-31.098 24.642-56.565 55.74-56.879 31.1-.314 56.565 24.642 56.879 55.739z"/>
    <path fill="url(#d)" d="m63.455 11.256c-27.407.277-49.401 22.721-49.124 50.127.015 1.511.109 3.002.257 4.477 13.702 5.72 30.114 8.971 47.731 8.793 19.229-.194 36.944-4.443 51.206-11.462.043-.931.064-1.868.057-2.812-.277-27.406-22.719-49.4-50.127-49.123z"/>
    <path fill="url(#e)" d="m64.967 16.641c24.732-.25 45.555 17.014 50.695 40.237-3.053-26.645-25.812-47.21-53.221-46.933-29.289.296-52.792 24.281-52.496 53.569.15 14.828 6.377 28.164 16.283 37.688-7.461-8.821-12.009-20.194-12.135-32.648-.287-28.384 22.49-51.626 50.874-51.913z"/>
    <path fill="url(#f)" d="m63.441 110.722c-26.445.268-48.264-20.18-50.054-46.227-.047.977-.075 1.958-.064 2.948.277 27.437 22.743 49.451 50.177 49.173 27.436-.277 49.449-22.741 49.172-50.178-.01-.989-.057-1.971-.125-2.946-1.262 26.078-22.662 46.962-49.106 47.23z" opacity=".5"/>
    <path fill="url(#g)" d="m89.263 73.47s-21.054-.213-37.713-.382c6.984 7.128 13.988 14.275 13.988 14.275 1.482 1.513 2.211 3.485 2.191 5.447-.02 1.963-.789 3.919-2.301 5.4-3.026 2.965-7.885 2.916-10.848-.109l-26.95-27.502c-.162-.166-.316-.343-.463-.521-.047-.059-.09-.117-.137-.177-.098-.126-.189-.258-.281-.39-.043-.065-.088-.132-.131-.197-.111-.18-.217-.359-.314-.547-.033-.062-.062-.129-.092-.191-.068-.14-.133-.28-.191-.423-.035-.086-.066-.171-.1-.258-.049-.131-.09-.261-.133-.393-.023-.08-.051-.16-.072-.243-.059-.202-.107-.411-.145-.619-.01-.039-.014-.085-.021-.129-.031-.178-.053-.355-.072-.536-.006-.07-.012-.139-.016-.21-.01-.162-.018-.325-.018-.489-.002-.062-.004-.125-.002-.186.004-.225.016-.447.037-.67 0-.004.002-.009.002-.009.023-.218.061-.431.1-.643.016-.073.031-.149.049-.226.033-.139.066-.281.107-.418.023-.088.049-.176.078-.26.043-.135.09-.268.143-.398.031-.079.059-.159.092-.239 0-.003 0-.003.002-.005.082-.191.172-.376.266-.557.041-.08.088-.158.135-.234.068-.125.143-.247.219-.365.049-.072.094-.146.145-.216.105-.149.213-.294.326-.435.029-.035.055-.072.082-.107.152-.178.309-.348.473-.51.016-.016.027-.031.043-.049l27.5-26.948c3.027-2.967 7.884-2.917 10.849.11 2.966 3.025 2.916 7.881-.109 10.846l-14.274 13.99 37.714.381c4.236.043 7.637 3.513 7.594 7.748s-3.516 7.637-7.752 7.594z" opacity=".2"/>
    <path fill="#fff" d="m89.263 71.47s-21.054-.213-37.713-.382c6.984 7.128 13.988 14.275 13.988 14.275 1.482 1.513 2.211 3.485 2.191 5.447-.02 1.963-.789 3.919-2.301 5.4-3.026 2.965-7.885 2.916-10.848-.109l-26.95-27.502c-.162-.166-.316-.343-.463-.521-.047-.059-.09-.117-.137-.177-.098-.126-.189-.258-.281-.39-.043-.065-.088-.132-.131-.197-.111-.18-.217-.359-.314-.547-.033-.062-.062-.129-.092-.191-.068-.14-.133-.28-.191-.423-.035-.086-.066-.171-.1-.258-.049-.131-.09-.261-.133-.393-.023-.08-.051-.16-.072-.243-.059-.202-.107-.411-.145-.619-.01-.039-.014-.085-.021-.129-.031-.178-.053-.355-.072-.536-.006-.07-.012-.139-.016-.21-.01-.162-.018-.325-.018-.489-.002-.062-.004-.125-.002-.186.004-.225.016-.447.037-.67 0-.004.002-.009.002-.009.023-.218.061-.431.1-.643.016-.073.031-.149.049-.226.033-.139.066-.281.107-.418.023-.088.049-.176.078-.26.043-.135.09-.268.143-.398.031-.079.059-.159.092-.239 0-.003 0-.003.002-.005.082-.191.172-.376.266-.557.041-.08.088-.158.135-.234.068-.125.143-.247.219-.365.049-.072.094-.146.145-.216.105-.149.213-.294.326-.435.029-.035.055-.072.082-.107.152-.178.309-.348.473-.51.016-.016.027-.031.043-.049l27.5-26.948c3.027-2.967 7.884-2.917 10.849.11 2.966 3.025 2.916 7.881-.109 10.846l-14.274 13.99 37.714.381c4.236.043 7.637 3.513 7.594 7.748s-3.516 7.637-7.752 7.594z"/>
    <path fill="url(#h)" d="m52.923 30.04c-5.057-4.11-10.898-7.134-17.238-8.741-11.252 7.77-19.825 20.125-23.803 34.819 5.74-2.847 12.104-4.473 18.823-4.541 1.703-.017 3.382.075 5.038.257 4.138-8.752 10.045-16.23 17.18-21.794z" opacity=".6"/>
  </g>
</svg>
