<?xml version="1.0" encoding="UTF-8" standalone="no"?>
<svg xmlns="http://www.w3.org/2000/svg" xmlns:xlink="http://www.w3.org/1999/xlink" width="64" height="64" viewBox="0 0 125.957 125.956">
  <linearGradient id="a">
    <stop offset="0" stop-color="#fff"/>
    <stop offset="1" stop-color="#fff" stop-opacity="0"/>
  </linearGradient>
  <linearGradient id="g" x1="31.053" x2="53.82" y1="21.614" y2="60.985" gradientTransform="matrix(.987913 -.00997891 .00997891 .987913 .758045 .758039)" gradientUnits="userSpaceOnUse" xlink:href="#a"/>
  <linearGradient id="f" x1="62.997" x2="62.997" y1="167.233" y2="64.977" gradientUnits="userSpaceOnUse" xlink:href="#a"/>
  <linearGradient id="e" x1="27.003" x2="73.706" y1="26.375" y2="73.758" gradientUnits="userSpaceOnUse" xlink:href="#a"/>
  <linearGradient id="d" x1="65.084" x2="65.084" y1="14.162" y2="77.263" gradientUnits="userSpaceOnUse" xlink:href="#a"/>
  <linearGradient id="c" x1="62.977" x2="62.977" y1="181.128" y2="61.909" gradientUnits="userSpaceOnUse">
    <stop offset="0" stop-color="#a4cdec"/>
    <stop offset="1" stop-color="#0068c6"/>
  </linearGradient>
  <linearGradient id="b" x1="55.344" x2="55.344" y1="154.806" y2="41.343" gradientTransform="matrix(.987967 0 0 .987959 .758045 .758039)" gradientUnits="userSpaceOnUse">
    <stop offset="0" stop-color="#418bde"/>
    <stop offset="1" stop-color="#001b7b"/>
  </linearGradient>
  <linearGradient id="h" x1="29.431" x2="99.571" y1="65.011" y2="65.011" gradientTransform="matrix(1.034696 0 0 .966467 -2 2)" gradientUnits="userSpaceOnUse">
    <stop offset=".98" stop-color="#418ade"/>
    <stop offset="1" stop-color="#001b7b"/>
  </linearGradient>
  <g transform="matrix(1.012131 0 0 1.012131 -.763964 -.76396)">
    <path fill="url(#b)" d="m125.1989 62.347652c.34776 34.363329-27.229248 62.502488-61.591589 62.850258-34.363329.34776-62.501503-27.228264-62.849266-61.591593-.34776298-34.362341 27.227272-62.500515 61.589613-62.848278 34.364317-.34776298 62.502492 27.227272 62.851242 61.589613z"/>
    <path fill="url(#c)" d="m118.60919 62.413846c.31022 30.725649-24.344399 55.884124-55.06906 56.195334-30.723674.31022-55.8831394-24.344395-56.1943477-55.069056-.3102204-30.723674 24.3453847-55.8841273 55.0690577-56.1943477 30.725649-.3102204 55.88413 24.3453847 56.19435 55.0680697z"/>
    <path fill="url(#d)" d="m63.449237 11.878551c-27.077102.273665-48.80636 22.447507-48.532694 49.523621.014819 1.492812.107688 2.965865.253906 4.42311 13.537069 5.651149 29.751518 8.863016 47.156462 8.687159 18.997541-.191665 36.499305-4.38952 50.589629-11.324032.04249-.919794.06323-1.845515.05632-2.778152-.27367-27.076114-22.445533-48.805372-49.523623-48.531706z"/>
    <path fill="url(#e)" d="m64.943037 17.198731c24.434301-.24699 45.006653 16.809203 50.084783 39.752668-3.01625-26.324275-25.501299-46.641734-52.580377-46.368068-28.936449.292437-52.156543 23.98873-51.864106 52.92419.148194 14.649515 6.30024 27.82499 16.087002 37.234349-7.371192-8.714821-11.864448-19.950924-11.988931-32.255015-.283546-28.042342 22.219287-51.004578 50.261629-51.288124z"/>
    <path fill="url(#f)" d="m63.435406 110.14728c-26.126682.26477-47.683047-19.937095-49.4515-45.670567-.046435.96524-.074098 1.934431-.06323 2.912515.273666 27.10674 22.469243 48.855762 49.57302 48.581102 27.105752-.27366 48.853784-22.467264 48.580114-49.574005-.00988-.977096-.05631-1.947275-.12349-2.910539-1.24681 25.764099-22.389221 46.396714-48.514914 46.661494z" opacity=".5"/>
    <path fill="url(#g)" d="m53.044011 30.436448c-4.996129-4.060528-10.766821-7.048129-17.030506-8.635785-11.11656 7.676472-19.586367 19.882755-23.516484 34.399884 5.670908-2.812731 11.958305-4.419159 18.596428-4.48634 1.682501-.016796 3.341291.074097 4.977358.253906 4.08819-8.646652 9.924088-16.034639 16.973204-21.531665z" opacity=".6"/>
    <g fill-rule="evenodd">
      <path fill="url(#h)" d="m62.199999 30.937434c-10.570954.055711-20.936848 5.026914-27.483112 14.206733-10.826928 15.182592-7.262021 36.495322 7.92057 47.322252 13.407802 9.561301 31.551664 7.882911 43.072801-3.092787l5.908994 4.903203c.800197.667806 1.894522.853991 2.866495.477748.97196-.37625 1.66841-1.255634 1.810409-2.288164l4.702054-33.995581c.11804-.864166-.15246-1.732361-.75434-2.363598s-1.46965-.956852-2.338457-.880063c-.38894.040654-.765441.160451-1.106365.352025l-27.633975 14.935929c-.83881.451008-1.38777 1.290328-1.483533 2.237875-.095764.947547.274171 1.8796 1.005785 2.489321l6.26102 5.204944c-6.85873 5.591373-16.728364 6.214694-24.314885.80463-9.112484-6.498248-11.200302-18.974104-4.702054-28.086586 6.314983-8.855491 18.130063-11.132438 27.281957-5.255235 2.071423 1.411934 4.752057 1.58176 6.990218.452604 2.238155-1.129154 3.676399-3.378802 3.771696-5.883851.095297-2.505048-1.173189-4.864506-3.319092-6.160441-5.692248-3.655475-12.113611-5.414386-18.456186-5.380958z" opacity=".2"/>
      <path fill="#fff" d="m60.199999 28.937434c-10.570954.055711-20.936848 5.026914-27.483112 14.206733-10.826928 15.182592-7.262021 36.495322 7.92057 47.322252 13.407802 9.561301 31.551664 7.88291 43.072801-3.092787l5.908994 4.903203c.800197.667806 1.894522.853991 2.866495.477748.97196-.37625 1.66841-1.255634 1.810409-2.288164l4.702054-33.995581c.11804-.864166-.15246-1.732361-.75434-2.363598-.601877-.631237-1.469647-.956852-2.338457-.880063-.38894.040654-.765441.160451-1.106365.352025l-27.633975 14.935929c-.83881.451008-1.38777 1.290328-1.483533 2.237875-.095764.947547.274171 1.8796 1.005785 2.489321l6.26102 5.204944c-6.85873 5.591373-16.728364 6.214694-24.314885.80463-9.112484-6.498248-11.200302-18.974104-4.702054-28.086586 6.314983-8.855491 18.130063-11.132438 27.281957-5.255235 2.071423 1.411934 4.752057 1.58176 6.990218.452604 2.238155-1.129154 3.676399-3.378802 3.771696-5.883851.095297-2.505048-1.173189-4.864506-3.319092-6.160441-5.692248-3.655475-12.113611-5.414386-18.456186-5.380958z"/>
    </g>
  </g>
</svg>
