<?xml version="1.0" encoding="UTF-8" standalone="no"?>
<svg xmlns="http://www.w3.org/2000/svg" xmlns:xlink="http://www.w3.org/1999/xlink" width="128" height="128" version="1.0">
  <defs>
    <linearGradient id="u">
      <stop offset="0" stop-color="#171717"/>
      <stop offset="1" stop-color="#171717" stop-opacity="0"/>
    </linearGradient>
    <linearGradient id="e">
      <stop offset="0" stop-color="#a2a2a2"/>
      <stop offset="1" stop-color="#e0e0e0"/>
    </linearGradient>
    <linearGradient id="t">
      <stop offset="0" stop-color="#f9f9f9"/>
      <stop offset="1" stop-color="#f9f9f9" stop-opacity="0"/>
    </linearGradient>
    <linearGradient id="s">
      <stop offset="0" stop-color="#f9f9f9"/>
      <stop offset="1" stop-color="#d1d1d1"/>
    </linearGradient>
    <linearGradient id="q">
      <stop offset="0" stop-color="#fff"/>
      <stop offset="1" stop-color="#fff" stop-opacity="0"/>
    </linearGradient>
    <linearGradient id="r">
      <stop offset="0" stop-color="#fff"/>
      <stop offset="1" stop-color="#fff" stop-opacity="0"/>
    </linearGradient>
    <linearGradient id="p">
      <stop offset="0" stop-color="#fff"/>
      <stop offset="1" stop-color="#fff" stop-opacity="0"/>
    </linearGradient>
    <linearGradient id="d">
      <stop offset="0"/>
      <stop offset="1" stop-opacity="0"/>
    </linearGradient>
    <linearGradient id="c">
      <stop offset="0"/>
      <stop offset="1" stop-opacity="0"/>
    </linearGradient>
    <linearGradient id="o">
      <stop offset="0"/>
      <stop offset="1" stop-opacity="0"/>
    </linearGradient>
    <linearGradient id="b">
      <stop offset="0"/>
      <stop offset="1" stop-opacity="0"/>
    </linearGradient>
    <linearGradient id="n">
      <stop offset="0" stop-color="#fff"/>
      <stop offset="1" stop-color="#888a85" stop-opacity="0"/>
    </linearGradient>
    <linearGradient id="m">
      <stop offset="0" stop-color="#fff"/>
      <stop offset="1" stop-opacity="0"/>
    </linearGradient>
    <linearGradient id="l">
      <stop offset="0" stop-color="#fff"/>
      <stop offset="1" stop-color="#555753" stop-opacity="0"/>
    </linearGradient>
    <linearGradient id="a">
      <stop offset="0" stop-opacity=".66666669"/>
      <stop offset="1" stop-opacity="0"/>
    </linearGradient>
    <linearGradient id="k">
      <stop offset="0" stop-color="#fff"/>
      <stop offset="1" stop-color="#fff" stop-opacity="0"/>
    </linearGradient>
    <linearGradient id="j">
      <stop offset="0" stop-color="#fff"/>
      <stop offset="1" stop-color="#888a85" stop-opacity="0"/>
    </linearGradient>
    <linearGradient id="i">
      <stop offset="0" stop-color="#fff"/>
      <stop offset="1" stop-color="#3e3e3e" stop-opacity="0"/>
    </linearGradient>
    <linearGradient id="g">
      <stop offset="0"/>
      <stop offset="1" stop-opacity="0"/>
    </linearGradient>
    <linearGradient id="h">
      <stop offset="0" stop-color="#fff"/>
      <stop offset="1" stop-color="#3e3e3e" stop-opacity="0"/>
    </linearGradient>
    <linearGradient id="f">
      <stop offset="0"/>
      <stop offset="1" stop-opacity="0"/>
    </linearGradient>
    <linearGradient xlink:href="#a" id="I" x1="79.735275" x2="95" y1="48.538783" y2="48.538783" gradientTransform="matrix(.7373 0 0 1.01624 23.72264 1.031887)" gradientUnits="userSpaceOnUse"/>
    <linearGradient xlink:href="#a" id="K" x1="79.735275" x2="95" y1="48.538783" y2="48.538783" gradientTransform="matrix(.71801 0 0 .86919 26.47674 14.37374)" gradientUnits="userSpaceOnUse"/>
    <linearGradient xlink:href="#a" id="M" x1="79.735275" x2="95" y1="48.538783" y2="48.538783" gradientTransform="matrix(.76461 0 0 .8663 20.94123 9.725384)" gradientUnits="userSpaceOnUse"/>
    <linearGradient xlink:href="#b" id="N" x1="105.58075" x2="120.06922" y1="11.270861" y2="11.270861" gradientTransform="matrix(1.04008 0 0 1 -4.812806 0)" gradientUnits="userSpaceOnUse"/>
    <linearGradient xlink:href="#c" id="O" x1="114.74419" x2="141.67282" y1="51.131916" y2="13.184787" gradientUnits="userSpaceOnUse"/>
    <linearGradient xlink:href="#d" id="E" x1="123.64483" x2="70.801071" y1="146.02699" y2="24.383652" gradientTransform="translate(-15.67613 -29.66406)" gradientUnits="userSpaceOnUse"/>
    <linearGradient xlink:href="#e" id="v" x1="98.85305" x2="95.164795" y1="49.883904" y2="96.644386" gradientTransform="translate(-52.80851 -23.00559) scale(1.43567)" gradientUnits="userSpaceOnUse"/>
    <radialGradient xlink:href="#f" id="w" cx="81.562538" cy="151.97745" r="80.225449" fx="129.69781" fy="151.97745" gradientTransform="matrix(1 0 0 .13333 0 131.7138)" gradientUnits="userSpaceOnUse"/>
    <radialGradient xlink:href="#g" id="x" cx="154.17799" cy="33.309246" r="11.547417" fx="154.17799" fy="33.309246" gradientTransform="matrix(1 0 0 .93188 3.581214 -10.16833)" gradientUnits="userSpaceOnUse"/>
    <radialGradient xlink:href="#h" id="y" cx="173.35292" cy="29.473955" r="7.125" fx="173.35292" fy="29.473955" gradientTransform="matrix(5.09318 .0371 -.03343 4.58817 -711.6483 -118.8231)" gradientUnits="userSpaceOnUse"/>
    <radialGradient xlink:href="#i" id="z" cx="150.17821" cy="56.316689" r="4.6959705" fx="150.17821" fy="56.316689" gradientTransform="matrix(7.89976 -.13335 .10295 6.09874 -1031.154 -297.761)" gradientUnits="userSpaceOnUse"/>
    <radialGradient xlink:href="#j" id="B" cx="222.09877" cy="1.2351388" r="16.390625" fx="222.09877" fy="1.2351388" gradientTransform="matrix(2.31508 -.01393 .0751 7.19245 -419.3628 42.70211)" gradientUnits="userSpaceOnUse"/>
    <radialGradient xlink:href="#k" id="H" cx="94.138443" cy="38.927982" r="6.8733773" fx="94.138443" fy="38.927982" gradientTransform="matrix(.58125 .00582 -.07456 9.38317 36.03053 -309.6658)" gradientUnits="userSpaceOnUse"/>
    <radialGradient xlink:href="#k" id="J" cx="94.138443" cy="38.927982" r="6.8733773" fx="94.138443" fy="38.927982" gradientTransform="matrix(.56604 .00498 -.0726 8.0254 38.46269 -251.3652)" gradientUnits="userSpaceOnUse"/>
    <radialGradient xlink:href="#k" id="L" cx="94.138443" cy="38.927982" r="6.8733773" fx="94.138443" fy="38.927982" gradientTransform="matrix(.60278 .00496 -.07732 7.9987 33.70512 -255.1298)" gradientUnits="userSpaceOnUse"/>
    <radialGradient xlink:href="#l" id="G" cx="77.371063" cy="64.803642" r="4.1422901" fx="77.371063" fy="64.803642" gradientTransform="matrix(.71884 .05195 .124 10.14631 11.77238 -600.3243)" gradientUnits="userSpaceOnUse"/>
    <radialGradient xlink:href="#m" id="F" cx="64.035408" cy="72.25351" r="8.072001" fx="64.035408" fy="72.25351" gradientTransform="matrix(.35411 -4.17141 5.03256 -1.51988 -331.3648 448.8406)" gradientUnits="userSpaceOnUse"/>
    <radialGradient xlink:href="#n" id="A" cx="78.344902" cy="47.896503" r="59.06985" fx="78.344902" fy="47.896503" gradientTransform="matrix(1 0 0 .97775 -.984934 1.184104)" gradientUnits="userSpaceOnUse"/>
    <radialGradient xlink:href="#o" id="C" cx="302.08856" cy="-10.284327" r="59.073312" fx="302.08856" fy="-10.284327" gradientTransform="matrix(.28616 -.06335 .20844 .9416 20.99885 67.19212)" gradientUnits="userSpaceOnUse"/>
    <radialGradient xlink:href="#o" id="D" cx="302.08856" cy="-10.284327" r="59.073312" fx="302.08856" fy="-10.284327" gradientTransform="matrix(.28616 -.06335 .20844 .9416 21.24002 67.19211)" gradientUnits="userSpaceOnUse"/>
    <radialGradient xlink:href="#j" id="P" cx="224.46358" cy="-4.2258649" r="16.390625" fx="224.46358" fy="-4.2258649" gradientTransform="matrix(2.31508 -.01393 .0751 7.19245 -420.3275 41.73743)" gradientUnits="userSpaceOnUse"/>
    <radialGradient xlink:href="#p" id="Q" cx="19.006332" cy="99.120925" r="4.6031745" fx="19.006332" fy="99.120925" gradientTransform="matrix(-.99874 -.05014 .0708 -1.41048 21.31425 246.5329)" gradientUnits="userSpaceOnUse"/>
    <radialGradient xlink:href="#h" id="R" cx="174.07651" cy="28.159636" r="7.125" fx="174.07651" fy="28.159636" gradientTransform="matrix(4.76592 .33494 -.30923 4.49654 -701.8065 -150.7425)" gradientUnits="userSpaceOnUse"/>
    <radialGradient xlink:href="#q" id="U" cx="18.988296" cy="99.099475" r="4.9090158" fx="18.988296" fy="99.099475" gradientTransform="matrix(1 0 0 1.329 0 -32.60378)" gradientUnits="userSpaceOnUse"/>
    <radialGradient xlink:href="#q" id="T" cx="18.988296" cy="99.099475" r="4.9090158" fx="18.988296" fy="99.099475" gradientTransform="matrix(1 0 0 1.329 0 -32.60378)" gradientUnits="userSpaceOnUse"/>
    <radialGradient xlink:href="#r" id="S" cx="22.596113" cy="66.948593" r="33.898299" fx="22.596113" fy="66.948593" gradientTransform="matrix(1 0 0 .90242 11.7966 24.7511)" gradientUnits="userSpaceOnUse"/>
    <radialGradient xlink:href="#s" id="Y" cx="-68.375" cy="34.71875" r="11.0625" fx="-68.375" fy="34.71875" gradientTransform="matrix(3.18396 0 0 4.32427 313.471 -67.08613)" gradientUnits="userSpaceOnUse"/>
    <radialGradient xlink:href="#t" id="V" cx="-56.591835" cy="33.918919" r="8.5" fx="-56.712421" fy="31.89937" gradientTransform="matrix(3.5754 0 0 6.29725 322.2336 -134.8612)" gradientUnits="userSpaceOnUse"/>
    <radialGradient xlink:href="#t" id="W" cx="-79.241646" cy="46.038223" r="12.268356" fx="-79.241646" fy="46.038223" gradientTransform="matrix(.23417 .22276 -1.26363 1.32832 150.2482 68.18048)" gradientUnits="userSpaceOnUse"/>
    <radialGradient xlink:href="#u" id="X" cx="100.57152" cy="72.53923" r="17.497653" fx="100.57152" fy="72.53923" gradientTransform="matrix(1.43567 0 0 1.79256 -52.80851 -49.67405)" gradientUnits="userSpaceOnUse"/>
  </defs>
  <path fill="url(#v)" stroke="#2f2f2f" stroke-dashoffset="4" stroke-linecap="square" stroke-linejoin="round" stroke-width=".2081726" d="M95.60444 52.908772c-2.574449 0-4.612603 2.038151-4.612603 4.612597v23.570032H75.548932c-2.574448 0-4.683562 2.03815-4.683562 4.612595v25.323484c0 2.57445 2.109126 4.6126 4.683562 4.6126h40.945678c2.57443 0 4.61258-2.03815 4.61258-4.6126V57.521369c0-2.574446-2.03815-4.612597-4.61258-4.612597H95.60444z"/>
  <path fill="url(#w)" d="M161.78799 151.97745a80.225449 10.696727 0 1 1-160.4509005 0 80.225449 10.696727 0 1 1 160.4509005 0z" opacity=".2213115" transform="matrix(-.79964 0 0 .56067 129.3725 37.21709)"/>
  <g fill-rule="evenodd" transform="matrix(.93619 .05862 -.06058 .98046 -42.66237 7.616247)">
    <path fill="#888a85" stroke="url(#x)" stroke-linecap="round" stroke-linejoin="round" stroke-width="1.64400005" d="m181.67604 9.099418-14.13212 5.699466-8.155-6.393046c-1.0714 1.417425-1.8863 21.693357 3.10193 21.520607 9.13195-.316254 15.80573-9.325742 19.18519-20.827027z"/>
    <path fill="url(#y)" d="M181.16095 9.7597789 167.7547 15.166029l-.84375 9.4375 1.53125 4.15625c5.84622-3.223357 10.19566-10.413188 12.71875-19.0000001z" opacity=".51376145"/>
    <path fill="url(#z)" d="M159.31603 8.5972985c-.00419.005537-.02707.02514-.03125.03125-.00834.013357-.02295.046897-.03125.0625-1.03857 2.0973105-1.73455 21.6068755 3.15625 21.4374995 1.08085-.037431 2.14566-.198035 3.15625-.46875l.6875-15.59375-6.9375-5.4687495z" opacity=".51376145"/>
  </g>
  <path fill="#888a85" fill-rule="evenodd" d="M104.04242.55387713C95.28216.54718513 87.91547 5.9700421 86.41106 13.335723c-.00924.032839-.03323.102326-.04221.135245 0 0-5.99929 20.87158-10.56402 26.091985-3.582696 4.097291-68.131966 52.165778-71.45206 56.572738-7.012361 9.307919 1.750354 25.074909 14.111094 18.275669 8.149069-4.48255 60.902856-58.813463 67.516346-62.223891 4.47028-2.305232 26.39827-4.355233 26.39827-4.355233 1.20256.46487-6.32935-20.70213-8.23429-27.33276.55462-4.258002.59099-4.604574 1.46216-8.438549C110.67873 10.662442 120 8.2056651 120 8.2056651c-3.05918-4.132613-8.2467-7.065401-14.29202-7.52512697-.0396-.003013-.08854-.006951-.1281-.009742-.22042-.015556-1.01863-.081389-1.08904-.082818-.06111-.001241-.16049-.0137-.22421-.01705-.06915-.000728-.15523-.016999-.22421-.017051zM14.184438 95.866341c3.518032.26754 6.4217 4.362569 6.020064 8.709229-.332274 3.59599-4.1464 6.88447-7.664432 6.61694-3.518009-.26754-6.585445-4.51505-6.292879-8.46708.28114-3.797679 3.490946-7.197219 7.937247-6.859089z"/>
  <path fill="url(#A)" fill-rule="evenodd" d="M103.59026.38855187C94.830006.38185887 87.463316 5.8047159 85.958906 13.170397c-.00924.032839-.03323.102326-.04221.135245 0 0-5.99929 20.87158-10.56402 26.091985-3.5827 4.097291-68.1319665 52.165777-71.4520605 56.572737-7.01236 9.307906 1.750354 25.074896 14.1110955 18.275656 8.149069-4.48255 60.902855-58.813449 67.516345-62.223877 4.47028-2.305232 26.398264-4.355233 26.398264-4.355233 1.20256.46487-6.32935-20.70213-8.23429-27.33276.55462-4.258002.59099-4.604574 1.46216-8.438549 5.07238-1.398485 14.39365-3.8552621 14.39365-3.8552621-3.05918-4.132612-8.2467-7.06540003-14.29202-7.52512603-.0396-.003013-.08854-.006952-.1281-.009742-.22042-.015556-1.01863-.08139-1.08904-.082819-.06111-.001241-.16049-.013699-.22421-.01705-.06915-.000727-.15523-.016998-.22421-.01705zM13.732284 95.701014c3.518033.26754 6.421701 4.362566 6.020065 8.709216-.332274 3.59599-4.146401 6.88447-7.664433 6.61694-3.5180095-.26754-6.5854455-4.51505-6.2928785-8.46708.281139-3.797666 3.490945-7.197196 7.9372465-6.859076z"/>
  <path fill="url(#B)" fill-rule="evenodd" d="m88.27122 14.213026 4.97409 17.649704 3.226132-.990621 3.467203 12.832317-2.670147.945069 2.811292 5.290145c5.8831-.776728 12.35409-2.578016 12.35409-2.578016.00439.001158.02709.001884.03123.002388.00388-.000146.0276.003179.03123.002388.00286-.002699.03097-.026111.03358-.029438.0021-.00457.00049-.026643.00234-.031827.00323-.011591.03367-.047259.03592-.061266.21378-1.831921-6.54714-20.959873-8.33088-27.201989.55167-4.258002.60254-4.599333 1.46905-8.433309C110.75161 10.210087 120 7.7404566 120 7.7404566c-3.04284-4.1326142-10.06697-6.2662547-15.59673-5.9073713-8.68565.5637014-14.42003 5.3345163-16.13205 12.3799407z"/>
  <path fill="url(#C)" fill-rule="evenodd" d="M103.03125.64385426C94.724378 1.0399263 87.851878 6.3471453 86.406248 13.425104c-.00923.032838-.02227.092081-.03125.125-.00001.000001-5.99776 20.873345-10.5625 26.09375-3.58269 4.097291-68.1486495 52.155543-71.4687495 56.5625-7.0123605 9.307906 1.76426 25.080486 14.1249995 18.281246 8.14907-4.48255 60.91776-58.808318 67.53125-62.218746 4.47027-2.305232 26.375002-4.375 26.375002-4.375.0047.001816.02682.030092.03125.03125.00417.000504.02734.000145.03125 0 .00339-.001431.02812-.029182.03125-.03125.00237-.003951.02913-.02668.03125-.03125.00187-.005185-.00162-.025454 0-.03125.00413-.019205-.00196-.069166 0-.09375.09882-2.099296-6.56531-20.965935-8.34375-27.15625.55461-4.258002.59758-4.603525 1.46875-8.4375C110.69738 10.745371 120 8.2688541 120 8.2688541c-3.05918-4.1326138-8.23593-7.0402738-14.28125-7.49999984-.0396-.003013-.08544-.028459-.125-.03125-.22042-.015556-1.02334-.061071-1.09375-.0625-.06112-.001242-.15503-.027899-.21875-.03125-.06051-.000635-.15512.00316-.21875 0-.3422-.000261-.69357-.0161-1.03125 0zm1.15625 1.25000004c5.48801-.276721 12.34845 1.869457 15.34375 5.9374998 0 0-9.23598 2.4765149-14.28125 3.8749999-.86651 3.833976-.91708 4.179498-1.46875 8.4375 1.7698 6.193349 8.41721 25.07233 8.3125 27.15625-.00062.007682.00084.024094 0 .03125-.00644.01099-.02456.052115-.03125.0625-.00014.00287.00005.027882 0 .03125-.00771.006606-.02982.029901-.03125.03125-.00687-.000714-.02931-.000073-.03125 0-.00337-.000194-.02844.000239-.03125 0 0 0-6.96064.348272-12.843752 1.125l-1.357342-2.884527 3.651484-1.915079-4.455156-13.552973-4.423907 1.013593-4.727579-16.942264c1.71201-7.0454239 7.43936-11.8112987 16.125002-12.3749997.0864-.005608.16289-.026858.25-.03125zM13.062499 95.925104c.362769-.02403.742899.002192 1.125.03125 3.518029.267536 6.432879 4.340846 6.031249 8.687496-.33227 3.59599-4.16946 6.89253-7.687499 6.625-3.5180205-.26753-6.5738105-4.51672-6.2812505-8.46875.25699-3.471302 2.95399-6.619405 6.8125005-6.874996z"/>
  <path fill="url(#D)" fill-rule="evenodd" stroke="url(#E)" stroke-linecap="round" stroke-linejoin="round" stroke-width=".44400001" d="M103.27242.64385402C94.965553 1.039926 88.093053 6.347145 86.647423 13.425104c-.00923.032838-.02227.092081-.03125.125-.00001.000001-5.997764 20.873345-10.562504 26.09375-3.58269 4.097291-68.1486488 52.155538-71.4687488 56.562498-7.0123613 9.307898 1.76426 25.080478 14.1249988 18.281238 8.14907-4.48255 60.91776-58.808308 67.531254-62.218736 4.47027-2.305232 26.374997-4.375 26.374997-4.375.0047.001816.02682.030092.03125.03125.00417.000504.02734.000145.03125 0 .00339-.001431.02812-.029182.03125-.03125.00237-.003951.02913-.02668.03125-.03125.00187-.005185-.00162-.025454 0-.03125.00413-.019205-.00196-.069166 0-.09375.09882-2.099296-6.56531-20.965935-8.34375-27.15625.55461-4.258002.59758-4.603525 1.46875-8.4375 5.07238-1.398483 14.375-3.875 14.375-3.875-3.05918-4.132614-8.23593-7.040274-14.28125-7.49999998-.0396-.003013-.08544-.028459-.125-.03125-.22042-.015556-1.02334-.061071-1.09375-.0625-.06112-.001242-.15503-.027899-.21875-.03125-.06051-.000635-.15512.00316-.21875 0-.3422-.000261-.69357-.0161-1.03125 0zm1.15625 1.24999998c5.48801-.276721 12.34845 1.869457 15.34375 5.9375 0 0-9.23598 2.476515-14.28125 3.875-.86651 3.833976-.91708 4.179498-1.46875 8.4375 1.7698 6.193349 8.41721 25.07233 8.3125 27.15625-.00062.007682.00084.024094 0 .03125-.00644.01099-.02456.052115-.03125.0625-.00014.00287.00005.027882 0 .03125-.00771.006606-.02982.029901-.03125.03125-.00687-.000714-.02931-.000073-.03125 0-.00337-.000194-.02844.000239-.03125 0 0 0-6.96064.348272-12.843747 1.125l-1.35735-3.608041 3.892667-1.673907-3.972817-13.311802-4.90625.53125-4.96875-16.21875c1.71201-7.045424 7.43936-11.811299 16.124997-12.375.0864-.005608.16289-.026858.25-.03125zm-91.125 94.031248c.362769-.02403.742899.00219 1.125.03125 3.518029.26754 6.432879 4.340838 6.031249 8.687488-.33227 3.59599-4.16946 6.89253-7.687499 6.625-3.5180198-.26753-6.5738098-4.51672-6.2812498-8.46875.25699-3.471298 2.95399-6.619398 6.8124998-6.874988z"/>
  <g fill-rule="evenodd">
    <path fill="#2e3436" stroke="url(#F)" stroke-linecap="round" stroke-linejoin="round" stroke-width="1.54412687" d="M68.625313 58h13.399776v13.094864H68.625313z" transform="matrix(.9563 -.29242 .3097 .95083 0 0)"/>
    <path fill="url(#G)" d="M71.562981 55.691086h7.7254124v11.043238H71.562981z" transform="matrix(.96768 -.25217 .30742 .95157 0 0)"/>
    <rect width="11.254695" height="1.2325668" x="82.51152" y="49.742821" fill="url(#H)" stroke="url(#I)" stroke-linecap="round" stroke-linejoin="round" stroke-width=".38432986" ry="0" transform="matrix(.98605 -.16645 .08672 .99623 0 0)"/>
    <rect width="10.960242" height="1.0542099" x="83.72757" y="56.036003" fill="url(#J)" stroke="url(#K)" stroke-linecap="round" stroke-linejoin="round" stroke-width=".35075644" ry="0" transform="matrix(.98928 -.14602 .09906 .99508 0 0)"/>
    <rect width="11.671585" height="1.0507048" x="81.907768" y="51.249149" fill="url(#L)" stroke="url(#M)" stroke-linecap="round" stroke-linejoin="round" stroke-width=".36135769" ry="0" transform="matrix(.99063 -.13657 .10599 .99437 0 0)"/>
  </g>
  <path fill="url(#N)" fill-rule="evenodd" d="m105.31956 12.112437 14.35973-3.8435674.38993 1.8193444L105 14.272852l.31956-2.160415z"/>
  <path fill="url(#O)" fill-rule="evenodd" d="M112.01566 45.527254c4.08351-.282334 11.46127-8.383087 14.75532-18.143847.14653-.434171-.00246 3.197706-.17053 3.661456-3.25659 8.985734-9.61076 14.569688-14.03181 16.14133-.26151.092965-.2026 1.77827-.55298-1.658939z"/>
  <path fill="url(#P)" fill-rule="evenodd" d="m88.994733 13.248341 4.009405 18.132046 3.949646-.267107 3.708376 12.591146-3.393662 1.668582 1.846607 3.601947c5.883105-.776728 12.354095-2.578016 12.354095-2.578016.00439.001158.02709.001884.03123.002388.00388-.000146.0276.003179.03123.002388.00286-.002699.03097-.026111.03358-.029438.0021-.00457.00049-.026643.00234-.031827.00323-.011591.03367-.047259.03592-.061266.21378-1.831921-6.54714-20.959873-8.33088-27.201989.55167-4.258002.60254-4.599333 1.46905-8.433309 5.04526-1.3984837 13.32897-3.8681141 13.32897-3.8681141-3.04284-4.1326142-9.10229-4.8192276-14.63205-4.4603442-8.685655.5637014-12.731837 3.8874892-14.443857 10.9329133z"/>
  <path fill-rule="evenodd" d="M5.1325753 95.171095S71.778361 43.580764 76.223717 39.244596c4.268597-4.163749 10.22331-24.874678 10.22331-24.874678s2.197873-1.195518 1.649191.021427c-.75178 1.667404-8.638976 22.317285-10.162788 24.221701-3.47142 4.33848-21.71426 17.749778-21.71426 17.749778L11.329398 91.564926l-6.1968227 3.606169z" opacity=".3853211"/>
  <path fill="url(#Q)" fill-rule="evenodd" d="M13.109506 112.46984s-4.5603425-.52774-6.5354617-4.08455c-1.9751217-3.55682-1.5313974-8.528936-1.5313974-8.528936l.6366533-.77759s-.1727493 5.024326 1.5782548 8.445886c1.7845437 3.48712 6.481407 4.29638 6.390621 4.41877l-.53867.52642z" opacity=".89449541"/>
  <path fill-rule="evenodd" d="M112.37357 31.155901c-.11578.266323-.86535 8.60372-.85559 8.903217-.47828 4.569089.49046 4.977976.49454 5.808911.8625-.226121.25246.117682 1.05297-.274279-.01861-.407515-.69921-3.322231-1-4.375.33188-2.259978 1.16613-8.611712 1.25331-9.213232-.36017-.338717-.49793-.473029-.94523-.849617z"/>
  <path fill="url(#R)" fill-rule="evenodd" d="m126.23984 27.663847-12.87824 4.514715L112 41.382155l1.18176 4.164782c5.66841-2.817654 10.17584-9.612002 13.05808-17.88309z" opacity=".51376145"/>
  <path fill="#888a85" fill-rule="evenodd" d="M14.001598 93.083478c5.474864-.637182 10.673496 6.554162 8.726396 12.424042 4.426756-3.0041 57.204544-51.673143 58.4942-54.181246 1.974875-3.840704-1.465131-8.005335-5.412283-6.782278-2.753121.853075-62.16467 48.580956-61.808313 48.539482z"/>
  <path fill-rule="evenodd" d="M14.001598 93.083478c5.474864-.637182 10.673496 6.554162 8.726396 12.424042 4.426756-3.0041 57.204544-51.673143 58.4942-54.181246 1.974875-3.840704-1.465131-8.005335-5.412283-6.782278-2.753121.853075-62.16467 48.580956-61.808313 48.539482z" opacity=".8"/>
  <path fill="url(#S)" fill-rule="evenodd" d="M14.001598 93.083478c5.474864-.637182 10.673496 6.554162 8.726396 12.424042 4.426756-3.0041 57.204544-51.673143 58.4942-54.181246 1.974875-3.840704-1.465131-8.005335-5.412283-6.782278-2.753121.853075-62.16467 48.580956-61.808313 48.539482z" opacity=".5"/>
  <path fill="#2e3436" fill-rule="evenodd" d="M75.712037 44.654487c.315921-.153983 2.946579-1.145808 4.937186 1.304113 1.699204 2.09128 1.190792 3.954277.428333 5.590691-.36821.790265-24.652994 23.553909-29.020585 27.702517-2.147658 2.039979-9.447086 8.638025-16.15049 14.738008-6.763105 6.154314-13.049588 11.436864-13.049588 11.436864S80.26202 52.515124 80.773398 50.931457c.749651-2.321565-.058398-3.199569-.706681-4.059146-.660701-.876043-1.888014-1.920084-3.763834-1.764494-2.58678.214559-61.167159 47.646853-62.193746 47.915582 0 0 14.08464-11.524224 28.902689-23.33245 14.818048-11.808226 30.369506-23.900454 32.700211-25.036462z" opacity=".40366971"/>
  <path fill="url(#T)" fill-rule="evenodd" d="M14.5672 92.596868s4.245614-.514136 7.29483 3.488627c3.334715 4.377545 1.56732 8.827645 1.56732 8.827645l-.720484.71042s.567125-1.71757.393265-3.49959c-.173861-1.78203-.790274-3.671142-2.048881-5.29325-1.240274-1.598479-2.471788-2.68515-3.894269-3.217517-1.42248-.532367-3.121194-.51043-3.078928-.573829l.487147-.442506z"/>
  <path fill="url(#U)" fill-rule="evenodd" d="M14.5672 92.596868s4.245614-.514136 7.29483 3.488627c3.334715 4.377545 1.56732 8.827645 1.56732 8.827645l-.720484.71042s.567125-1.71757.393265-3.49959c-.173861-1.78203-.790274-3.671142-2.048881-5.29325-1.240274-1.598479-2.471788-2.68515-3.894269-3.217517-1.42248-.532367-3.121194-.51043-3.078928-.573829l.487147-.442506z"/>
  <path fill="#fff" fill-opacity=".75688076" d="M-228.9185-67.271774v-2.794709 2.794709zM65.6909-129.46266v-2.79471 2.79471z"/>
  <path fill="none" d="M-52.477129-94.134134c-5.3396 0-9.65625 4.316653-9.65625 9.65625v8.375h-48.250001c-5.3396 0-9.65625 4.285407-9.65625 9.625v40.750008c0 5.33959 4.31665 9.625 9.65625 9.625h96.53125c5.3396 0 9.625-4.2854 9.625-9.625v-58.750008c0-5.339595-4.28541-9.65625-9.625-9.65625h-38.624999z" opacity=".06147539"/>
  <path fill="#fff" fill-opacity=".75688076" d="M-91.3174-199.09776v-2.79471 2.79471zm-119.5022-86.63025v-2.79471 2.79471zm246.5914 65.75527v-2.79471 2.79471zm-92.624446 73.89368v-1.52674 1.52674zM-308.40162-303.42273v-2.79471 2.79471z"/>
  <path fill="url(#V)" d="M120.65928 55.532284c-16.80006 8.719516-34.361606 17.85267-34.361606 17.85267l33.017856 41.272306c1.08167-.83913 1.79166-2.1514 1.79166-3.64733V57.515915c0-.718701-.1629-1.381196-.44791-1.983631z"/>
  <path fill="url(#W)" d="M90.991837 81.091401H75.548932c-2.574448 0-4.683562 2.03815-4.683562 4.612595v25.323484c0 2.57445 2.109126 4.6126 4.683562 4.6126h40.945678c2.57443 0 4.61258-2.03815 4.61258-4.6126V87.751615l-30.115353-6.660214z"/>
  <path fill="url(#X)" d="M95.60444 52.908772c-2.574449 0-4.612603 2.038151-4.612603 4.612597v23.570032H75.548932c-2.574448 0-4.683562 2.03815-4.683562 4.612595.228444 25.528694 33.49395 22.900894 50.24182 23.582714V57.521369c0-2.574446-2.03815-4.612597-4.61258-4.612597H95.60444z" opacity=".50819672"/>
  <path fill="url(#Y)" stroke="#fff" stroke-dashoffset="4" stroke-linecap="square" stroke-linejoin="round" stroke-width=".50166649" d="M97.559913 55.482264c-2.321397 0-4.159217 1.837821-4.159217 4.159223v23.817531H78.200754c-2.321404 0-4.223213 1.83782-4.223213 4.159225v19.552417c0 2.3214 1.901819 4.15923 4.223213 4.15923h35.054756c2.3214 0 4.1592-1.83783 4.1592-4.15923V59.641487c0-2.321402-1.83782-4.159223-4.1592-4.159223H97.559913z"/>
  <path fill="none" stroke="#000" stroke-linecap="round" stroke-linejoin="round" stroke-width="1.59176552" d="M108.68474 81.504901V101.7286H96.638326l5.286304-3.392174-5.247943 3.392174 5.244453 3.33271"/>
</svg>