<?xml version="1.0" encoding="UTF-8" standalone="no"?>
<svg xmlns="http://www.w3.org/2000/svg" xmlns:xlink="http://www.w3.org/1999/xlink" width="128" height="128">
  <defs>
    <linearGradient id="b">
      <stop offset="0" stop-color="#fff"/>
      <stop offset="1" stop-color="#fff" stop-opacity="0"/>
    </linearGradient>
    <linearGradient id="c">
      <stop offset="0" stop-color="#fff"/>
      <stop offset="1" stop-color="#252525" stop-opacity="0"/>
    </linearGradient>
    <linearGradient id="a">
      <stop offset="0" stop-color="#fff"/>
      <stop offset="1" stop-color="#555753"/>
    </linearGradient>
    <linearGradient xlink:href="#a" id="h" x1="94.3438" x2="86.5356" y1="102.3447" y2="94.5366" gradientUnits="userSpaceOnUse"/>
    <linearGradient xlink:href="#a" id="i" x1="95" x2="86.5865" y1="103" y2="94.5865" gradientUnits="userSpaceOnUse"/>
    <linearGradient id="j" x1="95" x2="87.293" y1="103" y2="95.293" gradientUnits="userSpaceOnUse">
      <stop offset="0" stop-color="#fff"/>
      <stop offset="1" stop-color="#393b38"/>
    </linearGradient>
    <linearGradient id="k" x1="96" x2="88.0002" y1="104" y2="96.0002" gradientUnits="userSpaceOnUse">
      <stop offset="0" stop-color="#888a85"/>
      <stop offset=".0072" stop-color="#8c8e89"/>
      <stop offset=".0673" stop-color="#abaca9"/>
      <stop offset=".1347" stop-color="#c5c6c4"/>
      <stop offset=".2115" stop-color="#dbdbda"/>
      <stop offset=".3012" stop-color="#ebebeb"/>
      <stop offset=".4122" stop-color="#f7f7f6"/>
      <stop offset=".5679" stop-color="#fdfdfd"/>
      <stop offset="1" stop-color="#fff"/>
    </linearGradient>
    <linearGradient id="x" x1="92.226158" x2="96.579895" y1="54.119438" y2="57.15118" gradientTransform="matrix(.9973 0 0 .99978 .28069 .010646)" gradientUnits="userSpaceOnUse">
      <stop offset="0" stop-color="#ea3838"/>
      <stop offset="1" stop-color="#c40000"/>
    </linearGradient>
    <linearGradient xlink:href="#b" id="w" x1="48.498562" x2="48.732723" y1=".811505" y2="2.365727" gradientTransform="matrix(1.67321 1.51894 -1.50095 1.69285 18.675678 -24.465565)" gradientUnits="userSpaceOnUse"/>
    <linearGradient id="v" x1="33.342377" x2="24.450998" y1="117.83894" y2="107.35519" gradientTransform="matrix(.61822 0 0 .62327 24.10803 47.993844)" gradientUnits="userSpaceOnUse">
      <stop offset="0"/>
      <stop offset="1" stop-color="#515151"/>
    </linearGradient>
    <linearGradient id="s" x1="-12.817558" x2="82.172836" y1="7.462277" y2="7.462277" gradientUnits="userSpaceOnUse">
      <stop offset="0" stop-color="#fff" stop-opacity=".683453"/>
      <stop offset="1" stop-color="#fff" stop-opacity="0"/>
    </linearGradient>
    <linearGradient id="r" x1="114.92793" x2="100.65602" y1="-22.560064" y2="-22.052734" gradientTransform="matrix(.9992 0 0 .99934 .108362 -.090375)" gradientUnits="userSpaceOnUse">
      <stop offset="0" stop-color="#980000"/>
      <stop offset="1" stop-color="#db5c5c"/>
    </linearGradient>
    <linearGradient id="q" x1="11.326384" x2="14.493531" y1="57.383999" y2="57.383999" gradientTransform="matrix(1.2876 1.17374 -.54659 .6213 81.686465 27.89447)" gradientUnits="userSpaceOnUse">
      <stop offset="0" stop-color="#9a7600"/>
      <stop offset=".09292036" stop-color="#e3ad00"/>
      <stop offset=".5043171" stop-color="#ffcd2c"/>
      <stop offset=".91571385" stop-color="#e3ad00"/>
      <stop offset="1" stop-color="#b98d00"/>
    </linearGradient>
    <linearGradient id="p" x1="76.708534" x2="80.579521" y1="83.325729" y2="87.154587" gradientTransform="matrix(.99865 0 0 .99989 .14044 .005323)" gradientUnits="userSpaceOnUse">
      <stop offset="0" stop-color="#d4a100" stop-opacity=".976471"/>
      <stop offset="1" stop-color="#ffc712"/>
    </linearGradient>
    <linearGradient id="o" x1="75.848022" x2="81.452583" y1="72.804123" y2="77.047241" gradientTransform="matrix(.99865 0 0 .99989 .14044 .005323)" gradientUnits="userSpaceOnUse">
      <stop offset="0" stop-color="#252525"/>
      <stop offset=".5" stop-color="#252525"/>
      <stop offset=".75" stop-color="#252525"/>
      <stop offset="1"/>
    </linearGradient>
    <linearGradient id="l" x1="63.911137" x2="87.757362" y1="79.998817" y2="93.999413" gradientTransform="matrix(1.37552 0 0 1.85706 -22.548199 -92.562977)" gradientUnits="userSpaceOnUse">
      <stop offset="0"/>
      <stop offset="1" stop-opacity="0"/>
    </linearGradient>
    <radialGradient id="g" cx="102" cy="112.3047" r="139.55859" gradientTransform="matrix(.97872 0 0 .98182 1.361705 1.163636)" gradientUnits="userSpaceOnUse">
      <stop offset="0" stop-color="#535557"/>
      <stop offset=".11366145" stop-color="#898a8c"/>
      <stop offset=".20296688" stop-color="#ececec"/>
      <stop offset=".2363" stop-color="#fafafa"/>
      <stop offset=".2722" stop-color="#fff"/>
      <stop offset=".5313" stop-color="#fafafa"/>
      <stop offset=".8449" stop-color="#ebecec"/>
      <stop offset="1" stop-color="#e1e2e3"/>
    </radialGradient>
    <radialGradient id="f" cx="102.000002" cy="112.3047" r="139.5585" gradientUnits="userSpaceOnUse">
      <stop offset="0" stop-color="#00537d"/>
      <stop offset=".0151" stop-color="#186389"/>
      <stop offset=".0558" stop-color="#558ca8"/>
      <stop offset=".0964" stop-color="#89afc3"/>
      <stop offset=".1357" stop-color="#b3ccd8"/>
      <stop offset=".1737" stop-color="#d4e2e9"/>
      <stop offset=".2099" stop-color="#ecf2f5"/>
      <stop offset=".2435" stop-color="#fafcfd"/>
      <stop offset=".2722" stop-color="#fff"/>
    </radialGradient>
    <radialGradient xlink:href="#c" id="A" cx="49.011971" cy="2.674308" r="1.724619" gradientTransform="matrix(1.5496 0 0 .18768 -193.24041 -23.535874)" gradientUnits="userSpaceOnUse"/>
    <radialGradient xlink:href="#c" id="z" cx="49.011971" cy="2.674308" r="1.724619" gradientTransform="matrix(1.55063 0 0 .18731 21.621938 -31.864287)" gradientUnits="userSpaceOnUse"/>
    <radialGradient xlink:href="#c" id="y" cx="49.011971" cy="2.674308" r="1.724619" gradientTransform="matrix(2.26002 0 0 .27524 -2.259041 -25.415382)" gradientUnits="userSpaceOnUse"/>
    <radialGradient xlink:href="#b" id="u" cx="34.677639" cy="7.462277" r="47.595196" gradientTransform="matrix(-1.5103 .00264 -.00012 -.00911 87.0522 7.438666)" gradientUnits="userSpaceOnUse"/>
    <radialGradient id="n" cx="42.617531" cy="120.64188" r="3.406888" gradientTransform="matrix(1.90906 1.83921 -8.62225 7.57665 1009.8522 -881.36145)" gradientUnits="userSpaceOnUse">
      <stop offset="0" stop-color="#b4942a"/>
      <stop offset="1" stop-color="#e4dcc9"/>
    </radialGradient>
    <filter id="e">
      <feGaussianBlur stdDeviation="1.0394514"/>
    </filter>
    <filter id="d">
      <feGaussianBlur stdDeviation=".50063244"/>
    </filter>
    <filter id="t">
      <feGaussianBlur stdDeviation=".31468463"/>
    </filter>
    <filter id="m">
      <feGaussianBlur stdDeviation="1.4758613"/>
    </filter>
  </defs>
  <path d="M24.919999 10.931136V119.06907l58.676001-.0001c.53 0 1.039-.211 1.414-.586l31.484-31.765936c.375-.375.586-.884.586-1.414V10.931136z" filter="url(#d)" opacity=".89589" transform="matrix(1.04167 0 0 1.03571 -9.958333 -3.321534)"/>
  <path d="M23 9.9655172 23.040816 121H84.172c.53 0 1.039-.211 1.414-.586l32.828-32.828c.375-.375.586-.884.586-1.414V9.9655172z" filter="url(#e)" opacity=".306849" transform="matrix(1.04167 0 0 1.03571 -9.958333 -3.321534)"/>
  <path fill="url(#f)" d="M16.000002 8v112h61.172c.53 0 1.039-.211 1.414-.586L111.414 86.586c.375-.375.586-.884.586-1.414V8z"/>
  <path fill="url(#g)" d="M18.978725 10c-.539276 0-.978723.440836-.978723.981818V117.01818c0 .54197.439447.98182.978723.98182h57.913022c.257404 0 .509915-.10407.691957-.28767L109.71323 85.4812c.18303-.1836.28677-.435927.28677-.694145V10.981818c0-.540982-.43847-.981818-.97872-.981818z"/>
  <g transform="translate(.000002)">
    <path fill="url(#h)" d="M111.414 86.586C111.664 86.336 93.035 93 88 93c-1.654 0-3 1.346-3 3 0 5.035-6.664 23.664-6.414 23.414z" opacity=".1"/>
    <path fill="url(#i)" d="M111.414 86.586C111.789 86.211 97.444 94 88 94c-1.103 0-2 .897-2 2 0 9.444-7.789 23.789-7.414 23.414z" opacity=".1"/>
    <path fill="url(#j)" d="M111.414 86.586C111.653 86.347 97.807 95 88 95c-.553 0-1 .447-1 1 0 9.807-8.653 23.653-8.414 23.414z" opacity=".1"/>
    <path fill="url(#k)" d="M78.586 119.414S90.5 109.5 96 104s15.414-17.414 15.414-17.414S98.25 96 88 96c0 10.25-9.414 23.414-9.414 23.414z"/>
  </g>
  <g transform="translate(-23.107793 -69.65492) scale(1.45121)">
    <g fill-rule="evenodd">
      <path fill="#bf0000" d="M90.067703 48.28801c.613642-.692125 4.648657-.363057 8.944253 3.536477 4.337724 3.937759 5.210074 7.748115 4.441394 8.615025-.5003.564284-1.00061 1.128566-1.50092 1.692851-4.461914-4.050501-8.9238-8.101002-13.385691-12.151503.500309-.564283 1.000624-1.128565 1.500964-1.69285z"/>
      <path fill="#b3925d" d="m36.000762 124 20.247-9.42653.09417-.10772-13.269004-12.28446-.127672.1459z"/>
      <path fill="url(#l)" d="M97.750257 56.002191c-1.025821-.045023-1.882013.614542-2.665637.986566-4.174912 3.698786-21.569273 21.653428-22.000397 22.168708L55.810891 99.817304l-.106627.116066-9.682256 17.6334 23.598527-5.26172 29.942357-36.049248 3.589728-4.294461c.64726-1.199814 1.23861-7.813473-1.74155-12.76732-1.452992-2.415269-2.634989-3.146806-3.660813-3.19183zm5.402363 15.95915c-.02657.04924-.04455.143824-.07109.174098-.01293.014759 1.49247-1.049396.6753-.870498z" filter="url(#m)"/>
      <path fill="url(#n)" d="m37.004018 123.01573 18.885171-8.78019.094162-.10769-12.551842-11.60866-.12769.14592z"/>
    </g>
    <path fill="url(#o)" d="M49.164276 108.94499c1.648961 1.50106 2.755448 1.51054 3.34488 2.0471.095254.08671.175312.18851.243795.29167l44.639991-51.266458-6.480524-5.899315-44.724863 51.363483c.214748.05644.415855.13454.602285.30424.538767.49045.717813 1.65124 2.374436 3.15928z"/>
    <path d="m54.219542 109.12044-1.750182 2.00168c.538752.53092.431653 1.46553 1.421976 2.36702 1.067261.97156 1.630178.45849 2.321697 1.08447l1.771382-2.02599z" opacity=".353488"/>
    <path fill="url(#p)" d="M97.156354 59.801933 52.550305 111.02955c.541583.53354.517441 1.37742 1.512824 2.28353 1.072712.97652 1.555044.55628 2.250088 1.18547l44.627263-51.251869z"/>
    <path fill="#252525" d="m47.641192 104.81388-.897802 1.02682-.034497.03759c.447512.42018.395724 1.39005 1.878296 2.86086l.08229.07492.586334.53373.082298.07492c1.616252 1.35012 2.54668 1.16726 3.136095 1.7038l.947655-1.09585z" opacity=".386047"/>
    <path fill="#131313" d="m43.884886 101.37497-.940801.95531c.02064.01874-.053113.1047-.032373.12358.423005.38509.412824 1.36825 1.189787 2.20191l.072004.06553.318878.29029.04115.03744c.925767.72156 1.702344.46358 2.175362.82926l.940872-1.07609z" opacity=".353488"/>
    <path fill="url(#q)" d="M44.501995 104.6749c1.032229.92922 1.738227.6105 2.287845 1.11081l44.606065-51.227604-3.824461-3.481452-44.627276 51.251876c.020961.01903.041624.03789.062688.05708.42971.39116.455145 1.35294 1.495139 2.28929z"/>
    <path fill="url(#r)" d="M99.380959-24.64492h18.073059v4.252269H99.380959z" transform="matrix(.74093 .67158 -.66557 .74634 0 0)"/>
    <path fill="url(#s)" d="M82.172836 7.4622769a47.495197.97142172 0 1 1-94.990394 0 47.495197.97142172 0 1 1 94.990394 0z" filter="url(#t)" transform="matrix(.3855 -.44037 -1.73452 -1.57649 62.874028 110.46407)"/>
    <path fill="url(#u)" d="M106.56087 7.4622769a71.883232.4230493 0 1 1-.03548-.0132899" transform="matrix(.31849 -.36653 -1.25764 -1.14527 66.925762 101.47904)"/>
    <path fill="url(#v)" fill-rule="evenodd" d="M44.721041 119.98334c-1.894932-.77816-4.469372-3.93608-5.787909-5.07837l-2.933131 9.08971z"/>
    <path fill="url(#w)" fill-rule="evenodd" d="M97.676422 50.957862c2.773338 2.157871 4.754818 5.136648 4.863888 5.422718.10904.286071-2.586875-3.046365-4.878244-4.572341-2.273846-1.514326-5.450917-1.552229-5.685693-1.736594-.234782-.184361-1.822614-1.877275-.38221-1.814774 1.506596.065372 3.94013 1.035831 6.082259 2.700991z"/>
    <path fill="url(#x)" d="m93.653015 51.592952-2.773744 3.218036 6.482458 5.873697 2.773741-3.186793z"/>
    <path fill="url(#y)" d="M104.60918-25.364759h7.795228v1.708078h-7.795228z" transform="matrix(.74042 .67215 -.66342 .74824 0 0)"/>
    <path fill="url(#z)" d="M94.946716-31.829779h5.348458v1.162492h-5.348458z" transform="matrix(.69422 .71976 -.76934 .63884 0 0)"/>
    <path fill="url(#A)" d="M-119.96733-23.501301h5.3449v1.164788h-5.3449z" transform="matrix(-.75146 -.65978 -.58931 .8079 0 0)"/>
  </g>
</svg>