<?xml version="1.0" encoding="UTF-8" standalone="no"?>
<svg height="128" width="128" xmlns="http://www.w3.org/2000/svg" xmlns:xlink="http://www.w3.org/1999/xlink">
  <defs>
    <linearGradient id="a">
      <stop offset="0" stop-color="#fff"/>
      <stop offset="1" stop-color="#555753"/>
    </linearGradient>
    <linearGradient id="G" gradientUnits="userSpaceOnUse" x1="94.344" x2="86.536" xlink:href="#a" y1="102.345" y2="94.537"/>
    <linearGradient id="H" gradientUnits="userSpaceOnUse" x1="95" x2="86.587" xlink:href="#a" y1="103" y2="94.587"/>
    <linearGradient id="I" gradientUnits="userSpaceOnUse" x1="95" x2="87.293" y1="103" y2="95.293">
      <stop offset="0" stop-color="#fff"/>
      <stop offset="1" stop-color="#393b38"/>
    </linearGradient>
    <linearGradient id="J" gradientUnits="userSpaceOnUse" x1="96" x2="88" y1="104" y2="96">
      <stop offset="0" stop-color="#888a85"/>
      <stop offset=".007" stop-color="#8c8e89"/>
      <stop offset=".067" stop-color="#abaca9"/>
      <stop offset=".135" stop-color="#c5c6c4"/>
      <stop offset=".211" stop-color="#dbdbda"/>
      <stop offset=".301" stop-color="#ebebeb"/>
      <stop offset=".412" stop-color="#f7f7f6"/>
      <stop offset=".568" stop-color="#fdfdfd"/>
      <stop offset="1" stop-color="#fff"/>
    </linearGradient>
    <radialGradient id="p" cx="102" cy="112.305" gradientTransform="matrix(.97872 0 0 .98182 1.362 1.164)" gradientUnits="userSpaceOnUse" r="139.559">
      <stop offset="0" stop-color="#535557"/>
      <stop offset=".114" stop-color="#898a8c"/>
      <stop offset=".203" stop-color="#ececec"/>
      <stop offset=".236" stop-color="#fafafa"/>
      <stop offset=".272" stop-color="#fff"/>
      <stop offset=".531" stop-color="#fafafa"/>
      <stop offset=".845" stop-color="#ebecec"/>
      <stop offset="1" stop-color="#e1e2e3"/>
    </radialGradient>
    <radialGradient id="o" cx="102" cy="112.305" fx="102" fy="112.305" gradientUnits="userSpaceOnUse" r="139.559" xlink:href="#b"/>
    <filter id="n">
      <feGaussianBlur stdDeviation="1.039"/>
    </filter>
    <linearGradient id="E" gradientUnits="userSpaceOnUse" x1="71.594" x2="71.594" xlink:href="#c" y1="130.406" y2="63.427"/>
    <mask id="r">
      <path d="M-184.422-32.472c-33.126 0-64 32.374-64 65.5 0 33.125 31.374 64 64.5 64 30.289 0 55.336-26.217 59.406-55.344l-35.031-5.031c-1.625 11.96-11.93 20.968-24.375 20.968-13.572 0-22.094-11.522-22.094-25.093 0-13.572 6.022-20.094 19.594-20.094 6.785 0 9.921-2.235 14.375 2.219l-4.828 11.327c-2.055 2.056-2.243 3.306-1.68 4.615.51 1.181 1.522 2.526 4.21 2.526h43.954c3.846 0 6.459-2.654 6.459-6.25l-.069-44.078c0-2.48-.902-3.843-2.181-4.35-1.315-.52-3.034-.122-5.108 1.952l-10.195.195c-10.86-10.86-26.375-13.062-42.937-13.062z" fill="url(#d)" transform="translate(248.019 30.881)"/>
      <path d="M-161.5 34.5C-162 37-180 54-180 54l47.5 26 20.5-41.5z" fill="url(#e)" fill-rule="evenodd" transform="translate(248.019 30.881)"/>
      <path d="M-161.5 34.5c-.5 2.5-19.778 19.89-19.778 19.89l29.65 43.202L-112 38.5z" fill="url(#f)" fill-rule="evenodd" transform="translate(248.019 30.881)"/>
      <path d="M-161.5 34.5c-.5 2.5-19.778 19.89-19.778 19.89l29.65 43.202L-112 38.5z" fill="url(#g)" fill-rule="evenodd" transform="translate(248.019 30.881)"/>
      <path fill="url(#h)" d="M-119 69.75h83.5v71.75H-119z" transform="translate(167.503 -.004)"/>
      <path d="M-159.5 68.25l120.362-12.266-54.315 106.569-104.342-33.588z" fill="url(#i)" transform="rotate(50.255 -33.995 282.691)"/>
      <path d="M-159.5 68.25l120.362-12.266-54.315 106.569-104.342-33.588z" fill="url(#j)" transform="rotate(50.255 -33.995 282.691)"/>
    </mask>
    <linearGradient id="j" gradientUnits="userSpaceOnUse" x1="-102.303" x2="-177.011" xlink:href="#k" y1="98.48" y2="111.204"/>
    <linearGradient id="i" gradientUnits="userSpaceOnUse" x1="-124.094" x2="-178.504" xlink:href="#k" y1="135.633" y2="91.104"/>
    <linearGradient id="h" gradientUnits="userSpaceOnUse" x1="-73" x2="-163" xlink:href="#k" y1="105.625" y2="86.125"/>
    <linearGradient id="g" gradientUnits="userSpaceOnUse" x1="-83.013" x2="-158.925" xlink:href="#k" y1="44.753" y2="72.882"/>
    <linearGradient id="f" gradientUnits="userSpaceOnUse" x1="-132.51" x2="-158.925" xlink:href="#k" y1="39.803" y2="72.882"/>
    <linearGradient id="e" gradientUnits="userSpaceOnUse" x1="-151.439" x2="-152.268" xlink:href="#k" y1="37.682" y2="57.25"/>
    <radialGradient id="d" cx="-112.172" cy="118.605" fx="-113.148" fy="59.708" gradientTransform="matrix(.64843 .10172 -.03126 .19925 -4.563 53.16)" gradientUnits="userSpaceOnUse" r="59.995">
      <stop offset="0" stop-color="#fff" stop-opacity="0"/>
      <stop offset=".5" stop-color="#fff" stop-opacity=".187"/>
      <stop offset="1" stop-color="#fff"/>
    </radialGradient>
    <linearGradient id="z" gradientUnits="userSpaceOnUse" spreadMethod="reflect" x1="120.063" x2="125.304" y1="12.569" y2="14.444">
      <stop offset="0" stop-color="#fdff63"/>
      <stop offset="1" stop-color="#fff" stop-opacity="0"/>
    </linearGradient>
    <radialGradient id="t" cx="66.015" cy="126.692" gradientTransform="matrix(.67502 0 0 .35836 19.527 41.005)" gradientUnits="userSpaceOnUse" r="59.995">
      <stop offset="0" stop-color="#beba2c"/>
      <stop offset="1" stop-color="#b6be2c" stop-opacity="0"/>
    </radialGradient>
    <radialGradient id="w" cx="72.685" cy="48.229" fx="74.871" fy="26.863" gradientTransform="matrix(.98237 .01672 -.00358 .21038 -18.563 30.478)" gradientUnits="userSpaceOnUse" r="59.995" xlink:href="#k"/>
    <filter id="y" height="1.275" width="1.302" x="-.151" y="-.137">
      <feGaussianBlur stdDeviation=".393"/>
    </filter>
    <linearGradient id="x" gradientUnits="userSpaceOnUse" spreadMethod="reflect" x1="120.063" x2="125.304" xlink:href="#l" y1="12.569" y2="14.444"/>
    <radialGradient id="u" cx="167.67" cy="80.405" gradientTransform="matrix(.26767 .52138 -.70375 .3613 108.994 -36.063)" gradientUnits="userSpaceOnUse" r="59.995" xlink:href="#k"/>
    <radialGradient id="v" cx="-10.165" cy="66.906" gradientTransform="matrix(.45829 0 0 1.00008 20.448 -.005)" gradientUnits="userSpaceOnUse" r="59.995" xlink:href="#k"/>
    <filter id="F">
      <feGaussianBlur stdDeviation="1.058"/>
    </filter>
    <linearGradient id="D" gradientUnits="userSpaceOnUse" x1="75.098" x2="75.098" xlink:href="#l" y1="4.534" y2="80.174"/>
    <linearGradient id="C" gradientUnits="userSpaceOnUse" x1="75.094" x2="75.094" xlink:href="#c" y1="4.532" y2="80.172"/>
    <radialGradient id="B" cx="99.726" cy="27.418" fx="64.69" fy="68.232" gradientTransform="matrix(.69373 .05867 -.03624 .42854 33.94 26.88)" gradientUnits="userSpaceOnUse" r="56">
      <stop offset="0" stop-color="#eaf209"/>
      <stop offset="1" stop-color="#c7c634" stop-opacity="0"/>
    </radialGradient>
    <radialGradient id="A" cx="67.094" cy="116.906" fx="67.094" fy="116.906" gradientUnits="userSpaceOnUse" r="56" xlink:href="#m"/>
    <linearGradient id="s" gradientUnits="userSpaceOnUse" x1="147.094" x2="8.084" xlink:href="#m" y1="33.406" y2="123.906"/>
    <linearGradient id="k">
      <stop offset="0"/>
      <stop offset="1" stop-opacity="0"/>
    </linearGradient>
    <linearGradient id="l">
      <stop offset="0" stop-color="#fff"/>
      <stop offset="1" stop-color="#fff" stop-opacity="0"/>
    </linearGradient>
    <radialGradient id="m" cx="48" cy="-.215" gradientTransform="matrix(.9792 0 0 .9725 133 20.876)" gradientUnits="userSpaceOnUse" r="55.148">
      <stop offset="0" stop-color="#cfd13d"/>
      <stop offset="1" stop-color="#db8900"/>
    </radialGradient>
    <linearGradient id="c">
      <stop offset="0" stop-color="#fffe63"/>
      <stop offset="1" stop-color="#fff" stop-opacity="0"/>
    </linearGradient>
    <clipPath id="q">
      <path d="M21.167-21.706v2.801h-53.822v102.45h53.822V97.82h65.294c.565 0 1.1-.234 1.5-.634l35.015-35.017c.4-.4.633-.935.633-1.5v-82.374z"/>
    </clipPath>
    <radialGradient id="b" cx="102" cy="112.305" gradientUnits="userSpaceOnUse" r="139.559">
      <stop offset="0" stop-color="#00537d"/>
      <stop offset=".015" stop-color="#186389"/>
      <stop offset=".056" stop-color="#558ca8"/>
      <stop offset=".096" stop-color="#89afc3"/>
      <stop offset=".136" stop-color="#b3ccd8"/>
      <stop offset=".174" stop-color="#d4e2e9"/>
      <stop offset=".21" stop-color="#ecf2f5"/>
      <stop offset=".243" stop-color="#fafcfd"/>
      <stop offset=".272" stop-color="#fff"/>
    </radialGradient>
  </defs>
  <path d="M23 9l.04 112h61.132a2 2 0 0 0 1.414-.586l32.828-32.828a2 2 0 0 0 .586-1.414V9z" filter="url(#n)" opacity=".5" transform="matrix(1.04167 0 0 1.03571 -9.958 -3.322)"/>
  <path d="M16 8v112h61.172a2 2 0 0 0 1.414-.586l32.828-32.828a2 2 0 0 0 .586-1.414V8z" fill="url(#o)"/>
  <path d="M18.979 10c-.54 0-.979.44-.979.982v106.036c0 .542.44.982.979.982h57.913a.98.98 0 0 0 .692-.288l32.13-32.23a.988.988 0 0 0 .286-.695V10.982a.981.981 0 0 0-.979-.982z" fill="url(#p)"/>
  <g clip-path="url(#q)" transform="matrix(.93712 0 0 .93704 -3.836 28.34)">
    <g mask="url(#r)" transform="matrix(-1 0 0 1 128.178 0)">
      <path d="M64.094 3.906c-33.125 0-60 26.875-60 60s26.875 60 60 60c30.289 0 55.336-22.216 59.406-51.344l-35.031-5.03C86.844 79.491 76.539 88.5 64.094 88.5 50.522 88.5 39.5 77.478 39.5 63.906c0-13.571 11.022-24.593 24.594-24.593 6.786 0 12.921 2.765 17.375 7.218L71.142 56.858c-2.056 2.056-2.244 3.306-1.68 4.616.509 1.18 1.52 2.526 4.21 2.526h43.953c3.846 0 6.459-2.654 6.459-6.25l-.069-44.078c0-2.48-.902-3.843-2.181-4.35-1.315-.52-3.034-.122-5.107 1.951L106.53 21.47C95.671 10.609 80.656 3.906 64.094 3.906z" fill="url(#s)"/>
      <path d="M64.094 3.906c-33.125 0-60 26.875-60 60s26.875 60 60 60c30.289 0 55.336-22.216 59.406-51.344l-35.031-5.03C86.844 79.491 76.539 88.5 64.094 88.5 50.522 88.5 39.5 77.478 39.5 63.906c0-13.571 11.022-24.593 24.594-24.593 6.786 0 12.921 2.765 17.375 7.218L71.142 56.858c-2.056 2.056-2.244 3.306-1.68 4.616.509 1.18 1.52 2.526 4.21 2.526h43.953c3.846 0 6.459-2.654 6.459-6.25l-.069-44.078c0-2.48-.902-3.843-2.181-4.35-1.315-.52-3.034-.122-5.107 1.951L106.53 21.47C95.671 10.609 80.656 3.906 64.094 3.906z" fill="url(#t)" opacity=".798"/>
      <path d="M64.094 3.906c-33.125 0-60 26.875-60 60s26.875 60 60 60c30.289 0 55.336-22.216 59.406-51.344l-35.031-5.03C86.844 79.491 76.539 88.5 64.094 88.5 50.522 88.5 39.5 77.478 39.5 63.906c0-13.571 11.022-24.593 24.594-24.593 6.786 0 12.921 2.765 17.375 7.218L71.142 56.858c-2.056 2.056-2.244 3.306-1.68 4.616.509 1.18 1.52 2.526 4.21 2.526h43.953c3.846 0 6.459-2.654 6.459-6.25l-.069-44.078c0-2.48-.902-3.843-2.181-4.35-1.315-.52-3.034-.122-5.107 1.951L106.53 21.47C95.671 10.609 80.656 3.906 64.094 3.906z" fill="url(#u)" opacity=".689"/>
      <path d="M64.094 3.906c-33.125 0-60 26.875-60 60s26.875 60 60 60c30.289 0 55.336-22.216 59.406-51.344l-35.031-5.03C86.844 79.491 76.539 88.5 64.094 88.5 50.522 88.5 39.5 77.478 39.5 63.906c0-13.571 11.022-24.593 24.594-24.593 6.786 0 12.921 2.765 17.375 7.218L71.142 56.858c-2.056 2.056-2.244 3.306-1.68 4.616.509 1.18 1.52 2.526 4.21 2.526h43.953c3.846 0 6.459-2.654 6.459-6.25l-.069-44.078c0-2.48-.902-3.843-2.181-4.35-1.315-.52-3.034-.122-5.107 1.951L106.53 21.47C95.671 10.609 80.656 3.906 64.094 3.906z" fill="url(#v)"/>
      <path d="M64.094 3.906c-33.125 0-60 26.875-60 60s26.875 60 60 60c30.289 0 55.336-22.216 59.406-51.344l-35.031-5.03C86.844 79.491 76.539 88.5 64.094 88.5 50.522 88.5 39.5 77.478 39.5 63.906c0-13.571 11.022-24.593 24.594-24.593 6.786 0 12.921 2.765 17.375 7.218L71.142 56.858c-2.056 2.056-2.244 3.306-1.68 4.616.509 1.18 1.52 2.526 4.21 2.526h43.953c3.846 0 6.459-2.654 6.459-6.25l-.069-44.078c0-2.48-.902-3.843-2.181-4.35-1.315-.52-3.034-.122-5.107 1.951L106.53 21.47C95.671 10.609 80.656 3.906 64.094 3.906z" fill="url(#w)" opacity=".798"/>
      <path d="M64.094 4.206c-33.125 0-60 26.575-60 59.7s26.875 60 60 60c30.289 0 55.336-22.216 59.406-51.344l-35.031-5.03C86.844 79.491 76.539 88.5 64.094 88.5 50.522 88.5 39.5 77.478 39.5 63.906c0-13.571 11.022-24.593 24.594-24.593 6.786 0 12.921 2.765 17.375 7.218L71.142 56.858c-2.056 2.056-2.244 3.306-1.68 4.616.509 1.18 1.52 2.526 4.21 2.526h43.953c3.846 0 6.459-2.654 6.459-6.25l-.069-44.078c0-2.48-.902-3.843-2.181-4.35-1.315-.52-3.034-.122-5.107 1.951L106.53 21.47C95.671 10.609 80.656 4.206 64.094 4.206z" fill="#75511a" opacity=".745"/>
      <path d="M117.688 10.75l.937 4.375 1.25.875 4-2.625c.247-1.724-.351-3.347-1.938-4-1.586-.653-3.16.127-4.25 1.375z" fill="url(#x)" fill-rule="evenodd" filter="url(#y)" opacity=".82"/>
      <path d="M117.688 10.75l2.187 3.125.5-.125 3.5-.375c.247-1.724-.351-3.347-1.938-4-1.586-.653-3.16.127-4.25 1.375z" fill="url(#z)" fill-rule="evenodd" filter="url(#y)" opacity=".82" transform="rotate(90 60.364 0)"/>
      <path d="M64.094 7.906c-30.962 0-56 25.039-56 56 0 30.962 25.038 56 56 56 26.933 0 49.121-18.807 54.531-44L91.5 72.031C88.061 83.93 77.06 92.5 64.094 92.5 48.356 92.5 35.5 79.644 35.5 63.906c0-15.737 12.856-28.593 28.594-28.593a28.563 28.563 0 0 1 20.219 8.374 4.001 4.001 0 0 1 0 5.688L73.686 60h43.938c2.005 0 2.469-.592 2.469-2.25L120 13.656l-10.625 10.656a4.001 4.001 0 0 1-5.688 0C93.55 14.175 79.578 7.907 64.094 7.907z" fill="url(#A)"/>
      <path d="M64.094 7.906c-30.962 0-56 25.039-56 56 0 30.962 25.038 56 56 56 26.933 0 49.121-18.807 54.531-44L91.5 72.031C88.061 83.93 77.06 92.5 64.094 92.5 48.356 92.5 35.5 79.644 35.5 63.906c0-15.737 12.856-28.593 28.594-28.593a28.563 28.563 0 0 1 20.219 8.374 4.001 4.001 0 0 1 0 5.688L73.686 60h43.938c2.005 0 2.469-.592 2.469-2.25L120 13.656l-10.625 10.656a4.001 4.001 0 0 1-5.688 0C93.55 14.175 79.578 7.907 64.094 7.907z" fill="url(#B)"/>
      <path d="M64.094 7.906c-30.962 0-56 25.039-56 56 0 .568.014 1.124.031 1.688 5.99.677 12.141 1.15 18.406 1.406-.27-10.459 3.672-20.975 11.813-28.781 15.34-14.71 39.728-14.215 54.437 1.125 2.764 2.882 4.757 5.688 6.563 9.25L78.844 59H98c7.928-2.027 15.186-3.437 22.094-6.188L120 13.657l-10.625 10.656a4.001 4.001 0 0 1-5.688 0C93.55 14.175 79.578 7.907 64.094 7.907z" fill="url(#C)"/>
      <path d="M64.1 7.909c-30.962 0-56 25.038-56 56 0 .178-.003.354 0 .531.253-30.743 25.196-55.531 56-55.531 15.483 0 29.456 6.268 39.594 16.406a4.001 4.001 0 0 0 5.687 0l10.125-10.156.494 37.55c-6.908 2.75-14.566 3.86-22.494 5.887l-18.656.407h19.156c7.928-2.027 15.186-3.437 22.094-6.188l-.094-38.156v-1l-.5.5-10.125 10.156a4.001 4.001 0 0 1-5.687 0l-.032-.031-.156-.156a52.516 52.516 0 0 0-1.75-1.657c-.081-.074-.168-.145-.25-.218C91.59 13.343 78.496 7.909 64.1 7.909zm-.656 19.219c-9.239.25-18.404 3.792-25.594 10.687-7.632 7.318-11.128 17.373-11.313 27.219.24-9.802 4.18-19.494 11.813-26.813 13.316-12.769 33.453-14.098 48.156-4.187a38.433 38.433 0 0 0-23.062-6.906z" fill="url(#D)"/>
      <path d="M63.594 7.906c-30.962 0-56 25.039-56 56 0 30.962 25.038 56 56 56 26.933 0 49.121-18.807 54.531-44L91 72.031C87.561 83.93 76.56 92.5 63.594 92.5 47.856 92.5 35 79.644 35 63.906c0-15.737 12.856-28.593 28.594-28.593a28.563 28.563 0 0 1 20.218 8.374 4.001 4.001 0 0 1 0 5.688L73.189 60h43.937c2.005 0 2.469-.592 2.469-2.25l-.094-44.094-10.625 10.656a4.001 4.001 0 0 1-5.688 0C93.05 14.175 79.078 7.907 63.594 7.907z" fill="none" stroke-width="1.067" stroke-linecap="round" stroke-linejoin="round" stroke-dashoffset="1.088" stroke="url(#E)" filter="url(#F)"/>
    </g>
  </g>
  <path d="M111.414 86.586C111.664 86.336 93.035 93 88 93c-1.654 0-3 1.346-3 3 0 5.035-6.664 23.664-6.414 23.414z" fill="url(#G)" opacity=".1"/>
  <path d="M111.414 86.586C111.789 86.211 97.444 94 88 94c-1.103 0-2 .897-2 2 0 9.444-7.789 23.789-7.414 23.414z" fill="url(#H)" opacity=".1"/>
  <path d="M111.414 86.586C111.653 86.347 97.807 95 88 95a1 1 0 0 0-1 1c0 9.807-8.653 23.653-8.414 23.414z" fill="url(#I)" opacity=".1"/>
  <path d="M78.586 119.414S90.5 109.5 96 104s15.414-17.414 15.414-17.414S98.25 96 88 96c0 10.25-9.414 23.414-9.414 23.414z" fill="url(#J)"/>
</svg>
