<?xml version="1.0" encoding="UTF-8" standalone="no"?>
<svg xmlns="http://www.w3.org/2000/svg" xmlns:xlink="http://www.w3.org/1999/xlink" width="128" height="128">
  <defs>
    <path id="n" fill="url(#a)" d="M26.246568 16.978625c-4.690175 0-9.477343 3.654709-9.477343 9.485448l4.007515-.824868c.452373-2.129835 2.851964-4.270962 4.526605-4.603385z" filter="url(#b)" opacity=".326425"/>
  </defs>
  <defs>
    <linearGradient id="c">
      <stop offset="0" stop-color="#fff"/>
      <stop offset="1" stop-color="#fff" stop-opacity="0"/>
    </linearGradient>
    <linearGradient id="h" x1="12" x2="11.458064" y1="68" y2="13.006452" gradientTransform="rotate(90 -90.0007 50.0022)" gradientUnits="userSpaceOnUse">
      <stop offset="0" stop-color="#004d00"/>
      <stop offset="1" stop-color="#006b00"/>
    </linearGradient>
    <linearGradient xlink:href="#c" id="k" x1="13.507897" x2="7.602036" y1="13.721349" y2="19.627209" gradientUnits="userSpaceOnUse" spreadMethod="reflect"/>
    <linearGradient xlink:href="#c" id="l" x1="21.507897" x2="15.539791" y1="21.721349" y2="27.689454" gradientUnits="userSpaceOnUse" spreadMethod="reflect"/>
    <linearGradient xlink:href="#c" id="a" x1="21.507897" x2="14.373943" y1="21.721349" y2="28.855302" gradientUnits="userSpaceOnUse" spreadMethod="reflect"/>
    <linearGradient xlink:href="#d" id="m" x1="55.329033" x2="55.329033" y1="112" y2="74.913147" gradientUnits="userSpaceOnUse"/>
    <linearGradient id="i" x1="19.096775" x2="80.047699" y1="50.580647" y2="66.897575" gradientTransform="rotate(90 -90.0007 50.0022)" gradientUnits="userSpaceOnUse">
      <stop offset="0" stop-color="#32b800"/>
      <stop offset="1" stop-color="#bff500" stop-opacity="0"/>
    </linearGradient>
    <linearGradient xlink:href="#c" id="t" x1="59.225807" x2="59.225807" y1="-31.712746" y2="98.167175" gradientUnits="userSpaceOnUse"/>
    <linearGradient xlink:href="#c" id="p" x1="59.48817" x2="59.48817" y1="8.897322" y2="47.228859" gradientUnits="userSpaceOnUse"/>
    <linearGradient xlink:href="#c" id="q" x1="116.000003" x2="31.609901" y1="73.000002" y2="22.946344" gradientUnits="userSpaceOnUse"/>
    <linearGradient id="r" x1="-60.945251" x2="-59.415245" y1="105.83054" y2="45.631207" gradientUnits="userSpaceOnUse">
      <stop offset="0" stop-color="#ffeb8b"/>
      <stop offset="1" stop-color="#fff" stop-opacity="0"/>
    </linearGradient>
    <linearGradient id="f" x1="60.402065" x2="60.402065" y1="64.076149" y2="-20.962214" gradientTransform="rotate(90 -90.0007 50.0022)" gradientUnits="userSpaceOnUse">
      <stop offset="0" stop-color="#144c00"/>
      <stop offset="1" stop-color="#5b7500" stop-opacity="0"/>
    </linearGradient>
    <linearGradient id="e">
      <stop offset="0" stop-color="#fff"/>
      <stop offset=".42597079" stop-color="#fff"/>
      <stop offset=".5892781" stop-color="#f1f1f1"/>
      <stop offset=".80219781" stop-color="#eaeaea"/>
      <stop offset="1" stop-color="#dfdfdf"/>
    </linearGradient>
    <linearGradient id="d" x1="-84.002403" x2="-12.0029" y1="-383.9971" y2="-383.9971" gradientTransform="rotate(90 -90.0007 50.0022)" gradientUnits="userSpaceOnUse">
      <stop offset="0" stop-color="#e5ff00"/>
      <stop offset="1" stop-color="#bff500" stop-opacity="0"/>
    </linearGradient>
    <filter id="b">
      <feGaussianBlur stdDeviation=".28444187"/>
    </filter>
    <filter id="s">
      <feGaussianBlur stdDeviation=".32872878"/>
    </filter>
    <filter id="g">
      <feGaussianBlur stdDeviation="1.6179775"/>
    </filter>
    <filter id="w">
      <feGaussianBlur stdDeviation=".61137351"/>
    </filter>
    <filter id="y">
      <feGaussianBlur stdDeviation=".40755289"/>
    </filter>
    <radialGradient id="j" cx="-63.99999971" cy="91.78952377" r="50.60662936" gradientUnits="userSpaceOnUse" spreadMethod="pad">
      <stop offset="0" stop-color="#00c900"/>
      <stop offset="1" stop-color="#006500"/>
    </radialGradient>
    <radialGradient xlink:href="#e" id="u" cx="63.96875" cy="66.125" r="44.043648" fx="79.944847" fy="81.962006" gradientTransform="matrix(.73039 .48602 -.73452 1.10383 65.813265 -37.956259)" gradientUnits="userSpaceOnUse" spreadMethod="reflect"/>
    <radialGradient xlink:href="#d" id="o" cx="64" cy="-8.622761" r="56" gradientTransform="matrix(1 0 0 .12612 0 13.087469)" gradientUnits="userSpaceOnUse"/>
    <clipPath id="v">
      <path d="M-93.928355 26.46875c-1.530347.042598-2.961334.686235-4.03125 1.78125l-16.906255 16.90625-.09375.0625c-.90982.63942-1.62687 1.516932-2.0625 2.59375-.7188 1.776821-.48619 3.766011.5 5.34375.15448.24713.30737.493854.5.71875.11916.139108.24156.277105.375.40625.07012.070029.11409.121216.1875.1875l17.500005 17.5c1.479032 1.540452 3.652281 2.132471 5.71875 1.59375 2.066472-.538722 3.680028-2.121031 4.21875-4.1875.538723-2.066471-.053301-4.270969-1.59375-5.75l-7.625-7.625h26.1875c2.126604.030075 4.115419-1.100653 5.1875-2.9375 1.072082-1.836845 1.072081-4.100653 0-5.9375-1.07208-1.83685-3.060892-2.936326-5.1875-2.90625h-26.1875l7.625-7.625c1.735348-1.696583 2.259277-4.296651 1.3125-6.53125-.946775-2.2346-3.199016-3.660283-5.625-3.59375zm40.90625 32c-.519027-.005564-1.045883.05282-1.5625.1875-2.066469.538721-3.648778 2.152281-4.1875 4.21875-.538724 2.06647.053301 4.270969 1.59375 5.75l7.625 7.625h-26.1875c-2.126609-.030076-4.115419 1.069403-5.1875 2.90625-1.072079 1.836847-1.072081 4.100653 0 5.9375 1.072083 1.836845 3.060892 2.967576 5.1875 2.9375h26.1875l-7.625 7.625c-1.735345 1.696585-2.259277 4.29665-1.3125 6.53125.946778 2.2346 3.167766 3.66028 5.59375 3.59375 1.530346-.0426 2.992584-.68624 4.0625-1.78125l16.875-16.90625.09375-.0625c.90983-.639417 1.65813-1.548182 2.09375-2.625.71881-1.776818.48619-3.734761-.5-5.3125-.15447-.247131-.30737-.493854-.5-.71875-.11915-.139105-.24156-.277105-.375-.40625-.07012-.070027-.14534-.152466-.21875-.21875l-17.46875-17.46875c-1.109275-1.155337-2.630418-1.795809-4.1875-1.8125z"/>
    </clipPath>
    <clipPath id="x">
      <path d="M-189.50809 26.46875c-1.53035.042598-2.96134.686235-4.03125 1.78125l-16.90626 16.90625-.09375.0625c-.90982.63942-1.62687 1.516932-2.0625 2.59375-.7188 1.776821-.48619 3.766011.5 5.34375.15448.24713.30737.493854.5.71875.11916.139108.24156.277105.375.40625.07012.070029.11409.121216.1875.1875l17.50001 17.5c1.47903 1.540452 3.65228 2.132471 5.71875 1.59375 2.06647-.538722 3.68002-2.121031 4.21875-4.1875.53872-2.066471-.0533-4.270969-1.59375-5.75l-7.625-7.625h26.1875c2.1266.030075 4.11542-1.100653 5.1875-2.9375 1.07208-1.836845 1.07208-4.100653 0-5.9375-1.07208-1.83685-3.0609-2.936326-5.1875-2.90625h-26.1875l7.625-7.625c1.73534-1.696583 2.25927-4.296651 1.3125-6.53125-.94678-2.2346-3.19902-3.660283-5.625-3.59375zm40.90625 32c-.51903-.005564-1.04589.05282-1.5625.1875-2.06647.538721-3.64878 2.152281-4.1875 4.21875-.53873 2.06647.0533 4.270969 1.59375 5.75l7.625 7.625h-26.1875c-2.12661-.030076-4.11542 1.069403-5.1875 2.90625s-1.07208 4.100653 0 5.9375c1.07208 1.836845 3.06089 2.967576 5.1875 2.9375h26.1875l-7.625 7.625c-1.73535 1.696585-2.25928 4.29665-1.3125 6.53125.94677 2.2346 3.16776 3.66028 5.59375 3.59375 1.53034-.0426 2.99258-.68624 4.0625-1.78125l16.875-16.90625.09375-.0625c.90983-.639417 1.65813-1.548182 2.09375-2.625.71881-1.776818.48619-3.734761-.5-5.3125-.15447-.247131-.30737-.493854-.5-.71875-.11915-.139105-.24156-.277105-.375-.40625-.07012-.070027-.14534-.152466-.21875-.21875l-17.46875-17.46875c-1.10928-1.155337-2.63042-1.795809-4.1875-1.8125z"/>
    </clipPath>
  </defs>
  <path fill="url(#f)" d="M18.083601 8H109.9164C115.50271 8 120 12.497286 120 18.083601V109.9164C120 115.50271 115.50271 120 109.9164 120H18.083601C12.497286 120 8 115.50271 8 109.9164V18.083601C8 12.497286 12.497286 8 18.083601 8z" filter="url(#g)"/>
  <path fill="url(#h)" d="M18.083601 8H109.9164C115.50271 8 120 12.497286 120 18.083601V109.9164C120 115.50271 115.50271 120 109.9164 120H18.083601C12.497286 120 8 115.50271 8 109.9164V18.083601C8 12.497286 12.497286 8 18.083601 8z"/>
  <path fill="url(#i)" d="M18.083601 10H109.9164C115.50271 10 120 14.497286 120 20.083601V109.9164C120 115.50271 115.50271 120 109.9164 120H18.083601C12.497286 120 8 115.50271 8 109.9164V20.083601C8 14.497286 12.497286 10 18.083601 10z" opacity=".082902"/>
  <path fill="url(#j)" d="M-109.38386 12.614708h89.767721c3.878793 0 7.001431 3.122638 7.001431 7.001431v88.767721c0 3.87879-3.122638 7.00143-7.001431 7.00143h-89.767721c-3.87879 0-7.00143-3.12264-7.00143-7.00143V19.616139c0-3.878793 3.12264-7.001431 7.00143-7.001431z" transform="scale(-1 1)"/>
  <path fill="url(#k)" d="M17.906944 8.299378c-4.690175 0-9.397509 3.568001-9.397509 9.39874l4.267305-.058913c.452373-2.129835 2.851964-4.270962 4.526605-4.603385z" filter="url(#b)" opacity=".887641"/>
  <path fill="url(#l)" d="M25.397509 16.46919c-4.690175 0-8.967908 3.654709-8.967908 9.485448l4.347139-.315433c.452373-2.129835 2.851964-4.270962 4.526605-4.603385z" filter="url(#b)" opacity=".868914" transform="matrix(-1 0 0 1 135.86741 -8)"/>
  <path fill="url(#m)" d="M8 105.875v4.03125C8 115.49256 12.507435 120 18.09375 120h91.8125C115.49256 120 120 115.49257 120 109.90625V105.875c0 5.58631-4.50744 10.09375-10.09375 10.09375h-91.8125C12.507435 115.96875 8 111.46131 8 105.875z" opacity=".082902"/>
  <use xlink:href="#n" filter="url(#b)" opacity=".326425" transform="matrix(1 0 0 -1 -8 136.08786)"/>
  <use xlink:href="#n" filter="url(#b)" opacity=".176166" transform="rotate(180 67.933705 68.04393)"/>
  <path fill="url(#o)" d="M8 22.03871v-4.03125c0-5.58631 4.507435-10.09375 10.09375-10.09375h91.8125C115.49256 7.91371 120 12.42114 120 18.00746v4.03125c0-5.58631-4.50744-10.09375-10.09375-10.09375h-91.8125C12.507435 11.94496 8 16.4524 8 22.03871z" opacity=".388601"/>
  <g transform="translate(0 -1)">
    <path fill="url(#p)" d="M19.441303 13.28125c-3.990225 0-7.1875 3.197275-7.1875 7.1875v1c0-3.990225 3.197275-7.1875 7.1875-7.1875H109.0663c3.99023 0 7.1875 3.197275 7.1875 7.1875v-1c0-3.990225-3.19727-7.1875-7.1875-7.1875z"/>
    <path fill="url(#q)" d="M112.21077 14.946344c1.59536 1.314795 2.625 3.286748 2.625 5.53125v34.5c-.19337.328038-.43674.667319-.71875 1-27.247777 10.486527-73.312207 13.488327-101.874997 6.625v.5625c28.98107 7.306633 75.58549 4.377686 103.281247-6.28125.28202-.332683.52538-.671962.71875-1v-34.5c0-2.853011-1.64104-5.274084-4.03125-6.4375z"/>
  </g>
  <path fill="none" stroke="url(#r)" stroke-linecap="round" stroke-linejoin="round" d="M-109.38386 13.614708h89.767721c3.878793 0 7.001431 3.122638 7.001431 7.001431v87.767721c0 3.87879-3.122638 7.00143-7.001431 7.00143h-89.767721c-3.87879 0-7.00143-3.12264-7.00143-7.00143V20.616139c0-3.878793 3.12264-7.001431 7.00143-7.001431z" filter="url(#s)" transform="scale(-1 1)"/>
  <path fill="url(#t)" d="M19.1875 12.28125c-3.990225 0-7.1875 3.197275-7.1875 7.1875V61.25c28.981077 7.306633 75.585499 4.377686 103.28125-6.28125.28202-.332683.52538-.671962.71875-1v-34.5c0-3.990225-3.19727-7.1875-7.1875-7.1875z"/>
  <g fill-rule="evenodd">
    <path fill="url(#u)" d="M40.269442 20.35731c-1.766189.049163-3.417706.791991-4.652507 2.055759L16.105256 41.924748l-.108198.072132c-1.050042.737961-1.877597 1.750707-2.380352 2.993474-.82958 2.050647-.561122 4.346392.577055 6.167277.178277.285215.354739.569962.577055.829517.137514.160546.278787.31981.432791.468857.080927.080821.131667.139897.216396.216396l20.196932 20.196932c1.706966 1.777851 4.215135 2.461107 6.600069 1.839363 2.384936-.621745 4.247158-2.447904 4.868903-4.832837.621746-2.384936-.061515-4.92917-1.839364-6.636135l-8.800091-8.800092h30.223265c2.454336.03471 4.749648-1.270275 5.986948-3.390199 1.237301-2.119922 1.2373-4.732606 0-6.85253-1.237299-2.119928-3.532607-3.388845-5.986948-3.354134H36.446452l8.800091-8.800091c2.002784-1.958044 2.607455-4.95881 1.51477-7.537784-1.092683-2.578975-3.692017-4.22437-6.491871-4.147584zM87.47977 57.288842c-.599014-.006421-1.207064.06096-1.803297.216396-2.384933.621744-4.211093 2.48397-4.832837 4.868903-.621747 2.384935.061515 4.92917 1.839363 6.636135l8.800092 8.800092H61.259825c-2.454342-.034711-4.749648 1.234209-5.986948 3.354133-1.237297 2.119924-1.237299 4.732606 0 6.85253 1.237303 2.119922 3.532608 3.424911 5.986948 3.3902h30.223266l-8.800092 8.800089c-2.00278 1.95805-2.607455 4.95881-1.51477 7.53779 1.092687 2.57897 3.655952 4.22436 6.455805 4.14758 1.766188-.04917 3.453772-.792 4.688574-2.05576l19.475612-19.511678.1082-.072132c1.05004-.737957 1.91366-1.786773 2.41642-3.029539.82958-2.050645.56111-4.310327-.57706-6.131212-.17827-.285216-.35474-.569962-.57705-.829517-.13752-.160542-.27879-.319809-.43279-.468857-.08093-.080819-.16774-.175963-.25247-.252462L92.312608 59.380667c-1.280226-1.333386-3.035793-2.072561-4.832838-2.091825z"/>
    <g opacity=".701087" transform="translate(148.73354 -11.090549) scale(1.15411)">
      <path fill="#313131" d="M-93.9375 25.519523c-1.53035.042599-2.961334.686235-4.03125 1.78125l-16.90625 16.90625-.09375.0625c-.90982.63942-1.62687 1.51693-2.0625 2.59375-.48173 1.19081-.53213 2.46245-.21875 3.65625.0605-.22752.1289-.43415.21875-.65625.43563-1.07682 1.15268-1.95433 2.0625-2.59375l.09375-.0625 16.90625-16.90625c1.069916-1.095015 2.5009-1.738651 4.03125-1.78125 2.425984-.066533 4.678222 1.359151 5.625 3.59375.109142.257599.179549.515881.25.78125.319272-1.232878.267655-2.559473-.25-3.78125-.946778-2.234599-3.199016-3.660283-5.625-3.59375zm-.3125 17.75-3 3h26.1875c2.126608-.03008 4.115417 1.0694 5.1875 2.90625.26802.45921.49099.93826.625 1.4375.39122-1.4892.173628-3.06918-.625-4.4375-1.072083-1.83685-3.060892-2.93633-5.1875-2.90625zm41.21875 14.25c-.519026-.00557-1.045883.05282-1.5625.1875-2.066468.53872-3.648778 2.15228-4.1875 4.21875-.258483.99151-.242008 2.00907 0 2.96875.545922-2.05254 2.130719-3.65131 4.1875-4.1875.516617-.13468 1.043474-.19307 1.5625-.1875 1.557082.01669 3.078226.65716 4.1875 1.8125l17.46875 17.46875c.07341.06628.148629.14872.21875.21875.13344.12914.255849.26714.375.40625.19263.22489.345529.47162.5.71875.32873.52591.564808 1.09789.71875 1.6875.448801-1.60577.155864-3.28826-.71875-4.6875-.154471-.24713-.30737-.49386-.5-.71875-.119151-.13911-.24156-.27711-.375-.40625-.070121-.07003-.14534-.15247-.21875-.21875l-17.46875-17.46875c-1.109274-1.15534-2.630418-1.79581-4.1875-1.8125zm-44.21875.53125 7.625 7.625c.770224.73951 1.320529 1.66194 1.59375 2.65625.498841-2.04041-.075519-4.19855-1.59375-5.65625l-4.625-4.625zm21.5 17.25c-2.126612-.03008-4.115419 1.0694-5.1875 2.90625-.79871 1.36846-.985131 2.94818-.59375 4.4375.13401-.49924.32573-.97829.59375-1.4375 1.072081-1.83685 3.060888-2.93633 5.1875-2.90625h26.1875l-3-3zm23.1875 14.78125-4.625 4.625c-1.541748 1.50731-2.114983 3.70628-1.5625 5.749997.264413-1.023067.775249-1.980337 1.5625-2.749997l7.625-7.625z" clip-path="url(#v)" filter="url(#w)"/>
      <path fill="#fff" d="M-183.625 32.269464c-.26441 1.02307-.77525 1.98033-1.5625 2.75l-7.625 7.625h3l4.625-4.625c1.54174-1.50732 2.11498-3.70628 1.5625-5.75zm-29.1875 17.65625c-.42353 1.59265-.14417 3.27573.71875 4.65625.15448.24714.30737.49385.5.71875.11916.13911.24156.2771.375.40625.07012.07004.11409.12121.1875.1875l17.5 17.5c1.47903 1.54046 3.65228 2.13247 5.71875 1.59375s3.68002-2.12103 4.21875-4.1875c.25848-.9915.24201-2.00907 0-2.96875-.54598 2.05271-2.16166 3.61997-4.21875 4.15625-2.06647.53872-4.23972-.05329-5.71875-1.59375l-17.5-17.5c-.07341-.06629-.11738-.11746-.1875-.1875-.13344-.12915-.25584-.26714-.375-.40625-.19263-.2249-.34552-.47161-.5-.71875-.3233-.51723-.5644-1.07256-.71875-1.65625zm51.96875.125c-.13401.49924-.32573.97829-.59375 1.4375-1.07208 1.83684-3.0609 2.96758-5.1875 2.9375h-26.1875l3 3h23.1875c2.1266.03008 4.11542-1.10066 5.1875-2.9375.79871-1.36846.98513-2.94818.59375-4.4375zm6.5 14.3125c-.51203 2.04916.06811 4.22269 1.59375 5.6875l4.625 4.625h3l-7.625-7.625c-.78504-.75374-1.32547-1.67123-1.59375-2.6875zm-22.78125 17.71875c-.39122 1.48919-.17363 3.06917.625 4.4375 1.07208 1.83685 3.06089 2.96757 5.1875 2.9375h23.1875l3-3h-26.1875c-2.12661.03007-4.11542-1.10065-5.1875-2.9375-.26802-.45921-.49099-.93826-.625-1.4375zm52 .09375c-.06051.22667-.1289.43415-.21875.65625-.43562 1.07681-1.18392 1.98559-2.09375 2.625l-.09375.0625-16.875 16.906246c-1.06992 1.09501-2.53216 1.73866-4.0625 1.78125-2.42599.06653-4.64698-1.35914-5.59375-3.59375-.10914-.2576-.17955-.51588-.25-.781246-.32816 1.241076-.27176 2.549776.25 3.781246.94677 2.23461 3.16776 3.66028 5.59375 3.59375 1.53034-.04259 2.99258-.68624 4.0625-1.78125l16.875-16.906246.09375-.0625c.90983-.63941 1.65813-1.54819 2.09375-2.625.48316-1.19432.53523-2.46873.21875-3.65625z" clip-path="url(#x)" filter="url(#y)" transform="translate(95.577598)"/>
    </g>
  </g>
</svg>