<?xml version="1.0" encoding="UTF-8" standalone="no"?>
<!-- Created with Inkscape (http://www.inkscape.org/) -->
<svg height="128" width="128" xmlns="http://www.w3.org/2000/svg" xmlns:xlink="http://www.w3.org/1999/xlink">
  <defs>
    <linearGradient id="linearGradient2990">
      <stop offset="0" stop-color="#ccc"/>
      <stop offset="1" stop-color="#f1f1f1"/>
    </linearGradient>
    <linearGradient id="linearGradient6674">
      <stop offset="0" stop-color="#4f5e6f"/>
      <stop offset="1" stop-color="#888" stop-opacity="0"/>
    </linearGradient>
    <linearGradient id="linearGradient6446">
      <stop offset="0" stop-color="#fff"/>
      <stop offset="1" stop-color="#fff" stop-opacity="0"/>
    </linearGradient>
    <radialGradient id="radialGradient9692" cx="-63.99999971388" cy="91.78952376597" gradientUnits="userSpaceOnUse" r="50.60662935693" spreadMethod="pad">
      <stop offset="0" stop-color="#c7e0ec"/>
      <stop offset="1" stop-color="#677c91"/>
    </radialGradient>
    <linearGradient id="linearGradient6410" gradientUnits="userSpaceOnUse" x1="39.741936" x2="11.458064" y1="113.54839" y2="13.006452">
      <stop offset="0" stop-color="#3b3b3b"/>
      <stop offset="1" stop-color="#1a2226"/>
    </linearGradient>
    <linearGradient id="linearGradient6452" gradientUnits="userSpaceOnUse" spreadMethod="reflect" x1="13.507897" x2="7.602036" xlink:href="#linearGradient6446" y1="13.721349" y2="19.627209"/>
    <filter id="filter6458">
      <feGaussianBlur stdDeviation=".28444187"/>
    </filter>
    <linearGradient id="linearGradient6464" gradientUnits="userSpaceOnUse" spreadMethod="reflect" x1="21.507897" x2="15.539791" xlink:href="#linearGradient6446" y1="21.721349" y2="27.689454"/>
    <linearGradient id="linearGradient6470" gradientUnits="userSpaceOnUse" spreadMethod="reflect" x1="21.507897" x2="14.373943" xlink:href="#linearGradient6446" y1="21.721349" y2="28.855302"/>
    <linearGradient id="linearGradient6637" gradientUnits="userSpaceOnUse" x1="55.329033" x2="55.329033" y1="112" y2="74.913147">
      <stop offset="0" stop-color="#006270"/>
      <stop offset="1" stop-color="#008fbf" stop-opacity="0"/>
    </linearGradient>
    <linearGradient id="linearGradient6649" gradientUnits="userSpaceOnUse" x1="62.038712" x2="62.038712" y1="15.91371" y2="50.728985">
      <stop offset="0" stop-color="#88bcdd"/>
      <stop offset="1" stop-color="#bfdfff" stop-opacity="0"/>
    </linearGradient>
    <linearGradient id="linearGradient6680" gradientUnits="userSpaceOnUse" x1="19.096775" x2="80.047699" xlink:href="#linearGradient6674" y1="50.580647" y2="66.897575"/>
    <linearGradient id="linearGradient2816" gradientUnits="userSpaceOnUse" x1="60" x2="60" xlink:href="#linearGradient6446" y1="-4" y2="80"/>
    <linearGradient id="linearGradient3231" gradientUnits="userSpaceOnUse" x1="59.48817" x2="59.48817" xlink:href="#linearGradient6446" y1="8.897322" y2="47.228859"/>
    <linearGradient id="linearGradient3233" gradientUnits="userSpaceOnUse" x1="116.000003" x2="31.609901" xlink:href="#linearGradient6446" y1="73.000002" y2="22.946344"/>
    <linearGradient id="linearGradient3243" gradientUnits="userSpaceOnUse" x1="-60.945251" x2="-59.415245" y1="105.83054" y2="45.631207">
      <stop offset="0" stop-color="#b3f6ff"/>
      <stop offset="1" stop-color="#fff" stop-opacity="0"/>
    </linearGradient>
    <filter id="filter3281">
      <feGaussianBlur stdDeviation=".32872878"/>
    </filter>
    <linearGradient id="linearGradient3289" gradientUnits="userSpaceOnUse" x1="60.402065" x2="60.402065" xlink:href="#linearGradient6674" y1="64.076149" y2="-20.962214"/>
    <filter id="filter3319">
      <feGaussianBlur stdDeviation="1.6179775"/>
    </filter>
    <filter id="filter3061">
      <feGaussianBlur stdDeviation=".50858531"/>
    </filter>
    <filter id="filter3065">
      <feGaussianBlur stdDeviation=".33902042"/>
    </filter>
    <clipPath id="clipPath3069">
      <path d="m-261.47983 26.44375c-4.12983.068921-7.42679 3.463673-7.375 7.59375v11.90625l-8.40625-8.40625c-1.41542-1.451349-3.37899-2.25416-5.40625-2.25-2.02727.00417-3.96556.79284-5.375 2.25-2.8715 2.968969-2.80078 7.709963.15625 10.59375l8.4375 8.4375h-11.90625c-2.70477-.038251-5.2302 1.382519-6.59375 3.71875s-1.36355 5.226268 0 7.5625c1.36355 2.33623 3.88898 3.757002 6.59375 3.71875h11.90625l-8.40625 8.40625c-1.93961 1.885513-2.71904 4.66511-2.03125 7.28125.68779 2.616143 2.72761 4.65596 5.34375 5.34375 2.61614.687787 5.39573-.09164 7.28125-2.03125l8.40625-8.40625v11.875c-.03826 2.704765 1.38251 5.230204 3.71875 6.59375 2.33623 1.36355 5.22626 1.36355 7.5625 0 2.33623-1.363546 3.757-3.888981 3.71875-6.59375v-11.875l8.40625 8.40625c1.88551 1.939609 4.66511 2.71904 7.28125 2.03125 2.61613-.687785 4.65596-2.727609 5.34375-5.34375.68779-2.616137-.09164-5.426987-2.03125-7.3125l-8.375-8.375h11.875c2.02711.025414 3.97569-.78231 5.40625-2.21875 1.43055-1.436445 2.22124-3.379256 2.1875-5.40625-.06893-4.129826-3.46368-7.426787-7.59375-7.375h-11.90625l8.4375-8.4375c1.45135-1.415412 2.25416-3.34773 2.25-5.375-.00418-2.027274-.82409-3.965557-2.28125-5.375-2.96897-2.871493-7.70997-2.800775-10.59375.15625l-8.40625 8.40625v-11.90625c.02541-2.027115-.78231-3.975697-2.21875-5.40625-1.43645-1.430554-3.37926-2.221241-5.40625-2.1875z"/>
    </clipPath>
    <radialGradient cx="64" cy="81.325775" fx="66.881805" fy="105.27442" gradientTransform="matrix(.712348 -.1260581 .1345724 .7604617 -317.89381 20.274132)" gradientUnits="userSpaceOnUse" r="43.474762" spreadMethod="reflect" xlink:href="#linearGradient2990"/>
    <clipPath id="clipPath3075">
      <path d="m-177.59282 26.44375c-4.12983.068921-7.42679 3.463673-7.375 7.59375v11.90625l-8.40625-8.40625c-1.41542-1.451349-3.37899-2.25416-5.40625-2.25-2.02727.00417-3.96556.79284-5.375 2.25-2.8715 2.968969-2.80078 7.709963.15625 10.59375l8.4375 8.4375h-11.90625c-2.70477-.038251-5.2302 1.382519-6.59375 3.71875s-1.36355 5.226268 0 7.5625c1.36355 2.33623 3.88898 3.757002 6.59375 3.71875h11.90625l-8.40625 8.40625c-1.93961 1.885513-2.71904 4.66511-2.03125 7.28125.68779 2.616143 2.72761 4.65596 5.34375 5.34375 2.61614.687787 5.39573-.09164 7.28125-2.03125l8.40625-8.40625v11.875c-.03826 2.704765 1.38251 5.230204 3.71875 6.59375 2.33623 1.36355 5.22626 1.36355 7.5625 0 2.33623-1.363546 3.757-3.888981 3.71875-6.59375v-11.875l8.40625 8.40625c1.88551 1.939609 4.66511 2.71904 7.28125 2.03125 2.61613-.687785 4.65596-2.727609 5.34375-5.34375.68779-2.616137-.09164-5.426987-2.03125-7.3125l-8.375-8.375h11.875c2.02711.025414 3.97569-.78231 5.40625-2.21875 1.43055-1.436445 2.22124-3.379256 2.1875-5.40625-.06893-4.129826-3.46368-7.426787-7.59375-7.375h-11.90625l8.4375-8.4375c1.45135-1.415412 2.25416-3.34773 2.25-5.375-.00418-2.027274-.82409-3.965557-2.28125-5.375-2.96897-2.871493-7.70997-2.800775-10.59375.15625l-8.40625 8.40625v-11.90625c.02541-2.027115-.78231-3.975697-2.21875-5.40625-1.43645-1.430554-3.37926-2.221241-5.40625-2.1875z"/>
    </clipPath>
    <radialGradient cx="64" cy="81.325775" fx="66.881805" fy="105.27442" gradientTransform="matrix(.712348 -.1260581 .1345724 .7604617 -234.0068 20.274132)" gradientUnits="userSpaceOnUse" r="43.474762" spreadMethod="reflect" xlink:href="#linearGradient2990"/>
    <radialGradient id="radialGradient3091" cx="68.156364" cy="59.277508" fx="71.03817" fy="83.226151" gradientTransform="matrix(.712348 -.1260581 .1345724 .7604617 -136.22707 20.274132)" gradientUnits="userSpaceOnUse" r="43.474762" spreadMethod="reflect" xlink:href="#linearGradient2990"/>
  </defs>
  <g>
    <path d="m18.083601 8h91.832799c5.58631 0 10.0836 4.497286 10.0836 10.083601v91.832799c0 5.58631-4.49729 10.0836-10.0836 10.0836h-91.832799c-5.586315 0-10.083601-4.49729-10.083601-10.0836v-91.832799c0-5.586315 4.497286-10.083601 10.083601-10.083601z" fill="url(#linearGradient3289)" filter="url(#filter3319)"/>
    <path d="m18.083601 8h91.832799c5.58631 0 10.0836 4.497286 10.0836 10.083601v91.832799c0 5.58631-4.49729 10.0836-10.0836 10.0836h-91.832799c-5.586315 0-10.083601-4.49729-10.083601-10.0836v-91.832799c0-5.586315 4.497286-10.083601 10.083601-10.083601z" fill="url(#linearGradient6410)"/>
    <path d="m18.083601 8h91.832799c5.58631 0 10.0836 4.497286 10.0836 10.083601v91.832799c0 5.58631-4.49729 10.0836-10.0836 10.0836h-91.832799c-5.586315 0-10.083601-4.49729-10.083601-10.0836v-91.832799c0-5.586315 4.497286-10.083601 10.083601-10.083601z" fill="url(#linearGradient6680)" opacity=".082902"/>
    <path d="m-109.38386 12.614708h89.767721c3.878793 0 7.001431 3.122638 7.001431 7.001431v88.767721c0 3.87879-3.122638 7.00143-7.001431 7.00143h-89.767721c-3.87879 0-7.00143-3.12264-7.00143-7.00143v-88.767721c0-3.878793 3.12264-7.001431 7.00143-7.001431z" fill="url(#radialGradient9692)" transform="scale(-1 1)"/>
    <path d="m17.906944 8.299378c-4.690175 0-9.397509 3.568001-9.397509 9.39874l4.267305-.058913c.452373-2.129835 2.851964-4.270962 4.526605-4.603385z" fill="url(#linearGradient6452)" filter="url(#filter6458)" opacity=".887641"/>
    <path d="m25.397509 16.46919c-4.690175 0-8.967908 3.654709-8.967908 9.485448l4.347139-.315433c.452373-2.129835 2.851964-4.270962 4.526605-4.603385z" fill="url(#linearGradient6464)" filter="url(#filter6458)" opacity=".868914" transform="matrix(-1 0 0 1 135.86741 -8)"/>
    <path d="m8 105.875v4.03125c0 5.58631 4.507435 10.09375 10.09375 10.09375h91.8125c5.58631 0 10.09375-4.50743 10.09375-10.09375v-4.03125c0 5.58631-4.50744 10.09375-10.09375 10.09375h-91.8125c-5.586315 0-10.09375-4.50744-10.09375-10.09375z" fill="url(#linearGradient6637)" opacity=".082902"/>
    <path d="m26.246568 16.978625c-4.690175 0-9.477343 3.654709-9.477343 9.485448l4.007515-.824868c.452373-2.129835 2.851964-4.270962 4.526605-4.603385z" fill="url(#linearGradient6470)" filter="url(#filter6458)" opacity=".326425" transform="matrix(1 0 0 -1 -8 136.08786)"/>
    <path d="m26.246568 16.978625c-4.690175 0-9.477343 3.654709-9.477343 9.485448l4.007515-.824868c.452373-2.129835 2.851964-4.270962 4.526605-4.603385z" fill="url(#linearGradient6470)" filter="url(#filter6458)" opacity=".176166" transform="matrix(-1 0 0 -1 135.86741 136.08786)"/>
    <path d="m8 22.03871v-4.03125c0-5.58631 4.507435-10.09375 10.09375-10.09375h91.8125c5.58631 0 10.09375 4.50743 10.09375 10.09375v4.03125c0-5.58631-4.50744-10.09375-10.09375-10.09375h-91.8125c-5.586315 0-10.09375 4.50744-10.09375 10.09375z" fill="url(#linearGradient6649)" opacity=".388601"/>
    <g transform="translate(0 -1)">
      <path d="m19.441303 13.28125c-3.990225 0-7.1875 3.197275-7.1875 7.1875v1c0-3.990225 3.197275-7.1875 7.1875-7.1875h89.624997c3.99023 0 7.1875 3.197275 7.1875 7.1875v-1c0-3.990225-3.19727-7.1875-7.1875-7.1875z" fill="url(#linearGradient3231)"/>
      <path d="m112.21077 14.946344c1.59536 1.314795 2.625 3.286748 2.625 5.53125v34.5c-.19337.328038-.43674.667319-.71875 1-27.247777 10.486527-73.312207 13.488327-101.874997 6.625v.5625c28.98107 7.306633 75.58549 4.377686 103.281247-6.28125.28202-.332683.52538-.671962.71875-1v-34.5c0-2.853011-1.64104-5.274084-4.03125-6.4375z" fill="url(#linearGradient3233)"/>
    </g>
    <path d="m-109.38386 13.614708h89.767721c3.878793 0 7.001431 3.122638 7.001431 7.001431v87.767721c0 3.87879-3.122638 7.00143-7.001431 7.00143h-89.767721c-3.87879 0-7.00143-3.12264-7.00143-7.00143v-87.767721c0-3.878793 3.12264-7.001431 7.00143-7.001431z" fill="none" filter="url(#filter3281)" stroke="url(#linearGradient3243)" stroke-linecap="round" stroke-linejoin="round" transform="scale(-1 1)"/>
    <path d="m19.1875 12.28125c-3.990225 0-7.1875 3.197275-7.1875 7.1875v41.78125c28.981077 7.306633 75.585499 4.377686 103.28125-6.28125.28202-.332683.52538-.671962.71875-1v-34.5c0-3.990225-3.19727-7.1875-7.1875-7.1875z" fill="url(#linearGradient2816)"/>
    <g transform="translate(143.69099 -.048312)">
      <path d="m-79.81309 26.44375c-4.129826.068921-7.426787 3.463673-7.375 7.59375v11.90625l-8.40625-8.40625c-1.415413-1.451349-3.378982-2.25416-5.40625-2.25-2.02727.00417-3.96556.79284-5.375 2.25-2.8715 2.968969-2.80078 7.709963.15625 10.59375l8.4375 8.4375h-11.90625c-2.70477-.038251-5.2302 1.382519-6.59375 3.71875s-1.36355 5.226268 0 7.5625c1.36355 2.33623 3.88898 3.757002 6.59375 3.71875h11.90625l-8.40625 8.40625c-1.93961 1.885513-2.71904 4.66511-2.03125 7.28125.68779 2.616143 2.72761 4.65596 5.34375 5.34375 2.61614.687787 5.395737-.09164 7.28125-2.03125l8.40625-8.40625v11.875c-.038251 2.704765 1.382519 5.230204 3.71875 6.59375 2.336231 1.36355 5.226268 1.36355 7.5625 0 2.336234-1.363546 3.757002-3.888981 3.71875-6.59375v-11.875l8.40625 8.40625c1.885512 1.939609 4.66511 2.71904 7.28125 2.03125 2.616138-.687785 4.65596-2.727609 5.34375-5.34375.68779-2.616137-.09164-5.426987-2.03125-7.3125l-8.375-8.375h11.875c2.027114.025414 3.975697-.78231 5.40625-2.21875 1.430553-1.436445 2.221241-3.379256 2.1875-5.40625-.068922-4.129826-3.463673-7.426787-7.59375-7.375h-11.90625l8.4375-8.4375c1.451351-1.415412 2.25416-3.34773 2.25-5.375-.004171-2.027274-.82409-3.965557-2.28125-5.375-2.96897-2.871493-7.709963-2.800775-10.59375.15625l-8.40625 8.40625v-11.90625c.025418-2.027115-.78231-3.975697-2.21875-5.40625-1.436441-1.430554-3.379256-2.221241-5.40625-2.1875z" fill="url(#radialGradient3091)"/>
      <g transform="translate(97.796469)">
        <path clip-path="url(#clipPath3075)" d="m-177.59375 24.816152c-4.12983.06892-7.42679 3.46367-7.375 7.59375v3c-.05179-4.13008 3.24517-7.52483 7.375-7.59375 2.02699-.03374 3.9698.75695 5.40625 2.1875 1.43644 1.43055 2.24416 3.37913 2.21875 5.40625v-3c.02541-2.02712-.78231-3.9757-2.21875-5.40625-1.43645-1.43055-3.37926-2.22124-5.40625-2.1875zm21.3125 8.8125c-1.91684.02837-3.83936.80274-5.28125 2.28125l-8.40625 8.40625v3l8.40625-8.40625c2.88378-2.95703 7.62478-3.02774 10.59375-.15625 1.09287 1.05708 1.82433 2.40853 2.125 3.875.09736-.48836.15729-.99318.15625-1.5-.00418-2.02727-.82409-3.96556-2.28125-5.375-1.48449-1.43574-3.39566-2.15337-5.3125-2.125zm-42.5.03125c-2.02727.00417-3.96556.79284-5.375 2.25-1.77197 1.83211-2.39317 4.32739-1.9375 6.65625.28047-1.33769.91851-2.60268 1.9375-3.65625 1.40944-1.45716 3.34773-2.24583 5.375-2.25 2.02726-.00416 3.99083.79865 5.40625 2.25l8.40625 8.40625v-3l-8.40625-8.40625c-1.41542-1.45135-3.37899-2.25416-5.40625-2.25zm-8.6875 21.28125c-2.70477-.03825-5.2302 1.38252-6.59375 3.71875-.94539 1.61977-1.24054 3.49819-.875 5.28125.16111-.7936.45435-1.56054.875-2.28125 1.36355-2.33623 3.88898-3.757 6.59375-3.71875h13.60625l-3-3zm50.09375 0-3 3h12.90625c3.67017-.04602 6.74659 2.55384 7.4375 6.03125.11305-.53916.16559-1.09524.15625-1.65625-.06893-4.12983-3.46368-7.42679-7.59375-7.375zm-40.1875 17-6.40625 6.40625c-1.84172 1.79034-2.60694 4.37779-2.09375 6.875.2965-1.45504.99141-2.80341 2.09375-3.875l9.40625-9.40625zm37.21875 0 9.375 9.375c1.09559 1.06503 1.82507 2.42135 2.125 3.875.49848-2.48941-.29198-5.0931-2.125-6.875l-6.375-6.375z" fill="#292929" fill-opacity=".863905" filter="url(#filter3061)"/>
        <path clip-path="url(#clipPath3069)" d="m-232.71875 42.247884c-.29576 1.45402-1.01235 2.82038-2.09375 3.875l-10.4375 10.4375h3l7.4375-7.4375c1.45135-1.41541 2.25416-3.34773 2.25-5.375-.00105-.50682-.05603-1.01118-.15625-1.5zm-57.28125.03125c-.47058 2.40424.24309 5.00846 2.125 6.84375l6.4375 7.4375h3l-9.4375-10.4375c-1.10889-1.08142-1.83084-2.43138-2.125-3.84375zm-8.8125 21.28125c-.35619 1.7742-.06509 3.67055.875 5.28125 1.36355 2.33623 3.88898 3.75701 6.59375 3.71875h11.90625v-3h-11.90625c-2.70477.03826-5.2302-1.38252-6.59375-3.71875-.41816-.71645-.71331-1.49258-.875-2.28125zm74.90625 0c-.29177 1.42029-.98936 2.73506-2.03125 3.78125-1.43056 1.43644-3.37914 2.24417-5.40625 2.21875h-11.875v3h11.875c2.02711.02542 3.97569-.78231 5.40625-2.21875 1.43055-1.43644 2.22124-3.37925 2.1875-5.40625-.00771-.46216-.06886-.93722-.15625-1.375zm-44.9375 16.59375-8.40625 8.40625c-1.88552 1.93961-4.66511 2.71904-7.28125 2.03125s-4.65596-2.7276-5.34375-5.34375c-.0378-.14376-.06476-.29292-.09375-.4375-.23106 1.11317-.20554 2.29909.09375 3.4375.68779 2.61615 2.72761 4.65596 5.34375 5.34375s5.39573-.09164 7.28125-2.03125l8.40625-8.40625zm15 0v3l8.40625 8.40625c1.88551 1.93961 4.66511 2.71904 7.28125 2.03125 2.61613-.68778 4.65596-2.72761 5.34375-5.34375.2969-1.1293.2877-2.29447.0625-3.40625-.02728.13289-.02779.27421-.0625.40625-.68779 2.61614-2.72762 4.65597-5.34375 5.34375-2.61614.68779-5.39574-.09164-7.28125-2.03125zm-15 11.875v3c-.03826 2.70477 1.38251 5.230206 3.71875 6.593746 2.33623 1.36355 5.22626 1.36355 7.5625 0 2.33623-1.36354 3.757-3.888976 3.71875-6.593746v-3c.03825 2.70477-1.38252 5.23021-3.71875 6.59375-2.33624 1.363546-5.22627 1.363546-7.5625 0-2.33624-1.36354-3.75701-3.88898-3.71875-6.59375z" fill="#fff" filter="url(#filter3065)" transform="translate(83.866257)"/>
      </g>
    </g>
  </g>
</svg>
