<?xml version="1.0" encoding="UTF-8" standalone="no"?>
<!-- Created with Inkscape (http://www.inkscape.org/) -->
<svg height="128" width="128" xmlns="http://www.w3.org/2000/svg" xmlns:xlink="http://www.w3.org/1999/xlink">
  <defs>
    <linearGradient id="linearGradient3075">
      <stop offset="0" stop-color="#fff"/>
      <stop offset=".42597079" stop-color="#fff"/>
      <stop offset=".5892781" stop-color="#f1f1f1"/>
      <stop offset=".80219781" stop-color="#eaeaea"/>
      <stop offset="1" stop-color="#dfdfdf"/>
    </linearGradient>
    <linearGradient id="linearGradient2047" gradientUnits="userSpaceOnUse" x1="55.540302" x2="53.016724" xlink:href="#linearGradient3075" y1="223.09319" y2="64.745628"/>
    <linearGradient id="linearGradient2968" gradientTransform="matrix(-1 0 0 1 128 -16)" gradientUnits="userSpaceOnUse" x1="55.540302" x2="53.016724" xlink:href="#linearGradient3075" y1="199.09319" y2="40.745628"/>
  </defs>
  <g>
    <g fill-rule="evenodd">
      <path d="m48.21875 8c4.309895 0 7.78125 3.471355 7.78125 7.78125v8.21875h48v56h-96v-64.21875c0-4.309895 3.47135-7.78125 7.78125-7.78125z" style="opacity:.1;stroke:#000;stroke-width:8;stroke-linecap:round;stroke-linejoin:round;fill:url(#linearGradient2968)"/>
      <path d="m48.21875 8c4.309895 0 7.78125 3.471355 7.78125 7.78125v8.21875h48v56h-96v-64.21875c0-4.309895 3.47135-7.78125 7.78125-7.78125z" style="opacity:.15;stroke:#000;stroke-width:6;stroke-linecap:round;stroke-linejoin:round;fill:url(#linearGradient2968)"/>
      <path d="m48.21875 8c4.309895 0 7.78125 3.471355 7.78125 7.78125v8.21875h48v56h-96v-64.21875c0-4.309895 3.47135-7.78125 7.78125-7.78125z" style="opacity:.2;stroke:#000;stroke-width:4;stroke-linecap:round;stroke-linejoin:round;fill:url(#linearGradient2968)"/>
      <path d="m48.21875 8c4.309895 0 7.78125 3.471355 7.78125 7.78125v8.21875h48v56h-96v-64.21875c0-4.309895 3.47135-7.78125 7.78125-7.78125z" style="opacity:.25;stroke:#000;stroke-width:2;stroke-linecap:round;stroke-linejoin:round;fill:url(#linearGradient2968)"/>
      <path d="m48.21875 8c4.309895 0 7.78125 3.471355 7.78125 7.78125v8.21875h48v56h-96v-64.21875c0-4.309895 3.47135-7.78125 7.78125-7.78125z" fill="url(#linearGradient2968)"/>
      <path d="m48.21875 8c4.309895 0 7.78125 3.471355 7.78125 7.78125v8.21875h48v56h-96v-64.21875c0-4.309895 3.47135-7.78125 7.78125-7.78125zm0 4h-32.4375c-2.16207 0-3.78125 1.619188-3.78125 3.78125v60.21875h88v-48h-44-4v-4-8.21875c0-2.162059-1.619191-3.78125-3.78125-3.78125z" fill="#fff"/>
    </g>
    <path d="m48 16v16h48v40h-80v-56z" fill="#fff" opacity=".53"/>
    <path d="m50.892799 3.2812959v-2.79470843z" fill="#fff" fill-opacity=".756881"/>
    <path d="m-106.1155-66.353804v-2.794709z" fill="#fff" fill-opacity=".756881"/>
    <path d="m-225.6177-152.98405v-2.79471z" fill="#fff" fill-opacity=".756881"/>
    <g transform="translate(-42.6661 -8.40242)"/>
    <g transform="translate(-42.6661 -8.40242)"/>
    <path d="m20.9737-87.228784v-2.794709z" fill="#fff" fill-opacity=".756881"/>
    <path d="m-71.650746-13.335104v-1.526736z" fill="#fff" fill-opacity=".756881"/>
    <path d="m-323.19972-170.67877v-2.79471z" fill="#fff" fill-opacity=".756881"/>
    <g opacity=".401639" transform="matrix(-.782995 0 0 .650879 -2646.058 515.8389)"/>
    <g opacity=".401639" transform="matrix(-.782995 0 0 .650879 -2646.058 515.8389)"/>
    <g opacity=".401639" transform="matrix(1 0 0 .650879 554.9047 523.1667)"/>
    <g opacity=".401639" transform="matrix(1 0 0 .650879 554.9047 523.1667)"/>
    <path d="m-133.1072-133.0699v-2.79471z" fill="#fff" fill-opacity=".756881"/>
    <path d="m-290.1155-202.705v-2.79471z" fill="#fff" fill-opacity=".756881"/>
    <path d="m-409.6177-289.33525v-2.79471z" fill="#fff" fill-opacity=".756881"/>
    <g transform="translate(-226.6661 -144.7536)"/>
    <g transform="translate(-226.6661 -144.7536)"/>
    <path d="m-163.0263-223.57998v-2.79471z" fill="#fff" fill-opacity=".756881"/>
    <path d="m-255.65075-149.6863v-1.52674z" fill="#fff" fill-opacity=".756881"/>
    <path d="m-507.19972-307.02997v-2.79471z" fill="#fff" fill-opacity=".756881"/>
    <g opacity=".401639" transform="matrix(-.782995 0 0 .650879 -2830.058 379.4877)"/>
    <g opacity=".401639" transform="matrix(-.782995 0 0 .650879 -2830.058 379.4877)"/>
    <g opacity=".401639" transform="matrix(1 0 0 .650879 370.9047 386.8155)"/>
    <g opacity=".401639" transform="matrix(1 0 0 .650879 370.9047 386.8155)"/>
    <path d="m-48.88403-238.2613v-2.79471z" fill="#fff" fill-opacity=".756881"/>
    <path d="m-168.38623-324.89155v-2.79471z" fill="#fff" fill-opacity=".756881"/>
    <g transform="translate(14.5654 -180.3099)"/>
    <g transform="translate(14.5654 -180.3099)"/>
    <path d="m78.20517-259.13628v-2.79471z" fill="#fff" fill-opacity=".756881"/>
    <path d="m-14.41928-185.2426v-1.52674z" fill="#fff" fill-opacity=".756881"/>
    <path d="m-265.96825-342.58627v-2.79471z" fill="#fff" fill-opacity=".756881"/>
    <g opacity=".401639" transform="matrix(-.782995 0 0 .650879 -2588.827 343.9314)"/>
    <g opacity=".401639" transform="matrix(-.782995 0 0 .650879 -2588.827 343.9314)"/>
    <g opacity=".401639" transform="matrix(1 0 0 .650879 612.1362 351.2592)"/>
    <g opacity=".401639" transform="matrix(1 0 0 .650879 612.1362 351.2592)"/>
    <path d="m249.8028-196.4862v-2.79471z" fill="#fff" fill-opacity=".756881"/>
    <path d="m92.7945-266.1213v-2.79471z" fill="#fff" fill-opacity=".756881"/>
    <path d="m-26.7077-352.75155v-2.79471z" fill="#fff" fill-opacity=".756881"/>
    <g transform="translate(156.2439 -208.1699)"/>
    <g transform="translate(156.2439 -208.1699)"/>
    <path d="m219.8837-286.99628v-2.79471z" fill="#fff" fill-opacity=".756881"/>
    <path d="m127.25925-213.1026v-1.52674z" fill="#fff" fill-opacity=".756881"/>
    <path d="m-124.28972-370.44627v-2.79471z" fill="#fff" fill-opacity=".756881"/>
    <g opacity=".401639" transform="matrix(-.782995 0 0 .650879 -2447.148 316.0714)"/>
    <g opacity=".401639" transform="matrix(-.782995 0 0 .650879 -2447.148 316.0714)"/>
    <g opacity=".401639" transform="matrix(1 0 0 .650879 753.8147 323.3992)"/>
    <g opacity=".401639" transform="matrix(1 0 0 .650879 753.8147 323.3992)"/>
    <path d="m334.02597-301.6776v-2.79471z" fill="#fff" fill-opacity=".756881"/>
    <path d="m214.52377-388.30785v-2.79471z" fill="#fff" fill-opacity=".756881"/>
    <g transform="translate(397.4754 -243.7262)"/>
    <g transform="translate(397.4754 -243.7262)"/>
    <path d="m461.11517-322.55258v-2.79471z" fill="#fff" fill-opacity=".756881"/>
    <path d="m368.49072-248.6589v-1.52674z" fill="#fff" fill-opacity=".756881"/>
    <path d="m116.94175-406.00257v-2.79471z" fill="#fff" fill-opacity=".756881"/>
    <g opacity=".401639" transform="matrix(-.782995 0 0 .650879 -2205.917 280.5151)"/>
    <g opacity=".401639" transform="matrix(-.782995 0 0 .650879 -2205.917 280.5151)"/>
    <g opacity=".401639" transform="matrix(1 0 0 .650879 995.0462 287.8429)"/>
    <g opacity=".401639" transform="matrix(1 0 0 .650879 995.0462 287.8429)"/>
    <path d="m79.78125 48c-4.309895 0-7.78125 3.471355-7.78125 7.78125v8.21875h-48v56h96v-64.21875c0-4.309895-3.47135-7.78125-7.78125-7.78125z" style="opacity:.1;fill-rule:evenodd;stroke:#000;stroke-width:8;stroke-linecap:round;stroke-linejoin:round;fill:url(#linearGradient2047)"/>
    <path d="m79.78125 48c-4.309895 0-7.78125 3.471355-7.78125 7.78125v8.21875h-48v56h96v-64.21875c0-4.309895-3.47135-7.78125-7.78125-7.78125z" style="opacity:.15;fill-rule:evenodd;stroke:#000;stroke-width:6;stroke-linecap:round;stroke-linejoin:round;fill:url(#linearGradient2047)"/>
    <path d="m79.78125 48c-4.309895 0-7.78125 3.471355-7.78125 7.78125v8.21875h-48v56h96v-64.21875c0-4.309895-3.47135-7.78125-7.78125-7.78125z" style="opacity:.2;fill-rule:evenodd;stroke:#000;stroke-width:4;stroke-linecap:round;stroke-linejoin:round;fill:url(#linearGradient2047)"/>
    <path d="m79.78125 48c-4.309895 0-7.78125 3.471355-7.78125 7.78125v8.21875h-48v56h96v-64.21875c0-4.309895-3.47135-7.78125-7.78125-7.78125z" style="opacity:.25;fill-rule:evenodd;stroke:#000;stroke-width:2;stroke-linecap:round;stroke-linejoin:round;fill:url(#linearGradient2047)"/>
    <path d="m79.78125 48c-4.309895 0-7.78125 3.471355-7.78125 7.78125v8.21875h-48v56h96v-64.21875c0-4.309895-3.47135-7.78125-7.78125-7.78125z" fill="url(#linearGradient2047)" fill-rule="evenodd"/>
    <path d="m79.78125 48c-4.309895 0-7.78125 3.471355-7.78125 7.78125v8.21875h-48v56h96v-64.21875c0-4.309895-3.47135-7.78125-7.78125-7.78125zm0 4h32.4375c2.16207 0 3.78125 1.619188 3.78125 3.78125v60.21875h-88v-48h44 4v-4-8.21875c0-2.162059 1.619191-3.78125 3.78125-3.78125z" fill="#fff" fill-rule="evenodd"/>
    <path d="m80 56v16h-48v40h80v-56z" fill="#fff" opacity=".84"/>
  </g>
</svg>
