<?xml version="1.0" encoding="UTF-8" standalone="no"?>
<svg xmlns="http://www.w3.org/2000/svg" xmlns:xlink="http://www.w3.org/1999/xlink" xml:space="preserve" width="128" height="128" overflow="visible">
  <defs>
    <linearGradient id="a">
      <stop offset="0" stop-color="#fff"/>
      <stop offset=".25" stop-color="#fff" stop-opacity=".44927537"/>
      <stop offset=".45480227" stop-color="#fff" stop-opacity=".69803922"/>
      <stop offset=".5" stop-color="#fff" stop-opacity=".942029"/>
      <stop offset="1" stop-color="#fff" stop-opacity="0"/>
    </linearGradient>
    <linearGradient xlink:href="#a" id="f" x1="-19.342056" x2="152.20572" y1="-36.226715" y2="93.202377" gradientTransform="translate(-8.622255 35.27959) scale(.76106)" gradientUnits="userSpaceOnUse"/>
    <linearGradient xlink:href="#a" id="h" x1="-19.342056" x2="152.20572" y1="-36.226715" y2="93.202377" gradientTransform="translate(-8.622255 35.27959) scale(.76106)" gradientUnits="userSpaceOnUse"/>
    <linearGradient xlink:href="#a" id="d" x1="-19.342056" x2="152.20572" y1="-36.226715" y2="93.202377" gradientTransform="translate(-8.622255 35.27959) scale(.76106)" gradientUnits="userSpaceOnUse"/>
    <radialGradient xlink:href="#b" id="e" cx="11.026738" cy="7.9994998" r="156.984" fx="11.026738" fy="7.9994998" gradientTransform="matrix(.74005 -.17759 .17759 .74005 -.87971 35.64337)" gradientUnits="userSpaceOnUse"/>
    <radialGradient xlink:href="#b" id="g" cx="11.026738" cy="7.9994998" r="156.984" fx="11.026738" fy="7.9994998" gradientTransform="matrix(.74005 -.17759 .17759 .74005 -.87971 35.64337)" gradientUnits="userSpaceOnUse"/>
    <radialGradient xlink:href="#b" id="c" cx="11.026738" cy="7.9994998" r="156.984" fx="11.026738" fy="7.9994998" gradientTransform="matrix(.74005 -.17759 .17759 .74005 -.87971 35.64337)" gradientUnits="userSpaceOnUse"/>
  </defs>
  <radialGradient id="b" cx="11.026738" cy="7.9994998" r="156.984" fx="11.026738" fy="7.9994998" gradientUnits="userSpaceOnUse">
    <stop offset=".0765" stop-color="#ffce05"/>
    <stop offset=".18870001" stop-color="#f9d940"/>
    <stop offset=".3467" stop-color="#fde446"/>
    <stop offset=".4294" stop-color="#ffeb55"/>
    <stop offset=".6882" stop-color="#ffeb55"/>
    <stop offset=".7281" stop-color="#fee951"/>
    <stop offset=".7641" stop-color="#fde446"/>
    <stop offset=".7987" stop-color="#fadb34"/>
    <stop offset=".8322" stop-color="#f7cf1a"/>
    <stop offset=".8588" stop-color="#f3c300"/>
    <stop offset=".9208" stop-color="#fbd400"/>
    <stop offset=".9706" stop-color="#fd0"/>
  </radialGradient>
  <g transform="matrix(.61664 .30728 -.3067 .64206 21.59063 -20.75843)">
    <path fill="#323232" d="M7.958868 37.501944c-1.6325525.391759-2.6416111 2.038003-2.249852 3.670556l19.889856 82.88571c.391759 1.63255 2.038003 2.64161 3.670556 2.24985l82.885712-19.88985c1.63255-.39176 2.64161-2.03801 2.24985-3.67056L94.515136 19.86194c-.391759-1.632553-2.038003-2.641611-3.670556-2.249852L7.958868 37.501944z" opacity=".15"/>
    <path fill="#323232" d="M8.136456 38.241995c-1.2240444.293731-1.9811196 1.528873-1.687389 2.752917l19.889856 82.885708c.293731 1.22405 1.528873 1.98112 2.752917 1.68739l82.88571-19.88985c1.22405-.29373 1.98112-1.52888 1.68739-2.75292L93.775085 20.039528c-.293731-1.224044-1.528873-1.98112-2.752917-1.687389L8.136456 38.241995z" opacity=".2"/>
    <path fill="#323232" d="M8.314044 38.982046c-.8162763.19588-1.3208056 1.019002-1.124926 1.835278l19.889856 82.885716c.19588.81627 1.019002 1.3208 1.835278 1.12492l82.885708-19.88985c.81628-.19588 1.32081-1.01901 1.12493-1.83528L93.035034 20.217116c-.19588-.816276-1.019002-1.320806-1.835278-1.124926L8.314044 38.982046z" opacity=".25"/>
    <path fill="#323232" d="M8.491632 39.722097c-.4085082.098029-.6604916.509131-.562463.917639l19.889856 82.885714c.098206.40925.509131.66049.917639.56246l82.885716-19.88986c.40924-.0982.66067-.50839.56246-.91763L92.294983 20.394704c-.098029-.408508-.508391-.660669-.917639-.562463L8.491632 39.722097z" opacity=".3"/>
    <path fill="url(#c)" d="m107.43214 82.571529 2.92976 18.732121-19.147441 7.72542-64.508025 15.47982L6.1810419 38.937029 91.952145 18.062763l15.479995 64.508766z"/>
    <path fill="url(#d)" d="M-3.2568481 39.282223h88.185265V53.17725h-88.185265z" opacity=".86885244" transform="rotate(-13.494)"/>
  </g>
  <g transform="matrix(.68066 -.10666 .12185 .70105 38.70036 18.4796)">
    <path fill="#323232" d="M7.958868 37.501944c-1.6325525.391759-2.6416111 2.038003-2.249852 3.670556l19.889856 82.88571c.391759 1.63255 2.038003 2.64161 3.670556 2.24985l82.885712-19.88985c1.63255-.39176 2.64161-2.03801 2.24985-3.67056L94.515136 19.86194c-.391759-1.632553-2.038003-2.641611-3.670556-2.249852L7.958868 37.501944z" opacity=".15"/>
    <path fill="#323232" d="M8.136456 38.241995c-1.2240444.293731-1.9811196 1.528873-1.687389 2.752917l19.889856 82.885708c.293731 1.22405 1.528873 1.98112 2.752917 1.68739l82.88571-19.88985c1.22405-.29373 1.98112-1.52888 1.68739-2.75292L93.775085 20.039528c-.293731-1.224044-1.528873-1.98112-2.752917-1.687389L8.136456 38.241995z" opacity=".2"/>
    <path fill="#323232" d="M8.314044 38.982046c-.8162763.19588-1.3208056 1.019002-1.124926 1.835278l19.889856 82.885716c.19588.81627 1.019002 1.3208 1.835278 1.12492l82.885708-19.88985c.81628-.19588 1.32081-1.01901 1.12493-1.83528L93.035034 20.217116c-.19588-.816276-1.019002-1.320806-1.835278-1.124926L8.314044 38.982046z" opacity=".25"/>
    <path fill="#323232" d="M8.491632 39.722097c-.4085082.098029-.6604916.509131-.562463.917639l19.889856 82.885714c.098206.40925.509131.66049.917639.56246l82.885716-19.88986c.40924-.0982.66067-.50839.56246-.91763L92.294983 20.394704c-.098029-.408508-.508391-.660669-.917639-.562463L8.491632 39.722097z" opacity=".3"/>
    <path fill="url(#e)" d="m107.43214 82.571529 2.92976 18.732121-19.147441 7.72542-64.508025 15.47982L6.1810419 38.937029 91.952145 18.062763l15.479995 64.508766z"/>
    <path fill="url(#f)" d="M-3.2568481 39.282223h88.185265V53.17725h-88.185265z" opacity=".86885244" transform="rotate(-13.494)"/>
  </g>
  <g transform="matrix(.77826 .1961 -.18911 .80704 29.90097 17.25701)">
    <path fill="#323232" d="M7.958868 37.501944c-1.6325525.391759-2.6416111 2.038003-2.249852 3.670556l19.889856 82.88571c.391759 1.63255 2.038003 2.64161 3.670556 2.24985l82.885712-19.88985c1.63255-.39176 2.64161-2.03801 2.24985-3.67056L94.515136 19.86194c-.391759-1.632553-2.038003-2.641611-3.670556-2.249852L7.958868 37.501944z" opacity=".15"/>
    <path fill="#323232" d="M8.136456 38.241995c-1.2240444.293731-1.9811196 1.528873-1.687389 2.752917l19.889856 82.885708c.293731 1.22405 1.528873 1.98112 2.752917 1.68739l82.88571-19.88985c1.22405-.29373 1.98112-1.52888 1.68739-2.75292L93.775085 20.039528c-.293731-1.224044-1.528873-1.98112-2.752917-1.687389L8.136456 38.241995z" opacity=".2"/>
    <path fill="#323232" d="M8.314044 38.982046c-.8162763.19588-1.3208056 1.019002-1.124926 1.835278l19.889856 82.885716c.19588.81627 1.019002 1.3208 1.835278 1.12492l82.885708-19.88985c.81628-.19588 1.32081-1.01901 1.12493-1.83528L93.035034 20.217116c-.19588-.816276-1.019002-1.320806-1.835278-1.124926L8.314044 38.982046z" opacity=".25"/>
    <path fill="#323232" d="M8.491632 39.722097c-.4085082.098029-.6604916.509131-.562463.917639l19.889856 82.885714c.098206.40925.509131.66049.917639.56246l82.885716-19.88986c.40924-.0982.66067-.50839.56246-.91763L92.294983 20.394704c-.098029-.408508-.508391-.660669-.917639-.562463L8.491632 39.722097z" opacity=".3"/>
    <path fill="url(#g)" d="m107.43214 82.571529 2.92976 18.732121-19.147441 7.72542-64.508025 15.47982L6.1810419 38.937029 91.952145 18.062763l15.479995 64.508766z"/>
    <path fill="url(#h)" d="M-3.2568481 39.282223h88.185265V53.17725h-88.185265z" opacity=".86885244" transform="rotate(-13.494)"/>
  </g>
</svg>