<?xml version="1.0" encoding="UTF-8" standalone="no"?>
<svg xmlns="http://www.w3.org/2000/svg" xmlns:xlink="http://www.w3.org/1999/xlink" xml:space="preserve" width="500" height="499.99997" version="1.0" viewBox="-.811 -.732 1708 1708">
  <defs>
    <path id="g" fill="#fff" fill-opacity=".25842698" fill-rule="evenodd" d="M338.19575 103.85161c-131.805 9.7457-240.326602 107.4149-263.854802 237.469 0-145.7237 118.132202-263.854904 263.854802-263.854904H1393.6144c145.7226 0 263.8549 118.131204 263.8549 263.854904-23.5275-130.0541-132.0499-227.7233-263.8549-237.469H338.19575z"/>
  </defs>
  <defs>
    <linearGradient id="a">
      <stop offset="0" stop-color="#b40000"/>
      <stop offset="1" stop-color="#b40000" stop-opacity="0"/>
    </linearGradient>
    <linearGradient id="c">
      <stop offset="0" stop-color="#dc0000"/>
      <stop offset="1" stop-color="#e5734f"/>
    </linearGradient>
    <linearGradient id="b">
      <stop offset="0" stop-color="#fff"/>
      <stop offset="1" stop-color="#fff" stop-opacity="0"/>
    </linearGradient>
    <linearGradient xlink:href="#a" id="h" x1="1678.5588" x2="1678.5588" y1="288.91214" y2="1417.6237" gradientTransform="rotate(180 831.84605 833.4454) scale(.93506)" gradientUnits="userSpaceOnUse"/>
    <linearGradient xlink:href="#b" id="f" x1="1531.1748" x2="514.25446" y1="-710.26196" y2="1775.3436" gradientTransform="rotate(180 830.0536 831.61595) scale(.93082)" gradientUnits="userSpaceOnUse"/>
    <linearGradient xlink:href="#c" id="e" x1="971.02051" x2="1581.0668" y1="1066.0071" y2="1614.4901" gradientTransform="rotate(180 830.0536 831.61595) scale(.93082)" gradientUnits="userSpaceOnUse"/>
    <filter id="d">
      <feGaussianBlur stdDeviation="32.981822"/>
    </filter>
  </defs>
  <path fill-opacity=".50196078" fill-rule="evenodd" d="M1664.4504 348.30255c0-69.97812-27.7989-137.09024-77.2813-186.57263-49.4824-49.48239-116.5944-77.28134-186.5726-77.28134H345.17699c-69.97905 0-137.09117 27.79895-186.57356 77.28134-49.48146 49.48239-77.281334 116.59451-77.281334 186.57263V1403.7211c0 69.9791 27.798944 137.0912 77.281334 186.5726 49.48239 49.4825 116.59451 77.2815 186.57356 77.2815H1400.5956c69.9791 0 137.0903-27.799 186.5726-77.2815 49.4824-49.4814 77.2813-116.5944 77.2813-186.5726V348.30255h.0009z" filter="url(#d)" transform="rotate(180 862.56365 865.68885)"/>
  <path fill="none" stroke="#e83131" stroke-linecap="round" stroke-linejoin="round" stroke-miterlimit="100" stroke-opacity=".66666697" stroke-width="9.58254528" d="M338.19575 77.465706c-145.7226 0-263.854802 118.131204-263.854802 263.854904m1583.128352 0c0-145.7237-118.1323-263.854904-263.8549-263.854904m-.0001-.000107H338.19559M1657.4692 1396.7391V341.32059M1393.6144 1660.5941c145.7226 0 263.8549-118.1323 263.8549-263.8549M338.19559 1660.594H1393.6143M74.340607 341.32059V1396.7391"/>
  <path fill="url(#e)" fill-rule="evenodd" d="M74.340948 1396.7392c0 69.9781 27.798902 137.0902 77.281302 186.5726 49.4824 49.4824 116.5944 77.2813 186.5726 77.2813H1393.6144c69.979 0 137.0911-27.7989 186.5735-77.2813 49.4815-49.4824 77.2814-116.5945 77.2814-186.5726V341.32061c0-69.9791-27.799-137.0912-77.2814-186.5726-49.4824-49.4825-116.5945-77.281504-186.5735-77.281504H338.19575c-69.9791 0-137.0903 27.799004-186.5726 77.281504-49.4824 49.4814-77.281302 116.5944-77.281302 186.5726V1396.7392h-.0009z"/>
  <path fill="url(#f)" fill-rule="evenodd" d="M74.340948 1396.7392c0 145.7226 118.132202 263.8539 263.854802 263.8539H1393.6144c145.7226.001 263.8549-118.1313 263.8549-263.8539V605.17541C1023.8545 555.30491 414.61325 859.92506 74.340948 1396.7392z"/>
  <use xlink:href="#g" fill-opacity=".25842698" fill-rule="evenodd"/>
  <path fill="none" stroke="#f55" stroke-linecap="round" stroke-linejoin="round" stroke-miterlimit="100" stroke-width="13.96229553" d="M338.19575 77.465706c-145.7226 0-263.854802 118.131204-263.854802 263.854904m1583.128352 0c0-145.7237-118.1323-263.854904-263.8549-263.854904m-.0001-.000107H338.19559M1657.4692 1396.7391V341.32059M1393.6144 1660.5941c145.7226 0 263.8549-118.1323 263.8549-263.8549M338.19559 1660.594H1393.6143M74.340948 1396.7392c0 145.7226 118.132202 263.8539 263.854802 263.8539M74.340607 341.32059V1396.7391"/>
  <use xlink:href="#g" fill-opacity=".58823494" fill-rule="evenodd"/>
  <path fill="none" stroke="#e83131" stroke-linecap="round" stroke-linejoin="round" stroke-miterlimit="100" stroke-opacity=".66666697" stroke-width="9.58254528" d="M74.340948 1396.7392c0 145.7226 118.132202 263.8539 263.854802 263.8539"/>
  <path fill="#b40000" fill-opacity=".58823494" fill-rule="evenodd" d="M1657.4693 341.32061c-21.8585 0-39.5785 236.2626-39.5785 527.70971 0 291.44528 17.72 527.70888 39.5785 527.70888V341.32061z"/>
  <path fill="url(#h)" fill-rule="evenodd" d="M74.340948 341.32061c21.8584 0 39.579402 236.2626 39.579402 527.70971 0 291.44528-17.720102 527.70888-39.579402 527.70888V341.32061z"/>
  <path fill="#fff" fill-opacity=".54901997" fill-rule="evenodd" d="M74.340948 1396.7392c43.958802 112.4216 144.525602 192.8752 263.854802 211.0829H1393.6144c119.3292-18.2077 219.8959-98.6604 263.8549-211.0829 0 145.7226-118.1323 263.8539-263.8549 263.8539H338.19575c-145.7226.001-263.854802-118.1313-263.854802-263.8539z"/>
  <g fill-rule="evenodd" transform="translate(98.533627 111.55819) scale(.87505)">
    <path fill="#fff" d="M660.85769 528.91849C436.39841 635.20677 340.62518 903.27963 446.94153 1127.6771c106.31635 224.3975 374.4642 320.1444 598.92347 213.8573 224.4592-106.2883 320.2325-374.36113 213.9161-598.75863-44.4615-93.84369-120.0466-169.40683-213.9161-213.85609-43.0338-20.37809-61.3968-71.77348-41.0131-114.79654 20.3837-43.02307 71.7932-61.37993 114.8293-41.00184 310.5279 147.04328 443.025 517.90929 295.94 828.3517-147.0838 310.4424-518.05061 442.903-828.57973 295.8585-310.52672-147.042-443.02377-517.908-295.94001-828.35045 61.51014-129.82761 166.07785-234.36654 295.9412-295.85975 43.03492-20.37809 94.44445-2.02123 114.82816 41.00184 20.3837 43.02306 2.02059 94.41845-41.01313 114.79535z"/>
    <path fill="#fff" d="M767.14184 791.79733c0 59.13697 38.60128 107.07642 86.22011 107.07642 47.61768 0 86.2201-47.93945 86.2201-107.07642V256.41224c0-59.13697-38.60242-107.0779-86.2201-107.0779-47.61764 0-86.22011 47.93945-86.22011 107.0779v535.38509z"/>
    <path fill-opacity=".50196078" d="M1171.3508 1253.1283c-175.6202 175.5719-460.35867 175.5719-635.9789 0 82.16341 88.2975 197.35895 138.454 317.98886 138.454 120.62996.0012 235.82664-50.1565 317.99004-138.454zm-584.30814-880.007c-64.45158 30.51885-123.17534 71.89034-173.60201 122.30433 54.47025-44.97991 113.64609-83.93785 176.49693-116.19531 25.51273-9.7687 54.0981-7.29552 77.55206 6.70882 23.45396 14.00435 39.18695 37.99205 42.68065 65.08016 0-29.54698-15.13779-57.03576-40.11256-72.83597-24.97596-15.80021-56.30478-17.71054-83.01507-5.06203zm409.51097 77.898c3.49367-27.08811 19.22427-51.07581 42.67937-65.08016 23.4552-14.00434 52.0393-16.47752 77.5521-6.70882 62.8509 32.25746 122.0279 71.2154 176.4981 116.19531-50.4266-50.41399-109.1504-91.78548-173.602-122.30433-26.7115-12.64851-58.0403-10.73698-83.0151 5.06322-24.9736 15.80021-40.11247 43.2878-40.11247 72.83478zM767.14184 235.53072c3.59866-44.93698 41.12643-79.57103 86.22011-79.57103 45.09368 0 82.62141 34.63286 86.2201 79.57103 0-47.60453-38.60242-86.19638-86.2201-86.19638-47.61883 0-86.22011 38.59066-86.22011 86.19638z"/>
  </g>
</svg>