<?xml version="1.0" encoding="UTF-8" standalone="no"?>
<svg xmlns="http://www.w3.org/2000/svg" xmlns:xlink="http://www.w3.org/1999/xlink" width="48" height="48">
  <linearGradient id="c">
    <stop offset="0"/>
    <stop offset="1" stop-opacity="0"/>
  </linearGradient>
  <linearGradient id="a">
    <stop offset="0" stop-color="#fff"/>
    <stop offset="1" stop-color="#fff" stop-opacity="0"/>
  </linearGradient>
  <linearGradient id="b">
    <stop offset="0" stop-color="#fff"/>
    <stop offset="1" stop-color="#fff" stop-opacity=".296"/>
  </linearGradient>
  <linearGradient id="k" x1="179.721" x2="181.526" y1="441.055" y2="448.098" gradientTransform="matrix(1 0 0 1.087033 0 -40.13006)" gradientUnits="userSpaceOnUse" xlink:href="#a"/>
  <linearGradient id="q" x1="106" x2="127.448" y1="410.828" y2="426.293" gradientTransform="matrix(.180972 0 0 .266119 16.88863 -111.7974)" gradientUnits="userSpaceOnUse" xlink:href="#a"/>
  <linearGradient id="p" x1="106" x2="127.448" y1="410.828" y2="426.293" gradientTransform="matrix(.57968 0 0 .154647 -39.22082 -56.99145)" gradientUnits="userSpaceOnUse" xlink:href="#a"/>
  <linearGradient id="o" x1="106" x2="127.448" y1="410.828" y2="426.293" gradientTransform="matrix(.180972 0 0 .266119 21.76229 -114.7327)" gradientUnits="userSpaceOnUse" xlink:href="#a"/>
  <linearGradient id="n" x1="11.125" x2="10.948" y1="12.136" y2="24.831" gradientUnits="userSpaceOnUse" xlink:href="#b"/>
  <linearGradient id="m" x1="10.947" x2="11.194" y1="35.403" y2="11.929" gradientUnits="userSpaceOnUse">
    <stop offset="0" stop-color="#004188"/>
    <stop offset=".5" stop-color="#0059a2"/>
    <stop offset="1" stop-color="#0071bc"/>
  </linearGradient>
  <linearGradient id="l" x1="30.987" x2="28.226" y1="24.07" y2="7.196" gradientUnits="userSpaceOnUse" spreadMethod="reflect" xlink:href="#c"/>
  <linearGradient id="j" x1="141.151" x2="140.222" y1="466.06" y2="532.778" gradientTransform="matrix(.226968 0 0 .358465 -3.675864 -175.6141)" gradientUnits="userSpaceOnUse" xlink:href="#b"/>
  <linearGradient id="i" x1="39.9" x2="29.245" y1="30.922" y2="9.855" gradientUnits="userSpaceOnUse">
    <stop offset="0" stop-color="#0071bc" stop-opacity="0"/>
    <stop offset="0" stop-color="#0056ca" stop-opacity=".059"/>
    <stop offset="1" stop-color="#003cd8" stop-opacity=".125"/>
  </linearGradient>
  <linearGradient id="h" x1="158.238" x2="204.671" y1="548.549" y2="597.202" gradientTransform="matrix(.246858 0 0 .247951 -8.614581 -111.9751)" gradientUnits="userSpaceOnUse">
    <stop offset="0" stop-color="#898f96"/>
    <stop offset="1" stop-color="#bbbfc3"/>
  </linearGradient>
  <linearGradient id="f" x1="39.9" x2="29.245" y1="30.923" y2="9.855" gradientUnits="userSpaceOnUse">
    <stop offset="0" stop-color="#9da1a6"/>
    <stop offset="0" stop-color="#c9cbcd" stop-opacity=".824"/>
    <stop offset="0" stop-color="#fff"/>
  </linearGradient>
  <linearGradient id="g" x1="15.988" x2="42.502" y1="22.618" y2="22.618" gradientUnits="userSpaceOnUse" xlink:href="#c"/>
  <linearGradient id="d" x1="14.039" x2="47.076" y1="24.057" y2="24.057" gradientUnits="userSpaceOnUse" xlink:href="#a"/>
  <linearGradient id="e" x1="14.039" x2="47.076" y1="24.057" y2="24.057" gradientUnits="userSpaceOnUse">
    <stop offset="0" stop-color="#4c4c4c"/>
    <stop offset="1" stop-color="#dedede"/>
  </linearGradient>
  <g fill-rule="evenodd">
    <g fill="#9da1a6" stroke="#9da1a6" transform="matrix(.261212 0 0 .261212 -10.51157 -99.07086)">
      <rect width="122.184" height="155.982" x="99.67" y="397.248" stroke-linejoin="round" stroke-width="4.291" ry="3.838"/>
      <path stroke-linecap="round" stroke-width="4.792" d="m46.842103 453.85542h38.306324v-26.75963l58.241563 49.58403-59.02861 44.86174v-24.39849h-37.519277z"/>
    </g>
    <rect width="31.916" height="40.745" x="14.599" y="3.685" fill="url(#d)" stroke="url(#e)" stroke-linejoin="round" stroke-width="1.121" ry="1.003"/>
    <path fill="url(#f)" stroke="url(#g)" stroke-width=".261" d="m15.988478 4.1980115h26.513041v27.7245845l-26.500121 9.241527z"/>
  </g>
  <rect width="30.162" height="38.676" x="15.367" y="4.7" fill="none" stroke="url(#h)" stroke-linejoin="round" stroke-width="1.062" rx=".103" ry=".458"/>
  <rect width="6.663" height="2.612" x="35.423" y="27.243" fill="#004188" ry=".811" transform="matrix(.960536 -.278156 0 1 0 0)"/>
  <path fill="#fff" fill-rule="evenodd" d="m.62586451 18.330724h10.00607949v-6.989942l15.213409 12.951954-15.418995 11.718435v-6.373184h-9.80049349z"/>
  <path fill="url(#i)" fill-rule="evenodd" d="m15.988478 5.2428605h26.513041v26.6797355l-26.500121 10.8088z"/>
  <path fill="url(#j)" fill-rule="evenodd" d="m15.837586 5.2073158v11.2101012c12.694995 7.925212 19.861103 8.182541 29.236448.4306v-11.6407012z"/>
  <g transform="matrix(.261212 0 0 .261212 -10.51157 -99.07086)">
    <rect width="25.507" height="10" x="176.635" y="493.946" fill="#0071bc" ry="3.103" transform="matrix(.960536 -.278156 0 1 0 0)"/>
    <path fill="url(#k)" fill-rule="evenodd" d="m171.91468 445.11526c2.3164-1.56624 15.4735-5.01511 19.82894-5.62027 2.20241-.30601 2.62475 3.40215.02731 5.2218-3.1119 2.18005-10.67038 3.8583-13.58805 3.90169-4.38716.06524-8.55131-1.95949-6.2682-3.50322z"/>
  </g>
  <rect width="31.916" height="40.745" x="14.599" y="3.685" fill="none" stroke="url(#l)" stroke-linejoin="round" stroke-width="1.121" rx="1.003"/>
  <path fill="#0071bc" fill-rule="evenodd" stroke="url(#m)" stroke-linecap="round" stroke-width="1.252" d="m.62586451 18.330724h10.00607949v-6.989942l15.213409 12.951954-15.418995 11.718435v-6.373184h-9.80049349z"/>
  <path fill="#0071bc" fill-rule="evenodd" d="m.62586451 18.330724h10.00607949v-6.989942l15.213409 12.951954-15.418995 11.718435v-6.373184h-9.80049349z"/>
  <path fill="url(#n)" fill-rule="evenodd" d="m10.625395 11.340782v6.987427h-9.99953049v5.395665c11.43510949 1.71096 17.55838949 1.154296 24.82332349.22856z"/>
  <rect width="6.393" height="5.744" x="40.945" y="-6.06" fill="url(#o)" rx="1.004" ry="1.311" transform="matrix(.960385 .278676 .08175807 .996652 0 0)"/>
  <rect width="20.318" height="3.346" x="22.386" y="6.152" fill="url(#p)" rx="3.217" ry=".762" transform="matrix(.999264 .03835477 -.654473 .756085 0 0)"/>
  <rect width="6.393" height="5.744" x="36.072" y="-3.125" fill="url(#q)" rx="1.004" ry="1.311" transform="matrix(.960385 .278676 .08175813 .996652 0 0)"/>
</svg>
