<?xml version="1.0" encoding="UTF-8" standalone="no"?>
<!-- Generator: Adobe Illustrator 12.0.0, SVG Export Plug-In . SVG Version: 6.00 Build 51448)  -->
<svg enable-background="new 0 0 126 115.753" height="128" viewBox="0 0 126 115.753" width="128" xmlns="http://www.w3.org/2000/svg" xmlns:xlink="http://www.w3.org/1999/xlink">
  <defs>
    <linearGradient id="linearGradient3539" gradientTransform="matrix(-.431524 -.431524 .541866 -.541866 135.1327 84.49762)" gradientUnits="userSpaceOnUse" x1="60.471134" x2="67.375" xlink:href="#linearGradient3082" y1="-.677765" y2="21.718748"/>
    <radialGradient id="radialGradient3537" cx="12.308078" cy="3.040689" fx="13.944797" gradientTransform="matrix(1 0 0 .02962963 0 2.950605)" gradientUnits="userSpaceOnUse" r="2.983107" xlink:href="#linearGradient2916"/>
    <linearGradient id="linearGradient3535" gradientTransform="matrix(2.619557 2.619557 -3.339491 3.339491 96.86118 11.04056)" gradientUnits="userSpaceOnUse" x1="11.434079" x2="11.174653" xlink:href="#linearGradient2916" y1="1.028958" y2="2.279265"/>
    <linearGradient id="linearGradient3533" gradientTransform="matrix(2.323288 2.323288 -3.088859 3.088859 112.6067 35.29607)" gradientUnits="userSpaceOnUse" x1="5.559313" x2="5.559313" xlink:href="#linearGradient3082" y1="-.259621" y2=".433999"/>
    <linearGradient id="linearGradient3531" gradientTransform="matrix(2.323288 2.323288 -3.088859 3.088859 112.6067 35.29607)" gradientUnits="userSpaceOnUse" x1="5.656854" x2="5.656854" xlink:href="#linearGradient3082" y1="6.085033" y2="1.463986"/>
    <linearGradient id="linearGradient3529" gradientTransform="matrix(2.323288 2.323288 -3.088859 3.088859 112.6067 35.29607)" gradientUnits="userSpaceOnUse" x1="1.120921" x2="5.897948" y1="1.022699" y2="1.022699">
      <stop offset="0" stop-color="#303030"/>
      <stop offset=".11538462" stop-color="#ddd"/>
      <stop offset=".21628143" stop-color="#c0c0c0"/>
      <stop offset=".26590282" stop-color="#868686"/>
      <stop offset=".28553563" stop-color="#a8a8a8"/>
      <stop offset=".43724003" stop-color="#b4b4b4"/>
      <stop offset=".69156802" stop-color="#e9e9e9"/>
      <stop offset=".90384614" stop-color="#c1c1c1"/>
      <stop offset="1" stop-color="#5d5d5d"/>
    </linearGradient>
    <radialGradient id="radialGradient3527" cx="62.932503" cy="20.917517" fx="50.537544" fy="17.822439" gradientTransform="matrix(1 0 0 .107643 0 18.6659)" gradientUnits="userSpaceOnUse" r="16.597027">
      <stop offset="0" stop-color="#838383"/>
      <stop offset="1" stop-color="#e8eae7"/>
    </radialGradient>
    <linearGradient id="linearGradient3525" gradientTransform="matrix(.832378 -.832378 .186397 .375434 93.92014 15.88722)" gradientUnits="userSpaceOnUse" x1="-14.169934" x2="-44.796474" y1="52.959" y2="64.645042">
      <stop offset="0" stop-color="#bf0303"/>
      <stop offset="1" stop-color="#bf0303" stop-opacity="0"/>
    </linearGradient>
    <linearGradient id="linearGradient3521" gradientTransform="matrix(2.511802 2.511802 -3.339491 3.339491 97.81399 11.99337)" gradientUnits="userSpaceOnUse" x1="16.153557" x2="15.121005" xlink:href="#linearGradient2916" y1="11.921875" y2="11.921875"/>
    <linearGradient id="linearGradient3519" gradientTransform="matrix(2.511802 2.511802 -3.339491 3.339491 99.07983 11.15906)" gradientUnits="userSpaceOnUse" x1="11.972158" x2="10.88339" xlink:href="#linearGradient2916" y1="1.837264" y2="5.900602"/>
    <radialGradient id="radialGradient3517" cx="68.000046" cy="-117.34602" gradientTransform="matrix(.448535 .448535 .950219 -.950219 136.555 -32.489)" gradientUnits="userSpaceOnUse" r="27.999956" xlink:href="#linearGradient2916"/>
    <linearGradient id="linearGradient3515" gradientTransform="matrix(-.04638413 -.04638413 -.55141 .55141 112.522 34.52868)" gradientUnits="userSpaceOnUse" x1="26.446152" x2="64.747475" xlink:href="#linearGradient2916" y1="65.760353" y2="65.760353"/>
    <linearGradient id="linearGradient3513" gradientTransform="matrix(.293117 .293117 -.55141 .55141 101.3762 23.38287)" gradientUnits="userSpaceOnUse" x1="26.446152" x2="52.304092" xlink:href="#linearGradient2916" y1="65.760353" y2="65.760254"/>
    <linearGradient id="linearGradient3511" gradientTransform="matrix(.460981 .460981 .491319 -.491319 29.16604 94.1778)" gradientUnits="userSpaceOnUse" x1="43.918915" x2="43.918915" xlink:href="#linearGradient2874" y1="7.845094" y2="15.315003"/>
    <linearGradient id="linearGradient3509" gradientTransform="matrix(.651925 0 0 .677342 87.21728 -45.77283)" gradientUnits="userSpaceOnUse" x1="68.395218" x2="43.918915" xlink:href="#linearGradient2874" y1="-36.376503" y2="54.970299"/>
    <linearGradient id="linearGradient3507" gradientUnits="userSpaceOnUse" x1="110.739118" x2="110.739118" xlink:href="#linearGradient3082" y1="118.93198" y2="30.469795"/>
    <linearGradient id="linearGradient3505" gradientTransform="matrix(.54455 0 0 .961112 79.25267 6.41365)" gradientUnits="userSpaceOnUse" x1="38.875084" x2="90.409752" xlink:href="#linearGradient2916" y1="67.528122" y2="67.528122"/>
    <linearGradient id="linearGradient3503" gradientTransform="matrix(.651925 0 0 .779812 87.21728 -55.27769)" gradientUnits="userSpaceOnUse" x1="69.07917" x2="63.575024" xlink:href="#linearGradient2874" y1="1.012883" y2="39.769947"/>
    <linearGradient id="linearGradient3501" gradientTransform="matrix(.634325 0 0 .817126 68.51125 -59.56164)" gradientUnits="userSpaceOnUse" x1="58.922195" x2="67.528694" y1="67.719147" y2="67.719147">
      <stop offset="0" stop-color="#2e3436"/>
      <stop offset="1" stop-color="#2e3436" stop-opacity="0"/>
    </linearGradient>
    <linearGradient id="linearGradient3499" gradientTransform="matrix(.754579 -.00000056 0 .819799 77.4126 -48.93725)" gradientUnits="userSpaceOnUse" x1="69.75" x2="70" y1="117.25" y2="29.25">
      <stop offset="0" stop-color="#590000"/>
      <stop offset=".5" stop-color="#2c72c7"/>
      <stop offset="1" stop-color="#37a42c"/>
    </linearGradient>
    <linearGradient id="linearGradient2874">
      <stop offset="0" stop-color="#414141"/>
      <stop offset="1" stop-color="#414141" stop-opacity="0"/>
    </linearGradient>
    <linearGradient id="linearGradient2916">
      <stop offset="0" stop-color="#fff"/>
      <stop offset="1" stop-color="#fff" stop-opacity="0"/>
    </linearGradient>
    <linearGradient id="linearGradient3082">
      <stop offset="0"/>
      <stop offset="1" stop-opacity="0"/>
    </linearGradient>
    <filter id="filter3952">
      <feGaussianBlur stdDeviation=".29358746"/>
    </filter>
    <filter id="filter3968" height="1.031103" width="1.828979" x="-.414489" y="-.015551">
      <feGaussianBlur stdDeviation=".6197632"/>
    </filter>
    <filter id="filter3988">
      <feGaussianBlur stdDeviation=".54981838"/>
    </filter>
    <filter id="filter4012" height="1.630937" width="1.067916" x="-.033958" y="-.315469">
      <feGaussianBlur stdDeviation=".56360036"/>
    </filter>
  </defs>
  <path d="m419.943-28.914534v-2.794709z" fill="#fff" fill-opacity=".756881"/>
  <g transform="matrix(.9797495 -.937649 .9797495 .937649 -97.739992 68.113257)">
    <rect fill="#d3d7cf" height="84.98114" rx="1.913238" transform="matrix(.707107 .707107 -.707107 .707107 0 0)" width="35.522243" x="98.958878" y="-46.487606"/>
    <path d="m104.34877 38.608399 22.08532 22.085327c.81524.815238.81525 2.127858 0 2.9431l-57.010717 57.010714c-.815236.81524-2.127856.81524-2.943095 0-8.371623-6.12751-16.216326-12.89905-22.085327-22.085327-.815236-.815236-.815238-2.127856-.000001-2.943092l57.01072-57.010719c.81524-.815241 2.12786-.81524 2.9431-.000003z"/>
    <rect height="75.831329" rx="1.012417" ry="1.012418" style="stroke:#000;stroke-width:.088876;stroke-linecap:round;stroke-linejoin:round;stroke-dashoffset:4;fill:url(#linearGradient3499)" transform="matrix(.785801 .61848 -.707107 .707107 0 0)" width="6.41392" x="126.08295" y="-26.802601"/>
    <path d="m64.929168 75.084901c7.43131 9.110465 15.796908 17.286643 24.812663 24.812663l-10.837317 10.837326c-9.617799-6.92398-17.563814-15.519745-24.812663-24.812671z" fill="#babdb6"/>
    <path d="m60.894777 79.699302.235158.235157-1.752062 1.459118c-.241446.201065-.402151.357289-.482123.468664-.078265.110701-.089502.193948-.033719.249733.056202.0562.148059.053574.275594-.007859.129239-.062106.314577-.193698.556023-.394763l1.752063-1.459116.235154.235154-1.752064 1.459115c-.413709.344538-.754085.568659-1.021115.672379-.267031.103721-.466912.089206-.599657-.043538-.132346-.132346-.129739-.315107.007803-.548316.137546-.233203.413168-.522079.826878-.866616z" fill="#00438a"/>
    <rect fill="url(#linearGradient3501)" height="84.647064" opacity=".63" transform="matrix(.707107 .707107 -.707107 .707107 0 0)" width="5.459325" x="105.88711" y="-46.550053"/>
    <rect fill="url(#linearGradient3503)" height="30.045612" rx="2.013096" transform="matrix(.707107 .707107 -.707107 .707107 0 0)" width="35.522186" x="98.958931" y="-46.487549"/>
    <g transform="matrix(.431524 .431524 -.573721 .573721 84.03062 -2.081983)">
      <path d="m100.48913 20.663857c4.67391-.065313 9.34782-.359896 14.02173-.69423v101.139963h-14.02173z" fill="url(#linearGradient3505)" opacity=".46"/>
      <path d="m68.09375 15.78125-11.5 1.09375v68.21875c2.629647-.079598 5.276604-.193675 7.90625-.34375v-64.5c-.000002-.790661.621142-1.531454 1.40625-1.625l2.1875-.25zm-3.59375 90c-2.668757.18289-5.292769.24016-7.90625.3125v18.21875h11.40625v-4.78125l-2.09375.25c-.785108.09355-1.40625-.45934-1.40625-1.25z" fill="url(#linearGradient3507)" filter="url(#filter3952)" transform="matrix(1.228527 0 0 .924038 30.9559 6.247937)"/>
    </g>
    <rect fill="url(#linearGradient3509)" height="48.179649" rx="1.136142" ry="1.072582" transform="matrix(.707107 .707107 .707107 -.707107 0 0)" width="35.522186" x="98.958931" y="-38.137974"/>
    <g fill="#00438a">
      <path d="m78.712006 98.320211-3.299579 2.079769.580858.58085 1.151602-.68691.377563.37756c.290745.29075.624177.44892.9644.48775.342686.03892.679143-.05251 1.024446-.26932.343828-.21587.530696-.46167.559747-.73401.031528-.272245-.080822-.557471-.371574-.848225zm-.016972 1.004422.31947.31947c.114275.114278.147312.222434.130213.334491-.017119.112046-.096392.209156-.243329.301416-.146927.09227-.27455.13863-.41759.12715-.141585-.01242-.278309-.07402-.392568-.18829l-.319465-.319462z"/>
      <path d="m71.665193 91.562071c-.426356-.426351-.900999-.644707-1.45639-.707372-.5542-.061455-1.114114.060408-1.663759.379028-.548141.317743-.850328.69973-.919973 1.122825-.068444.424276.111969.860988.538329 1.287348.427533.427533.9022.645901 1.456385.707367.554203.061446 1.115625-.061285 1.663769-.379029.549647-.318624.850313-.699722.919961-1.122826.069658-.423077-.110778-.859802-.538322-1.287341zm-.645931.375461c.210193.210197.282827.448522.201187.677836-.081659.229297-.289556.439719-.646882.646883-.355849.206259-.672944.309869-.984968.308796-.312051-.001101-.602872-.12623-.813068-.336425-.209034-.209034-.249033-.414727-.167385-.644027.081633-.229314.291034-.440618.646881-.646884.357341-.207153.672923-.309893.984973-.308793.31204.001093.570221.093585.779262.302614z"/>
      <path d="m73.231979 95.729563-.814321 1.919668-.706205-.706205.540947-1.28889-1.764908.064929-.709728-.709727 2.638825-.095165.779289-1.843474.707972.707973-.513988 1.211797 1.663984-.061802.711495.711495z"/>
      <path d="m75.898751 95.654651.697669.69767-.62716 1.281607 1.754063-.154705.69931.69931-2.876539.223415-1.407704.849092-.638027-.638026 1.407706-.84909z"/>
      <path d="m81.050415 100.44955.523357.52336-2.594154 1.71853.918923.91892-.628021.41605-1.442287-1.44229z"/>
      <path d="m82.775434 101.93673.42743.42743-1.871823 1.33935c-.257954.18456-.420491.33895-.487625.46316-.065005.12396-.046802.23665.054594.33805.102151.10215.230489.136.385044.10159.156684-.03466.363996-.14428.62195-.32884l1.871823-1.33935.427422.42742-1.871824 1.33936c-.441988.31625-.82989.49285-1.163684.5298-.333794.03697-.621325-.0652-.862604-.30648-.240555-.24056-.311603-.49697-.213168-.76929.098442-.2723.368645-.5666.810634-.88286z"/>
      <path d="m85.117387 104.09054-.617244.51654c.022848-.1087.029315-.2015.019396-.2784-.009929-.0769-.035509-.13596-.076741-.1772-.05471-.05471-.119896-.07445-.195549-.05921-.075644.01525-.16556.06646-.269734.15364-.078129.06539-.130617.12532-.157444.17982-.02513.0538-.030131.11698-.014997.18951l.033078.15148c.033601.1532.004812.3062-.086382.45898-.091196.15278-.259203.33161-.504011.53648-.321657.26916-.590387.44053-.806252.51412-.214147.07289-.38088.04965-.500217-.06969-.056296-.05629-.095219-.12751-.116746-.21362-.021536-.08613-.026138-.1864-.013822-.30086l.634819-.53124c-.042279.13951-.062446.25689-.060504.35212.003657.09454.030051.16639.079216.21555.049956.04996.115573.06532.196824.04613.081252-.01921.17266-.07132.274241-.15631.091143-.0763.152355-.14425.183599-.2039.031635-.05926.040035-.13218.025174-.2188l-.024134-.14254c-.026306-.14112.008283-.28951.103784-.44516.09589-.15526.259741-.32987.491528-.52386.290399-.243.542263-.40135.755623-.47503.213356-.07367.373556-.05698.480607.05006.048764.04877.086544.10928.113343.18152.0281.07116.045617.15445.052545.24987"/>
    </g>
    <path d="m43.959236 97.894453c6.311573 9.758237 14.545987 16.792437 23.213325 23.213327.527587.52758 1.353305.55134 1.851376.05326l33.150033-33.150026c.49808-.498073.47431-1.323783-.05327-1.85137l-23.21333-23.213326c-.527586-.527587-1.353296-.551348-1.851368-.053276l-33.150037 33.150037c-.498071.498071-.474316 1.323787.053271 1.851374z" fill="url(#linearGradient3511)"/>
    <path d="m47.258482 96.927503.27317.550227 1.219901-1.219903.083376.167931-1.219902 1.219902.273181.550215-.367949.367949-.273176-.550222-1.219895 1.219897-.083381-.167924 1.219907-1.219908-.273181-.550216zm3.758245-3.758244.273179.550216 1.219903-1.219902.08337.167935-1.219902 1.219902.273174.550221-.367932.367933-.273186-.55021-1.219891 1.21989-.083376-.16793 1.219897-1.219896-.27318-.550216zm3.75826-3.75826.27318.550216 1.219897-1.219897.083369.167935-1.219896 1.219897.273174.55022-.367943.367945-.273175-.550222-1.219896 1.219896-.083381-.167924 1.219902-1.219902-.273175-.550222zm18.828125-17.82586.044141.088905-1.852848 1.852846c.079644.107604.210276.119869.391903.036796.182757-.085191.407733-.261385.67493-.528582.154767-.154766.300175-.312986.436225-.47466.137504-.163127.2693-.333359.39539-.510695l.085336.171883c-.130819.172211-.268553.341482-.413207.507816-.144657.166339-.295099.327621-.451328.483849-.391302.391302-.727074.650204-1.007311.776702-.278779.12504-.461653.09997-.548626-.075204-.089915-.181101-.053145-.432711.110306-.754832.164585-.324235.430848-.670323.798789-1.038266.329978-.329978.61447-.542528.853479-.637653.240138-.097239.40108-.063539.482821.101095m-.429467.34964c-.052293-.096518-.153745-.11382-.304358-.051905-.149153.06046-.323017.189975-.521586.388542-.224854.224856-.39095.433823-.498294.626903-.105881.191623-.143212.349679-.111993.47417zm2.7902-3.470203-.619712 1.425367 1.214999-.364992-.475257.475257-.929776.279336-.498186 1.148626-.475257.475257.665306-1.531571-1.133567.34417.475258-.475258.846153-.256323.45478-1.04461zm.858067-1.328156.155958.31413.83006-.830058.070132.14126-.830056.830057.298188.600599c.044792.090222.100577.121163.167352.092823.068234-.029799.186305-.128655.354216-.296565l.413934-.413933.075529.152125-.413934.413934c-.310999.310999-.538547.499619-.682641.565858-.144426.065584-.250968.029228-.319629-.109069l-.298189-.600598-.295667.295666-.070134-.14126.295667-.295666-.155961-.314129zm3.023965-2.299616c-.051149.033413-.105042.074494-.161679.123246-.055507.046639-.115381.102079-.179624.16632-.227774.227776-.386309.436571-.475605.626388-.088164.187702-.101185.344116-.039063.46924l.289362.582817-.405174.405174-.549295-1.106366.405174-.405175.085337.171882c.051335-.151855.136885-.311813.256652-.479871.119439-.168713.276254-.350166.470447-.544359.027741-.027739.05889-.057413.093457-.089023.034233-.032262.072611-.067188.115129-.10478zm1.721906-1.152772c-.325599.325601-.542843.567977-.651735.727128-.108893.159156-.143231.279233-.103014.360234.032041.064538.104266.069184.216677.013932.113541-.057367.251347-.167084.413417-.329155.223391-.223392.384597-.437814.483612-.643267.100149-.207566.120796-.370622.061945-.489163l-.020109-.040502zm.766503-.87885.313393.631222-.402983.402983-.083374-.167932c-.05864.159161-.148569.323498-.269795.493013-.121555.16886-.281617.352574-.480187.551144-.251135.251135-.466861.419556-.647177.505263-.179184.083589-.29526.072043-.348227-.034644-.061794-.124466-.016402-.310296.136181-.557488.154041-.248648.414302-.556215.780784-.922698l.565052-.565052-.008828-.017781c-.041525-.083633-.134892-.086848-.280097-.009644-.144076.07509-.326349.222873-.54682.443342-.140169.14017-.272926.284261-.398273.432275-.125349.148015-.241825.298491-.349431.451429l-.083376-.16793c.134718-.173149.268323-.335336.40082-.486558.132168-.151877.263956-.293519.395364-.424929.354798-.354798.640403-.578313.856809-.67055.216406-.092229.366462-.054051.450165.114535m2.18504-2.847305.085338.171882c-.126967.087549-.255043.186058-.384228.295532-.129187.109476-.259484.229918-.39089.361325-.200033.200032-.343554.364251-.430568.492653-.085553.126947-.114597.218079-.087131.273395.020924.042149.073207.039634.15685-.007546.083314-.047835.238412-.168932.465295-.363295l.144845-.124148c.299906-.258515.522312-.422281.667216-.491303.146034-.071136.241449-.061591.286245.028627.051005.102737.000859.274592-.150438.51557-.149837.239519-.382444.516966-.697822.832343-.131409.13141-.271599.262731-.42057.393963-.147187.130432-.305347.26297-.47448.39761l-.093183-.187688c.166257-.114024.326075-.23442.47945-.361189.15305-.127425.300388-.261951.442017-.40358.189808-.18981.328624-.350306.416444-.48149.087493-.13184.117996-.224433.091514-.277777-.024522-.049388-.080555-.050021-.168098-.001902-.086083.046664-.260012.182649-.521781.407954l-.147525.125352c-.261445.225967-.459748.370067-.594908.432299-.135489.061576-.224485.049558-.26699-.036055-.051661-.10405-.009787-.266158.125625-.486323.13541-.220163.353505-.480634.654283-.781413.148927-.148927.291547-.284154.42786-.405687.136312-.121527.264854-.227896.38563-.319109m.993002-1.511873.155961.314128.830057-.830058.070133.141261-.830057.830057.298188.6006c.044793.090222.100577.121163.167352.092822.068235-.029798.186306-.128654.354217-.296564l.413933-.413934.075529.152125-.413934.413934c-.310999.310999-.538546.499618-.682641.565859-.144424.065583-.250968.029228-.319628-.10907l-.298189-.600598-.295667.295666-.070134-.141259.295667-.295666-.15596-.31413zm2.906169-1.612685c-.325601.325601-.542846.567978-.651735.727129-.108894.159155-.143233.279232-.103015.360233.032041.064538.104267.069183.216676.013933.113542-.057366.251347-.167086.413417-.329156.223392-.223391.384598-.437814.483612-.643266.10015-.207568.120796-.370622.061946-.489165l-.020109-.0405zm.766503-.87885.313392.631222-.402983.402983-.083375-.167932c-.058639.15916-.148568.323499-.269793.493013-.121556.16886-.281618.352574-.480188.551143-.251136.251136-.466861.419558-.647178.505264-.179182.083588-.295258.072043-.348226-.034644-.061795-.124465-.016403-.310294.13618-.557487.154043-.248649.414304-.556216.780785-.922699l.565052-.565052-.008828-.017782c-.041525-.083632-.134891-.086848-.280097-.009643-.144076.075091-.326349.222872-.546819.443343-.14017.140169-.272927.28426-.398273.432273-.125349.148015-.241827.298493-.349433.451431l-.083374-.16793c.134716-.173149.268323-.335338.400819-.486559.132168-.151876.263955-.29352.395364-.424929.354799-.354798.640403-.578314.856808-.67055.216407-.092229.366463-.054051.450167.114535m2.620336-3.013557c.060201-.182403.150741-.363117.271619-.542142.120876-.179019.27622-.363435.466034-.553251.255511-.25551.472731-.41212.651657-.46983.178594-.05836.304839-.013126.378735.135702l.33154.667771-.405173.405173-.328596-.661843c-.052645-.106025-.133328-.14311-.242053-.111256-.108731.031863-.248509.133206-.419335.304032-.208795.208795-.358254.405067-.448377.588812-.090129.183753-.108381.329628-.054756.437629l.31045.625293-.405174.405174-.328595-.661844c-.05297-.106683-.133655-.143768-.242055-.111255-.108728.031861-.249967.134665-.423714.308411-.205873.205874-.353709.401014-.443509.585421-.090124.18375-.108539.329297-.055243.43664l.310449.625294-.405174.405173-.549295-1.106366.405173-.405174.085337.171882c.058308-.159815.143696-.3201.256162-.480858.112466-.160754.257035-.329468.433705-.50614.178128-.178126.339382-.30883.483763-.392111.145837-.084734.267978-.118178.366425-.100337m2.347497-2.665324.402982-.402983.549296 1.106367-.402983.402983zm-.213833-.430692.402982-.402982.114274.230162-.402983.402985zm3.714589-2.413712.33154.66777-.402985.402985-.328596-.661842c-.051986-.104712-.136161-.137814-.252513-.099319-.116356.038503-.265061.148279-.446108.329326-.217554.217556-.373582.420396-.468089.608525-.094506.18813-.114948.336195-.061324.444197l.310448.625295-.405172.405172-.549296-1.106366.405174-.405174.085337.171882c.063342-.162877.151812-.325754.265413-.488631.115058-.164332.258002-.331914.428832-.502746.281793-.281792.514588-.455456.698368-.520977.183457-.066179.313112-.022876.388971.129903m1.978344-1.811301c-.325599.3256-.542842.567973-.651734.727127s-.143231.279231-.103014.360233c.032043.064536.104271.069179.216678.01393.113541-.057365.251348-.167084.41342-.329158.223388-.223388.384594-.437811.48361-.643263.100147-.207565.120797-.37062.061947-.489164l-.02011-.040504zm.766507-.878851.31339.631217-.40298.402985-.08338-.167931c-.05863.159158-.14857.323499-.269792.493015-.121553.168856-.281615.352571-.480183.551138-.251139.251139-.466861.419557-.647179.505266-.179184.08359-.295261.072044-.348226-.034646-.061795-.124464-.016401-.310294.136176-.557483.154045-.248651.414308-.55622.780786-.922699l.565053-.565052-.008827-.017782c-.041527-.083632-.134892-.086848-.280098-.009644-.144073.075087-.326349.222872-.546819.443342-.140171.140171-.272928.284261-.398275.432276-.125348.148014-.241822.298487-.349433.451431l-.08337-.167936c.134716-.173147.268321-.335334.400816-.486554.132171-.151879.263957-.293521.395366-.424932.354799-.354797.640405-.578315.856812-.670551.216403-.092228.366463-.054049.450163.11454" fill="#bf0303"/>
    <path d="m103.62476 40.380317c1.92419 3.245949 5.73731 6.736947 8.60596 10.105423l-57.679219 57.67922-9.355692-9.355693z" fill="url(#linearGradient3513)"/>
    <path d="m103.63062 40.374457c-.38549-.671315-.60734-1.383543-.87717-2.083774l-59.038093 59.038088 1.480473 1.480474z" fill="url(#linearGradient3515)"/>
    <path d="m43.959236 97.894453c5.573212 8.169527 13.424674 16.135457 23.213325 23.213327.527587.52758 1.353305.55134 1.851376.05326l33.150033-33.150026c.49808-.498073.47431-1.323783-.05327-1.85137l-23.21333-23.213326c-.527586-.527587-1.353296-.551348-1.851368-.053276l-33.150037 33.150037c-.498071.498071-.474316 1.323787.053271 1.851374z" fill="url(#radialGradient3517)" opacity=".52459"/>
    <path d="m108.47153 54.823968-4.69653 4.696537-4.634568-4.634564-1.452231 1.452233 4.634559 4.634563-4.696534 4.696537 1.405992 1.405992 4.696532-4.696538 4.65192 4.651922 1.45224-1.452232-4.65192-4.651922 4.69653-4.696536zm-53.019912 43.750789-1.452241 1.452243 10.692477 10.69247 1.452241-1.45223z" fill="#babdb6"/>
    <path d="m103.86785 39.96637c-.23917-.23917-.70064-.084298-1.01862.233683l-1.77411 1.774106c-5.688771 15.690463 10.98332 19.526487 19.90032 24.684152l4.16602-4.166022c.31799-.317981.47285-.779449.23369-1.01862-8.06731-6.151132-15.31366-13.23268-21.5073-21.507299z" fill="url(#linearGradient3519)" filter="url(#filter3988)"/>
    <path d="m121.49815 63.56953c2.51186-2.351879 2.75039.967846 5.10208-.989473l-57.87243 57.872433-2.009449-2.00944z" fill="url(#linearGradient3521)" filter="url(#filter3968)"/>
    <path d="m15.291185 3.0406995a2.9831069.08838835 0 1 1 -5.966214 0 2.9831069.08838835 0 1 1 5.966214 0z" fill="url(#radialGradient3537)" transform="matrix(2.511802 2.511802 -3.339491 3.339491 96.86492 11.67587)"/>
    <path d="m62.586003 81.915924-.636954.496823c.006044-.125506-.004384-.235198-.031296-.329087-.026922-.093898-.069067-.169526-.12644-.226906-.076123-.076117-.157931-.112477-.24541-.109068-.087461.003436-.184954.047068-.292456.130916-.080621.062898-.131652.124292-.153062.184202-.019521.059416-.013135.133973.019157.22367l.0692.187599c.07016.189759.06568.367068-.013461.531903-.079141.164836-.245033.345778-.497656.542836-.331931.258884-.619715.411207-.863425.45694-.241797.045236-.445707-.015178-.611758-.181229-.078332-.078333-.138811-.171104-.181405-.278282-.042608-.107191-.067735-.227991-.075411-.362442l.655092-.51097c-.023247.158543-.02439.294941-.00343.409198.022876.113755.068499.204829.136908.273239.069511.069511.150974.100718.244372.093673.093395-.007061.192495-.05148.297322-.133232.09405-.073382.153943-.142653.179627-.207865.026229-.064663.021998-.150219-.012721-.256698l-.056755-.175157c-.059075-.173886-.046759-.344551.036969-.51198.084269-.16688.246016-.343595.485203-.530178.299673-.233721.569841-.373774.810539-.420112.240694-.046336.435513.004967.584466.153917.067854.067857.12487.147598.171054.239223.047524.090587.084772.193612.111731.309067" fill="#00438a"/>
    <path d="m47.258482 96.927503.27317.550227 1.219901-1.219903.083376.167931-1.219902 1.219902.273181.550215-.367949.367949-.273176-.550222-1.219895 1.219897-.083381-.167924 1.219907-1.219908-.273181-.550216zm3.758245-3.758244.273179.550216 1.219903-1.219902.08337.167935-1.219902 1.219902.273174.550221-.367932.367933-.273186-.55021-1.219891 1.21989-.083376-.16793 1.219897-1.219896-.27318-.550216zm3.75826-3.75826.27318.550216 1.219897-1.219897.083369.167935-1.219896 1.219897.273174.55022-.367943.367945-.273175-.550222-1.219896 1.219896-.083381-.167924 1.219902-1.219902-.273175-.550222zm18.828125-17.82586.044141.088905-1.852848 1.852846c.079644.107604.210276.119869.391903.036796.182757-.085191.407733-.261385.67493-.528582.154767-.154766.300175-.312986.436225-.47466.137504-.163127.2693-.333359.39539-.510695l.085336.171883c-.130819.172211-.268553.341482-.413207.507816-.144657.166339-.295099.327621-.451328.483849-.391302.391302-.727074.650204-1.007311.776702-.278779.12504-.461653.09997-.548626-.075204-.089915-.181101-.053145-.432711.110306-.754832.164585-.324235.430848-.670323.798789-1.038266.329978-.329978.61447-.542528.853479-.637653.240138-.097239.40108-.063539.482821.101095m-.429467.34964c-.052293-.096518-.153745-.11382-.304358-.051905-.149153.06046-.323017.189975-.521586.388542-.224854.224856-.39095.433823-.498294.626903-.105881.191623-.143212.349679-.111993.47417zm2.7902-3.470203-.619712 1.425367 1.214999-.364992-.475257.475257-.929776.279336-.498186 1.148626-.475257.475257.665306-1.531571-1.133567.34417.475258-.475258.846153-.256323.45478-1.04461zm.858067-1.328156.155958.31413.83006-.830058.070132.14126-.830056.830057.298188.600599c.044792.090222.100577.121163.167352.092823.068234-.029799.186305-.128655.354216-.296565l.413934-.413933.075529.152125-.413934.413934c-.310999.310999-.538547.499619-.682641.565858-.144426.065584-.250968.029228-.319629-.109069l-.298189-.600598-.295667.295666-.070134-.14126.295667-.295666-.155961-.314129zm3.023965-2.299616c-.051149.033413-.105042.074494-.161679.123246-.055507.046639-.115381.102079-.179624.16632-.227774.227776-.386309.436571-.475605.626388-.088164.187702-.101185.344116-.039063.46924l.289362.582817-.405174.405174-.549295-1.106366.405174-.405175.085337.171882c.051335-.151855.136885-.311813.256652-.479871.119439-.168713.276254-.350166.470447-.544359.027741-.027739.05889-.057413.093457-.089023.034233-.032262.072611-.067188.115129-.10478zm1.721906-1.152772c-.325599.325601-.542843.567977-.651735.727128-.108893.159156-.143231.279233-.103014.360234.032041.064538.104266.069184.216677.013932.113541-.057367.251347-.167084.413417-.329155.223391-.223392.384597-.437814.483612-.643267.100149-.207566.120796-.370622.061945-.489163l-.020109-.040502zm.766503-.87885.313393.631222-.402983.402983-.083374-.167932c-.05864.159161-.148569.323498-.269795.493013-.121555.16886-.281617.352574-.480187.551144-.251135.251135-.466861.419556-.647177.505263-.179184.083589-.29526.072043-.348227-.034644-.061794-.124466-.016402-.310296.136181-.557488.154041-.248648.414302-.556215.780784-.922698l.565052-.565052-.008828-.017781c-.041525-.083633-.134892-.086848-.280097-.009644-.144076.07509-.326349.222873-.54682.443342-.140169.14017-.272926.284261-.398273.432275-.125349.148015-.241825.298491-.349431.451429l-.083376-.16793c.134718-.173149.268323-.335336.40082-.486558.132168-.151877.263956-.293519.395364-.424929.354798-.354798.640403-.578313.856809-.67055.216406-.092229.366462-.054051.450165.114535m2.18504-2.847305.085338.171882c-.126967.087549-.255043.186058-.384228.295532-.129187.109476-.259484.229918-.39089.361325-.200033.200032-.343554.364251-.430568.492653-.085553.126947-.114597.218079-.087131.273395.020924.042149.073207.039634.15685-.007546.083314-.047835.238412-.168932.465295-.363295l.144845-.124148c.299906-.258515.522312-.422281.667216-.491303.146034-.071136.241449-.061591.286245.028627.051005.102737.000859.274592-.150438.51557-.149837.239519-.382444.516966-.697822.832343-.131409.13141-.271599.262731-.42057.393963-.147187.130432-.305347.26297-.47448.39761l-.093183-.187688c.166257-.114024.326075-.23442.47945-.361189.15305-.127425.300388-.261951.442017-.40358.189808-.18981.328624-.350306.416444-.48149.087493-.13184.117996-.224433.091514-.277777-.024522-.049388-.080555-.050021-.168098-.001902-.086083.046664-.260012.182649-.521781.407954l-.147525.125352c-.261445.225967-.459748.370067-.594908.432299-.135489.061576-.224485.049558-.26699-.036055-.051661-.10405-.009787-.266158.125625-.486323.13541-.220163.353505-.480634.654283-.781413.148927-.148927.291547-.284154.42786-.405687.136312-.121527.264854-.227896.38563-.319109m.993002-1.511873.155961.314128.830057-.830058.070133.141261-.830057.830057.298188.6006c.044793.090222.100577.121163.167352.092822.068235-.029798.186306-.128654.354217-.296564l.413933-.413934.075529.152125-.413934.413934c-.310999.310999-.538546.499618-.682641.565859-.144424.065583-.250968.029228-.319628-.10907l-.298189-.600598-.295667.295666-.070134-.141259.295667-.295666-.15596-.31413zm2.906169-1.612685c-.325601.325601-.542846.567978-.651735.727129-.108894.159155-.143233.279232-.103015.360233.032041.064538.104267.069183.216676.013933.113542-.057366.251347-.167086.413417-.329156.223392-.223391.384598-.437814.483612-.643266.10015-.207568.120796-.370622.061946-.489165l-.020109-.0405zm.766503-.87885.313392.631222-.402983.402983-.083375-.167932c-.058639.15916-.148568.323499-.269793.493013-.121556.16886-.281618.352574-.480188.551143-.251136.251136-.466861.419558-.647178.505264-.179182.083588-.295258.072043-.348226-.034644-.061795-.124465-.016403-.310294.13618-.557487.154043-.248649.414304-.556216.780785-.922699l.565052-.565052-.008828-.017782c-.041525-.083632-.134891-.086848-.280097-.009643-.144076.075091-.326349.222872-.546819.443343-.14017.140169-.272927.28426-.398273.432273-.125349.148015-.241827.298493-.349433.451431l-.083374-.16793c.134716-.173149.268323-.335338.400819-.486559.132168-.151876.263955-.29352.395364-.424929.354799-.354798.640403-.578314.856808-.67055.216407-.092229.366463-.054051.450167.114535m2.620336-3.013557c.060201-.182403.150741-.363117.271619-.542142.120876-.179019.27622-.363435.466034-.553251.255511-.25551.472731-.41212.651657-.46983.178594-.05836.304839-.013126.378735.135702l.33154.667771-.405173.405173-.328596-.661843c-.052645-.106025-.133328-.14311-.242053-.111256-.108731.031863-.248509.133206-.419335.304032-.208795.208795-.358254.405067-.448377.588812-.090129.183753-.108381.329628-.054756.437629l.31045.625293-.405174.405174-.328595-.661844c-.05297-.106683-.133655-.143768-.242055-.111255-.108728.031861-.249967.134665-.423714.308411-.205873.205874-.353709.401014-.443509.585421-.090124.18375-.108539.329297-.055243.43664l.310449.625294-.405174.405173-.549295-1.106366.405173-.405174.085337.171882c.058308-.159815.143696-.3201.256162-.480858.112466-.160754.257035-.329468.433705-.50614.178128-.178126.339382-.30883.483763-.392111.145837-.084734.267978-.118178.366425-.100337m2.347497-2.665324.402982-.402983.549296 1.106367-.402983.402983zm-.213833-.430692.402982-.402982.114274.230162-.402983.402985zm3.714589-2.413712.33154.66777-.402985.402985-.328596-.661842c-.051986-.104712-.136161-.137814-.252513-.099319-.116356.038503-.265061.148279-.446108.329326-.217554.217556-.373582.420396-.468089.608525-.094506.18813-.114948.336195-.061324.444197l.310448.625295-.405172.405172-.549296-1.106366.405174-.405174.085337.171882c.063342-.162877.151812-.325754.265413-.488631.115058-.164332.258002-.331914.428832-.502746.281793-.281792.514588-.455456.698368-.520977.183457-.066179.313112-.022876.388971.129903m1.978344-1.811301c-.325599.3256-.542842.567973-.651734.727127s-.143231.279231-.103014.360233c.032043.064536.104271.069179.216678.01393.113541-.057365.251348-.167084.41342-.329158.223388-.223388.384594-.437811.48361-.643263.100147-.207565.120797-.37062.061947-.489164l-.02011-.040504zm.766507-.878851.31339.631217-.40298.402985-.08338-.167931c-.05863.159158-.14857.323499-.269792.493015-.121553.168856-.281615.352571-.480183.551138-.251139.251139-.466861.419557-.647179.505266-.179184.08359-.295261.072044-.348226-.034646-.061795-.124464-.016401-.310294.136176-.557483.154045-.248651.414308-.55622.780786-.922699l.565053-.565052-.008827-.017782c-.041527-.083632-.134892-.086848-.280098-.009644-.144073.075087-.326349.222872-.546819.443342-.140171.140171-.272928.284261-.398275.432276-.125348.148014-.241822.298487-.349433.451431l-.08337-.167936c.134716-.173147.268321-.335334.400816-.486554.132171-.151879.263957-.293521.395366-.424932.354799-.354797.640405-.578315.856812-.670551.216403-.092228.366463-.054049.450163.11454" fill="url(#linearGradient3525)" opacity=".64"/>
    <path d="m79.52953 20.917517a16.597027 1.7865494 0 1 1 -33.194054 0 16.597027 1.7865494 0 1 1 33.194054 0z" fill="url(#radialGradient3527)" transform="matrix(.685844 .685844 -.686452 .686452 86.30481 -7.771708)"/>
    <path d="m79.52953 20.917517a16.597027 1.7865494 0 1 1 -33.194054 0 16.597027 1.7865494 0 1 1 33.194054 0z" fill="#590000" filter="url(#filter4012)" transform="matrix(.506171 .506171 -.50662 .50662 93.85046 7.297172)"/>
    <path d="m116.0081 38.69748 9.53575 9.53576c.59728.597266.43883 1.717367-.35526 2.511445l-4.75767 4.757682c-4.23339-3.255724-8.22683-6.969517-11.69195-11.691948l4.75768-4.757682c.79408-.794078 1.91418-.952524 2.51145-.355257z" fill="url(#linearGradient3529)"/>
    <path d="m122.09975 53.833541-1.66083 1.660819c-4.10321-2.9972-8.29166-7.049098-11.69194-11.691948l1.66081-1.66082z" fill="url(#linearGradient3531)"/>
    <path d="m116.0081 38.69748 9.53575 9.53576c.59728.597266.43883 1.717367-.35526 2.511445l-1.80533 1.80533-11.69194-11.691949 1.80533-1.805329c.79408-.794078 1.91418-.952524 2.51145-.355257z" fill="url(#linearGradient3533)"/>
    <path d="m116.26247 39.891089 8.51736 8.517356c.53349.533482.41545 1.510466-.26465 2.190564l-.68893.688926c-9.5427-5.327196-2.39197-2.096792-10.44327-10.443267l.68893-.688926c.6801-.680098 1.65709-.798132 2.19056-.264653z" fill="url(#linearGradient3535)"/>
    <path d="m15.291185 3.0406995a2.9831069.08838835 0 1 1 -5.966214 0 2.9831069.08838835 0 1 1 5.966214 0z" fill="url(#radialGradient3537)" transform="matrix(1.499825 1.499825 -3.339491 3.339491 111.8061 15.24202)"/>
    <path d="m108.79148 43.922152c.69169-.69169 1.30421-.988433 3.42569 1.133048 3.06684 3.066845 8.77194 9.786303 8.08024 10.477997s-3.22466-2.541438-6.0026-5.319377-5.50333-6.291668-5.50333-6.291668z" fill="url(#linearGradient3539)"/>
    <path d="m79.52953 20.917517a16.597027 1.7865494 0 1 1 -33.194054 0 16.597027 1.7865494 0 1 1 33.194054 0z" fill="#eff0ee" transform="matrix(.300215 .300215 -.30048 .30048 108.1322 18.52846)"/>
  </g>
</svg>
