<?xml version="1.0" encoding="UTF-8" standalone="no"?>
<!-- Created with Inkscape (http://www.inkscape.org/) -->
<svg height="128" width="128" xmlns="http://www.w3.org/2000/svg" xmlns:xlink="http://www.w3.org/1999/xlink">
  <defs>
    <linearGradient id="linearGradient3036">
      <stop offset="0"/>
      <stop offset="1" stop-opacity="0"/>
    </linearGradient>
    <linearGradient id="linearGradient2362">
      <stop offset="0" stop-color="#fff"/>
      <stop offset="1" stop-color="#fff" stop-opacity="0"/>
    </linearGradient>
    <linearGradient id="linearGradient2285">
      <stop offset="0" stop-color="#5e5e5e"/>
      <stop offset=".75901806" stop-color="#dedede"/>
      <stop offset=".93379617" stop-color="#8d8d8d"/>
      <stop offset="1" stop-color="#616161"/>
    </linearGradient>
    <linearGradient id="linearGradient2301">
      <stop offset="0" stop-color="#dcdcdc"/>
      <stop offset="1" stop-color="#dcdcdc" stop-opacity="0"/>
    </linearGradient>
    <radialGradient id="radialGradient5102" cx="63.912209" cy="115.70919" fy="115.7093" gradientTransform="matrix(1 0 0 .197802 0 92.82166)" gradientUnits="userSpaceOnUse" r="63.912209" xlink:href="#linearGradient3036"/>
    <radialGradient id="radialGradient5104" cx="95.796135" cy="56.931732" fx="95.990845" fy="39.602757" gradientTransform="matrix(1 0 0 1.025939 0 -1.476757)" gradientUnits="userSpaceOnUse" r="47.11924">
      <stop offset="0" stop-opacity="0"/>
      <stop offset=".4375" stop-opacity="0"/>
      <stop offset=".58240438" stop-opacity="0"/>
      <stop offset=".76442307" stop-opacity=".498039"/>
      <stop offset=".875"/>
      <stop offset=".91826922" stop-opacity=".498039"/>
      <stop offset=".96048182" stop-opacity="0"/>
      <stop offset="1" stop-opacity="0"/>
    </radialGradient>
    <radialGradient id="radialGradient5106" cx="36.747746" cy="121.95814" fx="33.78273" fy="122.4772" gradientTransform="matrix(1 0 0 .316667 0 83.33806)" gradientUnits="userSpaceOnUse" r="4.965911" xlink:href="#linearGradient3036"/>
    <linearGradient id="linearGradient5110" gradientTransform="matrix(.711801 0 0 .127338 30.17568 104.1508)" gradientUnits="userSpaceOnUse" x1="38.357395" x2="48.092775" xlink:href="#linearGradient2285" y1="86.916698" y2="86.916698"/>
    <linearGradient id="linearGradient5112" gradientTransform="matrix(1.994518 0 0 1.089569 -19.41453 32.36672)" gradientUnits="userSpaceOnUse" spreadMethod="reflect" x1="41.109016" x2="44.111984" xlink:href="#linearGradient2301" y1="79.413818" y2="79.413818"/>
    <linearGradient id="linearGradient5114" gradientTransform="matrix(1.694764 0 0 1.673368 -49.03642 -82.13889)" gradientUnits="userSpaceOnUse" x1="65.788818" x2="65.09919" xlink:href="#linearGradient3036" y1="122.79063" y2="106.68057"/>
    <radialGradient id="radialGradient5116" cx="64.63961" cy="122.04091" gradientTransform="matrix(1 0 0 .844444 0 18.98414)" gradientUnits="userSpaceOnUse" r="3.724434" xlink:href="#linearGradient3036"/>
    <linearGradient id="linearGradient5118" gradientUnits="userSpaceOnUse" x1="-42.789177" x2="229.1772" y1="82.913582" y2="81.155327">
      <stop offset="0" stop-color="#c3c3c3"/>
      <stop offset="1" stop-color="#fff"/>
    </linearGradient>
    <radialGradient id="radialGradient5120" cx="59.385818" cy="52.046673" gradientTransform="matrix(1.165294 0 0 1.180294 -9.816118 -9.597466)" gradientUnits="userSpaceOnUse" r="43.225086">
      <stop offset="0" stop-opacity="0"/>
      <stop offset=".4375" stop-opacity="0"/>
      <stop offset=".56588125" stop-opacity="0"/>
      <stop offset=".69710225" stop-opacity=".247059"/>
      <stop offset=".77537441" stop-opacity=".498039"/>
      <stop offset=".875"/>
      <stop offset=".875" stop-opacity=".498039"/>
      <stop offset="1" stop-opacity="0"/>
    </radialGradient>
    <linearGradient id="linearGradient5122" gradientTransform="matrix(.711801 0 0 .702815 -147.854 -41.08471)" gradientUnits="userSpaceOnUse" x1="246.64888" x2="241.94435" xlink:href="#linearGradient2285" y1="220.05489" y2="211.90642"/>
    <linearGradient id="linearGradient5124" gradientTransform="matrix(1.975659 0 0 1.897617 -188.5133 -102.9968)" gradientUnits="userSpaceOnUse" spreadMethod="reflect" x1="41.109016" x2="44.111984" xlink:href="#linearGradient2301" y1="79.413818" y2="79.413818"/>
    <linearGradient id="linearGradient5126" gradientTransform="matrix(1.096614 0 0 1.082769 -8.66059 -10.68858)" gradientUnits="userSpaceOnUse" x1="74.514832" x2="52.587749" xlink:href="#linearGradient2362" y1="17.232468" y2="99.06546"/>
    <linearGradient id="linearGradient5128" gradientUnits="userSpaceOnUse" x1="-5.322615" x2="27.029743" y1="-4.611898" y2="28.908699">
      <stop offset="0" stop-color="#fff"/>
      <stop offset="1" stop-color="#aeaeae"/>
    </linearGradient>
    <radialGradient id="radialGradient5130" cx="64.241364" cy="57.935471" gradientTransform="matrix(1.17575 0 0 1.150479 -11.0796 -7.695017)" gradientUnits="userSpaceOnUse" r="8.038895" xlink:href="#linearGradient2362"/>
    <linearGradient id="linearGradient5132" gradientUnits="userSpaceOnUse" x1="67.323158" x2="66.748955" xlink:href="#linearGradient2362" y1="59.081844" y2="44.790394"/>
    <radialGradient id="radialGradient5134" cx="57.865925" cy="43.186234" gradientTransform="matrix(-.00000384 3.026985 -3.55366 0 216.5391 -130.5087)" gradientUnits="userSpaceOnUse" r="13.084519">
      <stop offset="0" stop-color="#383838"/>
      <stop offset="1" stop-color="#fff"/>
    </radialGradient>
    <radialGradient id="radialGradient5136" cx="-95.902596" cy="-49.137733" fx="-123.61227" fy="-91.140144" gradientTransform="matrix(.08955022 .01129878 -.01016417 .07853655 77.84682 62.09231)" gradientUnits="userSpaceOnUse" r="96.337218">
      <stop offset="0" stop-color="#00a7b3"/>
      <stop offset="1" stop-color="#00a7b3" stop-opacity="0"/>
    </radialGradient>
    <linearGradient id="linearGradient5138" gradientTransform="matrix(-.711801 0 0 .702815 270.664 -40.88715)" gradientUnits="userSpaceOnUse" x1="246.64888" x2="241.94435" xlink:href="#linearGradient2285" y1="220.05489" y2="211.90642"/>
    <linearGradient id="linearGradient5140" gradientTransform="matrix(1.975659 0 0 1.897617 -128.1822 2.195151)" gradientUnits="userSpaceOnUse" spreadMethod="reflect" x1="41.109016" x2="44.111984" xlink:href="#linearGradient2301" y1="79.413818" y2="79.413818"/>
    <radialGradient id="radialGradient5142" cx="45.872475" cy="82.924576" gradientTransform="matrix(-.02736309 -.194393 -.585161 .08030165 121.0889 97.82741)" gradientUnits="userSpaceOnUse" r="23.375" xlink:href="#linearGradient3036"/>
    <radialGradient id="radialGradient5144" cx="45.872475" cy="82.924576" gradientTransform="matrix(.02736309 -.194393 .585161 .08030165 1.771137 97.62985)" gradientUnits="userSpaceOnUse" r="23.375" xlink:href="#linearGradient3036"/>
  </defs>
  <g>
    <path d="m50.892799 3.2812959v-2.79470843z" fill="#fff" fill-opacity=".756881"/>
    <path d="m182.7347-69.983324v-2.794709z" fill="#fff" fill-opacity=".756881"/>
    <g transform="translate(2.633141)">
      <path d="m127.82442 115.70919a63.912209 12.641975 0 1 1 -127.82442 0 63.912209 12.641975 0 1 1 127.82442 0z" fill="url(#radialGradient5102)" opacity=".381395" transform="matrix(.896622 0 0 .449619 4.268767 70.41239)"/>
      <path d="m142.91537 56.931728a47.11924 47.11924 0 1 1 -94.238475 0 47.11924 47.11924 0 1 1 94.238475 0z" fill="url(#radialGradient5104)" opacity=".18" transform="matrix(1.178636 0 0 1.163757 -52.7928 -11.58547)"/>
      <path d="m41.713657 121.95814a4.9659114 1.5725386 0 1 1 -9.931823 0 4.9659114 1.5725386 0 1 1 9.931823 0z" fill="url(#radialGradient5106)" opacity=".495902" transform="matrix(3.92004 -.710808 .375835 2.651888 -166.5583 -175.4938)"/>
      <path d="m41.713657 121.95814a4.9659114 1.5725386 0 1 1 -9.931823 0 4.9659114 1.5725386 0 1 1 9.931823 0z" fill="url(#radialGradient5106)" opacity=".495902" transform="matrix(-3.92004 -.710808 -.375835 2.651888 288.6834 -176.3245)"/>
      <rect fill="url(#linearGradient5110)" height="61.375015" rx=".721006" ry=".222507" width="6.929657" x="57.478386" y="58.752819"/>
      <rect height="11.441015" rx="2.969851" ry="2.932357" width="10.559469" x="55.663471" y="111.64851"/>
      <rect fill="url(#linearGradient5112)" height="10.017164" opacity=".479508" rx="2.077395" ry="1.999335" width="9.082043" x="56.330929" y="112.43706"/>
      <path d="m59.322506 96.38857c-.086144.021737-.182541.065964-.264813.104585-.846668.435376-1.482916 1.741976-1.482916 3.294444v12.811721c-.199486.08655-.422857.2264-.582576.36605-.024017.02204-.083004.08146-.105917.10458-.022321.02365-.08479.07993-.105927.10459-.030779.03774-.077979.117-.105918.15688-.044933.06759-.122501.18859-.158886.26147-.048424.10337-.076133.25408-.105928.36604-.034691.14536-.052959.31488-.052959.47064v6.01366c0 .22498.035353.47831.105927.67981.029043.07661.067786.18958.105918.26146.127637.22667.324584.46479.529618.62751.130717.09877.32319.1949.476648.26147.248703.1009.559664.15687.84738.15687h.370732c.076744.05743.183404.11502.264804.15689.180986.08495.384786.15687.582576.15687h2.436222c.305705 0 .586509-.11854.847391-.31376h.423689c.19781 0 .40159-.00303.582577-.05228.211674-.06311.459143-.1932.635534-.31376.079936-.05747.194401-.14141.264804-.20918.068709-.06935.154041-.1831.211845-.26146.093157-.13291.206729-.31738.264804-.47063.070575-.2015.105927-.45483.105927-.67981v-6.01366c0-.15576-.018267-.32528-.052958-.47064-.106399-.39986-.374684-.78439-.688504-1.04585-.025622-.02036-.079262-.08544-.105918-.10459-.122128-.08347-.283793-.15241-.423689-.20917v-12.811721c0-1.462892-.552942-2.686827-1.32404-3.189858-.22293-.135007-.4897-.209171-.741462-.209171h-2.436222c-.107884 0-.214383-.026071-.317763 0z" fill="url(#linearGradient5114)" opacity=".77459"/>
      <path d="m68.364044 122.04091a3.7244337 3.1450772 0 1 1 -7.448867 0 3.7244337 3.1450772 0 1 1 7.448867 0z" fill="url(#radialGradient5116)" opacity=".495902" transform="matrix(1.958395 0 0 1.673368 -66.08848 -80.89093)"/>
      <path d="m102.6109 53.232281a43.225086 43.809208 0 1 1 -86.450168 0 43.225086 43.809208 0 1 1 86.450168 0z" fill="url(#linearGradient5118)" transform="matrix(1.135607 0 0 1.14052 -6.92705 -8.913674)"/>
      <path d="m60.843672 100.20565c-11.70553 0-22.401029-4.306774-30.748275-11.435263 6.311095-3.371201 17.322303-5.604251 29.895034-5.604251 13.279846 0 24.846051 2.495387 30.937884 6.187353-8.243598 6.777218-18.703183 10.852161-30.084643 10.852161z" style="fill:#6b6b6b;stroke:#6b6b6b;stroke-width:3.071574;stroke-linecap:round;stroke-linejoin:round;stroke-dashoffset:4"/>
      <path d="m60.843672 3.9625841c-11.70553 0-22.401029 4.3067765-30.748275 11.4352639 6.311095 3.371201 17.322303 5.604252 29.895034 5.604252 13.279846 0 24.846051-2.495387 30.937884-6.187352-8.243598-6.7772188-18.703183-10.8521639-30.084643-10.8521639z" stroke="#000" stroke-dashoffset="4" stroke-linecap="round" stroke-linejoin="round" stroke-width="3.071574"/>
      <path d="m60.511857 1.8965724v99.4648576" fill="none" stroke="#848484" stroke-width=".996844"/>
      <path d="m102.6109 53.232281a43.225086 43.809208 0 1 1 -86.450168 0 43.225086 43.809208 0 1 1 86.450168 0z" fill="url(#radialGradient5120)" transform="matrix(1.135607 0 0 1.14052 -6.92705 -8.913674)"/>
      <path d="m45.974006 95.396253-37.4317693 21.327377 3.4484883 5.94319 43.450948-24.794239c-3.569227-.0055-6.856769-.920477-9.467667-2.476328z" fill="url(#linearGradient5122)"/>
      <rect height="14.473642" rx="2.94177" ry="2.960518" transform="matrix(-.504772 -.863253 -.868754 .495244 0 0)" width="10.459625" x="-114.14507" y="40.534199"/>
      <rect fill="url(#linearGradient5124)" height="12.402776" opacity=".479508" rx="2.057753" ry="2.018534" transform="matrix(-.504772 -.863253 -.868754 .495244 0 0)" width="8.996169" x="-113.48389" y="41.498646"/>
      <path d="m59.329564 2.8798977c-24.793866.6121812-44.721349 20.3772843-44.721349 41.8558623 0 3.324065.471977 6.558256 1.370768 9.643427 29.914656-5.719406 59.659296-5.648441 89.305617-.812077.75159-2.836223 1.1309-5.799972 1.1309-8.83135 0-21.819506-20.546041-41.8558623-45.886514-41.8558623-.395942 0-.805869-.0097165-1.199422 0z" fill="url(#linearGradient5126)" opacity=".844262"/>
      <g transform="matrix(1.233814 0 0 1.218237 -18.6959 -10.41345)">
        <path d="m25.529743 9.526041a16.354992 16.354992 0 1 1 -32.7099836 0 16.354992 16.354992 0 1 1 32.7099836 0z" stroke="url(#linearGradient5128)" stroke-dashoffset="4" stroke-linecap="round" stroke-linejoin="round" stroke-width="3" transform="matrix(1.236964 0 0 1.236964 52.84864 38.84963)"/>
        <g transform="translate(.564133 -1.692399)">
          <path d="m72.491081 52.829288a8.0388947 8.0388947 0 1 1 -16.077789 0 8.0388947 8.0388947 0 1 1 16.077789 0z" fill="url(#radialGradient5130)" opacity=".504098" transform="matrix(1.298246 0 0 1.298246 -19.64569 -15.333)"/>
          <path d="m72.491081 52.829288a8.0388947 8.0388947 0 1 1 -16.077789 0 8.0388947 8.0388947 0 1 1 16.077789 0z" fill="url(#linearGradient5132)" transform="matrix(.982457 0 0 -.789474 .707604 90.3057)"/>
          <path d="m77.850343 51.983089a11.705758 11.705758 0 1 1 -23.411516 0 11.705758 11.705758 0 1 1 23.411516 0z" style="fill:none;stroke-width:2.757521;stroke-linecap:round;stroke-linejoin:round;stroke-dashoffset:4;stroke:url(#radialGradient5134)" transform="matrix(1.192503 0 0 1.192503 -14.84851 -9.583778)"/>
        </g>
      </g>
      <path d="m70.046579 57.804164-.289735 5.419387-.387728-5.419504-2.763051 4.808679 2.176412-5.143236-5.610883 3.433373 5.272253-4.012723-6.290431.258169 6.290552-.927079-5.271041-2.827121 5.609875 2.247887-2.82585-4.995801 3.412608 4.661448.389952-5.666771.28751 5.66689 3.514693-4.66025-2.928054 4.994805 4.759022-1.553252-4.420394 2.132604 5.037697.879797-5.037815-.210889 3.066223 2.777645-3.405057-2.198411 2.926068 6.183245z" fill="url(#radialGradient5136)"/>
      <path d="m76.835967 95.593815 37.431773 21.327375-3.44849 5.9432-43.450951-24.794246c3.569229-.0055 6.85677-.920478 9.467668-2.476329z" fill="url(#linearGradient5138)"/>
      <rect height="14.473642" rx="2.94177" ry="2.960518" transform="matrix(.504772 -.863253 .868754 .495244 0 0)" width="10.459625" x="-53.814114" y="145.72615"/>
      <rect fill="url(#linearGradient5140)" height="12.402776" opacity=".479508" rx="2.057753" ry="2.018534" transform="matrix(.504772 -.863253 .868754 .495244 0 0)" width="8.996169" x="-53.152962" y="146.69057"/>
      <path d="m76.835967 95.569121 37.431763 21.327379-3.44849 5.94319-43.450941-24.794241c3.569223-.005501 6.856769-.920478 9.467668-2.476328z" fill="url(#radialGradient5142)"/>
      <path d="m46.024021 95.371559-37.431762 21.327381 3.448488 5.94319 43.450941-24.794244c-3.569223-.0055-6.856768-.920477-9.467667-2.476327z" fill="url(#radialGradient5144)"/>
    </g>
    <path d="m210.3772-113.1733v-2.79471z" fill="#fff" fill-opacity=".756881"/>
  </g>
</svg>
