<?xml version="1.0" encoding="utf-8"?>
<!-- Generator: Adobe Illustrator 12.0.0, SVG Export Plug-In . SVG Version: 6.00 Build 51448)  -->
<svg enable-background="new -36.428 -4.5 128 128" height="128" viewBox="-36.428 -4.5 128 128" width="128" xmlns="http://www.w3.org/2000/svg" xmlns:xlink="http://www.w3.org/1999/xlink">
  <defs>
    <radialGradient id="XMLID_43_" cx="-11.6638" cy="11.4248" gradientTransform="matrix(1 0 0 -1 36.9277 123)" gradientUnits="userSpaceOnUse" r="8.989">
      <stop offset="0" stop-color="#bbb"/>
      <stop offset=".2271" stop-color="#a9a9a9"/>
      <stop offset=".6814" stop-color="#7a7a7a"/>
      <stop offset="1" stop-color="#555"/>
    </radialGradient>
    <linearGradient id="XMLID_44_" gradientTransform="matrix(1 0 0 -1 36.9277 123)" gradientUnits="userSpaceOnUse" x1="-19.7185" x2="-10.7522" y1="105.1201" y2="106.2409">
      <stop offset="0" stop-color="#888"/>
      <stop offset="1" stop-color="#888a85"/>
    </linearGradient>
    <linearGradient id="XMLID_45_" gradientTransform="matrix(1 0 0 -1 36.9277 123)" gradientUnits="userSpaceOnUse" x1="-20.1594" x2="3.6184" y1="106.5508" y2="106.5508">
      <stop offset="0" stop-color="#ddd"/>
      <stop offset=".2722" stop-color="#eee"/>
      <stop offset=".4705" stop-color="#eaeaeb"/>
      <stop offset=".6767" stop-color="#dddee1"/>
      <stop offset=".8858" stop-color="#c9cbd2"/>
      <stop offset="1" stop-color="#babdc7"/>
    </linearGradient>
    <linearGradient id="lg1">
      <stop offset="0" stop-color="#555753"/>
      <stop offset="1" stop-color="#2e3436"/>
    </linearGradient>
    <linearGradient id="XMLID_46_" gradientTransform="matrix(1 0 0 -1 36.9277 123)" gradientUnits="userSpaceOnUse" x1="-12.1931" x2="-17.7971" xlink:href="#lg1" y1="107.6729" y2="107.6729"/>
    <linearGradient id="XMLID_47_" gradientTransform="matrix(1 0 0 -1 36.9277 123)" gradientUnits="userSpaceOnUse" x1=".696" x2="-4.9085" xlink:href="#lg1" y1="107.6729" y2="107.6729"/>
    <linearGradient id="lg2">
      <stop offset="0" stop-color="#e3ad00"/>
      <stop offset="1" stop-color="#ff7e00"/>
    </linearGradient>
    <linearGradient id="XMLID_48_" gradientTransform="matrix(1 0 0 -1 36.9277 123)" gradientUnits="userSpaceOnUse" x1="-15.8728" x2="-15.2374" xlink:href="#lg2" y1="106.4863" y2="108.8578"/>
    <linearGradient id="XMLID_49_" gradientTransform="matrix(1 0 0 -1 36.9277 123)" gradientUnits="userSpaceOnUse" x1="-1.8631" x2="-1.2274" xlink:href="#lg2" y1="106.4854" y2="108.8577"/>
    <linearGradient id="XMLID_50_" gradientTransform="matrix(1 0 0 -1 36.9277 123)" gradientUnits="userSpaceOnUse" x1="-33.0926" x2="16.6051" y1="48.1567" y2="54.3733">
      <stop offset="0" stop-color="#8e79b9"/>
      <stop offset=".8989" stop-color="#34176e"/>
      <stop offset="1" stop-color="#c080ff"/>
    </linearGradient>
    <linearGradient id="XMLID_51_" gradientTransform="matrix(1 0 0 -1 36.9277 123)" gradientUnits="userSpaceOnUse" x1="-32.8889" x2="16.3955" y1="48.186" y2="54.3466">
      <stop offset="0" stop-color="#dfbfff"/>
      <stop offset="1" stop-color="#34176e"/>
    </linearGradient>
    <linearGradient id="XMLID_52_" gradientTransform="matrix(1 0 0 -1 36.9277 123)" gradientUnits="userSpaceOnUse" x1="-18.0061" x2="1.8535" y1="91.8555" y2="11.4488">
      <stop offset=".0056" stop-color="#d3d7cf"/>
      <stop offset=".1685" stop-color="#f2f2f0"/>
      <stop offset=".9101" stop-color="#888a85"/>
    </linearGradient>
    <linearGradient id="XMLID_53_" gradientTransform="matrix(1 0 0 -1 36.9277 123)" gradientUnits="userSpaceOnUse" x1="-22.4773" x2="5.9488" y1="95.2539" y2="11.4655">
      <stop offset="0" stop-color="#eeeef2"/>
      <stop offset="1" stop-color="#babdc7"/>
    </linearGradient>
    <radialGradient id="XMLID_54_" cx="-10.1414" cy="60.5" gradientTransform="matrix(1 0 0 -1 36.9277 123)" gradientUnits="userSpaceOnUse" r="50.2501">
      <stop offset="0" stop-color="#eeeef2"/>
      <stop offset=".3554" stop-color="#ececf0"/>
      <stop offset=".549" stop-color="#e4e4e9"/>
      <stop offset=".7038" stop-color="#d6d7dc"/>
      <stop offset=".8379" stop-color="#c3c4cb"/>
      <stop offset=".9576" stop-color="#aaabb4"/>
      <stop offset=".9882" stop-color="#a2a4ad"/>
    </radialGradient>
  </defs>
  <switch>
    <foreignObject height="1" requiredExtensions="http://ns.adobe.com/AdobeIllustrator/10.0/" width="1"/>
    <g>
      <g fill="#323232">
        <path d="m47.71 36.935v-6.036c0-.619-.501-1.121-1.121-1.121h-5.043v-25.778h-25.778v25.778h-7.285c-.62 0-1.121.502-1.121 1.121v6.036c-2.101 1.465-3.362 3.283-3.362 5.26v24.79 7.303 8.749h.005c.04 5.64 1.263 10.911 3.357 15.426v3.045c0 8.034 6.536 14.57 14.569 14.57h11.209c8.034 0 14.57-6.536 14.57-14.57v-3.045c2.094-4.515 3.316-9.786 3.357-15.426h.005v-8.749-7.303-24.79c0-1.977-1.26-3.795-3.362-5.26z" opacity=".25"/>
        <path d="m15.768 0c-2.205 0-4 1.794-4 4v21.778c-1.175 0-3.285 0-3.285 0-2.824 0-5.121 2.297-5.121 5.121v4.327c-2.178 2.084-3.362 4.478-3.362 6.969v40.841c.045 5.603 1.214 11.176 3.362 16.155v2.314c0 10.239 8.331 18.57 18.569 18.57h11.209c10.239 0 18.57-8.331 18.57-18.57 0 0 0-2.009 0-2.314 2.15-4.984 3.317-10.553 3.357-16.128 0-.008.005-8.773.005-8.773v-32.095c0-2.491-1.185-4.885-3.362-6.97 0-.661 0-4.326 0-4.326 0-2.824-2.297-5.121-5.121-5.121 0 0-.521 0-1.043 0 0-1.828 0-21.778 0-21.778 0-2.206-1.794-4-4-4z" opacity=".05"/>
        <path d="m15.768 1c-1.654 0-3 1.346-3 3v22.778c-1.315 0-4.285 0-4.285 0-2.272 0-4.121 1.849-4.121 4.121v4.72c-2.177 1.946-3.362 4.203-3.362 6.576v40.841c.045 5.57 1.214 11.082 3.362 15.977v2.494c0 9.688 7.882 17.57 17.569 17.57h11.209c9.688 0 17.57-7.882 17.57-17.57 0 0 0-2.18 0-2.494 2.149-4.898 3.317-10.406 3.357-15.956 0-.007.005-8.768.005-8.768v-32.094c0-2.373-1.187-4.63-3.362-6.577 0-.701 0-4.72 0-4.72 0-2.272-1.849-4.121-4.121-4.121 0 0-1.142 0-2.043 0 0-1.835 0-22.778 0-22.778 0-1.654-1.346-3-3-3z" opacity=".1"/>
        <path d="m15.768 2c-1.103 0-2 .897-2 2v23.778c-1.414 0-5.285 0-5.285 0-1.721 0-3.121 1.4-3.121 3.121v5.134c-2.175 1.805-3.362 3.918-3.362 6.162v40.841c.045 5.537 1.214 10.986 3.362 15.796v2.675c0 9.137 7.433 16.57 16.569 16.57h11.209c9.138 0 16.57-7.435 16.57-16.57 0 0 0-2.354 0-2.675 2.149-4.813 3.317-10.261 3.357-15.782 0-.006.005-8.762.005-8.762v-32.093c0-2.244-1.188-4.358-3.362-6.163 0-.743 0-5.134 0-5.134 0-1.721-1.4-3.121-3.121-3.121 0 0-1.91 0-3.043 0 0-1.842 0-23.778 0-23.778 0-1.103-.896-2-2-2z" opacity=".15"/>
        <path d="m15.768 3c-.552 0-1 .448-1 1v24.778c-1.489 0-6.285 0-6.285 0-1.169 0-2.121.951-2.121 2.121v5.572c-2.174 1.66-3.362 3.622-3.362 5.724v40.841c.044 5.5 1.212 10.886 3.362 15.612v2.857c0 8.586 6.984 15.57 15.569 15.57h11.209c8.586 0 15.57-6.984 15.57-15.57 0 0 0-2.529 0-2.857 2.149-4.727 3.317-10.11 3.357-15.605l.005-8.756v-32.092c0-2.103-1.188-4.064-3.362-5.725 0-.791 0-5.572 0-5.572 0-1.169-.951-2.121-2.121-2.121 0 0-2.758 0-4.043 0 0-1.848 0-24.778 0-24.778 0-.552-.447-1-1-1z" opacity=".2"/>
      </g>
      <path d="m27.536 103.31c-3.095 0-5.604 3.513-5.604 7.846s2.509 7.844 5.604 7.844c3.096 0 5.604-3.513 5.604-7.846s-2.508-7.844-5.604-7.844zm0 14.569c-2.43 0-4.483-3.08-4.483-6.725 0-3.646 2.054-6.726 4.483-6.726s4.482 3.08 4.482 6.726c.001 3.645-2.052 6.725-4.482 6.725z" fill="url(#XMLID_43_)"/>
      <rect fill="url(#XMLID_44_)" height="26.898" width="25.778" x="15.768" y="3"/>
      <path d="m16.768 4v24.898h23.778c0-1.782 0-23.116 0-24.898-1.774 0-22.005 0-23.778 0z" fill="url(#XMLID_45_)"/>
      <rect fill="url(#XMLID_46_)" height="4.483" width="5.604" x="19.131" y="13.087"/>
      <path d="m20.251 14.208v2.241h3.362c0-.84 0-1.401 0-2.241-1.076 0-2.286 0-3.362 0z" fill="#2e3436"/>
      <rect fill="url(#XMLID_47_)" height="4.483" width="5.604" x="32.02" y="13.087"/>
      <path d="m33.14 14.208v2.241h3.362c0-.84 0-1.401 0-2.241-1.075 0-2.286 0-3.362 0z" fill="#2e3436"/>
      <rect fill="url(#XMLID_48_)" height="2.241" width="1.12" x="20.812" y="14.208"/>
      <rect fill="url(#XMLID_49_)" height="2.241" width="1.121" x="34.822" y="14.208"/>
      <rect fill="#ddd" height="25.899" width="1.121" x="16.889" y="4"/>
      <rect fill="#eee" height="25.778" width="1.121" x="39.584" y="4.121"/>
      <path d="m34.459 32.447h-13.846c-9.174 0-16.613 3.917-16.613 8.748v24.79 7.303 8.749h.005c.119 16.727 10.607 30.239 23.531 30.239s23.411-13.514 23.531-30.239h.005v-8.749-7.303-24.79c0-4.831-7.439-8.748-16.613-8.748z" fill="#1d0a55"/>
      <path d="m20.613 33.447c-8.463 0-15.613 3.548-15.613 7.748v40.841c.12 16.119 10.228 29.239 22.536 29.239s22.415-13.12 22.531-29.246l.005-8.742v-32.092c0-4.2-7.15-7.749-15.613-7.749z" fill="url(#XMLID_50_)"/>
      <path d="m20.613 35.809c-7.966 0-13.251 3.242-13.251 5.386v40.841c.111 14.812 9.161 26.877 20.174 26.877 11.015 0 20.062-12.068 20.168-26.9 0 .016.006-8.727.006-8.727v-32.091c0-2.145-5.285-5.386-13.251-5.386z" fill="url(#XMLID_51_)"/>
      <path d="m33.14 28.778h-24.657c-.62 0-1.121.502-1.121 1.121v8.25c0 .21.059.416.169.594 4.806 7.694 7.675 20.938 7.675 35.426s-2.869 13.161-7.675 20.855c-.11.179-.169.385-.169.595v4.888c0 8.034 6.536 14.57 14.569 14.57h11.209c8.034 0 14.57-6.536 14.57-14.57v-4.888c0-.21-.059-.416-.171-.595-4.806-7.694-7.675-6.367-7.675-20.855s2.869-27.731 7.675-35.426c.112-.178.171-.384.171-.594v-8.25c0-.619-.501-1.121-1.121-1.121h-13.449z" fill="url(#XMLID_52_)"/>
      <path d="m8.483 29.778c-.066 0-.121.054-.121.121v8.25c4.919 7.911 7.845 21.352 7.845 36.02 0 11.164-1.741 13.346-4.626 16.961-.943 1.182-2.013 2.521-3.201 4.425l-.018 4.952c0 7.482 6.087 13.57 13.569 13.57h11.209c7.482 0 13.57-6.088 13.57-13.57v-4.888c-1.207-1.967-2.276-3.307-3.22-4.489-2.886-3.615-4.626-5.797-4.626-16.961 0-14.667 2.926-28.109 7.826-35.956l.02-8.314c0-.066-.055-.121-.121-.121z" fill="url(#XMLID_53_)"/>
      <path d="m9.362 30.778v7.12c4.912 8.084 7.845 21.595 7.845 36.271 0 11.514-1.927 13.929-4.844 17.585-.884 1.106-1.887 2.384-2.984 4.109-.002.537-.017 4.646-.017 4.646 0 6.929 5.639 12.566 12.569 12.566h11.209c6.933 0 12.57-5.64 12.57-12.57 0 0 0-4.05 0-4.584-1.11-1.775-2.114-3.057-2.997-4.164-2.922-3.661-4.849-6.076-4.849-17.59 0-14.689 2.927-28.176 7.827-36.208.001-.42.014-5.821.017-7.183-1.641.002-34.707.002-36.346.002z" fill="url(#XMLID_54_)"/>
      <g enable-background="new">
        <path d="m28.248 101.996c1.768 0 2.84 1.072 2.84 2.648 0 1.6-1.208 2.535-2.744 2.535-1.615 0-2.823-1.031-2.823-2.623 0-1.656 1.239-2.56 2.727-2.56zm.073 3.897c1.056 0 1.8-.496 1.8-1.312 0-.824-.784-1.296-1.832-1.296-.968 0-1.8.464-1.8 1.304 0 .823.784 1.304 1.832 1.304z" fill="#323232"/>
      </g>
      <g enable-background="new">
        <path d="m31 97.063-.976.488c-.376.2-.656.328-.969.479v.017c.312.112.593.248.969.416l.976.449v1.392l-2.728-1.56-2.664 1.504v-1.4l.983-.473c.328-.159.592-.279.896-.407v-.017c-.344-.127-.584-.231-.896-.367l-.983-.456v-1.392l2.632 1.52 2.76-1.6z" fill="#323232"/>
      </g>
      <g enable-background="new">
        <path d="m31 93.154h-2.208l-3.184 1.703v-1.392l1.296-.552c.392-.168.68-.28 1.031-.416v-.016c-.336-.121-.647-.248-1.031-.408l-1.296-.545v-1.367l3.144 1.775h2.248z" fill="#323232"/>
      </g>
      <g enable-background="new" fill="#323232">
        <path d="m30.752 85.016c.128.377.304 1.088.304 1.801 0 .983-.248 1.695-.728 2.191-.464.496-1.168.768-1.96.76-1.792-.008-2.816-1.312-2.816-3.08 0-.695.137-1.231.265-1.496l.976.256c-.128.297-.232.664-.232 1.257 0 1.016.576 1.784 1.744 1.784 1.112 0 1.769-.696 1.769-1.696 0-.28-.032-.504-.08-.601h-1.128v.832h-.952v-2.008z"/>
        <path d="m28.72 80.855v1.984h1.28v-2.216h1v3.44h-5.392v-3.328h1v2.104h1.12v-1.984z"/>
        <path d="m31 79.792h-5.392v-1.425l1.976-1.119c.568-.32 1.24-.641 1.848-.881v-.023c-.712.08-1.439.104-2.256.104h-1.567v-1.119h5.391v1.279l-2.08 1.152c-.576.32-1.271.672-1.904.936l.009.024c.712-.032 1.472-.048 2.352-.048h1.623z"/>
      </g>
      <path d="m28.115 36.843-1.59 3.242h1.148v15.1c-1.48-1.481-3.537-3.538-3.587-3.587 0-.07 0-1.279 0-2.129.708-.173 1.237-.811 1.237-1.573 0-.896-.729-1.621-1.623-1.621s-1.62.726-1.62 1.621c0 .75.511 1.38 1.203 1.564v2.408c0 .069.029.139.083.191l4.307 4.309v2.484c-1.137.22-1.995 1.221-1.995 2.421 0 1.363 1.104 2.47 2.468 2.47s2.47-1.105 2.47-2.47c0-1.2-.859-2.202-1.995-2.421v-5.899l3.984-3.986c.054-.052.085-.123.085-.191v-3.177h1.237v-3.242h-3.241v3.242h1.199v2.907c-.047.046-1.826 1.825-3.266 3.265v-11.686h1.146z" fill="#323232"/>
    </g>
  </switch>
</svg>
