<?xml version="1.0" encoding="UTF-8" standalone="no"?>
<svg xmlns="http://www.w3.org/2000/svg" xmlns:xlink="http://www.w3.org/1999/xlink" width="115" height="127" viewBox=".004 -.104 115 127">
  <linearGradient id="d" x1="57.584" x2="57.584" y1="154.013" y2="-101.485" gradientUnits="userSpaceOnUse">
    <stop offset="0" stop-color="#fff"/>
    <stop offset=".258" stop-color="#f1f1f1"/>
    <stop offset=".74" stop-color="#cecece"/>
    <stop offset=".86" stop-color="#c4c4c4"/>
  </linearGradient>
  <linearGradient id="a">
    <stop offset="0" stop-color="#b2b2b2"/>
    <stop offset="1" stop-color="#828282"/>
  </linearGradient>
  <linearGradient id="e" x1="-32.669" x2="49.83" y1="-26.885" y2="55.614" gradientUnits="userSpaceOnUse" xlink:href="#a"/>
  <linearGradient id="f" x1="36.688" x2="197.672" y1="24.87" y2="110.514" gradientUnits="userSpaceOnUse">
    <stop offset="0" stop-color="#fff"/>
    <stop offset=".503" stop-color="#e7e7e7"/>
    <stop offset="1" stop-color="#d4d4d4"/>
  </linearGradient>
  <linearGradient id="b">
    <stop offset="0" stop-color="#fff"/>
    <stop offset="1" stop-color="#474747"/>
  </linearGradient>
  <linearGradient id="g" x1="105.557" x2="96.652" y1="79.939" y2="71.034" gradientUnits="userSpaceOnUse" xlink:href="#b"/>
  <linearGradient id="h" x1="105.556" x2="96.652" y1="58.058" y2="49.154" gradientUnits="userSpaceOnUse" xlink:href="#b"/>
  <linearGradient id="i" x1="105.556" x2="96.652" y1="36.179" y2="27.274" gradientUnits="userSpaceOnUse" xlink:href="#b"/>
  <linearGradient id="c">
    <stop offset="0"/>
    <stop offset="1"/>
  </linearGradient>
  <radialGradient id="j" cx="69.442" cy="101.362" r="66.197" gradientTransform="matrix(.935 0 0 1.1875 3.7723 -18.8087)" gradientUnits="userSpaceOnUse" xlink:href="#c"/>
  <linearGradient id="k" x1="30.183" x2="73.043" y1="33.982" y2="76.841" gradientTransform="matrix(1 -.0092 .0092 1 -5.3904 .7248)" gradientUnits="userSpaceOnUse">
    <stop offset="0" stop-color="#ff6100"/>
    <stop offset=".068" stop-color="#fe7b1a"/>
    <stop offset=".198" stop-color="#fba747"/>
    <stop offset=".323" stop-color="#f9ca6a"/>
    <stop offset=".441" stop-color="#f8e383"/>
    <stop offset=".548" stop-color="#f7f292"/>
    <stop offset=".635" stop-color="#f7f797"/>
    <stop offset="1" stop-color="#ffcf2d"/>
  </linearGradient>
  <linearGradient id="l" x1="54.664" x2="54.664" y1="33.019" y2="132.19" gradientUnits="userSpaceOnUse">
    <stop offset="0" stop-color="#fff"/>
    <stop offset="1" stop-color="#ff8a00"/>
  </linearGradient>
  <linearGradient id="m" x1="59.449" x2="59.449" y1="29.814" y2="64.437" gradientTransform="matrix(1 -.0092 .0092 1 -5.3914 .7243)" gradientUnits="userSpaceOnUse">
    <stop offset="0" stop-color="#fff"/>
    <stop offset="1" stop-color="#fff" stop-opacity="0"/>
  </linearGradient>
  <radialGradient id="n" cx="102.131" cy="117.697" r="34.736" gradientUnits="userSpaceOnUse" xlink:href="#c"/>
  <linearGradient id="o" x1="97.682" x2="88.754" y1="97.629" y2="135.242" gradientUnits="userSpaceOnUse">
    <stop offset="0" stop-color="#fff"/>
    <stop offset="1" stop-color="#ccc"/>
  </linearGradient>
  <linearGradient id="p" x1="75.973" x2="89.769" y1="87.541" y2="101.337" gradientUnits="userSpaceOnUse" xlink:href="#a"/>
  <linearGradient id="q" x1="-10.302" x2="121.019" y1="10.1" y2="10.1" gradientUnits="userSpaceOnUse">
    <stop offset="0" stop-color="#ffca00"/>
    <stop offset="1" stop-color="#ff5300"/>
  </linearGradient>
  <path fill="#fff" d="m114.829.5h-114.329v125.896h80.702l33.627-33.627z"/>
  <path fill="url(#d)" d="m111.399 3.468h-107.469l-.16 122.653h76.458l31.172-31.252v-91.401z"/>
  <path fill="url(#e)" d="m114.829 0h-114.829v126.896h81.409l33.92-33.92v-92.976zm-.5 1v91.563c-.289.289-33.045 33.045-33.334 33.334-.41 0-79.01 0-79.995 0 0-.989 0-123.909 0-124.897z"/>
  <path fill="url(#f)" d="m111.67 14.671v-11.282h-107.807l-.096 65.34c9.975 4.547 21.151 7.096 32.954 7.096 37.346-.001 68.399-27.5 74.949-61.154z"/>
  <path fill="#fff" d="m106.186 70.369h-6.583v13.681h6.583z"/>
  <path fill="url(#g)" d="m104.832 70.369h-5.229v12.461h5.229z"/>
  <path fill="#fff" d="m106.186 48.489h-6.583v13.681h6.583z"/>
  <path fill="url(#h)" d="m104.832 48.489h-5.229v12.46h5.229z"/>
  <path fill="#fff" d="m106.186 26.609h-6.583v13.682h6.583z"/>
  <path fill="url(#i)" d="m104.832 26.609h-5.229v12.461h5.229z"/>
  <path fill="url(#j)" d="m95.004 98.23c0 3.497-17.163 6.333-38.333 6.333-21.171 0-38.333-2.836-38.333-6.333 0-3.498 17.163-6.334 38.333-6.334s38.333 2.836 38.333 6.334z" opacity=".2"/>
  <path fill="#ac6500" d="m48.522 63.505c.03 3.254 2.81 5.88 6.2 5.847 3.386-.031 6.121-2.704 6.091-5.957-.029-3.258-2.813-5.88-6.202-5.85-3.387.033-6.119 2.704-6.089 5.96zm1.886-.016c-.02-2.258 1.871-4.104 4.223-4.127 2.343-.021 4.27 1.79 4.292 4.048.019 2.254-1.871 4.107-4.218 4.129-2.35.022-4.275-1.797-4.297-4.05z"/>
  <path fill="#ac6500" d="m16.417 63.802c-.187-20.253 16.819-36.888 37.911-37.083 21.083-.194 38.394 16.123 38.582 36.376.187 20.257-16.82 36.894-37.907 37.087-21.088.197-38.398-16.125-38.586-36.38zm-1.888.018c.196 21.254 18.359 38.373 40.495 38.17 22.125-.203 39.972-17.656 39.775-38.909-.198-21.253-18.363-38.379-40.489-38.174-22.133.205-39.977 17.661-39.781 38.913z"/>
  <path fill="url(#k)" d="m54.325 26.277c-21.38.196-38.561 17.001-38.37 37.529.188 20.529 17.675 37.01 39.055 36.813 21.374-.197 38.554-16.998 38.365-37.526-.189-20.53-17.678-37.013-39.05-36.816zm.387 42.108c-2.836.025-5.161-2.163-5.186-4.888-.025-2.727 2.256-4.955 5.094-4.981 2.839-.026 5.157 2.159 5.184 4.887.027 2.724-2.254 4.954-5.092 4.982z"/>
  <g fill="#fff" opacity=".8">
    <path d="m53.521 68.857c-.26-.059-.505-.135-.745-.23l-.878 31.688c10.49.727 20.584-2.684 28.236-8.996l-22.428-23.264c-1.172.799-2.68 1.138-4.185.802z" opacity=".8"/>
    <path d="m52.996 58.216.848-31.874c-9.287.183-18.047 3.663-24.736 9.49l21.809 23.686c.568-.594 1.287-1.038 2.079-1.302z" opacity=".8"/>
  </g>
  <path fill="url(#l)" d="m15.947 63.807c.19 20.506 17.71 37.023 39.063 36.828 21.346-.197 38.562-17.037 38.371-37.542-.188-20.504-17.71-37.024-39.058-36.827-21.352.196-38.566 17.038-38.376 37.541zm1.819-.017c-.179-19.534 16.228-35.584 36.572-35.771 20.344-.188 37.039 15.555 37.221 35.091.18 19.537-16.224 35.586-36.568 35.775-20.344.187-37.044-15.557-37.225-35.095z"/>
  <path fill="#ff9500" d="m42.853 63.56c.059 6.253 5.405 11.294 11.918 11.235 6.514-.063 11.767-5.201 11.708-11.454-.055-6.255-5.403-11.293-11.917-11.231-6.514.059-11.767 5.196-11.709 11.45zm3.631-.035c-.04-4.333 3.599-7.894 8.109-7.936 4.514-.043 8.216 3.452 8.256 7.785.04 4.332-3.595 7.893-8.111 7.936-4.51.042-8.216-3.453-8.254-7.785z" opacity=".32"/>
  <path fill="url(#m)" d="m54.315 28.175c-17.78.164-32.551 12.433-35.885 28.56 7.823 5.48 18.006 9.159 29.324 10.162-.502-.971-.794-2.053-.804-3.204-.037-4.078 3.38-7.426 7.625-7.465 4.238-.038 7.72 3.245 7.758 7.323.012 1.15-.263 2.237-.745 3.216 11.296-1.21 21.409-5.073 29.131-10.699-3.63-16.062-18.627-28.057-36.404-27.893z"/>
  <path fill="url(#n)" d="m78.856 90.424v35.754h1.793l33.639-33.639v-2.115z" opacity=".1"/>
  <path fill="#fff" d="m81.202 126.396 33.627-33.627h-33.627z"/>
  <path fill="url(#o)" d="m83.53 124.504 29.594-29.592h-29.594z"/>
  <path fill="url(#p)" d="m81.202 92.27c-.277 0-.5.223-.5.5v33.627c0 .203.121.385.309.463.186.076.402.033.545-.109l33.627-33.627c.143-.145.186-.359.109-.545-.078-.188-.26-.309-.463-.309zm32.42 1c-1.58 1.578-30.342 30.34-31.92 31.92 0-2.209 0-30.986 0-31.92z"/>
  <path fill="url(#q)" d="m111.118 16.471h-107.385v-12.743h107.384v12.743z"/>
  <g fill="#fff">
    <path d="m14.696 11.52 1.905.588c-.292 1.063-.778 1.854-1.457 2.37-.68.516-1.542.774-2.587.774-1.293 0-2.355-.44-3.188-1.321-.832-.88-1.248-2.084-1.248-3.612 0-1.615.418-2.87 1.254-3.763.836-.894 1.936-1.341 3.299-1.341 1.19 0 2.156.35 2.9 1.047.442.413.773 1.006.995 1.779l-1.938.461c-.116-.5-.356-.896-.723-1.186s-.811-.435-1.335-.435c-.723 0-1.311.259-1.761.776-.451.517-.675 1.355-.675 2.515 0 1.229.221 2.106.665 2.628.444.521 1.02.783 1.73.783.523 0 .974-.166 1.351-.498.379-.331.649-.853.813-1.565z"/>
    <path d="m18.253 5.389h3.579c.807 0 1.422.062 1.846.186.569.168 1.056.465 1.462.893.406.429.715.953.927 1.572.211.62.317 1.385.317 2.293 0 .799-.099 1.487-.297 2.065-.243.707-.589 1.278-1.039 1.714-.339.332-.799.589-1.376.774-.432.137-1.01.206-1.733.206h-3.685v-9.703zm1.954 1.636v6.432h1.467c.548 0 .944-.031 1.188-.093.318-.079.583-.213.793-.404.209-.19.381-.502.514-.937s.199-1.028.199-1.778c0-.751-.066-1.327-.199-1.729-.132-.402-.318-.715-.557-.94s-.542-.377-.909-.457c-.274-.062-.812-.093-1.612-.093h-.884z"/>
  </g>
</svg>
