<?xml version="1.0" encoding="UTF-8" standalone="no"?>
<svg xmlns="http://www.w3.org/2000/svg" xmlns:xlink="http://www.w3.org/1999/xlink" width="128" height="128" viewBox="0 0 128 128">
  <linearGradient id="b" x1="63.92" x2="63.92" y1="154.565" y2="-100.935" gradientUnits="userSpaceOnUse">
    <stop offset="0" stop-color="#fff"/>
    <stop offset=".258" stop-color="#f1f1f1"/>
    <stop offset=".74" stop-color="#cecece"/>
    <stop offset=".86" stop-color="#c4c4c4"/>
  </linearGradient>
  <linearGradient id="a">
    <stop offset="0" stop-color="#b3b3b3"/>
    <stop offset="1" stop-color="#828282"/>
  </linearGradient>
  <linearGradient id="c" x1="-26.333" x2="56.166" y1="-26.333" y2="56.166" gradientUnits="userSpaceOnUse" xlink:href="#a"/>
  <linearGradient id="d" x1="43.023" x2="204.007" y1="25.421" y2="111.065" gradientUnits="userSpaceOnUse">
    <stop offset="0" stop-color="#fff"/>
    <stop offset=".503" stop-color="#e7e7e7"/>
    <stop offset="1" stop-color="#d4d4d4"/>
  </linearGradient>
  <linearGradient id="e" x1="92.678" x2="-23.986" y1="10.651" y2="10.651" gradientUnits="userSpaceOnUse">
    <stop offset="0" stop-color="#0095ff"/>
    <stop offset="1" stop-color="#00e1ff"/>
  </linearGradient>
  <linearGradient id="f" x1="40.861" x2="40.861" y1="121.549" y2="59.082" gradientUnits="userSpaceOnUse">
    <stop offset="0" stop-color="#3fa6ff"/>
    <stop offset="1" stop-color="#0068ff"/>
  </linearGradient>
  <linearGradient id="g" x1="65.522" x2="65.522" y1="109.327" y2="46.861" gradientUnits="userSpaceOnUse">
    <stop offset="0" stop-color="#3fa600"/>
    <stop offset="1" stop-color="#008300"/>
  </linearGradient>
  <linearGradient id="h" x1="89.516" x2="89.516" y1="131.322" y2="68.856" gradientUnits="userSpaceOnUse">
    <stop offset="0" stop-color="#ffa600"/>
    <stop offset="1" stop-color="#ff6800"/>
  </linearGradient>
  <radialGradient id="i" cx="108.467" cy="118.249" r="34.736" gradientUnits="userSpaceOnUse">
    <stop offset="0"/>
    <stop offset="1"/>
  </radialGradient>
  <linearGradient id="j" x1="104.017" x2="95.088" y1="98.181" y2="135.794" gradientUnits="userSpaceOnUse">
    <stop offset="0" stop-color="#fff"/>
    <stop offset="1" stop-color="#ccc"/>
  </linearGradient>
  <linearGradient id="k" x1="82.309" x2="96.104" y1="88.093" y2="101.888" gradientUnits="userSpaceOnUse" xlink:href="#a"/>
  <path fill="#fff" d="m121.164 1.052h-114.328v125.896h80.701l33.627-33.627z"/>
  <path fill="url(#b)" d="m117.734 4.019h-107.468l-.16 122.654h76.457l31.172-31.252v-91.402z"/>
  <path fill="url(#c)" d="m121.164.552h-114.828v126.896h81.408l33.92-33.92v-92.976zm-.5 1v91.562c-.289.289-33.045 33.045-33.334 33.334-.41 0-79.01 0-79.994 0 0-.988 0-123.909 0-124.896.986 0 112.342 0 113.328 0z"/>
  <path fill="url(#d)" d="m118.006 15.223v-11.283h-107.807l-.096 65.34c9.975 4.547 21.151 7.096 32.954 7.096 37.345 0 68.398-27.5 74.949-61.153z"/>
  <path fill="url(#e)" d="m117.397 17.023h-107.384v-12.744h107.385v12.744z"/>
  <path fill="#fff" d="m21.278 13.387c-.024-.033-.066-.047-.105-.036 0 0-.315.092-.414.121-.072-.104-.842-1.215-.842-1.215-.018-.026-.048-.042-.08-.042s-.062.016-.08.042c-.535.776-1.408 1.241-2.335 1.241-1.402 0-2.569-1.014-2.806-2.344-.006-.039-.012-.077-.018-.116-.001-.005-.001-.01-.002-.016-.004-.034-.008-.069-.012-.104-.001-.016-.002-.032-.003-.047-.002-.026-.004-.052-.005-.079-.002-.044-.004-.088-.004-.133 0-1.08.59-2.049 1.541-2.529.032-.016.053-.049.053-.086v-.843c0-.032-.015-.063-.042-.081s-.06-.021-.09-.008l-.141.06c-.158.069-.308.153-.431.225-.093-.065-1.151-.806-1.151-.806-.038-.027-.089-.023-.123.009l-.801.782c-.02.019-.029.044-.029.069 0 .019.005.038.017.054 0 0 .737 1.092.798 1.183-.201.335-.34.668-.425 1.014-.11.021-1.463.27-1.463.27-.044.008-.077.046-.079.091l-.05 1.123v.004c0 .046.033.086.08.095 0 0 .007.001.019.003.167.03 1.371.248 1.475.266.085.341.224.687.415 1.03-.064.09-.897 1.254-.897 1.254-.012.017-.018.037-.018.056 0 .024.009.049.028.068l.801.812c.032.033.084.038.123.012 0 0 1.209-.815 1.303-.878.305.189.642.332 1.024.433.02.109.28 1.535.28 1.535.009.046.048.079.095.079h1.152c.047 0 .087-.034.095-.081 0 0 .242-1.444.261-1.554.337-.093.671-.231.994-.414l.198.118c.351.246 1.073.751 1.073.751.039.027.09.022.124-.011l.812-.812c.034-.034.038-.087.01-.125zm1.808-7.619c0-.01-.001-.021-.005-.031-.01-.031-.037-.055-.068-.063l-2.064-.511c-.038-.009-.076.004-.1.035 0 0-2.102 2.723-2.403 3.113 0-.475 0-3.083 0-3.083 0-.053-.042-.097-.095-.097l-1.864-.02c-.025 0-.05.01-.068.028s-.029.042-.029.067l-.061 7.796c0 .026.011.053.03.071.02.018.046.028.073.026l1.963-.12c.052-.003.091-.046.091-.096 0 0-.031-2.635-.036-3.143.31.431 2.437 3.39 2.437 3.39.024.033.066.047.106.036l1.994-.582c.03-.008.054-.032.064-.062.004-.01.005-.021.005-.031 0-.021-.007-.041-.019-.058 0 0-2.455-3.321-2.541-3.437.09-.112 2.569-3.169 2.569-3.169.014-.015.021-.037.021-.059zm-.141 4.154-1.323-.23c-.038-.006-.077.01-.098.043s-.021.075.002.107l1.002 1.443c.021.031.059.046.097.04l.331-.061c.046-.008.08-.049.079-.096l-.01-1.152c-.001-.046-.034-.086-.08-.094z"/>
  <path fill="url(#f)" d="m51.34 51.868c0-.982-.794-1.777-1.776-1.777h-17.404c-.983 0-1.777.795-1.777 1.777v43.816h20.957z"/>
  <path fill="url(#g)" d="m76.001 39.648c0-.981-.794-1.777-1.779-1.777h-17.402c-.982 0-1.777.796-1.777 1.777v56.035h20.958z"/>
  <path fill="url(#h)" d="m99.995 61.641c0-.98-.795-1.776-1.779-1.776h-17.404c-.98 0-1.775.796-1.775 1.776v34.042h20.959v-34.042z"/>
  <g fill="#fff">
    <path d="m48.586 51.273h-15.5c-.875 0-1.583.709-1.583 1.583v2.333c0-.874.708-1.583 1.583-1.583h15.5c.875 0 1.583.709 1.583 1.583v-2.333c-.001-.874-.709-1.583-1.583-1.583z" opacity=".5"/>
    <path d="m73.246 39.054h-15.499c-.875 0-1.584.709-1.584 1.583v2.334c0-.874.709-1.583 1.584-1.583h15.499c.876 0 1.583.709 1.583 1.583v-2.334c0-.874-.707-1.583-1.583-1.583z" opacity=".5"/>
    <path d="m97.239 61.048h-15.499c-.873 0-1.584.708-1.584 1.583v2.333c0-.874.711-1.582 1.584-1.582h15.499c.876 0 1.585.708 1.585 1.582v-2.333c0-.874-.709-1.583-1.585-1.583z" opacity=".5"/>
  </g>
  <path d="m25.902 81.687v1.777h73.76v-1.777z" opacity=".11"/>
  <path d="m25.902 67.247v1.776h73.76v-1.776z" opacity=".11"/>
  <path d="m25.902 53.25v1.777h73.76v-1.777z" opacity=".11"/>
  <path d="m25.902 39.475v1.778h73.76v-1.778z" opacity=".11"/>
  <path fill="#949494" d="m23.681 31.7v67.094h79.092v-3.556s-72.144 0-75.538 0c0-3.362 0-63.539 0-63.539h-3.554z"/>
  <path fill="url(#i)" d="m85.191 90.976v35.754h1.793l33.639-33.639v-2.115z" opacity=".1"/>
  <path fill="#fff" d="m87.537 126.948 33.627-33.627h-33.627z"/>
  <path fill="url(#j)" d="m89.865 125.056 29.594-29.592h-29.594z"/>
  <path fill="url(#k)" d="m87.537 92.821c-.277 0-.5.223-.5.5v33.627c0 .203.121.385.309.463.186.076.402.033.545-.109l33.627-33.627c.143-.145.186-.359.109-.545-.078-.188-.26-.309-.463-.309zm32.42 1c-1.58 1.578-30.342 30.34-31.92 31.92 0-2.209 0-30.986 0-31.92z"/>
  <path fill="none" d="m128 128h-128v-128h128z"/>
</svg>
