<?xml version="1.0" encoding="UTF-8" standalone="no"?>
<svg xmlns="http://www.w3.org/2000/svg" xmlns:xlink="http://www.w3.org/1999/xlink" width="128" height="128" viewBox="0 0 128 128">
  <linearGradient id="c" x1="63.92" x2="63.92" y1="154.565" y2="-100.935" gradientUnits="userSpaceOnUse">
    <stop offset="0" stop-color="#fff"/>
    <stop offset=".246" stop-color="#f6f6f6"/>
    <stop offset=".637" stop-color="#dfdfdf"/>
    <stop offset="1" stop-color="#c4c4c4"/>
  </linearGradient>
  <linearGradient id="a">
    <stop offset="0" stop-color="#b3b3b3"/>
    <stop offset="1" stop-color="#828282"/>
  </linearGradient>
  <linearGradient id="d" x1="-26.333" x2="56.166" y1="-26.333" y2="56.166" gradientUnits="userSpaceOnUse" xlink:href="#a"/>
  <linearGradient id="e" x1="43.023" x2="204.007" y1="25.421" y2="111.065" gradientUnits="userSpaceOnUse">
    <stop offset="0" stop-color="#fff"/>
    <stop offset=".86" stop-color="#dadada"/>
    <stop offset="1" stop-color="#d4d4d4"/>
  </linearGradient>
  <linearGradient id="b">
    <stop offset="0" stop-color="#b3caff"/>
    <stop offset="1" stop-color="#0053bd"/>
  </linearGradient>
  <linearGradient id="f" x1="-3.728" x2="127.593" y1="10.651" y2="10.651" gradientUnits="userSpaceOnUse" xlink:href="#b"/>
  <linearGradient id="g" x1="62.831" x2="62.831" y1="95.114" y2="-25.552" gradientUnits="userSpaceOnUse" xlink:href="#b"/>
  <radialGradient id="h" cx="108.467" cy="118.249" r="34.736" gradientUnits="userSpaceOnUse">
    <stop offset="0"/>
    <stop offset="1"/>
  </radialGradient>
  <linearGradient id="i" x1="104.017" x2="95.088" y1="98.181" y2="135.794" gradientUnits="userSpaceOnUse">
    <stop offset="0" stop-color="#fff"/>
    <stop offset="1" stop-color="#ccc"/>
  </linearGradient>
  <linearGradient id="j" x1="82.309" x2="96.104" y1="88.093" y2="101.888" gradientUnits="userSpaceOnUse" xlink:href="#a"/>
  <path fill="#fff" d="m121.164 1.052h-114.328v125.896h80.701l33.627-33.627z"/>
  <path fill="url(#c)" d="m117.734 4.019h-107.468l-.16 122.654h76.457l31.172-31.252v-91.402z"/>
  <path fill="url(#d)" d="m121.164.552h-114.828v126.896h81.408l33.92-33.92v-92.976zm-.5 1v91.562c-.289.289-33.045 33.045-33.334 33.334-.41 0-79.01 0-79.994 0 0-.988 0-123.909 0-124.896.986 0 112.342 0 113.328 0z"/>
  <path fill="url(#e)" d="m118.006 15.223v-11.283h-107.807l-.096 65.34c9.975 4.547 21.151 7.096 32.954 7.096 37.345 0 68.398-27.5 74.949-61.153z"/>
  <path fill="url(#f)" d="m117.692 17.023h-107.384v-12.744h107.385v12.744z"/>
  <path fill="url(#g)" d="m90.644 83.539h8c-2.477 5.074-6.275 9.051-11.398 11.926-5.867 3.299-13.021 4.949-21.462 4.949-8.168 0-15.223-1.385-21.165-4.152-5.941-2.771-10.359-6.855-13.256-12.254-2.896-5.4-4.344-11.279-4.344-17.637 0-6.977 1.645-13.477 4.936-19.498s7.795-10.541 13.51-13.559c5.715-3.016 12.248-4.525 19.596-4.525 6.233 0 11.776 1.217 16.626 3.646s8.555 5.883 11.115 10.359 3.842 9.367 3.842 14.674c0 6.324-1.943 12.041-5.826 17.148-4.875 6.449-11.121 9.672-18.742 9.672-2.055 0-3.6-.357-4.638-1.074-1.039-.717-1.732-1.768-2.078-3.152-2.901 2.818-6.243 4.227-10.026 4.227-4.078 0-7.463-1.416-10.154-4.252-2.691-2.834-4.035-6.604-4.035-11.307 0-5.816 1.621-11.125 4.863-15.928 3.93-5.842 8.965-8.764 15.107-8.764 4.372 0 7.601 1.684 9.689 5.047l.926-4.297h9.783l-5.6 26.73c-.348 1.691-.52 2.785-.52 3.281 0 .621.141 1.088.426 1.398s.625.465 1.021.465c1.186 0 2.719-.717 4.598-2.154 2.521-1.881 4.561-4.406 6.119-7.576 1.557-3.168 2.336-6.449 2.336-9.842 0-6.09-2.201-11.184-6.6-15.281s-10.541-6.146-18.423-6.146c-6.697 0-12.375 1.371-17.033 4.113-4.66 2.742-8.17 6.6-10.529 11.574-2.359 4.977-3.539 10.156-3.539 15.539 0 5.236 1.314 10 3.947 14.293 2.633 4.291 6.328 7.424 11.086 9.396s10.203 2.959 16.334 2.959c5.905 0 10.985-.834 15.237-2.5 4.251-1.666 7.675-4.166 10.271-7.498zm-39.875-15.164c0 3.141.629 5.453 1.887 6.938s2.816 2.227 4.676 2.227c1.391 0 2.699-.346 3.922-1.039.928-.494 1.844-1.273 2.75-2.338 1.295-1.508 2.413-3.707 3.354-6.602.94-2.895 1.411-5.59 1.411-8.09 0-2.795-.643-4.941-1.925-6.438-1.283-1.496-2.903-2.244-4.856-2.244-2.104 0-4.047.822-5.83 2.467-1.785 1.645-3.129 3.988-4.033 7.031s-1.356 5.738-1.356 8.088z"/>
  <path fill="url(#h)" d="m85.191 90.976v35.754h1.793l33.639-33.639v-2.115z" opacity=".1"/>
  <path fill="#fff" d="m87.537 126.948 33.627-33.627h-33.627z"/>
  <path fill="url(#i)" d="m89.865 125.056 29.594-29.592h-29.594z"/>
  <path fill="url(#j)" d="m87.537 92.821c-.277 0-.5.223-.5.5v33.627c0 .203.121.385.309.463.186.076.402.033.545-.109l33.627-33.627c.143-.145.186-.359.109-.545-.078-.188-.26-.309-.463-.309zm32.42 1c-1.58 1.578-30.342 30.34-31.92 31.92 0-2.209 0-30.986 0-31.92z"/>
  <g fill="#fff">
    <path d="m13.503 14.448v-8.594h2.6l1.548 5.862 1.538-5.862h2.611v8.594h-1.609l-.008-6.765-1.71 6.765h-1.666l-1.686-6.765-.008 6.765z"/>
    <path d="m31.265 14.448h-1.867l-.746-1.953h-3.447l-.705 1.953h-1.86l3.305-8.594h1.857zm-3.183-3.406-1.199-3.188-1.152 3.188z"/>
    <path d="m32.134 14.448v-8.594h1.734v8.594z"/>
    <path d="m35.562 14.448v-8.515h1.734v7.062h4.312v1.453z"/>
  </g>
  <path fill="none" d="m75.913 71.52c-.348 1.691-.52 2.785-.52 3.281 0 .621.141 1.088.426 1.398s.625.465 1.021.465c1.186 0 2.719-.717 4.598-2.154 2.521-1.881 4.561-4.406 6.119-7.576 1.048-2.133 1.735-4.319 2.078-6.555-4.059 3.127-8.447 5.861-13.097 8.154z"/>
  <path fill="none" d="m128 128h-128v-128h128z"/>
</svg>
