<?xml version="1.0" encoding="UTF-8" standalone="no"?>
<svg xmlns="http://www.w3.org/2000/svg" xmlns:xlink="http://www.w3.org/1999/xlink" width="116" height="127" viewBox="-.322 -.104 116 127">
  <linearGradient id="b" x1="57.584" x2="57.584" y1="154.013" y2="-101.487" gradientUnits="userSpaceOnUse">
    <stop offset="0" stop-color="#fff"/>
    <stop offset=".258" stop-color="#f1f1f1"/>
    <stop offset=".74" stop-color="#cecece"/>
    <stop offset=".86" stop-color="#c4c4c4"/>
  </linearGradient>
  <linearGradient id="a">
    <stop offset="0" stop-color="#b2b2b2"/>
    <stop offset="1" stop-color="#828282"/>
  </linearGradient>
  <linearGradient id="c" x1="-32.669" x2="49.83" y1="-26.884" y2="55.614" gradientUnits="userSpaceOnUse" xlink:href="#a"/>
  <linearGradient id="d" x1="36.687" x2="197.669" y1="24.869" y2="110.512" gradientUnits="userSpaceOnUse">
    <stop offset="0" stop-color="#fff"/>
    <stop offset=".503" stop-color="#e7e7e7"/>
    <stop offset="1" stop-color="#d4d4d4"/>
  </linearGradient>
  <linearGradient id="e" x1="-94.988" x2="122.681" y1="10.1" y2="10.1" gradientUnits="userSpaceOnUse">
    <stop offset="0" stop-color="#fff"/>
    <stop offset="1" stop-color="#008300"/>
  </linearGradient>
  <linearGradient id="f" x1="11.546" x2="38.245" y1="1.683" y2="41.732" gradientUnits="userSpaceOnUse">
    <stop offset=".011" stop-color="#009500"/>
    <stop offset=".298" stop-color="#009000"/>
    <stop offset="1" stop-color="#005b00"/>
  </linearGradient>
  <linearGradient id="g" x1="55.454" x2="55.454" y1="33.654" y2="85.493" gradientUnits="userSpaceOnUse">
    <stop offset="0" stop-color="#00b100"/>
    <stop offset="1" stop-color="#008300"/>
  </linearGradient>
  <linearGradient id="h" x1="55.389" x2="55.389" y1="62.196" y2="97.961" gradientUnits="userSpaceOnUse">
    <stop offset="0" stop-color="#fff"/>
    <stop offset="1" stop-color="#c4c4c4"/>
  </linearGradient>
  <linearGradient id="i" x1="54.645" x2="54.645" y1="34.52" y2="72.621" gradientUnits="userSpaceOnUse">
    <stop offset="0" stop-color="#fff"/>
    <stop offset="1" stop-color="#fff" stop-opacity="0"/>
  </linearGradient>
  <linearGradient id="j" x1="54.298" x2="54.298" y1="108.96" y2="80.496" gradientUnits="userSpaceOnUse">
    <stop offset=".034" stop-color="#fff"/>
    <stop offset="1" stop-color="#fff" stop-opacity="0"/>
  </linearGradient>
  <radialGradient id="k" cx="102.131" cy="117.697" r="34.736" gradientUnits="userSpaceOnUse">
    <stop offset="0"/>
    <stop offset="1"/>
  </radialGradient>
  <linearGradient id="l" x1="97.682" x2="88.753" y1="97.629" y2="135.242" gradientUnits="userSpaceOnUse">
    <stop offset="0" stop-color="#fff"/>
    <stop offset="1" stop-color="#ccc"/>
  </linearGradient>
  <linearGradient id="m" x1="75.973" x2="89.768" y1="87.541" y2="101.337" gradientUnits="userSpaceOnUse" xlink:href="#a"/>
  <path fill="#fff" d="m114.828.5h-114.328v125.896h80.701l33.627-33.627z"/>
  <path fill="url(#b)" d="m111.398 3.467h-107.468l-.16 122.654h76.457l31.172-31.252v-91.402z"/>
  <path fill="url(#c)" d="m114.828 0h-114.828v126.896h81.408l33.92-33.92v-92.976zm-.5 1v91.563c-.289.289-33.045 33.045-33.334 33.334-.41 0-79.01 0-79.994 0 0-.989 0-123.909 0-124.897z"/>
  <path fill="url(#d)" d="m111.67 14.671v-11.283h-107.807l-.096 65.34c9.975 4.547 21.151 7.096 32.954 7.096 37.345 0 68.398-27.499 74.949-61.153z"/>
  <path fill="none" d="m65.822 82.66v-12.682c-8.568 3.576-17.923 5.638-27.732 5.815v6.867z"/>
  <path fill="none" d="m53.227 44.28c-3.404 2.08-6.689 6.015-9.764 11.694-3.102 5.73-4.674 11.508-4.674 17.173 0 3.169.682 4.568 1.254 5.186.738.798 1.577 1.138 2.804 1.138 3.207 0 6.845-1.571 10.815-4.67 4.09-3.188 7.158-7.917 9.12-14.059 0 0 5.252-16.324 6.19-19.24-1.517-.177-2.854-.296-3.85-.296-4.555 0-8.557 1.034-11.895 3.074z"/>
  <path fill="none" d="m35.965 75.814c.279 1.989.896 3.499 1.878 4.559 1.307 1.411 2.944 2.098 5.004 2.098 3.891 0 8.151-1.785 12.66-5.305 1.867-1.455 3.529-3.201 5.002-5.197-7.485 2.487-15.479 3.855-23.787 3.855-.253 0-.504-.008-.757-.01z"/>
  <path fill="url(#e)" d="m111.062 16.471h-107.385v-12.743h107.385z"/>
  <path fill="url(#f)" d="m55.454 30.188c-20.6 0-37.357 16.758-37.357 37.359s16.757 37.36 37.357 37.36c20.603 0 37.362-16.76 37.362-37.36-.001-20.602-16.759-37.359-37.362-37.359zm0 73.022c-19.696 0-35.661-15.964-35.661-35.663 0-19.695 15.964-35.662 35.661-35.662 19.696 0 35.662 15.967 35.662 35.662-.001 19.699-15.967 35.663-35.662 35.663z"/>
  <path fill="url(#g)" d="m55.454 31.885c-19.696 0-35.661 15.967-35.661 35.662 0 19.699 15.964 35.663 35.661 35.663 19.696 0 35.662-15.964 35.662-35.663-.001-19.695-15.967-35.662-35.662-35.662z"/>
  <path fill="url(#h)" d="m55.325 34.282c-8.731 0-16.664 3.288-22.663 8.639-6.223 5.556-10.329 13.34-11.004 22.092 1.213-3.225 2.99-6.201 5.251-8.812 5.885-6.804 14.914-11.172 25.056-11.172.012 0 .023.004.035.004s.021-.004.032-.004c1.1 0 2.186.05 3.257.152v-10.38l19.58 19.28-19.382 19.08-.198.198v-11.401l-19.381 19.08 1.18 1.163c.416.355.856.687 1.293 1.022-.307-.188-.609-.398-.907-.642l18.013 17.736v-10.387c1.082.1 2.18.157 3.29.157 10.13-.009 18.852-4.083 24.731-10.876.006-.036.308-.389.308-.389 2.221-2.591 3.975-5.533 5.172-8.723.067-.841.132-1.685.132-2.537 0-18.382-15.133-33.28-33.795-33.28z"/>
  <path fill="url(#i)" d="m55.787 67.153c12.466-9.375 24.19-12.555 29.329-13.563-4.948-11.357-16.114-19.278-29.104-19.278-17.583 0-31.836 14.512-31.836 32.408 0 2.811.354 5.538 1.015 8.139 5.156.969 17.768 1.943 30.596-7.706z"/>
  <path fill="url(#j)" d="m54.296 93.905c-15.135 0-27.723-8.341-28.875-21.39-.058.642-.096 1.287-.096 1.94 0 13.958 13.087 25.334 28.972 25.334 15.998 0 28.976-11.376 28.976-25.334 0-.653-.039-1.299-.094-1.94-1.147 13.049-13.639 21.39-28.883 21.39z" opacity=".8"/>
  <path fill="url(#k)" d="m78.855 90.424v35.754h1.793l33.639-33.639v-2.115z" opacity=".1"/>
  <path fill="#fff" d="m81.201 126.396 33.627-33.627h-33.627z"/>
  <path fill="url(#l)" d="m83.529 124.504 29.594-29.592h-29.594z"/>
  <path fill="url(#m)" d="m81.201 92.27c-.277 0-.5.223-.5.5v33.627c0 .203.121.385.309.463.186.076.402.033.545-.109l33.627-33.627c.143-.145.186-.359.109-.545-.078-.188-.26-.309-.463-.309zm32.42 1c-1.58 1.578-30.342 30.34-31.92 31.92 0-2.209 0-30.986 0-31.92z"/>
  <g fill="#fff">
    <path d="m7.553 14.23v-8.594h3.646c.916 0 1.582.077 1.998.231.415.154.748.429.998.823.249.394.374.845.374 1.352 0 .645-.188 1.176-.565 1.596-.376.419-.939.684-1.688.793.373.219.682.46.925.723.243.262.571.728.984 1.397l1.048 1.679h-2.074l-1.245-1.874c-.446-.669-.752-1.091-.916-1.265s-.338-.293-.522-.358c-.184-.064-.476-.097-.874-.097h-.354v3.594zm1.735-4.969h1.282c.83 0 1.35-.035 1.557-.105s.368-.19.485-.362c.117-.171.176-.385.176-.642 0-.288-.077-.52-.231-.698-.154-.177-.371-.289-.652-.335-.141-.02-.563-.029-1.264-.029h-1.353z"/>
    <path d="m16.219 14.23v-8.594h6.359v1.453h-4.625v1.906h4.297v1.453h-4.297v2.328h4.797v1.453h-6.531z"/>
    <path d="m29.739 11.058 1.688.516c-.259.946-.689 1.649-1.292 2.108s-1.366.689-2.292.689c-1.146 0-2.088-.39-2.825-1.17-.738-.78-1.106-1.846-1.106-3.199 0-1.431.37-2.542 1.111-3.333.74-.792 1.715-1.188 2.922-1.188 1.054 0 1.911.311 2.569.932.392.368.686.896.882 1.583l-1.719.406c-.103-.444-.315-.794-.641-1.052s-.719-.386-1.184-.386c-.642 0-1.161.229-1.562.686-.398.458-.599 1.198-.599 2.222 0 1.086.196 1.861.591 2.322.394.461.906.692 1.536.692.465 0 .864-.147 1.199-.441s.576-.756.722-1.387z"/>
    <path d="m35.131 14.23v-3.617l-3.148-4.977h2.05l2.008 3.409 1.978-3.409h1.996l-3.148 4.989v3.605z"/>
    <path d="m46.409 11.058 1.688.516c-.259.946-.689 1.649-1.292 2.108s-1.366.689-2.292.689c-1.146 0-2.088-.39-2.825-1.17-.738-.78-1.106-1.846-1.106-3.199 0-1.431.37-2.542 1.111-3.333.74-.792 1.715-1.188 2.922-1.188 1.054 0 1.911.311 2.569.932.392.368.686.896.882 1.583l-1.719.406c-.103-.444-.315-.794-.641-1.052s-.719-.386-1.184-.386c-.642 0-1.161.229-1.562.686-.398.458-.599 1.198-.599 2.222 0 1.086.196 1.861.591 2.322.394.461.906.692 1.536.692.465 0 .864-.147 1.199-.441s.576-.756.722-1.387z"/>
    <path d="m49.606 14.23v-8.516h1.734v7.063h4.313v1.453z"/>
    <path d="m56.889 14.23v-8.594h6.359v1.453h-4.625v1.906h4.296v1.453h-4.296v2.328h4.796v1.453h-6.53z"/>
    <path d="m64.893 5.636h3.172c.715 0 1.26.055 1.635.164.504.149.936.413 1.295.792s.633.843.82 1.393c.188.549.281 1.226.281 2.031 0 .708-.088 1.317-.264 1.829-.215.625-.521 1.131-.92 1.518-.301.293-.707.522-1.219.686-.383.121-.895.182-1.535.182h-3.266v-8.595zm1.734 1.453v5.688h1.301c.486 0 .836-.027 1.053-.082.281-.07.516-.189.703-.357.186-.168.338-.444.455-.829s.176-.909.176-1.573-.059-1.173-.176-1.529-.283-.632-.494-.832-.48-.334-.805-.404c-.244-.055-.721-.082-1.43-.082z"/>
  </g>
</svg>
