<?xml version="1.0" encoding="UTF-8" standalone="no"?>
<svg xmlns="http://www.w3.org/2000/svg" xmlns:xlink="http://www.w3.org/1999/xlink" width="128" height="128" viewBox="0 0 128 128">
  <linearGradient id="e" x1="63.92" x2="63.92" y1="154.565" y2="-100.935" gradientUnits="userSpaceOnUse">
    <stop offset="0" stop-color="#fff"/>
    <stop offset=".246" stop-color="#f6f6f6"/>
    <stop offset=".637" stop-color="#dfdfdf"/>
    <stop offset="1" stop-color="#c4c4c4"/>
  </linearGradient>
  <linearGradient id="a">
    <stop offset="0" stop-color="#b3b3b3"/>
    <stop offset="1" stop-color="#828282"/>
  </linearGradient>
  <linearGradient id="f" x1="-26.333" x2="56.166" y1="-26.333" y2="56.166" gradientUnits="userSpaceOnUse" xlink:href="#a"/>
  <linearGradient id="g" x1="43.023" x2="204.007" y1="25.421" y2="111.065" gradientUnits="userSpaceOnUse">
    <stop offset="0" stop-color="#fff"/>
    <stop offset=".86" stop-color="#dadada"/>
    <stop offset="1" stop-color="#d4d4d4"/>
  </linearGradient>
  <linearGradient id="h" x1="-3.728" x2="127.593" y1="10.651" y2="10.651" gradientUnits="userSpaceOnUse">
    <stop offset="0" stop-color="#b3caff"/>
    <stop offset="1" stop-color="#0053bd"/>
  </linearGradient>
  <linearGradient id="b">
    <stop offset="0" stop-color="#959595"/>
    <stop offset="1" stop-color="#fff"/>
  </linearGradient>
  <linearGradient id="i" x1="62.769" x2="32.63" y1="84.872" y2="82.485" gradientUnits="userSpaceOnUse" xlink:href="#b"/>
  <linearGradient id="j" x1="79.638" x2="43.782" y1="54.168" y2="77.398" gradientUnits="userSpaceOnUse" xlink:href="#b"/>
  <linearGradient id="c">
    <stop offset="0" stop-color="#fff"/>
    <stop offset="1"/>
  </linearGradient>
  <linearGradient id="k" x1="58.426" x2="60.017" y1="55.084" y2="100.838" gradientUnits="userSpaceOnUse" xlink:href="#c"/>
  <linearGradient id="l" x1="33.806" x2="83.339" y1="53.92" y2="53.92" gradientUnits="userSpaceOnUse" xlink:href="#b"/>
  <linearGradient id="d">
    <stop offset="0" stop-color="#b16516"/>
    <stop offset="1"/>
  </linearGradient>
  <radialGradient id="m" cx="48.205" cy="46.632" r="34.494" gradientUnits="userSpaceOnUse" xlink:href="#d"/>
  <radialGradient id="n" cx="48.205" cy="46.633" r="34.492" gradientUnits="userSpaceOnUse" xlink:href="#d"/>
  <linearGradient id="o" x1="60.106" x2="58.276" y1="38.919" y2="63.018" gradientUnits="userSpaceOnUse" xlink:href="#c"/>
  <linearGradient id="p" x1="-112.587" x2="-95.88" y1="373.152" y2="393.202" gradientTransform="matrix(1 0 0 -1 192.5498 458.5566)" gradientUnits="userSpaceOnUse" xlink:href="#b"/>
  <radialGradient id="q" cx="108.467" cy="118.249" r="34.736" gradientUnits="userSpaceOnUse">
    <stop offset="0"/>
    <stop offset="1"/>
  </radialGradient>
  <linearGradient id="r" x1="104.017" x2="95.088" y1="98.181" y2="135.794" gradientUnits="userSpaceOnUse">
    <stop offset="0" stop-color="#fff"/>
    <stop offset="1" stop-color="#ccc"/>
  </linearGradient>
  <linearGradient id="s" x1="82.309" x2="96.104" y1="88.093" y2="101.888" gradientUnits="userSpaceOnUse" xlink:href="#a"/>
  <path fill="#fff" d="m121.164 1.052h-114.328v125.896h80.701l33.627-33.627z"/>
  <path fill="url(#e)" d="m117.734 4.019h-107.468l-.16 122.654h76.457l31.172-31.252v-91.402z"/>
  <path fill="url(#f)" d="m121.164.552h-114.828v126.896h81.408l33.92-33.92v-92.976zm-.5 1v91.562c-.289.289-33.045 33.045-33.334 33.334-.41 0-79.01 0-79.994 0 0-.988 0-123.909 0-124.896.986 0 112.342 0 113.328 0z"/>
  <path fill="url(#g)" d="m118.006 15.223v-11.283h-107.807l-.096 65.34c9.975 4.547 21.151 7.096 32.954 7.096 37.345 0 68.398-27.5 74.949-61.153z"/>
  <path fill="url(#h)" d="m117.692 17.023h-107.384v-12.744h107.385v12.744z"/>
  <path d="m89.978 93.52c0 7.141-14.027 12.929-31.333 12.929s-31.333-5.789-31.333-12.929 14.028-12.929 31.333-12.929 31.333 5.788 31.333 12.929z" opacity=".1"/>
  <path fill="#fff" d="m98.51 69.008c-1.598-1.495-9.825-2.677-13.292-3.118l.82-5.703h-.056v-.003c.026-.29.044-.586.044-.879 0-8.798-12.425-15.929-27.752-15.929-15.325 0-27.749 7.131-27.749 15.929 0 .293.016.59.044.879v.003h-.028l2.387 16.572c-.004.112-.015.229-.015.344 0 4.091 2.195 7.813 6.065 10.636 2 5.419 9.083 9.419 19.296 9.419 10.158 0 17.212-3.955 19.258-9.326.169-.02 26.79-2.962 20.978-18.824zm-20.955 18.771c.004-.015.014-.026.02-.041.003-.002.006-.009.012-.011zm4.991-5.864c.704-1.518 1.093-3.133 1.093-4.812 0-.107-.011-.211-.016-.316h.029l.405-2.83c2.441.089 8.281.34 8.634.679 3.485 3.329-5.975 6.206-10.145 7.279z"/>
  <path fill="#999" d="m28.735 59.304.051 1.052s2.299 16.156 2.345 16.489c-.003.076-.009.258-.009.258 0 4.441 2.301 8.578 6.418 11.742 2.631 6.237 10.481 10.105 20.733 10.105 9.873 0 17.514-3.615 20.412-9.466 3.603-.526 16.184-2.858 20.746-10.217 1.136-1.828 1.703-3.812 1.703-5.931 0-1.578-.314-3.229-.944-4.946l-.149-.397-.308-.294c-.51-.479-2.127-1.884-12.487-3.332.244-1.683.565-3.926.565-3.926-.014-.027-.02-.147-.02-.302 0-.338.023-.835.023-.835 0-9.935-12.976-17.72-29.542-17.72-16.56-.001-29.537 7.785-29.537 17.72zm3.581 0c0-7.662 11.889-14.14 25.958-14.14 14.072 0 25.961 6.478 25.961 14.14l-.035.708-.755 5.623-.257 1.802 1.804.229c7.495.95 10.906 1.936 11.98 2.463.363 1.119.58 2.192.58 3.193 0 1.465-.388 2.809-1.164 4.06-4.325 6.978-18.906 8.654-19.052 8.67l-1.087.119-.39 1.024c-1.895 4.968-8.798 8.176-17.586 8.176-8.852 0-15.769-3.243-17.617-8.256l-.188-.506-.436-.317c-3.488-2.546-5.329-5.721-5.329-9.189l.007-.172-.01-.428-2.387-16.571c.039.08.002-.627.003-.628z"/>
  <path fill="#999" d="m82.287 73.701-.433 3.006-.012.312.007.084c0 1.363-.314 2.73-.93 4.057l-1.586 3.428 3.659-.939c11.133-2.859 11.887-5.752 12.134-6.701.192-.735.294-2.181-1.2-3.607-.562-.541-.875-.844-9.801-1.171l-1.607-.062zm3.313 2.11c3.359.144 5.155.293 5.951.395-.399.527-2.084 1.725-6.369 3.086.128-.729.248-1.455.248-2.188 0 0-.002-.048-.004-.074.002-.015.091-.621.174-1.219z"/>
  <path fill="url(#i)" d="m78.466 84.541c0 6.97-7.748 12.616-19.892 12.616-12.143 0-19.893-5.646-19.893-12.616 0-6.971 7.75-12.618 19.893-12.618 12.144 0 19.892 5.647 19.892 12.618z"/>
  <path fill="url(#i)" d="m78.466 84.541c0 6.97-7.748 12.616-19.892 12.616-12.143 0-19.893-5.646-19.893-12.616 0-6.971 7.75-12.618 19.893-12.618 12.144 0 19.892 5.647 19.892 12.618z"/>
  <path d="m78.466 84.305c0 5.708-7.748 10.333-19.892 10.333-12.143 0-19.893-4.625-19.893-10.333 0-5.707 7.75-10.332 19.893-10.332 12.144 0 19.892 4.625 19.892 10.332z" opacity=".19"/>
  <path fill="url(#j)" d="m86.337 60.187h-.057c.026-.292.042-.587.042-.883 0-8.798-12.423-15.929-27.748-15.929s-27.751 7.131-27.751 15.929c0 .296.019.591.045.883h-.028l2.388 16.572c-.004.112-.018.229-.018.344 0 8.794 10.04 15.928 25.365 15.928s25.361-7.134 25.361-15.928c0-.107-.01-.211-.014-.316h.029z"/>
  <path fill="url(#k)" d="m86.322 59.304c0 8.799-12.423 15.927-27.748 15.927s-27.751-7.128-27.751-15.927c0-8.798 12.426-15.929 27.751-15.929s27.748 7.13 27.748 15.929z"/>
  <path fill="url(#l)" d="m58.574 51.951c11.62 0 21.347 4.602 24.015 10.799.483-1.105.75-2.257.75-3.446 0-7.852-11.086-14.214-24.765-14.214s-24.768 6.363-24.768 14.214c0 1.189.27 2.341.753 3.446 2.67-6.198 12.396-10.799 24.015-10.799z"/>
  <path fill="url(#m)" d="m58.574 73.519c10.977 0 20.271-4.101 23.518-9.778.188-.327.35-.656.497-.99-2.668-6.198-12.395-10.799-24.015-10.799s-21.345 4.602-24.015 10.799c.146.334.308.663.496.99 3.248 5.677 12.543 9.778 23.519 9.778z"/>
  <path fill="url(#n)" d="m79.236 67.109c1.191-1.036 2.167-2.165 2.855-3.369.188-.327.35-.656.497-.99-2.668-6.198-12.395-10.799-24.015-10.799s-21.345 4.602-24.015 10.799c.146.334.308.663.496.99.69 1.204 1.666 2.333 2.858 3.369 4.421-3.854 12.014-6.404 20.661-6.404 8.648 0 16.24 2.551 20.663 6.404z"/>
  <path fill="url(#o)" d="m79.067 61.303c-4.422-4.816-12.015-7.998-20.661-7.998-8.649 0-16.243 3.182-20.664 7.998 4.428 4.812 12.145-.435 20.792-.435 8.648 0 16.108 5.246 20.533.435z"/>
  <path fill="#ccc" d="m57.222 14.441c0 8.91-17.5 12.784-17.5 19.371 0 6.583 23.783 4.352 23.783 8.523s-10.77 8.001-10.77 18.983c0-9.27 23.782-11.623 23.782-18.598s-24.68-4.262-24.68-10.07c0-5.814 5.385-10.073 5.385-18.209z" opacity=".58"/>
  <path fill="url(#p)" d="m83.974 65.703s12.8 1.398 14.834 3.305c5.831 15.913-20.984 18.823-20.984 18.823l3.153-5.469s16.437-3.5 12.012-7.728c-.444-.427-9.699-.717-9.699-.717-1.21-1.128-.294-7.3.684-8.214z"/>
  <path fill="#fff" d="m84.336 71.751s10.353 1.067 11.075 1.746c1.677 1.573-.518 4.27-.518 4.27s4.295-3.538 1.811-5.87c-1.345-1.259-12.368-.146-12.368-.146z" opacity=".48"/>
  <path fill="#fff" d="m81.418 85.933c4.065-.69 10.175-3.185 13.522-5.684-1.365 3.079-10.748 5.684-13.522 5.684z" opacity=".74"/>
  <path fill="#fff" d="m32.896 67.166c1.501 3.777 5.701 7.054 11.233 9.094 1.754.645.416 13.771 10.39 15.143-2.698-5.619-1.399-13.068.356-12.97 8.091.453 16.99-1.552 24.221-7.323-16.418 10.001-40.484 5.638-46.198-3.943h-.002z" opacity=".74"/>
  <path fill="url(#q)" d="m85.191 90.976v35.754h1.793l33.639-33.639v-2.115z" opacity=".1"/>
  <path fill="#fff" d="m87.537 126.948 33.627-33.627h-33.627z"/>
  <path fill="url(#r)" d="m89.865 125.056 29.594-29.592h-29.594z"/>
  <path fill="url(#s)" d="m87.537 92.821c-.277 0-.5.223-.5.5v33.627c0 .203.121.385.309.463.186.076.402.033.545-.109l33.627-33.627c.143-.145.186-.359.109-.545-.078-.188-.26-.309-.463-.309zm32.42 1c-1.58 1.578-30.342 30.34-31.92 31.92 0-2.209 0-30.986 0-31.92z"/>
  <g fill="#fff">
    <path d="m16.523 6.203h1.734v5.446c0 .712-.063 1.26-.188 1.644-.168.501-.473.902-.914 1.206-.442.303-1.024.455-1.748.455-.848 0-1.501-.24-1.958-.719-.458-.479-.688-1.182-.692-2.109l1.641-.188c.02.5.091.854.216 1.061.187.314.471.471.852.471.385 0 .658-.11.817-.332.16-.221.24-.68.24-1.376z"/>
    <path d="m27.854 14.797h-1.867l-.746-1.953h-3.447l-.705 1.953h-1.86l3.305-8.594h1.857zm-3.184-3.406-1.199-3.188-1.152 3.188z"/>
    <path d="m30.075 14.797-3.071-8.594h1.88l2.174 6.359 2.104-6.359h1.842l-3.056 8.594z"/>
    <path d="m42.742 14.797h-1.867l-.746-1.953h-3.447l-.705 1.953h-1.86l3.305-8.594h1.857zm-3.183-3.406-1.199-3.188-1.152 3.188z"/>
  </g>
  <path fill="none" d="m128 128h-128v-128h128z"/>
  <path fill="none" d="m128 128h-128v-128h128z"/>
</svg>
