<?xml version="1.0" encoding="UTF-8" standalone="no"?>
<svg xmlns="http://www.w3.org/2000/svg" xmlns:xlink="http://www.w3.org/1999/xlink" width="128" height="128">
  <linearGradient id="e" x1="63.92" x2="63.92" y1="154.565" y2="-100.935" gradientUnits="userSpaceOnUse">
    <stop offset="0" stop-color="#fff"/>
    <stop offset=".246" stop-color="#f6f6f6"/>
    <stop offset=".637" stop-color="#dfdfdf"/>
    <stop offset="1" stop-color="#c4c4c4"/>
  </linearGradient>
  <linearGradient id="a">
    <stop offset="0" stop-color="#b3b3b3"/>
    <stop offset="1" stop-color="#828282"/>
  </linearGradient>
  <linearGradient xlink:href="#a" id="f" x1="-26.333" x2="56.166" y1="-26.333" y2="56.166" gradientUnits="userSpaceOnUse"/>
  <linearGradient id="g" x1="43.023" x2="204.007" y1="25.421" y2="111.065" gradientUnits="userSpaceOnUse">
    <stop offset="0" stop-color="#fff"/>
    <stop offset=".86" stop-color="#dadada"/>
    <stop offset="1" stop-color="#d4d4d4"/>
  </linearGradient>
  <linearGradient id="b">
    <stop offset=".13" stop-color="#063"/>
    <stop offset=".485" stop-color="#3c3"/>
    <stop offset=".87" stop-color="#9f0"/>
  </linearGradient>
  <linearGradient xlink:href="#b" id="h" x1="79.245" x2="-59.507" y1="10.651" y2="10.651" gradientUnits="userSpaceOnUse"/>
  <linearGradient id="i" x1="89.56" x2="118.833" y1="86.673" y2="85.139" gradientUnits="userSpaceOnUse">
    <stop offset=".28" stop-color="#093"/>
    <stop offset=".54" stop-color="#3c3"/>
    <stop offset=".72" stop-color="#9f0"/>
  </linearGradient>
  <linearGradient id="j" x1="86.082" x2="117.423" y1="46.215" y2="46.762" gradientUnits="userSpaceOnUse">
    <stop offset=".27" stop-color="#093"/>
    <stop offset=".509" stop-color="#3c3"/>
    <stop offset=".73" stop-color="#9f0"/>
  </linearGradient>
  <linearGradient id="k" x1="54.644" x2="107.593" y1="100.449" y2="88.225" gradientUnits="userSpaceOnUse">
    <stop offset=".36" stop-color="#093"/>
    <stop offset=".472" stop-color="#3c3"/>
    <stop offset=".64" stop-color="#9f0"/>
  </linearGradient>
  <linearGradient id="l" x1="55.096" x2="82.31" y1="117.831" y2="88.648" gradientUnits="userSpaceOnUse">
    <stop offset=".28" stop-color="#093"/>
    <stop offset=".478" stop-color="#3c3"/>
    <stop offset=".72" stop-color="#9f0"/>
  </linearGradient>
  <linearGradient id="m" x1="48.367" x2="82.536" y1="128.45" y2="99.778" gradientTransform="matrix(.9736 -.1099 -.0908 .9916 26.387 -6.4824)" gradientUnits="userSpaceOnUse">
    <stop offset=".22" stop-color="#093"/>
    <stop offset=".472" stop-color="#3c3"/>
    <stop offset=".78" stop-color="#9f0"/>
  </linearGradient>
  <linearGradient xlink:href="#b" id="n" x1="60.076" x2="106.32" y1="87.587" y2="77.757" gradientUnits="userSpaceOnUse"/>
  <linearGradient id="o" x1="64.853" x2="115.114" y1="56.092" y2="64.052" gradientUnits="userSpaceOnUse">
    <stop offset=".04" stop-color="#093"/>
    <stop offset=".316" stop-color="#3c3"/>
    <stop offset=".96" stop-color="#9f0"/>
  </linearGradient>
  <linearGradient id="p" x1="72.349" x2="112.257" y1="63.26" y2="68.16" gradientUnits="userSpaceOnUse">
    <stop offset=".16" stop-color="#ff6"/>
    <stop offset=".84" stop-color="#fff"/>
  </linearGradient>
  <linearGradient id="q" x1="74.251" x2="113.541" y1="57.583" y2="65.22" gradientUnits="userSpaceOnUse">
    <stop offset=".09" stop-color="#9f0"/>
    <stop offset=".713" stop-color="#ff9"/>
    <stop offset=".91" stop-color="#ffc"/>
  </linearGradient>
  <linearGradient id="r" x1="56.188" x2="102.781" y1="48.277" y2="48.277" gradientUnits="userSpaceOnUse">
    <stop offset=".18" stop-color="#063"/>
    <stop offset=".436" stop-color="#093"/>
    <stop offset=".82" stop-color="#9f0"/>
  </linearGradient>
  <linearGradient id="s" x1="70.767" x2="106.885" y1="35.666" y2="41.386" gradientUnits="userSpaceOnUse">
    <stop offset=".05" stop-color="#093"/>
    <stop offset=".32" stop-color="#3c3"/>
    <stop offset=".95" stop-color="#9f0"/>
  </linearGradient>
  <linearGradient id="t" x1="72.663" x2="116.926" y1="47.739" y2="30.748" gradientUnits="userSpaceOnUse">
    <stop offset=".28" stop-color="#063"/>
    <stop offset=".456" stop-color="#093"/>
    <stop offset=".72" stop-color="#9f0"/>
  </linearGradient>
  <linearGradient id="u" x1="68.948" x2="78.561" y1="39.898" y2="41.079" gradientUnits="userSpaceOnUse">
    <stop offset=".17" stop-color="#ff6"/>
    <stop offset=".83" stop-color="#fff"/>
  </linearGradient>
  <linearGradient id="v" x1="72.97" x2="79.129" y1="37.745" y2="41.899" gradientUnits="userSpaceOnUse">
    <stop offset=".01" stop-color="#9f0"/>
    <stop offset=".755" stop-color="#ff9"/>
    <stop offset=".99" stop-color="#ffc"/>
  </linearGradient>
  <linearGradient id="w" x1="67.722" x2="20.003" y1="55.04" y2="64.316" gradientUnits="userSpaceOnUse">
    <stop offset=".33" stop-color="#ff6"/>
    <stop offset=".67" stop-color="#fff"/>
  </linearGradient>
  <linearGradient id="x" x1="62.13" x2="23.921" y1="51.195" y2="74.154" gradientUnits="userSpaceOnUse">
    <stop offset=".2" stop-color="#9f0"/>
    <stop offset=".62" stop-color="#ff9"/>
    <stop offset=".8" stop-color="#ffc"/>
  </linearGradient>
  <linearGradient id="y" x1="19.987" x2="55.928" y1="68.855" y2="66.971" gradientUnits="userSpaceOnUse">
    <stop offset=".09" stop-color="#366"/>
    <stop offset=".91" stop-color="#fff"/>
  </linearGradient>
  <linearGradient id="z" x1="39.422" x2="36.955" y1="56.736" y2="60.395" gradientUnits="userSpaceOnUse">
    <stop offset=".11" stop-color="#3c3"/>
    <stop offset=".89" stop-color="#9f0"/>
  </linearGradient>
  <linearGradient id="A" x1="68.616" x2="49.294" y1="55.92" y2="62.573" gradientUnits="userSpaceOnUse">
    <stop offset=".06" stop-color="#3c3"/>
    <stop offset=".94" stop-color="#9f0"/>
  </linearGradient>
  <linearGradient id="c">
    <stop offset=".21" stop-color="#093"/>
    <stop offset=".442" stop-color="#3c3"/>
    <stop offset=".79" stop-color="#9f0"/>
  </linearGradient>
  <linearGradient xlink:href="#c" id="B" x1="64.585" x2="23.46" y1="46.118" y2="58.691" gradientUnits="userSpaceOnUse"/>
  <linearGradient id="C" x1="45.48" x2="28.952" y1="50.465" y2="54.586" gradientUnits="userSpaceOnUse">
    <stop offset=".23" stop-color="#3c3"/>
    <stop offset=".77" stop-color="#cf6"/>
  </linearGradient>
  <linearGradient xlink:href="#c" id="D" x1="50.582" x2="31.654" y1="70.997" y2="76.784" gradientTransform="matrix(1 .0721 0 .8449 11.3203 -14.1697)" gradientUnits="userSpaceOnUse"/>
  <linearGradient id="d">
    <stop offset="0" stop-color="#85de00"/>
    <stop offset=".5" stop-color="#ff9"/>
    <stop offset="1" stop-color="#ffc"/>
  </linearGradient>
  <linearGradient xlink:href="#d" id="E" x1="38.715" x2="28.803" y1="60.116" y2="62.587" gradientUnits="userSpaceOnUse"/>
  <linearGradient xlink:href="#d" id="F" x1="33.297" x2="29.797" y1="64.291" y2="65.163" gradientUnits="userSpaceOnUse"/>
  <linearGradient xlink:href="#d" id="G" x1="27.575" x2="23.54" y1="82.741" y2="83.747" gradientTransform="matrix(.8673 0 .1969 .8673 -3.8214 -7.4709)" gradientUnits="userSpaceOnUse"/>
  <linearGradient xlink:href="#d" id="H" x1="26.36" x2="22.398" y1="83.01" y2="83.852" gradientTransform="matrix(.7345 -.0209 .1877 .7297 4.7347 4.6306)" gradientUnits="userSpaceOnUse"/>
  <linearGradient xlink:href="#d" id="I" x1="26.832" x2="24.028" y1="74.091" y2="73.796" gradientTransform="matrix(.6018 -.2128 .3495 .5534 -.5758 27.9815)" gradientUnits="userSpaceOnUse"/>
  <linearGradient xlink:href="#d" id="J" x1="98.926" x2="101.641" y1="101.73" y2="97.21" gradientTransform="matrix(-.533 -.2128 -.174 .5534 92.2149 27.3584)" gradientUnits="userSpaceOnUse"/>
  <linearGradient xlink:href="#d" id="K" x1="112.518" x2="115.231" y1="104.152" y2="99.637" gradientTransform="matrix(-.3857 -.2128 -.224 .5534 87.3038 26.7363)" gradientUnits="userSpaceOnUse"/>
  <linearGradient id="L" x1="32.919" x2="25.163" y1="56.233" y2="59.211" gradientUnits="userSpaceOnUse">
    <stop offset=".33" stop-color="#093"/>
    <stop offset=".466" stop-color="#3c3"/>
    <stop offset=".67" stop-color="#9f0"/>
  </linearGradient>
  <linearGradient id="M" x1="37.068" x2="36.657" y1="74.693" y2="82.525" gradientTransform="matrix(.8713 0 0 .8441 15.2285 -7.7885)" gradientUnits="userSpaceOnUse">
    <stop offset=".21" stop-color="#996"/>
    <stop offset=".79" stop-color="#330"/>
  </linearGradient>
  <linearGradient id="N" x1="48.866" x2="45.711" y1="60.418" y2="56.38" gradientUnits="userSpaceOnUse">
    <stop offset=".32" stop-color="#996"/>
    <stop offset=".68" stop-color="#fff"/>
  </linearGradient>
  <linearGradient id="O" x1="-14.752" x2="-14.889" y1="73.682" y2="81.537" gradientTransform="matrix(.1783 0 -.0407 .4903 53.5471 20.5797)" gradientUnits="userSpaceOnUse">
    <stop offset=".17" stop-color="#996"/>
    <stop offset=".83" stop-color="#330"/>
  </linearGradient>
  <linearGradient id="P" x1="84.57" x2="76.279" y1="135.099" y2="88.076" gradientTransform="matrix(.137 -.4108 .7052 .2473 5.4668 59.4601)" gradientUnits="userSpaceOnUse">
    <stop offset="0" stop-color="#093"/>
    <stop offset=".37" stop-color="#3c3"/>
    <stop offset="1" stop-color="#9f0"/>
  </linearGradient>
  <linearGradient id="Q" x1="88.071" x2="101.35" y1="83.769" y2="34.214" gradientTransform="matrix(.0301 -.4734 -.4953 -.1543 109.2221 91.85)" gradientUnits="userSpaceOnUse">
    <stop offset=".29" stop-color="#093"/>
    <stop offset=".445" stop-color="#3c3"/>
    <stop offset=".71" stop-color="#9f0"/>
  </linearGradient>
  <linearGradient id="R" x1="22.57" x2="13.487" y1="72.652" y2="71.537" gradientUnits="userSpaceOnUse">
    <stop offset=".21" stop-color="#4c4c4c"/>
    <stop offset=".79" stop-color="#fff"/>
  </linearGradient>
  <radialGradient id="S" cx="108.467" cy="118.249" r="34.736" gradientUnits="userSpaceOnUse">
    <stop offset="0"/>
    <stop offset="1"/>
  </radialGradient>
  <linearGradient id="T" x1="104.017" x2="95.088" y1="98.181" y2="135.794" gradientUnits="userSpaceOnUse">
    <stop offset="0" stop-color="#fff"/>
    <stop offset="1" stop-color="#ccc"/>
  </linearGradient>
  <linearGradient xlink:href="#a" id="U" x1="82.309" x2="96.104" y1="88.093" y2="101.888" gradientUnits="userSpaceOnUse"/>
  <path fill="#fff" d="M121.164 1.052H6.836v125.896h80.701l33.627-33.627z"/>
  <path fill="url(#e)" d="M117.734 4.019H10.266l-.16 122.654h76.457l31.172-31.252V4.019z"/>
  <path fill="url(#f)" d="M121.164.552H6.336v126.896h81.408l33.92-33.92V.552zm-.5 1v91.562L87.33 126.448H7.336V1.552h113.328z"/>
  <path fill="url(#g)" d="M118.006 15.223V3.94H10.199l-.096 65.34c9.975 4.547 21.151 7.096 32.954 7.096 37.345 0 68.398-27.5 74.949-61.153z"/>
  <path fill="url(#h)" fill-rule="evenodd" d="M117.613 17.023H10.229V4.279h107.384z" clip-rule="evenodd"/>
  <path fill="#fff" d="M14.713 15.069V5.89h2.964c1.123 0 1.855.046 2.197.138.524.138.963.437 1.316.897.354.461.53 1.056.53 1.786 0 .563-.102 1.036-.306 1.42s-.463.685-.777.904-.633.364-.958.435c-.441.088-1.079.131-1.916.131h-1.204v3.469h-1.846zm1.848-7.628v2.608h1.011c.728 0 1.214-.048 1.46-.144.245-.096.438-.247.577-.452s.209-.443.209-.715c0-.334-.098-.61-.293-.828-.195-.217-.443-.353-.742-.408-.221-.042-.664-.062-1.329-.062h-.893zm9.089 7.628v-3.863L22.287 5.89h2.183l2.149 3.641 2.109-3.641h2.131l-3.363 5.329v3.851H25.65zm8.215 0V7.441h-2.707V5.89h7.261v1.551h-2.708v7.628zm5.769 0V5.89h1.847V9.5h3.624V5.89h1.847v9.179h-1.847V11.05H41.48v4.019zm8.872-4.533c0-.938.14-1.724.419-2.36.208-.469.493-.89.854-1.262.361-.373.756-.649 1.186-.829.571-.243 1.23-.364 1.977-.364 1.352 0 2.433.421 3.244 1.262s1.217 2.011 1.217 3.509c0 1.486-.402 2.648-1.208 3.487-.805.839-1.881 1.259-3.229 1.259-1.364 0-2.448-.417-3.253-1.252-.804-.835-1.207-1.985-1.207-3.45zm1.904-.063c0 1.045.24 1.838.722 2.377.481.54 1.092.809 1.833.809s1.348-.268 1.823-.803.712-1.338.712-2.408c0-1.058-.231-1.847-.694-2.367S53.73 7.3 52.964 7.3s-1.383.264-1.852.79c-.468.527-.702 1.322-.702 2.383zm8.444 4.596V5.89h1.801l3.754 6.133V5.89h1.719v9.179h-1.857l-3.698-6.014v6.014z"/>
  <g fill-rule="evenodd" clip-rule="evenodd">
    <path fill="url(#i)" d="M117.524 55.941v40.34l-19.062 19.192-7.411-51.093-.021-.144z"/>
    <path fill="url(#j)" d="m85.991 28.278 31.533 10.438v17.225l-26.493 8.296z"/>
    <path fill="url(#k)" d="M57.963 74.895c5.121-3.018 10.241-3.693 13.928-9.769 12.087-.712 28.668 7.939 35.369 5.249-12.501 18.997-12.159 28.027-8.797 45.099-3.361-.033-8.442 8.361-9.161 8.316-6.755-.422-12.634.137-19.719.067-7.363-16.098-10.518-32.058-11.62-48.962z"/>
    <path fill="url(#l)" d="M64.094 88.144c-.598.132-1.812 2.765-1.631 3.45.188.686 1.515 1.56 1.802 1.369s1.584-2.522 1.611-2.973c.034-.454-1.181-1.977-1.782-1.846m5.544 29.186c-.607.32-1.256 2.991-.895 3.52.368.525 2 .816 2.263.554.26-.26 1.068-2.704.99-3.104-.075-.397-1.747-1.288-2.358-.97m.369 6.53c.074-.358.115-.646.088-.758-.054-.208-.595-.522-1.174-.709.218.487.437.976.662 1.464.14 0 .279.003.424.003m3.392-6.025c-.604.354-1.131 3.012-.728 3.5.399.484 2.083.647 2.336.375.249-.276.949-2.717.85-3.1-.098-.382-1.854-1.131-2.458-.775m-2.133 4.739c-.242.163-.447.692-.569 1.297 1.04.014 2.071.027 3.096.051.064-.403.096-.727.054-.843-.131-.362-1.984-.908-2.581-.505m-3.465-2.796c.362-.822.819-2.176.781-2.473-.058-.399-1.572-1.365-2.215-1.153.454 1.208.936 2.418 1.434 3.626m-.478-13.716c-.614.242-1.501 2.922-1.208 3.52.29.598 1.815 1.134 2.085.901.276-.236 1.294-2.652 1.26-3.079-.03-.424-1.529-1.589-2.137-1.342m-2.413 4.769c-.099.041-.208.14-.317.289.431 1.301.877 2.602 1.351 3.902.39-.669 1.135-2.485 1.104-2.848-.032-.426-1.527-1.586-2.138-1.343m5.986-3.481c-.611.242-1.501 2.922-1.208 3.522.293.597 1.812 1.129 2.089.897.273-.235 1.291-2.652 1.26-3.079-.03-.423-1.529-1.586-2.141-1.34m.493 5.399c-.611.287-1.369 2.963-1.034 3.525.334.557 1.921.956 2.188.707.267-.253 1.171-2.687 1.112-3.099-.058-.409-1.656-1.423-2.266-1.133m-3.063-1.202c-.614.243-1.502 2.922-1.208 3.52.29.598 1.816 1.133 2.089.897.27-.231 1.29-2.648 1.26-3.074-.031-.427-1.532-1.588-2.141-1.343m-4.702-6.455c-.206.109-.41.481-.577.953.29 1.037.597 2.075.921 3.113.481.095.946.095 1.071-.037.26-.264 1.049-2.704.967-3.1-.082-.397-1.776-1.256-2.382-.929m.845-10.61c-.607.212-1.601 2.885-1.338 3.513.26.629 1.728 1.264 2.007 1.041.279-.219 1.383-2.621 1.369-3.056-.013-.432-1.43-1.706-2.038-1.498m-2.58 4.837c-.137.059-.284.236-.435.488.305 1.32.625 2.636.97 3.953.181.02.325.011.389-.049.27-.235 1.273-2.658 1.239-3.078-.033-.426-1.549-1.563-2.163-1.314m5.98-3.543c-.607.249-1.48 2.933-1.181 3.522.3.594 1.829 1.105 2.103.87s1.277-2.658 1.239-3.081c-.034-.423-1.547-1.56-2.161-1.311m.744 5.585c-.607.324-1.229 2.993-.856 3.512.372.52 2.021.782 2.276.52.26-.267 1.045-2.707.963-3.106-.082-.397-1.771-1.254-2.383-.926m-3.402-1.046c-.611.305-1.315 2.98-.967 3.523.352.542 1.963.888 2.226.631.263-.255 1.12-2.696 1.052-3.099-.065-.405-1.7-1.354-2.311-1.055m-3.647-7.724c-.355.106-.874 1.066-1.198 1.974.144.765.293 1.529.45 2.29.478.328 1.036.537 1.203.414.28-.208 1.468-2.581 1.475-3.024.006-.445-1.322-1.828-1.93-1.654m2.4-10.407c-.601.133-1.815 2.765-1.632 3.45.185.687 1.516 1.558 1.803 1.366.287-.188 1.581-2.52 1.611-2.974.034-.45-1.181-1.976-1.782-1.842m-2.922 4.515c-.461.103-1.27 1.652-1.55 2.689.062.41.123.819.191 1.229.451.549 1.304 1.048 1.525.901.287-.191 1.582-2.522 1.616-2.974s-1.185-1.975-1.782-1.845m6.042-2.44c-.601.134-1.816 2.765-1.631 3.45.184.689 1.512 1.56 1.802 1.369.283-.188 1.577-2.521 1.611-2.973.03-.45-1.181-1.976-1.782-1.846m-.334 5.771c-.604.178-1.693 2.833-1.465 3.49.229.654 1.635 1.393 1.919 1.185.283-.208 1.471-2.582 1.478-3.026.006-.444-1.325-1.825-1.932-1.649"/>
    <path fill="url(#m)" d="M75.353 80.832c-.885.132-2.964 2.761-2.786 3.45.181.686 1.99 1.554 2.428 1.369.437-.191 2.598-2.525 2.696-2.977.106-.453-1.458-1.972-2.338-1.842m4.051 39.164c-.905.427-1.614 3.018-.99 3.421.622.406 3.179.313 3.554.017.368-.297 1.352-2.714 1.188-3.064-.165-.349-2.847-.797-3.752-.374m.3-9.977c-.918.316-2.188 2.99-1.727 3.516.46.525 2.781.815 3.188.553.405-.26 1.88-2.7 1.818-3.099-.06-.404-2.364-1.289-3.279-.97m-3.512 4.997c-.918.354-2.008 3.011-1.488 3.493.515.488 2.921.651 3.321.378.396-.272 1.71-2.717 1.615-3.101-.095-.382-2.533-1.129-3.448-.77m8.874-4.493c-.917.354-2.006 3.007-1.487 3.495.515.485 2.922.651 3.322.376.396-.276 1.71-2.717 1.614-3.1s-2.53-1.129-3.449-.771m1.675 5.004c-.906.427-1.616 3.025-.994 3.429.624.399 3.182.311 3.553.013.376-.293 1.355-2.714 1.192-3.062-.164-.352-2.847-.803-3.751-.38m-5.347-.265c-.91.398-1.744 3.02-1.152 3.451.59.427 3.105.424 3.484.13.379-.29 1.472-2.718 1.328-3.08-.141-.359-2.748-.905-3.66-.501m-6.338-6.405c-.92.29-2.343 2.97-1.934 3.526.413.56 2.654.956 3.07.703.416-.246 2.021-2.684 1.99-3.093-.031-.412-2.212-1.419-3.126-1.136m2.714-10.111c-.912.245-2.533 2.922-2.186 3.52.35.598 2.479 1.133 2.902.901.423-.236 2.194-2.652 2.201-3.079.007-.424-2.006-1.587-2.917-1.342m-4.082 4.772c-.91.243-2.529 2.92-2.181 3.521s2.476 1.133 2.898.897c.424-.231 2.198-2.649 2.202-3.076.008-.426-2.005-1.588-2.919-1.342m9.076-3.481c-.908.242-2.53 2.922-2.182 3.519.349.598 2.475 1.133 2.897.897.427-.231 2.198-2.648 2.202-3.075.01-.427-2.003-1.591-2.917-1.341m.036 5.396c-.917.291-2.345 2.968-1.931 3.527.412.557 2.652.955 3.068.707.413-.249 2.021-2.687 1.99-3.097-.031-.413-2.212-1.424-3.127-1.137m-4.27-1.202c-.911.242-2.529 2.923-2.181 3.52.348.602 2.479 1.135 2.9.901.421-.235 2.192-2.652 2.202-3.079.008-.427-2.006-1.585-2.921-1.342m-5.974-6.454c-.921.327-2.15 2.992-1.683 3.512.478.519 2.815.781 3.223.519.403-.262 1.844-2.706 1.779-3.103-.068-.395-2.404-1.256-3.319-.928M75.1 87.17c-.908.212-2.67 2.884-2.37 3.51.301.628 2.337 1.263 2.767 1.044.43-.222 2.321-2.621 2.358-3.056.034-.437-1.851-1.71-2.755-1.498m-4.326 4.834c-.915.256-2.506 2.937-2.147 3.526.361.595 2.505 1.106 2.929.87.42-.238 2.167-2.658 2.175-3.081-.001-.424-2.042-1.564-2.957-1.315m9.071-3.54c-.911.249-2.506 2.933-2.144 3.519.358.595 2.502 1.109 2.926.874.423-.235 2.171-2.662 2.171-3.081 0-.424-2.039-1.564-2.953-1.312m.379 5.582c-.918.328-2.15 2.997-1.68 3.516.475.516 2.815.778 3.219.516.406-.266 1.848-2.707 1.778-3.103-.068-.397-2.399-1.253-3.317-.929m-4.786-1.043c-.917.301-2.267 2.981-1.83 3.524.437.539 2.719.884 3.128.628.412-.256 1.952-2.692 1.908-3.1-.045-.402-2.288-1.352-3.206-1.052m-4.292-7.724c-.897.178-2.8 2.837-2.554 3.488.246.655 2.188 1.396 2.622 1.188.43-.208 2.443-2.581 2.508-3.028.066-.44-1.682-1.825-2.576-1.648m4.763-10.412c-.884.134-2.964 2.765-2.787 3.454.182.687 1.991 1.558 2.428 1.366.438-.188 2.595-2.52 2.701-2.974.102-.453-1.462-1.976-2.342-1.846m-4.786 4.52c-.885.13-2.964 2.766-2.782 3.452.177.686 1.989 1.556 2.426 1.365.438-.188 2.595-2.519 2.697-2.973.101-.45-1.461-1.978-2.341-1.844m9.023-2.441c-.881.134-2.964 2.765-2.782 3.45.181.688 1.986 1.559 2.427 1.37.437-.191 2.594-2.526 2.696-2.978.103-.452-1.459-1.972-2.341-1.842m-1.199 5.77c-.898.177-2.799 2.833-2.554 3.488.249.652 2.188 1.396 2.621 1.185.434-.204 2.448-2.58 2.513-3.021.066-.444-1.682-1.826-2.58-1.652"/>
    <path fill="url(#n)" d="M58.458 75.144c5.125-3.014 10.245-3.696 13.931-9.772 12.088-.711 28.669 7.939 35.365 5.257-6.389 9.704-9.063 19.222-9.701 28.486-.253-.528-.472-1.033-.646-1.525-3.557-9.818-4.116-17.321-8.188-21.875-4.073-4.554-7.422-5.482-13.149-1.986-4.845 2.959-12.699 8.5-16.039 16.204-.744-4.869-1.246-9.785-1.573-14.789z"/>
    <path fill="url(#o)" d="M66.445 70.246c3.035-.8 6.019-2.561 7.432-11.088 8.322-2.479 23.998 8.671 38.514 7.292 4.447-5.593 4.444-10.912 2.424-16.1-4.773 1.802-13.768-.628-21.685-1.98-6.314-1.57-12.634-3.141-18.953-4.704-2.676 2.479-5.354 4.957-8.034 7.441.101 6.377.205 12.761.302 19.139z"/>
    <path fill="url(#p)" d="m73.461 58.686-1.362 7.21c2.438-.123 5.002 0 7.442-.123 7.794 1.379 14.419 3.571 21.462 5.714 5.079-.333 8.892-2.108 11.661-5.092z"/>
    <path fill="url(#q)" d="M73.587 56.576c6.408-2.915 26.464 6.425 40.814 5.722-.372 2.069-1.864 3.77-3.227 4.848-12.985.205-26.589-8.418-37.96-6.965.124-1.201.247-2.403.373-3.605z"/>
    <path fill="url(#r)" d="M68.634 53.32c1.127-2.021-1.536-5.503 4.745-6.056 6.285-.56 19.147 2.021 29.402 3.031-16.615-3.12-32.294-10.172-46.593-5.523 5.811 2.227 9.298 5.326 12.446 8.548z"/>
    <path fill="url(#s)" d="M69.118 34.02c1.979 4.233 5.999 6.848 12.895 10.971 7.83 2.171 15.664 4.342 23.5 6.513.985-.915 1.976-1.829 2.965-2.744-6.54-4.643-13.08-9.292-19.621-13.941-4.756-2.82-9.735-6.097-14.486-8.917-2.911.785-4.471 3.372-5.253 8.118z"/>
    <path fill="url(#t)" d="M93.684 48.869c6.039 1.407 14.306 3.878 18.112 4.227 3.807.348 3.616-.355 3.722-2.233-4.318-7.735-20.65-12.631-29.276-20.141-1.14-2.847 13.802 3.325 29.026 7.708-13.23-3.987-30.088-15.812-39.242-13.327-1.769.819-4.098 1.85 1.033 5.872 5.135 4.021 23.026 11.504 28.04 16.904 5.01 5.394-7.61.662-11.415.99z"/>
    <path fill="url(#u)" d="M68.593 36.272c.126 2.301.253 4.603.382 6.896 3.315.512 6.631 1.024 9.944 1.536-3.327-3.489-6.652-7.012-10.326-8.432z"/>
    <path fill="url(#v)" d="M69.351 32.189c2.823 5.004 8.274 9.395 15.058 13.484-2.283-.341-3.536-.683-5.82-1.024-5.172-3.011-7.603-5.906-9.694-8.691.149-1.256.302-2.513.456-3.769z"/>
    <path fill="#033" d="M19.002 68.826c1.052 1.651 1.689 3.474 3.783 4.532 2.092 1.051 5.288 1.993 7.766 2.191 2.478.194 3.673-1.55 6.919-1.355 3.247.195 9.046 1.827 12.907 1.867 3.858.038 7.312-.853 10.009-1.638 2.701-.785 4.442-1.059 6.233-3.734 1.797-2.669 3.626-7.531 3.783-11.204.156-3.674-1.011-6.213-3.113-8.869-2.103-2.656-6.469-5.107-8.903-6.309-2.431-1.188-3.288-.15-5.339-.696s-4.363-2.41-6.899-2.567c-2.537-.164-5.421.724-7.787 1.632-2.369.907-4.471 2.915-6.233 3.735-1.754.826-3.229.122-4.226 1.167-.998 1.051-.273 2.99-.888 4.198-.618 1.223-1.683 1.373-2.669 1.912-.99.532-1.898.724-2.894 1.126-.998.403-2.039.635-2.896 2.103-.853 1.468-2.079 4.172-2 6.302.082 2.132 1.396 3.948 2.447 5.607z"/>
    <path fill="#033" d="M65.549 69.897c5.305-1.638 8.188-5.94 7.058-20.284 3.351 11.524.939 20.871-7.762 22.755.294-.764.409-1.706.704-2.471zM58.85 45.202c9.368-4.703 32.465 4.964 49.916 5.824-18.082-1.755-33.007-12.835-53.09-7.06 1.29.534 1.877.711 3.174 1.236z"/>
    <path fill="#033" d="M67.842 42.383c-.116-6.001-.382-17.389 10.231-18.167 10.613-.785 25.281 10.938 40.038 14.46-16.167-2.055-29.479-14.003-39.509-13.047-10.03.949-9.583 10.343-8.818 17.635-.645-.294-1.293-.587-1.942-.881zM57.437 74.481c-.737 16.393 4.562 34.015 11.819 47.621-5.295-14.023-10.645-33.721-9.347-48.676-.827.471-1.65.588-2.472 1.055zm52.795-5.778c-12.139 18.129-12.105 29.243-11.399 46.578-1.707-12.009-4.91-23.964 7.351-44.326.946-.586 3.106-1.666 4.048-2.252z"/>
    <path fill="#033" d="M71.549 67.071c3.176-.348 5.009-.655 10.405.177 5.397.834 15.379 5.285 21.52 4.766 6.138-.526 9.6-4.212 11.463-8.821 1.865-4.609 4.002-9.661-1.409-16.051-5.415-6.39-22.52-11.641-28.75-18.522 3.232 7.878 21.274 12.569 26.633 18.877 5.357 6.301 3.834 10.609 2.292 14.815-1.543 4.2-4.812 7.435-10.583 7.756-5.773.328-15.802-3.898-20.987-4.759-5.186-.867-6.763-.649-9.702-.355-.295.711-.588 1.414-.882 2.117z"/>
    <path fill="url(#w)" d="M20.856 67.802c.976 1.468 1.57 3.079 3.516 4.015 1.939.935 4.909 1.774 7.209 1.945 2.301.177 3.411-1.373 6.425-1.201 3.018.177 8.401 1.621 11.982 1.655 3.585.034 6.793-.755 9.299-1.451s4.125-.936 5.787-3.311c1.665-2.369 3.365-6.678 3.512-9.935.144-3.257-.941-5.51-2.895-7.865-1.952-2.355-6.001-4.526-8.261-5.592-2.26-1.058-3.055-.13-4.959-.621-1.905-.485-4.049-2.13-6.408-2.273-2.356-.143-5.032.642-7.231 1.447-2.198.805-4.15 2.581-5.782 3.312s-3 .109-3.925 1.038c-.929.928-.253 2.649-.826 3.722-.573 1.078-1.564 2.006-2.479 2.484-.918.478-1.761-.15-2.689.211-.925.355-1.891.56-2.684 1.857-.795 1.304-1.932 3.702-1.86 5.592.071 1.891 1.293 3.503 2.269 4.971z"/>
    <path fill="url(#x)" d="M19.729 60.134c.58.785.587 1.864 1.741 2.362 1.15.498 3.127-.484 4.587.376 1.462.853 1.482 3.489 3.476 4.35 1.99.86 5.435.519 7.442.368 2.007-.143 2.536-.928 4.465-1.242 1.932-.308 4.513-.703 7.073-.621 2.558.089 12.671.123 8.309 1.74-4.359 1.618-12.866 3.175-19.24 5.079.137 0-.365-.027.423.015.792.047 3.407.457 5.465.825 4.452-1.311 10.006-3.105 13.351-3.925 3.352-.826 4.464-.669 6.701-.997.707.034 1.417.068 2.12.103.444-.744.874-1.598 1.263-2.513l.51-1.653c-.021.007-.042.007-.059.014-.048.007-.096.015-.137.021-.023.008-.041.014-.061.014-.049.007-.093.014-.137.027-4.069.738-9.221.499-12.802-1.604-3.018-1.775-1.266-.157-2.731-5.347-1.994-5.632-7.545-4.178-9.439-.451-.041.15-.078.293-.113.451-.266 1.216-.628 2.021-1.044 2.52-.792 1.126-1.926.846-3.059.321-.779-.341-1.543-.805-2.188-1.017l-.004-.007c-.031-.007-.062-.021-.095-.027-.031-.007-.062-.014-.096-.027-.031-.007-.062-.014-.089-.021-1.973-.417-3.769-.984-5.584-.875-1.816.116-3.162 1.162-4.342 1.497-1.182.334-1.734-.417-2.604-.622l-.745-3.107-.112-.321c-.027-.096.164-.082.259-.116.003 0 .007 0 .01-.007h-.01c-.611.26-1.215.622-1.741 1.448l-.763 2.969m2.517-4.418"/>
    <path fill="url(#y)" d="M19.996 66.539c.403.185 1.1.512 1.762.308.666-.212 1.018-1.852 2.321-1.413 1.297.443 1.83 2.996 3.861 3.761s4.435.724 6.292.553c1.857-.17 1.079-1.215 4.523-1.549 3.445-.335 17.13-1.325 17.215-.444.088.881-13.409 1.353-16.775 1.877-3.365.52-2.549 1.468-4.526 1.659-1.974.185-4.848-.041-6.95-.703-2.103-.655-2.301-2.622-3.639-2.955-1.345-.329-1.843.743-2.836 1.256-.149-.699-1.101-1.647-1.248-2.35z"/>
    <path fill="url(#z)" d="M33.896 58.933c.014 0 .028.007.042.007.467.109.942.225 1.426.328 1.973.416 5.592 3.898 6.698-.752.123-.505.304-.99.532-1.447.082-.164.171-.321.267-.471-1.307.505-2.567.982-3.755 1.283-1.932.491-3.598.784-5.21 1.052z"/>
    <path fill="url(#A)" d="M49.35 54.467c.546-.109 1.096-.198 1.646-.246 4.215-.368 9.213 2.096 12.88 1.489 1.447-.239 2.573-.806 3.57-1.502.819 1.557 1.232 3.223 1.14 5.312-.068 1.495-.464 3.208-1.034 4.854-4.14.854-10.21.444-13.951-1.754-2.332-1.372-1.079-3.318-2.11-5.094-.31-.881-.703-1.584-1.144-2.13-.311-.39-.645-.697-.997-.929z"/>
    <path fill="url(#B)" d="m22.088 56.153.745 3.114c.215.048-1.287 4.294-1.096 4.41.184.116 2.068-3.891 2.28-3.897 1.284-.048 3.591 5.564 3.489 5.571-.304.007-1.468-5.681-1.148-5.824.963-.437 2.062-1.052 3.421-1.134 1.358-.082 2.7.211 4.117.541 1.611-.268 3.277-.561 5.209-1.053 1.188-.3 2.448-.778 3.755-1.283 1.468-2.376 4.308-3.604 6.489-2.13.546-.109 1.096-.198 1.646-.246 4.215-.368 9.213 2.096 12.88 1.489 1.447-.239 2.573-.806 3.57-1.502-.396-.744-.888-1.467-1.461-2.198-.096-.116-.191-.239-.294-.355-1.949-2.355-6.001-4.526-8.261-5.592-2.26-1.058-3.055-.136-4.959-.621-1.905-.485-4.049-2.13-6.408-2.273-2.356-.143-5.032.642-7.231 1.447-2.194.805-4.15 2.581-5.782 3.312s-3 .109-3.925 1.038c-.929.928-.253 2.649-.826 3.722-.573 1.078-1.564 2.006-2.479 2.484-.918.478-1.761-.15-2.689.211-.383.144-.771.267-1.154.451z"/>
    <path fill="url(#C)" d="M29.138 49.647c-.089.294-.062 2.165-.362 2.779-.304.615 4.246.027 6.284.724 2.038.703 4.229 4.573 5.684 3.386 1.455-1.188 6.486-2.758 5.196-3.871-1.291-1.106-6.855-.342-9.668-.847-2.819-.505-7.045-2.471-7.134-2.171z"/>
    <path fill="url(#D)" d="M53.409 47.019c-3.209.027-10.098 1.448-11.654 2.717-1.553 1.263 7.544 2.109 10.685 2.546 3.14.431 8.963 2.99 9.466.273.502-2.717-5.288-5.563-8.497-5.536z"/>
    <path fill="url(#E)" d="M28.503 60.783c-.819 1.235 4.321 1.549 6.186 1.597 1.867.055 4.669 1.434 3.994-.198s-4.533-3.332-5.588-3.195c-1.052.137-3.773.56-4.592 1.796z"/>
    <path fill="url(#F)" d="M30.101 62.66c.235.648.666 2.746.525 3.879-.144 1.14 1.85.601 2.307-.314.458-.908.042-1.857-.525-2.725s-2.54-1.488-2.307-.84z"/>
    <path fill="url(#G)" d="M32.824 62.66c.379.648 1.284 2.746 1.4 3.879.123 1.14 1.986.601 2.239-.314.249-.908-.382-1.857-1.147-2.725-.757-.868-2.874-1.488-2.492-.84z"/>
    <path fill="url(#H)" d="M36.62 63.274c.342.539 1.161 2.295 1.284 3.25.13.963 1.7.465 1.889-.313.188-.777-.366-1.564-1.035-2.288-.666-.71-2.472-1.188-2.138-.649z"/>
    <path fill="url(#I)" d="M38.682 62.353c.423.354 1.567 1.583 1.929 2.341.362.766 1.526-.068 1.471-.765-.047-.696-.717-1.194-1.461-1.611-.74-.416-2.362-.327-1.939.035z"/>
    <path fill="url(#J)" d="M22.662 60.175c-.273.354-.959 1.583-1.099 2.348-.143.758-1.26-.075-1.356-.771-.095-.689.349-1.195.868-1.611.526-.41 1.864-.321 1.587.034z"/>
    <path fill="url(#K)" d="M21.648 57.997c-.273.354-1.004 1.591-1.236 2.349s-.976-.075-.945-.765c.031-.696.461-1.196.938-1.612.475-.417 1.513-.328 1.243.028z"/>
    <path fill="url(#L)" d="M24.348 58.933c-1.696 1.01 1.232-1.729 2.84-2.001s9.022.669 6.292.464c-2.731-.212-7.436.525-9.132 1.537z"/>
    <path fill="url(#M)" d="M47.346 55.252c1.748 0 3.161 1.488 3.161 3.317 0 1.831-1.413 3.312-3.161 3.312s-3.161-1.481-3.161-3.312c.001-1.829 1.414-3.317 3.161-3.317z"/>
    <path fill="url(#N)" d="M47.292 55.729c1.358 0 2.464 1.195 2.464 2.669 0 1.476-1.106 2.67-2.464 2.67-1.366 0-2.472-1.194-2.472-2.67 0-1.474 1.106-2.669 2.472-2.669z"/>
    <path fill="url(#O)" d="M47.906 56.706c.355 0 .573.86.485 1.925-.089 1.066-.451 1.926-.806 1.926s-.573-.86-.485-1.926c.086-1.065.448-1.925.806-1.925z"/>
    <path fill="url(#P)" d="M80.909 51.565c-.099.375 1.358 1.769 1.905 1.843.542.069 1.58-.463 1.543-.675-.041-.219-1.271-1.571-1.574-1.707-.31-.136-1.771.157-1.874.539m29.559 6.725c.109.452 1.851 1.285 2.285 1.121.434-.157.938-1.196.805-1.408-.132-.211-1.686-1.119-1.977-1.126-.294-.014-1.218.962-1.113 1.413m-7.23-2.247c.027.437 1.697 1.509 2.186 1.441.487-.075 1.218-.936 1.116-1.154-.1-.218-1.558-1.325-1.861-1.386-.307-.061-1.471.67-1.441 1.099m2.871 2.465c.055.438 1.755 1.441 2.222 1.339.471-.103 1.13-1.031 1.021-1.244-.115-.218-1.606-1.263-1.907-1.304-.304-.047-1.393.765-1.336 1.209m-1.307-4.492c.055.444 1.755 1.44 2.229 1.338.469-.102 1.127-1.024 1.015-1.242-.113-.211-1.608-1.256-1.908-1.304-.302-.04-1.394.771-1.336 1.208m4.038.403c.109.45 1.851 1.284 2.283 1.126.435-.164.94-1.202.805-1.413-.132-.212-1.682-1.119-1.976-1.126-.293-.006-1.221.962-1.112 1.413m-1.39 2.069c.089.45 1.82 1.338 2.267 1.194.444-.143 1.004-1.146.874-1.358-.126-.211-1.659-1.161-1.956-1.188-.296-.013-1.277.907-1.185 1.352m-6.099 1.16c.004.423 1.648 1.564 2.147 1.517.502-.041 1.29-.848 1.202-1.066-.089-.219-1.513-1.379-1.823-1.454-.308-.076-1.529.58-1.526 1.003m-6.793-3.229c-.023.41 1.573 1.625 2.088 1.618.513-.014 1.383-.745 1.309-.962-.079-.219-1.451-1.441-1.763-1.536-.31-.089-1.611.463-1.634.88m2.58 2.635c-.023.417 1.57 1.632 2.09 1.618.516-.014 1.383-.745 1.304-.963-.074-.219-1.448-1.44-1.758-1.529-.312-.095-1.613.458-1.636.874m-.523-4.348c-.023.41 1.574 1.624 2.09 1.61.512-.006 1.38-.737 1.305-.956-.075-.218-1.452-1.44-1.759-1.536-.312-.095-1.611.465-1.636.882m3.961 1.133c.004.423 1.646 1.563 2.146 1.515.499-.041 1.291-.853 1.201-1.064-.088-.219-1.511-1.378-1.822-1.454-.306-.075-1.532.572-1.525 1.003m-1.834 1.44c-.027.416 1.57 1.632 2.086 1.618.516-.007 1.383-.745 1.308-.963-.078-.219-1.45-1.434-1.762-1.529-.31-.095-1.608.458-1.632.874m-6.058 1.004c.037.437 1.71 1.495 2.194 1.42.488-.082 1.201-.956 1.1-1.174-.103-.218-1.57-1.311-1.874-1.365-.304-.062-1.455.682-1.42 1.119m-7.194-3.27c-.048.409 1.517 1.679 2.039 1.692.529.014 1.447-.662 1.382-.88-.063-.219-1.398-1.481-1.71-1.59-.309-.103-1.663.376-1.711.778m2.575 2.751c-.021.417 1.587 1.618 2.099 1.604.516-.021 1.365-.765 1.291-.983-.082-.219-1.462-1.427-1.771-1.516-.308-.095-1.598.479-1.619.895m-.567-4.362c-.021.416 1.585 1.618 2.097 1.604.516-.02 1.368-.765 1.294-.983-.079-.219-1.466-1.427-1.771-1.516-.312-.095-1.598.478-1.62.895m4.168 1.037c.034.438 1.71 1.495 2.198 1.413.481-.075 1.198-.949 1.096-1.167-.105-.22-1.569-1.312-1.873-1.373-.305-.054-1.455.69-1.421 1.127m-1.829 1.68c.013.43 1.672 1.536 2.168 1.481.49-.062 1.256-.895 1.156-1.113-.092-.219-1.532-1.351-1.84-1.419-.306-.068-1.502.62-1.484 1.051m-6.613.061c-.067.396 1.45 1.72 1.983 1.761.536.041 1.508-.574 1.454-.792-.055-.211-1.341-1.522-1.652-1.638-.311-.123-1.713.28-1.785.669m-6.554-4.11c-.099.382 1.365 1.768 1.905 1.843.542.075 1.583-.458 1.543-.676-.042-.211-1.263-1.563-1.574-1.707-.308-.135-1.772.165-1.874.54m2.239 2.868c-.103.382 1.362 1.767 1.905 1.842.539.075 1.58-.464 1.539-.676s-1.264-1.569-1.573-1.707c-.307-.135-1.771.166-1.871.541m.229-4.11c-.099.382 1.362 1.768 1.905 1.843s1.583-.457 1.543-.676c-.041-.211-1.267-1.57-1.574-1.707-.311-.136-1.772.157-1.874.54m3.953 1.707c-.068.396 1.451 1.713 1.983 1.754s1.509-.573 1.454-.785c-.056-.218-1.346-1.522-1.652-1.646-.311-.122-1.714.281-1.785.677"/>
    <path fill="url(#Q)" d="M92.13 43.721c-.044.423-1.307.949-1.658.724-.352-.232-.833-1.331-.751-1.515.086-.185 1.202-.812 1.423-.771.225.04 1.031 1.139.986 1.562M72.371 33.74c-.191.375-1.475.212-1.693-.185-.217-.403-.238-1.686-.098-1.816s1.327-.136 1.508.014c.181.156.474 1.611.283 1.987m4.999 1.864c-.134.402-1.444.512-1.717.171-.277-.342-.485-1.584-.362-1.734.119-.157 1.308-.41 1.509-.3.205.108.706 1.46.57 1.863m-2.417.777c-.154.396-1.458.417-1.715.055-.259-.362-.402-1.618-.276-1.769.13-.143 1.322-.321 1.517-.198.195.131.631 1.524.474 1.912m2.027-3.604c-.153.389-1.458.41-1.717.048-.256-.362-.403-1.618-.272-1.769.126-.143 1.32-.321 1.512-.198.194.13.635 1.522.477 1.919m-2.556-1.864c-.191.368-1.476.205-1.694-.191s-.235-1.679-.099-1.809c.141-.136 1.327-.144 1.51.007.177.157.474 1.618.283 1.993m.273 2.772c-.177.382-1.472.28-1.705-.11-.229-.389-.29-1.666-.152-1.802.136-.137 1.324-.198 1.513-.055.184.144.525 1.584.344 1.967m3.376 4.52c-.119.41-1.431.594-1.721.273s-.546-1.543-.43-1.707c.112-.157 1.293-.484 1.502-.389.205.102.768 1.412.649 1.823m5.004.669c-.099.409-1.399.696-1.71.396-.308-.293-.632-1.488-.525-1.658.105-.171 1.272-.581 1.487-.499.212.081.851 1.344.748 1.761m-2.291 1.106c-.099.416-1.398.703-1.71.402-.31-.3-.631-1.489-.525-1.659.105-.171 1.272-.581 1.488-.499.215.083.85 1.345.747 1.756m1.516-3.913c-.099.41-1.398.697-1.71.396-.307-.294-.631-1.488-.525-1.659.106-.164 1.273-.58 1.488-.499.212.083.85 1.346.747 1.762m-2.71-1.112c-.119.41-1.426.594-1.721.273-.289-.321-.546-1.543-.433-1.708.116-.157 1.297-.484 1.505-.389.205.103.768 1.414.649 1.824m.713 2.416c-.098.417-1.398.697-1.71.403-.31-.3-.631-1.495-.524-1.659.104-.17 1.272-.581 1.487-.498.212.082.846 1.338.747 1.754m3.393 4.35c-.141.403-1.447.492-1.72.144s-.465-1.591-.342-1.741c.119-.157 1.311-.397 1.509-.281.202.116.693 1.475.553 1.878m5.258.846c-.082.423-1.379.778-1.7.498-.324-.279-.694-1.447-.595-1.618.101-.177 1.254-.655 1.472-.58.219.069.905 1.284.823 1.7m-2.315 1.229c-.106.41-1.406.683-1.714.375-.307-.3-.618-1.495-.512-1.666.109-.164 1.276-.566 1.491-.478.212.082.836 1.352.735 1.769m1.544-3.905c-.103.417-1.408.684-1.712.383-.307-.301-.621-1.502-.512-1.667.106-.17 1.278-.566 1.49-.485.211.089.836 1.359.734 1.769m-2.811-1.318c-.14.396-1.447.484-1.721.143-.272-.348-.463-1.59-.344-1.748.125-.15 1.311-.389 1.512-.273.202.117.693 1.475.553 1.878m.646 2.642c-.126.41-1.438.553-1.721.218-.283-.327-.515-1.557-.396-1.714.116-.164 1.301-.451 1.505-.348.205.11.738 1.442.612 1.844m3.987 3.748c-.064.423-1.352.854-1.686.594-.335-.259-.755-1.393-.662-1.57.092-.178 1.231-.724 1.454-.669.222.055.959 1.229.894 1.645m5.103-.32c-.044.423-1.314.949-1.662.724-.349-.232-.833-1.331-.748-1.516.082-.184 1.198-.812 1.424-.771.226.04 1.027 1.146.986 1.563m-2.146 1.523c-.042.423-1.312.949-1.659.724-.349-.232-.833-1.332-.748-1.516.082-.184 1.198-.806 1.423-.771.222.04 1.028 1.146.984 1.563m.993-4.097c-.045.423-1.312.949-1.659.717-.352-.232-.833-1.325-.751-1.509.085-.184 1.201-.812 1.424-.771.224.034 1.03 1.14.986 1.563m-2.864-.56c-.065.423-1.352.854-1.687.594-.334-.252-.754-1.393-.662-1.57.093-.177 1.232-.724 1.455-.669.218.054.959 1.229.894 1.645"/>
    <path fill="#4c4c4c" d="M25.799 69.211c-5.23 1.986-7.817 7.183-8.65 14.915-.571-4.486-.936-6.716-.332-8.809-2.987.792-3.725 2.178-6.551 4.476 2.451-5.523 6.028-10.199 13.607-11.865.643.424 1.284.853 1.926 1.283z"/>
    <path fill="url(#R)" d="M13.776 75.008c2.024-3.018 4.751-5.107 8.504-5.824-1.762 1.147-3.342 2.403-3.664 4.417-1.614-.451-3.228.628-4.84 1.407z"/>
  </g>
  <path fill="url(#S)" d="M85.191 90.976v35.754h1.793l33.639-33.639v-2.115z" opacity=".1"/>
  <path fill="#fff" d="m87.537 126.948 33.627-33.627H87.537z"/>
  <path fill="url(#T)" d="m89.865 125.056 29.594-29.592H89.865z"/>
  <path fill="url(#U)" d="M87.537 92.821c-.277 0-.5.223-.5.5v33.627c0 .203.121.385.309.463.186.076.402.033.545-.109l33.627-33.627c.143-.145.186-.359.109-.545-.078-.188-.26-.309-.463-.309zm32.42 1c-1.58 1.578-30.342 30.34-31.92 31.92v-31.92z"/>
  <path fill="none" d="M128 128H0V0h128z"/>
</svg>