<?xml version="1.0" encoding="UTF-8" standalone="no"?>
<svg xmlns="http://www.w3.org/2000/svg" xmlns:xlink="http://www.w3.org/1999/xlink" width="128" height="128" viewBox="0 0 128 128">
  <linearGradient id="b" x1="63.92" x2="63.92" y1="154.565" y2="-100.936" gradientUnits="userSpaceOnUse">
    <stop offset="0" stop-color="#fff"/>
    <stop offset=".246" stop-color="#f6f6f6"/>
    <stop offset=".637" stop-color="#dfdfdf"/>
    <stop offset="1" stop-color="#c4c4c4"/>
  </linearGradient>
  <linearGradient id="a">
    <stop offset="0" stop-color="#b3b3b3"/>
    <stop offset="1" stop-color="#828282"/>
  </linearGradient>
  <linearGradient id="c" x1="-26.333" x2="56.166" y1="-26.333" y2="56.166" gradientUnits="userSpaceOnUse" xlink:href="#a"/>
  <linearGradient id="d" x1="43.023" x2="204.007" y1="25.421" y2="111.065" gradientUnits="userSpaceOnUse">
    <stop offset="0" stop-color="#fff"/>
    <stop offset=".86" stop-color="#dadada"/>
    <stop offset="1" stop-color="#d4d4d4"/>
  </linearGradient>
  <linearGradient id="e" x1="-56.69" x2="77.648" y1="10.651" y2="10.651" gradientUnits="userSpaceOnUse">
    <stop offset="0" stop-color="#fff"/>
    <stop offset=".059" stop-color="#fff9e8"/>
    <stop offset=".137" stop-color="#fff2d0"/>
    <stop offset=".185" stop-color="#fff0c7"/>
    <stop offset="1" stop-color="#ff2b00"/>
  </linearGradient>
  <radialGradient id="f" cx="108.467" cy="118.249" r="34.736" gradientUnits="userSpaceOnUse">
    <stop offset="0" stop-color="#fff"/>
    <stop offset="1"/>
  </radialGradient>
  <linearGradient id="g" x1="104.018" x2="95.089" y1="98.182" y2="135.795" gradientUnits="userSpaceOnUse">
    <stop offset="0" stop-color="#fff"/>
    <stop offset="1" stop-color="#ccc"/>
  </linearGradient>
  <linearGradient id="h" x1="82.309" x2="96.104" y1="88.093" y2="101.888" gradientUnits="userSpaceOnUse" xlink:href="#a"/>
  <path fill="#fff" d="m121.164 1.052h-114.328v125.896h80.701l33.627-33.627z"/>
  <path fill="url(#b)" d="m117.734 4.019h-107.468l-.16 122.654h76.457l31.172-31.252v-91.402z"/>
  <path fill="url(#c)" d="m121.164.552h-114.828v126.896h81.408l33.92-33.92v-92.976zm-.5 1v91.562c-.289.289-33.045 33.045-33.334 33.334-.41 0-79.01 0-79.994 0 0-.988 0-123.908 0-124.896.986 0 112.342 0 113.328 0z"/>
  <path fill="url(#d)" d="m118.006 15.223v-11.283h-107.807l-.096 65.34c9.975 4.547 21.151 7.096 32.954 7.096 37.345 0 68.398-27.5 74.949-61.153z"/>
  <path fill="url(#e)" fill-rule="evenodd" d="m117.692 17.022h-107.384v-12.743h107.385v12.743z" clip-rule="evenodd"/>
  <path fill="url(#f)" d="m85.191 90.976v35.754h1.793l33.639-33.639v-2.115z" opacity=".1"/>
  <path fill="#fff" d="m87.537 126.948 33.627-33.627h-33.627z"/>
  <path fill="url(#g)" d="m89.865 125.056 29.594-29.592h-29.594z"/>
  <path fill="url(#h)" d="m87.537 92.821c-.277 0-.5.223-.5.5v33.627c0 .203.121.385.309.463.186.076.402.033.545-.109l33.627-33.627c.143-.145.186-.359.109-.545-.078-.188-.26-.309-.463-.309zm32.42 1c-1.58 1.578-30.342 30.34-31.92 31.92 0-2.209 0-30.986 0-31.92z"/>
  <path fill="#ccc" d="m13.503 80.675v-6.289h6.289v6.289z"/>
  <path fill="#ccc" d="m47.484 68.517 6.468 1.977c-.992 3.627-2.643 6.32-4.952 8.081-2.31 1.76-5.237 2.64-8.786 2.64-4.393 0-8.003-1.494-10.829-4.485-2.829-2.988-4.242-7.075-4.242-12.262 0-5.483 1.419-9.744 4.26-12.779 2.837-3.034 6.573-4.552 11.2-4.552 4.041 0 7.323 1.19 9.848 3.575 1.501 1.407 2.628 3.431 3.38 6.068l-6.588 1.557c-.393-1.703-1.211-3.047-2.455-4.031-1.245-.984-2.755-1.479-4.537-1.479-2.459 0-4.453.876-5.983 2.63-1.531 1.753-2.296 4.593-2.296 8.518 0 4.166.754 7.131 2.264 8.899 1.509 1.769 3.472 2.651 5.889 2.651 1.782 0 3.312-.563 4.596-1.69 1.285-1.128 2.206-2.9 2.763-5.318z"/>
  <path fill="#ccc" d="m59.56 80.675v-32.94h10.665c4.042 0 6.676.165 7.904.494 1.885.496 3.464 1.572 4.736 3.23s1.909 3.799 1.909 6.423c0 2.025-.367 3.729-1.101 5.108s-1.666 2.464-2.796 3.251c-1.131.788-2.277 1.31-3.444 1.563-1.586.314-3.886.472-6.893.472h-4.333v12.398h-6.647zm6.648-27.371v9.402h3.642c2.625 0 4.378-.172 5.263-.52.884-.344 1.578-.887 2.082-1.626.501-.739.752-1.596.752-2.577 0-1.206-.352-2.2-1.057-2.984-.706-.782-1.597-1.272-2.675-1.469-.797-.151-2.393-.226-4.791-.226z"/>
  <path fill="#ccc" d="m90.239 80.675v-32.94h10.664c4.043 0 6.678.165 7.904.494 1.884.496 3.464 1.572 4.737 3.23 1.272 1.658 1.909 3.799 1.909 6.423 0 2.025-.368 3.729-1.101 5.108s-1.666 2.464-2.797 3.251c-1.13.788-2.278 1.31-3.444 1.563-1.586.314-3.884.472-6.892.472h-4.334v12.398h-6.646zm6.648-27.371v9.402h3.643c2.624 0 4.378-.172 5.264-.52.883-.344 1.577-.887 2.08-1.626s.753-1.596.753-2.577c0-1.206-.353-2.2-1.059-2.984-.705-.782-1.596-1.272-2.674-1.469-.797-.151-2.391-.226-4.791-.226z"/>
  <g fill="#fff">
    <path d="m12.904 14.375v-1.641h1.641v1.641z"/>
    <path d="m21.77 11.203 1.688.516c-.259.946-.689 1.649-1.292 2.108s-1.366.688-2.292.688c-1.146 0-2.088-.39-2.825-1.17-.738-.78-1.106-1.846-1.106-3.199 0-1.431.37-2.542 1.111-3.334.74-.792 1.715-1.188 2.922-1.188 1.054 0 1.911.311 2.569.933.392.367.686.895.882 1.583l-1.719.406c-.103-.444-.316-.795-.641-1.052s-.719-.386-1.184-.386c-.642 0-1.162.229-1.561.686s-.599 1.198-.599 2.222c0 1.087.197 1.86.591 2.322.394.461.906.692 1.536.692.465 0 .864-.147 1.199-.441s.575-.755.721-1.386z"/>
    <path d="m24.92 14.375v-8.594h2.782c1.055 0 1.742.043 2.062.129.492.13.904.41 1.236.843s.498.991.498 1.676c0 .528-.096.973-.287 1.333s-.435.643-.729.848c-.295.206-.594.342-.898.408-.414.082-1.014.123-1.798.123h-1.13v3.234zm1.734-7.141v2.453h.95c.685 0 1.142-.045 1.373-.136.23-.09.412-.231.543-.424s.196-.417.196-.672c0-.314-.092-.574-.276-.778s-.417-.332-.698-.383c-.208-.04-.624-.059-1.25-.059h-.838z"/>
    <path d="m32.924 14.375v-8.594h2.782c1.055 0 1.742.043 2.062.129.492.129.904.41 1.236.843s.498.991.498 1.676c0 .528-.096.973-.287 1.333s-.435.643-.729.848c-.295.206-.594.342-.898.408-.414.082-1.014.123-1.798.123h-1.13v3.234zm1.734-7.141v2.453h.95c.685 0 1.142-.045 1.373-.136.23-.09.412-.231.543-.424s.196-.417.196-.672c0-.314-.092-.574-.276-.778s-.417-.332-.698-.383c-.208-.04-.624-.059-1.25-.059h-.838z"/>
  </g>
  <path fill="none" d="m128 128h-128v-128h128z"/>
</svg>
