<?xml version="1.0" encoding="UTF-8" standalone="no"?>
<svg xmlns="http://www.w3.org/2000/svg" xmlns:xlink="http://www.w3.org/1999/xlink" width="128" height="128" viewBox="0 0 128 128">
  <linearGradient id="j" x1="63.92" x2="63.92" y1="154.565" y2="-100.935" gradientUnits="userSpaceOnUse">
    <stop offset="0" stop-color="#fff"/>
    <stop offset=".246" stop-color="#f6f6f6"/>
    <stop offset=".637" stop-color="#dfdfdf"/>
    <stop offset="1" stop-color="#c4c4c4"/>
  </linearGradient>
  <linearGradient id="a">
    <stop offset="0" stop-color="#b3b3b3"/>
    <stop offset="1" stop-color="#828282"/>
  </linearGradient>
  <linearGradient id="k" x1="-26.333" x2="56.166" y1="-26.333" y2="56.166" gradientUnits="userSpaceOnUse" xlink:href="#a"/>
  <linearGradient id="l" x1="43.023" x2="204.007" y1="25.421" y2="111.065" gradientUnits="userSpaceOnUse">
    <stop offset="0" stop-color="#fff"/>
    <stop offset=".86" stop-color="#dadada"/>
    <stop offset="1" stop-color="#d4d4d4"/>
  </linearGradient>
  <linearGradient id="b">
    <stop offset="0" stop-color="#ffff72"/>
    <stop offset="1" stop-color="#ff8d00"/>
  </linearGradient>
  <linearGradient id="m" x1="-11.162" x2="38.836" y1="10.651" y2="10.651" gradientUnits="userSpaceOnUse" xlink:href="#b"/>
  <linearGradient id="c">
    <stop offset="0" stop-color="#fff"/>
    <stop offset=".444" stop-color="#ff5b00"/>
    <stop offset="1" stop-color="#ff3d00"/>
  </linearGradient>
  <linearGradient id="n" x1="307.725" x2="307.725" y1="1526.557" y2="1475.134" gradientTransform="matrix(-.3039 -.9527 .9527 -.3039 -1231.8914 807.8513)" gradientUnits="userSpaceOnUse" xlink:href="#c"/>
  <linearGradient id="o" x1="93.578" x2="61.185" y1="89.608" y2="59.489" gradientTransform="matrix(.986 -.1667 .1667 .986 -9.7907 10.7354)" gradientUnits="userSpaceOnUse" xlink:href="#b"/>
  <linearGradient id="p" x1="1633.459" x2="1633.459" y1="-897.239" y2="-937.344" gradientTransform="matrix(.4588 -.8885 .8885 .4588 164.7193 1953.2186)" gradientUnits="userSpaceOnUse" xlink:href="#b"/>
  <linearGradient id="q" x1="1635.176" x2="1635.176" y1="-995.702" y2="-937.205" gradientTransform="matrix(.4588 -.8885 .8885 .4588 164.7193 1953.2186)" gradientUnits="userSpaceOnUse">
    <stop offset="0" stop-color="#fff"/>
    <stop offset=".115" stop-color="#fff8e9"/>
    <stop offset=".354" stop-color="#ffe6b0"/>
    <stop offset=".694" stop-color="#ffc957"/>
    <stop offset="1" stop-color="#ffae00"/>
  </linearGradient>
  <linearGradient id="r" x1="63.861" x2="63.861" y1="342.565" y2="351.328" gradientTransform="matrix(.9527 -.3039 .3039 .9527 -87.5681 -228.7571)" gradientUnits="userSpaceOnUse">
    <stop offset="0" stop-color="#ffb800"/>
    <stop offset="1" stop-color="#fff"/>
  </linearGradient>
  <linearGradient id="d">
    <stop offset="0" stop-color="#fff"/>
    <stop offset="1" stop-color="#fff"/>
  </linearGradient>
  <linearGradient id="s" x1="63.742" x2="63.742" y1="342.422" y2="349.802" gradientTransform="matrix(.9527 -.3039 .3039 .9527 -87.5681 -228.7571)" gradientUnits="userSpaceOnUse" xlink:href="#d"/>
  <linearGradient id="e">
    <stop offset="0" stop-color="#905100"/>
    <stop offset="1" stop-color="#582d00"/>
  </linearGradient>
  <linearGradient id="t" x1="997.045" x2="1018.713" y1="-575.918" y2="-553.6" gradientTransform="matrix(.5106 -1.0316 1.0135 .5456 117.6958 1418.3783)" gradientUnits="userSpaceOnUse" xlink:href="#e"/>
  <linearGradient id="f">
    <stop offset=".011" stop-color="#c76200"/>
    <stop offset=".691" stop-color="#ffcf00"/>
    <stop offset=".779" stop-color="#fccd00"/>
    <stop offset=".833" stop-color="#f4c500"/>
    <stop offset=".879" stop-color="#e5b800"/>
    <stop offset=".919" stop-color="#d1a500"/>
    <stop offset=".956" stop-color="#b68c00"/>
    <stop offset=".99" stop-color="#966f00"/>
    <stop offset="1" stop-color="#8b6500"/>
  </linearGradient>
  <linearGradient id="u" x1="-5618.227" x2="-5618.227" y1="-1832.068" y2="-1820.27" gradientTransform="matrix(1.0777 -.3436 .3557 1.1153 6762.6309 180.7494)" gradientUnits="userSpaceOnUse" xlink:href="#f"/>
  <linearGradient id="g">
    <stop offset=".006" stop-color="#fff"/>
    <stop offset=".147" stop-color="#fbf4e1"/>
    <stop offset=".456" stop-color="#f1d894"/>
    <stop offset=".907" stop-color="#e1ab1a"/>
    <stop offset="1" stop-color="#dea200"/>
  </linearGradient>
  <linearGradient id="v" x1="-5618.226" x2="-5618.226" y1="-1835.189" y2="-1828.36" gradientTransform="matrix(1.0777 -.3436 .3557 1.1153 6762.6309 180.7494)" gradientUnits="userSpaceOnUse" xlink:href="#g"/>
  <linearGradient id="w" x1="70.219" x2="70.219" y1="91.998" y2="87.476" gradientTransform="matrix(.986 -.1667 .1667 .986 -9.7907 10.7354)" gradientUnits="userSpaceOnUse" xlink:href="#c"/>
  <linearGradient id="x" x1="76.189" x2="76.189" y1="91.481" y2="86.817" gradientTransform="matrix(.986 -.1667 .1667 .986 -9.7907 10.7354)" gradientUnits="userSpaceOnUse" xlink:href="#c"/>
  <linearGradient id="y" x1="80.756" x2="80.756" y1="90.497" y2="85.77" gradientTransform="matrix(.986 -.1667 .1667 .986 -9.7907 10.7354)" gradientUnits="userSpaceOnUse" xlink:href="#c"/>
  <linearGradient id="z" x1="86.559" x2="86.559" y1="89.649" y2="85.131" gradientTransform="matrix(.986 -.1667 .1667 .986 -9.7907 10.7354)" gradientUnits="userSpaceOnUse" xlink:href="#c"/>
  <linearGradient id="A" x1="91.297" x2="91.297" y1="88.956" y2="84.275" gradientTransform="matrix(.986 -.1667 .1667 .986 -9.7907 10.7354)" gradientUnits="userSpaceOnUse" xlink:href="#c"/>
  <linearGradient id="B" x1="96.773" x2="96.773" y1="88.633" y2="83.888" gradientTransform="matrix(.986 -.1667 .1667 .986 -9.7907 10.7354)" gradientUnits="userSpaceOnUse" xlink:href="#c"/>
  <linearGradient id="C" x1="101.894" x2="101.894" y1="87.572" y2="83.118" gradientTransform="matrix(.986 -.1667 .1667 .986 -9.7907 10.7354)" gradientUnits="userSpaceOnUse" xlink:href="#c"/>
  <linearGradient id="h">
    <stop offset="0" stop-color="#fff"/>
    <stop offset=".444" stop-color="#005be1"/>
    <stop offset="1" stop-color="#003dae"/>
  </linearGradient>
  <linearGradient id="D" x1="323.348" x2="323.348" y1="1506.444" y2="1455.024" gradientTransform="matrix(-.3039 -.9527 .9527 -.3039 -1231.8914 807.8513)" gradientUnits="userSpaceOnUse" xlink:href="#h"/>
  <linearGradient id="i">
    <stop offset="0" stop-color="#fff"/>
    <stop offset=".848" stop-color="#0072ff"/>
    <stop offset="1" stop-color="#006dff"/>
  </linearGradient>
  <linearGradient id="E" x1="1630.226" x2="1630.226" y1="-929.241" y2="-967.878" gradientTransform="matrix(.4588 -.8885 .8885 .4588 164.7193 1953.2186)" gradientUnits="userSpaceOnUse" xlink:href="#i"/>
  <linearGradient id="F" x1="1630.284" x2="1630.284" y1="-922.507" y2="-962.612" gradientTransform="matrix(.4588 -.8885 .8885 .4588 164.7193 1953.2186)" gradientUnits="userSpaceOnUse" xlink:href="#i"/>
  <linearGradient id="G" x1="1632.002" x2="1632.002" y1="-1020.97" y2="-962.473" gradientTransform="matrix(.4588 -.8885 .8885 .4588 164.7193 1953.2186)" gradientUnits="userSpaceOnUse">
    <stop offset="0" stop-color="#fff"/>
    <stop offset=".115" stop-color="#e9f4ff"/>
    <stop offset=".354" stop-color="#b0d9ff"/>
    <stop offset=".694" stop-color="#57adff"/>
    <stop offset="1" stop-color="#0083ff"/>
  </linearGradient>
  <linearGradient id="H" x1="43.751" x2="43.751" y1="326.94" y2="335.702" gradientTransform="matrix(.9527 -.3039 .3039 .9527 -87.5681 -228.7571)" gradientUnits="userSpaceOnUse">
    <stop offset="0" stop-color="#a4b8e3"/>
    <stop offset="1" stop-color="#fff"/>
  </linearGradient>
  <linearGradient id="I" x1="43.631" x2="43.631" y1="326.797" y2="334.177" gradientTransform="matrix(.9527 -.3039 .3039 .9527 -87.5681 -228.7571)" gradientUnits="userSpaceOnUse" xlink:href="#d"/>
  <linearGradient id="J" x1="993.866" x2="1015.534" y1="-598.52" y2="-576.203" gradientTransform="matrix(.5106 -1.0316 1.0135 .5456 117.6958 1418.3783)" gradientUnits="userSpaceOnUse" xlink:href="#e"/>
  <linearGradient id="K" x1="-5636.456" x2="-5636.456" y1="-1845.802" y2="-1834.004" gradientTransform="matrix(1.0777 -.3436 .3557 1.1153 6762.6309 180.7494)" gradientUnits="userSpaceOnUse" xlink:href="#f"/>
  <linearGradient id="L" x1="-5636.456" x2="-5636.456" y1="-1848.922" y2="-1842.093" gradientTransform="matrix(1.0777 -.3436 .3557 1.1153 6762.6309 180.7494)" gradientUnits="userSpaceOnUse" xlink:href="#g"/>
  <linearGradient id="M" x1="50.959" x2="50.959" y1="98.053" y2="93.49" gradientTransform="matrix(.9518 -.3066 .3066 .9518 -26.0553 3.3547)" gradientUnits="userSpaceOnUse" xlink:href="#h"/>
  <linearGradient id="N" x1="57.076" x2="57.076" y1="97.89" y2="93.477" gradientTransform="matrix(.9518 -.3066 .3066 .9518 -26.0553 3.3547)" gradientUnits="userSpaceOnUse" xlink:href="#h"/>
  <linearGradient id="O" x1="62.11" x2="62.11" y1="97.89" y2="93.477" gradientTransform="matrix(.9518 -.3066 .3066 .9518 -26.0553 3.3547)" gradientUnits="userSpaceOnUse" xlink:href="#h"/>
  <linearGradient id="P" x1="67.456" x2="67.456" y1="98.068" y2="93.496" gradientTransform="matrix(.9518 -.3066 .3066 .9518 -26.0553 3.3547)" gradientUnits="userSpaceOnUse" xlink:href="#h"/>
  <linearGradient id="Q" x1="72.691" x2="72.691" y1="97.887" y2="93.475" gradientTransform="matrix(.9518 -.3066 .3066 .9518 -26.0553 3.3547)" gradientUnits="userSpaceOnUse" xlink:href="#h"/>
  <linearGradient id="R" x1="77.456" x2="77.456" y1="97.888" y2="93.475" gradientTransform="matrix(.9518 -.3066 .3066 .9518 -26.0553 3.3547)" gradientUnits="userSpaceOnUse" xlink:href="#h"/>
  <linearGradient id="S" x1="83.049" x2="83.049" y1="97.869" y2="93.496" gradientTransform="matrix(.9518 -.3066 .3066 .9518 -26.0553 3.3547)" gradientUnits="userSpaceOnUse" xlink:href="#h"/>
  <radialGradient id="T" cx="108.467" cy="118.249" r="34.736" gradientUnits="userSpaceOnUse">
    <stop offset="0"/>
    <stop offset="1"/>
  </radialGradient>
  <linearGradient id="U" x1="104.017" x2="95.088" y1="98.181" y2="135.794" gradientUnits="userSpaceOnUse">
    <stop offset="0" stop-color="#fff"/>
    <stop offset="1" stop-color="#ccc"/>
  </linearGradient>
  <linearGradient id="V" x1="82.309" x2="96.104" y1="88.093" y2="101.888" gradientUnits="userSpaceOnUse" xlink:href="#a"/>
  <path fill="#fff" d="m121.164 1.052h-114.328v125.896h80.701l33.627-33.627z"/>
  <path fill="url(#j)" d="m117.734 4.019h-107.468l-.16 122.654h76.457l31.172-31.252v-91.402z"/>
  <path fill="url(#k)" d="m121.164.552h-114.828v126.896h81.408l33.92-33.92v-92.976zm-.5 1v91.562c-.289.289-33.045 33.045-33.334 33.334-.41 0-79.01 0-79.994 0 0-.988 0-123.909 0-124.896.986 0 112.342 0 113.328 0z"/>
  <path fill="url(#l)" d="m118.006 15.223v-11.283h-107.807l-.096 65.34c9.975 4.547 21.151 7.096 32.954 7.096 37.345 0 68.398-27.5 74.949-61.153z"/>
  <path fill="url(#m)" d="m117.613 17.023h-107.384v-12.744h107.384z"/>
  <path d="m114.866 79.313-10.05-34.908c-.791-2.746-3.667-4.336-6.412-3.546l-14.471 4.167-2.001-6.949c-.792-2.746-3.668-4.336-6.412-3.546l-54.895 15.805c-2.745.79-4.334 3.667-3.545 6.412l10.05 34.906c.79 2.747 3.668 4.338 6.412 3.547l14.47-4.166 2.001 6.948c.79 2.747 3.668 4.338 6.413 3.547l54.894-15.805c2.745-.79 4.336-3.665 3.546-6.412z" opacity=".1"/>
  <path fill="url(#n)" d="m39.892 54.664c-2.721.867-4.229 3.788-3.362 6.51l11.036 34.607c.868 2.723 3.79 4.23 6.511 3.362l54.424-17.356c2.721-.867 4.229-3.786 3.362-6.51l-11.035-34.607c-.868-2.723-3.788-4.231-6.511-3.363zm10.081 40.351-11.037-34.609c-.444-1.395.329-2.892 1.723-3.336l54.425-17.355c1.395-.445 2.892.328 3.337 1.723l11.036 34.607c.445 1.396-.328 2.893-1.723 3.336l-54.424 17.355c-1.395.446-2.893-.328-3.337-1.721z"/>
  <path fill="url(#o)" d="m110.66 75.662c.658 2.061-.481 4.264-2.542 4.923l-54.425 17.356c-2.061.655-4.266-.482-4.923-2.545l-11.037-34.606c-.656-2.061.481-4.265 2.543-4.922l54.425-17.356c2.062-.657 4.266.48 4.923 2.542z"/>
  <path fill="url(#p)" d="m93.697 41.171-49.931 15.922c-1.902.605-2.952 2.64-2.346 4.54l10.178 31.916c.609 1.901 2.64 2.951 4.54 2.344l49.932-15.925c1.9-.604 2.951-2.636 2.345-4.539l-10.178-31.915c-.605-1.9-2.639-2.95-4.54-2.343z"/>
  <path fill="url(#q)" d="m93.344 40.583-51.014 15.919c-1.942.607-3.007 2.668-2.376 4.602l9.455 29.06c16.537-5.086 17.562-8.194 23.465-22.054 4.97-11.673 16.096-19.01 25.481-24.038l-.354-1.084c-.63-1.936-2.717-3.013-4.657-2.405z"/>
  <path fill="url(#r)" d="m105.093 68.217 1.993 6.255c.548 1.715-.399 3.55-2.114 4.097l-50.455 16.088c-1.715.547-3.548-.401-4.095-2.115l-1.995-6.254-2.324.742 2.668 8.366c.658 2.062 2.862 3.2 4.923 2.545l54.425-17.356c2.061-.659 3.2-2.862 2.542-4.923l-2.668-8.369z"/>
  <path fill="url(#s)" d="m54.256 95.688 51.871-16.542c1.732-.553 2.688-2.403 2.138-4.136l-2.252-7.057-58.143 18.543 2.25 7.056c.552 1.731 2.405 2.686 4.136 2.136z"/>
  <path fill="url(#t)" d="m47.747 65.411c-1.538.49-2.376 2.185-1.869 3.774l3.34 10.477c.507 1.591 2.171 2.487 3.71 1.996l13.927-4.441c1.538-.491 2.376-2.184 1.869-3.776l-3.34-10.473c-.508-1.593-2.172-2.488-3.71-1.998zm2.262 13.999-3.341-10.475c-.364-1.142.237-2.355 1.34-2.707l13.927-4.441c1.103-.352 2.295.291 2.659 1.431l3.341 10.474c.365 1.144-.237 2.356-1.34 2.708l-13.927 4.44c-1.103.353-2.296-.288-2.659-1.43z"/>
  <path fill="url(#u)" d="m67.991 73.498c.424 1.327-.272 2.732-1.555 3.143l-13.501 4.304c-1.281.409-2.663-.335-3.086-1.661l-3.239-10.153c-.422-1.327.273-2.734 1.557-3.143l13.5-4.304c1.283-.411 2.664.334 3.086 1.661z"/>
  <path fill="url(#v)" d="m64.494 65.15s-6.661-.089-8.002 4.68c-2.267 5.486-7.148 5.24-7.329 4.676l-1.586-4.973c-.388-1.215.25-2.504 1.424-2.879l12.371-3.945c1.174-.375 2.442.309 2.828 1.523z"/>
  <path fill="#ff9" d="m62.826 63.447.628 1.97c-.579.147-1.186.331-1.798.565l-.969-3.04-.749.239.991 3.106c-.58.262-1.148.567-1.681.935l-1.105-3.468-.749.239 1.19 3.734c-.557.468-1.056 1.008-1.455 1.645l-1.533-4.807-.749.24 1.772 5.556c-.036.091-.077.177-.109.271-.357.714-.754 1.344-1.176 1.906l-2.282-7.159-.749.238 2.437 7.644c-.491.552-1.004 1.027-1.525 1.42l-2.708-8.491-.75.238 2.782 8.722c-.574.368-1.149.656-1.701.873l-2.448-7.678-.749.239 1.002 3.142.004-.001 1.646 5.163c2.161-.477 5.17-2.007 7.083-5.831 1.119-3.137 4.361-4.572 6.963-5.227l-.831-2.603zm1.664 2.867c-2.16.479-5.169 2.006-7.083 5.83-1.119 3.137-4.361 4.573-6.962 5.229l.844 2.648-.068.021.158.497.068-.021.003.009.684-.218-.003-.011 1.797-.57.003.009.748-.238-.003-.011 1.796-.573.004.011.748-.24-.003-.008 1.796-.573.003.011.749-.24-.003-.01 1.797-.572.003.011.749-.239-.003-.012 1.795-.572.003.011.75-.238-.004-.012 1.797-.571.002.011.75-.24-1.266-3.964-.004.003zm-10.719 12.915-1.796.575-.644-2.02c.579-.146 1.188-.33 1.798-.565zm2.544-.811-1.796.573-.662-2.077c.579-.262 1.149-.565 1.681-.934zm2.545-.811-1.797.574-.862-2.705c.557-.471 1.056-1.01 1.455-1.645zm2.546-.811-1.797.571-1.443-4.524c.037-.089.077-.18.11-.271.358-.715.753-1.345 1.174-1.907zm2.544-.813-1.795.573-2.11-6.615c.491-.552 1.004-1.025 1.526-1.42zm2.546-.811-1.797.572-2.454-7.693c.575-.367 1.15-.652 1.701-.871z" opacity=".65"/>
  <path fill="url(#w)" d="m75.422 85.091 1.189-.019c.029.661-.101 1.201-.395 1.62-.289.42-.732.724-1.326.914-.734.238-1.419.181-2.054-.166-.634-.347-1.092-.954-1.37-1.822-.295-.918-.287-1.708.023-2.367.312-.661.855-1.116 1.629-1.364.675-.219 1.289-.197 1.84.065.327.154.625.432.893.832l-1.018.615c-.157-.263-.367-.443-.63-.541-.26-.098-.54-.1-.838-.004-.41.135-.697.388-.859.762-.161.378-.137.896.075 1.553.225.695.511 1.149.858 1.366.348.214.725.257 1.128.125.299-.096.524-.271.679-.53.154-.259.214-.604.176-1.039z"/>
  <path fill="url(#x)" d="m78.099 86.474-1.776-5.51 2.338-.755c.588-.188 1.031-.275 1.329-.264.298.013.568.12.811.32.24.203.414.466.521.791.133.413.121.793-.034 1.139-.154.348-.462.634-.919.858.285.063.533.155.743.272.21.118.516.349.919.693l1.02.86-1.33.429-1.186-.944c-.425-.336-.708-.546-.85-.622-.142-.078-.277-.118-.408-.121-.132-.006-.325.035-.582.117l-.226.074.743 2.305zm.085-3.543.822-.266c.532-.172.858-.302.977-.391.118-.086.196-.197.238-.331.039-.136.032-.283-.022-.449-.059-.185-.156-.317-.291-.398-.136-.083-.298-.108-.487-.08-.096.016-.367.098-.817.241l-.867.281z"/>
  <path fill="url(#y)" d="m84.809 84.312-.748-2.32-3.046-2.54 1.313-.425 1.992 1.773.563-2.595 1.28-.414-.988 3.852.744 2.312z"/>
  <path fill="url(#z)" d="m87.636 81.421 1.046-.458c.182.34.399.564.653.669.255.106.551.105.889-.005.357-.115.604-.276.735-.487.134-.21.168-.416.103-.618-.043-.13-.116-.229-.221-.295-.106-.065-.265-.103-.476-.107-.145-.005-.466.012-.965.046-.642.043-1.117-.004-1.425-.143-.436-.195-.725-.512-.864-.947-.091-.281-.097-.571-.016-.865.078-.295.248-.554.505-.78.257-.222.597-.402 1.02-.539.688-.223 1.256-.236 1.703-.042.447.193.761.542.942 1.047l-1.1.398c-.14-.269-.306-.441-.501-.516-.196-.075-.45-.062-.761.038-.322.104-.552.25-.69.441-.089.126-.111.257-.063.402.042.13.133.225.271.281.179.074.558.089 1.139.042.58-.048 1.021-.044 1.323.01.304.055.566.177.789.365.223.189.391.46.502.809.103.318.109.641.023.974-.086.331-.268.618-.546.855-.277.236-.655.432-1.134.588-.696.224-1.282.234-1.76.032-.476-.201-.851-.601-1.121-1.195z"/>
  <path fill="url(#A)" d="m94.879 81.067-1.476-4.579-1.624.523-.299-.933 4.358-1.404.3.933-1.622.523 1.475 4.578z"/>
  <path fill="url(#B)" d="m102.736 78.536-1.197.385-.883-1.098-2.21.712-.049 1.399-1.193.383.345-6.194 1.19-.382zm-2.746-1.526-1.427-1.798-.081 2.283z"/>
  <path fill="url(#C)" d="m103.354 78.338-1.761-5.462 1.113-.357 1.458 4.527 2.767-.89.3.931z"/>
  <path fill="url(#D)" d="m15.985 45.891c-2.721.867-4.229 3.788-3.362 6.51l11.037 34.607c.868 2.723 3.79 4.23 6.51 3.362l54.425-17.356c2.722-.867 4.229-3.787 3.362-6.511l-11.036-34.607c-.867-2.722-3.788-4.23-6.509-3.362zm10.081 40.35-11.037-34.608c-.444-1.395.328-2.892 1.723-3.337l54.425-17.356c1.396-.444 2.894.328 3.336 1.724l11.038 34.607c.445 1.396-.329 2.893-1.723 3.338l-54.425 17.353c-1.395.446-2.892-.325-3.337-1.721z"/>
  <path fill="url(#E)" d="m86.753 66.888c.658 2.062-.479 4.267-2.543 4.924l-54.423 17.356c-2.062.655-4.267-.482-4.923-2.545l-11.037-34.606c-.657-2.061.481-4.265 2.542-4.922l54.426-17.356c2.06-.657 4.264.481 4.922 2.542z"/>
  <path fill="url(#F)" d="m69.791 32.397-49.932 15.923c-1.903.605-2.952 2.639-2.346 4.539l10.178 31.917c.608 1.901 2.64 2.951 4.541 2.346l49.932-15.927c1.9-.604 2.949-2.636 2.344-4.539l-10.179-31.916c-.605-1.899-2.638-2.949-4.538-2.343z"/>
  <path fill="url(#G)" d="m69.437 31.809-51.014 15.92c-1.942.607-3.007 2.667-2.377 4.603l9.456 29.061c16.537-5.088 17.562-8.193 23.463-22.055 4.971-11.673 16.098-19.011 25.482-24.038l-.354-1.084c-.629-1.937-2.715-3.015-4.656-2.407z"/>
  <path fill="url(#H)" d="m81.187 59.445 1.993 6.253c.546 1.715-.4 3.55-2.115 4.097l-50.455 16.088c-1.715.548-3.548-.398-4.096-2.114l-1.994-6.255-2.325.743 2.669 8.366c.656 2.062 2.861 3.2 4.923 2.545l54.423-17.356c2.063-.657 3.201-2.862 2.543-4.924l-2.669-8.368z"/>
  <path fill="url(#I)" d="m30.35 86.915 51.87-16.541c1.732-.554 2.688-2.404 2.137-4.137l-2.251-7.056-58.144 18.54 2.251 7.059c.553 1.73 2.405 2.686 4.137 2.135z"/>
  <path fill="url(#J)" d="m23.216 56.359c-1.537.49-2.376 2.184-1.868 3.776l3.34 10.476c.507 1.59 2.172 2.487 3.71 1.994l13.927-4.44c1.538-.49 2.376-2.185 1.869-3.775l-3.339-10.475c-.508-1.592-2.173-2.487-3.71-1.997zm2.262 13.999-3.341-10.476c-.364-1.141.237-2.356 1.34-2.707l13.927-4.441c1.104-.352 2.296.29 2.66 1.43l3.34 10.476c.365 1.142-.237 2.355-1.34 2.708l-13.927 4.44c-1.103.354-2.295-.289-2.659-1.43z"/>
  <path fill="url(#K)" d="m43.46 64.445c.424 1.328-.272 2.733-1.555 3.142l-13.501 4.305c-1.28.41-2.663-.335-3.085-1.662l-3.238-10.151c-.424-1.327.273-2.734 1.555-3.143l13.5-4.303c1.283-.411 2.665.333 3.087 1.661z"/>
  <path fill="url(#L)" d="m39.963 56.097s-6.661-.088-8.002 4.681c-2.267 5.486-7.149 5.239-7.33 4.677l-1.586-4.973c-.386-1.214.25-2.504 1.425-2.879l12.372-3.944c1.174-.375 2.44.308 2.828 1.522z"/>
  <path fill="#ff9" d="m38.296 54.395.628 1.97c-.579.147-1.188.332-1.799.565l-.969-3.04-.749.239.99 3.106c-.579.262-1.149.568-1.681.935l-1.106-3.468-.748.24 1.19 3.733c-.557.469-1.055 1.01-1.455 1.645l-1.532-4.806-.748.239 1.771 5.556c-.037.09-.077.177-.11.271-.358.713-.753 1.345-1.175 1.907l-2.284-7.16-.749.239 2.438 7.645c-.49.551-1.004 1.025-1.526 1.419l-2.708-8.492-.749.238 2.781 8.723c-.575.368-1.149.656-1.701.872l-2.448-7.677-.749.238 1.003 3.143.004-.002 1.647 5.165c2.16-.479 5.17-2.007 7.082-5.832 1.119-3.137 4.362-4.572 6.962-5.228l-.829-2.601zm1.664 2.867c-2.16.478-5.17 2.007-7.082 5.831-1.12 3.137-4.362 4.571-6.964 5.227l.845 2.648-.069.021.159.498.068-.021.003.01.685-.219-.003-.009 1.797-.573.003.01.749-.239-.003-.01 1.795-.573.003.012.749-.241-.003-.009 1.798-.573.003.012.748-.238-.003-.011 1.796-.573.003.011.749-.24-.003-.012 1.795-.571.003.011.75-.238-.004-.012 1.796-.572.003.011.749-.24-1.264-3.962-.004.001zm-10.72 12.914-1.796.575-.644-2.02c.58-.145 1.187-.33 1.799-.564zm2.545-.811-1.796.572-.662-2.074c.579-.263 1.149-.568 1.681-.936zm2.545-.811-1.797.575-.863-2.704c.558-.471 1.057-1.013 1.456-1.646zm2.545-.811-1.796.572-1.443-4.527c.037-.088.076-.178.109-.27.357-.714.753-1.345 1.174-1.907zm2.544-.813-1.796.575-2.108-6.616c.489-.552 1.003-1.025 1.524-1.419zm2.546-.811-1.797.572-2.453-7.692c.575-.367 1.149-.653 1.701-.871z" opacity=".65"/>
  <path fill="url(#M)" d="m52.508 76.505 1.188-.021c.03.662-.102 1.201-.393 1.619-.291.42-.734.725-1.328.915-.734.238-1.418.184-2.053-.165-.635-.348-1.091-.956-1.371-1.823-.296-.918-.288-1.706.023-2.367.312-.661.855-1.117 1.629-1.365.675-.218 1.29-.195 1.84.065.328.155.625.433.893.833l-1.019.618c-.157-.267-.366-.444-.628-.544-.262-.097-.541-.099-.839-.003-.411.132-.698.387-.859.764-.162.374-.136.892.075 1.547.225.699.51 1.152.858 1.368.348.214.723.255 1.128.126.298-.098.524-.271.678-.531.155-.257.214-.603.178-1.036z"/>
  <path fill="url(#N)" d="m55.183 77.886-1.775-5.511 2.337-.754c.588-.189 1.031-.276 1.329-.264.299.015.568.12.811.32.241.202.414.466.52.792.132.411.122.791-.034 1.138-.155.349-.46.634-.919.858.285.063.533.154.743.271.21.119.516.351.919.695l1.019.86-1.329.429-1.186-.944c-.425-.338-.707-.544-.849-.622-.141-.078-.277-.117-.408-.121-.132-.005-.325.035-.582.115l-.225.076.743 2.304zm.086-3.544.823-.265c.533-.173.858-.302.976-.389.119-.089.198-.2.237-.333.04-.134.033-.283-.02-.448-.06-.186-.157-.318-.292-.399-.136-.083-.298-.108-.488-.08-.094.016-.367.097-.817.242l-.867.277z"/>
  <path fill="url(#O)" d="m61.894 75.725-.748-2.321-3.047-2.538 1.314-.426 1.992 1.771.564-2.594 1.279-.413-.988 3.85.745 2.312z"/>
  <path fill="url(#P)" d="m64.72 72.832 1.048-.458c.182.343.399.565.652.672.254.104.551.103.888-.007.357-.114.605-.276.737-.487.134-.209.166-.415.103-.616-.043-.13-.116-.229-.223-.297-.106-.066-.264-.103-.475-.108-.145-.005-.466.011-.965.046-.642.043-1.116-.003-1.426-.142-.434-.195-.723-.512-.863-.947-.091-.281-.096-.569-.017-.865s.248-.557.505-.78c.258-.224.597-.403 1.018-.54.69-.222 1.258-.234 1.705-.042.447.193.761.543.942 1.048l-1.099.397c-.14-.269-.307-.44-.502-.516-.195-.074-.45-.061-.762.039-.32.104-.55.251-.689.442-.088.123-.11.256-.064.401.043.13.134.225.273.281.178.074.557.086 1.139.042.579-.048 1.021-.044 1.323.01.302.052.564.175.787.364.223.191.392.461.503.811.104.316.108.64.023.974-.087.331-.269.617-.546.854-.276.237-.656.433-1.134.588-.696.224-1.283.234-1.76.032-.476-.201-.849-.601-1.121-1.196z"/>
  <path fill="url(#Q)" d="m71.964 72.479-1.475-4.58-1.624.524-.3-.933 4.358-1.404.3.931-1.623.524 1.477 4.579z"/>
  <path fill="url(#R)" d="m79.82 69.948-1.196.384-.883-1.097-2.21.711-.049 1.398-1.192.384.345-6.194 1.19-.381zm-2.743-1.527-1.428-1.798-.081 2.283z"/>
  <path fill="url(#S)" d="m80.439 69.749-1.76-5.462 1.111-.358 1.459 4.529 2.767-.89.3.931z"/>
  <path fill="url(#T)" d="m85.191 90.976v35.754h1.793l33.639-33.639v-2.115z" opacity=".1"/>
  <path fill="#fff" d="m87.537 126.948 33.627-33.627h-33.627z"/>
  <path fill="url(#U)" d="m89.865 125.056 29.594-29.592h-29.594z"/>
  <path fill="url(#V)" d="m87.537 92.821c-.277 0-.5.223-.5.5v33.627c0 .203.121.385.309.463.186.076.402.033.545-.109l33.627-33.627c.143-.145.186-.359.109-.545-.078-.188-.26-.309-.463-.309zm32.42 1c-1.58 1.578-30.342 30.34-31.92 31.92 0-2.209 0-30.986 0-31.92z"/>
  <g fill="#fff">
    <path d="m15.606 15.375-3.07-8.594h1.88l2.175 6.359 2.104-6.359h1.842l-3.057 8.594z"/>
    <path d="m26.93 12.204 1.688.516c-.259.946-.689 1.649-1.292 2.108s-1.366.688-2.292.688c-1.146 0-2.088-.39-2.825-1.17-.738-.78-1.106-1.846-1.106-3.199 0-1.431.37-2.542 1.111-3.334.74-.792 1.715-1.188 2.922-1.188 1.054 0 1.911.311 2.569.933.392.367.686.895.882 1.583l-1.719.406c-.103-.444-.316-.795-.641-1.052s-.719-.385-1.184-.385c-.642 0-1.162.229-1.561.686s-.599 1.198-.599 2.222c0 1.087.197 1.86.591 2.322.394.461.906.692 1.536.692.465 0 .864-.147 1.199-.441s.576-.757.721-1.387z"/>
    <path d="m37.831 15.375h-1.867l-.745-1.953h-3.447l-.706 1.953h-1.859l3.305-8.594h1.857zm-3.184-3.406-1.199-3.188-1.152 3.188z"/>
    <path d="m38.747 15.375v-8.593h3.646c.916 0 1.582.077 1.998.231.415.154.748.428.998.822.25.395.375.845.375 1.353 0 .644-.188 1.176-.565 1.595-.376.42-.94.685-1.689.793.373.219.682.46.925.722.243.263.571.729.984 1.397l1.048 1.68h-2.074l-1.245-1.873c-.446-.67-.751-1.091-.916-1.266-.164-.174-.338-.293-.522-.358-.184-.064-.476-.097-.874-.097h-.353v3.594zm1.734-4.968h1.282c.831 0 1.35-.035 1.557-.105s.368-.191.485-.362.176-.386.176-.643c0-.288-.077-.521-.231-.697-.154-.177-.372-.289-.652-.336-.141-.02-.562-.029-1.264-.029h-1.352v2.172z"/>
    <path d="m47.413 6.782h3.171c.715 0 1.26.055 1.635.164.504.148.936.413 1.295.792s.633.843.821 1.392.281 1.227.281 2.031c0 .708-.088 1.317-.264 1.829-.215.625-.521 1.131-.92 1.518-.301.293-.708.522-1.22.686-.383.121-.895.182-1.535.182h-3.265v-8.594zm1.734 1.453v5.688h1.3c.486 0 .837-.027 1.053-.082.282-.07.517-.189.703-.357s.338-.444.456-.829c.118-.384.177-.909.177-1.573s-.059-1.173-.177-1.529c-.117-.355-.282-.632-.494-.832-.212-.199-.48-.334-.806-.404-.243-.055-.72-.082-1.429-.082z"/>
  </g>
  <path fill="none" d="m128 128h-128v-128h128z"/>
</svg>
