<?xml version="1.0" encoding="UTF-8" standalone="no"?>
<!-- Created with Inkscape (http://www.inkscape.org/) -->
<svg
   xmlns:svg="http://www.w3.org/2000/svg"
   xmlns="http://www.w3.org/2000/svg"
   xmlns:xlink="http://www.w3.org/1999/xlink"
   version="1.0"
   width="400"
   height="360"
   id="svg4251">
  <defs
     id="defs4253">
    <linearGradient
       x1="-177.00168"
       y1="454.6254"
       x2="-177.00168"
       y2="648.55573"
       id="linearGradient4373"
       xlink:href="#linearGradient21874"
       gradientUnits="userSpaceOnUse"
       gradientTransform="matrix(1.377548,0,0,0.493777,584.8841,342.3416)" />
    <linearGradient
       x1="-247.43213"
       y1="411.5748"
       x2="-215.85513"
       y2="405.35657"
       id="linearGradient4376"
       xlink:href="#linearGradient21874"
       gradientUnits="userSpaceOnUse"
       gradientTransform="matrix(0.712286,0,0,0.66532,515.2597,265.5792)"
       spreadMethod="reflect" />
    <linearGradient
       x1="-98.593307"
       y1="289.05264"
       x2="-332.37381"
       y2="246.84198"
       id="linearGradient4379"
       xlink:href="#linearGradient15717"
       gradientUnits="userSpaceOnUse"
       gradientTransform="matrix(0.682291,0.174979,1.516696e-2,0.254935,406.2795,494.4983)" />
    <linearGradient
       x1="-177.00168"
       y1="454.6254"
       x2="-177.00168"
       y2="648.55573"
       id="linearGradient4382"
       xlink:href="#linearGradient21874"
       gradientUnits="userSpaceOnUse"
       gradientTransform="matrix(0.712286,0,0,0.66532,627.9704,208.9215)" />
    <linearGradient
       x1="-177.00168"
       y1="454.6254"
       x2="-177.00168"
       y2="648.55573"
       id="linearGradient4385"
       xlink:href="#linearGradient18346"
       gradientUnits="userSpaceOnUse"
       gradientTransform="matrix(0.712286,0,0,0.493777,395.8832,312.2109)" />
    <linearGradient
       id="linearGradient21874">
      <stop
         style="stop-color:#ffffff;stop-opacity:1"
         offset="0"
         id="stop21876" />
      <stop
         style="stop-color:#ffffff;stop-opacity:0"
         offset="1"
         id="stop21878" />
    </linearGradient>
    <linearGradient
       x1="-177.00168"
       y1="454.6254"
       x2="-177.00168"
       y2="648.55573"
       id="linearGradient4388"
       xlink:href="#linearGradient21874"
       gradientUnits="userSpaceOnUse"
       gradientTransform="matrix(0.712286,0,0,0.66532,517.0943,265.3718)" />
    <linearGradient
       id="linearGradient18346">
      <stop
         style="stop-color:#ffffff;stop-opacity:1"
         offset="0"
         id="stop18348" />
      <stop
         style="stop-color:#ffffff;stop-opacity:0"
         offset="1"
         id="stop18350" />
    </linearGradient>
    <linearGradient
       x1="-29.717674"
       y1="362.42477"
       x2="-7.9825511"
       y2="362.42477"
       id="linearGradient4391"
       xlink:href="#linearGradient18346"
       gradientUnits="userSpaceOnUse"
       gradientTransform="matrix(0.712286,0,0,0.66532,516.4233,263.4906)"
       spreadMethod="reflect" />
    <linearGradient
       id="linearGradient15717">
      <stop
         style="stop-color:#ffffff;stop-opacity:1"
         offset="0"
         id="stop15719" />
      <stop
         style="stop-color:#ffffff;stop-opacity:0"
         offset="1"
         id="stop15721" />
    </linearGradient>
    <linearGradient
       x1="-98.593307"
       y1="289.05264"
       x2="-332.37381"
       y2="246.84198"
       id="linearGradient4394"
       xlink:href="#linearGradient15717"
       gradientUnits="userSpaceOnUse"
       gradientTransform="matrix(0.712286,0,0,0.66532,466.1918,305.9209)" />
    <linearGradient
       x1="53.320744"
       y1="328.71255"
       x2="61.128662"
       y2="328.71255"
       id="linearGradient4397"
       xlink:href="#linearGradient11326"
       gradientUnits="userSpaceOnUse"
       gradientTransform="matrix(0.712286,0,0,0.859936,447.9261,237.784)"
       spreadMethod="reflect" />
    <linearGradient
       id="linearGradient11326">
      <stop
         style="stop-color:#ffffff;stop-opacity:1"
         offset="0"
         id="stop11328" />
      <stop
         style="stop-color:#000000;stop-opacity:1"
         offset="1"
         id="stop11330" />
    </linearGradient>
    <linearGradient
       x1="53.320744"
       y1="328.71255"
       x2="61.128662"
       y2="328.71255"
       id="linearGradient4400"
       xlink:href="#linearGradient11326"
       gradientUnits="userSpaceOnUse"
       gradientTransform="matrix(0.712286,0,0,0.66532,516.9949,264.7502)"
       spreadMethod="reflect" />
    <linearGradient
       id="linearGradient8675">
      <stop
         style="stop-color:#000000;stop-opacity:1"
         offset="0"
         id="stop8677" />
      <stop
         style="stop-color:#000000;stop-opacity:1"
         offset="0.5"
         id="stop8683" />
      <stop
         style="stop-color:#ffffff;stop-opacity:1"
         offset="1"
         id="stop8679" />
    </linearGradient>
    <linearGradient
       x1="-327.64285"
       y1="274.20898"
       x2="-179.92877"
       y2="266.12531"
       id="linearGradient4421"
       xlink:href="#linearGradient8675"
       gradientUnits="userSpaceOnUse"
       gradientTransform="matrix(0.712286,0,0,0.66532,515.4142,265.6987)" />
    <linearGradient
       id="linearGradient7770">
      <stop
         style="stop-color:#000000;stop-opacity:1"
         offset="0"
         id="stop7772" />
      <stop
         style="stop-color:#ffffff;stop-opacity:1"
         offset="1"
         id="stop7774" />
    </linearGradient>
    <linearGradient
       x1="-84.706306"
       y1="290.29047"
       x2="-66.625877"
       y2="286.00476"
       id="linearGradient4427"
       xlink:href="#linearGradient7770"
       gradientUnits="userSpaceOnUse"
       gradientTransform="matrix(0.712286,0,0,0.66532,516.9704,263.1826)"
       spreadMethod="reflect" />
    <linearGradient
       id="g_background">
      <stop
         style="stop-color:#000000;stop-opacity:0.33333299"
         offset="0"
         id="col_01" />
      <stop
         style="stop-color:#000000;stop-opacity:0.078431"
         offset="1"
         id="col_02" />
    </linearGradient>
    <linearGradient
       x1="92.599998"
       y1="304.5"
       x2="263.79999"
       y2="26.290001"
       id="linearGradient2050"
       xlink:href="#g_background"
       gradientUnits="userSpaceOnUse"
       gradientTransform="matrix(0.851641,-0.524127,0.524127,0.851641,-45.27941,132.512)" />
  </defs>
  <g
     id="g4259">
    <title
       id="title4261">Layer 1</title>
    <path
       d="M 361.8118,80.415833 C 405.81082,151.90878 369.03348,254.45061 279.6673,309.4494 C 190.30112,364.44818 82.18724,351.07703 38.188209,279.58408 C -5.810832,208.09114 30.96651,105.54933 120.33269,50.55053 C 209.69887,-4.448268 317.81274,8.922882 361.8118,80.415833 L 361.8118,80.415833 L 361.8118,80.415833 z "
       style="fill:url(#linearGradient2050);stroke-linejoin:round;stroke-miterlimit:4;stroke-dashoffset:0"
       id="con-struct" />
  </g>
  <g
     transform="matrix(0.751737,0,0,0.751737,-99.50021,-198.9444)"
     id="g4186">
    <path
       d="M 524.57233,318.5595 L 439.70424,319.65129 L 332.16926,417.91221 L 318.14296,420.09579 C 318.14296,420.09579 312.0596,417.39637 307.24853,420.40922 C 302.43748,423.42211 304.45082,424.23181 298.89874,432.14727 C 293.34666,440.06274 294.76578,448.20934 281.90834,447.39049 C 269.0509,446.57165 236.32286,451.75764 236.32286,451.75764 C 236.32286,451.75764 241.9148,471.25866 237.49172,477.96055 C 224.67339,497.38293 213.60087,485.954 209.39435,493.83066 C 208.18637,496.09261 204.90958,503.71934 204.76368,510.7142 C 204.63925,516.67985 204.68402,517.42297 208.27026,519.4485 C 223.62367,528.12023 266.71318,544.55962 266.71318,544.55962 C 266.71318,544.55962 270.47689,598.77188 272.72526,619.07284 C 273.12142,622.64988 282.36834,625.50338 284.24606,620.98478 C 291.38793,603.79836 287.75263,551.26708 287.75263,551.26708 L 334.79778,573.02447 L 333.33812,577.31326 L 333.33812,637.3616 L 323.98725,639.54517 L 322.81839,648.27947 L 349.70213,662.47272 C 349.70213,662.47272 358.96911,665.59269 362.47569,662.04437 C 365.98227,658.49607 363.72845,648.27947 363.72845,648.27947 C 363.72845,648.27947 362.98045,659.63616 361.60328,642.39219 C 357.72059,635.09448 357.64789,602.24289 358.21972,579.30356 C 368.18718,570.40604 378.92359,574.03789 378.92359,574.03789 L 385.76896,585.26922 C 385.76896,585.26922 390.32029,662.08223 390.77998,677.52268 C 395.74763,685.66662 408.14506,681.03312 408.14506,681.03312 L 413.98935,586.04757 C 413.98935,586.04757 419.83365,575.12968 428.01566,571.85432 C 436.19767,568.57896 442.04196,567.48717 442.04196,567.48717 L 440.8731,565.30359 L 481.78314,559.84465 C 481.78314,559.84465 480.61429,553.29392 485.28973,547.83499 C 489.96516,542.37604 493.34589,542.96639 494.30502,544.7947 C 501.72712,558.94291 501.65375,608.97512 501.65375,608.97512 L 510.83682,613.07063 L 519.18662,608.97512 L 522.6932,529.27459 L 527.36863,521.63208 L 553.08352,515.08134 L 559.30252,500.06794 L 560.09668,455.033 L 416.32708,445.20691 L 465.96161,432.26218 C 465.96161,432.26218 530.8752,409.17791 540.22607,397.16824 C 549.57694,385.15857 560.09668,375.33248 549.57694,370.96533 C 539.05721,366.59818 502.97429,357.45311 486.45858,351.31314 C 505.21073,340.08182 525.74119,319.65129 524.57233,318.5595 z "
       style="fill:#000000;fill-opacity:1;fill-rule:evenodd;stroke:#000000;stroke-width:0.91574842px;stroke-linecap:butt;stroke-linejoin:miter;stroke-opacity:1"
       id="path3105" />
    <path
       d="M 279.11365,452.59745 L 393.253,490.14262 L 489.82234,484.19148 C 489.82234,484.19148 495.45971,483.60642 496.08609,479.51089 C 496.71246,475.41537 501.09708,470.14969 508.6136,467.8094 C 516.13011,465.4691 558.09728,458.44821 558.72366,456.1079 C 559.35004,453.7676 556.84453,449.67209 556.84453,449.67209 C 556.84453,449.67209 515.50374,436.21537 467.89917,436.80045 C 420.29461,437.38551 369.31177,442.0661 279.11365,452.59745 z "
       style="fill:#505050;fill-opacity:1;fill-rule:evenodd;stroke:none;stroke-width:1px;stroke-linecap:butt;stroke-linejoin:miter;stroke-opacity:1"
       id="path2229" />
    <path
       d="M 273.71868,497.64821 C 273.71868,497.64821 220.2336,497.67228 217.97124,499.98851 C 216.91582,501.06906 219.85036,506.13179 219.85036,506.13179 L 332.59801,550.0124 C 332.59801,550.0124 331.65845,547.81837 332.59801,545.03927 C 333.53757,542.26015 336.35626,540.35867 336.35626,540.35867 C 336.35626,540.35867 354.52116,538.45718 362.03766,536.26315 C 369.55418,534.06912 366.4223,531.58254 366.4223,531.58254 L 273.71868,497.64821 z "
       style="fill:#ffffff;fill-opacity:1;fill-rule:evenodd;stroke:none;stroke-width:1px;stroke-linecap:butt;stroke-linejoin:miter;stroke-opacity:1"
       id="path4855" />
    <path
       d="M 469.03267,486.23724 L 435.97236,350.36337 L 477.29775,486.23724 L 469.03267,486.23724 z "
       style="fill:url(#linearGradient4427);fill-opacity:1;fill-rule:evenodd;stroke:#000000;stroke-width:0.91574842px;stroke-linecap:butt;stroke-linejoin:miter;stroke-opacity:1"
       id="path6895" />
    <path
       d="M 444.11256,327.7158 L 338.34359,422.47828 L 317.4776,421.8062 C 317.4776,421.8062 340.50214,414.41339 340.50214,411.7251 C 340.50214,409.03679 440.51498,320.32298 440.51498,320.32298 L 444.11256,327.7158 z "
       style="fill:#e1e1e1;fill-opacity:1;fill-rule:evenodd;stroke:#000000;stroke-width:0.91574842px;stroke-linecap:butt;stroke-linejoin:miter;stroke-opacity:1"
       id="path9558" />
    <path
       d="M 368.57571,483.31465 L 274.86556,453.34757 C 274.86556,453.34757 297.65836,440.25342 298.67592,432.64976 C 299.69347,425.04611 301.72858,411.73972 307.83387,414.59109 C 313.93918,417.44247 305.5238,419.13114 315.69931,418.18068 C 325.87482,417.23023 348.53589,415.54155 355.65874,424.09566 C 362.7816,432.64976 369.41804,432.08802 379.0624,431.69931 C 388.22035,431.33021 378.29924,448.07778 375.56683,461.49874 C 374.17385,474.2388 368.57571,483.31465 368.57571,483.31465 z "
       style="fill:url(#linearGradient4421);fill-opacity:1;fill-rule:evenodd;stroke:none;stroke-width:1px;stroke-linecap:butt;stroke-linejoin:miter;stroke-opacity:1"
       id="path8663" />
    <path
       d="M 523.25941,316.96261 L 439.79546,319.65091 L 441.95402,326.37165 L 525.41797,323.01128 L 523.25941,316.96261 z "
       style="fill:#e1e1e1;fill-opacity:1;fill-rule:evenodd;stroke:#000000;stroke-width:0.91574842px;stroke-linecap:butt;stroke-linejoin:miter;stroke-opacity:1"
       id="path10441" />
    <g
       transform="matrix(0.27652,0,0.440202,0.147287,-10.26773,440.9492)"
       id="g4264">
      <g
         id="g4248">
        <rect
           width="95.714287"
           height="17.142857"
           rx="47.365967"
           ry="51.755112"
           x="288.57141"
           y="385.21933"
           style="opacity:1;fill:#000001;fill-opacity:1;fill-rule:nonzero;stroke:none;stroke-width:1.097;stroke-linecap:round;stroke-linejoin:round;stroke-miterlimit:4;stroke-dasharray:none;stroke-opacity:1"
           id="rect4240" />
        <rect
           width="95.714287"
           height="17.142857"
           rx="47.365967"
           ry="51.755112"
           x="288.57141"
           y="413.21933"
           style="opacity:1;fill:#000001;fill-opacity:1;fill-rule:nonzero;stroke:none;stroke-width:1.097;stroke-linecap:round;stroke-linejoin:round;stroke-miterlimit:4;stroke-dasharray:none;stroke-opacity:1"
           id="rect4242" />
        <rect
           width="95.714287"
           height="17.142857"
           rx="47.365967"
           ry="51.755112"
           x="288.57141"
           y="443.21933"
           style="opacity:1;fill:#000001;fill-opacity:1;fill-rule:nonzero;stroke:none;stroke-width:1.097;stroke-linecap:round;stroke-linejoin:round;stroke-miterlimit:4;stroke-dasharray:none;stroke-opacity:1"
           id="rect4244" />
        <rect
           width="95.714287"
           height="17.142857"
           rx="47.365967"
           ry="51.755112"
           x="288.57141"
           y="473.21933"
           style="opacity:1;fill:#000001;fill-opacity:1;fill-rule:nonzero;stroke:none;stroke-width:1.097;stroke-linecap:round;stroke-linejoin:round;stroke-miterlimit:4;stroke-dasharray:none;stroke-opacity:1"
           id="rect4246" />
      </g>
      <g
         transform="translate(0,116)"
         id="g4254">
        <rect
           width="95.714287"
           height="17.142857"
           rx="47.365967"
           ry="51.755112"
           x="288.57141"
           y="385.21933"
           style="opacity:1;fill:#000001;fill-opacity:1;fill-rule:nonzero;stroke:none;stroke-width:1.097;stroke-linecap:round;stroke-linejoin:round;stroke-miterlimit:4;stroke-dasharray:none;stroke-opacity:1"
           id="rect4256" />
        <rect
           width="95.714287"
           height="17.142857"
           rx="47.365967"
           ry="51.755112"
           x="288.57141"
           y="413.21933"
           style="opacity:1;fill:#000001;fill-opacity:1;fill-rule:nonzero;stroke:none;stroke-width:1.097;stroke-linecap:round;stroke-linejoin:round;stroke-miterlimit:4;stroke-dasharray:none;stroke-opacity:1"
           id="rect4258" />
        <rect
           width="95.714287"
           height="17.142857"
           rx="47.365967"
           ry="51.755112"
           x="288.57141"
           y="443.21933"
           style="opacity:1;fill:#000001;fill-opacity:1;fill-rule:nonzero;stroke:none;stroke-width:1.097;stroke-linecap:round;stroke-linejoin:round;stroke-miterlimit:4;stroke-dasharray:none;stroke-opacity:1"
           id="rect4260" />
        <rect
           width="95.714287"
           height="17.142857"
           rx="47.365967"
           ry="51.755112"
           x="288.57141"
           y="473.21933"
           style="opacity:1;fill:#000001;fill-opacity:1;fill-rule:nonzero;stroke:none;stroke-width:1.097;stroke-linecap:round;stroke-linejoin:round;stroke-miterlimit:4;stroke-dasharray:none;stroke-opacity:1"
           id="rect4262" />
      </g>
    </g>
    <path
       d="M 394.66057,684.63393 C 382.10142,673.68615 390.45208,650.89534 386.62135,635.29098 C 385.11799,622.43799 386.33748,597.13459 383.1797,591.74689 C 376.30001,608.28896 368.87604,625.25304 362.68395,641.65782 C 366.7006,646.54853 372.42124,668.17071 353.17306,664.64603 C 344.49089,667.04324 349.87364,650.20567 351.9794,662.06217 C 369.93068,664.89492 364.70158,646.73841 355.96615,641.52318 C 355.96112,628.95939 355.77921,609.13835 359.52444,601.30285 C 356.56441,597.87087 351.3667,562.35011 370.45926,572.64654 C 384.13835,571.46713 387.08728,581.67472 384.58098,584.77766 C 390.0344,589.25241 386.35636,610.0953 388.5268,620.18705 C 389.73842,640.00343 390.3031,659.85904 391.8658,679.65304 C 416.26724,692.31746 406.67973,656.49667 409.66057,643.81072 C 411.24212,623.70682 410.79645,602.96146 413.24629,583.12096 C 422.22357,569.85492 439.38457,564.40763 454.06736,561.14036 C 487.80609,560.65698 475.17615,545.09583 493.83925,539.64752 C 505.48005,560.83665 502.99988,596.87874 503.4796,609.20136 C 524.09124,617.55086 516.09891,589.16744 518.85594,577.96734 C 520.7887,560.57817 518.52314,542.43108 523.5977,525.5614 C 527.72876,513.73462 550.90119,521.70509 550.31312,509.5189 C 550.42574,492.47345 550.53841,475.42799 550.65107,458.38254 C 569.05509,450.18857 534.05524,446.2745 526.07722,443.84591 C 505.78549,440.21355 468.33937,439.81895 463.21453,438.40264 C 462.42116,435.86585 464.38607,435.40387 474.49441,436.45468 C 493.7675,437.56713 533.7066,439.20863 560.01911,451.38156 C 561.60227,464.77242 560.28034,479.64245 560.87336,493.503 C 563.27956,502.05391 555.5045,498.527 552.29676,516.74363 C 542.7216,521.59513 522.91878,520.58625 524.24823,535.04138 C 522.6672,560.6812 521.70124,586.37362 519.25305,611.95106 C 488.02762,622.01194 502.42892,589.68524 499.27406,575.63179 C 496.48204,566.61474 499.36293,549.17607 489.22829,545.3931 C 486.2505,559.43277 476.53358,564.97839 459.91259,563.42971 C 443.09846,566.15664 417.48327,572.30276 415.27472,591.39155 C 412.61217,622.01771 413.418,653.01605 409.65818,683.47151 C 405.18027,684.83213 399.20259,686.01141 394.66057,684.63393 z M 360.77283,631.97362 C 368.81625,615.31437 375.20007,597.82828 382.19558,580.7255 C 369.5746,569.24918 366.64995,599.17883 360.29392,606.50731 C 359.70659,609.70759 356.90087,645.0314 360.77283,631.97362 z M 364.49089,631.08548 C 369.84507,614.94488 356.36053,650.26014 364.49089,631.08547 L 364.49089,631.08548 z M 360.81613,595.21726 C 364.45202,588.9016 374.68114,569.40555 360.26199,576.27324 C 360.21784,579.53689 358.66312,601.30163 360.81613,595.21726 z M 559.48365,480.52338 C 559.88868,472.87701 557.80402,506.50777 559.06443,502.80025 C 559.39797,495.37931 559.44369,487.94982 559.48365,480.52338 z M 338.39003,649.64166 C 346.54636,647.77822 321.96824,647.10485 333.84787,646.73702 C 339.03488,644.38024 350.80253,650.02487 338.39003,649.64166 z M 324.50047,645.60515 C 321.31418,635.19914 337.73606,636.12113 332.94538,625.55543 C 332.53454,607.39135 332.19731,589.22265 331.26718,571.07367 C 318.62387,567.68045 300.00616,554.81709 291.08739,557.9585 C 289.40528,579.09224 290.08379,600.69923 286.95546,621.53702 C 263.66323,630.42885 268.95227,602.78303 267.54352,589.64293 C 262.88957,574.85056 273.14252,550.93715 258.84926,541.58177 C 242.14114,533.77226 223.9497,528.19153 207.94307,519.45147 C 201.71469,504.00157 204.88369,483.88333 227.13264,486.86965 C 251.85379,482.11906 223.15987,445.89482 249.86794,449.37844 C 263.39728,446.08746 283.33882,451.8069 293.64063,443.88534 C 299.58967,431.11331 301.53999,407.10032 322.69268,417.62518 C 342.8103,417.40076 352.74979,395.94045 367.91089,385.87718 C 392.81931,363.49007 417.33889,340.72584 442.41916,318.50595 C 470.28856,318.04413 498.15859,317.58007 526.02036,316.80261 C 525.99116,331.342 503.76921,339.7016 493.63997,350.29227 C 485.25346,346.20167 514.35963,329.69032 523.93835,320.01188 C 513.28043,318.4806 472.16491,321.05684 456.4206,320.51848 C 453.00724,321.72915 442.19335,317.70303 443.1687,327.82915 C 457.72219,327.45198 362.98169,402.93215 344.47741,418.56292 C 328.58915,424.86162 301.58271,408.19586 301.35421,433.34053 C 298.8421,457.9454 269.08881,448.37504 251.13508,452.23585 C 237.30262,449.64998 239.27172,459.12887 241.73763,468.89847 C 245.35508,489.01796 219.75335,489.55029 209.86787,494.62217 C 208.57484,501.41456 204.90626,518.30383 216.15478,520.69122 C 233.04262,528.28268 251.02442,534.04149 267.19469,542.83425 C 270.31034,567.78538 269.71711,593.11554 272.13321,618.1705 C 293.47636,627.97566 283.18006,594.01971 286.89322,582.84488 C 288.1708,574.08796 287.65067,548.75024 287.36007,551.45793 C 305.7842,556.2854 343.16833,546.28174 336.15929,540.87018 C 301.80836,527.63228 267.09436,514.77979 232.57648,501.88985 C 206.81493,499.59594 240.65197,512.09174 248.0505,514.60911 C 277.42384,526.15174 307.1142,537.06439 336.22768,549.13984 C 339.80515,567.09379 314.78127,545.89168 306.22648,545.12768 C 293.72874,538.0232 336.34532,556.86744 332.01296,553.15632 C 301.88237,540.89128 271.29926,529.49609 241.39711,516.80267 C 272.72148,527.47031 302.92657,541.02044 333.92986,552.46501 C 325.9955,544.07869 303.80534,539.82326 290.52876,533.14934 C 267.07758,523.62262 242.77953,515.6749 219.7383,505.44853 C 214.54142,488.67795 239.43883,502.72684 250.64462,505.17559 C 279.63637,516.87317 309.42752,526.67458 338.19736,538.54336 C 348.44476,546.98702 341.50769,636.74345 328.36272,639.38546 C 327.34139,646.76864 325.51449,650.37148 324.50047,645.60515 z M 348.92821,411.60854 C 379.79165,384.42464 410.03417,356.63861 440.53935,329.10678 C 437.85555,316.5409 422.88999,341.21398 415.85568,344.22968 C 389.4983,368.58396 362.22898,392.7373 336.07059,416.90559 C 341.57669,419.27362 345.38536,414.69109 348.92821,411.60854 z M 350.04335,540.77572 C 360.84753,537.71937 364.46072,540.36548 351.03818,541.54488 L 348.36203,541.79229 L 350.04335,540.77571 L 350.04335,540.77572 z M 364.25622,532.20007 C 334.18273,521.45198 303.73542,511.39482 273.85697,500.1972 C 288.54875,500.94249 351.75615,525.40116 366.94733,530.3107 C 376.0188,525.95069 365.07324,499.66163 365.50014,496.78646 C 332.84606,485.07303 380.58936,534.81856 364.25622,532.20007 z M 554.13702,514.3053 C 552.87018,503.19672 561.36805,516.43113 554.13701,514.30529 L 554.13702,514.3053 z M 469.59244,485.47402 C 460.32444,456.34928 453.40403,426.4597 448.03189,396.62229 C 451.74595,412.10563 457.94004,438.58194 464.56617,459.1544 C 461.06062,452.11513 479.40665,485.36834 469.59244,485.47402 z M 476.0372,484.6529 C 471.73813,476.61266 464.39793,451.70175 467.77867,450.71107 C 471.9659,463.59826 472.90506,493.67909 494.02438,478.97182 C 482.13729,477.32531 481.91107,476.70508 493.69292,476.65852 C 497.02075,465.15086 522.82067,468.84962 520.55922,460.02554 C 525.37796,466.17502 550.32297,456.83579 530.73577,463.77317 C 518.11506,468.76106 499.11955,466.28984 494.30717,481.43286 C 491.55705,484.69042 480.2777,486.16418 476.0372,484.6529 z M 367.04846,482.58783 C 358.81191,480.22601 338.21626,472.10383 358.50726,477.6385 C 380.15764,489.17896 371.0318,456.21158 379.95719,445.67008 C 384.91558,440.14677 380.0832,425.31472 385.15742,440.03193 C 372.41842,450.05574 382.60274,480.90674 367.04846,482.58783 z M 456.66959,436.22842 C 448.71697,433.89662 432.42455,438.6516 424.75461,436.42803 C 437.49753,437.55904 465.95804,440.34512 456.66959,436.22842 z M 460.6365,432.85166 C 457.53451,423.98668 449.54297,397.47057 452.29961,401.17553 C 458.17463,412.95478 456.31985,439.64088 476.91317,426.89724 C 505.65047,417.97584 536.4908,404.58884 551.86145,378.90469 C 542.14725,364.57088 519.90366,366.14088 504.72465,359.60899 C 495.20733,360.32319 476.17906,338.62516 493.80719,352.10295 C 511.72792,360.95427 532.51035,362.94658 550.72842,371.0023 C 560.83709,388.89624 533.73866,401.69503 521.34505,411.49175 C 503.0136,421.87239 482.4552,429.62539 461.51408,433.41987 L 460.6365,432.85166 L 460.6365,432.85166 z "
       style="fill:#000000"
       id="path1350" />
    <path
       d="M 556.56828,456.14721 L 551.31144,458.52853 C 551.31144,458.52853 549.50215,502.44945 551.54078,512.81966 C 556.23689,509.53744 559.46594,500.00938 559.46594,500.00938 L 559.29394,453.41808 L 556.56828,456.14721 z "
       style="fill:url(#linearGradient4400);fill-opacity:1;fill-rule:evenodd;stroke:none;stroke-width:1px;stroke-linecap:butt;stroke-linejoin:miter;stroke-opacity:1"
       id="path11324" />
    <path
       d="M 487.49953,485.16729 L 482.24269,488.24519 C 482.24269,488.24519 480.43341,545.01363 482.47203,558.41727 C 487.16815,554.17495 490.39719,541.85978 490.39719,541.85978 L 490.22519,481.63985 L 487.49953,485.16729 z "
       style="opacity:0.8;fill:url(#linearGradient4397);fill-opacity:1;fill-rule:evenodd;stroke:none;stroke-width:1px;stroke-linecap:butt;stroke-linejoin:miter;stroke-opacity:1"
       id="path13957" />
    <path
       d="M 257.60873,463.1288 C 257.60873,463.1288 255.10323,478.92582 256.98236,482.43626 C 258.86148,485.94671 282.03739,497.64821 288.92752,499.98851 C 295.81766,502.3288 378.49926,533.33776 378.49926,533.33776 C 378.49926,533.33776 384.76301,522.80641 384.76301,518.12582 C 384.76301,513.44523 385.38939,503.49895 380.37838,501.74373 C 375.36738,499.98851 259.48786,464.29895 257.60873,463.1288 z "
       style="opacity:0.69444442;fill:url(#linearGradient4394);fill-opacity:1;fill-rule:evenodd;stroke:none;stroke-width:1px;stroke-linecap:butt;stroke-linejoin:miter;stroke-opacity:1"
       id="path13961" />
    <path
       d="M 510.38091,468.89159 C 510.38091,468.89159 501.65358,468.26452 500.98224,472.654 C 500.31092,477.04347 496.28291,480.80588 496.28291,480.80588 L 495.61159,540.3773 C 495.61159,540.3773 498.29691,525.32767 503.66759,524.07353 C 509.03824,522.81941 510.38091,523.44648 510.38091,520.9382 C 510.38091,518.42993 510.38091,468.26452 510.38091,468.89159 z "
       style="fill:url(#linearGradient4391);fill-opacity:1;fill-rule:evenodd;stroke:#000000;stroke-width:0.91574842px;stroke-linecap:butt;stroke-linejoin:miter;stroke-opacity:1"
       id="path17471" />
    <path
       d="M 384.17031,576.12013 C 384.17031,576.12013 397.59697,581.76374 397.59697,584.27203 C 397.59697,586.78029 398.26831,685.22989 398.26831,685.22989 L 387.52698,680.21335 C 387.52698,680.21335 387.52698,603.71111 385.51298,593.67803 C 383.49899,583.64495 383.49899,576.12013 384.17031,576.12013 z "
       style="opacity:0.6;fill:url(#linearGradient4388);fill-opacity:1;fill-rule:evenodd;stroke:none;stroke-width:1px;stroke-linecap:butt;stroke-linejoin:miter;stroke-opacity:1"
       id="path18354" />
    <path
       d="M 262.95927,542.83751 C 262.95927,542.83751 276.38593,547.026 276.38593,548.88756 C 276.38593,550.7491 277.05727,623.815 277.05727,623.815 L 270.08596,615.85059 C 270.08596,615.85059 265.44474,567.51599 267.60071,560.10965 C 269.35673,554.07719 262.28794,542.83751 262.95927,542.83751 z "
       style="opacity:0.6;fill:url(#linearGradient4385);fill-opacity:1;fill-rule:evenodd;stroke:none;stroke-width:1px;stroke-linecap:butt;stroke-linejoin:miter;stroke-opacity:1"
       id="path20110" />
    <path
       d="M 508.82677,524.35034 C 507.50172,524.85274 508.47315,525.31334 508.47315,527.82162 C 508.47315,530.32988 509.77087,613.56755 509.77087,613.56755 L 500.28229,608.551 C 500.28229,608.551 502.58429,560.83102 492.00454,545.41867 C 496.2543,534.80052 498.90303,519.63827 508.82677,524.35034 z "
       style="opacity:0.4;fill:url(#linearGradient4382);fill-opacity:1;fill-rule:evenodd;stroke:none;stroke-width:1px;stroke-linecap:butt;stroke-linejoin:miter;stroke-opacity:1"
       id="path20114" />
    <path
       d="M 210.06365,503.49662 C 210.06365,503.49662 208.02378,508.93418 209.9038,510.74092 C 211.78382,512.54768 234.25054,522.72477 240.90388,525.31414 C 247.55722,527.90351 327.464,560.09683 327.464,560.09683 C 327.464,560.09683 333.22391,557.6002 333.11721,555.80671 C 333.01051,554.01321 333.38376,550.35589 328.54376,548.45232 C 323.70375,546.54878 211.89032,504.40661 210.06365,503.49662 z "
       style="opacity:0.39444436;fill:url(#linearGradient4379);fill-opacity:1;fill-rule:evenodd;stroke:none;stroke-width:1px;stroke-linecap:butt;stroke-linejoin:miter;stroke-opacity:1"
       id="path20118" />
    <path
       d="M 381.22292,492.45095 L 381.22292,502.27388 C 381.22292,502.27388 383.88041,505.58355 383.43749,509.30695 C 382.99458,513.03034 380.00779,529.80791 376.90739,531.87646 C 373.80699,533.94502 345.62348,535.89152 339.86559,540.02862 C 334.1077,544.16572 334.99352,549.13024 334.99352,549.13024 L 334.99352,563.6101 L 340.30851,566.91979 L 340.30851,546.64798 C 340.30851,546.64798 345.62348,540.85604 346.95222,540.44233 C 348.28097,540.02862 364.34799,539.55454 368.65504,538.78749 C 378.77769,536.98472 389.0021,527.96278 388.75247,522.54568 C 388.50485,517.17242 392.73871,508.89323 390.08122,504.75614 C 387.42373,500.61903 388.30956,494.41337 388.30956,494.41337 L 381.22292,492.45095 z "
       style="fill:url(#linearGradient4376);fill-opacity:1;fill-rule:evenodd;stroke:none;stroke-width:1px;stroke-linecap:butt;stroke-linejoin:miter;stroke-opacity:1"
       id="path20999" />
    <path
       d="M 332.52403,571.08327 C 333.94577,561.78727 353.7953,577.04645 353.77842,579.01833 C 353.69411,588.87278 355.07676,654.92027 355.07676,653.94577 L 334.30323,650.22264 C 335.89575,655.60662 332.94652,614.52303 332.76445,586.94165 C 332.71131,578.88988 331.22569,571.08327 332.52403,571.08327 z "
       style="opacity:0.24444442;fill:url(#linearGradient4373);fill-opacity:1;fill-rule:evenodd;stroke:none;stroke-width:1px;stroke-linecap:butt;stroke-linejoin:miter;stroke-opacity:1"
       id="path1470" />
  </g>
</svg>
