<?xml version="1.0" encoding="UTF-8" standalone="no"?>
<!-- Created with Inkscape (http://www.inkscape.org/) -->
<svg xmlns:dc="http://purl.org/dc/elements/1.1/" xmlns:cc="http://creativecommons.org/ns#" xmlns:rdf="http://www.w3.org/1999/02/22-rdf-syntax-ns#" xmlns:svg="http://www.w3.org/2000/svg" xmlns="http://www.w3.org/2000/svg" xmlns:xlink="http://www.w3.org/1999/xlink" xmlns:sodipodi="http://sodipodi.sourceforge.net/DTD/sodipodi-0.dtd" xmlns:inkscape="http://www.inkscape.org/namespaces/inkscape" width="255" height="255" viewBox="0 0 67.468748 67.468752" version="1.1" id="svg8" inkscape:version="0.92.5 (2060ec1f9f, 2020-04-08)" sodipodi:docname="cs-privacy.svg">
 <defs id="defs2">
  <linearGradient inkscape:collect="always" id="linearGradient1102">
   <stop id="stop1098" stop-color="#ffffff" stop-opacity="0.777"/>
   <stop offset="1" id="stop1100" stop-color="#ffffff" stop-opacity="0.371"/>
  </linearGradient>
  <linearGradient id="linearGradient1093" inkscape:collect="always">
   <stop id="stop1089" stop-color="#737373" stop-opacity="1"/>
   <stop id="stop1091" offset="1" stop-color="#fefefe" stop-opacity="1"/>
  </linearGradient>
  <linearGradient id="linearGradient1082" inkscape:collect="always">
   <stop id="stop1078" stop-color="#888888" stop-opacity="1"/>
   <stop id="stop1080" offset="1" stop-color="#e0e0e0" stop-opacity="1"/>
  </linearGradient>
  <linearGradient id="linearGradient1133" inkscape:collect="always">
   <stop id="stop1129" stop-color="#fefefe" stop-opacity="1"/>
   <stop id="stop1131" offset="1" stop-color="#b5b5b5" stop-opacity="1"/>
  </linearGradient>
  <linearGradient id="linearGradient1532" inkscape:collect="always">
   <stop id="stop1538" stop-color="#c7c7c7" stop-opacity="0"/>
   <stop offset="0.895" id="stop1547" stop-color="#ffffff" stop-opacity="0"/>
   <stop id="stop1540" offset="1" stop-color="#000000" stop-opacity="1"/>
  </linearGradient>
  <linearGradient inkscape:collect="always" id="linearGradient1532-9">
   <stop id="stop1528" stop-color="#7c7c7c" stop-opacity="1"/>
   <stop offset="1" id="stop1530" stop-color="#ffffff" stop-opacity="1"/>
  </linearGradient>
  <linearGradient inkscape:collect="always" id="linearGradient920">
   <stop id="stop916" stop-color="#ffffff" stop-opacity="1"/>
   <stop offset="1" id="stop918" stop-color="#252525" stop-opacity="1"/>
  </linearGradient>
  <linearGradient inkscape:collect="always" id="linearGradient912">
   <stop id="stop908" stop-color="#000000" stop-opacity="1"/>
   <stop offset="1" id="stop910" stop-color="#999999" stop-opacity="1"/>
  </linearGradient>
  <linearGradient inkscape:collect="always" id="linearGradient904">
   <stop id="stop900" stop-color="#535353" stop-opacity="1"/>
   <stop offset="1" id="stop902" stop-color="#ffffff" stop-opacity="1"/>
  </linearGradient>
  <linearGradient inkscape:collect="always" xlink:href="#linearGradient1093" id="linearGradient906" x1="36.3" y1="266.96" x2="37.508" y2="242.29" gradientUnits="userSpaceOnUse" spreadMethod="reflect" gradientTransform="matrix(1.2417429,0,0,1.2417429,-17.203657,-64.997245)"/>
  <linearGradient inkscape:collect="always" xlink:href="#linearGradient912" id="linearGradient914" x1="40.704" y1="238.66" x2="38.538" y2="289.91" gradientUnits="userSpaceOnUse" gradientTransform="matrix(1.2417429,0,0,1.2417429,-17.203657,-64.997245)"/>
  <linearGradient inkscape:collect="always" xlink:href="#linearGradient920" id="linearGradient922" x1="39.898" y1="286.36" x2="41.38" y2="242.89" gradientUnits="userSpaceOnUse" gradientTransform="matrix(1.2417429,0,0,1.2417429,-17.203657,-64.997245)"/>
  <linearGradient inkscape:collect="always" xlink:href="#linearGradient904" id="linearGradient926" gradientUnits="userSpaceOnUse" x1="36.397" y1="263.77" x2="36.83" y2="245.19" spreadMethod="reflect" gradientTransform="matrix(0.96826384,0,0,0.96826384,-6.0173024,7.2893468)"/>
  <linearGradient inkscape:collect="always" xlink:href="#linearGradient1133" id="linearGradient1534" x1="41.05" y1="251.64" x2="40.753" y2="245.68" gradientUnits="userSpaceOnUse" spreadMethod="reflect" gradientTransform="matrix(1.2417429,0,0,1.2417429,-17.203657,-64.997245)"/>
  <radialGradient inkscape:collect="always" xlink:href="#linearGradient1532" id="radialGradient1545" cx="40.904" cy="264.32" fx="40.904" fy="264.32" r="18.641" gradientUnits="userSpaceOnUse" spreadMethod="reflect" gradientTransform="matrix(1.2417429,0,0,1.2417429,-17.203657,-64.921437)"/>
  <linearGradient inkscape:collect="always" xlink:href="#linearGradient1082" id="linearGradient1558" x1="30.577" y1="264.25" x2="36.515" y2="258.59" gradientUnits="userSpaceOnUse" spreadMethod="reflect" gradientTransform="matrix(1.2417429,0,0,1.2417429,-17.203657,-64.997245)"/>
  <linearGradient inkscape:collect="always" xlink:href="#linearGradient1532-9" id="linearGradient1568" x1="40.12" y1="261.08" x2="40.18" y2="256.02" gradientUnits="userSpaceOnUse" spreadMethod="reflect" gradientTransform="matrix(1.2417429,0,0,1.2417429,-17.203657,-64.997245)"/>
  <filter inkscape:collect="always" id="filter1102" x="-0.024" width="1.048" y="-0.024" height="1.048" color-interpolation-filters="sRGB">
   <feGaussianBlur inkscape:collect="always" stdDeviation="0.27443" id="feGaussianBlur1104"/>
  </filter>
  <linearGradient inkscape:collect="always" xlink:href="#linearGradient1102" id="linearGradient1104" x1="19.71" y1="242.83" x2="46.546" y2="248.74" gradientUnits="userSpaceOnUse"/>
 </defs>
 <sodipodi:namedview id="base" pagecolor="#ff0000" bordercolor="#666666" borderopacity="1.0" inkscape:pageopacity="0" inkscape:pageshadow="2" inkscape:zoom="3.4901961" inkscape:cx="127.5" inkscape:cy="127.5" inkscape:document-units="mm" inkscape:current-layer="layer1" showgrid="false" units="px" inkscape:snap-to-guides="false" inkscape:snap-grids="false" inkscape:snap-others="false" inkscape:object-nodes="false" inkscape:snap-nodes="false" inkscape:snap-global="false" inkscape:window-width="1920" inkscape:window-height="1056" inkscape:window-x="0" inkscape:window-y="0" inkscape:window-maximized="1"/>
 <metadata id="metadata5">
  <rdf:RDF>
   <cc:Work>
    <dc:format>image/svg+xml</dc:format>
    <dc:type rdf:resource="http://purl.org/dc/dcmitype/StillImage"/>
    <dc:title/>
   </cc:Work>
  </rdf:RDF>
 </metadata>
 <g inkscape:label="Layer 1" inkscape:groupmode="layer" id="layer1" transform="translate(0,-229.53123)">
  <circle id="path896" cx="33.588" cy="263.22" r="31.487" opacity="1" stroke-dasharray="none" stroke-opacity="1" fill="url(#linearGradient906)" fill-rule="evenodd" stroke="url(#linearGradient914)" stroke-linejoin="round" fill-opacity="1" stroke-linecap="butt" stroke-width="0.497" stroke-dashoffset="0" stroke-miterlimit="4"/>
  <circle r="26.521" cy="263.22" cx="33.588" id="circle898" opacity="1" stroke-dasharray="none" stroke-opacity="1" fill="url(#linearGradient922)" fill-rule="evenodd" stroke="#ffffff" stroke-linejoin="round" fill-opacity="1" stroke-linecap="butt" stroke-width="0.373" stroke-dashoffset="0" stroke-miterlimit="4"/>
  <circle r="24.553" cy="263.22" cx="33.588" id="circle924" opacity="1" stroke-dasharray="none" stroke-opacity="1" fill="url(#linearGradient926)" fill-rule="evenodd" stroke="#adadad" stroke-linejoin="round" fill-opacity="1" stroke-linecap="butt" stroke-width="0.387" stroke-dashoffset="0" stroke-miterlimit="4"/>
  <circle id="circle928" cx="33.588" cy="263.22" r="23.15" opacity="1" stroke-dasharray="none" stroke-opacity="1" fill="url(#linearGradient1534)" fill-rule="evenodd" stroke="none" stroke-linejoin="round" fill-opacity="1" stroke-linecap="butt" stroke-width="0.365" stroke-dashoffset="0" stroke-miterlimit="4"/>
  <circle r="23.15" cy="263.3" cx="33.588" id="circle1536" stroke-miterlimit="4" opacity="1" stroke-dasharray="none" stroke-opacity="1" fill="url(#radialGradient1545)" fill-rule="evenodd" stroke="none" stroke-linejoin="round" fill-opacity="1" stroke-linecap="butt" stroke-width="0.365" stroke-dashoffset="0"/>
  <circle r="13.722" cy="264.21" cx="33.513" id="circle932" transform="matrix(0.9789134,0,0,0.9789134,0.70666748,5.0406048)" opacity="1" stroke-dasharray="none" stroke-opacity="1" fill="#696969" filter="url(#filter1102)" fill-rule="evenodd" stroke="none" stroke-linejoin="round" fill-opacity="1" stroke-linecap="butt" stroke-width="0.216" stroke-dashoffset="0" stroke-miterlimit="4"/>
  <g id="g1085" transform="translate(48.289431,-0.37903792)">
   <path d="m -17.320732,245.70943 c -0.433766,0.0499 -0.706426,0.24115 -0.855713,0.59297 -0.134103,0.31011 -0.15885,0.70253 -0.08961,1.30388 0.126546,1.0992 0.491559,1.53664 1.211214,1.45379 0.768946,-0.0885 1.049857,-0.68524 0.906849,-1.92738 -0.06066,-0.52743 -0.157922,-0.85085 -0.32981,-1.08578 -0.190078,-0.2628 -0.483132,-0.3789 -0.84296,-0.33747 z m -0.07514,0.25837 c 0.14295,-0.0165 0.271457,0.0587 0.369625,0.21716 0.122978,0.20061 0.265224,0.82851 0.341215,1.48903 0.0806,0.69993 -0.03838,1.0982 -0.334128,1.13225 -0.147875,0.017 -0.276394,-0.0581 -0.374552,-0.21659 -0.122979,-0.2006 -0.244567,-0.73599 -0.320558,-1.39651 -0.06238,-0.54221 -0.05686,-0.79756 0.02073,-0.99129 0.05858,-0.14159 0.159677,-0.21816 0.297689,-0.23405 z" id="path1081" inkscape:connector-curvature="0" font-family="&apos;URW Palladio L&apos;" fill="#000000" stroke="none" font-style="normal" word-spacing="1.23" line-height="1.25" fill-opacity="1" font-weight="bold" stroke-width="0.286" font-stretch="normal" letter-spacing="0" font-variant="normal" font-size="4.586"/>
   <path d="m -14.163608,245.69199 c -0.434721,-0.0408 -0.741021,0.0899 -0.959809,0.40326 -0.195321,0.27569 -0.30065,0.65452 -0.357231,1.25719 -0.103412,1.10162 0.163291,1.60507 0.884526,1.67278 0.770634,0.0723 1.168831,-0.45341 1.285704,-1.69829 0.04962,-0.52857 0.02141,-0.86512 -0.09821,-1.1305 -0.131624,-0.29643 -0.394372,-0.47059 -0.754984,-0.50444 z m -0.126928,0.23725 c 0.143263,0.0135 0.253469,0.1135 0.31674,0.28888 0.07888,0.22169 0.08824,0.86544 0.02605,1.5274 -0.06585,0.70148 -0.26458,1.06655 -0.560972,1.03873 -0.148195,-0.0139 -0.258413,-0.11397 -0.321684,-0.28934 -0.07888,-0.22169 -0.08713,-0.77066 -0.02498,-1.43262 0.051,-0.54339 0.109239,-0.79209 0.225199,-0.96559 0.08662,-0.12642 0.201326,-0.18044 0.339644,-0.16745 z" id="path1083" inkscape:connector-curvature="0" font-family="&apos;URW Palladio L&apos;" fill="#000000" stroke="none" font-style="normal" word-spacing="1.23" line-height="1.25" fill-opacity="1" font-weight="bold" stroke-width="0.286" font-stretch="normal" letter-spacing="0" font-variant="normal" font-size="4.586"/>
  </g>
  <g id="g1089" transform="translate(49.123314,-1.2129213)">
   <path d="m -8.6472812,247.87165 c 0.011194,5.2e-4 0.019719,0.006 0.024025,0.008 0.032095,0.0239 0.023033,0.0591 -0.050003,0.18844 l -1.0858014,1.91112 c -0.071086,0.1251 -0.1922681,0.14756 -0.3610994,0.0631 l -0.317969,-0.16353 -0.09069,0.15962 c 0.265612,0.1452 0.5312141,0.2904 0.6088673,0.33452 0.1318703,0.0692 0.2224715,0.12068 0.2742298,0.1501 0.051812,0.0294 0.1553064,0.0882 0.2952274,0.17343 0.05612,0.0319 0.2520763,0.14893 0.4610119,0.27334 l 0.090685,-0.15962 -0.260116,-0.1649 c -0.1590373,-0.10177 -0.2042376,-0.21305 -0.1307145,-0.34247 l 0.7892284,-1.38912 c 0.1936341,-0.34081 0.3566757,-0.60769 0.6657019,-1.07125 l -0.02722,-0.0726 c -0.6439577,-0.0919 -1.2356634,-0.20557 -1.5374486,-0.29713 -0.06127,0.10784 -0.09059,0.19962 -0.1111781,0.33629 z" id="path1085" inkscape:connector-curvature="0" font-family="&apos;URW Palladio L&apos;" fill="#000000" stroke="none" font-style="normal" word-spacing="1.23" line-height="1.25" fill-opacity="1" font-weight="bold" stroke-width="0.286" font-stretch="normal" letter-spacing="0" font-variant="normal" font-size="4.586"/>
   <path d="m -5.5241849,249.49023 c -0.3273557,-0.28893 -0.651902,-0.36361 -1.0132406,-0.23914 -0.3201929,0.10784 -0.6283731,0.35203 -1.02894,0.80587 -0.7321892,0.82955 -0.8130312,1.39351 -0.2699129,1.87288 0.5803089,0.5122 1.2117289,0.32168 2.0391294,-0.61575 0.3513117,-0.39803 0.5266547,-0.68667 0.5862235,-0.97161 0.068118,-0.3171 -0.04169,-0.61257 -0.3132594,-0.85225 z m -0.2422855,0.11705 c 0.1078972,0.0952 0.138099,0.24097 0.086116,0.41995 -0.066786,0.22563 -0.4382622,0.75147 -0.8782292,1.24994 -0.4662336,0.52824 -0.8417995,0.70632 -1.0650066,0.50932 -0.1116141,-0.0985 -0.1418159,-0.24425 -0.09015,-0.42316 0.066776,-0.22562 0.3833074,-0.67422 0.8232744,-1.17269 0.3611669,-0.4092 0.5546621,-0.57594 0.7505426,-0.64791 0.1444417,-0.0512 0.2689659,-0.0273 0.3731252,0.0646 z" id="path1087" inkscape:connector-curvature="0" font-family="&apos;URW Palladio L&apos;" fill="#000000" stroke="none" font-style="normal" word-spacing="1.23" line-height="1.25" fill-opacity="1" font-weight="bold" stroke-width="0.286" font-stretch="normal" letter-spacing="0" font-variant="normal" font-size="4.586"/>
  </g>
  <g id="g1093" transform="translate(50.942696,-0.07580758)">
   <path d="m -5.2446469,254.91543 0.3642515,0.77192 0.089723,0.19903 0.4553654,1.0465 c 0.1044827,-0.058 0.1632889,-0.0845 0.2356588,-0.1171 0.099559,-0.0449 0.1603634,-0.0668 0.2865708,-0.11284 l 0.01447,-0.0283 -0.6654935,-1.34365 0.03207,-0.0254 1.1282721,0.43843 c 0.4285861,0.16602 0.8342319,0.18455 1.1237296,0.0541 0.4568692,-0.20593 0.601095,-0.75531 0.3482814,-1.31622 -0.1203325,-0.26687 -0.2889478,-0.43577 -0.5996634,-0.60594 l -0.7830664,0.25499 0.061813,0.17349 0.3442955,-0.0572 c 0.1520232,-0.0249 0.3568458,0.1276 0.4465586,0.32663 0.1345324,0.29855 0.021144,0.57825 -0.2864305,0.71689 -0.3392545,0.15291 -0.7625547,0.13145 -1.2744147,-0.0624 l -1.0913764,-0.41696 z" id="path1089" inkscape:connector-curvature="0" font-family="&apos;URW Palladio L&apos;" fill="#000000" stroke="none" font-style="normal" word-spacing="1.23" line-height="1.25" fill-opacity="1" font-weight="bold" stroke-width="0.286" font-stretch="normal" letter-spacing="0" font-variant="normal" font-size="4.586"/>
   <path d="m -0.77898108,257.65106 c -0.0939564,-0.4264 -0.31200982,-0.67812 -0.67722812,-0.79071 -0.3221837,-0.10175 -0.7150729,-0.0863 -1.3062223,0.044 -1.0805324,0.2381 -1.4784239,0.64586 -1.3225432,1.3533 0.1665614,0.75589 0.7888421,0.97442 2.0098953,0.70535 0.518459,-0.11424 0.8302944,-0.24392 1.0464479,-0.4389 0.24201963,-0.21591 0.32759595,-0.51929 0.24965042,-0.873 z m -0.26469952,-0.0484 c 0.030973,0.14051 -0.030656,0.27603 -0.1782906,0.38985 -0.1870002,0.14282 -0.7971136,0.34839 -1.446405,0.49147 -0.6880454,0.15161 -1.0963874,0.0739 -1.1604414,-0.2168 -0.032032,-0.14537 0.029585,-0.28088 0.1772202,-0.39471 0.1870001,-0.14282 0.7071865,-0.31841 1.3564779,-0.46148 0.5329971,-0.11745 0.7875933,-0.13799 0.9882206,-0.0806 0.146842,0.0438 0.2333263,0.13657 0.2632183,0.27225 z" id="path1091" inkscape:connector-curvature="0" font-family="&apos;URW Palladio L&apos;" fill="#000000" stroke="none" font-style="normal" word-spacing="1.23" line-height="1.25" fill-opacity="1" font-weight="bold" stroke-width="0.286" font-stretch="normal" letter-spacing="0" font-variant="normal" font-size="4.586"/>
  </g>
  <g id="g1097" transform="translate(51.77658,1.9709972)" fill="#000000" fill-opacity="1">
   <path d="m -2.9738284,262.344 c -0.227688,-0.002 -0.3472896,-0.0118 -0.7490233,-0.0299 -0.1300862,0.18569 -0.1927456,0.33987 -0.2425224,0.57784 -0.1615086,0.7722 0.2329617,1.50355 0.883771,1.63966 0.2573982,0.0538 0.477852,-0.007 0.6496074,-0.17334 0.1031014,-0.10516 0.1535722,-0.20105 0.2235647,-0.41452 0.1160657,0.41458 0.2990398,0.63028 0.5952939,0.69224 0.3982462,0.0833 0.76198543,-0.22588 0.86864392,-0.73582 0.0558608,-0.26711 0.0382213,-0.47356 -0.0631373,-0.78877 l -0.71642052,-0.30698 -0.035577,0.16998 c 0.3158065,0.16237 0.4336345,0.37457 0.371669,0.67082 -0.063997,0.30597 -0.2735894,0.45982 -0.5406984,0.40395 -0.3108321,-0.065 -0.4642361,-0.3252 -0.3951655,-0.65545 l 0.035577,-0.16999 -0.3400958,-0.16744 -0.031394,0.0289 c 0.00884,0.10322 -7.944e-4,0.19754 -0.023067,0.30437 -0.077196,0.3691 -0.3659583,0.56215 -0.7302037,0.48597 -0.3788126,-0.0792 -0.5941241,-0.38279 -0.5199695,-0.73732 0.035577,-0.16999 0.1332271,-0.3219 0.2664843,-0.42582 0.1253494,-0.0904 0.2415608,-0.13704 0.5018818,-0.19411 z" id="path1093" inkscape:connector-curvature="0" font-family="&apos;URW Palladio L&apos;" fill="#000000" stroke="none" font-style="normal" word-spacing="1.23" line-height="1.25" fill-opacity="1" font-weight="bold" stroke-width="0.286" font-stretch="normal" letter-spacing="0" font-variant="normal" font-size="4.586"/>
   <path d="m -1.7528709,267.04077 c 0.1756041,-0.39976 0.1479761,-0.73164 -0.080566,-1.03796 -0.2001724,-0.27218 -0.5265714,-0.49143 -1.0807765,-0.73488 -1.0130299,-0.44499 -1.5748563,-0.35037 -1.8661909,0.31287 -0.3113026,0.70866 0.062342,1.25214 1.2071184,1.75501 0.4860672,0.21351 0.8143789,0.2927 1.103921,0.26273 0.3227918,-0.0316 0.570821,-0.22615 0.716494,-0.55777 z m -0.1852323,-0.19517 c -0.057876,0.13174 -0.1875256,0.20485 -0.3739047,0.20968 -0.2352482,0.005 -0.8492017,-0.18877 -1.4579236,-0.45616 -0.6450662,-0.28336 -0.9290075,-0.58693 -0.8092797,-0.85949 0.059864,-0.13628 0.1895246,-0.20939 0.3759034,-0.21422 0.2352483,-0.005 0.7588939,0.15994 1.3676261,0.42733 0.4996993,0.21951 0.7174047,0.35308 0.8455789,0.51776 0.092765,0.12201 0.1078336,0.24791 0.051947,0.37511 z" id="path1095" inkscape:connector-curvature="0" font-family="&apos;URW Palladio L&apos;" fill="#000000" stroke="none" font-style="normal" word-spacing="1.23" line-height="1.25" fill-opacity="1" font-weight="bold" stroke-width="0.286" font-stretch="normal" letter-spacing="0" font-variant="normal" font-size="4.586"/>
  </g>
  <g id="g1101" transform="translate(51.245927,3.4113413)">
   <path d="m -6.2511837,269.55805 -0.897362,0.81267 -0.1798506,-0.1986 c -0.1532083,-0.16917 -0.1662744,-0.3314 -0.036794,-0.462 l 0.2253777,-0.22419 -0.1232387,-0.13608 c -0.1805516,0.17021 -0.346396,0.32709 -0.4052361,0.38038 -0.1143639,0.11026 -0.1915955,0.1802 -0.2357284,0.22017 -0.055219,0.05 -0.055219,0.05 -0.57636,0.50188 l 0.1232387,0.13607 0.1423919,-0.10886 c 0.1497393,-0.11554 0.3028774,-0.0869 0.4560864,0.0823 l 0.1798506,0.1986 -0.3273109,0.29642 0.2631154,0.29054 0.013673,0.008 0.3236365,-0.29309 0.4163237,0.45971 c 0.2531325,0.2795 0.4659444,0.52188 0.9371473,1.07916 l 0.065757,0.0208 0.3587559,-0.50563 c -0.139238,-1.01857 -0.3044329,-1.72579 -0.5677591,-2.43786 z m 0.041391,0.5114 c 0.017507,0.0642 0.024399,0.0854 0.057376,0.18902 0.046166,0.13226 0.078999,0.2498 0.090545,0.29956 l 0.1583523,0.6331 c 0.00715,0.007 0.041836,0.20946 0.078892,0.39728 0.022842,0.11344 0.042239,0.2163 0.055147,0.30483 l -1.1057562,-1.221 z" id="path1097" inkscape:connector-curvature="0" font-family="&apos;URW Palladio L&apos;" fill="#000000" stroke="none" font-style="normal" word-spacing="1.23" line-height="1.25" fill-opacity="1" font-weight="bold" stroke-width="0.286" font-stretch="normal" letter-spacing="0" font-variant="normal" font-size="4.586"/>
   <path d="m -8.0691951,274.05288 c 0.3773122,-0.21974 0.550373,-0.50426 0.5460086,-0.88642 -0.00151,-0.33787 -0.1362845,-0.70725 -0.4409182,-1.23034 -0.5568258,-0.95613 -1.0666488,-1.21043 -1.6926426,-0.84587 -0.6688637,0.38952 -0.6868357,1.04881 -0.057593,2.12928 0.267171,0.45878 0.4859272,0.71608 0.7376132,0.86234 0.2795247,0.16449 0.5945403,0.15328 0.907532,-0.029 z m -0.034785,-0.26683 c -0.1243398,0.0724 -0.272193,0.0551 -0.425685,-0.0507 -0.1931206,-0.13443 -0.5752617,-0.65257 -0.9098525,-1.22711 -0.3545766,-0.60883 -0.4053529,-1.02138 -0.1481333,-1.17119 0.1286192,-0.0749 0.2764723,-0.0576 0.4299751,0.0482 0.1931206,0.13442 0.5192366,0.5761 0.8538274,1.15063 0.2746763,0.47164 0.372001,0.70779 0.3786421,0.91637 0.00305,0.15323 -0.058765,0.26389 -0.178816,0.3338 z" id="path1099" inkscape:connector-curvature="0" font-family="&apos;URW Palladio L&apos;" fill="#000000" stroke="none" font-style="normal" word-spacing="1.23" line-height="1.25" fill-opacity="1" font-weight="bold" stroke-width="0.286" font-stretch="normal" letter-spacing="0" font-variant="normal" font-size="4.586"/>
  </g>
  <g id="g1105" transform="translate(50.18462,4.7000702)">
   <path d="m -13.634663,275.34755 c 0,0 -0.708899,0.0904 -0.708899,0.0904 -0.04936,0.005 -0.28668,0.0255 -0.70711,0.0603 l -0.02377,0.0574 c 0.01291,0.0785 0.02072,0.14748 0.02693,0.20671 0.01049,0.0987 0.0079,0.16881 -0.0052,0.27998 l 0.02399,0.0374 0.870137,-0.12254 c 0.450027,-0.0379 0.554171,-0.044 0.841901,-0.0597 l 0.03036,-0.0432 c -0.06249,-0.35261 -0.08321,-0.50009 -0.10099,-0.66785 l -0.05355,-0.50326 c -0.01103,-0.1036 -0.01869,-0.22254 -0.03546,-0.61495 l -0.09953,-0.0443 c -0.148107,0.15548 -0.314494,0.23306 -0.531584,0.25617 -0.399637,0.0425 -0.684545,-0.1966 -0.72866,-0.61103 -0.04359,-0.40951 0.175282,-0.69726 0.555184,-0.73769 0.340433,-0.0362 0.612544,0.12941 0.825659,0.49093 l 0.138557,-0.10456 c -0.134125,-0.36994 -0.176852,-0.49014 -0.223326,-0.64485 -0.190954,-0.0595 -0.347053,-0.0728 -0.569079,-0.0492 -0.784476,0.0835 -1.35174,0.7077 -1.277701,1.40337 0.05826,0.54766 0.470017,0.85311 1.067009,0.78958 0.212154,-0.0226 0.355969,-0.0778 0.623543,-0.23602 z" id="path1101" inkscape:connector-curvature="0" font-family="&apos;URW Palladio L&apos;" fill="#000000" stroke="none" font-style="normal" word-spacing="1.23" line-height="1.25" fill-opacity="1" font-weight="bold" stroke-width="0.286" font-stretch="normal" letter-spacing="0" font-variant="normal" font-size="4.586"/>
   <path d="m -17.305683,275.99606 c 0.434347,0.0446 0.741767,-0.0835 0.963272,-0.39491 0.197714,-0.27399 0.306329,-0.65188 0.368141,-1.25404 0.112972,-1.10068 -0.149341,-1.60643 -0.869965,-1.6804 -0.769973,-0.079 -1.172728,0.44324 -1.300395,1.68705 -0.05421,0.52813 -0.02893,0.86491 0.08837,1.13132 0.129101,0.29754 0.390272,0.474 0.750578,0.51098 z m 0.12899,-0.23615 c -0.143139,-0.0147 -0.25248,-0.11569 -0.314231,-0.29161 -0.07693,-0.22237 -0.08065,-0.86619 -0.01278,-1.52757 0.07194,-0.70088 0.273837,-1.06421 0.569978,-1.03382 0.14807,0.0152 0.257412,0.11621 0.319163,0.29213 0.07693,0.22237 0.08043,0.77138 0.01254,1.43277 -0.05573,0.54294 -0.116125,0.79111 -0.233583,0.9636 -0.08771,0.12567 -0.202889,0.17869 -0.341084,0.16451 z" id="path1103" inkscape:connector-curvature="0" font-family="&apos;URW Palladio L&apos;" fill="#000000" stroke="none" font-style="normal" word-spacing="1.23" line-height="1.25" fill-opacity="1" font-weight="bold" stroke-width="0.286" font-stretch="normal" letter-spacing="0" font-variant="normal" font-size="4.586"/>
  </g>
  <g id="g1109" transform="translate(47.834585,4.9274929)">
   <path d="m -23.930177,273.66605 c 0.404208,0.22279 0.672224,0.27489 1.075658,0.22196 0.620855,-0.0817 1.102388,-0.42777 1.450692,-1.02876 0.204011,-0.35202 0.307236,-0.72803 0.28431,-1.00512 -0.0277,-0.30849 -0.203351,-0.55944 -0.508162,-0.73608 -0.553783,-0.32094 -1.17039,-0.12777 -1.523678,0.48182 -0.286109,0.49368 -0.21016,0.95633 0.197644,1.19269 0.253277,0.14679 0.475432,0.14937 0.833254,0.007 -0.283135,0.40938 -0.472609,0.59778 -0.720128,0.71812 -0.32099,0.15806 -0.688913,0.13981 -0.997997,-0.0393 -0.01716,-0.01 -0.05147,-0.0299 -0.08761,-0.0566 l -0.10421,0.0313 z m 1.448014,-1.09341 c -0.248983,-0.1443 -0.26464,-0.50319 -0.03824,-0.89384 0.216444,-0.37348 0.4807,-0.5128 0.721105,-0.37348 0.257571,0.14928 0.261475,0.51856 0.01019,0.95214 -0.208984,0.3606 -0.439776,0.46197 -0.693053,0.31518 z" id="path1105" inkscape:connector-curvature="0" font-family="&apos;URW Palladio L&apos;" fill="#000000" stroke="none" font-style="normal" word-spacing="1.23" line-height="1.25" fill-opacity="1" font-weight="bold" stroke-width="0.286" font-stretch="normal" letter-spacing="0" font-variant="normal" font-size="4.586"/>
   <path d="m -25.91189,272.12358 c 0.324851,0.29174 0.64875,0.3692 1.011142,0.24784 0.321111,-0.10509 0.631386,-0.34662 1.035831,-0.79699 0.739293,-0.82322 0.82498,-1.38647 0.286008,-1.87049 -0.575879,-0.51717 -1.20891,-0.33209 -2.044338,0.59819 -0.354729,0.395 -0.532546,0.68212 -0.594568,0.96653 -0.07084,0.31651 0.03644,0.6129 0.305925,0.85492 z m 0.24328,-0.11496 c -0.107102,-0.0961 -0.135926,-0.24217 -0.08188,-0.42081 0.06872,-0.22504 0.444697,-0.74767 0.888938,-1.24234 0.470758,-0.52421 0.847847,-0.69906 1.069349,-0.50015 0.11072,0.0995 0.139649,0.24548 0.08591,0.42405 -0.06872,0.22504 -0.389094,0.6709 -0.833335,1.16558 -0.36467,0.40607 -0.559587,0.57113 -0.756084,0.64142 -0.144883,0.0499 -0.269199,0.025 -0.372559,-0.0678 z" id="path1107" inkscape:connector-curvature="0" font-family="&apos;URW Palladio L&apos;" fill="#000000" stroke="none" font-style="normal" word-spacing="1.23" line-height="1.25" fill-opacity="1" font-weight="bold" stroke-width="0.286" font-stretch="normal" letter-spacing="0" font-variant="normal" font-size="4.586"/>
  </g>
  <g id="g1113" transform="translate(46.924894,2.8048806)">
   <path d="m -30.059225,265.88265 0.295577,0.63427 0.05801,0.13168 c 0.05,0.11352 0.157472,0.36981 0.317774,0.77087 0.028,0.0636 0.105467,0.25175 0.188827,0.45357 l 0.05635,0.0294 c 0.289162,-0.1436 0.418843,-0.20613 0.636808,-0.30211 0.05453,-0.024 0.05453,-0.024 0.41069,-0.17543 l -0.07801,-0.17709 -0.306619,0.0916 c -0.209801,0.0653 -0.268124,0.0313 -0.362102,-0.18209 l -0.44991,-1.02171 0.01926,-0.0302 2.952076,0.32647 0.03798,-0.0492 c -0.105641,-0.20288 -0.105641,-0.20288 -0.123643,-0.24374 -0.01368,-0.0319 -0.03346,-0.0883 -0.06292,-0.16747 -0.0063,-0.0136 -0.02211,-0.0499 -0.03346,-0.0883 -0.252491,0.0299 -0.846519,0.0475 -1.148256,0.0394 l -1.237126,-0.0516 c -0.447801,-0.0197 -0.653807,-0.032 -0.967002,-0.0784 z" id="path1109" inkscape:connector-curvature="0" font-family="&apos;URW Palladio L&apos;" fill="#000000" stroke="none" font-style="normal" word-spacing="1.23" line-height="1.25" fill-opacity="1" font-weight="bold" stroke-width="0.286" font-stretch="normal" letter-spacing="0" font-variant="normal" font-size="4.586"/>
   <path d="m -30.586509,263.92215 c 0.08995,0.42727 0.306221,0.68075 0.670464,0.79645 0.321305,0.10449 0.714313,0.0924 1.306544,-0.0328 1.082514,-0.22893 1.483882,-0.63324 1.334029,-1.34198 -0.160607,-0.75717 -0.780503,-0.98111 -2.003802,-0.72246 -0.519405,0.10986 -0.832346,0.23684 -1.050149,0.42996 -0.243862,0.21385 -0.332007,0.51648 -0.257086,0.87085 z m 0.264278,0.0506 c -0.02998,-0.14073 0.03293,-0.27575 0.181599,-0.38832 0.188216,-0.14123 0.800057,-0.34159 1.45055,-0.47912 0.689323,-0.14573 1.096968,-0.0646 1.158557,0.22668 0.03105,0.14557 -0.03197,0.28061 -0.180581,0.39318 -0.188216,0.14122 -0.709872,0.31237 -1.360365,0.44991 -0.533988,0.11285 -0.788733,0.13127 -0.988874,0.0721 -0.146466,-0.0451 -0.232157,-0.13856 -0.260886,-0.27448 z" id="path1111" inkscape:connector-curvature="0" font-family="&apos;URW Palladio L&apos;" fill="#000000" stroke="none" font-style="normal" word-spacing="1.23" line-height="1.25" fill-opacity="1" font-weight="bold" stroke-width="0.286" font-stretch="normal" letter-spacing="0" font-variant="normal" font-size="4.586"/>
  </g>
  <g id="g1117" transform="translate(46.166819,2.1226123)">
   <path d="m -29.00981,258.4493 c 0.110338,0.42528 0.331905,0.66661 0.67609,0.74171 0.489604,0.10685 0.920522,-0.21556 1.045356,-0.78757 0.140682,-0.64473 -0.209195,-1.22893 -0.820002,-1.36222 -0.227847,-0.0497 -0.431708,-0.0231 -0.622361,0.0826 -0.144457,0.0802 -0.221667,0.15477 -0.347456,0.33554 -0.15489,-0.3842 -0.312607,-0.54559 -0.584073,-0.60483 -0.421748,-0.092 -0.7662,0.18322 -0.880448,0.70676 -0.133286,0.6108 0.132827,1.09036 0.670873,1.20779 0.344185,0.0751 0.582253,-0.0151 0.86202,-0.31974 z m 0.326035,-0.44685 c 0.23825,-0.32382 0.439655,-0.43222 0.715964,-0.37193 0.319949,0.0698 0.507759,0.34949 0.442178,0.65004 -0.07617,0.34903 -0.413392,0.5446 -0.79151,0.46209 -0.256915,-0.0561 -0.394058,-0.17232 -0.562046,-0.47306 z m -0.667293,-0.13038 c -0.219474,0.30759 -0.387562,0.40296 -0.620252,0.35218 -0.261768,-0.0571 -0.391242,-0.27835 -0.330944,-0.55467 0.06559,-0.30055 0.318462,-0.45866 0.628714,-0.39096 0.203599,0.0444 0.327249,0.15267 0.461126,0.40025 z" id="path1113" inkscape:connector-curvature="0" font-family="&apos;URW Palladio L&apos;" fill="#000000" stroke="none" font-style="normal" word-spacing="1.23" line-height="1.25" fill-opacity="1" font-weight="bold" stroke-width="0.286" font-stretch="normal" letter-spacing="0" font-variant="normal" font-size="4.586"/>
   <path d="m -29.531688,254.54119 c -0.179032,0.39823 -0.154247,0.73033 0.07164,1.03861 0.197836,0.27389 0.522327,0.49594 1.074435,0.74414 1.009167,0.45369 1.571773,0.3639 1.868806,-0.29681 0.317373,-0.70597 -0.05158,-1.25264 -1.19199,-1.76532 -0.484218,-0.21769 -0.811834,-0.2997 -1.101627,-0.27222 -0.323051,0.0289 -0.572738,0.22124 -0.72126,0.5516 z m 0.183544,0.19675 c 0.05898,-0.13123 0.18929,-0.20323 0.375702,-0.20646 0.235286,-0.003 0.847544,0.19607 1.453951,0.46868 0.642611,0.2889 0.92392,0.59489 0.801858,0.86641 -0.06098,0.13575 -0.191316,0.20775 -0.377738,0.21099 -0.235276,0.003 -0.757486,-0.16646 -1.363894,-0.43908 -0.497798,-0.22379 -0.714343,-0.35923 -0.841097,-0.52501 -0.09162,-0.12282 -0.105709,-0.24882 -0.04882,-0.37552 z" id="path1115" inkscape:connector-curvature="0" font-family="&apos;URW Palladio L&apos;" fill="#000000" stroke="none" font-style="normal" word-spacing="1.23" line-height="1.25" fill-opacity="1" font-weight="bold" stroke-width="0.286" font-stretch="normal" letter-spacing="0" font-variant="normal" font-size="4.586"/>
  </g>
  <g id="g1121" transform="translate(47.37974,0.75807584)">
   <path d="m -24.09285,252.45346 c 0.234723,-0.22884 0.322,-0.33973 0.419108,-0.559 0.309841,-0.6743 0.14576,-1.4781 -0.434808,-2.13042 -0.577268,-0.64861 -1.168621,-0.75331 -1.687507,-0.29149 -0.496655,0.44203 -0.510694,1.04569 -0.03568,1.5794 0.402437,0.45217 0.848723,0.51328 1.237884,0.16692 0.122319,-0.10885 0.173345,-0.20077 0.1914,-0.32976 l 0.05207,-0.41166 c 0.175682,0.24217 0.249918,0.35544 0.324603,0.52144 0.140697,0.29988 0.16893,0.60024 0.08087,0.84465 -0.05474,0.15497 -0.185615,0.35118 -0.28568,0.44024 -0.02222,0.0198 -0.06632,0.0524 -0.12479,0.0911 l 0.02574,0.0965 z m -1.557632,-2.76508 c 0.226086,-0.20123 0.546729,-0.0947 0.89309,0.29446 0.273793,0.30762 0.299072,0.53753 0.0804,0.73215 -0.233503,0.20782 -0.565672,0.1182 -0.879047,-0.2339 -0.273793,-0.30762 -0.309411,-0.60139 -0.09445,-0.79271 z" id="path1117" inkscape:connector-curvature="0" font-family="&apos;URW Palladio L&apos;" fill="#000000" stroke="none" font-style="normal" word-spacing="1.23" line-height="1.25" fill-opacity="1" font-weight="bold" stroke-width="0.286" font-stretch="normal" letter-spacing="0" font-variant="normal" font-size="4.586"/>
   <path d="m -23.154877,247.58357 c -0.379201,0.21645 -0.554735,0.49946 -0.553689,0.88164 -0.0014,0.33786 0.130115,0.70841 0.430209,1.23412 0.548502,0.96093 1.056109,1.21965 1.685236,0.86055 0.672222,-0.38371 0.695928,-1.04282 0.07609,-2.12871 -0.263181,-0.46108 -0.479685,-0.72028 -0.730091,-0.86871 -0.278088,-0.16691 -0.593187,-0.15845 -0.907756,0.0211 z m 0.03252,0.2671 c 0.124969,-0.0713 0.272654,-0.0528 0.425227,0.0544 0.19195,0.1361 0.569568,0.65754 0.899167,1.23496 0.349269,0.6119 0.396461,1.02487 0.137907,1.17245 -0.129266,0.0738 -0.276954,0.0553 -0.429537,-0.0519 -0.19195,-0.1361 -0.514212,-0.58059 -0.843811,-1.15801 -0.270557,-0.47401 -0.365839,-0.71099 -0.370663,-0.91962 -0.0017,-0.15325 0.06105,-0.26337 0.18171,-0.33224 z" id="path1119" inkscape:connector-curvature="0" font-family="&apos;URW Palladio L&apos;" fill="#000000" stroke="none" font-style="normal" word-spacing="1.23" line-height="1.25" fill-opacity="1" font-weight="bold" stroke-width="0.286" font-stretch="normal" letter-spacing="0" font-variant="normal" font-size="4.586"/>
  </g>
  <g id="g1394" aria-label="|||||||||||||||||||||||||||||||||||||||||||||||||||||||||||||||||" transform="matrix(1.2416709,-0.01337912,0.01337912,1.2416709,-20.737184,-64.430939)" font-family="&apos;Accanthis ADF Std&apos;" fill="#292929" stroke="none" font-style="normal" word-spacing="0.799" line-height="1.25" fill-opacity="1" font-weight="bold" stroke-width="0.265" font-stretch="normal" letter-spacing="0.693" font-variant="normal" font-size="3.175">
   <path id="path1264" d="m 56.180998,264.89278 2.412231,0.0609 0.0089,-0.35232 -2.412231,-0.0609 z" inkscape:connector-curvature="0" fill="#292929" word-spacing="0.799" fill-opacity="1" stroke-width="0.265" letter-spacing="0.693"/>
   <path id="path1266" d="m 56.056175,266.36493 2.395316,0.29159 0.04259,-0.34984 -2.395316,-0.29159 z" inkscape:connector-curvature="0" fill="#292929" word-spacing="0.799" fill-opacity="1" stroke-width="0.265" letter-spacing="0.693"/>
   <path id="path1268" d="m 55.789949,267.818 2.355839,0.5221 0.07625,-0.34408 -2.355839,-0.5221 z" inkscape:connector-curvature="0" fill="#292929" word-spacing="0.799" fill-opacity="1" stroke-width="0.265" letter-spacing="0.693"/>
   <path id="path1270" d="m 55.383868,269.23828 2.29391,0.74869 0.109349,-0.33503 -2.29391,-0.74869 z" inkscape:connector-curvature="0" fill="#292929" word-spacing="0.799" fill-opacity="1" stroke-width="0.265" letter-spacing="0.693"/>
   <path id="path1272" d="m 54.841596,270.61231 2.210278,0.96811 0.141395,-0.32282 -2.210278,-0.96811 z" inkscape:connector-curvature="0" fill="#292929" word-spacing="0.799" fill-opacity="1" stroke-width="0.265" letter-spacing="0.693"/>
   <path id="path1274" d="m 54.168565,271.92731 2.106088,1.1777 0.172005,-0.3076 -2.106087,-1.1777 z" inkscape:connector-curvature="0" fill="#292929" word-spacing="0.799" fill-opacity="1" stroke-width="0.265" letter-spacing="0.693"/>
   <path id="path1276" d="m 53.371605,273.17111 1.982646,1.37539 0.200879,-0.28957 -1.982646,-1.37539 z" inkscape:connector-curvature="0" fill="#292929" word-spacing="0.799" fill-opacity="1" stroke-width="0.265" letter-spacing="0.693"/>
   <path id="path1278" d="m 52.45862,274.33244 1.841254,1.5596 0.227784,-0.26892 -1.841254,-1.5596 z" inkscape:connector-curvature="0" fill="#292929" word-spacing="0.799" fill-opacity="1" stroke-width="0.265" letter-spacing="0.693"/>
   <path id="path1280" d="m 51.438369,275.40079 1.683128,1.72906 0.252534,-0.24583 -1.683128,-1.72906 z" inkscape:connector-curvature="0" fill="#292929" word-spacing="0.799" fill-opacity="1" stroke-width="0.265" letter-spacing="0.693"/>
   <path id="path1282" d="m 50.320325,276.36632 1.509415,1.88262 0.274961,-0.22046 -1.509415,-1.88261 z" inkscape:connector-curvature="0" fill="#292929" word-spacing="0.799" fill-opacity="1" stroke-width="0.265" letter-spacing="0.693"/>
   <path id="path1284" d="m 49.114674,277.21993 1.321284,2.0191 0.294896,-0.19297 -1.321285,-2.01911 z" inkscape:connector-curvature="0" fill="#292929" word-spacing="0.799" fill-opacity="1" stroke-width="0.265" letter-spacing="0.693"/>
   <path id="path1286" d="m 47.832342,277.95329 1.120084,2.13728 0.312156,-0.16359 -1.120084,-2.13728 z" inkscape:connector-curvature="0" fill="#292929" word-spacing="0.799" fill-opacity="1" stroke-width="0.265" letter-spacing="0.693"/>
   <path id="path1288" d="m 46.485037,278.55899 0.907514,2.23584 0.326551,-0.13254 -0.907514,-2.23584 z" inkscape:connector-curvature="0" fill="#292929" word-spacing="0.799" fill-opacity="1" stroke-width="0.265" letter-spacing="0.693"/>
   <path id="path1290" d="m 45.085271,279.03091 0.685793,2.31349 0.337892,-0.10016 -0.685793,-2.31349 z" inkscape:connector-curvature="0" fill="#292929" word-spacing="0.799" fill-opacity="1" stroke-width="0.265" letter-spacing="0.693"/>
   <path id="path1292" d="m 43.646249,279.3645 0.457752,2.36919 0.346026,-0.0669 -0.457753,-2.36918 z" inkscape:connector-curvature="0" fill="#292929" word-spacing="0.799" fill-opacity="1" stroke-width="0.265" letter-spacing="0.693"/>
   <path id="path1294" d="m 42.181624,279.55714 0.22681,2.40232 0.350864,-0.0331 -0.226809,-2.40231 z" inkscape:connector-curvature="0" fill="#292929" word-spacing="0.799" fill-opacity="1" stroke-width="0.265" letter-spacing="0.693"/>
   <path id="path1296" d="m 40.70496,279.60847 -0.0033,2.41299 0.352425,4.8e-4 0.0033,-2.413 z" inkscape:connector-curvature="0" fill="#292929" word-spacing="0.799" fill-opacity="1" stroke-width="0.265" letter-spacing="0.693"/>
   <path id="path1298" d="m 39.230287,279.5192 -0.23341,2.40168 0.350773,0.0341 0.233409,-2.40168 z" inkscape:connector-curvature="0" fill="#292929" word-spacing="0.799" fill-opacity="1" stroke-width="0.265" letter-spacing="0.693"/>
   <path id="path1300" d="m 37.771142,279.2885 -0.464328,2.3679 0.345838,0.0678 0.464328,-2.36791 z" inkscape:connector-curvature="0" fill="#292929" word-spacing="0.799" fill-opacity="1" stroke-width="0.265" letter-spacing="0.693"/>
   <path id="path1302" d="m 36.341334,278.91736 -0.692236,2.31157 0.337611,0.10111 0.692236,-2.31158 z" inkscape:connector-curvature="0" fill="#292929" word-spacing="0.799" fill-opacity="1" stroke-width="0.265" letter-spacing="0.693"/>
   <path id="path1304" d="m 34.95441,278.4089 -0.913731,2.23331 0.32618,0.13345 0.913732,-2.23331 z" inkscape:connector-curvature="0" fill="#292929" word-spacing="0.799" fill-opacity="1" stroke-width="0.265" letter-spacing="0.693"/>
   <path id="path1306" d="m 33.623395,277.76819 -1.126005,2.13417 0.311701,0.16446 1.126005,-2.13417 z" inkscape:connector-curvature="0" fill="#292929" word-spacing="0.799" fill-opacity="1" stroke-width="0.265" letter-spacing="0.693"/>
   <path id="path1308" d="m 32.360588,277.00169 -1.326853,2.01545 0.294362,0.19379 1.326853,-2.01545 z" inkscape:connector-curvature="0" fill="#292929" word-spacing="0.799" fill-opacity="1" stroke-width="0.265" letter-spacing="0.693"/>
   <path id="path1310" d="m 31.177475,276.11711 -1.514588,1.87846 0.274353,0.22121 1.514589,-1.87846 z" inkscape:connector-curvature="0" fill="#292929" word-spacing="0.799" fill-opacity="1" stroke-width="0.265" letter-spacing="0.693"/>
   <path id="path1312" d="m 30.084779,275.12299 -1.687872,1.72443 0.251857,0.24652 1.687872,-1.72443 z" inkscape:connector-curvature="0" fill="#292929" word-spacing="0.799" fill-opacity="1" stroke-width="0.265" letter-spacing="0.693"/>
   <path id="path1314" d="m 29.092493,274.02862 -1.845535,1.55453 0.227043,0.26955 1.845535,-1.55453 z" inkscape:connector-curvature="0" fill="#292929" word-spacing="0.799" fill-opacity="1" stroke-width="0.265" letter-spacing="0.693"/>
   <path id="path1316" d="m 28.209903,272.84402 -1.986431,1.36992 0.200079,0.29012 1.986431,-1.36991 z" inkscape:connector-curvature="0" fill="#292929" word-spacing="0.799" fill-opacity="1" stroke-width="0.265" letter-spacing="0.693"/>
   <path id="path1318" d="m 27.445558,271.57991 -2.109341,1.17186 0.171153,0.30807 2.109341,-1.17186 z" inkscape:connector-curvature="0" fill="#292929" word-spacing="0.799" fill-opacity="1" stroke-width="0.265" letter-spacing="0.693"/>
   <path id="path1320" d="m 26.807095,270.2478 -2.212962,0.96196 0.140497,0.32321 2.212962,-0.96196 z" inkscape:connector-curvature="0" fill="#292929" word-spacing="0.799" fill-opacity="1" stroke-width="0.265" letter-spacing="0.693"/>
   <path id="path1322" d="m 26.301008,268.86002 -2.295987,0.7423 0.108415,0.33534 2.295987,-0.7423 z" inkscape:connector-curvature="0" fill="#292929" word-spacing="0.799" fill-opacity="1" stroke-width="0.265" letter-spacing="0.693"/>
   <path id="path1324" d="m 25.932291,267.4296 -2.357281,0.51555 0.0753,0.34429 2.357282,-0.51555 z" inkscape:connector-curvature="0" fill="#292929" word-spacing="0.799" fill-opacity="1" stroke-width="0.265" letter-spacing="0.693"/>
   <path id="path1326" d="m 25.704063,265.97013 -2.396112,0.28499 0.04162,0.34996 2.396111,-0.28499 z" inkscape:connector-curvature="0" fill="#292929" word-spacing="0.799" fill-opacity="1" stroke-width="0.265" letter-spacing="0.693"/>
   <path id="path1328" d="m 25.617253,264.49531 -2.412387,0.0544 0.0079,0.35233 2.412388,-0.0543 z" inkscape:connector-curvature="0" fill="#292929" word-spacing="0.799" fill-opacity="1" stroke-width="0.265" letter-spacing="0.693"/>
   <path id="path1330" d="m 25.671072,263.01874 -2.406626,-0.17528 -0.0256,0.3515 2.406625,0.17528 z" inkscape:connector-curvature="0" fill="#292929" word-spacing="0.799" fill-opacity="1" stroke-width="0.265" letter-spacing="0.693"/>
   <path id="path1332" d="m 25.866187,261.55437 -2.378537,-0.40636 -0.05935,0.3474 2.378537,0.40636 z" inkscape:connector-curvature="0" fill="#292929" word-spacing="0.799" fill-opacity="1" stroke-width="0.265" letter-spacing="0.693"/>
   <path id="path1334" d="m 26.202216,260.1159 -2.327848,-0.63536 -0.0928,0.33998 2.327848,0.63537 z" inkscape:connector-curvature="0" fill="#292929" word-spacing="0.799" fill-opacity="1" stroke-width="0.265" letter-spacing="0.693"/>
   <path id="path1336" d="m 26.676525,258.71693 -2.255014,-0.85876 -0.125425,0.32935 2.255014,0.85876 z" inkscape:connector-curvature="0" fill="#292929" word-spacing="0.799" fill-opacity="1" stroke-width="0.265" letter-spacing="0.693"/>
   <path id="path1338" d="m 27.284527,257.37065 -2.161012,-1.07358 -0.156801,0.31562 2.161013,1.07359 z" inkscape:connector-curvature="0" fill="#292929" word-spacing="0.799" fill-opacity="1" stroke-width="0.265" letter-spacing="0.693"/>
   <path id="path1340" d="m 28.020045,256.08959 -2.047093,-1.27749 -0.186581,0.29898 2.047093,1.27749 z" inkscape:connector-curvature="0" fill="#292929" word-spacing="0.799" fill-opacity="1" stroke-width="0.265" letter-spacing="0.693"/>
   <path id="path1342" d="m 28.875682,254.88538 -1.914576,-1.46867 -0.214502,0.27963 1.914576,1.46866 z" inkscape:connector-curvature="0" fill="#292929" word-spacing="0.799" fill-opacity="1" stroke-width="0.265" letter-spacing="0.693"/>
   <path id="path1344" d="m 29.843091,253.76896 -1.764726,-1.64569 -0.240358,0.25774 1.764726,1.64569 z" inkscape:connector-curvature="0" fill="#292929" word-spacing="0.799" fill-opacity="1" stroke-width="0.265" letter-spacing="0.693"/>
   <path id="path1346" d="m 30.913149,252.7505 -1.598715,-1.80739 -0.263975,0.23349 1.598716,1.8074 z" inkscape:connector-curvature="0" fill="#292929" word-spacing="0.799" fill-opacity="1" stroke-width="0.265" letter-spacing="0.693"/>
   <path id="path1348" d="m 32.076028,251.83948 -1.417687,-1.95263 -0.285186,0.20706 1.417688,1.95262 z" inkscape:connector-curvature="0" fill="#292929" word-spacing="0.799" fill-opacity="1" stroke-width="0.265" letter-spacing="0.693"/>
   <path id="path1350" d="m 33.32118,251.04463 -1.222878,-2.08018 -0.303816,0.1786 1.222879,2.08018 z" inkscape:connector-curvature="0" fill="#292929" word-spacing="0.799" fill-opacity="1" stroke-width="0.265" letter-spacing="0.693"/>
   <path id="path1352" d="m 34.637301,250.37382 -1.015788,-2.18878 -0.319677,0.14836 1.015789,2.18878 z" inkscape:connector-curvature="0" fill="#292929" word-spacing="0.799" fill-opacity="1" stroke-width="0.265" letter-spacing="0.693"/>
   <path id="path1354" d="m 36.012278,249.83389 -0.798359,-2.2771 -0.332577,0.1166 0.798359,2.2771 z" inkscape:connector-curvature="0" fill="#292929" word-spacing="0.799" fill-opacity="1" stroke-width="0.265" letter-spacing="0.693"/>
   <path id="path1356" d="m 37.433232,249.43023 -0.573106,-2.34395 -0.34234,0.0837 0.573106,2.34396 z" inkscape:connector-curvature="0" fill="#292929" word-spacing="0.799" fill-opacity="1" stroke-width="0.265" letter-spacing="0.693"/>
   <path id="path1358" d="m 38.8867,249.16648 -0.343163,-2.38848 -0.348843,0.0501 0.343164,2.38848 z" inkscape:connector-curvature="0" fill="#292929" word-spacing="0.799" fill-opacity="1" stroke-width="0.265" letter-spacing="0.693"/>
   <path id="path1360" d="m 40.358945,249.04412 -0.112189,-2.4104 -0.352044,0.0164 0.112189,2.41039 z" inkscape:connector-curvature="0" fill="#292929" word-spacing="0.799" fill-opacity="1" stroke-width="0.265" letter-spacing="0.693"/>
   <path id="path1362" d="m 41.836364,249.06257 0.11726,-2.41015 -0.352009,-0.0171 -0.117259,2.41015 z" inkscape:connector-curvature="0" fill="#292929" word-spacing="0.799" fill-opacity="1" stroke-width="0.265" letter-spacing="0.693"/>
   <path id="path1364" d="m 43.305086,249.22207 0.34826,-2.38774 -0.348735,-0.0509 -0.34826,2.38774 z" inkscape:connector-curvature="0" fill="#292929" word-spacing="0.799" fill-opacity="1" stroke-width="0.265" letter-spacing="0.693"/>
   <path id="path1366" d="m 44.751371,249.52281 0.57814,-2.34272 -0.34216,-0.0844 -0.57814,2.34272 z" inkscape:connector-curvature="0" fill="#292929" word-spacing="0.799" fill-opacity="1" stroke-width="0.265" letter-spacing="0.693"/>
   <path id="path1368" d="m 46.161542,249.96268 0.803253,-2.27538 -0.332325,-0.11732 -0.803253,2.27538 z" inkscape:connector-curvature="0" fill="#292929" word-spacing="0.799" fill-opacity="1" stroke-width="0.265" letter-spacing="0.693"/>
   <path id="path1370" d="m 47.52228,250.53757 1.02048,-2.18659 -0.319358,-0.14905 -1.02048,2.18659 z" inkscape:connector-curvature="0" fill="#292929" word-spacing="0.799" fill-opacity="1" stroke-width="0.265" letter-spacing="0.693"/>
   <path id="path1372" d="m 48.820895,251.24165 1.227317,-2.07757 -0.303434,-0.17925 -1.227316,2.07756 z" inkscape:connector-curvature="0" fill="#292929" word-spacing="0.799" fill-opacity="1" stroke-width="0.265" letter-spacing="0.693"/>
   <path id="path1374" d="m 50.045502,252.06782 1.421837,-1.9496 -0.284744,-0.20767 -1.421837,1.9496 z" inkscape:connector-curvature="0" fill="#292929" word-spacing="0.799" fill-opacity="1" stroke-width="0.265" letter-spacing="0.693"/>
   <path id="path1376" d="m 51.184997,253.00793 1.602546,-1.804 -0.263479,-0.23405 -1.602546,1.804 z" inkscape:connector-curvature="0" fill="#292929" word-spacing="0.799" fill-opacity="1" stroke-width="0.265" letter-spacing="0.693"/>
   <path id="path1378" d="m 52.229024,254.05305 1.768212,-1.64195 -0.239811,-0.25825 -1.768212,1.64195 z" inkscape:connector-curvature="0" fill="#292929" word-spacing="0.799" fill-opacity="1" stroke-width="0.265" letter-spacing="0.693"/>
   <path id="path1380" d="m 53.167934,255.19354 1.917693,-1.46459 -0.213907,-0.28008 -1.917693,1.46458 z" inkscape:connector-curvature="0" fill="#292929" word-spacing="0.799" fill-opacity="1" stroke-width="0.265" letter-spacing="0.693"/>
   <path id="path1382" d="m 53.9928,256.41903 2.049813,-1.27312 -0.185943,-0.29938 -2.049813,1.27312 z" inkscape:connector-curvature="0" fill="#292929" word-spacing="0.799" fill-opacity="1" stroke-width="0.265" letter-spacing="0.693"/>
   <path id="path1384" d="m 54.695508,257.71838 2.163307,-1.06895 -0.156124,-0.31596 -2.163307,1.06896 z" inkscape:connector-curvature="0" fill="#292929" word-spacing="0.799" fill-opacity="1" stroke-width="0.265" letter-spacing="0.693"/>
   <path id="path1386" d="m 55.268942,259.07975 2.256855,-0.85392 -0.124717,-0.32962 -2.256855,0.85392 z" inkscape:connector-curvature="0" fill="#292929" word-spacing="0.799" fill-opacity="1" stroke-width="0.265" letter-spacing="0.693"/>
   <path id="path1388" d="m 55.70731,260.49037 2.329209,-0.63036 -0.09207,-0.34019 -2.329209,0.63036 z" inkscape:connector-curvature="0" fill="#292929" word-spacing="0.799" fill-opacity="1" stroke-width="0.265" letter-spacing="0.693"/>
   <path id="path1390" d="m 56.006498,261.93696 2.379401,-0.40128 -0.05861,-0.34751 -2.379402,0.40127 z" inkscape:connector-curvature="0" fill="#292929" word-spacing="0.799" fill-opacity="1" stroke-width="0.265" letter-spacing="0.693"/>
   <path id="path1392" d="m 56.164449,263.40578 2.40699,-0.17019 -0.02486,-0.35155 -2.406991,0.17019 z" inkscape:connector-curvature="0" fill="#292929" word-spacing="0.799" fill-opacity="1" stroke-width="0.265" letter-spacing="0.693"/>
  </g>
  <g id="g1526" aria-label="|||||||||||||||||||||||||||||||||||||||||||||||||||||||||||||||||" transform="matrix(1.2416733,0.01315301,-0.01315301,1.2416733,-13.724102,-65.516835)" font-family="&apos;Accanthis ADF Std&apos;" fill="#f1ecec" stroke="none" font-style="normal" word-spacing="0.799" line-height="1.25" fill-opacity="1" font-weight="bold" stroke-width="0.265" font-stretch="normal" letter-spacing="0.693" font-variant="normal" font-size="3.175">
   <path id="path1396" d="m 56.180998,264.89278 2.412231,0.0609 0.0089,-0.35232 -2.412231,-0.0609 z" inkscape:connector-curvature="0" fill="#f1ecec" word-spacing="0.799" fill-opacity="1" stroke-width="0.265" letter-spacing="0.693"/>
   <path id="path1398" d="m 56.056175,266.36493 2.395316,0.29159 0.04259,-0.34984 -2.395316,-0.29159 z" inkscape:connector-curvature="0" fill="#f1ecec" word-spacing="0.799" fill-opacity="1" stroke-width="0.265" letter-spacing="0.693"/>
   <path id="path1400" d="m 55.789949,267.818 2.355839,0.5221 0.07625,-0.34408 -2.355839,-0.5221 z" inkscape:connector-curvature="0" fill="#f1ecec" word-spacing="0.799" fill-opacity="1" stroke-width="0.265" letter-spacing="0.693"/>
   <path id="path1402" d="m 55.383868,269.23828 2.29391,0.74869 0.109349,-0.33503 -2.29391,-0.74869 z" inkscape:connector-curvature="0" fill="#f1ecec" word-spacing="0.799" fill-opacity="1" stroke-width="0.265" letter-spacing="0.693"/>
   <path id="path1404" d="m 54.841596,270.61231 2.210278,0.96811 0.141395,-0.32282 -2.210278,-0.96811 z" inkscape:connector-curvature="0" fill="#f1ecec" word-spacing="0.799" fill-opacity="1" stroke-width="0.265" letter-spacing="0.693"/>
   <path id="path1406" d="m 54.168565,271.92731 2.106088,1.1777 0.172005,-0.3076 -2.106087,-1.1777 z" inkscape:connector-curvature="0" fill="#f1ecec" word-spacing="0.799" fill-opacity="1" stroke-width="0.265" letter-spacing="0.693"/>
   <path id="path1408" d="m 53.371605,273.17111 1.982646,1.37539 0.200879,-0.28957 -1.982646,-1.37539 z" inkscape:connector-curvature="0" fill="#f1ecec" word-spacing="0.799" fill-opacity="1" stroke-width="0.265" letter-spacing="0.693"/>
   <path id="path1410" d="m 52.45862,274.33244 1.841254,1.5596 0.227784,-0.26892 -1.841254,-1.5596 z" inkscape:connector-curvature="0" fill="#f1ecec" word-spacing="0.799" fill-opacity="1" stroke-width="0.265" letter-spacing="0.693"/>
   <path id="path1412" d="m 51.438369,275.40079 1.683128,1.72906 0.252534,-0.24583 -1.683128,-1.72906 z" inkscape:connector-curvature="0" fill="#f1ecec" word-spacing="0.799" fill-opacity="1" stroke-width="0.265" letter-spacing="0.693"/>
   <path id="path1414" d="m 50.320325,276.36632 1.509415,1.88262 0.274961,-0.22046 -1.509415,-1.88261 z" inkscape:connector-curvature="0" fill="#f1ecec" word-spacing="0.799" fill-opacity="1" stroke-width="0.265" letter-spacing="0.693"/>
   <path id="path1416" d="m 49.114674,277.21993 1.321284,2.0191 0.294896,-0.19297 -1.321285,-2.01911 z" inkscape:connector-curvature="0" fill="#f1ecec" word-spacing="0.799" fill-opacity="1" stroke-width="0.265" letter-spacing="0.693"/>
   <path id="path1418" d="m 47.832342,277.95329 1.120084,2.13728 0.312156,-0.16359 -1.120084,-2.13728 z" inkscape:connector-curvature="0" fill="#f1ecec" word-spacing="0.799" fill-opacity="1" stroke-width="0.265" letter-spacing="0.693"/>
   <path id="path1420" d="m 46.485037,278.55899 0.907514,2.23584 0.326551,-0.13254 -0.907514,-2.23584 z" inkscape:connector-curvature="0" fill="#f1ecec" word-spacing="0.799" fill-opacity="1" stroke-width="0.265" letter-spacing="0.693"/>
   <path id="path1422" d="m 45.085271,279.03091 0.685793,2.31349 0.337892,-0.10016 -0.685793,-2.31349 z" inkscape:connector-curvature="0" fill="#f1ecec" word-spacing="0.799" fill-opacity="1" stroke-width="0.265" letter-spacing="0.693"/>
   <path id="path1424" d="m 43.646249,279.3645 0.457752,2.36919 0.346026,-0.0669 -0.457753,-2.36918 z" inkscape:connector-curvature="0" fill="#f1ecec" word-spacing="0.799" fill-opacity="1" stroke-width="0.265" letter-spacing="0.693"/>
   <path id="path1426" d="m 42.181624,279.55714 0.22681,2.40232 0.350864,-0.0331 -0.226809,-2.40231 z" inkscape:connector-curvature="0" fill="#f1ecec" word-spacing="0.799" fill-opacity="1" stroke-width="0.265" letter-spacing="0.693"/>
   <path id="path1428" d="m 40.70496,279.60847 -0.0033,2.41299 0.352425,4.8e-4 0.0033,-2.413 z" inkscape:connector-curvature="0" fill="#f1ecec" word-spacing="0.799" fill-opacity="1" stroke-width="0.265" letter-spacing="0.693"/>
   <path id="path1430" d="m 39.230287,279.5192 -0.23341,2.40168 0.350773,0.0341 0.233409,-2.40168 z" inkscape:connector-curvature="0" fill="#f1ecec" word-spacing="0.799" fill-opacity="1" stroke-width="0.265" letter-spacing="0.693"/>
   <path id="path1432" d="m 37.771142,279.2885 -0.464328,2.3679 0.345838,0.0678 0.464328,-2.36791 z" inkscape:connector-curvature="0" fill="#f1ecec" word-spacing="0.799" fill-opacity="1" stroke-width="0.265" letter-spacing="0.693"/>
   <path id="path1434" d="m 36.341334,278.91736 -0.692236,2.31157 0.337611,0.10111 0.692236,-2.31158 z" inkscape:connector-curvature="0" fill="#f1ecec" word-spacing="0.799" fill-opacity="1" stroke-width="0.265" letter-spacing="0.693"/>
   <path id="path1436" d="m 34.95441,278.4089 -0.913731,2.23331 0.32618,0.13345 0.913732,-2.23331 z" inkscape:connector-curvature="0" fill="#f1ecec" word-spacing="0.799" fill-opacity="1" stroke-width="0.265" letter-spacing="0.693"/>
   <path id="path1438" d="m 33.623395,277.76819 -1.126005,2.13417 0.311701,0.16446 1.126005,-2.13417 z" inkscape:connector-curvature="0" fill="#f1ecec" word-spacing="0.799" fill-opacity="1" stroke-width="0.265" letter-spacing="0.693"/>
   <path id="path1440" d="m 32.360588,277.00169 -1.326853,2.01545 0.294362,0.19379 1.326853,-2.01545 z" inkscape:connector-curvature="0" fill="#f1ecec" word-spacing="0.799" fill-opacity="1" stroke-width="0.265" letter-spacing="0.693"/>
   <path id="path1442" d="m 31.177475,276.11711 -1.514588,1.87846 0.274353,0.22121 1.514589,-1.87846 z" inkscape:connector-curvature="0" fill="#f1ecec" word-spacing="0.799" fill-opacity="1" stroke-width="0.265" letter-spacing="0.693"/>
   <path id="path1444" d="m 30.084779,275.12299 -1.687872,1.72443 0.251857,0.24652 1.687872,-1.72443 z" inkscape:connector-curvature="0" fill="#f1ecec" word-spacing="0.799" fill-opacity="1" stroke-width="0.265" letter-spacing="0.693"/>
   <path id="path1446" d="m 29.092493,274.02862 -1.845535,1.55453 0.227043,0.26955 1.845535,-1.55453 z" inkscape:connector-curvature="0" fill="#f1ecec" word-spacing="0.799" fill-opacity="1" stroke-width="0.265" letter-spacing="0.693"/>
   <path id="path1448" d="m 28.209903,272.84402 -1.986431,1.36992 0.200079,0.29012 1.986431,-1.36991 z" inkscape:connector-curvature="0" fill="#f1ecec" word-spacing="0.799" fill-opacity="1" stroke-width="0.265" letter-spacing="0.693"/>
   <path id="path1450" d="m 27.445558,271.57991 -2.109341,1.17186 0.171153,0.30807 2.109341,-1.17186 z" inkscape:connector-curvature="0" fill="#f1ecec" word-spacing="0.799" fill-opacity="1" stroke-width="0.265" letter-spacing="0.693"/>
   <path id="path1452" d="m 26.807095,270.2478 -2.212962,0.96196 0.140497,0.32321 2.212962,-0.96196 z" inkscape:connector-curvature="0" fill="#f1ecec" word-spacing="0.799" fill-opacity="1" stroke-width="0.265" letter-spacing="0.693"/>
   <path id="path1454" d="m 26.301008,268.86002 -2.295987,0.7423 0.108415,0.33534 2.295987,-0.7423 z" inkscape:connector-curvature="0" fill="#f1ecec" word-spacing="0.799" fill-opacity="1" stroke-width="0.265" letter-spacing="0.693"/>
   <path id="path1456" d="m 25.932291,267.4296 -2.357281,0.51555 0.0753,0.34429 2.357282,-0.51555 z" inkscape:connector-curvature="0" fill="#f1ecec" word-spacing="0.799" fill-opacity="1" stroke-width="0.265" letter-spacing="0.693"/>
   <path id="path1458" d="m 25.704063,265.97013 -2.396112,0.28499 0.04162,0.34996 2.396111,-0.28499 z" inkscape:connector-curvature="0" fill="#f1ecec" word-spacing="0.799" fill-opacity="1" stroke-width="0.265" letter-spacing="0.693"/>
   <path id="path1460" d="m 25.617253,264.49531 -2.412387,0.0544 0.0079,0.35233 2.412388,-0.0543 z" inkscape:connector-curvature="0" fill="#f1ecec" word-spacing="0.799" fill-opacity="1" stroke-width="0.265" letter-spacing="0.693"/>
   <path id="path1462" d="m 25.671072,263.01874 -2.406626,-0.17528 -0.0256,0.3515 2.406625,0.17528 z" inkscape:connector-curvature="0" fill="#f1ecec" word-spacing="0.799" fill-opacity="1" stroke-width="0.265" letter-spacing="0.693"/>
   <path id="path1464" d="m 25.866187,261.55437 -2.378537,-0.40636 -0.05935,0.3474 2.378537,0.40636 z" inkscape:connector-curvature="0" fill="#f1ecec" word-spacing="0.799" fill-opacity="1" stroke-width="0.265" letter-spacing="0.693"/>
   <path id="path1466" d="m 26.202216,260.1159 -2.327848,-0.63536 -0.0928,0.33998 2.327848,0.63537 z" inkscape:connector-curvature="0" fill="#f1ecec" word-spacing="0.799" fill-opacity="1" stroke-width="0.265" letter-spacing="0.693"/>
   <path id="path1468" d="m 26.676525,258.71693 -2.255014,-0.85876 -0.125425,0.32935 2.255014,0.85876 z" inkscape:connector-curvature="0" fill="#f1ecec" word-spacing="0.799" fill-opacity="1" stroke-width="0.265" letter-spacing="0.693"/>
   <path id="path1470" d="m 27.284527,257.37065 -2.161012,-1.07358 -0.156801,0.31562 2.161013,1.07359 z" inkscape:connector-curvature="0" fill="#f1ecec" word-spacing="0.799" fill-opacity="1" stroke-width="0.265" letter-spacing="0.693"/>
   <path id="path1472" d="m 28.020045,256.08959 -2.047093,-1.27749 -0.186581,0.29898 2.047093,1.27749 z" inkscape:connector-curvature="0" fill="#f1ecec" word-spacing="0.799" fill-opacity="1" stroke-width="0.265" letter-spacing="0.693"/>
   <path id="path1474" d="m 28.875682,254.88538 -1.914576,-1.46867 -0.214502,0.27963 1.914576,1.46866 z" inkscape:connector-curvature="0" fill="#f1ecec" word-spacing="0.799" fill-opacity="1" stroke-width="0.265" letter-spacing="0.693"/>
   <path id="path1476" d="m 29.843091,253.76896 -1.764726,-1.64569 -0.240358,0.25774 1.764726,1.64569 z" inkscape:connector-curvature="0" fill="#f1ecec" word-spacing="0.799" fill-opacity="1" stroke-width="0.265" letter-spacing="0.693"/>
   <path id="path1478" d="m 30.913149,252.7505 -1.598715,-1.80739 -0.263975,0.23349 1.598716,1.8074 z" inkscape:connector-curvature="0" fill="#f1ecec" word-spacing="0.799" fill-opacity="1" stroke-width="0.265" letter-spacing="0.693"/>
   <path id="path1480" d="m 32.076028,251.83948 -1.417687,-1.95263 -0.285186,0.20706 1.417688,1.95262 z" inkscape:connector-curvature="0" fill="#f1ecec" word-spacing="0.799" fill-opacity="1" stroke-width="0.265" letter-spacing="0.693"/>
   <path id="path1482" d="m 33.32118,251.04463 -1.222878,-2.08018 -0.303816,0.1786 1.222879,2.08018 z" inkscape:connector-curvature="0" fill="#f1ecec" word-spacing="0.799" fill-opacity="1" stroke-width="0.265" letter-spacing="0.693"/>
   <path id="path1484" d="m 34.637301,250.37382 -1.015788,-2.18878 -0.319677,0.14836 1.015789,2.18878 z" inkscape:connector-curvature="0" fill="#f1ecec" word-spacing="0.799" fill-opacity="1" stroke-width="0.265" letter-spacing="0.693"/>
   <path id="path1486" d="m 36.012278,249.83389 -0.798359,-2.2771 -0.332577,0.1166 0.798359,2.2771 z" inkscape:connector-curvature="0" fill="#f1ecec" word-spacing="0.799" fill-opacity="1" stroke-width="0.265" letter-spacing="0.693"/>
   <path id="path1488" d="m 37.433232,249.43023 -0.573106,-2.34395 -0.34234,0.0837 0.573106,2.34396 z" inkscape:connector-curvature="0" fill="#f1ecec" word-spacing="0.799" fill-opacity="1" stroke-width="0.265" letter-spacing="0.693"/>
   <path id="path1490" d="m 38.8867,249.16648 -0.343163,-2.38848 -0.348843,0.0501 0.343164,2.38848 z" inkscape:connector-curvature="0" fill="#f1ecec" word-spacing="0.799" fill-opacity="1" stroke-width="0.265" letter-spacing="0.693"/>
   <path id="path1492" d="m 40.358945,249.04412 -0.112189,-2.4104 -0.352044,0.0164 0.112189,2.41039 z" inkscape:connector-curvature="0" fill="#f1ecec" word-spacing="0.799" fill-opacity="1" stroke-width="0.265" letter-spacing="0.693"/>
   <path id="path1494" d="m 41.836364,249.06257 0.11726,-2.41015 -0.352009,-0.0171 -0.117259,2.41015 z" inkscape:connector-curvature="0" fill="#f1ecec" word-spacing="0.799" fill-opacity="1" stroke-width="0.265" letter-spacing="0.693"/>
   <path id="path1496" d="m 43.305086,249.22207 0.34826,-2.38774 -0.348735,-0.0509 -0.34826,2.38774 z" inkscape:connector-curvature="0" fill="#f1ecec" word-spacing="0.799" fill-opacity="1" stroke-width="0.265" letter-spacing="0.693"/>
   <path id="path1498" d="m 44.751371,249.52281 0.57814,-2.34272 -0.34216,-0.0844 -0.57814,2.34272 z" inkscape:connector-curvature="0" fill="#f1ecec" word-spacing="0.799" fill-opacity="1" stroke-width="0.265" letter-spacing="0.693"/>
   <path id="path1500" d="m 46.161542,249.96268 0.803253,-2.27538 -0.332325,-0.11732 -0.803253,2.27538 z" inkscape:connector-curvature="0" fill="#f1ecec" word-spacing="0.799" fill-opacity="1" stroke-width="0.265" letter-spacing="0.693"/>
   <path id="path1502" d="m 47.52228,250.53757 1.02048,-2.18659 -0.319358,-0.14905 -1.02048,2.18659 z" inkscape:connector-curvature="0" fill="#f1ecec" word-spacing="0.799" fill-opacity="1" stroke-width="0.265" letter-spacing="0.693"/>
   <path id="path1504" d="m 48.820895,251.24165 1.227317,-2.07757 -0.303434,-0.17925 -1.227316,2.07756 z" inkscape:connector-curvature="0" fill="#f1ecec" word-spacing="0.799" fill-opacity="1" stroke-width="0.265" letter-spacing="0.693"/>
   <path id="path1506" d="m 50.045502,252.06782 1.421837,-1.9496 -0.284744,-0.20767 -1.421837,1.9496 z" inkscape:connector-curvature="0" fill="#f1ecec" word-spacing="0.799" fill-opacity="1" stroke-width="0.265" letter-spacing="0.693"/>
   <path id="path1508" d="m 51.184997,253.00793 1.602546,-1.804 -0.263479,-0.23405 -1.602546,1.804 z" inkscape:connector-curvature="0" fill="#f1ecec" word-spacing="0.799" fill-opacity="1" stroke-width="0.265" letter-spacing="0.693"/>
   <path id="path1510" d="m 52.229024,254.05305 1.768212,-1.64195 -0.239811,-0.25825 -1.768212,1.64195 z" inkscape:connector-curvature="0" fill="#f1ecec" word-spacing="0.799" fill-opacity="1" stroke-width="0.265" letter-spacing="0.693"/>
   <path id="path1512" d="m 53.167934,255.19354 1.917693,-1.46459 -0.213907,-0.28008 -1.917693,1.46458 z" inkscape:connector-curvature="0" fill="#f1ecec" word-spacing="0.799" fill-opacity="1" stroke-width="0.265" letter-spacing="0.693"/>
   <path id="path1514" d="m 53.9928,256.41903 2.049813,-1.27312 -0.185943,-0.29938 -2.049813,1.27312 z" inkscape:connector-curvature="0" fill="#f1ecec" word-spacing="0.799" fill-opacity="1" stroke-width="0.265" letter-spacing="0.693"/>
   <path id="path1516" d="m 54.695508,257.71838 2.163307,-1.06895 -0.156124,-0.31596 -2.163307,1.06896 z" inkscape:connector-curvature="0" fill="#f1ecec" word-spacing="0.799" fill-opacity="1" stroke-width="0.265" letter-spacing="0.693"/>
   <path id="path1518" d="m 55.268942,259.07975 2.256855,-0.85392 -0.124717,-0.32962 -2.256855,0.85392 z" inkscape:connector-curvature="0" fill="#f1ecec" word-spacing="0.799" fill-opacity="1" stroke-width="0.265" letter-spacing="0.693"/>
   <path id="path1520" d="m 55.70731,260.49037 2.329209,-0.63036 -0.09207,-0.34019 -2.329209,0.63036 z" inkscape:connector-curvature="0" fill="#f1ecec" word-spacing="0.799" fill-opacity="1" stroke-width="0.265" letter-spacing="0.693"/>
   <path id="path1522" d="m 56.006498,261.93696 2.379401,-0.40128 -0.05861,-0.34751 -2.379402,0.40127 z" inkscape:connector-curvature="0" fill="#f1ecec" word-spacing="0.799" fill-opacity="1" stroke-width="0.265" letter-spacing="0.693"/>
   <path id="path1524" d="m 56.164449,263.40578 2.40699,-0.17019 -0.02486,-0.35155 -2.406991,0.17019 z" inkscape:connector-curvature="0" fill="#f1ecec" word-spacing="0.799" fill-opacity="1" stroke-width="0.265" letter-spacing="0.693"/>
  </g>
  <g aria-label="|||||||||||||||||||||||||||||||||||||||||||||||||||||||||||||||||" id="text1124" transform="matrix(1.241743,0,0,1.241743,-17.203657,-64.997245)" font-family="&apos;Accanthis ADF Std&apos;" fill="#848484" stroke="none" font-style="normal" word-spacing="0.799" line-height="1.25" fill-opacity="1" font-weight="bold" stroke-width="0.265" font-stretch="normal" letter-spacing="0.693" font-variant="normal" font-size="3.175">
   <path d="m 56.180998,264.89278 2.412231,0.0609 0.0089,-0.35232 -2.412231,-0.0609 z" id="path1133" inkscape:connector-curvature="0" fill="#848484" word-spacing="0.799" fill-opacity="1" stroke-width="0.265" letter-spacing="0.693"/>
   <path d="m 56.056175,266.36493 2.395316,0.29159 0.04259,-0.34984 -2.395316,-0.29159 z" id="path1135" inkscape:connector-curvature="0" fill="#848484" word-spacing="0.799" fill-opacity="1" stroke-width="0.265" letter-spacing="0.693"/>
   <path d="m 55.789949,267.818 2.355839,0.5221 0.07625,-0.34408 -2.355839,-0.5221 z" id="path1137" inkscape:connector-curvature="0" fill="#848484" word-spacing="0.799" fill-opacity="1" stroke-width="0.265" letter-spacing="0.693"/>
   <path d="m 55.383868,269.23828 2.29391,0.74869 0.109349,-0.33503 -2.29391,-0.74869 z" id="path1139" inkscape:connector-curvature="0" fill="#848484" word-spacing="0.799" fill-opacity="1" stroke-width="0.265" letter-spacing="0.693"/>
   <path d="m 54.841596,270.61231 2.210278,0.96811 0.141395,-0.32282 -2.210278,-0.96811 z" id="path1141" inkscape:connector-curvature="0" fill="#848484" word-spacing="0.799" fill-opacity="1" stroke-width="0.265" letter-spacing="0.693"/>
   <path d="m 54.168565,271.92731 2.106088,1.1777 0.172005,-0.3076 -2.106087,-1.1777 z" id="path1143" inkscape:connector-curvature="0" fill="#848484" word-spacing="0.799" fill-opacity="1" stroke-width="0.265" letter-spacing="0.693"/>
   <path d="m 53.371605,273.17111 1.982646,1.37539 0.200879,-0.28957 -1.982646,-1.37539 z" id="path1145" inkscape:connector-curvature="0" fill="#848484" word-spacing="0.799" fill-opacity="1" stroke-width="0.265" letter-spacing="0.693"/>
   <path d="m 52.45862,274.33244 1.841254,1.5596 0.227784,-0.26892 -1.841254,-1.5596 z" id="path1147" inkscape:connector-curvature="0" fill="#848484" word-spacing="0.799" fill-opacity="1" stroke-width="0.265" letter-spacing="0.693"/>
   <path d="m 51.438369,275.40079 1.683128,1.72906 0.252534,-0.24583 -1.683128,-1.72906 z" id="path1149" inkscape:connector-curvature="0" fill="#848484" word-spacing="0.799" fill-opacity="1" stroke-width="0.265" letter-spacing="0.693"/>
   <path d="m 50.320325,276.36632 1.509415,1.88262 0.274961,-0.22046 -1.509415,-1.88261 z" id="path1151" inkscape:connector-curvature="0" fill="#848484" word-spacing="0.799" fill-opacity="1" stroke-width="0.265" letter-spacing="0.693"/>
   <path d="m 49.114674,277.21993 1.321284,2.0191 0.294896,-0.19297 -1.321285,-2.01911 z" id="path1153" inkscape:connector-curvature="0" fill="#848484" word-spacing="0.799" fill-opacity="1" stroke-width="0.265" letter-spacing="0.693"/>
   <path d="m 47.832342,277.95329 1.120084,2.13728 0.312156,-0.16359 -1.120084,-2.13728 z" id="path1155" inkscape:connector-curvature="0" fill="#848484" word-spacing="0.799" fill-opacity="1" stroke-width="0.265" letter-spacing="0.693"/>
   <path d="m 46.485037,278.55899 0.907514,2.23584 0.326551,-0.13254 -0.907514,-2.23584 z" id="path1157" inkscape:connector-curvature="0" fill="#848484" word-spacing="0.799" fill-opacity="1" stroke-width="0.265" letter-spacing="0.693"/>
   <path d="m 45.085271,279.03091 0.685793,2.31349 0.337892,-0.10016 -0.685793,-2.31349 z" id="path1159" inkscape:connector-curvature="0" fill="#848484" word-spacing="0.799" fill-opacity="1" stroke-width="0.265" letter-spacing="0.693"/>
   <path d="m 43.646249,279.3645 0.457752,2.36919 0.346026,-0.0669 -0.457753,-2.36918 z" id="path1161" inkscape:connector-curvature="0" fill="#848484" word-spacing="0.799" fill-opacity="1" stroke-width="0.265" letter-spacing="0.693"/>
   <path d="m 42.181624,279.55714 0.22681,2.40232 0.350864,-0.0331 -0.226809,-2.40231 z" id="path1163" inkscape:connector-curvature="0" fill="#848484" word-spacing="0.799" fill-opacity="1" stroke-width="0.265" letter-spacing="0.693"/>
   <path d="m 40.70496,279.60847 -0.0033,2.41299 0.352425,4.8e-4 0.0033,-2.413 z" id="path1165" inkscape:connector-curvature="0" fill="#848484" word-spacing="0.799" fill-opacity="1" stroke-width="0.265" letter-spacing="0.693"/>
   <path d="m 39.230287,279.5192 -0.23341,2.40168 0.350773,0.0341 0.233409,-2.40168 z" id="path1167" inkscape:connector-curvature="0" fill="#848484" word-spacing="0.799" fill-opacity="1" stroke-width="0.265" letter-spacing="0.693"/>
   <path d="m 37.771142,279.2885 -0.464328,2.3679 0.345838,0.0678 0.464328,-2.36791 z" id="path1169" inkscape:connector-curvature="0" fill="#848484" word-spacing="0.799" fill-opacity="1" stroke-width="0.265" letter-spacing="0.693"/>
   <path d="m 36.341334,278.91736 -0.692236,2.31157 0.337611,0.10111 0.692236,-2.31158 z" id="path1171" inkscape:connector-curvature="0" fill="#848484" word-spacing="0.799" fill-opacity="1" stroke-width="0.265" letter-spacing="0.693"/>
   <path d="m 34.95441,278.4089 -0.913731,2.23331 0.32618,0.13345 0.913732,-2.23331 z" id="path1173" inkscape:connector-curvature="0" fill="#848484" word-spacing="0.799" fill-opacity="1" stroke-width="0.265" letter-spacing="0.693"/>
   <path d="m 33.623395,277.76819 -1.126005,2.13417 0.311701,0.16446 1.126005,-2.13417 z" id="path1175" inkscape:connector-curvature="0" fill="#848484" word-spacing="0.799" fill-opacity="1" stroke-width="0.265" letter-spacing="0.693"/>
   <path d="m 32.360588,277.00169 -1.326853,2.01545 0.294362,0.19379 1.326853,-2.01545 z" id="path1177" inkscape:connector-curvature="0" fill="#848484" word-spacing="0.799" fill-opacity="1" stroke-width="0.265" letter-spacing="0.693"/>
   <path d="m 31.177475,276.11711 -1.514588,1.87846 0.274353,0.22121 1.514589,-1.87846 z" id="path1179" inkscape:connector-curvature="0" fill="#848484" word-spacing="0.799" fill-opacity="1" stroke-width="0.265" letter-spacing="0.693"/>
   <path d="m 30.084779,275.12299 -1.687872,1.72443 0.251857,0.24652 1.687872,-1.72443 z" id="path1181" inkscape:connector-curvature="0" fill="#848484" word-spacing="0.799" fill-opacity="1" stroke-width="0.265" letter-spacing="0.693"/>
   <path d="m 29.092493,274.02862 -1.845535,1.55453 0.227043,0.26955 1.845535,-1.55453 z" id="path1183" inkscape:connector-curvature="0" fill="#848484" word-spacing="0.799" fill-opacity="1" stroke-width="0.265" letter-spacing="0.693"/>
   <path d="m 28.209903,272.84402 -1.986431,1.36992 0.200079,0.29012 1.986431,-1.36991 z" id="path1185" inkscape:connector-curvature="0" fill="#848484" word-spacing="0.799" fill-opacity="1" stroke-width="0.265" letter-spacing="0.693"/>
   <path d="m 27.445558,271.57991 -2.109341,1.17186 0.171153,0.30807 2.109341,-1.17186 z" id="path1187" inkscape:connector-curvature="0" fill="#848484" word-spacing="0.799" fill-opacity="1" stroke-width="0.265" letter-spacing="0.693"/>
   <path d="m 26.807095,270.2478 -2.212962,0.96196 0.140497,0.32321 2.212962,-0.96196 z" id="path1189" inkscape:connector-curvature="0" fill="#848484" word-spacing="0.799" fill-opacity="1" stroke-width="0.265" letter-spacing="0.693"/>
   <path d="m 26.301008,268.86002 -2.295987,0.7423 0.108415,0.33534 2.295987,-0.7423 z" id="path1191" inkscape:connector-curvature="0" fill="#848484" word-spacing="0.799" fill-opacity="1" stroke-width="0.265" letter-spacing="0.693"/>
   <path d="m 25.932291,267.4296 -2.357281,0.51555 0.0753,0.34429 2.357282,-0.51555 z" id="path1193" inkscape:connector-curvature="0" fill="#848484" word-spacing="0.799" fill-opacity="1" stroke-width="0.265" letter-spacing="0.693"/>
   <path d="m 25.704063,265.97013 -2.396112,0.28499 0.04162,0.34996 2.396111,-0.28499 z" id="path1195" inkscape:connector-curvature="0" fill="#848484" word-spacing="0.799" fill-opacity="1" stroke-width="0.265" letter-spacing="0.693"/>
   <path d="m 25.617253,264.49531 -2.412387,0.0544 0.0079,0.35233 2.412388,-0.0543 z" id="path1197" inkscape:connector-curvature="0" fill="#848484" word-spacing="0.799" fill-opacity="1" stroke-width="0.265" letter-spacing="0.693"/>
   <path d="m 25.671072,263.01874 -2.406626,-0.17528 -0.0256,0.3515 2.406625,0.17528 z" id="path1199" inkscape:connector-curvature="0" fill="#848484" word-spacing="0.799" fill-opacity="1" stroke-width="0.265" letter-spacing="0.693"/>
   <path d="m 25.866187,261.55437 -2.378537,-0.40636 -0.05935,0.3474 2.378537,0.40636 z" id="path1201" inkscape:connector-curvature="0" fill="#848484" word-spacing="0.799" fill-opacity="1" stroke-width="0.265" letter-spacing="0.693"/>
   <path d="m 26.202216,260.1159 -2.327848,-0.63536 -0.0928,0.33998 2.327848,0.63537 z" id="path1203" inkscape:connector-curvature="0" fill="#848484" word-spacing="0.799" fill-opacity="1" stroke-width="0.265" letter-spacing="0.693"/>
   <path d="m 26.676525,258.71693 -2.255014,-0.85876 -0.125425,0.32935 2.255014,0.85876 z" id="path1205" inkscape:connector-curvature="0" fill="#848484" word-spacing="0.799" fill-opacity="1" stroke-width="0.265" letter-spacing="0.693"/>
   <path d="m 27.284527,257.37065 -2.161012,-1.07358 -0.156801,0.31562 2.161013,1.07359 z" id="path1207" inkscape:connector-curvature="0" fill="#848484" word-spacing="0.799" fill-opacity="1" stroke-width="0.265" letter-spacing="0.693"/>
   <path d="m 28.020045,256.08959 -2.047093,-1.27749 -0.186581,0.29898 2.047093,1.27749 z" id="path1209" inkscape:connector-curvature="0" fill="#848484" word-spacing="0.799" fill-opacity="1" stroke-width="0.265" letter-spacing="0.693"/>
   <path d="m 28.875682,254.88538 -1.914576,-1.46867 -0.214502,0.27963 1.914576,1.46866 z" id="path1211" inkscape:connector-curvature="0" fill="#848484" word-spacing="0.799" fill-opacity="1" stroke-width="0.265" letter-spacing="0.693"/>
   <path d="m 29.843091,253.76896 -1.764726,-1.64569 -0.240358,0.25774 1.764726,1.64569 z" id="path1213" inkscape:connector-curvature="0" fill="#848484" word-spacing="0.799" fill-opacity="1" stroke-width="0.265" letter-spacing="0.693"/>
   <path d="m 30.913149,252.7505 -1.598715,-1.80739 -0.263975,0.23349 1.598716,1.8074 z" id="path1215" inkscape:connector-curvature="0" fill="#848484" word-spacing="0.799" fill-opacity="1" stroke-width="0.265" letter-spacing="0.693"/>
   <path d="m 32.076028,251.83948 -1.417687,-1.95263 -0.285186,0.20706 1.417688,1.95262 z" id="path1217" inkscape:connector-curvature="0" fill="#848484" word-spacing="0.799" fill-opacity="1" stroke-width="0.265" letter-spacing="0.693"/>
   <path d="m 33.32118,251.04463 -1.222878,-2.08018 -0.303816,0.1786 1.222879,2.08018 z" id="path1219" inkscape:connector-curvature="0" fill="#848484" word-spacing="0.799" fill-opacity="1" stroke-width="0.265" letter-spacing="0.693"/>
   <path d="m 34.637301,250.37382 -1.015788,-2.18878 -0.319677,0.14836 1.015789,2.18878 z" id="path1221" inkscape:connector-curvature="0" fill="#848484" word-spacing="0.799" fill-opacity="1" stroke-width="0.265" letter-spacing="0.693"/>
   <path d="m 36.012278,249.83389 -0.798359,-2.2771 -0.332577,0.1166 0.798359,2.2771 z" id="path1223" inkscape:connector-curvature="0" fill="#848484" word-spacing="0.799" fill-opacity="1" stroke-width="0.265" letter-spacing="0.693"/>
   <path d="m 37.433232,249.43023 -0.573106,-2.34395 -0.34234,0.0837 0.573106,2.34396 z" id="path1225" inkscape:connector-curvature="0" fill="#848484" word-spacing="0.799" fill-opacity="1" stroke-width="0.265" letter-spacing="0.693"/>
   <path d="m 38.8867,249.16648 -0.343163,-2.38848 -0.348843,0.0501 0.343164,2.38848 z" id="path1227" inkscape:connector-curvature="0" fill="#848484" word-spacing="0.799" fill-opacity="1" stroke-width="0.265" letter-spacing="0.693"/>
   <path d="m 40.358945,249.04412 -0.112189,-2.4104 -0.352044,0.0164 0.112189,2.41039 z" id="path1229" inkscape:connector-curvature="0" fill="#848484" word-spacing="0.799" fill-opacity="1" stroke-width="0.265" letter-spacing="0.693"/>
   <path d="m 41.836364,249.06257 0.11726,-2.41015 -0.352009,-0.0171 -0.117259,2.41015 z" id="path1231" inkscape:connector-curvature="0" fill="#848484" word-spacing="0.799" fill-opacity="1" stroke-width="0.265" letter-spacing="0.693"/>
   <path d="m 43.305086,249.22207 0.34826,-2.38774 -0.348735,-0.0509 -0.34826,2.38774 z" id="path1233" inkscape:connector-curvature="0" fill="#848484" word-spacing="0.799" fill-opacity="1" stroke-width="0.265" letter-spacing="0.693"/>
   <path d="m 44.751371,249.52281 0.57814,-2.34272 -0.34216,-0.0844 -0.57814,2.34272 z" id="path1235" inkscape:connector-curvature="0" fill="#848484" word-spacing="0.799" fill-opacity="1" stroke-width="0.265" letter-spacing="0.693"/>
   <path d="m 46.161542,249.96268 0.803253,-2.27538 -0.332325,-0.11732 -0.803253,2.27538 z" id="path1237" inkscape:connector-curvature="0" fill="#848484" word-spacing="0.799" fill-opacity="1" stroke-width="0.265" letter-spacing="0.693"/>
   <path d="m 47.52228,250.53757 1.02048,-2.18659 -0.319358,-0.14905 -1.02048,2.18659 z" id="path1239" inkscape:connector-curvature="0" fill="#848484" word-spacing="0.799" fill-opacity="1" stroke-width="0.265" letter-spacing="0.693"/>
   <path d="m 48.820895,251.24165 1.227317,-2.07757 -0.303434,-0.17925 -1.227316,2.07756 z" id="path1241" inkscape:connector-curvature="0" fill="#848484" word-spacing="0.799" fill-opacity="1" stroke-width="0.265" letter-spacing="0.693"/>
   <path d="m 50.045502,252.06782 1.421837,-1.9496 -0.284744,-0.20767 -1.421837,1.9496 z" id="path1243" inkscape:connector-curvature="0" fill="#848484" word-spacing="0.799" fill-opacity="1" stroke-width="0.265" letter-spacing="0.693"/>
   <path d="m 51.184997,253.00793 1.602546,-1.804 -0.263479,-0.23405 -1.602546,1.804 z" id="path1245" inkscape:connector-curvature="0" fill="#848484" word-spacing="0.799" fill-opacity="1" stroke-width="0.265" letter-spacing="0.693"/>
   <path d="m 52.229024,254.05305 1.768212,-1.64195 -0.239811,-0.25825 -1.768212,1.64195 z" id="path1247" inkscape:connector-curvature="0" fill="#848484" word-spacing="0.799" fill-opacity="1" stroke-width="0.265" letter-spacing="0.693"/>
   <path d="m 53.167934,255.19354 1.917693,-1.46459 -0.213907,-0.28008 -1.917693,1.46458 z" id="path1249" inkscape:connector-curvature="0" fill="#848484" word-spacing="0.799" fill-opacity="1" stroke-width="0.265" letter-spacing="0.693"/>
   <path d="m 53.9928,256.41903 2.049813,-1.27312 -0.185943,-0.29938 -2.049813,1.27312 z" id="path1251" inkscape:connector-curvature="0" fill="#848484" word-spacing="0.799" fill-opacity="1" stroke-width="0.265" letter-spacing="0.693"/>
   <path d="m 54.695508,257.71838 2.163307,-1.06895 -0.156124,-0.31596 -2.163307,1.06896 z" id="path1253" inkscape:connector-curvature="0" fill="#848484" word-spacing="0.799" fill-opacity="1" stroke-width="0.265" letter-spacing="0.693"/>
   <path d="m 55.268942,259.07975 2.256855,-0.85392 -0.124717,-0.32962 -2.256855,0.85392 z" id="path1255" inkscape:connector-curvature="0" fill="#848484" word-spacing="0.799" fill-opacity="1" stroke-width="0.265" letter-spacing="0.693"/>
   <path d="m 55.70731,260.49037 2.329209,-0.63036 -0.09207,-0.34019 -2.329209,0.63036 z" id="path1257" inkscape:connector-curvature="0" fill="#848484" word-spacing="0.799" fill-opacity="1" stroke-width="0.265" letter-spacing="0.693"/>
   <path d="m 56.006498,261.93696 2.379401,-0.40128 -0.05861,-0.34751 -2.379402,0.40127 z" id="path1259" inkscape:connector-curvature="0" fill="#848484" word-spacing="0.799" fill-opacity="1" stroke-width="0.265" letter-spacing="0.693"/>
   <path d="m 56.164449,263.40578 2.40699,-0.17019 -0.02486,-0.35155 -2.406991,0.17019 z" id="path1261" inkscape:connector-curvature="0" fill="#848484" word-spacing="0.799" fill-opacity="1" stroke-width="0.265" letter-spacing="0.693"/>
  </g>
  <path d="m 30.316684,250.9189 0.686913,0.32802 0.48857,-0.58374 0.652622,0.39183 0.541847,-0.53465 0.61242,0.4521 0.590214,-0.48073 0.566672,0.50828 0.633239,-0.42246 0.515792,0.55984 0.670527,-0.36034 0.460242,0.60632 0.701743,-0.29497 0.400523,0.64732 0.726605,-0.22693 0.337176,0.68246 0.744886,-0.15683 0.270777,0.71144 0.756421,-0.0853 0.201926,0.73394 0.761106,-0.013 0.131244,0.74981 0.758899,0.0593 0.05938,0.7589 0.749817,0.13125 -0.01302,0.76111 0.733947,0.20192 -0.08532,0.75643 0.71143,0.27077 -0.156836,0.74488 0.68247,0.33719 -0.226933,0.72659 0.647328,0.40052 -0.294971,0.70176 0.606324,0.46023 -0.36034,0.67052 0.559831,0.5158 -0.422448,0.63324 0.508267,0.56667 -0.480728,0.59022 0.4521,0.61243 -0.534656,0.54185 0.391839,0.65261 -0.583738,0.48857 0.328027,0.68691 -0.627538,0.43087 0.261248,0.71498 -0.665652,0.36927 0.192101,0.73658 -0.69774,0.30433 0.121219,0.75149 -0.723507,0.23663 0.04923,0.75963 -0.742724,0.16677 -0.02319,0.76086 -0.755213,0.0953 -0.09541,0.75522 -0.760865,0.0233 -0.166773,0.74273 -0.759625,-0.0491 -0.236618,0.72351 -0.751505,-0.12119 -0.304322,0.69772 -0.73658,-0.19208 -0.369268,0.66564 -0.714984,-0.26125 -0.430869,0.62754 -0.686914,-0.32803 -0.48857,0.58374 -0.652623,-0.39184 -0.541845,0.53465 -0.612421,-0.45209 -0.590213,0.48072 -0.566672,-0.50826 -0.633239,0.42244 -0.515792,-0.55983 -0.670528,0.36035 -0.460242,-0.60632 -0.701742,0.29496 -0.400524,-0.64732 -0.726604,0.22692 -0.337177,-0.68247 -0.744885,0.15685 -0.270779,-0.71143 -0.756419,0.0853 -0.201927,-0.73394 -0.761106,0.0131 -0.131244,-0.74981 -0.758899,-0.0594 -0.05938,-0.7589 -0.749817,-0.13124 0.01302,-0.7611 -0.733947,-0.20194 0.08532,-0.75641 -0.711431,-0.27078 0.156837,-0.74489 -0.68247,-0.33718 0.226932,-0.72661 -0.647327,-0.40052 0.29497,-0.70173 -0.606324,-0.46024 0.360341,-0.67053 -0.559831,-0.51579 0.422447,-0.63324 -0.508266,-0.56668 0.480728,-0.59021 -0.4521,-0.61243 0.534655,-0.54184 -0.391838,-0.65263 0.583738,-0.48856 -0.328028,-0.68692 0.627538,-0.43086 -0.261248,-0.71499 0.665653,-0.36926 -0.192101,-0.73659 0.69774,-0.30432 -0.121219,-0.7515 0.723507,-0.23662 -0.04923,-0.75963 0.742725,-0.16676 0.0232,-0.76086 0.755213,-0.0953 0.09541,-0.75521 0.760863,-0.0232 0.166775,-0.74273 0.759623,0.0491 0.236621,-0.7235 0.751504,0.1212 0.304322,-0.69774 0.73658,0.1921 0.369267,-0.66566 0.714984,0.26125 z" id="path1549" inkscape:connector-curvature="0" opacity="1" stroke-dasharray="none" stroke-opacity="1" paint-order="normal" fill="url(#linearGradient1558)" fill-rule="evenodd" stroke="#353535" stroke-linejoin="round" fill-opacity="1" stroke-linecap="butt" stroke-width="0.373" stroke-dashoffset="0" stroke-miterlimit="4"/>
  <circle id="circle1560" cx="33.588" cy="263.22" r="11.194" opacity="1" stroke-dasharray="none" stroke-opacity="1" fill="none" fill-rule="evenodd" stroke="url(#linearGradient1568)" stroke-linejoin="round" fill-opacity="1" stroke-linecap="butt" stroke-width="0.373" stroke-dashoffset="0" stroke-miterlimit="4"/>
  <path d="m 34.416644,231.904 v 4.82894" id="path1123" inkscape:connector-curvature="0" stroke-dasharray="none" stroke-opacity="1" fill="none" stroke="#000000" stroke-linejoin="miter" stroke-linecap="butt" stroke-width="0.403" stroke-miterlimit="4"/>
  <path d="m 34.87149,231.904 v 4.82894" id="path1127" inkscape:connector-curvature="0" stroke-dasharray="none" stroke-opacity="1" fill="none" stroke="#ffffff" stroke-linejoin="miter" stroke-linecap="butt" stroke-width="0.403" stroke-miterlimit="4"/>
  <path inkscape:connector-curvature="0" id="path1125" d="m 34.644067,231.80545 v 4.82894" stroke-dasharray="none" stroke-opacity="1" fill="none" stroke="#888888" stroke-linejoin="miter" stroke-linecap="butt" stroke-width="0.403" stroke-miterlimit="4"/>
  <path d="m 18.80028,245.75405 c 1.3,-0.72308 2.385159,-0.90906 2.880689,0.37904 l 5.0033,4.92749 c 4.295763,-2.14311 8.591527,-1.92037 12.88729,-0.22742 l 5.533954,-5.83718 c 0.388269,-0.68908 1.190296,-0.55063 1.970997,-0.45484 -10.362008,-6.2084 -19.733272,-5.71627 -28.27623,1.21291 z" id="path1096" inkscape:connector-curvature="0" sodipodi:nodetypes="ccccccc" stroke-opacity="1" fill="url(#linearGradient1104)" stroke="none" stroke-linejoin="miter" fill-opacity="1" stroke-linecap="butt" stroke-width="0.265"/>
  <path d="m 5.9866271,277.69926 3.3711853,-2.88644 c 1.2625376,-0.25996 2.5406336,-0.39704 3.8195916,-0.54266 0.370178,-0.39142 0.437079,-1.4725 1.531015,-2.19072 l 31.525034,-25.57901 c 0.659649,-0.59812 1.522898,-0.78904 2.379153,-0.99395 l 1.474918,-2.66359 3.952161,-3.36508 c 0.01776,-0.0151 0.03449,-0.0234 0.03737,-0.0206 2.82476,2.76354 5.384296,5.67334 7.138764,9.02711 0.0019,0.004 -0.01039,0.0171 -0.02869,0.0316 l -4.094556,3.42197 -1.982738,4.10469 -33.958097,26.84001 -4.527547,0.87431 -3.793337,3.0563 c -3.6193232,-3.20486 -4.562085,-4.76138 -6.8442269,-9.11394 z" id="rect1106" inkscape:connector-curvature="0" sodipodi:nodetypes="cccccccsssscccccc" opacity="1" stroke-dasharray="none" stroke-opacity="1" paint-order="normal" fill="#ffffff" fill-rule="evenodd" stroke="none" stroke-linejoin="round" fill-opacity="0.284" stroke-linecap="butt" stroke-width="0.5" stroke-dashoffset="0" stroke-miterlimit="4"/>
 </g>
</svg>
