<?xml version="1.0" encoding="UTF-8" standalone="no"?>
<!-- Created with Inkscape (http://www.inkscape.org/) -->

<svg
   xmlns:dc="http://purl.org/dc/elements/1.1/"
   xmlns:cc="http://creativecommons.org/ns#"
   xmlns:rdf="http://www.w3.org/1999/02/22-rdf-syntax-ns#"
   xmlns:svg="http://www.w3.org/2000/svg"
   xmlns="http://www.w3.org/2000/svg"
   xmlns:xlink="http://www.w3.org/1999/xlink"
   xmlns:sodipodi="http://sodipodi.sourceforge.net/DTD/sodipodi-0.dtd"
   xmlns:inkscape="http://www.inkscape.org/namespaces/inkscape"
   width="255"
   height="255"
   viewBox="0 0 67.468749 67.468749"
   version="1.1"
   id="svg8"
   inkscape:version="0.92.5 (2060ec1f9f, 2020-04-08)"
   sodipodi:docname="microphone.svg">
  <defs
     id="defs2">
    <linearGradient
       inkscape:collect="always"
       id="linearGradient1369">
      <stop
         style="stop-color:#000000;stop-opacity:0.23943663"
         offset="0"
         id="stop1365" />
      <stop
         style="stop-color:#000000;stop-opacity:0;"
         offset="1"
         id="stop1367" />
    </linearGradient>
    <linearGradient
       inkscape:collect="always"
       id="linearGradient1191">
      <stop
         style="stop-color:#5b5b5b;stop-opacity:1"
         offset="0"
         id="stop1187" />
      <stop
         style="stop-color:white;stop-opacity:1"
         offset="1"
         id="stop1189" />
    </linearGradient>
    <linearGradient
       inkscape:collect="always"
       id="linearGradient1184">
      <stop
         style="stop-color:white;stop-opacity:1"
         offset="0"
         id="stop1180" />
      <stop
         style="stop-color:#474747;stop-opacity:1"
         offset="1"
         id="stop1182" />
    </linearGradient>
    <clipPath
       clipPathUnits="userSpaceOnUse"
       id="clipPath2059">
      <path
         d="m -10.099732,231.68531 c 3.5587363,2.50616 4.8319716,-0.58528 2.9651647,-3.064 -3.1818907,-4.22486 -6.4443207,-9.83985 -12.3548527,-15.91305 -2.594516,-2.66865 -11.860659,-7.80827 -11.860659,-7.80827 0,0 -0.115438,-2.18844 -0.09884,-3.064 0.01106,-0.582 -0.565687,-0.56369 -0.889553,-0.29652 -0.782426,0.64546 -2.47097,2.56981 -2.47097,2.56981 l -1.68026,-0.0988 -1.087226,-1.58142 c -0.296516,-0.41055 -0.636056,-0.34641 -0.88955,0 -0.545383,1.84962 -0.878698,3.8848 -3.459359,3.95355 l 4.447747,3.95356 c 7.76561,1.55335 15.578734,5.58545 20.261957,14.33163 0,0 4.526451,5.19364 7.116396,7.01755 z"
         id="path2061"
         sodipodi:nodetypes="csscsscccccccs"
         inkscape:connector-curvature="0"
         stroke-dasharray="none"
         stroke-opacity="1"
         fill="#ffffff"
         fill-rule="evenodd"
         stroke="none"
         stroke-linejoin="miter"
         fill-opacity="1"
         stroke-linecap="butt"
         stroke-width="0.048"
         stroke-miterlimit="4" />
    </clipPath>
    <clipPath
       id="clipPath2059-5"
       clipPathUnits="userSpaceOnUse">
      <path
         stroke-miterlimit="4"
         stroke-width="0.048"
         stroke-linecap="butt"
         fill-opacity="1"
         stroke-linejoin="miter"
         stroke="none"
         fill-rule="evenodd"
         fill="#ffffff"
         stroke-opacity="1"
         stroke-dasharray="none"
         inkscape:connector-curvature="0"
         sodipodi:nodetypes="csscsscccccccs"
         id="path2061-3"
         d="m -10.099732,231.68531 c 3.5587363,2.50616 4.8319716,-0.58528 2.9651647,-3.064 -3.1818907,-4.22486 -6.4443207,-9.83985 -12.3548527,-15.91305 -2.594516,-2.66865 -11.860659,-7.80827 -11.860659,-7.80827 0,0 -0.115438,-2.18844 -0.09884,-3.064 0.01106,-0.582 -0.565687,-0.56369 -0.889553,-0.29652 -0.782426,0.64546 -2.47097,2.56981 -2.47097,2.56981 l -1.68026,-0.0988 -1.087226,-1.58142 c -0.296516,-0.41055 -0.636056,-0.34641 -0.88955,0 -0.545383,1.84962 -0.878698,3.8848 -3.459359,3.95355 l 4.447747,3.95356 c 7.76561,1.55335 15.578734,5.58545 20.261957,14.33163 0,0 4.526451,5.19364 7.116396,7.01755 z" />
    </clipPath>
    <clipPath
       id="clipPath">
      <path
         fill-opacity="0.95"
         stroke="none"
         fill="#1b1b1b"
         sodipodi:nodetypes="csssscc"
         inkscape:connector-curvature="0"
         id="rect5264"
         d="m -515.73002,435.56445 v 5.83767 c 0,9.74315 -7.84377,17.58692 -17.58692,17.58692 h -135.05122 c -9.74315,0 -17.58692,-7.84377 -17.58692,-17.58692 v -5.83767 z" />
    </clipPath>
    <clipPath
       clipPathUnits="userSpaceOnUse"
       id="clipPath2059-7">
      <path
         d="m -10.099732,231.68531 c 3.5587363,2.50616 4.8319716,-0.58528 2.9651647,-3.064 -3.1818907,-4.22486 -6.4443207,-9.83985 -12.3548527,-15.91305 -2.594516,-2.66865 -11.860659,-7.80827 -11.860659,-7.80827 0,0 -0.115438,-2.18844 -0.09884,-3.064 0.01106,-0.582 -0.565687,-0.56369 -0.889553,-0.29652 -0.782426,0.64546 -2.47097,2.56981 -2.47097,2.56981 l -1.68026,-0.0988 -1.087226,-1.58142 c -0.296516,-0.41055 -0.636056,-0.34641 -0.88955,0 -0.545383,1.84962 -0.878698,3.8848 -3.459359,3.95355 l 4.447747,3.95356 c 7.76561,1.55335 15.578734,5.58545 20.261957,14.33163 0,0 4.526451,5.19364 7.116396,7.01755 z"
         id="path2061-5"
         sodipodi:nodetypes="csscsscccccccs"
         inkscape:connector-curvature="0"
         stroke-dasharray="none"
         stroke-opacity="1"
         fill="#ffffff"
         fill-rule="evenodd"
         stroke="none"
         stroke-linejoin="miter"
         fill-opacity="1"
         stroke-linecap="butt"
         stroke-width="0.048"
         stroke-miterlimit="4" />
    </clipPath>
    <clipPath
       clipPathUnits="userSpaceOnUse"
       id="clipPath1162">
      <path
         stroke-miterlimit="4"
         stroke-width="0.071"
         stroke-linecap="round"
         fill-opacity="0.347"
         stroke-linejoin="round"
         stroke="none"
         fill="#000000"
         stroke-opacity="1"
         stroke-dasharray="none"
         inkscape:connector-curvature="0"
         d="m -65.649736,239.84563 c -9.358079,0 -16.951888,7.59381 -16.951888,16.95188 0,9.35808 7.593811,16.94076 16.951888,16.94077 0.292439,0 0.578792,-0.008 0.867614,-0.0222 2.122786,-0.10753 4.148336,-0.60587 5.995453,-1.42378 l 2.669587,3.97101 c -0.225515,0.4951 -0.245107,0.96445 -0.01111,1.31255 l 15.67271,23.32553 c 0.495366,0.73695 1.94415,0.6317 3.247998,-0.24471 1.303846,-0.87642 1.96364,-2.17735 1.468276,-2.9143 L -51.42304,274.4168 c -0.233058,-0.34672 -0.682887,-0.49868 -1.22356,-0.47831 l -2.558357,-3.80416 c 3.95991,-3.10036 6.507123,-7.91951 6.507123,-13.33682 0,-9.35807 -7.593809,-16.95188 -16.951889,-16.95188 z m 0,2.5806 c 7.92884,0 14.371283,6.44244 14.371283,14.37128 0,7.92885 -6.442435,14.36016 -14.371283,14.36016 -7.928851,0 -14.349039,-6.43131 -14.349039,-14.36016 0,-0.24777 -0.0013,-0.48941 0.01111,-0.73413 0.384376,-7.58638 6.656848,-13.63715 14.337916,-13.63715 z"
         id="path1164" />
    </clipPath>
    <linearGradient
       id="linearGradient2802"
       inkscape:collect="always">
      <stop
         id="stop2804"
         offset="0"
         style="stop-color:black;stop-opacity:1;" />
      <stop
         id="stop2806"
         offset="1"
         style="stop-color:white;stop-opacity:1" />
    </linearGradient>
    <linearGradient
       id="linearGradient2783"
       inkscape:collect="always">
      <stop
         id="stop2785"
         offset="0"
         style="stop-color:white;stop-opacity:0.66666669" />
      <stop
         id="stop2787"
         offset="1"
         style="stop-color:black;stop-opacity:0.8888889" />
    </linearGradient>
    <linearGradient
       id="linearGradient2762"
       inkscape:collect="always">
      <stop
         id="stop2764"
         offset="0"
         style="stop-color:white;stop-opacity:1" />
      <stop
         id="stop2766"
         offset="1"
         style="stop-color:black;stop-opacity:1" />
    </linearGradient>
    <pattern
       id="pattern2770"
       patternTransform="translate(71.01518,25.30894)"
       height="8.4298511"
       width="8.4298511"
       patternUnits="userSpaceOnUse">
      <path
         d="M 107.28916 42.040947 A 21.585558 21.585558 0 1 1  64.118048,42.040947 A 21.585558 21.585558 0 1 1  107.28916 42.040947 z"
         sodipodi:ry="21.585558"
         sodipodi:rx="21.585558"
         sodipodi:cy="42.040947"
         sodipodi:cx="85.703606"
         id="path2760"
         style="opacity:1;fill:url(#radialGradient2773);fill-opacity:1;stroke:none;stroke-width:4;stroke-linecap:round;stroke-linejoin:round;stroke-miterlimit:4;stroke-dasharray:none;stroke-dashoffset:1.56000019;stroke-opacity:1"
         sodipodi:type="arc"
         transform="matrix(0.195266,0,0,0.195266,-12.52007,-3.994242)" />
    </pattern>
    <radialGradient
       r="21.585558"
       fy="32.883427"
       fx="96.169342"
       cy="32.883427"
       cx="96.169342"
       gradientTransform="matrix(-1.788404,-4.254119e-2,3.387882e-2,-1.424243,267.0449,83.80857)"
       gradientUnits="userSpaceOnUse"
       id="radialGradient2773"
       xlink:href="#linearGradient2762"
       inkscape:collect="always" />
    <radialGradient
       gradientTransform="matrix(-1.651175,-1.770013e-2,2.150041e-2,-2.005686,244.8825,88.07514)"
       gradientUnits="userSpaceOnUse"
       r="21.585558"
       fy="28.757526"
       fx="92.600769"
       cy="28.757526"
       cx="92.600769"
       id="radialGradient2791"
       xlink:href="#linearGradient2783"
       inkscape:collect="always" />
    <linearGradient
       gradientTransform="matrix(0.982706,-0.185172,0.185172,0.982706,13.6582,17.2349)"
       spreadMethod="reflect"
       gradientUnits="userSpaceOnUse"
       y2="33.483356"
       x2="41.382957"
       y1="52.642139"
       x1="40.872063"
       id="linearGradient2808"
       xlink:href="#linearGradient2802"
       inkscape:collect="always" />
    <linearGradient
       gradientTransform="translate(-26.10887,11.62442)"
       spreadMethod="reflect"
       gradientUnits="userSpaceOnUse"
       y2="68.863235"
       x2="62.840797"
       y1="68.863235"
       x1="55.688183"
       id="linearGradient2818"
       xlink:href="#linearGradient2802"
       inkscape:collect="always" />
    <radialGradient
       spreadMethod="reflect"
       gradientUnits="userSpaceOnUse"
       gradientTransform="matrix(0.687229,-7.181823e-3,4.954614e-3,0.474107,-31.29142,10.64418)"
       r="10.499918"
       fy="28.038328"
       fx="-98.130981"
       cy="28.038328"
       cx="-98.130981"
       id="radialGradient2832"
       xlink:href="#linearGradient2802"
       inkscape:collect="always" />
    <linearGradient
       gradientTransform="translate(-0.153327,-1.132073)"
       spreadMethod="reflect"
       gradientUnits="userSpaceOnUse"
       y2="29.92116"
       x2="-97.559166"
       y1="31.673353"
       x1="-108.6309"
       id="linearGradient2840"
       xlink:href="#linearGradient2802"
       inkscape:collect="always" />
    <linearGradient
       y2="68.863235"
       x2="62.840797"
       y1="68.863235"
       x1="55.688183"
       spreadMethod="reflect"
       gradientTransform="translate(1.788153,29.88769)"
       gradientUnits="userSpaceOnUse"
       id="linearGradient2844"
       xlink:href="#linearGradient2802"
       inkscape:collect="always" />
    <linearGradient
       y2="68.863235"
       x2="62.840797"
       y1="68.706421"
       x1="57.413124"
       spreadMethod="reflect"
       gradientTransform="matrix(0.60259092,0,0,0.60259092,-5.6105231,245.41408)"
       gradientUnits="userSpaceOnUse"
       id="linearGradient2873"
       xlink:href="#linearGradient1191"
       inkscape:collect="always" />
    <linearGradient
       y2="32.262951"
       x2="-96.038918"
       y1="32.353714"
       x1="-103.72645"
       spreadMethod="reflect"
       gradientTransform="matrix(0.60259091,0,0,0.60259091,-213.1367,-80.490946)"
       gradientUnits="userSpaceOnUse"
       id="linearGradient2875"
       xlink:href="#linearGradient1191"
       inkscape:collect="always" />
    <linearGradient
       y2="68.863235"
       x2="62.840797"
       y1="68.924812"
       x1="57.475063"
       spreadMethod="reflect"
       gradientTransform="matrix(0.60259091,0,0,0.60259091,-88.821356,222.03124)"
       gradientUnits="userSpaceOnUse"
       id="linearGradient2877"
       xlink:href="#linearGradient1191"
       inkscape:collect="always" />
    <linearGradient
       inkscape:collect="always"
       id="linearGradient879">
      <stop
         style="stop-color:#b2b2b2;stop-opacity:1"
         offset="0"
         id="stop875" />
      <stop
         style="stop-color:#000000;stop-opacity:1"
         offset="1"
         id="stop877" />
    </linearGradient>
    <linearGradient
       id="linearGradient871"
       inkscape:collect="always">
      <stop
         id="stop867"
         offset="0"
         style="stop-color:#8e8e8e;stop-opacity:1" />
      <stop
         id="stop869"
         offset="1"
         style="stop-color:#000000;stop-opacity:1" />
    </linearGradient>
    <linearGradient
       inkscape:collect="always"
       id="linearGradient849">
      <stop
         style="stop-color:#777777;stop-opacity:1"
         offset="0"
         id="stop845" />
      <stop
         style="stop-color:#000000;stop-opacity:1"
         offset="1"
         id="stop847" />
    </linearGradient>
    <linearGradient
       id="linearGradient823-6"
       inkscape:collect="always">
      <stop
         id="stop829"
         offset="0"
         style="stop-color:#d9d9d9;stop-opacity:1" />
      <stop
         id="stop831"
         offset="1"
         style="stop-color:#5e5e5e;stop-opacity:1" />
    </linearGradient>
    <linearGradient
       inkscape:collect="always"
       xlink:href="#linearGradient2762"
       id="linearGradient825"
       x1="-172.58595"
       y1="294.77478"
       x2="-136.98955"
       y2="294.03949"
       gradientUnits="userSpaceOnUse"
       spreadMethod="reflect"
       gradientTransform="matrix(0.20943996,0.24683983,-0.24683983,0.20943996,-57.145538,109.31927)" />
    <linearGradient
       inkscape:collect="always"
       xlink:href="#linearGradient823-6"
       id="linearGradient834"
       gradientUnits="userSpaceOnUse"
       gradientTransform="matrix(0.20943996,0.24683983,-0.24683983,0.20943996,-57.145538,109.31927)"
       x1="-187.66389"
       y1="444.32086"
       x2="-153.52522"
       y2="444.34604"
       spreadMethod="reflect" />
    <linearGradient
       inkscape:collect="always"
       xlink:href="#linearGradient849"
       id="linearGradient851"
       x1="223.86343"
       y1="392.12427"
       x2="244.81197"
       y2="391.16568"
       gradientUnits="userSpaceOnUse"
       spreadMethod="reflect"
       gradientTransform="matrix(0.21365323,0.24320216,-0.24320216,0.21365323,-154.20245,18.157543)" />
    <linearGradient
       inkscape:collect="always"
       xlink:href="#linearGradient849"
       id="linearGradient855"
       gradientUnits="userSpaceOnUse"
       x1="223.86343"
       y1="392.12427"
       x2="244.81197"
       y2="391.16568"
       spreadMethod="reflect"
       gradientTransform="matrix(0.27080067,0.30825326,-0.24320216,0.21365323,-93.187596,-60.825789)" />
    <linearGradient
       inkscape:collect="always"
       xlink:href="#linearGradient871"
       id="linearGradient865"
       x1="-184.62791"
       y1="97.214127"
       x2="-134.11606"
       y2="96.726799"
       gradientUnits="userSpaceOnUse"
       spreadMethod="reflect"
       gradientTransform="matrix(0.21365323,0.24320216,-0.24320216,0.21365323,-57.455209,108.92392)" />
    <radialGradient
       inkscape:collect="always"
       xlink:href="#linearGradient879"
       id="radialGradient881"
       cx="236.59628"
       cy="-55.052357"
       fx="236.59628"
       fy="-55.052357"
       r="91.398788"
       gradientTransform="matrix(0.32372055,0,0,0.30300818,-88.131255,127.55424)"
       gradientUnits="userSpaceOnUse" />
    <linearGradient
       inkscape:collect="always"
       xlink:href="#linearGradient849"
       id="linearGradient885"
       gradientUnits="userSpaceOnUse"
       gradientTransform="matrix(0.50755433,0.57775074,-0.24320216,0.21365323,-121.11946,-141.86059)"
       x1="223.86343"
       y1="392.12427"
       x2="244.81197"
       y2="391.16568"
       spreadMethod="reflect" />
    <filter
       height="1.0354693"
       y="-0.017734671"
       width="1.0742208"
       x="-0.037110421"
       id="filter4770"
       style="color-interpolation-filters:sRGB"
       inkscape:collect="always">
      <feGaussianBlur
         id="feGaussianBlur4772"
         stdDeviation="0.23991262"
         inkscape:collect="always" />
    </filter>
    <filter
       height="1.0524996"
       y="-0.026249787"
       width="1.1145475"
       x="-0.057273739"
       id="filter4786"
       style="color-interpolation-filters:sRGB"
       inkscape:collect="always">
      <feGaussianBlur
         id="feGaussianBlur4788"
         stdDeviation="0.39138624"
         inkscape:collect="always" />
    </filter>
    <radialGradient
       inkscape:collect="always"
       xlink:href="#linearGradient1184"
       id="radialGradient1178"
       cx="-72.57592"
       cy="269.0929"
       fx="-72.57592"
       fy="269.0929"
       r="3.3828225"
       gradientTransform="matrix(1.3270698,-0.29612122,0.38359538,1.719086,20.904446,-206.95566)"
       gradientUnits="userSpaceOnUse"
       spreadMethod="reflect" />
    <linearGradient
       inkscape:collect="always"
       xlink:href="#linearGradient1369"
       id="linearGradient1371"
       x1="-20.373882"
       y1="290.06561"
       x2="3.4441645"
       y2="245.1367"
       gradientUnits="userSpaceOnUse" />
    <linearGradient
       inkscape:collect="always"
       xlink:href="#linearGradient1369"
       id="linearGradient1373"
       gradientUnits="userSpaceOnUse"
       x1="-20.373882"
       y1="290.06561"
       x2="3.4441645"
       y2="245.1367" />
    <linearGradient
       inkscape:collect="always"
       xlink:href="#linearGradient1369"
       id="linearGradient1375"
       gradientUnits="userSpaceOnUse"
       x1="-20.373882"
       y1="290.06561"
       x2="3.4441645"
       y2="245.1367" />
    <linearGradient
       inkscape:collect="always"
       xlink:href="#linearGradient1369"
       id="linearGradient1377"
       gradientUnits="userSpaceOnUse"
       x1="-20.373882"
       y1="290.06561"
       x2="3.4441645"
       y2="245.1367" />
    <linearGradient
       inkscape:collect="always"
       xlink:href="#linearGradient1369"
       id="linearGradient1379"
       gradientUnits="userSpaceOnUse"
       x1="-20.373882"
       y1="290.06561"
       x2="3.4441645"
       y2="245.1367" />
    <filter
       inkscape:collect="always"
       style="color-interpolation-filters:sRGB"
       id="filter1385"
       x="-0.013263406"
       width="1.0265268"
       y="-0.010956352"
       height="1.0219127">
      <feGaussianBlur
         inkscape:collect="always"
         stdDeviation="0.21578253"
         id="feGaussianBlur1387" />
    </filter>
  </defs>
  <sodipodi:namedview
     id="base"
     pagecolor="#ff0000"
     bordercolor="#666666"
     borderopacity="1.0"
     inkscape:pageopacity="0"
     inkscape:pageshadow="2"
     inkscape:zoom="3.5098039"
     inkscape:cx="127.5"
     inkscape:cy="127.5"
     inkscape:document-units="px"
     inkscape:current-layer="layer1"
     showgrid="false"
     inkscape:snap-to-guides="false"
     inkscape:snap-grids="false"
     inkscape:snap-others="false"
     inkscape:object-nodes="false"
     inkscape:snap-nodes="false"
     inkscape:snap-global="false"
     inkscape:window-width="1920"
     inkscape:window-height="1056"
     inkscape:window-x="0"
     inkscape:window-y="0"
     inkscape:window-maximized="1"
     units="px"
     showguides="false" />
  <metadata
     id="metadata5">
    <rdf:RDF>
      <cc:Work>
        <dc:format>image/svg+xml</dc:format>
        <dc:type
           rdf:resource="http://purl.org/dc/dcmitype/StillImage" />
        <dc:title></dc:title>
      </cc:Work>
    </rdf:RDF>
  </metadata>
  <g
     inkscape:label="Layer 1"
     inkscape:groupmode="layer"
     id="layer1"
     transform="translate(0,-229.53126)">
    <g
       id="g1363"
       style="fill:url(#linearGradient1371);fill-opacity:1;filter:url(#filter1385)"
       transform="translate(33.018226,2.939979)">
      <path
         sodipodi:nodetypes="ccccccccccccccccscccccccccccccccccccccccc"
         inkscape:connector-curvature="0"
         id="path1268"
         d="m -7.7739211,244.11823 c -1.7796597,0.29976 -4.5858869,0.30272 -5.5884729,1.80403 -0.95463,0.9883 -1.280046,2.30379 -0.934031,3.77581 -0.28802,0.60642 0.132141,3.0815 0.233005,4.20898 -5.847623,6.48407 -11.80426,12.9401 -17.629198,19.4125 l -0.06426,1.79409 1.327014,0.75739 c -0.529567,0.30446 -0.983135,0.90306 -0.960546,1.41196 0.03177,0.48238 0.37523,1.00774 0.797478,1.41694 0.844489,0.8184 1.904077,1.34596 3.067594,1.90382 1.163513,0.55786 2.459291,1.10932 3.740177,1.68092 2.561758,1.14319 4.964056,2.41173 5.836997,3.39482 0.436467,0.49153 0.629558,0.91137 0.471452,1.53126 -0.158095,0.61991 -0.767774,1.41515 -2.139453,2.30134 l 2.612713,1.87352 c 1.559169,-1.00733 2.442546,-1.99788 2.714472,-3.06408 0.271922,-1.06621 -0.169646,-2.23215 -1.061702,-3.23676 -1.784113,-2.00922 -4.81238,-3.36937 -7.488287,-4.5635 -1.337956,-0.59708 -2.61384,-1.14204 -3.600916,-1.6153 -0.941664,-0.4515 -1.531655,-0.84175 -1.672826,-0.95997 0.135176,-0.1196 0.504359,-0.29039 0.685052,-0.36111 l 2.011123,1.14798 2.035599,-0.53792 1.494844,-1.25772 c 1.859889,-1.75385 4.043569,-3.60785 6.041274,-5.36278 l 2.271696,2.43369 c -0.671852,0.16782 -1.422765,0.49748 -1.728445,1.03826 -1.125944,0.74903 -1.088537,2.90206 1.030749,4.97519 1.971498,1.92857 5.1061209,3.16282 6.9395489,3.21104 l 2.337891,4.53282 c 1.37403,1.68469 2.7691507,2.00014 4.64896095,2.00014 1.49237205,0 2.23377705,-0.8921 1.66228305,-2.00014 -4.7851002,-8.01343 -4.2992762,-5.66275 -3.743153,-7.15295 1.81357492,-1.57086 1.98194842,-3.22831 -0.02226,-5.0001 -1.838346,-1.88425 -3.633875,-2.59295 -5.653917,-2.8213 l -4.1127829,-4.4062 9.1467379,-8.03546 5.308026,-0.87402 c 1.0895531,-0.17569 3.9264585,-0.76302 4.74355,-2.00053 1.4555752,-4.89449 -2.6304475,-8.90634 -5.356291,-10.5754 -3.0763785,-1.46051 -6.3990166,-2.71788 -9.401696,-2.78126 z"
         style="color:#000000;font-style:normal;font-variant:normal;font-weight:normal;font-stretch:normal;font-size:medium;line-height:normal;font-family:sans-serif;font-variant-ligatures:normal;font-variant-position:normal;font-variant-caps:normal;font-variant-numeric:normal;font-variant-alternates:normal;font-feature-settings:normal;text-indent:0;text-align:start;text-decoration:none;text-decoration-line:none;text-decoration-style:solid;text-decoration-color:#000000;letter-spacing:normal;word-spacing:normal;text-transform:none;writing-mode:lr-tb;direction:ltr;text-orientation:mixed;dominant-baseline:auto;baseline-shift:baseline;text-anchor:start;white-space:normal;shape-padding:0;clip-rule:nonzero;display:inline;overflow:visible;visibility:visible;opacity:1;isolation:auto;mix-blend-mode:normal;color-interpolation:sRGB;color-interpolation-filters:linearRGB;solid-color:#000000;solid-opacity:1;vector-effect:none;fill:url(#linearGradient1373);fill-opacity:1;fill-rule:evenodd;stroke:none;stroke-width:2.59616423;stroke-linecap:butt;stroke-linejoin:miter;stroke-miterlimit:4;stroke-dasharray:none;stroke-dashoffset:0;stroke-opacity:1;color-rendering:auto;image-rendering:auto;shape-rendering:auto;text-rendering:auto;enable-background:accumulate" />
      <path
         inkscape:connector-curvature="0"
         id="path1347"
         d="m -8.4472656,244.48242 c -2.1470684,0.14036 -4.8571624,0.59143 -5.5527344,3 -0.29626,1.44285 -0.03223,2.90066 -0.03233,4.36637 0.490297,1.56044 0.08682,2.83218 -1.255982,3.80385 -5.369391,5.93562 -10.786718,11.8277 -16.145283,17.77314 -1.193087,1.87089 2.681785,2.06418 0.652344,3.07617 -1.020768,1.46876 1.057015,2.61477 2.126953,3.24024 3.644944,2.0344 8.009977,3.00965 11.072266,5.96289 1.161725,1.40013 -0.368219,3.08144 -1.572266,3.8125 1.127785,0.82321 2.352447,2.25333 3.416532,0.56419 1.809718,-1.29503 1.468066,-3.90647 -0.154813,-5.18529 -3.556855,-3.38101 -8.660946,-4.24494 -12.679688,-6.95507 0.906365,-1.01759 1.957628,-0.31695 2.88355,0.33082 2.287377,0.45667 3.832429,-1.92977 5.471079,-3.21543 1.450522,-1.29767 2.926052,-2.56712 4.391465,-3.84977 0.458265,0.97895 3.478324,2.67693 2.069094,3.12675 -1.774542,0.40875 -2.599787,2.54268 -1.490969,4.01974 1.70855,2.82103 5.134411,4.22973 8.1503908,4.75781 1.3474899,2.20496 2.0434174,5.61713 4.8730468,6.20703 1.1146073,0.20531 3.5122542,0.6369 3.4375,-1.09375 -1.1749485,-2.4314 -2.9690257,-4.55929 -4.2519531,-6.9082 0.4504341,-1.34655 2.40454226,-2.28582 1.6074219,-3.96875 -1.4270858,-2.45795 -4.0966223,-4.0312 -6.8632813,-4.37696 -1.4328652,-1.53523 -2.8663431,-3.06988 -4.2988281,-4.60547 3.1676313,-2.74562 6.2850788,-5.59265 9.4824219,-8.27734 3.20597211,-0.76059 6.709054,-0.51511 9.5234375,-2.37695 1.2961738,-2.08776 0.41117,-4.87822 -0.9151831,-6.80871 -2.6800433,-4.02971 -7.6452711,-5.67494 -12.1668482,-6.4452 -0.5935328,-0.0659 -1.1887394,-0.10662 -1.7773437,0.0254 z"
         style="color:#000000;font-style:normal;font-variant:normal;font-weight:normal;font-stretch:normal;font-size:medium;line-height:normal;font-family:sans-serif;font-variant-ligatures:normal;font-variant-position:normal;font-variant-caps:normal;font-variant-numeric:normal;font-variant-alternates:normal;font-feature-settings:normal;text-indent:0;text-align:start;text-decoration:none;text-decoration-line:none;text-decoration-style:solid;text-decoration-color:#000000;letter-spacing:normal;word-spacing:normal;text-transform:none;writing-mode:lr-tb;direction:ltr;text-orientation:mixed;dominant-baseline:auto;baseline-shift:baseline;text-anchor:start;white-space:normal;shape-padding:0;clip-rule:nonzero;display:inline;overflow:visible;visibility:visible;opacity:1;isolation:auto;mix-blend-mode:normal;color-interpolation:sRGB;color-interpolation-filters:linearRGB;solid-color:#000000;solid-opacity:1;vector-effect:none;fill:url(#linearGradient1375);fill-opacity:1;fill-rule:evenodd;stroke:none;stroke-width:2.59616423;stroke-linecap:butt;stroke-linejoin:miter;stroke-miterlimit:4;stroke-dasharray:none;stroke-dashoffset:0;stroke-opacity:1;color-rendering:auto;image-rendering:auto;shape-rendering:auto;text-rendering:auto;enable-background:accumulate" />
      <path
         inkscape:connector-curvature="0"
         id="path1351"
         d="m -7.9628906,244.67578 c -2.2556894,0.15532 -5.5530364,0.57145 -5.8613284,3.38867 -0.296389,1.92877 0.363757,3.83352 0.173828,5.73633 -0.622217,1.94775 -2.671614,2.94303 -3.774084,4.59816 -4.618842,5.16655 -9.436099,10.19268 -13.929041,15.44872 -0.424634,1.13912 2.242073,1.48894 1.158204,2.59765 -1.528813,0.98494 0.449555,2.4817 1.468851,2.94764 3.766431,2.21672 8.538322,3.08459 11.572164,6.46447 0.766476,1.40329 -0.421676,2.90166 -1.546875,3.67578 0.742644,0.68546 2.13647,1.73826 2.794922,0.34375 2.018334,-1.40964 0.995394,-4.33146 -0.841797,-5.38476 -3.636151,-2.95329 -8.424395,-3.84742 -12.244141,-6.50391 0.876349,-1.38339 2.545267,-0.68137 3.558594,0.0566 2.670174,0.0311 4.053276,-2.72123 6.03348,-4.06221 1.206913,-1.06894 2.425655,-2.12329 3.640348,-3.18388 0.536858,1.34398 2.507766,1.81628 2.613282,3.33398 -0.570519,0.78491 -1.98098,0.72722 -2.195313,1.91797 -0.604773,2.21858 1.669039,3.92425 3.287109,5.01563 1.5652,1.00944 3.48643,1.41104 5.1855474,1.91211 1.356574,2.22237 2.0611252,5.82154 5.1601562,6.1621 0.95109008,0.29983 3.3262048,0.18772 2.41054999,-1.3271 -1.13447102,-2.29643 -3.02290089,-4.3014 -3.98476869,-6.59672 0.5007034,-1.40098 2.65367125,-2.57633 1.3457031,-4.17969 -1.4561455,-2.22062 -4.0254733,-3.46562 -6.5507812,-3.88672 -1.4947181,-1.60163 -2.9900208,-3.20272 -4.4843748,-4.80469 3.2792534,-2.82358 6.4594647,-5.78892 9.8046872,-8.51562 3.15731906,-0.82585 6.8977998,-0.3845 9.5104328,-2.54037 1.4492826,-3.56336 -1.2696649,-7.30988 -4.1022296,-9.29948 -2.98679609,-1.97112 -6.6410466,-3.13745 -10.203125,-3.31445 z"
         style="color:#000000;font-style:normal;font-variant:normal;font-weight:normal;font-stretch:normal;font-size:medium;line-height:normal;font-family:sans-serif;font-variant-ligatures:normal;font-variant-position:normal;font-variant-caps:normal;font-variant-numeric:normal;font-variant-alternates:normal;font-feature-settings:normal;text-indent:0;text-align:start;text-decoration:none;text-decoration-line:none;text-decoration-style:solid;text-decoration-color:#000000;letter-spacing:normal;word-spacing:normal;text-transform:none;writing-mode:lr-tb;direction:ltr;text-orientation:mixed;dominant-baseline:auto;baseline-shift:baseline;text-anchor:start;white-space:normal;shape-padding:0;clip-rule:nonzero;display:inline;overflow:visible;visibility:visible;opacity:1;isolation:auto;mix-blend-mode:normal;color-interpolation:sRGB;color-interpolation-filters:linearRGB;solid-color:#000000;solid-opacity:1;vector-effect:none;fill:url(#linearGradient1377);fill-opacity:1;fill-rule:evenodd;stroke:none;stroke-width:2.59616423;stroke-linecap:butt;stroke-linejoin:miter;stroke-miterlimit:4;stroke-dasharray:none;stroke-dashoffset:0;stroke-opacity:1;color-rendering:auto;image-rendering:auto;shape-rendering:auto;text-rendering:auto;enable-background:accumulate" />
      <path
         inkscape:connector-curvature="0"
         id="path1355"
         d="m -8.8183594,245.01367 c -2.1683356,0.0667 -5.0099206,1.16743 -4.8124996,3.7793 -0.117831,2.32222 1.143787,5.16411 -0.927647,6.97712 -3.959434,3.98914 -7.566064,8.33782 -11.433682,12.41936 -1.690891,1.98771 -3.698976,3.87016 -5.130859,5.98243 0.456497,0.7201 2.153328,1.46615 1.113281,2.46289 -1.28066,0.8499 0.581601,2.18446 1.41211,2.52734 3.869044,2.32037 8.925721,3.09504 11.794017,6.82442 0.63428,1.3957 -0.632043,2.80977 -1.417064,3.61699 0.674832,0.72248 1.836914,0.98993 2.318359,-0.0625 1.801577,-1.53174 0.360829,-4.29291 -1.426002,-5.1596 -3.665359,-2.74501 -8.322312,-3.66801 -12.042748,-6.32478 0.770534,-1.59606 2.881575,-1.24468 4.015625,-0.27734 2.832406,-0.19493 4.18964,-3.10771 6.395143,-4.53365 1.091678,-0.96329 2.191477,-1.91731 3.288451,-2.87456 0.446162,1.5951 2.952959,2.11764 2.726563,3.93164 -0.772296,0.8631 -2.480862,1.02272 -2.230469,2.54297 0.425359,2.60215 3.133473,4.0869 5.3514198,4.97767 1.3559681,0.64012 3.4122662,0.36616 3.7917241,2.16937 0.9352603,2.10382 2.1025878,4.85309 4.7670121,4.97601 0.81877812,0.24336 2.5900317,-0.15202 1.60951179,-1.27047 -1.12222903,-2.27451 -3.11954769,-4.19169 -3.87123059,-6.585 0.5073954,-1.35228 2.65440614,-2.67778 1.220055,-4.14165 -1.4533023,-2.1083 -3.9813575,-3.13745 -6.3743518,-3.64155 -1.5575714,-1.66771 -3.1129134,-3.3375 -4.6718754,-5.00391 3.3898696,-2.89812 6.6387192,-5.98806 10.1250004,-8.7539 3.12411579,-0.82775 6.6731653,-0.35661 9.3476562,-2.44532 1.4477988,-4.0452 -2.0486318,-7.99795 -5.39648888,-9.73579 -2.89810272,-1.52256 -6.24592732,-2.56553 -9.54101112,-2.37749 z"
         style="color:#000000;font-style:normal;font-variant:normal;font-weight:normal;font-stretch:normal;font-size:medium;line-height:normal;font-family:sans-serif;font-variant-ligatures:normal;font-variant-position:normal;font-variant-caps:normal;font-variant-numeric:normal;font-variant-alternates:normal;font-feature-settings:normal;text-indent:0;text-align:start;text-decoration:none;text-decoration-line:none;text-decoration-style:solid;text-decoration-color:#000000;letter-spacing:normal;word-spacing:normal;text-transform:none;writing-mode:lr-tb;direction:ltr;text-orientation:mixed;dominant-baseline:auto;baseline-shift:baseline;text-anchor:start;white-space:normal;shape-padding:0;clip-rule:nonzero;display:inline;overflow:visible;visibility:visible;opacity:1;isolation:auto;mix-blend-mode:normal;color-interpolation:sRGB;color-interpolation-filters:linearRGB;solid-color:#000000;solid-opacity:1;vector-effect:none;fill:url(#linearGradient1379);fill-opacity:1;fill-rule:evenodd;stroke:none;stroke-width:2.59616423;stroke-linecap:butt;stroke-linejoin:miter;stroke-miterlimit:4;stroke-dasharray:none;stroke-dashoffset:0;stroke-opacity:1;color-rendering:auto;image-rendering:auto;shape-rendering:auto;text-rendering:auto;enable-background:accumulate" />
    </g>
    <g
       id="g2852"
       transform="matrix(0.60259092,0,0,0.60259092,-7.9950476,243.77996)">
      <path
         inkscape:connector-curvature="0"
         sodipodi:nodetypes="cc"
         id="path2846"
         d="M 34.996703,50.853984 C 7.9084397,57.320612 61.186849,66.519569 35.249097,83.448499"
         style="fill:none;fill-rule:evenodd;stroke:#939393;stroke-width:5;stroke-linecap:butt;stroke-linejoin:miter;stroke-miterlimit:4;stroke-dasharray:none;stroke-opacity:1" />
      <path
         inkscape:connector-curvature="0"
         style="fill:none;fill-rule:evenodd;stroke:#ffffff;stroke-width:1.29999995;stroke-linecap:butt;stroke-linejoin:miter;stroke-miterlimit:4;stroke-dasharray:none;stroke-opacity:1;filter:url(#filter4786)"
         d="m 34.230352,49.065831 c -21.413049,8.577056 30.620677,19.682582 2.548947,35.784175"
         id="path2848"
         sodipodi:nodetypes="cc" />
      <path
         inkscape:connector-curvature="0"
         sodipodi:nodetypes="cc"
         id="path2850"
         d="M 32.319058,50.344472 C 8.3561806,57.766563 57.755002,66.932139 34.868005,82.811401"
         style="fill:none;fill-rule:evenodd;stroke:#000000;stroke-width:1.29999995;stroke-linecap:butt;stroke-linejoin:miter;stroke-miterlimit:4;stroke-dasharray:none;stroke-opacity:1;filter:url(#filter4770)" />
    </g>
    <rect
       ry="2.6938112"
       y="280.67618"
       x="27.946669"
       height="12.468498"
       width="6.3112154"
       id="rect2842"
       style="opacity:1;fill:url(#linearGradient2873);fill-opacity:1;stroke:none;stroke-width:2.41036367;stroke-linecap:round;stroke-linejoin:round;stroke-miterlimit:4;stroke-dasharray:none;stroke-dashoffset:1.56000018;stroke-opacity:1" />
    <rect
       style="opacity:1;fill:url(#linearGradient2875);fill-opacity:1;stroke:none;stroke-width:2.41036367;stroke-linecap:round;stroke-linejoin:round;stroke-miterlimit:4;stroke-dasharray:none;stroke-dashoffset:1.56000018;stroke-opacity:1"
       id="rect2820"
       width="12.711281"
       height="14.407099"
       x="-278.59671"
       y="-68.023949"
       ry="4.5387974"
       rx="6.284574"
       transform="rotate(-108.8519)" />
    <rect
       style="opacity:1;fill:url(#linearGradient2877);fill-opacity:1;stroke:none;stroke-width:2.41036367;stroke-linecap:round;stroke-linejoin:round;stroke-miterlimit:4;stroke-dasharray:none;stroke-dashoffset:1.56000018;stroke-opacity:1"
       id="rect2810"
       width="6.311213"
       height="12.468494"
       x="-55.264175"
       y="257.29333"
       ry="1.2623396"
       transform="rotate(-17.228674)"
       rx="3.1556065" />
    <g
       id="g4746"
       transform="matrix(0.36070272,0,0,0.36070272,85.79271,217.1934)">
      <ellipse
         transform="rotate(48.700676)"
         ry="27.370861"
         rx="29.263947"
         cy="123.49351"
         cx="-17.219423"
         id="path873"
         style="opacity:1;fill:url(#radialGradient881);fill-opacity:1;stroke:#3e3e3e;stroke-width:0.64744109;stroke-linecap:square;stroke-linejoin:round;stroke-miterlimit:4;stroke-dasharray:none;stroke-dashoffset:0;stroke-opacity:1" />
      <path
         sodipodi:nodetypes="ccccc"
         inkscape:connector-curvature="0"
         id="path857"
         d="m -137.35971,77.486492 21.29779,23.287218 16.199351,-3.311824 -32.158241,-36.844853 z"
         style="fill:url(#linearGradient865);fill-opacity:1;stroke:none;stroke-width:0.32372054px;stroke-linecap:butt;stroke-linejoin:miter;stroke-opacity:1" />
      <path
         sodipodi:nodetypes="ccccccc"
         inkscape:connector-curvature="0"
         id="path817"
         d="m -136.84315,76.423879 -76.88994,72.731981 -2.7445,6.699 12.4025,13.51349 6.413,-2.0075 82.15344,-66.89649 z"
         style="fill:url(#linearGradient825);fill-opacity:1;stroke:none;stroke-width:0.32372054px;stroke-linecap:butt;stroke-linejoin:miter;stroke-opacity:1" />
      <path
         style="fill:url(#linearGradient834);fill-opacity:1;stroke:none;stroke-width:0.32372054px;stroke-linecap:butt;stroke-linejoin:miter;stroke-opacity:1"
         d="m -207.80498,143.51642 -5.92811,5.63944 -2.7445,6.699 12.4025,13.51349 6.413,-2.0075 5.94219,-4.69741 z"
         id="path827"
         inkscape:connector-curvature="0"
         sodipodi:nodetypes="ccccccc" />
      <path
         sodipodi:nodetypes="ccccc"
         inkscape:connector-curvature="0"
         id="path836"
         d="m -209.21321,144.89124 -2.90818,2.71476 16.11854,18.2972 3.09937,-2.36742 z"
         style="fill:url(#linearGradient851);fill-opacity:1;stroke:none;stroke-width:0.32372054px;stroke-linecap:butt;stroke-linejoin:miter;stroke-opacity:1" />
      <path
         style="fill:url(#linearGradient855);fill-opacity:1;stroke:none;stroke-width:0.36445203px;stroke-linecap:butt;stroke-linejoin:miter;stroke-opacity:1"
         d="m -137.79972,77.744723 -2.88696,2.738901 20.42318,23.197186 3.1465,-2.31377 z"
         id="path853"
         inkscape:connector-curvature="0"
         sodipodi:nodetypes="ccccc" />
      <path
         sodipodi:nodetypes="ccccc"
         inkscape:connector-curvature="0"
         id="path883"
         d="m -122.65146,45.748152 -2.79909,2.838919 38.256672,43.497114 3.341759,-2.0915 z"
         style="fill:url(#linearGradient885);fill-opacity:1;stroke:none;stroke-width:0.49894971px;stroke-linecap:butt;stroke-linejoin:miter;stroke-opacity:1" />
      <path
         inkscape:connector-curvature="0"
         id="path887"
         d="m -122.5382,45.357003 38.746508,43.866244"
         style="fill:none;stroke:#949494;stroke-width:0.32372054px;stroke-linecap:butt;stroke-linejoin:miter;stroke-opacity:1" />
      <path
         inkscape:connector-curvature="0"
         id="path889"
         d="m -125.44025,48.746396 38.315638,43.614801"
         style="fill:none;stroke:#5a5a5a;stroke-width:0.32372054px;stroke-linecap:butt;stroke-linejoin:miter;stroke-opacity:1" />
    </g>
    <path
       style="fill:url(#radialGradient1178);fill-opacity:1;stroke:none;stroke-width:0.26458332;stroke-opacity:1"
       d="m 29.940829,277.45063 c 1.158298,3.08013 0.679668,6.11017 -1.06905,6.76778 -1.748719,0.65762 -5.050262,-1.11723 -6.208563,-4.19736 -1.158298,-3.08013 0.265273,-6.29916 2.013991,-6.95677 1.748719,-0.65762 4.105324,1.30622 5.263622,4.38635 z"
       id="path4748"
       inkscape:connector-curvature="0"
       sodipodi:nodetypes="sssss" />
    <path
       style="fill:#ffffff;fill-opacity:0.14084509;stroke:none;stroke-width:0.26458332px;stroke-linecap:butt;stroke-linejoin:miter;stroke-opacity:1"
       d="m 44.7679,236.20212 -1.889881,-2.26786 c 3.856667,-1.78447 8.247721,-2.65171 12.473215,2.17337 3.89701,4.44998 1.992613,8.80966 0.566963,12.85119 l -0.566963,-0.37798 c 1.344243,-3.55928 1.692356,-7.57947 -1.511906,-11.33928 -2.823234,-3.31272 -6.327535,-2.3267 -9.071428,-1.03944 z"
       id="path1193"
       inkscape:connector-curvature="0"
       sodipodi:nodetypes="ccsccsc" />
  </g>
</svg>
