<?xml version="1.0" encoding="UTF-8" standalone="no"?>
<!-- Created with Inkscape (http://www.inkscape.org/) -->
<svg xmlns:a="http://ns.adobe.com/AdobeSVGViewerExtensions/3.0/" xmlns:dc="http://purl.org/dc/elements/1.1/" xmlns:cc="http://creativecommons.org/ns#" xmlns:rdf="http://www.w3.org/1999/02/22-rdf-syntax-ns#" xmlns:svg="http://www.w3.org/2000/svg" xmlns="http://www.w3.org/2000/svg" xmlns:xlink="http://www.w3.org/1999/xlink" xmlns:sodipodi="http://sodipodi.sourceforge.net/DTD/sodipodi-0.dtd" xmlns:inkscape="http://www.inkscape.org/namespaces/inkscape" id="svg2" version="1.1" inkscape:version="0.92.5 (2060ec1f9f, 2020-04-08)" width="256" height="256" sodipodi:docname="locale.svg">
 <metadata id="metadata8">
  <rdf:RDF>
   <cc:Work>
    <dc:format>image/svg+xml</dc:format>
    <dc:type rdf:resource="http://purl.org/dc/dcmitype/StillImage"/>
    <dc:title/>
   </cc:Work>
  </rdf:RDF>
 </metadata>
 <defs id="defs6">
  <linearGradient id="linearGradient931">
   <stop stop-opacity="0.28" stop-color="#bcb7b7" id="stop927"/>
   <stop stop-opacity="0.581" stop-color="#ffffff" id="stop929" offset="1"/>
  </linearGradient>
  <linearGradient id="linearGradient925">
   <stop id="stop921" stop-color="#ff3030" stop-opacity="1"/>
   <stop offset="1" id="stop923" stop-color="#ffffff" stop-opacity="1"/>
  </linearGradient>
  <linearGradient id="linearGradient917">
   <stop id="stop913" stop-color="#bcb7b7" stop-opacity="0.333"/>
   <stop offset="1" id="stop915" stop-color="#ffffff" stop-opacity="0.591"/>
  </linearGradient>
  <linearGradient inkscape:collect="always" id="linearGradient901">
   <stop id="stop897" stop-color="#5f5f5f" stop-opacity="1"/>
   <stop offset="1" id="stop899" stop-color="#ffffff" stop-opacity="0.952"/>
  </linearGradient>
  <linearGradient id="linearGradient4489">
   <stop stop-opacity="1" stop-color="#bcb7b7" id="stop4491"/>
   <stop stop-opacity="1" stop-color="#ffffff" id="stop4493" offset="1"/>
  </linearGradient>
  <linearGradient id="linearGradient3785">
   <stop id="stop3787" stop-color="#c2c2c2" stop-opacity="1"/>
   <stop offset="1" id="stop3789" stop-color="#ffffff" stop-opacity="1"/>
  </linearGradient>
  <linearGradient id="linearGradient3775">
   <stop id="stop3777" stop-color="#ffffff" stop-opacity="1"/>
   <stop id="stop3779" offset="1" stop-color="#434343" stop-opacity="1"/>
  </linearGradient>
  <linearGradient id="linearGradient3757">
   <stop id="stop3759" stop-color="#144754" stop-opacity="1"/>
   <stop offset="1" id="stop3761" stop-color="#ffffff" stop-opacity="1"/>
  </linearGradient>
  <linearGradient inkscape:collect="always" xlink:href="#linearGradient3785" id="linearGradient3346" gradientUnits="userSpaceOnUse" gradientTransform="matrix(-0.76044358,0,0,0.76044358,189.35356,33.260414)" x1="136.75" y1="195.47" x2="151.84" y2="177.86"/>
  <linearGradient inkscape:collect="always" xlink:href="#linearGradient4489" id="linearGradient3350" gradientUnits="userSpaceOnUse" gradientTransform="matrix(-0.76044358,0,0,0.76044358,189.35356,33.260414)" spreadMethod="reflect" x1="32.56" y1="167.07" x2="77.21" y2="129.51"/>
  <linearGradient inkscape:collect="always" xlink:href="#linearGradient3757" id="linearGradient3374" gradientUnits="userSpaceOnUse" gradientTransform="matrix(0.76044358,0,0,0.76044358,-245.46533,-9.1881296)" spreadMethod="reflect" x1="187.44" y1="136.9" x2="191.33" y2="136.9"/>
  <radialGradient inkscape:collect="always" xlink:href="#linearGradient3775" id="radialGradient3376" gradientUnits="userSpaceOnUse" spreadMethod="reflect" cx="119.08" cy="8.02" fx="119.08" fy="8.02" r="8.987" gradientTransform="matrix(0.76044358,0,0,0.76044358,-179.59027,35.457153)"/>
  <linearGradient inkscape:collect="always" xlink:href="#linearGradient901" id="linearGradient903" x1="-127.75" y1="107.01" x2="-116.52" y2="107.39" gradientUnits="userSpaceOnUse" gradientTransform="translate(19.211655,20.865204)"/>
  <linearGradient inkscape:collect="always" xlink:href="#linearGradient917" id="linearGradient907" gradientUnits="userSpaceOnUse" gradientTransform="matrix(-0.76044358,0,0,0.76044358,344.82483,24.86961)" x1="32.56" y1="167.07" x2="80.71" y2="125.2" spreadMethod="reflect"/>
  <filter inkscape:collect="always" id="filter944" x="-0.026" width="1.052" y="-0.022" height="1.045" color-interpolation-filters="sRGB">
   <feGaussianBlur inkscape:collect="always" stdDeviation="2.06922" id="feGaussianBlur946"/>
  </filter>
  <linearGradient inkscape:collect="always" xlink:href="#linearGradient3757" id="linearGradient970" gradientUnits="userSpaceOnUse" gradientTransform="matrix(0.76044358,0,0,0.76044358,-281.82651,-39.078266)" x1="187.44" y1="136.9" x2="191.33" y2="136.9" spreadMethod="reflect"/>
  <linearGradient inkscape:collect="always" xlink:href="#linearGradient901" id="linearGradient972" gradientUnits="userSpaceOnUse" gradientTransform="translate(-17.149524,-9.0249321)" x1="-127.75" y1="107.01" x2="-116.52" y2="107.39"/>
  <linearGradient inkscape:collect="always" xlink:href="#linearGradient3785" id="linearGradient974" gradientUnits="userSpaceOnUse" gradientTransform="matrix(-0.76044358,0,0,0.76044358,234.68689,20.593747)" x1="136.75" y1="195.47" x2="151.84" y2="177.86"/>
  <linearGradient inkscape:collect="always" xlink:href="#linearGradient925" id="linearGradient976" gradientUnits="userSpaceOnUse" gradientTransform="matrix(-0.76044358,0,0,0.76044358,234.68689,20.593747)" x1="32.56" y1="167.07" x2="77.21" y2="129.51" spreadMethod="reflect"/>
  <radialGradient inkscape:collect="always" xlink:href="#linearGradient3775" id="radialGradient978" gradientUnits="userSpaceOnUse" gradientTransform="matrix(0.76044358,0,0,0.76044358,-224.9236,22.790486)" cx="119.08" cy="8.02" fx="119.08" fy="8.02" r="8.987" spreadMethod="reflect"/>
  <linearGradient inkscape:collect="always" xlink:href="#linearGradient931" id="linearGradient980" gradientUnits="userSpaceOnUse" gradientTransform="matrix(-0.76044358,0,0,0.76044358,234.57701,21.151487)" x1="32.56" y1="167.07" x2="80.71" y2="125.2" spreadMethod="reflect"/>
 </defs>
 <sodipodi:namedview pagecolor="#000aff" bordercolor="#666666" borderopacity="1" objecttolerance="10" gridtolerance="10" guidetolerance="10" inkscape:pageopacity="0" inkscape:pageshadow="2" inkscape:window-width="1920" inkscape:window-height="1056" id="namedview4" showgrid="false" inkscape:zoom="3.4414062" inkscape:cx="128" inkscape:cy="128" inkscape:window-x="0" inkscape:window-y="0" inkscape:window-maximized="1" inkscape:current-layer="svg2" inkscape:snap-to-guides="false" inkscape:snap-grids="false" inkscape:snap-others="false" inkscape:object-nodes="false" inkscape:snap-nodes="false" inkscape:snap-global="false"/>
 <rect transform="matrix(-0.91488648,-0.40371119,-0.40371119,0.91488648,0,0)" y="-24.19" x="-141.23" height="178.42" width="6.349" id="rect948" stroke-opacity="1" fill="url(#linearGradient970)" stroke="url(#linearGradient972)" fill-opacity="1" stroke-width="0.76"/>
 <path transform="matrix(-0.90056614,0,0,0.90056614,285.01878,24.254076)" inkscape:connector-curvature="0" id="path950" d="m 158.70496,14.523314 c -4.19123,0 -7.59375,3.40252 -7.59375,7.59375 0,4.044636 3.16826,7.336213 7.15625,7.5625 l 3.71875,7.96875 c -39.20722,30.159096 -55.12908,55.709473 -52.875,77.968746 0.52027,5.13773 2.51293,10.18959 8.125,11.65625 -19.824678,24.99309 -40.325828,42.97053 -62.312498,46.34375 15.79124,24.48587 58.034358,28.65757 71.812498,62.59375 23.95308,-11.44539 46.54655,-28.3236 57.71875,-60.6875 1.79746,-5.20692 0.93104,-7.65679 -0.9375,-8.15625 h -0.0313 l -7.5,-9.375 c 7.64134,-9.90272 18.08066,-17.90885 29.875,-24.75 l -15.625,-34.874996 50.46875,108.406246 6.375,-2.96875 -82.40625,-176.999996 c 1.02427,-1.293629 1.625,-2.909332 1.625,-4.6875 0,-4.19123 -3.40252,-7.59375 -7.59375,-7.59375 z" fill="#000000" filter="url(#filter944)" stroke="none" fill-opacity="0.591"/>
 <path sodipodi:nodetypes="ccccc" inkscape:connector-curvature="0" id="path952" d="m 143.77415,162.91018 -17.59234,-15.09538 -12.48067,13.73339 16.33963,17.93285 z" stroke-opacity="1" fill="url(#linearGradient974)" stroke="none" fill-opacity="1" stroke-width="0.76"/>
 <path sodipodi:nodetypes="cscccsssscc" inkscape:connector-curvature="0" id="path954" d="m 133.39281,44.269713 c 35.83592,27.401476 50.37199,50.60166 48.32826,70.783807 -0.46854,4.62687 -3.15119,7.70345 -5.55695,11.67254 17.85344,22.50793 34.57292,37.52323 54.37337,40.56103 -14.22105,22.05114 -52.27363,25.8212 -64.68176,56.38298 -21.57133,-10.30733 -41.9282,-25.52857 -51.98949,-54.6744 -3.47187,-10.05742 4.18203,-8.61595 7.81062,-3.17307 l 4.88165,7.32246 c 7.2796,10.9194 4.5211,-1.28597 3.90531,-3.17306 -5.61992,-17.22226 -19.29038,-29.43052 -35.880071,-39.05315 z" stroke-opacity="0.401" fill="url(#linearGradient976)" stroke="#3caad1" stroke-linejoin="miter" fill-opacity="1" stroke-linecap="butt" stroke-width="0.76"/>
 <path inkscape:connector-curvature="0" id="path956" d="m 179.25572,122.46109 -47.99687,55.30074" fill="none" stroke="none"/>
 <path sodipodi:nodetypes="cc" inkscape:connector-curvature="0" id="path958" d="M 179.80419,121.81532 131.6313,177.21415" stroke-opacity="0.264" fill="none" stroke="#3b8aa0" stroke-linejoin="miter" stroke-linecap="butt" stroke-width="0.76"/>
 <circle transform="scale(-1,1)" id="circle960" cx="-137.05" cy="30.845" r="6.834" fill="url(#radialGradient978)" stroke="none" fill-opacity="1"/>
 <path sodipodi:nodetypes="ccccccc" inkscape:connector-curvature="0" id="path962" d="m 134.361,43.749112 c 19.00919,18.015139 61.11197,50.923055 40.56883,81.752338 14.16381,20.66523 37.17126,38.28974 53.68199,40.56884 -4.42066,7.5612 -13.54589,13.24057 -23.35781,18.64527 -19.45175,-11.10446 -36.47394,-25.44832 -49.37924,-45.28137 23.32773,-37.78331 -7.06186,-53.813016 -31.34864,-75.195769 z" stroke-opacity="1" fill="#000000" stroke="none" stroke-linejoin="miter" fill-opacity="1" stroke-linecap="butt" stroke-width="1"/>
 <path d="m 111.61787,96.406637 c 19.00919,18.015143 52.09667,36.580533 31.55353,67.409813 14.16381,20.66523 23.03364,33.37231 39.54437,35.65141 -6.46619,5.34521 -11.93386,9.57435 -17.41591,19.66974 -19.45175,-11.10446 -28.68801,-14.3841 -41.59331,-34.21715 -13.77695,-28.61097 -9.40302,-23.81294 3.20974,-13.34816 21.12827,17.53008 -3.75138,-31.97623 -29.43605,-44.22679 z" id="path964" inkscape:connector-curvature="0" sodipodi:nodetypes="cccccscc" stroke-opacity="1" fill="#eeff00" stroke="none" stroke-linejoin="miter" fill-opacity="1" stroke-linecap="butt" stroke-width="1"/>
 <path d="m 133.28293,44.827453 c 35.83592,27.401476 50.37199,50.601657 48.32826,70.783817 -0.46854,4.62687 -3.15119,7.70345 -5.55695,11.67254 17.85344,22.50793 34.8635,37.52323 54.66395,40.56103 -14.22105,22.05114 -52.56421,25.8212 -64.97234,56.38298 -21.57133,-10.30733 -41.9282,-25.52857 -51.98949,-54.6744 -3.47187,-10.05742 4.18203,-8.61595 7.81062,-3.17307 l 4.88165,7.32246 c 7.2796,10.9194 4.5211,-1.28597 3.90531,-3.17306 -5.61992,-17.22226 -19.29038,-29.43052 -35.880074,-39.05315 z" id="path966" inkscape:connector-curvature="0" sodipodi:nodetypes="cscccsssscc" stroke-opacity="0.401" fill="url(#linearGradient980)" stroke="#3caad1" stroke-linejoin="miter" fill-opacity="1" stroke-linecap="butt" stroke-width="0.76"/>
 <rect id="rect2987" width="6.349" height="178.42" x="-104.87" y="5.7" transform="matrix(-0.91488648,-0.40371119,-0.40371119,0.91488648,0,0)" stroke-opacity="1" fill="url(#linearGradient3374)" stroke="url(#linearGradient903)" fill-opacity="1" stroke-width="0.76"/>
 <path d="m 158.70496,14.523314 c -4.19123,0 -7.59375,3.40252 -7.59375,7.59375 0,4.044636 3.16826,7.336213 7.15625,7.5625 l 3.71875,7.96875 c -39.20722,30.159096 -55.12908,55.709473 -52.875,77.968746 0.52027,5.13773 2.51293,10.18959 8.125,11.65625 -19.824678,24.99309 -40.325828,42.97053 -62.312498,46.34375 15.79124,24.48587 58.034358,28.65757 71.812498,62.59375 23.95308,-11.44539 46.54655,-28.3236 57.71875,-60.6875 1.79746,-5.20692 0.93104,-7.65679 -0.9375,-8.15625 h -0.0313 l -7.5,-9.375 c 7.64134,-9.90272 18.08066,-17.90885 29.875,-24.75 l -15.625,-34.874996 50.46875,108.406246 6.375,-2.96875 -82.40625,-176.999996 c 1.02427,-1.293629 1.625,-2.909332 1.625,-4.6875 0,-4.19123 -3.40252,-7.59375 -7.59375,-7.59375 z" id="path30238" inkscape:connector-curvature="0" transform="matrix(-0.90056614,0,0,0.90056614,239.68545,36.920743)" fill="#000000" filter="url(#filter944)" stroke="none" fill-opacity="0.591"/>
 <path d="M 98.44082,175.57685 80.84848,160.48147 68.367805,174.21486 84.70744,192.14771 Z" id="rect3859" inkscape:connector-curvature="0" sodipodi:nodetypes="ccccc" stroke-opacity="1" fill="url(#linearGradient3346)" stroke="none" fill-opacity="1" stroke-width="0.76"/>
 <path d="m 88.05948,56.93638 c 35.83592,27.401476 50.37199,50.60166 48.32826,70.78381 -0.46854,4.62687 -3.15119,7.70345 -5.55695,11.67254 17.85344,22.50793 34.57292,37.52323 54.37337,40.56103 -14.22105,22.05114 -52.27363,25.8212 -64.68176,56.38298 -21.57133,-10.30733 -41.9282,-25.52857 -51.989495,-54.6744 -3.471871,-10.05742 4.182031,-8.61595 7.810625,-3.17307 l 4.88165,7.32246 c 7.2796,10.9194 4.5211,-1.28597 3.90531,-3.17306 -5.61992,-17.22226 -19.290385,-29.43052 -35.880074,-39.05315 z" id="path3781" inkscape:connector-curvature="0" sodipodi:nodetypes="cscccsssscc" stroke-opacity="0.401" fill="url(#linearGradient3350)" stroke="#3caad1" stroke-linejoin="miter" fill-opacity="1" stroke-linecap="butt" stroke-width="0.76"/>
 <path d="M 133.92239,135.12776 85.92552,190.4285" id="path3849" inkscape:connector-curvature="0" fill="none" stroke="none"/>
 <path d="M 134.47086,134.48199 86.29797,189.88082" id="path3851" inkscape:connector-curvature="0" sodipodi:nodetypes="cc" stroke-opacity="0.264" fill="none" stroke="#3b8aa0" stroke-linejoin="miter" stroke-linecap="butt" stroke-width="0.76"/>
 <circle r="6.834" cy="43.512" cx="-91.72" id="path3765" transform="scale(-1,1)" fill="url(#radialGradient3376)" stroke="none" fill-opacity="1"/>
 <g id="g922" transform="translate(-155,6.3333333)">
  <path sodipodi:nodetypes="ccccccc" inkscape:connector-curvature="0" id="path909" d="m 244.02767,50.082445 c 19.00919,18.015139 61.11197,50.923055 40.56883,81.752335 14.16381,20.66523 37.17126,38.28974 53.68199,40.56884 -4.42066,7.5612 -13.54589,13.24057 -23.35781,18.64527 -19.45175,-11.10446 -36.47394,-25.44832 -49.37924,-45.28137 23.32773,-37.78331 -7.06186,-53.813013 -31.34864,-75.195766 z" stroke-opacity="1" fill="#ff0000" stroke="none" stroke-linejoin="miter" fill-opacity="1" stroke-linecap="butt" stroke-width="1"/>
  <path d="m 221.28454,102.73997 c 19.00919,18.01514 52.09667,36.58053 31.55353,67.40981 14.16381,20.66523 23.03364,33.37231 39.54437,35.65141 -6.46619,5.34521 -11.93386,9.57435 -17.41591,19.66974 -19.45175,-11.10446 -28.68801,-14.3841 -41.59331,-34.21715 -13.77695,-28.61097 -9.40302,-23.81294 3.20974,-13.34816 21.12827,17.53008 -3.75138,-31.97623 -29.43605,-44.22679 z" id="path911" inkscape:connector-curvature="0" sodipodi:nodetypes="cccccscc" stroke-opacity="1" fill="#00ff0a" stroke="none" stroke-linejoin="miter" fill-opacity="1" stroke-linecap="butt" stroke-width="1"/>
  <path d="m 243.53075,48.545576 c 35.83592,27.401476 50.37199,50.601657 48.32826,70.783814 -0.46854,4.62687 -3.15119,7.70345 -5.55695,11.67254 17.85344,22.50793 34.57292,37.52323 54.37337,40.56103 -14.22105,22.05114 -52.27363,25.8212 -64.68176,56.38298 -21.57133,-10.30733 -41.9282,-25.52857 -51.98949,-54.6744 -3.47187,-10.05742 4.18203,-8.61595 7.81062,-3.17307 l 4.88165,7.32246 c 7.2796,10.9194 4.5211,-1.28597 3.90531,-3.17306 -5.61992,-17.22226 -19.29038,-29.43052 -35.88007,-39.05315 z" id="path905" inkscape:connector-curvature="0" sodipodi:nodetypes="cscccsssscc" stroke-opacity="0.401" fill="url(#linearGradient907)" stroke="#3caad1" stroke-linejoin="miter" fill-opacity="1" stroke-linecap="butt" stroke-width="0.76"/>
 </g>
</svg>
