<?xml version="1.0" encoding="UTF-8" standalone="no"?>
<svg xmlns="http://www.w3.org/2000/svg" xmlns:xlink="http://www.w3.org/1999/xlink" width="128" height="128" enable-background="new" version="1.0">
  <defs>
    <path id="n" fill-rule="evenodd" d="m19.5638 14.130453 4.00257 5.14616V177.664l-5.71796 9.72053L19.5638 14.130453z" filter="url(#a)" opacity=".4"/>
    <path id="F" fill="#3bff06" stroke="#1f5000" stroke-width=".82687408" d="M-50.027806 42.280624c0 1.122758-.910174 2.032932-2.032932 2.032932-1.122757 0-2.032932-.910174-2.032932-2.032932 0-1.122757.910175-2.032932 2.032932-2.032932 1.122758 0 2.032932.910175 2.032932 2.032932z" enable-background="new" overflow="visible" style="marker:none"/>
  </defs>
  <defs>
    <linearGradient id="h">
      <stop offset="0" stop-color="#969696"/>
      <stop offset="1" stop-color="#969696" stop-opacity="0"/>
    </linearGradient>
    <linearGradient id="g">
      <stop offset="0" stop-color="#515151"/>
      <stop offset=".17119408" stop-color="#d2d2d2"/>
      <stop offset=".90192693" stop-color="#f0f0f0"/>
      <stop offset="1" stop-color="#fff"/>
    </linearGradient>
    <linearGradient id="j">
      <stop offset="0" stop-color="#fff"/>
      <stop offset="1" stop-color="#fff" stop-opacity="0"/>
    </linearGradient>
    <linearGradient id="i">
      <stop offset="0" stop-color="#282828"/>
      <stop offset="1" stop-color="#3c3c3c"/>
    </linearGradient>
    <linearGradient xlink:href="#b" id="w" x1="81.683823" x2="83.625" y1="99.397057" y2="104.07353" gradientUnits="userSpaceOnUse"/>
    <linearGradient xlink:href="#b" id="v" x1="81.683823" x2="83.625" y1="99.397057" y2="104.07353" gradientUnits="userSpaceOnUse"/>
    <linearGradient xlink:href="#b" id="u" x1="81.683823" x2="83.625" y1="99.397057" y2="104.07353" gradientUnits="userSpaceOnUse"/>
    <linearGradient xlink:href="#b" id="t" x1="81.683823" x2="83.625" y1="99.397057" y2="104.07353" gradientUnits="userSpaceOnUse"/>
    <linearGradient xlink:href="#b" id="s" x1="81.683823" x2="83.625" y1="99.397057" y2="104.07353" gradientUnits="userSpaceOnUse"/>
    <linearGradient id="c">
      <stop offset="0"/>
      <stop offset=".45918366" stop-color="#959595"/>
      <stop offset=".70238096" stop-color="#545454"/>
      <stop offset="1"/>
    </linearGradient>
    <linearGradient xlink:href="#c" id="r" x1="44.038097" x2="92.038094" y1="120.68687" y2="121.81187" gradientTransform="translate(-3.7474788 -14.199785) scale(1.08829)" gradientUnits="userSpaceOnUse"/>
    <linearGradient id="d">
      <stop offset="0" stop-color="#d4d2d1"/>
      <stop offset=".30498865" stop-color="#141414"/>
      <stop offset=".70238096"/>
      <stop offset="1" stop-color="#c4c1c0"/>
    </linearGradient>
    <linearGradient xlink:href="#d" id="q" x1="36.913097" x2="89.163094" y1="121.81187" y2="121.81187" gradientTransform="translate(-3.7474788 -14.199785) scale(1.08829)" gradientUnits="userSpaceOnUse"/>
    <linearGradient xlink:href="#e" id="m" x1="229.03549" x2="-9.2803907" y1="191.12927" y2="-29.825743" gradientUnits="userSpaceOnUse"/>
    <linearGradient xlink:href="#f" id="l" x1="17.717955" x2="239.95963" y1="102.33291" y2="102.33291" gradientTransform="matrix(.57579 0 0 .47806 -7.1841067 6.7096787)" gradientUnits="userSpaceOnUse"/>
    <linearGradient id="b">
      <stop offset="0" stop-color="#656565"/>
      <stop offset="1" stop-color="#656565" stop-opacity="0"/>
    </linearGradient>
    <linearGradient id="f">
      <stop offset="0" stop-color="#d5d5d1"/>
      <stop offset=".5" stop-color="#e2e2e1"/>
      <stop offset="1" stop-color="#d0d0cb"/>
    </linearGradient>
    <linearGradient id="e">
      <stop offset="0" stop-color="#6b0c0c"/>
      <stop offset=".34998089" stop-color="#862c0f"/>
      <stop offset=".69996178" stop-color="#a14c13"/>
      <stop offset="1" stop-color="#ed9c65"/>
    </linearGradient>
    <linearGradient xlink:href="#g" id="x" x1="-95.203232" x2="-95.002983" y1="83.581444" y2="32.534554" gradientTransform="matrix(.99817 0 .21094 .46411 148.38886 93.208682)" gradientUnits="userSpaceOnUse"/>
    <linearGradient xlink:href="#h" id="ab" x1="71.108246" x2="81.58284" y1="125.10762" y2="125.69306" gradientTransform="matrix(-1.14254 0 .22446 .78736 158.4338 20.135077)" gradientUnits="userSpaceOnUse"/>
    <linearGradient xlink:href="#h" id="aa" x1="71.108246" x2="85.942123" y1="125.10762" y2="125.59331" gradientTransform="matrix(-1.17063 0 .22997 .78736 164.72131 18.140439)" gradientUnits="userSpaceOnUse"/>
    <linearGradient xlink:href="#h" id="Z" x1="71.108246" x2="84.456436" y1="125.10762" y2="125.59332" gradientTransform="matrix(-1.24323 0 .24424 .78736 168.58568 22.366427)" gradientUnits="userSpaceOnUse"/>
    <linearGradient xlink:href="#h" id="Y" x1="71.108246" x2="81.58284" y1="125.10762" y2="125.69306" gradientTransform="matrix(-1.2251 0 .24067 .78736 163.02062 24.810638)" gradientUnits="userSpaceOnUse"/>
    <linearGradient xlink:href="#h" id="X" x1="71.108246" x2="81.58284" y1="125.10762" y2="125.69306" gradientTransform="matrix(-1.42806 0 .28055 .78736 176.16178 27.180014)" gradientUnits="userSpaceOnUse"/>
    <linearGradient xlink:href="#h" id="W" x1="74.685432" x2="81.58284" y1="125.00787" y2="125.69306" gradientTransform="matrix(-.95006 0 .18254 .78736 139.40426 24.621872)" gradientUnits="userSpaceOnUse"/>
    <linearGradient xlink:href="#h" id="V" x1="71.108246" x2="81.58284" y1="125.10762" y2="125.69306" gradientTransform="matrix(-1.27409 0 .2503 .78736 145.92328 27.180017)" gradientUnits="userSpaceOnUse"/>
    <linearGradient xlink:href="#h" id="U" x1="71.108246" x2="81.58284" y1="125.10762" y2="125.69306" gradientTransform="matrix(-1.2251 0 .24067 .78736 142.19207 17.87069)" gradientUnits="userSpaceOnUse"/>
    <linearGradient xlink:href="#h" id="T" x1="71.108246" x2="81.58284" y1="125.10762" y2="125.69306" gradientTransform="matrix(-1.2251 0 .24067 .78736 142.46182 19.936392)" gradientUnits="userSpaceOnUse"/>
    <linearGradient xlink:href="#h" id="S" x1="71.108246" x2="81.58284" y1="125.10762" y2="125.69306" gradientTransform="matrix(-1.2251 0 .24067 .78736 141.56268 13.56304)" gradientUnits="userSpaceOnUse"/>
    <linearGradient xlink:href="#h" id="R" x1="71.108246" x2="81.58284" y1="125.10762" y2="125.69306" gradientTransform="matrix(-1.0935 0 .21482 .78028 118.38549 14.443052)" gradientUnits="userSpaceOnUse"/>
    <linearGradient xlink:href="#h" id="Q" x1="71.108246" x2="81.58284" y1="125.10762" y2="125.69306" gradientTransform="matrix(-.94472 0 .0986 .78028 102.34191 14.443052)" gradientUnits="userSpaceOnUse"/>
    <linearGradient xlink:href="#h" id="P" x1="71.108246" x2="81.58284" y1="125.10762" y2="125.69306" gradientTransform="matrix(-.94472 0 .0986 .78028 83.143345 14.443052)" gradientUnits="userSpaceOnUse"/>
    <linearGradient xlink:href="#h" id="O" x1="71.108246" x2="81.58284" y1="125.10762" y2="125.69306" gradientTransform="matrix(-.95006 0 0 .78736 87.008302 13.38626)" gradientUnits="userSpaceOnUse"/>
    <linearGradient xlink:href="#h" id="N" x1="40.539223" x2="105.62164" y1="125.69047" y2="125.69047" gradientTransform="matrix(-.99913 0 0 .784 89.606206 18.051995)" gradientUnits="userSpaceOnUse"/>
    <linearGradient xlink:href="#h" id="M" x1="48.35812" x2="-20.098471" y1="125.69047" y2="125.93271" gradientTransform="matrix(.9851 0 0 .78685 1.1053375 19.832554)" gradientUnits="userSpaceOnUse"/>
    <linearGradient xlink:href="#h" id="L" x1="42.68438" x2="105.62164" y1="125.69047" y2="125.69047" gradientTransform="matrix(-.99633 0 0 .78685 89.569766 22.069092)" gradientUnits="userSpaceOnUse"/>
    <linearGradient xlink:href="#h" id="K" x1="49.410591" x2="-20.098471" y1="125.69047" y2="125.93271" gradientTransform="matrix(.99633 0 0 .78685 .2192254 24.40729)" gradientUnits="userSpaceOnUse"/>
    <linearGradient xlink:href="#h" id="J" x1="53.916889" x2="-19.921694" y1="125.93271" y2="125.93271" gradientTransform="translate(-.4189084 -2.2793892) scale(1.01727)" gradientUnits="userSpaceOnUse"/>
    <linearGradient xlink:href="#i" id="E" x1="-100.71291" x2="-110.81818" y1="154.85706" y2="145.00957" gradientTransform="matrix(.97478 0 .03257 .24844 186.0361 74.42147)" gradientUnits="userSpaceOnUse"/>
    <linearGradient xlink:href="#i" id="D" x1="-100.71291" x2="-110.81818" y1="154.85706" y2="145.00957" gradientTransform="matrix(.99818 0 .06057 .46411 185.31033 47.822391)" gradientUnits="userSpaceOnUse"/>
    <linearGradient xlink:href="#i" id="C" x1="-109.4416" x2="-108.59733" y1="50.297825" y2="77.927299" gradientTransform="matrix(.81942 0 -.03848 .32956 140.16061 93.294268)" gradientUnits="userSpaceOnUse"/>
    <linearGradient xlink:href="#i" id="B" x1="-150.24213" x2="-150.24213" y1="45.547157" y2="38.03389" gradientTransform="matrix(.99818 0 -.0897 .46411 168.93123 92.216419)" gradientUnits="userSpaceOnUse"/>
    <linearGradient xlink:href="#i" id="A" x1="-51.481007" x2="-53.701122" y1="144.45374" y2="171.15465" gradientTransform="matrix(.99747 0 .08294 .48069 151.65244 44.715014)" gradientUnits="userSpaceOnUse"/>
    <linearGradient xlink:href="#i" id="z" x1="-57.401001" x2="-67.256264" y1="77.517258" y2="68.513512" gradientTransform="matrix(.99818 0 .06057 .46411 147.22382 90.8957)" gradientUnits="userSpaceOnUse"/>
    <linearGradient xlink:href="#i" id="y" x1="-109.4416" x2="-108.59733" y1="50.297825" y2="77.927299" gradientTransform="matrix(.99818 0 -.04688 .46411 167.37583 90.813667)" gradientUnits="userSpaceOnUse"/>
    <linearGradient xlink:href="#j" id="G" x1="-52.060738" x2="-52.060738" y1="40.247692" y2="44.313557" gradientUnits="userSpaceOnUse"/>
    <linearGradient xlink:href="#j" id="H" x1="-52.060738" x2="-52.060738" y1="40.247692" y2="44.313557" gradientUnits="userSpaceOnUse"/>
    <linearGradient xlink:href="#j" id="I" x1="-52.060738" x2="-52.060738" y1="40.247692" y2="44.313557" gradientUnits="userSpaceOnUse"/>
    <filter id="p" width="1.0495118" height="2.5719993" x="-.02475591" y="-.78599972" color-interpolation-filters="sRGB">
      <feGaussianBlur stdDeviation="2.2471568"/>
    </filter>
    <filter id="a" width="2.7784989" height="1.0586964" x="-.88924938" y="-.02934818" color-interpolation-filters="sRGB">
      <feGaussianBlur stdDeviation="2.1186219"/>
    </filter>
    <filter id="o" width="1.8759423" height="1.4562656" x="-.43797117" y="-.22813281" color-interpolation-filters="sRGB">
      <feGaussianBlur stdDeviation="2.4122631"/>
    </filter>
    <filter id="k" width="1.0378006" height="1.7557592" x="-.0189003" y="-.37787962" color-interpolation-filters="sRGB">
      <feGaussianBlur stdDeviation=".42624116"/>
    </filter>
  </defs>
  <g transform="translate(-.1341752 -10.7131259) scale(.95028)">
    <path fill-rule="evenodd" d="M37.413097 124.41789s.621631 1.62404 1.125 1.86113c16.013744 1.08107 33.195526 1.17404 51.874999 0 .50337-.23709 1.124999-1.86113 1.125001-1.86113-19.247998 1.95222-36.492967.72469-54.125 0z" filter="url(#k)" opacity=".7" transform="matrix(1.11673 0 0 1.72788 -5.5808798 -94.930107)"/>
    <path d="M56.766077 99.147486H76.46156l.57928 17.378364c-3.456235.52745-11.140271.92993-21.240227-.1931l.965464-17.185264z"/>
    <rect width="127.50394" height="88.219208" x="3.2480333" y="11.521634" fill="url(#l)" stroke="#797979" stroke-dashoffset="1.26169998" stroke-linecap="round" stroke-width=".49599999" rx="2.2455792" ry="2.2455792"/>
    <path fill="#585954" d="m10.003417 13.612846-.2245935.227145h-.8488027v.676412h.7338748l-.2245938.227223H9.157244l-.2272232-.17239v1.13086H8.647963v-2.08925h1.355454zm1.673217 1.862026-.224594.227224h-1.13086l-.224594-.221964v-1.867286h.282058v1.862026h1.29799zm1.637352.227224h-.282057v-.95847h-.791339l-.224594-.17239v1.13086h-.282058v-1.862105l.224594-.227145h1.13086l.224594.227145v1.862105zm-.282057-1.185693v-.676412h-1.015933v.676412h1.015933zm2.348035-.903557-.224595.227145h-.564114v1.862105h-.282058v-1.862105h-.733875l.224594-.227145h1.580048zm1.461216 1.862026-.227145.227224h-1.355454v-2.08925h.958469l.227224.227145v.451817l-.227224.224595h.396985l.227145.227223v.731246zm-.678963-.958469v-.676412h-.621579v.676412h.621579zm.394355.958469v-.731246h-.79134l-.224594-.17239v.903636h1.015934zm2.110689 0-.227145.227224h-1.12823l-.227224-.221964v-1.867286h.282058v1.862026h1.015932v-1.862026h.284609v1.862026zm1.828393.227224h-.279508l-1.013302-1.687085v1.687085h-.279428v-1.854215l.336891-.339522.955839 1.632252v-1.527765h.279508v2.08925zm2.066216-2.08925-.224594.227145h-.564114v1.862105h-.282058v-1.862105h-.733876l.224594-.227145h1.580048zm1.461215 1.862026-.227143.227224h-1.12823l-.227225-.221964v-1.867286h.282058v1.862026h1.015933v-1.862026h.284607v1.862026z" font-family="Droid Sans" font-size="2.99965978" font-weight="400" style="-inkscape-font-specification:Droid Sans"/>
    <path fill="url(#m)" stroke="#5e1313" stroke-dashoffset="1.26169998" stroke-linecap="round" stroke-width="1.53255475" d="M27.84375 19.78125V184.875h202V19.78125h-202z" transform="matrix(.57392 0 0 .4581 -7.13588 7.1006047)"/>
    <use xlink:href="#n" fill-rule="evenodd" filter="url(#a)" opacity=".4" transform="matrix(.40305 0 0 .47806 -4.1761422 6.7096787)"/>
    <use xlink:href="#n" fill-rule="evenodd" filter="url(#a)" opacity=".4" transform="matrix(-.40305 0 0 .47806 138.17613 6.7096787)"/>
    <path fill="#464646" fill-rule="evenodd" d="m19.5638 14.130453 4.00257 5.14616V177.664l-5.71796 9.72053L19.5638 14.130453z" filter="url(#a)" opacity=".4" transform="matrix(0 .33464 -.6974 0 137.26921 5.3575458)"/>
    <path fill="#ccc" d="m122.125 197.68504-1.75 25.37746c4.59135 3.31854 9.08308 7.14379 13.21875-.0856l-1.75-25.29182H122.125v-.00004z" filter="url(#o)" opacity=".5" transform="matrix(.5755 0 0 .49943 -7.1476933 1.5431362)"/>
    <path fill="#605f5a" fill-rule="evenodd" d="m19.911721 191.56952 4.00257-3.43078 210.992589.5718 2.85897 3.43077-4.00257 2.85898-212.707969-.5718-1.14359-2.85897z" filter="url(#p)" opacity=".7" transform="matrix(.57579 0 0 .47806 -7.1841068 6.7096787)"/>
    <g fill="#585954" transform="translate(77.127586 76.816996) scale(.0614)">
      <circle cx="9.1239996" cy="46.903999" r="9.1239996" transform="translate(-210.30076 261.44294)"/>
      <circle cx="74.547997" cy="84.667" r="9.1239996" transform="translate(-210.30076 261.44294)"/>
      <circle cx="74.540001" cy="9.1260004" r="9.1239996" transform="translate(-210.30076 261.44294)"/>
      <path d="M-157.56176 285.76994c11.361 0 20.787 8.436 22.348 19.373h15.632c-.71-8.594-4.273-16.604-10.23-22.921-3.815 1.943-8.506 1.98-12.491-.32-3.988-2.303-6.302-6.387-6.524-10.667-2.831-.66-5.756-1.002-8.735-1.002-5.704 0-11.216 1.245-16.229 3.606l7.826 13.555c2.599-1.046 5.435-1.624 8.403-1.624zm-22.576 22.577c0-7.193 3.381-13.61 8.636-17.747l-7.824-13.553c-1.835 1.282-3.571 2.733-5.188 4.349-4.528 4.528-7.775 9.995-9.562 15.962 3.6 2.332 5.984 6.38 5.984 10.989 0 4.608-2.384 8.657-5.984 10.988 1.787 5.967 5.034 11.434 9.562 15.962 1.616 1.616 3.35 3.065 5.184 4.348l7.825-13.554c-5.254-4.137-8.633-10.554-8.633-17.744zm44.925 3.194c-1.557 10.941-10.985 19.382-22.349 19.382-2.97 0-5.807-.578-8.406-1.626l-7.827 13.556c5.012 2.362 10.526 3.608 16.232 3.608 2.981 0 5.91-.344 8.742-1.004.218-4.285 2.533-8.376 6.524-10.68 3.986-2.302 8.679-2.265 12.495-.318 5.952-6.318 9.511-14.327 10.219-22.918h-15.63z"/>
    </g>
    <path fill="none" stroke="#000" stroke-linecap="round" stroke-width="1.08829093" d="M61.002296 112.82193h13.435969" opacity=".85"/>
    <path fill="url(#q)" fill-rule="evenodd" stroke="#000" stroke-linecap="round" stroke-linejoin="round" stroke-width="1.08829093" d="M36.968854 119.79603s.676516 1.30578 1.224327 1.4964c17.427612.86922 36.126389.94396 56.45509 0 .547813-.19062 1.224326-1.4964 1.224328-1.4964-19.907594-6.80892-38.949337-6.61641-58.903745 0h0z"/>
    <path fill="url(#r)" fill-rule="evenodd" d="M36.968854 119.79603s.676516 1.30578 1.224327 1.4964c17.427612.86922 36.126389.94396 56.45509 0 .547813-.19062 1.224326-1.4964 1.224328-1.4964-20.947421 1.56964-39.714964.58267-58.903745 0z"/>
    <g fill="#eee" fill-rule="evenodd" stroke-linecap="round" stroke-linejoin="round" stroke-width="1.29411757">
      <path stroke="url(#s)" d="M86.125 101.25c0 1.38071-1.119288 2.5-2.5 2.5s-2.5-1.11929-2.5-2.5c0-1.380712 1.119288-2.5 2.5-2.5s2.5 1.119288 2.5 2.5z" enable-background="accumulate" opacity=".96000001" overflow="visible" style="marker:none" transform="translate(44.83228954 32.4864178) scale(.62482)"/>
      <path stroke="url(#t)" d="M86.125 101.25c0 1.38071-1.119288 2.5-2.5 2.5s-2.5-1.11929-2.5-2.5c0-1.380712 1.119288-2.5 2.5-2.5s2.5 1.119288 2.5 2.5z" enable-background="accumulate" opacity=".96000001" overflow="visible" style="marker:none" transform="translate(51.36203494 32.4864178) scale(.62482)"/>
      <path stroke="url(#u)" d="M86.125 101.25c0 1.38071-1.119288 2.5-2.5 2.5s-2.5-1.11929-2.5-2.5c0-1.380712 1.119288-2.5 2.5-2.5s2.5 1.119288 2.5 2.5z" enable-background="accumulate" opacity=".96000001" overflow="visible" style="marker:none" transform="translate(57.89178034 32.4864178) scale(.62482)"/>
      <path stroke="url(#v)" d="M86.125 101.25c0 1.38071-1.119288 2.5-2.5 2.5s-2.5-1.11929-2.5-2.5c0-1.380712 1.119288-2.5 2.5-2.5s2.5 1.119288 2.5 2.5z" enable-background="accumulate" opacity=".96000001" overflow="visible" style="marker:none" transform="translate(64.42152574 32.4864178) scale(.62482)"/>
      <path stroke="url(#w)" d="M86.125 101.25c0 1.38071-1.119288 2.5-2.5 2.5s-2.5-1.11929-2.5-2.5c0-1.380712 1.119288-2.5 2.5-2.5s2.5 1.119288 2.5 2.5z" enable-background="accumulate" opacity=".96000001" overflow="visible" style="marker:none" transform="translate(70.95127114 32.4864178) scale(.62482)"/>
    </g>
  </g>
  <path fill="url(#x)" stroke="#4b4b4b" stroke-width=".509" d="m6.3494475 110.06516-3.0876518 20.18641c-.081982.81171.5193336 1.49412 1.3351643 1.49412h124.80608c.81583 0 1.41715-.68241 1.33516-1.49412l-4.50187-20.18641c-.57972-1.19523-1.41989-1.42543-2.60675-1.49411H8.956197c-1.2821261-.12182-1.8940006.51387-2.6067495 1.49411z" overflow="visible" style="marker:none" transform="translate(-3 -4)"/>
  <path fill="url(#y)" stroke="#2c2c2c" stroke-width=".68055236" d="M11.949809 114.4979h65.983954l1.757524 12.14258H10.366653l1.583156-12.14258z" overflow="visible" style="marker:none" transform="translate(-3 -4)"/>
  <path fill="url(#z)" stroke="#2c2c2c" stroke-width=".68063706" d="M82.326317 123.95497h5.107448l-.250075-2.39421 5.300527-.029.343399 2.39919 5.054978.0431.707662 2.66645H82.614407l-.28809-2.68551v-.00002z" overflow="visible" style="marker:none" transform="translate(-3 -4)"/>
  <path fill="url(#A)" stroke="#2c2c2c" stroke-width=".68552786" d="M100.46902 114.50091h21.00879l2.15305 12.13712h-21.01204l-2.1498-12.13712z" overflow="visible" style="marker:none" transform="translate(-3 -4)"/>
  <path fill="url(#B)" stroke="#2c2c2c" stroke-width=".68063706" d="m13.018532 110.10051 4.976768.17677-.518139 2.5042h-4.976768l.518139-2.68097z" overflow="visible" style="marker:none" transform="translate(-3 -4)"/>
  <path fill="url(#C)" stroke="#2c2c2c" stroke-width=".68474478" d="m21.804566 110.10233-.506224 2.67732h15.510399l.270308-2.67732H21.804566zm19.268674.17678-.481476 2.50054H55.9646v-2.67732l-14.89136.17678zm18.605602-.17678-.03439 2.67732h17.963971l-.424495-2.50904-17.505085-.16828h-.000001z" overflow="visible" style="marker:none" transform="translate(-3 -4)"/>
  <path fill="url(#D)" stroke="#2c2c2c" stroke-width=".68063712" d="M80.836885 114.49795h15.430248l.830685 4.96369H81.48468l-.647795-4.96369z" overflow="visible" style="marker:none" transform="translate(-3 -4)"/>
  <path fill="url(#E)" stroke="#2c2c2c" stroke-width=".705051" d="M80.192732 110.11247h15.430513l.169276 2.65703H80.541113l-.348381-2.65703z" overflow="visible" style="marker:none" transform="translate(-3 -4)"/>
  <use xlink:href="#F" stroke-width=".82687408" overflow="visible" style="marker:none" transform="matrix(.88027 0 .0806 .55778 142.28947237 83.45060533)"/>
  <path fill="url(#G)" d="M-50.027806 42.280624c0 1.122758-.910174 2.032932-2.032932 2.032932-1.122757 0-2.032932-.910174-2.032932-2.032932 0-1.122757.910175-2.032932 2.032932-2.032932 1.122758 0 2.032932.910175 2.032932 2.032932z" overflow="visible" style="marker:none" transform="matrix(.59545 0 .04293 .2971 129.00727635 94.1464111)"/>
  <use xlink:href="#F" stroke-width=".82687408" overflow="visible" style="marker:none" transform="matrix(.88027 0 .0806 .55778 148.68246637 83.45060533)"/>
  <path fill="url(#H)" d="M-50.027806 42.280624c0 1.122758-.910174 2.032932-2.032932 2.032932-1.122757 0-2.032932-.910174-2.032932-2.032932 0-1.122757.910175-2.032932 2.032932-2.032932 1.122758 0 2.032932.910175 2.032932 2.032932z" overflow="visible" style="marker:none" transform="matrix(.59545 0 .04293 .2971 135.40027035 94.1464111)"/>
  <path fill="#176e00" stroke="#1f5000" stroke-width=".82687408" d="M-50.027806 42.280624c0 1.122758-.910174 2.032932-2.032932 2.032932-1.122757 0-2.032932-.910174-2.032932-2.032932 0-1.122757.910175-2.032932 2.032932-2.032932 1.122758 0 2.032932.910175 2.032932 2.032932z" overflow="visible" style="marker:none" transform="matrix(.88027 0 .0806 .55778 155.07546037 83.45060533)"/>
  <path fill="url(#I)" d="M-50.027806 42.280624c0 1.122758-.910174 2.032932-2.032932 2.032932-1.122757 0-2.032932-.910174-2.032932-2.032932 0-1.122757.910175-2.032932 2.032932-2.032932 1.122758 0 2.032932.910175 2.032932 2.032932z" overflow="visible" style="marker:none" transform="matrix(.59545 0 .04293 .2971 141.79326435 94.1464111)"/>
  <path fill="url(#J)" fill-rule="evenodd" d="m10.550678 126.42 1.438635-1.25881h4.85539l1.348719 1.34873.909147-1.21504h4.036159l.990538 1.35601 1.868042-1.41847H30.3319l.772174 1.15577.935939-1.27906h23.827645l1.644497 1.10501 1.075604-1.14369h3.933584l2.203321 1.48401 1.263091-1.55833h5.525051l1.203798 1.45563 1.36654-1.46778h4.263176l1.493638 1.68792" transform="translate(-3 -4)"/>
  <path fill="url(#K)" fill-rule="evenodd" d="m10.963006 123.57422 1.409021-.59245h4.755444l1.320955.66201.890433-.5586h3.953075l.970148.66764 1.829589-.71595h2.431903l.756279.51275 1.175739-.60812h4.047839l.712431.60234 1.358593-.61933 2.656869.004.906731.65222 1.428311-.66452 2.911178.007.777193.70245 1.748878-.69852 2.72017.006s.332197.68809.712234.65311c.342067-.0315 1.489626-.6505 1.489626-.6505l2.644306.006 1.610644.47349.276265-.50341h3.852613l1.121702.76664 1.107557-.82413h5.152255l1.179017.7447 1.597476-.75409h3.025396l1.036262.76246.90673-.76246h1.927225l1.462892.92436" transform="translate(-3 -4)"/>
  <path fill="url(#L)" fill-rule="evenodd" d="m78.825985 121.23602-1.40902-.59245h-4.755444l-1.320956.662-.890433-.55859h-3.953075l-.970148.66763-1.829589-.71594h-2.431904l-.756278.51275-1.175739-.60811H55.28556l-.71243.60232-1.358594-.61931-2.656869.004-.906731.65221-1.428311-.66451-2.911178.007-.777193.70243-1.748877-.69852-2.720171.006s-.332197.68807-.712234.6531c-.342066-.0315-1.489625-.6505-1.489625-.6505l-2.644307.006-1.610645.47347-.276265-.5034h-3.852612l-1.121702.76666-1.107556-.82415h-5.152255l-1.179018.74471-1.597476-.75409h-3.025395l-1.036263.76246-.906729-.76246h-1.927226l-1.462892.92436" transform="translate(-3 -4)"/>
  <path fill="url(#M)" fill-rule="evenodd" d="m11.728007 118.99948 1.393137-.59244h4.701835l1.306067.662.880395-.5586h3.908513l.959211.66764 1.808965-.71595h2.40449l.747753.51275 1.162485-.60812h4.00221l.704398.60234 1.343278-.61933 2.626921.004.896508.65221 1.41221-.6645 2.878362.007.768432.70244 1.729162-.69852 2.689506.006s.328454.68808.704206.65309c.338211-.0315 1.472833-.6505 1.472833-.6505l2.614498.006 1.592489.47349.27315-.5034h3.809184l1.109057.76665 1.095072-.82414h5.094175l1.165727.74469 1.579468-.75409h2.99129l1.024581.76246.896509-.76246h1.905501l1.4464.92437" transform="translate(-3 -4)"/>
  <path fill="url(#N)" fill-rule="evenodd" d="m78.832219 116.85919-1.412982-.5903h-4.768813l-1.32467.65961-.892936-.55657H66.46863l-.972876.66521-1.834733-.71335H61.22228l-.758405.51088-1.179043-.6059h-4.059221l-.714434.60013-1.362411-.61706-2.664339.004-.909281.64984-1.432327-.66211-2.919362.007-.779378.69991-1.753794-.69599-2.727818.006s-.333132.68559-.714236.65074c-.343028-.0314-1.493814-.64814-1.493814-.64814l-2.651742.006-1.615171.47177-.277043-.50158h-3.863444l-1.124855.76385-1.110671-.82114h-5.16674l-1.182331.74199-1.601968-.75135H16.12655l-1.039175.7597-.90928-.7597h-1.932644l-1.467004.92102" transform="translate(-3 -4)"/>
  <path fill="none" stroke="#292929" stroke-width=".69641262" d="m75.16359 110.75788-.744353-.5903h-4.768813l-1.32467.65961-.892936-.55657H63.46863l-.972876.66521-1.834733-.71334H58.22228l-.758405.51088-1.179043-.6059h-4.059221l-.714434.60014-1.362411-.61707-2.664339.004-.909281.64985-1.432327-.66211-2.919362.007-.779378.69988-1.753794-.69597-2.727818.006s-.333132.68557-.714236.65073c-.343028-.0314-1.493814-.64813-1.493814-.64813l-2.651742.006-1.615171.47176-.277043-.50157h-3.863444l-1.124855.76386-1.110671-.82115h-5.16674l-1.182331.74199-1.601968-.75135H13.12655l-1.039175.75968-.90928-.75968h-1.55441l-.397197.92101"/>
  <path fill="url(#O)" fill-rule="evenodd" d="m13.194128 111.26172-1.144427 1.5513h5.436027l-.476845-1.5513h-3.814755z" transform="translate(-3 -4)"/>
  <path fill="url(#P)" fill-rule="evenodd" d="m22.000983 111.43219-.942818 1.54368h3.965309l-.677786-1.54368h-2.344705zm4.03427 0-.942818 1.54368h3.99979l-.677786-1.54368h-2.379186zm4.068751 0-.942818 1.54368h3.96531l-.677787-1.54368h-2.344705zm4.034271 0-.942818 1.54368h3.965308l-.643305-1.54368h-2.379185z" transform="translate(-3 -4)"/>
  <path fill="url(#Q)" fill-rule="evenodd" d="m41.199544 111.43219-.942818 1.54368h3.965308l-.677786-1.54368h-2.344704zm4.034271 0-.942819 1.54368h3.999789l-.677786-1.54368h-2.379184zm4.068751 0-.942818 1.54368h3.965308l-.677787-1.54368h-2.344703zm4.03427 0-.942818 1.54368h3.965308l-.643305-1.54368h-2.379185z" transform="translate(-3 -4)"/>
  <path fill="url(#R)" fill-rule="evenodd" d="m60.132069 111.43219-.892062 1.54368h4.589731l-.983741-1.54368h-2.713928zm4.669554 0-.892065 1.54368h4.629643l-.983741-1.54368h-2.753837zm4.709462 0-.892064 1.54368h4.589732l-.983741-1.54368h-2.713927zm4.669552 0-.892062 1.54368h4.58973l-.943831-1.54368h-2.753837z" transform="translate(-3 -4)"/>
  <path fill="url(#S)" fill-rule="evenodd" d="M80.440811 112.9898zm1.088857-1.55769-.99943 1.55769h5.18685l-1.10214-1.55769h-3.08528zm5.276276 0-.999429 1.55769h5.142133l-1.102139-1.55769h-3.040565zm5.231561 0-.999427 1.55769h5.142133l-1.057427-1.55769h-3.085279z" transform="translate(-3 -4)"/>
  <path fill="url(#T)" fill-rule="evenodd" d="M81.339957 119.36316zm1.088857-1.55769-.99943 1.55769h5.18685l-1.10214-1.55769h-3.08528zm5.276276 0-.999429 1.55769h5.142133l-1.102139-1.55769H87.70509zm5.231561 0-.999427 1.55769h5.142133l-1.057427-1.55769h-3.085279z" transform="translate(-3 -4)"/>
  <path fill="url(#U)" fill-rule="evenodd" d="M81.070213 117.29746zm1.088857-1.55769-.99943 1.01821h5.18685l-1.10214-1.01821h-3.08528zm5.276276 0-.999429 1.01821h5.142133l-1.102139-1.01821h-3.040565zm5.231561 0-.999426 1.01821h5.142132l-1.057427-1.01821h-3.085279z" transform="translate(-3 -4)"/>
  <path fill="url(#V)" fill-rule="evenodd" d="M82.357214 126.60678zm1.132399-1.55769-1.039396 1.55769h5.394266l-1.146213-1.55769h-3.208657zm5.487269 0-1.039395 1.55769h5.347762l-1.146213-1.55769h-3.162154zm5.440766 0-1.039393 1.55769h5.347761l-1.099712-1.55769h-3.208656z" transform="translate(-3 -4)"/>
  <path fill="url(#W)" fill-rule="evenodd" d="m88.281807 122.49733-.784768 1.10173h5.436027l-.836504-1.10173h-3.814755z" transform="translate(-3 -4)"/>
  <path fill="url(#X)" fill-rule="evenodd" d="M102.75599 126.60678zm1.26923-1.55769-1.16499 1.55769h9.19315l-1.19481-1.55769h-6.83335zm9.29739 0-1.16498 1.55769c.80924.0899 5.00497 0 5.00497 0l-1.28473-1.55769h-2.55526zm5.10922 0-1.16499 1.55769h5.99402l-1.23261-1.55769h-3.59642z" transform="translate(-3 -4)"/>
  <path fill="url(#Y)" fill-rule="evenodd" d="M101.89877 124.23741zm1.08885-1.55769-.99944 1.0182h5.18686l-1.10214-1.0182h-3.08528zm5.27627 0-.99942 1.0182h5.14213l-1.10214-1.0182h-3.04057zm5.23157 0-.99944 1.0182h5.14214l-1.05743-1.0182h-3.08527z" transform="translate(-3 -4)"/>
  <path fill="url(#Z)" fill-rule="evenodd" d="m102.35532 120.23551-1.01422 1.0182h5.21824l-1.11846-1.0182h-3.08556zm5.30898 0-1.01422 1.0182h5.2636l-1.11845-1.0182h-3.13093zm5.35435 0-1.01421 1.0182h5.21823l-1.11846-1.0182h-3.08556zm5.30898 0-1.01422 1.0182h5.21823l-1.07308-1.0182h-3.13093z" transform="translate(-3 -4)"/>
  <path fill="url(#aa)" fill-rule="evenodd" d="m102.35853 116.00951-.955 1.01821h4.91352l-1.05316-1.01821h-2.90536zm4.99895 0-.95498 1.01821h4.95623l-1.05314-1.01821h-2.94811zm5.04169 0-.95499 1.01821h4.91351l-1.05316-1.01821h-2.90536zm4.99895 0-.95499 1.01821h4.9135l-1.0104-1.01821h-2.94811z" transform="translate(-3 -4)"/>
  <path fill="url(#ab)" fill-rule="evenodd" d="M101.43088 119.56185zm1.01547-1.55769-.93209 1.0182h4.83733l-1.02787-1.0182h-2.87737zm4.92072 0-.93208 1.0182h4.79561l-1.02787-1.0182h-2.83566zm4.87901 0-.93208 1.0182h4.79561l-.98617-1.0182h-2.87736z" transform="translate(-3 -4)"/>
  <path fill="none" stroke="#292929" stroke-width=".68055236" d="m77.774015 110.96718.921625-.92163h3.304363l.932865.93287.955343-.95534h3.147012l1.034018 1.03401 1.034019-1.03401h3.191969l.944108.9441"/>
  <path fill="none" stroke="#292929" stroke-width=".68043077" d="m98.21526 110.96722.92119-.92173h3.30279l.93242.93298.95489-.95545h3.14552l1.03353 1.03414 1.03353-1.03414h3.19044l.66179.97693.71454-.93124 2.18384-.0355.93343.97893"/>
</svg>