<?xml version="1.0" encoding="UTF-8" standalone="no"?>
<!-- Created with Inkscape (http://www.inkscape.org/) -->

<svg
   xmlns:dc="http://purl.org/dc/elements/1.1/"
   xmlns:cc="http://creativecommons.org/ns#"
   xmlns:rdf="http://www.w3.org/1999/02/22-rdf-syntax-ns#"
   xmlns:svg="http://www.w3.org/2000/svg"
   xmlns="http://www.w3.org/2000/svg"
   xmlns:xlink="http://www.w3.org/1999/xlink"
   xmlns:sodipodi="http://sodipodi.sourceforge.net/DTD/sodipodi-0.dtd"
   xmlns:inkscape="http://www.inkscape.org/namespaces/inkscape"
   width="255"
   height="255"
   viewBox="0 0 67.468749 67.468749"
   version="1.1"
   id="svg8"
   inkscape:version="0.92.5 (2060ec1f9f, 2020-04-08)"
   sodipodi:docname="arora.svg">
  <defs
     id="defs2">
    <linearGradient
       inkscape:collect="always"
       id="linearGradient4615">
      <stop
         style="stop-color:#000000;stop-opacity:0"
         offset="0"
         id="stop4611" />
      <stop
         style="stop-color:#000000;stop-opacity:1"
         offset="1"
         id="stop4613" />
    </linearGradient>
    <linearGradient
       id="linearGradient949"
       inkscape:collect="always">
      <stop
         id="stop945"
         stop-color="#ffffff"
         stop-opacity="1" />
      <stop
         id="stop947"
         offset="1"
         stop-color="#ffffff"
         stop-opacity="0.502"
         style="stop-opacity:0.565;stop-color:#ffffff" />
    </linearGradient>
    <linearGradient
       inkscape:collect="always"
       id="linearGradient4585">
      <stop
         id="stop4581"
         stop-color="#ffffff"
         stop-opacity="1" />
      <stop
         offset="1"
         id="stop4583"
         stop-color="#ffffff"
         stop-opacity="0.388" />
    </linearGradient>
    <linearGradient
       inkscape:collect="always"
       id="linearGradient869">
      <stop
         id="stop865"
         stop-color="#b1ffad"
         stop-opacity="0.611" />
      <stop
         offset="1"
         id="stop867"
         stop-color="#09a600"
         stop-opacity="0.204" />
    </linearGradient>
    <clipPath
       clipPathUnits="userSpaceOnUse"
       id="clipPath2059">
      <path
         d="m -10.099732,231.68531 c 3.5587363,2.50616 4.8319716,-0.58528 2.9651647,-3.064 -3.1818907,-4.22486 -6.4443207,-9.83985 -12.3548527,-15.91305 -2.594516,-2.66865 -11.860659,-7.80827 -11.860659,-7.80827 0,0 -0.115438,-2.18844 -0.09884,-3.064 0.01106,-0.582 -0.565687,-0.56369 -0.889553,-0.29652 -0.782426,0.64546 -2.47097,2.56981 -2.47097,2.56981 l -1.68026,-0.0988 -1.087226,-1.58142 c -0.296516,-0.41055 -0.636056,-0.34641 -0.88955,0 -0.545383,1.84962 -0.878698,3.8848 -3.459359,3.95355 l 4.447747,3.95356 c 7.76561,1.55335 15.578734,5.58545 20.261957,14.33163 0,0 4.526451,5.19364 7.116396,7.01755 z"
         id="path2061"
         sodipodi:nodetypes="csscsscccccccs"
         inkscape:connector-curvature="0"
         stroke-dasharray="none"
         stroke-opacity="1"
         fill="#ffffff"
         fill-rule="evenodd"
         stroke="none"
         stroke-linejoin="miter"
         fill-opacity="1"
         stroke-linecap="butt"
         stroke-width="0.048"
         stroke-miterlimit="4" />
    </clipPath>
    <clipPath
       id="clipPath2059-5"
       clipPathUnits="userSpaceOnUse">
      <path
         stroke-miterlimit="4"
         stroke-width="0.048"
         stroke-linecap="butt"
         fill-opacity="1"
         stroke-linejoin="miter"
         stroke="none"
         fill-rule="evenodd"
         fill="#ffffff"
         stroke-opacity="1"
         stroke-dasharray="none"
         inkscape:connector-curvature="0"
         sodipodi:nodetypes="csscsscccccccs"
         id="path2061-3"
         d="m -10.099732,231.68531 c 3.5587363,2.50616 4.8319716,-0.58528 2.9651647,-3.064 -3.1818907,-4.22486 -6.4443207,-9.83985 -12.3548527,-15.91305 -2.594516,-2.66865 -11.860659,-7.80827 -11.860659,-7.80827 0,0 -0.115438,-2.18844 -0.09884,-3.064 0.01106,-0.582 -0.565687,-0.56369 -0.889553,-0.29652 -0.782426,0.64546 -2.47097,2.56981 -2.47097,2.56981 l -1.68026,-0.0988 -1.087226,-1.58142 c -0.296516,-0.41055 -0.636056,-0.34641 -0.88955,0 -0.545383,1.84962 -0.878698,3.8848 -3.459359,3.95355 l 4.447747,3.95356 c 7.76561,1.55335 15.578734,5.58545 20.261957,14.33163 0,0 4.526451,5.19364 7.116396,7.01755 z" />
    </clipPath>
    <clipPath
       id="clipPath">
      <path
         fill-opacity="0.95"
         stroke="none"
         fill="#1b1b1b"
         sodipodi:nodetypes="csssscc"
         inkscape:connector-curvature="0"
         id="rect5264"
         d="m -515.73002,435.56445 v 5.83767 c 0,9.74315 -7.84377,17.58692 -17.58692,17.58692 h -135.05122 c -9.74315,0 -17.58692,-7.84377 -17.58692,-17.58692 v -5.83767 z" />
    </clipPath>
    <clipPath
       clipPathUnits="userSpaceOnUse"
       id="clipPath2059-7">
      <path
         d="m -10.099732,231.68531 c 3.5587363,2.50616 4.8319716,-0.58528 2.9651647,-3.064 -3.1818907,-4.22486 -6.4443207,-9.83985 -12.3548527,-15.91305 -2.594516,-2.66865 -11.860659,-7.80827 -11.860659,-7.80827 0,0 -0.115438,-2.18844 -0.09884,-3.064 0.01106,-0.582 -0.565687,-0.56369 -0.889553,-0.29652 -0.782426,0.64546 -2.47097,2.56981 -2.47097,2.56981 l -1.68026,-0.0988 -1.087226,-1.58142 c -0.296516,-0.41055 -0.636056,-0.34641 -0.88955,0 -0.545383,1.84962 -0.878698,3.8848 -3.459359,3.95355 l 4.447747,3.95356 c 7.76561,1.55335 15.578734,5.58545 20.261957,14.33163 0,0 4.526451,5.19364 7.116396,7.01755 z"
         id="path2061-5"
         sodipodi:nodetypes="csscsscccccccs"
         inkscape:connector-curvature="0"
         stroke-dasharray="none"
         stroke-opacity="1"
         fill="#ffffff"
         fill-rule="evenodd"
         stroke="none"
         stroke-linejoin="miter"
         fill-opacity="1"
         stroke-linecap="butt"
         stroke-width="0.048"
         stroke-miterlimit="4" />
    </clipPath>
    <clipPath
       clipPathUnits="userSpaceOnUse"
       id="clipPath1162">
      <path
         stroke-miterlimit="4"
         stroke-width="0.071"
         stroke-linecap="round"
         fill-opacity="0.347"
         stroke-linejoin="round"
         stroke="none"
         fill="#000000"
         stroke-opacity="1"
         stroke-dasharray="none"
         inkscape:connector-curvature="0"
         d="m -65.649736,239.84563 c -9.358079,0 -16.951888,7.59381 -16.951888,16.95188 0,9.35808 7.593811,16.94076 16.951888,16.94077 0.292439,0 0.578792,-0.008 0.867614,-0.0222 2.122786,-0.10753 4.148336,-0.60587 5.995453,-1.42378 l 2.669587,3.97101 c -0.225515,0.4951 -0.245107,0.96445 -0.01111,1.31255 l 15.67271,23.32553 c 0.495366,0.73695 1.94415,0.6317 3.247998,-0.24471 1.303846,-0.87642 1.96364,-2.17735 1.468276,-2.9143 L -51.42304,274.4168 c -0.233058,-0.34672 -0.682887,-0.49868 -1.22356,-0.47831 l -2.558357,-3.80416 c 3.95991,-3.10036 6.507123,-7.91951 6.507123,-13.33682 0,-9.35807 -7.593809,-16.95188 -16.951889,-16.95188 z m 0,2.5806 c 7.92884,0 14.371283,6.44244 14.371283,14.37128 0,7.92885 -6.442435,14.36016 -14.371283,14.36016 -7.928851,0 -14.349039,-6.43131 -14.349039,-14.36016 0,-0.24777 -0.0013,-0.48941 0.01111,-0.73413 0.384376,-7.58638 6.656848,-13.63715 14.337916,-13.63715 z"
         id="path1164" />
    </clipPath>
    <linearGradient
       id="linearGradient3315">
      <stop
         stop-opacity="0"
         stop-color="#282ab6"
         id="stop3317" />
      <stop
         stop-opacity="0"
         stop-color="#000064"
         offset="0.716"
         id="stop3321" />
      <stop
         stop-opacity="0.954"
         stop-color="#020542"
         offset="1"
         id="stop3323" />
    </linearGradient>
    <linearGradient
       id="linearGradient3307">
      <stop
         stop-opacity="1"
         stop-color="#ffffff"
         id="stop3309" />
      <stop
         stop-opacity="1"
         stop-color="#000b80"
         id="stop3311"
         offset="1" />
    </linearGradient>
    <linearGradient
       id="linearGradient2837">
      <stop
         stop-opacity="1"
         stop-color="white"
         id="stop2839" />
      <stop
         stop-opacity="0"
         stop-color="white"
         id="stop2841"
         offset="1" />
    </linearGradient>
    <linearGradient
       id="linearGradient2811">
      <stop
         stop-opacity="1"
         stop-color="#022200"
         id="stop2813" />
      <stop
         stop-opacity="1"
         stop-color="#758b10"
         id="stop2815"
         offset="1" />
    </linearGradient>
    <radialGradient
       r="80.68"
       fy="162.93"
       fx="102.44"
       cy="162.93"
       cx="102.44"
       gradientTransform="matrix(0.45437887,-0.0047824,0.00409647,0.38920733,-12.609413,220.18102)"
       gradientUnits="userSpaceOnUse"
       id="radialGradient2742"
       xlink:href="#linearGradient3307"
       inkscape:collect="always" />
    <linearGradient
       y2="10.968"
       x2="91.73"
       y1="156.08"
       x1="91.73"
       gradientTransform="matrix(0.30338585,0,0,0.30338585,6.1004068,235.80303)"
       gradientUnits="userSpaceOnUse"
       id="linearGradient2744"
       xlink:href="#linearGradient2811"
       inkscape:collect="always" />
    <linearGradient
       y2="47.13"
       x2="98.06"
       y1="15.735"
       x1="99.45"
       gradientUnits="userSpaceOnUse"
       id="linearGradient2746"
       xlink:href="#linearGradient2837"
       inkscape:collect="always"
       gradientTransform="matrix(0.27998177,0,0,0.30338585,6.7506822,-293.26137)" />
    <radialGradient
       r="80.68"
       fy="49.43"
       fx="104.42"
       cy="98.84"
       cx="100.06"
       spreadMethod="reflect"
       gradientUnits="userSpaceOnUse"
       id="radialGradient2750"
       xlink:href="#linearGradient3315"
       inkscape:collect="always"
       gradientTransform="matrix(0.3072261,0,0,0.30722613,3.0358753,233.30378)" />
    <linearGradient
       inkscape:collect="always"
       xlink:href="#linearGradient2837"
       id="linearGradient951"
       gradientUnits="userSpaceOnUse"
       x1="99.45"
       y1="16.681"
       x2="99.08"
       y2="76.26"
       gradientTransform="matrix(0.27998177,0,0,0.30338585,6.8196745,233.76032)" />
    <linearGradient
       inkscape:collect="always"
       xlink:href="#linearGradient869"
       id="linearGradient871"
       x1="29.22"
       y1="234.35"
       x2="34.35"
       y2="234.5"
       gradientUnits="userSpaceOnUse"
       spreadMethod="reflect"
       gradientTransform="translate(0.77107142,2.3132143)" />
    <filter
       inkscape:collect="always"
       id="filter893"
       x="-0.035"
       width="1.07"
       y="-0.076"
       height="1.151"
       color-interpolation-filters="sRGB">
      <feGaussianBlur
         inkscape:collect="always"
         stdDeviation="0.29417"
         id="feGaussianBlur895" />
    </filter>
    <linearGradient
       inkscape:collect="always"
       xlink:href="#linearGradient869"
       id="linearGradient899"
       gradientUnits="userSpaceOnUse"
       x1="29.22"
       y1="234.35"
       x2="34.35"
       y2="234.5"
       spreadMethod="reflect" />
    <linearGradient
       inkscape:collect="always"
       xlink:href="#linearGradient4585"
       id="linearGradient874"
       gradientUnits="userSpaceOnUse"
       x1="33.7"
       y1="264.29"
       x2="33.365"
       y2="230.67"
       spreadMethod="reflect"
       gradientTransform="matrix(1.0868937,0,0,0.99973505,-3.8475655,0.41836356)" />
    <linearGradient
       inkscape:collect="always"
       xlink:href="#linearGradient4585"
       id="linearGradient876"
       gradientUnits="userSpaceOnUse"
       x1="33.7"
       y1="264.29"
       x2="33.365"
       y2="230.67"
       spreadMethod="reflect"
       gradientTransform="matrix(1.0579468,0,0,0.99982231,2.9105946,0.39541509)" />
    <linearGradient
       inkscape:collect="always"
       xlink:href="#linearGradient4585"
       id="linearGradient878"
       gradientUnits="userSpaceOnUse"
       x1="33.7"
       y1="264.29"
       x2="33.365"
       y2="230.67"
       spreadMethod="reflect"
       gradientTransform="matrix(1.1168032,0,0,0.99964842,4.9246172,0.44119488)" />
    <linearGradient
       inkscape:collect="always"
       xlink:href="#linearGradient4585"
       id="linearGradient880"
       gradientUnits="userSpaceOnUse"
       x1="33.7"
       y1="264.29"
       x2="33.365"
       y2="230.67"
       spreadMethod="reflect"
       gradientTransform="matrix(1.1524123,0,0,0.99954461,-6.0473894,0.46848418)" />
    <linearGradient
       inkscape:collect="always"
       xlink:href="#linearGradient4585"
       id="linearGradient882"
       gradientUnits="userSpaceOnUse"
       x1="33.7"
       y1="264.29"
       x2="33.365"
       y2="230.67"
       spreadMethod="reflect"
       gradientTransform="matrix(0.97980484,0,0,1.0000641,-0.24271978,0.33176964)" />
    <linearGradient
       inkscape:collect="always"
       xlink:href="#linearGradient4585"
       id="linearGradient884"
       gradientUnits="userSpaceOnUse"
       x1="33.7"
       y1="264.29"
       x2="33.365"
       y2="230.67"
       spreadMethod="reflect"
       gradientTransform="matrix(0.97980484,0,0,1.0000641,0.24271978,0.33176964)" />
    <linearGradient
       inkscape:collect="always"
       xlink:href="#linearGradient4585"
       id="linearGradient886"
       gradientUnits="userSpaceOnUse"
       x1="33.7"
       y1="264.29"
       x2="33.365"
       y2="230.67"
       spreadMethod="reflect"
       gradientTransform="matrix(0.97980484,0,0,1.0000641,0.24271978,0.33176964)" />
    <linearGradient
       inkscape:collect="always"
       xlink:href="#linearGradient4585"
       id="linearGradient888"
       gradientUnits="userSpaceOnUse"
       x1="33.7"
       y1="264.29"
       x2="33.365"
       y2="230.67"
       spreadMethod="reflect"
       gradientTransform="matrix(0.97980484,0,0,1.0000641,-0.24271978,0.33176964)" />
    <linearGradient
       inkscape:collect="always"
       xlink:href="#linearGradient4585"
       id="linearGradient916"
       gradientUnits="userSpaceOnUse"
       gradientTransform="matrix(1.0568423,0,0,0.99982195,-2.8311277,0.39549749)"
       x1="33.7"
       y1="264.29"
       x2="33.365"
       y2="230.67"
       spreadMethod="reflect" />
    <linearGradient
       inkscape:collect="always"
       xlink:href="#linearGradient4585"
       id="linearGradient918"
       gradientUnits="userSpaceOnUse"
       gradientTransform="matrix(1.0286957,0,0,0.99990922,1.920063,0.37254702)"
       x1="33.7"
       y1="264.29"
       x2="33.365"
       y2="230.67"
       spreadMethod="reflect" />
    <linearGradient
       inkscape:collect="always"
       xlink:href="#linearGradient4585"
       id="linearGradient920"
       gradientUnits="userSpaceOnUse"
       gradientTransform="matrix(1.0859248,0,0,0.99973532,3.8784001,0.41833079)"
       x1="33.7"
       y1="264.29"
       x2="33.365"
       y2="230.67"
       spreadMethod="reflect" />
    <linearGradient
       inkscape:collect="always"
       xlink:href="#linearGradient4585"
       id="linearGradient922"
       gradientUnits="userSpaceOnUse"
       gradientTransform="matrix(1.1205494,0,0,0.9996315,-4.9701289,0.44562246)"
       x1="33.7"
       y1="264.29"
       x2="33.365"
       y2="230.67"
       spreadMethod="reflect" />
    <linearGradient
       inkscape:collect="always"
       xlink:href="#linearGradient4585"
       id="linearGradient924"
       gradientUnits="userSpaceOnUse"
       gradientTransform="matrix(0.95271431,0,0,1.000151,0.674048,0.30889604)"
       x1="33.7"
       y1="264.29"
       x2="33.365"
       y2="230.67"
       spreadMethod="reflect" />
    <linearGradient
       inkscape:collect="always"
       xlink:href="#linearGradient4585"
       id="linearGradient926"
       gradientUnits="userSpaceOnUse"
       gradientTransform="matrix(0.95271431,0,0,1.000151,-0.674048,0.30889604)"
       x1="33.7"
       y1="264.29"
       x2="33.365"
       y2="230.67"
       spreadMethod="reflect" />
    <linearGradient
       inkscape:collect="always"
       xlink:href="#linearGradient4585"
       id="linearGradient928"
       gradientUnits="userSpaceOnUse"
       gradientTransform="matrix(0.95271431,0,0,1.000151,-0.674048,0.30889604)"
       x1="33.7"
       y1="264.29"
       x2="33.365"
       y2="230.67"
       spreadMethod="reflect" />
    <linearGradient
       inkscape:collect="always"
       xlink:href="#linearGradient4585"
       id="linearGradient930"
       gradientUnits="userSpaceOnUse"
       gradientTransform="matrix(0.95271431,0,0,1.000151,0.674048,0.30889604)"
       x1="33.7"
       y1="264.29"
       x2="33.365"
       y2="230.67"
       spreadMethod="reflect" />
    <linearGradient
       inkscape:collect="always"
       xlink:href="#linearGradient949"
       id="linearGradient934"
       gradientUnits="userSpaceOnUse"
       gradientTransform="matrix(0.87132861,0,0,0.90924494,-215.83287,-88.374965)"
       x1="-1.489"
       y1="262"
       x2="-9.71"
       y2="240.6"
       spreadMethod="reflect" />
    <linearGradient
       inkscape:collect="always"
       xlink:href="#linearGradient4615"
       id="linearGradient4617"
       x1="20.690666"
       y1="265.03253"
       x2="36.590675"
       y2="266.16455"
       gradientUnits="userSpaceOnUse"
       spreadMethod="reflect"
       gradientTransform="translate(0,0.90562078)" />
  </defs>
  <sodipodi:namedview
     id="base"
     pagecolor="#ff0000"
     bordercolor="#666666"
     borderopacity="1.0"
     inkscape:pageopacity="0"
     inkscape:pageshadow="2"
     inkscape:zoom="3.5058824"
     inkscape:cx="124.07691"
     inkscape:cy="127.5"
     inkscape:document-units="px"
     inkscape:current-layer="layer1"
     showgrid="false"
     inkscape:snap-to-guides="false"
     inkscape:snap-grids="false"
     inkscape:snap-others="false"
     inkscape:object-nodes="false"
     inkscape:snap-nodes="false"
     inkscape:snap-global="false"
     inkscape:window-width="1920"
     inkscape:window-height="1056"
     inkscape:window-x="0"
     inkscape:window-y="0"
     inkscape:window-maximized="1"
     units="px"
     showguides="true"
     inkscape:guide-bbox="true" />
  <metadata
     id="metadata5">
    <rdf:RDF>
      <cc:Work>
        <dc:format>image/svg+xml</dc:format>
        <dc:type
           rdf:resource="http://purl.org/dc/dcmitype/StillImage" />
        <dc:title />
      </cc:Work>
    </rdf:RDF>
  </metadata>
  <g
     inkscape:label="Layer 1"
     inkscape:groupmode="layer"
     id="layer1"
     transform="translate(0,-229.53126)">
    <g
       id="g914"
       transform="matrix(-0.94787226,0,0,1.0001626,64.415608,0.63636656)"
       opacity="0.693">
      <path
         id="path898"
         sodipodi:type="arc"
         sodipodi:cx="43.628017"
         sodipodi:cy="263.53882"
         sodipodi:rx="17.347406"
         sodipodi:ry="31.540174"
         sodipodi:start="4.041936"
         sodipodi:end="2.2227199"
         sodipodi:open="true"
         d="m 32.849363,238.82582 a 17.347406,31.540174 0 0 1 23.432948,3.13888 17.347406,31.540174 0 0 1 0.217684,42.71824 17.347406,31.540174 0 0 1 -23.396937,3.92774"
         opacity="0.699"
         stroke-dasharray="none"
         stroke-opacity="0.625"
         paint-order="normal"
         fill="none"
         fill-rule="evenodd"
         stroke="url(#linearGradient916)"
         stroke-linejoin="round"
         fill-opacity="1"
         stroke-linecap="round"
         stroke-width="0.408"
         stroke-dashoffset="0"
         stroke-miterlimit="4" />
      <path
         d="m -33.098316,238.89913 a 16.885399,31.542927 0 0 1 22.808866,3.13916 16.885399,31.542927 0 0 1 0.211887,42.72197 16.885399,31.542927 0 0 1 -22.773815,3.92808"
         sodipodi:open="true"
         sodipodi:end="2.2227199"
         sodipodi:start="4.041936"
         sodipodi:ry="31.542927"
         sodipodi:rx="16.885399"
         sodipodi:cy="263.61429"
         sodipodi:cx="-22.606726"
         sodipodi:type="arc"
         id="path900"
         transform="scale(-1,1)"
         opacity="0.699"
         stroke-dasharray="none"
         stroke-opacity="0.625"
         paint-order="normal"
         fill="none"
         fill-rule="evenodd"
         stroke="url(#linearGradient918)"
         stroke-linejoin="round"
         fill-opacity="1"
         stroke-linecap="round"
         stroke-width="0.403"
         stroke-dashoffset="0"
         stroke-miterlimit="4" />
      <path
         transform="scale(-1,1)"
         id="path902"
         sodipodi:type="arc"
         sodipodi:cx="-25.193113"
         sodipodi:cy="263.61429"
         sodipodi:rx="12.76703"
         sodipodi:ry="31.572239"
         sodipodi:start="4.041936"
         sodipodi:end="2.2227199"
         sodipodi:open="true"
         d="m -33.125792,238.87617 a 12.76703,31.572239 0 0 1 17.245756,3.14207 12.76703,31.572239 0 0 1 0.160208,42.76167 12.76703,31.572239 0 0 1 -17.219254,3.93173"
         opacity="0.699"
         stroke-dasharray="none"
         stroke-opacity="0.625"
         paint-order="normal"
         fill="none"
         fill-rule="evenodd"
         stroke="url(#linearGradient920)"
         stroke-linejoin="round"
         fill-opacity="1"
         stroke-linecap="round"
         stroke-width="0.414"
         stroke-dashoffset="0"
         stroke-miterlimit="4" />
      <path
         d="m 32.822783,238.80356 a 13.225735,31.568586 0 0 1 17.865377,3.14171 13.225735,31.568586 0 0 1 0.165964,42.75672 13.225735,31.568586 0 0 1 -17.837923,3.93127"
         sodipodi:open="true"
         sodipodi:end="2.2227199"
         sodipodi:start="4.041936"
         sodipodi:ry="31.568586"
         sodipodi:rx="13.225735"
         sodipodi:cy="263.53882"
         sodipodi:cx="41.040474"
         sodipodi:type="arc"
         id="path904"
         opacity="0.699"
         stroke-dasharray="none"
         stroke-opacity="0.625"
         paint-order="normal"
         fill="none"
         fill-rule="evenodd"
         stroke="url(#linearGradient922)"
         stroke-linejoin="round"
         fill-opacity="1"
         stroke-linecap="round"
         stroke-width="0.42"
         stroke-dashoffset="0"
         stroke-miterlimit="4" />
      <path
         id="path906"
         sodipodi:type="arc"
         sodipodi:cx="36.420425"
         sodipodi:cy="263.53882"
         sodipodi:rx="5.897553"
         sodipodi:ry="31.63784"
         sodipodi:start="4.041936"
         sodipodi:end="2.2227199"
         sodipodi:open="true"
         d="m 32.756034,238.7493 a 5.897553,31.63784 0 0 1 7.966439,3.1486 5.897553,31.63784 0 0 1 0.07401,42.85051 5.897553,31.63784 0 0 1 -7.954197,3.9399"
         opacity="0.699"
         stroke-dasharray="none"
         stroke-opacity="0.625"
         paint-order="normal"
         fill="none"
         fill-rule="evenodd"
         stroke="url(#linearGradient924)"
         stroke-linejoin="round"
         fill-opacity="1"
         stroke-linecap="round"
         stroke-width="0.387"
         stroke-dashoffset="0"
         stroke-miterlimit="4" />
      <path
         d="m -33.192381,238.8219 a 5.5914717,31.641493 0 0 1 7.552983,3.14897 5.5914717,31.641493 0 0 1 0.07016,42.85546 5.5914717,31.641493 0 0 1 -7.541376,3.94036"
         sodipodi:open="true"
         sodipodi:end="2.2227199"
         sodipodi:start="4.041936"
         sodipodi:ry="31.641493"
         sodipodi:rx="5.5914717"
         sodipodi:cy="263.61429"
         sodipodi:cx="-29.71817"
         sodipodi:type="arc"
         id="path908"
         transform="scale(-1,1)"
         opacity="0.699"
         stroke-dasharray="none"
         stroke-opacity="0.625"
         paint-order="normal"
         fill="none"
         fill-rule="evenodd"
         stroke="url(#linearGradient926)"
         stroke-linejoin="round"
         fill-opacity="1"
         stroke-linecap="round"
         stroke-width="0.387"
         stroke-dashoffset="0"
         stroke-miterlimit="4" />
      <path
         transform="scale(-1,1)"
         id="path910"
         sodipodi:type="arc"
         sodipodi:cx="-20.849934"
         sodipodi:cy="263.61429"
         sodipodi:rx="19.682945"
         sodipodi:ry="31.522972"
         sodipodi:start="4.041936"
         sodipodi:end="2.2227199"
         sodipodi:open="true"
         d="m -33.079754,238.91477 a 19.682945,31.522972 0 0 1 26.5878033,3.13717 19.682945,31.522972 0 0 1 0.2469922,42.69494 19.682945,31.522972 0 0 1 -26.5469445,3.92559"
         opacity="0.699"
         stroke-dasharray="none"
         stroke-opacity="0.625"
         paint-order="normal"
         fill="none"
         fill-rule="evenodd"
         stroke="url(#linearGradient928)"
         stroke-linejoin="round"
         fill-opacity="1"
         stroke-linecap="round"
         stroke-width="0.387"
         stroke-dashoffset="0"
         stroke-miterlimit="4" />
      <path
         d="m 32.749752,238.52918 a 19.682945,31.522972 0 0 1 26.587803,3.13717 19.682945,31.522972 0 0 1 0.246992,42.69494 19.682945,31.522972 0 0 1 -26.546945,3.92559"
         sodipodi:open="true"
         sodipodi:end="2.2227199"
         sodipodi:start="4.041936"
         sodipodi:ry="31.522972"
         sodipodi:rx="19.682945"
         sodipodi:cy="263.2287"
         sodipodi:cx="44.979572"
         sodipodi:type="arc"
         id="path912"
         opacity="0.699"
         stroke-dasharray="none"
         stroke-opacity="0.625"
         paint-order="normal"
         fill="none"
         fill-rule="evenodd"
         stroke="url(#linearGradient930)"
         stroke-linejoin="round"
         fill-opacity="1"
         stroke-linecap="round"
         stroke-width="0.387"
         stroke-dashoffset="0"
         stroke-miterlimit="4" />
    </g>
    <circle
       cy="263.38"
       cx="33.986"
       id="path2819"
       r="24.787"
       fill="url(#radialGradient2742)"
       stroke="none"
       fill-opacity="1"
       stroke-width="0.307" />
    <path
       inkscape:connector-curvature="0"
       id="selection_to_path"
       d="m 26.42726,240.65721 c -0.07281,0.31248 2.839691,3.04295 2.918571,2.69406 -0.527891,0.91015 -0.98297,2.27539 0.115287,3.67704 0,0 0.606772,0 0.606772,0 -0.166862,-0.0607 1.598843,-2.42102 2.427086,-2.1237 0,0 2.427087,-0.91016 2.427087,-0.91016 0,0 1.516927,-3.33724 1.516927,-3.33724 0,0 -3.640627,-0.91016 -3.640627,-0.91016 0,0 -6.371103,0.91016 -6.371103,0.91016 z m -2.427087,42.47401 c 0.303385,-1.51693 1.213543,-1.82031 2.123701,-3.03385 0.606771,-0.91016 0.303386,-1.82032 0.606771,-2.1237 0.606772,-0.91017 1.516929,-0.91017 2.123701,-1.82032 0.606772,-1.21355 0.303386,-2.1237 0.303386,-3.03386 0.303386,-0.60677 1.213544,-1.51693 0.606772,-2.73047 -0.303386,-0.60677 -2.123701,-1.51693 -2.730473,-1.82032 -1.516929,-1.21354 -3.033858,-2.42709 -3.944016,-4.2474 -1.516929,0.30339 -1.820315,0 -3.033858,-0.91016 -1.820316,1.21355 -3.033859,2.73047 -3.640631,-0.60677 0,0 -0.910158,0 -0.910158,0 0,0 0.303387,-2.1237 0.303387,-2.1237 0,0 -1.820316,0.60677 -1.820316,0.60677 -0.910157,0.30339 -1.213543,-0.91015 -0.910157,-1.51693 -0.324623,-1.56244 2.21775,-0.82824 2.427086,-2.42709 0.834311,-0.11528 2.642492,1.08006 2.502934,1.51693 0,0 0.227539,-1.51693 0.227539,-1.51693 -0.373164,-0.68868 0.637111,-0.84038 1.280288,-1.59884 0.582502,-0.73116 0.807007,-1.77481 0.807007,-1.77481 0.106185,0.0698 1.650419,-0.29428 1.893128,-1.36523 1.292424,0.15169 1.783909,-0.72206 1.783909,-0.72206 0.910157,-0.94657 -0.530926,-2.1237 1.820314,-1.51693 -0.203268,0.30035 0.536994,1.76874 0.910158,1.21355 0.445978,-0.26092 0.370131,-2.0691 -0.379232,-1.63222 0.719024,-1.66862 -0.743296,-2.29967 -2.35124,-2.91857 0,0 0,-0.91016 0,-0.91016 0,0 -0.910158,0.30338 -0.910158,0.30338 -0.98297,-0.35799 -1.735367,3.17039 -2.427087,3.33725 -0.834311,-0.60677 -0.257878,-1.08006 -0.631042,-1.3622 -0.49452,-0.37014 -1.340966,-0.0395 -1.456253,-0.83735 0,-1.51693 2.997453,-1.74447 3.604224,-2.04786 0.606772,-0.30338 0.910158,-0.91015 1.820316,-1.21354 0.910157,0 1.516929,0.91016 2.123701,1.21354 0.148659,0.23058 1.280288,-0.50362 1.213543,-0.60676 -0.910157,-1.21355 -2.427087,-2.73048 -3.944016,-2.42709 -0.910158,0 -2.427087,1.21354 -3.337244,1.82031 -3.640631,2.1237 -6.067718,5.76433 -7.888033,9.70835 -0.606772,1.51693 -1.820315,5.76433 -1.213543,7.28126 0.606771,1.82031 2.730472,2.1237 3.64063,2.42709 0,0 1.820315,1.51692 1.820315,1.51692 0.303385,0.30339 0.910158,0.30339 1.213544,0.91016 0.910157,0.91016 -0.910159,2.42709 -0.606772,4.55079 0.303386,2.42709 2.730473,3.94402 3.337244,5.15756 0.303386,0.30339 0.606772,3.33725 0.606772,3.64063 0,1.21354 -0.910157,2.42709 1.516929,3.33725 0.606772,0.30338 0.910158,0.30338 1.51693,0.30338 z M 41.727004,244.9228 c -0.166861,0.90713 -1.304557,1.21962 -1.343998,1.19535 0,0 0.60677,1.82031 0.60677,1.82031 1.213544,-0.30339 1.289391,-0.45508 2.502935,0.15169 0.367098,-1.85065 -0.515757,-1.75963 1.441084,-3.18554 0,0 -0.303388,1.51692 -0.303388,1.51692 0,0 0.910158,0.30339 0.910158,0.30339 0,0 0,0.60678 0,0.60678 -0.967801,-0.62802 -1.268153,0.76756 -1.610978,1.13769 -0.53396,0.47934 -0.901056,0.60677 -2.333038,-0.53093 -1.161966,2.35428 -1.252983,0.86768 -2.087294,-0.24877 -0.236642,-0.22451 -0.540027,-0.45812 -0.946563,-0.66138 0,0 0,1.51693 0,1.51693 0,0 -0.910158,0 -0.910158,0 -0.494519,0.21236 -0.182031,1.29242 0,1.21354 0,0 1.098256,-0.68262 1.098256,-0.68262 -0.870718,1.1377 0.491486,1.67166 1.025443,0.986 0.188101,0.64319 -0.794869,0.79487 -1.516929,0.91016 0,0 0.303388,1.21354 0.303388,1.21354 -0.64318,0.25788 -1.013309,0.51272 -1.22568,0.84039 -0.291249,0.44294 -0.291249,1.01634 -0.291249,1.89009 0.606771,0 1.213541,0.30338 1.820314,0 0.910156,-0.60678 2.427088,-3.64063 3.944016,-1.21354 0.303385,0.30338 0.303385,0.60676 0.303385,0.91015 1.629183,-0.28822 0.670484,-1.21051 0.303386,-2.1237 0.725093,-0.31552 1.36827,0.71599 1.22568,1.84155 0.270011,0.58554 0.552163,0.98298 0.898021,0.58554 0,0 0,-1.21354 0,-1.21354 0.758464,0.91015 3.203755,2.19651 3.640631,1.82031 -1.820317,1.51693 -1.516928,0.91015 -3.640631,0.60677 -0.60677,0 -0.758464,1.06185 -1.365237,0.75846 -1.213541,-0.60677 -2.275393,-2.88216 -5.612636,-1.36523 -1.277254,0.73116 -2.554505,2.33911 -3.303869,4.032 -0.260913,0.58857 -0.45508,1.18624 -0.567333,1.75964 -0.100117,0.52486 -0.130456,1.02848 -0.07281,1.48962 0,0.60677 0.606772,1.51693 0.910161,2.1237 0.303384,0.60677 0.910152,1.21354 1.516925,1.51693 1.516929,0.91016 3.640628,-0.91016 4.854171,0.60677 0.303386,0.60677 0.303386,0.91016 0.606773,1.51693 0,0 0.606771,1.82032 0.606771,1.82032 0.303386,2.1237 -0.303385,3.33724 0,5.15756 0.303386,2.42709 1.213543,2.1237 1.213543,5.46094 1.140731,-0.32765 2.020552,-0.5643 2.779016,-1.04668 0.649244,-0.41261 1.210508,-1.00421 1.771773,-1.98717 0.303386,-0.91017 0.303386,-0.91017 0,-1.82032 0,0 2.123699,-2.1237 2.123699,-2.1237 0,0 0.303389,-4.2474 0.303389,-4.2474 0,0 2.730472,-5.76434 2.730472,-5.76434 0,0 -1.516929,0 -1.516929,0 2.123699,-1.82031 3.337243,-1.82031 2.730472,-4.85417 -1.516928,0.30339 -1.820317,-0.30339 -2.123701,-1.51693 0,0 3.64063,1.82032 3.64063,1.82032 0,0 0.303385,-0.30339 0.303385,-0.30339 -1.213543,-6.3711 -3.337242,-10.01173 -7.888031,-14.56252 0,0 -1.820317,0.60677 -1.820317,0.60677 0,0 0.910158,-0.60677 0.910158,-0.60677 -1.213543,-0.91016 -3.64063,-1.51693 -5.157559,-0.91016 0,0 -0.697787,0.61891 -1.386475,1.23174 z m -6.804941,0.89196 c -0.0364,0.33373 1.756602,0.5643 1.820316,0 0,0 -0.303389,-1.21354 -0.303389,-1.21354 -0.476313,-0.39744 -2.078191,0.7433 -1.516927,1.21354 z m -10.92189,-0.91015 c -0.509689,0.35799 0.706888,1.78087 1.516929,1.21354 -0.303386,-0.91016 -0.606772,-0.91016 -1.516929,-1.21354 z m 25.181023,13.04559 c 1.516928,2.1237 2.427087,3.64063 2.730472,6.06771 -0.303385,-0.30338 -0.60677,-0.30338 -0.910158,-0.60677 -0.60677,-0.91015 -2.123699,-4.2474 -1.820314,-5.46094 z"
       stroke-opacity="1"
       fill="url(#linearGradient2744)"
       stroke="#6a5807"
       fill-opacity="1"
       stroke-width="0.277" />
    <circle
       cy="263.63"
       cx="33.889"
       id="path2821"
       r="24.787"
       fill="url(#radialGradient2750)"
       stroke="none"
       fill-opacity="1"
       stroke-width="0.307" />
    <ellipse
       ry="10.225"
       rx="16.68"
       cy="249.05"
       cx="33.889"
       id="path2835"
       fill="url(#linearGradient951)"
       stroke="none"
       fill-opacity="1"
       stroke-width="0.291" />
    <ellipse
       ry="10.225"
       rx="16.68"
       cy="-277.98"
       cx="33.82"
       transform="scale(1,-1)"
       id="path2845"
       opacity="1"
       fill="url(#linearGradient2746)"
       stroke="none"
       fill-opacity="1"
       stroke-width="0.291" />
    <path
       d="m 23.132142,232.76975 c 2.249399,1.91039 4.351404,1.53825 6.014357,0 3.3957,-1.21973 3.325749,-0.30676 4.240893,0 -2.999164,7.44336 2.930724,-1.79176 4.780643,0 1.273011,4.02211 2.685793,3.15223 4.163785,0 2.839022,1.67063 -2.26366,3.44846 0,7.24807 -4.957551,-4.46931 -1.693893,-0.69797 -3.701142,0 -2.963541,-0.36146 -10.312919,-9.16973 -8.327572,0 -2.806848,2.93921 -2.591005,0.6574 -3.315607,0 1.820318,-3.54907 -3.996319,0.82569 -3.855357,0 7.246871,-6.68333 -0.08318,-1.64636 0,-7.24807 z"
       id="rect862"
       inkscape:connector-curvature="0"
       sodipodi:nodetypes="ccccccccccc"
       opacity="1"
       stroke-dasharray="none"
       stroke-opacity="0.625"
       paint-order="normal"
       fill="url(#linearGradient871)"
       filter="url(#filter893)"
       fill-rule="evenodd"
       stroke="none"
       stroke-linejoin="round"
       fill-opacity="1"
       stroke-linecap="round"
       stroke-width="0.45"
       stroke-dashoffset="0"
       stroke-miterlimit="4" />
    <path
       sodipodi:nodetypes="ccccccccccc"
       inkscape:connector-curvature="0"
       id="path897"
       d="m 22.361071,230.45654 c 2.249399,1.91039 4.351404,1.53825 6.014357,0 3.3957,-1.21973 3.325749,-0.30676 4.240893,0 -2.999164,7.44336 2.930724,-1.79176 4.780643,0 1.273011,4.02211 2.685793,3.15223 4.163785,0 2.839022,1.67063 -2.26366,3.44846 0,7.24807 -4.957551,-4.46931 -1.693893,-0.69797 -3.701142,0 -2.963541,-0.36146 -10.312919,-9.16973 -8.327572,0 -2.806848,2.93921 -2.591005,0.6574 -3.315607,0 1.820318,-3.54907 -3.996319,0.82569 -3.855357,0 7.246871,-6.68333 -0.08318,-1.64636 0,-7.24807 z"
       transform="matrix(1,0,0,-1,0.77107142,523.83245)"
       opacity="1"
       stroke-dasharray="none"
       stroke-opacity="0.625"
       paint-order="normal"
       fill="url(#linearGradient899)"
       filter="url(#filter893)"
       fill-rule="evenodd"
       stroke="none"
       stroke-linejoin="round"
       fill-opacity="1"
       stroke-linecap="round"
       stroke-width="0.45"
       stroke-dashoffset="0"
       stroke-miterlimit="4" />
    <path
       id="path848"
       sodipodi:type="arc"
       sodipodi:cx="43.932652"
       sodipodi:cy="263.53882"
       sodipodi:rx="17.840681"
       sodipodi:ry="31.537434"
       sodipodi:start="4.041936"
       sodipodi:end="2.2227199"
       sodipodi:open="true"
       d="m 32.847505,238.82797 a 17.840681,31.537434 0 0 1 24.099266,3.13861 17.840681,31.537434 0 0 1 0.223874,42.71452 17.840681,31.537434 0 0 1 -24.062231,3.9274"
       opacity="0.699"
       stroke-dasharray="none"
       stroke-opacity="0.625"
       paint-order="normal"
       fill="none"
       fill-rule="evenodd"
       stroke="url(#linearGradient874)"
       stroke-linejoin="round"
       fill-opacity="1"
       stroke-linecap="round"
       stroke-width="0.414"
       stroke-dashoffset="0"
       stroke-miterlimit="4" />
    <path
       d="m -33.103536,238.90128 a 17.365538,31.540186 0 0 1 23.4574397,3.13889 17.365538,31.540186 0 0 1 0.2179122,42.71825 17.365538,31.540186 0 0 1 -23.4213919,3.92774"
       sodipodi:open="true"
       sodipodi:end="2.2227199"
       sodipodi:start="4.041936"
       sodipodi:ry="31.540186"
       sodipodi:rx="17.365538"
       sodipodi:cy="263.61429"
       sodipodi:cx="-22.313616"
       sodipodi:type="arc"
       id="path852"
       transform="scale(-1,1)"
       opacity="0.699"
       stroke-dasharray="none"
       stroke-opacity="0.625"
       paint-order="normal"
       fill="none"
       fill-rule="evenodd"
       stroke="url(#linearGradient876)"
       stroke-linejoin="round"
       fill-opacity="1"
       stroke-linecap="round"
       stroke-width="0.408"
       stroke-dashoffset="0"
       stroke-miterlimit="4" />
    <path
       transform="scale(-1,1)"
       id="path854"
       sodipodi:type="arc"
       sodipodi:cx="-24.973547"
       sodipodi:cy="263.61429"
       sodipodi:rx="13.130061"
       sodipodi:ry="31.569494"
       sodipodi:start="4.041936"
       sodipodi:end="2.2227199"
       sodipodi:open="true"
       d="m -33.131792,238.87832 a 13.130061,31.569494 0 0 1 17.736141,3.1418 13.130061,31.569494 0 0 1 0.164763,42.75795 13.130061,31.569494 0 0 1 -17.708885,3.93138"
       opacity="0.699"
       stroke-dasharray="none"
       stroke-opacity="0.625"
       paint-order="normal"
       fill="none"
       fill-rule="evenodd"
       stroke="url(#linearGradient878)"
       stroke-linejoin="round"
       fill-opacity="1"
       stroke-linecap="round"
       stroke-width="0.419"
       stroke-dashoffset="0"
       stroke-miterlimit="4" />
    <path
       d="m 32.820168,238.80571 a 13.60181,31.565842 0 0 1 18.373381,3.14144 13.60181,31.565842 0 0 1 0.170683,42.753 13.60181,31.565842 0 0 1 -18.345146,3.93093"
       sodipodi:open="true"
       sodipodi:end="2.2227199"
       sodipodi:start="4.041936"
       sodipodi:ry="31.565842"
       sodipodi:rx="13.60181"
       sodipodi:cy="263.53882"
       sodipodi:cx="41.27153"
       sodipodi:type="arc"
       id="path856"
       opacity="0.482"
       stroke-dasharray="none"
       stroke-opacity="0.625"
       paint-order="normal"
       fill="none"
       fill-rule="evenodd"
       stroke="url(#linearGradient880)"
       stroke-linejoin="round"
       fill-opacity="1"
       stroke-linecap="round"
       stroke-width="0.426"
       stroke-dashoffset="0"
       stroke-miterlimit="4" />
    <path
       id="path858"
       sodipodi:type="arc"
       sodipodi:cx="36.520111"
       sodipodi:cy="263.53882"
       sodipodi:rx="6.0652504"
       sodipodi:ry="31.63509"
       sodipodi:start="4.041936"
       sodipodi:end="2.2227199"
       sodipodi:open="true"
       d="m 32.751522,238.75145 a 6.0652504,31.63509 0 0 1 8.192966,3.14833 6.0652504,31.63509 0 0 1 0.07611,42.84679 6.0652504,31.63509 0 0 1 -8.180375,3.93956"
       opacity="0.551"
       stroke-dasharray="none"
       stroke-opacity="0.625"
       paint-order="normal"
       fill="none"
       fill-rule="evenodd"
       stroke="url(#linearGradient882)"
       stroke-linejoin="round"
       fill-opacity="1"
       stroke-linecap="round"
       stroke-width="0.393"
       stroke-dashoffset="0"
       stroke-miterlimit="4" />
    <path
       d="m -33.200276,238.82406 a 5.7504659,31.638742 0 0 1 7.767753,3.14869 5.7504659,31.638742 0 0 1 0.07216,42.85174 5.7504659,31.638742 0 0 1 -7.755816,3.94001"
       sodipodi:open="true"
       sodipodi:end="2.2227199"
       sodipodi:start="4.041936"
       sodipodi:ry="31.638742"
       sodipodi:rx="5.7504659"
       sodipodi:cy="263.61429"
       sodipodi:cx="-29.627275"
       sodipodi:type="arc"
       id="path860"
       transform="scale(-1,1)"
       opacity="0.56"
       stroke-dasharray="none"
       stroke-opacity="0.625"
       paint-order="normal"
       fill="none"
       fill-rule="evenodd"
       stroke="url(#linearGradient884)"
       stroke-linejoin="round"
       fill-opacity="1"
       stroke-linecap="round"
       stroke-width="0.393"
       stroke-dashoffset="0"
       stroke-miterlimit="4" />
    <path
       transform="scale(-1,1)"
       id="path4567"
       sodipodi:type="arc"
       sodipodi:cx="-20.506868"
       sodipodi:cy="263.61429"
       sodipodi:rx="20.242632"
       sodipodi:ry="31.520231"
       sodipodi:start="4.041936"
       sodipodi:end="2.2227199"
       sodipodi:open="true"
       d="m -33.084445,238.91692 a 20.242632,31.520231 0 0 1 27.3438304,3.1369 20.242632,31.520231 0 0 1 0.2540154,42.69122 20.242632,31.520231 0 0 1 -27.3018098,3.92525"
       opacity="0.536"
       stroke-dasharray="none"
       stroke-opacity="0.625"
       paint-order="normal"
       fill="none"
       fill-rule="evenodd"
       stroke="url(#linearGradient886)"
       stroke-linejoin="round"
       fill-opacity="1"
       stroke-linecap="round"
       stroke-width="0.393"
       stroke-dashoffset="0"
       stroke-miterlimit="4" />
    <path
       d="m 32.745059,238.53136 a 20.242632,31.520231 0 0 1 27.34383,3.1369 20.242632,31.520231 0 0 1 0.254016,42.69122 20.242632,31.520231 0 0 1 -27.30181,3.92525"
       sodipodi:open="true"
       sodipodi:end="2.2227199"
       sodipodi:start="4.041936"
       sodipodi:ry="31.520231"
       sodipodi:rx="20.242632"
       sodipodi:cy="263.22873"
       sodipodi:cx="45.322636"
       sodipodi:type="arc"
       id="path4569"
       opacity="0.568"
       stroke-dasharray="none"
       stroke-opacity="0.625"
       paint-order="normal"
       fill="none"
       fill-rule="evenodd"
       stroke="url(#linearGradient888)"
       stroke-linejoin="round"
       fill-opacity="1"
       stroke-linecap="round"
       stroke-width="0.393"
       stroke-dashoffset="0"
       stroke-miterlimit="4" />
    <path
       d="m -245.47033,128.54347 a 18.001528,28.657774 0 0 1 24.31653,2.85202 18.001528,28.657774 0 0 1 0.2259,38.81429 18.001528,28.657774 0 0 1 -24.27917,3.56879"
       sodipodi:open="true"
       sodipodi:end="2.2227199"
       sodipodi:start="4.041936"
       sodipodi:ry="28.657774"
       sodipodi:rx="18.001528"
       sodipodi:cy="150.99799"
       sodipodi:cx="-234.28525"
       sodipodi:type="arc"
       id="path932"
       transform="matrix(-0.66264376,-0.74893474,-0.81040633,0.58586822,0,0)"
       opacity="1"
       stroke-dasharray="none"
       stroke-opacity="0.625"
       paint-order="normal"
       fill="none"
       fill-rule="evenodd"
       stroke="url(#linearGradient934)"
       stroke-linejoin="round"
       fill-opacity="1"
       stroke-linecap="round"
       stroke-width="0.353"
       stroke-dashoffset="0"
       stroke-miterlimit="4"
       style="stroke-width:0.72433085;stroke-miterlimit:4;stroke-dasharray:none" />
    <path
       style="opacity:1;fill:none;fill-opacity:1;fill-rule:evenodd;stroke:url(#linearGradient4617);stroke-width:0.58208334;stroke-linecap:round;stroke-linejoin:round;stroke-miterlimit:4;stroke-dasharray:none;stroke-dashoffset:0;stroke-opacity:1;paint-order:normal"
       id="path4609"
       sodipodi:type="arc"
       sodipodi:cx="34.677727"
       sodipodi:cy="262.85056"
       sodipodi:rx="31.658993"
       sodipodi:ry="19.508581"
       sodipodi:start="5.2602804"
       sodipodi:end="4.0428458"
       sodipodi:open="true"
       d="M 51.16853,246.19755 A 31.658993,19.508581 0 0 1 65.402531,267.55471 31.658993,19.508581 0 0 1 36.602226,282.32306 31.658993,19.508581 0 0 1 5.1063952,269.81749 31.658993,19.508581 0 0 1 15.029274,247.55377" />
  </g>
</svg>
