<?xml version="1.0" encoding="UTF-8" standalone="no"?>
<svg xmlns="http://www.w3.org/2000/svg" xmlns:xlink="http://www.w3.org/1999/xlink" width="96" height="96" version="1.0">
  <defs>
    <linearGradient id="f">
      <stop offset="0" stop-color="#5184cf"/>
      <stop offset="1" stop-color="#123a76"/>
    </linearGradient>
    <linearGradient id="j">
      <stop offset="0" stop-color="#00ce99"/>
      <stop offset="1" stop-color="#00805f" stop-opacity="0"/>
    </linearGradient>
    <linearGradient id="i">
      <stop offset="0" stop-color="#80e5ff"/>
      <stop offset=".5" stop-color="#80e5ff" stop-opacity=".40310079"/>
      <stop offset="1" stop-color="#80e5ff" stop-opacity="0"/>
    </linearGradient>
    <linearGradient id="h">
      <stop offset="0" stop-color="#5fbcd3"/>
      <stop offset="1" stop-color="#5fbcd3" stop-opacity="0"/>
    </linearGradient>
    <linearGradient id="e">
      <stop offset="0"/>
      <stop offset="1" stop-opacity="0"/>
    </linearGradient>
    <linearGradient id="d">
      <stop offset="0" stop-color="#fff"/>
      <stop offset="1" stop-color="#fff" stop-opacity="0"/>
    </linearGradient>
    <linearGradient id="a">
      <stop offset="0" stop-color="#e6e6e6"/>
      <stop offset="1" stop-color="#f5f5f5"/>
    </linearGradient>
    <linearGradient xlink:href="#a" id="p" x1="48" x2="48" y1="90" y2="5.9877172" gradientUnits="userSpaceOnUse"/>
    <linearGradient id="b" x1="45.447727" x2="45.447727" y1="92.539597" y2="7.0165396" gradientTransform="matrix(1.00587 0 0 .99417 100 0)" gradientUnits="userSpaceOnUse">
      <stop offset="0"/>
      <stop offset="1" stop-opacity=".58823532"/>
    </linearGradient>
    <linearGradient xlink:href="#b" id="l" x1="32.251034" x2="32.251034" y1="6.1317081" y2="90.238609" gradientTransform="matrix(1.0238 0 0 1.0119 -1.1428571 -98.071429)" gradientUnits="userSpaceOnUse"/>
    <linearGradient xlink:href="#b" id="m" x1="32.251034" x2="32.251034" y1="6.1317081" y2="90.238609" gradientTransform="matrix(1.0238 0 0 1.0119 -1.1428571 -98.071429)" gradientUnits="userSpaceOnUse"/>
    <linearGradient xlink:href="#b" id="n" x1="32.251034" x2="32.251034" y1="6.1317081" y2="90.238609" gradientTransform="matrix(1.0238 0 0 1.0119 -1.1428571 -98.071429)" gradientUnits="userSpaceOnUse"/>
    <linearGradient xlink:href="#b" id="o" x1="32.251034" x2="32.251034" y1="6.1317081" y2="90.238609" gradientTransform="translate(0 -97)" gradientUnits="userSpaceOnUse"/>
    <linearGradient xlink:href="#b" id="k" x1="32.251034" x2="32.251034" y1="6.1317081" y2="90.238609" gradientTransform="matrix(1.0238 0 0 1.0119 -1.1428571 -98.071429)" gradientUnits="userSpaceOnUse"/>
    <linearGradient id="c">
      <stop offset="0" stop-color="#fff"/>
      <stop offset="1" stop-color="#fff" stop-opacity="0"/>
    </linearGradient>
    <linearGradient id="g">
      <stop offset="0" stop-color="#fff"/>
      <stop offset="1" stop-color="#fff" stop-opacity="0"/>
    </linearGradient>
    <linearGradient xlink:href="#c" id="q" x1="36.357143" x2="36.357143" y1="6" y2="63.893143" gradientUnits="userSpaceOnUse"/>
    <linearGradient xlink:href="#d" id="y" x1="48" x2="48" y1="56" y2="0" gradientUnits="userSpaceOnUse"/>
    <linearGradient xlink:href="#e" id="z" x1="32" x2="32" y1="72" y2="-16" gradientUnits="userSpaceOnUse"/>
    <linearGradient xlink:href="#f" id="t" x1="48" x2="48" y1="48" y2="72" gradientUnits="userSpaceOnUse" spreadMethod="reflect"/>
    <radialGradient xlink:href="#g" id="r" cx="48" cy="90.171875" r="42" fx="48" fy="90.171875" gradientTransform="matrix(1.15731 0 0 .9959 -7.551021 .1971319)" gradientUnits="userSpaceOnUse"/>
    <radialGradient xlink:href="#h" id="w" cx="47.977352" cy="64.057671" r="24.022646" fx="47.977352" fy="64.057671" gradientUnits="userSpaceOnUse"/>
    <radialGradient xlink:href="#i" id="x" cx="60.562889" cy="49.720657" r="19.437111" fx="60.562889" fy="49.720657" gradientUnits="userSpaceOnUse"/>
    <radialGradient xlink:href="#i" id="v" cx="60.562889" cy="49.720657" r="19.437111" fx="60.562889" fy="49.720657" gradientUnits="userSpaceOnUse"/>
    <radialGradient xlink:href="#j" id="u" cx="56" cy="24" r="16" fx="56" fy="24" gradientUnits="userSpaceOnUse"/>
    <clipPath id="s">
      <path fill="red" d="M12 20h72v55.999996H12z" color="#000" opacity=".65163933" overflow="visible" style="marker:none"/>
    </clipPath>
  </defs>
  <g transform="scale(1 -1)">
    <path fill="url(#k)" d="M12-95.03125C6.4889097-95.03125 1.96875-90.51109 1.96875-85v71C1.96875-8.4889098 6.4889098-3.96875 12-3.96875h72c5.51109 0 10.03125-4.5201597 10.03125-10.03125v-71c0-5.51109-4.52016-10.03125-10.03125-10.03125H12z" opacity=".07999998"/>
    <path fill="url(#l)" d="M12-94.03125c-4.971633 0-9.03125 4.059617-9.03125 9.03125v71c0 4.9716329 4.0596171 9.03125 9.03125 9.03125h72c4.971633 0 9.03125-4.059617 9.03125-9.03125v-71c0-4.971633-4.059617-9.03125-9.03125-9.03125H12z" opacity=".1"/>
    <path fill="url(#m)" d="M12-93c-4.4091333 0-8 3.590867-8 8v71c0 4.4091333 3.5908667 8 8 8h72c4.409133 0 8-3.5908667 8-8v-71c0-4.409133-3.590867-8-8-8H12z" opacity=".2"/>
    <rect width="86" height="85" x="5" y="-92" fill="url(#n)" opacity=".3" rx="7" ry="7"/>
    <rect width="84" height="84" x="6" y="-91" fill="url(#o)" opacity=".45" rx="6" ry="6"/>
  </g>
  <rect width="84" height="84" x="6" y="6" fill="url(#p)" rx="6" ry="6"/>
  <path fill="url(#q)" d="M12 6c-3.324 0-6 2.676-6 6v72c0 .334721.04135.6507.09375.96875.0487.295596.09704.596915.1875.875.0099.03038.02089.0636.03125.09375.09886.287771.23488.547452.375.8125.144592.273507.315616.535615.5.78125.184384.245635.373776.473472.59375.6875.439947.428056.94291.814526 1.5 1.09375.278545.139612.573473.246947.875.34375-.256202-.100222-.486711-.236272-.71875-.375-.0074-.0044-.02387.0045-.03125 0-.03193-.0193-.06229-.04251-.09375-.0625-.120395-.0767-.231023-.163513-.34375-.25-.106173-.0808-.213281-.161112-.3125-.25-.17793-.161433-.34746-.345388-.5-.53125-.107579-.130255-.218394-.265285-.3125-.40625-.02509-.03838-.03845-.08587-.0625-.125-.06476-.103032-.130228-.204517-.1875-.3125-.101008-.194706-.205675-.415701-.28125-.625-.008-.02181-.02359-.04055-.03125-.0625-.03183-.09195-.0358-.186831-.0625-.28125-.030332-.106618-.070389-.203031-.09375-.3125C7.052121 85.720988 7 85.364295 7 85V13c0-2.781848 2.218152-5 5-5h72c2.781848 0 5 2.218152 5 5v72c0 .364295-.05212.720988-.125 1.0625-.04415.206893-.08838.397658-.15625.59375-.0077.02195-.0233.04069-.03125.0625-.06274.173739-.138383.367449-.21875.53125-.04158.0828-.07904.169954-.125.25-.0546.09721-.126774.18835-.1875.28125-.09411.140965-.204921.275995-.3125.40625-.143174.17445-.303141.346998-.46875.5-.01117.0102-.01998.02115-.03125.03125-.138386.125556-.285091.234436-.4375.34375-.102571.07315-.204318.153364-.3125.21875-.0074.0045-.02384-.0044-.03125 0-.232039.138728-.462548.274778-.71875.375.301527-.0968.596455-.204138.875-.34375.55709-.279224 1.060053-.665694 1.5-1.09375.219973-.214028.409366-.441865.59375-.6875s.355408-.507743.5-.78125c.14012-.265048.276135-.524729.375-.8125.01041-.03078.02133-.06274.03125-.09375.09046-.278085.1388-.579404.1875-.875C89.95865 84.6507 90 84.334721 90 84V12c0-3.324-2.676-6-6-6H12z" opacity=".5"/>
  <path fill="url(#r)" d="M12 90c-3.324 0-6-2.676-6-6V12c0-.334721.04135-.6507.09375-.96875.0487-.295596.09704-.596915.1875-.875.00988-.03038.020892-.0636.03125-.09375.098865-.287771.2348802-.547452.375-.8125.1445918-.273507.3156161-.535615.5-.78125.1843839-.245635.3737765-.473472.59375-.6875.439947-.428056.94291-.814526 1.5-1.09375.278545-.139612.5734731-.246947.875-.34375-.2562018.100222-.4867109.236272-.71875.375-.00741.0044-.023866-.0045-.03125 0-.031933.0193-.062293.04251-.09375.0625-.120395.0767-.2310226.163513-.34375.25-.1061728.0808-.2132809.161112-.3125.25-.1779299.161433-.3474596.345388-.5.53125-.1075789.130255-.2183939.265285-.3125.40625-.025089.03838-.038446.08587-.0625.125-.064763.103032-.1302275.204517-.1875.3125-.1010083.194706-.2056748.415701-.28125.625-.00796.02181-.023589.04055-.03125.0625-.0318251.09195-.0358045.186831-.0625.28125-.0303323.106618-.0703894.203031-.09375.3125C7.0521214 10.279012 7 10.635705 7 11v72c0 2.781848 2.2181517 5 5 5h72c2.781848 0 5-2.218152 5-5V11c0-.364295-.05212-.720988-.125-1.0625-.04415-.206893-.08838-.397658-.15625-.59375-.0077-.02195-.0233-.04069-.03125-.0625-.06274-.173739-.138383-.367449-.21875-.53125-.04158-.0828-.07904-.169954-.125-.25-.0546-.09721-.126774-.18835-.1875-.28125-.09411-.140965-.204921-.275995-.3125-.40625-.143174-.17445-.303141-.346998-.46875-.5-.01117-.0102-.01998-.02115-.03125-.03125-.138386-.125556-.285091-.234436-.4375-.34375-.102571-.07315-.204318-.153364-.3125-.21875-.0074-.0045-.02384.0044-.03125 0-.232039-.138728-.462548-.274778-.71875-.375.301527.0968.596455.204138.875.34375.55709.279224 1.060053.665694 1.5 1.09375.219973.214028.409366.441865.59375.6875s.355408.507743.5.78125c.14012.265048.276135.524729.375.8125.01041.03078.02133.06274.03125.09375.09046.278085.1388.579404.1875.875.0524.31805.09375.634029.09375.96875v72c0 3.324-2.676 6-6 6H12z" opacity=".4"/>
  <rect width="84" height="84" x="-94" y="6" fill="#f0f" rx="6" ry="6"/>
  <path fill="#fff" stroke="#000" stroke-dashoffset="8.6" stroke-linecap="round" stroke-width=".5" d="M112 8h16v16h-16z" color="#000" overflow="visible" style="marker:none"/>
  <text xml:space="preserve" x="131.39261" y="11.969256" font-family="Liberation Sans" font-size="4" font-weight="400" style="text-align:start;line-height:125%;-inkscape-font-specification:Liberation Sans"><tspan x="131.39261" y="11.969256">Width: 2px</tspan><tspan x="131.39261" y="16.969257">Blur: 12</tspan><tspan x="131.39261" y="21.969257">Opacity: 60</tspan></text>
  <g color="#000">
    <path fill="red" d="M-88 20h72v55.999996h-72z" opacity=".65163933" overflow="visible" style="marker:none"/>
    <g clip-path="url(#s)">
      <path fill="url(#t)" d="M12 20h72v55.999996H12z" overflow="visible" style="marker:none"/>
      <path fill="url(#u)" d="M72 24a16 16 0 1 1-32 0 16 16 0 1 1 32 0z" opacity=".5" overflow="visible" style="marker:none" transform="matrix(2.75 0 0 2.75 -126 -40)"/>
      <path fill="url(#v)" d="M80 49.720657a19.437111 19.437111 0 1 1-38.874222 0 19.437111 19.437111 0 1 1 38.874222 0z" opacity=".69672134" overflow="visible" style="marker:none" transform="translate(20.477805 -.04448889) scale(.92606)"/>
      <path fill="url(#w)" d="M71.999998 64.057671a24.022646 24.022646 0 1 1-48.045292 0 24.022646 24.022646 0 1 1 48.045292 0z" overflow="visible" style="marker:none" transform="translate(-23.999998 -16.057671)"/>
      <path fill="url(#x)" d="M80 49.720657a19.437111 19.437111 0 1 1-38.874222 0 19.437111 19.437111 0 1 1 38.874222 0z" opacity=".43442622" overflow="visible" style="marker:none" transform="translate(-12.562889 -5.1577682)"/>
    </g>
  </g>
  <g fill="#fff" color="#000">
    <path d="M15 20h1v56h-1zm4 0h1v56h-1zm8 0h1v56h-1zm-4 0h1v56h-1zm8 0h1v56h-1zm4 0h1v56h-1zm4 0h1v56h-1zm4 0h1v56h-1zm4 0h1v56h-1zm4 0h1v56h-1zm4 0h1v56h-1zm4 0h1v56h-1zm4 0h1v56h-1zm4 0h1v56h-1zm4 0h1v56h-1zm4 0h1v56h-1zm4 0h1v56h-1z" opacity=".3" overflow="visible" style="marker:none"/>
    <path d="M72-84h1v72h-1zm-4 0h1v72h-1zm-4 0h1v72h-1zm-4 0h1v72h-1zm-4 0h1v72h-1zm-4 0h1v72h-1zm-4 0h1v72h-1zm-4 0h1v72h-1zm-4 0h1v72h-1zm-4 0h1v72h-1zm-4 0h1v72h-1zm-4 0h1v72h-1zm-4 0h1v72h-1z" opacity=".3" overflow="visible" style="marker:none" transform="rotate(90)"/>
  </g>
  <g color="#000">
    <path fill="#194280" d="M20 73h3v3h-3z" overflow="visible" style="marker:none"/>
    <path fill="#19447f" d="M20 69h3v3h-3z" overflow="visible" style="marker:none"/>
    <path fill="#2d6499" d="M20 65h3v3h-3z" overflow="visible" style="marker:none"/>
    <path fill="#3c7fab" d="M20 61h3v3h-3z" overflow="visible" style="marker:none"/>
    <path fill="#4996bc" d="M20 57h3v3h-3z" overflow="visible" style="marker:none"/>
    <path fill="#53a7c7" d="M20 53h3v3h-3z" overflow="visible" style="marker:none"/>
    <path fill="#66bad3" d="M20 49h3v3h-3z" overflow="visible" style="marker:none"/>
    <path fill="#76c3d8" d="M20 45h3v3h-3z" overflow="visible" style="marker:none"/>
    <path fill="#6ab9d0" d="M20 41h3v3h-3z" overflow="visible" style="marker:none"/>
    <path fill="#48a5bf" d="M20 37h3v3h-3z" overflow="visible" style="marker:none"/>
    <path fill="#3a9ab1" d="M20 33h3v3h-3z" overflow="visible" style="marker:none"/>
    <path fill="#298ea2" d="M20 29h3v3h-3z" overflow="visible" style="marker:none"/>
    <path fill="#17808f" d="M20 25h3v3h-3z" overflow="visible" style="marker:none"/>
    <path fill="#0d7583" d="M20 20h3v4h-3z" overflow="visible" style="marker:none"/>
    <path fill="#194280" d="M12 73h3v3h-3z" overflow="visible" style="marker:none"/>
    <path fill="#153d7a" d="M12 69h3v3h-3z" overflow="visible" style="marker:none"/>
    <path fill="#275691" d="M12 65h3v3h-3z" overflow="visible" style="marker:none"/>
    <path fill="#3673a5" d="M12 61h3v3h-3z" overflow="visible" style="marker:none"/>
    <path fill="#4287b4" d="M12 57h3v3h-3z" overflow="visible" style="marker:none"/>
    <path fill="#4b98bf" d="M12 53h3v3h-3z" overflow="visible" style="marker:none"/>
    <path fill="#50a3c7" d="M12 49h3v3h-3z" overflow="visible" style="marker:none"/>
    <path fill="#50a5c7" d="M12 45h3v3h-3z" overflow="visible" style="marker:none"/>
    <path fill="#49a0c0" d="M12 41h3v3h-3z" overflow="visible" style="marker:none"/>
    <path fill="#4097b6" d="M12 37h3v3h-3z" overflow="visible" style="marker:none"/>
    <path fill="#338aa8" d="M12 33h3v3h-3z" overflow="visible" style="marker:none"/>
    <path fill="#237b97" d="M12 29h3v3h-3z" overflow="visible" style="marker:none"/>
    <path fill="#136b84" d="M12 25h3v3h-3z" overflow="visible" style="marker:none"/>
    <path fill="#0e657e" d="M12 20h3v4h-3z" overflow="visible" style="marker:none"/>
    <path fill="#19427f" d="M16 73h3v3h-3z" overflow="visible" style="marker:none"/>
    <path fill="#16407d" d="M16 69h3v3h-3z" overflow="visible" style="marker:none"/>
    <path fill="#2a5f95" d="M16 65h3v3h-3z" overflow="visible" style="marker:none"/>
    <path fill="#397aa9" d="M16 61h3v3h-3z" overflow="visible" style="marker:none"/>
    <path fill="#4690b9" d="M16 57h3v3h-3z" overflow="visible" style="marker:none"/>
    <path fill="#4fa0c3" d="M16 53h3v3h-3z" overflow="visible" style="marker:none"/>
    <path fill="#9bcee0" d="M16 49h3v3h-3z" overflow="visible" style="marker:none"/>
    <path fill="#56aecc" d="M16 45h3v3h-3z" overflow="visible" style="marker:none"/>
    <path fill="#c2e1eb" d="M16 41h3v3h-3z" overflow="visible" style="marker:none"/>
    <path fill="#459fbb" d="M16 37h3v3h-3z" overflow="visible" style="marker:none"/>
    <path fill="#3794ae" d="M16 33h3v3h-3z" overflow="visible" style="marker:none"/>
    <path fill="#28879d" d="M16 29h3v3h-3z" overflow="visible" style="marker:none"/>
    <path fill="#15778a" d="M16 25h3v3h-3z" overflow="visible" style="marker:none"/>
    <path fill="#0d6d81" d="M16 20h3v4h-3z" overflow="visible" style="marker:none"/>
    <path fill="#194280" d="M24 73h3v3h-3z" overflow="visible" style="marker:none"/>
    <path fill="#19447f" d="M24 69h3v3h-3z" overflow="visible" style="marker:none"/>
    <path fill="#2e679a" d="M24 65h3v3h-3z" overflow="visible" style="marker:none"/>
    <path fill="#3d80ad" d="M24 61h3v3h-3z" overflow="visible" style="marker:none"/>
    <path fill="#4997bc" d="M24 57h3v3h-3z" overflow="visible" style="marker:none"/>
    <path fill="#53a9c8" d="M24 53h3v3h-3z" overflow="visible" style="marker:none"/>
    <path fill="#5eb6d0" d="M24 49h3v3h-3z" overflow="visible" style="marker:none"/>
    <path fill="#aedce8" d="M24 45h3v3h-3z" overflow="visible" style="marker:none"/>
    <path fill="#54b0ca" d="M24 41h3v3h-3z" overflow="visible" style="marker:none"/>
    <path fill="#48a6bf" d="M24 37h3v3h-3z" overflow="visible" style="marker:none"/>
    <path fill="#399bb1" d="M24 33h3v3h-3z" overflow="visible" style="marker:none"/>
    <path fill="#2992a2" d="M24 29h3v3h-3z" overflow="visible" style="marker:none"/>
    <path fill="#188a93" d="M24 25h3v3h-3z" overflow="visible" style="marker:none"/>
    <path fill="#0c7c86" d="M24 20h3v4h-3z" overflow="visible" style="marker:none"/>
    <path fill="#194380" d="M28 73h3v3h-3z" overflow="visible" style="marker:none"/>
    <path fill="#17417d" d="M28 69h3v3h-3z" overflow="visible" style="marker:none"/>
    <path fill="#2b6196" d="M28 65h3v3h-3z" overflow="visible" style="marker:none"/>
    <path fill="#3a7ba9" d="M28 61h3v3h-3z" overflow="visible" style="marker:none"/>
    <path fill="#4692b9" d="M28 57h3v3h-3z" overflow="visible" style="marker:none"/>
    <path fill="#50a3c4" d="M28 53h3v3h-3z" overflow="visible" style="marker:none"/>
    <path fill="#55aecb" d="M28 49h3v3h-3z" overflow="visible" style="marker:none"/>
    <path fill="#57b1cd" d="M28 45h3v3h-3z" overflow="visible" style="marker:none"/>
    <path fill="#86c5d8" d="M28 41h3v3h-3z" overflow="visible" style="marker:none"/>
    <path fill="#4da6bf" d="M28 37h3v3h-3z" overflow="visible" style="marker:none"/>
    <path fill="#3799af" d="M28 33h3v3h-3z" overflow="visible" style="marker:none"/>
    <path fill="#2791a2" d="M28 29h3v3h-3z" overflow="visible" style="marker:none"/>
    <path fill="#148991" d="M28 25h3v3h-3z" overflow="visible" style="marker:none"/>
    <path fill="#0b7d87" d="M28 20h3v4h-3z" overflow="visible" style="marker:none"/>
    <path fill="#194280" d="M32 73h3v3h-3z" overflow="visible" style="marker:none"/>
    <path fill="#153e7a" d="M32 69h3v3h-3z" overflow="visible" style="marker:none"/>
    <path fill="#275b93" d="M32 65h3v3h-3z" overflow="visible" style="marker:none"/>
    <path fill="#3776a6" d="M32 61h3v3h-3z" overflow="visible" style="marker:none"/>
    <path fill="#428bb5" d="M32 57h3v3h-3z" overflow="visible" style="marker:none"/>
    <path fill="#519ec3" d="M32 53h3v3h-3z" overflow="visible" style="marker:none"/>
    <path fill="#80bfd9" d="M32 49h3v3h-3z" overflow="visible" style="marker:none"/>
    <path fill="#54aecc" d="M32 45h3v3h-3z" overflow="visible" style="marker:none"/>
    <path fill="#a8d5e3" d="M32 41h3v3h-3z" overflow="visible" style="marker:none"/>
    <path fill="#43a0bb" d="M32 37h3v3h-3z" overflow="visible" style="marker:none"/>
    <path fill="#3496ac" d="M32 33h3v3h-3z" overflow="visible" style="marker:none"/>
    <path fill="#21899b" d="M32 29h3v3h-3z" overflow="visible" style="marker:none"/>
    <path fill="#107c8a" d="M32 25h3v3h-3z" overflow="visible" style="marker:none"/>
    <path fill="#0d7684" d="M32 20h3v4h-3z" overflow="visible" style="marker:none"/>
    <path fill="#194280" d="M36 73h3v3h-3z" overflow="visible" style="marker:none"/>
    <path fill="#153e7b" d="M36 69h3v3h-3z" overflow="visible" style="marker:none"/>
    <path fill="#214f8b" d="M36 65h3v3h-3z" overflow="visible" style="marker:none"/>
    <path fill="#306a9f" d="M36 61h3v3h-3z" overflow="visible" style="marker:none"/>
    <path fill="#3f83b2" d="M36 57h3v3h-3z" overflow="visible" style="marker:none"/>
    <path fill="#4997c0" d="M36 53h3v3h-3z" overflow="visible" style="marker:none"/>
    <path fill="#56a8cc" d="M36 49h3v3h-3z" overflow="visible" style="marker:none"/>
    <path fill="#53aacd" d="M36 45h3v3h-3z" overflow="visible" style="marker:none"/>
    <path fill="#4ca5c6" d="M36 41h3v3h-3z" overflow="visible" style="marker:none"/>
    <path fill="#429dbb" d="M36 37h3v3h-3z" overflow="visible" style="marker:none"/>
    <path fill="#3390ab" d="M36 33h3v3h-3z" overflow="visible" style="marker:none"/>
    <path fill="#218299" d="M36 29h3v3h-3z" overflow="visible" style="marker:none"/>
    <path fill="#0f7285" d="M36 25h3v3h-3z" overflow="visible" style="marker:none"/>
    <path fill="none" d="M36 20h3v4h-3z" overflow="visible" style="marker:none"/>
    <path fill="#1a4381" d="M40 73h3v3h-3z" overflow="visible" style="marker:none"/>
    <path fill="#163f7c" d="M40 69h3v3h-3z" overflow="visible" style="marker:none"/>
    <path fill="#204c8a" d="M40 65h3v3h-3z" overflow="visible" style="marker:none"/>
    <path fill="#2d609a" d="M40 61h3v3h-3z" overflow="visible" style="marker:none"/>
    <path fill="#3d7caf" d="M40 57h3v3h-3z" overflow="visible" style="marker:none"/>
    <path fill="#4991be" d="M40 53h3v3h-3z" overflow="visible" style="marker:none"/>
    <path fill="#5ea7ce" d="M40 49h3v3h-3z" overflow="visible" style="marker:none"/>
    <path fill="#abd5e7" d="M40 45h3v3h-3z" overflow="visible" style="marker:none"/>
    <path fill="#84c1d9" d="M40 41h3v3h-3z" overflow="visible" style="marker:none"/>
    <path fill="#429aba" d="M40 37h3v3h-3z" overflow="visible" style="marker:none"/>
    <path fill="#328aa8" d="M40 33h3v3h-3z" overflow="visible" style="marker:none"/>
    <path fill="#207a95" d="M40 29h3v3h-3z" overflow="visible" style="marker:none"/>
    <path fill="#126b84" d="M40 25h3v3h-3z" overflow="visible" style="marker:none"/>
    <path fill="none" d="M40 20h3v4h-3z" overflow="visible" style="marker:none"/>
    <path fill="#0d6e81" d="M36 20h3v4h-3z" overflow="visible" style="marker:none"/>
    <path fill="#0f677f" d="M40 20h3v4h-3z" overflow="visible" style="marker:none"/>
    <path fill="#194280" d="M44 73h3v3h-3z" overflow="visible" style="marker:none"/>
    <path fill="#153e7b" d="M44 69h3v3h-3z" overflow="visible" style="marker:none"/>
    <path fill="#204b8a" d="M44 65h3v3h-3z" overflow="visible" style="marker:none"/>
    <path fill="#2a5b98" d="M44 61h3v3h-3z" overflow="visible" style="marker:none"/>
    <path fill="#3770a9" d="M44 57h3v3h-3z" overflow="visible" style="marker:none"/>
    <path fill="#468bbd" d="M44 53h3v3h-3z" overflow="visible" style="marker:none"/>
    <path fill="#51a0cd" d="M44 49h3v3h-3z" overflow="visible" style="marker:none"/>
    <path fill="#58abd4" d="M44 45h3v3h-3z" overflow="visible" style="marker:none"/>
    <path fill="#51a6cb" d="M44 41h3v3h-3z" overflow="visible" style="marker:none"/>
    <path fill="#4395ba" d="M44 37h3v3h-3z" overflow="visible" style="marker:none"/>
    <path fill="#3184a7" d="M44 33h3v3h-3z" overflow="visible" style="marker:none"/>
    <path fill="#247696" d="M44 29h3v3h-3z" overflow="visible" style="marker:none"/>
    <path fill="#156684" d="M44 25h3v3h-3z" overflow="visible" style="marker:none"/>
    <path fill="none" d="M44 20h3v4h-3z" overflow="visible" style="marker:none"/>
    <path fill="#0f5f7d" d="M44 20h3v4h-3z" overflow="visible" style="marker:none"/>
    <path fill="#194280" d="M48 73h3v3h-3z" overflow="visible" style="marker:none"/>
    <path fill="#153e7b" d="M48 69h3v3h-3z" overflow="visible" style="marker:none"/>
    <path fill="#204b8a" d="M48 65h3v3h-3z" overflow="visible" style="marker:none"/>
    <path fill="#2c5c9a" d="M48 61h3v3h-3z" overflow="visible" style="marker:none"/>
    <path fill="#3971ac" d="M48 57h3v3h-3z" overflow="visible" style="marker:none"/>
    <path fill="#a4c3de" d="M48 53h3v3h-3z" overflow="visible" style="marker:none"/>
    <path fill="#529acc" d="M48 49h3v3h-3z" overflow="visible" style="marker:none"/>
    <path fill="#67afd8" d="M48 45h3v3h-3z" overflow="visible" style="marker:none"/>
    <path fill="#71b3d5" d="M48 41h3v3h-3z" overflow="visible" style="marker:none"/>
    <path fill="#4492bb" d="M48 37h3v3h-3z" overflow="visible" style="marker:none"/>
    <path fill="#3280a7" d="M48 33h3v3h-3z" overflow="visible" style="marker:none"/>
    <path fill="#247094" d="M48 29h3v3h-3z" overflow="visible" style="marker:none"/>
    <path fill="#166082" d="M48 25h3v3h-3z" overflow="visible" style="marker:none"/>
    <path fill="none" d="M48 20h3v4h-3z" overflow="visible" style="marker:none"/>
    <path fill="#10587a" d="M48 20h3v4h-3z" overflow="visible" style="marker:none"/>
    <path fill="#194380" d="M52 73h3v3h-3z" overflow="visible" style="marker:none"/>
    <path fill="#153e7b" d="M52 69h3v3h-3z" overflow="visible" style="marker:none"/>
    <path fill="#204a89" d="M52 65h3v3h-3z" overflow="visible" style="marker:none"/>
    <path fill="#2b589a" d="M52 61h3v3h-3z" overflow="visible" style="marker:none"/>
    <path fill="#3a6eac" d="M52 57h3v3h-3z" overflow="visible" style="marker:none"/>
    <path fill="#4581bc" d="M52 53h3v3h-3z" overflow="visible" style="marker:none"/>
    <path fill="#73a9d6" d="M52 49h3v3h-3z" overflow="visible" style="marker:none"/>
    <path fill="#549dd0" d="M52 45h3v3h-3z" overflow="visible" style="marker:none"/>
    <path fill="#4f98c8" d="M52 41h3v3h-3z" overflow="visible" style="marker:none"/>
    <path fill="#418ab7" d="M52 37h3v3h-3z" overflow="visible" style="marker:none"/>
    <path fill="#327aa5" d="M52 33h3v3h-3z" overflow="visible" style="marker:none"/>
    <path fill="#256a93" d="M52 29h3v3h-3z" overflow="visible" style="marker:none"/>
    <path fill="#155880" d="M52 25h3v3h-3z" overflow="visible" style="marker:none"/>
    <path fill="none" d="M52 20h3v4h-3z" overflow="visible" style="marker:none"/>
    <path fill="#115279" d="M52 20h3v4h-3z" overflow="visible" style="marker:none"/>
    <path fill="#1a4381" d="M56 73h3v3h-3z" overflow="visible" style="marker:none"/>
    <path fill="#153e7b" d="M56 69h3v3h-3z" overflow="visible" style="marker:none"/>
    <path fill="#204a89" d="M56 65h3v3h-3z" overflow="visible" style="marker:none"/>
    <path fill="#2a5799" d="M56 61h3v3h-3z" overflow="visible" style="marker:none"/>
    <path fill="#3869ab" d="M56 57h3v3h-3z" overflow="visible" style="marker:none"/>
    <path fill="#447cbb" d="M56 53h3v3h-3z" overflow="visible" style="marker:none"/>
    <path fill="#4e8cc8" d="M56 49h3v3h-3z" overflow="visible" style="marker:none"/>
    <path fill="#5193cc" d="M56 45h3v3h-3z" overflow="visible" style="marker:none"/>
    <path fill="#4789bf" d="M56 41h3v3h-3z" overflow="visible" style="marker:none"/>
    <path fill="#8bb2d0" d="M56 37h3v3h-3z" overflow="visible" style="marker:none"/>
    <path fill="#3071a0" d="M56 33h3v3h-3z" overflow="visible" style="marker:none"/>
    <path fill="#21608f" d="M56 29h3v3h-3z" overflow="visible" style="marker:none"/>
    <path fill="#15517e" d="M56 25h3v3h-3z" overflow="visible" style="marker:none"/>
    <path fill="none" d="M56 20h3v4h-3z" overflow="visible" style="marker:none"/>
    <path fill="#124d79" d="M56 20h3v4h-3z" overflow="visible" style="marker:none"/>
    <path fill="#194280" d="M60 73h3v3h-3z" overflow="visible" style="marker:none"/>
    <path fill="#153e7b" d="M60 69h3v3h-3z" overflow="visible" style="marker:none"/>
    <path fill="#204b8a" d="M60 65h3v3h-3z" overflow="visible" style="marker:none"/>
    <path fill="#2a5799" d="M60 61h3v3h-3z" overflow="visible" style="marker:none"/>
    <path fill="#3563a8" d="M60 57h3v3h-3z" overflow="visible" style="marker:none"/>
    <path fill="#4477bc" d="M60 53h3v3h-3z" overflow="visible" style="marker:none"/>
    <path fill="#84aedb" d="M60 49h3v3h-3z" overflow="visible" style="marker:none"/>
    <path fill="#5394d0" d="M60 45h3v3h-3z" overflow="visible" style="marker:none"/>
    <path fill="#4a89c2" d="M60 41h3v3h-3z" overflow="visible" style="marker:none"/>
    <path fill="#5f95c8" d="M60 37h3v3h-3z" overflow="visible" style="marker:none"/>
    <path fill="#2d679d" d="M60 33h3v3h-3z" overflow="visible" style="marker:none"/>
    <path fill="#20568b" d="M60 29h3v3h-3z" overflow="visible" style="marker:none"/>
    <path fill="#164c7e" d="M60 25h3v3h-3z" overflow="visible" style="marker:none"/>
    <path fill="none" d="M60 20h3v4h-3z" overflow="visible" style="marker:none"/>
    <path fill="#134779" d="M60 20h3v4h-3z" overflow="visible" style="marker:none"/>
    <path fill="#194280" d="M64 73h3v3h-3z" overflow="visible" style="marker:none"/>
    <path fill="#163e7b" d="M64 69h3v3h-3z" overflow="visible" style="marker:none"/>
    <path fill="#204a8a" d="M64 65h3v3h-3z" overflow="visible" style="marker:none"/>
    <path fill="#2b5799" d="M64 61h3v3h-3z" overflow="visible" style="marker:none"/>
    <path fill="#3868ab" d="M64 57h3v3h-3z" overflow="visible" style="marker:none"/>
    <path fill="#487dbf" d="M64 53h3v3h-3z" overflow="visible" style="marker:none"/>
    <path fill="#5691d0" d="M64 49h3v3h-3z" overflow="visible" style="marker:none"/>
    <path fill="#5999d7" d="M64 45h3v3h-3z" overflow="visible" style="marker:none"/>
    <path fill="#5d95cd" d="M64 41h3v3h-3z" overflow="visible" style="marker:none"/>
    <path fill="none" d="M64 37h3v3h-3z" overflow="visible" style="marker:none"/>
    <path fill="#3166a1" d="M64 33h3v3h-3z" overflow="visible" style="marker:none"/>
    <path fill="#21538d" d="M64 29h3v3h-3z" overflow="visible" style="marker:none"/>
    <path fill="#17487e" d="M64 25h3v3h-3z" overflow="visible" style="marker:none"/>
    <path fill="none" d="M64 20h3v4h-3z" overflow="visible" style="marker:none"/>
    <path fill="#13437a" d="M64 20h3v4h-3z" overflow="visible" style="marker:none"/>
    <path fill="#194380" d="M68 73h3v3h-3z" overflow="visible" style="marker:none"/>
    <path fill="#163e7b" d="M68 69h3v3h-3z" overflow="visible" style="marker:none"/>
    <path fill="none" d="M68 65h3v3h-3z" overflow="visible" style="marker:none"/>
    <path fill="#2a5799" d="M68 61h3v3h-3z" overflow="visible" style="marker:none"/>
    <path fill="#3e72b1" d="M68 57h3v3h-3z" overflow="visible" style="marker:none"/>
    <path fill="#4c87c5" d="M68 53h3v3h-3z" overflow="visible" style="marker:none"/>
    <path fill="#85b6e2" d="M68 49h3v3h-3z" overflow="visible" style="marker:none"/>
    <path fill="#81b9e5" d="M68 45h3v3h-3z" overflow="visible" style="marker:none"/>
    <path fill="#5d9dd4" d="M68 41h3v3h-3z" overflow="visible" style="marker:none"/>
    <path fill="none" d="M68 37h3v3h-3z" overflow="visible" style="marker:none"/>
    <path fill="#3970aa" d="M68 33h3v3h-3z" overflow="visible" style="marker:none"/>
    <path fill="#275693" d="M68 29h3v3h-3z" overflow="visible" style="marker:none"/>
    <path fill="#18437f" d="M68 25h3v3h-3z" overflow="visible" style="marker:none"/>
    <path fill="none" d="M68 20h3v4h-3z" overflow="visible" style="marker:none"/>
    <path fill="#14407a" d="M68 20h3v4h-3z" overflow="visible" style="marker:none"/>
    <path fill="#4b87c1" d="M68 37h3v3h-3z" overflow="visible" style="marker:none"/>
    <path fill="#19427f" d="M72 73h3v3h-3z" overflow="visible" style="marker:none"/>
    <path fill="#153e7b" d="M72 69h3v3h-3z" overflow="visible" style="marker:none"/>
    <path fill="none" d="M72 65h3v3h-3z" overflow="visible" style="marker:none"/>
    <path fill="#2d5c9c" d="M72 61h3v3h-3z" overflow="visible" style="marker:none"/>
    <path fill="#4077b4" d="M72 57h3v3h-3z" overflow="visible" style="marker:none"/>
    <path fill="#518fca" d="M72 53h3v3h-3z" overflow="visible" style="marker:none"/>
    <path fill="#b1d5ee" d="M72 49h3v3h-3z" overflow="visible" style="marker:none"/>
    <path fill="#b5ddf4" d="M72 45h3v3h-3z" overflow="visible" style="marker:none"/>
    <path fill="#61acdd" d="M72 41h3v3h-3z" overflow="visible" style="marker:none"/>
    <path fill="none" d="M72 37h3v3h-3z" overflow="visible" style="marker:none"/>
    <path fill="#4078b3" d="M72 33h3v3h-3z" overflow="visible" style="marker:none"/>
    <path fill="#2a5996" d="M72 29h3v3h-3z" overflow="visible" style="marker:none"/>
    <path fill="#1a4381" d="M72 25h3v3h-3z" overflow="visible" style="marker:none"/>
    <path fill="none" d="M72 20h3v4h-3z" overflow="visible" style="marker:none"/>
    <path fill="#163e7b" d="M72 20h3v4h-3z" overflow="visible" style="marker:none"/>
    <path fill="#5191c8" d="M72 37h3v3h-3z" overflow="visible" style="marker:none"/>
    <path fill="#204a89" d="M68 65h3v3h-3z" overflow="visible" style="marker:none"/>
    <path fill="#427eb8" d="M64 37h3v3h-3z" overflow="visible" style="marker:none"/>
    <path fill="#204b8a" d="M72 65h3v3h-3z" overflow="visible" style="marker:none"/>
    <path fill="#194280" d="M76 73h3v3h-3z" overflow="visible" style="marker:none"/>
    <path fill="#153e7a" d="M76 69h3v3h-3z" overflow="visible" style="marker:none"/>
    <path fill="none" d="M76 65h3v3h-3z" overflow="visible" style="marker:none"/>
    <path fill="#2d5b9c" d="M76 61h3v3h-3z" overflow="visible" style="marker:none"/>
    <path fill="#4178b5" d="M76 57h3v3h-3z" overflow="visible" style="marker:none"/>
    <path fill="#5190cb" d="M76 53h3v3h-3z" overflow="visible" style="marker:none"/>
    <path fill="#64ade0" d="M76 49h3v3h-3z" overflow="visible" style="marker:none"/>
    <path fill="#b7e0f6" d="M76 45h3v3h-3z" overflow="visible" style="marker:none"/>
    <path fill="#6db6e2" d="M76 41h3v3h-3z" overflow="visible" style="marker:none"/>
    <path fill="none" d="M76 37h3v3h-3z" overflow="visible" style="marker:none"/>
    <path fill="#4079b3" d="M76 33h3v3h-3z" overflow="visible" style="marker:none"/>
    <path fill="#2c5c99" d="M76 29h3v3h-3z" overflow="visible" style="marker:none"/>
    <path fill="#194280" d="M76 25h3v3h-3z" overflow="visible" style="marker:none"/>
    <path fill="none" d="M76 20h3v4h-3z" overflow="visible" style="marker:none"/>
    <path fill="#163e7b" d="M76 20h3v4h-3z" overflow="visible" style="marker:none"/>
    <path fill="#76aad5" d="M76 37h3v3h-3z" overflow="visible" style="marker:none"/>
    <path fill="#204b8a" d="M76 65h3v3h-3z" overflow="visible" style="marker:none"/>
    <path fill="#194280" d="M80 73h4v3h-4z" overflow="visible" style="marker:none"/>
    <path fill="#153e7b" d="M80 69h4v3h-4z" overflow="visible" style="marker:none"/>
    <path fill="none" d="M80 65h4v3h-4z" overflow="visible" style="marker:none"/>
    <path fill="#2c5899" d="M80 61h4v3h-4z" overflow="visible" style="marker:none"/>
    <path fill="#3f74b3" d="M80 57h4v3h-4z" overflow="visible" style="marker:none"/>
    <path fill="#4f8bc8" d="M80 53h4v3h-4z" overflow="visible" style="marker:none"/>
    <path fill="#5da2da" d="M80 49h4v3h-4z" overflow="visible" style="marker:none"/>
    <path fill="#65afe3" d="M80 45h4v3h-4z" overflow="visible" style="marker:none"/>
    <path fill="#5da3d8" d="M80 41h4v3h-4z" overflow="visible" style="marker:none"/>
    <path fill="none" d="M80 37h4v3h-4z" overflow="visible" style="marker:none"/>
    <path fill="#3e75b0" d="M80 33h4v3h-4z" overflow="visible" style="marker:none"/>
    <path fill="#2a5996" d="M80 29h4v3h-4z" overflow="visible" style="marker:none"/>
    <path fill="#194280" d="M80 25h4v3h-4z" overflow="visible" style="marker:none"/>
    <path fill="none" d="M80 20h4v4h-4z" overflow="visible" style="marker:none"/>
    <path fill="#163f7b" d="M80 20h4v4h-4z" overflow="visible" style="marker:none"/>
    <path fill="#4e8bc5" d="M80 37h4v3h-4z" overflow="visible" style="marker:none"/>
    <path fill="#214b8b" d="M80 65h4v3h-4z" overflow="visible" style="marker:none"/>
  </g>
  <g fill="#fff" color="#000">
    <path d="M72 69h3v3h-3zm4-4h3v3h-3zm0-4h3v3h-3zm-4-4h3v3h-3zm-8 4h3v3h-3zm0 4h3v3h-3zm-8 4h3v3h-3zm-4 0h3v3h-3zm-4-4h3v3h-3zm0-4h3v3h-3zm4-4h3v3h-3zm4 0h3v3h-3zm-16 0h3v3h-3zm0 4h3v3h-3zm0 4h3v3h-3zm0 4h3v3h-3z" overflow="visible" style="marker:none"/>
    <path d="M40 69h3v3h-3zm28 0h3v3h-3zm0-12h3v3h-3z" overflow="visible" style="marker:none"/>
  </g>
  <path fill="url(#y)" d="M12 6c-3.324 0-6 2.676-6 6v53.375C21.659672 54.324822 48.932917 47 80 47c3.382367 0 6.716951.1124 10 .28125V12c0-3.324-2.676-6-6-6H12z" opacity=".3"/>
  <path fill="url(#z)" d="M12 20v56h72V20H12zm1 1h70v54H13V21z" color="#000" opacity=".31000001" overflow="visible" style="marker:none"/>
  <path fill="#fff" d="M12 76h72v1H12z" color="#000" opacity=".5" overflow="visible" style="marker:none"/>
</svg>