<svg width="300" height="200" viewBox="190 70 300 200" fill="none" xmlns="http://www.w3.org/2000/svg">
<g clip-path="url(#clip0_7_8)">
<path d="M454.653 231.938L445.171 246.429C444.863 246.899 444.377 247.207 443.826 247.272L383.187 255.425C383.106 255.425 383.025 255.442 382.927 255.442H288.638C288.557 255.442 288.476 255.442 288.379 255.425L227.756 247.272C227.205 247.191 226.719 246.883 226.411 246.429L216.945 231.938C216.637 231.484 216.556 230.917 216.701 230.382L228.648 187.525C228.875 186.698 229.62 186.131 230.479 186.131H255.976C256.576 186.131 257.144 185.839 257.5 185.353L261.585 179.842C261.942 179.355 262.509 179.064 263.109 179.064H408.473C409.073 179.064 409.64 179.355 409.997 179.842L414.082 185.353C414.438 185.839 414.989 186.115 415.589 186.131L441.735 186.406C442.594 186.406 443.339 186.99 443.55 187.817L454.88 230.366C455.026 230.885 454.929 231.452 454.637 231.89L454.653 231.938Z" fill="#3D3C43"/>
<path opacity="0.38" d="M454.636 231.938L445.154 246.429C444.862 246.9 444.376 247.208 443.825 247.272L383.17 255.426C383.17 255.426 382.992 255.426 382.927 255.426H288.621C288.621 255.426 288.443 255.426 288.378 255.426L227.739 247.272C227.188 247.208 226.702 246.9 226.394 246.429L216.928 231.955C216.636 231.501 216.539 230.933 216.701 230.415L228.631 187.557C228.728 187.217 228.906 186.909 229.166 186.682C229.231 186.617 229.312 186.552 229.376 186.504C229.684 186.293 230.057 186.163 230.462 186.163H255.976C256.576 186.163 257.127 185.888 257.483 185.402L261.568 179.89C261.925 179.404 262.508 179.129 263.092 179.129H408.456C409.056 179.129 409.607 179.404 409.964 179.89L414.065 185.402C414.421 185.888 414.972 186.163 415.572 186.18L441.718 186.439C442.009 186.439 442.317 186.52 442.561 186.65C442.739 186.731 442.885 186.844 443.014 186.958C443.258 187.185 443.436 187.493 443.533 187.833L454.88 230.382C455.025 230.917 454.928 231.468 454.636 231.906V231.938Z" fill="url(#paint5_linear_7_8)"/>
<path opacity="0.38" d="M454.636 231.938L445.154 246.429C444.862 246.9 444.376 247.208 443.825 247.272L383.17 255.426C383.17 255.426 382.992 255.426 382.927 255.426H288.621C288.621 255.426 288.443 255.426 288.378 255.426L227.739 247.272C227.188 247.208 226.702 246.9 226.394 246.429L216.928 231.955C216.636 231.501 216.539 230.933 216.701 230.415L228.631 187.557C228.728 187.217 228.906 186.909 229.166 186.682C229.231 186.617 229.312 186.552 229.376 186.504C229.684 186.293 230.057 186.163 230.462 186.163H255.976C256.576 186.163 257.127 185.888 257.483 185.402L261.568 179.89C261.925 179.404 262.508 179.129 263.092 179.129H408.456C409.056 179.129 409.607 179.404 409.964 179.89L414.065 185.402C414.421 185.888 414.972 186.163 415.572 186.18L441.718 186.439C442.009 186.439 442.317 186.52 442.561 186.65C442.739 186.731 442.885 186.844 443.014 186.958C443.258 187.185 443.436 187.493 443.533 187.833L454.88 230.382C455.025 230.917 454.928 231.468 454.636 231.906V231.938Z" fill="url(#paint6_linear_7_8)"/>
<path d="M262.151 179.112L274.6 236.315L256.932 186.163L262.151 179.112Z" fill="#231F20"/>
<path d="M262.151 179.112L274.6 236.315L256.932 186.163L262.151 179.112Z" fill="url(#paint7_linear_7_8)"/>
<path d="M409.429 179.112L399.169 233.851L414.648 186.163L409.429 179.112Z" fill="#231F22"/>
<path d="M409.429 179.112L399.169 233.851L414.648 186.163L409.429 179.112Z" fill="url(#paint8_linear_7_8)"/>
<path d="M258.569 231.566L251.68 230.026L229.166 186.682C229.166 186.682 229.312 186.552 229.376 186.504L258.553 231.566H258.569Z" fill="#0E0E0E"/>
<path d="M443.032 186.974L420.907 230.01L413.855 231.793L442.578 186.666C442.757 186.747 442.902 186.861 443.032 186.974Z" fill="#151414"/>
<path d="M216.474 231.241L274.357 236.315H399.168L455.106 231.241L444.684 247.175L383.056 255.458H288.508L226.896 247.175L216.474 231.241Z" fill="#19181C"/>
<path d="M274.357 236.315L288.508 255.458L226.896 247.175L216.474 231.241L274.357 236.315Z" fill="#222126"/>
<path d="M225.049 236.072L273.401 239.881L270.824 242.134L225.049 236.072Z" fill="#070707"/>
<path d="M270.825 242.134L275.947 248.731L282.868 252.005L273.402 239.881L270.825 242.134Z" fill="#252527"/>
<path d="M398.473 236.315L383.058 255.458L444.685 247.175L455.108 231.241L398.473 236.315Z" fill="#222126"/>
<path d="M275.946 248.731L234.775 245.473L282.868 252.005" fill="#37363A"/>
<path d="M448.607 236.072L400.238 239.881L402.832 242.134L448.607 236.072Z" fill="#070707"/>
<path d="M402.832 242.134L397.71 248.731L390.789 252.005L400.239 239.881L402.832 242.134Z" fill="#252527"/>
<path d="M397.71 248.731L438.881 245.473L390.789 252.005" fill="#323137"/>
<path d="M281.489 239.881H390.788L379.523 249.801H293.354L281.489 239.881Z" fill="#070707"/>
<path d="M281.489 239.881L290.793 252.962L293.354 249.801L281.489 239.881Z" fill="#242426"/>
<path d="M390.789 239.881L381.631 252.962L379.524 249.801L390.789 239.881Z" fill="#242426"/>
<path d="M290.792 252.962H381.629L379.522 249.801H293.353L290.792 252.962Z" fill="#333237"/>
<path d="M216.474 231.241L231.078 223.72L274.6 236.315L216.474 231.241Z" fill="#535157"/>
<path opacity="0.38" d="M216.474 231.241L231.078 223.72L274.6 236.315L216.474 231.241Z" fill="url(#paint9_linear_7_8)"/>
<mask id="mask0_7_8" style="mask-type:luminance" maskUnits="userSpaceOnUse" x="231" y="198" width="22" height="32">
<path d="M231.079 223.72L235.975 198.709L252.184 229.718L231.079 223.72Z" fill="white"/>
</mask>
<g mask="url(#mask0_7_8)">
<path d="M258.139 230.363L216.175 218.583L215.973 219.301L257.938 231.081L258.139 230.363Z" fill="#151414"/>
<path d="M258.144 229.082L216.179 217.302L215.977 218.02L257.942 229.799L258.144 229.082Z" fill="#151414"/>
<path d="M258.151 227.8L216.186 216.02L215.985 216.738L257.95 228.518L258.151 227.8Z" fill="#151414"/>
<path d="M258.139 226.519L216.175 214.739L215.973 215.457L257.938 227.236L258.139 226.519Z" fill="#151414"/>
<path d="M258.146 225.237L216.181 213.457L215.98 214.175L257.944 225.955L258.146 225.237Z" fill="#151414"/>
<path d="M258.151 223.955L216.186 212.175L215.985 212.893L257.95 224.673L258.151 223.955Z" fill="#151414"/>
<path d="M258.14 222.674L216.176 210.894L215.974 211.612L257.939 223.392L258.14 222.674Z" fill="#151414"/>
<path d="M258.146 221.392L216.181 209.613L215.98 210.33L257.944 222.11L258.146 221.392Z" fill="#151414"/>
<path d="M258.135 220.111L216.171 208.331L215.969 209.049L257.934 220.829L258.135 220.111Z" fill="#151414"/>
<path d="M258.14 218.829L216.176 207.05L215.974 207.767L257.939 219.547L258.14 218.829Z" fill="#151414"/>
<path d="M258.147 217.548L216.182 205.768L215.981 206.486L257.945 218.266L258.147 217.548Z" fill="#151414"/>
<path d="M258.135 216.267L216.171 204.487L215.969 205.205L257.934 216.985L258.135 216.267Z" fill="#151414"/>
<path d="M258.143 215.001L216.178 203.221L215.976 203.939L257.941 215.719L258.143 215.001Z" fill="#151414"/>
<path d="M258.152 213.704L216.187 201.924L215.986 202.642L257.951 214.422L258.152 213.704Z" fill="#151414"/>
<path d="M258.14 212.423L216.176 200.643L215.974 201.36L257.939 213.14L258.14 212.423Z" fill="#151414"/>
<path d="M258.147 211.141L216.182 199.361L215.981 200.079L257.945 211.859L258.147 211.141Z" fill="#151414"/>
<path d="M258.135 209.86L216.171 198.08L215.969 198.798L257.934 210.578L258.135 209.86Z" fill="#151414"/>
<path d="M258.143 208.578L216.178 196.798L215.976 197.516L257.941 209.296L258.143 208.578Z" fill="#151414"/>
<path d="M258.148 207.297L216.183 195.517L215.982 196.235L257.946 208.015L258.148 207.297Z" fill="#151414"/>
<path d="M258.138 206.015L216.174 194.235L215.972 194.953L257.937 206.733L258.138 206.015Z" fill="#151414"/>
</g>
<path d="M455.107 231.241L441.994 223.72L398.472 236.315L455.107 231.241Z" fill="#545259"/>
<path opacity="0.38" d="M455.107 231.241L441.994 223.72L398.472 236.315L455.107 231.241Z" fill="url(#paint10_linear_7_8)"/>
<mask id="mask1_7_8" style="mask-type:luminance" maskUnits="userSpaceOnUse" x="420" y="198" width="22" height="32">
<path d="M441.995 223.72L437.1 198.709L420.891 229.718L441.995 223.72Z" fill="white"/>
</mask>
<g mask="url(#mask1_7_8)">
<path d="M415.129 231.085L457.094 219.305L456.892 218.587L414.928 230.367L415.129 231.085Z" fill="#151414"/>
<path d="M415.137 229.806L457.101 218.026L456.9 217.308L414.935 229.088L415.137 229.806Z" fill="#151414"/>
<path d="M415.125 228.526L457.09 216.746L456.888 216.028L414.924 227.808L415.125 228.526Z" fill="#151414"/>
<path d="M415.132 227.246L457.097 215.467L456.896 214.749L414.931 226.529L415.132 227.246Z" fill="#151414"/>
<path d="M415.137 225.967L457.101 214.187L456.9 213.469L414.935 225.249L415.137 225.967Z" fill="#151414"/>
<path d="M415.127 224.671L457.092 212.891L456.89 212.173L414.926 223.953L415.127 224.671Z" fill="#151414"/>
<path d="M415.132 223.392L457.097 211.612L456.896 210.894L414.931 222.674L415.132 223.392Z" fill="#151414"/>
<path d="M415.138 222.112L457.102 210.332L456.901 209.614L414.936 221.394L415.138 222.112Z" fill="#151414"/>
<path d="M415.127 220.832L457.092 209.052L456.89 208.335L414.926 220.115L415.127 220.832Z" fill="#151414"/>
<path d="M415.133 219.553L457.098 207.773L456.897 207.055L414.932 218.835L415.133 219.553Z" fill="#151414"/>
<path d="M415.138 218.257L457.102 206.477L456.901 205.759L414.936 217.539L415.138 218.257Z" fill="#151414"/>
<path d="M415.128 216.978L457.093 205.198L456.891 204.48L414.927 216.26L415.128 216.978Z" fill="#151414"/>
<path d="M415.133 215.698L457.098 203.918L456.897 203.2L414.932 214.98L415.133 215.698Z" fill="#151414"/>
<path d="M415.127 214.434L457.092 202.654L456.89 201.936L414.926 213.716L415.127 214.434Z" fill="#151414"/>
<path d="M415.133 213.138L457.098 201.358L456.897 200.641L414.932 212.42L415.133 213.138Z" fill="#151414"/>
<path d="M415.14 211.859L457.104 200.079L456.903 199.361L414.938 211.141L415.14 211.859Z" fill="#151414"/>
<path d="M415.128 210.579L457.093 198.799L456.891 198.081L414.927 209.861L415.128 210.579Z" fill="#151414"/>
<path d="M415.133 209.3L457.098 197.52L456.897 196.802L414.932 208.582L415.133 209.3Z" fill="#151414"/>
<path d="M415.14 208.02L457.104 196.24L456.903 195.522L414.938 207.302L415.14 208.02Z" fill="#151414"/>
<path d="M415.128 206.724L457.093 194.944L456.891 194.226L414.927 206.006L415.128 206.724Z" fill="#151414"/>
</g>
<path d="M248.098 186.163H236.816L200.394 86.8817L200.297 86.6224C200.264 86.5251 200.248 86.4441 200.216 86.363C200.216 86.2496 200.216 86.1523 200.183 86.0551L200.005 82.6997C199.972 82.1 200.361 81.5813 200.945 81.4354L203.279 80.8681C203.603 80.7708 203.944 80.8195 204.235 80.9978C204.495 81.1112 204.738 81.3382 204.868 81.6461C204.868 81.6461 204.9 81.6786 204.9 81.6948L248.098 186.196V186.163Z" fill="#4F4E51"/>
<path d="M248.098 186.163H236.816L200.394 86.8817L200.297 86.6224C200.264 86.5251 200.248 86.4441 200.216 86.363C200.216 86.2496 200.216 86.1523 200.183 86.0551L200.005 82.6997C199.972 82.1 200.361 81.5813 200.945 81.4354L203.279 80.8681C203.603 80.7708 203.944 80.8195 204.235 80.9978C204.495 81.1112 204.738 81.3382 204.868 81.6461C204.868 81.6461 204.9 81.6786 204.9 81.6948L248.098 186.196V186.163Z" fill="url(#paint11_linear_7_8)"/>
<path d="M200.314 86.6062L205.079 85.6823L246.218 186.163H236.817L200.314 86.6062Z" fill="#212023"/>
<path opacity="0.38" d="M200.314 86.6062L205.079 85.6823L246.218 186.163H236.817L200.314 86.6062Z" fill="url(#paint12_linear_7_8)"/>
<path d="M205.255 85.1148C205.304 85.439 205.077 85.7469 204.769 85.7956L200.393 86.8654L200.295 86.606C200.263 86.5088 200.247 86.4277 200.214 86.3467L204.64 85.2607C204.64 85.2607 204.721 85.212 204.721 85.1634L204.234 80.9652C204.494 81.0787 204.737 81.3056 204.866 81.6136L205.255 85.1148Z" fill="#212023"/>
<path d="M246.088 186.163L204.917 85.2932" stroke="#212023" stroke-width="0.551115" stroke-miterlimit="10"/>
<path d="M422.834 186.261L434.099 186.358L470.538 86.9791L470.635 86.7198C470.668 86.6225 470.684 86.5415 470.716 86.4604C470.716 86.347 470.716 86.2497 470.749 86.1525L470.927 82.7972C470.959 82.1974 470.57 81.6787 469.987 81.5328L467.653 80.9655C467.328 80.8683 466.988 80.9169 466.696 81.0952C466.437 81.2086 466.194 81.4356 466.064 81.7435C466.064 81.7435 466.032 81.776 466.032 81.7922L422.834 186.293V186.261Z" fill="#4F4E51"/>
<path d="M422.834 186.261L434.099 186.358L470.538 86.9791L470.635 86.7198C470.668 86.6225 470.684 86.5415 470.716 86.4604C470.716 86.347 470.716 86.2497 470.749 86.1525L470.927 82.7972C470.959 82.1974 470.57 81.6787 469.987 81.5328L467.653 80.9655C467.328 80.8683 466.988 80.9169 466.696 81.0952C466.437 81.2086 466.194 81.4356 466.064 81.7435C466.064 81.7435 466.032 81.776 466.032 81.7922L422.834 186.293V186.261Z" fill="url(#paint13_linear_7_8)"/>
<path d="M470.618 86.7196L465.837 85.7794L424.714 186.261L434.083 186.358L470.618 86.7196Z" fill="#212023"/>
<path opacity="0.38" d="M470.618 86.7196L465.837 85.7794L424.714 186.261L434.083 186.358L470.618 86.7196Z" fill="url(#paint14_linear_7_8)"/>
<path d="M465.658 85.2122C465.61 85.5364 465.836 85.8444 466.144 85.893L470.521 86.9628L470.618 86.7034C470.651 86.6062 470.667 86.5251 470.699 86.4441L466.274 85.3581C466.274 85.3581 466.193 85.3094 466.193 85.2608L466.679 81.0626C466.42 81.1761 466.177 81.403 466.047 81.711L465.658 85.2122Z" fill="#212023"/>
<path d="M424.892 186.082L465.999 85.3905" stroke="#212023" stroke-width="0.551115" stroke-miterlimit="10"/>
<path d="M250.595 252.832C249.184 252.767 248.001 251.924 248.001 251.924L245.894 249.671L258.44 251.406L258.148 252.378C258.148 252.378 258.019 252.654 257.516 252.621C257.014 252.589 250.611 252.816 250.611 252.816L250.595 252.832Z" fill="#1C1C1E"/>
<path d="M424.439 252.362C425.849 252.297 427.032 251.454 427.032 251.454L429.139 249.201L416.594 250.936L416.885 251.908C416.885 251.908 417.015 252.184 417.517 252.151C418.02 252.119 424.423 252.346 424.423 252.346L424.439 252.362Z" fill="#1C1C1E"/>
<path d="M296.483 230.609H299.157L298.849 231.517H296.11L296.483 230.609Z" fill="url(#paint15_linear_7_8)"/>
<path d="M307.7 230.609H310.569L310.504 231.517H307.57L307.7 230.609Z" fill="url(#paint16_linear_7_8)"/>
<path d="M318.966 230.609H321.787L321.771 231.517H318.918L318.966 230.609Z" fill="url(#paint17_linear_7_8)"/>
<path d="M330.23 230.609H333.051V231.517H330.263L330.23 230.609Z" fill="url(#paint18_linear_7_8)"/>
<path d="M341.059 230.609H344.284L344.252 231.517H341.059V230.609Z" fill="url(#paint19_linear_7_8)"/>
<path d="M352.729 230.609H355.646L355.598 231.517H352.729V230.609Z" fill="url(#paint20_linear_7_8)"/>
<path d="M363.946 230.609H366.88L366.945 231.517H363.995L363.946 230.609Z" fill="url(#paint21_linear_7_8)"/>
<path d="M378.454 231.517H375.65L375.358 230.609H378.113L378.454 231.517Z" fill="url(#paint22_linear_7_8)"/>
<path d="M331.592 228.956C331.87 228.956 332.095 228.724 332.095 228.437C332.095 228.151 331.87 227.918 331.592 227.918C331.315 227.918 331.09 228.151 331.09 228.437C331.09 228.724 331.315 228.956 331.592 228.956Z" fill="white"/>
<path d="M320.327 228.956C320.605 228.956 320.83 228.724 320.83 228.437C320.83 228.151 320.605 227.918 320.327 227.918C320.05 227.918 319.825 228.151 319.825 228.437C319.825 228.724 320.05 228.956 320.327 228.956Z" fill="white"/>
<path d="M309.06 228.956C309.338 228.956 309.563 228.724 309.563 228.437C309.563 228.151 309.338 227.918 309.06 227.918C308.783 227.918 308.558 228.151 308.558 228.437C308.558 228.724 308.783 228.956 309.06 228.956Z" fill="white"/>
<path d="M297.99 228.956C298.267 228.956 298.492 228.724 298.492 228.437C298.492 228.151 298.267 227.918 297.99 227.918C297.712 227.918 297.487 228.151 297.487 228.437C297.487 228.724 297.712 228.956 297.99 228.956Z" fill="white"/>
<path d="M376.412 228.956C376.69 228.956 376.915 228.724 376.915 228.437C376.915 228.151 376.69 227.918 376.412 227.918C376.135 227.918 375.91 228.151 375.91 228.437C375.91 228.724 376.135 228.956 376.412 228.956Z" fill="white"/>
<path d="M365.146 228.956C365.424 228.956 365.649 228.724 365.649 228.437C365.649 228.151 365.424 227.918 365.146 227.918C364.869 227.918 364.644 228.151 364.644 228.437C364.644 228.724 364.869 228.956 365.146 228.956Z" fill="white"/>
<path d="M354.188 228.956C354.465 228.956 354.69 228.724 354.69 228.437C354.69 228.151 354.465 227.918 354.188 227.918C353.91 227.918 353.685 228.151 353.685 228.437C353.685 228.724 353.91 228.956 354.188 228.956Z" fill="white"/>
<path d="M342.794 228.956C343.071 228.956 343.296 228.724 343.296 228.437C343.296 228.151 343.071 227.918 342.794 227.918C342.516 227.918 342.291 228.151 342.291 228.437C342.291 228.724 342.516 228.956 342.794 228.956Z" fill="white"/>
<path d="M357.996 205.031H315.836L316.808 202.324H357.105L357.996 205.031Z" fill="white"/>
</g>
<defs>
<linearGradient id="paint0_linear_7_8" x1="-258.781" y1="294.522" x2="69.9105" y2="163.162" gradientUnits="userSpaceOnUse">
<stop offset="0.19" stop-color="white"/>
<stop offset="0.41" stop-color="#FCFDFF"/>
<stop offset="0.55" stop-color="#F3F8FF"/>
<stop offset="0.67" stop-color="#E4F0FF"/>
<stop offset="0.78" stop-color="#CFE4FF"/>
<stop offset="0.84" stop-color="#95C2F4"/>
<stop offset="0.87" stop-color="#85B7EE"/>
<stop offset="0.92" stop-color="#72AAE7"/>
<stop offset="0.95" stop-color="#6CA6E5"/>
</linearGradient>
<linearGradient id="paint1_linear_7_8" x1="-345.759" y1="283.857" x2="102.151" y2="139.286" gradientUnits="userSpaceOnUse">
<stop offset="0.19" stop-color="white"/>
<stop offset="0.41" stop-color="#FCFDFF"/>
<stop offset="0.55" stop-color="#F3F8FF"/>
<stop offset="0.67" stop-color="#E4F0FF"/>
<stop offset="0.78" stop-color="#CFE4FF"/>
<stop offset="0.88" stop-color="#B4D5FF"/>
<stop offset="0.95" stop-color="#9BC7FF"/>
</linearGradient>
<linearGradient id="paint2_linear_7_8" x1="309.419" y1="99.071" x2="-427.567" y2="99.071" gradientUnits="userSpaceOnUse">
<stop offset="0.05" stop-color="#9BC7FF"/>
<stop offset="0.12" stop-color="#B4D5FF"/>
<stop offset="0.22" stop-color="#CFE4FF"/>
<stop offset="0.33" stop-color="#E4F0FF"/>
<stop offset="0.45" stop-color="#F3F8FF"/>
<stop offset="0.59" stop-color="#FCFDFF"/>
<stop offset="0.81" stop-color="white"/>
</linearGradient>
<linearGradient id="paint3_linear_7_8" x1="148.752" y1="59.18" x2="301.005" y2="211.385" gradientUnits="userSpaceOnUse">
<stop offset="0.07" stop-color="#00D189"/>
<stop offset="0.71" stop-color="#005EFF"/>
</linearGradient>
<linearGradient id="paint4_linear_7_8" x1="170.684" y1="101.859" x2="185.483" y2="87.0762" gradientUnits="userSpaceOnUse">
<stop offset="0.07" stop-color="#00D189"/>
<stop offset="0.71" stop-color="#005EFF"/>
</linearGradient>
<linearGradient id="paint5_linear_7_8" x1="335.79" y1="255.458" x2="335.79" y2="179.112" gradientUnits="userSpaceOnUse">
<stop offset="0.48" stop-color="#535157" stop-opacity="0"/>
<stop offset="0.52" stop-color="#5A5960" stop-opacity="0.06"/>
<stop offset="0.59" stop-color="#6D6E79" stop-opacity="0.21"/>
<stop offset="0.7" stop-color="#8C91A2" stop-opacity="0.46"/>
<stop offset="0.83" stop-color="#B6C1DA" stop-opacity="0.8"/>
<stop offset="0.91" stop-color="#D0DEFC"/>
</linearGradient>
<linearGradient id="paint6_linear_7_8" x1="335.79" y1="255.458" x2="335.79" y2="179.112" gradientUnits="userSpaceOnUse">
<stop offset="0.26" stop-color="#191818"/>
<stop offset="0.46" stop-color="#2F3033"/>
<stop offset="0.6" stop-color="#3C3D42"/>
</linearGradient>
<linearGradient id="paint7_linear_7_8" x1="256.705" y1="174.444" x2="291.263" y2="274.358" gradientUnits="userSpaceOnUse">
<stop offset="0.22" stop-color="#231F22"/>
<stop offset="0.29" stop-color="#1D1A1C"/>
<stop offset="0.52" stop-color="#0F0E0F"/>
</linearGradient>
<linearGradient id="paint8_linear_7_8" x1="399.169" y1="206.49" x2="414.648" y2="206.49" gradientUnits="userSpaceOnUse">
<stop offset="0.48" stop-color="#0F0E0F"/>
<stop offset="0.71" stop-color="#1D1A1C"/>
<stop offset="0.78" stop-color="#231F22"/>
</linearGradient>
<linearGradient id="paint9_linear_7_8" x1="216.474" y1="230.026" x2="274.6" y2="230.026" gradientUnits="userSpaceOnUse">
<stop offset="0.14" stop-color="#3C3D42"/>
<stop offset="0.34" stop-color="#2F3033"/>
<stop offset="0.61" stop-color="#191818"/>
</linearGradient>
<linearGradient id="paint10_linear_7_8" x1="398.472" y1="230.026" x2="455.107" y2="230.026" gradientUnits="userSpaceOnUse">
<stop offset="0.14" stop-color="#3C3D42"/>
<stop offset="0.34" stop-color="#2F3033"/>
<stop offset="0.61" stop-color="#191818"/>
</linearGradient>
<linearGradient id="paint11_linear_7_8" x1="195.661" y1="80.4142" x2="261.924" y2="221.143" gradientUnits="userSpaceOnUse">
<stop offset="0.14" stop-color="#4E535E"/>
<stop offset="0.27" stop-color="#42464F"/>
<stop offset="0.51" stop-color="#262629"/>
<stop offset="0.61" stop-color="#191818"/>
</linearGradient>
<linearGradient id="paint12_linear_7_8" x1="201.951" y1="75.6325" x2="248.731" y2="208.986" gradientUnits="userSpaceOnUse">
<stop offset="0.14" stop-color="#46484F"/>
<stop offset="0.3" stop-color="#3A3B40"/>
<stop offset="0.6" stop-color="#1A191A"/>
<stop offset="0.61" stop-color="#191818"/>
</linearGradient>
<linearGradient id="paint13_linear_7_8" x1="475.271" y1="80.5116" x2="409.008" y2="221.257" gradientUnits="userSpaceOnUse">
<stop offset="0.14" stop-color="#4E535E"/>
<stop offset="0.27" stop-color="#42464F"/>
<stop offset="0.51" stop-color="#262629"/>
<stop offset="0.61" stop-color="#191818"/>
</linearGradient>
<linearGradient id="paint14_linear_7_8" x1="468.981" y1="75.7297" x2="422.185" y2="209.083" gradientUnits="userSpaceOnUse">
<stop offset="0.14" stop-color="#46484F"/>
<stop offset="0.3" stop-color="#3A3B40"/>
<stop offset="0.6" stop-color="#1A191A"/>
<stop offset="0.61" stop-color="#191818"/>
</linearGradient>
<linearGradient id="paint15_linear_7_8" x1="297.228" y1="230.204" x2="298.282" y2="232.441" gradientUnits="userSpaceOnUse">
<stop offset="0.07" stop-color="#00D189"/>
<stop offset="0.71" stop-color="#005EFF"/>
</linearGradient>
<linearGradient id="paint16_linear_7_8" x1="308.624" y1="230.107" x2="309.791" y2="232.57" gradientUnits="userSpaceOnUse">
<stop offset="0.07" stop-color="#00D189"/>
<stop offset="0.71" stop-color="#005EFF"/>
</linearGradient>
<linearGradient id="paint17_linear_7_8" x1="319.907" y1="230.107" x2="321.057" y2="232.57" gradientUnits="userSpaceOnUse">
<stop offset="0.07" stop-color="#00D189"/>
<stop offset="0.71" stop-color="#005EFF"/>
</linearGradient>
<linearGradient id="paint18_linear_7_8" x1="331.203" y1="230.09" x2="332.37" y2="232.57" gradientUnits="userSpaceOnUse">
<stop offset="0.07" stop-color="#00D189"/>
<stop offset="0.71" stop-color="#005EFF"/>
</linearGradient>
<linearGradient id="paint19_linear_7_8" x1="342.177" y1="230.009" x2="343.441" y2="232.684" gradientUnits="userSpaceOnUse">
<stop offset="0.07" stop-color="#00D189"/>
<stop offset="0.71" stop-color="#005EFF"/>
</linearGradient>
<linearGradient id="paint20_linear_7_8" x1="353.717" y1="230.074" x2="354.901" y2="232.57" gradientUnits="userSpaceOnUse">
<stop offset="0.07" stop-color="#00D189"/>
<stop offset="0.71" stop-color="#005EFF"/>
</linearGradient>
<linearGradient id="paint21_linear_7_8" x1="364.967" y1="230.058" x2="366.183" y2="232.619" gradientUnits="userSpaceOnUse">
<stop offset="0.07" stop-color="#00D189"/>
<stop offset="0.71" stop-color="#005EFF"/>
</linearGradient>
<linearGradient id="paint22_linear_7_8" x1="376.411" y1="230.042" x2="377.643" y2="232.668" gradientUnits="userSpaceOnUse">
<stop offset="0.07" stop-color="#00D189"/>
<stop offset="0.71" stop-color="#005EFF"/>
</linearGradient>
<clipPath id="clip0_7_8">
<rect width="470.895" height="277" fill="white"/>
</clipPath>
</defs>
</svg>
