<?xml version="1.0" encoding="UTF-8" standalone="no"?>
<svg xmlns="http://www.w3.org/2000/svg" xmlns:xlink="http://www.w3.org/1999/xlink" width="96" height="96" version="1.0">
  <defs>
    <path id="J" fill="#fff" d="M76 29a2 2 0 1 1-4 0 2 2 0 1 1 4 0z" color="#000" enable-background="accumulate" opacity=".6" overflow="visible" style="marker:none"/>
    <path id="K" fill="none" stroke="#fff" stroke-width="1.20000005" d="M30 43a3 3 0 1 1-6 0 3 3 0 1 1 6 0z" color="#000" enable-background="accumulate" opacity=".6" overflow="visible" style="marker:none"/>
  </defs>
  <defs>
    <linearGradient id="g">
      <stop offset="0" stop-color="#d88215"/>
      <stop offset="1" stop-color="#efc259"/>
    </linearGradient>
    <linearGradient id="f">
      <stop offset="0" stop-color="#fff"/>
      <stop offset="1" stop-color="#fff" stop-opacity="0"/>
    </linearGradient>
    <linearGradient id="d">
      <stop offset="0" stop-color="#fff" stop-opacity="0"/>
      <stop offset=".15000001" stop-color="#fff"/>
      <stop offset=".69999999" stop-color="#fff"/>
      <stop offset="1" stop-color="#fff" stop-opacity="0"/>
    </linearGradient>
    <linearGradient id="a">
      <stop offset="0" stop-color="#4885bd"/>
      <stop offset="1" stop-color="#91b5d7"/>
    </linearGradient>
    <linearGradient xlink:href="#a" id="y" x1="48" x2="48" y1="90" y2="5.9877172" gradientUnits="userSpaceOnUse"/>
    <linearGradient id="b" x1="45.447727" x2="45.447727" y1="92.539597" y2="7.0165396" gradientTransform="matrix(1.00587 0 0 .99417 100 0)" gradientUnits="userSpaceOnUse">
      <stop offset="0"/>
      <stop offset="1" stop-opacity=".58823532"/>
    </linearGradient>
    <linearGradient xlink:href="#b" id="u" x1="32.251034" x2="32.251034" y1="6.1317081" y2="90.238609" gradientTransform="matrix(1.0238 0 0 1.0119 -1.1428571 -98.071429)" gradientUnits="userSpaceOnUse"/>
    <linearGradient xlink:href="#b" id="v" x1="32.251034" x2="32.251034" y1="6.1317081" y2="90.238609" gradientTransform="matrix(1.0238 0 0 1.0119 -1.1428571 -98.071429)" gradientUnits="userSpaceOnUse"/>
    <linearGradient xlink:href="#b" id="w" x1="32.251034" x2="32.251034" y1="6.1317081" y2="90.238609" gradientTransform="matrix(1.0238 0 0 1.0119 -1.1428571 -98.071429)" gradientUnits="userSpaceOnUse"/>
    <linearGradient xlink:href="#b" id="x" x1="32.251034" x2="32.251034" y1="6.1317081" y2="90.238609" gradientTransform="translate(0 -97)" gradientUnits="userSpaceOnUse"/>
    <linearGradient xlink:href="#b" id="t" x1="32.251034" x2="32.251034" y1="6.1317081" y2="90.238609" gradientTransform="matrix(1.0238 0 0 1.0119 -1.1428571 -98.071429)" gradientUnits="userSpaceOnUse"/>
    <linearGradient id="c">
      <stop offset="0" stop-color="#fff"/>
      <stop offset="1" stop-color="#fff" stop-opacity="0"/>
    </linearGradient>
    <linearGradient id="s">
      <stop offset="0" stop-color="#fff"/>
      <stop offset="1" stop-color="#fff" stop-opacity="0"/>
    </linearGradient>
    <linearGradient xlink:href="#c" id="z" x1="36.357143" x2="36.357143" y1="6" y2="63.893143" gradientUnits="userSpaceOnUse"/>
    <linearGradient xlink:href="#d" id="E" x1="10" x2="69" y1="11.5" y2="11.5" gradientTransform="matrix(1.3572 0 0 1 -5.5720228 13)" gradientUnits="userSpaceOnUse"/>
    <linearGradient xlink:href="#d" id="F" x1="10" x2="69" y1="11.5" y2="11.5" gradientTransform="matrix(1.00067 0 0 .83642 5.9932514 -25.118774)" gradientUnits="userSpaceOnUse"/>
    <linearGradient xlink:href="#d" id="G" x1="10" x2="69" y1="11.5" y2="11.5" gradientTransform="matrix(.99976 0 0 .83079 7.0023809 -90.054063)" gradientUnits="userSpaceOnUse"/>
    <linearGradient xlink:href="#d" id="H" x1="10" x2="69" y1="11.5" y2="11.5" gradientTransform="matrix(1.1017 0 0 1 -96.016948 -86)" gradientUnits="userSpaceOnUse"/>
    <linearGradient id="e">
      <stop offset="0" stop-color="#fff"/>
      <stop offset="1" stop-color="#fff" stop-opacity="0"/>
    </linearGradient>
    <linearGradient xlink:href="#e" id="B" x1="48" x2="48" y1="20.220806" y2="138.66119" gradientUnits="userSpaceOnUse"/>
    <linearGradient xlink:href="#d" id="I" x1="10" x2="69" y1="11.5" y2="11.5" gradientTransform="matrix(1.23012 0 0 1 -2.3011741 21)" gradientUnits="userSpaceOnUse"/>
    <linearGradient xlink:href="#f" id="L" x1="38" x2="78" y1="41" y2="41" gradientUnits="userSpaceOnUse"/>
    <linearGradient xlink:href="#f" id="N" x1="36" x2="89" y1="51.313709" y2="51" gradientUnits="userSpaceOnUse"/>
    <linearGradient xlink:href="#f" id="M" x1="38" x2="89" y1="41" y2="41" gradientUnits="userSpaceOnUse"/>
    <linearGradient xlink:href="#g" id="O" x1="66" x2="66" y1="84" y2="55" gradientTransform="translate(-24.311447 -30.25) scale(1.3125)" gradientUnits="userSpaceOnUse"/>
    <linearGradient id="h">
      <stop offset="0" stop-color="#e6605b"/>
      <stop offset="1" stop-color="#f08682"/>
    </linearGradient>
    <linearGradient id="i">
      <stop offset="0"/>
      <stop offset=".69999999" stop-opacity=".49803922"/>
      <stop offset="1" stop-opacity="0"/>
    </linearGradient>
    <linearGradient id="j">
      <stop offset="0"/>
      <stop offset=".25" stop-color="#282828"/>
      <stop offset=".30000001" stop-color="#3c3c3c"/>
      <stop offset=".69999999" stop-color="#646464"/>
      <stop offset=".75" stop-color="#787878"/>
      <stop offset="1" stop-color="#a0a0a0"/>
    </linearGradient>
    <linearGradient id="k">
      <stop offset="0"/>
      <stop offset=".06588447"/>
      <stop offset=".07" stop-color="#ad5f1b"/>
      <stop offset=".1913653" stop-color="#ad601a"/>
      <stop offset=".20983393"/>
      <stop offset="1"/>
    </linearGradient>
    <linearGradient id="l">
      <stop offset="0"/>
      <stop offset=".5" stop-color="#7d7d7d"/>
      <stop offset="1"/>
    </linearGradient>
    <linearGradient id="m">
      <stop offset="0" stop-color="#da8539"/>
      <stop offset="1" stop-color="#fadfc7"/>
    </linearGradient>
    <linearGradient id="n">
      <stop offset="0" stop-color="#fff"/>
      <stop offset="1" stop-color="#fff" stop-opacity="0"/>
    </linearGradient>
    <linearGradient id="o">
      <stop offset="0" stop-color="#404040"/>
      <stop offset=".2" stop-color="gray"/>
      <stop offset=".69999999" stop-color="#efefef"/>
      <stop offset="1" stop-color="#dcdcdc"/>
    </linearGradient>
    <linearGradient id="p">
      <stop offset="0" stop-color="#444542"/>
      <stop offset="1" stop-color="#71746e"/>
    </linearGradient>
    <linearGradient id="q">
      <stop offset="0" stop-color="#fff"/>
      <stop offset=".69999999" stop-color="#fff" stop-opacity=".49803922"/>
      <stop offset="1" stop-color="#fff" stop-opacity="0"/>
    </linearGradient>
    <linearGradient id="r">
      <stop offset="0" stop-color="#3d3d3d"/>
      <stop offset="1" stop-color="#fff"/>
    </linearGradient>
    <linearGradient xlink:href="#h" id="P" x1="136.41356" x2="149.52968" y1="115.49392" y2="115.49392" gradientUnits="userSpaceOnUse"/>
    <linearGradient xlink:href="#i" id="S" x1="137.40625" x2="148.53125" y1="116.46875" y2="116.46875" gradientTransform="matrix(1.08938 0 0 1 -13.275943 0)" gradientUnits="userSpaceOnUse"/>
    <linearGradient xlink:href="#j" id="T" x1="136" x2="150" y1="60" y2="60" gradientTransform="translate(-23.73343)" gradientUnits="userSpaceOnUse"/>
    <linearGradient xlink:href="#k" id="U" x1="143" x2="143" y1=".0000024" y2="120.01752" gradientTransform="translate(-23.73343)" gradientUnits="userSpaceOnUse"/>
    <linearGradient xlink:href="#l" id="V" x1="141.25002" x2="144.81252" y1="4.9218717" y2="4.9218717" gradientTransform="translate(-23.73343)" gradientUnits="userSpaceOnUse"/>
    <linearGradient xlink:href="#m" id="W" x1="136.98804" x2="148.99513" y1="17.043356" y2="17.043356" gradientTransform="translate(-23.73343)" gradientUnits="userSpaceOnUse"/>
    <linearGradient xlink:href="#n" id="X" x1="146.10596" x2="146.07562" y1="118.94019" y2="66" gradientTransform="matrix(1 0 0 1.26535 -23.73343 -54.364173)" gradientUnits="userSpaceOnUse"/>
    <linearGradient xlink:href="#n" id="Y" x1="146.10596" x2="146.07562" y1="118.94019" y2="66" gradientTransform="matrix(1 0 0 1.26535 -29.85843 -54.364173)" gradientUnits="userSpaceOnUse"/>
    <linearGradient xlink:href="#o" id="ab" x1="136" x2="150" y1="106" y2="106" gradientUnits="userSpaceOnUse"/>
    <linearGradient xlink:href="#p" id="ac" x1="136" x2="150" y1="106" y2="106" gradientUnits="userSpaceOnUse"/>
    <linearGradient xlink:href="#i" id="ad" x1="142.95775" x2="148.95775" y1="98.950562" y2="98.950562" gradientTransform="translate(.04225159 1.5494389)" gradientUnits="userSpaceOnUse" spreadMethod="reflect"/>
    <linearGradient xlink:href="#q" id="ae" x1="142.95775" x2="148.95775" y1="98.950562" y2="98.950562" gradientTransform="translate(.04225159 2.5494389)" gradientUnits="userSpaceOnUse" spreadMethod="reflect"/>
    <linearGradient xlink:href="#i" id="af" x1="142.95775" x2="148.95775" y1="98.950562" y2="98.950562" gradientTransform="translate(.04225159 3.5494389)" gradientUnits="userSpaceOnUse" spreadMethod="reflect"/>
    <linearGradient xlink:href="#q" id="ag" x1="142.95775" x2="148.95775" y1="98.950562" y2="98.950562" gradientTransform="translate(.04225159 4.5494389)" gradientUnits="userSpaceOnUse" spreadMethod="reflect"/>
    <linearGradient xlink:href="#i" id="ah" x1="142.95775" x2="148.95775" y1="98.950562" y2="98.950562" gradientTransform="translate(.04225159 9.5494389)" gradientUnits="userSpaceOnUse" spreadMethod="reflect"/>
    <linearGradient xlink:href="#q" id="ai" x1="142.95775" x2="148.95775" y1="98.950562" y2="98.950562" gradientTransform="translate(.04225159 10.549439)" gradientUnits="userSpaceOnUse" spreadMethod="reflect"/>
    <linearGradient xlink:href="#i" id="aj" x1="142.95775" x2="148.95775" y1="98.950562" y2="98.950562" gradientTransform="translate(.04225159 11.549439)" gradientUnits="userSpaceOnUse" spreadMethod="reflect"/>
    <linearGradient xlink:href="#q" id="ak" x1="142.95775" x2="148.95775" y1="98.950562" y2="98.950562" gradientTransform="translate(.04225159 12.549439)" gradientUnits="userSpaceOnUse" spreadMethod="reflect"/>
    <linearGradient xlink:href="#r" id="al" x1="137" x2="139.03125" y1="106" y2="106" gradientUnits="userSpaceOnUse" spreadMethod="repeat"/>
    <filter id="D" width="1.3839999" height="1.3839999" x="-.192" y="-.192" color-interpolation-filters="sRGB">
      <feGaussianBlur stdDeviation="5.28"/>
    </filter>
    <filter id="Q" width="1.8571428" height="1.3333333" x="-.42857143" y="-.16666667" color-interpolation-filters="sRGB">
      <feGaussianBlur stdDeviation=".55242721"/>
    </filter>
    <filter id="R" width="1.366887" height="1.3533669" x="-.18344349" y="-.17668343" color-interpolation-filters="sRGB">
      <feGaussianBlur stdDeviation=".65925"/>
    </filter>
    <filter id="Z" width="1.8632255" height="1.2274221" x="-.43161276" y="-.11371106" color-interpolation-filters="sRGB">
      <feGaussianBlur stdDeviation=".73914765"/>
    </filter>
    <filter id="aa" width="2.2195919" height="1.2988" x="-.60979599" y="-.1494" color-interpolation-filters="sRGB">
      <feGaussianBlur stdDeviation=".77812506"/>
    </filter>
    <filter id="am" width="3.069921" height="1.2714767" x="-1.0349605" y="-.13573837" color-interpolation-filters="sRGB">
      <feGaussianBlur stdDeviation=".9498173"/>
    </filter>
    <filter id="an" width="2.8666666" height="1.2754098" x="-.93333328" y="-.13770492" color-interpolation-filters="sRGB">
      <feGaussianBlur stdDeviation=".92807767"/>
    </filter>
    <radialGradient xlink:href="#s" id="A" cx="48" cy="90.171875" r="42" fx="48" fy="90.171875" gradientTransform="matrix(1.15731 0 0 .9959 -7.551021 .1971319)" gradientUnits="userSpaceOnUse"/>
    <clipPath id="C">
      <rect width="84" height="84" x="6" y="6" fill="#fff" rx="6" ry="6"/>
    </clipPath>
  </defs>
  <g transform="scale(1 -1)">
    <path fill="url(#t)" d="M12-95.03125C6.4889097-95.03125 1.96875-90.51109 1.96875-85v71C1.96875-8.4889098 6.4889098-3.96875 12-3.96875h72c5.51109 0 10.03125-4.5201597 10.03125-10.03125v-71c0-5.51109-4.52016-10.03125-10.03125-10.03125H12z" opacity=".07999998"/>
    <path fill="url(#u)" d="M12-94.03125c-4.971633 0-9.03125 4.059617-9.03125 9.03125v71c0 4.9716329 4.0596171 9.03125 9.03125 9.03125h72c4.971633 0 9.03125-4.059617 9.03125-9.03125v-71c0-4.971633-4.059617-9.03125-9.03125-9.03125H12z" opacity=".1"/>
    <path fill="url(#v)" d="M12-93c-4.4091333 0-8 3.590867-8 8v71c0 4.4091333 3.5908667 8 8 8h72c4.409133 0 8-3.5908667 8-8v-71c0-4.409133-3.590867-8-8-8H12z" opacity=".2"/>
    <rect width="86" height="85" x="5" y="-92" fill="url(#w)" opacity=".3" rx="7" ry="7"/>
    <rect width="84" height="84" x="6" y="-91" fill="url(#x)" opacity=".45" rx="6" ry="6"/>
  </g>
  <rect width="84" height="84" x="6" y="6" fill="url(#y)" rx="6" ry="6"/>
  <path fill="url(#z)" d="M12 6c-3.324 0-6 2.676-6 6v72c0 .334721.04135.6507.09375.96875.0487.295596.09704.596915.1875.875.0099.03038.02089.0636.03125.09375.09886.287771.23488.547452.375.8125.144592.273507.315616.535615.5.78125.184384.245635.373776.473472.59375.6875.439947.428056.94291.814526 1.5 1.09375.278545.139612.573473.246947.875.34375-.256202-.100222-.486711-.236272-.71875-.375-.0074-.0044-.02387.0045-.03125 0-.03193-.0193-.06229-.04251-.09375-.0625-.120395-.0767-.231023-.163513-.34375-.25-.106173-.0808-.213281-.161112-.3125-.25-.17793-.161433-.34746-.345388-.5-.53125-.107579-.130255-.218394-.265285-.3125-.40625-.02509-.03838-.03845-.08587-.0625-.125-.06476-.103032-.130228-.204517-.1875-.3125-.101008-.194706-.205675-.415701-.28125-.625-.008-.02181-.02359-.04055-.03125-.0625-.03183-.09195-.0358-.186831-.0625-.28125-.030332-.106618-.070389-.203031-.09375-.3125C7.052121 85.720988 7 85.364295 7 85V13c0-2.781848 2.218152-5 5-5h72c2.781848 0 5 2.218152 5 5v72c0 .364295-.05212.720988-.125 1.0625-.04415.206893-.08838.397658-.15625.59375-.0077.02195-.0233.04069-.03125.0625-.06274.173739-.138383.367449-.21875.53125-.04158.0828-.07904.169954-.125.25-.0546.09721-.126774.18835-.1875.28125-.09411.140965-.204921.275995-.3125.40625-.143174.17445-.303141.346998-.46875.5-.01117.0102-.01998.02115-.03125.03125-.138386.125556-.285091.234436-.4375.34375-.102571.07315-.204318.153364-.3125.21875-.0074.0045-.02384-.0044-.03125 0-.232039.138728-.462548.274778-.71875.375.301527-.0968.596455-.204138.875-.34375.55709-.279224 1.060053-.665694 1.5-1.09375.219973-.214028.409366-.441865.59375-.6875s.355408-.507743.5-.78125c.14012-.265048.276135-.524729.375-.8125.01041-.03078.02133-.06274.03125-.09375.09046-.278085.1388-.579404.1875-.875C89.95865 84.6507 90 84.334721 90 84V12c0-3.324-2.676-6-6-6H12z" opacity=".4"/>
  <path fill="url(#A)" d="M12 90c-3.324 0-6-2.676-6-6V12c0-.334721.04135-.6507.09375-.96875.0487-.295596.09704-.596915.1875-.875.00988-.03038.020892-.0636.03125-.09375.098865-.287771.2348802-.547452.375-.8125.1445918-.273507.3156161-.535615.5-.78125.1843839-.245635.3737765-.473472.59375-.6875.439947-.428056.94291-.814526 1.5-1.09375.278545-.139612.5734731-.246947.875-.34375-.2562018.100222-.4867109.236272-.71875.375-.00741.0044-.023866-.0045-.03125 0-.031933.0193-.062293.04251-.09375.0625-.120395.0767-.2310226.163513-.34375.25-.1061728.0808-.2132809.161112-.3125.25-.1779299.161433-.3474596.345388-.5.53125-.1075789.130255-.2183939.265285-.3125.40625-.025089.03838-.038446.08587-.0625.125-.064763.103032-.1302275.204517-.1875.3125-.1010083.194706-.2056748.415701-.28125.625-.00796.02181-.023589.04055-.03125.0625-.0318251.09195-.0358045.186831-.0625.28125-.0303323.106618-.0703894.203031-.09375.3125C7.0521214 10.279012 7 10.635705 7 11v72c0 2.781848 2.2181517 5 5 5h72c2.781848 0 5-2.218152 5-5V11c0-.364295-.05212-.720988-.125-1.0625-.04415-.206893-.08838-.397658-.15625-.59375-.0077-.02195-.0233-.04069-.03125-.0625-.06274-.173739-.138383-.367449-.21875-.53125-.04158-.0828-.07904-.169954-.125-.25-.0546-.09721-.126774-.18835-.1875-.28125-.09411-.140965-.204921-.275995-.3125-.40625-.143174-.17445-.303141-.346998-.46875-.5-.01117-.0102-.01998-.02115-.03125-.03125-.138386-.125556-.285091-.234436-.4375-.34375-.102571-.07315-.204318-.153364-.3125-.21875-.0074-.0045-.02384.0044-.03125 0-.232039-.138728-.462548-.274778-.71875-.375.301527.0968.596455.204138.875.34375.55709.279224 1.060053.665694 1.5 1.09375.219973.214028.409366.441865.59375.6875s.355408.507743.5.78125c.14012.265048.276135.524729.375.8125.01041.03078.02133.06274.03125.09375.09046.278085.1388.579404.1875.875.0524.31805.09375.634029.09375.96875v72c0 3.324-2.676 6-6 6H12z" opacity=".2"/>
  <rect width="84" height="84" x="-94" y="6" fill="#f0f" rx="6" ry="6"/>
  <path fill="#fff" stroke="#000" stroke-dashoffset="8.6" stroke-linecap="round" stroke-width=".5" d="M112 8h16v16h-16z" color="#000" enable-background="accumulate" overflow="visible" style="marker:none"/>
  <text xml:space="preserve" x="131.39261" y="11.969256" font-family="Liberation Sans" font-size="4" style="text-align:start;line-height:125%;-inkscape-font-specification:Liberation Sans"><tspan x="131.39261" y="11.969256">Width: 2px</tspan><tspan x="131.39261" y="16.969257">Blur: 12</tspan><tspan x="131.39261" y="21.969257">Opacity: 60</tspan></text>
  <path fill="#fff" d="M6 16v1h84v-1H6zm0 16v1h84v-1H6zm0 16v1h84v-1H6zm0 16v1h84v-1H6zm0 16v1h84v-1H6z" color="#000" enable-background="accumulate" opacity=".1" overflow="visible" style="marker:none"/>
  <path fill="#fff" d="M80 6h-1v84h1V6zM64 6h-1v84h1V6zM48 6h-1v84h1V6zM32 6h-1v84h1V6zM16 6h-1v84h1V6z" color="#000" enable-background="accumulate" opacity=".1" overflow="visible" style="marker:none"/>
  <rect width="66" height="66" x="15" y="15" fill="url(#B)" stroke="#fff" stroke-linecap="round" stroke-width=".5" clip-path="url(#C)" filter="url(#D)" opacity=".15" rx="12" ry="12"/>
  <path fill="url(#E)" d="M8 24h80.074936v1H8z" color="#000" enable-background="accumulate" opacity=".7" overflow="visible" style="marker:none"/>
  <path fill="url(#F)" d="M16-15.918207h59.039818v.83641517H16z" color="#000" enable-background="accumulate" opacity=".7" overflow="visible" style="marker:none" transform="rotate(90)"/>
  <path fill="url(#G)" d="M17-80.915398h58.985954v.83078808H17z" color="#000" enable-background="accumulate" opacity=".7" overflow="visible" style="marker:none" transform="rotate(90)"/>
  <path fill="url(#H)" d="M-85-75h65v1h-65z" color="#000" enable-background="accumulate" opacity=".7" overflow="visible" style="marker:none" transform="scale(-1)"/>
  <path fill="url(#I)" d="M10 32h72.576927v1H10z" color="#000" enable-background="accumulate" opacity=".5" overflow="visible" style="marker:none"/>
  <use xlink:href="#J" color="#000" enable-background="accumulate" opacity=".6" overflow="visible" style="marker:none" transform="translate(2)"/>
  <use xlink:href="#J" color="#000" enable-background="accumulate" opacity=".4" overflow="visible" style="marker:none" transform="translate(-4)"/>
  <use xlink:href="#J" color="#000" enable-background="accumulate" opacity=".4" overflow="visible" style="marker:none" transform="translate(-10)"/>
  <use xlink:href="#K" stroke-width="1.20000005" color="#000" enable-background="accumulate" opacity=".6" overflow="visible" style="marker:none" transform="translate(2.5000001 5.1666668) scale(.83333)"/>
  <use xlink:href="#K" stroke-width="1.20000005" color="#000" enable-background="accumulate" opacity=".6" overflow="visible" style="marker:none" transform="translate(2.5000001 15.166667) scale(.83333)"/>
  <g fill="url(#L)" font-family="Ubuntu" font-size="5.70656776" font-weight="bold" letter-spacing="0" opacity=".6" style="text-align:start;line-height:125%;-inkscape-font-specification:Ubuntu Bold" word-spacing="0">
    <path d="M31.456525 43v-3.954651h2.647848v.74756H32.34675v.827452h1.5636v.747561h-1.5636V43h-.890225m4.070032 0h-.850279v-3.001655h.850279V43m.07989-3.869053c-.000002.155983-.05136.279625-.154078.370927-.09891.0875-.21685.131254-.353807.131251-.136958.000003-.256796-.04375-.359514-.131251-.09891-.0913-.148371-.214944-.14837-.370927-.000001-.155975.04946-.277715.14837-.36522.102718-.0913.222556-.136954.359514-.136958.136957.000004.254892.04566.353807.136958.102717.08751.154076.209245.154078.36522m2.528368 1.620665c-.07609-.01902-.165493-.03804-.268209-.05707-.10272-.02282-.213047-.03424-.330981-.03424-.05326.000003-.117937.0057-.194023.01712-.07229.0076-.127448.01712-.165491.02853v2.29404h-.850278v-2.841871c.152174-.05326.33098-.102715.536417-.148371.20924-.04945.441307-.07418.696201-.07418.04565.000003.100815.0038.165491.01141.06467.0038.129347.01142.194023.02283.06467.0076.129347.01902.194023.03424.06467.01142.119836.02663.165491.04565l-.142664.701908m1.460168 1.637789c.155978.000001.266305-.01522.330981-.04565.06467-.03043.09701-.0894.09701-.176904-.000001-.06848-.04185-.127446-.125544-.176903-.0837-.05326-.211144-.112229-.38234-.176904-.133154-.04946-.254894-.100815-.36522-.154077-.106524-.05326-.197829-.116033-.273916-.188317-.07609-.07609-.135056-.165489-.176903-.268209-.04185-.102716-.06277-.226358-.06277-.370927 0-.281521.10462-.504077.313862-.667668.20924-.163585.49647-.24538.861691-.245383.182609.000003.35761.01712.525005.05136.16739.03044.300543.06468.399459.102718l-.14837.661962c-.09892-.03424-.207341-.06467-.325275-.0913-.114133-.02663-.243482-.03994-.388046-.03995-.266308.000002-.399461.07419-.39946.222556-.000001.03424.0057.06468.01712.0913.01141.02663.03424.05326.06848.07989.03424.02283.07989.04946.136958.07989.06087.02663.136956.05707.228263.0913.186412.06848.34049.136959.462232.205436.121738.06468.216847.136959.285328.21685.07228.07609.121738.161687.148371.256795.03043.09511.04565.205438.04565.330981-.000002.296742-.112231.5212-.336687.673375-.220656.152175-.534517.228263-.941584.228263-.266307 0-.488863-.02283-.667668-.06848-.175002-.04565-.296742-.0837-.365221-.114131l.142665-.690495c.144566.05707.292936.102719.445112.136958.152174.03044.302447.04565.450819.04565m1.873892-3.138598.850278-.136958v.884518h1.021476v.707615h-1.021476v1.055715c-.000001.178807.03043.321471.09131.427992.06467.106524.192119.159785.38234.159784.0913.000001.18451-.0076.279621-.02283.09891-.01902.188315-.04375.268209-.07418l.119838.661961c-.10272.04185-.216852.07799-.342394.108425-.125546.03043-.279624.04565-.462232.04565-.232068 0-.424189-.03044-.576363-.09131-.152176-.06468-.273916-.152175-.365221-.262502-.0913-.114131-.15598-.251089-.194023-.410873-.03424-.159783-.05136-.336687-.05136-.530711v-2.522303m6.737135 2.242688c-.000003.235873-.03424.452722-.102718.650549-.06848.194024-.167395.361416-.296741.502178-.129352.136958-.285331.24348-.467939.319568-.178808.07609-.38044.114131-.604896.114131-.220656 0-.422287-.03804-.604896-.114131-.178807-.07609-.332884-.18261-.462232-.319568-.12935-.140762-.230166-.308154-.302448-.502178-.07228-.197827-.108425-.414676-.108425-.650549 0-.23587.03614-.450817.108425-.644842.07609-.194021.178805-.359511.308154-.496471.133153-.136955.289132-.243478.467939-.319568.182609-.07608.380436-.114129.593483-.114132.216847.000003.414675.03805.593483.114132.182608.07609.338587.182613.467938.319568.129346.13696.230162.30245.302449.496471.07228.194025.108421.408972.108424.644842m-.867398 0c-.000002-.2625-.05326-.467936-.159784-.616309-.10272-.152173-.251091-.228261-.445112-.228263-.194025.000002-.344298.07609-.450819.228263-.106524.148373-.159785.353809-.159784.616309-.000001.262503.05326.471744.159784.627723.106521.152175.256794.228263.450819.228262.194021.000001.342392-.07609.445112-.228262.10652-.155979.159782-.36522.159784-.627723m3.449174.028533c-.000003-.2625-.05897-.471741-.176904-.627723-.117938-.159781-.292939-.239673-.525004-.239675-.07609.000002-.14647.0038-.211143.01141-.06468.0038-.117937.0095-.159784.01712v1.535067c.05326.03424.121739.06277.205436.0856.0875.02283.175.03424.262502.03424.403262.000001.604894-.272012.604897-.816039m.867398-.02283c-.000003.232068-.02854.443211-.0856.633429-.05707.190219-.140765.353807-.251089.490765-.110329.136957-.247287.24348-.410872.319567-.163591.07609-.351908.114132-.564951.114132-.117937 0-.228264-.01141-.330981-.03424-.102718-.022822-.201632-.055159-.29674-.097007v1.1299h-.850279v-3.954651c.07609-.02282.163588-.04375.262502-.06277.09891-.02282.201632-.04185.308155-.05707.110326-.01521.220653-.02663.330981-.03424.11413-.01141.222555-.01712.325274-.01712.247283.000003.467937.03805.661962.114131.194021.07229.357609.176906.490765.313861.13315.133156.233966.296744.302448.490765.07228.194025.108422.410875.108425.650549"/>
    <path fill="url(#M)" d="m52.280149 39.250785.850278-.136958v.884518h1.021476v.707615h-1.021476v1.055715c-.000001.178807.03043.321471.09131.427992.06467.106524.19212.159785.38234.159784.0913.000001.184511-.0076.279622-.02283.09891-.01902.188315-.04375.268209-.07418l.119838.661961c-.102721.04185-.216852.07799-.342394.108425-.125547.03043-.279624.04565-.462232.04565-.232069 0-.42419-.03044-.576364-.09131-.152176-.06468-.273916-.152175-.36522-.262502-.09131-.114131-.15598-.251089-.194023-.410873-.03424-.159783-.05136-.336687-.05136-.530711v-2.522303"/>
    <path d="M55.68902 43h-.850279v-3.001655h.850279V43m.07989-3.869053c-.000002.155983-.05136.279625-.154078.370927-.09891.0875-.21685.131254-.353807.131251-.136958.000003-.256796-.04375-.359514-.131251-.09891-.0913-.148371-.214944-.14837-.370927-.000001-.155975.04946-.277715.14837-.36522.102718-.0913.222556-.136954.359514-.136958.136957.000004.254893.04566.353807.136958.102717.08751.154076.209245.154078.36522m3.527018 2.362519c-.000003.235873-.03424.452722-.102718.650549-.06848.194024-.167396.361416-.296742.502178-.129352.136958-.285331.24348-.467939.319568-.178807.07609-.380439.114131-.604896.114131-.220655 0-.422287-.03804-.604896-.114131-.178807-.07609-.332884-.18261-.462232-.319568-.129349-.140762-.230165-.308154-.302448-.502178-.07228-.197827-.108425-.414676-.108425-.650549 0-.23587.03614-.450817.108425-.644842.07609-.194021.178805-.359511.308155-.496471.133152-.136955.289131-.243478.467938-.319568.182609-.07608.380437-.114129.593483-.114132.216848.000003.414675.03805.593483.114132.182608.07609.338587.182613.467939.319568.129346.13696.230162.30245.302448.496471.07228.194025.108422.408972.108425.644842m-.867399 0c-.000002-.2625-.05326-.467936-.159783-.616309-.102721-.152173-.251091-.228261-.445113-.228263-.194025.000002-.344297.07609-.450819.228263-.106523.148373-.159785.353809-.159783.616309-.000002.262503.05326.471744.159783.627723.106522.152175.256794.228263.450819.228262.194022.000001.342392-.07609.445113-.228262.10652-.155979.159781-.36522.159783-.627723m1.526061-1.392402c.144566-.04185.33098-.07989.559243-.114132.228262-.03804.467938-.05706.719028-.05707.254891.000003.466034.03424.633429.102718.171194.06468.30625.157884.405166.279622.09891.121742.169292.266309.211143.433699.04185.167394.06277.353809.06277.559243v1.694851h-.850279v-1.592132c-.000002-.273914-.03614-.467937-.108425-.58207-.07229-.114129-.20734-.171195-.405166-.171197-.06087.000002-.125546.0038-.194023.01141-.06848.0038-.129351.0095-.182611.01712v2.316867h-.850278v-2.898936"/>
  </g>
  <path fill="url(#N)" d="M32.535067 52.320918c.125543.000001.228261-.0095.308154-.02853.08369-.02283.150271-.05136.19973-.0856.04945-.03804.08369-.08179.102718-.131251.01902-.04946.02853-.104619.02853-.16549-.000002-.129348-.06087-.235871-.18261-.319568-.121742-.0875-.330982-.180707-.627722-.279622-.12935-.04565-.258699-.09701-.388047-.154077-.12935-.06087-.245383-.135054-.348101-.222557-.102718-.0913-.186415-.199727-.251089-.325274-.06467-.129346-.09701-.285326-.09701-.467938 0-.182608.03424-.346196.102718-.490765.06848-.148368.16549-.273912.291035-.376634.125544-.102714.277719-.180704.456525-.233969.178805-.05706.380437-.08559.604897-.0856.266304.000005.496469.02854.690494.0856.194021.05707.353805.119842.479352.188317l-.256796.701908c-.110329-.05706-.233971-.10652-.370926-.148371-.133156-.04565-.294842-.06848-.485059-.06848-.213046.000003-.367124.03044-.462232.0913-.09131.05707-.136959.146472-.136957.268209-.000002.07229.01712.133156.05136.18261.03424.04946.08179.09511.142664.136958.06467.03805.136956.07419.21685.108424.08369.03044.174999.06278.273915.09701.205434.07609.38424.152177.536417.228263.152173.07229.277717.157883.376634.256795.102715.09892.178802.214949.228262.348101.04945.133155.07418.29484.07419.485058-.000003.369026-.129352.656256-.388047.861692-.2587.201632-.648648.302448-1.169846.302448-.175003 0-.332885-.01141-.473645-.03424-.140763-.01902-.266308-.04375-.376634-.07419-.106523-.03043-.19973-.06277-.279622-.09701-.07609-.03424-.140762-.06658-.194023-.09701l.251089-.707615c.117935.06468.262501.123644.433699.176904.175.04946.388045.07419.639136.07418m2.043126-.798905c0-.266305.03995-.498372.119838-.696201.0837-.20163.192121-.369022.325275-.502178.133152-.133151.285327-.233967.456525-.302448.175-.06848.353806-.102716.536418-.102719.426088.000003.762775.131254 1.010062.393754.247282.2587.370924.641039.370927 1.14702-.000003.04946-.0019.104622-.0057.16549-.0038.05707-.0076.108426-.01141.154077h-1.92882c.01902.175003.100815.313863.245383.41658.144565.102719.338588.154078.58207.154077.155977.000001.308152-.01331.456525-.03995.152173-.03043.275815-.06658.370927-.108424l.114131.690494c-.04566.02283-.106525.04565-.18261.06848-.07609.02283-.161689.04185-.256795.05707-.09131.01902-.190222.03424-.296742.04565-.106525.01141-.213047.01712-.319568.01712-.270112 0-.505983-.03995-.707614-.119838-.197829-.07989-.363319-.188316-.496472-.325274-.129349-.140762-.22636-.306252-.291034-.496472-.06087-.190218-.09131-.395654-.09131-.616309m1.997299-.325274c-.0038-.07228-.01712-.142663-.03995-.211143-.01902-.06848-.05136-.129347-.09701-.182611-.04185-.05326-.09701-.09701-.165491-.131251-.06468-.03424-.14647-.05136-.245382-.05136-.09511.000003-.176905.01712-.245383.05136-.06848.03044-.125546.07229-.171197.125545-.04565.05326-.08179.116035-.108425.188317-.02283.06848-.03995.138861-.05136.211143h1.124194m1.335246.302449c0-.216848.03424-.420382.102718-.610603.07228-.194021.175001-.361414.308155-.502178.133152-.144564.294838-.258695.485058-.342394.190218-.08369.407067-.125542.650549-.125545.159782.000003.30625.01522.439405.04565.133151.02663.2625.06658.388047.119838l-.176904.679081c-.07989-.03043-.167394-.05706-.262502-.07989-.09511-.02282-.201634-.03424-.319567-.03424-.251091.000002-.439408.07799-.564951.233969-.121741.155982-.182611.361418-.18261.61631-.000001.270112.05707.479352.171197.627722.117935.148372.321469.222557.610603.222556.102716.000001.213043-.0095.330981-.02853.117933-.01902.226358-.04946.325274-.0913l.119838.696202c-.09892.04185-.222558.07799-.370927.108424-.148373.03043-.311961.04565-.490765.04565-.273916 0-.509788-.03995-.707614-.119838-.197829-.0837-.361417-.195925-.490765-.336687-.125545-.140762-.218752-.306252-.279622-.496472-.05707-.194022-.0856-.403263-.0856-.627722m5.658688-.00571c-.000003.235873-.03424.452722-.102718.650549-.06848.194024-.167396.361416-.296742.502178-.129351.136958-.285331.24348-.467938.319568-.178808.07609-.38044.114131-.604896.114131-.220656 0-.422288-.03804-.604897-.114131-.178806-.07609-.332883-.18261-.462232-.319568-.129349-.140762-.230165-.308154-.302448-.502178-.07228-.197827-.108425-.414676-.108424-.650549-.000001-.23587.03614-.450817.108424-.644842.07609-.194021.178806-.359511.308155-.496471.133153-.136955.289132-.243478.467939-.319568.182608-.07608.380436-.114129.593483-.114132.216847.000003.414675.03805.593483.114132.182607.07609.338587.182613.467938.319568.129346.13696.230162.30245.302448.496471.07228.194025.108422.408972.108425.644842m-.867398 0c-.000002-.2625-.05326-.467936-.159784-.616309-.10272-.152173-.251091-.228261-.445112-.228263-.194025.000002-.344298.07609-.450819.228263-.106524.148373-.159785.353809-.159784.616309-.000001.262503.05326.471744.159784.627723.106521.152175.256794.228263.450819.228262.194021.000001.342392-.07609.445112-.228262.10652-.155979.159782-.36522.159784-.627723m1.526061-1.392402c.144566-.04185.33098-.07989.559244-.114132.228261-.03804.467937-.05706.719027-.05707.254892.000003.466035.03424.633429.102718.171195.06468.30625.157884.405167.279622.09891.121742.169292.266309.211143.433699.04185.167394.06277.353809.06277.559243v1.694851h-.850279v-1.592132c-.000002-.273914-.03614-.467937-.108425-.58207-.07228-.114129-.20734-.171195-.405166-.171197-.06087.000002-.125546.0038-.194023.01141-.06848.0038-.12935.0095-.18261.01712v2.316867h-.850279v-2.898936m4.090718 1.375289c-.000001.262504.05897.473647.176904.633429.117934.159785.292935.239677.525004.239676.07609.000001.146467-.0019.211143-.0057.06467-.0076.117934-.01522.159784-.02283v-1.546479c-.05326-.03424-.123644-.06277-.211143-.0856-.0837-.02282-.169297-.03424-.256796-.03424-.403265.000002-.604897.273917-.604896.821745m1.923114 1.426642c-.07609.02283-.163592.04565-.262503.06848-.09892.01902-.203536.03614-.313861.05136-.106525.01522-.216852.02663-.330981.03424-.110329.01141-.216851.01712-.319567.01712-.247287 0-.46794-.03614-.661962-.108424-.194025-.07228-.357613-.175002-.490765-.308155-.133154-.136957-.235872-.300545-.308155-.490765-.06848-.194022-.102718-.410872-.102718-.650549 0-.243478.03043-.46223.0913-.656255.06087-.197825.14837-.365218.262502-.502178.114131-.136955.25299-.241575.41658-.313861.167391-.07228.35761-.108422.570656-.108425.117934.000003.222555.01142.313862.03424.09511.02283.190216.05517.285328.09701v-1.358163l.850279-.136958v4.331285m4.974705-1.409525c-.000003.235873-.03424.452722-.102718.650549-.06848.194024-.167396.361416-.296742.502178-.129351.136958-.285331.24348-.467938.319568-.178808.07609-.38044.114131-.604896.114131-.220656 0-.422288-.03804-.604897-.114131-.178806-.07609-.332883-.18261-.462232-.319568-.129349-.140762-.230165-.308154-.302448-.502178-.07228-.197827-.108425-.414676-.108424-.650549-.000001-.23587.03614-.450817.108424-.644842.07609-.194021.178806-.359511.308155-.496471.133152-.136955.289132-.243478.467939-.319568.182608-.07608.380436-.114129.593483-.114132.216847.000003.414675.03805.593483.114132.182607.07609.338587.182613.467938.319568.129346.13696.230162.30245.302448.496471.07228.194025.108422.408972.108425.644842m-.867398 0c-.000003-.2625-.05326-.467936-.159784-.616309-.10272-.152173-.251091-.228261-.445112-.228263-.194025.000002-.344298.07609-.450819.228263-.106524.148373-.159785.353809-.159784.616309-.000001.262503.05326.471744.159784.627723.106521.152175.256794.228263.450819.228262.194021.000001.342392-.07609.445112-.228262.10652-.155979.159781-.36522.159784-.627723m3.449175.028533c-.000002-.2625-.05897-.471741-.176903-.627723-.117938-.159781-.292939-.239673-.525004-.239675-.07609.000002-.146471.0038-.211143.01141-.06468.0038-.117938.0095-.159784.01712v1.535067c.05326.03424.121738.06277.205436.0856.0875.02283.175.03424.262502.03424.403262.000001.604894-.272012.604896-.816039m.867399-.02283c-.000004.232068-.02854.443211-.0856.633429-.05707.190219-.140765.353807-.251089.490765-.11033.136957-.247287.24348-.410873.319567-.16359.07609-.351907.114132-.56495.114132-.117937 0-.228264-.01141-.330981-.03424-.102719-.022822-.201632-.055159-.29674-.097007v1.1299h-.850279v-3.954651c.07609-.02282.163588-.04375.262502-.06277.09891-.02282.201631-.04185.308155-.05707.110326-.01521.220653-.02663.330981-.03424.11413-.01141.222554-.01712.325274-.01712.247283.000003.467937.03805.661962.114131.194021.07229.357609.176906.490765.313861.13315.133156.233966.296744.302448.490765.07228.194025.108421.410875.108425.650549m.624957-2.248385.850279-.136958v.884518h1.021476v.707615h-1.021476v1.055715c-.000001.178807.03043.321471.09131.427992.06467.106524.19212.159785.38234.159784.0913.000001.184511-.0076.279622-.02283.09891-.01902.188314-.04375.268209-.07418l.119837.661961c-.10272.04185-.216851.07799-.342394.108425-.125546.03043-.279623.04565-.462232.04565-.232068 0-.424189-.03044-.576363-.09131-.152176-.06468-.273916-.152175-.36522-.262502-.09131-.114131-.15598-.251089-.194024-.410873-.03424-.159783-.05136-.336687-.05136-.530711v-2.522303M62.699627 53h-.850279v-3.001655h.850279V53m.07989-3.869053c-.000002.155983-.05136.279625-.154078.370927-.09892.0875-.21685.131254-.353807.131251-.136958.000003-.256796-.04375-.359514-.131251-.09891-.0913-.148371-.214944-.148371-.370927 0-.155975.04946-.277715.148371-.36522.102718-.0913.222556-.136954.359514-.136958.136957.000004.254892.04566.353807.136958.102717.08751.154076.209245.154078.36522m3.527019 2.362519c-.000003.235873-.03424.452722-.102718.650549-.06848.194024-.167395.361416-.296741.502178-.129352.136958-.285331.24348-.467939.319568-.178808.07609-.38044.114131-.604896.114131-.220656 0-.422287-.03804-.604896-.114131-.178807-.07609-.332884-.18261-.462232-.319568-.12935-.140762-.230166-.308154-.302448-.502178-.07228-.197827-.108425-.414676-.108425-.650549 0-.23587.03614-.450817.108425-.644842.07609-.194021.178805-.359511.308154-.496471.133153-.136955.289132-.243478.467939-.319568.182609-.07608.380436-.114129.593483-.114132.216848.000003.414675.03805.593483.114132.182608.07609.338587.182613.467939.319568.129345.13696.230161.30245.302448.496471.07228.194025.108421.408972.108424.644842m-.867398 0c-.000002-.2625-.05326-.467936-.159784-.616309-.10272-.152173-.251091-.228261-.445112-.228263-.194025.000002-.344298.07609-.450819.228263-.106524.148373-.159785.353809-.159784.616309-.000001.262503.05326.471744.159784.627723.106521.152175.256794.228263.450819.228262.194021.000001.342392-.07609.445112-.228262.106521-.155979.159782-.36522.159784-.627723m1.52606-1.392402c.144566-.04185.330981-.07989.559244-.114132.228262-.03804.467937-.05706.719028-.05707.254891.000003.466034.03424.633429.102718.171194.06468.306249.157884.405166.279622.09891.121742.169292.266309.211143.433699.04185.167394.06277.353809.06277.559243v1.694851H68.7057v-1.592132c-.000003-.273914-.03614-.467937-.108425-.58207-.07229-.114129-.207341-.171195-.405167-.171197-.06087.000002-.125546.0038-.194023.01141-.06848.0038-.12935.0095-.18261.01712v2.316867h-.850279v-2.898936" font-family="Ubuntu" font-size="5.70656776" font-weight="bold" letter-spacing="0" opacity=".6" style="text-align:start;line-height:125%;-inkscape-font-specification:Ubuntu Bold" word-spacing="0"/>
  <path fill="none" stroke="#fff" stroke-dashoffset="8.6" stroke-linecap="round" d="M56.5 61.5h17v5h-17z" color="#000" enable-background="accumulate" opacity=".5" overflow="visible" style="marker:none"/>
  <path fill="none" stroke="#fff" stroke-dashoffset="8.6" stroke-linecap="round" d="M34.5 61.5h17v5h-17z" color="#000" enable-background="accumulate" opacity=".3" overflow="visible" style="marker:none"/>
  <path d="M86.105513 24c1.712947.115525 1.853804 2.055059 1.6875 3.384678-.02091 18.015905.04176 36.045373-.03125 54.052822-.429848 1.780159-2.543396 1.423585-3.924539 1.40625-27.440536-.02085-54.891338.04169-82.3254606-.03125-1.8407-.40251-1.810244-3.136799-.06402-3.691385C29.368227 60.817186 57.262241 42.455078 85.199263 24.1875c.273709-.176745.595923-.165588.90625-.1875zm-12.3125 24.34375C63.36593 55.1875 52.938846 62.03125 42.511763 68.875h31.28125V48.34375z" opacity=".07999998"/>
  <path d="M86.04301 24.96875a.90595161.90595161 0 0 1 .8125.90625V81a.90595161.90595161 0 0 1-.90625.90625h-84a.90595161.90595161 0 0 1-.5-1.65625l84-55.125a.90595161.90595161 0 0 1 .59375-.15625zm-11.3125 21.625-35.375 23.21875h35.375V46.59375z" opacity=".12000002"/>
  <path d="M85.938553 25.875 1.9385534 81H85.938553V25.875zM75.643631 44.90625v25.798828H36.309646L75.643631 44.90625z" opacity=".3"/>
  <path fill="url(#O)" d="M85.938553 24.875 1.9385534 80H85.938553V24.875zM75.643631 43.90625v25.798828H36.309646L75.643631 43.90625z"/>
  <path fill="#a0672c" d="M75.636763 42.90625v1l-37.78125 24.8125h-1.53125l39.3125-25.8125zM85.949263 79v1H1.9492634l1.5312496-1h82.46875z"/>
  <path fill="#ffe680" d="M85.949263 24.875v1L3.480513 80H1.9492634L85.949263 24.875zm-10.3125 44.84375v1h-39.3125l1.53125-1h37.78125z" opacity=".5"/>
  <path stroke="#000" stroke-linejoin="round" stroke-width=".75" d="M37.78125 26.125c-.417673-.01944-.935948.02277-1.46875.21875l-3.21875 1.1875c-1.9094122.702332-2.8495731 2.833823-2.15625 4.71875h-.03125l.3125.90625c-.00912.04733-.0000978.09444 0 .09375.000201-.0014-.0000596.220181 0 .21875.0000596-.0014.0000823.18893 0 .1875-.0000823-.0014.0002234.188915 0 .1875-.0002234-.0014.062862.188886.0625.1875-.0003624-.0014.062998.188843.0625.1875l.1875.5a1.0151518 1.0151518 0 0 0 .03125.125c-.0003815-.000748.062924.09447.0625.09375-.0001632-.000279.020032.01332.03125.03125.017949.02869.031536.06293.03125.0625-.0002526-.000554.012959.05716.03125.09375.012912.02583.031456.06288.03125.0625h.03125l3.625 9.84375L49.46875 83.25a1.0151518 1.0151518 0 0 0 0 .03125c-.000356-.000869.06291.125844.0625.125-.000412-.000844.06297.125815.0625.125-.000466-.000815.06302.09453.0625.09375-.000363-.000548.0092.06264.03125.09375.0094.01333.03142.03147.03125.03125l8.09375 11.46875a1.0151518 1.0151518 0 0 0 .03125 0c-.000694-.000939.09452.12588.09375.125-.000767-.00088.125836.125815.125.125-.000836-.000815.09465.09449.09375.09375-.000899-.000745.157206.12567.15625.125-.000956-.00067.126007.06309.125.0625-.001-.000591.126052.09426.125.09375-.0011-.000507.157339.06292.15625.0625-.0011-.000421.15737.03158.15625.03125-.0011-.000331.157393.06274.15625.0625-.0011-.00024.157408.0314.15625.03125-.0012-.000147.157416.000053.15625 0-.0012-.000053.157417-.000041.15625 0-.0012.000041.15741-.000135.15625 0-.0012.000135.157395-.03148.15625-.03125-.0011.000229.157373-.03157.15625-.03125-.0011.00032.157343-.06291.15625-.0625-.0011.00041.157307-.063.15625-.0625-.0011.000497.157263-.06308.15625-.0625-.001.000581.125963-.09441.125-.09375-.000963.00066.125906-.09449.125-.09375-.000906.000736.125844-.125807.125-.125-.000844.000807.125776-.09462.125-.09375-.000776.000872.09445-.125932.09375-.125-.000703.000932.09438-.125986.09375-.125-.000626.000986.06304-.157283.0625-.15625-.000544.001.06296-.126074.0625-.125-.000459.0011.06287-.157357.0625-.15625-.000371.0011.06278-.157384.0625-.15625-.00028.0011.03144-.157402.03125-.15625-.000188.0012.000094-.157414 0-.15625-.000094.0012.03125-.157418.03125-.15625 0 .0012-.03135-.188664-.03125-.1875l-1.25-14.03125a1.0151518 1.0151518 0 0 0 0-.03125c.000107.000955-.000171-.125945 0-.125.000171.000945-.03148-.125932-.03125-.125.000233.000932-.03154-.125914-.03125-.125.000236.000732-.0511-.06195-.0625-.09375v-.03125L46 41.125l-3.75-10.09375a1.0151518 1.0151518 0 0 0 0-.03125c.000503.0013-.06312-.157491-.0625-.15625.000625.0012-.09449-.188676-.09375-.1875.000741.0012-.125851-.157349-.125-.15625.000851.0011-.125953-.126012-.125-.125.000953.001-.126045-.157166-.125-.15625.0004.00035-.03531-.0097-.0625-.03125L41.0625 28.5a1.0151518 1.0151518 0 0 0-.03125 0c-.524378-1.425611-1.828853-2.308872-3.25-2.375z" opacity=".07999998"/>
  <path stroke="#000" stroke-linejoin="round" stroke-width=".75" d="M37.71875 27.125c-.320997-.01494-.677093.01449-1.0625.15625l-3.21875 1.1875c-1.3788384.507173-2.0663102 2.067799-1.5625 3.4375l.4375 1.21875a.97171158.97171158 0 0 0-.03125.75l.1875.5a.97171158.97171158 0 0 0 .125.1875.97171158.97171158 0 0 0 .03125.0625.97171158.97171158 0 0 0 .03125.0625l3.6875 10 14.0625 38.21875a.97171158.97171158 0 0 0 .125.21875l8.125 11.5a.97171158.97171158 0 0 0 1.75-.65625l-1.25-14.03125a.97171158.97171158 0 0 0-.0625-.25L45.0625 41.46875l-3.75-10.09375a.97171158.97171158 0 0 0-.5-.53125l-.71875-2c-.376873-1.024593-1.349129-1.671015-2.375-1.71875z" opacity=".12000002"/>
  <path stroke="#000" stroke-linejoin="round" stroke-width=".75" d="M37.686933 28.085656c.660424.03073 1.265838.426325 1.509142 1.087788l.958134 2.656726.261544-.09627 3.72717 10.07173 14.051309 38.226668L59.433577 94.049l-8.126661-11.481505-14.05131-38.226666-3.72717-10.071731.215653-.05958-.09627-.261544-.261544.09627-.192547-.523086.261544-.09627-.669314-1.872096c-.324404-.881952.114273-1.86379.996222-2.188194l3.225705-1.187372c.220488-.0811.458909-.101807.679051-.09156z" opacity=".3"/>
  <g transform="matrix(.53066 -.19519 -.19519 -.53066 -16.217803 121.1895)">
    <rect width="12.116117" height="16" x="136.91356" y="107.49392" fill="url(#P)" stroke="#df453f" stroke-linejoin="round" stroke-width="1.32645738" rx="3" ry="3"/>
    <path fill="#701300" d="M141.24458 118.1889a1.5467962 3.9774759 0 1 1-3.09359 0 1.5467962 3.9774759 0 1 1 3.09359 0z" filter="url(#Q)" opacity=".3" transform="matrix(1.88571 0 0 1 -123.51329 -1.9445437)"/>
    <path fill="#fff" fill-rule="evenodd" d="M146.31251 113.125c-.85193 9.50672-3.9375 8.3125-6.5 8.9375 4.07634.0625 8.625-.0625 8.625-.0625-2.4375-.5625-1.8125-2.375-2.125-8.875z" filter="url(#R)" opacity=".8"/>
    <path fill="url(#S)" d="M136.41188 115.96875h12.119369v1H136.41188z" opacity=".2"/>
    <g transform="translate(23.73343)">
      <path fill="url(#T)" stroke="url(#U)" stroke-linejoin="round" stroke-width="1.32645738" d="m112.76657 24.500002 6.5-23.9999996 6.5 23.9999996v71.999997h-13V24.500002z"/>
      <path fill="url(#V)" fill-rule="evenodd" d="m117.69336 8.0716529 3.14265.022097-1.58237-5.7913293"/>
      <path fill="url(#W)" fill-rule="evenodd" d="M117.73213 8.0901517 113.96457 22s-.46779 1.653465-.698 2.60832c-.19122.64228 1.95886 1.611283 3.0182-1.60832 1.21534 4.513809 5.57589 3.437953 5.98831.01105.3425 1.701476 1.75396 2.949961 2.98863 1.521937-.23478-.908743-.43641-1.521937-.43641-1.521937l-4.02168-14.9208973h-3.07149z"/>
      <path fill="none" stroke="url(#X)" stroke-width="1.76860964" d="M122.37252 96.304856V29.087562" opacity=".3"/>
      <path fill="none" stroke="url(#Y)" stroke-width="1.76860964" d="M116.24752 96.304856V29.087562" opacity=".4"/>
      <path fill="#ac4311" fill-rule="evenodd" d="m118.7044 5.9798798-4.77297 17.8986412 1.98873-.839689 2.78424-17.0589522z" filter="url(#Z)" opacity=".4"/>
      <path fill="none" stroke="#4d2600" stroke-width="1.76860964" d="M113.07908 24.624995s1.48667 1.76491 3.25-1.53125c2 5.25 5.16858 2.087146 5.93749-.03125 1.375 3.4375 3.12501 1.4375 3.12501 1.4375" opacity=".15"/>
      <path fill="#fff" fill-rule="evenodd" d="m144.06251 8.9374939-.375 12.5000011 3.0625-.3125-2.6875-12.1875011z" filter="url(#aa)" opacity=".8" transform="matrix(1.12245 0 0 1.345 -41.70282 -4.7709353)"/>
    </g>
    <path fill="url(#ab)" stroke="url(#ac)" stroke-linejoin="round" stroke-width="1.32645738" d="M136.5 96.5h13v19h-13z"/>
    <path fill="url(#ad)" d="M137 100h12v1h-12z" opacity=".4"/>
    <path fill="url(#ae)" d="M137 101h12v1h-12z" opacity=".6"/>
    <path fill="url(#af)" d="M137 102h12v1h-12z" opacity=".4"/>
    <path fill="url(#ag)" d="M137 103h12v1h-12z" opacity=".6"/>
    <path fill="url(#ah)" d="M137 108h12v1h-12z" opacity=".4"/>
    <path fill="url(#ai)" d="M137 109h12v1h-12z" opacity=".6"/>
    <path fill="url(#aj)" d="M137 110h12v1h-12z" opacity=".4"/>
    <path fill="url(#ak)" d="M137 111h12v1h-12z" opacity=".6"/>
    <path fill="url(#al)" d="M137 104h12v4h-12z" opacity=".3"/>
    <path d="M140.00001 106.07969a1.1012795 8.3968935 0 1 1-2.20256 0 1.1012795 8.3968935 0 1 1 2.20256 0z" filter="url(#am)" opacity=".6" transform="matrix(1.25538 0 0 1 -35.75387 0)"/>
    <path fill="#fff" d="M147.34339 106.03549a1.1932428 8.087534 0 1 1-2.38649 0 1.1932428 8.087534 0 1 1 2.38649 0z" filter="url(#an)" opacity=".8"/>
  </g>
</svg>