<?xml version="1.0" encoding="UTF-8" standalone="no"?>
<svg xmlns="http://www.w3.org/2000/svg" xmlns:xlink="http://www.w3.org/1999/xlink" width="96" height="96" version="1.0">
  <defs>
    <linearGradient id="a">
      <stop offset="0" stop-color="#3b8132"/>
      <stop offset="1" stop-color="#55c845"/>
    </linearGradient>
    <linearGradient id="j">
      <stop offset="0" stop-color="#88f07b"/>
      <stop offset="1" stop-color="#b5f2bc" stop-opacity=".1221374"/>
    </linearGradient>
    <linearGradient xlink:href="#a" id="q" x1="48" x2="48" y1="90" y2="5.9877172" gradientUnits="userSpaceOnUse"/>
    <linearGradient id="g">
      <stop offset="0" stop-color="#fff"/>
      <stop offset="1" stop-color="#fff" stop-opacity="0"/>
    </linearGradient>
    <linearGradient xlink:href="#b" id="v" x1="36.357143" x2="36.357143" y1="6" y2="63.893143" gradientUnits="userSpaceOnUse"/>
    <linearGradient id="b">
      <stop offset="0" stop-color="#fff"/>
      <stop offset="1" stop-color="#fff" stop-opacity="0"/>
    </linearGradient>
    <linearGradient id="h">
      <stop offset="0" stop-color="#227395"/>
      <stop offset="1" stop-color="#44a2c9"/>
    </linearGradient>
    <linearGradient id="i">
      <stop offset="0" stop-color="#fff"/>
      <stop offset=".67213112" stop-color="#fff"/>
      <stop offset="1" stop-color="#fff" stop-opacity="0"/>
    </linearGradient>
    <linearGradient id="d">
      <stop offset="0" stop-color="#2b91bc"/>
      <stop offset="1" stop-color="#77bbd8"/>
    </linearGradient>
    <linearGradient id="c" x1="45.447727" x2="45.447727" y1="92.539597" y2="7.0165396" gradientTransform="matrix(1.00587 0 0 .99417 100 0)" gradientUnits="userSpaceOnUse">
      <stop offset="0"/>
      <stop offset="1" stop-opacity=".58823532"/>
    </linearGradient>
    <linearGradient xlink:href="#c" id="m" x1="32.251034" x2="32.251034" y1="6.1317081" y2="90.238609" gradientTransform="matrix(1.0238 0 0 1.0119 -1.1428571 -98.071429)" gradientUnits="userSpaceOnUse"/>
    <linearGradient xlink:href="#c" id="n" x1="32.251034" x2="32.251034" y1="6.1317081" y2="90.238609" gradientTransform="matrix(1.0238 0 0 1.0119 -1.1428571 -98.071429)" gradientUnits="userSpaceOnUse"/>
    <linearGradient xlink:href="#c" id="o" x1="32.251034" x2="32.251034" y1="6.1317081" y2="90.238609" gradientTransform="matrix(1.0238 0 0 1.0119 -1.1428571 -98.071429)" gradientUnits="userSpaceOnUse"/>
    <linearGradient xlink:href="#c" id="p" x1="32.251034" x2="32.251034" y1="6.1317081" y2="90.238609" gradientTransform="translate(0 -97)" gradientUnits="userSpaceOnUse"/>
    <linearGradient xlink:href="#c" id="l" x1="32.251034" x2="32.251034" y1="6.1317081" y2="90.238609" gradientTransform="matrix(1.0238 0 0 1.0119 -1.1428571 -98.071429)" gradientUnits="userSpaceOnUse"/>
    <linearGradient xlink:href="#d" id="r" x1="48" x2="48" y1="90" y2="5.9877172" gradientTransform="translate(0 110)" gradientUnits="userSpaceOnUse"/>
    <linearGradient id="e">
      <stop offset="0" stop-color="#ff7c53"/>
      <stop offset=".5" stop-color="#f21919"/>
      <stop offset=".5" stop-color="#db1414"/>
      <stop offset="1" stop-color="#9b1818"/>
    </linearGradient>
    <linearGradient id="f">
      <stop offset="0" stop-color="#f0f0f0"/>
      <stop offset=".5" stop-color="#e6e6e6"/>
      <stop offset=".5" stop-color="#d2d2d2"/>
      <stop offset="1" stop-color="#bebebe"/>
    </linearGradient>
    <linearGradient id="k">
      <stop offset="0" stop-color="#c1c1c1"/>
      <stop offset="1" stop-color="#3f3f3f"/>
    </linearGradient>
    <linearGradient xlink:href="#e" id="y" x1="59" x2="69" y1="40" y2="40" gradientUnits="userSpaceOnUse"/>
    <linearGradient xlink:href="#f" id="z" x1="59" x2="69" y1="88" y2="88" gradientUnits="userSpaceOnUse"/>
    <radialGradient xlink:href="#g" id="w" cx="48" cy="90.171875" r="42" fx="48" fy="90.171875" gradientTransform="matrix(1.15731 0 0 .9959 -7.551021 .19713)" gradientUnits="userSpaceOnUse"/>
    <radialGradient xlink:href="#h" id="u" cx="63.98003" cy="61.948856" r="58.01997" fx="63.98003" fy="61.948856" gradientTransform="matrix(1.09001 0 0 .84087 -21.739001 104.49175)" gradientUnits="userSpaceOnUse"/>
    <radialGradient xlink:href="#i" id="s" cx="48" cy="46.582424" r="42" fx="48" fy="46.582424" gradientTransform="matrix(1 0 0 .9666 3e-8 111.55591)" gradientUnits="userSpaceOnUse"/>
    <radialGradient xlink:href="#j" id="x" cx="63.98003" cy="61.948856" r="58.01997" fx="63.98003" fy="61.948856" gradientTransform="matrix(1.09001 0 0 .84045 -21.739002 -5.4878171)" gradientUnits="userSpaceOnUse"/>
    <radialGradient xlink:href="#k" id="A" cx="63.335083" cy="63.279507" r="1.7404202" fx="63.335083" fy="63.279507" gradientTransform="matrix(.644 0 0 .644 22.699101 22.755712)" gradientUnits="userSpaceOnUse"/>
    <filter id="t" color-interpolation-filters="sRGB">
      <feGaussianBlur stdDeviation="2.4779144"/>
    </filter>
  </defs>
  <g transform="scale(1 -1)">
    <path fill="url(#l)" d="M12-95.03125C6.4889097-95.03125 1.96875-90.51109 1.96875-85v71C1.96875-8.4889098 6.4889098-3.96875 12-3.96875h72c5.51109 0 10.03125-4.5201597 10.03125-10.03125v-71c0-5.51109-4.52016-10.03125-10.03125-10.03125H12z" opacity=".07999998"/>
    <path fill="url(#m)" d="M12-94.03125c-4.971633 0-9.03125 4.059617-9.03125 9.03125v71c0 4.9716329 4.0596171 9.03125 9.03125 9.03125h72c4.971633 0 9.03125-4.059617 9.03125-9.03125v-71c0-4.971633-4.059617-9.03125-9.03125-9.03125H12z" opacity=".1"/>
    <path fill="url(#n)" d="M12-93c-4.4091333 0-8 3.590867-8 8v71c0 4.4091333 3.5908667 8 8 8h72c4.409133 0 8-3.5908667 8-8v-71c0-4.409133-3.590867-8-8-8H12z" opacity=".2"/>
    <rect width="86" height="85" x="5" y="-92" fill="url(#o)" opacity=".3" rx="7" ry="7"/>
    <rect width="84" height="84" x="6" y="-91" fill="url(#p)" opacity=".45" rx="6" ry="6"/>
  </g>
  <rect width="84" height="84" x="6" y="6" fill="url(#q)" rx="6" ry="6"/>
  <rect width="84" height="84" x="6" y="116" fill="url(#r)" rx="6" ry="6"/>
  <path fill="url(#s)" d="M36.273888 116.0817c1.650116 2.21669.112581 5.91834 2.601472 5.88159 1.2119 1.71402-2.415455.5113.203594 1.83235 1.506105 1.18657-1.593388 1.86454.27179 2.92937-2.149689 1.10967.348443 5.80399 1.945119 6.97885 2.627954 2.21316 1.162204-4.68572 4.094495-5.0446 1.593359-1.8197 4.391847-2.98781 6.379273-4.81838-1.942301-.15774-3.076464-1.36714-1.237028-2.1163 3.385456 3.47039.848905-1.64353-1.025128-2.45324 1.813361-.57705 3.576977-.15449 3.325361-1.65137 1.916325-1.40252-1.842255-1.85535-3.183935-1.53827H36.273888zm-27.8018524 1.44778c-2.4497603.69819-2.6206434 6.55488-.1583506 3.30274.6043433-1.33537 3.397078-2.94467.1583506-3.30274zm11.4464914.20359c-1.412257 2.21534.204915 3.9915 1.379912 1.28943.831709-1.12834-.617926-1.24809-1.379912-1.28943zm3.528956.49768c-2.72875 1.26521-.672602 4.21556-.605059 4.87173 2.87456.99483 4.473227-.65043 5.560693 2.16149 2.73516 1.57694-.05382 4.31706-1.080544 5.03068 1.849342-1.61119 5.404158 4.38048 4.472249 1.21492-1.11178-.81208 2.985161 1.30456.859619-1.33467-1.956059-3.15266.155272-1.41141.979953-.67561 2.804888-2.51609-3.173595-2.82021-1.681217-5.40958-1.307758-1.05958-3.02289-4.26949-5.33868-3.64206-1.550241 2.00557-.214153-4.36996-2.488605-1.17956-.117891 1.78341-.04285 4.04645-.705711.95682-.444071-.54087.764001-1.7983.0273-1.99416zm-5.564894.0226c-1.8316.61085-1.733228 3.0865.518957 3.35191.771435-.87964.306491-3.18534-.518957-3.35191zm-7.148401.79175c-2.3790789.56388-1.4079923 2.48286-.679573 3.02332-2.9449177.73792 4.495691.94313.792681 1.41049-3.0807906 1.23084 2.966663 2.68095 3.958766 1.22156 3.804391.93074.136908-3.04654-.19704-5.20253-1.612752-1.73148-.06366 3.99154-1.521869.18441-.508786 1.13054-2.126527.1666-2.352965-.63725zm75.601127.24884c-3.192449 1.24986 1.98418 5.96643.697641 1.67549-.128164-.51813.288199-1.88711-.697641-1.67549zm-66.665626 1.9002c-2.29408 2.15671 2.915989 3.9402-.658895 5.54691-.536018-2.00294-1.458273 1.0021-3.503464-.61542-3.515899 1.46447-5.313868-.76283-8.2575357-2.28957-1.7680291-.22016-1.1037806 1.68053-1.220883 3.46019v14.75492c1.7334888 1.82448.6763288.80498 0 .30175.9514666 3.24165-.4195722 7.98024 3.3308509 9.86584.6375636 1.18303 3.3128828 6.22307 3.4362208 4.71504-1.341215-1.40506-2.717353-5.61739-.447896-1.86302 2.032755 3.56879 4.774749 5.8835 8.780477 6.73276 2.190057.74522 3.991169 3.30696 5.917116 2.74332 1.089051 2.87197-3.227416 5.62989.144912 8.3086 1.760515 2.7118 4.716185 4.4904 3.11596 8.29758-1.119073 3.71826-.639926 7.76974-1.607786 11.23409-.300394 2.10873 2.938037 7.46101 2.65747 3.17511.945569-2.9784.92064-6.25562 3.147579-8.36483 3.047115.0241.582377-3.27775 3.60701-2.84642 1.845644-2.42007 2.380233-5.30712 5.49491-6.26809.372042-2.9376 5.178821-7.43659.213139-8.58032-1.349609-.66545-4.824504-.90473-4.55895-1.23308.538034-2.91487-4.493466-3.7447-6.634228-4.93727-2.810759-1.99584-7.034237 3.3156-8.024515-1.26102-.590876-1.43995-2.751326-1.4633-1.758429-3.68521-1.789388 1.78033-5.289343 1.23924-4.373033-2.19892 1.39157-2.89559 6.735639-3.0326 7.64626.45029-1.264352-3.84121 2.443938-6.83144 4.502527-9.56422.419165-1.3062 2.909742-2.42843 2.052679-.69242 1.460154-.0527 3.673291-2.68864 1.079407-1.47202-.03668-2.40389-2.272976-1.72027-2.997994-1.37893 1.34377-2.13357 8.24499-.96713 5.355098-4.45459-2.239305-.90768-2.053024-6.20445-4.317999-3.25359.190595-1.81815-4.610012-5.37715-4.505255-2.32832.585986 2.72813.107133 5.87087-1.139926 7.65911-.260245-3.99762-7.075678-3.11408-6.199423-7.37399 1.26944-2.03029 2.752851-4.83791 2.894179-4.58534 2.275048-.86894 4.104591-3.39651 1.46783-5.05812-.140917 1.4482-1.98303 4.43614-1.72366.82232-1.705794 2.02318-1.316199-3.21941-2.913753-3.76312zm54.450004 1.40253c-3.995941.97784-5.580067 4.79584-7.556815 7.95817-2.913853 1.31423-2.802938 6.95832.452411 5.15567.87128 1.52228-.609505 3.92167 1.928313 1.93122 2.046994-2.7099.357939-7.09276 3.841419-8.80152.253727 1.32865-3.213334 6.28987.836994 5.47441 3.66156.13821-2.661851.36497-.881001 2.70473-1.850264-1.09821-.888827 2.99933-3.303976 2.04578-2.092333 1.13854-3.464338-.52862-2.985033-2.35496-1.645958.96058.517696 3.67045-2.339585 3.83331-.640044 2.27366-5.903378 1.93097-2.910208 4.24616 1.328901 3.44536-4.95153.21599-3.16853 4.35053 1.525447 4.08844 4.722394-1.35472 6.019433-2.40634 2.502474-1.94188 6.210661 3.31108 3.958763 3.50633 2.525083-.33891 2.006191-2.74125-.01696-3.6713-1.092676-2.83493 3.459035 1.39032 3.206601 2.81168 1.605944 3.00835.944615-3.08009 2.578854-.38456-.190808 2.84338 6.574181.66855 3.344389 4.29241-2.776877.55952-5.510134-.71614-7.900831.10093-2.22511-.0197-2.113469-2.39797-2.923585-2.99354-2.830365.23004-6.327933.20402-8.222767 2.4914-2.049016 2.81234-5.00383 6.7438-2.770526 10.33481 2.234877 5.32146 7.777183.27603 10.962975 3.41876.946936 1.31039-.820594 2.86804 1.296711 4.28743.796704 3.02353-.904488 5.89433 1.052264 8.78464 1.011837 2.7182 1.639779 6.78664 5.40576 4.30281 3.985771-2.39945 2.924161-6.8227 6.212939-9.27265-2.60227-5.03806 3.183628-7.2471 4.627218-11.3371-3.153943.46191-5.963772-2.68376-6.725787-5.84994-1.324936-1.53789-.983676-3.8055.496326-.91647 2.034259 1.97191 2.078217 7.82306 5.841274 4.81302 1.720349-.71984 6.418604-3.46572 2.675109-4.71532-2.413043 1.7484-5.075252-5.22426-1.531819-1.17997C88.196064 156.6505 90 157.3019 90 153.67705v-29.49687c-.802399.82028-2.863802 2.33524-3.904284 1.32857-1.790368.24941-4.153886 3.73428-3.59125.36554-1.556235-.10309-.278581 3.02053-2.416637 3.10789-.215289 1.60589-2.159868.29738-1.429431 1.82237-1.500645-1.06488-2.770669-4.42704.186146-2.31673 4.391021-1.31784-2.895608-4.29041-3.458045-5.00891.945455-.22661-1.028609-1.21224-1.266806-.88224zm-36.239676.88224c-1.461507 1.2182 2.778528 1.44762 0 0zm-19.522376.65603c-1.634652 1.7105 2.603281 1.57244 0 0zm9.478418 1.69661c-1.237867 2.02858 1.829027.74894 0 0zm27.100586 2.39788c-1.449235 1.66908-3.362051-.43926-3.39323.99535.262642.43347 1.314671 3.52729 3.619439 1.24418 1.236985-.52171.749963-1.83688-.226209-2.23953zm-30.855759.99535c-2.748806 2.40147 4.668304 2.62274.582324.27542l-.582324-.27542zm36.262298 6.65072c-1.979083 1.29104.949434 4.03281-.04308 5.32072-1.240104 2.16147 4.608325-.15225 1.484614-1.87676-.222564-1.48161-1.830018-3.28935-1.441539-3.44396zm-1.334668 2.60147c-2.757392.77986-.625964 4.80624.350657 1.014.05497-.21986.12936-1.02135-.350657-1.014zm-22.078603 2.91818c-2.565224 1.74983-.39843 3.49644 1.481561 2.70912-.385959-1.05576-1.46417-1.72096-1.481561-2.70912zm48.455298 2.9408c1.279946.64619-2.345536 1.75008-.04983 2.88736 1.335978 1.57167.832312 4.94545-1.339202 2.55764.403442-2.66599-2.943559-4.65698 1.389033-5.445zm-6.582867.0226c-.173666 1.71279 3.69395 4.37514-.475048 3.50633-2.204744.25873-5.506966-.0674-2.729423-2.81568.87765-.52709 3.182055 1.8185 1.982912-.37395.42514-.0271.821079-.18767 1.221559-.3167zm-12.735913 3.70992c-1.608116 1.03642 1.111982 1.83112 0 0zm-40.379417 9.65939c-.271103.90481 5.085991 1.82176 1.389301.37215l-.551068-.19405-.838233-.1781zm4.16236 1.28943c-1.624915 1.65021 3.347807.49301 0 0zm54.336901 15.13379c-3.530727.0911-3.061331 9.20159-.600138 3.81083.233406-1.16979 1.168903-2.71377.600138-3.81083z" filter="url(#t)"/>
  <path fill="url(#u)" d="M36.273888 116.0817c1.650116 2.21669.112581 5.91834 2.601472 5.88159 1.2119 1.71402-2.415455.5113.203594 1.83235 1.506105 1.18657-1.593388 1.86454.27179 2.92937-2.149689 1.10967.348443 5.80399 1.945119 6.97885 2.627954 2.21316 1.162204-4.68572 4.094495-5.0446 1.593359-1.8197 4.391847-2.98781 6.379273-4.81838-1.942301-.15774-3.076464-1.36714-1.237028-2.1163 3.385456 3.47039.848905-1.64353-1.025128-2.45324 1.813361-.57705 3.576977-.15449 3.325361-1.65137 1.916325-1.40252-1.842255-1.85535-3.183935-1.53827H36.273888zm-27.801852 1.44778c-2.449761.69819-2.620644 6.55488-.158351 3.30274.604343-1.33537 3.397078-2.94467.158351-3.30274zm11.446491.20359c-1.412257 2.21534.204915 3.9915 1.379912 1.28943.831709-1.12834-.617926-1.24809-1.379912-1.28943zm3.528956.49768c-2.72875 1.26521-.672602 4.21556-.605059 4.87173 2.87456.99483 4.473227-.65043 5.560693 2.16149 2.73516 1.57694-.05382 4.31706-1.080544 5.03068 1.849342-1.61119 5.404158 4.38048 4.472249 1.21492-1.11178-.81208 2.985161 1.30456.859619-1.33467-1.956059-3.15266.155272-1.41141.979953-.67561 2.804888-2.51609-3.173595-2.82021-1.681217-5.40958-1.307758-1.05958-3.02289-4.26949-5.33868-3.64206-1.550241 2.00557-.214153-4.36996-2.488605-1.17956-.117891 1.78341-.04285 4.04645-.705711.95682-.444071-.54087.764001-1.7983.0273-1.99416zm-5.564894.0226c-1.8316.61085-1.733228 3.0865.518957 3.35191.771435-.87964.306491-3.18534-.518957-3.35191zm-7.148401.79175c-2.379079.56388-1.407992 2.48286-.679573 3.02332-2.944918.73792 4.495691.94313.792681 1.41049-3.080791 1.23084 2.966663 2.68095 3.958766 1.22156 3.804391.93074.136908-3.04654-.19704-5.20253-1.612752-1.73148-.06366 3.99154-1.521869.18441-.508786 1.13054-2.126527.1666-2.352965-.63725zm75.601127.24884c-3.192449 1.24986 1.98418 5.96643.697641 1.67549-.128164-.51813.288199-1.88711-.697641-1.67549zm-66.665626 1.9002c-2.29408 2.15671 2.915989 3.9402-.658895 5.54691-.536018-2.00294-1.458273 1.0021-3.503464-.61542-3.515899 1.46447-5.313868-.76283-8.257536-2.28957-1.768029-.22016-1.10378 1.68053-1.220883 3.46019v14.75492c1.733489 1.82448.676329.80498 0 .30175.951467 3.24165-.419572 7.98024 3.330851 9.86584.637564 1.18303 3.312883 6.22307 3.436221 4.71504-1.341215-1.40506-2.717353-5.61739-.447896-1.86302 2.032755 3.56879 4.774749 5.8835 8.780477 6.73276 2.190057.74522 3.991169 3.30696 5.917116 2.74332 1.089051 2.87197-3.227416 5.62989.144912 8.3086 1.760515 2.7118 4.716185 4.4904 3.11596 8.29758-1.119073 3.71826-.639926 7.76974-1.607786 11.23409-.300394 2.10873 2.938037 7.46101 2.65747 3.17511.945569-2.9784.92064-6.25562 3.147579-8.36483 3.047115.0241.582377-3.27775 3.60701-2.84642 1.845644-2.42007 2.380233-5.30712 5.49491-6.26809.372042-2.9376 5.178821-7.43659.213139-8.58032-1.349609-.66545-4.824504-.90473-4.55895-1.23308.538034-2.91487-4.493466-3.7447-6.634228-4.93727-2.810759-1.99584-7.034237 3.3156-8.024515-1.26102-.590876-1.43995-2.751326-1.4633-1.758429-3.68521-1.789388 1.78033-5.289343 1.23924-4.373033-2.19892 1.39157-2.89559 6.735639-3.0326 7.64626.45029-1.264352-3.84121 2.443938-6.83144 4.502527-9.56422.419165-1.3062 2.909742-2.42843 2.052679-.69242 1.460154-.0527 3.673291-2.68864 1.079407-1.47202-.03668-2.40389-2.272976-1.72027-2.997994-1.37893 1.34377-2.13357 8.24499-.96713 5.355098-4.45459-2.239305-.90768-2.053024-6.20445-4.317999-3.25359.190595-1.81815-4.610012-5.37715-4.505255-2.32832.585986 2.72813.107133 5.87087-1.139926 7.65911-.260245-3.99762-7.075678-3.11408-6.199423-7.37399 1.26944-2.0303 2.752851-4.83791 2.894179-4.58534 2.275048-.86894 4.104591-3.39651 1.46783-5.05812-.140917 1.4482-1.98303 4.43614-1.72366.82232-1.705794 2.02318-1.316199-3.21941-2.913753-3.76312zm54.450004 1.40253c-3.995941.97784-5.580067 4.79584-7.556815 7.95817-2.913853 1.31423-2.802938 6.95832.452411 5.15567.87128 1.52228-.609505 3.92167 1.928313 1.93122 2.046994-2.7099.357939-7.09276 3.841419-8.80152.253727 1.32865-3.213334 6.28987.836994 5.47441 3.66156.13821-2.661851.36497-.881001 2.70473-1.850264-1.09821-.888827 2.99933-3.303976 2.04578-2.092333 1.13854-3.464338-.52862-2.985033-2.35496-1.645958.96058.517696 3.67045-2.339585 3.83331-.640044 2.27366-5.903378 1.93097-2.910208 4.24616 1.328901 3.44536-4.95153.21599-3.16853 4.35053 1.525447 4.08844 4.722394-1.35472 6.019433-2.40634 2.502474-1.94188 6.210661 3.31108 3.958763 3.50633 2.525083-.33891 2.006191-2.74125-.01696-3.6713-1.092676-2.83493 3.459035 1.39032 3.206601 2.81168 1.605944 3.00835.944615-3.08009 2.578854-.38456-.190808 2.84338 6.574181.66855 3.344389 4.29241-2.776877.55952-5.510134-.71614-7.900831.10093-2.22511-.0197-2.113469-2.39797-2.923585-2.99354-2.830365.23004-6.327933.20402-8.222767 2.4914-2.049016 2.81234-5.00383 6.7438-2.770526 10.33481 2.234877 5.32146 7.777183.27603 10.962975 3.41876.946936 1.31039-.820594 2.86804 1.296711 4.28743.796704 3.02353-.904488 5.89433 1.052264 8.78464 1.011837 2.7182 1.639779 6.78664 5.40576 4.30281 3.985771-2.39945 2.924161-6.8227 6.212939-9.27265-2.60227-5.03806 3.183628-7.2471 4.627218-11.3371-3.153943.46191-5.963772-2.68376-6.725787-5.84994-1.324936-1.53789-.983676-3.8055.496326-.91647 2.034259 1.97191 2.078217 7.82306 5.841274 4.81302 1.720349-.71984 6.418604-3.46572 2.675109-4.71532-2.413043 1.7484-5.075252-5.22426-1.531819-1.17997C88.196064 156.6505 90 157.3019 90 153.67705v-29.49687c-.802399.82028-2.863802 2.33524-3.904284 1.32857-1.790368.24941-4.153886 3.73428-3.59125.36554-1.556235-.10309-.278581 3.02053-2.416637 3.10789-.215289 1.60589-2.159868.29738-1.429431 1.82237-1.500645-1.06488-2.770669-4.42704.186146-2.31673 4.391021-1.31784-2.895608-4.29041-3.458045-5.00891.945455-.22661-1.028609-1.21224-1.266806-.88224zm-36.239676.88224c-1.461507 1.2182 2.778528 1.44762 0 0zm-19.522376.65603c-1.634652 1.7105 2.603281 1.57244 0 0zm9.478418 1.69661c-1.237867 2.02858 1.829027.74894 0 0zm27.100586 2.39788c-1.449235 1.66908-3.362051-.43926-3.39323.99535.262642.43347 1.314671 3.52729 3.619439 1.24418 1.236985-.52171.749963-1.83688-.226209-2.23953zm-30.855759.99535c-2.748806 2.40147 4.668304 2.62274.582324.27542l-.582324-.27542zm36.262298 6.65072c-1.979083 1.29104.949434 4.03281-.04308 5.32072-1.240104 2.16147 4.608325-.15225 1.484614-1.87675-.222564-1.48162-1.830018-3.28936-1.441539-3.44397zm-1.334668 2.60147c-2.757392.77986-.625964 4.80624.350657 1.014.05497-.21986.12936-1.02135-.350657-1.014zm-22.078603 2.91818c-2.565224 1.74983-.39843 3.49644 1.481561 2.70912-.385959-1.05576-1.46417-1.72096-1.481561-2.70912zm48.455298 2.9408c1.279946.64619-2.345536 1.75008-.04983 2.88736 1.335978 1.57167.832312 4.94545-1.339202 2.55764.403442-2.66599-2.943559-4.65698 1.389033-5.445zm-6.582867.0226c-.173666 1.71279 3.69395 4.37514-.475048 3.50633-2.204744.25873-5.506966-.0674-2.729423-2.81568.87765-.52709 3.182055 1.8185 1.982912-.37395.42514-.0271.821079-.18767 1.221559-.3167zm-12.735913 3.70992c-1.608116 1.03642 1.111982 1.83112 0 0zm-40.379417 9.65939c-.271103.90481 5.085991 1.82176 1.389301.37215l-.551068-.19405-.838233-.1781zm4.16236 1.28943c-1.624915 1.65021 3.347807.49301 0 0zm54.336901 15.13379c-3.530727.0911-3.061331 9.20159-.600138 3.81083.233406-1.16979 1.168903-2.71377.600138-3.81083z"/>
  <path fill="url(#v)" d="M12 6.0000002c-3.324 0-6 2.676-6 5.9999998v72c0 .334721.04135.6507.09375.96875.0487.295596.09704.596915.1875.875.00988.03038.020892.0636.03125.09375.098865.287771.2348802.547452.375.8125.1445918.273507.3156161.535615.5.78125.1843839.245635.3737765.473472.59375.6875.439947.428056.94291.814526 1.5 1.09375.278545.139612.5734731.246947.875.34375-.2562018-.100222-.4867109-.236272-.71875-.375-.00741-.0044-.023866.0045-.03125 0-.031933-.0193-.062293-.04251-.09375-.0625-.120395-.0767-.2310226-.163513-.34375-.25-.1061728-.0808-.2132809-.161112-.3125-.25-.1779299-.161433-.3474596-.345388-.5-.53125-.1075789-.130255-.2183939-.265285-.3125-.40625-.025089-.03838-.038446-.08587-.0625-.125-.064763-.103032-.1302275-.204517-.1875-.3125-.1010083-.194706-.2056748-.415701-.28125-.625-.00796-.02181-.023589-.04055-.03125-.0625-.031825-.09195-.035805-.186831-.0625-.28125-.030332-.106618-.070389-.203031-.09375-.3125C7.052121 85.720988 7 85.364295 7 85V13c0-2.781848 2.2181517-4.9999998 5-4.9999998h72c2.781848 0 5 2.2181518 5 4.9999998v72c0 .364295-.05212.720988-.125 1.0625-.04415.206893-.08838.397658-.15625.59375-.0077.02195-.0233.04069-.03125.0625-.06274.173739-.138383.367449-.21875.53125-.04158.0828-.07904.169954-.125.25-.0546.09721-.126774.18835-.1875.28125-.09411.140965-.204921.275995-.3125.40625-.143174.17445-.303141.346998-.46875.5-.01117.0102-.01998.02115-.03125.03125-.138386.125556-.285091.234436-.4375.34375-.102571.07315-.204318.153364-.3125.21875-.0074.0045-.02384-.0044-.03125 0-.232039.138728-.462548.274778-.71875.375.301527-.0968.596455-.204138.875-.34375.55709-.279224 1.060053-.665694 1.5-1.09375.219973-.214028.409366-.441865.59375-.6875s.355408-.507743.5-.78125c.14012-.265048.276135-.524729.375-.8125.01041-.03078.02133-.06274.03125-.09375.09046-.278085.1388-.579404.1875-.875C89.95865 84.6507 90 84.334721 90 84V12c0-3.3239998-2.676-5.9999998-6-5.9999998H12z" opacity=".35"/>
  <path fill="url(#w)" d="M12 90c-3.324 0-6-2.676-6-6V12c0-.33472.04135-.6507.09375-.96875.0487-.2956.09704-.59691.1875-.875.00988-.0304.020892-.0636.03125-.0937.098865-.28777.2348802-.54745.375-.8125.1445918-.27351.3156161-.53562.5-.78125.1843839-.24563.3737765-.47347.59375-.6875.439947-.42806.94291-.81453 1.5-1.09375.278545-.13961.5734731-.24695.875-.34375-.2562018.10022-.4867109.23627-.71875.375-.00741.004-.023866-.004-.03125 0-.031933.0193-.062293.0425-.09375.0625-.120395.0767-.2310226.16351-.34375.25-.1061728.0808-.2132809.16111-.3125.25-.1779299.16143-.3474596.34539-.5.53125-.1075789.13026-.2183939.26529-.3125.40625-.025089.0384-.038446.0859-.0625.125-.064763.10303-.1302275.20452-.1875.3125-.1010083.19471-.2056748.4157-.28125.625-.00796.0218-.023589.0405-.03125.0625-.031825.0919-.035805.18683-.0625.28125-.030332.10662-.070389.20303-.09375.3125C7.052121 10.27901 7 10.63571 7 11v72c0 2.78185 2.2181517 5 5 5h72c2.781848 0 5-2.21815 5-5V11c0-.36429-.05212-.72099-.125-1.0625-.04415-.20689-.08838-.39766-.15625-.59375-.0077-.022-.0233-.0407-.03125-.0625-.06274-.17374-.138383-.36745-.21875-.53125-.04158-.0828-.07904-.16995-.125-.25-.0546-.0972-.126774-.18835-.1875-.28125-.09411-.14096-.204921-.27599-.3125-.40625-.143174-.17445-.303141-.347-.46875-.5-.01117-.0102-.01998-.0212-.03125-.0312-.138386-.12556-.285091-.23444-.4375-.34375-.102571-.0731-.204318-.15336-.3125-.21875-.0074-.004-.02384.004-.03125 0-.232039-.13873-.462548-.27478-.71875-.375.301527.0968.596455.20414.875.34375.55709.27922 1.060053.66569 1.5 1.09375.219973.21403.409366.44187.59375.6875.184384.24563.355408.50774.5.78125.14012.26505.276135.52473.375.8125.01041.0308.02133.0627.03125.0937.09046.27809.1388.5794.1875.875.0524.31805.09375.63403.09375.96875v72c0 3.324-2.676 6-6 6H12z" opacity=".25"/>
  <path fill="url(#x)" d="M36.27388 6.096377c1.65012 2.2155912.11259 5.915398 2.60148 5.878671 1.2119 1.713164-2.41545.511042.2036 1.831432 1.5061 1.185988-1.5934 1.863613.27178 2.927919-2.14968 1.109114.34844 5.801103 1.94512 6.97538 2.62795 2.212061 1.1622-4.683394 4.0945-5.04209 1.59336-1.818795 4.39184-2.986327 6.37927-4.815989-1.9423-.15766-3.07647-1.366454-1.23702-2.115252 3.38545 3.468671.8489-1.642711-1.02514-2.452023 1.81336-.5767594 3.57698-.154404 3.32537-1.6505493 1.91632-1.4018192-1.84226-1.8544226-3.18394-1.5374987H36.27388zM8.472035 7.5434349c-2.44976.6978482-2.620642 6.5516231-.15835 3.3011001.604343-1.334705 3.397077-2.943211.15835-3.3011001zm11.446494.2034921c-1.41226 2.214241.204911 3.989518 1.379911 1.288786.83171-1.1277826-.617931-1.2474651-1.379911-1.288786zm3.528951.4974263c-2.728751 1.2645837-.6726 4.2134717-.60506 4.8693197 2.87457.994334 4.47323-.650114 5.56069 2.160413 2.73516 1.576152-.0538 4.314918-1.08054 5.028176 1.84934-1.610389 5.40416 4.378304 4.47226 1.214321-1.11179-.811673 2.98515 1.303915.85962-1.334006-1.95607-3.151091.15527-1.410713.97995-.675273 2.80488-2.514847-3.1736-2.818813-1.68123-5.40689-1.30775-1.059057-3.02289-4.267374-5.33867-3.640254-1.55024 2.004567-.21415-4.3677909-2.48861-1.178979-.11789 1.782531-.0429 4.044447-.70571.956351-.44407-.540606.764-1.7974072.0273-1.9931787zm-5.56489.022612c-1.831602.6105493-1.733229 3.0849727.518956 3.3502467.771434-.879196.306494-3.1837569-.518956-3.3502468zm-7.148403.7913597c-2.379078.563598-1.407992 2.481632-.679572 3.02182-2.944918.737557 4.49569.942657.79268 1.409793-3.08079 1.230224 2.966663 2.67961 3.958767 1.220954 3.804388.930273.136908-3.045031-.197041-5.199948-1.612752-1.7306215-.06365 3.989551-1.521868.184316-.508787 1.129983-2.126528.166515-2.352966-.636935zm75.601123.248712c-3.19244 1.249243 1.98418 5.963472.69765 1.674664-.12817-.517868.28819-1.886169-.69765-1.674664zM19.66969 11.2063c-2.294083 2.155636 2.91599 3.938244-.658894 5.54415-.53602-2.001942-1.458276 1.001608-3.503467-.615111-3.515899 1.46374-5.313868-.762449-8.257534-2.288432-1.768029-.220055-1.103781 1.679698-1.220884 3.458474v14.74759c1.733489 1.823574.676329.804576 0 .301602.951467 3.240031-.419572 7.976266 3.330851 9.860928.637563 1.182446 3.312882 6.219986 3.43622 4.712704-1.341214-1.404368-2.717353-5.614596-.447896-1.862098 2.032756 3.567022 4.774753 5.880584 8.780474 6.729415 2.19006.744855 3.99117 3.305322 5.91712 2.741963 1.08905 2.870539-3.22741 5.627088.14491 8.30447 1.76052 2.71045 4.71618 4.488168 3.11596 8.29345-1.11907 3.716413-.63993 7.765882-1.60779 11.228513-.30039 2.107681 2.93804 7.457302 2.65747 3.173531.94557-2.976918.92064-6.252508 3.14759-8.360679 3.04711.02412.58237-3.276114 3.607-2.844995 1.84565-2.418872 2.38023-5.304486 5.49491-6.264978.37205-2.936144 5.17882-7.4329.21314-8.576056-1.34961-.665119-4.8245-.904282-4.55894-1.232465.53803-2.913429-4.49347-3.742841-6.63424-4.934817-2.81075-1.994856-7.03423 3.313948-8.02451-1.260398-.59088-1.439233-2.75133-1.462574-1.75843-3.683379-1.78939 1.779441-5.28934 1.238624-4.373028-2.197824 1.391566-2.894156 6.735638-3.031092 7.646258.450058-1.26435-3.839294 2.44394-6.828036 4.50253-9.559465.41916-1.305551 2.90974-2.427219 2.05268-.692077 1.46015-.05266 3.67328-2.687302 1.07941-1.471281-.0367-2.402702-2.27298-1.719417-2.998-1.378249 1.34377-2.132514 8.24498-.966646 5.35509-4.452373-2.2393-.907229-2.05302-6.201368-4.318-3.251981.1906-1.817243-4.61001-5.374474-4.50525-2.327163.58599 2.726773.10714 5.867952-1.13992 7.655308-.26025-3.995633-7.075686-3.112538-6.199431-7.370332 1.269451-2.029282 2.752851-4.835506 2.894181-4.583059 2.27505-.868509 4.10459-3.394824 1.46783-5.055609-.14092 1.447483-1.98303 4.433935-1.72366.821917-1.705794 2.022175-1.3162-3.217808-2.91375-3.761252zm54.45 1.401837c-3.99594.977352-5.58007 4.793453-7.55681 7.954209-2.91386 1.313584-2.80294 6.954861.45241 5.153113.87128 1.52152-.60951 3.919724 1.92831 1.930256 2.047-2.708555.35794-7.089232 3.84142-8.797142.25374 1.32799-3.21334 6.286746.83699 5.471685 3.66156.13814-2.66185.364788-.88099 2.703385-1.85027-1.097665-.88884 2.997843-3.30399 2.044772-2.09232 1.137967-3.46433-.528366-2.98503-2.353789-1.64596.960095.5177 3.668626-2.33958 3.831405-.64005 2.272529-5.90338 1.930002-2.9102 4.244049 1.3289 3.443647-4.95154.215879-3.16854 4.348369 1.52545 4.086407 4.7224-1.354049 6.01943-2.405153 2.50248-1.940907 6.21066 3.309444 3.95877 3.504593 2.52508-.338743 2.00619-2.739888-.0169-3.669477-1.09268-2.833524 3.45903 1.389634 3.2066 2.810286 1.60595 3.006852.94462-3.078557 2.57885-.384373-.1908 2.841965 6.57418.668223 3.34439 4.290282-2.77688.559235-5.51013-.715787-7.90083.100876-2.22511-.01969-2.11347-2.396773-2.92358-2.992055-2.83037.229926-6.32794.203926-8.22277 2.490166-2.04902 2.810946-5.00383 6.740445-2.77053 10.329674 2.23487 5.318818 7.77718.27589 10.96298 3.417068.94693 1.309731-.8206 2.86661 1.2967 4.285291.79672 3.022035-.90448 5.891404 1.05227 8.780282 1.01184 2.716843 1.63978 6.783262 5.40576 4.300665 3.98577-2.398255 2.92416-6.819304 6.21294-9.268036-2.60227-5.035562 3.18363-7.243505 4.62722-11.33147-3.15395.461678-5.96377-2.682428-6.72579-5.847035-1.32494-1.53712-.98368-3.80361.49633-.916013 2.03426 1.970926 2.07821 7.819175 5.84127 4.810628 1.72035-.719477 6.4186-3.464001 2.67511-4.712977-2.41304 1.747528-5.07525-5.221667-1.53182-1.179385 2.57602 1.092759 4.37996 1.743838 4.37996-1.879216V14.190856c-.8024.819872-2.8638 2.334082-3.90428 1.32791-1.79037.249281-4.15389 3.732429-3.59125.365356-1.55624-.103042-.27858 3.019034-2.41664 3.106347-.21529 1.605089-2.15987.29723-1.42943 1.821464-1.50065-1.064346-2.77067-4.424842.18614-2.315577 4.39103-1.31719-2.8956-4.288275-3.45804-5.006418.94545-.226501-1.02861-1.211646-1.26681-.881801zm-36.23968.881801c-1.4615 1.217596 2.77854 1.446893 0 0zm-19.522371.655697c-1.634647 1.709655 2.603281 1.571667 0 0zm9.478421 1.69577c-1.23786 2.027571 1.82903.748571 0 0zm27.10058 2.39669c-1.44923 1.668248-3.36205-.439045-3.39323.994852.26265.433258 1.31467 3.52554 3.61945 1.243565 1.23698-.521451.74995-1.835967-.22622-2.238417zm-30.85575.994852c-2.74881 2.400285 4.6683 2.621438.58232.275289l-.58232-.27529zm36.2623 6.647418c-1.97909 1.2904.94943 4.030804-.0431 5.318079-1.2401 2.160392 4.60832-.152179 1.48461-1.875826-.22257-1.48088-1.83002-3.287723-1.44154-3.442253zm-1.33468 2.600181c-2.75739.779471-.62595 4.803849.35067 1.013493.0549-.219748.12936-1.020842-.35067-1.013493zm-22.0786 2.916726c-2.56522 1.748962-.39843 3.494707 1.48156 2.707775-.38596-1.055239-1.46417-1.720102-1.48156-2.707775zm48.4553 2.939335c1.27995.645878-2.34554 1.749213-.0498 2.885924 1.33598 1.570889.83231 4.942999-1.3392 2.556372.40344-2.664667-2.94356-4.654664 1.38903-5.442296zm-6.58287.02261c-.17366 1.711943 3.69395 4.372967-.47504 3.504593-2.20475.258597-5.50697-.06736-2.72943-2.814283.87765-.526822 3.18206 1.817596 1.98292-.373765.42513-.02712.82107-.18758 1.22155-.316545zM66.06643 38.0673c-1.60811 1.035898 1.11199 1.830212 0 0zm-40.37941 9.654585c-.27111.904354 5.08598 1.82085 1.38929.371963l-.55107-.193949-.83822-.178014zm4.16235 1.288785c-1.62491 1.649392 3.34782.492772 0 0zm54.3369 15.126272c-3.53072.09109-3.06133 9.197024-.60013 3.808943.2334-1.169216 1.1689-2.712425.60013-3.808943z" opacity=".8"/>
  <path fill="#fff" d="m48 16-4.625 16.6875c-1.750115.528895-3.372187 1.350473-4.8125 2.40625l-7.53125-4.0625 4.0625 7.53125c-1.055777 1.440313-1.877355 3.062385-2.40625 4.8125L16 48l16.6875 4.625c.528895 1.750115 1.350473 3.372187 2.40625 4.8125l-4.0625 7.53125 7.53125-4.0625c1.440313 1.055777 3.062385 1.877355 4.8125 2.40625L48 80l4.625-16.6875c1.750115-.528895 3.372187-1.350473 4.8125-2.40625l7.53125 4.0625-4.0625-7.53125c1.055777-1.440313 1.877355-3.062385 2.40625-4.8125L80 48l-16.6875-4.625c-.528895-1.750115-1.350473-3.372187-2.40625-4.8125l4.0625-7.53125-7.53125 4.0625c-1.440313-1.055777-3.062385-1.877355-4.8125-2.40625L48 16zm0 20c6.627417 0 12 5.372583 12 12s-5.372583 12-12 12-12-5.372583-12-12 5.372583-12 12-12z" color="#000" enable-background="accumulate" overflow="visible" style="marker:none"/>
  <path fill-rule="evenodd" d="M73.59375 19.875a.98733463.98733463 0 0 0-.09375.03125c-1.862486.662889-2.985802 2.089997-4.15625 2.84375a.98733463.98733463 0 0 0-.0625.0625C60.328027 29.67862 51.301634 36.489351 42.375 43.40625a.98733463.98733463 0 0 0-.1875.1875C34.543066 53.6051 26.89933 63.61961 19.25 73.625a.98733463.98733463 0 0 0-.0625.0625c-1.493391 2.412529 1.376631 5.582816 3.90625 4.25a.98733463.98733463 0 0 0 .09375-.0625c4.295201-3.098936 8.478503-6.431181 12.6875-9.59375 5.909361-4.541521 11.86439-9.03043 17.75-13.625a.98733463.98733463 0 0 0 .1875-.1875c7.641124-10.045569 15.366717-20.038609 22.96875-30.125a.98733463.98733463 0 0 0 .09375-.15625c1.06411-2.143866-.820619-4.644879-3.15625-4.3125a.98733463.98733463 0 0 0-.125 0z" opacity=".05"/>
  <path fill-rule="evenodd" d="M73.84375 20.84375c-1.519181.540701-2.627486 1.890163-3.980569 2.761531-8.957315 6.869258-17.974482 13.6705-26.894431 20.582219-7.644356 10.011247-15.287853 20.025446-22.9375 30.03125-.987163 1.594733.915897 3.727784 2.59375 2.84375 4.270136-3.080852 8.417658-6.404008 12.641025-9.577375 5.914221-4.545256 11.88838-9.022397 17.765225-13.610125C60.675498 43.825324 68.402826 33.829944 76 23.75c.719423-1.449423-.573684-3.131462-2.15625-2.90625z" opacity=".1"/>
  <path fill-rule="evenodd" d="M74.09375 21.9375a.93157725.93157725 0 0 0-.5.1875L43.9375 44.78125a.93157725.93157725 0 0 0-.1875.1875L21.09375 74.625a.93157725.93157725 0 0 0 1.3125 1.3125L52.0625 53.28125a.93157725.93157725 0 0 0 .1875-.1875L74.90625 23.4375a.93157725.93157725 0 0 0-.8125-1.5z" opacity=".15"/>
  <path fill-rule="evenodd" d="M74.15625 22.875 44.5 45.53125 21.84375 75.1875 51.5 52.53125 74.15625 22.875z" opacity=".3"/>
  <g fill-rule="evenodd" transform="rotate(45 47.9992855 48.02860992)">
    <g transform="matrix(.98984 0 0 .77049 -15.350324 -1.2826605)">
      <path fill="url(#y)" d="M69 64H59l5-48 5 48z"/>
      <path fill="url(#z)" d="M69 63.999997H59L64 112l5-48.000003z"/>
    </g>
    <path fill="url(#A)" d="M65.503089 63.920891a1.7404202 1.7404202 0 1 1-3.480841 0 1.7404202 1.7404202 0 1 1 3.480841 0z" transform="translate(-8.4565171 -8.5672842) scale(.8854)"/>
  </g>
</svg>