<?xml version="1.0" encoding="UTF-8" standalone="no"?>
<svg xmlns="http://www.w3.org/2000/svg" xmlns:xlink="http://www.w3.org/1999/xlink" width="96" height="96" version="1.0">
  <defs>
    <linearGradient id="b">
      <stop offset="0" stop-color="#0c0c0c"/>
      <stop offset=".08692967" stop-color="#2c2c2c"/>
      <stop offset=".09783975" stop-color="#353535"/>
      <stop offset=".5971998" stop-color="#383838"/>
      <stop offset=".60162377" stop-color="#484848"/>
      <stop offset="1" stop-color="#151515"/>
    </linearGradient>
    <linearGradient id="h">
      <stop offset="0"/>
      <stop offset="1" stop-color="#1f1f1f"/>
    </linearGradient>
    <linearGradient id="d">
      <stop offset="0" stop-color="#fff"/>
      <stop offset="1" stop-color="#fff" stop-opacity="0"/>
    </linearGradient>
    <linearGradient id="k">
      <stop offset="0" stop-color="#59d338"/>
      <stop offset="1" stop-color="#289140"/>
    </linearGradient>
    <linearGradient id="g">
      <stop offset="0" stop-color="#969696"/>
      <stop offset="1" stop-color="gray" stop-opacity="0"/>
    </linearGradient>
    <linearGradient id="c">
      <stop offset="0"/>
      <stop offset="1" stop-opacity="0"/>
    </linearGradient>
    <linearGradient id="f">
      <stop offset="0" stop-color="#bebebe"/>
      <stop offset="1" stop-color="#e6e6e6"/>
    </linearGradient>
    <linearGradient id="a">
      <stop offset="0" stop-color="#fff"/>
      <stop offset="1" stop-color="#fff" stop-opacity="0"/>
    </linearGradient>
    <linearGradient xlink:href="#a" id="D" x1="36.357143" x2="36.357143" y1="6" y2="63.893143" gradientUnits="userSpaceOnUse"/>
    <linearGradient xlink:href="#a" id="w" x1="48" x2="48" y1="20.220806" y2="138.66119" gradientUnits="userSpaceOnUse"/>
    <linearGradient xlink:href="#b" id="s" x1="48" x2="48" y1="61.848045" y2="11.465083" gradientTransform="translate(4.6178402 4.6178402) scale(.9038)" gradientUnits="userSpaceOnUse"/>
    <linearGradient xlink:href="#c" id="t" x1="11" x2="11" y1="84" y2="46.896225" gradientTransform="matrix(1 0 0 .58612 10 -14.334166)" gradientUnits="userSpaceOnUse"/>
    <linearGradient xlink:href="#d" id="u" x1="19" x2="19" y1="54" y2="15.672464" gradientUnits="userSpaceOnUse"/>
    <linearGradient xlink:href="#e" id="M" x1="15.999999" x2="20.178572" y1="85.0625" y2="85.0625" gradientUnits="userSpaceOnUse"/>
    <linearGradient id="e">
      <stop offset="0" stop-color="#767676"/>
      <stop offset="1" stop-color="#fdfdfd"/>
    </linearGradient>
    <linearGradient id="l">
      <stop offset="0" stop-color="#c1ff97"/>
      <stop offset="1" stop-color="#30c700"/>
    </linearGradient>
    <linearGradient xlink:href="#f" id="B" x1="48" x2="48" y1="90" y2="5.9877172" gradientUnits="userSpaceOnUse"/>
    <linearGradient xlink:href="#g" id="C" x1="48" x2="48" y1="66.468658" y2="51.892151" gradientUnits="userSpaceOnUse"/>
    <linearGradient xlink:href="#c" id="J" x1="27.828682" x2="27.828682" y1="65.136421" y2="56.170937" gradientUnits="userSpaceOnUse"/>
    <linearGradient xlink:href="#h" id="G" x1="58.92857" x2="58.92857" y1="72.178574" y2="61.399658" gradientUnits="userSpaceOnUse"/>
    <linearGradient id="i">
      <stop offset="0" stop-color="#818181"/>
      <stop offset=".2" stop-color="#f9f9f9"/>
      <stop offset="1" stop-color="#dcdcdc" stop-opacity="0"/>
    </linearGradient>
    <linearGradient xlink:href="#i" id="F" x1="6" x2="24" y1="73" y2="73" gradientUnits="userSpaceOnUse"/>
    <linearGradient xlink:href="#i" id="H" x1="6" x2="24" y1="73" y2="73" gradientTransform="matrix(-1 0 0 1 96 0)" gradientUnits="userSpaceOnUse"/>
    <linearGradient xlink:href="#b" id="v" x1="48" x2="48" y1="59.608681" y2="18.171156" gradientTransform="translate(100)" gradientUnits="userSpaceOnUse"/>
    <linearGradient xlink:href="#a" id="I" x1="27.321428" x2="27.321428" y1="61.39732" y2="69.628479" gradientTransform="translate(1 .53571429)" gradientUnits="userSpaceOnUse"/>
    <linearGradient id="j" x1="45.447727" x2="45.447727" y1="92.539597" y2="7.0165396" gradientTransform="matrix(1.00587 0 0 .99417 100 0)" gradientUnits="userSpaceOnUse">
      <stop offset="0"/>
      <stop offset="1" stop-opacity=".58823532"/>
    </linearGradient>
    <linearGradient xlink:href="#j" id="o" x1="32.251034" x2="32.251034" y1="6.1317081" y2="90.238609" gradientTransform="matrix(1.0238 0 0 1.0119 -1.1428571 -98.071429)" gradientUnits="userSpaceOnUse"/>
    <linearGradient xlink:href="#j" id="p" x1="32.251034" x2="32.251034" y1="6.1317081" y2="90.238609" gradientTransform="matrix(1.0238 0 0 1.0119 -1.1428571 -98.071429)" gradientUnits="userSpaceOnUse"/>
    <linearGradient xlink:href="#j" id="q" x1="32.251034" x2="32.251034" y1="6.1317081" y2="90.238609" gradientTransform="matrix(1.0238 0 0 1.0119 -1.1428571 -98.071429)" gradientUnits="userSpaceOnUse"/>
    <linearGradient xlink:href="#j" id="r" x1="32.251034" x2="32.251034" y1="6.1317081" y2="90.238609" gradientTransform="translate(0 -97)" gradientUnits="userSpaceOnUse"/>
    <linearGradient xlink:href="#j" id="n" x1="32.251034" x2="32.251034" y1="6.1317081" y2="90.238609" gradientTransform="matrix(1.0238 0 0 1.0119 -1.1428571 -98.071429)" gradientUnits="userSpaceOnUse"/>
    <linearGradient id="m">
      <stop offset="0" stop-color="#b8d9f4"/>
      <stop offset="1" stop-color="#ebf4fc"/>
    </linearGradient>
    <radialGradient xlink:href="#a" id="E" cx="48" cy="90.171875" r="42" fx="48" fy="90.171875" gradientTransform="matrix(1.15731 0 0 .9959 -7.5510206 .19713193)" gradientUnits="userSpaceOnUse"/>
    <radialGradient xlink:href="#k" id="L" cx="12" cy="64.020409" r="4" fx="12" fy="64.020409" gradientTransform="matrix(1.07143 0 0 .4375 -.85714286 4.4375)" gradientUnits="userSpaceOnUse"/>
    <radialGradient xlink:href="#l" id="N" cx="18.089285" cy="85.0625" r="2.0892856" fx="18.089285" fy="85.0625" gradientTransform="matrix(1 0 0 1.00427 0 -.3635233)" gradientUnits="userSpaceOnUse"/>
    <radialGradient xlink:href="#a" id="K" cx="48" cy="62.5" r="28" fx="48" fy="62.5" gradientTransform="matrix(1 0 0 .03061 .17857143 60.829592)" gradientUnits="userSpaceOnUse"/>
    <radialGradient xlink:href="#m" id="P" cx="48.241459" cy="38.667461" r="25.550245" fx="48.241459" fy="38.667461" gradientTransform="matrix(.84762 -.34152 .24994 .62034 -2.3137345 24.411146)" gradientUnits="userSpaceOnUse"/>
    <radialGradient xlink:href="#m" id="O" cx="48.193913" cy="58.66795" r="33.906048" fx="48.193913" fy="58.66795" gradientTransform="matrix(.94738 -.33278 .20516 .58407 -9.5004368 36.453781)" gradientUnits="userSpaceOnUse"/>
    <clipPath id="x">
      <rect width="84" height="84" x="6" y="6" fill="#fff" rx="6" ry="6"/>
    </clipPath>
    <clipPath id="z">
      <path fill="#f0f" d="M20.15625 18C18.969107 18 18 18.892 18 20v70h60V20c0-1.108-.969107-2-2.15625-2h-55.6875z"/>
    </clipPath>
    <filter id="y" width="1.3839999" height="1.3839999" x="-.192" y="-.192" color-interpolation-filters="sRGB">
      <feGaussianBlur stdDeviation="5.28"/>
    </filter>
    <filter id="A" width="1.224" height="1.168" x="-.112" y="-.084" color-interpolation-filters="sRGB">
      <feGaussianBlur stdDeviation="2.8"/>
    </filter>
  </defs>
  <g transform="scale(1 -1)">
    <path fill="url(#n)" d="M12-95.03125C6.4889097-95.03125 1.96875-90.51109 1.96875-85v71C1.96875-8.4889098 6.4889098-3.96875 12-3.96875h72c5.51109 0 10.03125-4.5201597 10.03125-10.03125v-71c0-5.51109-4.52016-10.03125-10.03125-10.03125H12z" opacity=".07999998"/>
    <path fill="url(#o)" d="M12-94.03125c-4.971633 0-9.03125 4.059617-9.03125 9.03125v71c0 4.9716329 4.0596171 9.03125 9.03125 9.03125h72c4.971633 0 9.03125-4.059617 9.03125-9.03125v-71c0-4.971633-4.059617-9.03125-9.03125-9.03125H12z" opacity=".1"/>
    <path fill="url(#p)" d="M12-93c-4.4091333 0-8 3.590867-8 8v71c0 4.4091333 3.5908667 8 8 8h72c4.409133 0 8-3.5908667 8-8v-71c0-4.409133-3.590867-8-8-8H12z" opacity=".2"/>
    <rect width="86" height="85" x="5" y="-92" fill="url(#q)" opacity=".3" rx="7" ry="7"/>
    <rect width="84" height="84" x="6" y="-91" fill="url(#r)" opacity=".45" rx="6" ry="6"/>
  </g>
  <g opacity=".98000004">
    <rect width="75.918777" height="75.918777" x="10.04061" y="10.04061" fill="url(#s)" rx="5.42277" ry="5.42277"/>
    <path fill="url(#t)" d="M21 13.7995V56h1V13.7995h-1zm3 0V56h1V13.7995h-1zm3 0V56h1V13.7995h-1zm3 0V56h1V13.7995h-1zm3 0V56h1V13.7995h-1zm3 0V56h1V13.7995h-1zm3 0V56h1V13.7995h-1zm3 0V56h1V13.7995h-1zm3 0V56h1V13.7995h-1zm3 0V56h1V13.7995h-1zm3 0V56h1V13.7995h-1zm3 0V56h1V13.7995h-1zm3 0V56h1V13.7995h-1zm3 0V56h1V13.7995h-1zm3 0V56h1V13.7995h-1zm3 0V56h1V13.7995h-1zm3 0V56h1V13.7995h-1zm3 0V56h1V13.7995h-1zm3 0V56h1V13.7995h-1z" opacity=".2"/>
    <path fill="url(#u)" d="M19 14v42h1V14h-1zm3 0v42h1V14h-1zm3 0v42h1V14h-1zm3 0v42h1V14h-1zm3 0v42h1V14h-1zm3 0v42h1V14h-1zm3 0v42h1V14h-1zm3 0v42h1V14h-1zm3 0v42h1V14h-1zm3 0v42h1V14h-1zm3 0v42h1V14h-1zm3 0v42h1V14h-1zm3 0v42h1V14h-1zm3 0v42h1V14h-1zm3 0v42h1V14h-1zm3 0v42h1V14h-1zm3 0v42h1V14h-1zm3 0v42h1V14h-1zm3 0v42h1V14h-1zm3 0v42h1V14h-1z" opacity=".1"/>
    <path fill="#111" d="M15 48h66v1H15zm29 1h8v4h-8z"/>
    <rect width="84" height="84" x="106" y="6" fill="url(#v)" rx="6" ry="6"/>
    <rect width="54" height="1" x="21" y="16" rx=".5" ry=".5"/>
  </g>
  <rect width="66" height="66" x="15" y="15" fill="url(#w)" stroke="#fff" stroke-linecap="round" stroke-width=".5" clip-path="url(#x)" filter="url(#y)" opacity=".1" rx="12" ry="12"/>
  <rect width="60" height="80" x="18" y="18" fill="none" stroke="#000" stroke-width="2" clip-path="url(#z)" filter="url(#A)" opacity=".7" rx="2.1428571" ry="2" transform="translate(0 -4)"/>
  <path fill="url(#B)" d="M12 6c-3.324 0-6 2.676-6 6v62c0 3.324 2.676 6 6 6h72c3.324 0 6-2.676 6-6V12c0-3.324-2.676-6-6-6H12zm8.15625 8h55.6875C77.030893 14 78 14.892 78 16v32l-2 2v12H20V50l-2-2V16c0-1.108.969107-2 2.15625-2z"/>
  <path fill="url(#C)" d="M6 50v24c0 3.324 2.676 6 6 6h72c3.324 0 6-2.676 6-6V50c0 3.324-2.676 6-6 6h-8v6H20v-6h-8c-3.324 0-6-2.676-6-6z" opacity=".98000004"/>
  <path fill="url(#D)" d="M12 6c-3.324 0-6 2.676-6 6v72c0 .334721.04135.6507.09375.96875.0487.295596.09704.596915.1875.875.00988.03038.020892.0636.03125.09375.098865.287771.2348802.547452.375.8125.1445918.273507.3156161.535615.5.78125.1843839.245635.3737765.473472.59375.6875.439947.428056.94291.814526 1.5 1.09375.278545.139612.5734731.246947.875.34375-.2562018-.100222-.4867109-.236272-.71875-.375-.00741-.0044-.023866.0045-.03125 0-.031933-.0193-.062293-.04251-.09375-.0625-.120395-.0767-.2310226-.163513-.34375-.25-.1061728-.0808-.2132809-.161112-.3125-.25-.1779299-.161433-.3474596-.345388-.5-.53125-.1075789-.130255-.2183939-.265285-.3125-.40625-.025089-.03838-.038446-.08587-.0625-.125-.064763-.103032-.1302275-.204517-.1875-.3125-.1010083-.194706-.2056748-.415701-.28125-.625-.00796-.02181-.023589-.04055-.03125-.0625-.0318251-.09195-.0358045-.186831-.0625-.28125-.0303323-.106618-.0703894-.203031-.09375-.3125C7.0521214 85.720988 7 85.364295 7 85V13c0-2.781848 2.2181517-5 5-5h72c2.781848 0 5 2.218152 5 5v72c0 .364295-.05212.720988-.125 1.0625-.04415.206893-.08838.397658-.15625.59375-.0077.02195-.0233.04069-.03125.0625-.06274.173739-.138383.367449-.21875.53125-.04158.0828-.07904.169954-.125.25-.0546.09721-.126774.18835-.1875.28125-.09411.140965-.204921.275995-.3125.40625-.143174.17445-.303141.346998-.46875.5-.01117.0102-.01998.02115-.03125.03125-.138386.125556-.285091.234436-.4375.34375-.102571.07315-.204318.153364-.3125.21875-.0074.0045-.02384-.0044-.03125 0-.232039.138728-.462548.274778-.71875.375.301527-.0968.596455-.204138.875-.34375.55709-.279224 1.060053-.665694 1.5-1.09375.219973-.214028.409366-.441865.59375-.6875s.355408-.507743.5-.78125c.14012-.265048.276135-.524729.375-.8125.01041-.03078.02133-.06274.03125-.09375.09046-.278085.1388-.579404.1875-.875C89.95865 84.6507 90 84.334721 90 84V12c0-3.324-2.676-6-6-6H12z" opacity=".5"/>
  <path fill="#424242" d="M6 72v12c0 3.324 2.676 6 6 6h72c3.324 0 6-2.676 6-6V72c0 3.324-2.676 6-6 6H12c-3.324 0-6-2.676-6-6z" opacity=".98000004"/>
  <path fill="url(#E)" d="M12 90c-3.324 0-6-2.676-6-6V12c0-.334721.04135-.6507.09375-.96875.0487-.295596.09704-.596915.1875-.875.00988-.03038.020892-.0636.03125-.09375.098865-.287771.2348802-.547452.375-.8125.1445918-.273507.3156161-.535615.5-.78125.1843839-.245635.3737765-.473472.59375-.6875.439947-.428056.94291-.814526 1.5-1.09375.278545-.139612.5734731-.246947.875-.34375-.2562018.100222-.4867109.236272-.71875.375-.00741.0044-.023866-.0045-.03125 0-.031933.0193-.062293.04251-.09375.0625-.120395.0767-.2310226.163513-.34375.25-.1061728.0808-.2132809.161112-.3125.25-.1779299.161433-.3474596.345388-.5.53125-.1075789.130255-.2183939.265285-.3125.40625-.025089.03838-.038446.08587-.0625.125-.064763.103032-.1302275.204517-.1875.3125-.1010083.194706-.2056748.415701-.28125.625-.00796.02181-.023589.04055-.03125.0625-.0318251.09195-.0358045.186831-.0625.28125-.0303323.106618-.0703894.203031-.09375.3125C7.0521214 10.279012 7 10.635705 7 11v72c0 2.781848 2.2181517 5 5 5h72c2.781848 0 5-2.218152 5-5V11c0-.364295-.05212-.720988-.125-1.0625-.04415-.206893-.08838-.397658-.15625-.59375-.0077-.02195-.0233-.04069-.03125-.0625-.06274-.173739-.138383-.367449-.21875-.53125-.04158-.0828-.07904-.169954-.125-.25-.0546-.09721-.126774-.18835-.1875-.28125-.09411-.140965-.204921-.275995-.3125-.40625-.143174-.17445-.303141-.346998-.46875-.5-.01117-.0102-.01998-.02115-.03125-.03125-.138386-.125556-.285091-.234436-.4375-.34375-.102571-.07315-.204318-.153364-.3125-.21875-.0074-.0045-.02384.0044-.03125 0-.232039-.138728-.462548-.274778-.71875-.375.301527.0968.596455.204138.875.34375.55709.279224 1.060053.665694 1.5 1.09375.219973.214028.409366.441865.59375.6875s.355408.507743.5.78125c.14012.265048.276135.524729.375.8125.01041.03078.02133.06274.03125.09375.09046.278085.1388.579404.1875.875.0524.31805.09375.634029.09375.96875v72c0 3.324-2.676 6-6 6H12z" opacity=".2"/>
  <path fill="#fff" d="M19.15625 13C17.969107 13 17 13.892 17 15v32l1 1V16c0-1.108.969107-2 2.15625-2h55.6875C77.030893 14 78 14.892 78 16v32l1-1V15c0-1.108-.969107-2-2.15625-2h-57.6875zM19 49v6l-1 1h2v-6l-1-1zm58 0-1 1v6h2l-1-1v-6z" opacity=".6"/>
  <path fill="#666" d="M42.074835 9.044068h1.4943v.420272h-.887241v.341554h.757824v.394922h-.757824V11h-.607059V9.044068m2.769792 1.633056h-.688445L44.061454 11h-.617733l.735142-1.955932h.659093L45.573098 11h-.632409l-.09606-.322876m-.126749-.42294-.21614-.703121-.214805.703121h.430945m1.046008-1.210116h1.619715v.417604h-1.01399v.310867h.940609v.398925h-.940609v.385583h1.043342V11h-1.649067V9.044068m1.979948 0h.564365l.736476 1.082033V9.044068h.569702V11h-.569702l-.732474-1.074028V11h-.568367V9.044068m2.225439 0h1.71044v.39092l-1.09671 1.14474h1.136736V11h-1.855867v-.405596l1.084701-1.132732h-.9793v-.417604m3.227421 1.633056h-.688445L52.413523 11h-.617733l.735142-1.955932h.659093L53.925168 11h-.63241l-.09606-.322876m-.126748-.42294-.21614-.703121-.214806.703121h.430946" font-family="Arial Black" font-size="2.73243427" font-weight="700" style="text-align:center;line-height:125%;-inkscape-font-specification:'Arial Black, Bold'" text-anchor="middle"/>
  <path fill="url(#F)" d="M6 50v34c0 3.324 2.676 6 6 6h12V56H12c-3.324 0-6-2.676-6-6z" opacity=".15"/>
  <path fill="url(#G)" d="M20 62c0 5.54 12.488 10 28 10s28-4.46 28-10H20z"/>
  <path fill="url(#H)" d="M90 50c0 3.324-2.676 6-6 6H72v34h12c3.324 0 6-2.676 6-6V50z" opacity=".15"/>
  <path fill="url(#I)" d="M21 62.535714c0 2.232915 2.062272 4.276793 5.5 5.9375 6.264007-2.593359 14.151673-4.646346 23.0625-5.9375H21z" opacity=".6"/>
  <path fill="url(#J)" d="M20 56v6c0 5.54 12.488 10 28 10s28-4.46 28-10v-6h-1v6c0 1.005494-.569544 2.045504-1.84375 3.125-1.274206 1.079496-3.233962 2.123736-5.6875 3C62.561673 69.877527 55.659187 71 48 71c-7.659187 0-14.561673-1.122473-19.46875-2.875-2.453538-.876264-4.413294-1.920504-5.6875-3C21.569544 64.045504 21 63.005494 21 62v-6h-1z"/>
  <path d="M21 61h54v1H21z"/>
  <path fill="#fff" d="M19 56v7c0 5.54 12.934 10 29 10 16.066 0 29-4.46 29-10v-7h-1v6c0 5.54-12.488 10-28 10s-28-4.46-28-10v-6h-1z" opacity=".4"/>
  <path d="M6 71v2c0 3.324 2.676 6 6 6h72c3.324 0 6-2.676 6-6v-2c0 3.324-2.676 6-6 6H12c-3.324 0-6-2.676-6-6z" opacity=".3"/>
  <path fill="#fff" d="M6 49v1c0 3.324 2.676 6 6 6h8v-1h-8c-3.324 0-6-2.676-6-6zm84 0c0 3.324-2.676 6-6 6h-8v1h8c3.324 0 6-2.676 6-6v-1z" opacity=".5"/>
  <path fill="url(#K)" d="M20.178571 61.885714c0 .576113.06646 1.153092.15625 1.714286h55.6875c.08979-.561194.15625-1.138173.15625-1.714286h-56z"/>
  <rect width="8" height="4" x="8" y="31" fill="#fff" opacity=".4" rx="1" ry="1"/>
  <rect width="7.5" height="3.5" x="8.25" y="30.25" fill="url(#L)" stroke="#008033" stroke-width=".5" rx=".53571433" ry=".4375"/>
  <path d="M8.75 36c-.4155 0-.75.3345-.75.75v2.5c0 .4155.3345.75.75.75-.4155 0-.75.3345-.75.75v2.5c0 .4155.3345.75.75.75h2.5c.4155 0 .75-.3345.75-.75 0 .4155.3345.75.75.75h2.5c.4155 0 .75-.3345.75-.75v-2.5c0-.4155-.3345-.75-.75-.75.4155 0 .75-.3345.75-.75v-2.5c0-.4155-.3345-.75-.75-.75h-2.5c-.4155 0-.75.3345-.75.75 0-.4155-.3345-.75-.75-.75h-2.5zM12 39.25c0 .4155.3345.75.75.75-.4155 0-.75.3345-.75.75 0-.4155-.3345-.75-.75-.75.4155 0 .75-.3345.75-.75z" opacity=".1837607"/>
  <rect width="3" height="3" x="-43" y="8" fill="#fff" rx=".5" ry=".5" transform="rotate(-90)"/>
  <path fill="url(#M)" d="M20.178571 85.0625a2.0892856 2.0982144 0 1 1-4.178572 0 2.0892856 2.0982144 0 1 1 4.178572 0z" transform="matrix(0 1.67094 1.6638 0 -129.5356182 18.782815)"/>
  <path fill="url(#N)" stroke="#000" stroke-linecap="square" stroke-opacity=".53181823" stroke-width=".84050846" d="M20.178571 85.0625a2.0892856 2.0982144 0 1 1-4.178572 0 2.0892856 2.0982144 0 1 1 4.178572 0z" transform="matrix(1.19228 0 0 1.18723 -9.5765601 -51.980158)"/>
  <path fill="#ff7600" d="M8 25h1v1H8z"/>
  <path fill="#4d4d4d" d="m10.638237 26-.393847-.695967c.0021.01882.0041.03763.0058.05645.0017.01625.003.03378.0038.0526.0013.01882.0019.03678.0019.05388v.53304h-.168058v-.903795h.216167l.399619.70174c-.0021-.01796-.0041-.03678-.0058-.05645-.0017-.01668-.0032-.03549-.0045-.05645-.000856-.02095-.0013-.04212-.0013-.0635v-.525343h.168059V26h-.22194m.687087.012829c-.05003 0-.09515-.0073-.135345-.02181-.03977-.01497-.07377-.03742-.10199-.06735-.02822-.03036-.04982-.06821-.06479-.113535-.01497-.04576-.02245-.09921-.02245-.160362 0-.06628.0088-.122087.0263-.167416.01796-.04533.04191-.08189.07184-.109687.03036-.02822.06521-.04854.104555-.06094.03934-.0124.08082-.0186.124441-.0186.05474.000001.101347.0096.139834.02886.03891.01882.07077.04533.09558.07954.0248.03421.04298.07526.05452.123157.01155.04747.01732.100065.01732.157795v.0051h-.445162c0 .02908.0026.05623.0077.08146.0051.0248.01347.0464.02502.06479.01154.01796.02651.03229.0449.04298.01839.01026.04062.01539.06671.01539.03164 0 .05752-.0066.07761-.01988.0201-.01368.03442-.03464.04298-.06286l.169982.01475c-.0077.01967-.0186.04062-.03271.06286-.01369.02224-.03207.04276-.05517.06158-.02309.01839-.05196.03378-.08659.04618-.03421.01197-.0759.01796-.125081.01796m0-.606165c-.01839.000001-.03571.0032-.05196.0096-.01582.006-.02972.01582-.04169.02951-.01155.01326-.02095.03058-.02822.05196-.0073.02138-.01133.04704-.01219.07697h.269407c-.0034-.05602-.01689-.09793-.04041-.125723-.02352-.02822-.05517-.04233-.09493-.04234m.624756.604943c-.05303 0-.09387-.01433-.122516-.04298-.02865-.02908-.04298-.07291-.04298-.131496v-.409241h-.08788v-.121875h.09686l.05645-.162926h.112894v.162926h.131496v.121875h-.131496v.360491c0 .03378.0064.0588.01924.07505.01283.01582.03271.02373.05965.02373.01112 0 .02117-.000855.03015-.0026.009-.0017.01903-.0038.03015-.0064v.111611c-.02224.0073-.04576.01262-.07056.01604-.0248.0038-.05196.0058-.08146.0058M12.961548 26h-.190509l-.110328-.423353c-.0034-.01326-.0068-.02801-.01026-.04426-.0034-.01668-.0066-.03229-.0096-.04682l-.01026-.05132c-.0038.01711-.0077.03421-.01155.05132-.0034.01454-.0071.03015-.0109.04682-.0038.01668-.0075.03186-.0109.04554L12.485596 26h-.190508l-.179605-.694043h.169341l.08788.407959c.0026.01155.0053.02459.0083.03913.003.01411.0058.02737.0083.03977.003.01454.0062.02908.0096.04362.003-.01625.006-.03207.009-.04747.0026-.01326.0053-.02673.0083-.04041.003-.01368.0056-.02523.0077-.03464l.109045-.407959h.193075l.10648.407959c.003.01112.006.02373.009.03785.003.01411.0058.02737.0083.03977.003.01454.006.02951.009.0449.0034-.0154.0066-.03036.0096-.0449.0026-.0124.0053-.02566.0083-.03977.003-.01411.0058-.02673.0083-.03785l.09173-.407959h.166775L12.961548 26m.930094-.347663c-.000001.05303-.0075.101562-.02245.145608-.01454.04405-.03656.0821-.06607.114177-.02951.03165-.06628.05645-.110328.07441-.04405.01753-.09536.0263-.153947.0263-.05645 0-.106266-.0088-.149457-.0263-.04319-.01753-.07954-.04212-.109045-.07377-.02908-.03165-.0511-.06949-.06607-.113536-.01497-.04447-.02245-.09344-.02245-.146891 0-.05174.0071-.09942.02117-.143042.01454-.04405.03635-.0821.06543-.114177.02908-.03207.06564-.05709.109687-.07505.04405-.01796.09557-.02694.154588-.02694.06243.000001.115673.009.159719.02694.04405.01796.07997.04298.107763.07505.02822.03165.04875.06949.06158.113536.01326.04362.01988.09151.01988.143683m-.188584 0c-.000001-.08253-.01347-.1424-.04041-.179604-.02694-.0372-.06607-.0558-.117385-.05581-.05303.000001-.09365.01882-.121874.05645-.02822.03763-.04234.09729-.04233.178963-.000001.04148.0036.07719.0109.107121.0077.02993.01839.05452.03207.07377.01368.01924.03015.03357.04939.04298.01924.009.04041.01347.0635.01347.02651 0 .05003-.0045.07056-.01347.02095-.0094.03849-.02373.0526-.04298.01411-.01924.0248-.04383.03207-.07377.0073-.02993.0109-.06564.01091-.107121M14.035326 26v-.531116c0-.01497-.000214-.03079-.000642-.04747 0-.01668-.000427-.0325-.0013-.04747-.000427-.01539-.000855-.02908-.0013-.04105-.000428-.0124-.0011-.02138-.0019-.02694h.171907c.000855.0051.0017.01411.0026.02694.000855.0124.0017.02609.0026.04105.000855.01497.0015.02994.0019.0449.000855.01454.0013.0263.0013.03528h.0026c.009-.02523.01796-.04768.02694-.06735.009-.0201.01946-.03699.03143-.05067.0124-.01411.02715-.0248.04426-.03207.0171-.0077.03827-.01154.0635-.01155.01069.000001.02117.0011.03143.0032.01069.0017.01882.0038.02438.0064v.150739c-.01155-.0026-.02331-.0047-.03528-.0064-.01155-.0021-.02544-.0032-.04169-.0032-.0449.000001-.07997.01817-.105197.05452-.0248.03635-.0372.09023-.0372.161644v.340607h-.180246M14.989153 26l-.185377-.314308-.07761.05388v.260426h-.180246v-.951903h.180246v.545227l.247598-.287367h.193716l-.243749.27069L15.186077 26h-.196924" font-family="Liberation Sans" font-size="1.31367779" font-weight="700" style="text-align:start;line-height:125%;-inkscape-font-specification:Abandoned Bitplane Bold"/>
  <path fill="red" d="M8 27h1v1H8z"/>
  <path fill="#4d4d4d" d="M10.087878 28v-.903795h.71072v.146249h-.521494v.227072h.482366v.146249h-.482366v.237976h.547793V28h-.737019m.881344 0v-.531116c0-.01497-.000214-.03079-.000641-.04747 0-.01668-.000428-.0325-.0013-.04747-.000428-.01539-.000855-.02908-.0013-.04105-.000428-.0124-.0011-.02138-.0019-.02694h.171907c.000855.0051.0017.01411.0026.02694.000855.0124.0017.02609.0026.04105.000855.01497.0015.02994.0019.0449.000855.01454.0013.0263.0013.03528h.0026c.009-.02523.01796-.04768.02694-.06735.009-.0201.01946-.03699.03143-.05067.0124-.01411.02715-.0248.04426-.03207.01711-.0077.03827-.01154.0635-.01155.01069.000001.02117.0011.03143.0032.01069.0017.01882.0038.02438.0064v.150739c-.01155-.0026-.02331-.0047-.03528-.0064-.01155-.0021-.02544-.0032-.04169-.0032-.0449.000001-.07997.01817-.105197.05452-.0248.03635-.0372.09023-.0372.161644v.340607h-.180246M11.479812 28v-.531116c0-.01497-.000214-.03079-.000642-.04747 0-.01668-.000427-.0325-.0013-.04747-.000428-.01539-.000856-.02908-.0013-.04105-.000428-.0124-.0011-.02138-.0019-.02694h.171907c.000855.0051.0017.01411.0026.02694.000855.0124.0017.02609.0026.04105.000855.01497.0015.02994.0019.0449.000855.01454.0013.0263.0013.03528h.0026c.009-.02523.01796-.04768.02694-.06735.009-.0201.01946-.03699.03143-.05067.0124-.01411.02715-.0248.04426-.03207.0171-.0077.03827-.01154.0635-.01155.01069.000001.02117.0011.03143.0032.01069.0017.01882.0038.02437.0064v.150739c-.01155-.0026-.02331-.0047-.03528-.0064-.01155-.0021-.02544-.0032-.04169-.0032-.0449.000001-.07997.01817-.105197.05452-.0248.03635-.0372.09023-.0372.161644v.340607h-.180246m1.169912-.347657c-.000001.05303-.0075.101562-.02245.145608-.01454.04405-.03656.0821-.06607.114177-.02951.03165-.06628.05645-.110329.07441-.04405.01753-.09536.0263-.153946.0263-.05645 0-.106266-.0088-.149457-.0263-.04319-.01753-.07954-.04212-.109045-.07377-.02908-.03165-.0511-.06949-.06607-.113536-.01497-.04447-.02245-.09344-.02245-.146891-.000001-.05174.0071-.09942.02117-.143042.01454-.04405.03635-.0821.06543-.114177.02908-.03207.06564-.05709.109687-.07505.04405-.01796.09558-.02694.154588-.02694.06243.000001.115674.009.15972.02694.04405.01796.07997.04298.107763.07505.02822.03165.04875.06949.06158.113536.01326.04362.01988.09151.01989.143683m-.188584 0c-.000001-.08253-.01347-.1424-.04041-.179604-.02694-.0372-.06607-.0558-.117385-.05581-.05303.000001-.09365.01882-.121874.05645-.02822.03763-.04234.09729-.04233.178963-.000001.04148.0036.07719.0109.107121.0077.02993.01839.05452.03207.07377.01368.01924.03015.03357.04939.04298.01924.009.04041.01347.0635.01347.02651 0 .05003-.0045.07056-.01347.02095-.0094.03849-.02373.0526-.04298.01411-.01924.0248-.04383.03207-.07377.0073-.02993.0109-.06564.0109-.107121M12.79349 28v-.531116c0-.01497-.000214-.03079-.000642-.04747 0-.01668-.000427-.0325-.0013-.04747-.000427-.01539-.000855-.02908-.0013-.04105-.000427-.0124-.0011-.02138-.0019-.02694h.171907c.000855.0051.0017.01411.0026.02694.000855.0124.0017.02609.0026.04105.000855.01497.0015.02994.0019.0449.000855.01454.0013.0263.0013.03528h.0026c.009-.02523.01796-.04768.02694-.06735.009-.0201.01946-.03699.03143-.05067.0124-.01411.02715-.0248.04426-.03207.01711-.0077.03827-.01154.0635-.01155.01069.000001.02117.0011.03143.0032.01069.0017.01882.0038.02437.0064v.150739c-.01155-.0026-.02331-.0047-.03528-.0064-.01155-.0021-.02544-.0032-.04169-.0032-.0449.000001-.07997.01817-.105197.05452-.0248.03635-.0372.09023-.0372.161644v.340607h-.180246" font-family="Liberation Sans" font-size="1.31367779" font-weight="700" style="text-align:start;line-height:125%;-inkscape-font-specification:Abandoned Bitplane Bold"/>
  <path fill="#ff7600" d="M8 23h1v1H8z"/>
  <path fill="#4d4d4d" d="M10.831312 23.382289c-.000001.03892-.0066.07655-.01989.112894-.01283.03592-.03271.06778-.05965.09558-.02694.0278-.06115.05003-.102631.06671-.04148.01625-.09066.02437-.147533.02437h-.224505v.318156h-.189226v-.903795h.406034c.05773.000001.107762.0071.150098.02117.04233.01369.0774.03314.105197.05837.02779.02523.04832.05538.06158.09044.01368.03507.02052.07377.02053.116101m-.190509.0032c-.000001-.04661-.01411-.08189-.04234-.105838-.0278-.02437-.0697-.03656-.125723-.03656h-.19564v.29314h.200772c.02822 0 .05238-.0036.07248-.01091.02053-.0073.03742-.01753.05067-.03079.01368-.01326.02373-.02908.03015-.04747.0064-.01881.0096-.03934.0096-.06158m.987851.26686c-.000001.05303-.0075.101562-.02245.145608-.01454.04405-.03656.0821-.06607.114177-.02951.03165-.06628.05645-.110329.07441-.04405.01753-.09536.0263-.153946.0263-.05645 0-.106267-.0088-.149457-.0263-.04319-.01753-.07954-.04212-.109045-.07377-.02908-.03165-.0511-.06949-.06607-.113536-.01497-.04447-.02245-.09344-.02245-.146891 0-.05174.0071-.09942.02117-.143042.01454-.04405.03635-.0821.06543-.114177.02908-.03207.06564-.05709.109687-.07505.04405-.01796.09558-.02694.154588-.02694.06243.000001.115673.009.15972.02694.04405.01796.07997.04298.107762.07505.02822.03165.04875.06949.06158.113536.01326.04362.01988.09151.01989.143683m-.188585 0c0-.08253-.01347-.1424-.04041-.179604-.02694-.0372-.06607-.0558-.117384-.05581-.05303.000001-.09365.01882-.121874.05645-.02822.03763-.04234.09729-.04234.178963 0 .04148.0036.07719.01091.107121.0077.02993.01839.05452.03207.07377.01368.01924.03015.03357.04939.04298.01924.009.04041.01347.0635.01347.02651 0 .05003-.0045.07056-.01347.02095-.0094.03849-.02373.0526-.04298.01411-.01924.0248-.04383.03207-.07377.0073-.02993.0109-.06564.0109-.107121M12.5228 24h-.190509l-.110328-.423353c-.0034-.01326-.0068-.02801-.01026-.04426-.0034-.01668-.0066-.03229-.0096-.04682l-.01026-.05132c-.0038.01711-.0077.03421-.01155.05132-.0034.01454-.0071.03015-.0109.04682-.0038.01668-.0075.03186-.0109.04554L12.046849 24h-.190509l-.179605-.694043h.169342l.08788.407959c.0026.01155.0053.02459.0083.03913.003.01411.0058.02737.0083.03977.003.01454.0062.02908.0096.04362.003-.01625.006-.03207.009-.04747.0026-.01326.0053-.02673.0083-.04041.003-.01368.0056-.02523.0077-.03464l.109045-.407959h.193075l.10648.407959c.003.01112.006.02373.009.03785.003.01411.0058.02737.0083.03977.003.01454.006.02951.009.0449.0034-.0154.0066-.03036.0096-.0449.0026-.0124.0053-.02566.0083-.03977.003-.01411.0058-.02673.0083-.03785l.09173-.407959h.166775L12.5228 24m.554849.012829c-.05003 0-.09515-.0073-.135344-.02181-.03977-.01497-.07377-.03742-.10199-.06735-.02822-.03036-.04982-.06821-.06479-.113535-.01497-.04576-.02245-.09921-.02245-.160362 0-.06628.0088-.122087.0263-.167416.01796-.04533.04191-.08189.07184-.109687.03036-.02822.06521-.04854.104555-.06094.03934-.0124.08082-.0186.12444-.0186.05474.000001.101348.0096.139835.02886.03891.01882.07077.04533.09558.07954.0248.03421.04298.07526.05452.123157.01154.04747.01732.100065.01732.157795v.0051h-.445162c-.000001.02908.0026.05623.0077.08146.0051.0248.01347.0464.02502.06479.01155.01796.02651.03229.0449.04298.01839.01026.04063.01539.06671.01539.03164 0 .05752-.0066.07761-.01988.0201-.01368.03442-.03464.04298-.06286l.169983.01475c-.0077.01967-.0186.04062-.03271.06286-.01368.02224-.03207.04276-.05516.06158-.02309.01839-.05196.03378-.0866.04618-.03421.01197-.07591.01796-.125082.01796m0-.606165c-.01839.000001-.03571.0032-.05196.0096-.01582.006-.02972.01582-.04169.02951-.01155.01326-.02095.03058-.02822.05196-.0073.02138-.01133.04704-.01219.07697H13.213c-.0034-.05602-.01689-.09793-.04041-.125723-.02352-.02822-.05516-.04233-.09493-.04234M13.524736 24v-.531116c0-.01497-.000214-.03079-.000641-.04747 0-.01668-.000428-.0325-.0013-.04747-.000428-.01539-.000856-.02908-.0013-.04105-.000428-.0124-.0011-.02138-.0019-.02694h.171907c.000855.0051.0017.01411.0026.02694.000855.0124.0017.02609.0026.04105.000855.01497.0015.02994.0019.0449.000855.01454.0013.0263.0013.03528h.0026c.009-.02523.01796-.04768.02694-.06735.009-.0201.01946-.03699.03143-.05067.0124-.01411.02715-.0248.04426-.03207.01711-.0077.03827-.01154.0635-.01155.01069.000001.02117.0011.03143.0032.01069.0017.01882.0038.02437.0064v.150739c-.01155-.0026-.02331-.0047-.03528-.0064-.01155-.0021-.02544-.0032-.04169-.0032-.0449.000001-.07997.01817-.105197.05452-.0248.03635-.0372.09023-.0372.161644v.340607h-.180246" font-family="Liberation Sans" font-size="1.31367779" font-weight="700" style="text-align:start;line-height:125%;-inkscape-font-specification:Abandoned Bitplane Bold"/>
  <rect width="3" height="3" x="-43" y="12" fill="#fff" rx=".5" ry=".5" transform="rotate(-90)"/>
  <rect width="3" height="3" x="-39" y="8" fill="#fff" rx=".5" ry=".5" transform="rotate(-90)"/>
  <rect width="3" height="3" x="-39" y="12" fill="#fff" rx=".5" ry=".5" transform="rotate(-90)"/>
  <g fill-rule="evenodd">
    <path d="M60.96875 18.125c-5.791519.039713-11.491053 2.351746-15.6875 6.375-8.31052-2.741203-18.294194-2.47749-25.34375 3.5a1.0216974 1.0216974 0 0 0-.0625.03125c-.889734.85338-2.237955 1.970869-3.21875 3.34375-.980795 1.372881-1.582315 3.254174-.625 5.0625a1.0216974 1.0216974 0 0 0 .25.3125c.76419.628575 1.667333.897124 2.5.875.832667-.02212 1.58723-.27533 2.28125-.59375 1.388039-.63684 2.665043-1.475736 3.5625-1.6875a1.0216974 1.0216974 0 0 0 .15625-.0625c6.715258-2.875597 14.778581-3.084771 21.09375.65625l.03125-.03125c.94975.68611 2.140473.735537 3.03125.3125.86623-.411379 1.506656-1.155655 1.90625-2l.03125.03125c3.770546-5.233473 10.393693-7.611864 16.8125-7.78125 1.956527.370232 3.722452-.716627 4.40625-2.21875.360326-.791542.436353-1.7569.0625-2.625-.362604-.841979-1.150125-1.510886-2.21875-1.875-.03064-.01385-.06305-.01761-.09375-.03125-2.841739-1.261939-5.926815-1.598731-8.875-1.59375zm9.25 14.78125c-9.573688-.040279-19.298208 4.039067-25.28125 11.75-10.56913-2.650005-22.408182-.530178-30.8125 6.65625a1.0216974 1.0216974 0 0 0-.03125 0c-2.710812 2.389267-5.5818756 5.18231-6.96875 8.875a1.0216974 1.0216974 0 0 0-.0625.28125c-.075487 1.164515.2522028 2.172728.9375 2.8125.6852972.639772 1.5716377.793199 2.40625.75 1.604753-.08306 3.168497-.832081 4.28125-1.75.04471-.03688.113137-.05637.15625-.09375 8.299187-4.653996 18.224685-7.640614 27.4375-4.9375a1.0216974 1.0216974 0 0 0 .15625.03125c.792566.0904 1.700362.546673 2.71875 1.03125 1.018388.484577 2.222925 1.007666 3.625.8125a1.0216974 1.0216974 0 0 0 .3125-.09375c1.202178-.6001 1.80778-1.671872 2.28125-2.59375.47347-.921878.857619-1.744306 1.375-2.25a1.0216974 1.0216974 0 0 0 .125-.125c5.16595-7.276132 13.867553-11.213913 22.59375-12.875v-.0625c1.841408.147664 3.579592-.696039 4.5625-2.0625.523622-.727952.858351-1.669154.625-2.625-.233351-.955846-.996607-1.761536-2.125-2.28125a1.0216974 1.0216974 0 0 0-.09375-.03125c-2.689408-1.010632-5.521791-1.19708-8.21875-1.21875z" opacity=".05"/>
    <path d="M60.96875 19.15625c-5.721092.03923-11.410438 2.353956-15.4375 6.4375-8.158387-2.855226-18.078363-2.608454-24.928206 3.199695-1.863973 1.787812-5.173892 4.326102-3.665544 7.175305 2.370051 1.949455 5.033352-1.044583 7.447069-1.614123 6.970329-2.984823 15.353704-3.23235 22.008973.710142 1.345342 1.104322 3.075852-.03529 3.644107-1.417814 4.014085-5.571503 10.965803-8.033894 17.618601-8.209455 3.192891.862781 5.510476-3.59722 1.875-4.75-2.66913-1.206816-5.660951-1.536152-8.5625-1.53125zm9.25 14.78125c-9.49497-.03995-19.191068 4.059779-24.90625 11.8125-10.418081-2.819636-22.239116-.725861-30.523838 6.358302-2.682742 2.364526-5.4274204 5.004929-6.7082098 8.415157-.2520905 3.888924 4.2666508 2.460679 6.1006568.87069 8.469558-4.782514 18.717145-7.949246 28.373312-5.116049 2.119087.241693 3.932002 2.144586 6.070579 1.8469 1.780098-.888584 2.001594-3.272496 3.419121-4.658003 5.378051-7.574872 14.34364-11.586565 23.237129-13.279497 2.975243.47385 6.585371-3.372532 2.815327-5.108933-2.504864-.941284-5.224974-1.119751-7.877827-1.141067z" opacity=".1"/>
    <path d="M60.96875 20.09375c-4.708676.05114-10.512391 1.586787-15.1875 6.5-9.493493-3.323402-16.729783-1.836649-21.4375.78125-2.408176 1.339154-4.17055 2.950194-5.3125 4.28125-.570975.665528-.974482 1.245933-1.25 1.75-.137759.252033-.240642.469046-.3125.71875-.03593.124852-.0608.253007-.0625.4375-.0017.184493-.0053.483918.25.78125.250452.291688.605945.391524.8125.40625.206555.01473.340807-.03326.46875-.0625.255886-.05849.461752-.141712.71875-.25.513996-.216576 1.17435-.538528 1.96875-.90625 1.5888-.735443 3.745646-1.667731 6.34375-2.375 5.196209-1.414537 12.025191-1.884198 19.21875 2.28125a1.0135596 1.0135596 0 0 0 1.34375-.3125c3.951629-5.832466 9.250593-8.016286 13.59375-8.9375 2.171578-.460607 4.094371-.586569 5.46875-.6875.68719-.05046 1.219508-.09295 1.6875-.1875.233996-.04728.46066-.07127.78125-.3125.160295-.120616.358705-.320314.4375-.625.07879-.304686-.0017-.62077-.09375-.8125-.183138-.381665-.389393-.513741-.59375-.65625s-.425731-.252525-.6875-.375c-.523537-.244949-1.196458-.501949-2-.71875-1.607084-.433603-3.728082-.745121-6.15625-.71875zm9.25 14.78125c-7.13177.011663-17.624827 2.333819-24.5625 11.90625-12.053204-3.214734-21.40725-.095288-27.5625 4.03125-3.137118 2.103153-5.457193 4.446853-6.96875 6.34375-.755779.948448-1.2991666 1.769516-1.65625 2.4375-.1785417.333992-.3191002.614097-.40625.90625-.043575.146076-.089068.297247-.09375.5-.00468.202753.017575.548827.34375.875.3003644.300364.6603593.349555.875.34375.214641-.0058.355503-.04846.5-.09375.288993-.09059.578822-.242865.90625-.40625.654856-.32677 1.487402-.780319 2.53125-1.34375 2.087696-1.126862 4.958709-2.596758 8.375-3.8125 6.832581-2.431483 15.779431-3.841822 25.0625.625a1.0135596 1.0135596 0 0 0 1.34375-.4375c4.722596-8.878477 12.114573-13.080944 18.3125-15.3125 3.098963-1.115778 5.887014-1.725982 7.875-2.15625.993993-.215134 1.772309-.399168 2.375-.59375.301345-.09729.569228-.163755.875-.40625.152886-.121248.34084-.304622.4375-.625.09666-.320378.0071-.708653-.125-.9375-.382189-.66197-.748885-.693869-1.21875-.875-.469865-.181131-1.048307-.356287-1.75-.5-1.403387-.287425-3.284268-.472323-5.46875-.46875z" opacity=".15"/>
    <path d="M60.96875 21.09375c-4.652392.05053-10.376947 1.537521-14.90625 6.59375-19.154119-7.088229-28.215328 6.312485-27.625 7 .672915.783707 14.321535-9.769365 29.25-1.125C55.935879 21.388182 70.130221 24.313382 69.5 23c-.283697-.591234-3.878858-1.956777-8.53125-1.90625zm9.25 14.78125c-7.061296.01155-17.464108 2.297228-24.15625 12.03125-24.217568-6.897809-36.822744 12.45851-36.03125 13.25.902225.902225 18.793832-14.101576 37.96875-4.875 9.734026-18.299961 30.681956-17.502439 29.78125-19.0625-.304098-.526712-3.325722-1.350679-7.5625-1.34375z" opacity=".3"/>
    <path fill="url(#O)" d="M10.037308 60.159801c-.791494-.79149 11.798321-20.136077 36.015889-13.238268 10.707427-15.574435 30.921982-12.111991 31.732911-10.707427.900706 1.560061-20.052082.778719-29.786108 19.07868-19.174918-9.226576-37.060467 5.76924-37.962692 4.867015z"/>
    <path fill="url(#P)" d="M18.432554 33.696015c-.590328-.687515 8.476426-14.106336 27.630545-7.018107 9.058606-10.112458 22.855173-5.84957 23.422567-4.667101.630221 1.313382-13.543112-1.615804-21.791491 10.558514-14.928465-8.644365-28.588706 1.910401-29.261621 1.126694z"/>
    <path fill="#fff" d="M60.96875 20.09375c-4.652392.05053-10.376947 1.537521-14.90625 6.59375-19.154119-7.088229-28.215328 6.312486-27.625 7 .04696.0547.174251.04538.34375 0 1.873215-3.130367 10.87228-12.072351 27.28125-6 7.836774-8.748481 19.20455-6.748387 22.5-5.28125.665885-.073375 1.046213-.179692.9375-.40625-.283697-.591235-3.878858-1.956777-8.53125-1.90625zm9.25 14.78125c-7.061296.01155-17.464107 2.297229-24.15625 12.03125-24.217568-6.897809-36.8227437 12.45851-36.03125 13.25.189082.189082 1.276032-.411865 2.8125-1.25 4.257341-5.426257 15.906619-15.215783 34.21875-10 8.229009-11.969463 22.038769-12.693014 28.375-11.75 1.616413-.354649 2.5453-.588406 2.34375-.9375-.304098-.526712-3.325722-1.350679-7.5625-1.34375z"/>
    <path fill="#fff" d="M77 35.78125c-3.821437 1.140091-20.586914 2.683405-29 18.5-18.123985-8.720888-35.088431 4.19453-37.65625 4.875-.284707.548175-.4070987.905402-.3125 1 .902225.902225 18.793832-14.101576 37.96875-4.875 9.734026-18.299961 30.681954-17.502439 29.78125-19.0625-.0769-.133191-.380039-.285286-.78125-.4375z" opacity=".5"/>
    <path fill="#fff" d="M68.5625 21.40625c-3.194317.351988-14.049466.082-20.875 10.15625-13.886583-8.04106-26.647102.520169-28.90625 1.125-.313381.523697-.428355.901466-.34375 1 .672915.783707 14.321534-9.769365 29.25-1.125C55.935879 20.388182 70.130223 23.313382 69.5 22c-.07653-.159492-.423706-.365009-.9375-.59375z" opacity=".3"/>
  </g>
</svg>