<?xml version="1.0" encoding="UTF-8" standalone="no"?>
<!DOCTYPE svg PUBLIC "-//W3C//DTD SVG 1.1//EN" 
  "http://www.w3.org/Graphics/SVG/1.1/DTD/svg11.dtd">
<svg xmlns="http://www.w3.org/2000/svg" xmlns:xlink="http://www.w3.org/1999/xlink" width="128" height="128">
  <linearGradient id="b" x1="115.951" x2="12.049" y1="91.994" y2="32.006" gradientTransform="translate(-201 35)" gradientUnits="userSpaceOnUse" xlink:href="#a">
    <stop offset="0" stop-color="#fff" stop-opacity="0"/>
    <stop offset=".341" stop-color="#fff" stop-opacity="0"/>
    <stop offset=".495" stop-color="#fff"/>
    <stop offset=".669" stop-color="#fff" stop-opacity="0"/>
    <stop offset="1" stop-color="#fff" stop-opacity="0"/>
  </linearGradient>
  <linearGradient id="a" x1="89.785" x2="38.213" y1="117.298" y2="6.702" gradientUnits="userSpaceOnUse">
    <stop offset="0" stop-color="#80a7d6"/>
    <stop offset=".034" stop-color="#91b4de"/>
    <stop offset=".089" stop-color="#a7c4e8"/>
    <stop offset=".141" stop-color="#b5ceee"/>
    <stop offset=".189" stop-color="#b9d1f0"/>
    <stop offset=".315" stop-color="#b7d0ef"/>
    <stop offset=".368" stop-color="#b0caec"/>
    <stop offset=".408" stop-color="#a3c1e7"/>
    <stop offset=".441" stop-color="#92b4df"/>
    <stop offset=".469" stop-color="#7ba3d6"/>
    <stop offset=".495" stop-color="#5f8fca"/>
    <stop offset=".5" stop-color="#588ac7"/>
    <stop offset=".514" stop-color="#6697cc"/>
    <stop offset=".543" stop-color="#7dabd5"/>
    <stop offset=".577" stop-color="#8ebbdc"/>
    <stop offset=".617" stop-color="#9bc7e0"/>
    <stop offset=".672" stop-color="#a2cde3"/>
    <stop offset=".8" stop-color="#a4cfe4"/>
    <stop offset="1" stop-color="#80a7d6"/>
  </linearGradient>
  <filter id="y">
    <feGaussianBlur stdDeviation="2.4"/>
  </filter>
  <linearGradient id="c">
    <stop offset="0"/>
    <stop offset="1" stop-opacity="0"/>
  </linearGradient>
  <clipPath id="r">
    <path d="M21.666 11.333l6 84.334 58.667 19L90 3z"/>
  </clipPath>
  <filter id="s">
    <feGaussianBlur stdDeviation=".9"/>
  </filter>
  <linearGradient id="t" x1="26.999" x2="92.824" y1="97.108" y2="-.461" gradientUnits="userSpaceOnUse">
    <stop offset="0" stop-opacity=".316"/>
    <stop offset=".144"/>
    <stop offset="1" stop-opacity="0"/>
  </linearGradient>
  <linearGradient id="q" x1="90" x2="100" y1="4.533" y2="4.533" gradientUnits="userSpaceOnUse">
    <stop offset="0" stop-color="#090909"/>
    <stop offset="1" stop-color="#555753"/>
  </linearGradient>
  <linearGradient id="v" x1="85.833" x2="90.5" y1="54.128" y2="97.735" gradientUnits="userSpaceOnUse">
    <stop offset="0" stop-color="#fff"/>
    <stop offset="1" stop-color="#fff" stop-opacity="0"/>
  </linearGradient>
  <linearGradient id="z" x1="-111.215" x2="-162.787" y1="152.298" y2="41.702" gradientUnits="userSpaceOnUse" xlink:href="#a"/>
  <linearGradient id="A" x1="115.951" x2="12.049" y1="91.994" y2="32.006" gradientTransform="translate(-201 35)" gradientUnits="userSpaceOnUse" xlink:href="#b"/>
  <radialGradient id="B" cx="-137" cy="97" r="23" gradientUnits="userSpaceOnUse">
    <stop offset=".432" stop-color="#555"/>
    <stop offset=".437" stop-color="#727272"/>
    <stop offset=".445" stop-color="#939393"/>
    <stop offset=".453" stop-color="#b0b0b0"/>
    <stop offset=".463" stop-color="#c7c7c7"/>
    <stop offset=".473" stop-color="#d8d8d8"/>
    <stop offset=".486" stop-color="#e5e5e5"/>
    <stop offset=".503" stop-color="#ececec"/>
    <stop offset=".544" stop-color="#eee"/>
    <stop offset=".696" stop-color="#ececec"/>
    <stop offset=".76" stop-color="#e5e5e5"/>
    <stop offset=".808" stop-color="#d8d8d8"/>
    <stop offset=".847" stop-color="#c7c7c7"/>
    <stop offset=".882" stop-color="#b0b0b0"/>
    <stop offset=".912" stop-color="#949494"/>
    <stop offset=".923" stop-color="#888"/>
    <stop offset=".925" stop-color="#949494"/>
    <stop offset=".931" stop-color="#b0b0b0"/>
    <stop offset=".939" stop-color="#c7c7c7"/>
    <stop offset=".947" stop-color="#d8d8d8"/>
    <stop offset=".956" stop-color="#e5e5e5"/>
    <stop offset=".969" stop-color="#ececec"/>
    <stop offset="1" stop-color="#eee"/>
  </radialGradient>
  <linearGradient id="w" x1="-128" x2="-55" y1="159" y2="94.5" gradientUnits="userSpaceOnUse" xlink:href="#c"/>
  <filter id="x">
    <feGaussianBlur stdDeviation="2.472"/>
  </filter>
  <filter id="f">
    <feGaussianBlur stdDeviation="1.397"/>
  </filter>
  <linearGradient id="e" x1="128" x2="82" y1="90.377" y2="90.377" gradientUnits="userSpaceOnUse" xlink:href="#c">
    <stop offset="0" stop-opacity="0"/>
    <stop offset="1"/>
  </linearGradient>
  <linearGradient id="g" x1="34.653" x2="90" y1="-.299" y2="89.3" gradientUnits="userSpaceOnUse">
    <stop offset=".13" stop-color="#fff"/>
    <stop offset="1" stop-color="#d3d7cf"/>
  </linearGradient>
  <linearGradient id="h" x1="79.106" x2="95.945" y1="58.834" y2="58.834" gradientUnits="userSpaceOnUse">
    <stop offset=".26" stop-color="#fff"/>
    <stop offset=".414" stop-color="#eeeeec"/>
    <stop offset="1" stop-color="#babdb6"/>
  </linearGradient>
  <linearGradient id="p" x1="54.14" x2="104.14" y1="-25.671" y2="44.329" gradientUnits="userSpaceOnUse">
    <stop offset=".13" stop-color="#888a85"/>
    <stop offset="1" stop-color="#2e3436"/>
  </linearGradient>
  <linearGradient id="i" x1="11.882" x2="72.318" y1="10.444" y2="113.484" gradientUnits="userSpaceOnUse">
    <stop offset=".13" stop-color="#a4c0e4"/>
    <stop offset="1" stop-color="#2c72c7"/>
  </linearGradient>
  <linearGradient id="j" x1="86.727" x2="96.931" y1="91.684" y2="91.684" gradientUnits="userSpaceOnUse">
    <stop offset="0" stop-color="#6193cf"/>
    <stop offset=".296" stop-color="#2c72c7"/>
    <stop offset="1" stop-color="#0057ae"/>
  </linearGradient>
  <radialGradient id="k" cx="303.235" cy="-251.38" r="24.049" gradientTransform="matrix(1.0345 0 0 -1.0938 -261.29 -231.375)" gradientUnits="userSpaceOnUse">
    <stop offset=".5" stop-color="#6193ff"/>
    <stop offset=".781" stop-color="#003685"/>
    <stop offset="1" stop-color="#709dff"/>
  </radialGradient>
  <radialGradient id="l" cx="299.272" cy="-268.257" r="40.255" gradientTransform="matrix(1.053 0 0 -1.1134 -262.575 -230.134)" gradientUnits="userSpaceOnUse">
    <stop offset=".337" stop-color="#2c72c7"/>
    <stop offset=".58" stop-color="#2c72c7"/>
    <stop offset="1" stop-color="#2c72c7"/>
  </radialGradient>
  <linearGradient id="d">
    <stop offset="0" stop-color="#fff"/>
    <stop offset=".328" stop-color="#fdfdfc"/>
    <stop offset=".677" stop-color="#f4f5f4"/>
    <stop offset="1" stop-color="#cacfd0"/>
  </linearGradient>
  <radialGradient id="m" cx="50.865" cy="40.54" r="13.712" gradientTransform="matrix(1.053 0 0 1.1134 -1.861 -2.56)" gradientUnits="userSpaceOnUse" xlink:href="#d"/>
  <linearGradient id="n" x1="294.327" x2="294.327" y1="-220.832" y2="-247.595" gradientTransform="matrix(1 0 0 -1 -242 -198)" gradientUnits="userSpaceOnUse">
    <stop offset=".13" stop-color="#fff"/>
    <stop offset=".5" stop-color="#fff" stop-opacity="0"/>
  </linearGradient>
  <radialGradient id="o" cx="91.148" cy="94.177" r="4.028" gradientTransform="matrix(.5615 0 0 1 41.023 0)" gradientUnits="userSpaceOnUse" xlink:href="#d"/>
  <clipPath id="u">
    <path d="M21.666 11.333l6 84.334 58.667 19L90 3z"/>
  </clipPath>
  <path fill="url(#e)" d="M66.215 66.087L35.857 97.573l50.476 17.094 8.554-3.231L127 86.096z" filter="url(#f)" opacity=".6"/>
  <path fill="url(#g)" d="M21.666 11.333l6 84.334 58.667 19L90 3z"/>
  <path fill="url(#h)" d="M90 3l10 3-4 97.334-9.667 11.333z"/>
  <path fill="url(#i)" d="M26.215 75.271l60.961 13.746-.449 13.673-59.75-16.712z"/>
  <path fill="url(#j)" d="M96.931 80.678l-9.755 8.339-.449 13.673 9.698-9.698z"/>
  <g opacity=".8">
    <path fill="#0057ae" d="M36.351 31.825c-.132-2.735 1.401-5.168 3.458-5.381l24.024-2.479c2.814-.291 5.114 2.232 5.033 5.569l-.753 30.855c-.069 2.854-2.267 4.895-4.816 4.579L41.235 62.23c-1.913-.237-3.537-2.373-3.652-4.775z"/>
    <path fill="url(#k)" d="M40.042 26.719c-1.649.157-2.882 2.085-2.781 4.282l1.167 25.323c.089 1.937 1.394 3.645 2.934 3.825l21.731 2.546c2.035.238 3.765-1.397 3.815-3.673l.646-30.107c.057-2.645-1.754-4.642-3.983-4.43z" transform="translate(0 1)"/>
    <path fill="url(#l)" d="M50.987 25.338l-.015.002c-6.019.484-11.801 2.47-11.856 2.49-.564.196-1.119 1.054-1.188 1.834-.007.076-.669 7.524-.285 14.356.246 6.637 1.511 13.441 1.523 13.508.129.687.713 1.45 1.254 1.637.053.018 5.541 1.885 11.107 2.462 5.977.801 12.694.208 12.765.201.717-.065 1.486-.798 1.637-1.571.013-.075 1.514-7.874 1.597-15.754.277-8.192-.955-16.961-.968-17.049-.13-.908-.933-1.796-1.708-1.898-.078-.011-7.381-.953-13.863-.218z" transform="translate(0 1)"/>
    <path fill="url(#m)" d="M52.929 30.175l-3.908.734.381 19.239 3.702-.495-.092-8.2 5.359 9.357 4.369-1.373-5.685-9.241 5.941-9.185-4.648-.981-5.363 9.03zm-8.486 5.299c-.041.007-.085.023-.112.063l-1.333 1.855a.288.288 0 0 0-.013.283l1.726 3.427a9.981 9.981 0 0 0-.623 1.98l-2.869.742c-.078.02-.131.116-.127.221l.094 2.415c.003.101.067.19.143.216l2.815.961c.175.795.434 1.56.764 2.26l-1.524 3.005a.266.266 0 0 0 .032.274l1.39 1.771c.06.075.146.09.213.044l2.546-1.739a7.228 7.228 0 0 0 1.707.982l.698 3.679c.02.104.095.185.181.193l2.042.202c.087.009.161-.053.18-.15l.727-3.642a6.258 6.258 0 0 0 1.845-.78l2.897 2.413c.08.068.188.064.255-.008l1.59-1.691a.256.256 0 0 0 .037-.287l-1.087-2.128-.356.109c-.05.016-.108-.015-.137-.068 0 0-.683-1.198-1.57-2.749-1.034 2.339-3.104 3.814-5.436 3.656-3.207-.217-5.811-3.482-5.923-7.358-.085-2.896 1.232-5.427 3.238-6.609l-.042-1.929a6.582 6.582 0 0 0-1.065.63v-.01L44.56 35.5a.136.136 0 0 0-.117-.026z" transform="translate(0 1)"/>
    <path fill="url(#n)" d="M66.729 37.94c-.281-4.853-.813-8.233-.822-8.29-.127-.88-1.215-2.088-1.963-2.196-.071-.011-6.796-1.027-13.061-.381l-.014.001c-5.833.409-11.209 2.268-11.262 2.286-.551.186-1.315 1.342-1.384 2.102-.003.036-.18 1.568-.296 4.23l.236 5.229c.048 1.072.637 2.31 1.313 2.765-.001-.03 1.208 3.93 10.656 4.29 10.655.406 14.974-6.523 14.97-6.443.864-.652 1.6-2.228 1.625-3.513z" opacity=".7" transform="translate(0 1)"/>
  </g>
  <path fill="url(#o)" d="M92.453 92.485l-.658.716-.041 3.289.643-.656.021-1.433.895.826.773-.927-.968-.737 1.043-2.481-.79.551-.946 2.357zM91 94.667c-.006.008-.014.017-.019.028l-.235.519c-.01.021-.012.044-.005.052l.268.336c-.049.149-.09.297-.118.44l-.49.562a.102.102 0 0 0-.022.059l-.004.414c0 .018.011.023.023.017l.472-.254a.794.794 0 0 0 .114.289l-.281.773c-.009.021-.007.04.002.046l.228.11c.009.005.024-.005.036-.024l.451-.703a.892.892 0 0 0 .289-.083l.102.565c.003.016.016.019.031.007l.355-.276a.095.095 0 0 0 .033-.057l.145-.776c.115-.129.225-.272.327-.427l.5-.011c.015 0 .033-.018.045-.041l.287-.555c.013-.023.016-.048.008-.058l-.186-.214-.063.074c-.009.011-.02.014-.024.009 0 0-.115-.109-.265-.248-.19.578-.558 1.164-.964 1.494-.554.451-.981.26-.975-.414.005-.498.242-1.139.59-1.648l.004-.326a4 4 0 0 0-.184.27v-.002l-.454.039a.059.059 0 0 0-.021.014z" transform="translate(0 -4)"/>
  <g opacity=".7">
    <path fill="url(#p)" d="M79 8.667l7.667-1-.334 14L79 21.333z" transform="translate(25.76 2.5) scale(.67393)"/>
    <path fill="#fff" d="M79.499 9.724c.168-.084.4-.15.633-.168.37-.031.667.045.884.408.198.31.288.825.289 1.353 0 .674-.107 1.142-.28 1.489-.203.395-.527.568-.782.562l-.122-.002.01 2.199-.593-.048-.04-5.793zm.618 2.695c.028.017.061.017.098.017.313-.001.454-.426.453-.997-.002-.536-.12-.95-.41-.933a.284.284 0 0 0-.15.054zm3.278 3.318c-.104.076-.306.126-.552.105-.895-.074-1.306-1.395-1.306-3.144 0-2.359.73-3.35 1.434-3.41.254-.02.432.053.504.137l-.13 1.09a.458.458 0 0 0-.334-.108c-.401.022-.759.65-.762 2.227-.005 1.504.314 2.106.74 2.13a.762.762 0 0 0 .342-.077z"/>
  </g>
  <path fill="#fff" d="M30.307 78.654l.612.157-.18 2.396.016.003c.135-.178.261-.352.379-.52l1.135-1.535.676.173-1.473 1.82 1.127 3.234-.66-.167-.915-2.714-.338.409-.146 1.948-.612-.157zm3.205.894c.245-.005.523.035.833.114.565.143.953.379 1.228.701.389.443.649 1.173.571 2.23-.087 1.154-.437 1.706-.803 1.963-.377.285-.899.328-1.52.17a4.035 4.035 0 0 1-.68-.227zm.276 4.658c.086.038.174.06.229.074.676.171 1.361-.119 1.49-1.833.094-1.274-.267-2.077-1.125-2.295a1.217 1.217 0 0 0-.29-.044zm5.024-.68l-1.344-.343-.141 1.894 1.525.391-.036.501-2.139-.545.377-5.048 2.043.521-.037.501-1.431-.365-.125 1.663 1.343.343zm3.309 3.286l.1-1.341-1.717-.438.029-.392 1.912-2.71.597.152-.229 3.056.564.145-.035.472-.564-.144-.1 1.341zm.136-1.813l.102-1.379c.025-.337.072-.631.121-.947l-.032-.008c-.203.347-.333.549-.505.812l-.821 1.218v.015zm4.454.762l-.034.449-1.74-.443.034-.449zm2.301 2.808l.159-2.136-.957-3.214.643.165.382 1.388c.108.386.223.818.313 1.239l.015.003c.141-.361.304-.709.477-1.06l.545-1.129.644.165-1.448 2.576-.161 2.157zm4.332-.743c-.104 1.4-.831 1.696-1.419 1.546-.692-.175-1.204-.91-1.109-2.183.1-1.325.769-1.721 1.428-1.552.683.175 1.194.923 1.1 2.189zm-1.916-.488c-.044.6.006 1.442.562 1.587.525.135.692-.695.735-1.257.041-.555 0-1.435-.54-1.573-.548-.138-.715.688-.757 1.243zm4.842 2.074c-.03.404-.029.726-.042.997l-.532-.135-.01-.394-.017-.003a.87.87 0 0 1-.859.23c-.677-.173-.901-.733-.834-1.632l.171-2.293.612.157-.165 2.209c-.043.569.021 1.012.442 1.12.358.092.541-.184.584-.34.031-.091.047-.201.056-.321l.179-2.389.612.155zm.977-1.483c.024-.308.026-.674.039-.944l.548.14-.011.577.017.005c.151-.314.498-.515.857-.424.047.013.086.03.126.04l-.044.592c-.04-.018-.079-.026-.127-.039-.389-.101-.699.166-.797.567a1.995 1.995 0 0 0-.047.324l-.15 2.007-.611-.155zm5.727-1.081l-.323 4.313c-.018.247-.025.665-.033.877l-.525-.134-.004-.468-.025-.005c-.146.229-.435.415-.84.312-.652-.167-1.071-.954-.983-2.145.097-1.289.706-1.744 1.303-1.592a.955.955 0 0 1 .667.614l.015.003.146-1.932zm-.824 2.781c.005-.076.012-.157.01-.242-.012-.383-.225-.775-.52-.85-.508-.129-.734.492-.786 1.22-.058.763.102 1.432.547 1.544.191.05.46.018.635-.472.021-.063.035-.144.042-.234zm1.856.97c-.076 1.11.366 1.466.812 1.582.263.064.489.063.646.019l.064.452c-.224.057-.553.033-.855-.043-.921-.235-1.346-1.069-1.263-2.178.088-1.176.667-1.776 1.438-1.58.787.201 1.039 1.06.977 1.884a3.555 3.555 0 0 1-.031.319zm1.238-.12c.07-.723-.199-1.118-.492-1.193-.399-.103-.646.398-.707.889zm1.027 1.879c.129.118.358.282.604.344.351.091.581-.057.605-.379.021-.276-.068-.49-.439-.837-.479-.436-.725-.811-.694-1.23.044-.586.538-.886 1.133-.734.301.077.524.234.676.364l-.199.392a1.16 1.16 0 0 0-.496-.288c-.333-.084-.517.099-.534.331-.018.246.066.406.43.75.425.384.75.802.713 1.303-.055.728-.605.946-1.233.786-.286-.072-.591-.232-.748-.403zm3.104-.574l.017.004c.081-.124.156-.251.237-.353l.858-1.085.658.167-1.131 1.27.947 2.378-.682-.174-.707-1.92-.239.282-.105 1.37-.61-.156.388-5.183.611.156zm3.146-1.778l-.062.848.74.188-.034.443-.739-.19-.161 2.149c-.035.472.139.646.361.703.094.024.176.037.247.04l-.009.448a1.405 1.405 0 0 1-.456-.056c-.24-.061-.451-.176-.589-.371-.138-.203-.2-.471-.163-.972l.158-2.097-.47-.12.032-.444.47.121.045-.615zm3.378 3.572c-.105 1.399-.832 1.694-1.419 1.546-.692-.176-1.205-.91-1.108-2.183.098-1.327.767-1.722 1.426-1.555.684.177 1.195.926 1.101 2.192zm-1.915-.488c-.046.599.005 1.443.561 1.585.524.135.692-.694.734-1.255.042-.556.002-1.435-.54-1.573-.549-.14-.715.687-.755 1.243zm2.642-.023c.04-.554.041-.883.051-1.138l.55.138-.004.474.016.003c.236-.336.548-.395.85-.317.668.171 1.063.958.974 2.149-.101 1.342-.729 1.73-1.332 1.576a.934.934 0 0 1-.637-.59l-.016-.004-.134 1.798-.615-.156zm.524 1.316c-.01.114-.017.219.001.308.082.548.353.716.518.759.509.128.718-.49.772-1.223.056-.751-.088-1.428-.573-1.552-.278-.07-.549.195-.612.517-.022.085-.03.175-.037.271z"/>
  <path fill="url(#q)" d="M90 3l10 3s-1.166.333-4.333-.5S90 3 90 3z"/>
  <g stroke="url(#t)" stroke-width="1.5" clip-path="url(#r)" filter="url(#s)">
    <path fill="none" d="M90 3l-68.334 8.333 6 84.334 58.667 19" clip-path="url(#u)"/>
  </g>
  <path fill="none" stroke="url(#v)" d="M86.333 114.667L90 3z"/>
  <path fill="none" d="M4 56h64v64H4z"/>
  <path fill="url(#w)" d="M-122.5 46c-40.592 0-73.5 25.296-73.5 56.5s32.908 56.5 73.5 56.5c20.296 0 38.671-6.324 51.972-16.549C-57.227 132.227-63 118.101-63 102.5-63 71.296-81.908 46-122.5 46zm0 76.877c-14.64 0-42.508-1.123-42.508-12.377 0-11.255 11.868-40.377 26.508-40.377 14.639 0 42.508 21.122 42.508 32.377 0 11.254-11.87 20.377-26.508 20.377z" filter="url(#x)" opacity=".5" transform="matrix(.5 0 0 .5 104.5 38.5)"/>
  <path fill="#323232" d="M-197 99c0 33.084 26.916 60 60 60s60-26.916 60-60-26.916-60-60-60-60 26.916-60 60zm37 0c0-12.682 10.318-23 23-23 12.683 0 23 10.318 23 23 0 12.683-10.317 23-23 23-12.682 0-23-10.317-23-23z" filter="url(#y)" opacity=".6" transform="matrix(.5 0 0 .5 104.5 38.5)"/>
  <path fill="url(#z)" d="M-137 36c-33.689 0-61 27.311-61 61s27.311 61 61 61 61-27.311 61-61-27.311-61-61-61zm0 83c-12.15 0-22-9.85-22-22 0-12.151 9.85-22 22-22 12.149 0 22 9.849 22 22 0 12.15-9.851 22-22 22z" transform="matrix(.5 0 0 .5 104.5 38.5)"/>
  <path fill="url(#A)" d="M-197 97c0 33.084 26.916 60 60 60s60-26.916 60-60-26.916-60-60-60-60 26.916-60 60zm37 0c0-12.682 10.318-23 23-23 12.683 0 23 10.318 23 23 0 12.683-10.317 23-23 23-12.682 0-23-10.317-23-23z" opacity=".855" transform="matrix(.5 0 0 .5 104.5 38.5)"/>
  <path fill="#00348a" d="M36 73c-7.72 0-14 6.28-14 14s6.28 14 14 14 14-6.28 14-14-6.28-14-14-14zm0 25.5c-6.341 0-11.5-5.158-11.5-11.5 0-6.341 5.159-11.5 11.5-11.5 6.342 0 11.5 5.159 11.5 11.5 0 6.342-5.158 11.5-11.5 11.5z" opacity=".4"/>
  <path fill="none" d="M36 75.5c-6.351 0-11.5 5.149-11.5 11.5S29.649 98.5 36 98.5 47.5 93.351 47.5 87 42.351 75.5 36 75.5zM36 92a5 5 0 1 1 0-10 5 5 0 0 1 0 10z" opacity=".25"/>
  <path fill="url(#B)" d="M-137 74c-12.703 0-23 10.297-23 23s10.297 23 23 23c12.702 0 23-10.297 23-23s-10.298-23-23-23zm0 33c-5.523 0-10-4.478-10-10 0-5.523 4.477-10 10-10 5.522 0 10 4.477 10 10 0 5.522-4.478 10-10 10z" opacity=".5" transform="matrix(.5 0 0 .5 104.5 38.5)"/>
</svg>
