<?xml version="1.0" encoding="UTF-8" standalone="no"?>
<svg xmlns="http://www.w3.org/2000/svg" xmlns:xlink="http://www.w3.org/1999/xlink" width="128" height="128" version="1.0">
  <defs>
    <linearGradient id="a">
      <stop offset="0" stop-color="#ffe9e9"/>
      <stop offset="1" stop-color="#fe4242"/>
    </linearGradient>
    <linearGradient xlink:href="#a" id="i" x1="42.164707" x2="42.164707" y1="23.759478" y2="74.565262" gradientUnits="userSpaceOnUse"/>
    <linearGradient id="b">
      <stop offset="0" stop-color="#633"/>
      <stop offset="1" stop-color="#8c0000"/>
    </linearGradient>
    <linearGradient xlink:href="#b" id="h" x1="-142.24962" x2="-142.24962" y1="921.46686" y2="1011.369" gradientUnits="userSpaceOnUse"/>
    <linearGradient id="d">
      <stop offset="0" stop-color="#f20000"/>
      <stop offset="1" stop-color="#bf0000"/>
    </linearGradient>
    <linearGradient id="c">
      <stop offset="0" stop-color="#f80000"/>
      <stop offset="1" stop-color="#f74f4f"/>
    </linearGradient>
    <linearGradient xlink:href="#c" id="f" x1="-142.24962" x2="-142.24962" y1="924.2464" y2="1008.7444" gradientTransform="translate(1.1622629 -6.9076778) scale(1.00714)" gradientUnits="userSpaceOnUse"/>
    <radialGradient xlink:href="#d" id="g" cx="64.585625" cy="64.20507" r="47.328125" fx="64.585625" fy="64.20507" gradientTransform="matrix(0 .77699 -1.03492 0 131.03309 13.733943)" gradientUnits="userSpaceOnUse"/>
    <filter id="e">
      <feGaussianBlur stdDeviation="1.0311306"/>
    </filter>
  </defs>
  <g transform="translate(92.571426 -454.07648)">
    <g id="j" fill-rule="evenodd" stroke-width="3" transform="rotate(-30 148.30438898 316.89469755) scale(.42964)">
      <path fill-opacity=".50196078" d="M-180.80858 921.68231c-19.77123-.37611-37.46875 13.87808-37.46875 33.75 0 10.03558 3.78093 17.00538 9.28125 22.71875 5.50032 5.71337 12.62604 10.29843 19.71875 16.03125l20.75 16.75009c1.66461 1.3454 2.71513 2.2022 3.71875 2.8124 1.00362.6103 2.05457.9376 3.125.9376 1.07043-.0001 2.15263-.3273 3.15625-.9376 1.00362-.6102 2.05415-1.467 3.71875-2.8124l20.71875-16.75009c7.09271-5.73282 14.24968-10.31788 19.75-16.03125 5.50032-5.71337 9.28125-12.68316 9.28125-22.71875 0-26.24312-30.88562-42.67382-56.625-28.5625-6.24773-3.42444-12.7874-5.06694-19.125-5.1875z" filter="url(#e)"/>
      <path fill="url(#f)" d="M-182.0122 922.97026c6.13163.13803 12.48768 1.79995 18.56923 5.28751l.75536.40915.75536-.40915c24.32622-13.95026 53.25278 1.45496 53.25278 25.74514 0 9.37199-3.31553 15.42085-8.49778 20.80384-5.18226 5.38298-12.30711 9.96156-19.60786 15.86253l-20.89825 16.86972c-1.67983 1.3577-2.70815 2.1921-3.39911 2.6123-.69097.4201-.93881.5035-1.60514.5036-.66633 0-.8827-.0835-1.57367-.5036-.69096-.4202-1.75076-1.2546-3.43058-2.6123l-20.86678-16.86972c-7.30075-5.90097-14.4256-10.47955-19.60786-15.86253-5.18225-5.38299-8.49778-11.43186-8.49778-20.80384 0-18.21761 16.25718-31.44673 34.65208-31.03265z"/>
      <path fill="url(#g)" d="M44.5 24.8125c-15.392412-.05956-27.65625 10.179342-27.65625 25.65625.000001 8.308221 1.724 13.66552 6.59375 18.4375 4.869771 4.771981 10.60823 8.83133 17.46875 14.0625l18.5625 14.96875c1.578531 1.203596 2.53821 1.94 3.1875 2.3125.64931.3724.87385.4374 1.5.4375.62615-.0001.881939-.0651 1.53125-.4375.64929-.3725 1.608972-1.108904 3.1875-2.3125l18.5625-14.96875c6.86052-5.23117 12.59898-9.290519 17.46875-14.0625C109.776 64.13427 111.5 58.776971 111.5 50.46875c0-21.53309-23.765662-32.898071-46.625-20.53125-.46875.226954-.9375.296421-1.40625 0-6.429189-3.478168-12.945632-5.101694-18.96875-5.125z" transform="translate(-226.85715 902.64789)"/>
      <path fill="none" stroke="url(#h)" d="M-162.67621 1011.8289c1.73203 0 2.57911-.7081 5.91162-3.4017l20.73538-16.75972c14.34166-11.59192 28.46246-18.24176 28.46246-37.58285 0-25.30686-30.0906-41.2107-55.10946-26.86323-25.01886-14.34747-55.10946 1.55637-55.10946 26.86323 0 19.34109 14.1208 25.99093 28.46246 37.58285l20.73538 16.75972c3.33252 2.6936 4.17959 3.4017 5.91162 3.4017z"/>
      <path fill="url(#i)" d="M42.96875 22.96875c-15.914518 0-29.8125 10.879044-29.8125 26.28125 0 8.50976 2.87649 12.14351 8.125 17.03125 3.280331 3.054831 6.902623 5.421005 10.8125 8.25.009941-.002299.021312.002303.03125 0 36.56917-8.472344 52.825626-38.212921 81.53125-33.875-4.04766-10.703871-15.495232-17.6875-28.25-17.6875-6.49158.02388-13.31667 1.883929-20.4375 7.21875-.25261.15181-.52864.227639-.78125.21875-.252605.008894-.528645-.066945-.78125-.21875-7.120827-5.334823-13.94592-7.19487-20.4375-7.21875z" transform="translate(-226.85715 902.64789)"/>
    </g>
    <use xlink:href="#j" width="128" height="128" transform="translate(-40.299305 -257.00033) scale(1.49122)"/>
    <use xlink:href="#j" width="128" height="128" transform="translate(-61.80334 -172.95723) scale(1.39765)"/>
  </g>
</svg>