<?xml version="1.0" encoding="UTF-8" standalone="no"?>
<!-- Created with Inkscape (http://www.inkscape.org/) -->

<svg
   xmlns:dc="http://purl.org/dc/elements/1.1/"
   xmlns:cc="http://creativecommons.org/ns#"
   xmlns:rdf="http://www.w3.org/1999/02/22-rdf-syntax-ns#"
   xmlns:svg="http://www.w3.org/2000/svg"
   xmlns="http://www.w3.org/2000/svg"
   xmlns:xlink="http://www.w3.org/1999/xlink"
   xmlns:sodipodi="http://sodipodi.sourceforge.net/DTD/sodipodi-0.dtd"
   xmlns:inkscape="http://www.inkscape.org/namespaces/inkscape"
   width="256"
   height="256"
   id="svg2"
   sodipodi:version="0.32"
   inkscape:version="0.92.5 (2060ec1f9f, 2020-04-08)"
   version="1.0"
   sodipodi:docname="mintbackup.svg"
   inkscape:output_extension="org.inkscape.output.svg.inkscape">
  <sodipodi:namedview
     id="base"
     pagecolor="#ff0000"
     bordercolor="#666666"
     borderopacity="1.0"
     gridtolerance="10000"
     guidetolerance="10"
     objecttolerance="10"
     inkscape:pageopacity="0"
     inkscape:pageshadow="2"
     inkscape:zoom="3.4414062"
     inkscape:cx="128"
     inkscape:cy="128"
     inkscape:document-units="px"
     inkscape:current-layer="layer1"
     showgrid="false"
     inkscape:window-width="1920"
     inkscape:window-height="1056"
     inkscape:window-x="0"
     inkscape:window-y="0"
     inkscape:window-maximized="1"
     inkscape:snap-to-guides="false"
     inkscape:snap-grids="false"
     inkscape:snap-others="false"
     inkscape:object-nodes="false"
     inkscape:snap-nodes="false"
     inkscape:snap-global="false" />
  <defs
     id="defs4">
    <linearGradient
       id="linearGradient3975">
      <stop
         id="stop3977"
         stop-color="#969696"
         stop-opacity="1" />
      <stop
         id="stop3979"
         offset="0.497"
         stop-color="#d2d2d2"
         stop-opacity="1" />
      <stop
         offset="0.839"
         id="stop3981"
         stop-color="#bebebe"
         stop-opacity="1" />
      <stop
         offset="1"
         id="stop3983"
         stop-color="#9b9b9b"
         stop-opacity="1" />
    </linearGradient>
    <linearGradient
       inkscape:collect="always"
       id="linearGradient6264">
      <stop
         id="stop6266"
         stop-color="#959595"
         stop-opacity="1" />
      <stop
         offset="1"
         id="stop6268"
         stop-color="#000000"
         stop-opacity="1" />
    </linearGradient>
    <linearGradient
       inkscape:collect="always"
       id="linearGradient6256">
      <stop
         id="stop6258"
         stop-color="#5f5f5f"
         stop-opacity="1" />
      <stop
         offset="1"
         id="stop6260"
         stop-color="#5f5f5f"
         stop-opacity="0" />
    </linearGradient>
    <linearGradient
       id="linearGradient3604">
      <stop
         id="stop3606"
         stop-color="#ffffff"
         stop-opacity="1" />
      <stop
         offset="1"
         id="stop3608"
         stop-color="#393939"
         stop-opacity="1" />
    </linearGradient>
    <linearGradient
       id="linearGradient3596">
      <stop
         id="stop3598"
         stop-color="#ffffff"
         stop-opacity="1" />
      <stop
         offset="1"
         id="stop3600"
         stop-color="#171717"
         stop-opacity="1" />
    </linearGradient>
    <linearGradient
       id="linearGradient3348">
      <stop
         id="stop3350"
         stop-color="#a4a4a4"
         stop-opacity="1" />
      <stop
         id="stop3352"
         offset="1"
         stop-color="#d7d7d7"
         stop-opacity="1" />
    </linearGradient>
    <linearGradient
       id="linearGradient6350">
      <stop
         id="stop6352"
         stop-color="#e5e5e5"
         stop-opacity="1" />
      <stop
         id="stop6358"
         offset="1"
         stop-color="#656565"
         stop-opacity="1" />
    </linearGradient>
    <linearGradient
       id="linearGradient2795">
      <stop
         id="stop2797"
         stop-color="#464646"
         stop-opacity="1" />
      <stop
         offset="1"
         id="stop2799"
         stop-color="#b6b6b6"
         stop-opacity="1" />
    </linearGradient>
    <linearGradient
       id="linearGradient3578-3">
      <stop
         id="stop3580-1"
         stop-color="#000000"
         stop-opacity="1" />
      <stop
         offset="1"
         id="stop3582-3"
         stop-color="#fffcfc"
         stop-opacity="1" />
    </linearGradient>
    <linearGradient
       id="linearGradient3381">
      <stop
         id="stop3383"
         stop-color="#ffffff"
         stop-opacity="1" />
      <stop
         offset="1"
         id="stop3385"
         stop-color="#ffffff"
         stop-opacity="0" />
    </linearGradient>
    <linearGradient
       id="linearGradient4311">
      <stop
         id="stop4313"
         stop-color="#bcbfeb"
         stop-opacity="1" />
      <stop
         offset="0.293"
         id="stop4315"
         stop-color="#5975ff"
         stop-opacity="1" />
      <stop
         id="stop4317"
         offset="1"
         stop-color="#000984"
         stop-opacity="1" />
    </linearGradient>
    <linearGradient
       id="linearGradient4319">
      <stop
         id="stop4321"
         stop-color="#ffffff"
         stop-opacity="1" />
      <stop
         id="stop4323"
         offset="1"
         stop-color="#363636"
         stop-opacity="1" />
    </linearGradient>
    <linearGradient
       id="linearGradient3819">
      <stop
         id="stop3821"
         stop-color="#6b6b6b"
         stop-opacity="1" />
      <stop
         id="stop3823"
         offset="1"
         stop-color="#ffffff"
         stop-opacity="1" />
    </linearGradient>
    <linearGradient
       inkscape:collect="always"
       xlink:href="#linearGradient6350"
       id="linearGradient6333"
       gradientUnits="userSpaceOnUse"
       x1="198.58"
       y1="222.52"
       x2="175.44"
       y2="223.17" />
    <linearGradient
       inkscape:collect="always"
       xlink:href="#linearGradient4319"
       id="linearGradient6335"
       gradientUnits="userSpaceOnUse"
       x1="48.951"
       y1="217.3"
       x2="77.52"
       y2="217.3" />
    <radialGradient
       inkscape:collect="always"
       xlink:href="#linearGradient3604"
       id="radialGradient6337"
       gradientUnits="userSpaceOnUse"
       gradientTransform="matrix(1,0,0,0.6919215,0,34.983838)"
       spreadMethod="reflect"
       cx="15.11"
       cy="109.19"
       fx="15.11"
       fy="109.19"
       r="12.04" />
    <linearGradient
       inkscape:collect="always"
       xlink:href="#linearGradient3596"
       id="linearGradient6339"
       gradientUnits="userSpaceOnUse"
       x1="16.258"
       y1="124.54"
       x2="11.764"
       y2="105.23" />
    <linearGradient
       inkscape:collect="always"
       xlink:href="#linearGradient3348"
       id="linearGradient6345"
       gradientUnits="userSpaceOnUse"
       spreadMethod="reflect"
       x1="-12.972"
       y1="101.51"
       x2="0.306"
       y2="101.51" />
    <linearGradient
       inkscape:collect="always"
       xlink:href="#linearGradient3348"
       id="linearGradient6349"
       gradientUnits="userSpaceOnUse"
       spreadMethod="reflect"
       x1="-68.806"
       y1="90.05"
       x2="-86.57"
       y2="73.8" />
    <linearGradient
       inkscape:collect="always"
       xlink:href="#linearGradient2795"
       id="linearGradient6355"
       gradientUnits="userSpaceOnUse"
       spreadMethod="reflect"
       x1="-63.39"
       y1="183.59"
       x2="-85.74"
       y2="151.72" />
    <linearGradient
       inkscape:collect="always"
       xlink:href="#linearGradient2795"
       id="linearGradient6357"
       gradientUnits="userSpaceOnUse"
       spreadMethod="reflect"
       x1="27.621"
       y1="189.63"
       x2="52.598"
       y2="167.76" />
    <linearGradient
       inkscape:collect="always"
       xlink:href="#linearGradient3348"
       id="linearGradient6363"
       gradientUnits="userSpaceOnUse"
       spreadMethod="reflect"
       x1="26.611"
       y1="86.72"
       x2="43.558"
       y2="82.55" />
    <linearGradient
       inkscape:collect="always"
       xlink:href="#linearGradient3975"
       id="linearGradient6373"
       gradientUnits="userSpaceOnUse"
       spreadMethod="reflect"
       x1="66.751"
       y1="198.8"
       x2="166.38"
       y2="51.841" />
    <radialGradient
       inkscape:collect="always"
       xlink:href="#linearGradient4311"
       id="radialGradient6393"
       gradientUnits="userSpaceOnUse"
       gradientTransform="matrix(4.0571452,-0.01173765,0.0049552,1.7127737,-397.61897,-130.88304)"
       cx="131.21"
       cy="194.55"
       fx="131.21"
       fy="194.55"
       r="105.01" />
    <linearGradient
       inkscape:collect="always"
       xlink:href="#linearGradient4319"
       id="linearGradient6395"
       gradientUnits="userSpaceOnUse"
       x1="142.64"
       y1="237.78"
       x2="148.71"
       y2="13.44" />
    <linearGradient
       inkscape:collect="always"
       xlink:href="#linearGradient3381"
       id="linearGradient6397"
       gradientUnits="userSpaceOnUse"
       gradientTransform="translate(-300.12752,99.875518)"
       x1="105.93"
       y1="22.952"
       x2="145.68"
       y2="123.03" />
    <linearGradient
       inkscape:collect="always"
       xlink:href="#linearGradient6264"
       id="linearGradient6399"
       gradientUnits="userSpaceOnUse"
       x1="147.55"
       y1="232.33"
       x2="147.58"
       y2="224.94" />
    <linearGradient
       inkscape:collect="always"
       xlink:href="#linearGradient6256"
       id="linearGradient6401"
       gradientUnits="userSpaceOnUse"
       x1="134.9"
       y1="224.94"
       x2="135.22"
       y2="234.52" />
    <linearGradient
       inkscape:collect="always"
       xlink:href="#linearGradient3381"
       id="linearGradient4583"
       gradientUnits="userSpaceOnUse"
       spreadMethod="reflect"
       x1="123.35"
       y1="39.752"
       x2="129.09"
       y2="79.68" />
    <linearGradient
       inkscape:collect="always"
       xlink:href="#linearGradient3819"
       id="linearGradient4591"
       x1="109.86"
       y1="209.34"
       x2="110.52"
       y2="45.39"
       gradientUnits="userSpaceOnUse" />
    <radialGradient
       inkscape:collect="always"
       xlink:href="#linearGradient3604"
       id="radialGradient4309"
       gradientUnits="userSpaceOnUse"
       gradientTransform="matrix(1,0,0,0.6919215,0,34.983838)"
       spreadMethod="reflect"
       cx="15.11"
       cy="109.19"
       fx="15.11"
       fy="109.19"
       r="12.04" />
    <linearGradient
       inkscape:collect="always"
       xlink:href="#linearGradient3596"
       id="linearGradient4312"
       gradientUnits="userSpaceOnUse"
       x1="16.258"
       y1="124.54"
       x2="11.764"
       y2="105.23" />
    <radialGradient
       inkscape:collect="always"
       xlink:href="#linearGradient3604"
       id="radialGradient4314"
       gradientUnits="userSpaceOnUse"
       gradientTransform="matrix(1,0,0,0.6919215,0,34.983838)"
       spreadMethod="reflect"
       cx="15.11"
       cy="109.19"
       fx="15.11"
       fy="109.19"
       r="12.04" />
    <linearGradient
       inkscape:collect="always"
       xlink:href="#linearGradient3596"
       id="linearGradient4316"
       gradientUnits="userSpaceOnUse"
       x1="16.258"
       y1="124.54"
       x2="11.764"
       y2="105.23" />
    <linearGradient
       inkscape:collect="always"
       xlink:href="#linearGradient3348"
       id="linearGradient4318"
       gradientUnits="userSpaceOnUse"
       spreadMethod="reflect"
       x1="-12.972"
       y1="101.51"
       x2="0.306"
       y2="101.51" />
    <linearGradient
       inkscape:collect="always"
       xlink:href="#linearGradient3348"
       id="linearGradient4320"
       gradientUnits="userSpaceOnUse"
       spreadMethod="reflect"
       x1="-12.972"
       y1="101.51"
       x2="0.306"
       y2="101.51" />
    <linearGradient
       inkscape:collect="always"
       xlink:href="#linearGradient3348"
       id="linearGradient4322"
       gradientUnits="userSpaceOnUse"
       spreadMethod="reflect"
       x1="-12.972"
       y1="101.51"
       x2="0.306"
       y2="101.51" />
    <linearGradient
       inkscape:collect="always"
       xlink:href="#linearGradient3348"
       id="linearGradient4324"
       gradientUnits="userSpaceOnUse"
       spreadMethod="reflect"
       x1="-12.972"
       y1="101.51"
       x2="0.306"
       y2="101.51" />
    <linearGradient
       inkscape:collect="always"
       xlink:href="#linearGradient3348"
       id="linearGradient4326"
       gradientUnits="userSpaceOnUse"
       spreadMethod="reflect"
       x1="-12.972"
       y1="101.51"
       x2="0.306"
       y2="101.51" />
    <linearGradient
       inkscape:collect="always"
       xlink:href="#linearGradient3348"
       id="linearGradient4328"
       gradientUnits="userSpaceOnUse"
       spreadMethod="reflect"
       x1="-12.972"
       y1="101.51"
       x2="0.306"
       y2="101.51" />
    <linearGradient
       inkscape:collect="always"
       xlink:href="#linearGradient3348"
       id="linearGradient4330"
       gradientUnits="userSpaceOnUse"
       spreadMethod="reflect"
       x1="-12.972"
       y1="101.51"
       x2="0.306"
       y2="101.51" />
    <linearGradient
       inkscape:collect="always"
       xlink:href="#linearGradient3348"
       id="linearGradient4332"
       gradientUnits="userSpaceOnUse"
       spreadMethod="reflect"
       x1="-12.972"
       y1="101.51"
       x2="0.306"
       y2="101.51" />
    <linearGradient
       inkscape:collect="always"
       xlink:href="#linearGradient3348"
       id="linearGradient4334"
       gradientUnits="userSpaceOnUse"
       spreadMethod="reflect"
       x1="-12.972"
       y1="101.51"
       x2="0.306"
       y2="101.51" />
    <radialGradient
       inkscape:collect="always"
       xlink:href="#linearGradient3604"
       id="radialGradient4336"
       gradientUnits="userSpaceOnUse"
       gradientTransform="matrix(1,0,0,0.6919215,0,34.983838)"
       spreadMethod="reflect"
       cx="15.11"
       cy="109.19"
       fx="15.11"
       fy="109.19"
       r="12.04" />
    <linearGradient
       inkscape:collect="always"
       xlink:href="#linearGradient3596"
       id="linearGradient4338"
       gradientUnits="userSpaceOnUse"
       x1="16.258"
       y1="124.54"
       x2="11.764"
       y2="105.23" />
    <radialGradient
       inkscape:collect="always"
       xlink:href="#linearGradient3604"
       id="radialGradient4340"
       gradientUnits="userSpaceOnUse"
       gradientTransform="matrix(1,0,0,0.6919215,0,34.983838)"
       spreadMethod="reflect"
       cx="15.11"
       cy="109.19"
       fx="15.11"
       fy="109.19"
       r="12.04" />
    <linearGradient
       inkscape:collect="always"
       xlink:href="#linearGradient3596"
       id="linearGradient4342"
       gradientUnits="userSpaceOnUse"
       x1="16.258"
       y1="124.54"
       x2="11.764"
       y2="105.23" />
    <radialGradient
       inkscape:collect="always"
       xlink:href="#linearGradient3604"
       id="radialGradient4344"
       gradientUnits="userSpaceOnUse"
       gradientTransform="matrix(1,0,0,0.6919215,0,34.983838)"
       spreadMethod="reflect"
       cx="15.11"
       cy="109.19"
       fx="15.11"
       fy="109.19"
       r="12.04" />
    <linearGradient
       inkscape:collect="always"
       xlink:href="#linearGradient3596"
       id="linearGradient4346"
       gradientUnits="userSpaceOnUse"
       x1="16.258"
       y1="124.54"
       x2="11.764"
       y2="105.23" />
    <filter
       inkscape:collect="always"
       style="color-interpolation-filters:sRGB"
       id="filter4649"
       x="-0.025127909"
       width="1.0502558"
       y="-0.022968997"
       height="1.045938">
      <feGaussianBlur
         inkscape:collect="always"
         stdDeviation="2.1819238"
         id="feGaussianBlur4651" />
    </filter>
    <linearGradient
       inkscape:collect="always"
       id="linearGradient2821">
      <stop
         style="stop-color:#1f1f47;stop-opacity:1"
         offset="0"
         id="stop2823" />
      <stop
         style="stop-color:#162a97;stop-opacity:0"
         offset="1"
         id="stop2825" />
    </linearGradient>
    <linearGradient
       id="linearGradient2890"
       inkscape:collect="always">
      <stop
         id="stop2892"
         offset="0"
         style="stop-color:#aaf;stop-opacity:1" />
      <stop
         id="stop2894"
         offset="1"
         style="stop-color:#111192;stop-opacity:1" />
    </linearGradient>
    <linearGradient
       inkscape:collect="always"
       xlink:href="#linearGradient2890"
       id="linearGradient3922"
       gradientUnits="userSpaceOnUse"
       x1="33.221375"
       y1="217.40459"
       x2="131.90839"
       y2="21.740461" />
    <linearGradient
       inkscape:collect="always"
       xlink:href="#linearGradient3888"
       id="linearGradient3919"
       gradientUnits="userSpaceOnUse"
       x1="88.183228"
       y1="51.786266"
       x2="88.183228"
       y2="26.137407" />
    <linearGradient
       inkscape:collect="always"
       xlink:href="#linearGradient2890"
       id="linearGradient3912"
       gradientUnits="userSpaceOnUse"
       x1="33.221375"
       y1="217.40459"
       x2="131.90839"
       y2="21.740461"
       gradientTransform="translate(95.26718,-0.48855)" />
    <linearGradient
       inkscape:collect="always"
       xlink:href="#linearGradient3888"
       id="linearGradient3909"
       gradientUnits="userSpaceOnUse"
       x1="88.183228"
       y1="51.786266"
       x2="88.183228"
       y2="26.137407"
       gradientTransform="translate(95.26718,-0.48855)" />
    <linearGradient
       id="linearGradient3888"
       inkscape:collect="always">
      <stop
         id="stop3890"
         offset="0"
         style="stop-color:#aaf;stop-opacity:0" />
      <stop
         id="stop3892"
         offset="1"
         style="stop-color:white;stop-opacity:1" />
    </linearGradient>
    <linearGradient
       y2="26.137407"
       x2="88.183228"
       y1="51.786266"
       x1="88.183228"
       gradientTransform="translate(334.8109,36.78514)"
       gradientUnits="userSpaceOnUse"
       id="linearGradient2087"
       xlink:href="#linearGradient3888"
       inkscape:collect="always" />
    <linearGradient
       y2="21.740461"
       x2="131.90839"
       y1="217.40459"
       x1="33.221375"
       gradientTransform="translate(334.8109,36.78514)"
       gradientUnits="userSpaceOnUse"
       id="linearGradient2090"
       xlink:href="#linearGradient2890"
       inkscape:collect="always" />
    <linearGradient
       gradientTransform="translate(239.5437,37.27369)"
       y2="26.137407"
       x2="88.183228"
       y1="51.786266"
       x1="88.183228"
       gradientUnits="userSpaceOnUse"
       id="linearGradient2093"
       xlink:href="#linearGradient3888"
       inkscape:collect="always" />
    <linearGradient
       gradientTransform="translate(239.5437,37.27369)"
       y2="21.740461"
       x2="131.90839"
       y1="217.40459"
       x1="33.221375"
       gradientUnits="userSpaceOnUse"
       id="linearGradient2096"
       xlink:href="#linearGradient2890"
       inkscape:collect="always" />
    <linearGradient
       y2="26.137407"
       x2="88.183228"
       y1="51.786266"
       x1="88.183228"
       gradientTransform="matrix(0.490066,0,0,1.080729,-234.0628,-3.61673)"
       gradientUnits="userSpaceOnUse"
       id="linearGradient1927"
       xlink:href="#linearGradient3888"
       inkscape:collect="always" />
    <linearGradient
       y2="21.740461"
       x2="131.90839"
       y1="217.40459"
       x1="33.221375"
       gradientTransform="matrix(0.490066,0,0,1.080729,-234.0629,-3.616732)"
       gradientUnits="userSpaceOnUse"
       id="linearGradient1930"
       xlink:href="#linearGradient2890"
       inkscape:collect="always" />
    <linearGradient
       y2="197.01443"
       x2="88.183067"
       y1="220.85507"
       x1="88.183067"
       gradientTransform="matrix(0.490066,0,0,1.080729,-234.0628,-3.61673)"
       gradientUnits="userSpaceOnUse"
       id="linearGradient2827"
       xlink:href="#linearGradient2821"
       inkscape:collect="always" />
    <filter
       inkscape:collect="always"
       style="color-interpolation-filters:sRGB"
       id="filter1058"
       x="-0.010521288"
       width="1.0210426"
       y="-0.013962332"
       height="1.0279247">
      <feGaussianBlur
         inkscape:collect="always"
         stdDeviation="0.71241707"
         id="feGaussianBlur1060" />
    </filter>
    <filter
       inkscape:collect="always"
       style="color-interpolation-filters:sRGB"
       id="filter1062"
       x="-0.010701042"
       width="1.0214021"
       y="-0.013657876"
       height="1.0273158">
      <feGaussianBlur
         inkscape:collect="always"
         stdDeviation="0.74771368"
         id="feGaussianBlur1064" />
    </filter>
    <filter
       inkscape:collect="always"
       style="color-interpolation-filters:sRGB"
       id="filter1012"
       x="-0.032507495"
       width="1.065015"
       y="-0.040333283"
       height="1.0806666">
      <feGaussianBlur
         inkscape:collect="always"
         stdDeviation="2.3533529"
         id="feGaussianBlur1014" />
    </filter>
    <clipPath
       clipPathUnits="userSpaceOnUse"
       id="clipPath1016">
      <path
         sodipodi:nodetypes="cccscccccccccc"
         inkscape:connector-curvature="0"
         id="path1018"
         d="m 147.23747,144.46897 c 6.77525,-7.06478 -1.17113,-22.6672 8.15232,-19.89941 23.1647,6.87674 39.10176,21.24073 39.10188,37.84658 -1.7e-4,23.28946 -31.34776,42.16925 -70.01691,42.16926 -38.669158,-1e-5 -70.016742,-18.8798 -70.016919,-42.16926 1.48e-4,-19.50462 21.986861,-35.91635 51.847369,-40.73549 l -1.67958,-15.40832 c -39.352935,6.30063 -68.896873,32.86948 -68.896878,64.68916 -2.65e-4,36.50953 38.893993,66.1065 86.872738,66.10656 47.97894,1.6e-4 86.87357,-29.59688 86.87325,-66.10656 -1e-5,-28.01008 -22.89314,-51.95134 -55.21794,-61.58032 -9.8087,-2.92183 -0.89262,-6.79665 -1.11294,-12.347513 l -29.55291,15.951533 z"
         style="opacity:1;fill:#2633e2;fill-opacity:1;stroke:none;stroke-width:0.14855437;stroke-linecap:round;stroke-linejoin:round;stroke-miterlimit:4;stroke-dasharray:none;stroke-dashoffset:0;stroke-opacity:1;filter:url(#filter1012)" />
    </clipPath>
  </defs>
  <metadata
     id="metadata7">
    <rdf:RDF>
      <cc:Work>
        <dc:format>image/svg+xml</dc:format>
        <dc:type
           rdf:resource="http://purl.org/dc/dcmitype/StillImage" />
        <dc:title />
      </cc:Work>
    </rdf:RDF>
  </metadata>
  <g
     inkscape:label="Layer 1"
     inkscape:groupmode="layer"
     id="layer1">
    <path
       style="fill:#000000;fill-opacity:0.53246754;stroke:none;stroke-width:1;stroke-linecap:round;stroke-linejoin:round;stroke-miterlimit:4;stroke-dashoffset:0;stroke-opacity:1;filter:url(#filter4649)"
       d="m 61.110299,21.036148 c -16.7193,0 -30.17969,11.320979 -30.17969,25.384766 l -14.63672,159.523426 0,17.69141 c 0,14.06379 13.45842,25.38672 30.17773,25.38672 l 148.041021,0 c 16.7193,0 30.17969,-11.32293 30.17969,-25.38672 l 0,-17.69141 -12.32617,-159.523426 c 0,-14.063787 -13.46039,-25.384766 -30.17969,-25.384766 l -121.076171,0 z"
       id="path4340"
       inkscape:connector-curvature="0" />
    <g
       id="g6272"
       transform="matrix(1.4021675,0,0,1.1794617,-46.215697,-35.877066)">
      <g
         id="g3472"
         stroke-miterlimit="4"
         style="fill:#a4a4a4;fill-opacity:1;stroke:none;stroke-width:1;stroke-linecap:round;stroke-linejoin:round;stroke-miterlimit:4;stroke-dashoffset:0;stroke-opacity:1">
        <path
           id="path3474"
           d="m 81.413401,42.263737 86.349009,0 0,15 -86.349009,0 0,-15 z"
           inkscape:connector-curvature="0"
           style="stroke:none" />
        <path
           id="path3476"
           d="m 167.76241,42.263737 c 11.9239,0 21.52329,9.599387 21.52329,21.52329 l 0,15 c 0,-11.923903 -9.59939,-21.52329 -21.52329,-21.52329 l 0,-15 z"
           inkscape:connector-curvature="0"
           style="stroke:none" />
        <path
           id="path3478"
           d="m 189.2857,63.787027 c 0,0 0,0 0,0 l 0,15 c 0,0 0,0 0,0 l 0,-15 z"
           inkscape:connector-curvature="0"
           style="stroke:none" />
        <path
           id="path3480"
           d="m 189.2857,63.787027 8.79121,135.250173 0,15 -8.79121,-135.250173 0,-15 z"
           inkscape:connector-curvature="0"
           style="stroke:none" />
        <path
           id="path3482"
           d="m 198.07691,199.0372 c 0,11.9239 -9.59939,21.52329 -21.52329,21.52329 l 0,15 c 11.9239,0 21.52329,-9.59939 21.52329,-21.52329 l 0,-15 z"
           style="fill:url(#linearGradient6333);fill-opacity:1;stroke:none"
           inkscape:connector-curvature="0" />
        <path
           id="path3484"
           d="m 176.55362,220.56049 -105.579779,0 0,15 105.579779,0 0,-15 z"
           inkscape:connector-curvature="0"
           style="fill:#666666;fill-opacity:1;stroke:none" />
        <path
           id="path3486"
           d="m 70.973841,220.56049 c -11.923903,0 -21.523291,-9.59939 -21.523291,-21.52329 l 0,15 c 0,11.9239 9.599388,21.52329 21.523291,21.52329 l 0,-15 z"
           style="fill:url(#linearGradient6335);fill-opacity:1;stroke:none"
           inkscape:connector-curvature="0" />
        <path
           id="path3488"
           d="m 49.45055,199.0372 10.43956,-135.250173 0,15 -10.43956,135.250173 0,-15 z"
           inkscape:connector-curvature="0"
           style="stroke:none" />
        <path
           id="path3490"
           d="m 59.89011,63.787027 c 0,-11.923903 9.599388,-21.52329 21.523291,-21.52329 l 0,15 c -11.923903,0 -21.523291,9.599387 -21.523291,21.52329 l 0,-15 z"
           inkscape:connector-curvature="0"
           style="stroke:none" />
      </g>
      <path
         d="m 81.413401,42.263737 86.349009,0 c 11.9239,0 21.52329,9.599387 21.52329,21.52329 l 8.79121,135.250173 c 0,11.9239 -9.59939,21.52329 -21.52329,21.52329 l -105.579779,0 c -11.923903,0 -21.523291,-9.59939 -21.523291,-21.52329 L 59.89011,63.787027 c 0,-11.923903 9.599388,-21.52329 21.523291,-21.52329 z"
         id="rect3403"
         sodipodi:nodetypes="ccccccccc"
         stroke-miterlimit="4"
         inkscape:connector-curvature="0"
         style="fill:#a4a4a4;fill-opacity:1;stroke:#969696;stroke-width:1;stroke-linecap:round;stroke-linejoin:round;stroke-miterlimit:4;stroke-dashoffset:0;stroke-opacity:1" />
      <g
         id="g3675"
         transform="matrix(0.435974,0,0,0.5459663,67.425526,-10.210328)">
        <ellipse
           id="path3677"
           stroke-miterlimit="4"
           style="opacity:1;fill:url(#radialGradient4309);fill-opacity:1;stroke:url(#linearGradient4312);stroke-width:1;stroke-linecap:round;stroke-linejoin:round;stroke-miterlimit:4;stroke-dasharray:none;stroke-dashoffset:0;stroke-opacity:1"
           cx="19.23077"
           cy="113.55495"
           rx="11.538462"
           ry="7.8296704" />
        <path
           sodipodi:nodetypes="ccccc"
           id="path3679"
           d="m 8.5375494,111.57312 21.2696466,0.29414 c 0.438597,1.0124 0.325184,1.91439 0.07423,2.78887 L 8.0632411,114.10277 c -0.051606,-0.89564 -0.023791,-1.77143 0.4743083,-2.52965 z"
           stroke-miterlimit="4"
           inkscape:connector-curvature="0"
           style="fill:#bababa;fill-opacity:1;fill-rule:evenodd;stroke:none;stroke-width:0.30000001;stroke-linecap:butt;stroke-linejoin:miter;stroke-miterlimit:4;stroke-dasharray:none;stroke-opacity:1" />
        <path
           d="m 8.5375494,111.57312 21.2696466,0.29414 c 0.438597,1.0124 0.533843,0.19295 0.282886,1.06743 l -21.8703464,-0.3447 c -0.051606,-0.89564 -0.1802857,-0.25865 0.3178138,-1.01687 z"
           id="path3681"
           sodipodi:nodetypes="ccccc"
           stroke-miterlimit="4"
           inkscape:connector-curvature="0"
           style="fill:#959595;fill-opacity:1;fill-rule:evenodd;stroke:none;stroke-width:0.30000001;stroke-linecap:butt;stroke-linejoin:miter;stroke-miterlimit:4;stroke-dasharray:none;stroke-opacity:1" />
      </g>
      <g
         transform="matrix(0.435974,0,0,0.5459663,167.17725,-9.6218222)"
         id="g3663">
        <ellipse
           id="path3665"
           stroke-miterlimit="4"
           style="opacity:1;fill:url(#radialGradient4314);fill-opacity:1;stroke:url(#linearGradient4316);stroke-width:1;stroke-linecap:round;stroke-linejoin:round;stroke-miterlimit:4;stroke-dasharray:none;stroke-dashoffset:0;stroke-opacity:1"
           cx="19.23077"
           cy="113.55495"
           rx="11.538462"
           ry="7.8296704" />
        <path
           d="m 8.5375494,111.57312 21.2696466,0.29414 c 0.438597,1.0124 0.325184,1.91439 0.07423,2.78887 L 8.0632411,114.10277 c -0.051606,-0.89564 -0.023791,-1.77143 0.4743083,-2.52965 z"
           id="path3667"
           sodipodi:nodetypes="ccccc"
           stroke-miterlimit="4"
           inkscape:connector-curvature="0"
           style="fill:#bababa;fill-opacity:1;fill-rule:evenodd;stroke:none;stroke-width:0.30000001;stroke-linecap:butt;stroke-linejoin:miter;stroke-miterlimit:4;stroke-dasharray:none;stroke-opacity:1" />
        <path
           sodipodi:nodetypes="ccccc"
           id="path3669"
           d="m 8.5375494,111.57312 21.2696466,0.29414 c 0.438597,1.0124 0.533843,0.19295 0.282886,1.06743 l -21.8703464,-0.3447 c -0.051606,-0.89564 -0.1802857,-0.25865 0.3178138,-1.01687 z"
           stroke-miterlimit="4"
           inkscape:connector-curvature="0"
           style="fill:#959595;fill-opacity:1;fill-rule:evenodd;stroke:none;stroke-width:0.30000001;stroke-linecap:butt;stroke-linejoin:miter;stroke-miterlimit:4;stroke-dasharray:none;stroke-opacity:1" />
      </g>
      <g
         id="g3382">
        <g
           transform="translate(145.20833,29.166667)"
           id="g3250"
           stroke-miterlimit="4"
           style="fill:url(#linearGradient6345);fill-opacity:1;stroke:#969696;stroke-width:0.94599998;stroke-linecap:round;stroke-linejoin:round;stroke-miterlimit:4;stroke-dashoffset:0;stroke-opacity:1">
          <path
             id="path3252"
             d="m -59.410418,15.556466 c -19.34088,13.70846 -2.35603,2.142052 -21.53125,16 l 0,5 c 19.17522,-13.857948 2.19037,-2.29154 21.53125,-16 l 0,-5 z"
             style="fill:url(#linearGradient4318);fill-opacity:1;stroke:#969696;stroke-opacity:1"
             inkscape:connector-curvature="0" />
          <path
             id="path3254"
             d="m -80.941668,31.556466 -3.28125,47.46875 0,5 3.28125,-47.46875 0,-5 z"
             style="fill:url(#linearGradient4320);fill-opacity:1;stroke:#969696;stroke-opacity:1"
             inkscape:connector-curvature="0" />
          <path
             id="path3256"
             d="m -84.222918,79.025216 c 7.06438,2.08882 11.84375,5.98029 11.84375,10.4375 l 0,5 c 0,-4.45721 -4.77937,-8.34868 -11.84375,-10.4375 l 0,-5 z"
             style="fill:url(#linearGradient6349);fill-opacity:1;stroke:#969696;stroke-opacity:1"
             inkscape:connector-curvature="0" />
          <path
             id="path3258"
             d="m -72.379168,89.462716 c 0,4.76127 -5.44159,8.85064 -13.3125,10.812504 l 0,5 c 7.87091,-1.96186 13.3125,-6.051234 13.3125,-10.812504 l 0,-5 z"
             style="fill:url(#linearGradient4322);fill-opacity:1;stroke:#969696;stroke-opacity:1"
             inkscape:connector-curvature="0" />
          <path
             id="path3260"
             d="m -85.691668,100.27522 -4.375,62.96875 0,5 4.375,-62.96875 0,-5 z"
             style="fill:url(#linearGradient4324);fill-opacity:1;stroke:#969696;stroke-opacity:1"
             inkscape:connector-curvature="0" />
          <path
             id="path3262"
             d="m -90.066668,163.24397 c 19.72266,18.01845 1.94911,1.86365 21.53125,19.21875 l 0,5 c -19.58214,-17.3551 -1.80859,-1.2003 -21.53125,-19.21875 l 0,-5 z"
             style="fill:url(#linearGradient6355);fill-opacity:1;stroke:#969696;stroke-opacity:1"
             inkscape:connector-curvature="0" />
          <path
             id="path3264"
             d="m -68.535418,182.46272 96.156251,0 0,5 -96.156251,0 0,-5 z"
             inkscape:connector-curvature="0"
             style="fill:#5f5f5f;fill-opacity:1;stroke:#969696;stroke-opacity:1" />
          <path
             id="path3266"
             d="m 27.620833,182.46272 c 18.9934,-16.30328 3.28042,-2.51508 21.53125,-19.21875 l 0,5 c -18.25083,16.70367 -2.53785,2.91547 -21.53125,19.21875 l 0,-5 z"
             style="fill:url(#linearGradient6357);fill-opacity:1;stroke:#969696;stroke-opacity:1"
             inkscape:connector-curvature="0" />
          <path
             id="path3268"
             d="m 49.152083,163.24397 -4.125,-63.468754 0,5.000004 4.125,63.46875 0,-5 z"
             style="fill:url(#linearGradient4326);fill-opacity:1;stroke:#969696;stroke-opacity:1"
             inkscape:connector-curvature="0" />
          <path
             id="path3270"
             d="m 45.027083,99.775216 c -9.55717,-1.55357 -16.5,-6.11936 -16.5,-11.5 l 0,5 c 0,5.38064 6.94283,9.946434 16.5,11.500004 l 0,-5.000004 z"
             style="fill:url(#linearGradient4328);fill-opacity:1;stroke:#969696;stroke-opacity:1"
             inkscape:connector-curvature="0" />
          <path
             id="path3272"
             d="m 28.527083,88.275216 c 0,-5.09697 6.25192,-9.45241 15.03125,-11.21875 l 0,5 c -8.77933,1.76634 -15.03125,6.12178 -15.03125,11.21875 l 0,-5 z"
             style="fill:url(#linearGradient6363);fill-opacity:1;stroke:#969696;stroke-opacity:1"
             inkscape:connector-curvature="0" />
          <path
             id="path3274"
             d="m 43.558333,77.056466 -2.9375,-45.5 0,5 2.9375,45.5 0,-5 z"
             style="fill:url(#linearGradient4330);fill-opacity:1;stroke:#969696;stroke-opacity:1"
             inkscape:connector-curvature="0" />
          <path
             id="path3276"
             d="m 40.620833,31.556466 c -18.24701,-13.554328 -2.24854,-2.5018 -21.53125,-16 l 0,5 c 19.28271,13.4982 3.28424,2.445672 21.53125,16 l 0,-5 z"
             style="fill:url(#linearGradient4332);fill-opacity:1;stroke:#969696;stroke-opacity:1"
             inkscape:connector-curvature="0" />
          <path
             id="path3278"
             d="m 19.089583,15.556466 -78.500001,0 0,5 78.500001,0 0,-5 z"
             style="fill:url(#linearGradient4334);fill-opacity:1;stroke:#969696;stroke-opacity:1"
             inkscape:connector-curvature="0" />
        </g>
        <g
           id="g3215">
          <path
             d="m 85.65625,44.6875 c -19.340877,13.708462 -2.356028,2.142052 -21.53125,16 l -3.28125,47.46875 c 7.064382,2.08882 11.84375,5.98029 11.84375,10.4375 10e-7,4.76127 -5.441589,8.85064 -13.3125,10.8125 L 55,192.375 c 19.722662,18.01845 1.949105,1.86365 21.53125,19.21875 l 96.15625,0 c 18.9934,-16.30328 3.28042,-2.51508 21.53125,-19.21875 l -4.125,-63.46875 c -9.55717,-1.55357 -16.5,-6.11936 -16.5,-11.5 0,-5.09697 6.25192,-9.45241 15.03125,-11.21875 l -2.9375,-45.5 c -18.24701,-13.554328 -2.24854,-2.501797 -21.53125,-16 l -78.5,0 z"
             id="path3189"
             stroke-miterlimit="4"
             inkscape:connector-curvature="0"
             style="fill:#9b9b9b;fill-opacity:1;stroke:#555555;stroke-width:0.94599998;stroke-linecap:round;stroke-linejoin:round;stroke-miterlimit:4;stroke-dashoffset:0;stroke-opacity:1" />
          <path
             id="rect2396"
             d="m 85.65625,44.6875 c -19.340877,13.708462 -2.356028,2.142052 -21.53125,16 l -3.28125,47.46875 c 7.064382,2.08882 11.84375,5.98029 11.84375,10.4375 10e-7,4.76127 -5.441589,8.85064 -13.3125,10.8125 L 55,192.375 c 19.722662,18.01845 1.949105,1.86365 21.53125,19.21875 l 96.15625,0 c 18.9934,-16.30328 3.28042,-2.51508 21.53125,-19.21875 l -4.125,-63.46875 c -9.55717,-1.55357 -16.5,-6.11936 -16.5,-11.5 0,-5.09697 6.25192,-9.45241 15.03125,-11.21875 l -2.9375,-45.5 c -18.24701,-13.554328 -2.24854,-2.501797 -21.53125,-16 l -78.5,0 z"
             stroke-miterlimit="4"
             style="fill:url(#linearGradient6373);fill-opacity:1;stroke:url(#linearGradient4591);stroke-width:0.94599998;stroke-linecap:round;stroke-linejoin:round;stroke-miterlimit:4;stroke-dashoffset:0;stroke-opacity:1"
             inkscape:connector-curvature="0" />
          <path
             d="M 86.523587,46.234162 C 67.18271,59.942624 85.468565,47.345106 66.293343,61.203054 L 63.228927,105.3207 C 95.930568,50.456664 174.76692,80.062039 185.15565,77.832039 l -1.63649,-16.628985 c -18.24701,-13.554328 0.35347,-0.955136 -18.92924,-14.453339 z"
             id="path4581"
             inkscape:connector-curvature="0"
             sodipodi:nodetypes="ccccccc"
             style="fill:url(#linearGradient4583);fill-opacity:1;stroke:none" />
        </g>
      </g>
      <g
         transform="matrix(0.435974,0,0,0.5459663,54.772658,58.939097)"
         id="g3618">
        <ellipse
           id="path3594"
           stroke-miterlimit="4"
           style="opacity:1;fill:url(#radialGradient4336);fill-opacity:1;stroke:url(#linearGradient4338);stroke-width:1;stroke-linecap:round;stroke-linejoin:round;stroke-miterlimit:4;stroke-dasharray:none;stroke-dashoffset:0;stroke-opacity:1"
           cx="19.23077"
           cy="113.55495"
           rx="11.538462"
           ry="7.8296704" />
        <path
           d="m 8.5375494,111.57312 21.2696466,0.29414 c 0.438597,1.0124 0.325184,1.91439 0.07423,2.78887 L 8.0632411,114.10277 c -0.051606,-0.89564 -0.023791,-1.77143 0.4743083,-2.52965 z"
           id="path3614"
           sodipodi:nodetypes="ccccc"
           stroke-miterlimit="4"
           inkscape:connector-curvature="0"
           style="fill:#bababa;fill-opacity:1;fill-rule:evenodd;stroke:none;stroke-width:0.30000001;stroke-linecap:butt;stroke-linejoin:miter;stroke-miterlimit:4;stroke-dasharray:none;stroke-opacity:1" />
        <path
           sodipodi:nodetypes="ccccc"
           id="path3616"
           d="m 8.5375494,111.57312 21.2696466,0.29414 c 0.438597,1.0124 0.533843,0.19295 0.282886,1.06743 l -21.8703464,-0.3447 c -0.051606,-0.89564 -0.1802857,-0.25865 0.3178138,-1.01687 z"
           stroke-miterlimit="4"
           inkscape:connector-curvature="0"
           style="fill:#959595;fill-opacity:1;fill-rule:evenodd;stroke:none;stroke-width:0.30000001;stroke-linecap:butt;stroke-linejoin:miter;stroke-miterlimit:4;stroke-dasharray:none;stroke-opacity:1" />
      </g>
      <g
         id="g3627"
         transform="matrix(0.435974,0,0,0.5459663,176.00484,57.467833)">
        <ellipse
           id="path3629"
           stroke-miterlimit="4"
           style="opacity:1;fill:url(#radialGradient4340);fill-opacity:1;stroke:url(#linearGradient4342);stroke-width:1;stroke-linecap:round;stroke-linejoin:round;stroke-miterlimit:4;stroke-dasharray:none;stroke-dashoffset:0;stroke-opacity:1"
           cx="19.23077"
           cy="113.55495"
           rx="11.538462"
           ry="7.8296704" />
        <path
           sodipodi:nodetypes="ccccc"
           id="path3631"
           d="m 8.5375494,111.57312 21.2696466,0.29414 c 0.438597,1.0124 0.325184,1.91439 0.07423,2.78887 L 8.0632411,114.10277 c -0.051606,-0.89564 -0.023791,-1.77143 0.4743083,-2.52965 z"
           stroke-miterlimit="4"
           inkscape:connector-curvature="0"
           style="fill:#bababa;fill-opacity:1;fill-rule:evenodd;stroke:none;stroke-width:0.30000001;stroke-linecap:butt;stroke-linejoin:miter;stroke-miterlimit:4;stroke-dasharray:none;stroke-opacity:1" />
        <path
           d="m 8.5375494,111.57312 21.2696466,0.29414 c 0.438597,1.0124 0.533843,0.19295 0.282886,1.06743 l -21.8703464,-0.3447 c -0.051606,-0.89564 -0.1802857,-0.25865 0.3178138,-1.01687 z"
           id="path3633"
           sodipodi:nodetypes="ccccc"
           stroke-miterlimit="4"
           inkscape:connector-curvature="0"
           style="fill:#959595;fill-opacity:1;fill-rule:evenodd;stroke:none;stroke-width:0.30000001;stroke-linecap:butt;stroke-linejoin:miter;stroke-miterlimit:4;stroke-dasharray:none;stroke-opacity:1" />
      </g>
      <g
         transform="matrix(0.435974,0,0,0.5459663,179.53587,149.27473)"
         id="g3639">
        <ellipse
           id="path3641"
           stroke-miterlimit="4"
           style="opacity:1;fill:url(#radialGradient4344);fill-opacity:1;stroke:url(#linearGradient4346);stroke-width:1;stroke-linecap:round;stroke-linejoin:round;stroke-miterlimit:4;stroke-dasharray:none;stroke-dashoffset:0;stroke-opacity:1"
           cx="19.23077"
           cy="113.55495"
           rx="11.538462"
           ry="7.8296704" />
        <path
           d="m 8.5375494,111.57312 21.2696466,0.29414 c 0.438597,1.0124 0.325184,1.91439 0.07423,2.78887 L 8.0632411,114.10277 c -0.051606,-0.89564 -0.023791,-1.77143 0.4743083,-2.52965 z"
           id="path3643"
           sodipodi:nodetypes="ccccc"
           stroke-miterlimit="4"
           inkscape:connector-curvature="0"
           style="fill:#bababa;fill-opacity:1;fill-rule:evenodd;stroke:none;stroke-width:0.30000001;stroke-linecap:butt;stroke-linejoin:miter;stroke-miterlimit:4;stroke-dasharray:none;stroke-opacity:1" />
        <path
           sodipodi:nodetypes="ccccc"
           id="path3645"
           d="m 8.5375494,111.57312 21.2696466,0.29414 c 0.438597,1.0124 0.533843,0.19295 0.282886,1.06743 l -21.8703464,-0.3447 c -0.051606,-0.89564 -0.1802857,-0.25865 0.3178138,-1.01687 z"
           stroke-miterlimit="4"
           inkscape:connector-curvature="0"
           style="fill:#959595;fill-opacity:1;fill-rule:evenodd;stroke:none;stroke-width:0.30000001;stroke-linecap:butt;stroke-linejoin:miter;stroke-miterlimit:4;stroke-dasharray:none;stroke-opacity:1" />
      </g>
      <g
         id="g3651"
         transform="matrix(0.435974,0,0,0.5459663,53.59564,148.98048)">
        <ellipse
           id="path3653"
           stroke-miterlimit="4"
           style="opacity:1;fill:url(#radialGradient6337);fill-opacity:1;stroke:url(#linearGradient6339);stroke-width:1;stroke-linecap:round;stroke-linejoin:round;stroke-miterlimit:4;stroke-dasharray:none;stroke-dashoffset:0;stroke-opacity:1"
           cx="19.23077"
           cy="113.55495"
           rx="11.538462"
           ry="7.8296704" />
        <path
           sodipodi:nodetypes="ccccc"
           id="path3655"
           d="m 8.5375494,111.57312 21.2696466,0.29414 c 0.438597,1.0124 0.325184,1.91439 0.07423,2.78887 L 8.0632411,114.10277 c -0.051606,-0.89564 -0.023791,-1.77143 0.4743083,-2.52965 z"
           stroke-miterlimit="4"
           inkscape:connector-curvature="0"
           style="fill:#bababa;fill-opacity:1;fill-rule:evenodd;stroke:none;stroke-width:0.30000001;stroke-linecap:butt;stroke-linejoin:miter;stroke-miterlimit:4;stroke-dasharray:none;stroke-opacity:1" />
        <path
           d="m 8.5375494,111.57312 21.2696466,0.29414 c 0.438597,1.0124 0.533843,0.19295 0.282886,1.06743 l -21.8703464,-0.3447 c -0.051606,-0.89564 -0.1802857,-0.25865 0.3178138,-1.01687 z"
           id="path3657"
           sodipodi:nodetypes="ccccc"
           stroke-miterlimit="4"
           inkscape:connector-curvature="0"
           style="fill:#959595;fill-opacity:1;fill-rule:evenodd;stroke:none;stroke-width:0.30000001;stroke-linecap:butt;stroke-linejoin:miter;stroke-miterlimit:4;stroke-dasharray:none;stroke-opacity:1" />
      </g>
      <g
         transform="matrix(0.05340511,0,0,0.05340511,87.461757,216.46278)"
         id="g4337">
        <circle
           id="path4339"
           transform="translate(-300.78542,99.217623)"
           stroke-miterlimit="4"
           style="fill:url(#radialGradient6393);fill-opacity:1;stroke:url(#linearGradient6395);stroke-width:2.5;stroke-linecap:round;stroke-linejoin:round;stroke-miterlimit:4;stroke-dasharray:none;stroke-opacity:1"
           cx="125.94023"
           cy="125.94023"
           r="104.45977" />
        <path
           d="m -69.727526,225.81575 c -80.695144,-98.19767 -111.318184,73.51746 -208.919534,0 0,-57.66179 46.79798,-104.45978 104.45977,-104.45978 57.66179,0 104.459764,46.79799 104.459764,104.45978 l 0,0 z"
           id="path4341"
           sodipodi:nodetypes="ccsc"
           style="fill:url(#linearGradient6397);fill-opacity:1;stroke:none"
           inkscape:connector-curvature="0" />
      </g>
      <rect
         ry="2.9430001"
         y="225.69"
         x="115.64"
         height="5.8850002"
         width="42.960999"
         id="rect6254"
         stroke-miterlimit="4"
         rx="2.9430001"
         style="opacity:1;fill:url(#linearGradient6399);fill-opacity:1;stroke:url(#linearGradient6401);stroke-width:1.5;stroke-linecap:round;stroke-linejoin:round;stroke-miterlimit:4;stroke-dasharray:none;stroke-dashoffset:0;stroke-opacity:1" />
    </g>
    <g
       id="g2000"
       inkscape:label="1. réteg"
       transform="matrix(0.24550381,0,0,0.24550381,2.4061825,-0.3351527)">
      <path
         inkscape:connector-curvature="0"
         id="text3905"
         d="m 14.672896,-7.9438771 -5.2910158,0 -0.834961,2.390625 -3.401367,0 4.8603508,-13.1220709 4.03418,0 4.860352,13.1220709 -3.401368,0 -0.826171,-2.390625 m -4.447266,-2.4345709 3.594727,0 -1.792969,-5.220703 -1.801758,5.220703 m 10.40625,-8.296875 5.616211,0 c 1.669913,1.3e-5 2.950185,0.372083 3.84082,1.116211 0.896473,0.738293 1.344714,1.792979 1.344727,3.164063 -1.3e-5,1.37696 -0.448254,2.437506 -1.344727,3.18164 -0.890635,0.738287 -2.170907,1.107427 -3.84082,1.107422 l -2.232422,0 0,4.5527349 -3.383789,0 0,-13.1220709 m 3.383789,2.452149 0,3.665039 1.87207,0 c 0.656243,7e-6 1.163078,-0.158196 1.520508,-0.47461 0.357413,-0.322257 0.536124,-0.776358 0.536133,-1.362304 -9e-6,-0.585928 -0.17872,-1.0371 -0.536133,-1.353516 -0.35743,-0.316396 -0.864265,-0.474599 -1.520508,-0.474609 l -1.87207,0"
         style="font-style:normal;font-weight:bold;font-size:18px;font-family:'Bitstream Vera Sans';fill:#000000;fill-opacity:1;stroke:none;stroke-width:1px;stroke-linecap:butt;stroke-linejoin:miter;stroke-opacity:1" />
    </g>
    <g
       id="g1066"
       transform="translate(240.01816,6.6833145)">
      <path
         transform="matrix(0.98885978,0,0,0.98885978,-234.80248,-30.585159)"
         style="opacity:1;fill:#3340e7;fill-opacity:1;stroke:#3539db;stroke-width:2.62929088;stroke-linecap:round;stroke-linejoin:round;stroke-miterlimit:4;stroke-dasharray:none;stroke-dashoffset:0;stroke-opacity:1"
         d="m 147.23747,144.46897 c 6.77525,-7.06478 -1.17113,-22.6672 8.15232,-19.89941 23.1647,6.87674 39.10176,21.24073 39.10188,37.84658 -1.7e-4,23.28946 -31.34776,42.16925 -70.01691,42.16926 -38.669158,-1e-5 -70.016742,-18.8798 -70.016919,-42.16926 1.48e-4,-19.50462 21.986861,-35.91635 51.847369,-40.73549 l -1.67958,-15.40832 c -39.352935,6.30063 -68.896873,32.86948 -68.896878,64.68916 -2.65e-4,36.50953 38.893993,66.1065 86.872738,66.10656 47.97894,1.6e-4 86.87357,-29.59688 86.87325,-66.10656 -1e-5,-28.01008 -22.89314,-51.95134 -55.21794,-61.58032 -9.8087,-2.92183 -0.89262,-6.79665 -1.11294,-12.347513 l -29.55291,15.951533 z"
         id="path1020"
         inkscape:connector-curvature="0"
         sodipodi:nodetypes="cccscccccccccc"
         clip-path="url(#clipPath1016)" />
      <path
         transform="matrix(0.98885978,0,0,0.98885978,-234.22132,-30.29458)"
         sodipodi:nodetypes="cccscccccccccc"
         inkscape:connector-curvature="0"
         id="path987"
         d="m 145.22052,136.40117 c 6.77525,-7.06478 -0.88299,-17.76889 8.44046,-15.0011 23.1647,6.87674 43.42379,24.41022 43.42391,41.01607 -1.7e-4,23.28946 -33.65284,47.35569 -72.32199,47.3557 -38.669162,-1e-5 -73.186238,-23.48997 -73.186415,-46.77943 1.48e-4,-19.50462 22.274997,-39.66211 52.135505,-44.48125 -0.73784,-4.07324 -0.0632,-5.37391 -1.39144,-9.64561 -39.35294,8.04204 -62.84603,30.07574 -62.846035,61.51967 -2.65e-4,24.69597 33.707552,60.34379 81.686295,60.34385 47.97894,1.6e-4 85.43289,-31.90197 86.00885,-59.76758 -1e-5,-28.01008 -20.58806,-49.64626 -52.91286,-59.27524 -9.8087,-2.92183 -3.77398,-6.79665 -3.9943,-12.347508 l -23.50206,13.646448 z"
         style="opacity:1;fill:#717bed;fill-opacity:0.55510206;stroke:none;stroke-width:0.14855437;stroke-linecap:round;stroke-linejoin:round;stroke-miterlimit:4;stroke-dasharray:none;stroke-dashoffset:0;stroke-opacity:1;filter:url(#filter1062)" />
      <path
         transform="matrix(0.98885978,0,0,0.98885978,-234.22132,-30.29458)"
         style="opacity:1;fill:#e1e3f8;fill-opacity:0.39183673;stroke:none;stroke-width:0.14855437;stroke-linecap:round;stroke-linejoin:round;stroke-miterlimit:4;stroke-dasharray:none;stroke-dashoffset:0;stroke-opacity:1;filter:url(#filter1058)"
         d="m 144.93238,131.791 c 6.77525,-7.06478 -0.59485,-15.4638 8.7286,-12.69601 23.1647,6.87674 46.01701,27.57971 46.01713,44.18556 -1.7e-4,23.28946 -37.3986,51.38959 -76.06775,51.3896 -38.669164,-1e-5 -74.050647,-28.38828 -74.050824,-51.67774 1.48e-4,-19.50462 22.851268,-41.39092 52.711774,-46.21006 -0.73784,-4.07324 -1.79201,-1.34002 -3.120252,-5.61172 -39.35294,8.04204 -56.795182,27.77066 -56.795187,59.21459 -2.65e-4,24.69597 31.690603,53.71667 79.669349,53.71673 47.97894,1.6e-4 82.2634,-26.13926 82.83936,-54.00487 -1e-5,-28.01008 -19.43552,-46.47677 -51.76032,-56.10575 -9.8087,-2.92183 -4.35025,-6.79665 -4.57057,-12.3475 l -18.60376,11.34136 z"
         id="path989"
         inkscape:connector-curvature="0"
         sodipodi:nodetypes="cccscccccccccc" />
    </g>
  </g>
</svg>
