<?xml version="1.0" encoding="UTF-8" standalone="no"?>
<!-- Created with Inkscape (http://www.inkscape.org/) -->
<svg xmlns:dc="http://purl.org/dc/elements/1.1/" xmlns:cc="http://creativecommons.org/ns#" xmlns:rdf="http://www.w3.org/1999/02/22-rdf-syntax-ns#" xmlns:svg="http://www.w3.org/2000/svg" xmlns="http://www.w3.org/2000/svg" xmlns:xlink="http://www.w3.org/1999/xlink" xmlns:sodipodi="http://sodipodi.sourceforge.net/DTD/sodipodi-0.dtd" xmlns:inkscape="http://www.inkscape.org/namespaces/inkscape" id="svg2" sodipodi:version="0.32" inkscape:version="0.48.0 r9654" width="256" height="256" sodipodi:docname="accessories-dictionary.svg" inkscape:output_extension="org.inkscape.output.svg.inkscape">
 <metadata id="metadata7">
  <rdf:RDF>
   <cc:Work>
    <dc:format>image/svg+xml</dc:format>
    <dc:type rdf:resource="http://purl.org/dc/dcmitype/StillImage"/>
   </cc:Work>
  </rdf:RDF>
 </metadata>
 <defs id="defs5">
  <linearGradient id="linearGradient2806">
   <stop id="stop2808" stop-color="#8b8b8b" stop-opacity="1"/>
   <stop offset="1" id="stop2810" stop-color="#ffffff" stop-opacity="1"/>
  </linearGradient>
  <linearGradient inkscape:collect="always" id="linearGradient2792">
   <stop id="stop2794" stop-color="#706960" stop-opacity="1"/>
   <stop offset="1" id="stop2796" stop-color="#e1dbd3" stop-opacity="1"/>
  </linearGradient>
  <linearGradient inkscape:collect="always" id="linearGradient2780">
   <stop id="stop2782" stop-color="#caccd5" stop-opacity="1"/>
   <stop offset="1" id="stop2784" stop-color="#a9aab0" stop-opacity="1"/>
  </linearGradient>
  <linearGradient inkscape:collect="always" id="linearGradient2770">
   <stop id="stop2772" stop-color="#bec0c5" stop-opacity="1"/>
   <stop offset="1" id="stop2774" stop-color="#8c8d9c" stop-opacity="1"/>
  </linearGradient>
  <linearGradient id="linearGradient2760">
   <stop id="stop2762" stop-color="#656565" stop-opacity="1"/>
   <stop offset="1" id="stop2764" stop-color="#c4c4c4" stop-opacity="1"/>
  </linearGradient>
  <filter inkscape:collect="always" id="filter3241">
   <feGaussianBlur inkscape:collect="always" stdDeviation="1.07865" id="feGaussianBlur3243"/>
  </filter>
  <linearGradient inkscape:collect="always" xlink:href="#linearGradient2760" id="linearGradient2839" gradientUnits="userSpaceOnUse" gradientTransform="matrix(1.86399,0,0,1.817278,5.206437,-1.178455)" spreadMethod="reflect" x1="2.646" y1="69.65" x2="26.15" y2="63.11"/>
  <linearGradient inkscape:collect="always" xlink:href="#linearGradient2760" id="linearGradient2841" gradientUnits="userSpaceOnUse" gradientTransform="matrix(1.86399,0,0,1.817278,3.853366,-4.696203)" spreadMethod="reflect" x1="40.39" y1="78.17" x2="73.33" y2="66.55"/>
  <linearGradient inkscape:collect="always" xlink:href="#linearGradient2770" id="linearGradient2843" gradientUnits="userSpaceOnUse" gradientTransform="matrix(1.86399,0,0,1.817278,2.951382,2.779025)" spreadMethod="reflect" x1="33.617" y1="80.09" x2="76.48" y2="64.847"/>
  <linearGradient inkscape:collect="always" xlink:href="#linearGradient2780" id="linearGradient2845" gradientUnits="userSpaceOnUse" gradientTransform="matrix(1.86399,0,0,1.817278,7.912578,2.339305)" spreadMethod="reflect" x1="47.651" y1="74.855" x2="78.03" y2="63.48"/>
  <linearGradient inkscape:collect="always" xlink:href="#linearGradient2792" id="linearGradient2847" gradientUnits="userSpaceOnUse" gradientTransform="matrix(1.86399,0,0,1.817278,8.814563,1.899585)" spreadMethod="reflect" x1="44.26" y1="58.07" x2="68.72" y2="48.877"/>
  <linearGradient inkscape:collect="always" xlink:href="#linearGradient2806" id="linearGradient2849" gradientUnits="userSpaceOnUse" gradientTransform="matrix(1.86399,0,0,1.817278,7.461492,0.140708)" x1="25.874" y1="70.29" x2="49.14" y2="63.03"/>
  <linearGradient inkscape:collect="always" xlink:href="#linearGradient2806" id="linearGradient2851" gradientUnits="userSpaceOnUse" gradientTransform="matrix(1.86399,0,0,1.817278,-251.8763,4.098184)" x1="174.7" y1="60.25" x2="191.9" y2="54.926"/>
  <linearGradient id="linearGradient3370">
   <stop id="stop3372" stop-color="#ffffff" stop-opacity="1"/>
   <stop offset="1" id="stop3374" stop-color="#ffffff" stop-opacity="0"/>
  </linearGradient>
  <linearGradient id="linearGradient3327">
   <stop id="stop3329" stop-color="#6274e4" stop-opacity="1"/>
   <stop id="stop3331" offset="1" stop-color="#1829b8" stop-opacity="0"/>
  </linearGradient>
  <linearGradient id="linearGradient3375">
   <stop id="stop3377" stop-color="#6274e4" stop-opacity="0.491"/>
   <stop offset="1" id="stop3379" stop-color="#1829b8" stop-opacity="0.281"/>
  </linearGradient>
  <linearGradient id="linearGradient3389">
   <stop id="stop3391" stop-color="#b0a9ff" stop-opacity="0.594"/>
   <stop id="stop3393" offset="1" stop-color="#ffffff" stop-opacity="0"/>
  </linearGradient>
  <linearGradient id="linearGradient3283">
   <stop id="stop3285" stop-color="#ffffff" stop-opacity="0.465"/>
   <stop id="stop3287" offset="1" stop-color="#ffffff" stop-opacity="0"/>
  </linearGradient>
  <linearGradient id="linearGradient3309">
   <stop id="stop3311" stop-color="#6274e4" stop-opacity="0.544"/>
   <stop offset="1" id="stop3313" stop-color="#bcc3f8" stop-opacity="0.623"/>
  </linearGradient>
  <linearGradient inkscape:collect="always" xlink:href="#linearGradient3370" id="linearGradient3836" gradientUnits="userSpaceOnUse" spreadMethod="reflect" x1="14.04" y1="-7.5" x2="12.447" y2="-7.159"/>
  <linearGradient inkscape:collect="always" xlink:href="#linearGradient3370" id="linearGradient3838" gradientUnits="userSpaceOnUse" spreadMethod="reflect" x1="9.41" y1="-6.253" x2="11.61" y2="-7.03"/>
  <linearGradient inkscape:collect="always" xlink:href="#linearGradient3370" id="linearGradient3846" gradientUnits="userSpaceOnUse" spreadMethod="reflect" x1="11.442" y1="-8.391" x2="9.596" y2="-4.272"/>
  <linearGradient inkscape:collect="always" xlink:href="#linearGradient3370" id="linearGradient3858" gradientUnits="userSpaceOnUse" spreadMethod="reflect" x1="8.662" y1="-3.01" x2="8.705" y2="3.051"/>
  <linearGradient inkscape:collect="always" xlink:href="#linearGradient3370" id="linearGradient3860" gradientUnits="userSpaceOnUse" spreadMethod="reflect" x1="9.41" y1="-6.253" x2="8.901" y2="1.607"/>
  <linearGradient inkscape:collect="always" xlink:href="#linearGradient3370" id="linearGradient3862" gradientUnits="userSpaceOnUse" spreadMethod="reflect" x1="9.41" y1="-6.253" x2="12.02" y2="-0.691"/>
  <linearGradient inkscape:collect="always" xlink:href="#linearGradient3370" id="linearGradient3866" gradientUnits="userSpaceOnUse" spreadMethod="reflect" x1="14.185" y1="-2.048" x2="14.567" y2="0.61"/>
  <linearGradient inkscape:collect="always" xlink:href="#linearGradient3370" id="linearGradient3871" gradientUnits="userSpaceOnUse" spreadMethod="reflect" x1="15.272" y1="-4.132" x2="16.759" y2="-5.84"/>
  <linearGradient inkscape:collect="always" xlink:href="#linearGradient3327" id="linearGradient3885" gradientUnits="userSpaceOnUse" spreadMethod="reflect" x1="208.2" y1="115.93" x2="179.06" y2="115.93"/>
  <linearGradient inkscape:collect="always" xlink:href="#linearGradient3327" id="linearGradient3887" gradientUnits="userSpaceOnUse" spreadMethod="reflect" x1="123.96" y1="115.93" x2="124.86" y2="242.01"/>
  <linearGradient inkscape:collect="always" xlink:href="#linearGradient3309" id="linearGradient3891" gradientUnits="userSpaceOnUse" spreadMethod="reflect" x1="247.64" y1="244.4" x2="236.83" y2="244.4"/>
  <linearGradient inkscape:collect="always" xlink:href="#linearGradient3309" id="linearGradient3893" gradientUnits="userSpaceOnUse" spreadMethod="reflect" x1="9.902" y1="249.55" x2="19.718" y2="249.55"/>
  <linearGradient inkscape:collect="always" xlink:href="#linearGradient3327" id="linearGradient3899" gradientUnits="userSpaceOnUse" spreadMethod="reflect" x1="52.641" y1="116.17" x2="88.12" y2="116.17"/>
  <radialGradient inkscape:collect="always" xlink:href="#linearGradient3375" id="radialGradient3903" gradientUnits="userSpaceOnUse" gradientTransform="matrix(1.7430851,-0.01239285,0.00619507,0.8713522,-48.977087,45.033024)" spreadMethod="reflect" cx="65.16" cy="90.27" fx="65.16" fy="90.27" r="116.01"/>
  <radialGradient inkscape:collect="always" xlink:href="#linearGradient3389" id="radialGradient3905" gradientUnits="userSpaceOnUse" gradientTransform="matrix(1.6980375,-0.01216394,0.00497574,0.694593,-79.72263,74.177858)" spreadMethod="reflect" cx="123.85" cy="42" fx="123.85" fy="42" r="86.02"/>
  <linearGradient inkscape:collect="always" xlink:href="#linearGradient3370" id="linearGradient3907" gradientUnits="userSpaceOnUse" spreadMethod="pad" x1="118.12" y1="98.49" x2="118.12" y2="106.67"/>
  <linearGradient inkscape:collect="always" xlink:href="#linearGradient3370" id="linearGradient3909" gradientUnits="userSpaceOnUse" spreadMethod="pad" x1="30.354" y1="175.13" x2="38.974" y2="178.06"/>
  <linearGradient inkscape:collect="always" xlink:href="#linearGradient3370" id="linearGradient3911" gradientUnits="userSpaceOnUse" spreadMethod="pad" x1="115.15" y1="243.16" x2="115.15" y2="232.77"/>
  <linearGradient inkscape:collect="always" xlink:href="#linearGradient3370" id="linearGradient3914" gradientUnits="userSpaceOnUse" spreadMethod="pad" x1="236.98" y1="190.34" x2="223.57" y2="194.43"/>
  <linearGradient inkscape:collect="always" xlink:href="#linearGradient3283" id="linearGradient3917" gradientUnits="userSpaceOnUse" spreadMethod="reflect" x1="198.38" y1="210.61" x2="245.02" y2="170.26"/>
  <filter id="filter3459" inkscape:collect="always">
   <feGaussianBlur id="feGaussianBlur3461" stdDeviation="0.82584" inkscape:collect="always"/>
  </filter>
  <filter id="filter3938" inkscape:collect="always">
   <feGaussianBlur id="feGaussianBlur3940" stdDeviation="2.31568" inkscape:collect="always"/>
  </filter>
  <filter id="filter3898" inkscape:collect="always">
   <feGaussianBlur id="feGaussianBlur3900" stdDeviation="2.23604" inkscape:collect="always"/>
  </filter>
  <filter id="filter3292" inkscape:collect="always">
   <feGaussianBlur id="feGaussianBlur3294" stdDeviation="1.77801" inkscape:collect="always"/>
  </filter>
  <filter id="filter3286" inkscape:collect="always">
   <feGaussianBlur id="feGaussianBlur3288" stdDeviation="1.75098" inkscape:collect="always"/>
  </filter>
  <linearGradient id="linearGradient3246-3">
   <stop id="stop3248" stop-color="#dfe2f8" stop-opacity="0.557"/>
   <stop id="stop3250" offset="1" stop-color="#2343dc" stop-opacity="0.202"/>
  </linearGradient>
  <linearGradient id="linearGradient3963" inkscape:collect="always">
   <stop id="stop3965" stop-color="#000000" stop-opacity="1"/>
   <stop id="stop3967" offset="1" stop-color="#919191" stop-opacity="1"/>
  </linearGradient>
  <linearGradient id="linearGradient3447">
   <stop id="stop3449" stop-color="#dfe2f8" stop-opacity="0.246"/>
   <stop offset="1" id="stop3451" stop-color="#2343dc" stop-opacity="0.079"/>
  </linearGradient>
  <linearGradient id="linearGradient3453">
   <stop id="stop3455" stop-color="#dfe2f8" stop-opacity="0.263"/>
   <stop offset="1" id="stop3457" stop-color="#2343dc" stop-opacity="0.088"/>
  </linearGradient>
  <radialGradient inkscape:collect="always" xlink:href="#linearGradient3453" id="radialGradient5067" gradientUnits="userSpaceOnUse" gradientTransform="matrix(0.1784037,0.07701193,-0.05291045,0.121382,73.893762,154.22954)" spreadMethod="reflect" cx="337.65" cy="-643.86" fx="337.65" fy="-643.86" r="288.14"/>
  <radialGradient inkscape:collect="always" xlink:href="#linearGradient3447" id="radialGradient5069" gradientUnits="userSpaceOnUse" gradientTransform="matrix(0.179524,0.0713736,0.04354755,-0.1095339,-8.6291847,-26.503711)" spreadMethod="reflect" cx="517.41" cy="-728.83" fx="517.41" fy="-728.83" r="288.14"/>
  <radialGradient inkscape:collect="always" xlink:href="#linearGradient3246-3" id="radialGradient5071" gradientUnits="userSpaceOnUse" gradientTransform="matrix(1.1408279,0.4948693,-0.3383434,0.7799867,-237.94395,474.62659)" spreadMethod="reflect" cx="337.65" cy="-643.86" fx="337.65" fy="-643.86" r="288.14"/>
  <radialGradient inkscape:collect="always" xlink:href="#linearGradient3246-3" id="radialGradient5073" gradientUnits="userSpaceOnUse" gradientTransform="matrix(-1.2551412,0.2232982,-0.1362421,-0.765806,1125.0282,-503.1288)" spreadMethod="reflect" cx="517.41" cy="-728.83" fx="517.41" fy="-728.83" r="288.14"/>
  <linearGradient inkscape:collect="always" xlink:href="#linearGradient3963" id="linearGradient5075" gradientUnits="userSpaceOnUse" spreadMethod="reflect" x1="126.81" y1="307.17" x2="130.2" y2="280.82"/>
  <linearGradient inkscape:collect="always" xlink:href="#linearGradient3963" id="linearGradient5077" gradientUnits="userSpaceOnUse" gradientTransform="matrix(-0.9587472,-0.28426,-0.28426,0.9587472,1745.7931,236.03278)" spreadMethod="reflect" x1="126.81" y1="307.17" x2="130.2" y2="280.82"/>
 </defs>
 <sodipodi:namedview inkscape:window-height="1022" inkscape:window-width="1680" inkscape:pageshadow="2" inkscape:pageopacity="0.0" guidetolerance="10.0" gridtolerance="10.0" objecttolerance="10.0" borderopacity="1.0" bordercolor="#666666" pagecolor="#ffffff" id="base" inkscape:zoom="2.41" inkscape:cx="128" inkscape:cy="128" inkscape:window-x="-2" inkscape:window-y="0" inkscape:current-layer="svg2" width="256" height="256" showgrid="false" inkscape:window-maximized="1"/>
 <g id="g3325" transform="matrix(1.0464027,0,0,1.0464027,-5.221598,-17.791076)">
  <path inkscape:connector-curvature="0" d="m 63.613634,111.1201 135.062066,0 c 3.42334,0 5.2032,2.94368 6.17931,6.17931 l 39.72414,125.05747 c 0.97611,3.31071 0.47269,6.17931 -6.17931,6.17931 l -218.924137,0 c -6.088862,0 -7.230503,-2.8686 -6.17931,-6.17931 L 57.434324,117.29941 c 1.201363,-3.23563 2.755973,-6.17931 6.17931,-6.17931 z" id="path3371" sodipodi:nodetypes="ccccccccc" fill="#afbcff" stroke="none" fill-opacity="0.266"/>
  <g transform="translate(-0.2392392,-5.263263)" id="g3244" fill="url(#linearGradient3887)" stroke="none" fill-opacity="1">
   <path inkscape:connector-curvature="0" id="path3246" d="m 63.852873,106.81379 135.062067,0 0,10 -135.062067,0 0,-10 z" fill="#2544dd" fill-opacity="0.589"/>
   <path inkscape:connector-curvature="0" id="path3248" d="m 198.91494,106.81379 c 3.42334,0 5.2032,2.94368 6.17931,6.17931 l 0,10 c -0.97611,-3.23563 -2.75597,-6.17931 -6.17931,-6.17931 l 0,-10 z" fill="url(#linearGradient3885)" fill-opacity="1"/>
   <path inkscape:connector-curvature="0" id="path3250" d="m 205.09425,112.9931 39.72414,125.05747 0,10 -39.72414,-125.05747 0,-10 z" fill="url(#linearGradient3887)" fill-opacity="1"/>
   <path inkscape:connector-curvature="0" id="path3252" d="m 244.81839,238.05057 c 0.2337,0.79266 0.38259,1.55997 0.38259,2.26864 l 0,10 c 0,-0.70867 -0.14889,-1.47598 -0.38259,-2.26864 l 0,-10 z" fill="url(#linearGradient3887)" fill-opacity="1"/>
   <path inkscape:connector-curvature="0" id="path3254" d="m 245.20098,240.31921 c 0,2.25125 -1.50254,3.91067 -6.5619,3.91067 l 0,10 c 5.05936,0 6.5619,-1.65942 6.5619,-3.91067 l 0,-10 z" fill="url(#linearGradient3891)" fill-opacity="1"/>
   <path inkscape:connector-curvature="0" id="path3257" d="m 238.63908,244.22988 -218.924138,0 0,10 218.924138,0 0,-10 z" fill="#afbcff" fill-opacity="0.657"/>
   <path inkscape:connector-curvature="0" id="path3259" d="m 19.714942,244.22988 c -4.800613,0 -6.525962,-1.78316 -6.525962,-4.16028 l 0,10 c 0,2.37712 1.725349,4.16028 6.525962,4.16028 l 0,-10 z" fill="url(#linearGradient3893)" fill-opacity="1"/>
   <path inkscape:connector-curvature="0" id="path3261" d="m 13.18898,240.0696 c 0,-0.6379 0.124246,-1.31857 0.346652,-2.01903 l 0,10 c -0.222406,0.70046 -0.346652,1.38113 -0.346652,2.01903 l 0,-10 z" fill="url(#linearGradient3887)" fill-opacity="1"/>
   <path inkscape:connector-curvature="0" id="path3263" d="m 13.535632,238.05057 44.137931,-125.05747 0,10 -44.137931,125.05747 0,-10 z" fill="url(#linearGradient3887)" fill-opacity="1"/>
   <path inkscape:connector-curvature="0" id="path3265" d="m 57.673563,112.9931 c 1.201363,-3.23563 2.755973,-6.17931 6.17931,-6.17931 l 0,10 c -3.423337,0 -4.977947,2.94368 -6.17931,6.17931 l 0,-10 z" fill="url(#linearGradient3899)" fill-opacity="1"/>
  </g>
  <path inkscape:connector-curvature="0" sodipodi:nodetypes="ccccccccc" id="rect3191" d="m 63.668653,101.55053 135.062067,0 c 3.42334,0 5.2032,2.94368 6.17931,6.17931 l 39.72414,125.05747 c 0.97611,3.31071 0.47269,6.17931 -6.17931,6.17931 l -218.924147,0 c -6.08886,0 -7.2305,-2.8686 -6.17931,-6.17931 l 44.13794,-125.05747 c 1.20136,-3.23563 2.75597,-6.17931 6.17931,-6.17931 z" fill="url(#radialGradient3903)" stroke="none" fill-opacity="1"/>
  <path inkscape:connector-curvature="0" d="m 63.962905,101.84478 135.062065,0 c 3.42334,0 5.2032,2.94368 6.17931,6.17931 l 9.84069,30.971 C 146.53235,172.19141 104.62061,111.32037 43.006638,150.71782 l 14.776957,-42.69373 c 1.20136,-3.23563 2.75597,-6.17931 6.17931,-6.17931 z" id="path3387" sodipodi:nodetypes="ccccccc" fill="url(#radialGradient3905)" stroke="none" fill-opacity="1"/>
  <path inkscape:connector-curvature="0" sodipodi:nodetypes="ccccc" id="path3249" d="m 63.962905,101.84478 135.062065,0 c 3.42334,0 5.2032,2.94368 6.17931,6.17931 l -147.420685,0 c 1.20136,-3.23563 2.75597,-6.17931 6.17931,-6.17931 z" fill="url(#linearGradient3907)" stroke="none" fill-opacity="1"/>
  <path inkscape:connector-curvature="0" d="m 63.668653,101.55053 5.152866,0 -49.290806,137.41609 c -6.08886,0 -7.2305,-2.8686 -6.17931,-6.17931 l 44.13794,-125.05747 c 1.20136,-3.23563 2.75597,-6.17931 6.17931,-6.17931 z" id="path3253" sodipodi:nodetypes="cccccc" fill="url(#linearGradient3909)" stroke="none" fill-opacity="1"/>
  <path inkscape:connector-curvature="0" d="m 244.63417,232.78731 c 0.97611,3.31071 0.47269,6.17931 -6.17931,6.17931 l -218.924147,0 c -6.08886,0 -7.2305,-2.8686 -6.17931,-6.17931 l 231.282767,0 z" id="path3267" sodipodi:nodetypes="ccccc" fill="url(#linearGradient3911)" stroke="none" fill-opacity="1"/>
  <path inkscape:connector-curvature="0" d="m 194.46787,101.55053 4.26285,0 c 3.42334,0 5.2032,2.94368 6.17931,6.17931 l 39.72414,125.05747 c 0.97611,3.31071 0.47269,6.17931 -6.17931,6.17931 -22.99734,-68.66647 -23.54231,-70.3021 -43.98699,-137.41609 z" id="path3271" sodipodi:nodetypes="cccccc" fill="url(#linearGradient3914)" stroke="none" fill-opacity="1"/>
  <path inkscape:connector-curvature="0" d="m 63.668653,101.55053 135.062067,0 c 3.42334,0 5.2032,2.94368 6.17931,6.17931 l 39.72414,125.05747 c 0.97611,3.31071 0.47269,6.17931 -6.17931,6.17931 l -218.924147,0 c -6.08886,0 -7.2305,-2.8686 -6.17931,-6.17931 l 44.13794,-125.05747 c 1.20136,-3.23563 2.75597,-6.17931 6.17931,-6.17931 z" id="path3279" sodipodi:nodetypes="ccccccccc" fill="url(#linearGradient3917)" stroke="none" fill-opacity="1"/>
  <path inkscape:connector-curvature="0" sodipodi:nodetypes="ccccccccc" id="path3299" d="m 64.567807,102.496 133.203513,0 c 3.37624,0 5.1316,2.90317 6.09428,6.09428 l 39.17751,123.33659 c 0.96268,3.26515 0.46618,6.09428 -6.09428,6.09428 l -215.911593,0 c -6.005073,0 -7.131003,-2.82913 -6.094278,-6.09428 l 43.53057,-123.33659 c 1.184828,-3.19111 2.718046,-6.09428 6.094278,-6.09428 z" stroke-opacity="0.232" stroke-dasharray="none" fill="none" stroke="#ffffff" stroke-linejoin="round" stroke-linecap="round" stroke-width="1.972" stroke-miterlimit="4"/>
  <path inkscape:connector-curvature="0" d="m 64.567807,102.496 133.203513,0 c 3.37624,0 5.1316,2.90317 6.09428,6.09428 l 39.17751,123.33659 c 0.96268,3.26515 0.46618,6.09428 -6.09428,6.09428 l -215.911593,0 c -6.005073,0 -7.131003,-2.82913 -6.094278,-6.09428 l 43.53057,-123.33659 c 1.184828,-3.19111 2.718046,-6.09428 6.094278,-6.09428 z" id="path3305" sodipodi:nodetypes="ccccccccc" stroke-opacity="0.232" stroke-dasharray="none" fill="none" stroke="#ffffff" stroke-linejoin="round" stroke-linecap="round" stroke-width="0.6" stroke-miterlimit="4"/>
  <path inkscape:connector-curvature="0" sodipodi:nodetypes="cccc" id="path3317" d="m 13.840156,244.69395 c 0.907452,2.6663 2.342886,3.4401 5.847953,3.50878 L 236.64718,248.0078 c 3.60612,-0.0808 7.49774,-1.24376 7.79726,-3.31385" stroke-opacity="0.295" stroke-dasharray="none" fill="none" stroke="#ffffff" stroke-linejoin="round" stroke-linecap="round" stroke-width="2" stroke-miterlimit="4"/>
  <path inkscape:connector-curvature="0" d="m 13.840156,244.69395 c 0.907452,2.6663 2.342886,3.4401 5.847953,3.50878 L 236.64718,248.0078 c 3.24982,-0.25895 7.16874,-1.40826 7.79726,-3.31385" id="path3319" sodipodi:nodetypes="cccc" stroke-opacity="0.295" stroke-dasharray="none" fill="none" stroke="#ffffff" stroke-linejoin="round" stroke-linecap="round" stroke-width="0.7" stroke-miterlimit="4"/>
  <path inkscape:connector-curvature="0" sodipodi:nodetypes="cc" id="path3321" d="m 244.36326,236.37578 0.31315,7.9332" stroke-opacity="0.425" fill="none" stroke="#ffffff" stroke-linejoin="round" stroke-linecap="round" stroke-width="1"/>
  <path inkscape:connector-curvature="0" d="m 13.36117,236.37578 0.31315,7.9332" id="path3323" sodipodi:nodetypes="cc" stroke-opacity="0.425" fill="none" stroke="#ffffff" stroke-linejoin="round" stroke-linecap="round" stroke-width="1"/>
 </g>
 <g id="g3245" transform="matrix(0.82819305,0,0,0.82819305,-4.9192764,26.092)">
  <path sodipodi:nodetypes="cccccccccccccccccccccc" id="path1899" d="M 130.20352,23.19646 C 110.63235,36.613489 89.176411,56.343812 84.454032,77.076622 L 65.660677,27.245083 c -2.819829,16.42502 -2.914208,29.60417 3.005671,48.3095 C 57.485817,66.683052 46.899142,57.269174 38.609635,45.661747 l 8.194409,24.291735 C 32.542885,63.894571 22.24288,55.207791 11.084018,42.952519 L 58.541981,202.85788 c 20.263161,13.67816 46.499069,20.16037 80.678549,17.07728 l -0.91752,-2.28306 c 0.14763,0.009 0.29555,0.0212 0.44294,0.0304 l 0.47458,-0.42617 c 0.14692,-0.10343 0.2956,-0.20152 0.44294,-0.30441 l 0.50622,1.18719 c 32.04484,-14.35996 67.80197,-21.68412 104.8821,-26.51391 l -4.14466,-7.30579 c 1.06839,-0.0982 2.12179,-0.21564 3.19551,-0.30441 L 183.35643,70.805824 c -1.86434,-0.239007 -3.76828,-0.428889 -5.69494,-0.608816 L 166.74615,49.253759 C 159.60629,49.004 151.84308,49.3501 143.96632,50.50183 l -13.7628,-27.30537 z" inkscape:connector-curvature="0" stroke-opacity="1" stroke-dasharray="none" fill="#000000" filter="url(#filter3241)" fill-rule="evenodd" stroke="#000000" stroke-linejoin="miter" fill-opacity="0.493" stroke-linecap="butt" stroke-width="0" stroke-miterlimit="4"/>
  <path sodipodi:nodetypes="ccccc" id="path2822" d="m 132.84574,211.64581 c -32.47911,3.01824 -57.418671,-3.31884 -76.673781,-16.70935 L 11.06974,38.396308 C 28.783254,58.43819 44.237633,68.71564 78.723051,73.573869 L 132.84574,211.64581 z" inkscape:connector-curvature="0" stroke-opacity="1" fill="url(#linearGradient2839)" fill-rule="evenodd" stroke="#d6d6d6" stroke-linejoin="miter" fill-opacity="1" stroke-linecap="butt" stroke-width="1.84"/>
  <path sodipodi:nodetypes="ccccc" id="path1873" d="m 133.74778,209.88691 c 30.45067,-14.05795 64.44041,-21.21523 99.67589,-25.94344 L 168.02545,65.219201 c -28.76917,-1.524644 -57.97939,1.250714 -87.94931,11.432707 l 53.67164,133.235002 z" inkscape:connector-curvature="0" stroke-opacity="1" fill="url(#linearGradient2841)" fill-rule="evenodd" stroke="#a8a8a8" stroke-linejoin="miter" fill-opacity="1" stroke-linecap="butt" stroke-width="1.84"/>
  <path sodipodi:nodetypes="ccccc" id="path2768" d="m 132.84574,209.00749 c 27.16796,-19.70472 61.69666,-29.3046 99.67589,-32.53924 L 174.79078,65.658918 c -30.04711,-3.968501 -69.351,0.34953 -92.910558,14.071026 L 132.84574,209.00749 z" inkscape:connector-curvature="0" stroke-opacity="1" fill="url(#linearGradient2843)" fill-rule="evenodd" stroke="#ababab" stroke-linejoin="miter" fill-opacity="1" stroke-linecap="butt" stroke-width="1.84"/>
  <path d="m 134.19879,209.44721 c 15.93595,-24.29987 55.23463,-30.16937 87.4983,-38.25559 L 159.00501,44.55238 C 133.46028,43.631801 99.674321,50.986341 82.331252,77.531347 L 134.19879,209.44721 z" id="path2788" sodipodi:nodetypes="ccccc" inkscape:connector-curvature="0" stroke-opacity="1" stroke-dasharray="none" fill="#585858" fill-rule="evenodd" stroke="#000000" stroke-linejoin="miter" fill-opacity="0.646" stroke-linecap="butt" stroke-width="0" stroke-miterlimit="4"/>
  <path sodipodi:nodetypes="ccccc" id="path2778" d="m 134.19879,209.44721 c 15.93595,-24.29987 53.88155,-35.44601 86.14522,-43.53223 l -61.339,-121.3626 C 133.46028,43.631801 99.674321,50.986341 82.331252,77.531347 L 134.19879,209.44721 z" inkscape:connector-curvature="0" stroke-opacity="1" fill="url(#linearGradient2845)" fill-rule="evenodd" stroke="#dfdfdf" stroke-linejoin="miter" fill-opacity="1" stroke-linecap="butt" stroke-width="1.84"/>
  <path d="m 134.19879,208.12805 c 3.24984,-24.35926 36.25812,-35.53131 60.88799,-44.41167 L 124.27631,19.048648 C 104.33049,33.135763 82.315071,54.318669 80.07614,76.212189 l 54.12265,131.915861 z" id="path2800" sodipodi:nodetypes="ccccc" inkscape:connector-curvature="0" opacity="0.429" stroke-opacity="1" stroke-dasharray="none" fill="#352e25" fill-rule="evenodd" stroke="#000000" stroke-linejoin="miter" fill-opacity="0.556" stroke-linecap="butt" stroke-width="0" stroke-miterlimit="4"/>
  <path sodipodi:nodetypes="ccccc" id="path2790" d="m 134.19879,208.12805 c 3.24984,-24.35926 30.39483,-42.12711 55.0247,-51.00746 L 124.27631,19.048648 C 104.33049,33.135763 82.315071,54.318669 80.07614,76.212189 l 54.12265,131.915861 z" inkscape:connector-curvature="0" stroke-opacity="1" fill="url(#linearGradient2847)" fill-rule="evenodd" stroke="#bfbfbf" stroke-linejoin="miter" fill-opacity="1" stroke-linecap="butt" stroke-width="1.84"/>
  <path sodipodi:nodetypes="ccccc" id="path2804" d="m 131.04164,208.12807 c -19.6099,3.72827 -35.253928,-6.08377 -44.651197,-17.14908 L 37.22903,41.034625 c 12.79288,18.45465 31.373469,31.26662 48.710384,45.291112 L 131.04164,208.12807 z" inkscape:connector-curvature="0" stroke-opacity="1" fill="url(#linearGradient2849)" fill-rule="evenodd" stroke="#c4c0c0" stroke-linejoin="miter" fill-opacity="1" stroke-linecap="butt" stroke-width="1.84"/>
  <path sodipodi:nodetypes="cccccc" id="path2802" d="M 132.39471,209.44723 117.962,173.39021 62.937293,23.006124 c -2.979887,17.881927 -2.764969,31.806379 4.961232,53.645782 L 107.58849,200.21311 c 2.58304,8.62126 14.09024,8.54199 24.80622,9.23412 z" inkscape:connector-curvature="0" stroke-opacity="1" fill="url(#linearGradient2851)" fill-rule="evenodd" stroke="#9c9c9c" stroke-linejoin="miter" fill-opacity="1" stroke-linecap="butt" stroke-width="1.84"/>
 </g>
 <g id="g3456" transform="translate(-0.88625461,-3.1203471)">
  <g id="g3428">
   <g id="g3401">
    <g id="g3254" fill="url(#linearGradient3838)" font-family="Bitstream Vera Sans" stroke="none" font-style="normal" fill-opacity="1" font-weight="normal" font-size="14">
     <path inkscape:connector-curvature="0" d="m 13.807087,-5.6925853 -1.4375,-3.8125 1.131371,1.1313709 1.4375,3.8125 -1.131371,-1.1313709 z" id="path3300" fill="url(#linearGradient3836)" stroke="none" fill-opacity="1"/>
     <path inkscape:connector-curvature="0" d="m 12.375,-9.5 1.125,1.125 1.09375,0 c 0.642573,9e-6 1.149085,0.167327 1.5,0.5 L 14.96875,-9 c -0.350916,-0.332673 -0.857427,-0.4999913 -1.5,-0.5 l -1.09375,0 z" id="path3288" fill="url(#linearGradient3838)" stroke="none" fill-opacity="1"/>
     <path inkscape:connector-curvature="0" d="m 14.991868,-8.9773043 c 0.332146,0.3321454 0.502713,0.8158247 0.502719,1.409719 l 1.131371,1.1313709 c -6e-6,-0.5938943 -0.170574,-1.0775736 -0.502719,-1.409719 l -1.131371,-1.1313709 z" id="path3294" fill="url(#linearGradient3838)" stroke="none" fill-opacity="1"/>
     <path inkscape:connector-curvature="0" d="m 15.494587,-7.5675853 c -6e-6,0.615241 -0.180344,1.073574 -0.53125,1.40625 l 1.131371,1.1313709 c 0.350906,-0.332676 0.531244,-0.791009 0.53125,-1.40625 l -1.131371,-1.1313709 z" id="path3296" fill="url(#linearGradient3838)" stroke="none" fill-opacity="1"/>
     <path inkscape:connector-curvature="0" d="m 14.963337,-6.1613353 c -0.286479,0.271597 -0.675393,0.418881 -1.15625,0.46875 l 1.131371,1.1313709 c 0.480857,-0.049869 0.869771,-0.197153 1.15625,-0.46875 l -1.131371,-1.1313709 z" id="path3298" fill="url(#linearGradient3838)" stroke="none" fill-opacity="1"/>
     <path inkscape:connector-curvature="0" d="m 9.9475186,-5.6345243 1.1929404,-3.047568 1.131371,1.1313709 -1.192941,3.047568 -1.1313704,-1.1313709 z" id="path3306" fill="url(#linearGradient3846)" stroke="none" fill-opacity="1"/>
     <path inkscape:connector-curvature="0" d="m 16.057087,-9.8488353 c -0.58334,-0.5195207 -1.449875,-0.7812397 -2.59375,-0.7812497 l 1.131371,1.1313709 c 1.143875,1e-5 2.01041,0.261729 2.59375,0.7812497 l -1.131371,-1.1313709 z" id="path3280" fill="url(#linearGradient3838)" stroke="none" fill-opacity="1"/>
     <path inkscape:connector-curvature="0" d="m 13.463337,-10.630085 -1.53125,0 1.131371,1.1313709 1.53125,0 -1.131371,-1.1313709 z" id="path3282" fill="url(#linearGradient3838)" stroke="none" fill-opacity="1"/>
     <path inkscape:connector-curvature="0" d="m 11.932087,-10.630085 -1.5625,0 1.131371,1.1313709 1.5625,0 -1.131371,-1.1313709 z" id="path3284" fill="url(#linearGradient3838)" stroke="none" fill-opacity="1"/>
     <path inkscape:connector-curvature="0" d="M 10.369587,-10.598835 6.9504776,-1.4142743 8.0818485,-0.28290343 11.500958,-9.4674641 10.369587,-10.598835 z" id="path3258" fill="url(#linearGradient3838)" stroke="none" fill-opacity="1"/>
     <path inkscape:connector-curvature="0" d="m 10.338337,-10.630085 0.03125,0.03125 1.131371,1.1313709 -0.03125,-0.03125 -1.131371,-1.1313709 z" id="path3256" fill="url(#linearGradient3838)" stroke="none" fill-opacity="1"/>
     <path inkscape:connector-curvature="0" d="m 6.9504776,-1.4142743 1.4375,0.028655 1.1313709,1.13137087 -1.4375,-0.028655 -1.1313709,-1.13137087 z" id="path3260" fill="url(#linearGradient3858)" stroke="none" fill-opacity="1"/>
     <path inkscape:connector-curvature="0" d="m 8.3879776,-1.3856193 1.236663,-3.149966 1.1313704,1.1313709 -1.2366625,3.14996597 -1.1313709,-1.13137087 z" id="path3262" fill="url(#linearGradient3860)" stroke="none" fill-opacity="1"/>
     <path inkscape:connector-curvature="0" d="m 9.6246406,-4.5355853 3.2327334,0 1.131371,1.1313709 -3.232734,0 -1.1313704,-1.1313709 z" id="path3264" fill="url(#linearGradient3862)" stroke="none" fill-opacity="1"/>
     <path inkscape:connector-curvature="0" d="m 12.857374,-4.5355853 1.225659,3.149967 1.131371,1.13137087 -1.225659,-3.14996697 -1.131371,-1.1313709 z" id="path3266" fill="url(#linearGradient3838)" stroke="none" fill-opacity="1"/>
     <path inkscape:connector-curvature="0" d="m 14.083033,-1.3856183 1.4375,0 1.131371,1.13137087 -1.4375,0 -1.131371,-1.13137087 z" id="path3268" fill="url(#linearGradient3866)" stroke="none" fill-opacity="1"/>
     <path inkscape:connector-curvature="0" d="m 15.520533,-1.3856183 -1.275946,-3.181967 1.131371,1.1313709 1.275946,3.18196697 -1.131371,-1.13137087 z" id="path3270" fill="url(#linearGradient3838)" stroke="none" fill-opacity="1"/>
     <path inkscape:connector-curvature="0" d="m 16.15625,-9.75 c 0.512125,0.5121258 0.781243,1.255271 0.78125,2.1875 -7e-6,1.007168 -0.287117,1.7662812 -0.875,2.28125 -0.443081,0.391156 -1.04603,0.6247032 -1.8125,0.71875 l 1.125,1.125 c 0.76647,-0.094047 1.36942,-0.327594 1.8125,-0.71875 0.587883,-0.514969 0.874994,-1.274082 0.875,-2.28125 -8e-6,-0.9322293 -0.237875,-1.675374 -0.75,-2.1875 L 16.15625,-9.75 z" id="path3272" fill="url(#linearGradient3871)" stroke="none" fill-opacity="1"/>
     <path inkscape:connector-curvature="0" d="m 16.16946,-9.7436677 c -0.03615,-0.036153 -0.07361,-0.071211 -0.112373,-0.1051676 l 1.131371,1.1313709 c 0.03876,0.033957 0.07622,0.069015 0.112373,0.1051675 L 16.16946,-9.7436677 z" id="path3278" fill="url(#linearGradient3838)" stroke="none" fill-opacity="1"/>
     <path inkscape:connector-curvature="0" d="m 10.369587,-10.630085 -0.03125,0 1.131371,1.1313709 0.03125,0 -1.131371,-1.1313709 z" id="path3286" fill="url(#linearGradient3838)" stroke="none" fill-opacity="1"/>
     <path inkscape:connector-curvature="0" d="m 14.963337,-9.0050853 c 0.0096,0.00914 0.01915,0.018399 0.02853,0.027781 l 1.131371,1.1313709 c -0.0094,-0.00938 -0.01889,-0.018642 -0.02853,-0.027781 l -1.131371,-1.1313709 z" id="path3292" fill="url(#linearGradient3838)" stroke="none" fill-opacity="1"/>
     <path inkscape:connector-curvature="0" d="m 11.140459,-8.6820923 1.185665,2.990257 1.131371,1.1313709 -1.185665,-2.990257 -1.131371,-1.1313709 z" id="path3302" fill="url(#linearGradient3838)" stroke="none" fill-opacity="1"/>
     <path inkscape:connector-curvature="0" d="m 12.326124,-5.6918353 -2.3786054,0.057311 1.1313704,1.1313709 2.378606,-0.057311 -1.131371,-1.1313709 z" id="path3304" fill="url(#linearGradient3838)" stroke="none" fill-opacity="1"/>
    </g>
    <path inkscape:connector-curvature="0" d="m 10.400579,-10.618865 0.03125,0.03125 -3.4191096,9.1845594 1.4375,0.028655 1.2366631,-3.149966 3.1850285,0.035779 1.273364,3.1141882 1.4375,0 -1.275946,-3.181967 c 0.76647,-0.094047 1.369419,-0.327594 1.8125,-0.71875 0.587883,-0.514969 0.874993,-1.274082 0.875,-2.28125 -8e-6,-0.998038 -0.287116,-1.766267 -0.875,-2.2812505 -0.58334,-0.5195191 -1.449875,-0.7812381 -2.59375,-0.7812481 l -1.53125,0 -1.5625,0 -0.03125,0 z m 2.03125,1.1249984 1.09375,0 c 0.642573,9e-6 1.095632,0.2207787 1.446548,0.5534517 0.350905,0.332691 0.584696,0.7733793 0.584702,1.3840483 -6e-6,0.615241 -0.180344,1.073574 -0.53125,1.40625 -0.286479,0.271597 -0.675393,0.418881 -1.15625,0.46875 l -1.4375,-3.8125 z m -1.246945,0.9833482 1.096579,2.847719 -2.271702,0.039494 1.175123,-2.8872128 z" id="text2383" sodipodi:nodetypes="cccccccccsssccccccssscccccc" fill="#454545" font-family="Bitstream Vera Sans" stroke="none" font-style="normal" fill-opacity="1" font-weight="normal" font-size="14"/>
   </g>
  </g>
 </g>
 <g id="g2557" transform="matrix(0.66070425,-0.71290763,0.71290763,0.66070425,-26.577944,140.30833)">
  <path transform="matrix(0.9793342,0,0,0.9793342,-3.9695441,-12.876857)" id="path2551" d="m 63.51701,86.44106 c -7.72891,0.03683 -15.51505,0.90644 -22.75,2.9375 -4.57148,1.28334 -8.76702,3.77771 -11.34375,9.65625 l -0.09375,0 0.21875,-0.625 -11.875,-1.84375 c -1.06857,-0.27149 -1.54946,6.18623 -0.59375,6.09375 l 6,0.0937 4.96875,0.46875 c -0.60292,2.4297 -1.03532,5.25238 -1.1875,8.59375 -0.4719,10.36146 3.86693,18.48754 10.75,24.03125 l -17.4375,10.34375 c -4.17578,4.48206 -0.15337,9.6295 8.71875,7.9375 l 16.78125,-13.21875 c 10.76762,5.35937 23.38043,6.86292 35.34375,6.4375 13.25539,-0.46805 24.5798,-7.7779 29.21875,-14.34375 0.46638,-0.6601 0.91861,-1.32329 1.34375,-2 3.18982,-2.97127 6.1269,-6.15011 8.875,-9.5 0.82697,-2.33891 -1.00719,-3.5716 -2.46875,-1.9375 -0.23302,0.29723 -0.48086,0.58087 -0.71875,0.875 l -0.5625,0 c 0.80564,-2.10826 1.52237,-4.25733 2.21875,-6.40625 0.0257,-0.0792 0.0391,-0.16851 0.0625,-0.25 l 28.09375,3.96875 c 0.003,0.26709 0.003,0.52947 0.0313,0.78125 0.15884,1.42472 0.33353,2.86226 0.53125,4.28125 -0.0282,-0.0113 -0.0642,-0.0229 -0.0937,-0.0313 -0.0777,-0.15738 -0.17351,-0.31095 -0.25,-0.46875 -1.08205,-1.90672 -3.12501,-1.08605 -2.8125,1.375 1.53975,3.00523 3.24926,5.90931 5.09375,8.75 0.60097,2.16716 1.32659,4.29752 2.25,6.40625 3.22477,7.36418 12.82786,16.81509 25.71875,19.9375 14.16356,3.43442 29.86467,4.28599 43.34375,-1.8125 3.3514,-1.51631 6.37927,-3.5622 8.9375,-6.125 l 19.3125,21.28125 c 8.46857,3.14024 13.31196,-1.29362 9.9375,-6.40625 l -24.71875,-20.875 c 1.61922,-2.90885 2.78217,-6.251 3.375,-10 0.23801,-1.50514 0.39834,-2.88783 0.5,-4.21875 l 12.15625,2.375 c 0.88996,0.36034 2.25792,-5.95654 1.15625,-6 l -13.21875,-1 c -0.43227,-9.08435 -4.65037,-13.29312 -9.71875,-15.90625 -6.67916,-3.44362 -14.09242,-5.8794 -21.65625,-7.46875 -19.32979,-4.061675 -39.50503,-2.678506 -50.09375,1.03125 -3.63399,1.27316 -6.57347,4.56697 -8.25,8.03125 l 0.5625,-1.4375 -30.25,-3.21875 0.0313,0.53125 c -0.86265,-3.90038 -3.12911,-7.988834 -6.59375,-10.0625 C 102.7336,91.7415 83.26869,86.34692 63.51701,86.44106 z m 0.34375,1.09375 c 19.0365,-0.09072 37.8152,5.13408 47.09375,10.6875 3.69375,2.21079 5.96082,6.78286 6.5625,10.875 l -86.3125,-9.875 c 2.4982,-5.33354 6.46549,-7.64097 10.75,-8.84375 6.97299,-1.95751 14.45719,-2.80825 21.90625,-2.84375 z m 118.4375,13.75 c 7.62029,-0.0448 15.94318,0.66236 24.09375,2.375 7.28995,1.5318 14.43769,3.86858 20.875,7.1875 4.86704,2.50932 8.90188,6.53088 9.34375,15.21875 l -30.78125,-3.75 c -4.92214,-2.64442 -10.04703,-4.49782 -15.34375,-5.71875 l -22.65625,-2.8125 -0.0625,1.0625 -17.8125,-2.03125 c 1.57572,-3.50013 4.49786,-6.87454 8.15625,-8.15625 5.74049,-2.01118 14.38999,-3.31745 24.1875,-3.375 z m -152.53125,2.125 62.0625,6.0625 c -8.79691,1.0807 -17.42257,3.97388 -25.8125,9.53125 l -27.15625,16.125 c -6.61511,-5.34262 -10.76657,-13.15504 -10.3125,-23.125 0.15315,-3.36249 0.59402,-6.18594 1.21875,-8.59375 z m 66.78125,9.65625 20.8125,0.75 c -0.0287,0.10445 -0.0611,0.2118 -0.0937,0.3125 -1.22593,3.78308 -2.54485,7.55732 -4.25,11.15625 -2.17338,2.22958 -4.53735,4.34655 -7.125,6.3125 -1.01099,0.8955 -0.38147,3.35261 1.3125,2.90625 -5.18244,5.70362 -15.08267,11.34796 -26.46875,11.75 -11.50639,0.40917 -23.63604,-1.01738 -34,-6.15625 l 22.25,-17.5 c 8.62799,-6.2747 17.87744,-9.0704 27.5625,-9.53125 z m 41.8125,0.96875 9.09375,0.90625 c -0.0179,0.0729 -0.0459,0.14625 -0.0625,0.21875 l -9.03125,-1.125 z m 10.78125,1.0625 18.5,1.8125 -0.0313,0.65625 6.09375,0.8125 -24.625,-3.03125 c 0.0219,-0.0845 0.0388,-0.16508 0.0625,-0.25 z m -0.46875,2.875 54.875,7.75 c 4.00386,2.22395 7.7997,5.04102 11.3125,8.625 l 13.9375,15.375 c -2.54243,2.65169 -5.57329,4.745 -8.96875,6.28125 -12.99102,5.87767 -28.13055,5.06006 -41.78125,1.75 -12.42411,-3.00935 -21.67323,-12.08997 -24.78125,-19.1875 -0.2584,-0.5901 -0.48941,-1.18585 -0.71875,-1.78125 0.39262,0.53411 0.81277,1.06685 1.21875,1.59375 1.9845,2.55875 3.79604,-0.45035 2.84375,-1.75 -2.58907,-3.02721 -4.80779,-6.19156 -6.71875,-9.46875 -0.50439,-2.70725 -0.88212,-5.44849 -1.1875,-8.1875 -0.0356,-0.31919 -0.0371,-0.65596 -0.0313,-1 z m 64.6875,9.125 23.1875,3.28125 c -0.0955,1.3569 -0.25527,2.76486 -0.5,4.3125 -0.53529,3.38508 -1.52778,6.41937 -2.9375,9.09375 l -14.71875,-12.4375 c -1.64565,-1.53825 -3.32005,-2.96085 -5.03125,-4.25 z" inkscape:connector-curvature="0" fill="#000000" filter="url(#filter3459)" fill-rule="evenodd" stroke="none" fill-opacity="0.44"/>
  <path d="m 154.3286,89.259777 c 25.05595,-6.999723 56.69291,0.110058 69.73923,7.880614 5.44312,3.241989 7.84655,11.531389 6.38636,16.015429 -2.08656,6.40756 -4.45673,12.7211 -8.47001,18.3738 -4.51845,6.36419 -15.53224,13.45761 -28.44324,13.91129 -14.18641,0.50202 -29.33325,-1.75228 -41.00052,-10.16854 -7.45281,-5.37611 -12.23958,-13.60052 -11.75094,-24.27737 0.69514,-15.18853 6.69054,-19.821986 13.53912,-21.735223 z" id="path2583" sodipodi:nodetypes="csssssss" inkscape:connector-curvature="0" fill="url(#radialGradient5067)" fill-rule="evenodd" stroke="none" fill-opacity="1"/>
  <path sodipodi:nodetypes="csssssss" id="path2589" d="M 100.28478,82.512104 C 77.869551,70.955357 46.445877,71.576249 32.540595,76.447954 c -5.801488,2.032549 -9.705251,9.471873 -9.196643,14.033641 0.726763,6.518634 1.741168,13.002785 4.444659,19.176565 3.04379,6.95086 12.11077,15.8623 24.278116,18.80946 13.368607,3.24166 28.188354,4.04106 40.910905,-1.71514 8.126878,-3.67694 14.280368,-10.59012 15.905968,-20.87008 2.31251,-14.623968 -2.47204,-20.211481 -8.59882,-23.370296 z" inkscape:connector-curvature="0" fill="url(#radialGradient5069)" fill-rule="evenodd" stroke="none" fill-opacity="1"/>
  <g transform="matrix(0.1515408,0,0,0.1515408,-9.0502416,36.3771)" id="g3975">
   <path sodipodi:nodetypes="ccccc" id="path3951" d="m 984.213,525.23078 c 6.15423,8.399 -5.58581,27.82484 -18.41065,11.28889 -23.08229,-29.95674 -42.78279,-61.73943 -59.80716,-94.96703 -2.01967,-15.90455 11.20341,-21.135 18.19618,-8.81279 15.7119,32.41374 35.1783,63.44341 60.02163,92.49093 z" inkscape:connector-curvature="0" stroke-opacity="1" fill="#d4c01e" fill-rule="evenodd" stroke="#5c580e" stroke-linejoin="miter" fill-opacity="0.44" stroke-linecap="butt" stroke-width="1"/>
   <path d="m 656.44394,492.6305 c -7.79441,6.90398 -0.43788,28.37659 15.60006,14.93417 28.90661,-24.38455 54.89521,-51.27026 78.57469,-80.13521 5.34438,-15.11527 -6.46987,-23.02923 -15.91521,-12.46886 -22.22434,28.34772 -47.82457,54.54713 -78.25954,77.6699 z" id="path3949" sodipodi:nodetypes="ccccc" inkscape:connector-curvature="0" stroke-opacity="1" fill="#d4c01e" fill-rule="evenodd" stroke="#5c580e" stroke-linejoin="miter" fill-opacity="0.44" stroke-linecap="butt" stroke-width="1"/>
   <g id="g3942">
    <g id="g3910">
     <path sodipodi:nodetypes="ccccccccc" id="path3904" d="M 1646.4436,713.33621 1383.5273,491.00352 c -54.9397,-51.35418 -115.7364,-80.44993 -180.2749,-95.32648 l -146.4567,-18.13467 -1.5119,24.44687 139.9226,18.33563 c 61.2287,13.31916 117.2689,41.00835 165.5286,90.24594 l 221.5734,243.9799 c 54.7282,20.29382 85.9427,-8.17408 64.1352,-41.2145 z" inkscape:connector-curvature="0" stroke-opacity="1" fill="#292d43" fill-rule="evenodd" stroke="#000000" stroke-linejoin="miter" fill-opacity="1" stroke-linecap="butt" stroke-width="1"/>
     <path sodipodi:nodetypes="ccccc" id="path3906" d="M 1063.9757,385.23144 85.052771,273.31972 l 3.35693,29.82372 976.298799,95.45292 -0.7328,-13.36492 z" inkscape:connector-curvature="0" stroke-opacity="1" fill="#292d43" fill-rule="evenodd" stroke="#000000" stroke-linejoin="miter" fill-opacity="1" stroke-linecap="butt" stroke-width="1"/>
     <path d="M 94.871795,281.89744 1051.2821,387.02564" id="path3908" inkscape:connector-curvature="0" stroke-opacity="0.362" fill="none" stroke="#ffffff" stroke-linejoin="miter" stroke-linecap="butt" stroke-width="1"/>
    </g>
    <path sodipodi:nodetypes="ccccc" id="path3920" d="m 1069.2308,397.28205 158.9743,21.79487 c 55.4802,19.15517 107.3837,44.86781 147.4359,92.3077 l 208.9744,230.76923 c 11.3947,10.68568 26.9937,15.06502 53.8461,2.5641" inkscape:connector-curvature="0" stroke-opacity="0.44" fill="none" filter="url(#filter3938)" stroke="#ffffff" stroke-linejoin="miter" stroke-linecap="butt" stroke-width="1"/>
   </g>
   <g id="g3915">
    <path sodipodi:nodetypes="ccccccccc" id="path3886" d="M 102.5641,587.02564 398.71795,411.38461 c 62.697,-41.52956 127.47779,-60.1375 193.58974,-64.10256 l 147.4359,6.41025 -2.56411,24.35898 -141.02564,-5.12821 c -62.58981,2.97826 -122.44661,20.98812 -178.20513,61.53846 L 158.97436,638.30769 c -57.33622,10.93458 -83.396261,-22.3167 -56.41026,-51.28205 z" inkscape:connector-curvature="0" stroke-opacity="1" fill="#292d43" fill-rule="evenodd" stroke="#000000" stroke-linejoin="miter" fill-opacity="1" stroke-linecap="butt" stroke-width="1"/>
    <path sodipodi:nodetypes="ccccc" id="path3888" d="m 107.69231,619.07692 c -5.82582,-6.32017 -4.39019,-15.06082 10.25641,-28.20513 L 428.20513,403.69231 c 58.54701,-34.76994 117.09401,-53.64379 175.64102,-47.4359 l 123.07693,5.12821" inkscape:connector-curvature="0" stroke-opacity="0.362" stroke-dasharray="none" fill="none" filter="url(#filter3898)" stroke="#ffffff" stroke-linejoin="miter" stroke-linecap="butt" stroke-width="4" stroke-miterlimit="4"/>
    <path sodipodi:nodetypes="ccccc" id="path3902" d="M 730.76923,362.66666 1600,469.07692 l -10.2564,28.20513 -862.82052,-121.79487 3.84615,-12.82052 z" inkscape:connector-curvature="0" stroke-opacity="1" fill="#292d43" fill-rule="evenodd" stroke="#000000" stroke-linejoin="miter" fill-opacity="1" stroke-linecap="butt" stroke-width="1"/>
   </g>
   <rect rx="5.806" ry="6.03" y="435.55" x="910.44" height="12.06" width="19.543" id="rect3957" fill="#000000" stroke="none" fill-opacity="1"/>
   <g id="g3270">
    <g transform="translate(-31.372549,168.62745)" id="g3256">
     <path d="m 413.95098,32.254902 c -49.94823,0.23804 -100.1503,5.90551 -146.90625,19.03125 -45.43949,12.75616 -85.2316,43.67098 -89.84375,144.937498 -3.24212,71.18568 28.52023,125.99958 77.96875,161.84375 77.41105,56.11361 177.90607,71.15961 272.03125,67.8125 85.66303,-3.02476 158.73951,-50.31809 188.71875,-92.75 26.62772,-37.68826 42.34337,-79.77886 56.1875,-122.5 9.68816,-29.89644 -6.22925,-85.16594 -42.34375,-106.78125 C 667.54793,66.611232 541.59646,31.646562 413.95098,32.254902 z m 2.25,7.125 c 123.02353,-0.58629 244.38098,33.11092 304.34375,68.999998 34.80678,20.83263 50.18111,74.09234 40.84375,102.90625 -13.34281,41.17426 -28.49271,81.73891 -54.15625,118.0625 -28.89371,40.89548 -99.31377,86.49102 -181.875,89.40625 -90.71697,3.22591 -187.57946,-11.26197 -262.1875,-65.34375 -47.65802,-34.54627 -78.28097,-87.39191 -75.15625,-156 4.44513,-97.599698 42.7996,-127.361978 86.59375,-139.656248 45.06295,-12.65045 93.45411,-18.14558 141.59375,-18.375 z" id="path2468" inkscape:connector-curvature="0" stroke-opacity="1" fill="#000000" fill-rule="evenodd" stroke="#000000" stroke-linejoin="miter" fill-opacity="1" stroke-linecap="butt" stroke-width="1"/>
     <path d="m 276.40802,57.138722 c 160.2238,-44.97939 362.5309,0.70722 445.9574,50.639848 34.8068,20.83265 50.1759,74.09932 40.8385,102.91323 -13.3428,41.17426 -28.4992,81.74421 -54.1627,118.0678 -28.8938,40.89549 -99.3231,86.47699 -181.8843,89.39222 -90.717,3.22591 -187.57566,-11.25996 -262.1837,-65.34174 -47.65802,-34.54627 -78.26772,-87.39531 -75.143,-156.0034 4.44514,-97.599718 42.78365,-127.373688 86.5778,-139.667958 z" id="path3243" sodipodi:nodetypes="csssssss" inkscape:connector-curvature="0" fill="url(#radialGradient5071)" fill-rule="evenodd" stroke="none" fill-opacity="1"/>
    </g>
    <g transform="matrix(-0.9795977,-0.2009683,-0.2009683,0.9795977,1721.5703,357.18832)" id="g3260">
     <path id="path3262-5" d="m 413.95098,32.254902 c -49.94823,0.23804 -100.1503,5.90551 -146.90625,19.03125 -45.43949,12.75616 -85.2316,43.67098 -89.84375,144.937498 -3.24212,71.18568 28.52023,125.99958 77.96875,161.84375 77.41105,56.11361 177.90607,71.15961 272.03125,67.8125 85.66303,-3.02476 158.73951,-50.31809 188.71875,-92.75 26.62772,-37.68826 42.34337,-79.77886 56.1875,-122.5 9.68816,-29.89644 -6.22925,-85.16594 -42.34375,-106.78125 C 667.54793,66.611232 541.59646,31.646562 413.95098,32.254902 z m 2.25,7.125 c 123.02353,-0.58629 244.38098,33.11092 304.34375,68.999998 34.80678,20.83263 50.18111,74.09234 40.84375,102.90625 -13.34281,41.17426 -28.49271,81.73891 -54.15625,118.0625 -28.89371,40.89548 -99.31377,86.49102 -181.875,89.40625 -90.71697,3.22591 -187.57946,-11.26197 -262.1875,-65.34375 -47.65802,-34.54627 -78.28097,-87.39191 -75.15625,-156 4.44513,-97.599698 42.7996,-127.361978 86.59375,-139.656248 45.06295,-12.65045 93.45411,-18.14558 141.59375,-18.375 z" inkscape:connector-curvature="0" stroke-opacity="1" fill="#000000" fill-rule="evenodd" stroke="#000000" stroke-linejoin="miter" fill-opacity="1" stroke-linecap="butt" stroke-width="1"/>
     <path sodipodi:nodetypes="csssssss" id="path3264-4" d="m 276.40802,57.138722 c 160.2238,-44.97939 362.5309,0.70722 445.9574,50.639848 34.8068,20.83265 50.1759,74.09932 40.8385,102.91323 -13.3428,41.17426 -28.4992,81.74421 -54.1627,118.0678 -28.8938,40.89549 -99.3231,86.47699 -181.8843,89.39222 -90.717,3.22591 -187.57566,-11.25996 -262.1837,-65.34174 -47.65802,-34.54627 -78.26772,-87.39531 -75.143,-156.0034 4.44514,-97.599718 42.78365,-127.373688 86.5778,-139.667958 z" inkscape:connector-curvature="0" fill="url(#radialGradient5073)" fill-rule="evenodd" stroke="none" fill-opacity="1"/>
    </g>
   </g>
   <path d="m 156.36364,323.27273 c -15.28118,85.56365 0.74856,162.14022 96.36363,216.36363 87.37366,48.99029 216.58962,72.40889 326.36364,33.63637" id="path3284-0" sodipodi:nodetypes="ccc" inkscape:connector-curvature="0" stroke-opacity="0.614" stroke-dasharray="none" fill="none" filter="url(#filter3286)" stroke="#ffffff" stroke-linejoin="miter" stroke-linecap="butt" stroke-width="3" stroke-miterlimit="4"/>
   <path d="m 928.18182,418.72727 c 8.50551,122.47887 65.72482,222.35316 222.72728,253.63637 70.8238,9.51723 142.0414,17.0659 220,-9.09091" id="path3290" sodipodi:nodetypes="ccc" inkscape:connector-curvature="0" stroke-opacity="0.633" stroke-dasharray="none" fill="none" filter="url(#filter3292)" stroke="#ffffff" stroke-linejoin="miter" stroke-linecap="butt" stroke-width="3" stroke-miterlimit="4"/>
   <rect id="rect3955" width="19.543" height="12.06" x="716.25" y="420.71" ry="6.03" rx="5.806" fill="#000000" stroke="none" fill-opacity="1"/>
   <path d="m 740.64516,334.06452 195.48387,20.64516 -6.45161,16.77419 -187.74194,-19.35484 -1.29032,-18.06451 z" id="path3959" inkscape:connector-curvature="0" stroke-opacity="1" fill="#000000" fill-rule="evenodd" stroke="#000000" stroke-linejoin="miter" fill-opacity="1" stroke-linecap="butt" stroke-width="1"/>
   <path d="m 163.17241,278.27586 -9.56321,28.39081 -71.126442,-0.89656 c -6.176245,0.5977 -3.020607,-41.20277 3.885058,-39.44827 l 76.804594,11.95402 z" id="path3961" sodipodi:nodetypes="ccccc" inkscape:connector-curvature="0" stroke-opacity="1" fill="url(#linearGradient5075)" fill-rule="evenodd" stroke="#000000" stroke-linejoin="miter" fill-opacity="1" stroke-linecap="butt" stroke-width="1"/>
   <path sodipodi:nodetypes="ccccc" id="path3971" d="m 1510.2493,456.44561 1.0984,29.93805 78.907,15.47378 c 5.7515,2.32869 14.6083,-38.6444 7.4887,-38.9253 l -87.4941,-6.48653 z" inkscape:connector-curvature="0" stroke-opacity="1" fill="url(#linearGradient5077)" fill-rule="evenodd" stroke="#000000" stroke-linejoin="miter" fill-opacity="1" stroke-linecap="butt" stroke-width="1"/>
  </g>
 </g>
</svg>
