<?xml version="1.0" encoding="UTF-8" standalone="no"?>
<!-- Created with Inkscape (http://www.inkscape.org/) -->
<svg
   xmlns:dc="http://purl.org/dc/elements/1.1/"
   xmlns:cc="http://web.resource.org/cc/"
   xmlns:rdf="http://www.w3.org/1999/02/22-rdf-syntax-ns#"
   xmlns:svg="http://www.w3.org/2000/svg"
   xmlns="http://www.w3.org/2000/svg"
   xmlns:xlink="http://www.w3.org/1999/xlink"
   xmlns:sodipodi="http://sodipodi.sourceforge.net/DTD/sodipodi-0.dtd"
   xmlns:inkscape="http://www.inkscape.org/namespaces/inkscape"
   id="svg2"
   sodipodi:version="0.32"
   inkscape:version="0.44"
   width="256"
   height="256"
   version="1.0"
   sodipodi:docbase="/media/disk-hda3/svg1/apps"
   sodipodi:docname="help2.svg">
  <metadata
     id="metadata7">
    <rdf:RDF>
      <cc:Work
         rdf:about="">
        <dc:format>image/svg+xml</dc:format>
        <dc:type
           rdf:resource="http://purl.org/dc/dcmitype/StillImage" />
      </cc:Work>
    </rdf:RDF>
  </metadata>
  <defs
     id="defs5">
    <linearGradient
       id="linearGradient2853">
      <stop
         style="stop-color:black;stop-opacity:1;"
         offset="0"
         id="stop2855" />
      <stop
         id="stop2861"
         offset="0.5"
         style="stop-color:black;stop-opacity:0.83505154;" />
      <stop
         style="stop-color:black;stop-opacity:0.74226803;"
         offset="0.75"
         id="stop2863" />
      <stop
         style="stop-color:black;stop-opacity:0;"
         offset="1"
         id="stop2857" />
    </linearGradient>
    <linearGradient
       inkscape:collect="always"
       id="linearGradient2841">
      <stop
         style="stop-color:black;stop-opacity:1;"
         offset="0"
         id="stop2843" />
      <stop
         style="stop-color:black;stop-opacity:0;"
         offset="1"
         id="stop2845" />
    </linearGradient>
    <linearGradient
       id="linearGradient2807">
      <stop
         id="stop2809"
         offset="0"
         style="stop-color:white;stop-opacity:0;" />
      <stop
         style="stop-color:white;stop-opacity:0;"
         offset="0.5"
         id="stop2811" />
      <stop
         id="stop2813"
         offset="0.75"
         style="stop-color:white;stop-opacity:0.26666668;" />
      <stop
         style="stop-color:white;stop-opacity:0.7019608;"
         offset="0.875"
         id="stop2815" />
      <stop
         id="stop2821"
         offset="1"
         style="stop-color:white;stop-opacity:1;" />
    </linearGradient>
    <linearGradient
       inkscape:collect="always"
       id="linearGradient2797">
      <stop
         style="stop-color:#97a4ff;stop-opacity:1"
         offset="0"
         id="stop2799" />
      <stop
         style="stop-color:#0e1d85;stop-opacity:1"
         offset="1"
         id="stop2801" />
    </linearGradient>
    <linearGradient
       id="linearGradient2783">
      <stop
         style="stop-color:#0021ff;stop-opacity:0;"
         offset="0"
         id="stop2785" />
      <stop
         id="stop2791"
         offset="0.5"
         style="stop-color:#001dff;stop-opacity:0;" />
      <stop
         style="stop-color:#000e85;stop-opacity:0.26804122;"
         offset="0.75"
         id="stop2793" />
      <stop
         id="stop2795"
         offset="0.875"
         style="stop-color:#000c7c;stop-opacity:0.7019608;" />
      <stop
         style="stop-color:#00085a;stop-opacity:1;"
         offset="1"
         id="stop2787" />
    </linearGradient>
    <linearGradient
       id="linearGradient2765">
      <stop
         style="stop-color:#1a1a1a;stop-opacity:0;"
         offset="0"
         id="stop2767" />
      <stop
         id="stop2773"
         offset="0.5"
         style="stop-color:#1a1a1a;stop-opacity:0;" />
      <stop
         style="stop-color:#1a1a1a;stop-opacity:0;"
         offset="0.75"
         id="stop2775" />
      <stop
         id="stop2777"
         offset="0.875"
         style="stop-color:#fff7f7;stop-opacity:1;" />
      <stop
         style="stop-color:#a6a6a6;stop-opacity:1;"
         offset="0.9375"
         id="stop2779" />
      <stop
         style="stop-color:#4b4b4b;stop-opacity:1;"
         offset="1"
         id="stop2769" />
    </linearGradient>
    <radialGradient
       inkscape:collect="always"
       xlink:href="#linearGradient2765"
       id="radialGradient2771"
       cx="68.088654"
       cy="60.733757"
       fx="68.088654"
       fy="60.733757"
       r="55.3125"
       gradientUnits="userSpaceOnUse"
       spreadMethod="reflect"
       gradientTransform="matrix(0.989937,-5.15445e-3,5.076024e-3,0.974875,0.376911,1.876915)" />
    <radialGradient
       inkscape:collect="always"
       xlink:href="#linearGradient2783"
       id="radialGradient2789"
       cx="68.652641"
       cy="66.851898"
       fx="68.652641"
       fy="66.851898"
       r="55.311237"
       gradientUnits="userSpaceOnUse" />
    <linearGradient
       inkscape:collect="always"
       xlink:href="#linearGradient2797"
       id="linearGradient2803"
       x1="70.701233"
       y1="122.16313"
       x2="72.066895"
       y2="11.540661"
       gradientUnits="userSpaceOnUse" />
    <radialGradient
       inkscape:collect="always"
       xlink:href="#linearGradient2807"
       id="radialGradient2819"
       gradientUnits="userSpaceOnUse"
       cx="54.440834"
       cy="79.33976"
       fx="54.440834"
       fy="79.33976"
       r="55.311237"
       gradientTransform="matrix(1.382706,-1.679009e-2,1.686409e-2,1.3888,-23.32528,-30.47117)" />
    <linearGradient
       inkscape:collect="always"
       xlink:href="#linearGradient2841"
       id="linearGradient2847"
       x1="193.55959"
       y1="44.853321"
       x2="173.26955"
       y2="23.96875"
       gradientUnits="userSpaceOnUse"
       spreadMethod="reflect"
       gradientTransform="translate(-122.2962,4.447135)" />
    <radialGradient
       inkscape:collect="always"
       xlink:href="#linearGradient2853"
       id="radialGradient2859"
       cx="207.61749"
       cy="58.788132"
       fx="207.61749"
       fy="58.788132"
       r="55.3125"
       gradientTransform="translate(-137.3782,9.63636)"
       gradientUnits="userSpaceOnUse" />
    <radialGradient
       inkscape:collect="always"
       xlink:href="#linearGradient2765"
       id="radialGradient2873"
       gradientUnits="userSpaceOnUse"
       gradientTransform="matrix(0.989937,-5.15445e-3,5.076024e-3,0.974875,0.376911,1.876915)"
       spreadMethod="reflect"
       cx="68.088654"
       cy="60.733757"
       fx="68.088654"
       fy="60.733757"
       r="55.3125" />
    <linearGradient
       inkscape:collect="always"
       xlink:href="#linearGradient2797"
       id="linearGradient2875"
       gradientUnits="userSpaceOnUse"
       x1="70.701233"
       y1="122.16313"
       x2="72.066895"
       y2="11.540661" />
    <radialGradient
       inkscape:collect="always"
       xlink:href="#linearGradient2783"
       id="radialGradient2877"
       gradientUnits="userSpaceOnUse"
       cx="68.652641"
       cy="66.851898"
       fx="68.652641"
       fy="66.851898"
       r="55.311237" />
    <radialGradient
       inkscape:collect="always"
       xlink:href="#linearGradient2807"
       id="radialGradient2879"
       gradientUnits="userSpaceOnUse"
       gradientTransform="matrix(1.382706,-1.679009e-2,1.686409e-2,1.3888,-23.32528,-30.47117)"
       cx="54.440834"
       cy="79.33976"
       fx="54.440834"
       fy="79.33976"
       r="55.311237" />
    <linearGradient
       inkscape:collect="always"
       xlink:href="#linearGradient2841"
       id="linearGradient2881"
       gradientUnits="userSpaceOnUse"
       gradientTransform="translate(-122.2962,4.447135)"
       spreadMethod="reflect"
       x1="193.55959"
       y1="44.853321"
       x2="173.26955"
       y2="23.96875" />
  </defs>
  <sodipodi:namedview
     inkscape:window-height="743"
     inkscape:window-width="1016"
     inkscape:pageshadow="2"
     inkscape:pageopacity="0.0"
     guidetolerance="10.0"
     gridtolerance="10.0"
     objecttolerance="10.0"
     borderopacity="1.0"
     bordercolor="#666666"
     pagecolor="#ffffff"
     id="base"
     inkscape:zoom="2.0664062"
     inkscape:cx="128"
     inkscape:cy="127.75803"
     inkscape:window-x="0"
     inkscape:window-y="0"
     inkscape:current-layer="svg2"
     width="256px"
     height="256px" />
  <g
     id="g2883"
     transform="matrix(1.894481,0,0,1.894481,7.22744,10.4146)">
    <path
       sodipodi:nodetypes="csssc"
       style="opacity:1;fill:url(#radialGradient2859);fill-opacity:1;stroke:none;stroke-width:3;stroke-linecap:round;stroke-linejoin:round;stroke-miterlimit:4;stroke-dasharray:none;stroke-opacity:1"
       d="M 70.239298,13.111995 C 39.707498,13.111995 14.926798,37.89269 14.926798,68.424496 C 14.926798,98.9563 39.707498,123.73699 70.239298,123.73699 C 100.7711,123.73699 125.5518,98.9563 125.5518,68.424496 C 125.5518,37.892693 100.7711,13.111995 70.239298,13.111995 z "
       id="path2849" />
    <g
       transform="translate(-8.060432,-4.725081)"
       id="g2865">
      <path
         id="path2807"
         d="M 65.03125,9.3125 C 34.499447,9.3125 9.7187505,34.093194 9.71875,64.625 C 9.71875,95.156803 34.499446,119.9375 65.03125,119.9375 C 95.563053,119.9375 120.34375,95.1568 120.34375,64.625 C 120.34375,34.093197 95.563053,9.3125 65.03125,9.3125 z M 64.75,19.03125 C 89.605024,19.03125 109.78125,39.207475 109.78125,64.0625 C 109.78125,88.917522 89.605025,109.09375 64.75,109.09375 C 39.894974,109.09375 19.71875,88.917525 19.71875,64.0625 C 19.71875,39.207473 39.894975,19.03125 64.75,19.03125 z "
         style="opacity:1;fill:black;fill-opacity:1;stroke:none;stroke-width:3;stroke-linecap:round;stroke-linejoin:round;stroke-miterlimit:4;stroke-dasharray:none;stroke-opacity:1" />
      <path
         style="opacity:1;fill:url(#radialGradient2873);fill-opacity:1;stroke:none;stroke-width:3;stroke-linecap:round;stroke-linejoin:round;stroke-miterlimit:4;stroke-dasharray:none;stroke-opacity:1"
         d="M 65.03125,9.3125 C 34.499447,9.3125 9.7187505,34.093194 9.71875,64.625 C 9.71875,95.156803 34.499446,119.9375 65.03125,119.9375 C 95.563053,119.9375 120.34375,95.1568 120.34375,64.625 C 120.34375,34.093197 95.563053,9.3125 65.03125,9.3125 z M 64.75,19.03125 C 89.605024,19.03125 109.78125,39.207475 109.78125,64.0625 C 109.78125,88.917522 89.605025,109.09375 64.75,109.09375 C 39.894974,109.09375 19.71875,88.917525 19.71875,64.0625 C 19.71875,39.207473 39.894975,19.03125 64.75,19.03125 z "
         id="path1873" />
      <path
         sodipodi:type="arc"
         style="opacity:1;fill:url(#linearGradient2875);fill-opacity:1;stroke:none;stroke-width:3;stroke-linecap:round;stroke-linejoin:round;stroke-miterlimit:4;stroke-dasharray:none;stroke-opacity:1"
         id="path2762"
         sodipodi:cx="68.652641"
         sodipodi:cy="66.851898"
         sodipodi:rx="55.311237"
         sodipodi:ry="55.311237"
         d="M 123.96388 66.851898 A 55.311237 55.311237 0 1 1  13.341404,66.851898 A 55.311237 55.311237 0 1 1  123.96388 66.851898 z"
         transform="matrix(0.81407,0,0,0.81407,9.707108,9.094399)" />
      <path
         transform="matrix(0.81407,0,0,0.81407,10.54091,8.53851)"
         d="M 123.96388 66.851898 A 55.311237 55.311237 0 1 1  13.341404,66.851898 A 55.311237 55.311237 0 1 1  123.96388 66.851898 z"
         sodipodi:ry="55.311237"
         sodipodi:rx="55.311237"
         sodipodi:cy="66.851898"
         sodipodi:cx="68.652641"
         id="path2781"
         style="opacity:1;fill:url(#radialGradient2877);fill-opacity:1;stroke:none;stroke-width:3;stroke-linecap:round;stroke-linejoin:round;stroke-miterlimit:4;stroke-dasharray:none;stroke-opacity:1"
         sodipodi:type="arc" />
      <path
         sodipodi:type="arc"
         style="opacity:1;fill:url(#radialGradient2879);fill-opacity:1;stroke:none;stroke-width:3;stroke-linecap:round;stroke-linejoin:round;stroke-miterlimit:4;stroke-dasharray:none;stroke-opacity:1"
         id="path2805"
         sodipodi:cx="68.652641"
         sodipodi:cy="66.851898"
         sodipodi:rx="55.311237"
         sodipodi:ry="55.311237"
         d="M 123.96388 66.851898 A 55.311237 55.311237 0 1 1  13.341404,66.851898 A 55.311237 55.311237 0 1 1  123.96388 66.851898 z"
         transform="matrix(0.81407,0,0,0.81407,10.54091,8.53851)" />
      <path
         style="font-size:56px;font-style:normal;font-weight:bold;fill:url(#linearGradient2881);fill-opacity:1;stroke:none;stroke-width:1px;stroke-linecap:butt;stroke-linejoin:miter;stroke-opacity:1;font-family:Luxi Sans"
         d="M 66.703797,28.415885 C 63.101327,28.415916 58.930937,29.008217 55.141297,30.572135 C 57.941507,29.834972 60.791927,29.540907 63.360047,29.540885 C 78.568427,29.54094 86.578747,39.507941 86.578797,48.165885 C 86.578747,50.928596 85.756547,53.144833 84.078797,54.822135 C 82.644507,56.277507 80.159227,57.960668 76.641297,59.884635 L 73.266297,61.759635 C 71.074297,62.96833 69.626117,64.266497 68.922547,65.697135 C 68.218917,67.152494 67.891267,69.490483 67.891297,72.697135 L 67.891297,74.697135 L 71.203797,74.697135 L 71.203797,71.603385 C 71.203767,68.396733 71.562677,66.058743 72.266297,64.603385 C 72.969867,63.172747 74.418047,61.843329 76.610047,60.634635 L 79.985047,58.790885 C 83.502977,56.866918 85.988257,55.183756 87.422547,53.728385 C 89.100297,52.051083 89.922507,49.834848 89.922547,47.072135 C 89.922497,38.414191 81.912187,28.415939 66.703797,28.415885 z M 56.016297,39.415885 C 53.018637,40.234426 50.017547,41.525196 47.360047,43.228385 L 47.360047,44.665885 C 49.782047,42.421225 52.819847,40.660453 56.016297,39.415885 z M 59.203797,81.072135 L 59.203797,82.165885 L 67.891297,82.165885 L 67.891297,90.197135 L 71.203797,90.197135 L 71.203797,81.072135 L 59.203797,81.072135 z "
         id="path2830" />
      <path
         sodipodi:nodetypes="cccccccccccssccsscccscc"
         id="path2838"
         d="M 55.586481,90.755252 L 55.586481,81.616245 L 67.601681,81.616245 L 67.601681,90.755252 L 55.586481,90.755252 M 67.601681,75.252237 L 55.586481,75.252237 L 55.586481,74.216244 C 55.586461,71.182267 56.168281,68.678601 57.331931,66.705244 C 58.495541,64.707274 60.619851,62.672269 63.704851,60.600241 L 67.764041,57.862238 C 71.444341,55.370939 73.284511,52.410938 73.284541,48.982236 C 73.284511,44.270957 70.760831,37.778181 63.237831,37.778133 C 57.094911,37.778181 48.943071,40.38025 43.733651,45.208239 L 43.733651,36.846238 C 48.408831,30.853086 56.648691,28.984783 63.089281,28.984728 C 78.297671,28.984783 86.314491,38.95529 86.314541,47.613234 C 86.314491,50.375946 85.475591,52.59594 83.797841,54.273242 C 82.363551,55.728615 79.887451,57.418271 76.369521,59.342238 L 73.000401,61.192242 C 70.808401,62.400937 69.360631,63.720603 68.657061,65.151241 C 67.953441,66.6066 67.601651,68.937592 67.601681,72.144244 L 67.601681,75.252237"
         style="font-size:56px;font-style:normal;font-weight:bold;fill:#e6e6e6;fill-opacity:1;stroke:none;stroke-width:1px;stroke-linecap:butt;stroke-linejoin:miter;stroke-opacity:1;font-family:Luxi Sans" />
    </g>
  </g>
</svg>
