<?xml version="1.0" encoding="UTF-8" standalone="no"?>
<!-- Created with Inkscape (http://www.inkscape.org/) -->
<!-- Created by Albert Pal -->
<svg
   xmlns:dc="http://purl.org/dc/elements/1.1/"
   xmlns:cc="http://web.resource.org/cc/"
   xmlns:rdf="http://www.w3.org/1999/02/22-rdf-syntax-ns#"
   xmlns:svg="http://www.w3.org/2000/svg"
   xmlns="http://www.w3.org/2000/svg"
   xmlns:xlink="http://www.w3.org/1999/xlink"
   xmlns:sodipodi="http://sodipodi.sourceforge.net/DTD/sodipodi-0.dtd"
   xmlns:inkscape="http://www.inkscape.org/namespaces/inkscape"
   id="svg2"
   sodipodi:version="0.32"
   inkscape:version="0.44"
   width="256"
   height="256"
   version="1.0"
   sodipodi:docbase="/media/disk-hdb2/svg1"
   sodipodi:docname="fireware.svg">
  <metadata
     id="metadata7">
    <rdf:RDF>
      <cc:Work
         rdf:about="">
        <dc:format>image/svg+xml</dc:format>
        <dc:type
           rdf:resource="http://purl.org/dc/dcmitype/StillImage" />
      </cc:Work>
    </rdf:RDF>
  </metadata>
  <defs
     id="defs5">
    <linearGradient
       id="linearGradient2983">
      <stop
         style="stop-color:#8f1e1e;stop-opacity:0"
         offset="0"
         id="stop2985" />
      <stop
         id="stop2822"
         offset="0.5"
         style="stop-color:#9c1b1b;stop-opacity:1;" />
      <stop
         style="stop-color:#f36161;stop-opacity:1;"
         offset="0.75"
         id="stop2824" />
      <stop
         style="stop-color:#730d0d;stop-opacity:1;"
         offset="1"
         id="stop2987" />
    </linearGradient>
    <linearGradient
       id="linearGradient2834"
       inkscape:collect="always">
      <stop
         id="stop2836"
         offset="0"
         style="stop-color:#8b2222;stop-opacity:1" />
      <stop
         id="stop2838"
         offset="1"
         style="stop-color:#6e2929;stop-opacity:0" />
    </linearGradient>
    <linearGradient
       inkscape:collect="always"
       id="linearGradient2824">
      <stop
         style="stop-color:white;stop-opacity:1"
         offset="0"
         id="stop2826" />
      <stop
         style="stop-color:white;stop-opacity:0"
         offset="1"
         id="stop2828" />
    </linearGradient>
    <linearGradient
       inkscape:collect="always"
       id="linearGradient2854">
      <stop
         style="stop-color:#570f0f;stop-opacity:1"
         offset="0"
         id="stop2856" />
      <stop
         style="stop-color:#bb9b9b;stop-opacity:1"
         offset="1"
         id="stop2858" />
    </linearGradient>
    <linearGradient
       inkscape:collect="always"
       id="linearGradient2841">
      <stop
         style="stop-color:#efe21c;stop-opacity:1"
         offset="0"
         id="stop2843" />
      <stop
         style="stop-color:#c38e24;stop-opacity:1"
         offset="1"
         id="stop2845" />
    </linearGradient>
    <linearGradient
       inkscape:collect="always"
       id="linearGradient2828">
      <stop
         style="stop-color:#6b1616;stop-opacity:1"
         offset="0"
         id="stop2830" />
      <stop
         style="stop-color:#f54141;stop-opacity:1"
         offset="1"
         id="stop2832" />
    </linearGradient>
    <linearGradient
       inkscape:collect="always"
       id="linearGradient2803">
      <stop
         style="stop-color:#21222f;stop-opacity:1;"
         offset="0"
         id="stop2805" />
      <stop
         style="stop-color:#aeafb9;stop-opacity:1"
         offset="1"
         id="stop2807" />
    </linearGradient>
    <linearGradient
       inkscape:collect="always"
       id="linearGradient2790">
      <stop
         style="stop-color:white;stop-opacity:1"
         offset="0"
         id="stop2792" />
      <stop
         style="stop-color:white;stop-opacity:0"
         offset="1"
         id="stop2794" />
    </linearGradient>
    <linearGradient
       id="linearGradient2778"
       inkscape:collect="always">
      <stop
         id="stop2780"
         offset="0"
         style="stop-color:#961111;stop-opacity:1" />
      <stop
         id="stop2782"
         offset="1"
         style="stop-color:#e18686;stop-opacity:1" />
    </linearGradient>
    <linearGradient
       id="linearGradient2772"
       inkscape:collect="always">
      <stop
         id="stop2774"
         offset="0"
         style="stop-color:white;stop-opacity:0" />
      <stop
         id="stop2776"
         offset="1"
         style="stop-color:white;stop-opacity:1" />
    </linearGradient>
    <linearGradient
       inkscape:collect="always"
       xlink:href="#linearGradient2778"
       id="linearGradient2766"
       x1="69.912102"
       y1="126.42722"
       x2="67.282616"
       y2="2.5406439"
       gradientUnits="userSpaceOnUse" />
    <linearGradient
       inkscape:collect="always"
       xlink:href="#linearGradient2772"
       id="linearGradient2770"
       gradientUnits="userSpaceOnUse"
       x1="68.218338"
       y1="39.319473"
       x2="67.282616"
       y2="2.5406439" />
    <radialGradient
       inkscape:collect="always"
       xlink:href="#linearGradient2790"
       id="radialGradient2788"
       cx="91.163048"
       cy="-1.2245324"
       fx="91.163048"
       fy="-1.2245324"
       r="56.74102"
       gradientTransform="matrix(-0.66569,0.656661,-0.657969,-0.667018,124.8485,-67.0922)"
       gradientUnits="userSpaceOnUse" />
    <linearGradient
       inkscape:collect="always"
       xlink:href="#linearGradient2803"
       id="linearGradient2809"
       x1="61.845333"
       y1="96.125229"
       x2="58.834274"
       y2="24.034626"
       gradientUnits="userSpaceOnUse" />
    <linearGradient
       inkscape:collect="always"
       xlink:href="#linearGradient2828"
       id="linearGradient2822"
       x1="190.65974"
       y1="-6.6475844"
       x2="190.95312"
       y2="88.083046"
       gradientUnits="userSpaceOnUse"
       gradientTransform="matrix(1.917083,0,0,1.869942,-233.5311,19.79901)" />
    <linearGradient
       inkscape:collect="always"
       xlink:href="#linearGradient2790"
       id="linearGradient2826"
       gradientUnits="userSpaceOnUse"
       x1="190.95312"
       y1="-8.4349546"
       x2="190.95312"
       y2="30.291405"
       gradientTransform="translate(77.75061,-5.660006)" />
    <linearGradient
       inkscape:collect="always"
       xlink:href="#linearGradient2790"
       id="linearGradient2836"
       gradientUnits="userSpaceOnUse"
       gradientTransform="matrix(1.917083,0,0,1.869942,-233.5311,19.79901)"
       x1="190.65974"
       y1="-6.6475844"
       x2="190.65974"
       y2="31.185091" />
    <linearGradient
       inkscape:collect="always"
       xlink:href="#linearGradient2841"
       id="linearGradient2847"
       x1="148.40939"
       y1="72.896713"
       x2="191.27745"
       y2="72.896713"
       gradientUnits="userSpaceOnUse"
       spreadMethod="reflect"
       gradientTransform="matrix(1.862312,0,0,1.869942,-223.6271,14.78559)" />
    <linearGradient
       inkscape:collect="always"
       xlink:href="#linearGradient2854"
       id="linearGradient2860"
       x1="191.4088"
       y1="75.919945"
       x2="206.80479"
       y2="75.919945"
       gradientUnits="userSpaceOnUse"
       spreadMethod="reflect"
       gradientTransform="matrix(1.862312,0,0,1.869942,-223.6271,14.78559)" />
    <linearGradient
       inkscape:collect="always"
       xlink:href="#linearGradient2778"
       id="linearGradient2846"
       x1="48.602684"
       y1="26.862831"
       x2="65.090073"
       y2="26.862831"
       gradientUnits="userSpaceOnUse"
       spreadMethod="reflect"
       gradientTransform="matrix(1.862312,0,0,1.869942,8.268244,3.087615)" />
    <linearGradient
       inkscape:collect="always"
       xlink:href="#linearGradient2824"
       id="linearGradient2830"
       gradientUnits="userSpaceOnUse"
       gradientTransform="matrix(1.862312,0,0,1.869942,8.268244,3.087615)"
       spreadMethod="pad"
       x1="65.090103"
       y1="2.8860726"
       x2="65.090103"
       y2="16.442841" />
    <linearGradient
       inkscape:collect="always"
       xlink:href="#linearGradient2834"
       id="linearGradient2840"
       gradientUnits="userSpaceOnUse"
       gradientTransform="matrix(1.862312,0,0,1.869942,8.268244,3.087615)"
       spreadMethod="pad"
       x1="65.090103"
       y1="63.632877"
       x2="65.090103"
       y2="31.444731" />
    <linearGradient
       inkscape:collect="always"
       xlink:href="#linearGradient2778"
       id="linearGradient2059"
       gradientUnits="userSpaceOnUse"
       x1="69.912102"
       y1="126.42722"
       x2="67.282616"
       y2="2.5406439" />
    <linearGradient
       inkscape:collect="always"
       xlink:href="#linearGradient2772"
       id="linearGradient2061"
       gradientUnits="userSpaceOnUse"
       x1="68.218338"
       y1="39.319473"
       x2="67.282616"
       y2="2.5406439" />
    <radialGradient
       inkscape:collect="always"
       xlink:href="#linearGradient2790"
       id="radialGradient2063"
       gradientUnits="userSpaceOnUse"
       gradientTransform="matrix(-0.66569,0.656661,-0.657969,-0.667018,124.8485,-67.0922)"
       cx="91.163048"
       cy="-1.2245324"
       fx="91.163048"
       fy="-1.2245324"
       r="56.74102" />
    <linearGradient
       inkscape:collect="always"
       xlink:href="#linearGradient2778"
       id="linearGradient2958"
       gradientUnits="userSpaceOnUse"
       x1="69.912102"
       y1="126.42722"
       x2="67.282616"
       y2="2.5406439" />
    <linearGradient
       inkscape:collect="always"
       xlink:href="#linearGradient2772"
       id="linearGradient2960"
       gradientUnits="userSpaceOnUse"
       x1="68.218338"
       y1="39.319473"
       x2="67.282616"
       y2="2.5406439" />
    <radialGradient
       inkscape:collect="always"
       xlink:href="#linearGradient2790"
       id="radialGradient2962"
       gradientUnits="userSpaceOnUse"
       gradientTransform="matrix(-0.66569,0.656661,-0.657969,-0.667018,124.8485,-67.0922)"
       cx="91.163048"
       cy="-1.2245324"
       fx="91.163048"
       fy="-1.2245324"
       r="56.74102" />
    <linearGradient
       inkscape:collect="always"
       xlink:href="#linearGradient2772"
       id="linearGradient2970"
       gradientUnits="userSpaceOnUse"
       x1="68.218338"
       y1="39.319473"
       x2="67.282616"
       y2="2.5406439" />
    <linearGradient
       inkscape:collect="always"
       xlink:href="#linearGradient2778"
       id="linearGradient2972"
       gradientUnits="userSpaceOnUse"
       x1="69.912102"
       y1="126.42722"
       x2="67.282616"
       y2="2.5406439" />
    <radialGradient
       inkscape:collect="always"
       xlink:href="#linearGradient2790"
       id="radialGradient2974"
       gradientUnits="userSpaceOnUse"
       gradientTransform="matrix(-0.66569,0.656661,-0.657969,-0.667018,124.8485,-67.0922)"
       cx="91.163048"
       cy="-1.2245324"
       fx="91.163048"
       fy="-1.2245324"
       r="56.74102" />
    <linearGradient
       inkscape:collect="always"
       xlink:href="#linearGradient2772"
       id="linearGradient2976"
       gradientUnits="userSpaceOnUse"
       x1="68.218338"
       y1="39.319473"
       x2="67.282616"
       y2="2.5406439" />
    <radialGradient
       inkscape:collect="always"
       xlink:href="#linearGradient2983"
       id="radialGradient2989"
       cx="366.66959"
       cy="77.712112"
       fx="366.66959"
       fy="77.712112"
       r="105.86696"
       gradientTransform="matrix(-0.699234,0.714893,-0.781664,-0.764543,442.8042,-69.34166)"
       gradientUnits="userSpaceOnUse" />
    <linearGradient
       inkscape:collect="always"
       xlink:href="#linearGradient2778"
       id="linearGradient2842"
       gradientUnits="userSpaceOnUse"
       x1="69.912102"
       y1="126.42722"
       x2="67.282616"
       y2="2.5406439" />
    <linearGradient
       inkscape:collect="always"
       xlink:href="#linearGradient2772"
       id="linearGradient2844"
       gradientUnits="userSpaceOnUse"
       x1="68.218338"
       y1="39.319473"
       x2="67.282616"
       y2="2.5406439" />
    <radialGradient
       inkscape:collect="always"
       xlink:href="#linearGradient2790"
       id="radialGradient2846"
       gradientUnits="userSpaceOnUse"
       gradientTransform="matrix(-0.66569,0.656661,-0.657969,-0.667018,124.8485,-67.0922)"
       cx="91.163048"
       cy="-1.2245324"
       fx="91.163048"
       fy="-1.2245324"
       r="56.74102" />
    <linearGradient
       inkscape:collect="always"
       xlink:href="#linearGradient2803"
       id="linearGradient2848"
       gradientUnits="userSpaceOnUse"
       x1="61.845333"
       y1="96.125229"
       x2="58.834274"
       y2="24.034626" />
    <linearGradient
       inkscape:collect="always"
       xlink:href="#linearGradient2828"
       id="linearGradient2850"
       gradientUnits="userSpaceOnUse"
       gradientTransform="matrix(1.917083,0,0,1.869942,-233.5311,19.79901)"
       x1="190.65974"
       y1="-6.6475844"
       x2="190.95312"
       y2="88.083046" />
    <linearGradient
       inkscape:collect="always"
       xlink:href="#linearGradient2790"
       id="linearGradient2852"
       gradientUnits="userSpaceOnUse"
       gradientTransform="matrix(1.917083,0,0,1.869942,-233.5311,19.79901)"
       x1="190.65974"
       y1="-6.6475844"
       x2="190.65974"
       y2="31.185091" />
    <linearGradient
       inkscape:collect="always"
       xlink:href="#linearGradient2841"
       id="linearGradient2855"
       gradientUnits="userSpaceOnUse"
       gradientTransform="matrix(1.862312,0,0,1.869942,-223.6271,14.78559)"
       spreadMethod="reflect"
       x1="148.40939"
       y1="72.896713"
       x2="191.27745"
       y2="72.896713" />
    <linearGradient
       inkscape:collect="always"
       xlink:href="#linearGradient2854"
       id="linearGradient2857"
       gradientUnits="userSpaceOnUse"
       gradientTransform="matrix(1.862312,0,0,1.869942,-223.6271,14.78559)"
       spreadMethod="reflect"
       x1="191.4088"
       y1="75.919945"
       x2="206.80479"
       y2="75.919945" />
    <linearGradient
       inkscape:collect="always"
       xlink:href="#linearGradient2778"
       id="linearGradient2859"
       gradientUnits="userSpaceOnUse"
       gradientTransform="matrix(1.862312,0,0,1.869942,8.268244,3.087615)"
       spreadMethod="reflect"
       x1="48.602684"
       y1="26.862831"
       x2="65.090073"
       y2="26.862831" />
    <linearGradient
       inkscape:collect="always"
       xlink:href="#linearGradient2824"
       id="linearGradient2861"
       gradientUnits="userSpaceOnUse"
       gradientTransform="matrix(1.862312,0,0,1.869942,8.268244,3.087615)"
       spreadMethod="pad"
       x1="65.090103"
       y1="2.8860726"
       x2="65.090103"
       y2="16.442841" />
    <linearGradient
       inkscape:collect="always"
       xlink:href="#linearGradient2834"
       id="linearGradient2863"
       gradientUnits="userSpaceOnUse"
       gradientTransform="matrix(1.862312,0,0,1.869942,8.268244,3.087615)"
       spreadMethod="pad"
       x1="65.090103"
       y1="63.632877"
       x2="65.090103"
       y2="31.444731" />
    <radialGradient
       inkscape:collect="always"
       xlink:href="#linearGradient2983"
       id="radialGradient2865"
       gradientUnits="userSpaceOnUse"
       gradientTransform="matrix(-0.699234,0.714893,-0.781664,-0.764543,442.8042,-69.34166)"
       cx="366.66959"
       cy="77.712112"
       fx="366.66959"
       fy="77.712112"
       r="105.86696" />
  </defs>
  <sodipodi:namedview
     inkscape:window-height="743"
     inkscape:window-width="1016"
     inkscape:pageshadow="2"
     inkscape:pageopacity="0.0"
     guidetolerance="10.0"
     gridtolerance="10.0"
     objecttolerance="10.0"
     borderopacity="1.0"
     bordercolor="#666666"
     pagecolor="#ffffff"
     id="base"
     inkscape:zoom="2.0664062"
     inkscape:cx="128"
     inkscape:cy="127.75803"
     inkscape:window-x="0"
     inkscape:window-y="0"
     inkscape:current-layer="svg2"
     width="256px"
     height="256px" />
  <g
     id="g2826"
     transform="matrix(0.966775,0,0,0.966775,2.739113,5.605148)">
    <g
       transform="matrix(1.862312,0,0,1.869942,-223.6271,14.78559)"
       id="g2796">
      <path
         sodipodi:type="arc"
         style="fill:url(#linearGradient2842);fill-opacity:1;stroke:#21222f;stroke-width:1;stroke-linejoin:round;stroke-miterlimit:4.80000019;stroke-dasharray:none;stroke-dashoffset:0;stroke-opacity:1"
         id="path1873"
         sodipodi:cx="64.967865"
         sodipodi:cy="64.967865"
         sodipodi:rx="56.74102"
         sodipodi:ry="58.192818"
         d="M 121.70889 64.967865 A 56.74102 58.192818 0 1 1  8.2268448,64.967865 A 56.74102 58.192818 0 1 1  121.70889 64.967865 z"
         transform="translate(125.3384,-2.41966)" />
      <path
         transform="translate(125.3384,-1.935728)"
         d="M 121.70889 64.967865 A 56.74102 58.192818 0 1 1  8.2268448,64.967865 A 56.74102 58.192818 0 1 1  121.70889 64.967865 z"
         sodipodi:ry="58.192818"
         sodipodi:rx="56.74102"
         sodipodi:cy="64.967865"
         sodipodi:cx="64.967865"
         id="path2768"
         style="fill:url(#linearGradient2844);fill-opacity:1;stroke:#21222f;stroke-width:0;stroke-linejoin:round;stroke-miterlimit:4.80000019;stroke-dasharray:none;stroke-dashoffset:0;stroke-opacity:1"
         sodipodi:type="arc" />
      <path
         sodipodi:type="arc"
         style="fill:url(#radialGradient2846);fill-opacity:1;stroke:#21222f;stroke-width:0;stroke-linejoin:round;stroke-miterlimit:4.80000019;stroke-dasharray:none;stroke-dashoffset:0;stroke-opacity:1"
         id="path2784"
         sodipodi:cx="64.967865"
         sodipodi:cy="64.967865"
         sodipodi:rx="56.74102"
         sodipodi:ry="58.192818"
         d="M 121.70889 64.967865 A 56.74102 58.192818 0 1 1  8.2268448,64.967865 A 56.74102 58.192818 0 1 1  121.70889 64.967865 z"
         transform="matrix(1,0,0,-1,125.3384,128)" />
    </g>
    <path
       transform="matrix(2.0523,0,0,1.862803,11.51462,16.32646)"
       d="M 95.624313 59.782032 A 36.790039 31.27898 0 1 1  22.044235,59.782032 A 36.790039 31.27898 0 1 1  95.624313 59.782032 z"
       sodipodi:ry="31.27898"
       sodipodi:rx="36.790039"
       sodipodi:cy="59.782032"
       sodipodi:cx="58.834274"
       id="path2801"
       style="fill:#2f1c1c;fill-opacity:0;stroke:url(#linearGradient2848);stroke-width:5;stroke-linejoin:round;stroke-miterlimit:4.80000019;stroke-dasharray:none;stroke-dashoffset:0;stroke-opacity:1"
       sodipodi:type="arc" />
    <path
       sodipodi:nodetypes="cscsscc"
       id="path2811"
       d="M 131.13419,12.377677 C 89.049462,12.377677 54.870223,46.430174 54.870223,88.402511 C 54.870223,95.762332 52.578033,103.99625 54.537018,110.72876 C 57.13392,150.36123 75.805499,180.61403 133.94991,180.61403 C 197.67084,180.61403 210.21389,146.56154 210.2139,104.5892 C 210.2139,97.229376 209.17745,90.109547 207.21846,83.377042 C 204.62156,43.74458 171.52585,12.377677 131.13419,12.377677 z "
       style="fill:url(#linearGradient2850);fill-opacity:1;stroke:#aeafb9;stroke-width:0;stroke-linejoin:round;stroke-miterlimit:4.80000019;stroke-dasharray:none;stroke-dashoffset:0;stroke-opacity:1" />
    <path
       style="fill:url(#linearGradient2852);fill-opacity:1;stroke:#aeafb9;stroke-width:0;stroke-linejoin:round;stroke-miterlimit:4.80000019;stroke-dasharray:none;stroke-dashoffset:0;stroke-opacity:1"
       d="M 131.13419,12.377677 C 89.049462,12.377677 54.870223,46.430174 54.870223,88.402511 C 54.870223,95.762332 52.578033,103.99625 54.537018,110.72876 C 57.13392,150.36123 75.805499,180.61403 133.94991,180.61403 C 197.67084,180.61403 210.21389,146.56154 210.2139,104.5892 C 210.2139,97.229376 209.17745,90.109547 207.21846,83.377042 C 204.62156,43.74458 171.52585,12.377677 131.13419,12.377677 z "
       id="path2834"
       sodipodi:nodetypes="cscsscc" />
    <path
       sodipodi:nodetypes="csssc"
       id="path2838"
       d="M 185.79585,151.08458 C 185.79585,176.29872 174.62641,195.62695 133.64714,196.76238 C 93.770182,197.83653 72.302341,174.54713 81.49842,151.08458 C 89.346725,131.06069 106.85108,105.96042 133.64714,105.40676 C 159.11782,104.88049 177.68229,128.92547 185.79585,151.08458 z "
       style="fill:url(#linearGradient2855);fill-opacity:1;stroke:#aeafb9;stroke-width:0;stroke-linejoin:round;stroke-miterlimit:4.80000019;stroke-dashoffset:0;stroke-opacity:1" />
    <path
       id="text2849"
       d="M 124.42465,156.68142 C 124.42463,151.44976 124.11667,147.76891 123.50073,145.63883 C 122.89639,143.49014 121.87367,142.41578 120.43258,142.41574 C 118.99147,142.41578 117.96295,143.49014 117.34701,145.63883 C 116.73105,147.76891 116.42308,151.44976 116.42308,156.68142 C 116.42308,161.96917 116.73105,165.69674 117.34701,167.86414 C 117.96295,170.03156 118.99147,171.11526 120.43258,171.11526 C 121.86204,171.11526 122.88474,170.03156 123.50073,167.86414 C 124.11667,165.69674 124.42463,161.96917 124.42465,156.68142 M 131.13622,156.7655 C 131.13618,163.69749 130.20644,169.05062 128.347,172.82489 C 126.4875,176.5805 123.84937,178.4583 120.43258,178.4583 C 117.00416,178.4583 114.36021,176.5805 112.50074,172.82489 C 110.64126,169.05062 109.71151,163.69749 109.71151,156.7655 C 109.71151,149.81486 110.64126,144.46174 112.50074,140.7061 C 114.36021,136.93185 117.00416,135.04472 120.43258,135.04467 C 123.84937,135.04472 126.4875,136.93185 128.347,140.7061 C 130.20644,144.46174 131.13618,149.81486 131.13622,156.7655 M 149.24872,156.68142 C 149.2487,151.44976 148.94072,147.76891 148.32478,145.63883 C 147.72045,143.49014 146.69772,142.41578 145.25664,142.41574 C 143.81553,142.41578 142.787,143.49014 142.17108,145.63883 C 141.55511,147.76891 141.24713,151.44976 141.24713,156.68142 C 141.24713,161.96917 141.55511,165.69674 142.17108,167.86414 C 142.787,170.03156 143.81553,171.11526 145.25664,171.11526 C 146.6861,171.11526 147.70881,170.03156 148.32478,167.86414 C 148.94072,165.69674 149.2487,161.96917 149.24872,156.68142 M 155.96027,156.7655 C 155.96025,163.69749 155.03051,169.05062 153.17106,172.82489 C 151.31157,176.5805 148.67341,178.4583 145.25664,178.4583 C 141.8282,178.4583 139.18426,176.5805 137.32479,172.82489 C 135.46532,169.05062 134.53558,163.69749 134.53558,156.7655 C 134.53558,149.81486 135.46532,144.46174 137.32479,140.7061 C 139.18426,136.93185 141.8282,135.04472 145.25664,135.04467 C 148.67341,135.04472 151.31157,136.93185 153.17106,140.7061 C 155.03051,144.46174 155.96025,149.81486 155.96027,156.7655"
       style="font-size:24px;font-style:normal;font-weight:bold;fill:url(#linearGradient2857);fill-opacity:1;stroke:none;stroke-width:1px;stroke-linecap:butt;stroke-linejoin:miter;stroke-opacity:1;font-family:Bitstream Vera Sans" />
    <path
       id="text2862"
       d="M 109.21132,181.51814 L 118.57379,181.51814 L 118.57379,181.98537 L 111.41554,181.98537 L 111.41554,183.19465 L 117.87542,183.19465 L 117.87542,183.66187 L 111.41554,183.66187 L 111.41554,185.62146 L 109.21132,185.62146 L 109.21132,181.51814 M 122.08746,181.51814 L 124.29168,181.51814 L 124.29168,185.62146 L 122.08746,185.62146 L 122.08746,181.51814 M 136.40398,183.6976 C 136.87682,183.73791 137.33514,183.82403 137.77888,183.95595 C 138.22992,184.08787 138.68094,184.26926 139.13198,184.50012 L 141.36894,185.62146 L 139.00102,185.62146 L 136.91684,184.56883 C 136.37852,184.294 135.85475,184.11169 135.34551,184.02191 C 134.84356,183.93213 134.15611,183.88724 133.28315,183.88724 L 130.88251,183.88724 L 130.88251,185.62146 L 128.67831,185.62146 L 128.67831,181.51814 L 133.65416,181.51814 C 135.51647,181.51815 136.90592,181.61617 137.82254,181.81222 C 138.73913,182.00827 139.19744,182.30418 139.19744,182.69994 C 139.19744,182.95829 138.95738,183.17267 138.47726,183.34306 C 138.0044,183.51346 137.3133,183.63164 136.40398,183.6976 M 130.88251,181.97437 L 130.88251,183.43101 L 133.65416,183.43101 C 134.71626,183.43102 135.51647,183.36963 136.05479,183.24687 C 136.6004,183.12227 136.87319,182.93997 136.87321,182.69994 C 136.87319,182.45992 136.6004,182.27945 136.05479,182.15851 C 135.51647,182.03576 134.71626,181.97438 133.65416,181.97437 L 130.88251,181.97437 M 144.21697,181.51814 L 154.51788,181.51814 L 154.51788,181.98537 L 146.42119,181.98537 L 146.42119,183.20015 L 154.17959,183.20015 L 154.17959,183.66736 L 146.42119,183.66736 L 146.42119,185.15423 L 154.71428,185.15423 L 154.71428,185.62146 L 144.21697,185.62146 L 144.21697,181.51814"
       style="font-size:12px;font-style:normal;font-weight:normal;fill:black;fill-opacity:1;stroke:none;stroke-width:1px;stroke-linecap:butt;stroke-linejoin:miter;stroke-opacity:1;font-family:Bitstream Vera Sans" />
    <path
       sodipodi:nodetypes="ccccc"
       id="rect2836"
       d="M 115.89437,14.051138 C 126.80493,7.2308505 130.50341,6.4645255 141.41397,12.937046 L 145.85215,102.62153 C 135.75072,83.219106 123.4152,84.126509 113.12052,102.62153 L 115.89437,14.051138 z "
       style="fill:url(#linearGradient2859);fill-opacity:1;stroke:#2b3060;stroke-width:0;stroke-linecap:round;stroke-linejoin:round;stroke-miterlimit:4;stroke-dasharray:none;stroke-dashoffset:0;stroke-opacity:1" />
    <path
       style="fill:url(#linearGradient2861);fill-opacity:1;stroke:#2b3060;stroke-width:0;stroke-linecap:round;stroke-linejoin:round;stroke-miterlimit:4;stroke-dasharray:none;stroke-dashoffset:0;stroke-opacity:1"
       d="M 115.89437,14.051138 C 126.80493,7.2308505 130.50341,6.4645255 141.41397,12.937046 L 145.85215,102.62153 C 135.75072,83.219106 123.4152,84.126509 113.12052,102.62153 L 115.89437,14.051138 z "
       id="path2822"
       sodipodi:nodetypes="ccccc" />
    <path
       sodipodi:nodetypes="ccccc"
       id="path2832"
       d="M 115.89437,14.051138 C 126.80493,7.2308505 130.50341,6.4645255 141.41397,12.937046 L 145.85215,102.62153 C 136.49333,107.08008 127.01195,110.55887 113.12052,102.62153 L 115.89437,14.051138 z "
       style="fill:url(#linearGradient2863);fill-opacity:1;stroke:#2b3060;stroke-width:0;stroke-linecap:round;stroke-linejoin:round;stroke-miterlimit:4;stroke-dasharray:none;stroke-dashoffset:0;stroke-opacity:1" />
    <path
       sodipodi:nodetypes="cccccc"
       id="path2053"
       d="M 25.61171,134.65094 C 25.61171,194.71803 73.42233,241.52771 131.75189,241.52771 C 188.78101,241.52771 235.2995,194.93156 237.34564,136.71521 C 229.93844,184.81896 185.88903,221.80896 132.72064,221.80896 C 74.36692,221.80896 27.00189,188.37431 27.00189,133.47064 C 26.40379,134.80615 25.65164,131.80171 25.61171,134.65094 z "
       style="fill:url(#radialGradient2865);fill-opacity:1;stroke:none;stroke-width:0;stroke-linejoin:round;stroke-miterlimit:4;stroke-dasharray:none;stroke-dashoffset:0;stroke-opacity:1" />
  </g>
</svg>
