<?xml version="1.0" encoding="UTF-8" standalone="no"?>
<!-- Created with Inkscape (http://www.inkscape.org/) -->

<svg
   xmlns:dc="http://purl.org/dc/elements/1.1/"
   xmlns:cc="http://creativecommons.org/ns#"
   xmlns:rdf="http://www.w3.org/1999/02/22-rdf-syntax-ns#"
   xmlns:svg="http://www.w3.org/2000/svg"
   xmlns="http://www.w3.org/2000/svg"
   xmlns:xlink="http://www.w3.org/1999/xlink"
   xmlns:sodipodi="http://sodipodi.sourceforge.net/DTD/sodipodi-0.dtd"
   xmlns:inkscape="http://www.inkscape.org/namespaces/inkscape"
   id="svg2"
   version="1.1"
   inkscape:version="0.48.4 r9939"
   width="256"
   height="256"
   sodipodi:docname="Recycle Bin Full.svg">
  <metadata
     id="metadata8">
    <rdf:RDF>
      <cc:Work
         rdf:about="">
        <dc:format>image/svg+xml</dc:format>
        <dc:type
           rdf:resource="http://purl.org/dc/dcmitype/StillImage" />
        <dc:title />
      </cc:Work>
    </rdf:RDF>
  </metadata>
  <defs
     id="defs6">
    <linearGradient
       id="linearGradient3794">
      <stop
         style="stop-color:#78ade6;stop-opacity:1;"
         offset="0"
         id="stop3796" />
      <stop
         style="stop-color:#d4e9ff;stop-opacity:1;"
         offset="1"
         id="stop3798" />
    </linearGradient>
    <linearGradient
       id="linearGradient3788">
      <stop
         style="stop-color:#000000;stop-opacity:1;"
         offset="0"
         id="stop3790" />
      <stop
         style="stop-color:#000000;stop-opacity:0;"
         offset="1"
         id="stop3792" />
    </linearGradient>
    <linearGradient
       id="linearGradient3813">
      <stop
         style="stop-color:#ffffff;stop-opacity:0.42635658;"
         offset="0"
         id="stop3815" />
      <stop
         style="stop-color:#ffffff;stop-opacity:0;"
         offset="1"
         id="stop3817" />
    </linearGradient>
    <linearGradient
       id="linearGradient3803">
      <stop
         style="stop-color:#ffffff;stop-opacity:0.67441863;"
         offset="0"
         id="stop3805" />
      <stop
         style="stop-color:#ffffff;stop-opacity:0;"
         offset="1"
         id="stop3807" />
    </linearGradient>
    <linearGradient
       id="linearGradient3791">
      <stop
         style="stop-color:#ffffff;stop-opacity:0.5271318;"
         offset="0"
         id="stop3793" />
      <stop
         style="stop-color:#ffffff;stop-opacity:0;"
         offset="1"
         id="stop3795" />
    </linearGradient>
    <linearGradient
       id="linearGradient3759">
      <stop
         style="stop-color:#ffffff;stop-opacity:1;"
         offset="0"
         id="stop3761" />
      <stop
         style="stop-color:#242424;stop-opacity:1;"
         offset="1"
         id="stop3763" />
    </linearGradient>
    <linearGradient
       inkscape:collect="always"
       xlink:href="#linearGradient3759"
       id="linearGradient3765"
       x1="-141.01353"
       y1="20.92555"
       x2="-45.332745"
       y2="14.894926"
       gradientUnits="userSpaceOnUse"
       gradientTransform="translate(214.3887,-1.2061249)"
       spreadMethod="reflect" />
    <linearGradient
       inkscape:collect="always"
       xlink:href="#linearGradient3759"
       id="linearGradient3769"
       gradientUnits="userSpaceOnUse"
       x1="-142.52119"
       y1="28.1623"
       x2="-69.455238"
       y2="27.860769"
       gradientTransform="matrix(1,0,0,-1,212.88104,58.133785)"
       spreadMethod="reflect" />
    <linearGradient
       inkscape:collect="always"
       xlink:href="#linearGradient3759"
       id="linearGradient3777"
       x1="98.920967"
       y1="41.829815"
       x2="188.12238"
       y2="35.029816"
       gradientUnits="userSpaceOnUse"
       spreadMethod="reflect"
       gradientTransform="translate(4.221437,0)" />
    <linearGradient
       inkscape:collect="always"
       xlink:href="#linearGradient3759"
       id="linearGradient3783"
       gradientUnits="userSpaceOnUse"
       gradientTransform="matrix(0.69032264,0,0,1.0054684,187.15178,171.41973)"
       spreadMethod="reflect"
       x1="-141.01353"
       y1="20.92555"
       x2="-45.332745"
       y2="14.894926" />
    <linearGradient
       inkscape:collect="always"
       xlink:href="#linearGradient3759"
       id="linearGradient3787"
       gradientUnits="userSpaceOnUse"
       gradientTransform="matrix(0.69032264,0,0,-1.0054684,190.37017,235.32697)"
       spreadMethod="reflect"
       x1="-141.01353"
       y1="20.92555"
       x2="-45.332745"
       y2="14.894926" />
    <linearGradient
       inkscape:collect="always"
       xlink:href="#linearGradient3791"
       id="linearGradient3797"
       x1="114.42537"
       y1="15.03224"
       x2="122.51493"
       y2="224.3606"
       gradientUnits="userSpaceOnUse"
       gradientTransform="translate(4.364643,-2.4687343)" />
    <linearGradient
       inkscape:collect="always"
       xlink:href="#linearGradient3803"
       id="linearGradient3809"
       x1="29.723881"
       y1="125.96268"
       x2="80.723881"
       y2="123.72388"
       gradientUnits="userSpaceOnUse"
       gradientTransform="matrix(1,0,-0.03239614,1,4.6112382,1.5076561)" />
    <linearGradient
       inkscape:collect="always"
       xlink:href="#linearGradient3813"
       id="linearGradient3819"
       x1="176.7388"
       y1="123.91045"
       x2="216.54477"
       y2="127.26866"
       gradientUnits="userSpaceOnUse"
       spreadMethod="reflect"
       gradientTransform="matrix(1,0,-0.02437935,1,4.6103094,-0.60306243)" />
    <radialGradient
       inkscape:collect="always"
       xlink:href="#linearGradient3788"
       id="radialGradient3794"
       cx="153.32207"
       cy="201.80458"
       fx="153.32207"
       fy="201.80458"
       r="81.061523"
       gradientTransform="matrix(1,0,0,0.59999999,0,80.721834)"
       gradientUnits="userSpaceOnUse" />
    <linearGradient
       inkscape:collect="always"
       xlink:href="#linearGradient3794"
       id="linearGradient3807"
       gradientUnits="userSpaceOnUse"
       x1="-274.10193"
       y1="104.06755"
       x2="-190.95959"
       y2="104.06755" />
    <linearGradient
       inkscape:collect="always"
       xlink:href="#linearGradient3794"
       id="linearGradient3818"
       gradientUnits="userSpaceOnUse"
       x1="-274.10193"
       y1="104.06755"
       x2="-190.95959"
       y2="104.06755" />
    <linearGradient
       inkscape:collect="always"
       xlink:href="#linearGradient3794"
       id="linearGradient3828"
       gradientUnits="userSpaceOnUse"
       x1="-274.10193"
       y1="104.06755"
       x2="-190.95959"
       y2="104.06755" />
    <linearGradient
       inkscape:collect="always"
       xlink:href="#linearGradient3794"
       id="linearGradient3838"
       gradientUnits="userSpaceOnUse"
       x1="-274.10193"
       y1="104.06755"
       x2="-190.95959"
       y2="104.06755" />
    <linearGradient
       inkscape:collect="always"
       xlink:href="#linearGradient3794"
       id="linearGradient3848"
       gradientUnits="userSpaceOnUse"
       x1="-274.10193"
       y1="104.06755"
       x2="-190.95959"
       y2="104.06755" />
    <linearGradient
       inkscape:collect="always"
       xlink:href="#linearGradient3794"
       id="linearGradient3858"
       gradientUnits="userSpaceOnUse"
       x1="-274.10193"
       y1="104.06755"
       x2="-190.95959"
       y2="104.06755" />
    <linearGradient
       inkscape:collect="always"
       xlink:href="#linearGradient3794"
       id="linearGradient3868"
       gradientUnits="userSpaceOnUse"
       x1="-274.10193"
       y1="104.06755"
       x2="-190.95959"
       y2="104.06755" />
    <linearGradient
       inkscape:collect="always"
       xlink:href="#linearGradient3794"
       id="linearGradient3878"
       gradientUnits="userSpaceOnUse"
       x1="-274.10193"
       y1="104.06755"
       x2="-190.95959"
       y2="104.06755" />
    <linearGradient
       inkscape:collect="always"
       xlink:href="#linearGradient3794"
       id="linearGradient3888"
       gradientUnits="userSpaceOnUse"
       x1="-274.10193"
       y1="104.06755"
       x2="-190.95959"
       y2="104.06755" />
    <linearGradient
       inkscape:collect="always"
       xlink:href="#linearGradient3794"
       id="linearGradient3898"
       gradientUnits="userSpaceOnUse"
       x1="-274.10193"
       y1="104.06755"
       x2="-190.95959"
       y2="104.06755" />
  </defs>
  <sodipodi:namedview
     pagecolor="#aa0000"
     bordercolor="#666666"
     borderopacity="1"
     objecttolerance="10"
     gridtolerance="10"
     guidetolerance="10"
     inkscape:pageopacity="1"
     inkscape:pageshadow="2"
     inkscape:window-width="1680"
     inkscape:window-height="1027"
     id="namedview4"
     showgrid="false"
     inkscape:snap-global="false"
     inkscape:zoom="1.62"
     inkscape:cx="144.0805"
     inkscape:cy="129.98871"
     inkscape:window-x="-2"
     inkscape:window-y="-5"
     inkscape:window-maximized="1"
     inkscape:current-layer="svg2"
     showguides="true"
     inkscape:guide-bbox="true">
    <sodipodi:guide
       orientation="1,0"
       position="24.725559,187.25088"
       id="guide3010" />
    <sodipodi:guide
       orientation="1,0"
       position="229.46525,182.12485"
       id="guide3012" />
    <sodipodi:guide
       orientation="1,0"
       position="60.004711,191.77385"
       id="guide3014" />
    <sodipodi:guide
       orientation="1,0"
       position="194.1861,178.80801"
       id="guide3016" />
  </sodipodi:namedview>
  <path
     sodipodi:type="arc"
     style="fill:url(#radialGradient3794);fill-opacity:1;stroke:none"
     id="path3018"
     sodipodi:cx="153.32207"
     sodipodi:cy="201.80458"
     sodipodi:rx="81.061523"
     sodipodi:ry="48.636913"
     d="m 234.38359,201.80458 a 81.061523,48.636913 0 1 1 -162.123046,0 81.061523,48.636913 0 1 1 162.123046,0 z"
     transform="matrix(1,0,0,0.84126985,-9.8817853,38.208588)" />
  <path
     sodipodi:type="arc"
     style="fill:#cbcbcb;fill-opacity:1;stroke:none"
     id="path3799"
     sodipodi:cx="127.98508"
     sodipodi:cy="214.95523"
     sodipodi:rx="66.417908"
     sodipodi:ry="18.656717"
     d="m 194.40298,214.95523 a 66.417908,18.656717 0 1 1 -132.835811,0 66.417908,18.656717 0 1 1 132.835811,0 z"
     transform="matrix(0.98595506,0,0,1.17,0.03171695,-41.538335)" />
  <path
     sodipodi:nodetypes="ccccc"
     inkscape:connector-curvature="0"
     id="path3781"
     d="m 57.823041,189.48723 3.17495,27.41622 c 0.77781,-34.43089 129.538419,-40.1349 130.472399,-2.13227 l 4.92708,-27.43621 C 184.83619,157.5861 65.701621,161.28688 57.823041,189.48723 z"
     style="fill:url(#linearGradient3783);fill-opacity:1;stroke:#6a6a6a;stroke-width:0.83312517;stroke-opacity:1" />
  <g
     inkscape:transform-center-x="-21.995919"
     id="g3820"
     transform="matrix(-0.71695743,0.69711694,-0.69711694,-0.71695743,15.888675,389.77217)"
     inkscape:transform-center-y="14.365777">
    <path
       inkscape:connector-curvature="0"
       id="path3822"
       d="m -258.16164,133.71291 67.31966,-8.95537 -32.42461,-10.19059 -51.26176,13.27865 z"
       style="fill:#a2c7f0;fill-opacity:1;stroke:none" />
    <path
       inkscape:connector-curvature="0"
       id="path3824"
       d="m -273.60193,127.22798 25.01327,-14.20506 -15.44029,-13.896264 19.76357,-18.219542 52.80579,9.57298 -27.79252,25.013266 z"
       style="fill:url(#linearGradient3828);fill-opacity:1;stroke:none" />
    <path
       inkscape:connector-curvature="0"
       id="path3826"
       d="m -257.85284,134.33052 11.73462,-6.79373 17.29313,-32.115803 22.23401,8.028953 30.88058,9.26417 -16.3667,11.73462 z"
       style="fill:#c8d8e9;fill-opacity:1;stroke:none" />
  </g>
  <g
     inkscape:transform-center-y="2.4987031"
     transform="matrix(-0.26999219,0.72682795,-1.2866142,-0.24020279,191.38918,293.90911)"
     id="g3850"
     inkscape:transform-center-x="-46.306479">
    <path
       style="fill:#a2c7f0;fill-opacity:1;stroke:none"
       d="m -258.16164,133.71291 67.31966,-8.95537 -32.42461,-10.19059 -51.26176,13.27865 z"
       id="path3852"
       inkscape:connector-curvature="0" />
    <path
       style="fill:url(#linearGradient3858);fill-opacity:1;stroke:none"
       d="m -273.60193,127.22798 25.01327,-14.20506 -15.44029,-13.896264 19.76357,-18.219542 52.80579,9.57298 -27.79252,25.013266 z"
       id="path3854"
       inkscape:connector-curvature="0" />
    <path
       style="fill:#c8d8e9;fill-opacity:1;stroke:none"
       d="m -257.85284,134.33052 11.73462,-6.79373 17.29313,-32.115803 22.23401,8.028953 30.88058,9.26417 -16.3667,11.73462 z"
       id="path3856"
       inkscape:connector-curvature="0" />
  </g>
  <g
     inkscape:transform-center-y="24.072582"
     transform="matrix(0.64115776,0.4359947,0.90951965,-0.94119469,168.2876,263.37316)"
     id="g3890"
     inkscape:transform-center-x="30.681515">
    <path
       style="fill:#a2c7f0;fill-opacity:1;stroke:none"
       d="m -258.16164,133.71291 67.31966,-8.95537 -32.42461,-10.19059 -51.26176,13.27865 z"
       id="path3892"
       inkscape:connector-curvature="0" />
    <path
       style="fill:url(#linearGradient3898);fill-opacity:1;stroke:none"
       d="m -273.60193,127.22798 25.01327,-14.20506 -15.44029,-13.896264 19.76357,-18.219542 52.80579,9.57298 -27.79252,25.013266 z"
       id="path3894"
       inkscape:connector-curvature="0" />
    <path
       style="fill:#c8d8e9;fill-opacity:1;stroke:none"
       d="m -257.85284,134.33052 11.73462,-6.79373 17.29313,-32.115803 22.23401,8.028953 30.88058,9.26417 -16.3667,11.73462 z"
       id="path3896"
       inkscape:connector-curvature="0" />
  </g>
  <g
     inkscape:transform-center-x="6.7509549"
     id="g3840"
     transform="matrix(0.77535116,-0.00228568,0.22665355,1.2890701,308.08737,-5.8319194)"
     inkscape:transform-center-y="-41.391865">
    <path
       inkscape:connector-curvature="0"
       id="path3842"
       d="m -258.16164,133.71291 67.31966,-8.95537 -32.42461,-10.19059 -51.26176,13.27865 z"
       style="fill:#a2c7f0;fill-opacity:1;stroke:none" />
    <path
       inkscape:connector-curvature="0"
       id="path3844"
       d="m -273.60193,127.22798 25.01327,-14.20506 -15.44029,-13.896264 19.76357,-18.219542 52.80579,9.57298 -27.79252,25.013266 z"
       style="fill:url(#linearGradient3848);fill-opacity:1;stroke:none" />
    <path
       inkscape:connector-curvature="0"
       id="path3846"
       d="m -257.85284,134.33052 11.73462,-6.79373 17.29313,-32.115803 22.23401,8.028953 30.88058,9.26417 -16.3667,11.73462 z"
       style="fill:#c8d8e9;fill-opacity:1;stroke:none" />
  </g>
  <g
     inkscape:transform-center-x="46.306479"
     id="g3860"
     transform="matrix(0.26999219,0.72682795,1.2866142,-0.24020279,97.985916,288.65941)"
     inkscape:transform-center-y="2.4987031">
    <path
       inkscape:connector-curvature="0"
       id="path3862"
       d="m -258.16164,133.71291 67.31966,-8.95537 -32.42461,-10.19059 -51.26176,13.27865 z"
       style="fill:#a2c7f0;fill-opacity:1;stroke:none" />
    <path
       inkscape:connector-curvature="0"
       id="path3864"
       d="m -273.60193,127.22798 25.01327,-14.20506 -15.44029,-13.896264 19.76357,-18.219542 52.80579,9.57298 -27.79252,25.013266 z"
       style="fill:url(#linearGradient3868);fill-opacity:1;stroke:none" />
    <path
       inkscape:connector-curvature="0"
       id="path3866"
       d="m -257.85284,134.33052 11.73462,-6.79373 17.29313,-32.115803 22.23401,8.028953 30.88058,9.26417 -16.3667,11.73462 z"
       style="fill:#c8d8e9;fill-opacity:1;stroke:none" />
  </g>
  <g
     inkscape:transform-center-y="-41.391865"
     transform="matrix(0.77535116,-0.00228568,0.22665355,1.2890701,238.60607,-16.948928)"
     id="g3830"
     inkscape:transform-center-x="6.7509549">
    <path
       style="fill:#a2c7f0;fill-opacity:1;stroke:none"
       d="m -258.16164,133.71291 67.31966,-8.95537 -32.42461,-10.19059 -51.26176,13.27865 z"
       id="path3832"
       inkscape:connector-curvature="0" />
    <path
       style="fill:url(#linearGradient3838);fill-opacity:1;stroke:none"
       d="m -273.60193,127.22798 25.01327,-14.20506 -15.44029,-13.896264 19.76357,-18.219542 52.80579,9.57298 -27.79252,25.013266 z"
       id="path3834"
       inkscape:connector-curvature="0" />
    <path
       style="fill:#c8d8e9;fill-opacity:1;stroke:none"
       d="m -257.85284,134.33052 11.73462,-6.79373 17.29313,-32.115803 22.23401,8.028953 30.88058,9.26417 -16.3667,11.73462 z"
       id="path3836"
       inkscape:connector-curvature="0" />
  </g>
  <g
     id="g3802"
     transform="translate(364.08203,79.054283)">
    <path
       inkscape:connector-curvature="0"
       id="path3020"
       d="m -258.16164,133.71291 67.31966,-8.95537 -32.42461,-10.19059 -51.26176,13.27865 z"
       style="fill:#a2c7f0;fill-opacity:1;stroke:none" />
    <path
       inkscape:connector-curvature="0"
       id="path3792"
       d="m -273.60193,127.22798 25.01327,-14.20506 -15.44029,-13.896264 19.76357,-18.219542 52.80579,9.57298 -27.79252,25.013266 z"
       style="fill:url(#linearGradient3807);fill-opacity:1;stroke:none" />
    <path
       inkscape:connector-curvature="0"
       id="path3790"
       d="m -257.85284,134.33052 11.73462,-6.79373 17.29313,-32.115803 22.23401,8.028953 30.88058,9.26417 -16.3667,11.73462 z"
       style="fill:#c8d8e9;fill-opacity:1;stroke:none" />
  </g>
  <path
     style="fill:url(#linearGradient3787);fill-opacity:1;stroke:#6a6a6a;stroke-width:0.83312517;stroke-opacity:1"
     d="m 61.271321,217.25947 -3.03195,-27.41622 c 0.77781,34.43089 136.894739,35.76708 137.828719,-2.23555 l -6.10741,33.41323 C 178.39941,250.7698 67.080931,249.36787 61.271321,217.25947 z"
     id="path3785"
     inkscape:connector-curvature="0"
     sodipodi:nodetypes="ccccc" />
  <g
     transform="matrix(0.15238263,0.98832157,0.98832157,-0.15238263,87.956564,396.22617)"
     id="g3809"
     inkscape:transform-center-x="35.821472">
    <path
       style="fill:#a2c7f0;fill-opacity:1;stroke:none"
       d="m -258.16164,133.71291 67.31966,-8.95537 -32.42461,-10.19059 -51.26176,13.27865 z"
       id="path3812"
       inkscape:connector-curvature="0" />
    <path
       style="fill:url(#linearGradient3818);fill-opacity:1;stroke:none"
       d="m -273.60193,127.22798 25.01327,-14.20506 -15.44029,-13.896264 19.76357,-18.219542 52.80579,9.57298 -27.79252,25.013266 z"
       id="path3814"
       inkscape:connector-curvature="0" />
    <path
       style="fill:#c8d8e9;fill-opacity:1;stroke:none"
       d="m -257.85284,134.33052 11.73462,-6.79373 17.29313,-32.115803 22.23401,8.028953 30.88058,9.26417 -16.3667,11.73462 z"
       id="path3816"
       inkscape:connector-curvature="0" />
  </g>
  <g
     inkscape:transform-center-x="1.4027824"
     id="g3880"
     transform="matrix(0.75903092,-0.15826154,-0.0450931,-1.3080673,339.94795,157.34062)"
     inkscape:transform-center-y="46.650086">
    <path
       inkscape:connector-curvature="0"
       id="path3882"
       d="m -258.16164,133.71291 67.31966,-8.95537 -32.42461,-10.19059 -51.26176,13.27865 z"
       style="fill:#a2c7f0;fill-opacity:1;stroke:none" />
    <path
       inkscape:connector-curvature="0"
       id="path3884"
       d="m -273.60193,127.22798 25.01327,-14.20506 -15.44029,-13.896264 19.76357,-18.219542 52.80579,9.57298 -27.79252,25.013266 z"
       style="fill:url(#linearGradient3888);fill-opacity:1;stroke:none" />
    <path
       inkscape:connector-curvature="0"
       id="path3886"
       d="m -257.85284,134.33052 11.73462,-6.79373 17.29313,-32.115803 22.23401,8.028953 30.88058,9.26417 -16.3667,11.73462 z"
       style="fill:#c8d8e9;fill-opacity:1;stroke:none" />
  </g>
  <path
     style="fill:url(#linearGradient3797);fill-opacity:1;stroke:none"
     d="m 28.991509,32.262609 29.27393,158.725301 c 12.332064,37.41804 131.018771,34.39243 138.734351,-2.68354 L 225.63329,32.262609 C 200.0789,2.0631857 35.019918,9.3913767 28.991509,32.262609 z"
     id="path3789"
     inkscape:connector-curvature="0"
     sodipodi:nodetypes="ccccc" />
  <path
     style="fill:url(#linearGradient3765);fill-opacity:1;stroke:#6a6a6a;stroke-opacity:1"
     d="m 28.042403,21.107185 0.60307,15.378091 C 31.049143,10.233356 217.01479,6.7862284 224.64076,35.279152 l 1.80918,-13.568905 C 211.03846,0.37944015 40.783203,1.2655993 28.042403,21.107185 z"
     id="path2987"
     inkscape:connector-curvature="0"
     sodipodi:nodetypes="ccccc" />
  <g
     inkscape:transform-center-y="2.4987031"
     transform="matrix(0.26999219,0.72682795,1.2866142,-0.24020279,7.1970123,262.41092)"
     id="g3870"
     inkscape:transform-center-x="46.306479">
    <path
       style="fill:#a2c7f0;fill-opacity:1;stroke:none"
       d="m -258.16164,133.71291 67.31966,-8.95537 -32.42461,-10.19059 -51.26176,13.27865 z"
       id="path3872"
       inkscape:connector-curvature="0" />
    <path
       style="fill:url(#linearGradient3878);fill-opacity:1;stroke:none"
       d="m -273.60193,127.22798 25.01327,-14.20506 -15.44029,-13.896264 19.76357,-18.219542 52.80579,9.57298 -27.79252,25.013266 z"
       id="path3874"
       inkscape:connector-curvature="0" />
    <path
       style="fill:#c8d8e9;fill-opacity:1;stroke:none"
       d="m -257.85284,134.33052 11.73462,-6.79373 17.29313,-32.115803 22.23401,8.028953 30.88058,9.26417 -16.3667,11.73462 z"
       id="path3876"
       inkscape:connector-curvature="0" />
  </g>
  <path
     sodipodi:nodetypes="ccccc"
     inkscape:connector-curvature="0"
     id="path3767"
     d="m 28.845463,35.922006 -1.20306,-14.368904 c -2.827367,26.164736 197.837347,28.489861 198.401417,-0.0031 l -0.8,13.467374 C 209.83233,56.34822 41.586263,55.763592 28.845463,35.922006 z"
     style="fill:url(#linearGradient3769);fill-opacity:1;stroke:url(#linearGradient3777);stroke-opacity:1" />
  <path
     sodipodi:type="arc"
     style="fill:none;stroke:#dfdfdf;stroke-width:1.82019591;stroke-linecap:round;stroke-linejoin:round;stroke-miterlimit:4;stroke-opacity:1;stroke-dasharray:none"
     id="path3779"
     sodipodi:cx="120.9"
     sodipodi:cy="23"
     sodipodi:rx="97.5"
     sodipodi:ry="18.800001"
     d="M 218.4,23 A 97.5,18.800001 0 1 1 23.400002,23 97.5,18.800001 0 1 1 218.4,23 z"
     transform="matrix(1.0154415,0,0,0.96306105,3.8545578,1.7495958)" />
  <path
     style="fill:url(#linearGradient3809);fill-opacity:1;stroke:none"
     d="M 33.913859,41.46288 C 46.19861,47.618456 53.0833,47.820173 64.593893,50.418104 L 78.113163,209.0002 C 71.641178,205.46684 64.86604,202.41285 61.432508,194.07482 z"
     id="path3801"
     inkscape:connector-curvature="0"
     sodipodi:nodetypes="ccccc" />
  <path
     style="fill:url(#linearGradient3819);fill-opacity:1;stroke:none"
     d="m 219.64963,40.084438 c -13.62038,8.128198 -38.47321,9.27938 -49.50522,10.46875 l -4.44221,57.875002 c 17.48369,-6.29217 32.30048,-14.668384 46.26575,-23.718752 z m -10.08625,58.65625 c -14.73361,9.172132 -29.63457,16.608392 -44.76654,21.187502 l -7.48268,90.59872 c 11.59154,-3.03432 28.12606,-4.21208 36.267,-20.45013 z"
     id="path3811"
     inkscape:connector-curvature="0"
     sodipodi:nodetypes="cccccccccc" />
</svg>
