<?xml version="1.0" encoding="UTF-8" standalone="no"?>
<!-- Created with Inkscape (http://www.inkscape.org/) -->
<svg xmlns:dc="http://purl.org/dc/elements/1.1/" xmlns:cc="http://creativecommons.org/ns#" xmlns:rdf="http://www.w3.org/1999/02/22-rdf-syntax-ns#" xmlns:svg="http://www.w3.org/2000/svg" xmlns="http://www.w3.org/2000/svg" xmlns:xlink="http://www.w3.org/1999/xlink" xmlns:sodipodi="http://sodipodi.sourceforge.net/DTD/sodipodi-0.dtd" xmlns:inkscape="http://www.inkscape.org/namespaces/inkscape" width="255" height="255" id="svg2" version="1.1" inkscape:version="0.48.0 r9654" sodipodi:docname="pe1.svg">
 <defs id="defs4">
  <linearGradient inkscape:collect="always" id="linearGradient4000">
   <stop id="stop4002" stop-color="#050000" stop-opacity="1"/>
   <stop offset="1" id="stop4004" stop-color="#cecece" stop-opacity="1"/>
  </linearGradient>
  <linearGradient inkscape:collect="always" id="linearGradient3992">
   <stop id="stop3994" stop-color="#7e7e7e" stop-opacity="1"/>
   <stop offset="1" id="stop3996" stop-color="#000000" stop-opacity="1"/>
  </linearGradient>
  <linearGradient inkscape:collect="always" id="linearGradient3851">
   <stop id="stop3853" stop-color="#000000" stop-opacity="1"/>
   <stop id="stop3859" offset="0.796" stop-color="#494949" stop-opacity="1"/>
   <stop offset="1" id="stop3855" stop-color="#100000" stop-opacity="1"/>
  </linearGradient>
  <linearGradient inkscape:collect="always" id="linearGradient3822">
   <stop id="stop3824" stop-color="#000000" stop-opacity="1"/>
   <stop offset="1" id="stop3826" stop-color="#ffffff" stop-opacity="0"/>
  </linearGradient>
  <linearGradient inkscape:collect="always" id="linearGradient3800">
   <stop id="stop3802" stop-color="#2e2e2e" stop-opacity="1"/>
   <stop id="stop3812" offset="0.365" stop-color="#383838" stop-opacity="1"/>
   <stop id="stop3810" offset="0.432" stop-color="#848484" stop-opacity="1"/>
   <stop id="stop3808" offset="0.47" stop-color="#000000" stop-opacity="1"/>
   <stop offset="0.5" id="stop3814" stop-color="#6c5b5b" stop-opacity="1"/>
   <stop id="stop3816" offset="0.565" stop-color="#c1c1c1" stop-opacity="1"/>
   <stop offset="1" id="stop3804" stop-color="#000000" stop-opacity="1"/>
  </linearGradient>
  <linearGradient inkscape:collect="always" id="linearGradient3780">
   <stop id="stop3782" stop-color="#000000" stop-opacity="1"/>
   <stop id="stop3788" offset="0.124" stop-color="#bdbdbd" stop-opacity="1"/>
   <stop offset="0.647" id="stop3790" stop-color="#4a4a4a" stop-opacity="1"/>
   <stop offset="1" id="stop3784" stop-color="#000000" stop-opacity="1"/>
  </linearGradient>
  <filter inkscape:collect="always" id="filter3770" color-interpolation-filters="sRGB">
   <feGaussianBlur inkscape:collect="always" stdDeviation="0.98743" id="feGaussianBlur3772"/>
  </filter>
  <linearGradient inkscape:collect="always" xlink:href="#linearGradient3780" id="linearGradient3786" x1="250.42" y1="593.47" x2="272.49" y2="456.04" gradientUnits="userSpaceOnUse" gradientTransform="matrix(0.25970698,0,0,0.26502948,40.840344,777.24975)"/>
  <linearGradient inkscape:collect="always" xlink:href="#linearGradient3800" id="linearGradient3806" x1="-15.698" y1="701.07" x2="36.633" y2="429.29" gradientUnits="userSpaceOnUse" gradientTransform="matrix(0.25970698,0,0,0.26502948,40.840344,777.24975)"/>
  <linearGradient inkscape:collect="always" xlink:href="#linearGradient3822" id="linearGradient3828" x1="235.08" y1="629.66" x2="240.99" y2="590.4" gradientUnits="userSpaceOnUse" gradientTransform="matrix(0.25970701,0,0,0.2650295,40.840347,777.24974)"/>
  <radialGradient inkscape:collect="always" xlink:href="#linearGradient3851" id="radialGradient3857" cx="241.11" cy="757.98" fx="241.11" fy="757.98" r="211.34" gradientTransform="matrix(0.28808023,0.06552914,-0.01816508,0.08316439,45.272229,889.23572)" gradientUnits="userSpaceOnUse"/>
  <filter inkscape:collect="always" id="filter3873">
   <feGaussianBlur inkscape:collect="always" stdDeviation="2.27066" id="feGaussianBlur3875"/>
  </filter>
  <linearGradient y2="223.3" x2="349.48" y1="244.39" x1="261.53" gradientUnits="userSpaceOnUse" id="linearGradient3838" xlink:href="#linearGradient3783" inkscape:collect="always"/>
  <linearGradient y2="217.69" x2="313.89" y1="250.53" x1="264.74" gradientUnits="userSpaceOnUse" id="linearGradient3836" xlink:href="#linearGradient3759" inkscape:collect="always"/>
  <linearGradient y2="242.59" x2="281.1" y1="216.28" x1="334.96" gradientUnits="userSpaceOnUse" id="linearGradient3834" xlink:href="#linearGradient3759" inkscape:collect="always"/>
  <linearGradient y2="263.33" x2="229.11" y1="229.72" x1="342.41" gradientUnits="userSpaceOnUse" id="linearGradient3832" xlink:href="#linearGradient3799" inkscape:collect="always"/>
  <linearGradient y2="225.21" x2="320.12" y1="253" x1="236.66" gradientUnits="userSpaceOnUse" id="linearGradient3830" xlink:href="#linearGradient3759" inkscape:collect="always"/>
  <linearGradient y2="211.43" x2="350.38" y1="264.5" x1="250.19" gradientUnits="userSpaceOnUse" id="linearGradient3828-7" xlink:href="#linearGradient3799" inkscape:collect="always"/>
  <linearGradient y2="225.21" x2="320.12" y1="250.37" x1="238.1" gradientUnits="userSpaceOnUse" id="linearGradient3826" xlink:href="#linearGradient3759" inkscape:collect="always"/>
  <linearGradient id="linearGradient3759">
   <stop id="stop3761" stop-color="#c7c7c7" stop-opacity="1"/>
   <stop id="stop3763" offset="1" stop-color="#ffffff" stop-opacity="1"/>
  </linearGradient>
  <linearGradient id="linearGradient3783">
   <stop id="stop3785" stop-color="#ffffff" stop-opacity="1"/>
   <stop id="stop3787" offset="1" stop-color="#000000" stop-opacity="1"/>
  </linearGradient>
  <linearGradient id="linearGradient3799">
   <stop id="stop3801" stop-color="#ffffff" stop-opacity="1"/>
   <stop offset="1" id="stop3803" stop-color="#868686" stop-opacity="1"/>
  </linearGradient>
  <clipPath id="clipPath1162" clipPathUnits="userSpaceOnUse">
   <path id="path1164" d="m -65.649736,239.84563 c -9.358079,0 -16.951888,7.59381 -16.951888,16.95188 0,9.35808 7.593811,16.94076 16.951888,16.94077 0.292439,0 0.578792,-0.008 0.867614,-0.0222 2.122786,-0.10753 4.148336,-0.60587 5.995453,-1.42378 l 2.669587,3.97101 c -0.225515,0.4951 -0.245107,0.96445 -0.01111,1.31255 l 15.67271,23.32553 c 0.495366,0.73695 1.94415,0.6317 3.247998,-0.24471 1.303846,-0.87642 1.96364,-2.17735 1.468276,-2.9143 L -51.42304,274.4168 c -0.233058,-0.34672 -0.682887,-0.49868 -1.22356,-0.47831 l -2.558357,-3.80416 c 3.95991,-3.10036 6.507123,-7.91951 6.507123,-13.33682 0,-9.35807 -7.593809,-16.95188 -16.951889,-16.95188 z m 0,2.5806 c 7.92884,0 14.371283,6.44244 14.371283,14.37128 0,7.92885 -6.442435,14.36016 -14.371283,14.36016 -7.928851,0 -14.349039,-6.43131 -14.349039,-14.36016 0,-0.24777 -0.0013,-0.48941 0.01111,-0.73413 0.384376,-7.58638 6.656848,-13.63715 14.337916,-13.63715 z" inkscape:connector-curvature="0" stroke-dasharray="none" stroke-opacity="1" fill="#000000" stroke="none" stroke-linejoin="round" fill-opacity="0.347" stroke-linecap="round" stroke-width="0.071" stroke-miterlimit="4"/>
  </clipPath>
  <clipPath id="clipPath2059-7" clipPathUnits="userSpaceOnUse">
   <path stroke-miterlimit="4" stroke-width="0.048" stroke-linecap="butt" fill-opacity="1" stroke-linejoin="miter" stroke="none" fill-rule="evenodd" fill="#ffffff" stroke-opacity="1" stroke-dasharray="none" inkscape:connector-curvature="0" sodipodi:nodetypes="csscsscccccccs" id="path2061-5" d="m -10.099732,231.68531 c 3.5587363,2.50616 4.8319716,-0.58528 2.9651647,-3.064 -3.1818907,-4.22486 -6.4443207,-9.83985 -12.3548527,-15.91305 -2.594516,-2.66865 -11.860659,-7.80827 -11.860659,-7.80827 0,0 -0.115438,-2.18844 -0.09884,-3.064 0.01106,-0.582 -0.565687,-0.56369 -0.889553,-0.29652 -0.782426,0.64546 -2.47097,2.56981 -2.47097,2.56981 l -1.68026,-0.0988 -1.087226,-1.58142 c -0.296516,-0.41055 -0.636056,-0.34641 -0.88955,0 -0.545383,1.84962 -0.878698,3.8848 -3.459359,3.95355 l 4.447747,3.95356 c 7.76561,1.55335 15.578734,5.58545 20.261957,14.33163 0,0 4.526451,5.19364 7.116396,7.01755 z"/>
  </clipPath>
  <clipPath id="clipPath">
   <path d="m -515.73002,435.56445 v 5.83767 c 0,9.74315 -7.84377,17.58692 -17.58692,17.58692 h -135.05122 c -9.74315,0 -17.58692,-7.84377 -17.58692,-17.58692 v -5.83767 z" id="rect5264" inkscape:connector-curvature="0" sodipodi:nodetypes="csssscc" fill="#1b1b1b" stroke="none" fill-opacity="0.95"/>
  </clipPath>
  <clipPath clipPathUnits="userSpaceOnUse" id="clipPath2059-5">
   <path d="m -10.099732,231.68531 c 3.5587363,2.50616 4.8319716,-0.58528 2.9651647,-3.064 -3.1818907,-4.22486 -6.4443207,-9.83985 -12.3548527,-15.91305 -2.594516,-2.66865 -11.860659,-7.80827 -11.860659,-7.80827 0,0 -0.115438,-2.18844 -0.09884,-3.064 0.01106,-0.582 -0.565687,-0.56369 -0.889553,-0.29652 -0.782426,0.64546 -2.47097,2.56981 -2.47097,2.56981 l -1.68026,-0.0988 -1.087226,-1.58142 c -0.296516,-0.41055 -0.636056,-0.34641 -0.88955,0 -0.545383,1.84962 -0.878698,3.8848 -3.459359,3.95355 l 4.447747,3.95356 c 7.76561,1.55335 15.578734,5.58545 20.261957,14.33163 0,0 4.526451,5.19364 7.116396,7.01755 z" id="path2061-3" sodipodi:nodetypes="csscsscccccccs" inkscape:connector-curvature="0" stroke-dasharray="none" stroke-opacity="1" fill="#ffffff" fill-rule="evenodd" stroke="none" stroke-linejoin="miter" fill-opacity="1" stroke-linecap="butt" stroke-width="0.048" stroke-miterlimit="4"/>
  </clipPath>
  <clipPath id="clipPath2059" clipPathUnits="userSpaceOnUse">
   <path stroke-miterlimit="4" stroke-width="0.048" stroke-linecap="butt" fill-opacity="1" stroke-linejoin="miter" stroke="none" fill-rule="evenodd" fill="#ffffff" stroke-opacity="1" stroke-dasharray="none" inkscape:connector-curvature="0" sodipodi:nodetypes="csscsscccccccs" id="path2061" d="m -10.099732,231.68531 c 3.5587363,2.50616 4.8319716,-0.58528 2.9651647,-3.064 -3.1818907,-4.22486 -6.4443207,-9.83985 -12.3548527,-15.91305 -2.594516,-2.66865 -11.860659,-7.80827 -11.860659,-7.80827 0,0 -0.115438,-2.18844 -0.09884,-3.064 0.01106,-0.582 -0.565687,-0.56369 -0.889553,-0.29652 -0.782426,0.64546 -2.47097,2.56981 -2.47097,2.56981 l -1.68026,-0.0988 -1.087226,-1.58142 c -0.296516,-0.41055 -0.636056,-0.34641 -0.88955,0 -0.545383,1.84962 -0.878698,3.8848 -3.459359,3.95355 l 4.447747,3.95356 c 7.76561,1.55335 15.578734,5.58545 20.261957,14.33163 0,0 4.526451,5.19364 7.116396,7.01755 z"/>
  </clipPath>
  <linearGradient inkscape:collect="always" xlink:href="#linearGradient3992" id="linearGradient3998" x1="47.985" y1="120.01" x2="51.46" y2="108.86" gradientUnits="userSpaceOnUse"/>
  <linearGradient inkscape:collect="always" xlink:href="#linearGradient4000" id="linearGradient4006" x1="142.02" y1="940.92" x2="147.5" y2="900.42" gradientUnits="userSpaceOnUse"/>
 </defs>
 <sodipodi:namedview id="base" pagecolor="#ff0000" bordercolor="#666666" borderopacity="1.0" inkscape:pageopacity="0" inkscape:pageshadow="2" inkscape:zoom="3.3960784" inkscape:cx="127.5" inkscape:cy="127.5" inkscape:document-units="px" inkscape:current-layer="layer1" showgrid="false" inkscape:window-width="1920" inkscape:window-height="1056" inkscape:window-x="-4" inkscape:window-y="1" inkscape:window-maximized="1"/>
 <metadata id="metadata7">
  <rdf:RDF>
   <cc:Work>
    <dc:format>image/svg+xml</dc:format>
    <dc:type rdf:resource="http://purl.org/dc/dcmitype/StillImage"/>
    <dc:title/>
   </cc:Work>
  </rdf:RDF>
 </metadata>
 <g inkscape:label="Layer 1" inkscape:groupmode="layer" id="layer1" transform="translate(0,-797.36218)">
  <path d="m 20.906467,137.51155 c -5.93334,1.5174 -11.2027713,3.8315 -13.2505779,10.01154 l -1.4722863,18.25636 c -0.5977336,7.67999 4.0544592,9.36006 8.8337182,10.89491 9.637017,0.85485 19.079401,2.88128 28.562356,4.71132 l -26.501155,17.96189 3.778567,13.07694 69.22306,16.75928 12.819361,-8.58727 36.67325,9.08015 16.19514,-32.09583 41.22402,7.06696 c 9.34548,2.12192 14.98233,-3.64556 19.72863,-7.65588 z" id="path3863" inkscape:connector-curvature="0" transform="translate(0,797.36218)" sodipodi:nodetypes="cccccccccccccc" fill="#000000" filter="url(#filter3873)" stroke="none" fill-opacity="0.765"/>
  <path d="m 51.570596,960.50388 -0.946785,-12.56047 6.627505,-3.5427 95.941074,16.94055 c 5.03295,1.35944 6.02429,6.42985 6.94311,9.46865 l -0.94679,9.3399 z" id="path3849" inkscape:connector-curvature="0" sodipodi:nodetypes="ccccccc" stroke-opacity="1" fill="url(#radialGradient3857)" stroke="#000000" stroke-linejoin="miter" fill-opacity="1" stroke-linecap="butt" stroke-width="0.262"/>
  <path d="M 91.020047,894.48085 105.53746,822.6607 c 1.14268,-5.65307 5.44062,-7.52761 11.36143,-7.08541 l 78.8414,5.88831 c 3.14363,0.23479 5.91767,3.38924 4.73393,10.30604 l -12.8819,75.2717 z" id="path3847" inkscape:connector-curvature="0" sodipodi:nodetypes="csssscc" stroke-opacity="1" fill="#cdcdcd" stroke="#000000" stroke-linejoin="miter" fill-opacity="1" stroke-linecap="butt" stroke-width="0.262"/>
  <path d="m 90.388857,896.09119 c 0,0 -4.943867,-7.17478 3.155961,-5.79715 9.467872,1.61032 67.853062,8.05158 84.579622,10.30603 10.41469,1.40372 7.88991,7.40746 7.88991,7.40746 z" id="path3845" inkscape:connector-curvature="0" sodipodi:nodetypes="csscc" stroke-opacity="1" fill="#979797" stroke="#000000" stroke-linejoin="miter" fill-opacity="1" stroke-linecap="butt" stroke-width="0.262"/>
  <rect id="rect3835" width="113.34" height="7.801" x="188.35" y="905.88" transform="matrix(0.98742402,0.1580943,-0.15195625,0.98838722,0,0)" fill="#000000" stroke="none" fill-opacity="1"/>
  <path d="m 214.66403,958.27951 c -0.11053,-6.99649 -1.48232,-13.38797 6.04314,-20.09301 7.70711,-10.22149 16.33894,-19.33841 22.75607,-21.89186 l 4.11415,0.52482 c 2.37949,0.32258 3.36765,1.12347 3.59992,5.24812 l -3.34277,32.80066 c -0.96198,3.67369 -2.24734,7.34737 -5.91412,11.02105 l -20.828,25.71575 c -3.1834,3.18638 -5.17416,6.98141 -14.91386,6.82255 l -47.0013,-10.23383 0.14719,-4.74187 44.28275,8.67792 c 6.20695,1.14236 10.83949,-0.33294 11.88368,-5.3232 z" id="path2996" inkscape:connector-curvature="0" sodipodi:nodetypes="cccccccccccccc" fill="#b5b5b5" stroke="none" fill-opacity="1"/>
  <path d="m 220.02755,992.74827 c 8.82721,-10.21899 16.57049,-20.06931 24.73954,-30.06441 1.80771,-2.77544 2.7265,-5.85325 3.06745,-9.12763 l 3.08562,-31.48865 c -0.024,-2.43602 -0.2348,-4.71929 -2.66403,-5.19155 -2.59518,0.53687 -18.15211,15.63977 -23.43479,24.34715 -3.00414,4.35755 -4.15508,9.56403 -3.98604,15.2195 l 0.45975,27.1214 c 0.31821,3.48615 -0.22961,6.39001 -1.2675,9.18419 z" id="path3766" inkscape:connector-curvature="0" sodipodi:nodetypes="ccccccccc" fill="#d5d5d5" stroke="none" fill-opacity="1"/>
  <path sodipodi:nodetypes="ccccc" inkscape:connector-curvature="0" id="path3768" d="m 798.65305,526.83303 c -9.99273,2.02573 -69.89459,59.01144 -90.23546,91.86579 -11.56745,16.4418 -15.99916,36.08667 -15.34828,57.42574 l 1.77028,102.33356 c 1.22527,13.15389 -0.88409,24.11042 -4.88052,34.65346" transform="matrix(0.25970701,0,0,0.2650295,40.840347,777.24974)" stroke-opacity="0.632" stroke-dasharray="none" fill="#d5d5d5" filter="url(#filter3770)" stroke="#ffffff" stroke-linejoin="miter" fill-opacity="1" stroke-linecap="butt" stroke-width="1.7" stroke-miterlimit="4"/>
  <path d="m 58.551814,890.11531 c -1.024778,-0.30355 -4.92892,-0.60872 -7.158002,0.28095 -24.831548,8.17167 -28.061887,11.6832 -37.350091,17.7935 -4.3961685,2.89204 -6.5796678,8.60071 -5.6896914,13.111 l 5.4143874,27.43944 c 1.500223,7.60295 6.618224,12.96172 12.572384,14.0475 l 26.704855,4.86981 -0.275311,-5.15076 -24.777699,-4.1206 C 21.207152,957.2577 18.649752,952.58211 17.163878,944.80691 L 12.85072,922.23726 c -0.842715,-4.40971 0.05485,-9.91576 4.588462,-12.83006 10.735388,-6.90099 18.934399,-13.48576 36.34063,-18.16809 z" id="path3774" inkscape:connector-curvature="0" sodipodi:nodetypes="ccssssccsssscc" stroke-opacity="1" fill="#b5b5b5" stroke="#e3e3e3" stroke-linejoin="miter" fill-opacity="1" stroke-linecap="butt" stroke-width="0.262"/>
  <path d="m 188.70089,907.27797 c -10.73916,3.98217 -19.51105,13.05132 -28.29421,22.27319 -3.08913,3.02828 -5.2424,4.85713 -4.61344,10.41498 l -0.33025,5.14125 0.4318,4.68251 c -1.2268,3.54376 -4.72359,3.14943 -8.35101,2.52855 L 51.920215,934.8059 c -4.821517,-2.08164 -3.25441,-8.124 -3.30369,-13.01737 0.727429,-2.47879 1.945563,-4.7907 3.946076,-6.83644 12.115612,-8.78731 24.122781,-16.50217 39.0937,-20.13475 L 58.894679,890.7904 c -12.810961,1.65252 -24.706635,7.66393 -36.248854,15.35858 -5.920538,3.64802 -9.127811,6.1953 -9.790035,8.71463 -1.41049,4.36511 0.605312,7.36793 0.704876,10.57727 l 4.955542,24.9109 c 1.427167,5.50352 6.079441,6.77549 10.369925,8.52215 l 23.584699,4.1206 -1.009461,-12.26815 c 1.16259,-6.15072 4.631432,-4.02386 6.056766,-4.96345 l 91.769273,16.29512 c 3.88339,0.5954 8.91531,3.0911 8.71808,6.27455 l 1.87873,15.3534 45.29066,8.90195 c 4.93352,1.02434 9.30689,0.84191 10.46169,-6.27459 l -1.193,-31.74731 c 0.20777,-3.88873 0.0589,-7.51031 3.12016,-11.9872 6.65683,-9.73508 16.46017,-18.21958 26.246,-26.59661 L 195.19004,908.62813 91.825766,895.02531" id="path3776" inkscape:connector-curvature="0" sodipodi:nodetypes="cccccccccccccccccccccccccsccc" stroke-opacity="1" stroke-dasharray="none" fill="url(#linearGradient3806)" stroke="#000000" stroke-linejoin="miter" fill-opacity="1" stroke-linecap="butt" stroke-width="0.525" stroke-miterlimit="4"/>
  <path d="m 49.284806,925.91833 106.591404,16.42208 c 0,0 0.1613,-3.27607 0.47799,-4.87784 0.51092,-4.33592 3.3109,-6.94717 6.5325,-9.75569 12.0741,-10.57264 18.41029,-14.98229 23.74009,-17.72283 0,0 5.09854,-2.11374 4.46123,-2.11374 -0.63732,0 -99.74024,-13.00758 -99.74024,-13.00758 l -11.631051,4.06487 c -10.005025,3.49659 -18.378864,9.30358 -26.448685,15.28391 -3.326274,2.46501 -5.428002,5.80932 -4.779883,8.45493 z" id="path3778" inkscape:connector-curvature="0" sodipodi:nodetypes="cccccscsssc" stroke-opacity="1" stroke-dasharray="none" fill="url(#linearGradient3786)" stroke="url(#linearGradient4006)" stroke-linejoin="miter" fill-opacity="1" stroke-linecap="butt" stroke-width="0.862" stroke-miterlimit="4"/>
  <path d="m 155.23889,943.15337 0,7.31677 c -1.44765,2.76766 -4.34558,2.08198 -7.0105,1.95114 L 51.674745,935.34884 c -2.529933,-1.51046 -5.029251,-3.03826 -3.823906,-6.6664 l -0.15933,-3.08929 z" id="path3818" inkscape:connector-curvature="0" sodipodi:nodetypes="ccccccc" fill="#565555" stroke="none" fill-opacity="0.142"/>
  <path d="m 53.586698,929.49542 c -1.361735,2.58436 2.124854,2.97986 5.73586,3.57707 l 92.411092,15.28393 c 2.27844,0.37683 3.23567,-1.80086 4.62055,-3.4145 l -0.31867,3.90228 c -0.95952,2.75685 -2.43828,4.36455 -5.80289,3.74531 L 53.905359,934.86103 c -3.644384,-0.6707 -5.425806,-2.85639 -4.779883,-6.34119 z" id="path3820" inkscape:connector-curvature="0" sodipodi:nodetypes="cssccsscc" fill="url(#linearGradient3828)" stroke="none" fill-opacity="1"/>
  <path sodipodi:nodetypes="ccccc" inkscape:connector-curvature="0" id="path3839" d="m 54.432487,964.26336 c -2.184453,1.48612 -32.766774,23.53063 -32.766774,23.53063 l 119.902117,31.20911 17.4756,-35.41981 z" stroke-opacity="1" fill="#978f8f" stroke="#000000" stroke-linejoin="miter" fill-opacity="1" stroke-linecap="butt" stroke-width="0.262"/>
  <path d="M 53.947052,961.29105 C 51.762601,962.77721 21.18028,984.82176 21.18028,984.82176 L 141.08239,1016.0308 158.558,980.61096 z" id="path3837" inkscape:connector-curvature="0" sodipodi:nodetypes="ccccc" stroke-opacity="1" fill="#cdcdcd" stroke="#8f8787" stroke-linejoin="miter" fill-opacity="1" stroke-linecap="butt" stroke-width="0.262"/>
  <path sodipodi:nodetypes="ccccc" inkscape:connector-curvature="0" id="path3841" d="m 21.66572,985.31705 -0.970874,7.92611 120.144834,29.22754 0.23503,-6.4137 z" stroke-opacity="1" fill="#978f8f" stroke="#000000" stroke-linejoin="miter" fill-opacity="1" stroke-linecap="butt" stroke-width="0.262"/>
  <path d="m 140.85259,1022.4891 2.27467,-4.25 -0.0129,-2.3084 0.005,-3.9287 -2.04488,4.0577 z" id="path3843" inkscape:connector-curvature="0" sodipodi:nodetypes="cccccc" fill="#dbdbdb" stroke="none" fill-opacity="1"/>
  <rect id="rect3861" width="25.631" height="10.95" x="178.27" y="936.91" ry="2.899" transform="matrix(0.98503272,0.17236746,0,1,0,0)" stroke-opacity="1" stroke-dasharray="none" fill="#ffffff" stroke="#000000" fill-opacity="1" stroke-width="0.529" stroke-miterlimit="4" rx="2.899"/>
  <g transform="matrix(0.1649898,0,0,0.1649898,175.56021,897.12304)" id="g3817">
   <path transform="matrix(1.0211803,0,0,0.97797649,-116.86875,2.5846938)" d="m 345.22222,238.16762 c 0,20.93406 -24.08493,37.90446 -53.79519,37.90446 -29.71026,0 -53.79518,-16.9704 -53.79518,-37.90446 0,-20.93406 24.08492,-37.90447 53.79518,-37.90447 29.71026,0 53.79519,16.97041 53.79519,37.90447 z" sodipodi:ry="37.904465" sodipodi:rx="53.795185" sodipodi:cy="238.16762" sodipodi:cx="291.42703" id="path3805" sodipodi:type="arc" stroke-opacity="1" stroke-dasharray="none" fill="url(#linearGradient3826)" stroke="url(#linearGradient3828-7)" fill-opacity="1" stroke-width="1.022" stroke-miterlimit="4"/>
   <path sodipodi:type="arc" id="path3755" sodipodi:cx="291.42703" sodipodi:cy="238.16762" sodipodi:rx="53.795185" sodipodi:ry="37.904465" d="m 345.22222,238.16762 c 0,20.93406 -24.08493,37.90446 -53.79519,37.90446 -29.71026,0 -53.79518,-16.9704 -53.79518,-37.90446 0,-20.93406 24.08492,-37.90447 53.79518,-37.90447 29.71026,0 53.79519,16.97041 53.79519,37.90447 z" transform="matrix(1,0,0,0.95769231,-110.69625,7.4157234)" stroke-opacity="1" stroke-dasharray="none" fill="url(#linearGradient3830)" stroke="url(#linearGradient3832)" fill-opacity="1" stroke-width="1.022" stroke-miterlimit="4"/>
   <path transform="matrix(0.76380571,0,0,0.73149086,-42.222563,56.073756)" d="m 345.22222,238.16762 c 0,20.93406 -24.08493,37.90446 -53.79519,37.90446 -29.71026,0 -53.79518,-16.9704 -53.79518,-37.90446 0,-20.93406 24.08492,-37.90447 53.79518,-37.90447 29.71026,0 53.79519,16.97041 53.79519,37.90447 z" sodipodi:ry="37.904465" sodipodi:rx="53.795185" sodipodi:cy="238.16762" sodipodi:cx="291.42703" id="path3757" sodipodi:type="arc" stroke-opacity="0.298" stroke-dasharray="none" fill="url(#linearGradient3834)" stroke="#ffffff" fill-opacity="1" stroke-width="6.689" stroke-miterlimit="4"/>
   <path sodipodi:type="arc" id="path3775" sodipodi:cx="291.42703" sodipodi:cy="238.16762" sodipodi:rx="53.795185" sodipodi:ry="37.904465" d="m 345.22222,238.16762 c 0,20.93406 -24.08493,37.90446 -53.79519,37.90446 -29.71026,0 -53.79518,-16.9704 -53.79518,-37.90446 0,-20.93406 24.08492,-37.90447 53.79518,-37.90447 29.71026,0 53.79519,16.97041 53.79519,37.90447 z" transform="matrix(0.76380571,0,0,0.73149086,-42.222563,56.073756)" stroke-opacity="0.298" stroke-dasharray="none" fill="none" stroke="#ffffff" stroke-width="4.01" stroke-miterlimit="4"/>
   <path transform="matrix(0.76380571,0,0,0.73149086,-42.222563,56.073756)" d="m 345.22222,238.16762 c 0,20.93406 -24.08493,37.90446 -53.79519,37.90446 -29.71026,0 -53.79518,-16.9704 -53.79518,-37.90446 0,-20.93406 24.08492,-37.90447 53.79518,-37.90447 29.71026,0 53.79519,16.97041 53.79519,37.90447 z" sodipodi:ry="37.904465" sodipodi:rx="53.795185" sodipodi:cy="238.16762" sodipodi:cx="291.42703" id="path3777" sodipodi:type="arc" stroke-opacity="0.298" stroke-dasharray="none" fill="none" stroke="#ffffff" stroke-width="1.338" stroke-miterlimit="4"/>
   <path sodipodi:type="arc" id="path3779" sodipodi:cx="291.42703" sodipodi:cy="238.16762" sodipodi:rx="53.795185" sodipodi:ry="37.904465" d="m 345.22222,238.16762 c 0,20.93406 -24.08493,37.90446 -53.79519,37.90446 -29.71026,0 -53.79518,-16.9704 -53.79518,-37.90446 0,-20.93406 24.08492,-37.90447 53.79518,-37.90447 29.71026,0 53.79519,16.97041 53.79519,37.90447 z" transform="matrix(0.54298952,0,0,0.52001689,21.229962,109.31771)" stroke-opacity="0.298" stroke-dasharray="none" fill="url(#linearGradient3836)" stroke="url(#linearGradient3838)" fill-opacity="1" stroke-width="1.882" stroke-miterlimit="4"/>
   <path transform="matrix(1.0132502,0,0,0.97038197,-114.55773,4.393458)" d="m 345.22222,238.16762 c 0,20.93406 -24.08493,37.90446 -53.79519,37.90446 -29.71026,0 -53.79518,-16.9704 -53.79518,-37.90446 0,-20.93406 24.08492,-37.90447 53.79518,-37.90447 29.71026,0 53.79519,16.97041 53.79519,37.90447 z" sodipodi:ry="37.904465" sodipodi:rx="53.795185" sodipodi:cy="238.16762" sodipodi:cx="291.42703" id="path3811" sodipodi:type="arc" stroke-opacity="0.298" stroke-dasharray="none" fill="none" stroke="#ffffff" stroke-width="1.022" stroke-miterlimit="4"/>
  </g>
  <path transform="translate(0,797.36218)" d="m 38.842975,108.58127 18.4573,1.92838 -11.157025,7.98898 -21.625344,-2.06612 z" id="rect3221" inkscape:connector-curvature="0" sodipodi:nodetypes="ccccc" stroke-opacity="1" fill="#22ef04" stroke="url(#linearGradient3998)" fill-opacity="0.765"/>
  <path transform="matrix(0.99651832,0.08337405,-0.08337405,0.99651832,0,0)" d="m 187.81634,797.91089 70.16372,-0.0241 -9.31902,84.03169 -73.01285,-2.64023 z" id="rect4008" inkscape:connector-curvature="0" sodipodi:nodetypes="ccccc" fill="#f3f1ce" stroke="none" fill-opacity="1"/>
  <path sodipodi:nodetypes="ccccc" inkscape:connector-curvature="0" id="path4011" d="M 67.124465,963.41661 135.96665,976.97027 90.245334,1019.3308 19.12345,1002.6119 z" fill="#f3f1ce" stroke="none" fill-opacity="1"/>
 </g>
</svg>
