<?xml version="1.0" encoding="UTF-8" standalone="no"?>
<svg
   xmlns:dc="http://purl.org/dc/elements/1.1/"
   xmlns:cc="http://creativecommons.org/ns#"
   xmlns:rdf="http://www.w3.org/1999/02/22-rdf-syntax-ns#"
   xmlns:svg="http://www.w3.org/2000/svg"
   xmlns="http://www.w3.org/2000/svg"
   xmlns:xlink="http://www.w3.org/1999/xlink"
   xmlns:sodipodi="http://sodipodi.sourceforge.net/DTD/sodipodi-0.dtd"
   xmlns:inkscape="http://www.inkscape.org/namespaces/inkscape"
   width="255"
   height="255"
   viewBox="0 0 67.468748 67.468752"
   version="1.1"
   id="svg8"
   inkscape:version="1.0 (4035a4f, 2020-05-01)"
   sodipodi:docname="package_utilities_web.svg">
  <defs
     id="defs2">
    <linearGradient
       id="linearGradient967"
       inkscape:collect="always">
      <stop
         id="stop963"
         offset="0"
         style="stop-color:#5a0000;stop-opacity:1" />
      <stop
         id="stop965"
         offset="1"
         style="stop-color:#ff7171;stop-opacity:1" />
    </linearGradient>
    <linearGradient
       inkscape:collect="always"
       id="linearGradient1160">
      <stop
         id="stop1154"
         stop-color="#003a6d"
         stop-opacity="0" />
      <stop
         id="stop1156"
         offset="0.906"
         stop-color="#fdfdff"
         stop-opacity="0" />
      <stop
         offset="1"
         id="stop1158"
         stop-color="#cfe9ff"
         stop-opacity="0.8" />
    </linearGradient>
    <linearGradient
       inkscape:collect="always"
       id="linearGradient1456">
      <stop
         id="stop1452"
         stop-color="#ffffff"
         stop-opacity="0.086" />
      <stop
         offset="1"
         id="stop1454"
         stop-color="#ffffff"
         stop-opacity="0.041" />
    </linearGradient>
    <linearGradient
       inkscape:collect="always"
       id="linearGradient923">
      <stop
         id="stop919"
         stop-color="#ffffff"
         stop-opacity="0.441" />
      <stop
         offset="1"
         id="stop921"
         stop-color="#369af4"
         stop-opacity="0" />
    </linearGradient>
    <linearGradient
       inkscape:collect="always"
       id="linearGradient895">
      <stop
         id="stop891"
         stop-color="#000e6d"
         stop-opacity="0" />
      <stop
         id="stop899"
         offset="0.788"
         stop-color="#f0f1f6"
         stop-opacity="0" />
      <stop
         stop-opacity="0.486"
         stop-color="#f7f8fa"
         offset="0.898"
         id="stop884" />
      <stop
         offset="1"
         id="stop893"
         stop-color="#ffffff"
         stop-opacity="0.867" />
    </linearGradient>
    <linearGradient
       inkscape:collect="always"
       id="linearGradient885">
      <stop
         id="stop881"
         stop-color="#33c1e9"
         stop-opacity="1" />
      <stop
         offset="1"
         id="stop883"
         stop-color="#61abea"
         stop-opacity="0.077" />
    </linearGradient>
    <radialGradient
       inkscape:collect="always"
       xlink:href="#linearGradient885"
       id="radialGradient887"
       cx="49.03"
       cy="255.18"
       fx="49.03"
       fy="255.18"
       r="25.903"
       gradientTransform="matrix(0.94114596,0,0,0.9243399,-13.353154,22.95893)"
       gradientUnits="userSpaceOnUse" />
    <radialGradient
       inkscape:collect="always"
       xlink:href="#linearGradient895"
       id="radialGradient897"
       cx="52.31"
       cy="261.42"
       fx="52.31"
       fy="261.42"
       r="31.28"
       gradientUnits="userSpaceOnUse"
       gradientTransform="matrix(0.99050321,0.01927593,-0.01922963,0.98812393,-10.908207,5.3811728)" />
    <radialGradient
       inkscape:collect="always"
       xlink:href="#linearGradient885"
       id="radialGradient903"
       gradientUnits="userSpaceOnUse"
       gradientTransform="matrix(1.055428,0,0,1.0365811,-18.521201,-3.6807874)"
       cx="49.03"
       cy="255.18"
       fx="49.03"
       fy="255.18"
       r="25.903" />
    <radialGradient
       inkscape:collect="always"
       xlink:href="#linearGradient923"
       id="radialGradient925"
       cx="26.551"
       cy="264.76"
       fx="26.551"
       fy="264.76"
       r="5.551"
       gradientTransform="matrix(0.94114596,0,0,1.3254472,-13.353154,-83.077184)"
       gradientUnits="userSpaceOnUse" />
    <radialGradient
       inkscape:collect="always"
       xlink:href="#linearGradient923"
       id="radialGradient929"
       gradientUnits="userSpaceOnUse"
       gradientTransform="matrix(0.94114595,0,0,1.3254472,183.71177,-156.02852)"
       cx="26.551"
       cy="264.76"
       fx="26.551"
       fy="264.76"
       r="5.551" />
    <linearGradient
       id="linearGradient1405"
       inkscape:collect="always">
      <stop
         id="stop1401"
         stop-color="#ffffff"
         stop-opacity="0.243" />
      <stop
         id="stop1403"
         offset="1"
         stop-color="#ffffff"
         stop-opacity="0" />
    </linearGradient>
    <clipPath
       id="clipPath2059"
       clipPathUnits="userSpaceOnUse">
      <path
         stroke-miterlimit="4"
         stroke-width="0.048"
         stroke-linecap="butt"
         fill-opacity="1"
         stroke-linejoin="miter"
         stroke="none"
         fill-rule="evenodd"
         fill="#ffffff"
         stroke-opacity="1"
         stroke-dasharray="none"
         inkscape:connector-curvature="0"
         sodipodi:nodetypes="csscsscccccccs"
         id="path2061"
         d="m -10.099732,231.68531 c 3.5587363,2.50616 4.8319716,-0.58528 2.9651647,-3.064 -3.1818907,-4.22486 -6.4443207,-9.83985 -12.3548527,-15.91305 -2.594516,-2.66865 -11.860659,-7.80827 -11.860659,-7.80827 0,0 -0.115438,-2.18844 -0.09884,-3.064 0.01106,-0.582 -0.565687,-0.56369 -0.889553,-0.29652 -0.782426,0.64546 -2.47097,2.56981 -2.47097,2.56981 l -1.68026,-0.0988 -1.087226,-1.58142 c -0.296516,-0.41055 -0.636056,-0.34641 -0.88955,0 -0.545383,1.84962 -0.878698,3.8848 -3.459359,3.95355 l 4.447747,3.95356 c 7.76561,1.55335 15.578734,5.58545 20.261957,14.33163 0,0 4.526451,5.19364 7.116396,7.01755 z" />
    </clipPath>
    <clipPath
       clipPathUnits="userSpaceOnUse"
       id="clipPath2059-5">
      <path
         d="m -10.099732,231.68531 c 3.5587363,2.50616 4.8319716,-0.58528 2.9651647,-3.064 -3.1818907,-4.22486 -6.4443207,-9.83985 -12.3548527,-15.91305 -2.594516,-2.66865 -11.860659,-7.80827 -11.860659,-7.80827 0,0 -0.115438,-2.18844 -0.09884,-3.064 0.01106,-0.582 -0.565687,-0.56369 -0.889553,-0.29652 -0.782426,0.64546 -2.47097,2.56981 -2.47097,2.56981 l -1.68026,-0.0988 -1.087226,-1.58142 c -0.296516,-0.41055 -0.636056,-0.34641 -0.88955,0 -0.545383,1.84962 -0.878698,3.8848 -3.459359,3.95355 l 4.447747,3.95356 c 7.76561,1.55335 15.578734,5.58545 20.261957,14.33163 0,0 4.526451,5.19364 7.116396,7.01755 z"
         id="path2061-3"
         sodipodi:nodetypes="csscsscccccccs"
         inkscape:connector-curvature="0"
         stroke-dasharray="none"
         stroke-opacity="1"
         fill="#ffffff"
         fill-rule="evenodd"
         stroke="none"
         stroke-linejoin="miter"
         fill-opacity="1"
         stroke-linecap="butt"
         stroke-width="0.048"
         stroke-miterlimit="4" />
    </clipPath>
    <clipPath
       id="clipPath">
      <path
         d="m -515.73002,435.56445 v 5.83767 c 0,9.74315 -7.84377,17.58692 -17.58692,17.58692 h -135.05122 c -9.74315,0 -17.58692,-7.84377 -17.58692,-17.58692 v -5.83767 z"
         id="rect5264"
         inkscape:connector-curvature="0"
         sodipodi:nodetypes="csssscc"
         fill="#1b1b1b"
         stroke="none"
         fill-opacity="0.95" />
    </clipPath>
    <clipPath
       id="clipPath2059-7"
       clipPathUnits="userSpaceOnUse">
      <path
         stroke-miterlimit="4"
         stroke-width="0.048"
         stroke-linecap="butt"
         fill-opacity="1"
         stroke-linejoin="miter"
         stroke="none"
         fill-rule="evenodd"
         fill="#ffffff"
         stroke-opacity="1"
         stroke-dasharray="none"
         inkscape:connector-curvature="0"
         sodipodi:nodetypes="csscsscccccccs"
         id="path2061-5"
         d="m -10.099732,231.68531 c 3.5587363,2.50616 4.8319716,-0.58528 2.9651647,-3.064 -3.1818907,-4.22486 -6.4443207,-9.83985 -12.3548527,-15.91305 -2.594516,-2.66865 -11.860659,-7.80827 -11.860659,-7.80827 0,0 -0.115438,-2.18844 -0.09884,-3.064 0.01106,-0.582 -0.565687,-0.56369 -0.889553,-0.29652 -0.782426,0.64546 -2.47097,2.56981 -2.47097,2.56981 l -1.68026,-0.0988 -1.087226,-1.58142 c -0.296516,-0.41055 -0.636056,-0.34641 -0.88955,0 -0.545383,1.84962 -0.878698,3.8848 -3.459359,3.95355 l 4.447747,3.95356 c 7.76561,1.55335 15.578734,5.58545 20.261957,14.33163 0,0 4.526451,5.19364 7.116396,7.01755 z" />
    </clipPath>
    <clipPath
       id="clipPath1162"
       clipPathUnits="userSpaceOnUse">
      <path
         id="path1164"
         d="m -65.649736,239.84563 c -9.358079,0 -16.951888,7.59381 -16.951888,16.95188 0,9.35808 7.593811,16.94076 16.951888,16.94077 0.292439,0 0.578792,-0.008 0.867614,-0.0222 2.122786,-0.10753 4.148336,-0.60587 5.995453,-1.42378 l 2.669587,3.97101 c -0.225515,0.4951 -0.245107,0.96445 -0.01111,1.31255 l 15.67271,23.32553 c 0.495366,0.73695 1.94415,0.6317 3.247998,-0.24471 1.303846,-0.87642 1.96364,-2.17735 1.468276,-2.9143 L -51.42304,274.4168 c -0.233058,-0.34672 -0.682887,-0.49868 -1.22356,-0.47831 l -2.558357,-3.80416 c 3.95991,-3.10036 6.507123,-7.91951 6.507123,-13.33682 0,-9.35807 -7.593809,-16.95188 -16.951889,-16.95188 z m 0,2.5806 c 7.92884,0 14.371283,6.44244 14.371283,14.37128 0,7.92885 -6.442435,14.36016 -14.371283,14.36016 -7.928851,0 -14.349039,-6.43131 -14.349039,-14.36016 0,-0.24777 -0.0013,-0.48941 0.01111,-0.73413 0.384376,-7.58638 6.656848,-13.63715 14.337916,-13.63715 z"
         inkscape:connector-curvature="0"
         stroke-dasharray="none"
         stroke-opacity="1"
         fill="#000000"
         stroke="none"
         stroke-linejoin="round"
         fill-opacity="0.347"
         stroke-linecap="round"
         stroke-width="0.071"
         stroke-miterlimit="4" />
    </clipPath>
    <clipPath
       clipPathUnits="userSpaceOnUse"
       id="clipPath2059-75">
      <path
         d="m -10.099732,231.68531 c 3.5587363,2.50616 4.8319716,-0.58528 2.9651647,-3.064 -3.1818907,-4.22486 -6.4443207,-9.83985 -12.3548527,-15.91305 -2.594516,-2.66865 -11.860659,-7.80827 -11.860659,-7.80827 0,0 -0.115438,-2.18844 -0.09884,-3.064 0.01106,-0.582 -0.565687,-0.56369 -0.889553,-0.29652 -0.782426,0.64546 -2.47097,2.56981 -2.47097,2.56981 l -1.68026,-0.0988 -1.087226,-1.58142 c -0.296516,-0.41055 -0.636056,-0.34641 -0.88955,0 -0.545383,1.84962 -0.878698,3.8848 -3.459359,3.95355 l 4.447747,3.95356 c 7.76561,1.55335 15.578734,5.58545 20.261957,14.33163 0,0 4.526451,5.19364 7.116396,7.01755 z"
         id="path2061-35"
         sodipodi:nodetypes="csscsscccccccs"
         inkscape:connector-curvature="0"
         stroke-dasharray="none"
         stroke-opacity="1"
         fill="#ffffff"
         fill-rule="evenodd"
         stroke="none"
         stroke-linejoin="miter"
         fill-opacity="1"
         stroke-linecap="butt"
         stroke-width="0.048"
         stroke-miterlimit="4" />
    </clipPath>
    <clipPath
       id="clipPath2059-5-6"
       clipPathUnits="userSpaceOnUse">
      <path
         stroke-miterlimit="4"
         stroke-width="0.048"
         stroke-linecap="butt"
         fill-opacity="1"
         stroke-linejoin="miter"
         stroke="none"
         fill-rule="evenodd"
         fill="#ffffff"
         stroke-opacity="1"
         stroke-dasharray="none"
         inkscape:connector-curvature="0"
         sodipodi:nodetypes="csscsscccccccs"
         id="path2061-3-2"
         d="m -10.099732,231.68531 c 3.5587363,2.50616 4.8319716,-0.58528 2.9651647,-3.064 -3.1818907,-4.22486 -6.4443207,-9.83985 -12.3548527,-15.91305 -2.594516,-2.66865 -11.860659,-7.80827 -11.860659,-7.80827 0,0 -0.115438,-2.18844 -0.09884,-3.064 0.01106,-0.582 -0.565687,-0.56369 -0.889553,-0.29652 -0.782426,0.64546 -2.47097,2.56981 -2.47097,2.56981 l -1.68026,-0.0988 -1.087226,-1.58142 c -0.296516,-0.41055 -0.636056,-0.34641 -0.88955,0 -0.545383,1.84962 -0.878698,3.8848 -3.459359,3.95355 l 4.447747,3.95356 c 7.76561,1.55335 15.578734,5.58545 20.261957,14.33163 0,0 4.526451,5.19364 7.116396,7.01755 z" />
    </clipPath>
    <clipPath
       id="clipPath-9">
      <path
         fill-opacity="0.95"
         stroke="none"
         fill="#1b1b1b"
         sodipodi:nodetypes="csssscc"
         inkscape:connector-curvature="0"
         id="rect5264-1"
         d="m -515.73002,435.56445 v 5.83767 c 0,9.74315 -7.84377,17.58692 -17.58692,17.58692 h -135.05122 c -9.74315,0 -17.58692,-7.84377 -17.58692,-17.58692 v -5.83767 z" />
    </clipPath>
    <clipPath
       clipPathUnits="userSpaceOnUse"
       id="clipPath2059-7-2">
      <path
         d="m -10.099732,231.68531 c 3.5587363,2.50616 4.8319716,-0.58528 2.9651647,-3.064 -3.1818907,-4.22486 -6.4443207,-9.83985 -12.3548527,-15.91305 -2.594516,-2.66865 -11.860659,-7.80827 -11.860659,-7.80827 0,0 -0.115438,-2.18844 -0.09884,-3.064 0.01106,-0.582 -0.565687,-0.56369 -0.889553,-0.29652 -0.782426,0.64546 -2.47097,2.56981 -2.47097,2.56981 l -1.68026,-0.0988 -1.087226,-1.58142 c -0.296516,-0.41055 -0.636056,-0.34641 -0.88955,0 -0.545383,1.84962 -0.878698,3.8848 -3.459359,3.95355 l 4.447747,3.95356 c 7.76561,1.55335 15.578734,5.58545 20.261957,14.33163 0,0 4.526451,5.19364 7.116396,7.01755 z"
         id="path2061-5-7"
         sodipodi:nodetypes="csscsscccccccs"
         inkscape:connector-curvature="0"
         stroke-dasharray="none"
         stroke-opacity="1"
         fill="#ffffff"
         fill-rule="evenodd"
         stroke="none"
         stroke-linejoin="miter"
         fill-opacity="1"
         stroke-linecap="butt"
         stroke-width="0.048"
         stroke-miterlimit="4" />
    </clipPath>
    <clipPath
       clipPathUnits="userSpaceOnUse"
       id="clipPath1162-0">
      <path
         stroke-miterlimit="4"
         stroke-width="0.071"
         stroke-linecap="round"
         fill-opacity="0.347"
         stroke-linejoin="round"
         stroke="none"
         fill="#000000"
         stroke-opacity="1"
         stroke-dasharray="none"
         inkscape:connector-curvature="0"
         d="m -65.649736,239.84563 c -9.358079,0 -16.951888,7.59381 -16.951888,16.95188 0,9.35808 7.593811,16.94076 16.951888,16.94077 0.292439,0 0.578792,-0.008 0.867614,-0.0222 2.122786,-0.10753 4.148336,-0.60587 5.995453,-1.42378 l 2.669587,3.97101 c -0.225515,0.4951 -0.245107,0.96445 -0.01111,1.31255 l 15.67271,23.32553 c 0.495366,0.73695 1.94415,0.6317 3.247998,-0.24471 1.303846,-0.87642 1.96364,-2.17735 1.468276,-2.9143 L -51.42304,274.4168 c -0.233058,-0.34672 -0.682887,-0.49868 -1.22356,-0.47831 l -2.558357,-3.80416 c 3.95991,-3.10036 6.507123,-7.91951 6.507123,-13.33682 0,-9.35807 -7.593809,-16.95188 -16.951889,-16.95188 z m 0,2.5806 c 7.92884,0 14.371283,6.44244 14.371283,14.37128 0,7.92885 -6.442435,14.36016 -14.371283,14.36016 -7.928851,0 -14.349039,-6.43131 -14.349039,-14.36016 0,-0.24777 -0.0013,-0.48941 0.01111,-0.73413 0.384376,-7.58638 6.656848,-13.63715 14.337916,-13.63715 z"
         id="path1164-9" />
    </clipPath>
    <radialGradient
       r="7.941"
       fy="283.46"
       fx="-6.579"
       cy="283.46"
       cx="-6.579"
       gradientTransform="matrix(0.93293995,-1.4512431,-2.002378,-1.2872402,591.32614,607.2803)"
       gradientUnits="userSpaceOnUse"
       id="radialGradient1409"
       xlink:href="#linearGradient1405"
       inkscape:collect="always" />
    <radialGradient
       inkscape:collect="always"
       xlink:href="#linearGradient1456"
       id="radialGradient1450"
       gradientUnits="userSpaceOnUse"
       gradientTransform="matrix(1.2169801,-1.2013324,-1.4780685,-1.5783657,454.409,678.56289)"
       cx="-5.687"
       cy="282.33"
       fx="-5.687"
       fy="282.33"
       r="7.941" />
    <clipPath
       id="clipPath2059-753"
       clipPathUnits="userSpaceOnUse">
      <path
         stroke-miterlimit="4"
         stroke-width="0.048"
         stroke-linecap="butt"
         fill-opacity="1"
         stroke-linejoin="miter"
         stroke="none"
         fill-rule="evenodd"
         fill="#ffffff"
         stroke-opacity="1"
         stroke-dasharray="none"
         inkscape:connector-curvature="0"
         sodipodi:nodetypes="csscsscccccccs"
         id="path2061-56"
         d="m -10.099732,231.68531 c 3.5587363,2.50616 4.8319716,-0.58528 2.9651647,-3.064 -3.1818907,-4.22486 -6.4443207,-9.83985 -12.3548527,-15.91305 -2.594516,-2.66865 -11.860659,-7.80827 -11.860659,-7.80827 0,0 -0.115438,-2.18844 -0.09884,-3.064 0.01106,-0.582 -0.565687,-0.56369 -0.889553,-0.29652 -0.782426,0.64546 -2.47097,2.56981 -2.47097,2.56981 l -1.68026,-0.0988 -1.087226,-1.58142 c -0.296516,-0.41055 -0.636056,-0.34641 -0.88955,0 -0.545383,1.84962 -0.878698,3.8848 -3.459359,3.95355 l 4.447747,3.95356 c 7.76561,1.55335 15.578734,5.58545 20.261957,14.33163 0,0 4.526451,5.19364 7.116396,7.01755 z" />
    </clipPath>
    <clipPath
       clipPathUnits="userSpaceOnUse"
       id="clipPath2059-5-2">
      <path
         d="m -10.099732,231.68531 c 3.5587363,2.50616 4.8319716,-0.58528 2.9651647,-3.064 -3.1818907,-4.22486 -6.4443207,-9.83985 -12.3548527,-15.91305 -2.594516,-2.66865 -11.860659,-7.80827 -11.860659,-7.80827 0,0 -0.115438,-2.18844 -0.09884,-3.064 0.01106,-0.582 -0.565687,-0.56369 -0.889553,-0.29652 -0.782426,0.64546 -2.47097,2.56981 -2.47097,2.56981 l -1.68026,-0.0988 -1.087226,-1.58142 c -0.296516,-0.41055 -0.636056,-0.34641 -0.88955,0 -0.545383,1.84962 -0.878698,3.8848 -3.459359,3.95355 l 4.447747,3.95356 c 7.76561,1.55335 15.578734,5.58545 20.261957,14.33163 0,0 4.526451,5.19364 7.116396,7.01755 z"
         id="path2061-3-9"
         sodipodi:nodetypes="csscsscccccccs"
         inkscape:connector-curvature="0"
         stroke-dasharray="none"
         stroke-opacity="1"
         fill="#ffffff"
         fill-rule="evenodd"
         stroke="none"
         stroke-linejoin="miter"
         fill-opacity="1"
         stroke-linecap="butt"
         stroke-width="0.048"
         stroke-miterlimit="4" />
    </clipPath>
    <clipPath
       id="clipPath-1">
      <path
         d="m -515.73002,435.56445 v 5.83767 c 0,9.74315 -7.84377,17.58692 -17.58692,17.58692 h -135.05122 c -9.74315,0 -17.58692,-7.84377 -17.58692,-17.58692 v -5.83767 z"
         id="rect5264-2"
         inkscape:connector-curvature="0"
         sodipodi:nodetypes="csssscc"
         fill="#1b1b1b"
         stroke="none"
         fill-opacity="0.95" />
    </clipPath>
    <clipPath
       id="clipPath2059-7-7"
       clipPathUnits="userSpaceOnUse">
      <path
         stroke-miterlimit="4"
         stroke-width="0.048"
         stroke-linecap="butt"
         fill-opacity="1"
         stroke-linejoin="miter"
         stroke="none"
         fill-rule="evenodd"
         fill="#ffffff"
         stroke-opacity="1"
         stroke-dasharray="none"
         inkscape:connector-curvature="0"
         sodipodi:nodetypes="csscsscccccccs"
         id="path2061-5-0"
         d="m -10.099732,231.68531 c 3.5587363,2.50616 4.8319716,-0.58528 2.9651647,-3.064 -3.1818907,-4.22486 -6.4443207,-9.83985 -12.3548527,-15.91305 -2.594516,-2.66865 -11.860659,-7.80827 -11.860659,-7.80827 0,0 -0.115438,-2.18844 -0.09884,-3.064 0.01106,-0.582 -0.565687,-0.56369 -0.889553,-0.29652 -0.782426,0.64546 -2.47097,2.56981 -2.47097,2.56981 l -1.68026,-0.0988 -1.087226,-1.58142 c -0.296516,-0.41055 -0.636056,-0.34641 -0.88955,0 -0.545383,1.84962 -0.878698,3.8848 -3.459359,3.95355 l 4.447747,3.95356 c 7.76561,1.55335 15.578734,5.58545 20.261957,14.33163 0,0 4.526451,5.19364 7.116396,7.01755 z" />
    </clipPath>
    <clipPath
       id="clipPath1162-9"
       clipPathUnits="userSpaceOnUse">
      <path
         id="path1164-3"
         d="m -65.649736,239.84563 c -9.358079,0 -16.951888,7.59381 -16.951888,16.95188 0,9.35808 7.593811,16.94076 16.951888,16.94077 0.292439,0 0.578792,-0.008 0.867614,-0.0222 2.122786,-0.10753 4.148336,-0.60587 5.995453,-1.42378 l 2.669587,3.97101 c -0.225515,0.4951 -0.245107,0.96445 -0.01111,1.31255 l 15.67271,23.32553 c 0.495366,0.73695 1.94415,0.6317 3.247998,-0.24471 1.303846,-0.87642 1.96364,-2.17735 1.468276,-2.9143 L -51.42304,274.4168 c -0.233058,-0.34672 -0.682887,-0.49868 -1.22356,-0.47831 l -2.558357,-3.80416 c 3.95991,-3.10036 6.507123,-7.91951 6.507123,-13.33682 0,-9.35807 -7.593809,-16.95188 -16.951889,-16.95188 z m 0,2.5806 c 7.92884,0 14.371283,6.44244 14.371283,14.37128 0,7.92885 -6.442435,14.36016 -14.371283,14.36016 -7.928851,0 -14.349039,-6.43131 -14.349039,-14.36016 0,-0.24777 -0.0013,-0.48941 0.01111,-0.73413 0.384376,-7.58638 6.656848,-13.63715 14.337916,-13.63715 z"
         inkscape:connector-curvature="0"
         stroke-dasharray="none"
         stroke-opacity="1"
         fill="#000000"
         stroke="none"
         stroke-linejoin="round"
         fill-opacity="0.347"
         stroke-linecap="round"
         stroke-width="0.071"
         stroke-miterlimit="4" />
    </clipPath>
    <linearGradient
       id="linearGradient2811">
      <stop
         id="stop2813"
         stop-color="#042200"
         stop-opacity="1" />
      <stop
         offset="1"
         id="stop2815"
         stop-color="#095300"
         stop-opacity="1" />
    </linearGradient>
    <linearGradient
       inkscape:collect="always"
       xlink:href="#linearGradient2811"
       id="linearGradient2744"
       gradientUnits="userSpaceOnUse"
       gradientTransform="matrix(0.37547829,0,0,0.37547829,-0.36036639,229.78461)"
       x1="91.73"
       y1="156.08"
       x2="91.73"
       y2="10.968" />
    <radialGradient
       inkscape:collect="always"
       xlink:href="#linearGradient1160"
       id="radialGradient1152"
       gradientUnits="userSpaceOnUse"
       gradientTransform="matrix(1.0568865,0.02937778,-0.02969614,1.0683383,-11.5572,-16.123562)"
       cx="50.46"
       cy="260.41"
       fx="50.46"
       fy="260.41"
       r="31.28" />
    <linearGradient
       inkscape:collect="always"
       id="linearGradient922">
      <stop
         style="stop-color:#ffffff;stop-opacity:1"
         offset="0"
         id="stop918" />
      <stop
         style="stop-color:#760000;stop-opacity:1"
         offset="1"
         id="stop920" />
    </linearGradient>
    <linearGradient
       inkscape:collect="always"
       id="linearGradient912">
      <stop
         style="stop-color:#5a0000;stop-opacity:1"
         offset="0"
         id="stop908" />
      <stop
         style="stop-color:#da0000;stop-opacity:1"
         offset="1"
         id="stop910" />
    </linearGradient>
    <linearGradient
       inkscape:collect="always"
       id="linearGradient878">
      <stop
         style="stop-color:#000000;stop-opacity:1;"
         offset="0"
         id="stop874" />
      <stop
         style="stop-color:#ff7070;stop-opacity:1"
         offset="1"
         id="stop876" />
    </linearGradient>
    <linearGradient
       id="linearGradient998"
       inkscape:collect="always">
      <stop
         id="stop994"
         offset="0"
         style="stop-color:#000000;stop-opacity:1;" />
      <stop
         id="stop996"
         offset="1"
         style="stop-color:#ffffff;stop-opacity:1" />
    </linearGradient>
    <linearGradient
       id="linearGradient917"
       inkscape:collect="always">
      <stop
         id="stop913"
         offset="0"
         style="stop-color:#000000;stop-opacity:1;" />
      <stop
         id="stop915"
         offset="1"
         style="stop-color:#c4c4c4;stop-opacity:1" />
    </linearGradient>
    <linearGradient
       id="linearGradient909"
       inkscape:collect="always">
      <stop
         id="stop905"
         offset="0"
         style="stop-color:#ffffff;stop-opacity:1" />
      <stop
         id="stop907"
         offset="1"
         style="stop-color:#000000;stop-opacity:1" />
    </linearGradient>
    <linearGradient
       id="linearGradient901"
       inkscape:collect="always">
      <stop
         id="stop897"
         offset="0"
         style="stop-color:#000000;stop-opacity:1" />
      <stop
         id="stop899-7"
         offset="1"
         style="stop-color:#c3c3c3;stop-opacity:1" />
    </linearGradient>
    <linearGradient
       gradientTransform="translate(-5.5771677,-15.337304)"
       spreadMethod="reflect"
       gradientUnits="userSpaceOnUse"
       y2="269.96176"
       x2="11.218911"
       y1="275.38467"
       x1="10.671959"
       id="linearGradient903"
       xlink:href="#linearGradient901"
       inkscape:collect="always" />
    <linearGradient
       spreadMethod="reflect"
       gradientUnits="userSpaceOnUse"
       y2="271.3446"
       x2="11.920613"
       y1="272.03543"
       x1="11.999956"
       id="linearGradient911"
       xlink:href="#linearGradient909"
       inkscape:collect="always"
       gradientTransform="translate(-5.4390041,-15.233681)" />
    <linearGradient
       gradientTransform="translate(-5.4390041,-15.233675)"
       spreadMethod="reflect"
       gradientUnits="userSpaceOnUse"
       y2="263.89343"
       x2="25.322714"
       y1="270.01828"
       x1="25.42938"
       id="linearGradient921"
       xlink:href="#linearGradient917"
       inkscape:collect="always" />
    <linearGradient
       spreadMethod="reflect"
       y2="264.20432"
       x2="30.054817"
       y1="264.20432"
       x1="29.376015"
       gradientTransform="translate(-5.4390041,-15.233675)"
       gradientUnits="userSpaceOnUse"
       id="linearGradient987"
       xlink:href="#linearGradient917"
       inkscape:collect="always" />
    <linearGradient
       spreadMethod="reflect"
       gradientUnits="userSpaceOnUse"
       y2="264.78442"
       x2="30.760033"
       y1="266.28699"
       x1="30.760033"
       id="linearGradient1000"
       xlink:href="#linearGradient998"
       inkscape:collect="always"
       gradientTransform="translate(-5.4390041,-15.233681)" />
    <linearGradient
       gradientTransform="translate(0.18644162,8.037805)"
       spreadMethod="reflect"
       gradientUnits="userSpaceOnUse"
       y2="262.19061"
       x2="32.229439"
       y1="259.60004"
       x1="32.402142"
       id="linearGradient1022"
       xlink:href="#linearGradient909"
       inkscape:collect="always" />
    <linearGradient
       gradientTransform="translate(0.18644162,8.037805)"
       spreadMethod="reflect"
       gradientUnits="userSpaceOnUse"
       y2="257.28583"
       x2="33.369289"
       y1="257.49307"
       x1="33.369289"
       id="linearGradient1030"
       xlink:href="#linearGradient998"
       inkscape:collect="always" />
    <linearGradient
       gradientTransform="translate(-2.3350445,8.037805)"
       spreadMethod="reflect"
       y2="257.28583"
       x2="33.369289"
       y1="257.49307"
       x1="33.369289"
       gradientUnits="userSpaceOnUse"
       id="linearGradient1034"
       xlink:href="#linearGradient998"
       inkscape:collect="always" />
    <linearGradient
       inkscape:collect="always"
       xlink:href="#linearGradient878"
       id="linearGradient872"
       x1="39.131828"
       y1="269.18549"
       x2="39.131828"
       y2="272.21628"
       gradientUnits="userSpaceOnUse"
       gradientTransform="translate(-7.1693548,14.68011)" />
    <linearGradient
       inkscape:collect="always"
       xlink:href="#linearGradient878"
       id="linearGradient882"
       gradientUnits="userSpaceOnUse"
       x1="39.131828"
       y1="269.18549"
       x2="39.131828"
       y2="272.21628"
       gradientTransform="matrix(0.11084102,0,0,1.1362187,46.455779,-22.13275)" />
    <linearGradient
       inkscape:collect="always"
       xlink:href="#linearGradient878"
       id="linearGradient886"
       gradientUnits="userSpaceOnUse"
       gradientTransform="matrix(0.11084102,0,0,1.1362187,52.597619,-22.080357)"
       x1="39.131828"
       y1="269.18549"
       x2="39.131828"
       y2="272.21628" />
    <linearGradient
       inkscape:collect="always"
       xlink:href="#linearGradient909"
       id="linearGradient906"
       gradientUnits="userSpaceOnUse"
       gradientTransform="matrix(-1,0,0,1,23.117508,9.594849)"
       x1="11.999956"
       y1="272.03543"
       x2="11.920613"
       y2="271.3446"
       spreadMethod="reflect" />
    <linearGradient
       inkscape:collect="always"
       xlink:href="#linearGradient912"
       id="linearGradient914"
       x1="27.22994"
       y1="277.97141"
       x2="26.698772"
       y2="270.84259"
       gradientUnits="userSpaceOnUse"
       spreadMethod="reflect" />
    <radialGradient
       inkscape:collect="always"
       xlink:href="#linearGradient922"
       id="radialGradient924"
       cx="15.375279"
       cy="282.85803"
       fx="15.375279"
       fy="282.85803"
       r="1.5742706"
       gradientUnits="userSpaceOnUse"
       spreadMethod="reflect" />
    <linearGradient
       inkscape:collect="always"
       xlink:href="#linearGradient967"
       id="linearGradient934"
       x1="18.036133"
       y1="276.01425"
       x2="15.660581"
       y2="282.37781"
       gradientUnits="userSpaceOnUse" />
    <filter
       inkscape:collect="always"
       style="color-interpolation-filters:sRGB"
       id="filter1066"
       x="-0.024395147"
       width="1.0487903"
       y="-0.026384012"
       height="1.052768">
      <feGaussianBlur
         inkscape:collect="always"
         stdDeviation="0.61362917"
         id="feGaussianBlur1068" />
    </filter>
  </defs>
  <sodipodi:namedview
     id="base"
     pagecolor="#ff0000"
     bordercolor="#666666"
     borderopacity="1.0"
     inkscape:pageopacity="0"
     inkscape:pageshadow="2"
     inkscape:zoom="3.4509804"
     inkscape:cx="127.5"
     inkscape:cy="127.5"
     inkscape:document-units="mm"
     inkscape:current-layer="layer1"
     showgrid="false"
     units="px"
     inkscape:snap-to-guides="false"
     inkscape:snap-grids="false"
     inkscape:snap-others="false"
     inkscape:object-nodes="false"
     inkscape:snap-nodes="false"
     inkscape:snap-global="false"
     inkscape:window-width="1920"
     inkscape:window-height="1056"
     inkscape:window-x="0"
     inkscape:window-y="0"
     inkscape:window-maximized="1"
     inkscape:document-rotation="0" />
  <metadata
     id="metadata5">
    <rdf:RDF>
      <cc:Work>
        <dc:format>image/svg+xml</dc:format>
        <dc:type
           rdf:resource="http://purl.org/dc/dcmitype/StillImage" />
        <dc:title />
      </cc:Work>
    </rdf:RDF>
  </metadata>
  <g
     inkscape:label="Layer 1"
     inkscape:groupmode="layer"
     id="layer1"
     transform="translate(0,-229.53123)">
    <circle
       id="path877"
       cx="34.102497"
       cy="263.14529"
       r="29.442503"
       stroke-miterlimit="4"
       style="opacity:1;fill:#000e6d;fill-opacity:1;fill-rule:nonzero;stroke:none;stroke-width:0.21661793;stroke-linecap:round;stroke-linejoin:round;stroke-miterlimit:4;stroke-dasharray:none;stroke-dashoffset:0;stroke-opacity:0.65" />
    <path
       d="m 32.681783,234.66575 -7.885204,1.1264 c -0.09012,0.38673 3.514501,3.76621 3.612126,3.33441 -0.653331,1.12643 -1.216244,2.81608 0.142987,4.55079 h 0.750927 c -0.206516,-0.0751 1.978646,-2.99621 3.003702,-2.62823 l 3.003702,-1.1264 1.877313,-4.13057 z m -11.2882,3.33491 c -0.117153,0.006 -0.234294,0.0208 -0.351631,0.0442 -1.126434,0 -3.003654,1.5023 -4.130089,2.25326 -4.50574,2.62835 -7.509647,7.13408 -9.7625167,12.01529 -0.7509563,1.8774 -2.2528073,7.13372 -1.5018508,9.0111 0.7509568,2.25288 3.3791173,2.62872 4.5055525,3.0042 l 2.252775,1.87731 c 0.375479,0.37548 1.126373,0.37543 1.501852,1.12639 1.126434,1.12643 -1.126404,3.0036 -0.750926,5.63193 0.37548,3.00384 3.37962,4.88145 4.130577,6.38336 0.375478,0.37548 0.750925,4.13007 0.750925,4.50555 0,1.50191 -1.126512,3.00414 1.877313,4.13059 0.750958,0.37546 1.126357,0.37546 1.877314,0.37546 0.375478,-1.8774 1.501804,-2.2532 2.628239,-3.75512 0.750956,-1.12644 0.375448,-2.25278 0.750925,-2.62824 0.750955,-1.12644 1.877282,-1.12634 2.628239,-2.25278 0.750956,-1.50191 0.375462,-2.62818 0.375462,-3.75461 0.375479,-0.75097 1.502369,-1.87774 0.751412,-3.37967 -0.375477,-0.75094 -2.628693,-1.87729 -3.379651,-2.25277 -1.877391,-1.50191 -3.75458,-3.00361 -4.881015,-5.25647 -1.877391,0.37548 -2.252714,4e-5 -3.754626,-1.1264 -2.252871,1.50192 -3.755082,3.37933 -4.50604,-0.75092 h -1.126388 l 0.375463,-2.62873 -2.2527759,0.75092 c -1.1264339,0.37548 -1.501866,-1.12635 -1.1263875,-1.8773 -0.4017622,-1.93372 2.7446214,-1.02494 3.0037004,-3.0037 0.997069,-0.13778 3.117185,1.23647 3.106323,1.81798 l 0.272843,-1.81798 c -0.461839,-0.85233 0.788516,-1.04028 1.58453,-1.97897 0.720919,-0.9049 0.998964,-2.19635 0.998964,-2.19635 0.131417,0.0864 2.042368,-0.36414 2.342751,-1.68959 1.599538,0.18775 2.208032,-0.89391 2.208032,-0.89391 1.126434,-1.1715 -0.65718,-2.62827 2.252776,-1.87732 -0.251571,0.37172 0.66455,2.18897 1.126388,1.50186 0.551954,-0.32292 0.458104,-2.56051 -0.469328,-2.01981 0.889885,-2.06513 -0.919802,-2.84616 -2.909836,-3.61213 v -1.1264 l -1.126389,0.37548 c -1.216548,-0.44307 -2.147611,3.92358 -3.003701,4.13009 -1.032566,-0.75096 -0.31924,-1.3365 -0.781079,-1.6857 -0.61203,-0.45809 -1.659732,-0.0489 -1.802416,-1.0364 0,-1.87741 3.709851,-2.15891 4.460808,-2.53439 0.750957,-0.37547 1.126342,-1.12637 2.252777,-1.50185 1.126434,0 1.877282,1.12638 2.628239,1.50185 0.183984,0.28537 1.584456,-0.62326 1.50185,-0.75091 -1.056031,-1.40806 -2.772078,-3.14609 -4.529384,-3.04845 z m -7.007825,20.26089 -0.0088,0.0594 c 0.0059,-0.0187 0.0084,-0.0387 0.0088,-0.0594 z M 47.02621,239.24767 c -0.569086,0.0177 -1.108862,0.11184 -1.578207,0.29959 0,0 -0.863511,0.76576 -1.715847,1.52423 -0.206513,1.12267 -1.614506,1.5095 -1.663321,1.47946 l 0.750927,2.2528 c 1.501913,-0.37549 1.595654,-0.56324 3.097567,0.18771 0.454331,-2.29041 -0.638389,-2.1776 1.783448,-3.94234 l -0.375462,1.87731 1.126388,0.37546 v 0.75092 c -1.197778,-0.77725 -1.569262,0.9499 -1.993551,1.40798 -0.660845,0.59326 -1.115208,0.751 -2.887466,-0.65704 -1.438079,2.9137 -1.550928,1.07387 -2.583494,-0.30788 -0.292874,-0.27786 -0.66848,-0.56695 -1.171619,-0.81852 v 1.87731 h -1.126387 c -0.612031,0.26283 -0.225288,1.59948 0,1.50186 l 1.35935,-0.8448 c -1.077622,1.40804 0.608536,2.06883 1.269375,1.22026 0.232799,0.79601 -0.984159,0.9837 -1.877801,1.12638 l 0.375463,1.50186 c -0.796016,0.31916 -1.254089,0.63476 -1.516927,1.04029 -0.360457,0.54821 -0.360386,1.25798 -0.360386,2.33935 0.750956,0 1.502304,0.37549 2.253263,0 1.126434,-0.75096 3.003625,-4.50568 4.881015,-1.50184 0.375478,0.37546 0.375465,0.7509 0.375465,1.12638 2.016318,-0.35671 0.829789,-1.49852 0.375461,-2.62872 0.897395,-0.39051 1.6934,0.88649 1.516928,2.27951 0.334174,0.72468 0.683266,1.21655 1.111311,0.72467 v -1.50184 c 0.938694,1.12641 3.965349,2.71836 4.50604,2.25277 -2.252874,1.87739 -1.877691,1.12638 -4.50604,0.75093 -0.750957,0 -0.938624,1.31412 -1.689583,0.93864 -1.501911,-0.75095 -2.816287,-3.56697 -6.946547,-1.68957 -1.580763,0.90489 -3.161317,2.89478 -4.08875,4.98996 -0.322913,0.72843 -0.563364,1.46822 -0.70229,2.17787 -0.123907,0.64958 -0.161317,1.27303 -0.08998,1.84376 0,0.75094 0.750906,1.87728 1.126388,2.62823 0.375478,0.75096 1.126357,1.50185 1.877314,1.87732 1.877392,1.12645 4.505978,-1.12646 6.00789,0.75093 0.375479,0.75095 0.375445,1.12635 0.750924,1.87731 l 0.750928,2.25277 c 0.375477,2.62835 -0.37548,4.13048 0,6.38336 0.375477,3.00382 1.501851,2.62856 1.501851,6.75881 1.411795,-0.4055 2.500774,-0.69863 3.439471,-1.29563 0.80352,-0.51066 1.498317,-1.24293 2.192955,-2.45948 0.375477,-1.12643 0.375477,-1.12634 0,-2.25278 l 2.628238,-2.62824 0.375464,-5.25696 3.379164,-7.13378 h -1.877314 c 2.628344,-2.25288 4.130119,-2.25311 3.379165,-6.00791 -1.877391,0.37549 -2.252763,-0.37539 -2.628241,-1.87731 l 4.505553,2.25278 0.375462,-0.37547 C 61.21786,250.8113 58.589917,246.30581 52.957741,240.67364 l -2.253263,0.75094 1.126874,-0.75094 c -1.126434,-0.84483 -3.09789,-1.47878 -4.805144,-1.42597 z m -10.117068,1.3253 c -0.764888,-0.0513 -2.206927,1.09328 -1.599119,1.60252 -0.04506,0.41303 2.173921,0.69841 2.252775,0 l -0.375462,-1.50185 c -0.0737,-0.0615 -0.168926,-0.0934 -0.278194,-0.10071 z m -15.116264,0.47615 c -0.630803,0.44305 0.874786,2.20398 1.877314,1.50183 -0.375479,-1.12643 -0.75088,-1.12636 -1.877314,-1.50183 z m 31.164865,16.14536 c 1.877389,2.62835 3.003686,4.50593 3.379161,7.50976 -0.375475,-0.37549 -0.750906,-0.37547 -1.126387,-0.75094 -0.750955,-1.12642 -2.628253,-5.25691 -2.252774,-6.75882 z"
       id="selection_to_path"
       inkscape:connector-curvature="0"
       style="fill:url(#linearGradient2744);fill-opacity:1;stroke:#6a5807;stroke-width:0.34246263;stroke-opacity:1" />
    <circle
       r="29.442503"
       cy="263.14529"
       cx="34.102497"
       id="circle889"
       stroke-miterlimit="4"
       style="opacity:1;fill:url(#radialGradient897);fill-opacity:1;fill-rule:nonzero;stroke:none;stroke-width:0.21661793;stroke-linecap:round;stroke-linejoin:round;stroke-miterlimit:4;stroke-dasharray:none;stroke-dashoffset:0;stroke-opacity:0.65" />
    <ellipse
       ry="26.850311"
       rx="27.339247"
       cy="260.83466"
       cx="33.227772"
       id="ellipse901"
       stroke-miterlimit="4"
       style="opacity:1;fill:url(#radialGradient903);fill-opacity:1;fill-rule:nonzero;stroke:none;stroke-width:0.24653183;stroke-linecap:round;stroke-linejoin:round;stroke-miterlimit:4;stroke-dasharray:none;stroke-dashoffset:0;stroke-opacity:0.65" />
    <ellipse
       id="path879"
       cx="32.792473"
       cy="258.83356"
       rx="24.378803"
       ry="23.941439"
       stroke-miterlimit="4"
       style="opacity:1;fill:url(#radialGradient887);fill-opacity:1;fill-rule:nonzero;stroke:none;stroke-width:0.21971248;stroke-linecap:round;stroke-linejoin:round;stroke-miterlimit:4;stroke-dasharray:none;stroke-dashoffset:0;stroke-opacity:0.65" />
    <ellipse
       id="path917"
       cx="11.635089"
       cy="267.84897"
       rx="5.223587"
       ry="7.3567581"
       stroke-miterlimit="4"
       style="opacity:1;fill:url(#radialGradient925);fill-opacity:1;fill-rule:nonzero;stroke:none;stroke-width:0.1990822;stroke-linecap:round;stroke-linejoin:round;stroke-miterlimit:4;stroke-dasharray:none;stroke-dashoffset:0;stroke-opacity:0.65" />
    <ellipse
       ry="7.3567581"
       rx="5.223587"
       cy="194.89178"
       cx="208.696"
       id="ellipse927"
       transform="rotate(36.708227)"
       stroke-miterlimit="4"
       style="opacity:1;fill:url(#radialGradient929);fill-opacity:1;fill-rule:nonzero;stroke:none;stroke-width:0.1990822;stroke-linecap:round;stroke-linejoin:round;stroke-miterlimit:4;stroke-dasharray:none;stroke-dashoffset:0;stroke-opacity:0.65" />
    <path
       d="m 18.573652,238.50925 c -2.287302,2.00852 -3.513523,1.99863 -7.292829,7.60651 2.329743,3.86212 4.658376,6.6285 7.606526,9.25381 1.680425,-2.62502 3.046935,-5.20585 5.332348,-7.21453 -3.498248,-3.21521 -5.068447,-6.43061 -5.646045,-9.64579 z m -7.999008,8.4693 c -1.3551958,1.8668 -4.0764231,6.28385 -3.9992622,9.48871 1.9656675,3.41132 4.9279252,5.57734 7.6853132,7.999 0.828163,-3.1869 2.679742,-5.98745 3.84217,-8.31269 -2.996741,-2.89593 -5.773701,-5.86502 -7.528221,-9.17502 z m 14.14502,1.93763 c -2.259719,2.20145 -3.852251,4.66952 -5.068258,7.28845 2.717662,3.06601 5.886942,5.22805 9.22899,7.04527 1.436648,-2.71712 3.033081,-5.32765 5.09355,-7.62889 -2.879474,-1.48229 -5.762176,-2.97623 -9.254282,-6.70483 z m -5.95974,7.92022 c -1.26969,2.64076 -3.188756,5.14753 -3.892265,8.54324 3.573006,2.46796 6.497714,4.7689 10.327172,6.88867 0.543888,-2.69985 1.271051,-5.39984 3.054768,-8.0997 -3.163146,-2.10726 -6.326531,-4.39484 -9.489675,-7.33221 z"
       id="path921"
       inkscape:connector-curvature="0"
       style="fill:url(#radialGradient1409);fill-opacity:1;stroke:none;stroke-width:0.27438271;stroke-linecap:butt;stroke-linejoin:miter;stroke-opacity:1" />
    <path
       inkscape:connector-curvature="0"
       id="path1448"
       d="m 34.170481,234.1209 c -1.484986,0.46617 -3.796712,-0.60386 -6.450851,0.47474 0.122025,4.41162 2.091008,5.75891 3.410223,7.72491 2.760485,-1.45555 3.502324,-1.5136 6.685061,-2.78372 -1.72507,-1.98661 -2.332546,-2.37638 -3.644433,-5.41593 z m -7.492206,0.88043 c -2.314549,0.60626 -3.370632,1.47628 -6.671919,2.97405 0.02751,3.85312 3.176526,7.23439 4.838276,9.38206 2.29555,-2.34003 3.19467,-3.08039 5.355829,-4.52387 -1.868938,-2.40866 -2.896684,-4.33209 -3.522186,-7.83224 z m 11.702899,5.37951 c -3.055945,0.81866 -4.267705,1.14589 -6.620597,2.81577 3.532061,3.26881 6.063458,3.54815 10.013348,5.3537 2.045549,-1.8718 2.621847,-3.01392 5.143752,-4.43548 -3.540133,-0.98063 -6.391662,-2.26931 -8.536503,-3.73399 z m -7.602323,3.35398 c -2.410454,1.66321 -2.401302,1.82449 -4.691387,4.40242 3.528694,3.76326 4.527127,4.48086 8.710103,6.65447 2.155278,-2.13604 4.064522,-4.00362 6.135696,-5.78912 -3.419463,-0.90989 -5.318203,-2.27976 -10.154412,-5.26777 z"
       sodipodi:nodetypes="cccccccccccccccccccc"
       style="fill:url(#radialGradient1450);fill-opacity:1;stroke:none;stroke-width:0.27128822;stroke-linecap:butt;stroke-linejoin:miter;stroke-opacity:1" />
    <circle
       r="33.162598"
       cy="263.53726"
       cx="33.947769"
       id="circle1150"
       stroke-miterlimit="4"
       style="opacity:1;fill:url(#radialGradient1152);fill-opacity:1;fill-rule:nonzero;stroke:none;stroke-width:0.24444689;stroke-linecap:round;stroke-linejoin:round;stroke-miterlimit:4;stroke-dasharray:none;stroke-dashoffset:0;stroke-opacity:0.65" />
    <g
       transform="matrix(1.0254294,0,0,1.0254294,-2.9566698,-7.1741117)"
       id="layer1-5"
       inkscape:label="Layer 1">
      <path
         id="path958"
         style="fill:#000000;fill-opacity:0.730934;stroke:none;stroke-width:0.337782;stroke-linecap:butt;stroke-linejoin:miter;stroke-miterlimit:4;stroke-dasharray:none;stroke-opacity:1;filter:url(#filter1066)"
         d="m 34.102535,247.96786 -2.868751,1.62708 c -0.01254,-0.007 -0.02439,-0.0141 -0.03555,-0.0227 -0.136784,-0.10352 -0.186351,-0.30405 -0.132546,-0.53612 l -0.532713,-0.39927 c -0.207983,0.11316 -0.413174,0.11901 -0.549219,0.0158 -0.135298,-0.10252 -0.185351,-0.29985 -0.134143,-0.52905 l -0.602027,-0.4518 c -0.205675,0.10968 -0.40779,0.11444 -0.54237,0.0127 -0.133497,-0.10138 -0.183832,-0.29555 -0.135257,-0.52162 l -0.479174,-0.3587 c -0.203619,0.10654 -0.402894,0.10991 -0.53599,0.009 -0.132425,-0.10014 -0.183432,-0.29141 -0.137333,-0.51489 l -0.547534,-0.41051 c -0.201558,0.10329 -0.398015,0.10537 -0.529618,0.006 -0.130682,-0.0991 -0.181973,-0.28713 -0.138445,-0.50748 l -0.616847,-0.46303 c -0.199223,0.10004 -0.392666,0.10097 -0.52277,0.002 -0.129315,-0.098 -0.181084,-0.28293 -0.140037,-0.50043 l -6.174383,-4.63633 c -2.124089,-1.47185 -5.335808,-2.10815 -8.462032,-0.14743 -2.6386611,1.65491 -3.8817897,4.54623 -4.927147,7.55531 -0.1019687,0.29354 -0.1775567,4.31774 0.5681504,6.2306 0.019048,0.28467 0.1224999,0.52858 0.368074,0.67019 0.166787,0.20065 0.3593169,0.32002 0.5824141,0.32773 l 0.1871318,-0.24197 c -0.039784,-0.0433 -0.069627,-0.0947 -0.087528,-0.15064 l 0.034893,-0.045 0.369524,-0.48076 c 0.059603,0.003 0.1177917,0.0191 0.1704408,0.0471 l 0.1562423,-0.20216 c -0.04129,-0.043 -0.072909,-0.0942 -0.092218,-0.1504 l 0.4130929,-0.53731 c 0.060069,0.005 0.1183227,0.0221 0.1706583,0.0519 l 0.154434,-0.19977 c -0.043289,-0.0415 -0.076024,-0.0929 -0.096782,-0.14935 l 0.4163451,-0.54159 c 0.060678,0.006 0.1192403,0.0254 0.171354,0.0569 l 0.1529831,-0.19787 c -0.044749,-0.0412 -0.079476,-0.0921 -0.1018225,-0.14865 l 0.4214198,-0.54829 c 0.061246,0.007 0.1200213,0.0278 0.1719209,0.061 l 0.1518967,-0.19644 c -0.045914,-0.0406 -0.082013,-0.0911 -0.1055574,-0.1477 l 0.4268519,-0.55545 c 0.061646,0.008 0.1205638,0.0309 0.1721398,0.0658 l 0.151175,-0.19547 c -0.04736,-0.0403 -0.08553,-0.0902 -0.110598,-0.14701 l 0.431562,-0.56167 c 0.06219,0.009 0.121178,0.0339 0.172356,0.0705 l 0.15081,-0.19499 c -0.04935,-0.0388 -0.08865,-0.089 -0.115166,-0.14595 l 0.436265,-0.56788 c 0.06266,0.0117 0.121799,0.0368 0.172573,0.0751 l 0.150089,-0.19405 c -6.48e-4,-5e-4 -0.0012,-9.8e-4 -0.002,-10e-4 -0.04989,-0.0381 -0.0902,-0.0872 -0.117812,-0.14344 l 0.440974,-0.5741 c 0.05976,0.0119 0.11606,0.0369 0.164665,0.0737 0.0028,0.002 0.0056,0.005 0.0082,0.007 l 0.15081,-0.19499 c -0.0037,-0.002 -0.0073,-0.005 -0.01091,-0.007 -0.0478,-0.0363 -0.08699,-0.0825 -0.114597,-0.13577 l 0.445687,-0.5803 c 0.05683,0.0126 0.110302,0.0371 0.156755,0.0722 0.0057,0.005 0.01137,0.009 0.01683,0.0136 l 0.151638,-0.19513 c -0.0067,-0.005 -0.01334,-0.009 -0.01982,-0.0136 -0.04585,-0.0347 -0.08371,-0.0789 -0.111162,-0.12938 l 0.44931,-0.58508 c 0.05426,0.0129 0.105231,0.0369 0.149745,0.0705 0.0084,0.006 0.01669,0.0131 0.02464,0.0201 l 0.32201,-0.41594 c 0.748768,-0.97167 1.856851,-0.6152 2.607914,-0.0315 l 4.835766,3.76037 c 0.230607,-0.15506 0.471294,-0.17918 0.625378,-0.0626 0.156493,0.11854 0.19721,0.36231 0.105335,0.63063 l 0.530007,0.41179 c 0.235241,-0.16527 0.484365,-0.19415 0.642595,-0.0745 0.160802,0.12172 0.199085,0.37522 0.09828,0.65086 l 0.45709,0.35508 c 0.239451,-0.17523 0.496759,-0.20885 0.658961,-0.0861 0.16457,0.12481 0.200258,0.38737 0.09099,0.66943 l 0.385609,0.29946 c 0.242958,-0.18446 0.507719,-0.22282 0.673656,-0.0976 0.168529,0.12749 0.201881,0.39884 0.08442,0.68703 l 0.08581,0.0665 -1.541728,0.87478 c -0.298726,-0.193 -0.695455,-0.23594 -1.043969,-0.0205 l -0.313306,0.42253 c 0.009,0.006 0.01762,0.0119 0.02604,0.0182 0.177598,0.13467 0.212488,0.38777 0.07794,0.56548 -0.134552,0.17796 -0.387952,0.2131 -0.565842,0.0785 -0.0063,-0.005 -0.01236,-0.0104 -0.01842,-0.0155 l -0.147649,0.19888 c 0.0061,0.003 0.01218,0.008 0.01791,0.0121 0.177599,0.13465 0.212481,0.38777 0.07795,0.56547 -0.134554,0.17796 -0.387952,0.2131 -0.565842,0.0785 -0.0035,-0.002 -0.0068,-0.006 -0.0101,-0.008 l -0.146925,0.19794 c 0.003,0.002 0.0061,0.003 0.009,0.006 0.177778,0.13482 0.212528,0.38826 0.07759,0.56596 -0.134676,0.17758 -0.387781,0.21248 -0.565484,0.078 l -0.002,-10e-4 -0.146195,0.19699 c 0.177783,0.1348 0.212526,0.38826 0.07759,0.56596 -0.132944,0.17483 -0.381071,0.2111 -0.558905,0.0821 l -0.146925,0.19795 c 0.170962,0.13682 0.202044,0.38478 0.06982,0.55931 -0.130494,0.17191 -0.373325,0.21113 -0.55077,0.0883 l -0.147291,0.19843 c 0.164778,0.13795 0.191754,0.3813 0.06205,0.55268 -0.127851,0.16898 -0.364548,0.21038 -0.542169,0.0948 l -0.14801,0.19938 c 0.15744,0.13983 0.181019,0.37715 0.05416,0.54521 -0.125538,0.16563 -0.356329,0.20898 -0.53332,0.10004 l -0.148635,0.20116 c 0.1511,0.14114 0.171121,0.37363 0.04641,0.53857 -0.123028,0.16232 -0.347691,0.2076 -0.523993,0.10562 l -0.150547,0.20271 c 0.144311,0.14225 0.160769,0.36948 0.03853,0.5311 -0.120634,0.15933 -0.339695,0.20648 -0.515144,0.11084 l -0.151895,0.20546 c 0.383195,1.08536 -0.181436,0.58391 1.559643,-0.0929 0.676312,0.34978 0.711667,0.40324 1.105406,0.64344 l 41.063823,31.27196 c 2.825333,2.57508 6.840005,-2.62188 3.890922,-4.83318 L 44.436418,272.6331 c -1.503699,-0.85754 -1.825313,-1.79447 -1.537023,-3.91117 l 0.342638,-2.15732 1.004025,0.78028 c 2.142073,1.67709 5.899424,-4.03377 3.875739,-5.50234 l -9.25e-4,-7.1e-4 -1.637594,-1.22918 c -0.231397,0.15667 -0.473441,0.18145 -0.628151,0.0643 -0.153496,-0.11681 -0.195331,-0.35463 -0.108748,-0.61816 l -0.483954,-0.36234 c -0.22949,0.15307 -0.468414,0.17646 -0.621777,0.0609 -0.152797,-0.11549 -0.195713,-0.35059 -0.111777,-0.61219 l -0.549922,-0.41232 c -0.228349,0.15001 -0.464931,0.17162 -0.616834,0.0562 -0.0077,-0.006 -0.01541,-0.012 -0.02273,-0.0186 l 1.273531,-1.68075 -1.214189,-0.92001 -1.273531,1.68074 c -0.131721,-0.11917 -0.16681,-0.33735 -0.09312,-0.57921 l -0.493295,-0.37087 c -0.185945,0.11812 -0.37806,0.15228 -0.524409,0.0934 l 1.266283,-1.6712 -1.214191,-0.92001 -1.247085,1.64585 c -0.06188,-0.009 -0.11728,-0.0324 -0.163909,-0.0677 -0.146148,-0.11141 -0.191362,-0.33329 -0.119001,-0.58379 l -0.436406,-0.32776 c -0.09259,0.057 -0.187484,0.0937 -0.27798,0.10771 l 0.478452,-0.67514 -1.285177,-3.33884 z m 2.237108,12.38781 c 0.0465,0.0354 0.08351,0.0825 0.109513,0.13949 l -0.926892,1.22327 1.214191,0.92 0.946454,-1.24908 c 0.140001,0.18209 0.111835,0.5028 -0.06977,0.79519 l 0.387298,0.3022 c 0.25658,-0.28391 0.595469,-0.39279 0.807596,-0.25945 l -0.953332,1.25817 1.214189,0.92001 0.95333,-1.25816 c 0.0082,0.006 0.01632,0.0104 0.02413,0.0168 0.01747,0.0135 0.03375,0.0284 0.04837,0.0454 l -1.372375,1.65926 -4.399764,-3.33375 0.934091,-1.32017 c -0.01537,0.0333 -0.03258,0.0663 -0.05148,0.0988 l 0.329426,0.25544 c 0.266126,-0.27561 0.604711,-0.36531 0.804971,-0.21327 z m 26.532658,29.03162 0.355175,0.26912 c 0.65666,0.49756 0.785159,1.42664 0.2876,2.08329 -0.497567,0.65668 -1.42713,0.78481 -2.08379,0.28724 l -0.355174,-0.26912 c -0.65666,-0.49756 -0.784317,-1.42675 -0.28675,-2.08342 0.497559,-0.65666 1.426281,-0.78466 2.082939,-0.28711 z"
         sodipodi:nodetypes="cccccccccccsccccccccsccccccccccccccccccccccccccccccccccccccccccccccccccccccccccccccccccccccccccccsccccscccccccccccccccccccccccccccccccccccccccccccccccccccccccccccccccccccccccccccsssssss" />
      <g
         id="g956"
         transform="matrix(0.92503981,0.70091661,-0.70091661,0.92503981,186.83434,1.196772)">
        <path
           id="path831"
           style="fill:#403e43;fill-opacity:1;stroke:url(#linearGradient921);stroke-width:0.291042;stroke-linecap:butt;stroke-linejoin:miter;stroke-miterlimit:4;stroke-dasharray:none;stroke-opacity:1"
           d="m 38.709206,248.74609 -1.764752,0.008 a 0.44903175,0.69081805 0 0 1 -0.397907,0.37103 0.44903175,0.69081805 0 0 1 -0.396359,-0.36794 l -0.520382,0.003 a 0.44903175,0.69081805 0 0 1 -0.395841,0.36535 0.44903175,0.69081805 0 0 1 -0.394808,-0.36225 l -0.592728,0.003 a 0.44903175,0.69081805 0 0 1 -0.393774,0.35967 0.44903175,0.69081805 0 0 1 -0.392742,-0.35605 l -0.528132,0.002 a 0.44903175,0.69081805 0 0 1 -0.391708,0.35399 0.44903175,0.69081805 0 0 1 -0.390673,-0.35037 l -0.532268,0.002 a 0.44903175,0.69081805 0 0 1 -0.389641,0.3483 0.44903175,0.69081805 0 0 1 -0.388091,-0.34469 l -0.606679,0.003 a 0.44903175,0.69081805 0 0 1 -0.387056,0.3421 0.44903175,0.69081805 0 0 1 -0.386025,-0.339 l -0.470254,0.002 a 0.44903175,0.69081805 0 0 1 -0.385506,0.33693 0.44903175,0.69081805 0 0 1 -0.383958,-0.33332 l -0.545703,0.002 a 0.44903175,0.69081805 0 0 1 -0.382921,0.33124 0.44903175,0.69081805 0 0 1 -0.381889,-0.32762 l -0.619083,0.003 a 0.44903175,0.69081805 0 0 1 -0.380857,0.32505 0.44903175,0.69081805 0 0 1 -0.379304,-0.32195 l -0.485759,0.002 a 0.44903175,0.69081805 0 0 1 -0.378272,0.31988 0.44903175,0.69081805 0 0 1 -0.377238,-0.31626 l -0.559138,0.002 a 0.44903175,0.69081805 0 0 1 -0.376204,0.3142 0.44903175,0.69081805 0 0 1 -0.374655,-0.31058 l -0.633553,0.003 a 0.44903175,0.69081805 0 0 1 -0.373104,0.30799 0.44903175,0.69081805 0 0 1 -0.372071,-0.30489 l -0.525031,0.003 a 0.44903175,0.69081805 0 0 1 -0.371554,0.30164 0.44903175,0.69081805 0 0 1 -0.370003,-0.29921 l -0.573609,0.003 a 0.44903175,0.69081805 0 0 1 -0.368969,0.29662 0.44903175,0.69081805 0 0 1 -0.36742,-0.29352 l -0.648539,0.003 a 0.44903175,0.69081805 0 0 1 -0.365869,0.29094 0.44903175,0.69081805 0 0 1 -0.364319,-0.28783 l -0.515731,0.003 a 0.44903175,0.69081805 0 0 1 -0.363285,0.28526 0.44903175,0.69081805 0 0 1 -0.362252,-0.28216 l -0.589628,0.003 a 0.44903175,0.69081805 0 0 1 -0.360701,0.27957 0.44903175,0.69081805 0 0 1 -0.359152,-0.27647 l -0.664559,0.003 a 0.44903175,0.69081805 0 0 1 -0.3576,0.27389 0.44903175,0.69081805 0 0 1 -0.356568,-0.27078 l -6.6528238,0.0286 c -2.2246089,0.0945 -4.7613553,1.32878 -5.8880125,4.30206 -0.95094504,2.50957 -0.30014043,5.14205 0.54777,7.7525 0.1083083,0.33342 3.5766348,5.03965 4.8043578,4.1739 l 0.00259,-0.26355 a 0.347922,0.347922 0 0 1 -0.2868041,-0.3421 0.347922,0.347922 0 0 1 0.2940388,-0.34365 l 0.00206,-0.22014 a 0.347922,0.347922 0 0 1 -0.296099,-0.34757 0.347922,0.347922 0 0 1 0.3028238,-0.34468 l 0.00206,-0.21756 a 0.347922,0.347922 0 0 1 -0.3048908,-0.3452 0.347922,0.347922 0 0 1 0.3121255,-0.34571 l 0.00206,-0.21549 a 0.347922,0.347922 0 0 1 -0.3141927,-0.34624 0.347922,0.347922 0 0 1 0.3209105,-0.34623 l 0.00206,-0.21394 a 0.347922,0.347922 0 0 1 -0.3229777,-0.34726 0.347922,0.347922 0 0 1 0.3302125,-0.34727 l 0.00206,-0.21291 a 0.347922,0.347922 0 0 1 -0.3322793,-0.34726 0.347922,0.347922 0 0 1 0.3389974,-0.34779 l 0.00206,-0.21239 a 0.347922,0.347922 0 0 1 -0.3410643,-0.34726 0.347922,0.347922 0 0 1 0.3477823,-0.3483 l 0.00206,-0.21136 a 0.347922,0.347922 0 0 1 -0.00206,0 0.347922,0.347922 0 0 1 -0.3477823,-0.34778 0.347922,0.347922 0 0 1 0.3477823,-0.3483 0.347922,0.347922 0 0 1 0.0093,5.3e-4 l 0.00206,-0.21239 a 0.347922,0.347922 0 0 1 -0.011369,5.3e-4 0.347922,0.347922 0 0 1 -0.3477824,-0.3483 0.347922,0.347922 0 0 1 0.3477824,-0.34778 0.347922,0.347922 0 0 1 0.018603,5.3e-4 l 0.00259,-0.21291 a 0.347922,0.347922 0 0 1 -0.020672,10e-4 0.347922,0.347922 0 0 1 -0.3477824,-0.3483 0.347922,0.347922 0 0 1 0.3477824,-0.34778 0.347922,0.347922 0 0 1 0.027388,10e-4 l 0.00465,-0.45321 c 0.0086,-1.05692 0.9550656,-1.38872 1.7745686,-1.37872 l 5.277714,0.0661 a 0.44903175,0.69081805 0 0 1 0.396875,-0.36845 0.44903175,0.69081805 0 0 1 0.400492,0.37827 l 0.578259,0.007 a 0.44903175,0.69081805 0 0 1 0.40256,-0.38551 0.44903175,0.69081805 0 0 1 0.406176,0.39585 l 0.498678,0.006 a 0.44903175,0.69081805 0 0 1 0.407727,-0.40205 0.44903175,0.69081805 0 0 1 0.410827,0.41238 l 0.420647,0.005 a 0.44903175,0.69081805 0 0 1 0.411861,-0.41754 0.44903175,0.69081805 0 0 1 0.415478,0.42788 l 0.549321,0.007 a 0.44903175,0.69081805 0 0 1 0.417029,-0.4346 0.44903175,0.69081805 0 0 1 0.419612,0.44545 l 0.471806,0.006 a 0.44903175,0.69081805 0 0 1 0.421163,-0.45114 0.44903175,0.69081805 0 0 1 0.423747,0.46199 l 0.420129,0.005 a 0.44903175,0.69081805 0 0 1 0.42478,-0.46715 0.44903175,0.69081805 0 0 1 0.426331,0.47801 l 0.526582,0.006 a 0.44903175,0.69081805 0 0 1 0.4284,-0.48421 0.44903175,0.69081805 0 0 1 0.430464,0.49506 l 0.450617,0.006 a 0.44903175,0.69081805 0 0 1 0.431499,-0.50075 0.44903175,0.69081805 0 0 1 0.433567,0.5116 l 0.375169,0.005 a 0.44903175,0.69081805 0 0 1 0.434599,-0.51625 0.44903175,0.69081805 0 0 1 0.43615,0.5271 l 0.508494,0.007 a 0.44903175,0.69081805 0 0 1 0.437185,-0.53382 0.44903175,0.69081805 0 0 1 0.438732,0.54467 l 0.434083,0.005 a 0.44903175,0.69081805 0 0 1 0.439767,-0.54984 0.44903175,0.69081805 0 0 1 0.440798,0.56121 l 0.359151,0.004 a 0.44903175,0.69081805 0 0 1 0.441835,-0.56534 0.44903175,0.69081805 0 0 1 0.442349,0.57671 l 0.495578,0.006 a 0.44903175,0.69081805 0 0 1 0.4439,-0.58291 0.44903175,0.69081805 0 0 1 0.444418,0.59376 l 0.42323,0.006 a 0.44903175,0.69081805 0 0 1 0.444934,-0.59945 0.44903175,0.69081805 0 0 1 0.445968,0.6103 l 0.420129,0.005 a 0.44903175,0.69081805 0 0 1 0.446485,-0.61546 0.44903175,0.69081805 0 0 1 0.447,0.62683 l 0.486791,0.006 a 0.44903175,0.69081805 0 0 1 0.447519,-0.63303 0.44903175,0.69081805 0 0 1 0.448035,0.6444 l 0.416512,0.005 a 0.44903175,0.69081805 0 0 1 0.448035,-0.64957 0.44903175,0.69081805 0 0 1 0.448551,0.66094 l 1.916162,0.0238 c 2.343767,0.0371 1.952419,-5.84002 -0.201538,-5.79552 z" />
        <path
           style="fill:none;stroke:#000000;stroke-width:0;stroke-linecap:butt;stroke-linejoin:miter;stroke-miterlimit:4;stroke-dasharray:none;stroke-opacity:1"
           d="m 4.0150235,264.06788 c 0.2015874,0.20158 1.5200254,1.36071 1.5200254,1.36071 0,0 1.100608,-8.86984 1.151005,-9.92817 -0.402296,-0.58689 -1.772518,-1.46932 -2.3182526,-0.0504 l -0.6551587,1.10873 z"
           id="path833"
           sodipodi:nodetypes="cccccc" />
        <path
           d="m 4.9740309,255.91394 c -0.01834,2.71683 -0.05835,4.62394 -0.07397,7.37256 -0.002,0.35057 0.398872,2.69087 1.626595,1.82512 l 0.0026,-0.26355 c -0.165801,-0.0296 -0.286604,-0.17368 -0.286805,-0.3421 3.9e-5,-0.17132 0.124787,-0.31711 0.294039,-0.34364 l 0.0021,-0.22015 c -0.170268,-0.0256 -0.296167,-0.17197 -0.296106,-0.34416 1.54e-4,-0.1746 0.129695,-0.32205 0.302824,-0.34468 l 0.0021,-0.21756 c -0.174145,-0.0217 -0.304864,-0.16971 -0.304891,-0.3452 1.83e-4,-0.17816 0.134915,-0.32739 0.312126,-0.34572 l 0.0021,-0.21549 c -0.178224,-0.0173 -0.314166,-0.16716 -0.314192,-0.34623 3.44e-4,-0.18143 0.140027,-0.33215 0.32091,-0.34623 l 0.0021,-0.21394 c -0.182095,-0.0131 -0.323103,-0.1647 -0.322977,-0.34727 1.09e-4,-0.18519 0.145262,-0.33784 0.330212,-0.34726 l 0.0021,-0.21291 c -0.185764,-0.008 -0.332117,-0.16131 -0.33228,-0.34727 1.4e-5,-0.18866 0.150394,-0.34294 0.338997,-0.34778 l 0.0021,-0.21239 c -0.189214,-0.004 -0.340744,-0.15801 -0.341064,-0.34726 -2.08e-4,-0.19225 0.155538,-0.34823 0.347782,-0.3483 l 0.0021,-0.21136 h -0.0021 c -0.192043,-8e-5 -0.347705,-0.15574 -0.347782,-0.34778 -2.09e-4,-0.19225 0.155537,-0.34822 0.347782,-0.3483 0.0031,1.3e-4 0.0062,2.6e-4 0.0093,5.3e-4 l 0.0021,-0.21239 c -0.0038,2.3e-4 -0.0076,5.3e-4 -0.01137,5.3e-4 -0.192244,-8e-5 -0.347989,-0.15606 -0.347782,-0.3483 7.6e-5,-0.19204 0.155739,-0.34771 0.347782,-0.34778 0.0062,1e-5 0.01241,1.8e-4 0.0186,5.3e-4 l 0.0021,-0.21291 c -0.0069,5.3e-4 -0.01377,7.9e-4 -0.02067,0.001 -0.192245,-8e-5 -0.347991,-0.15606 -0.347782,-0.3483 7.7e-5,-0.19205 0.15574,-0.34771 0.347782,-0.34778 0.0091,-2e-5 0.01828,2.6e-4 0.02739,0.001 l 0.0047,-0.4532 c -0.31104,-0.80512 -1.622744,-0.71779 -1.648554,0.37592 z"
           style="fill:#c1c1c1;fill-opacity:1;stroke:url(#linearGradient911);stroke-width:0.132292;stroke-linecap:butt;stroke-linejoin:miter;stroke-miterlimit:4;stroke-dasharray:none;stroke-opacity:1"
           id="path877-6"
           sodipodi:nodetypes="csccccccccccccccccccccccccccccccccccccccc" />
        <path
           sodipodi:nodetypes="ccccscc"
           id="path879-2"
           style="fill:none;fill-opacity:1;stroke:url(#linearGradient903);stroke-width:0.370417;stroke-linecap:butt;stroke-linejoin:bevel;stroke-miterlimit:4;stroke-dasharray:none;stroke-opacity:1"
           d="m 6.4523269,255.88659 c 0.06629,-0.0695 0.03078,-0.32561 0.03209,-0.4522 -0.31104,-0.80512 -1.622744,-0.71779 -1.648554,0.37592 h 4e-6 c -0.01834,2.71683 -0.05835,4.62394 -0.07397,7.37256 -0.002,0.35057 0.398872,2.69087 1.626595,1.82512 l 0.0026,-0.26355" />
        <path
           style="color:#000000;font-style:normal;font-variant:normal;font-weight:normal;font-stretch:normal;font-size:medium;line-height:normal;font-family:sans-serif;font-variant-ligatures:normal;font-variant-position:normal;font-variant-caps:normal;font-variant-numeric:normal;font-variant-alternates:normal;font-variant-east-asian:normal;font-feature-settings:normal;font-variation-settings:normal;text-indent:0;text-align:start;text-decoration:none;text-decoration-line:none;text-decoration-style:solid;text-decoration-color:#000000;letter-spacing:normal;word-spacing:normal;text-transform:none;writing-mode:lr-tb;direction:ltr;text-orientation:mixed;dominant-baseline:auto;baseline-shift:baseline;text-anchor:start;white-space:normal;shape-padding:0;shape-margin:0;inline-size:0;clip-rule:nonzero;display:inline;overflow:visible;visibility:visible;isolation:auto;mix-blend-mode:normal;color-interpolation:sRGB;color-interpolation-filters:linearRGB;solid-color:#000000;solid-opacity:1;vector-effect:none;fill:#7d7d7d;fill-opacity:1;fill-rule:nonzero;stroke:url(#linearGradient1000);stroke-width:0.15875;stroke-linecap:round;stroke-linejoin:bevel;stroke-miterlimit:4;stroke-dasharray:none;stroke-dashoffset:0;stroke-opacity:1;color-rendering:auto;image-rendering:auto;shape-rendering:auto;text-rendering:auto;enable-background:accumulate;stop-color:#000000"
           d="m 8.2211519,249.61202 c -0.826606,0 -1.5,0.67145 -1.5,1.49805 v 0.84375 c 0,0.8266 0.673394,1.5 1.5,1.5 H 36.037558 c 0.826606,0 1.5,-0.6734 1.5,-1.5 v -0.84375 c 0,-0.8266 -0.673394,-1.49805 -1.5,-1.49805 z m 0,0.46485 H 36.037558 c 0.576289,0 1.033204,0.45692 1.033204,1.0332 v 0.84375 c 0,0.57628 -0.456915,1.0332 -1.033204,1.0332 H 8.2211519 c -0.576288,0 -1.033203,-0.45692 -1.033203,-1.0332 v -0.84375 c 0,-0.57628 0.456915,-1.0332 1.033203,-1.0332 z"
           id="path992" />
        <path
           d="m 36.944454,248.75385 c -0.07739,0.22799 -0.230717,0.37096 -0.397907,0.37103 -0.166198,-2.6e-4 -0.31868,-0.14189 -0.396359,-0.36794 l -0.520382,0.003 c -0.07804,0.22479 -0.230191,0.36522 -0.395841,0.36535 -0.164846,-1e-4 -0.316405,-0.13916 -0.394808,-0.36225 l -0.592728,0.003 c -0.07867,0.22159 -0.229656,0.35949 -0.393774,0.35967 -0.163251,-3e-5 -0.313632,-0.13636 -0.392742,-0.35605 l -0.528132,0.002 c -0.07928,0.2184 -0.229111,0.3538 -0.391708,0.35399 -0.161735,-3e-5 -0.310968,-0.13386 -0.390673,-0.35037 l -0.532268,0.002 c -0.07987,0.21522 -0.228555,0.34812 -0.389641,0.3483 -0.160047,-2.7e-4 -0.307898,-0.1316 -0.388091,-0.34469 l -0.606679,0.003 c -0.08043,0.2116 -0.227724,0.34179 -0.387056,0.3421 -0.158554,-2.3e-4 -0.305276,-0.12907 -0.386025,-0.339 l -0.470254,0.002 c -0.08099,0.20888 -0.22741,0.33686 -0.385506,0.33693 -0.15707,-1.5e-4 -0.302673,-0.12654 -0.383958,-0.33332 l -0.545703,0.002 c -0.08142,0.20549 -0.226491,0.33098 -0.382921,0.33124 -0.155596,-4e-5 -0.300088,-0.124 -0.381889,-0.32762 l -0.619083,0.003 c -0.08201,0.20216 -0.225962,0.32501 -0.380857,0.32505 -0.153948,-1.9e-4 -0.2971,-0.12169 -0.379304,-0.32195 l -0.485759,0.002 c -0.08232,0.19899 -0.224954,0.3196 -0.378272,0.31988 -0.152495,-4e-5 -0.294555,-0.11914 -0.377238,-0.31626 l -0.559138,0.002 c -0.0828,0.19587 -0.224335,0.31408 -0.376204,0.3142 -0.150868,-1.3e-4 -0.291613,-0.1168 -0.374655,-0.31058 l -0.633553,0.003 c -0.08312,0.19209 -0.223104,0.30764 -0.373104,0.30799 -0.149252,-1.9e-4 -0.28869,-0.11445 -0.372071,-0.30489 l -0.525031,0.003 c -0.08366,0.18923 -0.2228,0.30245 -0.371554,0.30231 -0.147829,5e-5 -0.286202,-0.11185 -0.370003,-0.29921 l -0.573609,0.003 c -0.08397,0.18591 -0.221818,0.29673 -0.368969,0.29662 -0.146234,4e-5 -0.28332,-0.10948 -0.36742,-0.29352 l -0.648539,0.003 c -0.08415,0.18238 -0.22049,0.2908 -0.365869,0.29094 -0.144466,-1.9e-4 -0.280047,-0.10731 -0.364319,-0.28784 l -0.515731,0.003 c -0.08442,0.17909 -0.219487,0.28515 -0.363285,0.28526 -0.143073,1e-4 -0.277615,-0.10469 -0.362252,-0.28216 l -0.589628,0.003 c -0.08467,0.17581 -0.218474,0.27952 -0.360701,0.27957 -0.141327,-7e-5 -0.274385,-0.1025 -0.359152,-0.27647 l -0.664559,0.003 c -0.08479,0.17234 -0.217114,0.27368 -0.3576,0.27389 -0.139772,3e-5 -0.271584,-0.10007 -0.356568,-0.27078 m -0.04031,5.37124 c 0.07768,-0.22649 0.230418,-0.3683 0.396875,-0.36845 0.169152,-3e-5 0.323962,0.1462 0.400492,0.37827 l 0.578259,0.007 c 0.07555,-0.23591 0.231615,-0.38536 0.40256,-0.3855 0.173772,-9e-5 0.331976,0.15409 0.406176,0.39584 l 0.498678,0.006 c 0.07326,-0.24495 0.232464,-0.40193 0.407727,-0.40204 0.177959,7e-5 0.3391,0.16181 0.410827,0.41238 l 0.420647,0.005 c 0.07086,-0.25311 0.232727,-0.41721 0.411861,-0.41754 0.182071,-1.5e-4 0.346179,0.16885 0.415478,0.42788 l 0.549321,0.007 c 0.06813,-0.26247 0.233321,-0.43462 0.417029,-0.4346 0.186412,9e-5 0.353402,0.17736 0.419612,0.44545 l 0.471806,0.006 c 0.0652,-0.27114 0.233246,-0.45115 0.421163,-0.45113 0.190681,-5e-5 0.360584,0.18519 0.423746,0.46198 l 0.420129,0.005 c 0.06214,-0.27938 0.232841,-0.46711 0.424781,-0.46715 0.194381,5.3e-4 0.36645,0.1935 0.426331,0.47801 l 0.526581,0.006 c 0.05869,-0.28808 0.23217,-0.48416 0.4284,-0.48421 0.198927,1.1e-4 0.374095,0.20157 0.430464,0.49506 l 0.450617,0.006 c 0.05512,-0.29631 0.231162,-0.5006 0.431499,-0.50074 0.203094,6e-5 0.380878,0.20984 0.433567,0.51159 l 0.375169,0.005 c 0.05164,-0.30417 0.230256,-0.51635 0.434599,-0.51625 0.20697,6e-5 0.387099,0.21776 0.43615,0.5271 l 0.508495,0.007 c 0.04742,-0.31259 0.228541,-0.53375 0.437184,-0.53382 0.211336,1e-4 0.394023,0.2269 0.438732,0.54467 l 0.434083,0.005 c 0.04342,-0.32041 0.227023,-0.54997 0.439767,-0.54983 0.21541,1.9e-4 0.400383,0.23569 0.440798,0.5612 l 0.359151,0.004 c 0.03935,-0.32775 0.225195,-0.56554 0.441836,-0.56534 0.219175,2.6e-4 0.406146,0.24415 0.442349,0.57671 l 0.495577,0.006 c 0.03453,-0.33592 0.222841,-0.5832 0.4439,-0.58291 0.22356,1.2e-4 0.413009,0.25324 0.444418,0.59376 l 0.42323,0.006 c 0.02976,-0.34308 0.219953,-0.59933 0.444934,-0.59945 0.227745,1e-5 0.419423,0.26232 0.445968,0.61031 l 0.42013,0.005 c 0.02498,-0.35034 0.217394,-0.61558 0.446484,-0.61547 0.231841,8e-5 0.425529,0.27169 0.447,0.62683 l 0.486791,0.006 c 0.01953,-0.35791 0.214064,-0.63309 0.447519,-0.63304 0.236292,-10e-6 0.43216,0.2817 0.448035,0.6444 l 0.416512,0.005 c 0.01418,-0.36474 0.210529,-0.64941 0.448035,-0.64957 0.240416,5e-5 0.438153,0.29142 0.448551,0.66094"
           style="fill:#403e43;fill-opacity:1;stroke:url(#linearGradient987);stroke-width:0.291042;stroke-linecap:butt;stroke-linejoin:miter;stroke-miterlimit:4;stroke-dasharray:none;stroke-opacity:1"
           id="path985"
           sodipodi:nodetypes="ccccccccccccccccccccccccccccccccccccccccccccccsccccccccccccccccccccccccccccccccccccccccccccccccccccccccccccc" />
        <g
           id="g1039"
           transform="translate(-0.97840809,-17.293791)">
          <rect
             y="265.61722"
             x="31.932308"
             height="6.8045588"
             width="1.3125544"
             id="rect1014"
             style="opacity:1;fill:url(#linearGradient1022);fill-opacity:1;stroke:none;stroke-width:0.147241;stroke-linecap:round;stroke-linejoin:bevel;stroke-miterlimit:4;stroke-dasharray:none;stroke-opacity:1" />
          <rect
             style="opacity:1;fill:url(#linearGradient1030);fill-opacity:1;stroke:none;stroke-width:0.15875;stroke-linecap:round;stroke-linejoin:bevel;stroke-miterlimit:4;stroke-dasharray:none;stroke-opacity:1"
             id="rect1012"
             width="1.3125544"
             height="7.9098678"
             x="33.106701"
             y="265.06458" />
          <rect
             y="265.06458"
             x="30.585213"
             height="7.9098678"
             width="1.3125544"
             id="rect1032"
             style="opacity:1;fill:url(#linearGradient1034);fill-opacity:1;stroke:none;stroke-width:0.15875;stroke-linecap:round;stroke-linejoin:bevel;stroke-miterlimit:4;stroke-dasharray:none;stroke-opacity:1" />
        </g>
      </g>
      <g
         id="g944"
         transform="matrix(0.92503981,0.70091661,-0.70091661,0.92503981,209.43206,-16.844578)">
        <path
           d="m 15.732089,270.66244 -4.119128,9.57047 h 1.100191 l 0.545703,7.74888 44.473771,0.10801 c 3.28027,0.29825 3.333049,-5.35984 0.157097,-5.34386 l -22.227066,-0.52297 c -1.478894,0.19355 -2.187311,-0.28254 -3.09077,-1.88619 l -1.62419,-3.03857 -3.143477,0.1049 -0.104902,2.46238 h -4.756299 l -0.242363,-7.42176 -2.619994,-1.62419 z m 41.310658,13.47411 h 0.383955 c 0.709872,0 1.281575,0.57119 1.281575,1.28106 0,0.70988 -0.571703,1.28157 -1.281575,1.28157 h -0.383955 c -0.709872,0 -1.28106,-0.57169 -1.28106,-1.28157 0,-0.70987 0.571188,-1.28106 1.28106,-1.28106 z"
           style="fill:#a80000;fill-opacity:1;stroke:url(#linearGradient914);stroke-width:0.529167;stroke-linecap:butt;stroke-linejoin:miter;stroke-miterlimit:4;stroke-dasharray:none;stroke-opacity:1"
           id="path862" />
        <rect
           ry="1.1277398"
           y="284.18521"
           x="16.648521"
           height="2.2554796"
           width="31.31077"
           id="rect864"
           style="fill:#75000e;fill-opacity:1;stroke:url(#linearGradient872);stroke-width:0.47625;stroke-linecap:round;stroke-linejoin:bevel;stroke-miterlimit:4;stroke-dasharray:none" />
        <rect
           style="fill:#75000e;fill-opacity:1;stroke:url(#linearGradient882);stroke-width:0.502708;stroke-linecap:round;stroke-linejoin:bevel;stroke-miterlimit:4;stroke-dasharray:none"
           id="rect880"
           width="2.9465926"
           height="2.5627136"
           x="49.619701"
           y="284.08395"
           ry="1.2813568" />
        <rect
           ry="1.2813568"
           y="284.13635"
           x="55.761539"
           height="2.5627136"
           width="2.9465926"
           id="rect884"
           style="fill:none;fill-opacity:1;stroke:url(#linearGradient886);stroke-width:0.502708;stroke-linecap:round;stroke-linejoin:bevel;stroke-miterlimit:4;stroke-dasharray:none" />
        <path
           sodipodi:nodetypes="cccccc"
           id="path898"
           d="m 13.611087,289.42034 c -0.201587,0.20158 -1.520025,1.36071 -1.520025,1.36071 0,0 -1.100608,-8.86984 -1.151005,-9.92817 0.402296,-0.58689 1.772518,-1.46932 2.318253,-0.0504 l 0.655158,1.10873 z"
           style="fill:none;stroke:#000000;stroke-width:0;stroke-linecap:butt;stroke-linejoin:miter;stroke-miterlimit:4;stroke-dasharray:none;stroke-opacity:1" />
        <path
           sodipodi:nodetypes="ccccccccccccccccccccccccccccccccccccccc"
           id="path900"
           style="fill:#c1c1c1;fill-opacity:1;stroke:url(#linearGradient906);stroke-width:0.132292;stroke-linecap:butt;stroke-linejoin:miter;stroke-miterlimit:4;stroke-dasharray:none;stroke-opacity:1"
           d="m 12.704473,280.74247 c 0.01834,2.71683 0.05835,4.62394 0.07397,7.37256 -0.843484,1.37081 -0.808493,1.4218 -1.636429,0.87583 l -0.0021,-0.22015 c 0.170268,-0.0256 0.296167,-0.17197 0.296106,-0.34416 -1.54e-4,-0.1746 -0.129695,-0.32205 -0.302824,-0.34468 l -0.0021,-0.21756 c 0.174145,-0.0217 0.304864,-0.16971 0.304891,-0.3452 -1.83e-4,-0.17816 -0.134915,-0.32739 -0.312126,-0.34572 l -0.0021,-0.21549 c 0.178224,-0.0173 0.314166,-0.16716 0.314192,-0.34623 -3.44e-4,-0.18143 -0.140027,-0.33215 -0.32091,-0.34623 l -0.0021,-0.21394 c 0.182095,-0.0131 0.323103,-0.1647 0.322977,-0.34727 -1.09e-4,-0.18519 -0.145262,-0.33784 -0.330212,-0.34726 l -0.0021,-0.21291 c 0.185764,-0.008 0.332117,-0.16131 0.33228,-0.34727 -1.4e-5,-0.18866 -0.150394,-0.34294 -0.338997,-0.34778 l -0.0021,-0.21239 c 0.189214,-0.004 0.340744,-0.15801 0.341064,-0.34726 2.08e-4,-0.19225 -0.155538,-0.34823 -0.347782,-0.3483 l -0.0021,-0.21136 h 0.0021 c 0.192043,-8e-5 0.347705,-0.15574 0.347782,-0.34778 2.09e-4,-0.19225 -0.155537,-0.34822 -0.347782,-0.3483 -0.0031,1.3e-4 -0.0062,2.6e-4 -0.0093,5.3e-4 l -0.0021,-0.21239 c 0.0038,2.3e-4 0.0076,5.3e-4 0.01137,5.3e-4 0.192244,-8e-5 0.347989,-0.15606 0.347782,-0.3483 -7.6e-5,-0.19204 -0.155739,-0.34771 -0.347782,-0.34778 -0.0062,1e-5 -0.01241,1.8e-4 -0.0186,5.3e-4 l -0.0021,-0.21291 c 0.0069,5.3e-4 0.01377,7.9e-4 0.02067,0.001 0.192245,-8e-5 0.347991,-0.15606 0.347782,-0.3483 -7.7e-5,-0.19205 -0.15574,-0.34771 -0.347782,-0.34778 -0.0091,-2e-5 -0.01828,2.6e-4 -0.02739,10e-4 l -0.0047,-0.4532 c 0.31104,-0.80512 1.622744,-0.71779 1.648554,0.37592 z" />
        <circle
           r="1.3229166"
           cy="283.19943"
           cx="14.863183"
           id="path916"
           style="opacity:1;fill:url(#radialGradient924);fill-opacity:1;stroke:#5a0000;stroke-width:0.502708;stroke-linecap:round;stroke-linejoin:bevel;stroke-miterlimit:4;stroke-dasharray:none;stroke-opacity:1" />
        <path
           sodipodi:nodetypes="cccccccc"
           id="path926"
           d="m 16.33093,273.1446 2.645833,-0.1707 2.048387,1.1949 1.365591,8.87634 h -4.950268 c -0.470165,-1.82679 -1.410584,-2.94819 -3.24328,-2.73118 l -0.682796,-1.79234 z"
           style="fill:none;stroke:url(#linearGradient934);stroke-width:0.423333;stroke-linecap:butt;stroke-linejoin:miter;stroke-miterlimit:4;stroke-dasharray:none;stroke-opacity:1" />
      </g>
    </g>
  </g>
</svg>
