<?xml version="1.0" encoding="UTF-8" standalone="no"?>
<!-- Created with Inkscape (http://www.inkscape.org/) -->

<svg
   xmlns:dc="http://purl.org/dc/elements/1.1/"
   xmlns:cc="http://creativecommons.org/ns#"
   xmlns:rdf="http://www.w3.org/1999/02/22-rdf-syntax-ns#"
   xmlns:svg="http://www.w3.org/2000/svg"
   xmlns="http://www.w3.org/2000/svg"
   xmlns:xlink="http://www.w3.org/1999/xlink"
   xmlns:sodipodi="http://sodipodi.sourceforge.net/DTD/sodipodi-0.dtd"
   xmlns:inkscape="http://www.inkscape.org/namespaces/inkscape"
   width="256"
   height="256"
   id="svg2"
   sodipodi:version="0.32"
   inkscape:version="0.91 r13725"
   sodipodi:docname="system-config-samba.svg"
   inkscape:output_extension="org.inkscape.output.svg.inkscape"
   version="1.1">
  <defs
     id="defs4">
    <linearGradient
       id="linearGradient5032">
      <stop
         id="stop5034"
         stop-color="#000000"
         stop-opacity="1" />
      <stop
         offset="1"
         id="stop5036"
         stop-color="#000000"
         stop-opacity="0" />
    </linearGradient>
    <linearGradient
       id="linearGradient3578">
      <stop
         id="stop3580"
         stop-color="#000000"
         stop-opacity="1" />
      <stop
         offset="1"
         id="stop3582"
         stop-color="#fffcfc"
         stop-opacity="1" />
    </linearGradient>
    <linearGradient
       id="linearGradient3529">
      <stop
         id="stop3531"
         stop-color="#000000"
         stop-opacity="1" />
      <stop
         id="stop3533"
         offset="1"
         stop-color="#efefef"
         stop-opacity="1" />
    </linearGradient>
    <linearGradient
       id="linearGradient3545">
      <stop
         id="stop3547"
         stop-color="#c3c3c3"
         stop-opacity="1" />
      <stop
         offset="0.698"
         id="stop3553"
         stop-color="#616161"
         stop-opacity="1" />
      <stop
         id="stop3555"
         offset="0.882"
         stop-color="#080808"
         stop-opacity="1" />
      <stop
         id="stop3549"
         offset="1"
         stop-color="#d5d5d5"
         stop-opacity="1" />
    </linearGradient>
    <linearGradient
       id="linearGradient3561">
      <stop
         id="stop3563"
         stop-color="#ffffff"
         stop-opacity="1" />
      <stop
         id="stop3565"
         offset="1"
         stop-color="#414141"
         stop-opacity="1" />
    </linearGradient>
    <linearGradient
       id="linearGradient3573">
      <stop
         id="stop3575"
         stop-color="#c9c9c9"
         stop-opacity="1" />
      <stop
         offset="1"
         id="stop3577"
         stop-color="#000000"
         stop-opacity="1" />
    </linearGradient>
    <linearGradient
       id="linearGradient3586">
      <stop
         id="stop3588"
         stop-color="#000000"
         stop-opacity="1" />
      <stop
         offset="1"
         id="stop3590"
         stop-color="#9d9999"
         stop-opacity="1" />
    </linearGradient>
    <linearGradient
       id="linearGradient3600">
      <stop
         id="stop3602"
         stop-color="#000000"
         stop-opacity="1" />
      <stop
         offset="0.803"
         id="stop3608"
         stop-color="#000000"
         stop-opacity="1" />
      <stop
         id="stop3604"
         offset="1"
         stop-color="#686868"
         stop-opacity="0" />
    </linearGradient>
    <linearGradient
       inkscape:collect="always"
       xlink:href="#linearGradient3545"
       id="linearGradient4240"
       gradientUnits="userSpaceOnUse"
       gradientTransform="matrix(2.3891451,0,0,2.3891451,-23.041601,-51.873364)"
       spreadMethod="reflect"
       x1="57.31"
       y1="74.18"
       x2="83.27"
       y2="74.18" />
    <linearGradient
       inkscape:collect="always"
       xlink:href="#linearGradient3529"
       id="linearGradient4242"
       gradientUnits="userSpaceOnUse"
       gradientTransform="matrix(2.3891451,0,0,2.3891451,-23.041601,-51.873364)"
       spreadMethod="reflect"
       x1="55.922"
       y1="88.38"
       x2="81.77"
       y2="88.38" />
    <radialGradient
       inkscape:collect="always"
       xlink:href="#linearGradient3561"
       id="radialGradient4244"
       gradientUnits="userSpaceOnUse"
       gradientTransform="matrix(2.9240052,0.2920178,-0.1306677,1.3083905,-43.102868,-18.659758)"
       spreadMethod="reflect"
       cx="43.48"
       cy="24.446"
       fx="43.48"
       fy="24.446"
       r="30.12" />
    <linearGradient
       inkscape:collect="always"
       xlink:href="#linearGradient3573"
       id="linearGradient4246"
       gradientUnits="userSpaceOnUse"
       gradientTransform="matrix(2.3891451,0,0,2.3891451,-23.041601,-51.873364)"
       spreadMethod="reflect"
       x1="27.18"
       y1="33.27"
       x2="94.08"
       y2="55.805" />
    <linearGradient
       inkscape:collect="always"
       xlink:href="#linearGradient3586"
       id="linearGradient4248"
       gradientUnits="userSpaceOnUse"
       gradientTransform="matrix(2.3891451,0,0,2.3891451,-23.041601,-51.873364)"
       spreadMethod="reflect"
       x1="55.922"
       y1="88.38"
       x2="81.77"
       y2="88.38" />
    <radialGradient
       inkscape:collect="always"
       xlink:href="#linearGradient5032"
       id="radialGradient5038"
       cx="125.68"
       cy="171.03"
       fx="125.68"
       fy="171.03"
       r="76.5"
       gradientTransform="matrix(1,0,0,0.3321429,0,114.22182)"
       gradientUnits="userSpaceOnUse" />
    <linearGradient
       id="linearGradient668">
      <stop
         id="stop669"
         stop-color="#1c4fe2"
         stop-opacity="1" />
      <stop
         id="stop670"
         offset="1"
         stop-color="#97a0f9"
         stop-opacity="1" />
    </linearGradient>
    <linearGradient
       id="linearGradient2875">
      <stop
         id="stop2877"
         stop-color="#03007d"
         stop-opacity="1" />
      <stop
         offset="1"
         id="stop2879"
         stop-color="#525dc5"
         stop-opacity="1" />
    </linearGradient>
    <linearGradient
       id="linearGradient2881">
      <stop
         id="stop2883"
         stop-color="#ffffff"
         stop-opacity="0.845" />
      <stop
         offset="1"
         id="stop2885"
         stop-color="#4d5af1"
         stop-opacity="0" />
    </linearGradient>
    <linearGradient
       id="linearGradient2887">
      <stop
         id="stop2889"
         stop-color="#ffffff"
         stop-opacity="0.371" />
      <stop
         offset="1"
         id="stop2891"
         stop-color="#94a4f0"
         stop-opacity="0" />
    </linearGradient>
    <linearGradient
       inkscape:collect="always"
       xlink:href="#linearGradient2887"
       id="linearGradient5208"
       gradientUnits="userSpaceOnUse"
       gradientTransform="matrix(0.85687185,0,0,0.41234919,-258.23574,-190.93557)"
       x1="452.82"
       y1="890.65"
       x2="452.82"
       y2="787.63" />
    <linearGradient
       inkscape:collect="always"
       xlink:href="#linearGradient2881"
       id="linearGradient5211"
       gradientUnits="userSpaceOnUse"
       gradientTransform="matrix(0.68211046,0,0,0.51799632,-258.80387,-192.03886)"
       x1="563.67"
       y1="369.63"
       x2="558.05"
       y2="594.22" />
    <radialGradient
       inkscape:collect="always"
       xlink:href="#linearGradient668"
       id="radialGradient5214"
       gradientUnits="userSpaceOnUse"
       gradientTransform="matrix(0.60561608,0,0,0.58342273,-259.15846,-190.44735)"
       cx="631.63"
       cy="476.61"
       fx="631.63"
       fy="476.61"
       r="165.79" />
    <radialGradient
       inkscape:collect="always"
       xlink:href="#linearGradient2875"
       id="radialGradient5217"
       gradientUnits="userSpaceOnUse"
       gradientTransform="matrix(0.94111759,-1.9623879e-7,2.0167882e-7,0.99186633,-111.64265,-157.06875)"
       cx="253.87"
       cy="249.4"
       fx="253.87"
       fy="249.4"
       r="114.61" />
  </defs>
  <sodipodi:namedview
     id="base"
     pagecolor="#ffffff"
     bordercolor="#666666"
     borderopacity="1.0"
     gridtolerance="10000"
     guidetolerance="10"
     objecttolerance="10"
     inkscape:pageopacity="0.0"
     inkscape:pageshadow="2"
     inkscape:zoom="3.3164062"
     inkscape:cx="128"
     inkscape:cy="128"
     inkscape:document-units="px"
     inkscape:current-layer="layer1"
     showgrid="false"
     inkscape:window-width="1920"
     inkscape:window-height="1056"
     inkscape:window-x="0"
     inkscape:window-y="0"
     inkscape:window-maximized="1" />
  <metadata
     id="metadata7">
    <rdf:RDF>
      <cc:Work>
        <dc:format>image/svg+xml</dc:format>
        <dc:type
           rdf:resource="http://purl.org/dc/dcmitype/StillImage" />
      </cc:Work>
    </rdf:RDF>
  </metadata>
  <g
     inkscape:label="Layer 1"
     inkscape:groupmode="layer"
     id="layer1">
    <g
       id="g2520"
       transform="matrix(1.5970386,-0.01456364,0.01456364,1.5970386,-54.609165,130.49422)">
      <rect
         id="rect3557"
         width="142.03"
         height="63.05"
         x="42.855"
         y="11.464"
         ry="27.51"
         rx="71.01"
         stroke-opacity="1"
         stroke-dasharray="none"
         fill="url(#linearGradient4240)"
         stroke="url(#linearGradient4242)"
         stroke-linejoin="round"
         fill-opacity="1"
         stroke-linecap="round"
         stroke-width="2.867"
         stroke-miterlimit="4" />
      <rect
         rx="71.01"
         ry="26.775"
         y="11.464"
         x="42.855"
         height="53.55"
         width="142.03"
         id="rect3559"
         stroke-opacity="1"
         stroke-dasharray="none"
         fill="url(#radialGradient4244)"
         stroke="url(#linearGradient4246)"
         stroke-linejoin="round"
         fill-opacity="1"
         stroke-linecap="round"
         stroke-width="1.911"
         stroke-miterlimit="4" />
      <path
         inkscape:connector-curvature="0"
         sodipodi:nodetypes="ccscc"
         id="rect3583"
         d="m 184.884,38.974129 0,8.031972 c 0,15.240626 -31.6725,27.510155 -71.01459,27.510155 -39.342081,0 -71.014588,-12.269529 -71.014588,-27.510155 l 0,-8.031972"
         stroke-opacity="1"
         stroke-dasharray="none"
         fill="none"
         stroke="url(#linearGradient4248)"
         stroke-linejoin="round"
         stroke-linecap="round"
         stroke-width="0.956"
         stroke-miterlimit="4" />
    </g>
    <g
       transform="matrix(1.5970386,-0.01456364,0.01456364,1.5970386,-54.609165,108.67584)"
       id="g3047">
      <rect
         rx="71.01"
         ry="27.51"
         y="11.464"
         x="42.855"
         height="63.05"
         width="142.03"
         id="rect3049"
         stroke-opacity="1"
         stroke-dasharray="none"
         fill="url(#linearGradient4240)"
         stroke="url(#linearGradient4242)"
         stroke-linejoin="round"
         fill-opacity="1"
         stroke-linecap="round"
         stroke-width="2.867"
         stroke-miterlimit="4" />
      <rect
         id="rect3051"
         width="142.03"
         height="53.55"
         x="42.855"
         y="11.464"
         ry="26.775"
         rx="71.01"
         stroke-opacity="1"
         stroke-dasharray="none"
         fill="url(#radialGradient4244)"
         stroke="url(#linearGradient4246)"
         stroke-linejoin="round"
         fill-opacity="1"
         stroke-linecap="round"
         stroke-width="1.911"
         stroke-miterlimit="4" />
      <path
         inkscape:connector-curvature="0"
         d="m 184.884,38.974129 0,8.031972 c 0,15.240626 -31.6725,27.510155 -71.01459,27.510155 -39.342081,0 -71.014588,-12.269529 -71.014588,-27.510155 l 0,-8.031972"
         id="path3053"
         sodipodi:nodetypes="ccscc"
         stroke-opacity="1"
         stroke-dasharray="none"
         fill="none"
         stroke="url(#linearGradient4248)"
         stroke-linejoin="round"
         stroke-linecap="round"
         stroke-width="0.956"
         stroke-miterlimit="4" />
    </g>
    <path
       sodipodi:type="arc"
       id="path4260"
       sodipodi:cx="125.68306"
       sodipodi:cy="171.02733"
       sodipodi:rx="76.502731"
       sodipodi:ry="25.409836"
       d="m 202.18579,171.02733 a 76.502731,25.409836 0 1 1 -153.005462,0 76.502731,25.409836 0 1 1 153.005462,0 z"
       transform="translate(2.1857923,-3.8251366)"
       fill="url(#radialGradient5038)"
       stroke="none"
       fill-opacity="1" />
    <path
       inkscape:connector-curvature="0"
       d="m 213.97416,90.306576 c 0.0119,47.327014 -38.80565,85.699354 -86.69365,85.699354 -47.888004,0 -86.705562,-38.37234 -86.693661,-85.699354 -0.0119,-47.327006 38.805657,-85.6993523 86.693661,-85.6993523 47.888,0 86.70556,38.3723463 86.69365,85.6993523 z"
       id="path381"
       stroke-opacity="1"
       fill="url(#radialGradient5217)"
       stroke="#2c2ae3"
       fill-opacity="1"
       stroke-width="0.704" />
    <path
       inkscape:connector-curvature="0"
       d="m 126.51872,4.8091739 -7.07025,0.1437986 -0.62438,1.5817389 -6.09695,0.1258171 -4.16868,0.3954332 C 93.159934,8.1762631 68.495595,21.388617 54.255297,43.292145 l 2.27717,0.916689 3.470851,-3.253348 1.322223,1.563759 1.560966,-2.246783 1.634423,1.869324 -1.909887,0.988592 1.303867,0.934654 2.883189,-0.377459 0.27546,-2.857904 3.140296,-3.864473 0.38565,3.487006 1.634414,0.593152 -4.168689,1.671611 0.07345,2.857904 -0.275457,2.534387 2.552635,-0.988588 -0.03673,-1.599713 0.954943,-0.647074 0.275465,-2.228823 1.267139,-1.29414 2.222071,-0.988588 1.579328,-1.617693 1.854792,-3.846488 4.425799,-4.205989 -1.616059,-0.593152 2.203715,-2.264764 2.809724,-4.188011 -5.105261,2.013119 -3.177026,1.959206 -2.258802,-0.269616 3.489206,-2.60628 8.557757,-6.830231 4.554343,2.768045 -0.293829,1.276176 -3.525941,1.006559 -0.293829,1.599713 -2.222079,1.312123 -1.2304,2.893862 3.213745,-0.395433 0.918205,-1.92325 0.367286,1.905276 2.864831,-1.330097 1.560968,-2.246787 1.285495,0.28759 0.954943,-0.970613 2.846463,-1.941223 2.86482,-2.282736 0.93658,-0.970611 -0.33056,-0.934664 -2.25879,0.03595 -1.909888,0.341511 -1.597695,0.988586 -0.642755,-0.305563 1.579327,-1.29415 4.150331,-1.042514 1.30386,0.934672 1.2855,-0.647075 0.93658,-1.294157 -0.0367,-1.276168 -4.46252,1.366045 -1.616053,-0.611127 3.489213,-2.606272 5.74802,-2.01312 2.55263,-0.9885856 5.43582,-1.3840184 5.14201,-0.08987 9.95343,-0.5032835 -2.2588,-0.5931528 3.21374,-0.3774589 -3.87486,-0.8807429 4.48088,-0.7189699 -6.42749,-0.1977204 z m 8.88831,1.5817388 2.90156,2.2108395 3.85649,1.9052768 4.49925,1.58173 -0.33056,0.952646 1.61606,1.276176 0,2.534369 2.2588,0.305563 1.5977,2.228814 -2.571,0.629101 1.61605,0.952638 -0.9733,1.599712 -3.54431,0 -0.95494,1.581739 1.2855,4.116108 0,1.276184 0.95494,2.228811 -0.95494,1.905269 -2.25881,-0.647074 1.2855,1.905279 0.33056,1.599709 1.92825,1.258203 -5.142,0 -2.57099,-1.258203 0,-0.952635 0,-2.857918 0.95494,-1.905277 -0.64275,-0.952637 -1.2855,1.581743 -0.64275,1.581736 0.33055,3.810552 3.52595,1.599713 2.57099,0.952639 -2.88319,0.952638 -2.57099,2.839935 -0.97331,-1.58174 -0.95495,0.323537 0.64276,2.21085 -2.25881,1.581728 0.33056,0.952638 -0.64276,1.276176 -1.94661,0.323537 -0.3122,-1.905277 -1.28549,-1.276172 2.24044,0.629098 1.61606,-0.629098 0.33056,-1.905277 -5.80312,-1.887292 -1.2855,-0.647078 -3.83812,0.647078 -2.90157,2.210833 -4.8298,5.697851 -2.24044,-0.305564 -1.61606,1.905277 -1.28549,3.810546 0.9733,0.952639 3.21375,-1.276184 1.2855,5.715827 3.21375,-1.581728 -0.3122,-2.552351 1.2855,-0.629101 0.95494,-1.27618 -0.95494,-1.258191 0,-1.599721 2.571,-2.53437 0,-1.258203 1.92825,-0.952639 0.95494,1.58174 -2.88319,2.534379 0.31219,3.487005 3.54431,-0.305553 1.90988,0.629086 -1.2855,0.952647 -3.19538,-0.629102 0,1.258203 0.64275,0.647066 0,2.210842 -1.61606,-1.58174 -0.95494,3.487017 -1.61606,1.599709 -0.64274,-0.952631 -4.18706,0.952631 -0.64275,-1.276176 -0.95494,0.952638 -0.97332,-0.952638 -0.31219,-1.276172 0.95495,-1.581736 0,-1.276179 -2.24044,0.952638 0,3.81055 -3.54431,0.323537 -0.64274,1.581741 -1.92825,0.629101 -0.64275,1.599709 -2.90156,0.629105 -1.59769,-1.58174 0,1.905273 -0.64275,0.305565 -0.97331,-0.629098 -1.59769,0.323533 2.24044,1.905277 0,2.210842 -1.597685,3.487017 -6.427503,-2.228822 -3.544301,6.039364 -0.312192,3.181449 1.597691,0 1.303863,1.905277 1.285503,0 2.88319,0.629094 1.928246,-0.952635 1.285503,-1.276171 0.330545,-1.581744 1.9099,-1.581733 2.25879,-0.952638 0,-1.276176 1.2855,-0.629101 2.25881,1.258203 3.21375,-1.581736 0.95495,1.276171 -0.3122,0.952639 2.88319,3.163468 0.97331,0 2.571,2.857916 -0.64275,1.58174 -1.61606,0.323545 -1.2855,-0.629102 -1.59769,0.629102 3.52594,1.905265 0,-0.629098 0,-1.276167 1.2855,0 1.2855,-1.258199 0,-0.647086 -0.64275,-0.952631 0.64275,0 1.61606,0.323533 0,-0.629105 -2.25881,-1.599713 -0.31219,-0.952631 -1.2855,-0.629097 -2.25881,-3.487017 0.64274,-1.905269 6.44588,6.344917 0.31219,1.905285 2.2588,5.392278 1.92825,0.323549 0.95494,-2.552359 -1.28549,-2.534371 3.52593,-0.952638 0,2.857907 0,0.952647 0.97331,-0.323545 0.95494,2.22881 2.571,0.629105 1.61606,-0.629105 1.61605,0.952639 2.24045,-0.62909 0.33056,-0.647082 1.28549,0.647082 0.95495,1.905269 -2.24044,5.392286 -3.85651,0 -2.58936,1.27618 -8.33738,-2.857916 -2.90155,1.581736 0,1.27618 -1.92825,0.629098 -0.97331,-1.276172 -2.571,-0.305564 -0.64275,-2.228815 -2.88319,0 -2.90156,-2.534378 1.61606,-1.905273 -0.64275,-0.647075 0,-1.58174 -0.97331,-0.95263 -2.24044,0.629101 -3.54431,-0.952646 -4.499235,0 -3.856501,0.952646 -2.240438,-0.629101 -1.285503,-1.258199 -2.258806,2.210829 -1.616059,0.323537 -2.88319,1.581737 0.312192,2.228814 -2.571002,1.905277 -1.928242,0 -7.400806,6.668466 0,2.210832 0.330555,2.85792 -0.973303,3.48701 -1.597691,0 0.642748,1.58174 -0.973307,2.53437 3.213745,4.45763 0.330564,3.16347 6.758054,7.6211 4.168685,-0.32353 3.544309,2.21083 9.329049,-0.6291 1.285492,3.81055 3.19539,-0.95264 2.571,2.53438 -1.28551,5.08673 6.44587,8.8793 0.95495,3.81055 -2.571,4.13409 4.49924,6.02138 1.28549,4.43965 1.61607,0 2.88319,2.53438 0.33056,1.90527 11.88169,-0.95264 7.0886,-3.48701 0.3122,-2.22881 3.5443,-1.58174 0,-2.53436 6.09694,-3.81056 2.25881,-2.83994 -0.3122,-4.13409 -1.30386,-5.08673 12.21225,-14.27158 2.90155,-6.34493 0.33056,-4.43965 -9.32905,3.48701 -1.28551,-2.21083 -2.88318,-1.90528 -2.25881,-2.22881 -3.8565,-4.13409 0.31219,-2.21084 -2.571,-2.55234 -3.21374,-6.65049 1.61605,-0.323536 3.52594,4.439646 1.92825,0.64707 0.97331,4.43965 2.2588,0.95264 2.88319,3.48701 1.61606,4.13409 1.59769,1.2582 9.97181,-5.71583 -0.33056,-1.90527 4.18706,-2.85791 2.57099,-3.16348 1.2855,-5.715816 -4.18705,-0.934666 -1.59769,-2.228814 -2.25881,3.16348 -2.25881,0.323536 -0.95493,-2.210841 -1.92826,0 -2.571,-3.504986 1.59769,-1.258203 2.25881,3.16348 5.142,-0.305564 1.2855,-1.27618 1.61606,1.905278 5.14199,-1.276172 3.8565,-2.210842 6.42749,4.116115 1.2855,-0.629101 7.71301,12.042776 0.9733,-0.30557 -0.33056,-1.5997 1.61605,0 0.3122,2.22881 1.92824,0 -0.31219,-2.53438 -1.92825,-3.48701 -0.33055,-2.55234 -0.64275,-4.11612 1.92825,-3.487017 0.33056,-3.810554 0.95493,-3.487013 1.92826,-4.134083 2.571,1.905269 1.2855,2.534386 0.64275,-2.534386 3.5443,10.155483 1.2855,4.457624 -1.2855,-0.647074 -1.61606,0.647074 0.33056,2.210841 1.2855,0.30557 1.92825,4.45761 0.97331,-8.57373 -1.2855,-4.116118 -1.2855,-1.276176 -0.97331,-6.039364 2.90156,1.905277 -0.64275,-9.508401 -3.23212,-3.181441 -0.31219,-3.792585 0,-4.457625 -1.2855,-5.697851 -2.2588,-6.039368 -3.21375,-6.02138 -3.8565,-2.552351 -3.5443,-4.116115 4.18705,0.647086 -6.42749,-6.039368 -5.78476,-7.297563 -6.42749,-4.76319 -7.713,-4.76319 1.92825,3.810552 -5.78475,-3.810552 -6.1153,-4.134082 -2.90155,-0.934664 -2.24044,-1.905277 8.66793,2.839941 0,-1.258202 -10.26563,-2.534376 -3.21375,-1.9052766 -7.0886,-1.9052763 -1.92825,0.6291006 -2.24044,-0.6291006 -4.18706,-1.2582014 z m -27.01386,5.0687543 -4.37069,1.509835 5.28891,1.348079 3.2872,-1.132385 2.95666,-1.204272 -7.16208,-0.521257 z m 3.50758,3.0736 -2.86482,2.246788 -1.65279,-0.0719 -2.86482,2.24678 3.67286,2.516402 5.32563,2.588307 2.33227,-1.384019 -0.78967,-2.156918 -1.43241,-2.300709 2.16698,-3.397145 -3.89323,-0.28759 z m -6.77641,7.78287 -3.21376,1.905276 0.64276,0.952637 -7.070242,4.439654 -5.784759,2.857904 -4.8298,4.439654 -1.928247,2.228815 1.928247,-0.323534 -1.597683,2.534375 8.355733,-3.487017 1.285503,0.952642 3.544301,-0.952642 1.597699,1.276176 4.499248,-0.952635 -0.31219,-1.599713 6.42749,-2.210845 -0.64275,-1.276174 7.38244,-4.134081 -0.95494,-1.258201 0.95494,-2.228814 -7.38244,-2.534377 0,1.276176 -2.90155,-1.905276 z m -9.47597,19.340345 -1.285499,2.857916 0,2.228802 2.88319,0 2.258806,-0.952638 -0.330556,-2.857912 -2.240442,-0.323529 0,-0.952639 -1.285499,0 z m 9.53106,10.101553 -1.92825,1.581736 0.64275,5.715816 -1.92824,-0.323533 0.33055,1.276171 -1.61606,0.323541 1.28551,1.581736 -2.8832,0.952639 7.713,0.629102 0.9733,-2.210834 -0.9733,-1.276184 -0.97331,-4.439643 1.30386,-1.90527 -1.61606,-0.647074 0.97332,-0.629105 -1.30387,-0.629098 z m -3.61776,2.534363 -1.2855,0.629101 -1.285502,0 -0.642752,0.952647 0.642752,0.647066 -1.928247,1.258203 3.213749,1.276172 1.2855,-1.276172 0.97331,-2.53437 -0.97331,-0.952647 z m 37.24275,17.345198 2.36899,2.983733 4.05851,-0.665051 3.70959,1.653635 2.69954,1.995149 -1.68952,1.977168 -2.35062,0 0,0.988596 -4.38907,-1.653643 -2.03843,0 -1.34059,1.330098 -4.40743,0.323545 0,-2.642219 0.34892,-2.642223 1.68953,-1.330106 1.34058,-2.318682 z m 20.56799,1.599713 2.03844,1.653635 1.01003,1.653643 2.02007,0 0,1.653627 1.01003,1.312121 0,2.318694 3.72796,2.31867 -3.72796,1.312133 -3.0301,-0.647074 -1.35895,-1.330106 1.6895,-3.307266 -2.02007,0 -2.36899,-1.653639 -0.33055,-2.642219 -0.67948,-1.977168 2.02007,-0.665051 z M 40.774639,77.425733 c -2.774546,23.346787 2.172414,42.536927 12.524436,58.704047 l -1.928242,-7.29756 2.258798,-2.85791 -0.330556,-1.58174 -2.240441,-4.43966 -1.92825,-4.76319 -4.168683,-6.66846 -1.616058,-5.39229 -0.312192,-5.068741 -1.616058,-6.362902 0,-3.16348 0,-4.763181 0,-2.228814 -0.642754,-4.116119 z m 101.555721,65.120447 1.68951,0.98859 -2.02007,2.64222 -3.0301,0 0.33056,-2.30071 3.0301,-1.3301 z m 20.88018,8.05249 -2.88319,1.90527 0.31219,1.27618 -3.52593,1.90527 -1.61606,0.30557 -0.95494,1.90527 0.95494,1.58174 -2.24044,2.22881 1.59769,2.21084 4.49925,-2.21084 4.8298,-8.2502 -0.97331,-2.85791 z"
       id="path4653"
       stroke-opacity="1"
       fill="url(#radialGradient5214)"
       fill-rule="nonzero"
       stroke="#000000"
       stroke-linejoin="miter"
       fill-opacity="1"
       stroke-linecap="butt"
       stroke-width="0.186"
       stroke-miterlimit="4" />
    <path
       inkscape:connector-curvature="0"
       d="m 196.54172,57.845819 c 0,29.719402 -31.72536,53.811731 -70.86055,53.811731 -39.13517,0 -70.860516,-24.092329 -70.860516,-53.811731 0,-29.719386 31.725346,-53.8117133 70.860516,-53.8117133 39.13519,0 70.86055,24.0923273 70.86055,53.8117133 l 0,0 z"
       id="path1123"
       fill="url(#linearGradient5211)"
       fill-rule="nonzero"
       stroke="none"
       fill-opacity="1" />
    <path
       inkscape:connector-curvature="0"
       d="m 173.96189,154.19143 c 0,12.61689 -21.25409,22.8449 -47.47233,22.8449 -26.21823,0 -47.472324,-10.22801 -47.472324,-22.8449 0,-12.61688 21.254094,-22.84493 47.472324,-22.84493 26.21824,0 47.47233,10.22805 47.47233,22.84493 l 0,0 z"
       id="path5478"
       fill="url(#linearGradient5208)"
       fill-rule="nonzero"
       stroke="none"
       fill-opacity="1" />
    <path
       sodipodi:type="arc"
       id="path2865"
       sodipodi:cx="252.83554"
       sodipodi:cy="246.69186"
       sodipodi:rx="119.56522"
       sodipodi:ry="107.75047"
       d="m 372.40076,246.69186 a 119.56522,107.75047 0 0 1 -0.005,0.97601"
       sodipodi:start="0"
       sodipodi:end="0.0090581124"
       sodipodi:open="true"
       transform="matrix(0.75947934,0,0,0.76909976,-65.529727,-101.51008)"
       stroke-opacity="1"
       stroke-dasharray="none"
       fill="none"
       stroke="#000000"
       stroke-width="1"
       stroke-miterlimit="4" />
  </g>
</svg>
