<svg width="303" height="303" viewBox="0 0 303 303" fill="none" xmlns="http://www.w3.org/2000/svg">
<g clip-path="url(#clip0_566_1058)">
<path opacity="0.77" d="M241.412 121.418C215.947 112.018 212.405 106.088 198.212 113.301C184.019 120.515 165.042 133.312 169.487 166.305C173.925 199.306 208.556 232.049 236.7 223.948C264.844 215.847 284.878 200.032 277.068 173.405C269.257 146.77 253.62 125.921 241.412 121.41V121.418Z" fill="url(#paint0_linear_566_1058)"/>
<path opacity="0.77" d="M47.4182 74.5732C47.4182 74.5732 63.8946 150.072 98.8483 160.295C98.8483 160.295 149.399 138.615 155.128 61.3243C155.128 61.3243 102.85 43.1939 94.4751 35.3672C94.4751 35.3672 51.7753 64.6083 43.8438 63.8821L47.4101 74.5732H47.4182Z" fill="url(#paint1_linear_566_1058)"/>
<path d="M157.063 17.3828H146.098V89.5657H157.063V17.3828Z" fill="url(#paint2_linear_566_1058)"/>
<path d="M182.425 83.9281H172.734V45.521C172.734 41.4866 176.002 38.2188 180.037 38.2188H199.305V47.9093H184.757C183.466 47.9093 182.425 48.9582 182.425 50.2412V83.9281Z" fill="url(#paint3_linear_566_1058)"/>
<path d="M218.555 121.411V131.102H256.962C260.996 131.102 264.264 127.834 264.264 123.799V104.531H254.574V119.079C254.574 120.37 253.525 121.411 252.242 121.411H218.555Z" fill="url(#paint4_linear_566_1058)"/>
<path d="M146.101 286.453H157.066V214.27H146.101V286.453Z" fill="url(#paint5_linear_566_1058)"/>
<path d="M120.739 219.914H130.43V258.321C130.43 262.356 127.162 265.623 123.128 265.623H103.859V255.933H118.407C119.698 255.933 120.739 254.884 120.739 253.601V219.914Z" fill="url(#paint6_linear_566_1058)"/>
<path d="M182.425 219.797H172.734V258.204C172.734 262.238 176.002 265.506 180.037 265.506H199.305V255.816H184.757C183.466 255.816 182.425 254.767 182.425 253.484V219.797Z" fill="url(#paint7_linear_566_1058)"/>
<path d="M17.9492 146.753V157.719H90.1321V146.753H17.9492Z" fill="url(#paint8_linear_566_1058)"/>
<path d="M84.6078 183.081V173.391H46.2006C42.1663 173.391 38.8984 176.658 38.8984 180.693V199.961H48.589V185.413C48.589 184.122 49.6379 183.081 50.9209 183.081H84.6078Z" fill="url(#paint9_linear_566_1058)"/>
<path d="M192.476 83.9297H110.684C95.5325 83.9297 83.25 96.2122 83.25 111.363V193.156C83.25 208.307 95.5325 220.59 110.684 220.59H192.476C207.628 220.59 219.91 208.307 219.91 193.156V111.363C219.91 96.2122 207.628 83.9297 192.476 83.9297Z" fill="url(#paint10_linear_566_1058)"/>
<path d="M112.2 213.703H190.967C203.155 213.703 213.035 203.823 213.035 191.635V112.868C213.035 100.68 203.155 90.8001 190.967 90.8001L112.2 90.8001C100.012 90.8001 90.1322 100.68 90.1322 112.868L90.1322 191.635C90.1322 203.823 100.012 213.703 112.2 213.703Z" fill="url(#paint11_linear_566_1058)"/>
<path d="M17.9503 165.182C25.1026 165.182 30.9006 159.384 30.9006 152.232C30.9006 145.079 25.1026 139.281 17.9503 139.281C10.7981 139.281 5 145.079 5 152.232C5 159.384 10.7981 165.182 17.9503 165.182Z" fill="url(#paint12_radial_566_1058)"/>
<path d="M43.8409 218.237C50.9932 218.237 56.7913 212.439 56.7913 205.286C56.7913 198.134 50.9932 192.336 43.8409 192.336C36.6887 192.336 30.8906 198.134 30.8906 205.286C30.8906 212.439 36.6887 218.237 43.8409 218.237Z" fill="url(#paint13_radial_566_1058)"/>
<path d="M151.583 300.065C158.735 300.065 164.533 294.267 164.533 287.114C164.533 279.962 158.735 274.164 151.583 274.164C144.431 274.164 138.633 279.962 138.633 287.114C138.633 294.267 144.431 300.065 151.583 300.065Z" fill="url(#paint14_radial_566_1058)"/>
<path d="M206.95 272.901C214.103 272.901 219.901 267.103 219.901 259.95C219.901 252.798 214.103 247 206.95 247C199.798 247 194 252.798 194 259.95C194 267.103 199.798 272.901 206.95 272.901Z" fill="url(#paint15_radial_566_1058)"/>
<path d="M93.9503 272.901C101.103 272.901 106.901 267.103 106.901 259.95C106.901 252.798 101.103 247 93.9503 247C86.7981 247 81 252.798 81 259.95C81 267.103 86.7981 272.901 93.9503 272.901Z" fill="url(#paint16_radial_566_1058)"/>
<path d="M204.314 55.2366C211.466 55.2366 217.264 49.4385 217.264 42.2863C217.264 35.134 211.466 29.3359 204.314 29.3359C197.161 29.3359 191.363 35.134 191.363 42.2863C191.363 49.4385 197.161 55.2366 204.314 55.2366Z" fill="url(#paint17_radial_566_1058)"/>
<path d="M259.95 108.901C267.103 108.901 272.901 103.103 272.901 95.9503C272.901 88.7981 267.103 83 259.95 83C252.798 83 247 88.7981 247 95.9503C247 103.103 252.798 108.901 259.95 108.901Z" fill="url(#paint18_radial_566_1058)"/>
<path d="M151.95 29.9006C159.103 29.9006 164.901 24.1026 164.901 16.9503C164.901 9.79806 159.103 4 151.95 4C144.798 4 139 9.79806 139 16.9503C139 24.1026 144.798 29.9006 151.95 29.9006Z" fill="url(#paint19_radial_566_1058)"/>
<path d="M96.4766 173.379C96.4766 173.379 126.105 165.455 152.054 122.675C155.54 116.922 158.178 110.701 159.961 104.222C162.842 93.7645 167.328 76.3037 168.7 64.4346L162.1 56.8984L146.761 104.246C143.356 114.767 137.918 124.514 130.769 132.946L96.4766 173.379Z" fill="url(#paint20_linear_566_1058)"/>
<path d="M41.4846 62.0925L49.4323 68.1199C49.4323 68.1199 75.9785 61.1485 100.701 35.8207L95.4887 31.625L41.4766 62.0925H41.4846Z" fill="url(#paint21_linear_566_1058)"/>
<path d="M49.4329 68.1256C49.4329 68.1256 58.4457 139.76 102.59 156.801L96.6996 161.215L79.6665 155.72L51.6922 121.387L41.4772 67.5608L39.6133 58.7578L49.4249 68.1176L49.4329 68.1256Z" fill="url(#paint22_linear_566_1058)"/>
<path d="M154.92 55.8106C154.403 55.7703 153.895 55.6896 153.395 55.5766C127.357 49.3233 95.0334 19.4609 95.0334 19.4609L86.1013 27.5458C44.3698 57.9488 30.8789 55.6492 30.8789 55.6492C30.8789 55.6492 39.7545 98.3651 44.6845 112.631C49.9131 127.751 61.1286 143.816 61.1286 143.816C61.1286 143.816 72.9089 161.672 93.1453 171.855L96.4697 173.38C96.4697 173.38 122.935 154.774 136.668 135.384C146.221 121.902 151.426 109.661 156.332 87.4078C161.197 65.364 162.093 56.8999 162.093 56.8999L154.912 55.8106H154.92ZM146.665 88.8359C142.534 107.572 138.605 117.875 130.56 129.228C118.998 145.551 96.7117 161.221 96.7117 161.221L93.9119 159.938C76.8788 151.361 66.9623 136.329 66.9623 136.329C66.9623 136.329 57.5138 122.797 53.1163 110.073C48.9609 98.0585 41.4893 62.0961 41.4893 62.0961C41.4893 62.0961 52.842 64.0326 87.9813 38.4305L95.5014 32.5726C95.5014 32.5726 122.265 56.7546 144.188 62.0235C144.608 62.1284 145.035 62.1849 145.471 62.2252L151.579 63.5808C151.579 63.5808 150.764 70.2698 146.673 88.8279L146.665 88.8359Z" fill="url(#paint23_linear_566_1058)"/>
<path d="M96.25 178.664C96.25 178.664 127.912 170.2 155.644 124.475C159.372 118.334 162.188 111.686 164.092 104.755C167.174 93.5793 171.967 74.9244 173.436 62.2323L166.383 54.1797L149.988 104.779C146.349 116.018 140.539 126.443 132.898 135.448L96.2581 178.656L96.25 178.664Z" fill="url(#paint24_linear_566_1058)"/>
<path d="M37.4883 59.737L45.9847 66.1759C45.9847 66.1759 74.3463 58.7204 100.771 31.6659L95.2039 27.1797L37.4883 59.737Z" fill="url(#paint25_linear_566_1058)"/>
<path d="M45.9815 66.1847C45.9815 66.1847 55.6156 142.733 102.794 160.952L96.4999 165.672L78.2968 159.798L48.4022 123.11L37.4852 65.5876L35.4922 56.1875L45.9815 66.1927V66.1847Z" fill="url(#paint26_linear_566_1058)"/>
<path d="M158.702 53.0226C158.153 52.9742 157.604 52.8935 157.072 52.7725C129.243 46.0915 94.7004 14.1797 94.7004 14.1797L85.1551 22.8213C40.5673 55.306 26.1484 52.8531 26.1484 52.8531C26.1484 52.8531 35.6292 98.498 40.9062 113.748C46.4897 129.902 58.4799 147.072 58.4799 147.072C58.4799 147.072 71.0671 166.154 92.6913 177.039L96.2496 178.669C96.2496 178.669 124.531 158.788 139.208 138.067C149.415 123.656 154.974 110.577 160.227 86.7983C165.423 63.2376 166.375 54.1926 166.375 54.1926L158.702 53.0307V53.0226ZM149.874 88.3152C145.461 108.334 141.257 119.348 132.664 131.483C120.303 148.928 96.4917 165.67 96.4917 165.67L93.4982 164.299C75.2951 155.132 64.6928 139.068 64.6928 139.068C64.6928 139.068 54.5988 124.608 49.8947 111.013C45.4569 98.1752 37.4689 59.7438 37.4689 59.7438C37.4689 59.7438 49.6043 61.8094 87.1481 34.4564L95.1845 28.2032C95.1845 28.2032 123.78 54.0473 147.212 59.6793C147.664 59.7842 148.115 59.8568 148.583 59.8891L155.111 61.3334C155.111 61.3334 154.24 68.4823 149.866 88.3152H149.874Z" fill="url(#paint27_linear_566_1058)"/>
<g filter="url(#filter0_f_566_1058)">
<path d="M158.702 53.0226C158.153 52.9742 157.604 52.8935 157.072 52.7725C129.243 46.0915 94.7004 14.1797 94.7004 14.1797L85.1551 22.8213C40.5673 55.306 26.1484 52.8531 26.1484 52.8531C26.1484 52.8531 35.6292 98.498 40.9062 113.748C46.4897 129.902 58.4799 147.072 58.4799 147.072C58.4799 147.072 71.0671 166.154 92.6913 177.039L96.2496 178.669C96.2496 178.669 124.531 158.788 139.208 138.067C149.415 123.656 154.974 110.577 160.227 86.7983C165.423 63.2376 166.375 54.1926 166.375 54.1926L158.702 53.0307V53.0226ZM149.874 88.3152C145.461 108.334 141.257 119.348 132.664 131.483C120.303 148.928 96.4917 165.67 96.4917 165.67L93.4982 164.299C75.2951 155.132 64.6928 139.068 64.6928 139.068C64.6928 139.068 54.5988 124.608 49.8947 111.013C45.4569 98.1752 37.4689 59.7438 37.4689 59.7438C37.4689 59.7438 49.6043 61.8094 87.1481 34.4564L95.1845 28.2032C95.1845 28.2032 123.78 54.0473 147.212 59.6793C147.664 59.7842 148.115 59.8568 148.583 59.8891L155.111 61.3334C155.111 61.3334 154.24 68.4823 149.866 88.3152H149.874Z" stroke="#FFEC00" stroke-width="2" stroke-miterlimit="10"/>
</g>
<path d="M120.739 84.0375H130.43V45.6303C130.43 41.596 127.162 38.3281 123.128 38.3281H103.859V48.0187H118.407C119.698 48.0187 120.739 49.0676 120.739 50.3505V84.0375Z" fill="url(#paint28_linear_566_1058)"/>
<path d="M83.1918 121.395V131.086H46.0756C42.0413 131.086 38.7734 127.818 38.7734 123.784V104.516H48.464V119.064C48.464 120.355 49.5129 121.395 50.7959 121.395H83.1918Z" fill="url(#paint29_linear_566_1058)"/>
<path d="M43.8409 112.776C50.9932 112.776 56.7913 106.978 56.7913 99.8253C56.7913 92.6731 50.9932 86.875 43.8409 86.875C36.6887 86.875 30.8906 92.6731 30.8906 99.8253C30.8906 106.978 36.6887 112.776 43.8409 112.776Z" fill="url(#paint30_radial_566_1058)"/>
<path d="M93.9503 55.9006C101.103 55.9006 106.901 50.1026 106.901 42.9503C106.901 35.7981 101.103 30 93.9503 30C86.7981 30 81 35.7981 81 42.9503C81 50.1026 86.7981 55.9006 93.9503 55.9006Z" fill="url(#paint31_radial_566_1058)"/>
<path opacity="0.31" d="M120.528 90.7812V114.899C120.528 118.054 117.97 120.611 114.815 120.611H90.125V131.577H121.093C126.838 131.577 131.493 126.921 131.493 121.176V90.7812H120.528Z" fill="url(#paint32_linear_566_1058)"/>
<path opacity="0.31" d="M213.027 157.739V146.773H168.819V157.739H213.027Z" fill="url(#paint33_linear_566_1058)"/>
<path opacity="0.31" d="M213.027 183.856V172.891H168.819V183.856H213.027Z" fill="url(#paint34_linear_566_1058)"/>
<path d="M253.695 142.453C270.147 166.192 273.02 191.269 263.579 210.255C263.24 210.941 262.877 211.603 262.514 212.264C267.831 208.625 272.301 203.623 275.456 197.272C284.162 179.763 279.838 153.145 265.532 133.925C252.533 116.456 228.448 102.715 201.643 111.897C198.077 113.116 194.89 114.866 192.082 117.029C215.74 111.3 240.728 123.734 253.703 142.453H253.695Z" fill="url(#paint35_linear_566_1058)"/>
<path d="M269.607 206.004C280.088 184.081 273.972 157.841 260.215 138.783C253.276 129.189 243.65 121.597 232.894 116.683C222.147 111.801 209.681 109.816 198.215 113.286C209.648 109.518 222.284 111.309 233.152 116.118C244.086 120.959 253.8 128.649 260.877 138.307C274.706 157.616 280.75 184.041 269.615 205.996L269.607 206.004Z" fill="#151C2B"/>
<path opacity="0.21" d="M272.592 199.393C258.407 227.916 217.869 229.361 191.694 200.983C165.527 172.605 168.263 124.467 198.771 114.018C225.583 104.844 249.66 118.585 262.659 136.046C276.965 155.265 281.29 181.884 272.583 199.393H272.592Z" stroke="url(#paint36_linear_566_1058)" stroke-width="0.806874" stroke-miterlimit="10"/>
<path d="M252.18 224.666L264.84 215.847L262.516 212.272C243.934 224.972 214.911 220.938 194.561 198.878C169.411 171.606 170.96 126.082 198.208 113.309L196.361 110.461L178.561 122.669C152.386 139.42 150.57 183.822 176.842 212.313C199.854 237.269 232.468 240.747 252.18 224.674V224.666Z" fill="url(#paint37_linear_566_1058)"/>
<path d="M275.456 197.287C261.271 225.81 220.734 227.255 194.559 198.877C168.392 170.499 171.127 122.361 201.635 111.912C228.448 102.738 252.525 116.479 265.523 133.94C279.829 153.159 284.154 179.778 275.448 197.287H275.456ZM268.557 131.963C254.34 111.452 225.696 98.4776 200.191 108.685C167.722 121.675 163.333 171.032 191.711 201.806C220.088 232.58 263.062 230.7 278.45 199.764C287.89 180.779 285.018 155.701 268.565 131.963H268.557Z" fill="url(#paint38_linear_566_1058)"/>
<path d="M182.092 202.32L169.48 202.829C171.627 206.129 174.08 209.308 176.839 212.301C177.509 213.028 178.195 213.738 178.881 214.431L182.084 202.32H182.092Z" fill="#151C2B"/>
<path d="M187.549 228.794C188.025 228.359 188.412 227.866 188.743 227.326L194.415 220.346C197.917 217.127 197.36 210.825 193.173 206.282C188.985 201.732 182.756 200.659 179.254 203.886C178.778 204.322 178.391 204.814 178.06 205.355L172.388 212.334C168.886 215.553 169.443 221.855 173.63 226.398C177.818 230.949 184.047 232.022 187.549 228.794Z" fill="url(#paint39_linear_566_1058)"/>
<path d="M153.18 272.605L187.545 228.799C191.047 225.58 190.49 219.278 186.302 214.736C182.115 210.185 175.886 209.112 172.384 212.339C172.077 212.622 171.811 212.936 171.569 213.259L134.59 252.425L153.172 272.613L153.18 272.605Z" fill="url(#paint40_linear_566_1058)"/>
<path d="M153.178 272.598C156.679 269.375 155.359 262.243 150.228 256.67C145.097 251.096 138.1 249.19 134.598 252.414C131.096 255.637 132.417 262.768 137.548 268.342C142.678 273.916 149.676 275.821 153.178 272.598Z" fill="#525A6A"/>
<path d="M151.455 270.741C154.019 268.381 152.709 262.787 148.529 258.246C144.349 253.705 138.882 251.937 136.318 254.297C133.754 256.657 135.064 262.251 139.244 266.792C143.424 271.333 148.891 273.101 151.455 270.741Z" fill="url(#paint41_linear_566_1058)"/>
<g filter="url(#filter1_f_566_1058)">
<path d="M275.457 197.289C261.175 225.554 225.035 224.69 202.661 206.624C180.472 189.575 169.53 157.131 180.819 130.867C187.419 116.601 199.304 110.179 214.57 108.904C235.944 106.943 256.511 119.571 267.937 137.136C279.096 154.516 284.47 177.9 275.457 197.281V197.289ZM275.457 197.289C284.365 177.908 278.894 154.597 267.687 137.314C256.269 119.934 235.815 107.476 214.627 109.517C199.627 110.848 188 117.134 181.561 131.206C170.281 157.155 181.036 189.325 202.919 206.31C225.132 224.416 261.103 225.392 275.465 197.289H275.457Z" fill="white"/>
</g>
<g filter="url(#filter2_f_566_1058)">
<path d="M268.557 131.963C259.916 119.675 246.772 110.573 232.199 106.918C209.486 101.101 185.231 110.509 176.888 133.384C164.753 165.642 183.521 203.767 214.012 217.952C242.027 231.362 274.367 220.897 282.129 189.171C286.978 169.265 279.91 148.391 268.565 131.963H268.557ZM268.557 131.963C279.999 148.367 287.164 169.273 282.387 189.235C274.697 221.284 242.043 231.951 213.73 218.549C182.746 204.421 164.011 165.699 176.412 133.198C184.933 110.202 209.373 100.754 232.248 106.724C246.836 110.452 259.956 119.618 268.557 131.963Z" fill="white"/>
</g>
<path d="M285.211 157.739V146.773H219.911V157.739H285.211Z" fill="url(#paint42_linear_566_1058)"/>
<path d="M219.969 183.097V173.406H257.085C261.119 173.406 264.387 176.674 264.387 180.708V199.977H254.697V185.429C254.697 184.138 253.648 183.097 252.365 183.097H219.969Z" fill="url(#paint43_linear_566_1058)"/>
<path d="M259.15 216.244C266.302 216.244 272.1 210.446 272.1 203.294C272.1 196.142 266.302 190.344 259.15 190.344C251.997 190.344 246.199 196.142 246.199 203.294C246.199 210.446 251.997 216.244 259.15 216.244Z" fill="url(#paint44_radial_566_1058)"/>
<path d="M283.95 164.901C291.103 164.901 296.901 159.103 296.901 151.95C296.901 144.798 291.103 139 283.95 139C276.798 139 271 144.798 271 151.95C271 159.103 276.798 164.901 283.95 164.901Z" fill="url(#paint45_radial_566_1058)"/>
</g>
<defs>
<filter id="filter0_f_566_1058" x="23.5711" y="11.5281" width="145.198" height="169.592" filterUnits="userSpaceOnUse" color-interpolation-filters="sRGB">
<feFlood flood-opacity="0" result="BackgroundImageFix"/>
<feBlend mode="normal" in="SourceGraphic" in2="BackgroundImageFix" result="shape"/>
<feGaussianBlur stdDeviation="0.65" result="effect1_foregroundBlur_566_1058"/>
</filter>
<filter id="filter1_f_566_1058" x="175.52" y="107.903" width="105.28" height="112.373" filterUnits="userSpaceOnUse" color-interpolation-filters="sRGB">
<feFlood flood-opacity="0" result="BackgroundImageFix"/>
<feBlend mode="normal" in="SourceGraphic" in2="BackgroundImageFix" result="shape"/>
<feGaussianBlur stdDeviation="0.4" result="effect1_foregroundBlur_566_1058"/>
</filter>
<filter id="filter2_f_566_1058" x="171.743" y="104.177" width="112.944" height="120.827" filterUnits="userSpaceOnUse" color-interpolation-filters="sRGB">
<feFlood flood-opacity="0" result="BackgroundImageFix"/>
<feBlend mode="normal" in="SourceGraphic" in2="BackgroundImageFix" result="shape"/>
<feGaussianBlur stdDeviation="0.4" result="effect1_foregroundBlur_566_1058"/>
</filter>
<linearGradient id="paint0_linear_566_1058" x1="268.822" y1="208.641" x2="193.008" y2="143.785" gradientUnits="userSpaceOnUse">
<stop stop-color="#02ADEF"/>
<stop offset="0.24" stop-color="#018BCB"/>
<stop offset="0.76" stop-color="#004785"/>
<stop offset="1" stop-color="#002D6A"/>
</linearGradient>
<linearGradient id="paint1_linear_566_1058" x1="93.6763" y1="67.6905" x2="137.449" y2="136.743" gradientUnits="userSpaceOnUse">
<stop stop-color="#02ADEF"/>
<stop offset="0.24" stop-color="#018BCB"/>
<stop offset="0.76" stop-color="#004785"/>
<stop offset="1" stop-color="#002D6A"/>
</linearGradient>
<linearGradient id="paint2_linear_566_1058" x1="146.9" y1="53.4623" x2="157.883" y2="53.4623" gradientUnits="userSpaceOnUse">
<stop stop-color="#004AFF"/>
<stop offset="0.31" stop-color="#117BFF"/>
<stop offset="0.78" stop-color="#29C1FF"/>
<stop offset="1" stop-color="#33DDFF"/>
</linearGradient>
<linearGradient id="paint3_linear_566_1058" x1="172.734" y1="61.0694" x2="199.305" y2="61.0694" gradientUnits="userSpaceOnUse">
<stop stop-color="#004AFF"/>
<stop offset="0.31" stop-color="#117BFF"/>
<stop offset="0.78" stop-color="#29C1FF"/>
<stop offset="1" stop-color="#33DDFF"/>
</linearGradient>
<linearGradient id="paint4_linear_566_1058" x1="241.413" y1="131.102" x2="241.413" y2="104.531" gradientUnits="userSpaceOnUse">
<stop stop-color="#004AFF"/>
<stop offset="0.31" stop-color="#117BFF"/>
<stop offset="0.78" stop-color="#29C1FF"/>
<stop offset="1" stop-color="#33DDFF"/>
</linearGradient>
<linearGradient id="paint5_linear_566_1058" x1="152.413" y1="248.616" x2="141.429" y2="248.616" gradientUnits="userSpaceOnUse">
<stop stop-color="#004AFF"/>
<stop offset="0.31" stop-color="#117BFF"/>
<stop offset="0.78" stop-color="#29C1FF"/>
<stop offset="1" stop-color="#33DDFF"/>
</linearGradient>
<linearGradient id="paint6_linear_566_1058" x1="130.438" y1="242.773" x2="103.859" y2="242.773" gradientUnits="userSpaceOnUse">
<stop stop-color="#004AFF"/>
<stop offset="0.31" stop-color="#117BFF"/>
<stop offset="0.78" stop-color="#29C1FF"/>
<stop offset="1" stop-color="#33DDFF"/>
</linearGradient>
<linearGradient id="paint7_linear_566_1058" x1="172.734" y1="242.656" x2="199.313" y2="242.656" gradientUnits="userSpaceOnUse">
<stop stop-color="#004AFF"/>
<stop offset="0.31" stop-color="#117BFF"/>
<stop offset="0.78" stop-color="#29C1FF"/>
<stop offset="1" stop-color="#33DDFF"/>
</linearGradient>
<linearGradient id="paint8_linear_566_1058" x1="50.2532" y1="154.63" x2="50.2532" y2="143.647" gradientUnits="userSpaceOnUse">
<stop stop-color="#004AFF"/>
<stop offset="0.31" stop-color="#117BFF"/>
<stop offset="0.78" stop-color="#29C1FF"/>
<stop offset="1" stop-color="#33DDFF"/>
</linearGradient>
<linearGradient id="paint9_linear_566_1058" x1="61.741" y1="173.391" x2="61.741" y2="199.961" gradientUnits="userSpaceOnUse">
<stop stop-color="#004AFF"/>
<stop offset="0.31" stop-color="#117BFF"/>
<stop offset="0.78" stop-color="#29C1FF"/>
<stop offset="1" stop-color="#33DDFF"/>
</linearGradient>
<linearGradient id="paint10_linear_566_1058" x1="83.25" y1="152.256" x2="219.91" y2="152.256" gradientUnits="userSpaceOnUse">
<stop stop-color="#004AFF"/>
<stop offset="0.31" stop-color="#117BFF"/>
<stop offset="0.78" stop-color="#29C1FF"/>
<stop offset="1" stop-color="#33DDFF"/>
</linearGradient>
<linearGradient id="paint11_linear_566_1058" x1="213.035" y1="152.252" x2="90.1241" y2="152.252" gradientUnits="userSpaceOnUse">
<stop stop-color="#004AFF"/>
<stop offset="0.31" stop-color="#117BFF"/>
<stop offset="0.78" stop-color="#29C1FF"/>
<stop offset="1" stop-color="#33DDFF"/>
</linearGradient>
<radialGradient id="paint12_radial_566_1058" cx="0" cy="0" r="1" gradientUnits="userSpaceOnUse" gradientTransform="translate(24.607 144.615) scale(16.4118 16.4118)">
<stop stop-color="#2FD5FF"/>
<stop offset="0.15" stop-color="#2DCFFF"/>
<stop offset="0.33" stop-color="#27C0FF"/>
<stop offset="0.53" stop-color="#1FA6FF"/>
<stop offset="0.74" stop-color="#1382FF"/>
<stop offset="0.97" stop-color="#0455FF"/>
<stop offset="1" stop-color="#024FFF"/>
</radialGradient>
<radialGradient id="paint13_radial_566_1058" cx="0" cy="0" r="1" gradientUnits="userSpaceOnUse" gradientTransform="translate(50.4977 197.669) scale(16.4118 16.4118)">
<stop stop-color="#2FD5FF"/>
<stop offset="0.15" stop-color="#2DCFFF"/>
<stop offset="0.33" stop-color="#27C0FF"/>
<stop offset="0.53" stop-color="#1FA6FF"/>
<stop offset="0.74" stop-color="#1382FF"/>
<stop offset="0.97" stop-color="#0455FF"/>
<stop offset="1" stop-color="#024FFF"/>
</radialGradient>
<radialGradient id="paint14_radial_566_1058" cx="0" cy="0" r="1" gradientUnits="userSpaceOnUse" gradientTransform="translate(143.966 280.458) rotate(-90) scale(16.4118)">
<stop stop-color="#2FD5FF"/>
<stop offset="0.15" stop-color="#2DCFFF"/>
<stop offset="0.33" stop-color="#27C0FF"/>
<stop offset="0.53" stop-color="#1FA6FF"/>
<stop offset="0.74" stop-color="#1382FF"/>
<stop offset="0.97" stop-color="#0455FF"/>
<stop offset="1" stop-color="#024FFF"/>
</radialGradient>
<radialGradient id="paint15_radial_566_1058" cx="0" cy="0" r="1" gradientUnits="userSpaceOnUse" gradientTransform="translate(199.333 253.294) rotate(-90) scale(16.4118)">
<stop stop-color="#2FD5FF"/>
<stop offset="0.15" stop-color="#2DCFFF"/>
<stop offset="0.33" stop-color="#27C0FF"/>
<stop offset="0.53" stop-color="#1FA6FF"/>
<stop offset="0.74" stop-color="#1382FF"/>
<stop offset="0.97" stop-color="#0455FF"/>
<stop offset="1" stop-color="#024FFF"/>
</radialGradient>
<radialGradient id="paint16_radial_566_1058" cx="0" cy="0" r="1" gradientUnits="userSpaceOnUse" gradientTransform="translate(86.3334 253.294) rotate(-90) scale(16.4118)">
<stop stop-color="#2FD5FF"/>
<stop offset="0.15" stop-color="#2DCFFF"/>
<stop offset="0.33" stop-color="#27C0FF"/>
<stop offset="0.53" stop-color="#1FA6FF"/>
<stop offset="0.74" stop-color="#1382FF"/>
<stop offset="0.97" stop-color="#0455FF"/>
<stop offset="1" stop-color="#024FFF"/>
</radialGradient>
<radialGradient id="paint17_radial_566_1058" cx="0" cy="0" r="1" gradientUnits="userSpaceOnUse" gradientTransform="translate(211.93 48.943) rotate(90) scale(16.4118 16.4118)">
<stop stop-color="#2FD5FF"/>
<stop offset="0.15" stop-color="#2DCFFF"/>
<stop offset="0.33" stop-color="#27C0FF"/>
<stop offset="0.53" stop-color="#1FA6FF"/>
<stop offset="0.74" stop-color="#1382FF"/>
<stop offset="0.97" stop-color="#0455FF"/>
<stop offset="1" stop-color="#024FFF"/>
</radialGradient>
<radialGradient id="paint18_radial_566_1058" cx="0" cy="0" r="1" gradientUnits="userSpaceOnUse" gradientTransform="translate(267.567 102.607) rotate(90) scale(16.4118 16.4118)">
<stop stop-color="#2FD5FF"/>
<stop offset="0.15" stop-color="#2DCFFF"/>
<stop offset="0.33" stop-color="#27C0FF"/>
<stop offset="0.53" stop-color="#1FA6FF"/>
<stop offset="0.74" stop-color="#1382FF"/>
<stop offset="0.97" stop-color="#0455FF"/>
<stop offset="1" stop-color="#024FFF"/>
</radialGradient>
<radialGradient id="paint19_radial_566_1058" cx="0" cy="0" r="1" gradientUnits="userSpaceOnUse" gradientTransform="translate(159.567 23.607) rotate(90) scale(16.4118 16.4118)">
<stop stop-color="#2FD5FF"/>
<stop offset="0.15" stop-color="#2DCFFF"/>
<stop offset="0.33" stop-color="#27C0FF"/>
<stop offset="0.53" stop-color="#1FA6FF"/>
<stop offset="0.74" stop-color="#1382FF"/>
<stop offset="0.97" stop-color="#0455FF"/>
<stop offset="1" stop-color="#024FFF"/>
</radialGradient>
<linearGradient id="paint20_linear_566_1058" x1="149.004" y1="67.2022" x2="129.696" y2="133.729" gradientUnits="userSpaceOnUse">
<stop stop-color="#9E2302"/>
<stop offset="0.19" stop-color="#A92C02"/>
<stop offset="1" stop-color="#D55403"/>
</linearGradient>
<linearGradient id="paint21_linear_566_1058" x1="96.7716" y1="38.9837" x2="50.0214" y2="60.9871" gradientUnits="userSpaceOnUse">
<stop stop-color="#9E2302"/>
<stop offset="0.19" stop-color="#A92C02"/>
<stop offset="1" stop-color="#D55403"/>
</linearGradient>
<linearGradient id="paint22_linear_566_1058" x1="73.0501" y1="95.4786" x2="65.99" y2="140.171" gradientUnits="userSpaceOnUse">
<stop stop-color="#9E2302"/>
<stop offset="0.19" stop-color="#A92C02"/>
<stop offset="1" stop-color="#D55403"/>
</linearGradient>
<linearGradient id="paint23_linear_566_1058" x1="94.6703" y1="157.307" x2="96.6633" y2="46.9673" gradientUnits="userSpaceOnUse">
<stop stop-color="#9E2302"/>
<stop offset="0.19" stop-color="#A92C02"/>
<stop offset="1" stop-color="#D55403"/>
</linearGradient>
<linearGradient id="paint24_linear_566_1058" x1="152.384" y1="65.2096" x2="131.744" y2="136.295" gradientUnits="userSpaceOnUse">
<stop stop-color="#E95C00"/>
<stop offset="0.61" stop-color="#F6A714"/>
<stop offset="1" stop-color="#FFD420"/>
</linearGradient>
<linearGradient id="paint25_linear_566_1058" x1="96.5756" y1="35.0386" x2="46.614" y2="58.5509" gradientUnits="userSpaceOnUse">
<stop stop-color="#E95C00"/>
<stop offset="0.61" stop-color="#F6A714"/>
<stop offset="1" stop-color="#FFD420"/>
</linearGradient>
<linearGradient id="paint26_linear_566_1058" x1="71.2125" y1="95.4096" x2="63.6763" y2="143.168" gradientUnits="userSpaceOnUse">
<stop stop-color="#E95C00"/>
<stop offset="0.61" stop-color="#F6A714"/>
<stop offset="1" stop-color="#FFD420"/>
</linearGradient>
<linearGradient id="paint27_linear_566_1058" x1="94.3131" y1="161.474" x2="96.4433" y2="43.566" gradientUnits="userSpaceOnUse">
<stop stop-color="#E95C00"/>
<stop offset="0.61" stop-color="#F6A714"/>
<stop offset="1" stop-color="#FFD420"/>
</linearGradient>
<linearGradient id="paint28_linear_566_1058" x1="130.43" y1="61.1869" x2="103.851" y2="61.1869" gradientUnits="userSpaceOnUse">
<stop stop-color="#004AFF"/>
<stop offset="0.31" stop-color="#117BFF"/>
<stop offset="0.78" stop-color="#29C1FF"/>
<stop offset="1" stop-color="#33DDFF"/>
</linearGradient>
<linearGradient id="paint29_linear_566_1058" x1="60.9786" y1="131.086" x2="60.9786" y2="104.508" gradientUnits="userSpaceOnUse">
<stop stop-color="#004AFF"/>
<stop offset="0.31" stop-color="#117BFF"/>
<stop offset="0.78" stop-color="#29C1FF"/>
<stop offset="1" stop-color="#33DDFF"/>
</linearGradient>
<radialGradient id="paint30_radial_566_1058" cx="0" cy="0" r="1" gradientUnits="userSpaceOnUse" gradientTransform="translate(50.4977 92.2084) scale(16.4118 16.4118)">
<stop stop-color="#2FD5FF"/>
<stop offset="0.15" stop-color="#2DCFFF"/>
<stop offset="0.33" stop-color="#27C0FF"/>
<stop offset="0.53" stop-color="#1FA6FF"/>
<stop offset="0.74" stop-color="#1382FF"/>
<stop offset="0.97" stop-color="#0455FF"/>
<stop offset="1" stop-color="#024FFF"/>
</radialGradient>
<radialGradient id="paint31_radial_566_1058" cx="0" cy="0" r="1" gradientUnits="userSpaceOnUse" gradientTransform="translate(100.607 35.3334) scale(16.4118 16.4118)">
<stop stop-color="#2FD5FF"/>
<stop offset="0.15" stop-color="#2DCFFF"/>
<stop offset="0.33" stop-color="#27C0FF"/>
<stop offset="0.53" stop-color="#1FA6FF"/>
<stop offset="0.74" stop-color="#1382FF"/>
<stop offset="0.97" stop-color="#0455FF"/>
<stop offset="1" stop-color="#024FFF"/>
</radialGradient>
<linearGradient id="paint32_linear_566_1058" x1="136.496" y1="98.7128" x2="90.6091" y2="140.557" gradientUnits="userSpaceOnUse">
<stop stop-color="#004AFF"/>
<stop offset="0.31" stop-color="#117BFF"/>
<stop offset="0.78" stop-color="#29C1FF"/>
<stop offset="1" stop-color="#33DDFF"/>
</linearGradient>
<linearGradient id="paint33_linear_566_1058" x1="185.096" y1="149.132" x2="185.096" y2="160.115" gradientUnits="userSpaceOnUse">
<stop stop-color="#004AFF"/>
<stop offset="0.31" stop-color="#117BFF"/>
<stop offset="0.78" stop-color="#29C1FF"/>
<stop offset="1" stop-color="#33DDFF"/>
</linearGradient>
<linearGradient id="paint34_linear_566_1058" x1="185.096" y1="175.304" x2="185.096" y2="186.3" gradientUnits="userSpaceOnUse">
<stop stop-color="#004AFF"/>
<stop offset="0.31" stop-color="#117BFF"/>
<stop offset="0.78" stop-color="#29C1FF"/>
<stop offset="1" stop-color="#33DDFF"/>
</linearGradient>
<linearGradient id="paint35_linear_566_1058" x1="193.833" y1="114.848" x2="284.044" y2="188.296" gradientUnits="userSpaceOnUse">
<stop stop-color="#1B3E64"/>
<stop offset="0.69" stop-color="#212C42"/>
<stop offset="0.82" stop-color="#202D44"/>
<stop offset="0.89" stop-color="#1F314C"/>
<stop offset="0.95" stop-color="#1C3859"/>
<stop offset="0.98" stop-color="#1B3E64"/>
</linearGradient>
<linearGradient id="paint36_linear_566_1058" x1="190.397" y1="117.765" x2="260.025" y2="214.626" gradientUnits="userSpaceOnUse">
<stop stop-color="#1C2538"/>
<stop offset="0.17" stop-color="#4D5565"/>
<stop offset="0.53" stop-color="#ADB2BC"/>
<stop offset="0.69" stop-color="#D4D8DF"/>
<stop offset="0.78" stop-color="#D1D5DC"/>
<stop offset="0.83" stop-color="#C9CED5"/>
<stop offset="0.86" stop-color="#BCC1C9"/>
<stop offset="0.89" stop-color="#A9AEB8"/>
<stop offset="0.92" stop-color="#9196A2"/>
<stop offset="0.95" stop-color="#727986"/>
<stop offset="0.97" stop-color="#4E5666"/>
<stop offset="1" stop-color="#1C2538"/>
</linearGradient>
<linearGradient id="paint37_linear_566_1058" x1="169.603" y1="138.419" x2="238.284" y2="233.973" gradientUnits="userSpaceOnUse">
<stop stop-color="#1B3E64"/>
<stop offset="0.69" stop-color="#212C42"/>
<stop offset="0.78" stop-color="#202D44"/>
<stop offset="0.83" stop-color="#20314C"/>
<stop offset="0.87" stop-color="#1F3859"/>
<stop offset="0.91" stop-color="#1E426C"/>
<stop offset="0.94" stop-color="#1D4F84"/>
<stop offset="0.96" stop-color="#1B5FA2"/>
<stop offset="0.98" stop-color="#1B69B5"/>
</linearGradient>
<linearGradient id="paint38_linear_566_1058" x1="249.426" y1="210.149" x2="203.539" y2="112.679" gradientUnits="userSpaceOnUse">
<stop stop-color="#1C3E64"/>
<stop offset="0.12" stop-color="#214267"/>
<stop offset="0.27" stop-color="#2F4E71"/>
<stop offset="0.44" stop-color="#486381"/>
<stop offset="0.61" stop-color="#6A7F98"/>
<stop offset="0.79" stop-color="#96A4B5"/>
<stop offset="0.97" stop-color="#CAD0D8"/>
<stop offset="1" stop-color="#D4D8DF"/>
</linearGradient>
<linearGradient id="paint39_linear_566_1058" x1="175.561" y1="209.873" x2="188.854" y2="221.148" gradientUnits="userSpaceOnUse">
<stop stop-color="#1B3E64"/>
<stop offset="0.18" stop-color="#4D6885"/>
<stop offset="0.53" stop-color="#ADB8C5"/>
<stop offset="0.69" stop-color="#D4D8DF"/>
<stop offset="0.77" stop-color="#D1D6DD"/>
<stop offset="0.82" stop-color="#C9CFD8"/>
<stop offset="0.85" stop-color="#BCC4CF"/>
<stop offset="0.88" stop-color="#A9B4C2"/>
<stop offset="0.91" stop-color="#91A0B2"/>
<stop offset="0.93" stop-color="#72879E"/>
<stop offset="0.95" stop-color="#4E6986"/>
<stop offset="0.97" stop-color="#26476B"/>
<stop offset="0.98" stop-color="#1B3E64"/>
</linearGradient>
<linearGradient id="paint40_linear_566_1058" x1="159.919" y1="235.753" x2="173.932" y2="247.169" gradientUnits="userSpaceOnUse">
<stop stop-color="#1B3E64"/>
<stop offset="0.07" stop-color="#1E4166"/>
<stop offset="0.15" stop-color="#2A4A6E"/>
<stop offset="0.22" stop-color="#3D5B7B"/>
<stop offset="0.29" stop-color="#59718D"/>
<stop offset="0.36" stop-color="#7C8FA4"/>
<stop offset="0.43" stop-color="#A6B2C1"/>
<stop offset="0.49" stop-color="#D4D8DF"/>
<stop offset="0.54" stop-color="#B7C0CC"/>
<stop offset="0.65" stop-color="#8092A7"/>
<stop offset="0.76" stop-color="#546D8A"/>
<stop offset="0.85" stop-color="#355375"/>
<stop offset="0.92" stop-color="#214368"/>
<stop offset="0.98" stop-color="#1B3E64"/>
</linearGradient>
<linearGradient id="paint41_linear_566_1058" x1="135.01" y1="262.519" x2="152.761" y2="262.519" gradientUnits="userSpaceOnUse">
<stop stop-color="#1C3E64"/>
<stop offset="0.12" stop-color="#214267"/>
<stop offset="0.27" stop-color="#2F4E71"/>
<stop offset="0.44" stop-color="#486381"/>
<stop offset="0.61" stop-color="#6A7F98"/>
<stop offset="0.79" stop-color="#96A4B5"/>
<stop offset="0.97" stop-color="#CAD0D8"/>
<stop offset="1" stop-color="#D4D8DF"/>
</linearGradient>
<linearGradient id="paint42_linear_566_1058" x1="247.059" y1="149.132" x2="247.059" y2="160.115" gradientUnits="userSpaceOnUse">
<stop stop-color="#004AFF"/>
<stop offset="0.31" stop-color="#117BFF"/>
<stop offset="0.78" stop-color="#29C1FF"/>
<stop offset="1" stop-color="#33DDFF"/>
</linearGradient>
<linearGradient id="paint43_linear_566_1058" x1="242.174" y1="173.414" x2="242.174" y2="199.993" gradientUnits="userSpaceOnUse">
<stop stop-color="#004AFF"/>
<stop offset="0.31" stop-color="#117BFF"/>
<stop offset="0.78" stop-color="#29C1FF"/>
<stop offset="1" stop-color="#33DDFF"/>
</linearGradient>
<radialGradient id="paint44_radial_566_1058" cx="0" cy="0" r="1" gradientUnits="userSpaceOnUse" gradientTransform="translate(252.493 210.911) rotate(180) scale(16.4118)">
<stop stop-color="#2FD5FF"/>
<stop offset="0.15" stop-color="#2DCFFF"/>
<stop offset="0.33" stop-color="#27C0FF"/>
<stop offset="0.53" stop-color="#1FA6FF"/>
<stop offset="0.74" stop-color="#1382FF"/>
<stop offset="0.97" stop-color="#0455FF"/>
<stop offset="1" stop-color="#024FFF"/>
</radialGradient>
<radialGradient id="paint45_radial_566_1058" cx="0" cy="0" r="1" gradientUnits="userSpaceOnUse" gradientTransform="translate(277.294 159.567) rotate(180) scale(16.4118)">
<stop stop-color="#2FD5FF"/>
<stop offset="0.15" stop-color="#2DCFFF"/>
<stop offset="0.33" stop-color="#27C0FF"/>
<stop offset="0.53" stop-color="#1FA6FF"/>
<stop offset="0.74" stop-color="#1382FF"/>
<stop offset="0.97" stop-color="#0455FF"/>
<stop offset="1" stop-color="#024FFF"/>
</radialGradient>
<clipPath id="clip0_566_1058">
<rect width="293" height="296.631" fill="white" transform="translate(5 3.4375)"/>
</clipPath>
</defs>
</svg>
