<?xml version="1.0" encoding="UTF-8" standalone="no"?>
<!-- Created with Inkscape (http://www.inkscape.org/) -->
<svg xmlns:dc="http://purl.org/dc/elements/1.1/" xmlns:cc="http://creativecommons.org/ns#" xmlns:rdf="http://www.w3.org/1999/02/22-rdf-syntax-ns#" xmlns:svg="http://www.w3.org/2000/svg" xmlns="http://www.w3.org/2000/svg" xmlns:xlink="http://www.w3.org/1999/xlink" xmlns:sodipodi="http://sodipodi.sourceforge.net/DTD/sodipodi-0.dtd" xmlns:inkscape="http://www.inkscape.org/namespaces/inkscape" width="255" height="255" viewBox="0 0 67.468749 67.468749" version="1.1" id="svg8" inkscape:version="0.92.5 (2060ec1f9f, 2020-04-08)" sodipodi:docname="DropBox.svg">
 <defs id="defs2">
  <linearGradient id="linearGradient937">
   <stop stop-opacity="0.8" stop-color="#47250a" id="stop933"/>
   <stop stop-opacity="0.519" stop-color="#916642" offset="1" id="stop935"/>
  </linearGradient>
  <linearGradient inkscape:collect="always" id="linearGradient1865">
   <stop id="stop1861" stop-color="#d58729" stop-opacity="1"/>
   <stop offset="1" id="stop1863" stop-color="#452600" stop-opacity="1"/>
  </linearGradient>
  <linearGradient id="linearGradient1859">
   <stop id="stop1855" stop-color="#5c3210" stop-opacity="0.8"/>
   <stop offset="1" id="stop1857" stop-color="#c99971" stop-opacity="0.682"/>
  </linearGradient>
  <pattern inkscape:collect="always" xlink:href="#pattern1029" id="pattern1853" patternTransform="matrix(0.16751172,0.11098578,-0.04229443,0.06383532,-13.503942,237.63758)"/>
  <linearGradient id="linearGradient1849">
   <stop id="stop1845" stop-color="#3b1900" stop-opacity="0.735"/>
   <stop offset="1" id="stop1847" stop-color="#ffffff" stop-opacity="0.481"/>
  </linearGradient>
  <linearGradient id="linearGradient1843">
   <stop id="stop1839" stop-color="#8d430b" stop-opacity="0.45"/>
   <stop offset="1" id="stop1841" stop-color="#ffffff" stop-opacity="0.481"/>
  </linearGradient>
  <linearGradient inkscape:collect="always" id="linearGradient1835">
   <stop id="stop1831" stop-color="#ffffff" stop-opacity="0.661"/>
   <stop offset="1" id="stop1833" stop-color="#ffffff" stop-opacity="0.201"/>
  </linearGradient>
  <pattern inkscape:collect="always" xlink:href="#pattern1029" id="pattern1827" patternTransform="matrix(0.10084003,0,0,0.10084003,-5.6957607,232.78588)"/>
  <pattern inkscape:collect="always" xlink:href="#pattern1029" id="pattern1789" patternTransform="matrix(0.21672764,-0.04700975,0.01972176,0.09092266,-13.503942,237.63758)"/>
  <pattern inkscape:collect="always" xlink:href="#pattern1029" id="pattern1781" patternTransform="matrix(0.1134443,0.12692415,-0.07140565,0.06382209,-13.503942,237.63758)"/>
  <pattern inkscape:collect="always" xlink:href="#pattern1029" id="pattern1777" patternTransform="matrix(0.13119434,-0.02657009,0.0310458,0.15329388,-13.503942,237.63758)"/>
  <linearGradient id="linearGradient1769">
   <stop id="stop1765" stop-color="#8d430b" stop-opacity="1"/>
   <stop id="stop1767" offset="1" stop-color="#ffffff" stop-opacity="0.481"/>
  </linearGradient>
  <pattern inkscape:collect="always" xlink:href="#pattern1029" id="pattern1763" patternTransform="matrix(0.06205503,0.07752649,-0.06745841,0.05399617,-13.503942,237.63758)"/>
  <linearGradient id="linearGradient1759">
   <stop id="stop1755" stop-color="#773e0f" stop-opacity="0.799"/>
   <stop id="stop1757" offset="1" stop-color="#ffffff" stop-opacity="0.487"/>
  </linearGradient>
  <pattern inkscape:collect="always" xlink:href="#pattern1029" id="pattern1753" patternTransform="matrix(0.12605679,-0.0235886,0.01999166,0.10683481,-13.503942,237.63758)"/>
  <clipPath clipPathUnits="userSpaceOnUse" id="clipPath2059">
   <path d="m -10.099732,231.68531 c 3.5587363,2.50616 4.8319716,-0.58528 2.9651647,-3.064 -3.1818907,-4.22486 -6.4443207,-9.83985 -12.3548527,-15.91305 -2.594516,-2.66865 -11.860659,-7.80827 -11.860659,-7.80827 0,0 -0.115438,-2.18844 -0.09884,-3.064 0.01106,-0.582 -0.565687,-0.56369 -0.889553,-0.29652 -0.782426,0.64546 -2.47097,2.56981 -2.47097,2.56981 l -1.68026,-0.0988 -1.087226,-1.58142 c -0.296516,-0.41055 -0.636056,-0.34641 -0.88955,0 -0.545383,1.84962 -0.878698,3.8848 -3.459359,3.95355 l 4.447747,3.95356 c 7.76561,1.55335 15.578734,5.58545 20.261957,14.33163 0,0 4.526451,5.19364 7.116396,7.01755 z" id="path2061" sodipodi:nodetypes="csscsscccccccs" inkscape:connector-curvature="0" stroke-dasharray="none" stroke-opacity="1" fill="#ffffff" fill-rule="evenodd" stroke="none" stroke-linejoin="miter" fill-opacity="1" stroke-linecap="butt" stroke-width="0.048" stroke-miterlimit="4"/>
  </clipPath>
  <clipPath id="clipPath2059-5" clipPathUnits="userSpaceOnUse">
   <path stroke-miterlimit="4" stroke-width="0.048" stroke-linecap="butt" fill-opacity="1" stroke-linejoin="miter" stroke="none" fill-rule="evenodd" fill="#ffffff" stroke-opacity="1" stroke-dasharray="none" inkscape:connector-curvature="0" sodipodi:nodetypes="csscsscccccccs" id="path2061-3" d="m -10.099732,231.68531 c 3.5587363,2.50616 4.8319716,-0.58528 2.9651647,-3.064 -3.1818907,-4.22486 -6.4443207,-9.83985 -12.3548527,-15.91305 -2.594516,-2.66865 -11.860659,-7.80827 -11.860659,-7.80827 0,0 -0.115438,-2.18844 -0.09884,-3.064 0.01106,-0.582 -0.565687,-0.56369 -0.889553,-0.29652 -0.782426,0.64546 -2.47097,2.56981 -2.47097,2.56981 l -1.68026,-0.0988 -1.087226,-1.58142 c -0.296516,-0.41055 -0.636056,-0.34641 -0.88955,0 -0.545383,1.84962 -0.878698,3.8848 -3.459359,3.95355 l 4.447747,3.95356 c 7.76561,1.55335 15.578734,5.58545 20.261957,14.33163 0,0 4.526451,5.19364 7.116396,7.01755 z"/>
  </clipPath>
  <clipPath id="clipPath">
   <path fill-opacity="0.95" stroke="none" fill="#1b1b1b" sodipodi:nodetypes="csssscc" inkscape:connector-curvature="0" id="rect5264" d="m -515.73002,435.56445 v 5.83767 c 0,9.74315 -7.84377,17.58692 -17.58692,17.58692 h -135.05122 c -9.74315,0 -17.58692,-7.84377 -17.58692,-17.58692 v -5.83767 z"/>
  </clipPath>
  <clipPath clipPathUnits="userSpaceOnUse" id="clipPath2059-7">
   <path d="m -10.099732,231.68531 c 3.5587363,2.50616 4.8319716,-0.58528 2.9651647,-3.064 -3.1818907,-4.22486 -6.4443207,-9.83985 -12.3548527,-15.91305 -2.594516,-2.66865 -11.860659,-7.80827 -11.860659,-7.80827 0,0 -0.115438,-2.18844 -0.09884,-3.064 0.01106,-0.582 -0.565687,-0.56369 -0.889553,-0.29652 -0.782426,0.64546 -2.47097,2.56981 -2.47097,2.56981 l -1.68026,-0.0988 -1.087226,-1.58142 c -0.296516,-0.41055 -0.636056,-0.34641 -0.88955,0 -0.545383,1.84962 -0.878698,3.8848 -3.459359,3.95355 l 4.447747,3.95356 c 7.76561,1.55335 15.578734,5.58545 20.261957,14.33163 0,0 4.526451,5.19364 7.116396,7.01755 z" id="path2061-5" sodipodi:nodetypes="csscsscccccccs" inkscape:connector-curvature="0" stroke-dasharray="none" stroke-opacity="1" fill="#ffffff" fill-rule="evenodd" stroke="none" stroke-linejoin="miter" fill-opacity="1" stroke-linecap="butt" stroke-width="0.048" stroke-miterlimit="4"/>
  </clipPath>
  <clipPath clipPathUnits="userSpaceOnUse" id="clipPath1162">
   <path stroke-miterlimit="4" stroke-width="0.071" stroke-linecap="round" fill-opacity="0.347" stroke-linejoin="round" stroke="none" fill="#000000" stroke-opacity="1" stroke-dasharray="none" inkscape:connector-curvature="0" d="m -65.649736,239.84563 c -9.358079,0 -16.951888,7.59381 -16.951888,16.95188 0,9.35808 7.593811,16.94076 16.951888,16.94077 0.292439,0 0.578792,-0.008 0.867614,-0.0222 2.122786,-0.10753 4.148336,-0.60587 5.995453,-1.42378 l 2.669587,3.97101 c -0.225515,0.4951 -0.245107,0.96445 -0.01111,1.31255 l 15.67271,23.32553 c 0.495366,0.73695 1.94415,0.6317 3.247998,-0.24471 1.303846,-0.87642 1.96364,-2.17735 1.468276,-2.9143 L -51.42304,274.4168 c -0.233058,-0.34672 -0.682887,-0.49868 -1.22356,-0.47831 l -2.558357,-3.80416 c 3.95991,-3.10036 6.507123,-7.91951 6.507123,-13.33682 0,-9.35807 -7.593809,-16.95188 -16.951889,-16.95188 z m 0,2.5806 c 7.92884,0 14.371283,6.44244 14.371283,14.37128 0,7.92885 -6.442435,14.36016 -14.371283,14.36016 -7.928851,0 -14.349039,-6.43131 -14.349039,-14.36016 0,-0.24777 -0.0013,-0.48941 0.01111,-0.73413 0.384376,-7.58638 6.656848,-13.63715 14.337916,-13.63715 z" id="path1164"/>
  </clipPath>
  <linearGradient inkscape:collect="always" xlink:href="#linearGradient2987" id="linearGradient3459" gradientUnits="userSpaceOnUse" gradientTransform="matrix(1.2918723,0,0,1.2918723,2.9430358,232.58341)" spreadMethod="reflect" x1="46.47" y1="35.406" x2="13.168" y2="37.499"/>
  <linearGradient inkscape:collect="always" xlink:href="#linearGradient1843" id="linearGradient3450" gradientUnits="userSpaceOnUse" gradientTransform="matrix(1.2918723,0,0,1.2918723,2.9430358,232.58341)" spreadMethod="reflect" x1="40.13" y1="34.17" x2="35.667" y2="31.922"/>
  <linearGradient inkscape:collect="always" xlink:href="#linearGradient2987" id="linearGradient3447" gradientUnits="userSpaceOnUse" gradientTransform="matrix(1.2918723,0,0,1.2918723,2.9430358,232.58341)" spreadMethod="reflect" x1="36.06" y1="36.718" x2="13.168" y2="37.499"/>
  <linearGradient inkscape:collect="always" xlink:href="#linearGradient1859" id="linearGradient3410" gradientUnits="userSpaceOnUse" gradientTransform="matrix(1.2918723,0,0,1.2918723,3.7959686,233.72066)" spreadMethod="reflect" x1="43.982" y1="37.747" x2="42.43" y2="28.356"/>
  <linearGradient inkscape:collect="always" xlink:href="#linearGradient1769" id="linearGradient3405" gradientUnits="userSpaceOnUse" spreadMethod="reflect" x1="17.308" y1="29.03" x2="57.4" y2="41.02" gradientTransform="matrix(1.2918723,0,0,1.2918723,-13.925096,223.86652)"/>
  <linearGradient inkscape:collect="always" xlink:href="#linearGradient2987" id="linearGradient3402" gradientUnits="userSpaceOnUse" gradientTransform="matrix(1.2918723,0,0,1.2918723,-12.325332,223.48562)" spreadMethod="reflect" x1="26.662" y1="41.681" x2="9.207" y2="21.764"/>
  <linearGradient inkscape:collect="always" xlink:href="#linearGradient2987" id="linearGradient3399" gradientUnits="userSpaceOnUse" spreadMethod="reflect" x1="63.52" y1="47.18" x2="44.2" y2="22.09" gradientTransform="matrix(1.2918723,0,0,1.2918723,-13.925096,223.86652)"/>
  <linearGradient inkscape:collect="always" xlink:href="#linearGradient1759" id="linearGradient3396" gradientUnits="userSpaceOnUse" gradientTransform="matrix(1.2918723,0,0,1.2918723,-15.519486,224.24167)" spreadMethod="reflect" x1="41.42" y1="22.801" x2="53.615" y2="44.592"/>
  <linearGradient inkscape:collect="always" xlink:href="#linearGradient1849" id="linearGradient3393" gradientUnits="userSpaceOnUse" gradientTransform="matrix(1.2918723,0,0,1.2918723,-15.519486,224.24167)" spreadMethod="reflect" x1="29.971" y1="50.02" x2="11.393" y2="17.931"/>
  <linearGradient inkscape:collect="always" xlink:href="#linearGradient1843" id="linearGradient3390" gradientUnits="userSpaceOnUse" spreadMethod="reflect" x1="26.662" y1="41.681" x2="9.207" y2="21.764" gradientTransform="matrix(1.2918723,0,0,1.2918723,-13.925096,223.86652)"/>
  <linearGradient inkscape:collect="always" xlink:href="#linearGradient937" id="linearGradient3374" gradientUnits="userSpaceOnUse" gradientTransform="matrix(1.2918723,0,0,1.2918723,1.5133672,233.45692)" spreadMethod="reflect" x1="1.243" y1="14.611" x2="33.525" y2="19.893"/>
  <linearGradient inkscape:collect="always" xlink:href="#linearGradient2987" id="linearGradient3131" gradientUnits="userSpaceOnUse" spreadMethod="reflect" x1="1.243" y1="14.611" x2="33.525" y2="19.893" gradientTransform="matrix(1.2918723,0,0,1.2918723,2.7070882,232.39584)"/>
  <linearGradient id="linearGradient2987">
   <stop id="stop2989" stop-color="#000000" stop-opacity="1"/>
   <stop offset="1" id="stop2991" stop-color="#909090" stop-opacity="1"/>
  </linearGradient>
  <linearGradient inkscape:collect="always" xlink:href="#linearGradient2987" id="linearGradient1291" gradientUnits="userSpaceOnUse" gradientTransform="matrix(1.2918723,0,0,1.2918723,2.9430358,232.58341)" x1="46.47" y1="35.406" x2="13.168" y2="37.499" spreadMethod="reflect"/>
  <linearGradient inkscape:collect="always" xlink:href="#linearGradient2987" id="linearGradient1293" gradientUnits="userSpaceOnUse" gradientTransform="matrix(1.2918723,0,0,1.2918723,2.9430358,232.58341)" x1="46.47" y1="35.406" x2="13.168" y2="37.499" spreadMethod="reflect"/>
  <linearGradient inkscape:collect="always" xlink:href="#linearGradient2987" id="linearGradient1295" gradientUnits="userSpaceOnUse" gradientTransform="matrix(1.2918723,0,0,1.2918723,2.9430358,232.58341)" x1="46.47" y1="35.406" x2="13.168" y2="37.499" spreadMethod="reflect"/>
  <linearGradient inkscape:collect="always" id="linearGradient849">
   <stop id="stop845" stop-color="#a96b07" stop-opacity="1"/>
   <stop offset="1" id="stop847" stop-color="#80530f" stop-opacity="1"/>
  </linearGradient>
  <linearGradient id="linearGradient831" inkscape:collect="always">
   <stop id="stop827" stop-color="#a96b07" stop-opacity="1"/>
   <stop id="stop829" offset="1" stop-color="#e79619" stop-opacity="1"/>
  </linearGradient>
  <clipPath id="clipPath2059-75" clipPathUnits="userSpaceOnUse">
   <path stroke-miterlimit="4" stroke-width="0.048" stroke-linecap="butt" fill-opacity="1" stroke-linejoin="miter" stroke="none" fill-rule="evenodd" fill="#ffffff" stroke-opacity="1" stroke-dasharray="none" inkscape:connector-curvature="0" sodipodi:nodetypes="csscsscccccccs" id="path2061-35" d="m -10.099732,231.68531 c 3.5587363,2.50616 4.8319716,-0.58528 2.9651647,-3.064 -3.1818907,-4.22486 -6.4443207,-9.83985 -12.3548527,-15.91305 -2.594516,-2.66865 -11.860659,-7.80827 -11.860659,-7.80827 0,0 -0.115438,-2.18844 -0.09884,-3.064 0.01106,-0.582 -0.565687,-0.56369 -0.889553,-0.29652 -0.782426,0.64546 -2.47097,2.56981 -2.47097,2.56981 l -1.68026,-0.0988 -1.087226,-1.58142 c -0.296516,-0.41055 -0.636056,-0.34641 -0.88955,0 -0.545383,1.84962 -0.878698,3.8848 -3.459359,3.95355 l 4.447747,3.95356 c 7.76561,1.55335 15.578734,5.58545 20.261957,14.33163 0,0 4.526451,5.19364 7.116396,7.01755 z"/>
  </clipPath>
  <clipPath clipPathUnits="userSpaceOnUse" id="clipPath2059-5-6">
   <path d="m -10.099732,231.68531 c 3.5587363,2.50616 4.8319716,-0.58528 2.9651647,-3.064 -3.1818907,-4.22486 -6.4443207,-9.83985 -12.3548527,-15.91305 -2.594516,-2.66865 -11.860659,-7.80827 -11.860659,-7.80827 0,0 -0.115438,-2.18844 -0.09884,-3.064 0.01106,-0.582 -0.565687,-0.56369 -0.889553,-0.29652 -0.782426,0.64546 -2.47097,2.56981 -2.47097,2.56981 l -1.68026,-0.0988 -1.087226,-1.58142 c -0.296516,-0.41055 -0.636056,-0.34641 -0.88955,0 -0.545383,1.84962 -0.878698,3.8848 -3.459359,3.95355 l 4.447747,3.95356 c 7.76561,1.55335 15.578734,5.58545 20.261957,14.33163 0,0 4.526451,5.19364 7.116396,7.01755 z" id="path2061-3-2" sodipodi:nodetypes="csscsscccccccs" inkscape:connector-curvature="0" stroke-dasharray="none" stroke-opacity="1" fill="#ffffff" fill-rule="evenodd" stroke="none" stroke-linejoin="miter" fill-opacity="1" stroke-linecap="butt" stroke-width="0.048" stroke-miterlimit="4"/>
  </clipPath>
  <clipPath id="clipPath-9">
   <path d="m -515.73002,435.56445 v 5.83767 c 0,9.74315 -7.84377,17.58692 -17.58692,17.58692 h -135.05122 c -9.74315,0 -17.58692,-7.84377 -17.58692,-17.58692 v -5.83767 z" id="rect5264-1" inkscape:connector-curvature="0" sodipodi:nodetypes="csssscc" fill="#1b1b1b" stroke="none" fill-opacity="0.95"/>
  </clipPath>
  <clipPath id="clipPath2059-7-2" clipPathUnits="userSpaceOnUse">
   <path stroke-miterlimit="4" stroke-width="0.048" stroke-linecap="butt" fill-opacity="1" stroke-linejoin="miter" stroke="none" fill-rule="evenodd" fill="#ffffff" stroke-opacity="1" stroke-dasharray="none" inkscape:connector-curvature="0" sodipodi:nodetypes="csscsscccccccs" id="path2061-5-7" d="m -10.099732,231.68531 c 3.5587363,2.50616 4.8319716,-0.58528 2.9651647,-3.064 -3.1818907,-4.22486 -6.4443207,-9.83985 -12.3548527,-15.91305 -2.594516,-2.66865 -11.860659,-7.80827 -11.860659,-7.80827 0,0 -0.115438,-2.18844 -0.09884,-3.064 0.01106,-0.582 -0.565687,-0.56369 -0.889553,-0.29652 -0.782426,0.64546 -2.47097,2.56981 -2.47097,2.56981 l -1.68026,-0.0988 -1.087226,-1.58142 c -0.296516,-0.41055 -0.636056,-0.34641 -0.88955,0 -0.545383,1.84962 -0.878698,3.8848 -3.459359,3.95355 l 4.447747,3.95356 c 7.76561,1.55335 15.578734,5.58545 20.261957,14.33163 0,0 4.526451,5.19364 7.116396,7.01755 z"/>
  </clipPath>
  <clipPath id="clipPath1162-0" clipPathUnits="userSpaceOnUse">
   <path id="path1164-9" d="m -65.649736,239.84563 c -9.358079,0 -16.951888,7.59381 -16.951888,16.95188 0,9.35808 7.593811,16.94076 16.951888,16.94077 0.292439,0 0.578792,-0.008 0.867614,-0.0222 2.122786,-0.10753 4.148336,-0.60587 5.995453,-1.42378 l 2.669587,3.97101 c -0.225515,0.4951 -0.245107,0.96445 -0.01111,1.31255 l 15.67271,23.32553 c 0.495366,0.73695 1.94415,0.6317 3.247998,-0.24471 1.303846,-0.87642 1.96364,-2.17735 1.468276,-2.9143 L -51.42304,274.4168 c -0.233058,-0.34672 -0.682887,-0.49868 -1.22356,-0.47831 l -2.558357,-3.80416 c 3.95991,-3.10036 6.507123,-7.91951 6.507123,-13.33682 0,-9.35807 -7.593809,-16.95188 -16.951889,-16.95188 z m 0,2.5806 c 7.92884,0 14.371283,6.44244 14.371283,14.37128 0,7.92885 -6.442435,14.36016 -14.371283,14.36016 -7.928851,0 -14.349039,-6.43131 -14.349039,-14.36016 0,-0.24777 -0.0013,-0.48941 0.01111,-0.73413 0.384376,-7.58638 6.656848,-13.63715 14.337916,-13.63715 z" inkscape:connector-curvature="0" stroke-dasharray="none" stroke-opacity="1" fill="#000000" stroke="none" stroke-linejoin="round" fill-opacity="0.347" stroke-linecap="round" stroke-width="0.071" stroke-miterlimit="4"/>
  </clipPath>
  <linearGradient spreadMethod="reflect" gradientUnits="userSpaceOnUse" y2="244.09" x2="11.75" y1="248.86" x1="11.75" id="linearGradient833" xlink:href="#linearGradient831" inkscape:collect="always"/>
  <linearGradient gradientTransform="matrix(1,0,0,0.44696972,0,142.06708)" spreadMethod="reflect" y2="244.09" x2="11.75" y1="248.86" x1="11.75" gradientUnits="userSpaceOnUse" id="linearGradient837" xlink:href="#linearGradient849" inkscape:collect="always"/>
  <linearGradient inkscape:collect="always" xlink:href="#linearGradient831" id="linearGradient1025" gradientUnits="userSpaceOnUse" x1="11.75" y1="248.86" x2="11.75" y2="244.09" spreadMethod="reflect"/>
  <linearGradient inkscape:collect="always" xlink:href="#linearGradient849" id="linearGradient1027" gradientUnits="userSpaceOnUse" gradientTransform="matrix(1,0,0,0.44696972,0,142.06708)" x1="11.75" y1="248.86" x2="11.75" y2="244.09" spreadMethod="reflect"/>
  <pattern patternUnits="userSpaceOnUse" width="48.15" height="25.15" patternTransform="matrix(0.26458333,0,0,0.26458333,-13.503942,237.63758)" id="pattern1029">
   <g transform="matrix(2.3180313,0,0,1.7462823,-0.52717305,-417.24167)" id="g1023" inkscape:label="Layer 1">
    <g id="g1021">
     <rect id="rect1017" width="20.771" height="10.01" x="0.227" y="238.93" rx="0.265" ry="0.063" opacity="1" stroke-dasharray="none" stroke-opacity="1" paint-order="normal" fill="url(#linearGradient1025)" fill-rule="evenodd" stroke="none" stroke-linejoin="round" fill-opacity="1" stroke-linecap="round" stroke-width="0.217" stroke-dashoffset="0" stroke-miterlimit="4"/>
     <rect ry="0.028" rx="0.265" y="248.86" x="0.227" height="4.473" width="20.771" id="rect1019" opacity="1" stroke-dasharray="none" stroke-opacity="1" paint-order="normal" fill="url(#linearGradient1027)" fill-rule="evenodd" stroke="none" stroke-linejoin="round" fill-opacity="1" stroke-linecap="round" stroke-width="0.145" stroke-dashoffset="0" stroke-miterlimit="4"/>
    </g>
   </g>
  </pattern>
  <filter inkscape:collect="always" id="filter1823" x="-0.009" width="1.018" y="-0.018" height="1.036" color-interpolation-filters="sRGB">
   <feGaussianBlur inkscape:collect="always" stdDeviation="0.25002" id="feGaussianBlur1825"/>
  </filter>
  <linearGradient inkscape:collect="always" xlink:href="#linearGradient1835" id="linearGradient1837" x1="13.348" y1="248.03" x2="40.679" y2="270.09" gradientUnits="userSpaceOnUse"/>
  <linearGradient inkscape:collect="always" xlink:href="#linearGradient1865" id="linearGradient1867" x1="43.767" y1="273.78" x2="44.559" y2="287.5" gradientUnits="userSpaceOnUse"/>
 </defs>
 <sodipodi:namedview id="base" pagecolor="#ff0000" bordercolor="#666666" borderopacity="1.0" inkscape:pageopacity="0" inkscape:pageshadow="2" inkscape:zoom="3.4901961" inkscape:cx="127.5" inkscape:cy="127.5" inkscape:document-units="px" inkscape:current-layer="layer1" showgrid="false" inkscape:snap-to-guides="false" inkscape:snap-grids="false" inkscape:snap-others="false" inkscape:object-nodes="false" inkscape:snap-nodes="false" inkscape:snap-global="false" inkscape:window-width="1920" inkscape:window-height="1056" inkscape:window-x="0" inkscape:window-y="0" inkscape:window-maximized="1" units="px" showguides="false"/>
 <metadata id="metadata5">
  <rdf:RDF>
   <cc:Work>
    <dc:format>image/svg+xml</dc:format>
    <dc:type rdf:resource="http://purl.org/dc/dcmitype/StillImage"/>
    <dc:title/>
   </cc:Work>
  </rdf:RDF>
 </metadata>
 <g inkscape:label="Layer 1" inkscape:groupmode="layer" id="layer1" transform="translate(0,-229.53126)">
  <g id="g1817" transform="translate(78.915694,2.1226123)" filter="url(#filter1823)">
   <path sodipodi:nodetypes="ccccc" d="m -78.532228,262.0657 43.524376,-5.50304 23.500314,24.74079 -44.563809,8.24336 z" id="path1783" inkscape:connector-curvature="0" fill="#000000" stroke="none" fill-opacity="0.259" stroke-width="1.292"/>
   <path inkscape:connector-curvature="0" id="path1791" d="m -78.228516,262.18945 c 7.40625,9.0612 14.8125,18.1224 22.21875,27.1836 14.728516,-2.72461 29.457032,-5.44922 44.185547,-8.17383 -7.747396,-8.15625 -15.494791,-16.3125 -23.242187,-24.46875 -14.38737,1.81966 -28.77474,3.63932 -43.16211,5.45898 z" fill="#000000" stroke="none" fill-opacity="0.259" stroke-width="1.292"/>
   <path inkscape:connector-curvature="0" id="path1795" d="m -77.923828,262.3125 c 7.325521,8.96224 14.651042,17.92448 21.976562,26.88672 14.602214,-2.70117 29.204427,-5.40235 43.806641,-8.10352 -7.661458,-8.06575 -15.322917,-16.13151 -22.984375,-24.19726 -14.266276,1.80468 -28.532552,3.60937 -42.798828,5.41406 z" fill="#000000" stroke="none" fill-opacity="0.259" stroke-width="1.292"/>
   <path inkscape:connector-curvature="0" id="path1799" d="m -77.619141,262.43555 c 7.244792,8.86328 14.489584,17.72656 21.734375,26.58984 14.475912,-2.67773 28.951823,-5.35547 43.427735,-8.0332 -7.575521,-7.97526 -15.151042,-15.95052 -22.726563,-23.92578 -14.145182,1.78971 -28.290364,3.57942 -42.435547,5.36914 z" fill="#000000" stroke="none" fill-opacity="0.259" stroke-width="1.292"/>
   <path inkscape:connector-curvature="0" id="path1803" d="m -77.314453,262.55859 c 7.164062,8.76433 14.328125,17.52865 21.492187,26.29297 14.34961,-2.65429 28.699219,-5.30859 43.048828,-7.96289 -7.489583,-7.88476 -14.979166,-15.76953 -22.46875,-23.65429 -14.024088,1.77473 -28.048177,3.54947 -42.072265,5.32421 z" fill="#000000" stroke="none" fill-opacity="0.259" stroke-width="1.292"/>
   <path inkscape:connector-curvature="0" id="path1807" d="m -77.009766,262.68164 c 7.083334,8.66537 14.166667,17.33073 21.25,25.99609 14.223308,-2.63086 28.446615,-5.26171 42.669922,-7.89257 -7.403646,-7.79427 -14.807291,-15.58855 -22.210937,-23.38282 -13.902995,1.75977 -27.80599,3.51954 -41.708985,5.2793 z" fill="#000000" stroke="none" fill-opacity="0.259" stroke-width="1.292"/>
  </g>
  <path d="m 2.1188553,250.9011 v 12.6765 l 42.1069637,-7.6764 v -12.67649 z" sodipodi:nodetypes="ccccc" id="path3081" inkscape:connector-curvature="0" fill="url(#linearGradient3131)" stroke="none" fill-opacity="1" stroke-width="1.292"/>
  <path inkscape:connector-curvature="0" id="path1787" d="m 1.9766998,263.5776 42.1069642,-7.6764 20.759987,24.74079 -42.106964,7.6764 z" fill="url(#pattern1789)" stroke="none" fill-opacity="1" stroke-width="1.292"/>
  <path d="m 1.9766998,263.5776 42.1069642,-7.6764 20.759987,24.74079 -42.106964,7.6764 z" id="path3037" inkscape:connector-curvature="0" fill="url(#linearGradient3405)" stroke="none" fill-opacity="1" stroke-width="1.292"/>
  <path id="path3362" d="m 3.5764627,250.5202 v 12.6765 L 24.33645,287.93749 v -12.6765 z" inkscape:connector-curvature="0" fill="url(#linearGradient3402)" stroke="none" fill-opacity="1" stroke-width="1.292"/>
  <path d="m 44.083664,255.9012 v -12.67649 l 20.759987,24.74079 v 12.67649 z" id="path3039" inkscape:connector-curvature="0" fill="url(#linearGradient3399)" stroke="none" fill-opacity="1" stroke-width="1.292"/>
  <path inkscape:connector-curvature="0" d="m 42.489275,256.27635 v -12.67649 l 20.759987,24.74079 v 12.67649 z" id="path1779" fill="url(#pattern1781)" stroke="none" fill-opacity="1" stroke-width="1.292"/>
  <path id="path3356" d="m 42.489275,256.27635 v -12.67649 l 20.759987,24.74079 v 12.67649 z" inkscape:connector-curvature="0" fill="url(#linearGradient3396)" stroke="none" fill-opacity="1" stroke-width="1.292"/>
  <path inkscape:connector-curvature="0" d="m 4.6389335,251.29901 v 12.67649 l 38.3931645,-7.01321 v -12.6765 z" sodipodi:nodetypes="ccccc" id="path1775" fill="url(#pattern1777)" stroke="none" fill-opacity="1" stroke-width="1.292"/>
  <path id="path3368" sodipodi:nodetypes="ccccc" d="m 4.6389335,251.29901 v 12.67649 l 38.3931645,-7.01321 v -12.6765 z" inkscape:connector-curvature="0" fill="url(#linearGradient3374)" stroke="none" fill-opacity="1" stroke-width="1.292"/>
  <path d="m 22.82518,288.50021 42.106964,-7.67639 0.99648,1.18756 -42.106964,7.67639 z" id="path3258" inkscape:connector-curvature="0" fill="url(#linearGradient1291)" stroke="none" fill-opacity="1" stroke-width="1.292"/>
  <path d="m 64.932144,280.82382 v -12.6765 l 0.99648,1.18756 v 12.6765 z" id="path3260" inkscape:connector-curvature="0" fill="url(#linearGradient1293)" stroke="none" fill-opacity="1" stroke-width="1.292"/>
  <path inkscape:connector-curvature="0" id="path1851" d="m 53.991601,270.14186 -2.700952,6.17443 0.996479,1.18756 2.700952,-6.17443 z" fill="url(#pattern1853)" stroke="none" fill-opacity="1" stroke-width="1.292"/>
  <path d="m 53.991601,270.14186 -2.700952,6.17443 0.996479,1.18756 2.700952,-6.17443 z" id="path3264" inkscape:connector-curvature="0" fill="url(#linearGradient3450)" stroke="none" fill-opacity="1" stroke-width="1.292"/>
  <path d="m 51.290649,276.31629 -13.79194,2.51437 0.996479,1.18756 13.79194,-2.51437 z" id="path3266" inkscape:connector-curvature="0" fill="url(#linearGradient3447)" stroke="none" fill-opacity="1" stroke-width="1.292"/>
  <path d="m 37.498709,278.83066 -3.127419,-5.11188 0.99648,1.18756 3.127418,5.11188 z" id="path3268" inkscape:connector-curvature="0" fill="url(#linearGradient1295)" stroke="none" fill-opacity="1" stroke-width="1.292"/>
  <path d="m 22.82518,275.82372 v 12.67649 l 0.99648,1.18756 v -12.6765 z" id="path3256" inkscape:connector-curvature="0" fill="url(#linearGradient3459)" stroke="none" fill-opacity="1" stroke-width="1.292"/>
  <path inkscape:connector-curvature="0" d="m 23.678113,276.96096 v 12.6765 l 42.106964,-7.6764 v -12.67649 l -10.940543,1.99453 -2.700953,6.17444 -13.791939,2.51436 -3.127419,-5.11188 z" sodipodi:nodetypes="ccccccccc" id="path1015" fill="url(#pattern1753)" stroke="none" fill-opacity="1" stroke-width="1.292"/>
  <path id="path3133" sodipodi:nodetypes="ccccccccc" d="m 23.678113,276.96096 v 12.6765 l 42.106964,-7.6764 v -12.67649 l -10.940543,1.99453 -2.700953,6.17444 -13.791939,2.51436 -3.127419,-5.11188 z" inkscape:connector-curvature="0" stroke-dasharray="none" fill="url(#linearGradient3410)" stroke="url(#linearGradient1867)" fill-opacity="1" stroke-width="0.344" stroke-miterlimit="4"/>
  <path inkscape:connector-curvature="0" d="m 43.96626,243.21527 -41.8647369,7.63012 0.5651941,0.76705 40.3306388,-7.34752 20.266246,24.06112 1.655212,-0.24223 -20.145134,-24.14186 -0.565194,-0.68631 -0.161484,0.0404 z m -41.98585,7.67049 v 12.6765 l 21.66485,25.89012 0.152358,-12.52414 z m 62.938404,17.27879 -10.940544,1.97818 1.009275,1.17076 10.940544,-1.97818 z" id="path1761" sodipodi:nodetypes="cccccccccccccccccccc" fill="url(#pattern1763)" stroke="none" fill-opacity="1" stroke-width="1.292"/>
  <path sodipodi:nodetypes="cccccccccccccccccccc" id="path3360" d="m 43.96626,243.21527 -41.8647369,7.63012 0.5651941,0.76705 40.3306388,-7.34752 20.266246,24.06112 1.655212,-0.24223 -20.145134,-24.14186 -0.565194,-0.68631 -0.161484,0.0404 z m -41.98585,7.67049 v 12.6765 l 21.66485,25.89012 0.152358,-12.52414 z m 62.938404,17.27879 -10.940544,1.97818 1.009275,1.17076 10.940544,-1.97818 z" inkscape:connector-curvature="0" fill="url(#linearGradient3393)" stroke="none" fill-opacity="1" stroke-width="1.292"/>
  <path inkscape:connector-curvature="0" d="m 3.6356214,250.60317 -1.6552114,0.28259 20.750699,24.74743 1.61484,-0.2826 z m 30.7223386,23.13258 -11.546109,2.0993 1.009275,1.17076 11.546109,-2.0993 z" id="path1771" fill="url(#pattern1029)" stroke="none" fill-opacity="1" stroke-width="1.292"/>
  <path id="path3366" d="m 3.6356214,250.60317 -1.6552114,0.28259 20.750699,24.74743 1.61484,-0.2826 z m 30.7223386,23.13258 -11.546109,2.0993 1.009275,1.17076 11.546109,-2.0993 z" inkscape:connector-curvature="0" fill="url(#linearGradient3390)" stroke="none" fill-opacity="1" stroke-width="1.292"/>
  <g transform="matrix(0.24303495,0,0,0.18308969,-5.9026471,186.04977)" id="layer1-0" inkscape:label="Layer 1">
   <g id="g853">
    <rect id="rect825" width="20.771" height="10.01" x="0.227" y="238.93" rx="0.265" ry="0.063" opacity="1" stroke-dasharray="none" stroke-opacity="1" paint-order="normal" fill="url(#linearGradient833)" fill-rule="evenodd" stroke="none" stroke-linejoin="round" fill-opacity="1" stroke-linecap="round" stroke-width="0.217" stroke-dashoffset="0" stroke-miterlimit="4"/>
    <rect ry="0.028" rx="0.265" y="248.86" x="0.227" height="4.473" width="20.771" id="rect835" opacity="1" stroke-dasharray="none" stroke-opacity="1" paint-order="normal" fill="url(#linearGradient837)" fill-rule="evenodd" stroke="none" stroke-linejoin="round" fill-opacity="1" stroke-linecap="round" stroke-width="0.145" stroke-dashoffset="0" stroke-miterlimit="4"/>
   </g>
  </g>
  <rect width="4.855" height="2.536" x="-5.696" y="232.79" id="rect1035" fill="url(#pattern1827)" stroke="none" stroke-width="0.381"/>
  <path inkscape:connector-curvature="0" id="path1773" d="m 51.290649,276.31629 -13.79194,2.51437 0.996479,1.18756 13.79194,-2.51437 z" fill="url(#pattern1029)" stroke="none" fill-opacity="1" stroke-width="1.292"/>
  <path d="M 22.89389,275.69808 2.0468048,250.98481 44.195822,243.17663 54.354036,255.38165" id="path1829" inkscape:connector-curvature="0" sodipodi:nodetypes="cccc" stroke-opacity="0.471" stroke-dasharray="none" fill="none" stroke="url(#linearGradient1837)" stroke-linejoin="miter" stroke-linecap="butt" stroke-width="0.318" stroke-miterlimit="4"/>
  <path d="m 34.416642,273.65127 -10.0066,1.89519 -20.240625,-24.10681 38.813484,-7.12591 20.164816,23.87939 -8.945295,1.74357" id="path939" inkscape:connector-curvature="0" sodipodi:nodetypes="cccccc" stroke-opacity="0.185" stroke-dasharray="none" fill="none" stroke="#ffffff" stroke-linejoin="miter" stroke-linecap="butt" stroke-width="0.344" stroke-miterlimit="4"/>
 </g>
</svg>
