<?xml version="1.0" encoding="UTF-8" standalone="no"?>
<!DOCTYPE svg PUBLIC '-//W3C//DTD SVG 1.1//EN' 'http://www.w3.org/Graphics/SVG/1.1/DTD/svg11.dtd'>
<svg height="128" width="128" xmlns="http://www.w3.org/2000/svg" xmlns:xlink="http://www.w3.org/1999/xlink">
 <linearGradient id="a" gradientUnits="userSpaceOnUse">
  <stop offset="0" stop-color="#fff"/>
  <stop offset="1" stop-color="#fff" stop-opacity="0"/>
 </linearGradient>
 <linearGradient id="b" gradientUnits="userSpaceOnUse" x1="72" x2="72" y1="0" y2="116.4">
  <stop offset="0" stop-color="#eeecec"/>
  <stop offset=".4" stop-color="#f4f4f4"/>
  <stop offset="1" stop-color="#f6f5f5"/>
 </linearGradient>
 <filter id="c">
  <feGaussianBlur stdDeviation=".52"/>
 </filter>
 <radialGradient id="d" cx="64" cy="64" fx="63.79" fy="47.27" gradientTransform="matrix(1.6842 -.0843 .0689 1.3759 -48.2 -18.66)" r="47.5" xlink:href="#a"/>
 <clipPath id="e">
  <path d="m17 8v112h57.5c1.675 0 3.914-.565 7-3.6 8.87-8.725 20.24-19.852 27.499-27.176 2.441-2.463 3.001-4.471 3.001-6.724v-74.5z"/>
 </clipPath>
 <filter id="f" height="1.24" width="1.23" x="-.11" y="-.12">
  <feGaussianBlur stdDeviation="2.386"/>
 </filter>
 <filter id="g" height="2.03" width="1.96" x="-.48" y="-.51">
  <feGaussianBlur stdDeviation="10.141"/>
 </filter>
 <filter id="h">
  <feGaussianBlur stdDeviation="1.005"/>
 </filter>
 <clipPath id="i">
  <path d="m112 82.503c0 4.465-2.797 6.41-5.28 8.094-5.109 3.465-14.939 3.325-20.72 3.406-.081 5.781.166 15.505-3.299 20.613-1.684 2.482-5.291 5.387-8.201 5.387 2.318 0 4.743-1.335 7.584-4.085 9.142-8.849 17.367-16.135 25.673-25.298 1.919-2.117 4.243-3.642 4.243-8.118z"/>
 </clipPath>
 <linearGradient id="j" gradientUnits="userSpaceOnUse" x1="86.88" x2="95.42" y1="93.75" y2="102.31">
  <stop offset="0" stop-color="#fcfcfc"/>
  <stop offset=".523" stop-color="#f8f8f8"/>
  <stop offset=".723" stop-color="#f0efef"/>
  <stop offset=".89" stop-color="#e3e1e1"/>
  <stop offset="1" stop-color="#cecbcb"/>
 </linearGradient>
 <filter id="k">
  <feGaussianBlur stdDeviation=".43"/>
 </filter>
 <radialGradient id="l" cx="90.74" cy="110.24" r="24.5" xlink:href="#a"/>
 <clipPath id="m">
  <path d="m594.21 637.248a252.678 126.339 0 1 1 -505.356 0 252.678 126.339 0 1 1 505.356 0z" transform="matrix(.1266 0 0 .1398 119.29 -49.15)"/>
 </clipPath>
 <filter id="n" color-interpolation-filters="sRGB">
  <feGaussianBlur stdDeviation="4.717"/>
 </filter>
 <filter id="o">
  <feGaussianBlur stdDeviation=".338"/>
 </filter>
 <filter id="p">
  <feGaussianBlur stdDeviation=".268"/>
 </filter>
 <clipPath id="q">
  <path d="m236.749 2.29c0 8.972-14.337 16.254-32.001 16.254-17.572 0-31.849-7.206-31.997-16.113l.127 6.465c0 8.972 14.211 16.254 31.875 16.254s31.871-7.282 31.871-16.254l.127-6.605z"/>
 </clipPath>
 <filter id="r" height="1.3" width="1.11" x="-.05" y="-.15">
  <feGaussianBlur stdDeviation="1.43"/>
 </filter>
 <clipPath id="s">
  <path d="m236.749 21.04c0 8.972-14.337 16.254-32.001 16.254-17.572 0-31.849-7.206-31.997-16.113l.127 6.465c0 8.972 14.211 16.254 31.875 16.254s31.871-7.282 31.871-16.254z"/>
 </clipPath>
 <filter id="t">
  <feGaussianBlur stdDeviation=".058"/>
 </filter>
 <filter id="u">
  <feGaussianBlur stdDeviation=".63"/>
 </filter>
 <filter id="v">
  <feGaussianBlur stdDeviation="1.575"/>
 </filter>
 <filter id="w">
  <feGaussianBlur stdDeviation=".804"/>
 </filter>
 <radialGradient id="x" cx="949.33" cy="517.87" fx="941.93" fy="440.16" gradientTransform="matrix(.2165 .0083 -.0066 .127 2.62 -83.32)" r="119.4" xlink:href="#a"/>
 <linearGradient id="y" gradientUnits="userSpaceOnUse" spreadMethod="reflect" x1="341.53" x2="341.53" y1="452.76" y2="668.31">
  <stop offset="0" stop-color="#d3d3d3"/>
  <stop offset=".262" stop-color="#e4e4e4"/>
  <stop offset=".631" stop-color="#dfdfdf"/>
  <stop offset="1" stop-color="#c0c0c0"/>
 </linearGradient>
 <radialGradient id="z" cx="902.44" cy="521.15" fy="725.49" gradientTransform="matrix(.1266 .0042 -.0035 .1058 92.35 -74.64)" gradientUnits="userSpaceOnUse" r="252.67">
  <stop offset="0" stop-color="#a7a7a7"/>
  <stop offset=".287" stop-color="#b7b7b7"/>
  <stop offset=".358" stop-color="#f2f2f2"/>
  <stop offset=".691" stop-color="#858585"/>
  <stop offset=".767" stop-color="#8f8f8f"/>
  <stop offset=".849" stop-color="#a4a4a4"/>
  <stop offset=".884" stop-color="#757575"/>
  <stop offset=".913" stop-color="#989898"/>
  <stop offset="1" stop-color="#acacac"/>
 </radialGradient>
 <radialGradient id="A" cx="1304.43" cy="438.3" gradientTransform="matrix(1.4615 0 0 .7922 -1517.1 316.3)" r="252.67" xlink:href="#a"/>
 <linearGradient id="B" gradientUnits="userSpaceOnUse" x1="1228.48" x2="1228.48" y1="349.26" y2="687.31">
  <stop offset="0" stop-color="#474747"/>
  <stop offset="1" stop-color="#474747" stop-opacity="0"/>
 </linearGradient>
 <linearGradient id="C" gradientUnits="userSpaceOnUse" x1="154.54" x2="154.03" y1="13.39" y2="47.89">
  <stop offset="0"/>
  <stop offset="1" stop-opacity="0"/>
 </linearGradient>
 <radialGradient id="D" cx="921.02" cy="489.46" fx="924.29" fy="456.95" gradientTransform="matrix(.4203 0 -.0052 .1936 -191.4 -121.1)" r="119.4" xlink:href="#a"/>
 <filter id="E">
  <feGaussianBlur stdDeviation=".451"/>
 </filter>
 <linearGradient id="F" gradientUnits="userSpaceOnUse" x1="10" x2="10" y1="15.56" y2="12.44">
  <stop offset="0" stop-color="#fff"/>
  <stop offset="1" stop-color="#ddd"/>
 </linearGradient>
 <linearGradient id="G" gradientUnits="userSpaceOnUse" x1="11.1" x2="8.9" y1="15.1" y2="12.9">
  <stop offset="0" stop-color="#eaeaea"/>
  <stop offset="1" stop-color="#616161"/>
 </linearGradient>
 <radialGradient id="H" cx="64" cy="64" fx="63.79" fy="47.27" gradientTransform="matrix(.84 -.042 .0343 .6862 32.71 39.48)" r="47.5" xlink:href="#a"/>
 <mask id="I">
  <path d="m65.728 53.025c-.17 0-.249.117-.249.249v54.349c0 .41.339.748.748.748l27.432.016c.026 0 .498-.004.842 0 5.037-1.993 12.675-11.199 17.137-15.689.737-.826.556-.574.725-1.441v-37.984c0-.161-.081-.249-.249-.249z" fill="url(#H)" opacity=".85"/>
 </mask>
 <linearGradient id="J" gradientUnits="userSpaceOnUse" x1="239" x2="365.54" y1="-76.66" y2="115.11">
  <stop offset="0"/>
  <stop offset="1" stop-color="#818181"/>
 </linearGradient>
 <linearGradient id="K" gradientTransform="matrix(.144 0 0 .192 9.2 20.53)" gradientUnits="userSpaceOnUse" x1="236.9" x2="201.33" y1="77.83" y2="-106.94">
  <stop offset="0" stop-color="#18689a"/>
  <stop offset="1" stop-color="#3ba1e1"/>
 </linearGradient>
 <filter id="L">
  <feGaussianBlur stdDeviation=".447"/>
 </filter>
 <path d="m17 8.5v112h58.188c2.116 0 4.529-1.772 7-4.25.712-.714 1.441-1.394 2.156-2.094.416-.406.832-.814 1.25-1.219 7.774-7.41 14.983-14.023 22.219-22 .421-.421.812-.811 1.156-1.188 1.464-1.498 2.762-2.838 2.994-5.863l.038-.731v-74.656z" filter="url(#h)" opacity=".26"/>
 <path d="m17 8v112.2h57.746c4.168 0 7.729-4.856 20.854-17.1 7.486-6.984 10.44-10.889 13.15-13.6 1.743-1.743 3.25-3.038 3.25-7.2v-74.3z" fill-opacity=".7" filter="url(#c)"/>
 <path d="m17 8v112h57.5c1.675 0 3.914-.565 7-3.6 8.87-8.725 20.24-19.852 27.499-27.176 2.441-2.463 3.001-4.471 3.001-6.724v-74.5z" fill="#fff"/>
 <path d="m18 8.5c-.34 0-.5.235-.5.5v108.969c0 .822.679 1.5 1.5 1.5l55 .031c.053 0 .998-.008 1.688 0 10.099-3.995 25.413-22.453 34.359-31.455 1.477-1.656 1.114-1.151 1.454-2.889v-76.156c0-.323-.163-.5-.5-.5z" fill="url(#d)" opacity=".85"/>
 <path d="m18 8.5c-.34 0-.5.235-.5.5v108.969c0 .822.679 1.5 1.5 1.5h54.188c.053 0 .81.023 1.5.031 1.778-.04 3.132-.754 4.356-1.593 1.052-.291 21.15-20.12 30.271-29.309 1.362-1.373 2.185-3.948 2.185-4.896v-74.702c0-.323-.163-.5-.5-.5z" fill="url(#b)"/>
 <g filter="url(#E)" mask="url(#I)" opacity=".41" transform="matrix(2.005 0 0 2.005 -114.08 -97.81)">
  <path clip-path="url(#q)" d="m236.749-2.96c0 8.972-14.337 16.254-32.001 16.254-17.572 0-31.849-7.206-31.997-16.113l.127 6.465c0 8.972 14.211 16.254 31.875 16.254s31.871-7.282 31.871-16.254l.127-6.605z" filter="url(#w)" transform="matrix(.8056 0 0 .8056 -82.53 79.74)"/>
  <path clip-path="url(#q)" d="m236.749-2.96c0 8.972-14.337 16.254-32.001 16.254-17.572 0-31.849-7.206-31.997-16.113l.127 6.465c0 8.972 14.211 16.254 31.875 16.254s31.871-7.282 31.871-16.254l.127-6.605z" filter="url(#p)" transform="matrix(.8056 0 0 .8056 -82.53 79.74)"/>
  <path d="m227.506-9.681c1.621 5.193-8.056 9.74-22.692 9.74-15.343 0-24.849-4.692-22.692-9.74 2.813-6.584 12.979-9.74 22.692-9.74 9.361 0 20.866 3.888 22.692 9.74z" fill="url(#x)" transform="matrix(.8056 0 0 .8056 -82.53 89.08)"/>
  <path d="m594.21 637.248c0 69.775-113.128 126.339-252.678 126.339s-252.678-56.564-252.678-126.339 113.128-126.339 252.678-126.339 252.678 56.564 252.678 126.339z" fill="url(#y)" transform="matrix(.102 0 0 .1036 47.57 10.99)"/>
  <path d="m236.749-14.96c0 8.972-14.337 16.254-32.001 16.254-17.572 0-31.849-7.206-31.997-16.113l.127 6.465c0 8.972 14.211 16.254 31.875 16.254s31.871-7.282 31.871-16.254l.127-6.605z" fill="url(#z)" transform="matrix(.8056 0 0 .8056 -82.53 89.08)"/>
  <path d="m134.39 526.23c-.286 2.461-.469 4.94-.469 7.438 10.364 61.48 113.231 122.548 252.687 120.125 140.899-2.447 242.961-57.027 252.656-118.571.389-2.468-.151-4.976-.438-7.438-7.709 66.281-117.735 122.793-252.219 122.793s-244.51-58.066-252.219-124.347z" fill="url(#A)" filter="url(#u)" transform="matrix(.102 0 0 .1036 42.97 22.75)"/>
  <path d="m1050.313 441.161c-.286 2.461-.469 4.94-.469 7.438 0 69.739 113.209 126.344 252.687 126.344s252.656-56.605 252.656-126.344c0-2.497-.151-4.976-.438-7.438-7.709 66.281-117.735 124.906-252.219 124.906s-244.51-58.625-252.219-124.906z" fill="url(#B)" filter="url(#n)" opacity=".51" transform="matrix(.0999 0 0 .1015 -47.71 31.07)"/>
  <path clip-path="url(#m)" d="m162.531 21.443c-17.664 0-32 8.229-32 17.982 0 .168.023.333.031.5.482-9.521 14.609-17.482 31.969-17.482 17.359 0 31.486 7.962 31.969 17.482.008-.167.031-.332.031-.5 0-9.753-14.336-17.982-32-17.982z" fill="url(#C)" filter="url(#o)" transform="matrix(.8056 0 0 .7411 -48.53 47.41)"/>
  <path d="m205-30.625c-12.427 0-26.051 4.054-29.65 10.665-1.748 3.211 4.279 7.867 11.462 7.21 15.588-2.332 32.323-5.26 47.219-8.031-.007-.019.007-.044 0-.063-2.337-5.876-17.054-9.781-29.031-9.781z" fill="url(#D)" filter="url(#t)" transform="matrix(.8056 0 0 .8056 -82.53 89.08)"/>
  <path clip-path="url(#s)" d="m236.749 26.665c0 8.972-14.337 16.254-32.001 16.254-17.572 0-31.849-7.206-31.997-16.113l.127 6.465c0 8.972 14.211 16.254 31.875 16.254s31.871-7.282 31.871-16.254z" fill="#fff" filter="url(#r)" opacity=".66" transform="matrix(.8056 0 0 .8056 -82.53 60.04)"/>
  <path d="m134.39 526.23c-.286 2.461-.469 4.94-.469 7.438 10.364 61.48 113.217 121.532 252.687 120.125 137.136-1.383 235.202-53.214 252.656-118.571.645-2.415-.151-4.976-.438-7.438-7.709 66.281-117.735 122.793-252.219 122.793s-244.51-58.066-252.219-124.347z" fill="url(#A)" filter="url(#v)" transform="matrix(.102 0 0 .1036 42.97 22.75)"/>
  <path clip-path="url(#q)" d="m236.749-2.96c0 8.972-14.337 16.254-32.001 16.254-17.572 0-31.849-7.206-31.997-16.113l.127 6.465c0 8.972 14.211 16.254 31.875 16.254s31.871-7.282 31.871-16.254l.127-6.605z" filter="url(#p)" transform="matrix(.8056 0 0 .8056 -82.53 72.62)"/>
  <path d="m227.506-9.681c1.621 5.193-8.056 9.74-22.692 9.74-15.343 0-24.849-4.692-22.692-9.74 2.813-6.584 12.979-9.74 22.692-9.74 9.361 0 20.866 3.888 22.692 9.74z" fill="url(#x)" transform="matrix(.8056 0 0 .8056 -82.53 81.96)"/>
  <path d="m594.21 637.248c0 69.775-113.128 126.339-252.678 126.339s-252.678-56.564-252.678-126.339 113.128-126.339 252.678-126.339 252.678 56.564 252.678 126.339z" fill="url(#y)" transform="matrix(.102 0 0 .1036 47.57 3.87)"/>
  <path d="m236.749-14.96c0 8.972-14.337 16.254-32.001 16.254-17.572 0-31.849-7.206-31.997-16.113l.127 6.465c0 8.972 14.211 16.254 31.875 16.254s31.871-7.282 31.871-16.254l.127-6.605z" fill="url(#z)" transform="matrix(.8056 0 0 .8056 -82.53 81.96)"/>
  <path d="m134.39 526.23c-.286 2.461-.469 4.94-.469 7.438 10.364 61.48 113.231 122.548 252.687 120.125 140.899-2.447 242.961-57.027 252.656-118.571.389-2.468-.151-4.976-.438-7.438-7.709 66.281-117.735 122.793-252.219 122.793s-244.51-58.066-252.219-124.347z" fill="url(#A)" filter="url(#u)" transform="matrix(.102 0 0 .1036 42.97 15.63)"/>
  <path d="m1050.313 441.161c-.286 2.461-.469 4.94-.469 7.438 0 69.739 113.209 126.344 252.687 126.344s252.656-56.605 252.656-126.344c0-2.497-.151-4.976-.438-7.438-7.709 66.281-117.735 124.906-252.219 124.906s-244.51-58.625-252.219-124.906z" fill="url(#B)" filter="url(#n)" opacity=".51" transform="matrix(.0999 0 0 .1015 -47.71 23.95)"/>
  <path clip-path="url(#m)" d="m162.531 21.443c-17.664 0-32 8.229-32 17.982 0 .168.023.333.031.5.482-9.521 14.609-17.482 31.969-17.482 17.359 0 31.486 7.962 31.969 17.482.008-.167.031-.332.031-.5 0-9.753-14.336-17.982-32-17.982z" fill="url(#C)" filter="url(#o)" transform="matrix(.8056 0 0 .7411 -48.53 40.29)"/>
  <path d="m205-30.625c-12.427 0-26.051 4.054-29.65 10.665-1.748 3.211 4.279 7.867 11.462 7.21 15.588-2.332 32.323-5.26 47.219-8.031-.007-.019.007-.044 0-.063-2.337-5.876-17.054-9.781-29.031-9.781z" fill="url(#D)" filter="url(#t)" transform="matrix(.8056 0 0 .8056 -82.53 81.96)"/>
  <path clip-path="url(#s)" d="m236.749 26.665c0 8.972-14.337 16.254-32.001 16.254-17.572 0-31.849-7.206-31.997-16.113l.127 6.465c0 8.972 14.211 16.254 31.875 16.254s31.871-7.282 31.871-16.254z" fill="#fff" filter="url(#r)" opacity=".66" transform="matrix(.8056 0 0 .8056 -82.53 52.92)"/>
  <path d="m134.39 526.23c-.286 2.461-.469 4.94-.469 7.438 10.364 61.48 113.217 121.532 252.687 120.125 137.136-1.383 235.202-53.214 252.656-118.571.645-2.415-.151-4.976-.438-7.438-7.709 66.281-117.735 122.793-252.219 122.793s-244.51-58.066-252.219-124.347z" fill="url(#A)" filter="url(#v)" transform="matrix(.102 0 0 .1036 42.97 15.63)"/>
  <path clip-path="url(#q)" d="m236.749-2.96c0 8.972-14.337 16.254-32.001 16.254-17.572 0-31.849-7.206-31.997-16.113l.127 6.465c0 8.972 14.211 16.254 31.875 16.254s31.871-7.282 31.871-16.254l.127-6.605z" filter="url(#p)" transform="matrix(.8056 0 0 .8056 -82.53 65.54)"/>
  <path d="m227.506-9.681c1.621 5.193-8.056 9.74-22.692 9.74-15.343 0-24.849-4.692-22.692-9.74 2.813-6.584 12.979-9.74 22.692-9.74 9.361 0 20.866 3.888 22.692 9.74z" fill="url(#x)" transform="matrix(.8056 0 0 .8056 -82.53 74.88)"/>
  <path d="m594.21 637.248c0 69.775-113.128 126.339-252.678 126.339s-252.678-56.564-252.678-126.339 113.128-126.339 252.678-126.339 252.678 56.564 252.678 126.339z" fill="url(#y)" transform="matrix(.102 0 0 .1036 47.57 -3.21)"/>
  <path d="m236.749-14.96c0 8.972-14.337 16.254-32.001 16.254-17.572 0-31.849-7.206-31.997-16.113l.127 6.465c0 8.972 14.211 16.254 31.875 16.254s31.871-7.282 31.871-16.254l.127-6.605z" fill="url(#z)" transform="matrix(.8056 0 0 .8056 -82.53 74.88)"/>
  <path d="m134.39 526.23c-.286 2.461-.469 4.94-.469 7.438 10.364 61.48 113.231 122.548 252.687 120.125 140.899-2.447 242.961-57.027 252.656-118.571.389-2.468-.151-4.976-.438-7.438-7.709 66.281-117.735 122.793-252.219 122.793s-244.51-58.066-252.219-124.347z" fill="url(#A)" filter="url(#u)" transform="matrix(.102 0 0 .1036 42.97 8.55)"/>
  <path d="m1050.313 441.161c-.286 2.461-.469 4.94-.469 7.438 0 69.739 113.209 126.344 252.687 126.344s252.656-56.605 252.656-126.344c0-2.497-.151-4.976-.438-7.438-7.709 66.281-117.735 124.906-252.219 124.906s-244.51-58.625-252.219-124.906z" fill="url(#B)" filter="url(#n)" opacity=".51" transform="matrix(.0999 0 0 .1015 -47.71 16.87)"/>
  <path clip-path="url(#m)" d="m162.531 21.443c-17.664 0-32 8.229-32 17.982 0 .168.023.333.031.5.482-9.521 14.609-17.482 31.969-17.482 17.359 0 31.486 7.962 31.969 17.482.008-.167.031-.332.031-.5 0-9.753-14.336-17.982-32-17.982z" fill="url(#C)" filter="url(#o)" transform="matrix(.8056 0 0 .7411 -48.53 33.21)"/>
  <path d="m205-30.625c-12.427 0-26.051 4.054-29.65 10.665-1.748 3.211 4.279 7.867 11.462 7.21 15.588-2.332 32.323-5.26 47.219-8.031-.007-.019.007-.044 0-.063-2.337-5.876-17.054-9.781-29.031-9.781z" fill="url(#D)" filter="url(#t)" transform="matrix(.8056 0 0 .8056 -82.53 74.88)"/>
  <path clip-path="url(#s)" d="m236.749 26.665c0 8.972-14.337 16.254-32.001 16.254-17.572 0-31.849-7.206-31.997-16.113l.127 6.465c0 8.972 14.211 16.254 31.875 16.254s31.871-7.282 31.871-16.254z" fill="#fff" filter="url(#r)" opacity=".66" transform="matrix(.8056 0 0 .8056 -82.53 45.84)"/>
  <path d="m134.39 526.23c-.286 2.461-.469 4.94-.469 7.438 10.364 61.48 113.217 121.532 252.687 120.125 137.136-1.383 235.202-53.214 252.656-118.571.645-2.415-.151-4.976-.438-7.438-7.709 66.281-117.735 122.793-252.219 122.793s-244.51-58.066-252.219-124.347z" fill="url(#A)" filter="url(#v)" transform="matrix(.102 0 0 .1036 42.97 8.55)"/>
  <path clip-path="url(#q)" d="m236.749-2.96c0 8.972-14.337 16.254-32.001 16.254-17.572 0-31.849-7.206-31.997-16.113l.127 6.465c0 8.972 14.211 16.254 31.875 16.254s31.871-7.282 31.871-16.254l.127-6.605z" filter="url(#p)" transform="matrix(.8056 0 0 .8056 -82.53 58.42)"/>
  <path d="m227.506-9.681c1.621 5.193-8.056 9.74-22.692 9.74-15.343 0-24.849-4.692-22.692-9.74 2.813-6.584 12.979-9.74 22.692-9.74 9.361 0 20.866 3.888 22.692 9.74z" fill="url(#x)" transform="matrix(.8056 0 0 .8056 -82.53 67.76)"/>
  <path d="m594.21 637.248c0 69.775-113.128 126.339-252.678 126.339s-252.678-56.564-252.678-126.339 113.128-126.339 252.678-126.339 252.678 56.564 252.678 126.339z" fill="url(#y)" transform="matrix(.102 0 0 .1036 47.57 -10.33)"/>
  <path d="m236.749-14.96c0 8.972-14.337 16.254-32.001 16.254-17.572 0-31.849-7.206-31.997-16.113l.127 6.465c0 8.972 14.211 16.254 31.875 16.254s31.871-7.282 31.871-16.254l.127-6.605z" fill="url(#z)" transform="matrix(.8056 0 0 .8056 -82.53 67.76)"/>
  <path d="m134.39 526.23c-.286 2.461-.469 4.94-.469 7.438 10.364 61.48 113.231 122.548 252.687 120.125 140.899-2.447 242.961-57.027 252.656-118.571.389-2.468-.151-4.976-.438-7.438-7.709 66.281-117.735 122.793-252.219 122.793s-244.51-58.066-252.219-124.347z" fill="url(#A)" filter="url(#u)" transform="matrix(.102 0 0 .1036 42.97 1.43)"/>
  <path d="m1050.313 441.161c-.286 2.461-.469 4.94-.469 7.438 0 69.739 113.209 126.344 252.687 126.344s252.656-56.605 252.656-126.344c0-2.497-.151-4.976-.438-7.438-7.709 66.281-117.735 124.906-252.219 124.906s-244.51-58.625-252.219-124.906z" fill="url(#B)" filter="url(#n)" opacity=".51" transform="matrix(.0999 0 0 .1015 -47.71 9.75)"/>
  <path clip-path="url(#m)" d="m162.531 21.443c-17.664 0-32 8.229-32 17.982 0 .168.023.333.031.5.482-9.521 14.609-17.482 31.969-17.482 17.359 0 31.486 7.962 31.969 17.482.008-.167.031-.332.031-.5 0-9.753-14.336-17.982-32-17.982z" fill="url(#C)" filter="url(#o)" transform="matrix(.8056 0 0 .7411 -48.53 26.09)"/>
  <path d="m205-30.625c-12.427 0-26.051 4.054-29.65 10.665-1.748 3.211 4.279 7.867 11.462 7.21 15.588-2.332 32.323-5.26 47.219-8.031-.007-.019.007-.044 0-.063-2.337-5.876-17.054-9.781-29.031-9.781z" fill="url(#D)" filter="url(#t)" transform="matrix(.8056 0 0 .8056 -82.53 67.76)"/>
  <path clip-path="url(#s)" d="m236.749 26.665c0 8.972-14.337 16.254-32.001 16.254-17.572 0-31.849-7.206-31.997-16.113l.127 6.465c0 8.972 14.211 16.254 31.875 16.254s31.871-7.282 31.871-16.254z" fill="#fff" filter="url(#r)" opacity=".66" transform="matrix(.8056 0 0 .8056 -82.53 38.72)"/>
  <path d="m134.39 526.23c-.286 2.461-.469 4.94-.469 7.438 10.364 61.48 113.217 121.532 252.687 120.125 137.136-1.383 235.202-53.214 252.656-118.571.645-2.415-.151-4.976-.438-7.438-7.709 66.281-117.735 122.793-252.219 122.793s-244.51-58.066-252.219-124.347z" fill="url(#A)" filter="url(#v)" transform="matrix(.102 0 0 .1036 42.97 1.43)"/>
 </g>
 <path clip-path="url(#e)" d="m114.4 82.503c0 4.465-4.997 6.61-7.48 8.294-5.109 3.465-13.739 4.525-19.52 4.606-.081 5.781-1.034 14.305-4.499 19.413-1.684 2.482-5.791 8.687-8.701 8.687-2.091 1.534 3.488 8.211 6.735 5.32 9.502-8.461 35.132-30.023 43.351-39.263 2.04-2.294-4.905-9.845-9.886-7.057z" filter="url(#g)" opacity=".28"/>
 <path clip-path="url(#q)" d="m236.749-2.96c0 8.972-14.337 16.254-32.001 16.254-17.572 0-31.849-7.206-31.997-16.113l.127 6.465c0 8.972 14.211 16.254 31.875 16.254s31.871-7.282 31.871-16.254l.127-6.605z" filter="url(#w)" transform="matrix(.7445 0 0 .7445 -73.72 86.07)"/>
 <path clip-path="url(#q)" d="m236.749-2.96c0 8.972-14.337 16.254-32.001 16.254-17.572 0-31.849-7.206-31.997-16.113l.127 6.465c0 8.972 14.211 16.254 31.875 16.254s31.871-7.282 31.871-16.254l.127-6.605z" filter="url(#L)" opacity=".87" transform="matrix(.7445 0 0 .7445 -73.72 86.07)"/>
 <path d="m227.506-9.681c1.621 5.193-8.056 9.74-22.692 9.74-15.343 0-24.849-4.692-22.692-9.74 2.813-6.584 12.979-9.74 22.692-9.74 9.361 0 20.866 3.888 22.692 9.74z" fill="url(#x)" transform="matrix(.7445 0 0 .7445 -73.72 94.71)"/>
 <path d="m594.21 637.248c0 69.775-113.128 126.339-252.678 126.339s-252.678-56.564-252.678-126.339 113.128-126.339 252.678-126.339 252.678 56.564 252.678 126.339z" fill="url(#y)" transform="matrix(.0943 0 0 .0957 46.52 22.53)"/>
 <path d="m236.749-14.96c0 8.972-14.337 16.254-32.001 16.254-17.572 0-31.849-7.206-31.997-16.113l.127 6.465c0 8.972 14.211 16.254 31.875 16.254s31.871-7.282 31.871-16.254l.127-6.605z" fill="url(#z)" transform="matrix(.7445 0 0 .7445 -73.72 94.71)"/>
 <path d="m134.39 526.23c-.286 2.461-.469 4.94-.469 7.438 10.364 61.48 113.231 122.548 252.687 120.125 140.899-2.447 242.961-57.027 252.656-118.571.389-2.468-.151-4.976-.438-7.438-7.709 66.281-117.735 122.793-252.219 122.793s-244.51-58.066-252.219-124.347z" fill="url(#A)" filter="url(#u)" transform="matrix(.0943 0 0 .0957 42.27 33.41)"/>
 <path d="m1050.313 441.161c-.286 2.461-.469 4.94-.469 7.438 0 69.739 113.209 126.344 252.687 126.344s252.656-56.605 252.656-126.344c0-2.497-.151-4.976-.438-7.438-7.709 66.281-117.735 124.906-252.219 124.906s-244.51-58.625-252.219-124.906z" fill="url(#B)" filter="url(#n)" opacity=".51" transform="matrix(.0923 0 0 .0938 -41.55 41.09)"/>
 <path clip-path="url(#m)" d="m162.531 21.443c-17.664 0-32 8.229-32 17.982 0 .168.023.333.031.5.482-9.521 14.609-17.482 31.969-17.482 17.359 0 31.486 7.962 31.969 17.482.008-.167.031-.332.031-.5 0-9.753-14.336-17.982-32-17.982z" fill="url(#C)" filter="url(#o)" transform="matrix(.7445 0 0 .6849 -42.3 56.19)"/>
 <path d="m205-30.625c-12.427 0-26.051 4.054-29.65 10.665-1.748 3.211 4.279 7.867 11.462 7.21 15.588-2.332 32.323-5.26 47.219-8.031-.007-.019.007-.044 0-.063-2.337-5.876-17.054-9.781-29.031-9.781z" fill="url(#D)" filter="url(#t)" transform="matrix(.7445 0 0 .7445 -73.72 94.71)"/>
 <path clip-path="url(#s)" d="m236.749 26.665c0 8.972-14.337 16.254-32.001 16.254-17.572 0-31.849-7.206-31.997-16.113l.127 6.465c0 8.972 14.211 16.254 31.875 16.254s31.871-7.282 31.871-16.254z" fill="#fff" filter="url(#r)" opacity=".66" transform="matrix(.7445 0 0 .7445 -73.72 67.87)"/>
 <path d="m134.39 526.23c-.286 2.461-.469 4.94-.469 7.438 10.364 61.48 113.217 121.532 252.687 120.125 137.136-1.383 235.202-53.214 252.656-118.571.645-2.415-.151-4.976-.438-7.438-7.709 66.281-117.735 122.793-252.219 122.793s-244.51-58.066-252.219-124.347z" fill="url(#A)" filter="url(#v)" transform="matrix(.0943 0 0 .0957 42.27 33.41)"/>
 <path clip-path="url(#q)" d="m236.749-2.96c0 8.972-14.337 16.254-32.001 16.254-17.572 0-31.849-7.206-31.997-16.113l.127 6.465c0 8.972 14.211 16.254 31.875 16.254s31.871-7.282 31.871-16.254l.127-6.605z" filter="url(#p)" transform="matrix(.7445 0 0 .7445 -73.72 79.49)"/>
 <path d="m227.506-9.681c1.621 5.193-8.056 9.74-22.692 9.74-15.343 0-24.849-4.692-22.692-9.74 2.813-6.584 12.979-9.74 22.692-9.74 9.361 0 20.866 3.888 22.692 9.74z" fill="url(#x)" transform="matrix(.7445 0 0 .7445 -73.72 88.13)"/>
 <path d="m594.21 637.248c0 69.775-113.128 126.339-252.678 126.339s-252.678-56.564-252.678-126.339 113.128-126.339 252.678-126.339 252.678 56.564 252.678 126.339z" fill="url(#y)" transform="matrix(.0943 0 0 .0957 46.52 15.95)"/>
 <path d="m236.749-14.96c0 8.972-14.337 16.254-32.001 16.254-17.572 0-31.849-7.206-31.997-16.113l.127 6.465c0 8.972 14.211 16.254 31.875 16.254s31.871-7.282 31.871-16.254l.127-6.605z" fill="url(#z)" transform="matrix(.7445 0 0 .7445 -73.72 88.13)"/>
 <path d="m134.39 526.23c-.286 2.461-.469 4.94-.469 7.438 10.364 61.48 113.231 122.548 252.687 120.125 140.899-2.447 242.961-57.027 252.656-118.571.389-2.468-.151-4.976-.438-7.438-7.709 66.281-117.735 122.793-252.219 122.793s-244.51-58.066-252.219-124.347z" fill="url(#A)" filter="url(#u)" transform="matrix(.0943 0 0 .0957 42.27 26.83)"/>
 <path d="m1050.313 441.161c-.286 2.461-.469 4.94-.469 7.438 0 69.739 113.209 126.344 252.687 126.344s252.656-56.605 252.656-126.344c0-2.497-.151-4.976-.438-7.438-7.709 66.281-117.735 124.906-252.219 124.906s-244.51-58.625-252.219-124.906z" fill="url(#B)" filter="url(#n)" opacity=".51" transform="matrix(.0923 0 0 .0938 -41.55 34.51)"/>
 <path clip-path="url(#m)" d="m162.531 21.443c-17.664 0-32 8.229-32 17.982 0 .168.023.333.031.5.482-9.521 14.609-17.482 31.969-17.482 17.359 0 31.486 7.962 31.969 17.482.008-.167.031-.332.031-.5 0-9.753-14.336-17.982-32-17.982z" fill="url(#C)" filter="url(#o)" transform="matrix(.7445 0 0 .6849 -42.3 49.61)"/>
 <path d="m205-30.625c-12.427 0-26.051 4.054-29.65 10.665-1.748 3.211 4.279 7.867 11.462 7.21 15.588-2.332 32.323-5.26 47.219-8.031-.007-.019.007-.044 0-.063-2.337-5.876-17.054-9.781-29.031-9.781z" fill="url(#D)" filter="url(#t)" transform="matrix(.7445 0 0 .7445 -73.72 88.13)"/>
 <path clip-path="url(#s)" d="m236.749 26.665c0 8.972-14.337 16.254-32.001 16.254-17.572 0-31.849-7.206-31.997-16.113l.127 6.465c0 8.972 14.211 16.254 31.875 16.254s31.871-7.282 31.871-16.254z" fill="#fff" filter="url(#r)" opacity=".66" transform="matrix(.7445 0 0 .7445 -73.72 61.29)"/>
 <path d="m134.39 526.23c-.286 2.461-.469 4.94-.469 7.438 10.364 61.48 113.217 121.532 252.687 120.125 137.136-1.383 235.202-53.214 252.656-118.571.645-2.415-.151-4.976-.438-7.438-7.709 66.281-117.735 122.793-252.219 122.793s-244.51-58.066-252.219-124.347z" fill="url(#A)" filter="url(#v)" transform="matrix(.0943 0 0 .0957 42.27 26.83)"/>
 <path clip-path="url(#q)" d="m236.749-2.96c0 8.972-14.337 16.254-32.001 16.254-17.572 0-31.849-7.206-31.997-16.113l.127 6.465c0 8.972 14.211 16.254 31.875 16.254s31.871-7.282 31.871-16.254l.127-6.605z" filter="url(#p)" transform="matrix(.7445 0 0 .7445 -73.72 72.95)"/>
 <path d="m227.506-9.681c1.621 5.193-8.056 9.74-22.692 9.74-15.343 0-24.849-4.692-22.692-9.74 2.813-6.584 12.979-9.74 22.692-9.74 9.361 0 20.866 3.888 22.692 9.74z" fill="url(#x)" transform="matrix(.7445 0 0 .7445 -73.72 81.58)"/>
 <path d="m594.21 637.248c0 69.775-113.128 126.339-252.678 126.339s-252.678-56.564-252.678-126.339 113.128-126.339 252.678-126.339 252.678 56.564 252.678 126.339z" fill="url(#y)" transform="matrix(.0943 0 0 .0957 46.52 9.41)"/>
 <path d="m236.749-14.96c0 8.972-14.337 16.254-32.001 16.254-17.572 0-31.849-7.206-31.997-16.113l.127 6.465c0 8.972 14.211 16.254 31.875 16.254s31.871-7.282 31.871-16.254l.127-6.605z" fill="url(#z)" transform="matrix(.7445 0 0 .7445 -73.72 81.58)"/>
 <path d="m134.39 526.23c-.286 2.461-.469 4.94-.469 7.438 10.364 61.48 113.231 122.548 252.687 120.125 140.899-2.447 242.961-57.027 252.656-118.571.389-2.468-.151-4.976-.438-7.438-7.709 66.281-117.735 122.793-252.219 122.793s-244.51-58.066-252.219-124.347z" fill="url(#A)" filter="url(#u)" transform="matrix(.0943 0 0 .0957 42.27 20.29)"/>
 <path d="m1050.313 441.161c-.286 2.461-.469 4.94-.469 7.438 0 69.739 113.209 126.344 252.687 126.344s252.656-56.605 252.656-126.344c0-2.497-.151-4.976-.438-7.438-7.709 66.281-117.735 124.906-252.219 124.906s-244.51-58.625-252.219-124.906z" fill="url(#B)" filter="url(#n)" opacity=".51" transform="matrix(.0923 0 0 .0938 -41.55 27.97)"/>
 <path clip-path="url(#m)" d="m162.531 21.443c-17.664 0-32 8.229-32 17.982 0 .168.023.333.031.5.482-9.521 14.609-17.482 31.969-17.482 17.359 0 31.486 7.962 31.969 17.482.008-.167.031-.332.031-.5 0-9.753-14.336-17.982-32-17.982z" fill="url(#C)" filter="url(#o)" transform="matrix(.7445 0 0 .6849 -42.3 43.07)"/>
 <path d="m205-30.625c-12.427 0-26.051 4.054-29.65 10.665-1.748 3.211 4.279 7.867 11.462 7.21 15.588-2.332 32.323-5.26 47.219-8.031-.007-.019.007-.044 0-.063-2.337-5.876-17.054-9.781-29.031-9.781z" fill="url(#D)" filter="url(#t)" transform="matrix(.7445 0 0 .7445 -73.72 81.58)"/>
 <path clip-path="url(#s)" d="m236.749 26.665c0 8.972-14.337 16.254-32.001 16.254-17.572 0-31.849-7.206-31.997-16.113l.127 6.465c0 8.972 14.211 16.254 31.875 16.254s31.871-7.282 31.871-16.254z" fill="#fff" filter="url(#r)" opacity=".66" transform="matrix(.7445 0 0 .7445 -73.72 54.74)"/>
 <path d="m134.39 526.23c-.286 2.461-.469 4.94-.469 7.438 10.364 61.48 113.217 121.532 252.687 120.125 137.136-1.383 235.202-53.214 252.656-118.571.645-2.415-.151-4.976-.438-7.438-7.709 66.281-117.735 122.793-252.219 122.793s-244.51-58.066-252.219-124.347z" fill="url(#A)" filter="url(#v)" transform="matrix(.0943 0 0 .0957 42.27 20.29)"/>
 <path clip-path="url(#q)" d="m236.749-2.96c0 8.972-14.337 16.254-32.001 16.254-17.572 0-31.849-7.206-31.997-16.113l.127 6.465c0 8.972 14.211 16.254 31.875 16.254s31.871-7.282 31.871-16.254l.127-6.605z" filter="url(#p)" transform="matrix(.7445 0 0 .7445 -73.72 66.37)"/>
 <path d="m227.506-9.681c1.621 5.193-8.056 9.74-22.692 9.74-15.343 0-24.849-4.692-22.692-9.74 2.813-6.584 12.979-9.74 22.692-9.74 9.361 0 20.866 3.888 22.692 9.74z" fill="url(#x)" transform="matrix(.7445 0 0 .7445 -73.72 75)"/>
 <path d="m594.21 637.248c0 69.775-113.128 126.339-252.678 126.339s-252.678-56.564-252.678-126.339 113.128-126.339 252.678-126.339 252.678 56.564 252.678 126.339z" fill="url(#y)" transform="matrix(.0943 0 0 .0957 46.52 2.83)"/>
 <path d="m236.749-14.96c0 8.972-14.337 16.254-32.001 16.254-17.572 0-31.849-7.206-31.997-16.113l.127 6.465c0 8.972 14.211 16.254 31.875 16.254s31.871-7.282 31.871-16.254l.127-6.605z" fill="url(#z)" transform="matrix(.7445 0 0 .7445 -73.72 75)"/>
 <path d="m134.39 526.23c-.286 2.461-.469 4.94-.469 7.438 10.364 61.48 113.231 122.548 252.687 120.125 140.899-2.447 242.961-57.027 252.656-118.571.389-2.468-.151-4.976-.438-7.438-7.709 66.281-117.735 122.793-252.219 122.793s-244.51-58.066-252.219-124.347z" fill="url(#A)" filter="url(#u)" transform="matrix(.0943 0 0 .0957 42.27 13.71)"/>
 <path d="m1050.313 441.161c-.286 2.461-.469 4.94-.469 7.438 0 69.739 113.209 126.344 252.687 126.344s252.656-56.605 252.656-126.344c0-2.497-.151-4.976-.438-7.438-7.709 66.281-117.735 124.906-252.219 124.906s-244.51-58.625-252.219-124.906z" fill="url(#B)" filter="url(#n)" opacity=".51" transform="matrix(.0923 0 0 .0938 -41.55 21.39)"/>
 <path clip-path="url(#m)" d="m162.531 21.443c-17.664 0-32 8.229-32 17.982 0 .168.023.333.031.5.482-9.521 14.609-17.482 31.969-17.482 17.359 0 31.486 7.962 31.969 17.482.008-.167.031-.332.031-.5 0-9.753-14.336-17.982-32-17.982z" fill="url(#C)" filter="url(#o)" transform="matrix(.7445 0 0 .6849 -42.3 36.49)"/>
 <path d="m205-30.625c-12.427 0-26.051 4.054-29.65 10.665-1.748 3.211 4.279 7.867 11.462 7.21 15.588-2.332 32.323-5.26 47.219-8.031-.007-.019.007-.044 0-.063-2.337-5.876-17.054-9.781-29.031-9.781z" fill="url(#D)" filter="url(#t)" transform="matrix(.7445 0 0 .7445 -73.72 75)"/>
 <path clip-path="url(#s)" d="m236.749 26.665c0 8.972-14.337 16.254-32.001 16.254-17.572 0-31.849-7.206-31.997-16.113l.127 6.465c0 8.972 14.211 16.254 31.875 16.254s31.871-7.282 31.871-16.254z" fill="#fff" filter="url(#r)" opacity=".66" transform="matrix(.7445 0 0 .7445 -73.72 48.16)"/>
 <path d="m134.39 526.23c-.286 2.461-.469 4.94-.469 7.438 10.364 61.48 113.217 121.532 252.687 120.125 137.136-1.383 235.202-53.214 252.656-118.571.645-2.415-.151-4.976-.438-7.438-7.709 66.281-117.735 122.793-252.219 122.793s-244.51-58.066-252.219-124.347z" fill="url(#A)" filter="url(#v)" transform="matrix(.0943 0 0 .0957 42.27 13.71)"/>
 <path clip-path="url(#e)" d="m113.9 82.503c0 4.465-4.497 6.61-6.98 8.294-5.109 3.465-13.739 4.525-19.52 4.606-.081 5.781-.234 14.305-3.699 19.413-1.684 2.482-5.791 7.987-8.701 7.987-2.091 1.534 3.488 11.211 6.735 8.32 9.502-8.461 45.999-30.201 54.218-39.442 2.04-2.294-17.072-11.966-22.053-9.178z" filter="url(#f)" opacity=".4"/>
 <path d="m112 82.503c0 4.465-2.797 6.41-5.28 8.094-5.109 3.465-14.939 3.325-20.72 3.406-.081 5.781.166 15.505-3.299 20.613-1.684 2.482-5.291 5.387-8.201 5.387 2.318 0 4.743-1.335 7.584-4.085 9.142-8.849 17.367-16.135 25.673-25.298 1.919-2.117 4.243-3.642 4.243-8.118z" fill="url(#j)"/>
 <path d="m112.019 83.213c-.316 3.899-3.123 5.903-5.45 7.481-5.109 3.465-14.738 3.125-20.519 3.206-.081 5.781.153 15.516-3.313 20.625-1.473 2.172-4.399 4.66-7.063 5.25 1.98-.362 3.885-1.661 6.269-3.969.339-.389.574-.679 1.106-1.5 3.465-5.109 3.232-14.313 3.313-20.094 5.781-.081 15.41.059 20.519-3.406.465-.316 1.594-1.188 2.006-1.6 1.536-1.536 2.902-2.613 3.131-5.994zm-36.344 36.563c-.158.035-.313.041-.469.063.157-.017.31-.034.469-.063z" fill="#fff"/>
 <path clip-path="url(#i)" d="m117.315 81.861-44.675 43.487" fill="none" filter="url(#k)" stroke="url(#l)" stroke-width=".8"/>
 <g fill="url(#J)" opacity=".8" transform="matrix(.144 0 0 .1646 9.21 18.82)">
  <path d="m17.638 8.2c-.242 0-.438.223-.438.5v19.8h94.6v-19.8c0-.277-.195-.5-.438-.5z" fill="url(#K)" opacity="1" transform="matrix(6.9452 0 0 6.0771 -63.9 -114.33)"/>
  <g fill="#fff" transform="matrix(0 -.35 .4 0 176.62 185.94)">
   <path d="m465.497 75.866h133.696c13.37 0 24.308-10.939 24.308-24.308v-133.696c0-13.37-10.939-24.308-24.308-24.308h-97.233v34.726h74.661c6.685 0 12.154 5.469 12.154 12.154v88.552c0 6.685-5.469 12.154-12.154 12.154h-88.552c-6.685 0-12.154-5.469-12.154-12.154v-74.661h-34.726v97.234c0 13.367 10.939 24.308 24.308 24.308z"/>
   <path d="m441.189-106.447h22.572c6.688 0 12.154 5.469 12.154 12.154v22.572h-22.572c-6.682 0-12.154-5.469-12.154-12.154z"/>
  </g>
 </g>
 <g stroke-width=".1">
  <circle cx="10" cy="14" fill="url(#F)" r="2" transform="matrix(.7462 0 0 .7462 12.36 8.5)"/>
  <circle cx="10" cy="14" fill="url(#G)" r="1.56" transform="matrix(.8572 0 0 .8572 11.24 6.95)"/>
  <circle cx="10" cy="14" fill="url(#F)" r="2" transform="matrix(.7462 0 0 .7462 12.36 22.26)"/>
  <circle cx="10" cy="14" fill="url(#G)" r="1.56" transform="matrix(.8572 0 0 .8572 11.24 20.71)"/>
  <circle cx="10" cy="14" fill="url(#F)" r="2" transform="matrix(.7462 0 0 .7462 12.36 29.14)"/>
  <circle cx="10" cy="14" fill="url(#G)" r="1.56" transform="matrix(.8572 0 0 .8572 11.24 27.59)"/>
  <circle cx="10" cy="14" fill="url(#F)" r="2" transform="matrix(.7462 0 0 .7462 12.36 36.03)"/>
  <circle cx="10" cy="14" fill="url(#G)" r="1.56" transform="matrix(.8572 0 0 .8572 11.24 34.48)"/>
  <circle cx="10" cy="14" fill="url(#F)" r="2" transform="matrix(.7462 0 0 .7462 12.36 42.91)"/>
  <circle cx="10" cy="14" fill="url(#G)" r="1.56" transform="matrix(.8572 0 0 .8572 11.24 41.36)"/>
  <circle cx="10" cy="14" fill="url(#F)" r="2" transform="matrix(.7462 0 0 .7462 12.36 49.79)"/>
  <circle cx="10" cy="14" fill="url(#G)" r="1.56" transform="matrix(.8572 0 0 .8572 11.24 48.24)"/>
  <circle cx="10" cy="14" fill="url(#F)" r="2" transform="matrix(.7462 0 0 .7462 12.36 56.67)"/>
  <circle cx="10" cy="14" fill="url(#G)" r="1.56" transform="matrix(.8572 0 0 .8572 11.24 55.12)"/>
  <circle cx="10" cy="14" fill="url(#F)" r="2" transform="matrix(.7462 0 0 .7462 12.36 63.55)"/>
  <circle cx="10" cy="14" fill="url(#G)" r="1.56" transform="matrix(.8572 0 0 .8572 11.24 62)"/>
  <circle cx="10" cy="14" fill="url(#F)" r="2" transform="matrix(.7462 0 0 .7462 12.36 70.43)"/>
  <circle cx="10" cy="14" fill="url(#G)" r="1.56" transform="matrix(.8572 0 0 .8572 11.24 68.88)"/>
  <circle cx="10" cy="14" fill="url(#F)" r="2" transform="matrix(.7462 0 0 .7462 12.36 77.31)"/>
  <circle cx="10" cy="14" fill="url(#G)" r="1.56" transform="matrix(.8572 0 0 .8572 11.24 75.76)"/>
  <circle cx="10" cy="14" fill="url(#F)" r="2" transform="matrix(.7462 0 0 .7462 12.36 84.2)"/>
  <circle cx="10" cy="14" fill="url(#G)" r="1.56" transform="matrix(.8572 0 0 .8572 11.24 82.65)"/>
  <circle cx="10" cy="14" fill="url(#F)" r="2" transform="matrix(.7462 0 0 .7462 12.36 91.08)"/>
  <circle cx="10" cy="14" fill="url(#G)" r="1.56" transform="matrix(.8572 0 0 .8572 11.24 89.53)"/>
  <circle cx="10" cy="14" fill="url(#F)" r="2" transform="matrix(.7462 0 0 .7462 12.36 97.96)"/>
  <circle cx="10" cy="14" fill="url(#G)" r="1.56" transform="matrix(.8572 0 0 .8572 11.24 96.41)"/>
  <circle cx="10" cy="14" fill="url(#F)" r="2" transform="matrix(.7462 0 0 .7462 12.36 15.38)"/>
  <circle cx="10" cy="14" fill="url(#G)" r="1.56" transform="matrix(.8572 0 0 .8572 11.24 13.83)"/>
  <circle cx="10" cy="14" fill="url(#F)" r="2" transform="matrix(.7462 0 0 .7462 12.36 1.62)"/>
  <circle cx="10" cy="14" fill="url(#G)" r="1.56" transform="matrix(.8572 0 0 .8572 11.24 .07)"/>
  <circle cx="10" cy="14" fill="url(#F)" r="2" transform="matrix(.7462 0 0 .7462 12.36 104.84)"/>
  <circle cx="10" cy="14" fill="url(#G)" r="1.56" transform="matrix(.8572 0 0 .8572 11.24 103.29)"/>
 </g>
</svg>
