<?xml version="1.0" encoding="UTF-8" standalone="no"?>
<svg xmlns="http://www.w3.org/2000/svg" xmlns:xlink="http://www.w3.org/1999/xlink" width="128" height="128">
  <pattern id="bf" patternTransform="matrix(.03958 0 0 .0259 -210 0)" xlink:href="#a"/>
  <linearGradient id="b" gradientUnits="userSpaceOnUse">
    <stop offset="0" stop-color="#fff"/>
    <stop offset="1" stop-color="#fff" stop-opacity="0"/>
  </linearGradient>
  <linearGradient id="h" gradientUnits="userSpaceOnUse">
    <stop offset="0" stop-color="#908e00"/>
    <stop offset="1" stop-color="#908e00" stop-opacity="0"/>
  </linearGradient>
  <linearGradient id="f" gradientUnits="userSpaceOnUse">
    <stop offset="0" stop-color="#ffdd6d"/>
    <stop offset="1" stop-color="#813d0a"/>
  </linearGradient>
  <linearGradient id="e" gradientUnits="userSpaceOnUse">
    <stop offset="0" stop-color="#ebebeb"/>
    <stop offset="1" stop-color="#c1c1c1"/>
  </linearGradient>
  <linearGradient id="d" gradientUnits="userSpaceOnUse">
    <stop offset="0" stop-color="#3f3f3f"/>
    <stop offset="1" stop-color="#5d5d5d"/>
  </linearGradient>
  <linearGradient id="c" x1="27.16" x2="27.16" y1="35.6" y2="27.49" xlink:href="#b"/>
  <mask id="ba">
    <path fill="url(#c)" d="M30.469 30.79a3.305 3.305 0 1 1-6.61 0 3.305 3.305 0 1 1 6.61 0z" transform="translate(-7.84 -8.89) scale(1.28856)"/>
  </mask>
  <filter id="bc" width="1.22" height="1.44" x="-.11" y="-.22">
    <feGaussianBlur stdDeviation=".362"/>
  </filter>
  <radialGradient id="aR" cx="57.63" cy="55.92" r="52.74" fx="58.09" fy="13.76" gradientTransform="matrix(1.79472 0 0 .9625 -39.62 1.78)" xlink:href="#d"/>
  <radialGradient id="aS" cx="78.97" cy="46.87" r="45.9" gradientTransform="matrix(.8912 .03534 -.0133 .2827 13.94 52.04)" xlink:href="#e"/>
  <radialGradient id="aQ" cx="54.99" cy="139.35" r="49.29" gradientTransform="matrix(1.3417 0 0 .18124 -12.91 68.95)" gradientUnits="userSpaceOnUse">
    <stop offset="0"/>
    <stop offset="1" stop-color="#454545"/>
  </radialGradient>
  <radialGradient id="aN" cx="54.99" cy="139.35" r="49.29" gradientTransform="matrix(1.3417 0 0 .18124 -12.91 69.06)" xlink:href="#d"/>
  <linearGradient id="an" x1="8.49" x2="9.72" y1="98.08" y2="97.94" gradientTransform="matrix(1.11731 0 0 1.02612 -.57 -2.8)" xlink:href="#f"/>
  <linearGradient id="ao" x1="8.49" x2="9.72" y1="98.08" y2="97.94" gradientTransform="matrix(1.11731 0 0 1.02612 3.89 -2.8)" xlink:href="#f"/>
  <linearGradient id="ap" x1="8.49" x2="9.72" y1="98.08" y2="97.94" gradientTransform="matrix(1.11731 0 0 1.02612 8.36 -2.8)" xlink:href="#f"/>
  <linearGradient id="aq" x1="8.49" x2="9.72" y1="98.08" y2="97.94" gradientTransform="matrix(1.11731 0 0 1.02612 12.83 -2.8)" xlink:href="#f"/>
  <linearGradient id="ar" x1="8.49" x2="9.72" y1="98.08" y2="97.94" gradientTransform="matrix(1.11731 0 0 1.02612 17.3 -2.8)" xlink:href="#f"/>
  <linearGradient id="as" x1="8.49" x2="9.72" y1="98.08" y2="97.94" gradientTransform="matrix(1.11731 0 0 1.02612 21.77 -2.8)" xlink:href="#f"/>
  <linearGradient id="at" x1="8.49" x2="9.72" y1="98.08" y2="97.94" gradientTransform="matrix(1.11731 0 0 1.02612 26.24 -2.8)" xlink:href="#f"/>
  <linearGradient id="au" x1="8.49" x2="9.72" y1="98.08" y2="97.94" gradientTransform="matrix(1.11731 0 0 1.02612 30.71 -2.8)" xlink:href="#f"/>
  <linearGradient id="av" x1="8.49" x2="9.72" y1="98.08" y2="97.94" gradientTransform="matrix(1.11731 0 0 1.02612 35.18 -2.8)" xlink:href="#f"/>
  <linearGradient id="aw" x1="8.49" x2="9.72" y1="98.08" y2="97.94" gradientTransform="matrix(1.11731 0 0 1.02612 39.65 -2.8)" xlink:href="#f"/>
  <linearGradient id="ax" x1="8.49" x2="9.72" y1="98.08" y2="97.94" gradientTransform="matrix(1.11731 0 0 1.02612 44.12 -2.8)" xlink:href="#f"/>
  <linearGradient id="ay" x1="8.49" x2="9.72" y1="98.08" y2="97.94" gradientTransform="matrix(1.11731 0 0 1.02612 48.59 -2.8)" xlink:href="#f"/>
  <linearGradient id="az" x1="8.49" x2="9.72" y1="98.08" y2="97.94" gradientTransform="matrix(1.11731 0 0 1.02612 53.06 -2.8)" xlink:href="#f"/>
  <linearGradient id="aA" x1="8.49" x2="9.72" y1="98.08" y2="97.94" gradientTransform="matrix(1.11731 0 0 1.02612 57.53 -2.8)" xlink:href="#f"/>
  <linearGradient id="aB" x1="8.49" x2="9.72" y1="98.08" y2="97.94" gradientTransform="matrix(1.11731 0 0 1.02612 62 -2.8)" xlink:href="#f"/>
  <linearGradient id="aC" x1="8.49" x2="9.72" y1="98.08" y2="97.94" gradientTransform="matrix(1.11731 0 0 1.02612 66.46 -2.8)" xlink:href="#f"/>
  <linearGradient id="aD" x1="8.49" x2="9.72" y1="98.08" y2="97.94" gradientTransform="matrix(1.11731 0 0 1.02612 70.93 -2.8)" xlink:href="#f"/>
  <linearGradient id="aE" x1="8.49" x2="9.72" y1="98.08" y2="97.94" gradientTransform="matrix(1.11731 0 0 1.02612 75.4 -2.8)" xlink:href="#f"/>
  <linearGradient id="aF" x1="8.49" x2="9.72" y1="98.08" y2="97.94" gradientTransform="matrix(1.11731 0 0 1.02612 79.87 -2.8)" xlink:href="#f"/>
  <linearGradient id="aG" x1="8.49" x2="9.72" y1="98.08" y2="97.94" gradientTransform="matrix(1.11731 0 0 1.02612 84.34 -2.8)" xlink:href="#f"/>
  <linearGradient id="aH" x1="8.49" x2="9.72" y1="98.08" y2="97.94" gradientTransform="matrix(1.11731 0 0 1.02612 88.81 -2.8)" xlink:href="#f"/>
  <linearGradient id="aI" x1="8.49" x2="9.72" y1="98.08" y2="97.94" gradientTransform="matrix(1.11731 0 0 1.02612 93.28 -2.8)" xlink:href="#f"/>
  <linearGradient id="aJ" x1="8.49" x2="9.72" y1="98.08" y2="97.94" gradientTransform="matrix(1.11731 0 0 1.02612 97.75 -2.8)" xlink:href="#f"/>
  <linearGradient id="aK" x1="8.49" x2="9.72" y1="98.08" y2="97.94" gradientTransform="matrix(1.11731 0 0 1.02612 102.22 -2.8)" xlink:href="#f"/>
  <linearGradient id="P" x1="8.49" x2="9.72" y1="98.08" y2="97.94" gradientTransform="matrix(1.10293 0 0 1.02612 1.78 -5.47)" xlink:href="#f"/>
  <linearGradient id="Q" x1="8.49" x2="9.72" y1="98.08" y2="97.94" gradientTransform="matrix(1.10293 0 0 1.02612 6.19 -5.47)" xlink:href="#f"/>
  <linearGradient id="R" x1="8.49" x2="9.72" y1="98.08" y2="97.94" gradientTransform="matrix(1.10293 0 0 1.02612 10.61 -5.47)" xlink:href="#f"/>
  <linearGradient id="S" x1="8.49" x2="9.72" y1="98.08" y2="97.94" gradientTransform="matrix(1.10293 0 0 1.02612 15.02 -5.47)" xlink:href="#f"/>
  <linearGradient id="T" x1="8.49" x2="9.72" y1="98.08" y2="97.94" gradientTransform="matrix(1.10293 0 0 1.02612 19.43 -5.47)" xlink:href="#f"/>
  <linearGradient id="U" x1="8.49" x2="9.72" y1="98.08" y2="97.94" gradientTransform="matrix(1.10293 0 0 1.02612 23.84 -5.47)" xlink:href="#f"/>
  <linearGradient id="V" x1="8.49" x2="9.72" y1="98.08" y2="97.94" gradientTransform="matrix(1.10293 0 0 1.02612 28.25 -5.47)" xlink:href="#f"/>
  <linearGradient id="W" x1="8.49" x2="9.72" y1="98.08" y2="97.94" gradientTransform="matrix(1.10293 0 0 1.02612 32.66 -5.47)" xlink:href="#f"/>
  <linearGradient id="X" x1="8.49" x2="9.72" y1="98.08" y2="97.94" gradientTransform="matrix(1.10293 0 0 1.02612 37.08 -5.47)" xlink:href="#f"/>
  <linearGradient id="Y" x1="8.49" x2="9.72" y1="98.08" y2="97.94" gradientTransform="matrix(1.10293 0 0 1.02612 41.49 -5.47)" xlink:href="#f"/>
  <linearGradient id="Z" x1="8.49" x2="9.72" y1="98.08" y2="97.94" gradientTransform="matrix(1.10293 0 0 1.02612 45.9 -5.47)" xlink:href="#f"/>
  <linearGradient id="aa" x1="8.49" x2="9.72" y1="98.08" y2="97.94" gradientTransform="matrix(1.10293 0 0 1.02612 50.31 -5.47)" xlink:href="#f"/>
  <linearGradient id="ab" x1="8.49" x2="9.72" y1="98.08" y2="97.94" gradientTransform="matrix(1.10293 0 0 1.02612 54.72 -5.47)" xlink:href="#f"/>
  <linearGradient id="ac" x1="8.49" x2="9.72" y1="98.08" y2="97.94" gradientTransform="matrix(1.10293 0 0 1.02612 59.13 -5.47)" xlink:href="#f"/>
  <linearGradient id="ad" x1="8.49" x2="9.72" y1="98.08" y2="97.94" gradientTransform="matrix(1.10293 0 0 1.02612 63.55 -5.47)" xlink:href="#f"/>
  <linearGradient id="ae" x1="8.49" x2="9.72" y1="98.08" y2="97.94" gradientTransform="matrix(1.10293 0 0 1.02612 67.96 -5.47)" xlink:href="#f"/>
  <linearGradient id="af" x1="8.49" x2="9.72" y1="98.08" y2="97.94" gradientTransform="matrix(1.10293 0 0 1.02612 72.37 -5.47)" xlink:href="#f"/>
  <linearGradient id="ag" x1="8.49" x2="9.72" y1="98.08" y2="97.94" gradientTransform="matrix(1.10293 0 0 1.02612 76.78 -5.47)" xlink:href="#f"/>
  <linearGradient id="ah" x1="8.49" x2="9.72" y1="98.08" y2="97.94" gradientTransform="matrix(1.10293 0 0 1.02612 81.19 -5.47)" xlink:href="#f"/>
  <linearGradient id="ai" x1="8.49" x2="9.72" y1="98.08" y2="97.94" gradientTransform="matrix(1.10293 0 0 1.02612 85.6 -5.47)" xlink:href="#f"/>
  <linearGradient id="aj" x1="8.49" x2="9.72" y1="98.08" y2="97.94" gradientTransform="matrix(1.10293 0 0 1.02612 90.02 -5.47)" xlink:href="#f"/>
  <linearGradient id="ak" x1="8.49" x2="9.72" y1="98.08" y2="97.94" gradientTransform="matrix(1.10293 0 0 1.02612 94.43 -5.47)" xlink:href="#f"/>
  <linearGradient id="al" x1="8.49" x2="9.72" y1="98.08" y2="97.94" gradientTransform="matrix(1.10293 0 0 1.02612 98.84 -5.47)" xlink:href="#f"/>
  <linearGradient id="am" x1="8.49" x2="9.72" y1="98.08" y2="97.94" gradientTransform="matrix(1.10293 0 0 1.02612 103.25 -5.47)" xlink:href="#f"/>
  <linearGradient id="r" x1="8.49" x2="9.72" y1="98.08" y2="97.94" gradientTransform="matrix(1.08136 0 0 1.02612 5.65 -8.04)" xlink:href="#f"/>
  <linearGradient id="s" x1="8.49" x2="9.72" y1="98.08" y2="97.94" gradientTransform="matrix(1.08136 0 0 1.02612 9.98 -8.04)" xlink:href="#f"/>
  <linearGradient id="t" x1="8.49" x2="9.72" y1="98.08" y2="97.94" gradientTransform="matrix(1.08136 0 0 1.02612 14.3 -8.04)" xlink:href="#f"/>
  <linearGradient id="u" x1="8.49" x2="9.72" y1="98.08" y2="97.94" gradientTransform="matrix(1.08136 0 0 1.02612 18.63 -8.04)" xlink:href="#f"/>
  <linearGradient id="v" x1="8.49" x2="9.72" y1="98.08" y2="97.94" gradientTransform="matrix(1.08136 0 0 1.02612 22.95 -8.04)" xlink:href="#f"/>
  <linearGradient id="w" x1="8.49" x2="9.72" y1="98.08" y2="97.94" gradientTransform="matrix(1.08136 0 0 1.02612 27.28 -8.04)" xlink:href="#f"/>
  <linearGradient id="x" x1="8.49" x2="9.72" y1="98.08" y2="97.94" gradientTransform="matrix(1.08136 0 0 1.02612 31.61 -8.04)" xlink:href="#f"/>
  <linearGradient id="y" x1="8.49" x2="9.72" y1="98.08" y2="97.94" gradientTransform="matrix(1.08136 0 0 1.02612 35.93 -8.04)" xlink:href="#f"/>
  <linearGradient id="z" x1="8.49" x2="9.72" y1="98.08" y2="97.94" gradientTransform="matrix(1.08136 0 0 1.02612 40.26 -8.04)" xlink:href="#f"/>
  <linearGradient id="A" x1="8.49" x2="9.72" y1="98.08" y2="97.94" gradientTransform="matrix(1.08136 0 0 1.02612 44.58 -8.04)" xlink:href="#f"/>
  <linearGradient id="B" x1="8.49" x2="9.72" y1="98.08" y2="97.94" gradientTransform="matrix(1.08136 0 0 1.02612 48.91 -8.04)" xlink:href="#f"/>
  <linearGradient id="C" x1="8.49" x2="9.72" y1="98.08" y2="97.94" gradientTransform="matrix(1.08136 0 0 1.02612 53.23 -8.04)" xlink:href="#f"/>
  <linearGradient id="D" x1="8.49" x2="9.72" y1="98.08" y2="97.94" gradientTransform="matrix(1.08136 0 0 1.02612 57.56 -8.04)" xlink:href="#f"/>
  <linearGradient id="E" x1="8.49" x2="9.72" y1="98.08" y2="97.94" gradientTransform="matrix(1.08136 0 0 1.02612 61.88 -8.04)" xlink:href="#f"/>
  <linearGradient id="F" x1="8.49" x2="9.72" y1="98.08" y2="97.94" gradientTransform="matrix(1.08136 0 0 1.02612 66.21 -8.04)" xlink:href="#f"/>
  <linearGradient id="G" x1="8.49" x2="9.72" y1="98.08" y2="97.94" gradientTransform="matrix(1.08136 0 0 1.02612 70.53 -8.04)" xlink:href="#f"/>
  <linearGradient id="H" x1="8.49" x2="9.72" y1="98.08" y2="97.94" gradientTransform="matrix(1.08136 0 0 1.02612 74.86 -8.04)" xlink:href="#f"/>
  <linearGradient id="I" x1="8.49" x2="9.72" y1="98.08" y2="97.94" gradientTransform="matrix(1.08136 0 0 1.02612 79.18 -8.04)" xlink:href="#f"/>
  <linearGradient id="J" x1="8.49" x2="9.72" y1="98.08" y2="97.94" gradientTransform="matrix(1.08136 0 0 1.02612 83.51 -8.04)" xlink:href="#f"/>
  <linearGradient id="K" x1="8.49" x2="9.72" y1="98.08" y2="97.94" gradientTransform="matrix(1.08136 0 0 1.02612 87.84 -8.04)" xlink:href="#f"/>
  <linearGradient id="L" x1="8.49" x2="9.72" y1="98.08" y2="97.94" gradientTransform="matrix(1.08136 0 0 1.02612 92.16 -8.04)" xlink:href="#f"/>
  <linearGradient id="M" x1="8.49" x2="9.72" y1="98.08" y2="97.94" gradientTransform="matrix(1.08136 0 0 1.02612 96.49 -8.04)" xlink:href="#f"/>
  <linearGradient id="N" x1="8.49" x2="9.72" y1="98.08" y2="97.94" gradientTransform="matrix(1.08136 0 0 1.02612 100.81 -8.04)" xlink:href="#f"/>
  <linearGradient id="O" x1="8.49" x2="9.72" y1="98.08" y2="97.94" gradientTransform="matrix(1.08136 0 0 1.02612 105.14 -8.04)" xlink:href="#f"/>
  <linearGradient id="aO" x1="15.53" x2="15.47" y1="123.69" y2="115.72" xlink:href="#f"/>
  <radialGradient id="g" cx="9.44" cy="109.8" r="65.88" gradientTransform="matrix(3.1193 .11553 -.0038 .10247 -27.89 106.16)" xlink:href="#b"/>
  <mask id="aP">
    <rect width="131.75" height="19" x="-3" y="110.5" fill="url(#g)" rx=".69"/>
  </mask>
  <filter id="o" width="1.01" height="1.34" x="-.01" y="-.17">
    <feGaussianBlur stdDeviation=".347"/>
  </filter>
  <filter id="q">
    <feGaussianBlur stdDeviation=".088"/>
  </filter>
  <linearGradient id="n" x1="51.42" x2="51.25" y1="102.97" y2="96" xlink:href="#h"/>
  <linearGradient id="p" x1="51.79" x2="51.75" y1="101.72" y2="98.47" xlink:href="#h"/>
  <filter id="m" width="1.02" height="1.44" x="-.01" y="-.22">
    <feGaussianBlur stdDeviation=".455"/>
  </filter>
  <linearGradient id="k" x1="56.92" x2="62.93" y1="24.17" y2="133.07" gradientUnits="userSpaceOnUse">
    <stop offset="0" stop-color="#202020"/>
    <stop offset="1" stop-color="#8f8f64"/>
  </linearGradient>
  <filter id="l" width="1.13" height="1.22" x="-.06" y="-.11">
    <feGaussianBlur stdDeviation="3.058"/>
  </filter>
  <mask id="aY">
    <path fill="#fff" d="M58.58 38.894l-.202.101-1.835 10.586.141.15h15.344l-1.214-10.748-.177-.089z"/>
  </mask>
  <radialGradient id="aZ" cx="23.43" cy="32.44" r="3.37" fx="20.55" fy="30.9" gradientTransform="matrix(5.6822 -4.51591 .76103 2.99133 -108.93 21.15)" gradientUnits="userSpaceOnUse" spreadMethod="reflect">
    <stop offset="0" stop-color="#002192"/>
    <stop offset=".25" stop-color="#a19b00"/>
    <stop offset=".5" stop-color="#006bfe"/>
    <stop offset=".75" stop-color="#5b00c4"/>
    <stop offset="1" stop-color="#66ff62"/>
  </radialGradient>
  <radialGradient id="bb" cx="29.86" cy="30.97" r="3.99" fx="29.7" fy="33.58" gradientTransform="matrix(1 0 0 .5 0 15.49)" xlink:href="#b"/>
  <radialGradient id="aT" cx="115.88" cy="88.3" r=".36" fx="115.9" fy="88.08" gradientTransform="matrix(9.6087 -.31944 .4341 11.0134 -1036.04 -845.26)" xlink:href="#b"/>
  <linearGradient id="aL" x1="4.91" x2="7.52" y1="90.31" y2="94.09" xlink:href="#e"/>
  <radialGradient id="aV" cx="6.02" cy="90.61" r=".42" gradientTransform="matrix(5.2963 .14815 -.24647 8.81137 -3.51 -708.55)" xlink:href="#b"/>
  <filter id="aU" width="1.02" height="1.26" x="-.01" y="-.13">
    <feGaussianBlur stdDeviation=".366"/>
  </filter>
  <radialGradient id="bd" cx="23.5" cy="19.62" r="25.12" gradientTransform="matrix(6.22959 0 0 2.38595 -122.87 -21.33)" xlink:href="#b"/>
  <filter id="aW" width="1.23" height="1.03" x="-.12" y="-.01">
    <feGaussianBlur stdDeviation=".041"/>
  </filter>
  <filter id="aM">
    <feGaussianBlur stdDeviation=".041"/>
  </filter>
  <radialGradient id="i" cx="61" cy="66.25" r="125" gradientTransform="matrix(1 0 0 .382 0 40.94)" xlink:href="#b"/>
  <mask id="aX">
    <path fill="url(#i)" d="M186 66.25a125 47.75 0 1 1-250 0 125 47.75 0 1 1 250 0z"/>
  </mask>
  <filter id="be">
    <feGaussianBlur stdDeviation=".04"/>
  </filter>
  <filter id="j">
    <feGaussianBlur stdDeviation=".913"/>
  </filter>
  <clipPath id="bg">
    <path d="M24.188 24l-1.282.688-18 61.624.407 7.063.906.938h109.375l6.75-6.72.406-6.78-16.406-56.282-1.125-.531z" filter="url(#j)"/>
  </clipPath>
  <linearGradient id="bh" x1="75.95" x2="75.95" y1="12.36" y2="113.73" gradientUnits="userSpaceOnUse">
    <stop offset="0"/>
    <stop offset="1" stop-opacity="0"/>
  </linearGradient>
  <path fill="url(#k)" fill-rule="evenodd" d="M122.683 92.584l-6.364 6.01-108.187-.353 17.677-67.882h81.494l15.38 62.225z" filter="url(#l)" opacity=".604" transform="matrix(1 0 0 .91838 -2 10.31)"/>
  <g filter="url(#m)" opacity=".524" transform="matrix(.96389 0 0 .91838 7.11 3.54)">
    <path fill="url(#n)" d="M17.063 96l-7.657 4.25c-.692.383-.945.688-.562.688s1.245-.305 1.937-.688L18.437 96zm4.468 0l-7.656 4.25c-.692.383-.945.688-.563.688s1.246-.305 1.938-.688L22.906 96zM26 96l-7.656 4.25c-.692.383-.946.688-.563.688s1.246-.305 1.938-.688L27.375 96zm4.469 0l-7.657 4.25c-.691.383-.945.688-.562.688s1.246-.305 1.938-.688L31.843 96zm4.468 0l-7.656 4.25c-.692.383-.945.688-.562.688s1.245-.305 1.937-.688L36.313 96zm4.47 0l-7.657 4.25c-.692.383-.945.688-.563.688s1.246-.305 1.938-.688L40.781 96zm4.468 0l-7.656 4.25c-.692.383-.946.688-.563.688s1.246-.305 1.938-.688L45.25 96zm4.469 0l-7.657 4.25c-.691.383-.945.688-.562.688s1.246-.305 1.938-.688L49.718 96zm4.468 0l-7.656 4.25c-.692.383-.945.688-.562.688s1.245-.305 1.937-.688L54.188 96zm4.47 0l-7.657 4.25c-.692.383-.945.688-.563.688s1.246-.305 1.938-.688L58.656 96zm4.468 0l-7.656 4.25c-.692.383-.946.688-.563.688s1.246-.305 1.938-.688L63.125 96zm4.469 0l-7.656 4.25c-.692.383-.946.688-.563.688s1.246-.305 1.938-.688L67.594 96zm4.469 0l-7.657 4.25c-.692.383-.945.688-.562.688s1.245-.305 1.937-.688L72.062 96zm4.468 0l-7.656 4.25c-.692.383-.945.688-.563.688s1.246-.305 1.938-.688L76.531 96zm4.469 0l-7.656 4.25c-.692.383-.946.688-.563.688s1.246-.305 1.938-.688L81 96zm4.469 0l-7.656 4.25c-.692.383-.946.688-.563.688s1.246-.305 1.938-.688L85.469 96zm4.469 0l-7.657 4.25c-.692.383-.945.688-.562.688s1.277-.305 1.969-.688L89.969 96zm4.468 0l-7.656 4.25c-.692.383-.945.688-.563.688s1.277-.305 1.97-.688L94.437 96zm4.469 0l-7.656 4.25c-.692.383-.946.688-.563.688s1.277-.305 1.969-.688L98.906 96zm4.469 0l-7.656 4.25c-.692.383-.946.688-.563.688s1.277-.305 1.969-.688l7.656-4.25zm4.469 0l-7.657 4.25c-.692.383-.945.688-.562.688s1.277-.305 1.969-.688l7.656-4.25zm4.468 0l-7.656 4.25c-.692.383-.945.688-.563.688s1.277-.305 1.97-.688l7.656-4.25zm4.469 0l-7.656 4.25c-.692.383-.946.688-.563.688s1.277-.305 1.969-.688l7.656-4.25zm4.469 0l-7.656 4.25c-.692.383-.946.688-.563.688s1.277-.305 1.969-.688L121.25 96z" filter="url(#o)"/>
    <path fill="url(#p)" d="M17.063 96l-7.657 4.25c-.692.383-.945.688-.562.688s1.245-.305 1.937-.688L18.437 96zm4.468 0l-7.656 4.25c-.692.383-.945.688-.563.688s1.246-.305 1.938-.688L22.906 96zM26 96l-7.656 4.25c-.692.383-.946.688-.563.688s1.246-.305 1.938-.688L27.375 96zm4.469 0l-7.657 4.25c-.691.383-.945.688-.562.688s1.246-.305 1.938-.688L31.843 96zm4.468 0l-7.656 4.25c-.692.383-.945.688-.562.688s1.245-.305 1.937-.688L36.313 96zm4.47 0l-7.657 4.25c-.692.383-.945.688-.563.688s1.246-.305 1.938-.688L40.781 96zm4.468 0l-7.656 4.25c-.692.383-.946.688-.563.688s1.246-.305 1.938-.688L45.25 96zm4.469 0l-7.657 4.25c-.691.383-.945.688-.562.688s1.246-.305 1.938-.688L49.718 96zm4.468 0l-7.656 4.25c-.692.383-.945.688-.562.688s1.245-.305 1.937-.688L54.188 96zm4.47 0l-7.657 4.25c-.692.383-.945.688-.563.688s1.246-.305 1.938-.688L58.656 96zm4.468 0l-7.656 4.25c-.692.383-.946.688-.563.688s1.246-.305 1.938-.688L63.125 96zm4.469 0l-7.656 4.25c-.692.383-.946.688-.563.688s1.246-.305 1.938-.688L67.594 96zm4.469 0l-7.657 4.25c-.692.383-.945.688-.562.688s1.245-.305 1.937-.688L72.062 96zm4.468 0l-7.656 4.25c-.692.383-.945.688-.563.688s1.246-.305 1.938-.688L76.531 96zm4.469 0l-7.656 4.25c-.692.383-.946.688-.563.688s1.246-.305 1.938-.688L81 96zm4.469 0l-7.656 4.25c-.692.383-.946.688-.563.688s1.246-.305 1.938-.688L85.469 96zm4.469 0l-7.657 4.25c-.692.383-.945.688-.562.688s1.277-.305 1.969-.688L89.969 96zm4.468 0l-7.656 4.25c-.692.383-.945.688-.563.688s1.277-.305 1.97-.688L94.437 96zm4.469 0l-7.656 4.25c-.692.383-.946.688-.563.688s1.277-.305 1.969-.688L98.906 96zm4.469 0l-7.656 4.25c-.692.383-.946.688-.563.688s1.277-.305 1.969-.688l7.656-4.25zm4.469 0l-7.657 4.25c-.692.383-.945.688-.562.688s1.277-.305 1.969-.688l7.656-4.25zm4.468 0l-7.656 4.25c-.692.383-.945.688-.563.688s1.277-.305 1.97-.688l7.656-4.25zm4.469 0l-7.656 4.25c-.692.383-.946.688-.563.688s1.277-.305 1.969-.688l7.656-4.25zm4.469 0l-7.656 4.25c-.692.383-.946.688-.563.688s1.277-.305 1.969-.688L121.25 96z" filter="url(#q)"/>
  </g>
  <g opacity=".72">
    <path fill="url(#n)" d="M17.063 96l-7.657 4.25c-.692.383-.945.688-.562.688s1.245-.305 1.937-.688L18.437 96zm4.468 0l-7.656 4.25c-.692.383-.945.688-.563.688s1.246-.305 1.938-.688L22.906 96zM26 96l-7.656 4.25c-.692.383-.946.688-.563.688s1.246-.305 1.938-.688L27.375 96zm4.469 0l-7.657 4.25c-.691.383-.945.688-.562.688s1.246-.305 1.938-.688L31.843 96zm4.468 0l-7.656 4.25c-.692.383-.945.688-.562.688s1.245-.305 1.937-.688L36.313 96zm4.47 0l-7.657 4.25c-.692.383-.945.688-.563.688s1.246-.305 1.938-.688L40.781 96zm4.468 0l-7.656 4.25c-.692.383-.946.688-.563.688s1.246-.305 1.938-.688L45.25 96zm4.469 0l-7.657 4.25c-.691.383-.945.688-.562.688s1.246-.305 1.938-.688L49.718 96zm4.468 0l-7.656 4.25c-.692.383-.945.688-.562.688s1.245-.305 1.937-.688L54.188 96zm4.47 0l-7.657 4.25c-.692.383-.945.688-.563.688s1.246-.305 1.938-.688L58.656 96zm4.468 0l-7.656 4.25c-.692.383-.946.688-.563.688s1.246-.305 1.938-.688L63.125 96zm4.469 0l-7.656 4.25c-.692.383-.946.688-.563.688s1.246-.305 1.938-.688L67.594 96zm4.469 0l-7.657 4.25c-.692.383-.945.688-.562.688s1.245-.305 1.937-.688L72.062 96zm4.468 0l-7.656 4.25c-.692.383-.945.688-.563.688s1.246-.305 1.938-.688L76.531 96zm4.469 0l-7.656 4.25c-.692.383-.946.688-.563.688s1.246-.305 1.938-.688L81 96zm4.469 0l-7.656 4.25c-.692.383-.946.688-.563.688s1.246-.305 1.938-.688L85.469 96zm4.469 0l-7.657 4.25c-.692.383-.945.688-.562.688s1.277-.305 1.969-.688L89.969 96zm4.468 0l-7.656 4.25c-.692.383-.945.688-.563.688s1.277-.305 1.97-.688L94.437 96zm4.469 0l-7.656 4.25c-.692.383-.946.688-.563.688s1.277-.305 1.969-.688L98.906 96zm4.469 0l-7.656 4.25c-.692.383-.946.688-.563.688s1.277-.305 1.969-.688l7.656-4.25zm4.469 0l-7.657 4.25c-.692.383-.945.688-.562.688s1.277-.305 1.969-.688l7.656-4.25zm4.468 0l-7.656 4.25c-.692.383-.945.688-.563.688s1.277-.305 1.97-.688l7.656-4.25zm4.469 0l-7.656 4.25c-.692.383-.946.688-.563.688s1.277-.305 1.969-.688l7.656-4.25zm4.469 0l-7.656 4.25c-.692.383-.946.688-.563.688s1.277-.305 1.969-.688L121.25 96z" filter="url(#o)" transform="matrix(.98744 0 0 .91838 2.91 6.29)"/>
    <path fill="url(#p)" d="M17.063 96l-7.657 4.25c-.692.383-.945.688-.562.688s1.245-.305 1.937-.688L18.437 96zm4.468 0l-7.656 4.25c-.692.383-.945.688-.563.688s1.246-.305 1.938-.688L22.906 96zM26 96l-7.656 4.25c-.692.383-.946.688-.563.688s1.246-.305 1.938-.688L27.375 96zm4.469 0l-7.657 4.25c-.691.383-.945.688-.562.688s1.246-.305 1.938-.688L31.843 96zm4.468 0l-7.656 4.25c-.692.383-.945.688-.562.688s1.245-.305 1.937-.688L36.313 96zm4.47 0l-7.657 4.25c-.692.383-.945.688-.563.688s1.246-.305 1.938-.688L40.781 96zm4.468 0l-7.656 4.25c-.692.383-.946.688-.563.688s1.246-.305 1.938-.688L45.25 96zm4.469 0l-7.657 4.25c-.691.383-.945.688-.562.688s1.246-.305 1.938-.688L49.718 96zm4.468 0l-7.656 4.25c-.692.383-.945.688-.562.688s1.245-.305 1.937-.688L54.188 96zm4.47 0l-7.657 4.25c-.692.383-.945.688-.563.688s1.246-.305 1.938-.688L58.656 96zm4.468 0l-7.656 4.25c-.692.383-.946.688-.563.688s1.246-.305 1.938-.688L63.125 96zm4.469 0l-7.656 4.25c-.692.383-.946.688-.563.688s1.246-.305 1.938-.688L67.594 96zm4.469 0l-7.657 4.25c-.692.383-.945.688-.562.688s1.245-.305 1.937-.688L72.062 96zm4.468 0l-7.656 4.25c-.692.383-.945.688-.563.688s1.246-.305 1.938-.688L76.531 96zm4.469 0l-7.656 4.25c-.692.383-.946.688-.563.688s1.246-.305 1.938-.688L81 96zm4.469 0l-7.656 4.25c-.692.383-.946.688-.563.688s1.246-.305 1.938-.688L85.469 96zm4.469 0l-7.657 4.25c-.692.383-.945.688-.562.688s1.277-.305 1.969-.688L89.969 96zm4.468 0l-7.656 4.25c-.692.383-.945.688-.563.688s1.277-.305 1.97-.688L94.437 96zm4.469 0l-7.656 4.25c-.692.383-.946.688-.563.688s1.277-.305 1.969-.688L98.906 96zm4.469 0l-7.656 4.25c-.692.383-.946.688-.563.688s1.277-.305 1.969-.688l7.656-4.25zm4.469 0l-7.657 4.25c-.692.383-.945.688-.562.688s1.277-.305 1.969-.688l7.656-4.25zm4.468 0l-7.656 4.25c-.692.383-.945.688-.563.688s1.277-.305 1.97-.688l7.656-4.25zm4.469 0l-7.656 4.25c-.692.383-.946.688-.563.688s1.277-.305 1.969-.688l7.656-4.25zm4.469 0l-7.656 4.25c-.692.383-.946.688-.563.688s1.277-.305 1.969-.688L121.25 96z" filter="url(#q)" transform="matrix(.98744 0 0 .91838 2.91 6.29)"/>
  </g>
  <path fill="url(#n)" d="M17.063 96l-7.657 4.25c-.692.383-.945.688-.562.688s1.245-.305 1.937-.688L18.437 96zm4.468 0l-7.656 4.25c-.692.383-.945.688-.563.688s1.246-.305 1.938-.688L22.906 96zM26 96l-7.656 4.25c-.692.383-.946.688-.563.688s1.246-.305 1.938-.688L27.375 96zm4.469 0l-7.657 4.25c-.691.383-.945.688-.562.688s1.246-.305 1.938-.688L31.843 96zm4.468 0l-7.656 4.25c-.692.383-.945.688-.562.688s1.245-.305 1.937-.688L36.313 96zm4.47 0l-7.657 4.25c-.692.383-.945.688-.563.688s1.246-.305 1.938-.688L40.781 96zm4.468 0l-7.656 4.25c-.692.383-.946.688-.563.688s1.246-.305 1.938-.688L45.25 96zm4.469 0l-7.657 4.25c-.691.383-.945.688-.562.688s1.246-.305 1.938-.688L49.718 96zm4.468 0l-7.656 4.25c-.692.383-.945.688-.562.688s1.245-.305 1.937-.688L54.188 96zm4.47 0l-7.657 4.25c-.692.383-.945.688-.563.688s1.246-.305 1.938-.688L58.656 96zm4.468 0l-7.656 4.25c-.692.383-.946.688-.563.688s1.246-.305 1.938-.688L63.125 96zm4.469 0l-7.656 4.25c-.692.383-.946.688-.563.688s1.246-.305 1.938-.688L67.594 96zm4.469 0l-7.657 4.25c-.692.383-.945.688-.562.688s1.245-.305 1.937-.688L72.062 96zm4.468 0l-7.656 4.25c-.692.383-.945.688-.563.688s1.246-.305 1.938-.688L76.531 96zm4.469 0l-7.656 4.25c-.692.383-.946.688-.563.688s1.246-.305 1.938-.688L81 96zm4.469 0l-7.656 4.25c-.692.383-.946.688-.563.688s1.246-.305 1.938-.688L85.469 96zm4.469 0l-7.657 4.25c-.692.383-.945.688-.562.688s1.277-.305 1.969-.688L89.969 96zm4.468 0l-7.656 4.25c-.692.383-.945.688-.563.688s1.277-.305 1.97-.688L94.437 96zm4.469 0l-7.656 4.25c-.692.383-.946.688-.563.688s1.277-.305 1.969-.688L98.906 96zm4.469 0l-7.656 4.25c-.692.383-.946.688-.563.688s1.277-.305 1.969-.688l7.656-4.25zm4.469 0l-7.657 4.25c-.692.383-.945.688-.562.688s1.277-.305 1.969-.688l7.656-4.25zm4.468 0l-7.656 4.25c-.692.383-.945.688-.563.688s1.277-.305 1.97-.688l7.656-4.25zm4.469 0l-7.656 4.25c-.692.383-.946.688-.563.688s1.277-.305 1.969-.688l7.656-4.25zm4.469 0l-7.656 4.25c-.692.383-.946.688-.563.688s1.277-.305 1.969-.688L121.25 96z" filter="url(#o)" transform="matrix(1 0 0 .91838 .8 9.05)"/>
  <path fill="url(#p)" d="M17.063 96l-7.657 4.25c-.692.383-.945.688-.562.688s1.245-.305 1.937-.688L18.437 96zm4.468 0l-7.656 4.25c-.692.383-.945.688-.563.688s1.246-.305 1.938-.688L22.906 96zM26 96l-7.656 4.25c-.692.383-.946.688-.563.688s1.246-.305 1.938-.688L27.375 96zm4.469 0l-7.657 4.25c-.691.383-.945.688-.562.688s1.246-.305 1.938-.688L31.843 96zm4.468 0l-7.656 4.25c-.692.383-.945.688-.562.688s1.245-.305 1.937-.688L36.313 96zm4.47 0l-7.657 4.25c-.692.383-.945.688-.563.688s1.246-.305 1.938-.688L40.781 96zm4.468 0l-7.656 4.25c-.692.383-.946.688-.563.688s1.246-.305 1.938-.688L45.25 96zm4.469 0l-7.657 4.25c-.691.383-.945.688-.562.688s1.246-.305 1.938-.688L49.718 96zm4.468 0l-7.656 4.25c-.692.383-.945.688-.562.688s1.245-.305 1.937-.688L54.188 96zm4.47 0l-7.657 4.25c-.692.383-.945.688-.563.688s1.246-.305 1.938-.688L58.656 96zm4.468 0l-7.656 4.25c-.692.383-.946.688-.563.688s1.246-.305 1.938-.688L63.125 96zm4.469 0l-7.656 4.25c-.692.383-.946.688-.563.688s1.246-.305 1.938-.688L67.594 96zm4.469 0l-7.657 4.25c-.692.383-.945.688-.562.688s1.245-.305 1.937-.688L72.062 96zm4.468 0l-7.656 4.25c-.692.383-.945.688-.563.688s1.246-.305 1.938-.688L76.531 96zm4.469 0l-7.656 4.25c-.692.383-.946.688-.563.688s1.246-.305 1.938-.688L81 96zm4.469 0l-7.656 4.25c-.692.383-.946.688-.563.688s1.246-.305 1.938-.688L85.469 96zm4.469 0l-7.657 4.25c-.692.383-.945.688-.562.688s1.277-.305 1.969-.688L89.969 96zm4.468 0l-7.656 4.25c-.692.383-.945.688-.563.688s1.277-.305 1.97-.688L94.437 96zm4.469 0l-7.656 4.25c-.692.383-.946.688-.563.688s1.277-.305 1.969-.688L98.906 96zm4.469 0l-7.656 4.25c-.692.383-.946.688-.563.688s1.277-.305 1.969-.688l7.656-4.25zm4.469 0l-7.657 4.25c-.692.383-.945.688-.562.688s1.277-.305 1.969-.688l7.656-4.25zm4.468 0l-7.656 4.25c-.692.383-.945.688-.563.688s1.277-.305 1.97-.688l7.656-4.25zm4.469 0l-7.656 4.25c-.692.383-.946.688-.563.688s1.277-.305 1.969-.688l7.656-4.25zm4.469 0l-7.656 4.25c-.692.383-.946.688-.563.688s1.277-.305 1.969-.688L121.25 96z" filter="url(#q)" transform="matrix(1 0 0 .91838 .8 9.05)"/>
  <rect width="1.34" height="8.89" x="14.83" y="87.57" fill="url(#r)" rx=".67" ry=".63"/>
  <rect width="1.34" height="8.89" x="19.15" y="87.57" fill="url(#s)" rx=".67" ry=".63"/>
  <rect width="1.34" height="8.89" x="23.48" y="87.57" fill="url(#t)" rx=".67" ry=".63"/>
  <rect width="1.34" height="8.89" x="27.8" y="87.57" fill="url(#u)" rx=".67" ry=".63"/>
  <rect width="1.34" height="8.89" x="32.13" y="87.57" fill="url(#v)" rx=".67" ry=".63"/>
  <rect width="1.34" height="8.89" x="36.46" y="87.57" fill="url(#w)" rx=".67" ry=".63"/>
  <rect width="1.34" height="8.89" x="40.78" y="87.57" fill="url(#x)" rx=".67" ry=".63"/>
  <rect width="1.34" height="8.89" x="45.11" y="87.57" fill="url(#y)" rx=".67" ry=".63"/>
  <rect width="1.34" height="8.89" x="49.43" y="87.57" fill="url(#z)" rx=".67" ry=".63"/>
  <rect width="1.34" height="8.89" x="53.76" y="87.57" fill="url(#A)" rx=".67" ry=".63"/>
  <rect width="1.34" height="8.89" x="58.08" y="87.57" fill="url(#B)" rx=".67" ry=".63"/>
  <rect width="1.34" height="8.89" x="62.41" y="87.57" fill="url(#C)" rx=".67" ry=".63"/>
  <rect width="1.34" height="8.89" x="66.73" y="87.57" fill="url(#D)" rx=".67" ry=".63"/>
  <rect width="1.34" height="8.89" x="71.06" y="87.57" fill="url(#E)" rx=".67" ry=".63"/>
  <rect width="1.34" height="8.89" x="75.38" y="87.57" fill="url(#F)" rx=".67" ry=".63"/>
  <rect width="1.34" height="8.89" x="79.71" y="87.57" fill="url(#G)" rx=".67" ry=".63"/>
  <rect width="1.34" height="8.89" x="84.03" y="87.57" fill="url(#H)" rx=".67" ry=".63"/>
  <rect width="1.34" height="8.89" x="88.36" y="87.57" fill="url(#I)" rx=".67" ry=".63"/>
  <rect width="1.34" height="8.89" x="92.69" y="87.57" fill="url(#J)" rx=".67" ry=".63"/>
  <rect width="1.34" height="8.89" x="97.01" y="87.57" fill="url(#K)" rx=".67" ry=".63"/>
  <rect width="1.34" height="8.89" x="101.34" y="87.57" fill="url(#L)" rx=".67" ry=".63"/>
  <rect width="1.34" height="8.89" x="105.66" y="87.57" fill="url(#M)" rx=".67" ry=".63"/>
  <rect width="1.34" height="8.89" x="109.99" y="87.57" fill="url(#N)" rx=".67" ry=".63"/>
  <rect width="1.34" height="8.89" x="114.31" y="87.57" fill="url(#O)" rx=".67" ry=".63"/>
  <rect width="1.36" height="8.89" x="11.14" y="90.14" fill="url(#P)" rx=".68" ry=".63"/>
  <rect width="1.36" height="8.89" x="15.55" y="90.14" fill="url(#Q)" rx=".68" ry=".63"/>
  <rect width="1.36" height="8.89" x="19.96" y="90.14" fill="url(#R)" rx=".68" ry=".63"/>
  <rect width="1.36" height="8.89" x="24.38" y="90.14" fill="url(#S)" rx=".68" ry=".63"/>
  <rect width="1.36" height="8.89" x="28.79" y="90.14" fill="url(#T)" rx=".68" ry=".63"/>
  <rect width="1.36" height="8.89" x="33.2" y="90.14" fill="url(#U)" rx=".68" ry=".63"/>
  <rect width="1.36" height="8.89" x="37.61" y="90.14" fill="url(#V)" rx=".68" ry=".63"/>
  <rect width="1.36" height="8.89" x="42.02" y="90.14" fill="url(#W)" rx=".68" ry=".63"/>
  <rect width="1.36" height="8.89" x="46.43" y="90.14" fill="url(#X)" rx=".68" ry=".63"/>
  <rect width="1.36" height="8.89" x="50.85" y="90.14" fill="url(#Y)" rx=".68" ry=".63"/>
  <rect width="1.36" height="8.89" x="55.26" y="90.14" fill="url(#Z)" rx=".68" ry=".63"/>
  <rect width="1.36" height="8.89" x="59.67" y="90.14" fill="url(#aa)" rx=".68" ry=".63"/>
  <rect width="1.36" height="8.89" x="64.08" y="90.14" fill="url(#ab)" rx=".68" ry=".63"/>
  <rect width="1.36" height="8.89" x="68.49" y="90.14" fill="url(#ac)" rx=".68" ry=".63"/>
  <rect width="1.36" height="8.89" x="72.9" y="90.14" fill="url(#ad)" rx=".68" ry=".63"/>
  <rect width="1.36" height="8.89" x="77.32" y="90.14" fill="url(#ae)" rx=".68" ry=".63"/>
  <rect width="1.36" height="8.89" x="81.73" y="90.14" fill="url(#af)" rx=".68" ry=".63"/>
  <rect width="1.36" height="8.89" x="86.14" y="90.14" fill="url(#ag)" rx=".68" ry=".63"/>
  <rect width="1.36" height="8.89" x="90.55" y="90.14" fill="url(#ah)" rx=".68" ry=".63"/>
  <rect width="1.36" height="8.89" x="94.96" y="90.14" fill="url(#ai)" rx=".68" ry=".63"/>
  <rect width="1.36" height="8.89" x="99.38" y="90.14" fill="url(#aj)" rx=".68" ry=".63"/>
  <rect width="1.36" height="8.89" x="103.79" y="90.14" fill="url(#ak)" rx=".68" ry=".63"/>
  <rect width="1.36" height="8.89" x="108.2" y="90.14" fill="url(#al)" rx=".68" ry=".63"/>
  <rect width="1.36" height="8.89" x="112.61" y="90.14" fill="url(#am)" rx=".68" ry=".63"/>
  <rect width="1.38" height="8.89" x="8.91" y="92.81" fill="url(#an)" rx=".69" ry=".63"/>
  <rect width="1.38" height="8.89" x="13.38" y="92.81" fill="url(#ao)" rx=".69" ry=".63"/>
  <rect width="1.38" height="8.89" x="17.84" y="92.81" fill="url(#ap)" rx=".69" ry=".63"/>
  <rect width="1.38" height="8.89" x="22.31" y="92.81" fill="url(#aq)" rx=".69" ry=".63"/>
  <rect width="1.38" height="8.89" x="26.78" y="92.81" fill="url(#ar)" rx=".69" ry=".63"/>
  <rect width="1.38" height="8.89" x="31.25" y="92.81" fill="url(#as)" rx=".69" ry=".63"/>
  <rect width="1.38" height="8.89" x="35.72" y="92.81" fill="url(#at)" rx=".69" ry=".63"/>
  <rect width="1.38" height="8.89" x="40.19" y="92.81" fill="url(#au)" rx=".69" ry=".63"/>
  <rect width="1.38" height="8.89" x="44.66" y="92.81" fill="url(#av)" rx=".69" ry=".63"/>
  <rect width="1.38" height="8.89" x="49.13" y="92.81" fill="url(#aw)" rx=".69" ry=".63"/>
  <rect width="1.38" height="8.89" x="53.6" y="92.81" fill="url(#ax)" rx=".69" ry=".63"/>
  <rect width="1.38" height="8.89" x="58.07" y="92.81" fill="url(#ay)" rx=".69" ry=".63"/>
  <rect width="1.38" height="8.89" x="62.54" y="92.81" fill="url(#az)" rx=".69" ry=".63"/>
  <rect width="1.38" height="8.89" x="67.01" y="92.81" fill="url(#aA)" rx=".69" ry=".63"/>
  <rect width="1.38" height="8.89" x="71.48" y="92.81" fill="url(#aB)" rx=".69" ry=".63"/>
  <rect width="1.38" height="8.89" x="75.95" y="92.81" fill="url(#aC)" rx=".69" ry=".63"/>
  <rect width="1.38" height="8.89" x="80.41" y="92.81" fill="url(#aD)" rx=".69" ry=".63"/>
  <rect width="1.38" height="8.89" x="84.88" y="92.81" fill="url(#aE)" rx=".69" ry=".63"/>
  <rect width="1.38" height="8.89" x="89.35" y="92.81" fill="url(#aF)" rx=".69" ry=".63"/>
  <rect width="1.38" height="8.89" x="93.82" y="92.81" fill="url(#aG)" rx=".69" ry=".63"/>
  <rect width="1.38" height="8.89" x="98.29" y="92.81" fill="url(#aH)" rx=".69" ry=".63"/>
  <rect width="1.38" height="8.89" x="102.76" y="92.81" fill="url(#aI)" rx=".69" ry=".63"/>
  <rect width="1.38" height="8.89" x="107.23" y="92.81" fill="url(#aJ)" rx=".69" ry=".63"/>
  <rect width="1.38" height="8.89" x="111.7" y="92.81" fill="url(#aK)" rx=".69" ry=".63"/>
  <path fill="#9a9a9a" stroke="#000" stroke-dashoffset="4.15" stroke-linecap="round" stroke-linejoin="round" stroke-width=".01" d="M24.465 27.935l-1.274.618L5.308 93.389l.894.92h109.374l6.758-6.714-16.305-59.117-1.121-.543z"/>
  <path fill="url(#aL)" d="M5.794 87.01l-.886-.708.4 7.083.896.927z" filter="url(#aM)"/>
  <path fill="url(#aN)" d="M122.735 80.82l-6.793 6.146-.35 7.308 6.74-6.678z"/>
  <path fill="url(#aO)" d="M9.594 114a.683.683 0 0 0-.688.688V123c0 .383.305.688.688.688s.687-.305.687-.688v-8.313a.683.683 0 0 0-.687-.687zm4.469 0a.683.683 0 0 0-.688.688V123c0 .383.305.688.688.688s.687-.305.687-.688v-8.313a.683.683 0 0 0-.688-.687zm4.468 0a.683.683 0 0 0-.687.688V123c0 .383.304.688.687.688s.688-.305.688-.688v-8.313a.683.683 0 0 0-.688-.687zM23 114a.683.683 0 0 0-.688.688V123c0 .383.305.688.688.688s.688-.305.688-.688v-8.313A.683.683 0 0 0 23 114zm4.469 0a.683.683 0 0 0-.688.688V123c0 .383.305.688.688.688s.687-.305.687-.688v-8.313a.683.683 0 0 0-.687-.687zm4.468 0a.683.683 0 0 0-.687.688V123c0 .383.305.688.688.688s.687-.305.687-.688v-8.313a.683.683 0 0 0-.688-.687zm4.47 0a.683.683 0 0 0-.688.688V123c0 .383.304.688.687.688s.688-.305.688-.688v-8.313a.683.683 0 0 0-.688-.687zm4.468 0a.683.683 0 0 0-.688.688V123c0 .383.305.688.688.688s.688-.305.688-.688v-8.313a.683.683 0 0 0-.688-.687zm4.469 0a.683.683 0 0 0-.688.688V123c0 .383.305.688.688.688s.687-.305.687-.688v-8.313a.683.683 0 0 0-.687-.687zm4.468 0a.683.683 0 0 0-.687.688V123c0 .383.305.688.688.688s.687-.305.687-.688v-8.313a.683.683 0 0 0-.688-.687zm4.47 0a.683.683 0 0 0-.688.688V123c0 .383.304.688.687.688s.688-.305.688-.688v-8.313a.683.683 0 0 0-.688-.687zm4.468 0a.683.683 0 0 0-.688.688V123c0 .383.305.688.688.688s.688-.305.688-.688v-8.313a.683.683 0 0 0-.688-.687zm4.469 0a.683.683 0 0 0-.688.688V123c0 .383.305.688.688.688s.687-.305.687-.688v-8.313a.683.683 0 0 0-.687-.687zm4.468 0a.683.683 0 0 0-.687.688V123c0 .383.305.688.688.688s.687-.305.687-.688v-8.313a.683.683 0 0 0-.688-.687zm4.47 0a.683.683 0 0 0-.688.688V123c0 .383.304.688.687.688s.688-.305.688-.688v-8.313a.683.683 0 0 0-.688-.687zm4.468 0a.683.683 0 0 0-.688.688V123c0 .383.305.688.688.688s.688-.305.688-.688v-8.313a.683.683 0 0 0-.688-.687zm4.469 0a.683.683 0 0 0-.688.688V123c0 .383.305.688.688.688s.719-.305.719-.688v-8.313c0-.382-.336-.687-.72-.687zm4.469 0a.683.683 0 0 0-.688.688V123c0 .383.305.688.688.688s.718-.305.718-.688v-8.313c0-.382-.336-.687-.719-.687zm4.468 0a.683.683 0 0 0-.687.688V123c0 .383.304.688.687.688s.719-.305.719-.688v-8.313c0-.382-.336-.687-.719-.687zm4.469 0a.683.683 0 0 0-.688.688V123c0 .383.305.688.688.688s.719-.305.719-.688v-8.313c0-.382-.336-.687-.719-.687zm4.469 0a.683.683 0 0 0-.688.688V123c0 .383.305.688.688.688s.719-.305.719-.688v-8.313c0-.382-.336-.687-.72-.687zm4.469 0a.683.683 0 0 0-.688.688V123c0 .383.305.688.688.688s.718-.305.718-.688v-8.313c0-.382-.336-.687-.719-.687zm4.468 0a.683.683 0 0 0-.687.688V123c0 .383.304.688.687.688s.719-.305.719-.688v-8.313c0-.382-.336-.687-.719-.687zm4.469 0a.683.683 0 0 0-.688.688V123c0 .383.305.688.688.688s.719-.305.719-.688v-8.313c0-.382-.336-.687-.719-.687z" mask="url(#aP)" transform="matrix(1 0 0 .91838 0 -11.76)"/>
  <path fill="url(#aQ)" d="M5.794 86.907l110.148-.043-.35 7.307-109.388.039z"/>
  <path fill="url(#aR)" d="M24.188 24.007l-1.284.688L4.896 86.333l.9.876h110.145l6.806-6.392-16.42-56.293-1.13-.517H24.188"/>
  <path fill="url(#aS)" stroke="#000" stroke-dashoffset="4.15" stroke-linecap="round" stroke-linejoin="round" stroke-width=".01" d="M50.695 64.443h3.181l-1.214 1.08-3.31.122 1.343-1.202zM48.804 66.1h3.218l-6.308 5.639 3.828 4.507h-3.395l-2.525-3.045-5.234 4.739h-3.481l6.993-6.2-3.35-4.098h3.207l2.278 2.663 4.769-4.204zm-17.097 1.416c1.921 0 3.373.343 4.314 1.097.951.761 1.269 1.843 1.01 3.224-.263 1.404-1.008 2.512-2.31 3.335-1.317.83-3.017 1.249-5.055 1.249-2.032 0-3.492-.418-4.433-1.25-.926-.822-1.21-1.93-.83-3.334.374-1.381 1.234-2.463 2.534-3.224 1.292-.754 2.855-1.097 4.77-1.097zm37.624 0c.667 0 1.31.023 1.927.125.62.101 1.234.268 1.812.468l.018.346h-5.067l5.075.158.064 1.209a8.803 8.803 0 0 0-1.745-.607 8.04 8.04 0 0 0-1.765-.191c-1.11 0-1.996.242-2.627.733-.636.495-.924 1.194-.919 2.08.005.893.306 1.586.967 2.105.665.523 1.593.783 2.746.783.644 0 1.24-.07 1.817-.205a7.984 7.984 0 0 0 1.742-.612l.097 1.851c-.586.223-1.22.373-1.865.487-.646.114-1.325.175-2.032.175-2.111 0-3.769-.41-4.995-1.25-1.214-.834-1.798-1.95-1.775-3.334.022-1.362.623-2.423 1.805-3.193 1.17-.765 2.73-1.128 4.72-1.128zm-18.733.125h3.344l2.575 2.954 2.877-2.954h3.39L57.967 72.5l-.18 3.747h-3.25l.26-3.747-4.199-4.858zm25.012 0h3.07l.074.814h-3.086l-.058-.814zm7.605 0h3.115l.117.814h-3.133l-.1-.814zm6.138 0h3.07l.15.814h-3.086l-.134-.814zm6.093 0h5.13c1.523 0 2.774.224 3.71.688.067.033.108.091.172.126h-8.845l-.167-.814zm-19.76 1.066l3.1.095.128 1.406h-1.399l1.402.032.05.55h4.632l-.051-.421 3.187.097.828 5.78h-3.297l-.458-3.747h-4.685l.341 3.747h-3.249l-.53-7.539zm7.686.222l3.156.095.17 1.184h-3.17l-.156-1.28zm-52.01.095c-.949 0-1.757.25-2.399.733-.646.488-1.037 1.18-1.262 2.08-.226.908-.182 1.627.232 2.14.416.514 1.137.748 2.122.748.99 0 1.813-.234 2.465-.749.649-.512 1.07-1.23 1.26-2.139.188-.9.067-1.592-.356-2.08-.42-.484-1.108-.733-2.062-.733zm58.234.095l3.117.096.184.993h-3.123l-.178-1.089zm6.193.191l3.165.064.189.834h-3.17l-.184-.898zm6.348.191l3.599.096c.106.176.183.379.25.578h-3.262a1.258 1.258 0 0 0-.587-.674zm-12.305 1.062l3.149.097.242 1.31h-3.16l-.23-1.407zm6.254.195l3.204.097.155.686h1.74c.614 0 1.102-.088 1.385-.295a.72.72 0 0 0 .208-.293l3.353.098a1.612 1.612 0 0 1-.316.918h-9.48l-.249-1.211zm-6.007 1.31l3.18.1.754 4.078h-3.249l-.685-4.178zm6.318.199l8.764.265c-.719.413-1.808.635-3.255.635h-2.092l.145.64h-2.864l2.887.101.53 2.338h-3.298l-.817-3.98zM34.48 78.37l3.324.108-1.23 1.085h-3.517l1.423-1.193z" opacity=".465"/>
  <path fill="#5e5e5e" d="M6.856 86.406h108.748l.335 1.411H5.85z" opacity=".496"/>
  <path fill="#b6b6b6" d="M6.856 86.406L5.25 85.112l-.334 1.203.044.64.89.862z" filter="url(#aM)" opacity=".496"/>
  <path fill="#9a9a9a" d="M122.512 79.961l-6.908 6.445.335 1.411 6.775-6.413.038-.564z" opacity=".496"/>
  <path fill="url(#aT)" fill-rule="evenodd" d="M115.594 86.374l-.406.058.53 1.348-.25 6.515.188-.028.25-6.43z"/>
  <path fill="#fff" fill-rule="evenodd" d="M122.285 80.148l-6.497 6.545L7 86.977l-1.688-1.866L7 86.317l108.376-.089z" filter="url(#aU)" opacity=".496"/>
  <path fill="url(#aV)" fill-rule="evenodd" d="M5.766 86.89l.421 7.391.422.031-.297-7.437z" filter="url(#aW)"/>
  <path fill="url(#a)" stroke="#000" stroke-dashoffset="4.15" stroke-linecap="round" stroke-linejoin="round" stroke-width=".31" d="M24.188 24l-1.282.688-18 61.624.407 7.063.906.938h109.375l6.75-6.72.406-6.78-16.406-56.282-1.125-.531z" mask="url(#aX)" opacity=".099" transform="translate(-.03 -.09)"/>
  <path fill="#fff" d="M55.849 43.93l17.135-.057 1.509 11.662-21.373-.173 2.729-11.432z"/>
  <g mask="url(#aY)" transform="matrix(1.41357 0 -.01908 1.09675 -26.2 1.08)">
    <path fill="url(#aZ)" d="M30.469 30.79a3.305 3.305 0 1 1-6.61 0 3.305 3.305 0 0 1 6.61 0z" mask="url(#ba)" transform="matrix(3.57554 0 0 2.023 -32.63 -18.18)"/>
    <path fill="url(#bb)" d="M33.854 30.972c0 1.102-1.786 1.995-3.99 1.995s-3.99-.893-3.99-1.995 1.786-1.995 3.99-1.995 3.99.894 3.99 1.995z" filter="url(#bc)" opacity=".604" transform="matrix(2.99178 0 0 3.14288 -25.03 -52.02)"/>
  </g>
  <path fill="url(#bd)" fill-rule="evenodd" d="M105.05 24.276l-80.576-.122c-.445 0-1.353.6-1.392.74C6.486 83.475 5.769 84.435 6.323 83.49c.503-.858.255-.332 17.148-58.728l.936-.398 80.643-.088z" filter="url(#be)" opacity=".45"/>
  <path fill="url(#bf)" stroke="#000" stroke-dashoffset="4.15" stroke-linecap="round" stroke-linejoin="round" stroke-width=".31" d="M24.188 24l-1.282.688-18 61.624.407 7.063.906.938h109.375l6.75-6.72.406-6.78-16.406-56.282-1.125-.531z" mask="url(#aX)" opacity=".099" transform="translate(-.03 -.09)"/>
  <path fill="none" stroke="url(#bh)" stroke-dashoffset="4.15" stroke-linecap="round" stroke-linejoin="round" stroke-width="2.61" d="M24.188 24l-1.282.688-18 61.624.407 7.063.906.938h109.375l6.75-6.72.406-6.78-16.406-56.282-1.125-.531z" clip-path="url(#bg)" filter="url(#j)" opacity=".361" transform="translate(-.03 -.09)"/>
</svg>
