<?xml version="1.0" encoding="UTF-8" standalone="no"?>
<!-- Created with Inkscape (http://www.inkscape.org/) -->
<svg height="128" width="128" xmlns="http://www.w3.org/2000/svg" xmlns:xlink="http://www.w3.org/1999/xlink">
  <defs>
    <linearGradient id="linearGradient3428">
      <stop offset="0"/>
      <stop offset="1" stop-opacity="0"/>
    </linearGradient>
    <linearGradient id="linearGradient3214">
      <stop offset="0" stop-color="#fff"/>
      <stop offset="1" stop-color="#fff" stop-opacity="0"/>
    </linearGradient>
    <linearGradient id="linearGradient3188">
      <stop offset="0"/>
      <stop offset=".25" stop-color="#fff"/>
      <stop offset=".5" stop-color="#fff"/>
      <stop offset=".75" stop-color="#fff"/>
      <stop offset="1"/>
    </linearGradient>
    <linearGradient id="linearGradient2951">
      <stop offset="0" stop-color="#1b1b1b"/>
      <stop offset="1" stop-color="#1b1b1b" stop-opacity="0"/>
    </linearGradient>
    <linearGradient id="linearGradient3963">
      <stop offset="0" stop-color="#fff"/>
      <stop offset=".25" stop-color="#d2d2d2"/>
      <stop offset=".5" stop-color="#1d1d1d"/>
      <stop offset="1" stop-color="#121212"/>
    </linearGradient>
    <linearGradient id="linearGradient3914">
      <stop offset="0" stop-color="#fff"/>
      <stop offset=".40694654" stop-color="#fff" stop-opacity=".743682"/>
      <stop offset="1" stop-color="#fff" stop-opacity="0"/>
    </linearGradient>
    <linearGradient id="linearGradient3002" gradientTransform="matrix(1.2727273 0 0 -1.2727273 -330.90909 -22.545457)" gradientUnits="userSpaceOnUse" x1="313.70459" x2="314.05814" xlink:href="#linearGradient3428" y1="-160.44168" y2="-19.030354"/>
    <linearGradient id="linearGradient3008" gradientUnits="userSpaceOnUse" x1="36.9090924" x2="45.500001675" xlink:href="#linearGradient3214" y1="16.590907875" y2="87.98283776846"/>
    <linearGradient id="linearGradient3012" gradientTransform="matrix(.6298032 0 0 .6363636 -20.193065 -95.81818)" gradientUnits="userSpaceOnUse" x1="126.03124" x2="166.95312" y1="14" y2="110">
      <stop offset="0" stop-color="#3383e6"/>
      <stop offset="1" stop-color="#6ecaf7"/>
    </linearGradient>
    <linearGradient id="linearGradient3602" gradientUnits="userSpaceOnUse" x1="60.9" x2="60.9" xlink:href="#linearGradient3214" y1="4.977411" y2="13.033297"/>
    <radialGradient id="radialGradient3614" cx="68" cy="88.72038" gradientTransform="matrix(1 0 0 .01545323 -8 87.749363)" gradientUnits="userSpaceOnUse" r="28">
      <stop offset="0" stop-color="#fff"/>
      <stop offset=".6199556" stop-color="#fff" stop-opacity=".743682"/>
      <stop offset="1" stop-color="#fff" stop-opacity="0"/>
    </radialGradient>
    <filter id="filter3682" height="1.590664" width="1.009128" x="-.004564" y="-.295332">
      <feGaussianBlur stdDeviation=".10648948"/>
    </filter>
    <filter id="filter3817" height="1.216197" width="1.06606" x="-.03303" y="-.108099">
      <feGaussianBlur stdDeviation=".99090482"/>
    </filter>
    <filter id="filter3821">
      <feGaussianBlur stdDeviation=".99090482"/>
    </filter>
    <clipPath id="clipPath3831">
      <path d="m-76.103925 9c-12 0-32.066255 1.728851-36.000005 4v84c0 8 8 20 16.000005 20h40c8 0 16-12 16-20v-84c-3.93375-2.271149-24-4-36-4z"/>
    </clipPath>
    <linearGradient id="linearGradient3837" gradientUnits="userSpaceOnUse" x1="60.9" x2="60.9" xlink:href="#linearGradient3214" y1="7.525102" y2="9.33611"/>
    <linearGradient id="linearGradient3847" gradientUnits="userSpaceOnUse" x1="68.511345" x2="68.511345" y1="11.043517" y2="15.343214">
      <stop offset="0" stop-color="#d3d3d3"/>
      <stop offset="1" stop-color="#343434" stop-opacity="0"/>
    </linearGradient>
    <linearGradient id="linearGradient3857" gradientUnits="userSpaceOnUse" x1="67.990799" x2="67.990799" xlink:href="#linearGradient3214" y1="7.29172" y2="11.775043"/>
    <linearGradient id="linearGradient3868" gradientUnits="userSpaceOnUse" x1="67.99999745313" x2="67.99999745313" xlink:href="#linearGradient3914" y1="18.51949035031" y2="12.37531264995"/>
    <filter id="filter3910" height="1.259874" width="1.148209" x="-.074105" y="-.129937">
      <feGaussianBlur stdDeviation=".12350772"/>
    </filter>
    <filter id="filter3949">
      <feGaussianBlur stdDeviation="2.071161"/>
    </filter>
    <linearGradient id="linearGradient3961" gradientUnits="userSpaceOnUse" x1="-50.970615" x2="-50.970615" xlink:href="#linearGradient3963" y1="136.01231" y2="92.970612"/>
    <linearGradient id="linearGradient3977" gradientUnits="userSpaceOnUse" x1="-50.970615" x2="-50.970615" xlink:href="#linearGradient3963" y1="124.01707" y2="92.970612"/>
    <filter id="filter4027">
      <feGaussianBlur stdDeviation=".49438201"/>
    </filter>
    <filter id="filter4031">
      <feGaussianBlur stdDeviation=".40449438"/>
    </filter>
    <filter id="filter4089" height="4.074157" width="1.087833" x="-.043917" y="-1.537079">
      <feGaussianBlur stdDeviation=".24016854"/>
    </filter>
    <linearGradient id="linearGradient4131" gradientUnits="userSpaceOnUse" x1="68.9375" x2="68.9375" xlink:href="#linearGradient3963" y1="98.3125" y2="105.36318"/>
    <filter id="filter4165">
      <feGaussianBlur stdDeviation=".10065543"/>
    </filter>
    <filter id="filter4215" height="1.314607" width="1.314607" x="-.157303" y="-.157303">
      <feGaussianBlur stdDeviation=".35229401"/>
    </filter>
    <filter id="filter4633" height="4.300802" width="1.256729" x="-.128365" y="-1.650401">
      <feGaussianBlur stdDeviation="2.5672909"/>
    </filter>
    <linearGradient id="linearGradient4648" gradientUnits="userSpaceOnUse" x1="109.85" x2="32.630361" xlink:href="#linearGradient3914" y1="-15.8" y2="117.94834"/>
    <filter id="filter4752" height="1.110486" width="1.24769" x="-.123845" y="-.055243">
      <feGaussianBlur stdDeviation=".071791653"/>
    </filter>
    <radialGradient id="radialGradient4770" cx="40" cy="88.729431" gradientTransform="matrix(.8963777 .4432911 -1.8776149 3.79672 162.74459 -265.48735)" gradientUnits="userSpaceOnUse" r=".695629" xlink:href="#linearGradient3214"/>
    <radialGradient id="radialGradient4774" cx="40" cy="88.729431" gradientTransform="matrix(.8963777 .4432911 -1.8776149 3.79672 170.74459 -265.48735)" gradientUnits="userSpaceOnUse" r=".695629" xlink:href="#linearGradient3214"/>
    <linearGradient id="linearGradient4784" gradientUnits="userSpaceOnUse" x1="59.510201" x2="59.510201" xlink:href="#linearGradient3428" y1="14.203507" y2="20.00749"/>
    <linearGradient id="linearGradient4794" gradientUnits="userSpaceOnUse" x1="50.122448" x2="50.122448" xlink:href="#linearGradient3214" y1="80" y2="93.434776"/>
    <filter id="filter4877" height="1.01351" width="7.763288" x="-3.381644" y="-.006755">
      <feGaussianBlur stdDeviation=".20332763"/>
    </filter>
    <filter id="filter2945">
      <feGaussianBlur stdDeviation=".042039287"/>
    </filter>
    <filter id="filter3274" height="1.019164" width="1.290306" x="-.145153" y="-.009582">
      <feGaussianBlur stdDeviation=".33264185"/>
    </filter>
    <filter id="filter3350" height="1.009082" width="1.874478" x="-.437239" y="-.004541">
      <feGaussianBlur stdDeviation=".15941011"/>
    </filter>
    <filter id="filter3372" height="1.004596" width="1.203082" x="-.101541" y="-.002298">
      <feGaussianBlur stdDeviation=".080312565"/>
    </filter>
    <linearGradient id="linearGradient3405" gradientTransform="matrix(.7071068 .7071068 -.7071068 .7071068 23.613257 -90.311015)" gradientUnits="userSpaceOnUse" x1="142.5" x2="148" xlink:href="#linearGradient3188" y1="58.442312" y2="58.442312"/>
    <linearGradient id="linearGradient3407" gradientTransform="matrix(.9722718 .9722718 -.7071068 .7071068 -15.631169 -129.55544)" gradientUnits="userSpaceOnUse" spreadMethod="reflect" x1="143.99495" x2="148.00232" xlink:href="#linearGradient3188" y1="102.04908" y2="102.04908"/>
    <linearGradient id="linearGradient3409" gradientTransform="matrix(.9722718 .9722718 -.7071068 .7071068 -15.631169 -129.55544)" gradientUnits="userSpaceOnUse" x1="144" x2="146" xlink:href="#linearGradient2951" y1="104" y2="102.92204"/>
    <linearGradient id="linearGradient3411" gradientTransform="matrix(.9722718 .9722718 -.7071068 .7071068 -15.631169 -129.55544)" gradientUnits="userSpaceOnUse" x1="147.3311" x2="146.31805" xlink:href="#linearGradient2951" y1="103.83295" y2="103.35699"/>
    <radialGradient id="radialGradient3413" cx="146.65306" cy="104.04082" fx="146.6779" fy="105.33842" gradientUnits="userSpaceOnUse" r="1.020408" xlink:href="#linearGradient3428"/>
    <linearGradient id="linearGradient3415" gradientUnits="userSpaceOnUse" x1="148" x2="148" xlink:href="#linearGradient3214" y1="7.69231" y2="98.201363"/>
    <linearGradient id="linearGradient3417" gradientUnits="userSpaceOnUse" x1="140.72963" x2="144.4375" xlink:href="#linearGradient3428" y1="-33.932766" y2="102.93314"/>
    <linearGradient id="linearGradient3419" gradientUnits="userSpaceOnUse" x1="146.67484" x2="150.38715" xlink:href="#linearGradient3428" y1="25.864777" y2="150.49234"/>
    <linearGradient id="linearGradient3424" gradientUnits="userSpaceOnUse" spreadMethod="reflect" x1="95.319573" x2="102.567423" y1="-67.107931" y2="-67.107931">
      <stop offset="0" stop-color="#a0a0a0"/>
      <stop offset=".57692152" stop-color="#2a2a2a"/>
      <stop offset="1" stop-color="#121212"/>
    </linearGradient>
    <radialGradient id="radialGradient3434" cx="72.25" cy="82.375" fx="50.106457" fy="88.378242" gradientTransform="matrix(1 0 0 .08947368 0 75.004605)" gradientUnits="userSpaceOnUse" r="23.75" xlink:href="#linearGradient3428"/>
    <filter id="filter3468" height="1.346892" width="1.097987" x="-.048993" y="-.173446">
      <feGaussianBlur stdDeviation=".93689149"/>
    </filter>
    <filter id="filter3630">
      <feGaussianBlur stdDeviation=".15449438"/>
    </filter>
  </defs>
  <g>
    <rect fill="#141414" filter="url(#filter4633)" height="3.733334" rx="1.866667" width="48" x="36" y="114"/>
    <path d="m60 8c-12 0-32.066255 1.728851-36 4v84c0 8 8 20 16 20h40c8 0 16-12 16-20v-84c-3.93375-2.271149-24-4-36-4z" fill-rule="evenodd"/>
    <g transform="matrix(.5 0 0 .5 189 14.866996)"/>
    <path d="m32 12h56c2.216 0 4 1.784 4 4v80c0 2.216-3.784 10-6 10h-52c-2.216 0-6-7.784-6-10v-80c0-2.216 1.784-4 4-4z" fill="#fff" filter="url(#filter3949)" opacity=".209738"/>
    <g fill-rule="evenodd">
      <path d="m59.61875 8.1c-9.127034 0-22.906474.990574-30.71875 2.46875 10.588778-.933014 21.925976-1.46875 30.71875-1.46875s20.129973.535736 30.71875 1.46875c-7.812276-1.478176-21.591715-2.46875-30.71875-2.46875z" fill="url(#linearGradient3602)"/>
      <g clip-path="url(#clipPath3831)" opacity=".651685" transform="translate(136 -1)">
        <path d="m-112 92v4c0 8 8 20 16 20h40c8 0 16-12 16-20v-4c0 8-8 20-16 20h-40c-8 0-16-12-16-20z" fill="#343434" filter="url(#filter3821)"/>
        <path d="m-112.20785 94v2c0 8 8 20 16.000004 20h40c8 0 16-12 16-20v-2c0 8-8 20-16 20h-40c-8.000004 0-16.000004-12-16.000004-20z" fill="#5f5f5f" filter="url(#filter3817)"/>
      </g>
      <path d="m59.61875 8.1c-9.127034 0-22.906474.990574-30.71875 2.46875 10.588778-.933014 21.925976-1.46875 30.71875-1.46875s20.129973.535736 30.71875 1.46875c-7.812276-1.478176-21.591715-2.46875-30.71875-2.46875z" fill="url(#linearGradient3837)"/>
    </g>
    <path d="m70.3125 12.46875a1.71875 1.71875 0 1 1 -3.4375 0 1.71875 1.71875 0 1 1 3.4375 0z" fill="url(#linearGradient3847)" opacity=".651685" transform="matrix(1.3272727 0 0 1.3272727 -31.042612 -4.658807)"/>
    <path d="m69.90625 10.609375a1.40625.703125 0 1 1 -2.8125 0 1.40625.703125 0 1 1 2.8125 0z" fill="url(#linearGradient3857)" transform="translate(-8.5 -.15625)"/>
    <path d="m66.03125 11.875c-.015252.099494-.03125.177512-.03125.28125 0 1.104.896001 2 2 2 1.104 0 2.000001-.896 2-2 0-.103738-.015998-.181756-.03125-.28125-.137261.970519-.960538 1.71875-1.96875 1.71875-1.008211 0-1.831488-.748231-1.96875-1.71875z" fill="url(#linearGradient3868)" filter="url(#filter3910)" opacity=".651685" transform="matrix(.890411 0 0 .8356167 -.547945 2.077052)"/>
    <rect fill="url(#linearGradient3012)" height="72" ry="0" transform="scale(1 -1)" width="56" x="32" y="-88"/>
    <rect fill="url(#linearGradient4794)" height="4" width="56" x="32" y="84"/>
    <path d="m33 17v37.78125c13.423841 2.21875 31.925868-.842067 54-9.5v-28.28125z" fill="url(#linearGradient3008)" opacity=".2"/>
    <path d="m32 87.999996v-72h56v72zm1-1h54v-70h-54z" fill="url(#linearGradient3002)"/>
    <rect fill="url(#radialGradient3614)" filter="url(#filter3682)" height=".865381" opacity=".625468" width="56" x="32" y="88.687683"/>
    <path d="m-32 110a18 18 0 1 1 -36 0 18 18 0 1 1 36 0z" fill="url(#linearGradient3977)" filter="url(#filter4031)" transform="matrix(.4479166 0 0 -.4479166 82.395834 150.19056)"/>
    <path d="m-32 110a18 18 0 1 1 -36 0 18 18 0 1 1 36 0z" fill="url(#linearGradient3961)" filter="url(#filter4027)" transform="matrix(.3664773 0 0 .3664773 78.323869 60.607231)"/>
    <rect fill="#fff" filter="url(#filter4089)" height=".375" width="13.125" x="53.437504" y="100.73223"/>
    <path d="m71.625 101.4375a2.6875 2.6875 0 1 1 -5.375 0 2.6875 2.6875 0 1 1 5.375 0z" fill="#141414" filter="url(#filter4215)" transform="matrix(1.1461455 0 0 1.2624246 -19.012401 -26.824957)"/>
    <rect fill="#fff" height=".066942" transform="scale(1 -1)" width="13.125" x="53.437504" y="-100.9532"/>
    <path d="m71.625 101.4375a2.6875 2.6875 0 1 1 -5.375 0 2.6875 2.6875 0 1 1 5.375 0z" fill="url(#linearGradient4131)" filter="url(#filter4165)" transform="translate(-8.937496 -.517766)"/>
    <path d="m71.625 101.4375a2.6875 2.6875 0 1 1 -5.375 0 2.6875 2.6875 0 1 1 5.375 0z" fill="#141414" filter="url(#filter4215)" transform="matrix(1.1461455 0 0 1.2624246 -39.932139 -26.824957)"/>
    <path d="m71.625 101.4375a2.6875 2.6875 0 1 1 -5.375 0 2.6875 2.6875 0 1 1 5.375 0z" fill="url(#linearGradient4131)" filter="url(#filter4165)" transform="translate(-29.857234 -.517766)"/>
    <path d="m71.625 101.4375a2.6875 2.6875 0 1 1 -5.375 0 2.6875 2.6875 0 1 1 5.375 0z" fill="#141414" filter="url(#filter4215)" transform="matrix(1.1461455 0 0 1.2624246 1.907329 -26.824957)"/>
    <path d="m71.625 101.4375a2.6875 2.6875 0 1 1 -5.375 0 2.6875 2.6875 0 1 1 5.375 0z" fill="url(#linearGradient4131)" filter="url(#filter4165)" transform="translate(11.982234 -.517766)"/>
    <path d="m94.6 12.1125v84.9c0 5.34383-3.589016 12.44914-8.34375 16.59375 5.248158-3.96485 9.34375-11.6917 9.34375-17.40625v-84c-.12239-.795154-.98867-.555449-1-.0875z" fill="url(#linearGradient4648)" fill-rule="evenodd"/>
    <path d="m33.067026 86.851341-1.391257 2.063525.795421 1.055423z" fill="url(#radialGradient4770)" fill-rule="evenodd" filter="url(#filter4752)"/>
    <path d="m41.067026 86.851341-1.391257 2.063525.795421 1.055423z" fill="url(#radialGradient4774)" fill-rule="evenodd" filter="url(#filter4752)" transform="matrix(-1 0 0 1 127.67577 0)"/>
    <rect fill="url(#linearGradient4784)" height="4" width="56" x="32" y="16"/>
    <rect fill="#fff" filter="url(#filter4877)" height="72.240334" width=".144304" x="31.800011" y="16.046238"/>
    <path d="m96 82.375a23.75 2.125 0 1 1 -47.5 0 23.75 2.125 0 1 1 47.5 0z" fill="url(#radialGradient3434)" filter="url(#filter3468)" opacity=".670412" transform="matrix(.9659258 -.258819 .258819 .9659258 -20.85836 9.006536)"/>
    <g transform="translate(-3.948207 -11.315069)">
      <g fill-rule="evenodd">
        <path d="m112.50745 22.320224-58.912866 58.912866 3.88909 3.889087 58.912856-58.912866z" fill="url(#linearGradient3405)"/>
        <path d="m53.665294 81.16238c-4.72316 4.723162-.78472 8.5629 3.88909 3.889087z" fill="url(#linearGradient3407)"/>
        <path d="m53.665294 81.16238c-4.72316 4.723162-.78472 8.5629 3.88909 3.889087z" fill="url(#linearGradient3409)"/>
        <path d="m53.665294 81.16238c-4.72316 4.723162-.78472 8.5629 3.88909 3.889087z" fill="url(#linearGradient3411)"/>
      </g>
      <path d="m147.67347 104.04082a1.0204082 1.0204082 0 1 1 -2.04082 0 1.0204082 1.0204082 0 1 1 2.04082 0z" fill="url(#radialGradient3413)" filter="url(#filter2945)" transform="matrix(.8897718 .8897718 -.6471068 .6471068 -10.319607 -111.93915)"/>
      <path d="m142.5 16.784625v83.315375h5.5v-83.315375z" fill="url(#linearGradient3415)" fill-rule="evenodd" filter="url(#filter3274)" opacity=".790262" transform="matrix(.7071068 .7071068 -.7071068 .7071068 23.613257 -90.311015)"/>
      <rect fill="url(#linearGradient3417)" filter="url(#filter3350)" height="84.25" transform="matrix(.7071068 .7071068 -.7071068 .7071068 23.613257 -90.311015)" width=".875" x="144" y="16.75"/>
      <path d="m144.78011 103.25126c2.92388-25.904205.82496-55.625731 1.23744-83.438597.07366 27.348829 1.28695 53.937899.22097 82.046487-.07875 2.07645-1.54302 2.14171-1.45841 1.39211z" fill="url(#linearGradient3419)" fill-rule="evenodd" filter="url(#filter3372)" transform="matrix(.7071068 .7071068 -.7071068 .7071068 23.613257 -90.311015)"/>
      <path d="m93.551826-72.057671c3.231252-.487523 6.105938.451219 9.015614 1.25v8.649496h-9.015614z" fill="url(#linearGradient3424)" transform="matrix(.7071068 .7071068 -.7071068 .7071068 0 0)"/>
    </g>
    <rect filter="url(#filter3630)" height=".707107" opacity=".670412" transform="matrix(.7071068 .7071068 -.7071068 .7071068 0 -8)" width="7.071068" x="89.174866" y="-63.544617"/>
  </g>
</svg>
