<?xml version="1.0" encoding="UTF-8" standalone="no"?>
<svg xmlns="http://www.w3.org/2000/svg" xmlns:xlink="http://www.w3.org/1999/xlink" width="128" height="128">
  <defs>
    <linearGradient id="c">
      <stop offset="0"/>
      <stop offset="1" stop-opacity="0"/>
    </linearGradient>
    <pattern id="M" patternTransform="scale(.25195)" xlink:href="#a"/>
    <linearGradient id="b">
      <stop offset="0" stop-color="#fff"/>
      <stop offset="1" stop-color="#fff" stop-opacity="0"/>
    </linearGradient>
    <linearGradient id="o" x1="64" x2="64" y1="117" y2="104" gradientUnits="userSpaceOnUse">
      <stop offset="0" stop-color="#d6d6d6"/>
      <stop offset="1" stop-color="#fff"/>
    </linearGradient>
    <linearGradient id="i" x1="32" x2="64" y1="64" y2="64" gradientUnits="userSpaceOnUse" spreadMethod="reflect">
      <stop offset="0" stop-color="#b3b3b3"/>
      <stop offset=".063" stop-color="#f7f6f5"/>
      <stop offset="1" stop-color="#f7f7f5"/>
    </linearGradient>
    <linearGradient id="J" x1="12.063" x2="90.79" y1="65.266" y2="65.266" gradientUnits="userSpaceOnUse" xlink:href="#b"/>
    <linearGradient id="L" x1="64.609" x2="64.609" y1="939.043" y2="936.382" gradientUnits="userSpaceOnUse">
      <stop offset="0" stop-color="#696969"/>
      <stop offset="1" stop-color="#696969" stop-opacity="0"/>
    </linearGradient>
    <linearGradient id="I" x1="64" x2="64" y1="114.639" y2="107.989" gradientTransform="matrix(.76917 0 0 .62217 14.773 967.297)" gradientUnits="userSpaceOnUse" xlink:href="#b"/>
    <radialGradient id="p" cx="64.125" cy="113.938" r="5" fx="64.188" fy="115.313" gradientUnits="userSpaceOnUse" xlink:href="#b"/>
    <linearGradient id="m" x1="52.969" x2="72.074" y1="945.453" y2="945.453" gradientUnits="userSpaceOnUse">
      <stop offset="0" stop-color="#cacaca"/>
      <stop offset=".614" stop-color="#ebebeb"/>
      <stop offset="1" stop-color="#cbcbcb"/>
    </linearGradient>
    <linearGradient id="K" x1="139" x2="80" y1="143" y2="82.718" gradientUnits="userSpaceOnUse" xlink:href="#b"/>
    <filter id="t">
      <feGaussianBlur stdDeviation="1.379"/>
    </filter>
    <filter id="H">
      <feGaussianBlur stdDeviation=".338"/>
    </filter>
    <filter id="B">
      <feGaussianBlur stdDeviation=".273"/>
    </filter>
    <filter id="r" width="1.184" height="2.012" x="-.092" y="-.506">
      <feGaussianBlur stdDeviation="2.385"/>
    </filter>
    <filter id="v">
      <feGaussianBlur stdDeviation=".255"/>
    </filter>
    <filter id="y">
      <feGaussianBlur stdDeviation=".188"/>
    </filter>
    <filter id="D">
      <feGaussianBlur stdDeviation=".254"/>
    </filter>
    <linearGradient id="d">
      <stop offset="0" stop-color="#f3fdde"/>
      <stop offset=".5" stop-color="#83b029"/>
      <stop offset="1" stop-color="#4b6c0c"/>
    </linearGradient>
    <radialGradient id="q" cx="618.011" cy="652.847" r="31.113" gradientTransform="matrix(1 0 0 .18182 675.876 534.147)" gradientUnits="userSpaceOnUse" xlink:href="#c"/>
    <radialGradient id="s" cx="615.302" cy="609.884" r="127" fy="677.884" gradientUnits="userSpaceOnUse">
      <stop offset="0" stop-color="#689313"/>
      <stop offset="1" stop-color="#314708"/>
    </radialGradient>
    <radialGradient id="u" cx="636.14" cy="598.198" r="128.143" gradientTransform="matrix(.28336 .09286 -.11788 .35969 531.915 319.98)" gradientUnits="userSpaceOnUse">
      <stop offset="0" stop-color="#314708"/>
      <stop offset="1" stop-color="#314708" stop-opacity="0"/>
    </radialGradient>
    <radialGradient id="w" cx="962.959" cy="625.441" r="127" gradientUnits="userSpaceOnUse">
      <stop offset="0" stop-color="#a1e21f"/>
      <stop offset="1" stop-color="#3f5b0a"/>
    </radialGradient>
    <radialGradient id="x" cx="616.016" cy="398.793" r="126.344" fx="615.489" fy="361.419" gradientTransform="matrix(2.04745 .00791 -.0039 1.0097 -641.516 32.292)" gradientUnits="userSpaceOnUse" xlink:href="#d"/>
    <radialGradient id="z" cx="620.656" cy="379.011" r="126.969" gradientTransform="matrix(1 0 0 .82894 342 85.89)" gradientUnits="userSpaceOnUse" xlink:href="#b"/>
    <radialGradient id="A" cx="632.009" cy="526.869" r="82.515" gradientUnits="userSpaceOnUse" xlink:href="#d"/>
    <radialGradient id="C" cx="620.959" cy="625.441" r="127" gradientTransform="matrix(.2766 .00095 -.01969 5.73228 803.516 -2960.353)" gradientUnits="userSpaceOnUse" xlink:href="#b"/>
    <radialGradient id="E" cx="617.313" cy="464.984" r="84.125" gradientTransform="matrix(.46219 0 0 2.21753 673.998 -587.096)" gradientUnits="userSpaceOnUse" xlink:href="#b"/>
    <radialGradient id="F" cx="617.313" cy="464.984" r="84.125" gradientTransform="matrix(.69877 0 0 3.35262 527.954 -1155.324)" gradientUnits="userSpaceOnUse" xlink:href="#b"/>
    <radialGradient id="G" cx="620.959" cy="625.441" r="127" gradientTransform="matrix(.37558 .14559 -.5433 1.40157 1069.547 -341.266)" gradientUnits="userSpaceOnUse" xlink:href="#b"/>
    <filter id="f" width="1.039" height="2.417" x="-.019" y="-.709">
      <feGaussianBlur stdDeviation=".522"/>
    </filter>
    <filter id="h" width="1.138" height="6.063" x="-.069" y="-2.531">
      <feGaussianBlur stdDeviation="1.864"/>
    </filter>
    <linearGradient id="j" x1="72" x2="72" y1="120" y2="16" gradientUnits="userSpaceOnUse">
      <stop offset="0" stop-color="#ececeb"/>
      <stop offset="1" stop-color="#ececeb" stop-opacity="0"/>
    </linearGradient>
    <filter id="e" width="1.143" height="1.214" x="-.071" y="-.107">
      <feGaussianBlur stdDeviation="2.857"/>
    </filter>
    <mask id="l" maskUnits="userSpaceOnUse">
      <path fill="#fff" fill-rule="evenodd" d="M81.938 72C80.86 72 80 72.86 80 73.938V112H48V81.938C48 80.86 47.14 80 46.062 80H25.939C24.86 80 24 80.86 24 81.938V112h-6.063c-1.077 0-1.937.86-1.937 1.938v20.125c0 1.077.86 1.937 1.938 1.937h92.124c1.078 0 1.938-.86 1.938-1.937V73.938c0-1.078-.86-1.938-1.938-1.938z" filter="url(#e)"/>
    </mask>
    <filter id="k">
      <feGaussianBlur stdDeviation=".112"/>
    </filter>
    <filter id="n">
      <feGaussianBlur stdDeviation=".076"/>
    </filter>
    <linearGradient id="g" x1="65.345" x2="65.345" y1="1045.172" y2="1042.026" gradientUnits="userSpaceOnUse" xlink:href="#c"/>
  </defs>
  <g transform="translate(0 -924.362)">
    <rect width="63.176" height="1.747" x="32.445" y="1042.77" fill-rule="evenodd" filter="url(#f)" rx="1" ry=".873"/>
    <rect width="65.054" height="1.768" x="31.32" y="1043.27" fill="url(#g)" fill-rule="evenodd" filter="url(#h)" opacity=".595" rx="1"/>
    <rect width="64" height="112" x="32" y="8" fill="url(#i)" fill-rule="evenodd" rx="1.945" transform="translate(0 924.362)"/>
    <rect width="60" height="49" x="34" y="70.6" fill="url(#j)" fill-rule="evenodd" filter="url(#k)" mask="url(#l)" rx="1.257" transform="translate(0 923.762)"/>
    <path fill="#fff" fill-rule="evenodd" d="M35.594 16.688a2.409 2.409 0 0 0-2.407 2.406v88.5A2.409 2.409 0 0 0 35.594 110h56.812a2.409 2.409 0 0 0 2.406-2.406v-88.5a2.409 2.409 0 0 0-2.406-2.407z" filter="url(#n)" transform="translate(0 924.362)"/>
    <path fill="#111" fill-rule="evenodd" d="M36 941.362h56a2 2 0 0 1 2 2v88c0 1.378-.949 2-2 2H36c-1.196 0-2-.87-2-2.09v-87.819c0-1.224.962-2.09 2-2.09z"/>
    <path fill="url(#o)" fill-rule="evenodd" d="M69 112a5 5 0 1 1-10 0 5 5 0 0 1 10 0z" transform="matrix(.89393 0 0 .89393 6.788 937.772)"/>
    <path fill="url(#p)" fill-rule="evenodd" d="M68.5 112a4.5 4.5 0 1 1-9 0 4.5 4.5 0 0 1 9 0z" transform="matrix(.89393 0 0 .89393 6.788 937.772)"/>
    <rect width="58" height="83" x="35" y="948.362" fill-rule="evenodd" rx="0"/>
    <g transform="matrix(.1021 0 0 .1021 -68.178 932.643)">
      <rect width="62.225" height="11.314" x="1262.775" y="647.19" fill="url(#q)" filter="url(#r)" opacity=".74" rx="2.709" ry=".354"/>
      <g stroke-width="1.213">
        <path fill="url(#s)" d="M616.656 397.688c-70.43 0-127.531 57.1-127.531 127.53s57.1 127.532 127.531 127.532 127.532-57.1 127.532-127.531-57.1-127.532-127.532-127.532zM614.5 442.75c.694-.018 1.431 0 2.156 0 45.55 0 82.469 36.92 82.469 82.469 0 14.784-3.936 28.626-10.75 40.625l-18.656-18.625c-8.791-8.791-22.96-8.791-31.75 0s-8.791 22.959 0 31.75l18.468 18.468a82.1 82.1 0 0 1-39.78 10.25c-45.55 0-82.47-36.92-82.47-82.468 0-44.838 35.75-81.34 80.313-82.469z" filter="url(#t)" transform="translate(674.813 1.4)"/>
        <path fill="url(#u)" d="M616.656 397.688c-70.43 0-127.531 57.1-127.531 127.53s57.1 127.532 127.531 127.532 127.532-57.1 127.532-127.531-57.1-127.532-127.532-127.532zM614.5 442.75c.694-.018 1.431 0 2.156 0 45.55 0 82.469 36.92 82.469 82.469 0 14.784-3.936 28.626-10.75 40.625l-18.656-18.625c-8.791-8.791-22.96-8.791-31.75 0s-8.791 22.959 0 31.75l18.468 18.468a82.1 82.1 0 0 1-39.78 10.25c-45.55 0-82.47-36.92-82.47-82.468 0-44.838 35.75-81.34 80.313-82.469z" filter="url(#v)" transform="translate(674.813 1.4)"/>
        <path fill="url(#w)" d="M958.656 398.227c-70.14 0-127 56.86-127 127s56.86 127 127 127 127-56.86 127-127-56.86-127-127-127zm-2.156 44c.712-.018 1.44 0 2.156 0 45.84 0 83 37.16 83 83 0 15.126-4.087 29.287-11.156 41.5l-19.156-19.125c-8.587-8.587-22.413-8.587-31 0s-8.587 22.413 0 31l18.968 18.968a82.6 82.6 0 0 1-40.656 10.657c-45.84 0-83-37.16-83-83 0-45.124 35.994-81.864 80.844-83z" transform="translate(332.813)"/>
        <path fill="url(#x)" d="M616.656 398.906c-67.16 0-122.038 52.388-126.062 118.531a743.292 743.292 0 0 0 42.5 4.282c1.814-43.86 37.339-79.072 81.375-80.188.735-.018 1.482 0 2.187 0 42.884 0 78.203 32.322 83.063 73.906a702.297 702.297 0 0 0 42.031-7.593c-8.48-61.532-61.223-108.938-125.094-108.938z" filter="url(#y)" transform="translate(674.813)"/>
        <path fill="#fff" d="M1291.469 398.519c-69.211 0-125.49 55.362-126.969 124.219 1.739-68.626 57.925-123.72 126.969-123.72s125.23 55.094 126.968 123.72c-1.478-68.857-57.757-124.22-126.968-124.22zm82.937 129.844c-.475 14.064-4.466 27.206-11.093 38.656l-19.157-19.125a21.872 21.872 0 0 0-31 0c-4.155 4.155-6.272 9.547-6.406 14.968a21.885 21.885 0 0 1 6.406-14.468 21.872 21.872 0 0 1 31 0l19.157 19.125a82.486 82.486 0 0 0 11.093-39.157zm-165.843 1.437c1.971 44.089 38.33 79.219 82.906 79.219a82.6 82.6 0 0 0 40.656-10.657l-.313-.312c-11.944 6.659-25.697 10.469-40.343 10.469-44.407 0-80.684-34.864-82.907-78.719z"/>
        <path fill="url(#z)" d="M958.656 398.319c-69.211 0-125.49 55.362-126.968 124.219 1.738-68.626 57.924-123.72 126.968-123.72 69.045 0 125.23 55.094 126.969 123.72-1.479-68.857-57.758-124.22-126.969-124.22zm82.938 129.844c-.475 14.064-4.466 27.206-11.094 38.656l-19.156-19.125a21.872 21.872 0 0 0-31 0c-4.155 4.155-6.273 9.547-6.407 14.969a21.885 21.885 0 0 1 6.407-14.47 21.872 21.872 0 0 1 31 0l19.156 19.126a82.486 82.486 0 0 0 11.094-39.156zM875.75 529.6c1.972 44.089 38.33 79.219 82.906 79.219a82.6 82.6 0 0 0 40.657-10.656l-.313-.313c-11.945 6.659-25.697 10.469-40.344 10.469-44.407 0-80.683-34.864-82.906-78.719z" opacity=".53" transform="translate(332.813)"/>
        <path fill="url(#A)" d="M653.844 542.094A20.895 20.895 0 0 0 639 548.25c-4.105 4.105-6.053 9.459-6.063 14.813 15.5 1.288 31.483-.302 45.844-4.75l-10.093-10.063a20.895 20.895 0 0 0-14.844-6.156z" filter="url(#B)" transform="translate(674.513 -.1)"/>
        <path fill="url(#C)" d="M958.656 398.219c-70.14 0-127 56.86-127 127s56.86 127 127 127 127-56.86 127-127-56.86-127-127-127zm0 .125c69.906 0 126.563 56.657 126.563 126.562S1028.562 651.47 958.656 651.47c-69.905 0-126.562-56.657-126.562-126.563s56.657-126.562 126.562-126.562zm-2.156 43.125c-45.08 1.142-81.281 38.083-81.281 83.437 0 46.075 37.363 83.438 83.437 83.438a83.065 83.065 0 0 0 40.875-10.719.434.434 0 0 0 .094-.688l-18.969-18.968c-8.422-8.422-8.422-21.953 0-30.375s21.953-8.422 30.375 0l19.157 19.125a.434.434 0 0 0 .687-.094c7.106-12.276 11.219-26.514 11.219-41.719 0-46.074-37.363-83.437-83.438-83.437-.709 0-1.43-.019-2.156 0zm0 .75c.712-.018 1.44 0 2.156 0 45.84 0 83 37.16 83 83 0 15.126-4.087 29.287-11.156 41.5l-19.156-19.125c-8.587-8.587-22.413-8.587-31 0s-8.587 22.413 0 31l18.968 18.968a82.6 82.6 0 0 1-40.656 10.657c-45.84 0-83-37.16-83-83 0-45.124 35.994-81.864 80.844-83z" filter="url(#D)" transform="translate(332.813)"/>
        <path fill="url(#E)" d="M959.313 440.719c-46.079 0-83.494 37.04-84.125 82.969 1.151-45.47 38.378-81.97 84.125-81.97 45.746 0 82.973 36.5 84.125 81.97-.632-45.929-38.047-82.97-84.126-82.97z" transform="translate(332.813)"/>
        <path fill="url(#F)" d="M959.313 398.6c-69.665 0-126.232 56-127.187 125.437 1.742-68.742 58.024-123.926 127.187-123.926 69.162 0 125.444 55.184 127.186 123.927-.955-69.438-57.522-125.439-127.186-125.439z" transform="translate(332.813)"/>
        <path fill="url(#G)" d="M1041.656 526.05c-.094 14.927-4.17 28.898-11.156 40.969l-19.156-19.125a21.872 21.872 0 0 0-31 0c-4.46 4.46-6.579 10.338-6.407 16.156a21.806 21.806 0 0 1 6.407-14.844 21.872 21.872 0 0 1 31 0l19.156 19.125c7.07-12.213 11.156-26.373 11.156-41.5v-.781zm-166 .125c-.002.217 0 .439 0 .656 0 45.84 37.16 83 83 83a82.6 82.6 0 0 0 40.657-10.656l-.844-.844a82.57 82.57 0 0 1-39.813 10.188c-45.621 0-82.649-36.805-83-82.344z" filter="url(#H)" transform="translate(332.813)"/>
      </g>
    </g>
    <path fill="url(#I)" fill-rule="evenodd" d="M64 1033.87c-2.124 0-3.896 1.393-3.846 3.11.067 2.29 7.755 2.377 7.692 0-.046-1.717-1.722-3.11-3.846-3.11z"/>
    <path fill="url(#J)" fill-rule="evenodd" d="M42.313 8.469l53.218 98.219V9.938c0-.822-.647-1.47-1.469-1.47z" opacity=".623" transform="matrix(-1 0 0 1 128.044 924.362)"/>
    <path fill-rule="evenodd" d="M36 941.362c-1.259 0-2 1.213-2 2.094v87.906c0 1.197.9 2 2 2h56c1.184 0 2-.825 2-2.094v-87.906a2 2 0 0 0-2-2zm0 1h56c.786 0 1 .214 1 1v88c0 .786-.214 1-1 1H36c-.786 0-1-.214-1-1v-88c0-.786.214-1 1-1z"/>
    <rect width="58" height="83" x="35" y="24" fill="url(#K)" fill-rule="evenodd" rx="0" transform="translate(0 924.362)"/>
    <path d="M4633.615 2461.503c0 72.696-58.932 131.628-131.628 131.628-72.696 0-131.628-58.932-131.628-131.628s58.932-131.628 131.628-131.628c72.696 0 131.628 58.932 131.628 131.628z"/>
    <path d="M4586.946 2461.503c0 46.922-38.038 84.96-84.959 84.96-46.922 0-84.959-38.038-84.959-84.96s38.037-84.959 84.959-84.959c46.921 0 84.959 38.038 84.959 84.96z"/>
    <text x="83.792" y="927.353" fill="#fff" font-family="Gill Sans" font-size="3.754" letter-spacing="0" transform="scale(.98003 1.02037)" word-spacing="0">
      <tspan x="83.792" y="927.353">OXY</tspan>
    </text>
    <rect width="1" height="3" x="90.5" y="950.362" fill="#fff" fill-rule="evenodd" opacity=".609" rx="0"/>
    <rect width="1" height="2" x="89" y="951.362" fill="#fff" fill-rule="evenodd" opacity=".609" rx="0"/>
    <rect width="1" height="1" x="87.5" y="952.362" fill="#fff" fill-rule="evenodd" opacity=".609" rx="0"/>
    <path fill-opacity=".057" fill-rule="evenodd" d="M33.875 932.362c-1.077 0-1.938.86-1.938 1.938v.5c0-1.078.86-1.438 1.938-1.438H94c1.077 0 1.938.36 1.938 1.438v-.5c0-1.078-.86-1.938-1.938-1.938z"/>
    <text x="36.894" y="933.688" fill="#fff" fill-opacity=".651" font-family="Gill Sans" font-size="3.754" letter-spacing="0" transform="scale(.98003 1.02037)" word-spacing="0">
      <tspan x="36.894" y="933.688">OXYcom</tspan>
    </text>
    <g fill-rule="evenodd">
      <rect width="23" height="2" x="52.5" y="936.362" fill="url(#L)" rx="1"/>
      <rect width="23" height="2" x="52.5" y="936.362" fill="url(#L)" opacity=".359" rx="1"/>
      <rect width="23" height="2" x="52.5" y="936.362" fill="url(#M)" opacity=".095" rx="1"/>
      <path fill="#fff" d="M53.5 938.862c-.554 0-1-.446-1-1 0-.092.04-.165.063-.25.116.424.475.75.937.75h21c.462 0 .821-.326.938-.75.023.085.062.158.062.25 0 .554-.446 1-1 1z"/>
      <path fill="#fff" d="M53.5 938.862c-.554 0-1-.446-1-1 0-.092.04-.165.063-.25.116.424.475.75.937.75h21c.462 0 .821-.326.938-.75.023.085.062.158.062.25 0 .554-.446 1-1 1z" opacity=".786"/>
      <path fill-opacity=".297" d="M53.5 936.362c-.554 0-1 .446-1 1 0 .092.04.165.063.25.116-.424.475-.75.937-.75h21c.462 0 .821.326.938.75.023-.085.062-.157.062-.25 0-.554-.446-1-1-1z"/>
      <path d="M53.5 936.362c-.554 0-1 .446-1 1 0 .035.023.063.031.094.062-.494.458-.875.969-.875h21c.511 0 .907.38.969.875.008-.032.031-.059.031-.094 0-.554-.446-1-1-1z" opacity=".395"/>
    </g>
  </g>
</svg>
