<?xml version="1.0" encoding="UTF-8" standalone="no"?>
<!-- Generator: Adobe Illustrator 12.0.0, SVG Export Plug-In . SVG Version: 6.00 Build 51448)  -->
<svg enable-background="new 0 0 128 110.117" height="128" viewBox="0 -10 128 128" width="128" xmlns="http://www.w3.org/2000/svg" xmlns:xlink="http://www.w3.org/1999/xlink">
  <defs>
    <linearGradient id="linearGradient4926">
      <stop offset="0"/>
      <stop offset="1" stop-opacity="0"/>
    </linearGradient>
    <linearGradient id="XMLID_7_" gradientUnits="userSpaceOnUse" x1="-23" x2="146.2852" y1="53.941399" y2="53.941399">
      <stop offset="0" stop-color="#bbb"/>
      <stop offset=".5" stop-color="#eee"/>
      <stop offset="1" stop-color="#bbb"/>
    </linearGradient>
    <linearGradient id="screen_1_" gradientTransform="matrix(.969287 0 0 .915325 1.96603 -14.1482)" gradientUnits="userSpaceOnUse" x1="64.000504" x2="64.000504" y1="96.787102" y2="10.7881">
      <stop offset="0" stop-color="#323232"/>
      <stop offset="1"/>
    </linearGradient>
    <linearGradient id="XMLID_1_" gradientTransform="matrix(.969287 0 0 .915325 1.96603 -14.1482)" gradientUnits="userSpaceOnUse" x1="65.955284" x2="64.000504" y1="126.28169" y2="11.7876">
      <stop offset="0" stop-color="#888a85"/>
      <stop offset="1"/>
    </linearGradient>
    <radialGradient id="reflection02_1_" cx="-500.02591" cy="429.4014" gradientTransform="matrix(1.590796 .0778026 -.03227731 .438534 894.7732 -143.8109)" gradientUnits="userSpaceOnUse" r="74.371498">
      <stop offset="0" stop-color="#fff"/>
      <stop offset="1" stop-color="#323232"/>
    </radialGradient>
    <linearGradient id="XMLID_4_" gradientUnits="userSpaceOnUse" x1="64.000504" x2="64.000504" y1="4.3555" y2="2.8053">
      <stop offset="0" stop-color="#ddd"/>
      <stop offset="1" stop-color="#fff"/>
    </linearGradient>
    <linearGradient id="XMLID_5_" gradientTransform="matrix(.911205 0 0 1.166357 5.61638 -40.98807)" gradientUnits="userSpaceOnUse" x1="63.9995" x2="63.9995" y1="103.7871" y2="105.1747">
      <stop offset="0" stop-color="#ddd"/>
      <stop offset="1" stop-color="#888"/>
    </linearGradient>
    <linearGradient id="linearGradient2957" gradientTransform="matrix(.911205 0 0 1.166357 5.61638 -40.98807)" gradientUnits="userSpaceOnUse" x1="64.038635" x2="71.252182" xlink:href="#XMLID_7_" y1="120.82508" y2="88.732162"/>
    <linearGradient id="linearGradient3852" gradientTransform="matrix(.911205 0 0 1.166357 5.61638 -40.98807)" gradientUnits="userSpaceOnUse" x1="51.966976" x2="51.966976" xlink:href="#linearGradient4926" y1="94.473557" y2="103.03232"/>
    <linearGradient id="linearGradient3870" gradientUnits="userSpaceOnUse" spreadMethod="reflect" x1="126.32574" x2="128.40715" xlink:href="#XMLID_4_" y1="57.872971" y2="57.825924"/>
    <radialGradient id="radialGradient3880" cx="109.30173" cy="97.198151" fx="109.22961" fy="96.125778" gradientTransform="matrix(1 0 0 6.500001 0 -534.5899)" gradientUnits="userSpaceOnUse" r="1.66555" xlink:href="#linearGradient4926"/>
    <linearGradient id="linearGradient3972" gradientUnits="userSpaceOnUse" x1="16.030922" x2="16.030922" y1="94.90802" y2="96.781761">
      <stop offset="0" stop-color="#b4b4ab"/>
      <stop offset="1" stop-color="#b4b4ab" stop-opacity="0"/>
    </linearGradient>
    <radialGradient id="radialGradient4932" cx="-34.224712" cy="96.315048" fx="-32.421524" fy="92.539238" gradientTransform="matrix(1.912912 0 0 2.776935 172.5342 -181.8026)" gradientUnits="userSpaceOnUse" r="5.515625" xlink:href="#linearGradient4926"/>
    <linearGradient id="linearGradient4956" gradientTransform="matrix(.910087 0 0 .859421 87.6065 -16.42187)" gradientUnits="userSpaceOnUse" x1="-6.969468" x2="15.809061" y1="96.778023" y2="106.82337">
      <stop offset="0" stop-color="#fff"/>
      <stop offset="1" stop-color="#fff" stop-opacity="0"/>
    </linearGradient>
    <linearGradient id="linearGradient1999" gradientTransform="matrix(.910087 0 0 .859421 5.754826 -8.737362)" gradientUnits="userSpaceOnUse" x1="64.000504" x2="64.000504" xlink:href="#XMLID_4_" y1="4.3555" y2="2.8053"/>
    <linearGradient id="linearGradient2001" gradientTransform="matrix(.910087 0 0 .859421 5.754826 -8.737362)" gradientUnits="userSpaceOnUse" x1="-23" x2="146.2852" xlink:href="#XMLID_7_" y1="53.941399" y2="53.941399"/>
    <linearGradient id="linearGradient2285">
      <stop offset="0" stop-color="#5e5e5e"/>
      <stop offset=".75901806" stop-color="#dedede"/>
      <stop offset=".93379617" stop-color="#8d8d8d"/>
      <stop offset="1" stop-color="#616161"/>
    </linearGradient>
    <linearGradient id="linearGradient2301">
      <stop offset="0" stop-color="#dcdcdc"/>
      <stop offset="1" stop-color="#dcdcdc" stop-opacity="0"/>
    </linearGradient>
    <radialGradient id="radialGradient3100" cx="36.747746" cy="121.95814" fx="33.78273" fy="122.4772" gradientTransform="matrix(1 0 0 .316667 0 83.33806)" gradientUnits="userSpaceOnUse" r="4.965911" xlink:href="#linearGradient4926"/>
    <radialGradient id="radialGradient3126" cx="64.63961" cy="122.04091" gradientTransform="matrix(1 0 0 .844444 0 18.98414)" gradientUnits="userSpaceOnUse" r="3.724434" xlink:href="#linearGradient4926"/>
    <linearGradient id="linearGradient3148" gradientUnits="userSpaceOnUse" x1="64.20089787961" x2="63.47842772537" xlink:href="#linearGradient4926" y1="116.56846817249" y2="99.69119878511"/>
    <linearGradient id="linearGradient3151" gradientTransform="matrix(1.232917 0 0 1.176715 -164.5192 -66.35409)" gradientUnits="userSpaceOnUse" spreadMethod="reflect" x1="41.109016" x2="44.111984" xlink:href="#linearGradient2301" y1="79.413818" y2="79.413818"/>
    <linearGradient id="linearGradient3155" gradientUnits="userSpaceOnUse" x1="-116.98756948521" x2="-112.70398281445" xlink:href="#linearGradient2285" y1="11.4634109534" y2="11.4634109534"/>
    <linearGradient id="linearGradient3158" gradientTransform="matrix(1.232917 0 0 1.176715 -101.2784 43.20058)" gradientUnits="userSpaceOnUse" spreadMethod="reflect" x1="41.109016" x2="44.111984" xlink:href="#linearGradient2301" y1="79.413818" y2="79.413818"/>
    <linearGradient id="linearGradient3162" gradientUnits="userSpaceOnUse" x1="-53.74673948521" x2="-49.46315281445" xlink:href="#linearGradient2285" y1="121.0180709534" y2="121.0180709534"/>
    <linearGradient id="linearGradient3165" gradientTransform="matrix(1.232917 0 0 .682131 13.58992 59.6172)" gradientUnits="userSpaceOnUse" spreadMethod="reflect" x1="41.109016" x2="44.111984" xlink:href="#linearGradient2301" y1="79.413818" y2="79.413818"/>
    <linearGradient id="linearGradient3169" gradientTransform="matrix(.440002 0 0 .256362 44.24422 82.39539)" gradientUnits="userSpaceOnUse" x1="38.357395" x2="48.092775" xlink:href="#linearGradient2285" y1="86.916698" y2="86.916698"/>
  </defs>
  <g fill="#323232">
    <path d="m12.250599-7.4360286c-2.906198 0-5.2698228 2.2328753-5.2698228 4.9772757v84.3023979c0 1.855962 1.5983197 3.365298 3.5637008 3.365298h106.911053c1.96537 0 3.5637-1.509336 3.5637-3.365298v-84.3023979c0-2.7444004-2.36452-4.9772757-5.27072-4.9772757z" opacity=".15"/>
    <path d="m12.250599-6.5947041c-2.4144058 0-4.3788984 1.8551206-4.3788984 4.1359512v84.3023979c0 1.39155 1.1991867 2.523974 2.6727764 2.523974h106.911053c1.47359 0 2.67276-1.132424 2.67276-2.523974v-84.3023979c0-2.2808306-1.96448-4.1359512-4.37978-4.1359512z" opacity=".2"/>
    <path d="m12.250599-5.7533797c-1.923508 0-3.4879731 1.477366-3.4879731 3.2946268v84.3023979c0 .927981.7991613 1.682648 1.7818511 1.682648h106.911053c.98269 0 1.78184-.754667 1.78184-1.682648v-84.3023979c0-1.8172608-1.56535-3.2946268-3.48886-3.2946268z" opacity=".25"/>
    <path d="m11.513464-6.1598158c-1.45211 0-2.6340404 1.1161277-2.6340404 2.488248v85.5032288c0 .47188.4048204.853309.9036156.853309h108.4339308c.4997 0 .9036-.381429.9036-.853309v-85.5032288c0-1.3721203-1.18283-2.488248-2.63494-2.488248z" opacity=".3"/>
  </g>
  <rect fill="url(#linearGradient3169)" height="123.5617" rx=".445692" ry=".447956" width="4.283589" x="61.12149" y="-9.001029"/>
  <path d="m118.60578 81.501797h-109.210602v-86.1156593c0-.9092671.780857-1.6457905 1.742819-1.6457905h105.724043c.96378 0 1.74374.7365234 1.74374 1.6466498z" fill="url(#linearGradient2001)"/>
  <rect fill="url(#screen_1_)" height="78.717918" width="106.62171" x="10.689621" y="-4.273686"/>
  <path d="m11.658911-3.3592762v76.8872692h104.683129c0-2.140027 0-74.749071 0-76.8872692-2.26425 0-102.416935 0-104.683129 0z" fill="url(#XMLID_1_)"/>
  <path d="m110.96728 97.198151a1.6655502 10.826077 0 1 1 -3.3311 0 1.6655502 10.826077 0 1 1 3.3311 0z" fill="url(#radialGradient3880)" opacity=".364754" transform="matrix(.858547 -.216048 .230048 .806303 -88.51962 15.62392)"/>
  <g transform="matrix(.718714 .08884136 -.111981 .698759 -45.19791 -1.565538)">
    <rect fill="url(#linearGradient3870)" height="23.429661" transform="matrix(.959831 .28058 -.28058 .959831 0 0)" width="4.043211" x="126.44639" y="46.102161"/>
    <path d="m112.9877 79.531212a1.9874057.95689905 0 1 1 -3.97482 0 1.9874057.95689905 0 1 1 3.97482 0z" fill="#fff" transform="matrix(.981481 .214463 0 .965084 1.429896 -20.25564)"/>
  </g>
  <path d="m12.628199-2.2489877v28.6368477c11.12452-.516244 21.812862-.212355 32.239496.588554 4.36955 1.048962 27.172058-27.95401553 52.574193-29.2254017zm102.744571 11.646592c-4.79412.5308885-9.59209 1.1917527-14.3038 2.1171447-10.354909 2.035682-19.034886 10.005414-27.471571 18.738528 13.949027 1.974354 27.724561 4.285549 41.775371 6.049378z" fill="url(#reflection02_1_)" opacity=".1"/>
  <path d="m11.137997-6.1591007c-.335823 0-.646163.093677-.911907.249232 4.474904.4039279 26.838503.7107409 53.774386.7107409 26.934974 0 49.299474-.306813 53.775284-.7107409-.26665-.155555-.5779-.249232-.91372-.249232z" fill="url(#linearGradient1999)"/>
  <path d="m111.46181 72.133903v9.423851h6.15403c-.63204-4.453633-3.0259-8.052511-6.15403-9.423851z" fill="url(#radialGradient4932)"/>
  <g transform="matrix(.910087 0 0 .859421 87.6065 -8.737362)">
    <rect fill="#d3d7cf" height="4.372069" width="18.73744" x="7.494978" y="93.86705"/>
    <rect fill="#b3925d" height="4.996651" transform="scale(1 -1)" width="18.73744" x="7.494978" y="-103.23577"/>
    <rect fill="url(#linearGradient3972)" height="1.873744" width="18.73744" x="7.494978" y="94.90802"/>
  </g>
  <path d="m94.432158 71.937304v.88628 1.611412 1.262275 4.297102h17.035712v-4.297102-1.262275-1.611412-.88628z" fill="url(#linearGradient4956)"/>
  <rect fill="url(#linearGradient2957)" height="4.807753" width="109.19259" x="9.372391" y="76.756836"/>
  <rect fill="url(#linearGradient3852)" height="4.807753" width="109.19259" x="9.372391" y="76.756836"/>
  <path d="m9.2611999 81.479374h109.3445801c0-.644994-24.477701-1.166353-54.672294-1.166353-30.194592 0-54.6722861.521359-54.6722861 1.166353z" fill="url(#XMLID_5_)"/>
  <path d="m37.165197 32.095703-15.277649 10.406514 10.240454 12.786729-1.217784 1.328491-9.908331-12.509959-3.155167 12.011775h-1.826676l12.288544-45.832949h1.771323l-8.192363 30.27853 14.059866-9.74227zm25.116788 2.490921-5.590734 20.97909h-1.715968l3.099812-11.679652c-4.133101 7.306708-8.118571 11.107664-11.95642 11.402884-2.029648.147611-3.874772-.571987-5.535381-2.158799-1.623714-1.586805-2.435569-3.395026-2.435567-5.424672-.000002-.516626.055352-1.014811.166062-1.494553 1.033267-3.948557 3.450381-7.509648 7.251348-10.683284 3.800948-3.173593 7.472746-4.760402 11.015405-4.760427 1.771301.000025 3.265852.461306 4.48366 1.383845l-1.162431 1.162431c-1.033293-.774931-2.269527-1.162407-3.708704-1.162431-3.062928.000024-6.310347 1.513027-9.742269 4.539012-3.431943 2.989122-5.609191 6.291896-6.531749 9.908331-.110711.369034-.166066.738059-.166062 1.107076-.000004 1.586816.645791 3.007561 1.937383 4.262243 1.328485 1.254688 2.767682 1.826678 4.317597 1.715968 2.324847-.18451 4.741961-1.845123 7.251348-4.981843 1.808207-2.361752 3.524172-5.332403 5.147904-8.911962 1.328468-2.915281 1.992712-4.649699 1.992737-5.203257zm22.064544 3.48729-4.815781 18.045339h-1.771321l4.981841-18.488171c.073786-.295201.110688-.590421.110709-.885661-.000021-1.143957-.516656-2.158776-1.549907-3.044458-1.033289-.885638-2.195717-1.365371-3.487289-1.439199-2.43558-.110684-5.037206 1.254708-7.804887 4.096181l-5.313965 19.484539h-1.771321l4.815781-17.491802h-1.107077c.258314-.701129.848754-1.715948 1.771322-3.044458l1.107076-4.871136h1.660614l-.885661 3.597997c2.878387-2.361737 5.406209-3.487263 7.583471-3.376582 1.697499.073831 3.228954.738076 4.594367 1.992737 1.365371 1.217807 2.048068 2.620101 2.04809 4.20689-.000022.405947-.055376.811873-.166062 1.217784m26.478141-3.48729-5.59073 20.97909h-1.71597l3.09981-11.679652c-4.13309 7.306708-8.118568 11.107664-11.956418 11.402884-2.029647.147611-3.874772-.571987-5.53538-2.158799-1.623715-1.586805-2.435569-3.395026-2.435567-5.424672-.000002-.516626.055351-1.014811.166061-1.494553 1.033267-3.948557 3.450381-7.509648 7.251349-10.683284 3.800947-3.173593 7.472745-4.760402 11.015405-4.760427 1.7713.000025 3.26585.461306 4.48365 1.383845l-1.16242 1.162431c-1.0333-.774931-2.26952-1.162407-3.7087-1.162431-3.06293.000024-6.310353 1.513027-9.742275 4.539012-3.431942 2.989122-5.60919 6.291896-6.53175 9.908331-.11071.369034-.166064.738059-.166061 1.107076-.000003 1.586816.645791 3.007561 1.937384 4.262243 1.328485 1.254688 2.767682 1.826678 4.317597 1.715968 2.324847-.18451 4.741961-1.845123 7.251345-4.981843 1.80821-2.361752 3.52417-5.332403 5.14791-8.911962 1.32847-2.915281 1.9927-4.649699 1.99273-5.203257z" fill="#eeeeec" stroke="#e8e8e8" stroke-opacity=".369919" stroke-width="1.478334"/>
  <path d="m227.6526-13.902414v-2.794709z" fill="#fff" fill-opacity=".756881"/>
  <path d="m41.713657 121.95814a4.9659114 1.5725386 0 1 1 -9.931823 0 4.9659114 1.5725386 0 1 1 9.931823 0z" fill="url(#radialGradient3100)" opacity=".495902" transform="matrix(2.423185 -.445007 .232324 1.660233 -77.36749 -70.51526)"/>
  <path d="m41.713657 121.95814a4.9659114 1.5725386 0 1 1 -9.931823 0 4.9659114 1.5725386 0 1 1 9.931823 0z" fill="url(#radialGradient3100)" opacity=".495902" transform="matrix(-2.423185 -.445007 -.232324 1.660233 204.0416 -71.0355)"/>
  <rect height="7.162728" rx="1.835823" width="6.527369" x="59.999596" y="109.25211"/>
  <rect fill="url(#linearGradient3165)" height="6.271316" opacity=".479508" rx="1.284149" ry="1.251697" width="5.614094" x="60.412197" y="109.7458"/>
  <rect fill="url(#linearGradient3162)" height="33.925957" transform="matrix(.5 -.866025 .866025 .5 0 0)" width="4.28358" x="-53.74678" y="104.05507"/>
  <rect height="8.975123" rx="1.835821" transform="matrix(.5 -.866025 .866025 .5 0 0)" width="6.527361" x="-54.868671" y="132.20435"/>
  <rect fill="url(#linearGradient3158)" height="7.690976" opacity=".479508" rx="1.284147" ry="1.251696" transform="matrix(.5 -.866025 .866025 .5 0 0)" width="5.614088" x="-54.45607" y="132.8024"/>
  <rect fill="url(#linearGradient3155)" height="33.925957" transform="matrix(-.5 -.866025 -.866025 .5 0 0)" width="4.28358" x="-116.98756" y="-5.49958"/>
  <rect height="8.975123" rx="1.835821" transform="matrix(-.5 -.866025 -.866025 .5 0 0)" width="6.527361" x="-118.10945" y="22.649681"/>
  <rect fill="url(#linearGradient3151)" height="7.690976" opacity=".479508" rx="1.284147" ry="1.251696" transform="matrix(-.5 -.866025 -.866025 .5 0 0)" width="5.614088" x="-117.69686" y="23.247713"/>
  <path d="m62.261442 99.698525c-.053251.01361-.11284.041298-.163691.065477-.523372.272568-.91667 1.090578-.91667 2.062508v8.02087c-.123317.05419-.261393.14174-.360121.22917-.014845.0138-.051313.051-.065477.06547-.013796.01481-.052412.05004-.065476.06548-.019025.02363-.048201.07326-.065477.09821-.027782.04232-.075722.11807-.098214.1637-.029931.06472-.047059.15907-.065477.22917-.021445.09099-.032738.19713-.032738.29464v3.76489c0 .14086.021854.29945.065477.42561.017956.04796.041904.11869.065476.16369.078897.14191.20064.29098.327383.39285.080803.06183.199781.12202.294644.1637.153738.06317.345956.09821.523811.09821h.229168c.047436.03594.113373.072.163691.09822.111875.05318.237853.09821.360121.09821h1.505958c.188971 0 .362552-.07422.523812-.19643h.261906c.122279 0 .248245-.00191.360121-.03274.130848-.03951.283812-.12095.392859-.19643.049416-.03597.120173-.08854.163691-.13095.042471-.04343.095219-.11464.130953-.16369.057578-.08321.127789-.1987.163691-.29464.043623-.12616.065477-.28475.065477-.42561v-3.76489c0-.09751-.011293-.20365-.032739-.29464-.065769-.25034-.231608-.49108-.425597-.65477-.015839-.01274-.048997-.05348-.065476-.06548-.075492-.05225-.175425-.09542-.261906-.13095v-8.02087c0-.91585-.341798-1.6821-.818456-1.997031-.137804-.084523-.302711-.130954-.458336-.130954h-1.505958c-.066692 0-.132525-.016322-.19643 0z" fill="url(#linearGradient3148)" opacity=".77459"/>
  <path d="m68.364044 122.04091a3.7244337 3.1450772 0 1 1 -7.448867 0 3.7244337 3.1450772 0 1 1 7.448867 0z" fill="url(#radialGradient3126)" opacity=".495902" transform="matrix(1.210588 0 0 1.047623 -15.26174 -11.28855)"/>
  <path d="m37.165197 32.095703-15.277649 10.406514 10.240454 12.786729-1.217784 1.328491-9.908331-12.509959-3.155167 12.011775h-1.826676l12.288544-45.832949h1.771323l-8.192363 30.27853 14.059866-9.74227zm25.116788 2.490921-5.590734 20.97909h-1.715968l3.099812-11.679652c-4.133101 7.306708-8.118571 11.107664-11.95642 11.402884-2.029648.147611-3.874772-.571987-5.535381-2.158799-1.623714-1.586805-2.435569-3.395026-2.435567-5.424672-.000002-.516626.055352-1.014811.166062-1.494553 1.033267-3.948557 3.450381-7.509648 7.251348-10.683284 3.800948-3.173593 7.472746-4.760402 11.015405-4.760427 1.771301.000025 3.265852.461306 4.48366 1.383845l-1.162431 1.162431c-1.033293-.774931-2.269527-1.162407-3.708704-1.162431-3.062928.000024-6.310347 1.513027-9.742269 4.539012-3.431943 2.989122-5.609191 6.291896-6.531749 9.908331-.110711.369034-.166066.738059-.166062 1.107076-.000004 1.586816.645791 3.007561 1.937383 4.262243 1.328485 1.254688 2.767682 1.826678 4.317597 1.715968 2.324847-.18451 4.741961-1.845123 7.251348-4.981843 1.808207-2.361752 3.524172-5.332403 5.147904-8.911962 1.328468-2.915281 1.992712-4.649699 1.992737-5.203257zm22.064544 3.48729-4.815781 18.045339h-1.771321l4.981841-18.488171c.073786-.295201.110688-.590421.110709-.885661-.000021-1.143957-.516656-2.158776-1.549907-3.044458-1.033289-.885638-2.195717-1.365371-3.487289-1.439199-2.43558-.110684-5.037206 1.254708-7.804887 4.096181l-5.313965 19.484539h-1.771321l4.815781-17.491802h-1.107077c.258314-.701129.848754-1.715948 1.771322-3.044458l1.107076-4.871136h1.660614l-.885661 3.597997c2.878387-2.361737 5.406209-3.487263 7.583471-3.376582 1.697499.073831 3.228954.738076 4.594367 1.992737 1.365371 1.217807 2.048068 2.620101 2.04809 4.20689-.000022.405947-.055376.811873-.166062 1.217784m26.478141-3.48729-5.59073 20.97909h-1.71597l3.09981-11.679652c-4.13309 7.306708-8.118568 11.107664-11.956418 11.402884-2.029647.147611-3.874772-.571987-5.53538-2.158799-1.623715-1.586805-2.435569-3.395026-2.435567-5.424672-.000002-.516626.055351-1.014811.166061-1.494553 1.033267-3.948557 3.450381-7.509648 7.251349-10.683284 3.800947-3.173593 7.472745-4.760402 11.015405-4.760427 1.7713.000025 3.26585.461306 4.48365 1.383845l-1.16242 1.162431c-1.0333-.774931-2.26952-1.162407-3.7087-1.162431-3.06293.000024-6.310353 1.513027-9.742275 4.539012-3.431942 2.989122-5.60919 6.291896-6.53175 9.908331-.11071.369034-.166064.738059-.166061 1.107076-.000003 1.586816.645791 3.007561 1.937384 4.262243 1.328485 1.254688 2.767682 1.826678 4.317597 1.715968 2.324847-.18451 4.741961-1.845123 7.251345-4.981843 1.80821-2.361752 3.52417-5.332403 5.14791-8.911962 1.32847-2.915281 1.9927-4.649699 1.99273-5.203257z" fill="#eeeeec" opacity=".635246" stroke="#e8e8e8" stroke-opacity=".369919" stroke-width="2.160643"/>
</svg>
