<?xml version="1.0" encoding="UTF-8" standalone="no"?>
<!DOCTYPE svg PUBLIC "-//W3C//DTD SVG 1.1//EN" 
  "http://www.w3.org/Graphics/SVG/1.1/DTD/svg11.dtd">
<svg xmlns="http://www.w3.org/2000/svg" xmlns:xlink="http://www.w3.org/1999/xlink" width="128" height="128">
  <defs>
    <path id="E" fill="url(#a)" d="M270 105.5a7.5 7.5 0 1 1-15 0 7.5 7.5 0 1 1 15 0z"/>
    <path id="F" fill="url(#b)" d="M285 100.5a7.5 7.5 0 1 1-15 0 7.5 7.5 0 1 1 15 0z"/>
    <path id="G" fill="url(#c)" d="M270 84.5a6.5 6.5 0 1 1-13 0 6.5 6.5 0 1 1 13 0z"/>
    <path id="H" fill="url(#d)" d="M290 86.25a10 5 0 1 1-20 0 10 5 0 1 1 20 0z"/>
    <path id="I" fill="url(#e)" d="M306.125 89A5.562 9 0 1 1 295 89a5.562 9 0 1 1 11.125 0z"/>
    <path id="J" fill="url(#f)" d="M302.5 97.625a7.625 7.625 0 1 1-15.25 0 7.625 7.625 0 1 1 15.25 0z"/>
    <path id="K" fill="url(#g)" d="M262.75 91.625a6.375 6.375 0 1 1-12.75 0 6.375 6.375 0 1 1 12.75 0z"/>
    <path id="O" d="M42.5 110.75H135V143H42.5z" mask="url(#h)"/>
  </defs>
  <pattern xlink:href="#i" id="l" patternTransform="scale(.13362)"/>
  <pattern xlink:href="#i" id="j" patternTransform="translate(-2.248 -51.5) scale(.19015)"/>
  <linearGradient id="k">
    <stop offset="0" stop-color="#eaeaea"/>
    <stop offset="1" stop-color="#eaeaea" stop-opacity="0"/>
  </linearGradient>
  <linearGradient id="i">
    <stop offset="0" stop-color="#f6ab58"/>
    <stop offset=".223" stop-color="#fab662"/>
    <stop offset=".25" stop-color="#ffc26d"/>
    <stop offset=".483" stop-color="#f5c279"/>
    <stop offset=".52" stop-color="#f5ae54"/>
    <stop offset=".625" stop-color="#e89e48"/>
    <stop offset=".648" stop-color="#dc8e3c"/>
    <stop offset="1" stop-color="#f2ad50"/>
  </linearGradient>
  <filter id="o">
    <feGaussianBlur stdDeviation="2.079"/>
  </filter>
  <radialGradient id="p" cx="102" cy="112.305" r="139.559" fx="115.081" fy="124.33" gradientTransform="matrix(1 0 0 .99967 -8 .003)" gradientUnits="userSpaceOnUse">
    <stop offset="0" stop-color="#efefef"/>
    <stop offset=".189" stop-color="#f9f9f9"/>
    <stop offset=".257" stop-color="#fafafa"/>
    <stop offset=".301" stop-color="#fff"/>
    <stop offset=".531" stop-color="#fafafa"/>
    <stop offset=".845" stop-color="#ebecec"/>
    <stop offset="1" stop-color="#e1e2e3"/>
  </radialGradient>
  <filter id="n">
    <feGaussianBlur stdDeviation=".757"/>
  </filter>
  <linearGradient id="s" x1="21.177" x2="21.177" y1="20.573" y2="-1.154" gradientUnits="userSpaceOnUse">
    <stop offset="0"/>
    <stop offset="1" stop-opacity="0"/>
  </linearGradient>
  <linearGradient id="t" x1="21.177" x2="21.177" y1="20.573" y2="5.978" gradientUnits="userSpaceOnUse">
    <stop offset="0" stop-color="#0e2965"/>
    <stop offset="1" stop-color="#091e6a"/>
  </linearGradient>
  <linearGradient id="q" x1="7.938" x2="7.938" y1="18" y2="4.75" gradientUnits="userSpaceOnUse">
    <stop offset="0" stop-color="#5df"/>
    <stop offset=".835" stop-color="#c7ecf4"/>
    <stop offset="1" stop-color="#d8edf2"/>
  </linearGradient>
  <linearGradient id="r" x1="65.5" x2="65.5" y1="28.008" y2="4.729" gradientUnits="userSpaceOnUse">
    <stop offset="0" stop-color="#5cb81f"/>
    <stop offset=".839" stop-color="#abef7f"/>
    <stop offset="1" stop-color="#71ff11"/>
  </linearGradient>
  <linearGradient id="u" x1="52.59" x2="52.59" y1="24.693" y2="51.937" gradientUnits="userSpaceOnUse">
    <stop offset="0" stop-color="#bbb"/>
    <stop offset="1" stop-color="#616161"/>
  </linearGradient>
  <linearGradient xlink:href="#i" id="w" x1="125.08" x2="123.489" y1="65" y2="73.182" gradientUnits="userSpaceOnUse" spreadMethod="reflect"/>
  <linearGradient xlink:href="#i" id="A" x1="-124.594" x2="-120.08" y1="95.309" y2="95" gradientUnits="userSpaceOnUse" spreadMethod="reflect"/>
  <radialGradient xlink:href="#i" id="z" cx="-138.875" cy="113" r="2.5" gradientTransform="matrix(1 0 0 10 94.92 -1035)" gradientUnits="userSpaceOnUse" spreadMethod="reflect"/>
  <radialGradient xlink:href="#i" id="y" cx="219.13" cy="220.5" r="40" fx="221.889" fy="198.5" gradientTransform="matrix(.63444 0 0 .14717 -37.072 95.048)" gradientUnits="userSpaceOnUse" spreadMethod="reflect"/>
  <radialGradient id="x" cx="180" cy="125.639" r="35" gradientTransform="matrix(1.66148 0 0 1.18677 -213.986 -39.105)" gradientUnits="userSpaceOnUse">
    <stop offset="0" stop-color="#444a4f"/>
    <stop offset="1" stop-color="#181818"/>
  </radialGradient>
  <mask id="D" maskUnits="userSpaceOnUse">
    <path fill="url(#j)" stroke-linecap="round" stroke-linejoin="round" stroke-width=".2" d="M242.752 69.5h70v50h-70z"/>
  </mask>
  <filter id="C" width="1.266" height="1.386" x="-.133" y="-.193">
    <feGaussianBlur stdDeviation="4.437"/>
  </filter>
  <filter id="B">
    <feGaussianBlur stdDeviation=".329"/>
  </filter>
  <radialGradient xlink:href="#k" id="a" cx="262.5" cy="105.5" r="7.5" gradientUnits="userSpaceOnUse"/>
  <radialGradient xlink:href="#k" id="b" cx="277.5" cy="100.5" r="7.5" gradientUnits="userSpaceOnUse"/>
  <radialGradient xlink:href="#k" id="c" cx="263.5" cy="84.5" r="6.5" gradientUnits="userSpaceOnUse"/>
  <radialGradient xlink:href="#k" id="d" cx="280" cy="86.25" r="10" gradientTransform="matrix(1 0 0 .5 0 43.125)" gradientUnits="userSpaceOnUse"/>
  <radialGradient xlink:href="#k" id="e" cx="300.562" cy="89" r="5.562" gradientTransform="matrix(1 0 0 1.61803 0 -55.005)" gradientUnits="userSpaceOnUse"/>
  <radialGradient xlink:href="#k" id="f" cx="294.875" cy="97.625" r="7.625" gradientUnits="userSpaceOnUse"/>
  <radialGradient xlink:href="#k" id="g" cx="256.375" cy="91.625" r="6.375" gradientUnits="userSpaceOnUse"/>
  <filter id="L">
    <feBlend in2="BackgroundImage" mode="screen"/>
  </filter>
  <filter id="N">
    <feBlend in2="BackgroundImage" mode="multiply"/>
  </filter>
  <linearGradient xlink:href="#i" id="M" x1="125.04" x2="123.449" y1="65.094" y2="73.276" gradientUnits="userSpaceOnUse" spreadMethod="reflect"/>
  <filter id="v">
    <feGaussianBlur stdDeviation="1.359"/>
  </filter>
  <filter id="m">
    <feGaussianBlur stdDeviation=".107"/>
  </filter>
  <mask id="h" maskUnits="userSpaceOnUse">
    <path fill="url(#l)" stroke-linecap="round" stroke-linejoin="round" stroke-width=".2" d="M-91.313 109.688a.198.198 0 0 0-.03.03.198.198 0 0 0-.032.032.198.198 0 0 0-.031.063v.03l-.156.782a.198.198 0 0 0 0 .063v.03a.198.198 0 0 0 .03.063c.147.175.293.412.438.625.28.399.49.807.719 1.25.24.472.422.956.625 1.469.201.513.375 1.06.531 1.594.152.517.273 1.057.375 1.594a.723.723 0 0 0 0 .093c.021.252.007.476 0 .75-.02.472-.068.95-.156 1.406-.089.398-.264.77-.438 1.157-.093.208-.202.414-.312.625v.062a.198.198 0 0 0 0 .063.198.198 0 0 0 0 .062l.344.719c.009.012.02.022.031.031.01.012.02.022.031.031a.198.198 0 0 0 .125.032.222.222 0 0 0 .063 0 .198.198 0 0 0 .062-.031.198.198 0 0 0 .031-.032.198.198 0 0 0 .032-.031c.12-.22.214-.435.312-.656.192-.41.345-.844.469-1.281v-.032a9.91 9.91 0 0 0 .219-1.469 7.947 7.947 0 0 0-.219-2.312c-.11-.54-.213-1.085-.375-1.625a17.963 17.963 0 0 0-.563-1.625c-.204-.51-.393-1.03-.656-1.531a13.172 13.172 0 0 0-.812-1.344c-.136-.215-.268-.384-.406-.594a.198.198 0 0 0-.094-.094h-.031a.198.198 0 0 0-.063 0 .198.198 0 0 0-.063 0zm-15.343.874v.032a2.35 2.35 0 0 0-.531.469c-.19.216-.325.46-.47.687-.19.279-.343.582-.468.875a8.83 8.83 0 0 0-.344.969c-.12.39-.192.774-.281 1.156-.088.395-.176.783-.25 1.188-.066.4-.16.83-.219 1.25a6.857 6.857 0 0 0-.062 1.124c.03.495.122.97.219 1.438.014.07.034.138.062.219.028.08.052.158.063.187.179.474.492.885.78 1.25.209.262.112.126.313.375.01.012.02.022.031.031.02.015.04.025.063.032h.031c.02.003.042.003.063 0 .02.003.042.003.062 0a.198.198 0 0 0 .031-.031.198.198 0 0 0 .032-.032.198.198 0 0 0 .031-.062v-.031l.094-.75v-.032a.198.198 0 0 0 0-.062.198.198 0 0 0-.031-.063c-.097-.12-.106-.119-.126-.156-.019-.037-.05-.116-.156-.25-.266-.358-.502-.697-.625-1.094-.035-.114-.08-.193-.094-.25a.363.363 0 0 0 0-.125 4.58 4.58 0 0 1 .032-1c.045-.398.122-.81.187-1.219.068-.398.135-.798.219-1.187.085-.382.174-.759.281-1.125a9.23 9.23 0 0 1 .344-.938c.124-.291.193-.528.344-.75v-.03c.131-.216.28-.407.437-.594.129-.155.26-.325.375-.407a.198.198 0 0 0 .031-.031.198.198 0 0 0 .032-.063.198.198 0 0 0 0-.062.198.198 0 0 0 0-.063l-.219-.75a.198.198 0 0 0-.063-.093.198.198 0 0 0-.062-.031h-.031a.198.198 0 0 0-.063 0 .198.198 0 0 0-.062 0zm1.719.907a.198.198 0 0 0-.032.031.198.198 0 0 0-.031.031 1.193 1.193 0 0 0-.156.438c-.019.193-.03.433.031.656s.202.456.469.531h.031a.631.631 0 0 0 .563-.187c.048-.065.094-.11.124-.188.016-.038.006-.08 0-.125-.005-.044-.02-.07-.03-.094-.04-.095-.09-.191-.157-.562v-.031a.198.198 0 0 0-.031-.063.198.198 0 0 0-.031-.031.198.198 0 0 0-.063-.031h-.031a.198.198 0 0 0-.063 0 .198.198 0 0 0-.062 0 .198.198 0 0 0-.031.031.198.198 0 0 0-.032.031l-.187-.344a.198.198 0 0 0-.031-.03.198.198 0 0 0-.032-.032.198.198 0 0 0-.031-.031.198.198 0 0 0-.063 0 .198.198 0 0 0-.062 0zm47 .719c-.336.065-.58.278-.782.437-.33.277-.639.55-.968.813-.288.235-.61.48-.907.718a10.677 10.677 0 0 0-.5.438.198.198 0 0 0-.031.125.198.198 0 0 0 0 .062l.281.719a.198.198 0 0 0 .032.063c.009.011.02.022.03.03.02.015.04.025.063.032h.032c.02.003.041.003.062 0h.031a.198.198 0 0 0 .063-.031.198.198 0 0 0 .031-.031c.112-.12.264-.2.438-.344l.874-.719c.332-.267.619-.546.938-.813.007-.004.024.005.031 0 .012-.007.02-.022.032-.03-.041.522-.08 1.046-.126 1.562a402.721 402.721 0 0 0-.25 3.281c-.078.95-.165 1.893-.25 2.844-.063.71-.12 1.418-.187 2.125-.053.531-.08 1.04-.125 1.562-.049.48-.113.98-.156 1.469-.036.404-.071.84-.094 1.25-.02.368-.02.704-.031 1.063-.01.296-.025.602-.032.906-.004.246.003.485 0 .719.001.078-.022.214-.03.343a.198.198 0 0 0 .03.125l.438.656c.025.03.057.052.094.063h.031c.02.003.042.003.063 0a.198.198 0 0 0 .093-.031.198.198 0 0 0 .032-.031.198.198 0 0 0 .03-.063.198.198 0 0 0 0-.063c.008-.105.022-.196.032-.312v-.031c.002-.245-.004-.485 0-.719.005-.294.023-.602.031-.906.01-.364.014-.738.032-1.094.02-.408.03-.759.062-1.156.04-.478.103-.983.156-1.469.056-.537.073-1.076.125-1.594a1607.496 1607.496 0 0 0 .438-4.969v-.03c.074-1.083.162-2.136.25-3.22.067-.734.131-1.49.218-2.218.02-.206.07-.563.032-.875a.867.867 0 0 0-.157-.438.598.598 0 0 0-.5-.219zm.062.874h.125l.094.063v.031h-.125v.031h-.032l-.062.094a6.983 6.983 0 0 0-.031-.031l-.032-.063v-.062a2.55 2.55 0 0 0 .032-.031l.031-.031zm-35.188.313a.198.198 0 0 0-.03.031.198.198 0 0 0-.032.031 1.2 1.2 0 0 1-.281.25 2.232 2.232 0 0 1-.563.22c-.2.045-.37.086-.562.093-.226.012-.45.005-.688 0a14.177 14.177 0 0 1-.781-.063 9.056 9.056 0 0 0-.75-.062c-.198.005-.391.015-.594.094-.18.065-.39.155-.562.281-.165.123-.312.26-.438.438-.104.142-.21.297-.281.468-.004.009.003.023 0 .031-.06.137-.092.281-.125.376v.062a.198.198 0 0 0 0 .063c.01.011.02.022.031.03l.406.657v.031c.01.012.02.022.032.031.028.019.06.03.094.032.02.003.041.003.062 0h.031a.198.198 0 0 0 .094-.063.198.198 0 0 0 .031-.062v-.031c.01-.108.03-.19.063-.282.051-.138.106-.274.187-.406.072-.117.193-.215.313-.313.089-.071.226-.13.375-.187.123-.051.268-.091.406-.094h.031c-.031.164-.038.317-.062.469-.04.25-.071.499-.094.75-.023.28-.004.558 0 .813.011.249.006.51.031.78.049.498.173.957.344 1.407v.031c.05.1.1.206.156.313a.198.198 0 0 0 .063.062.19.19 0 0 0 .062.031h.031a.167.167 0 0 0 .063 0c.02.004.042.004.063 0a.198.198 0 0 0 .03-.03.198.198 0 0 0 .032-.032.198.198 0 0 0 .031-.063v-.03l.156-.782a.198.198 0 0 0 0-.063v-.062c-.043-.094-.096-.19-.124-.281-.021-.064-.068-.158-.094-.25-.002-.02.001-.042 0-.063-.009-.115-.024-.234-.031-.344-.015-.24 0-.485 0-.75.019-.248.03-.492.062-.718.025-.174.063-.34.094-.531v-.032a.198.198 0 0 0 0-.062.198.198 0 0 0-.031-.031l-.282-.47c.033.004.06-.003.094 0 .277.028.567.047.844.063.241.004.49.015.75 0 .153-.005.293-.037.437-.062-.041.119-.086.228-.125.375-.048.186-.07.389-.094.562-.029.204-.031.4-.03.594 0 .211.034.407.062.594v.031c.015.483.165.912.281 1.313.065.217.158.368.219.53v.032c.079.181.145.366.25.563.009.011.02.022.031.03.025.03.057.052.094.063h.031c.02.004.042.004.063 0a.198.198 0 0 0 .093-.031.198.198 0 0 0 .031-.031.198.198 0 0 0 .032-.063v-.031l.156-.781a.198.198 0 0 0 0-.063v-.062c-.093-.185-.191-.332-.25-.5a5.574 5.574 0 0 1-.188-.563c-.016-.054-.043-.117-.062-.187-.002-.014.002-.019 0-.031-.01-.067-.028-.113-.031-.157a3.186 3.186 0 0 1 .031-.531c.019-.175.032-.352.063-.5.033-.156.077-.28.124-.438.033-.111.084-.248.126-.374v-.032a.198.198 0 0 0 0-.062v-.063l-.22-.375c.094-.034.188-.042.282-.094.188-.106.315-.284.438-.406h.03a.198.198 0 0 0 .032-.062v-.031a.198.198 0 0 0 0-.063v-.031l-.281-.719a.198.198 0 0 0-.031-.063.198.198 0 0 0-.032-.03.198.198 0 0 0-.062-.032h-.031a.198.198 0 0 0-.063 0h-.062zm-11.562.813a.344.344 0 0 0-.25.062l.063.094-.126.031-.03.031H-105c.004.012-.003.022 0 .031-.005.01.004.02 0 .032-.057.219-.048.442-.063.625-.004.11-.001.209 0 .312v.031c-.009.092-.023.212-.03.313-.013.24-.042.466-.063.719a12.57 12.57 0 0 1-.094.844 7.91 7.91 0 0 1-.188.843c-.068.232-.12.485-.218.656h-.031c-.06.111-.082.207-.157.282a.198.198 0 0 0-.062.062v.031a.198.198 0 0 0 0 .063v.031l.25.75a.198.198 0 0 0 .031.063c.01.011.02.022.031.031.02.014.04.025.063.031.02.004.042.004.062 0 .02.004.042.004.063 0a.198.198 0 0 0 .062-.031c.157-.126.256-.279.344-.406.166-.247.237-.516.313-.75.054-.175.083-.357.124-.531.104.24.241.464.407.656.141.159.314.249.469.344.009.011.02.022.03.03a.167.167 0 0 0 .063 0c.02.004.042.004.063 0a.198.198 0 0 0 .062-.03.198.198 0 0 0 .031-.032.198.198 0 0 0 .032-.094l.062-.78a.198.198 0 0 0 0-.063.198.198 0 0 0-.031-.094.198.198 0 0 0-.031-.031 1.408 1.408 0 0 1-.313-.281c-.138-.19-.254-.368-.312-.563a6.09 6.09 0 0 1-.156-.625 3.593 3.593 0 0 1-.032-.438 5.672 5.672 0 0 1-.031-.468c.002-.019 0-.016 0-.031.002-.061-.001-.116 0-.126.024-.166.067-.346.094-.53.001-.011-.002-.021 0-.032.038-.114.02-.203 0-.313-.023-.12-.04-.265-.094-.374a.922.922 0 0 0-.219-.282c-.044-.039-.082-.077-.156-.094zm-12.281 3.968c-.522-.047-.98.066-1.5.25-.81.29-1.474.825-2.094 1.344-.607.5-1.144 1.074-1.625 1.688a8.37 8.37 0 0 0-1.031 1.968c-.125.443-.211.89-.188 1.375.025.519.185 1.067.281 1.5v.031a6.5 6.5 0 0 0 1.344 2.126c.13.137.278.28.406.406.76.699 1.627 1.22 2.563 1.625.197.085.408.146.594.219.987.333 2.037.488 3.062.562a8.62 8.62 0 0 0 1.875-.094c.376-.066.75-.16 1.094-.344v-.03c.05-.03.077-.053.094-.063h.031a.198.198 0 0 0 .031-.031.198.198 0 0 0 .031-.125.198.198 0 0 0 0-.063l-.218-.75a.198.198 0 0 0-.063-.094.198.198 0 0 0-.062-.031h-.031a.198.198 0 0 0-.063 0 .198.198 0 0 0-.063 0v.031l-.093.063c-.258.155-.548.218-.875.281a8.25 8.25 0 0 1-1.781.125c-.982-.066-1.927-.211-2.844-.531-.193-.077-.361-.144-.531-.219a8.43 8.43 0 0 1-2.407-1.594c-.131-.135-.236-.223-.344-.344-.516-.576-.949-1.27-1.187-2v-.03a.08.08 0 0 0-.031 0v-.032c-.035-.38.037-.792.125-1.188.002-.01-.002-.021 0-.03.03-.104.065-.208.094-.282a8.08 8.08 0 0 1 .78-1.5c.006-.008-.004-.024 0-.031A9.964 9.964 0 0 1-120 120.78c.593-.504 1.175-.995 1.875-1.25.632-.227 1.03-.318 1.656-.125.465.155.921.38 1.281.688.223.226.396.486.47.781a.08.08 0 0 0 0 .031c-.016.021-.02.023-.032.063-.114.3-.268.54-.5.75a3.505 3.505 0 0 1-1.031.625c-.404.12-.836.225-1.25.281-.405.048-.773.103-1.156.094a8.767 8.767 0 0 1-1-.094 3.947 3.947 0 0 1-.626-.156h-.062a.198.198 0 0 0-.063 0 .198.198 0 0 0-.062.031.198.198 0 0 0-.031.031.198.198 0 0 0-.031.063v.062l.03.813a.199.199 0 0 0 .032.125c.01.011.02.022.031.031.028.018.06.029.094.031.24.059.455.09.688.125.352.053.706.082 1.062.094.444.005.879-.078 1.281-.125.44-.062.899-.119 1.344-.25.465-.174.88-.45 1.25-.75a2.96 2.96 0 0 0 .75-.938c.12-.257.104-.53.063-.78-.069-.41-.082-.546-.094-.657s-.019-.197-.094-.406c-.146-.425-.481-.692-.75-.938a4.826 4.826 0 0 0-1.5-.75c-.171-.05-.336-.107-.531-.125zm15.687.125a.198.198 0 0 0-.031.031.198.198 0 0 0-.031.032c-.103.15-.126.313-.156.406v.031c-.082.414-.065.905.218 1.281.162.174.43.206.625.157.181-.07.292-.246.344-.375.13-.39.128-.897-.156-1.25a.198.198 0 0 0-.031-.031.198.198 0 0 0-.063-.032h-.031a.198.198 0 0 0-.063 0 .198.198 0 0 0-.062 0 .198.198 0 0 0-.031.031.198.198 0 0 0-.032.032.198.198 0 0 0-.031.062v.094l-.188-.375a.198.198 0 0 0-.03-.031.198.198 0 0 0-.032-.031.198.198 0 0 0-.125-.032.198.198 0 0 0-.063 0h-.03zm16.438 3.313a.198.198 0 0 0-.063.062.198.198 0 0 0-.031.063v.031a.198.198 0 0 0 0 .063l.094.78a.198.198 0 0 0 .031.094c.01.012.02.023.031.032.02.014.04.024.063.031.02.003.042.003.062 0 .165-.003.327 0 .5 0 .305-.006.618-.018.906 0 .39.021.763.058 1.157.094H-82c.35.026.69.09 1.063.125h.03c.324.025.603.008.907 0 .257-.007.508-.027.75-.031.207-.004.437.002.656 0 .193-.003.394.001.594 0 .134-.001.048 0 .188 0h.03a.222.222 0 0 0 .063 0 .198.198 0 0 0 .031-.032.198.198 0 0 0 .032-.031.198.198 0 0 0 .031-.063.198.198 0 0 0 0-.062v-.031l-.094-.781a.198.198 0 0 0-.031-.094.198.198 0 0 0-.031-.031.198.198 0 0 0-.063-.032.198.198 0 0 0-.062 0h-.188c-.194.001-.392-.002-.594 0-.208.003-.434-.005-.656 0-.257.006-.505.024-.75.031-.301.01-.594.023-.875 0-.362-.032-.76-.066-1.125-.093-.395-.035-.786-.07-1.187-.094-.309-.02-.59-.035-.906-.031-.175 0-.335.003-.5 0zm13.094 2.719a.198.198 0 0 0-.032.03.198.198 0 0 0-.031.032.198.198 0 0 0-.031.125v.031l.094.813a.198.198 0 0 0 0 .062c.009.012.02.022.03.031.01.012.02.023.032.032.019.014.04.024.063.031.02.003.041.003.062 0 .2.013.363.01.531.031.314.044.596.068.906.094.316.032.634.031.938.031.27 0 .54.002.813 0 .277 0 .546-.018.812-.031.253-.01.543-.01.813-.031.236-.027.425-.079.624-.094.18-.01.388.002.594 0h.313c.02.003.042.003.062 0a.198.198 0 0 0 .031-.031.198.198 0 0 0 .032-.031.198.198 0 0 0 .031-.063.198.198 0 0 0 0-.063v-.03l-.094-.782a.198.198 0 0 0-.031-.094.198.198 0 0 0-.031-.031.198.198 0 0 0-.063-.031.198.198 0 0 0-.062 0c-.091 0-.182-.002-.281 0-.19.002-.405-.015-.626 0h-.03c-.239.02-.45.07-.657.094-.245.02-.456.019-.719.03-.267.014-.556.032-.812.032-.285.001-.555.03-.813.031-.296 0-.56-.002-.844-.031-.293-.025-.595-.081-.906-.125a9.628 9.628 0 0 0-.656-.063.198.198 0 0 0-.063 0zm-12.47 2.03a.198.198 0 0 0-.03.032.198.198 0 0 0-.032.031.198.198 0 0 0-.031.063.198.198 0 0 0 0 .062v.031l.094.813a.198.198 0 0 0 0 .063c.009.011.02.022.031.03.01.012.02.023.031.032.02.014.04.025.063.031.02.004.042.004.062 0 .23-.006.476.013.719.031.369.028.726.047 1.094.063.353.022.696.006 1.031 0 .283-.005.58.004.875 0 .241-.003.47.002.719 0 .229 0 .477-.009.687 0 .216.01.402.01.594.031.164.02.316.047.5.063.02.003.042.003.063 0a.198.198 0 0 0 .093-.031.198.198 0 0 0 .031-.032.198.198 0 0 0 .032-.062.198.198 0 0 0 0-.063v-.031l-.063-.781v-.031a.198.198 0 0 0-.062-.094.198.198 0 0 0-.063-.031h-.031c-.161-.014-.356-.043-.531-.063-.226-.024-.448-.022-.656-.031-.233-.007-.465-.001-.688 0-.242.002-.467-.004-.719 0-.282.004-.578-.006-.875 0-.337.005-.68.019-1 0a27.788 27.788 0 0 1-1.062-.063c-.24-.02-.51-.062-.781-.062h-.094z" filter="url(#m)" transform="translate(165.285 17.866) scale(.8894)"/>
  </mask>
  <filter id="P">
    <feGaussianBlur stdDeviation=".106"/>
  </filter>
  <path d="M8 8.094v112h96V16a8.003 8.003 0 0 0-6.781-7.906z" filter="url(#n)" opacity=".5"/>
  <path d="M6.875 7.688V121H105V16c-.184-4.615-3.996-8.313-8.656-8.313-.118 0-.228.027-.344.032v-.032H6.875z" filter="url(#o)" opacity=".5"/>
  <path fill="#fff" d="M8 8v112h96V16c0-4.416-3.584-8-8-8z"/>
  <path fill="url(#p)" d="M10 9c-.551 0-1 .45-1 1v107.969c0 .552.449 1 1 1h93V16c0-3.864-3.136-7-7-7z"/>
  <path fill="url(#q)" d="m8 8-.063 20H104V16c0-4.416-3.584-8-8-8z" opacity=".213"/>
  <path fill="url(#r)" d="M10 9c-.554 0-1 .508-1 1.063V27c0 .554.446 1 1 1h92c.554 0 1-.446 1-1V16c0-3.567-3-7-7-7z"/>
  <path fill="url(#s)" fill-rule="evenodd" d="M19.938 11.406c-3.633 0-6.594 2.962-6.594 6.594s2.961 6.594 6.594 6.594c3.632 0 6.593-2.962 6.593-6.594s-2.961-6.594-6.593-6.594zm0 1.469A5.115 5.115 0 0 1 25.063 18a5.115 5.115 0 0 1-5.125 5.125A5.115 5.115 0 0 1 14.813 18a5.115 5.115 0 0 1 5.124-5.125zm-1.844 1.75a.736.736 0 0 0-.563.75V20a.7.7 0 0 0 .344.625.801.801 0 0 0 .781 0A.7.7 0 0 0 19 20v-4.625a.736.736 0 0 0-.75-.75c-.004 0-.006.002-.031 0-.026-.002-.085-.01-.125 0zm4.093 0a.686.686 0 0 0-.406.219l-2.343 2.312a.732.732 0 0 0-.22.532c0 .198.074.39.22.53l2.343 2.313c.292.285.758.249 1.032-.031a.734.734 0 0 0 0-1.031L21 17.687l1.813-1.812c.235-.223.255-.567.125-.844a.725.725 0 0 0-.75-.406z" opacity=".609"/>
  <path fill="url(#t)" fill-rule="evenodd" d="M22.188 14.625a.686.686 0 0 0-.407.219l-2.343 2.312a.732.732 0 0 0-.22.532c0 .198.074.39.22.53l2.343 2.313c.292.285.758.249 1.032-.031a.734.734 0 0 0 0-1.031L21 17.687l1.813-1.812c.235-.223.255-.567.125-.844a.725.725 0 0 0-.75-.406z"/>
  <path fill="url(#u)" d="M31.048 36.95v7.081h3.599c.934 0 1.9-.14 2.213-.422.42-.37.653-1.023.701-1.957h.447v5.7h-.447c-.113-.796-.226-1.308-.338-1.533-.145-.282-.383-.503-.713-.664s-1.179-.242-1.863-.242h-3.6v5.399c0 .725.033 1.168.097 1.329a.795.795 0 0 0 .338.374c.161.089.467.133.918.133h2.778c.926 0 1.599-.065 2.017-.193.419-.13.822-.383 1.208-.761.5-.5 1.01-1.252 1.534-2.259h.483l-1.413 4.107H26.386v-.447h.58c.386 0 .752-.093 1.098-.278.258-.129.73-.322.82-.58.096-.257.144-.785.144-1.582V38.906c0-1.039-.104-1.679-.314-1.92-.29-.322-1.072-.483-1.749-.483h-.58v-.447h12.622v3.565h-.471c-.17-.862-.177-1.432-.387-1.754-.2-.322-.503-.567-.905-.736-.322-.121-.89-.182-1.703-.182h-4.493m12.955 5.102h8.992v.999h-8.992v-1m0 3.997h8.992v1h-8.992zm16.048-4.205-1.57 5.447c.7-1.28 1.296-2.242 1.788-2.886.765-.999 1.51-1.723 2.234-2.174a2.556 2.556 0 0 1 1.34-.387c.403 0 .737.129 1.003.387.266.257.399.587.399.99 0 .395-.093.91-.278 1.546l-.858 3.068c1.313-2.456 2.557-4.18 3.733-5.17.652-.547 1.296-.82 1.932-.82.37 0 .672.128.906.386.241.25.362.64.362 1.171 0 .467-.072.962-.217 1.486l-1.329 4.698c-.29 1.023-.435 1.59-.435 1.703s.037.21.11.29a.242.242 0 0 0 .192.085c.08 0 .222-.077.423-.23.46-.354.89-.821 1.292-1.401l.399.254c-.201.322-.56.765-1.075 1.328-.507.564-.942.946-1.304 1.148-.363.2-.697.302-1.003.302a.969.969 0 0 1-.99-1.003c0-.386.165-1.163.495-2.33l1.1-3.878c.249-.894.382-1.389.398-1.486a2.88 2.88 0 0 0 .036-.446c0-.202-.044-.359-.133-.472-.097-.112-.205-.169-.326-.169-.338 0-.697.174-1.075.52-1.111 1.022-2.15 2.456-3.116 4.3-.636 1.215-1.232 2.773-1.788 4.674h-1.823l2.065-7.307c.225-.79.338-1.317.338-1.583 0-.217-.044-.378-.133-.483a.412.412 0 0 0-.326-.157c-.266 0-.547.097-.845.29-.483.314-1.108.986-1.872 2.017-.757 1.03-1.345 2.017-1.764 2.96-.201.442-.68 1.863-1.437 4.263H55.11l2.235-7.827.29-1.014a1.12 1.12 0 0 0 .084-.339c0-.177-.08-.334-.241-.47a.886.886 0 0 0-.616-.218c-.105 0-.395.048-.87.145l-.109-.447 4.167-.76m22.067 8.297c-.838 1.006-1.683 1.747-2.537 2.222-.853.467-1.755.7-2.705.7-1.143 0-2.037-.321-2.681-.966-.637-.644-.955-1.51-.955-2.596 0-1.232.343-2.444 1.027-3.636a8.399 8.399 0 0 1 2.778-2.899c1.168-.748 2.31-1.123 3.43-1.123.878 0 1.534.185 1.969.556.435.362.652.809.652 1.34 0 .5-.153.926-.459 1.28-.225.274-.503.411-.833.411a.875.875 0 0 1-.628-.241.82.82 0 0 1-.242-.604c0-.153.028-.294.085-.423.064-.129.189-.282.374-.459.193-.185.31-.318.35-.398a.56.56 0 0 0 .06-.254c0-.17-.076-.31-.229-.423-.233-.16-.563-.241-.99-.241-.79 0-1.57.277-2.343.833s-1.434 1.345-1.981 2.367c-.66 1.24-.99 2.48-.99 3.72 0 .822.233 1.474.7 1.957.467.475 1.103.713 1.908.713.62 0 1.232-.153 1.836-.46.612-.313 1.297-.877 2.054-1.69zm7.899-5.098h-5.073v-.326c2.496-1.884 4.127-3.354 4.891-4.409.347-.467.52-.954.52-1.461 0-.41-.133-.745-.399-1.002-.265-.266-.62-.399-1.063-.4-.644.001-1.187.295-1.63.883l-.471-.194c.25-.563.62-1.006 1.111-1.328a2.911 2.911 0 0 1 1.63-.483c.685 0 1.24.201 1.667.604.435.394.653.865.653 1.413 0 .274-.065.567-.194.881s-.422.737-.881 1.269c-.46.523-1.063 1.099-1.812 1.727l-2.208 1.833h2.137c.709 0 1.172-.258 1.39-.773h.58z"/>
  <path fill-opacity=".412" d="M76.977 96.516c-.904.404-1.637 1.077-2.2 2.017-.561.937-.841 1.974-.841 3.113 0 .779.142 1.532.428 2.255.287.724.696 1.35 1.224 1.883a5.25 5.25 0 0 0 1.389.982v-.205a4.374 4.374 0 0 1-.904-.809 3.971 3.971 0 0 1-.546-.888c-.136-.305-.25-.71-.345-1.217a11.59 11.59 0 0 1-.184-2.143c0-.724.073-1.42.216-2.084.143-.665.359-1.212.649-1.646.29-.433.662-.776 1.114-1.026zm21.826.078v.233c.375.257.673.527.901.81s.41.577.546.882c.14.305.256.71.348 1.217.121.646.181 1.36.181 2.143 0 .723-.07 1.42-.213 2.088-.14.665-.357 1.214-.651 1.643-.29.434-.66.776-1.112 1.029v.206c.907-.404 1.638-1.078 2.197-2.018a5.935 5.935 0 0 0 .844-3.113 6.05 6.05 0 0 0-.43-2.255 5.622 5.622 0 0 0-1.218-1.888 5.14 5.14 0 0 0-1.393-.977zm-19.806.387a.756.756 0 0 0-.529.215.677.677 0 0 0-.225.507.6.6 0 0 0 .242.49c.166.125.384.189.652.189v.098c-.537.136-.942.334-1.217.595a1.27 1.27 0 0 0-.41.952c0 .323.11.588.326.794.217.205.54.349.97.426v.12c-.54.125-.962.35-1.263.673a1.649 1.649 0 0 0-.451 1.168c0 .536.178.944.534 1.227s.916.458 1.68.524l.245.017c.881.07 1.322.32 1.322.75a.722.722 0 0 1-.26.577c-.169.147-.39.22-.666.22-.21 0-.469-.082-.774-.251-.3-.17-.497-.255-.592-.255a.311.311 0 0 0-.216.088.294.294 0 0 0-.088.216c0 .165.131.312.392.44.264.129.582.194.953.194.495 0 .893-.13 1.195-.387.3-.257.453-.595.453-1.014 0-.37-.1-.652-.3-.847-.197-.195-.534-.333-1.008-.414l-.296-.049c-1.014-.162-1.521-.589-1.521-1.283 0-.434.146-.784.436-1.048.294-.265.68-.397 1.16-.397a3.6 3.6 0 0 1 .569.05c.21.032.335.048.38.048.16 0 .286-.033.374-.103a.34.34 0 0 0 .137-.286.386.386 0 0 0-.125-.309.48.48 0 0 0-.335-.11c-.1 0-.287.04-.559.12a2.584 2.584 0 0 1-.7.115c-.349 0-.609-.09-.781-.274-.17-.188-.252-.473-.252-.855 0-.36.122-.661.372-.903.253-.247.62-.423 1.102-.53.103-.021.254-.04.453-.058.408-.037.612-.173.612-.404a.3.3 0 0 0-.1-.226.307.307 0 0 0-.22-.1c-.122 0-.308.077-.562.228-.25.15-.464.225-.644.225-.198 0-.351-.04-.457-.12a.424.424 0 0 1-.16-.353c0-.14.047-.266.142-.377.1-.11.15-.177.15-.203a.088.088 0 0 0-.04-.076.151.151 0 0 0-.1-.034zm17.852.436c-.346 0-.642.142-.887.426a1.53 1.53 0 0 0-.364 1.03c0 .35.095.64.286.865.19.226.435.338.732.338.19 0 .364-.045.522-.134.157-.092.325-.245.504-.458.068.206.15.357.243.453.093.093.206.14.343.14a.65.65 0 0 0 .325-.089 1.13 1.13 0 0 0 .304-.264l-.127-.138a.808.808 0 0 1-.157.133.269.269 0 0 1-.137.039c-.092 0-.168-.047-.228-.142-.058-.097-.125-.305-.2-.622.159-.224.28-.459.362-.708.081-.25.122-.514.122-.786v-.03h-.326c0 .265-.017.498-.056.699a1.98 1.98 0 0 1-.176.533c-.084-.435-.216-.757-.395-.967a.862.862 0 0 0-.69-.318zm.03.19c.248 0 .438.341.57 1.022.052.266.097.48.132.64a2.349 2.349 0 0 1-.448.423.694.694 0 0 1-.38.134.483.483 0 0 1-.423-.237c-.101-.158-.152-.376-.152-.656 0-.395.065-.715.196-.958.13-.245.298-.367.504-.367zm-81.717 1.296-.15.238c.203.132.364.25.486.352.124.1.308.271.55.517l.245.287a7.7 7.7 0 0 1 1.034 1.616 1.783 1.783 0 0 0-.446-.255 1.53 1.53 0 0 0-.485-.07c-.602 0-1.119.235-1.552.71a2.913 2.913 0 0 0-.762 2.01c0 .742.233 1.359.696 1.851.462.489 1.022.735 1.68.735a2.366 2.366 0 0 0 2.159-1.357c.213-.43.319-.9.319-1.41 0-.68-.178-1.384-.534-2.111-.357-.731-.882-1.4-1.58-2.006l-.298-.252a9.05 9.05 0 0 0-1.362-.855zm78.214 1.031c-.462 0-.786.087-.97.26-.18.172-.269.488-.269.947v.182l.076 2.688c-.547-.047-.99-.25-1.332-.61-.338-.36-.507-.81-.507-1.346 0-.29.058-.573.172-.852.117-.28.279-.527.485-.74.055-.055.13-.117.225-.19.121-.096.181-.18.181-.246 0-.025-.009-.043-.027-.054a.177.177 0 0 0-.088-.017c-.048 0-.14.042-.277.123-.132.08-.265.178-.401.296a3.109 3.109 0 0 0-.772.987 2.702 2.702 0 0 0-.242 1.158c0 .75.228 1.338.683 1.768.456.43 1.081.644 1.878.644l.035.005c-.019.474-.045.89-.074 1.246-.03.36-.064.673-.108.94h.848a10.7 10.7 0 0 1-.115-.9 31.85 31.85 0 0 1-.067-1.303c.805-.055 1.461-.336 1.972-.842a2.512 2.512 0 0 0 .771-1.862c0-.642-.2-1.184-.605-1.62-.4-.441-.891-.662-1.472-.662zm.336.794c.382 0 .705.144.97.43.264.287.396.64.396 1.058 0 .518-.215.947-.649 1.288-.433.338-.991.507-1.675.507h-.056l.044-1.932c.019-.602.098-.98.238-1.126.14-.15.383-.225.732-.225zm-77.365 1.195c.467 0 .844.25 1.134.749.29.5.436 1.162.436 1.988 0 .65-.116 1.12-.348 1.41-.231.291-.513.437-.847.437-.276 0-.54-.102-.793-.304-.254-.206-.457-.517-.608-.935a4.187 4.187 0 0 1-.22-1.384c0-.713.121-1.218.36-1.516.239-.297.534-.445.886-.445zm67.704.156v.392h3.919v-.392h-3.92zm-1.158.115-.962.47.044.091a.771.771 0 0 1 .299-.09c.05 0 .094.014.13.044a.23.23 0 0 1 .075.137c.02.081.03.265.03.553v2.136c0 .237-.01.38-.032.428a.253.253 0 0 1-.115.115c-.055.027-.176.043-.363.047v.107h1.49v-.107c-.18-.004-.297-.02-.356-.05a.227.227 0 0 1-.117-.127c-.018-.054-.027-.192-.027-.413v-3.34h-.096zm-57.73.042-1.506.617.095.194c.147-.06.267-.089.363-.089a.32.32 0 0 1 .215.071c.06.048.102.14.128.272.025.129.036.477.036 1.046v4.584c0 .312-.023.524-.07.634a.48.48 0 0 1-.199.238c-.084.048-.241.07-.473.07v.2h2.474v-.2c-.261 0-.439-.024-.534-.075a.52.52 0 0 1-.216-.238c-.044-.102-.066-.313-.066-.629v-6.695zm13.99 0c-.265 0-.546.085-.847.25a2.985 2.985 0 0 0-.855.732c-.198.242-.405.585-.622 1.026-.162.327-.294.55-.397.671a.787.787 0 0 1-.33.242c-.122.04-.335.062-.64.062l-.078.362h.96l-.96 3.732c-.224.863-.36 1.371-.411 1.526-.121.37-.251.652-.387.847-.136.198-.29.349-.463.448-.176.1-.344.147-.502.147-.07 0-.121-.013-.154-.04a.086.086 0 0 1-.037-.075c0-.026.03-.064.088-.115.077-.07.115-.145.115-.225a.29.29 0 0 0-.1-.216.363.363 0 0 0-.252-.093.487.487 0 0 0-.343.125.44.44 0 0 0 .027.669.835.835 0 0 0 .563.195c.338 0 .676-.118 1.014-.357.444-.312.858-.878 1.244-1.697.272-.58.542-1.4.81-2.461l.608-2.41h.803l.1-.362h-.81c.264-.86.447-1.4.546-1.617.194-.415.415-.718.66-.913a.969.969 0 0 1 .623-.22c.092 0 .163.02.21.056.034.026.05.064.05.115 0 .03-.026.088-.074.176a.452.452 0 0 0-.071.213.32.32 0 0 0 .105.238c.074.066.168.1.282.1a.432.432 0 0 0 .326-.132.452.452 0 0 0 .125-.326c0-.165-.084-.318-.253-.457-.169-.144-.394-.216-.673-.216zm12.748 0c-.903.404-1.637 1.078-2.199 2.018-.562.937-.842 1.974-.842 3.112 0 .779.142 1.532.428 2.256.287.723.696 1.35 1.225 1.883.37.374.834.703 1.388.982v-.206a4.373 4.373 0 0 1-.903-.808 3.972 3.972 0 0 1-.546-.889c-.136-.305-.25-.71-.346-1.217a11.59 11.59 0 0 1-.183-2.143c0-.723.072-1.419.215-2.084s.359-1.212.65-1.645c.29-.434.661-.777 1.113-1.026zm8.064 0v.233c.375.257.676.527.904.81.227.283.407.577.543.882.14.305.256.71.348 1.217.121.646.181 1.36.181 2.143 0 .723-.07 1.42-.213 2.088-.14.665-.357 1.214-.651 1.643-.29.434-.66.776-1.112 1.029v.206c.907-.404 1.638-1.078 2.197-2.018a5.935 5.935 0 0 0 .845-3.113 6.05 6.05 0 0 0-.431-2.255 5.622 5.622 0 0 0-1.217-1.888 5.14 5.14 0 0 0-1.394-.977zm-5.103.152a.756.756 0 0 0-.53.215.677.677 0 0 0-.224.507.6.6 0 0 0 .242.49c.165.125.383.189.651.189v.098c-.536.135-.941.334-1.217.595a1.27 1.27 0 0 0-.409.952c0 .323.11.588.326.794.217.205.54.349.97.426v.12c-.54.125-.963.35-1.264.673-.3.323-.45.713-.45 1.168 0 .536.177.944.534 1.227.356.283.915.458 1.68.524l.244.017c.882.07 1.323.32 1.323.75a.722.722 0 0 1-.26.577c-.169.147-.39.22-.666.22-.21 0-.469-.082-.774-.251-.301-.17-.497-.255-.592-.255a.311.311 0 0 0-.216.088.294.294 0 0 0-.088.216c0 .165.13.312.392.44.264.129.581.194.952.194.496 0 .894-.13 1.195-.387.302-.257.453-.595.453-1.014 0-.37-.1-.653-.298-.847-.199-.195-.535-.333-1.01-.414l-.296-.049c-1.013-.162-1.52-.589-1.52-1.283 0-.434.145-.784.436-1.048.293-.265.68-.397 1.16-.397.173 0 .363.016.568.049.21.033.336.049.38.049.162 0 .286-.033.375-.103a.34.34 0 0 0 .137-.286.386.386 0 0 0-.125-.309.48.48 0 0 0-.336-.11c-.099 0-.286.04-.558.12a2.584 2.584 0 0 1-.7.115c-.35 0-.609-.09-.781-.274-.17-.188-.253-.473-.253-.855 0-.36.123-.661.373-.904.253-.246.62-.422 1.102-.528.102-.023.254-.04.453-.06.407-.036.612-.172.612-.403a.3.3 0 0 0-.1-.226.307.307 0 0 0-.221-.1c-.121 0-.307.077-.56.228-.25.15-.465.225-.645.225-.198 0-.351-.04-.458-.12a.424.424 0 0 1-.159-.353c0-.14.047-.267.142-.377.1-.11.15-.177.15-.203a.088.088 0 0 0-.04-.076.151.151 0 0 0-.1-.034zm-26.824 2.488-1.52.617.082.198c.144-.055.267-.08.37-.08.096 0 .17.023.225.07.06.048.102.138.128.27.03.132.044.5.044 1.107v1.873c0 .367-.048.617-.14.75-.088.128-.26.193-.516.193h-.11v.198h2.495v-.198c-.276 0-.46-.023-.551-.071a.531.531 0 0 1-.208-.238c-.04-.08-.062-.292-.062-.634v-2.66c.434-.477.868-.717 1.306-.717.282 0 .482.104.6.314.12.205.183.537.183.996v2.067c0 .29-.01.464-.024.52a.564.564 0 0 1-.196.318c-.092.07-.257.105-.492.105h-.106v.198h2.498v-.198c-.242 0-.41-.025-.502-.076a.459.459 0 0 1-.193-.216c-.052-.113-.076-.331-.076-.651v-2.155c0-.455-.042-.793-.123-1.014-.117-.316-.274-.54-.472-.676a1.202 1.202 0 0 0-.71-.21c-.537 0-1.101.357-1.693 1.07v-1.07zm37.599 1.827v.391h3.918v-.391zm-19.774.898a.708.708 0 0 0-.483.164.697.697 0 0 0-.223.446h.13a.497.497 0 0 1 .482-.343c.123 0 .224.041.304.123.082.08.123.177.123.296 0 .134-.05.275-.147.419-.158.235-.477.54-.958.913v.083h1.443l.176-.443h-.13a.31.31 0 0 1-.144.128c-.055.023-.167.036-.336.036h-.541c.428-.346.714-.634.86-.862a.77.77 0 0 0 .139-.411c0-.14-.063-.264-.193-.377a.734.734 0 0 0-.502-.172zm12.895 0-.962.47.044.091a.771.771 0 0 1 .298-.09c.05 0 .095.014.13.044a.23.23 0 0 1 .076.137c.02.081.03.265.03.553v2.135c0 .238-.011.38-.032.429a.253.253 0 0 1-.115.115c-.055.027-.176.043-.363.047v.107h1.489v-.107c-.179-.004-.297-.02-.355-.05a.227.227 0 0 1-.118-.127c-.017-.054-.027-.192-.027-.414v-3.34zm-48.758.12v.235h12.93v-.235zm62.946 0v.235h30.304v-.235zm-7.31.862v.392h3.919v-.392h-3.918zm-54.079.096-.149.235c.202.132.364.25.485.353.125.099.308.273.55.519l.246.286a7.68 7.68 0 0 1 1.033 1.614 1.76 1.76 0 0 0-.446-.252 1.528 1.528 0 0 0-.484-.074c-.603 0-1.12.239-1.553.713a2.913 2.913 0 0 0-.761 2.01c0 .742.232 1.36.695 1.852.463.488 1.022.732 1.68.732a2.355 2.355 0 0 0 2.16-1.354c.213-.43.318-.9.318-1.41 0-.68-.178-1.384-.534-2.112-.356-.73-.881-1.4-1.58-2.005l-.298-.255a9.025 9.025 0 0 0-1.362-.852zm32.121.21c-.309 0-.551.071-.722.211s-.255.293-.255.46a.3.3 0 0 0 .066.206c.047.05.107.076.179.076a.227.227 0 0 0 .176-.073.284.284 0 0 0 .071-.206l-.005-.17c0-.085.037-.16.11-.227a.414.414 0 0 1 .292-.1c.161 0 .284.05.367.15.086.098.128.281.128.548v.105c-.46.167-.786.31-.985.426-.196.117-.334.24-.414.372a.643.643 0 0 0-.088.34c0 .207.06.371.18.498.12.126.272.19.457.19a.79.79 0 0 0 .335-.073c.07-.033.24-.155.515-.367.002.16.031.272.088.338a.283.283 0 0 0 .228.098c.198 0 .406-.144.624-.436v-.164a1.804 1.804 0 0 1-.237.213.156.156 0 0 1-.081.02.12.12 0 0 1-.079-.03c-.021-.02-.036-.056-.046-.113a4.2 4.2 0 0 1-.015-.47v-.906c0-.258-.016-.43-.051-.514a.549.549 0 0 0-.255-.282 1.247 1.247 0 0 0-.583-.12zm-4.817.162c-.346 0-.641.142-.886.426a1.536 1.536 0 0 0-.365 1.033c0 .35.096.64.287.865.19.225.434.338.732.338.19 0 .364-.045.521-.135.158-.091.326-.244.505-.458.068.206.149.358.242.453.094.094.207.14.343.14a.66.66 0 0 0 .326-.088 1.13 1.13 0 0 0 .303-.265l-.127-.137a.787.787 0 0 1-.157.13.273.273 0 0 1-.137.042c-.091 0-.167-.047-.227-.143-.059-.097-.125-.305-.201-.621a2.512 2.512 0 0 0 .485-1.494v-.03h-.326c0 .265-.018.498-.056.698a1.98 1.98 0 0 1-.177.534c-.083-.436-.215-.76-.394-.97a.862.862 0 0 0-.69-.318zm.03.193c.249 0 .438.341.57 1.022.053.266.098.48.133.639a2.349 2.349 0 0 1-.448.423.689.689 0 0 1-.38.133.48.48 0 0 1-.424-.235c-.1-.158-.152-.377-.152-.657 0-.394.066-.714.196-.957.13-.245.299-.368.505-.368zm5.194.804v1.016c-.241.194-.435.291-.583.291a.382.382 0 0 1-.289-.137.499.499 0 0 1-.125-.348c0-.11.034-.215.1-.308a.973.973 0 0 1 .329-.267 5.77 5.77 0 0 1 .568-.247zm48.234 0c-.371 0-.674.103-.909.308-.231.202-.372.483-.424.843h.248a.97.97 0 0 1 .357-.485.938.938 0 0 1 .551-.164c.232 0 .423.076.573.23.155.15.23.339.23.563 0 .254-.09.514-.274.786-.297.445-.9 1.021-1.807 1.727v.159h2.723l.336-.838h-.248a.589.589 0 0 1-.272.243c-.102.044-.314.066-.634.066h-1.023c.808-.654 1.35-1.196 1.626-1.626.176-.276.264-.534.264-.776 0-.265-.124-.505-.37-.718-.242-.213-.558-.318-.947-.318zm-50.73 1.009a.383.383 0 0 0-.269.1.33.33 0 0 0-.108.247c0 .1.03.177.086.233a.307.307 0 0 0 .228.083.24.24 0 0 0 .11-.024.431.431 0 0 1 .14-.06c.013 0 .028.01.041.028a.158.158 0 0 1 .025.093.69.69 0 0 1-.164.44.946.946 0 0 1-.466.31v.127c.302-.1.521-.236.659-.41a.86.86 0 0 0 .21-.555.632.632 0 0 0-.151-.443.443.443 0 0 0-.34-.17zm-22.923.396c-.654 0-1.212.27-1.675.806-.459.536-.688 1.185-.688 1.95 0 .66.179 1.204.539 1.63s.821.64 1.383.64c.36 0 .69-.084.987-.253.298-.173.615-.46.953-.864.128.389.282.672.458.852a.881.881 0 0 0 .649.264c.213 0 .417-.054.612-.164s.386-.278.573-.502l-.238-.26c-.106.11-.204.195-.296.25a.512.512 0 0 1-.26.076c-.172 0-.314-.09-.428-.27-.11-.183-.239-.573-.382-1.172a4.754 4.754 0 0 0 .916-2.821v-.056h-.612c0 .5-.037.939-.11 1.317-.07.375-.18.709-.331 1.006-.158-.822-.407-1.43-.745-1.826a1.631 1.631 0 0 0-1.305-.603zm-5.923.245c.466 0 .843.25 1.133.75s.436 1.161.436 1.988c0 .65-.116 1.12-.347 1.41-.232.29-.513.436-.848.436-.275 0-.54-.101-.793-.303-.254-.206-.457-.52-.607-.938a4.173 4.173 0 0 1-.22-1.381c0-.713.12-1.219.36-1.516.238-.298.533-.446.886-.446zm5.98.12c.47 0 .827.642 1.077 1.927.1.504.184.906.25 1.208-.312.363-.596.629-.85.798-.253.169-.49.255-.715.255-.338 0-.606-.151-.8-.449-.192-.297-.285-.71-.285-1.239 0-.745.121-1.348.368-1.807.246-.463.565-.693.955-.693zm68.196.967a2.18 2.18 0 0 0-1.653.718c-.448.474-.67 1.07-.67 1.79 0 .727.224 1.33.68 1.807.459.474 1.032.71 1.719.71.701 0 1.278-.237 1.726-.715.452-.48.679-1.1.679-1.856a2.492 2.492 0 0 0-.475-1.484h1.817v-.864H87.73c-.022 0-.124-.016-.304-.05a2.548 2.548 0 0 0-.507-.056zm.076.321c.408 0 .72.185.933.556s.318.915.318 1.631-.105 1.261-.318 1.636c-.213.374-.525.563-.933.563-.411 0-.724-.189-.94-.563-.217-.375-.326-.92-.326-1.636 0-.713.109-1.255.326-1.626.216-.375.529-.56.94-.56z"/>
  <path fill-opacity=".471" fill-rule="evenodd" d="M58.758 62.159c-.87.872-1.582 2.32-2.124 4.349-.541 2.02-.809 4.259-.809 6.716 0 1.68.135 3.306.412 4.868.276 1.561.67 2.916 1.18 4.066a8.064 8.064 0 0 0 1.341 2.11v-.438a8.796 8.796 0 0 1-.876-1.747c-.22-.61-.395-1.249-.526-1.915-.131-.657-.238-1.529-.33-2.622a55.475 55.475 0 0 1-.176-4.626c0-1.561.064-3.063.202-4.497.139-1.435.348-2.618.627-3.554.28-.935.644-1.672 1.08-2.211v-.5zm37.988.074v.5c.436.538.792 1.275 1.072 2.21.28.936.49 2.12.627 3.554.138 1.435.21 2.936.21 4.497 0 1.696-.06 3.239-.176 4.626-.092 1.093-.206 1.965-.337 2.623a13.154 13.154 0 0 1-.526 1.915 8.767 8.767 0 0 1-.87 1.746v.445a8.104 8.104 0 0 0 1.342-2.117c.51-1.15.904-2.505 1.18-4.066s.411-3.181.411-4.862c0-2.456-.267-4.694-.809-6.715-.542-2.03-1.253-3.484-2.124-4.356zm-27.267.189c-.871.39-1.575 1.035-2.117 1.942-.542.903-.81 1.903-.81 3 0 .75.136 1.48.412 2.178s.67 1.3 1.18 1.814c.358.361.8.675 1.335.944v-.196a4.216 4.216 0 0 1-.87-.782 3.783 3.783 0 0 1-.526-.85c-.13-.293-.238-.69-.33-1.18a11.155 11.155 0 0 1-.175-2.063c0-.697.064-1.368.202-2.009.138-.64.347-1.167.627-1.584.28-.418.636-.75 1.072-.992zm19.082.074v.223c.36.247.65.51.87.782.219.272.394.555.525.85.135.293.242.684.33 1.172.118.624.176 1.316.176 2.07a9.55 9.55 0 0 1-.202 2.01c-.135.64-.344 1.17-.627 1.584-.28.418-.637.747-1.072.991v.203c.874-.39 1.579-1.042 2.117-1.949.542-.903.809-1.903.809-3 0-.755-.135-1.477-.411-2.171a5.422 5.422 0 0 0-1.174-1.821 4.952 4.952 0 0 0-1.341-.944zm4.895.202c-.358 0-.65.099-.877.297-.223.195-.362.469-.411.816h.243a.928.928 0 0 1 .344-.465.912.912 0 0 1 .532-.162.74.74 0 0 1 .553.222.72.72 0 0 1 .223.54c0 .244-.093.5-.27.762-.287.428-.865.985-1.74 1.665v.148h2.623L95 65.72h-.236a.558.558 0 0 1-.263.23c-.1.042-.299.067-.607.067h-.991c.779-.63 1.299-1.157 1.564-1.571.17-.266.256-.515.256-.749 0-.255-.12-.482-.357-.687-.234-.206-.535-.31-.91-.31zm-69.078 1.228-1.983.964.095.188c.264-.124.465-.188.613-.188.104 0 .198.034.27.094.076.06.127.148.155.277.04.168.06.554.06 1.146v4.39c0 .487-.023.782-.067.882a.517.517 0 0 1-.236.236c-.112.057-.357.087-.741.095v.222h3.06v-.222c-.367-.008-.614-.041-.734-.101a.447.447 0 0 1-.236-.256c-.036-.113-.054-.4-.054-.857v-6.87zm47.427 1.699-1.604.276v.216c.12-.008.224-.007.316-.007.289 0 .506.054.654.162.149.108.272.293.365.553.02.056.15.565.397 1.537-.1.224-.31.588-.633 1.092-.325.505-.581.833-.77.985-.075.064-.14.101-.188.101-.056 0-.132-.05-.236-.142-.144-.128-.283-.188-.411-.188a.436.436 0 0 0-.452.458c0 .148.046.27.142.357a.65.65 0 0 0 .438.176c.228 0 .464-.104.708-.304.376-.312.872-1.012 1.497-2.097.264 1.189.442 1.867.526 2.023.132.252.308.378.532.378.152 0 .34-.094.56-.27.388-.312.705-.7.957-1.173l-.209-.108c-.156.296-.34.537-.56.721-.111.092-.212.135-.296.135-.052 0-.103-.027-.155-.087-.052-.064-.12-.257-.196-.573l-.492-2.064c.344-.596.642-.999.89-1.207.132-.112.248-.168.344-.168.064 0 .19.03.378.094a.77.77 0 0 0 .27.054.56.56 0 0 0 .384-.148c.06-.056.087-.158.087-.31a.433.433 0 0 0-.155-.338c-.1-.092-.232-.134-.404-.134a.847.847 0 0 0-.324.054c-.152.064-.326.188-.526.364a3.26 3.26 0 0 0-.512.546l-.526.789c-.164-.613-.279-.989-.35-1.133a2.497 2.497 0 0 0-.446-.62zm10.56.195v2.67c0 .606-.031 1.276-.095 2.016-.06.74-.088 1.18-.088 1.315 0 .29.034.503.108.634.074.13.194.195.357.195s.28-.064.358-.195.121-.331.121-.6c0-.043-.012-.316-.034-.823a54.63 54.63 0 0 1-.04-1.47l.101-.006c.064.325.196.574.398.748.205.17.47.256.795.256.372 0 .677-.092.917-.276.241-.188.41-.462.506-.823h.068c.007.326.099.59.283.796a.95.95 0 0 0 .728.303c.365 0 .645-.117.836-.35.191-.238.283-.579.283-1.032 0-.223-.009-.365-.033-.418-.022-.057-.065-.081-.122-.081-.092 0-.14.09-.155.27-.01.145-.032.261-.06.357-.054.184-.134.32-.243.405a.674.674 0 0 1-.432.128c-.23 0-.403-.077-.512-.236-.11-.16-.162-.409-.162-.749V65.82h-.904v2.771c0 .429-.083.743-.25.944-.162.202-.418.304-.761.304-.382 0-.653-.114-.823-.344-.166-.234-.256-.63-.256-1.194v-2.48h-.89zm-6.062 1.962v.378h3.775v-.378zM39.79 70.048a2.37 2.37 0 0 0-1.82.795c-.48.525-.722 1.258-.722 2.199 0 .868.233 1.56.702 2.076.472.512 1.038.769 1.699.769.608 0 1.113-.226 1.517-.674.404-.453.65-.956.735-1.504l-.189-.115c-.18.48-.4.818-.668 1.019a1.531 1.531 0 0 1-.937.296c-.54 0-1.009-.237-1.409-.701s-.604-1.105-.6-1.922h3.803c0-.68-.197-1.22-.594-1.625-.396-.408-.9-.613-1.517-.613zm12.265.007c-.316 0-.615.1-.903.296-.284.192-.566.527-.85 1.012V70.08h-.23l-1.692.682.068.195c.148-.056.275-.088.37-.088.12 0 .21.027.277.075a.41.41 0 0 1 .162.215c.032.096.047.325.047.681v5.199c0 .4-.023.646-.067.742-.04.1-.1.171-.176.215a1.098 1.098 0 0 1-.566.128h-.148v.223h2.886v-.223c-.3 0-.511-.034-.628-.094a.528.528 0 0 1-.242-.243c-.044-.1-.06-.338-.06-.714V75.4c.2.18.378.298.538.358.217.084.473.128.77.128a2.16 2.16 0 0 0 1.692-.762c.544-.62.815-1.405.815-2.353 0-.849-.228-1.542-.68-2.07-.369-.432-.83-.647-1.383-.647zm-9.649.161v.223c.245 0 .447.056.607.168.164.108.392.377.688.81l1.045 1.517-1.153 1.53c-.36.476-.616.767-.768.883a.815.815 0 0 1-.378.156v.215h1.793v-.215c-.18-.008-.312-.053-.404-.129-.088-.08-.135-.166-.135-.263 0-.068.14-.283.411-.647l.884-1.18.802 1.18c.256.372.384.603.384.695a.264.264 0 0 1-.114.222c-.1.08-.238.122-.418.122v.215h2.589v-.215a1.1 1.1 0 0 1-.56-.162c-.144-.1-.378-.393-.715-.877l-1.368-1.969.748-1.004c.34-.457.606-.754.803-.89a1.02 1.02 0 0 1 .512-.162v-.223h-1.861v.223c.152 0 .262.034.33.094a.259.259 0 0 1 .102.21c0 .103-.144.352-.432.748l-.452.627-.39-.627c-.089-.136-.152-.24-.196-.304-.14-.2-.21-.342-.21-.438a.28.28 0 0 1 .095-.222c.068-.057.187-.088.35-.088v-.223zm-3.074.263c.04-.004.08 0 .121 0 .216 0 .418.061.614.19.2.127.352.3.452.525.064.144.108.396.128.748h-2.55c.045-.46.2-.822.46-1.078.23-.228.492-.356.775-.385zm12.251.445c.352 0 .654.16.91.472.369.453.553 1.095.553 1.935 0 .74-.161 1.318-.485 1.727-.248.312-.57.465-.971.465-.332 0-.61-.087-.83-.263a1.124 1.124 0 0 1-.404-.614c-.036-.14-.054-.432-.054-.876v-2.05c.332-.36.564-.575.708-.647a1.26 1.26 0 0 1 .573-.149zm7.343 2.225v.378h3.776v-.378zm-46.834.075v.229h23.794v-.23H12.093zm52.14 0v.229H93.45v-.23H64.233zm-40.476 1.065c-.075 0-.106.054-.12.101l-2.927 8.934-1.47-3.931c-.52-.3-1.249.547-1.18.492.169-.046.784-.473.964 0l1.686 4.423 3.128-9.662c.015-.046.037-.06.081-.06h12.724v-.297H23.757zm50.064 1.18c-.549 0-1.007.175-1.375.526-.365.35-.593.848-.681 1.503h.195c.135-.4.34-.698.62-.903.284-.21.604-.317.958-.317.39 0 .725.151 1.005.445s.418.67.418 1.126c0 .598-.252 1.253-.762 1.976-.51.722-1.393 1.658-2.643 2.798v.195h4.254l.5-1.389h-.196c-.092.16-.2.283-.324.371a1.073 1.073 0 0 1-.418.175c-.152.029-.42.04-.802.04h-1.881c.22-.197.77-.776 1.651-1.739.588-.64 1.013-1.253 1.275-1.827.17-.365.256-.727.256-1.092 0-.51-.194-.953-.587-1.329-.39-.375-.878-.56-1.463-.56zm10.761 0c-.357 0-.65.098-.876.297-.223.194-.362.462-.411.809h.242a.928.928 0 0 1 .344-.466.912.912 0 0 1 .533-.161.74.74 0 0 1 .553.222c.149.145.222.33.222.546 0 .245-.092.493-.27.755-.286.429-.864.986-1.739 1.666v.155h2.623l.324-.81h-.236a.575.575 0 0 1-.263.237c-.1.042-.3.06-.607.06h-.991c.779-.63 1.298-1.15 1.564-1.564.17-.265.256-.515.256-.748 0-.255-.12-.49-.357-.695-.234-.205-.535-.303-.91-.303zm-58.546.377c-.548 0-1.007.176-1.375.526-.365.35-.593.849-.681 1.504h.195c.135-.4.341-.698.62-.904.284-.208.604-.316.958-.316.39 0 .725.15 1.005.445.28.293.418.669.418 1.126 0 .598-.252 1.253-.762 1.975-.51.723-1.393 1.658-2.643 2.798v.196h4.248l.505-1.39h-.195c-.092.16-.2.283-.324.372a1.073 1.073 0 0 1-.418.175c-.152.028-.42.04-.802.04h-1.881c.22-.198.77-.776 1.652-1.74.587-.64 1.012-1.253 1.274-1.826.17-.365.256-.728.256-1.093 0-.51-.2-.953-.593-1.328-.39-.375-.872-.56-1.457-.56zm53.341 2.26c-.63 0-1.16.233-1.591.694-.432.456-.647 1.032-.647 1.726 0 .7.215 1.28.654 1.74.442.456.996.687 1.658.687.677 0 1.234-.234 1.666-.694.435-.464.647-1.058.647-1.787a2.39 2.39 0 0 0-.108-.749 2.467 2.467 0 0 0-.344-.68h1.753v-.837H80.16a3.38 3.38 0 0 1-.296-.047 2.424 2.424 0 0 0-.486-.054zm.074.31c.393 0 .692.174.897.532.206.358.31.887.31 1.578 0 .69-.104 1.216-.31 1.578-.205.36-.504.539-.897.539-.396 0-.701-.178-.91-.54-.209-.36-.31-.887-.31-1.577 0-.687.101-1.214.31-1.571.209-.361.514-.54.91-.54zm-65.046.067c-.63 0-1.166.234-1.598.694-.432.457-.647 1.032-.647 1.726 0 .702.222 1.28.66 1.74.444.457.997.688 1.66.688.676 0 1.226-.234 1.658-.695.436-.464.654-1.057.654-1.787a2.4 2.4 0 0 0-.114-.748 2.467 2.467 0 0 0-.344-.681h1.753v-.836H15.18a3.46 3.46 0 0 1-.29-.047 2.424 2.424 0 0 0-.486-.054zm16.338.1c-.574 0-.977.143-1.207.419-.227.276-.344.762-.344 1.463v.115h.303c.007-.411.078-.688.21-.83.13-.141.383-.209.755-.209h.91v.162a9.01 9.01 0 0 1-.196 1.794c-.134.655-.202 1.042-.202 1.166 0 .237.046.425.142.56.099.134.23.202.404.202a.485.485 0 0 0 .411-.202c.1-.135.149-.323.149-.56 0-.16-.068-.553-.202-1.18-.135-.63-.203-1.162-.203-1.598v-.344h2.057v.162c0 .535-.068 1.135-.203 1.794-.134.655-.202 1.042-.202 1.166 0 .237.053.425.149.56a.48.48 0 0 0 .41.202.468.468 0 0 0 .405-.202c.1-.135.149-.323.149-.56 0-.16-.068-.553-.203-1.18-.134-.63-.202-1.162-.202-1.598v-.344h1.82v-.957h-5.11zm-16.263.21c.393 0 .691.175.896.533.206.357.304.887.304 1.577s-.098 1.217-.304 1.578c-.205.361-.503.54-.896.54-.397 0-.702-.179-.91-.54-.21-.361-.318-.887-.318-1.578 0-.687.108-1.213.317-1.57.21-.362.514-.54.91-.54z"/>
  <path fill="#341f00" d="M50.029 65.7c-2.77 0-5 2.23-5 5v50c0 2.77 2.23 5 5 5h70c2.77 0 5-2.23 5-5v-50c0-2.77-2.23-5-5-5z" filter="url(#v)"/>
  <path fill="url(#w)" d="M50.08 65c-2.77 0-5 2.23-5 5h80c0-2.77-2.23-5-5-5z"/>
  <path fill="url(#x)" d="M50.079 70h70v50h-70z"/>
  <path fill="url(#y)" d="M50.08 125c-2.77 0-5-2.23-5-5h80c0 2.77-2.23 5-5 5z"/>
  <path fill="url(#z)" d="M-50.079 70h5v50h-5z" transform="scale(-1 1)"/>
  <path fill="url(#A)" d="M-125.079 70h5v50h-5z" transform="scale(-1 1)"/>
  <g filter="url(#B)" opacity=".535">
    <g filter="url(#C)" mask="url(#D)" opacity=".47" transform="translate(-192.672 .49)">
      <use xlink:href="#E" transform="translate(-182.461 -93.144) scale(1.75609)"/>
      <use xlink:href="#F" transform="translate(-14.945 -7.458) scale(1.10427)"/>
      <use xlink:href="#G" transform="translate(5.942 3.164) scale(1.10427)"/>
      <use xlink:href="#H" transform="translate(-5.234 2.397) scale(1.10427)"/>
      <use xlink:href="#I" transform="translate(-252.034 -59.834) scale(1.75609)"/>
      <use xlink:href="#J" transform="translate(-218.269 -65.22) scale(1.75609)"/>
      <use xlink:href="#K" transform="translate(3.819 -17.65) scale(1.10427)"/>
      <use xlink:href="#K" transform="translate(117.426 19.838) scale(.67122)"/>
      <use xlink:href="#E" transform="translate(18.458 -21.732) scale(1.10427)"/>
      <use xlink:href="#F" transform="translate(-52.674 -2.201) scale(1.10427)"/>
      <use xlink:href="#G" transform="translate(7.692 11.769) scale(1.10427)"/>
      <use xlink:href="#H" transform="translate(-45.213 -19.144) scale(1.10427)"/>
      <use xlink:href="#I" transform="translate(-39.966 -23.962) scale(1.10427)"/>
      <use xlink:href="#J" transform="translate(-16.289 -2.119) scale(1.10427)"/>
      <use xlink:href="#K" transform="translate(-174.766 -73.29) scale(1.75609)"/>
      <use xlink:href="#K" transform="translate(136.084 40.58) scale(.67122)"/>
      <use xlink:href="#E" transform="translate(-199.734 -93.023) scale(1.75609)"/>
      <use xlink:href="#F" transform="translate(-12.326 -33.422) scale(1.10427)"/>
      <use xlink:href="#G" transform="translate(-40.843 -.577) scale(1.10427)"/>
      <use xlink:href="#H" transform="translate(-16.88 -.69) scale(1.10427)"/>
      <use xlink:href="#I" transform="translate(-265.826 -53.116) scale(1.75609)"/>
      <use xlink:href="#J" transform="translate(-243.023 -80.538) scale(1.75609)"/>
      <use xlink:href="#K" transform="translate(-2.301 -24.744) scale(1.10427)"/>
      <use xlink:href="#K" transform="translate(74.137 8.31) scale(.67122)"/>
      <use xlink:href="#E" transform="translate(-13.374 -8.451) scale(1.10427)"/>
      <use xlink:href="#F" transform="translate(2.137 -11.105) scale(1.10427)"/>
      <use xlink:href="#G" transform="translate(7.61 15.155) scale(1.10427)"/>
      <use xlink:href="#H" transform="translate(-47.098 -9.65) scale(1.10427)"/>
      <use xlink:href="#I" transform="translate(-41.889 -9.41) scale(1.10427)"/>
      <use xlink:href="#J" transform="translate(-79.643 -29.337) scale(1.10427)"/>
      <path fill="url(#g)" d="M291.96 85.976a11.195 11.195 0 1 1-22.39 0 11.195 11.195 0 1 1 22.39 0zm-45.243 24.794a4.279 4.279 0 1 1-8.558 0 4.279 4.279 0 1 1 8.558 0z"/>
    </g>
  </g>
  <path fill="url(#w)" d="M50.08 65c-2.77 0-5 2.23-5 5v1c0-2.77 2.23-5 5-5h70c2.77 0 5 2.23 5 5v-1c0-2.77-2.23-5-5-5zm0 55-1 1h72l-1-1z" filter="url(#L)" opacity=".579"/>
  <path fill="url(#M)" d="M46.236 66.844c-.708.862-1.157 1.948-1.157 3.156v50c0 2.77 2.23 5 5 5h70c2.77 0 5-2.23 5-5V70c0-1.135-.398-2.163-1.03-3 .247.589.374 1.225.374 1.906v50.188c0 2.724-2.213 4.906-4.937 4.906H50.673c-2.724 0-4.937-2.182-4.937-4.906V68.906c0-.746.205-1.43.5-2.062zM49.079 69l1 1h70l1-1z" filter="url(#N)" opacity=".559"/>
  <path fill="#341f00" d="M45.043 69.918h5.038v.066h-5.038zm75.042 0h5.038v.066h-5.038zm-75.042 50h5.038v.066h-5.038zm75.042 0h5.038v.066h-5.038z" opacity=".535"/>
  <g fill="#fff">
    <use xlink:href="#O" mask="url(#h)" transform="translate(0 -30.163)"/>
    <use xlink:href="#O" mask="url(#h)" transform="translate(0 -30.163)"/>
    <path d="m-91.219 109.875-.156.781c.16.191.297.419.438.625.288.411.52.836.75 1.281.247.488.424.993.624 1.5a17.382 17.382 0 0 1 .907 3.219c.007.049-.003.065 0 .094.022.269.006.512 0 .781a9.91 9.91 0 0 1-.156 1.438c-.094.42-.262.827-.438 1.219-.097.216-.203.414-.313.624l.344.72a9.4 9.4 0 0 0 .313-.657 8.31 8.31 0 0 0 .469-1.25c.102-.477.188-.95.218-1.438a7.921 7.921 0 0 0-.219-2.28c-.11-.541-.216-1.066-.374-1.594a18.37 18.37 0 0 0-.563-1.626c-.205-.51-.4-1.012-.656-1.5a12.66 12.66 0 0 0-.781-1.312 35.452 35.452 0 0 0-.407-.625zm-15.344.875c-.186.114-.325.275-.468.438a5.22 5.22 0 0 0-.469.656 4.93 4.93 0 0 0-.438.844 9.06 9.06 0 0 0-.343.968c-.118.378-.192.74-.281 1.125-.088.396-.178.789-.25 1.188-.068.407-.161.84-.22 1.25a6.78 6.78 0 0 0-.062 1.094c.03.476.122.94.219 1.406.012.059.105.32.125.375.165.437.462.824.75 1.187.206.26.108.123.313.375l.093-.75c-.2-.25-.079-.148-.281-.406-.269-.36-.522-.722-.656-1.156-.03-.098-.074-.193-.094-.281-.004-.037.005-.074 0-.126a4.951 4.951 0 0 1 .031-1.062c.047-.408.123-.813.188-1.219.067-.398.133-.793.219-1.187.084-.382.171-.781.28-1.156.097-.319.213-.632.344-.938.119-.28.204-.56.376-.813.134-.22.272-.426.437-.624.121-.147.25-.328.406-.438zm1.72.906a.918.918 0 0 0-.126.344c-.034.358-.005.86.375.969.148.025.268-.03.375-.125.196-.265.046-.04-.094-.813l-.156.656c-.006-.025-.052-.115-.062-.156-.004.045-.014.077 0 .125-.1-.47-.212-.58-.094-.562l-.219-.438zm.25.5c.029.147.04.225.062.313a.481.481 0 0 1 .031-.094l-.094-.219zm46.687.219c-.267.052-.48.242-.688.406-.327.276-.634.546-.968.813-.292.238-.613.482-.907.719-.16.131-.315.265-.468.406l.28.719c.14-.148.314-.247.47-.376.292-.238.583-.479.874-.718.334-.269.64-.539.97-.813.108-.07.248-.195.374-.281-.06.665-.097 1.335-.156 2a395.338 395.338 0 0 0-.25 3.25c-.078.951-.165 1.924-.25 2.875-.064.709-.121 1.417-.188 2.125-.052.526-.08 1.036-.124 1.563-.05.483-.114.985-.157 1.468-.035.405-.071.814-.093 1.219-.02.362-.02.7-.032 1.063-.009.299-.025.607-.031.906-.005.24.003.479 0 .719 0 .109-.024.234-.031.343l.437.656c.008-.111.022-.232.032-.343.002-.24-.004-.48 0-.719.004-.3.023-.607.03-.906.01-.362.014-.733.032-1.094.02-.405.03-.783.063-1.188.04-.484.103-.985.156-1.468.055-.527.072-1.067.125-1.594.064-.711.127-1.414.187-2.125.085-.955.167-1.889.25-2.844.075-1.084.163-2.167.25-3.25.067-.734.131-1.487.219-2.219.039-.429.175-1.3-.406-1.312zm.125.781c.005.005.034-.006.031 0a.646.646 0 0 1-.031.063c-.01.017-.026.05-.032.031-.01-.038.01-.028 0-.063.016-.004.016-.029.032-.03zm-35.188.406a1.507 1.507 0 0 1-.344.282 2.3 2.3 0 0 1-.593.25 3.36 3.36 0 0 1-.625.094c-.236.012-.451.004-.688 0-.27-.016-.543-.033-.812-.063a8.643 8.643 0 0 0-.719-.063 1.517 1.517 0 0 0-.531.094 2.056 2.056 0 0 0-.5.25c-.152.114-.296.25-.406.406a1.884 1.884 0 0 0-.25.438c-.056.116-.083.254-.126.375l.407.656c.01-.114.025-.204.062-.312.057-.154.133-.298.219-.438.089-.144.214-.268.344-.375.124-.1.289-.162.437-.219.15-.061.31-.09.469-.093.223.014.434.039.656.062.274.027.538.047.813.063.245.003.505.014.75 0a3.54 3.54 0 0 0 .656-.094c.022-.005.04-.025.063-.031-.024.07-.039.148-.063.219-.05.163-.112.303-.156.468-.045.17-.07.358-.094.531-.027.19-.032.372-.031.563 0 .2.033.395.062.594.008.455.16.862.281 1.281.057.188.151.347.22.531.081.188.153.382.25.563l.156-.781c-.09-.179-.184-.343-.25-.532a5.333 5.333 0 0 1-.188-.562 4.64 4.64 0 0 1-.063-.219c-.009-.071-.026-.147-.03-.219a3.34 3.34 0 0 1 .03-.562c.018-.169.028-.334.063-.5a5.71 5.71 0 0 1 .125-.469c.036-.122.086-.255.125-.375l-.313-.563c.16-.054.322-.106.47-.187.153-.087.28-.22.406-.344zm-11.844.782a.607.607 0 0 1 .032.156c-.007.014-.026.014-.031.031-.05.188-.048.37-.063.563-.004.113-.002.23 0 .344-.01.103-.024.21-.031.312-.013.249-.042.502-.063.75-.024.286-.05.56-.094.844a8.302 8.302 0 0 1-.187.875c-.067.226-.132.482-.25.687a1.286 1.286 0 0 1-.219.313l.25.75c.123-.099.224-.247.313-.375.143-.212.203-.446.281-.688.091-.292.162-.574.219-.875.026-.143.044-.293.062-.437.046.243.1.486.188.719.094.24.237.46.406.656.12.135.253.218.406.312l.063-.781a1.483 1.483 0 0 1-.344-.313c-.142-.193-.275-.393-.344-.624a6.465 6.465 0 0 1-.156-.657 3.687 3.687 0 0 1-.031-.437 6.348 6.348 0 0 1-.031-.531c.005-.053-.006-.104 0-.157.026-.185.068-.377.093-.562.109-.263-.222-.955-.406-.813-.003-.01-.06-.056-.063-.062zm8.438.625c-.042.186-.064.373-.094.562-.039.244-.071.504-.094.75-.02.261-.003.52 0 .781.012.258.008.494.032.75.046.474.177.937.344 1.376.051.102.102.21.156.312l.156-.781a2.623 2.623 0 0 1-.125-.313 7.498 7.498 0 0 1-.094-.312c-.009-.132-.021-.275-.031-.406-.015-.256 0-.494 0-.75.019-.244.028-.509.063-.75.026-.185.064-.348.093-.532zm-20.563 3.375c-.48-.044-.893.068-1.406.25-.769.274-1.412.795-2.031 1.312-.594.49-1.12 1.052-1.594 1.656a8.048 8.048 0 0 0-1 1.907c-.122.433-.209.859-.187 1.312.023.482.182 1.025.281 1.469a6.344 6.344 0 0 0 1.313 2.063c.124.132.245.247.374.375.74.68 1.611 1.195 2.532 1.593.187.081.372.145.562.219.966.327 1.986.49 3 .563.622.032 1.23.006 1.844-.094.36-.063.71-.172 1.031-.344.033-.02.06-.043.094-.063l-.219-.75-.094.063c-.29.175-.605.249-.937.313a8.33 8.33 0 0 1-1.813.125c-.99-.068-1.964-.203-2.906-.532-.185-.074-.38-.138-.562-.219a8.484 8.484 0 0 1-2.438-1.625c-.123-.127-.256-.242-.375-.374-.532-.595-.97-1.303-1.219-2.063.005.09.079.359.032.281-.064-.103-.05-.223-.063-.344-.047-.435.03-.889.125-1.312.033-.103.056-.212.094-.313a8.325 8.325 0 0 1 .813-1.562c.458-.6.981-1.14 1.562-1.625.594-.505 1.195-1.011 1.938-1.281.643-.232 1.112-.332 1.78-.125.482.16.957.387 1.344.719.247.247.446.527.532.874-.01-.054.014-.132 0-.218.007.045.036.261.031.312v.031c-.008.038-.052.057-.063.094-.123.324-.305.61-.562.844a3.714 3.714 0 0 1-1.094.656 8.55 8.55 0 0 1-1.281.281c-.401.048-.783.104-1.188.094a9.094 9.094 0 0 1-1.03-.094 4.111 4.111 0 0 1-.657-.156l.031.813c.229.055.456.09.688.125a9.12 9.12 0 0 0 1.031.094c.417.005.837-.077 1.25-.126.44-.062.887-.124 1.313-.25.436-.163.826-.426 1.187-.718.287-.243.522-.54.688-.875.098-.213.1-.425.062-.656-.138-.83-.039-.62-.188-1.032-.124-.36-.412-.593-.687-.844a4.613 4.613 0 0 0-1.438-.718c-.178-.052-.34-.11-.5-.125zm15.813.125c-.068.1-.088.229-.125.344-.074.376-.046.814.188 1.124.11.12.25.134.406.094.121-.047.172-.135.219-.25.111-.333.095-.788-.126-1.062l-.187.781c.009.112-.022-.234-.031-.281.004-.01-.004-.022 0-.031l-.344-.72zm16.438 3.312.093.781c.17-.003.33.001.5 0 .303-.006.605-.018.906 0 .395.022.794.058 1.188.094.363.027.731.092 1.094.125.307.024.598.008.906 0 .25-.007.5-.026.75-.031.214-.004.442.002.656 0 .197-.002.397.002.594 0h.188l-.094-.781h-.188c-.197 0-.396-.003-.594 0-.214.003-.441-.005-.656 0-.25.005-.5.023-.75.031-.298.009-.608.024-.906 0-.362-.033-.73-.067-1.094-.094-.396-.034-.79-.07-1.187-.094-.307-.02-.599-.035-.906-.03-.171-.001-.33.003-.5 0zm13.093 2.719.094.813c.188.011.375.007.563.03.307.043.596.069.906.094.302.032.602.032.906.032h.813c.268 0 .544-.018.812-.031.259-.012.523-.01.781-.032.22-.024.436-.076.656-.094.196-.01.399.003.594 0h.281l-.093-.78c-.095 0-.187-.002-.281 0-.202.002-.425-.014-.626 0-.22.019-.436.067-.656.093-.255.021-.494.02-.75.031-.264.013-.547.031-.812.031-.271.002-.542.03-.813.032a8.38 8.38 0 0 1-.875-.031c-.306-.026-.601-.083-.906-.126a8.905 8.905 0 0 0-.594-.062zm-12.469 2.031.094.813c.244-.007.476.012.719.031.366.027.727.047 1.094.063.338.02.692.005 1.031 0 .29-.006.586.003.875 0 .246-.004.473.001.719 0 .222 0 .465-.01.687 0 .208.01.418.008.625.03.172.02.328.049.5.063l-.062-.781c-.171-.015-.361-.043-.531-.063-.213-.022-.412-.021-.626-.03-.225-.007-.461-.002-.687 0-.246.002-.473-.005-.719 0-.289.004-.586-.006-.875 0-.334.005-.666.02-1 0-.364-.017-.73-.034-1.094-.063-.25-.021-.499-.062-.75-.063z" filter="url(#P)" opacity=".619" transform="translate(165.285 -12.297) scale(.8894)"/>
  </g>
</svg>