<?xml version="1.0" encoding="UTF-8" standalone="no"?>
<!-- Created with Inkscape (http://www.inkscape.org/) -->
<svg height="128" width="128" xmlns="http://www.w3.org/2000/svg" xmlns:xlink="http://www.w3.org/1999/xlink">
  <defs>
    <linearGradient id="linearGradient2832">
      <stop offset="0"/>
      <stop offset=".23351648"/>
      <stop offset=".90313667" stop-opacity=".115523"/>
      <stop offset="1" stop-opacity="0"/>
    </linearGradient>
    <linearGradient id="linearGradient2768">
      <stop offset="0" stop-color="#fff"/>
      <stop offset=".5" stop-color="#e2f4ff" stop-opacity=".388235"/>
      <stop offset="1" stop-color="#fff" stop-opacity="0"/>
    </linearGradient>
    <linearGradient id="linearGradient2756">
      <stop offset="0"/>
      <stop offset=".5" stop-opacity=".115523"/>
      <stop offset="1" stop-opacity="0"/>
    </linearGradient>
    <linearGradient id="linearGradient2794">
      <stop offset="0" stop-opacity="0"/>
      <stop offset=".5" stop-opacity="0"/>
      <stop offset="1"/>
    </linearGradient>
    <radialGradient id="radialGradient5055" cx="11.399497" cy="52.3027" gradientTransform="matrix(1.614247 -.554116 .129794 .398354 -13.79069 37.72903)" gradientUnits="userSpaceOnUse" r="15.641792" xlink:href="#linearGradient2794"/>
    <linearGradient id="linearGradient5057" gradientUnits="userSpaceOnUse" spreadMethod="reflect" x1="-2.056501" x2="11.573463" xlink:href="#linearGradient2756" y1="40.125458" y2="39.982082"/>
    <radialGradient id="radialGradient5059" cx="5.926616" cy="36.414398" fx="5.707873" fy="33.156662" gradientTransform="matrix(1.000257 .00106247 -.00118068 .188889 .041472 29.52983)" gradientUnits="userSpaceOnUse" r="11.638787" xlink:href="#linearGradient2768"/>
    <radialGradient id="radialGradient5061" cx="-24.767632" cy="39.576881" fx="-24.725765" fy="42.786217" gradientTransform="matrix(1 0 0 .245791 0 29.84923)" gradientUnits="userSpaceOnUse" r="11.33434" xlink:href="#linearGradient2768"/>
    <radialGradient id="radialGradient5063" cx="-3.653282" cy="33.064476" gradientTransform="matrix(1.053938 -.393358 .06108396 .163664 14.53223 47.9041)" gradientUnits="userSpaceOnUse" r="14.734714" spreadMethod="pad" xlink:href="#linearGradient2832"/>
    <radialGradient id="radialGradient5125" cx="32.718082" cy="20.580448" gradientUnits="userSpaceOnUse" r="3.184946">
      <stop offset="0"/>
      <stop offset=".5"/>
      <stop offset="1" stop-opacity=".559567"/>
    </radialGradient>
    <radialGradient id="radialGradient5129" cx="11.399497" cy="52.3027" gradientTransform="matrix(1.280977 -.163275 .03333986 .392486 -15.32617 5.484284)" gradientUnits="userSpaceOnUse" r="15.641792" xlink:href="#linearGradient2794"/>
    <linearGradient id="linearGradient5131" gradientUnits="userSpaceOnUse" spreadMethod="reflect" x1="-9.127166" x2="9.65625" xlink:href="#linearGradient2756" y1="41.186058" y2="39.204475"/>
    <radialGradient id="radialGradient5135" cx="-3.653282" cy="33.064476" gradientTransform="matrix(.841313 -.13552 .0194352 .162907 4.020009 20.84149)" gradientUnits="userSpaceOnUse" r="14.734714" spreadMethod="pad" xlink:href="#linearGradient2832"/>
    <radialGradient id="radialGradient5165" cx="21.555122" cy="38.037304" gradientTransform="matrix(1 0 0 .53125 0 17.82999)" gradientUnits="userSpaceOnUse" r="4.790027">
      <stop offset="0"/>
      <stop offset="1" stop-opacity="0"/>
    </radialGradient>
    <radialGradient id="radialGradient3186" cx="-105.78773" cy="63.057098" gradientTransform="matrix(3.960133 -.358512 .381184 3.800156 416.1146 -253.513)" gradientUnits="userSpaceOnUse" r="38.162907" xlink:href="#linearGradient2768"/>
    <radialGradient id="radialGradient3873" cx="-67.17382" cy="68.451912" fx="-45.767757" fy="86.915504" gradientTransform="matrix(-.991153 .186978 -.0392212 -.216776 -8.652076 48.04515)" gradientUnits="userSpaceOnUse" r="44.900482">
      <stop offset=".5" stop-color="#2c72c7"/>
      <stop offset=".68" stop-color="#a4c0e4"/>
      <stop offset="1" stop-color="#2c72c7"/>
    </radialGradient>
  </defs>
  <g>
    <path d="m102.84798 2.521455c-.08714.000333-.17542.006925-.26435.020123l-82.177856 12.251276c-.642882.095877-1.154081.515821-1.393005 1.069587l-.003969.000667c-.989395.147516-1.667083 1.06266-1.519566 2.052053l2.509626 16.835216c-3.326423.376062-6.358295 1.217272-8.147817 2.106668-.662354.329192-1.118925.755092-1.402081 1.215953-.175734.275079-.28893.563341-.346528.851619-.278367 1.276839.539082 2.564239 1.844636 2.70565.24059.025912.483817.049173.72968.069797.644852.188113 2.094288.22327 3.987778.107921 1.410657-.037291 2.864547-.152472 4.334122-.350982l2.198255 14.745552c-3.59423.331509-6.926759 1.22718-8.83954 2.177797-.662187.329025-1.118439.754744-1.401596 1.215285-.177218.277049-.290899.567464-.348164.857894-.274912 1.274852.542052 2.558949 1.845787 2.700209.240591.025732.483817.049006.729514.06963.645019.188114 2.094621.223255 3.987944.107907 1.63029-.043232 3.318331-.190251 5.021721-.449646l2.216394 14.867652c-3.641416.3221-7.028727 1.22734-8.963464 2.18885-.659202.3277-1.114468.75112-1.397944 1.20951-.178051.27706-.292733.56765-.350816.85823-.2782 1.27667.539249 2.56424 1.844803 2.70565.240589.02574.483968.049.729832.06963.645184.18811 2.09447.22325 3.987443.10792 1.669402-.04423 3.399523-.19736 5.144662-.46863l2.237031 15.005277c-3.577074.3348-6.889465 1.22701-8.794169 2.17366-.659701.3277-1.115122.75145-1.398444 1.21001-.179037.27852-.293719.57094-.351467.863-.274747 1.27503.542049 2.55896 1.845786 2.70021.240743.02574.484136.04902.729999.06963.645185.18828 2.095287.22341 3.989262.10792 1.615441-.0429 3.287479-.18761 4.975019-.44271l2.72876 18.30461c.147517.98941 1.062827 1.66709 2.052055 1.51975l83.191677-12.40243c.98939-.14752 1.66725-1.06266 1.51973-2.05207l-.17771-1.192c.26715-.36879.39519-.83858.32244-1.32651l-12.05559-80.868184-3.58218-24.029446c-.13415-.90046-.90441-1.542842-1.7877-1.539705z" fill="none" stroke="#000" stroke-opacity=".12549" stroke-width="4.09616"/>
    <path d="m102.84798 2.214243c-.08714.000333-.17542.006925-.26435.020123l-82.177856 12.251276c-.642882.095877-1.154081.515821-1.393005 1.069587l-.003969.000667c-.989395.147516-1.667083 1.06266-1.519566 2.052053l2.509626 16.835216c-3.326423.376062-6.358295 1.217272-8.147817 2.106668-.662354.329192-1.118925.755092-1.402081 1.215953-.175734.275079-.28893.563341-.346528.851619-.278367 1.276839.539082 2.564239 1.844636 2.70565.24059.025912.483817.049173.72968.069797.644852.188113 2.094288.22327 3.987778.107921 1.410657-.037291 2.864547-.152472 4.334122-.350982l2.198255 14.745552c-3.59423.331509-6.926759 1.22718-8.83954 2.177797-.662187.329025-1.118439.754744-1.401596 1.215285-.177218.277049-.290899.567464-.348164.857894-.274912 1.274852.542052 2.558949 1.845787 2.700209.240591.025732.483817.049006.729514.06963.645019.188114 2.094621.223255 3.987944.107907 1.63029-.043232 3.318331-.190251 5.021721-.449646l2.216394 14.867654c-3.641416.3221-7.028727 1.22733-8.963464 2.18885-.659202.3277-1.114468.75112-1.397944 1.20951-.178051.27706-.292733.56764-.350816.85823-.2782 1.27667.539249 2.56423 1.844803 2.70564.240589.02575.483968.04901.729832.06964.645184.18811 2.09447.22325 3.987443.10792 1.669402-.04423 3.399523-.19736 5.144662-.46864l2.237031 15.005287c-3.577074.3348-6.889465 1.22701-8.794169 2.17366-.659701.3277-1.115122.75145-1.398444 1.21-.179037.27853-.293719.57095-.351467.863-.274747 1.27504.542049 2.55897 1.845786 2.70022.240743.02574.484136.04901.729999.06963.645185.18828 2.095287.22341 3.989262.10792 1.615441-.04291 3.287479-.18761 4.975019-.44271l2.72876 18.30461c.147517.98941 1.062827 1.66709 2.052055 1.51975l83.191677-12.40243c.98939-.14752 1.66725-1.06266 1.51973-2.05207l-.17771-1.192c.26715-.36879.39519-.83858.32244-1.32651l-13.05559-80.868186-2.58218-24.029446c-.13415-.90046-.90441-1.542842-1.7877-1.539705z" fill="none" stroke="#000" stroke-opacity=".12549" stroke-width="2.5601"/>
    <path d="m102.74557 2.009435c-.08713.000333-.17541.006925-.26435.020123l-82.17785 12.251276c-.642882.095877-1.154081.515821-1.393005 1.069587l-.003969.000667c-.989395.147516-1.667083 1.06266-1.519566 2.052053l2.509626 16.835216c-3.326423.376062-6.358295 1.217272-8.147817 2.106668-.662354.329192-1.118925.755092-1.402081 1.215953-.175734.275079-.28893.563341-.346528.851619-.278367 1.276839.539082 2.564239 1.844636 2.70565.24059.025912.483817.049173.72968.069797.644852.188113 2.094288.22327 3.987778.107921 1.410657-.037291 2.864547-.152472 4.334122-.350982l2.198255 14.745552c-3.59423.331509-6.926759 1.22718-8.83954 2.177797-.662187.329025-1.118439.754744-1.401596 1.215285-.177218.277049-.290899.567464-.348164.857894-.274912 1.274852.542052 2.558949 1.845787 2.700209.240591.025732.483817.049006.729514.06963.645019.188114 2.094621.223255 3.987944.107907 1.63029-.043232 3.318331-.190251 5.021721-.449646l2.216394 14.867652c-3.641416.3221-7.028727 1.22734-8.963464 2.18885-.659202.3277-1.114468.75112-1.397944 1.20951-.178051.27706-.292733.56765-.350816.85823-.2782 1.27667.539249 2.56424 1.844803 2.70565.240589.02574.483968.049.729832.06963.645184.18811 2.09447.22325 3.987443.10792 1.669402-.04423 3.399523-.19736 5.144662-.46863l2.237031 15.005277c-3.577074.3348-6.889465 1.22701-8.794169 2.17366-.659701.3277-1.115122.75145-1.398444 1.21001-.179037.27852-.293719.57094-.351467.863-.274747 1.27503.542049 2.55896 1.845786 2.70021.240743.02574.484136.04902.729999.06963.645185.18828 2.095287.22341 3.989262.10792 1.615441-.0429 3.287479-.18761 4.975019-.44271l2.72876 18.30461c.147517.98941 1.062827 1.66709 2.052055 1.51975l83.191681-12.40243c.98938-.14752 1.66725-1.06266 1.51972-2.05207l-.17771-1.192c.26715-.36879.3952-.83858.32244-1.32651l-12.05558-80.868184-3.58219-24.029446c-.13415-.90046-.90441-1.542842-1.7877-1.539705z" fill="#b9bcbf" fill-rule="evenodd" stroke="#000" stroke-opacity=".142276" stroke-width="1.638464"/>
    <g transform="matrix(.610086 .175308 -.150598 .72359 20.60331 -2.36439)">
      <path d="m-2.1601684 53.557274c4.6516419-3.431058 16.0138714-8.229027 25.5896874-8.640674 3.355289-.144238 4.985381 3.733206 1.938612 5.538894-8.217217 4.869987-17.7608048 7.997989-25.81124252 9.194562-3.27601658.483601-5.58308728-3.241193-1.71705688-6.092782z" fill="#b9bcbf" fill-rule="evenodd"/>
      <path d="m-2.1601687 53.501885c4.651642-3.431058 16.0138717-8.229027 25.5896877-8.640674 3.355289-.144238 4.985381 3.733206 1.938612 5.538894-8.217217 4.869987-17.7608048 7.997989-25.8112427 9.194562-3.276016.483601-5.583087-3.241193-1.717057-6.092782z" fill="url(#radialGradient5055)" fill-rule="evenodd"/>
      <path d="m23.706463 40.125458a12.850232 1.5785846 0 1 1 -25.7004644 0 12.850232 1.5785846 0 1 1 25.7004644 0z" fill="url(#linearGradient5057)" transform="matrix(.995393 -.364543 .322583 .874956 -10.89977 23.43152)"/>
      <path d="m17.502903 36.414398a11.576287 2.8993874 0 1 1 -23.1525746 0 11.576287 2.8993874 0 1 1 23.1525746 0z" fill="url(#radialGradient5059)" transform="matrix(.785464 -.292634 .345471 .93841 -7.376042 18.82131)"/>
      <path d="m4.0827237 56.607995c-.5508685.268049-1.0594786.511956-1.6130254.817341 2.4071569-.441888 4.6852388-1.084254 6.8996464-1.830624-1.762207.446975-4.8464575 1.159439-5.286621 1.013283z" fill="#c4c8cb" fill-rule="evenodd"/>
      <path d="m-13.433291 39.576881a11.33434 2.7858815 0 1 1 -22.668681 0 11.33434 2.7858815 0 1 1 22.668681 0z" fill="url(#radialGradient5061)" transform="matrix(.450034 -.161438 .09713385 .270775 19.89574 39.44013)"/>
      <path d="m21.237508 50.347798c.59258-.155419 1.137371-.301632 1.756302-.430466-2.114319 1.232609-4.261281 2.229026-6.427671 3.105054 1.628259-.80866 4.432582-2.276988 4.671369-2.674588z" fill="#babec2" fill-rule="evenodd"/>
      <path d="m26.375 48.28125c-.106293.003474-.226679.022288-.34375.03125-2.580774.197555-7.845307 1.620089-13.75 3.78125-7.6507044 2.800215-13.669603 5.881961-14.03125 7.125.0000255.002776-.0001509.027977 0 .03125.0000069.002782-.0000772.027953 0 .03125-.000321.004775.000123.026541 0 .03125.000077.004645-.000276.026671 0 .03125.0002385.002257.0001443.024558 0 .03125-.0000496.0028.0001478.027879 0 .03125-.000062.002805.0001983.027861 0 .03125.0027503.002703.0278639.028329.03125.03125.002714.002718.0280112.028269.03125.03125-.0001107.002825.0003945.027782 0 .03125.003446.003388.0252566.025092.03125.03125.0027892-.000092.0278584.000389.03125 0 .0360368.024538.1025888.046725.15625.0625.4211185.10813 1.26741313-.004189 1.53125-.125.01587916-.008054.05213603-.023286.0625-.03125.00212203-.00261-.00142361-.028669 0-.03125-.00080008-.002462.00158412-.028837 0-.03125-.00362969.000317-.02840001-.000075-.03125 0 .00023406-.003572-.0000692-.028399 0-.03125-.00375819-.003538-.02836814-.028408-.03125-.03125.00016463-.007031.0002855-.029672 0-.03125-.000222-.003272.000048-.027918 0-.03125.0024861-.011689.02629025-.049055.03125-.0625.00584081-.013854.02435861-.048765.03125-.0625.00353046-.006603-.00349663-.025067 0-.03125.00486822-.007734.02583172-.023334.03125-.03125.7516252-1.020242 5.8344666-3.485827 12.1875-5.8125 6.509036-2.383804 12.105069-3.823763 13.15625-3.4375.003096.001326-.377017.745378-.363281.738281.896076-.462973 1.536394-1.110313 1.769531-2.113281l.28125-.125c-.212134-.03738-.493621-.072921-.8125-.0625z" fill="url(#radialGradient5063)"/>
    </g>
    <g transform="matrix(.610086 .175308 -.150598 .72359 23.11802 19.23111)">
      <path d="m-2.1601684 53.557274c4.6516419-3.431058 16.0138714-8.229027 25.5896874-8.640674 3.355289-.144238 4.985381 3.733206 1.938612 5.538894-8.217217 4.869987-17.7608048 7.997989-25.81124252 9.194562-3.27601658.483601-5.58308728-3.241193-1.71705688-6.092782z" fill="#b9bcbf" fill-rule="evenodd"/>
      <path d="m-2.1601687 53.501885c4.651642-3.431058 16.0138717-8.229027 25.5896877-8.640674 3.355289-.144238 4.985381 3.733206 1.938612 5.538894-8.217217 4.869987-17.7608048 7.997989-25.8112427 9.194562-3.276016.483601-5.583087-3.241193-1.717057-6.092782z" fill="url(#radialGradient5055)" fill-rule="evenodd"/>
      <path d="m23.706463 40.125458a12.850232 1.5785846 0 1 1 -25.7004644 0 12.850232 1.5785846 0 1 1 25.7004644 0z" fill="url(#linearGradient5057)" transform="matrix(.995393 -.364543 .322583 .874956 -10.89977 23.43152)"/>
      <path d="m17.502903 36.414398a11.576287 2.8993874 0 1 1 -23.1525746 0 11.576287 2.8993874 0 1 1 23.1525746 0z" fill="url(#radialGradient5059)" transform="matrix(.785464 -.292634 .345471 .93841 -7.376042 18.82131)"/>
      <path d="m4.0827237 56.607995c-.5508685.268049-1.0594786.511956-1.6130254.817341 2.4071569-.441888 4.6852388-1.084254 6.8996464-1.830624-1.762207.446975-4.8464575 1.159439-5.286621 1.013283z" fill="#c4c8cb" fill-rule="evenodd"/>
      <path d="m-13.433291 39.576881a11.33434 2.7858815 0 1 1 -22.668681 0 11.33434 2.7858815 0 1 1 22.668681 0z" fill="url(#radialGradient5061)" transform="matrix(.450034 -.161438 .09713385 .270775 19.89574 39.44013)"/>
      <path d="m21.237508 50.347798c.59258-.155419 1.137371-.301632 1.756302-.430466-2.114319 1.232609-4.261281 2.229026-6.427671 3.105054 1.628259-.80866 4.432582-2.276988 4.671369-2.674588z" fill="#babec2" fill-rule="evenodd"/>
      <path d="m26.375 48.28125c-.106293.003474-.226679.022288-.34375.03125-2.580774.197555-7.845307 1.620089-13.75 3.78125-7.6507044 2.800215-13.669603 5.881961-14.03125 7.125.0000255.002776-.0001509.027977 0 .03125.0000069.002782-.0000772.027953 0 .03125-.000321.004775.000123.026541 0 .03125.000077.004645-.000276.026671 0 .03125.0002385.002257.0001443.024558 0 .03125-.0000496.0028.0001478.027879 0 .03125-.000062.002805.0001983.027861 0 .03125.0027503.002703.0278639.028329.03125.03125.002714.002718.0280112.028269.03125.03125-.0001107.002825.0003945.027782 0 .03125.003446.003388.0252566.025092.03125.03125.0027892-.000092.0278584.000389.03125 0 .0360368.024538.1025888.046725.15625.0625.4211185.10813 1.26741313-.004189 1.53125-.125.01587916-.008054.05213603-.023286.0625-.03125.00212203-.00261-.00142361-.028669 0-.03125-.00080008-.002462.00158412-.028837 0-.03125-.00362969.000317-.02840001-.000075-.03125 0 .00023406-.003572-.0000692-.028399 0-.03125-.00375819-.003538-.02836814-.028408-.03125-.03125.00016463-.007031.0002855-.029672 0-.03125-.000222-.003272.000048-.027918 0-.03125.0024861-.011689.02629025-.049055.03125-.0625.00584081-.013854.02435861-.048765.03125-.0625.00353046-.006603-.00349663-.025067 0-.03125.00486822-.007734.02583172-.023334.03125-.03125.7516252-1.020242 5.8344666-3.485827 12.1875-5.8125 6.509036-2.383804 12.105069-3.823763 13.15625-3.4375.003096.001326-.377017.745378-.363281.738281.896076-.462973 1.536394-1.110313 1.769531-2.113281l.28125-.125c-.212134-.03738-.493621-.072921-.8125-.0625z" fill="url(#radialGradient5063)"/>
    </g>
    <g transform="matrix(.610086 .175308 -.150598 .72359 26.21655 40.86114)">
      <path d="m-2.1601684 53.557274c4.6516419-3.431058 16.0138714-8.229027 25.5896874-8.640674 3.355289-.144238 4.985381 3.733206 1.938612 5.538894-8.217217 4.869987-17.7608048 7.997989-25.81124252 9.194562-3.27601658.483601-5.58308728-3.241193-1.71705688-6.092782z" fill="#b9bcbf" fill-rule="evenodd"/>
      <path d="m-2.1601687 53.501885c4.651642-3.431058 16.0138717-8.229027 25.5896877-8.640674 3.355289-.144238 4.985381 3.733206 1.938612 5.538894-8.217217 4.869987-17.7608048 7.997989-25.8112427 9.194562-3.276016.483601-5.583087-3.241193-1.717057-6.092782z" fill="url(#radialGradient5055)" fill-rule="evenodd"/>
      <path d="m23.706463 40.125458a12.850232 1.5785846 0 1 1 -25.7004644 0 12.850232 1.5785846 0 1 1 25.7004644 0z" fill="url(#linearGradient5057)" transform="matrix(.995393 -.364543 .322583 .874956 -10.89977 23.43152)"/>
      <path d="m17.502903 36.414398a11.576287 2.8993874 0 1 1 -23.1525746 0 11.576287 2.8993874 0 1 1 23.1525746 0z" fill="url(#radialGradient5059)" transform="matrix(.785464 -.292634 .345471 .93841 -7.376042 18.82131)"/>
      <path d="m4.0827237 56.607995c-.5508685.268049-1.0594786.511956-1.6130254.817341 2.4071569-.441888 4.6852388-1.084254 6.8996464-1.830624-1.762207.446975-4.8464575 1.159439-5.286621 1.013283z" fill="#c4c8cb" fill-rule="evenodd"/>
      <path d="m-13.433291 39.576881a11.33434 2.7858815 0 1 1 -22.668681 0 11.33434 2.7858815 0 1 1 22.668681 0z" fill="url(#radialGradient5061)" transform="matrix(.450034 -.161438 .09713385 .270775 19.89574 39.44013)"/>
      <path d="m21.237508 50.347798c.59258-.155419 1.137371-.301632 1.756302-.430466-2.114319 1.232609-4.261281 2.229026-6.427671 3.105054 1.628259-.80866 4.432582-2.276988 4.671369-2.674588z" fill="#babec2" fill-rule="evenodd"/>
      <path d="m26.375 48.28125c-.106293.003474-.226679.022288-.34375.03125-2.580774.197555-7.845307 1.620089-13.75 3.78125-7.6507044 2.800215-13.669603 5.881961-14.03125 7.125.0000255.002776-.0001509.027977 0 .03125.0000069.002782-.0000772.027953 0 .03125-.000321.004775.000123.026541 0 .03125.000077.004645-.000276.026671 0 .03125.0002385.002257.0001443.024558 0 .03125-.0000496.0028.0001478.027879 0 .03125-.000062.002805.0001983.027861 0 .03125.0027503.002703.0278639.028329.03125.03125.002714.002718.0280112.028269.03125.03125-.0001107.002825.0003945.027782 0 .03125.003446.003388.0252566.025092.03125.03125.0027892-.000092.0278584.000389.03125 0 .0360368.024538.1025888.046725.15625.0625.4211185.10813 1.26741313-.004189 1.53125-.125.01587916-.008054.05213603-.023286.0625-.03125.00212203-.00261-.00142361-.028669 0-.03125-.00080008-.002462.00158412-.028837 0-.03125-.00362969.000317-.02840001-.000075-.03125 0 .00023406-.003572-.0000692-.028399 0-.03125-.00375819-.003538-.02836814-.028408-.03125-.03125.00016463-.007031.0002855-.029672 0-.03125-.000222-.003272.000048-.027918 0-.03125.0024861-.011689.02629025-.049055.03125-.0625.00584081-.013854.02435861-.048765.03125-.0625.00353046-.006603-.00349663-.025067 0-.03125.00486822-.007734.02583172-.023334.03125-.03125.7516252-1.020242 5.8344666-3.485827 12.1875-5.8125 6.509036-2.383804 12.105069-3.823763 13.15625-3.4375.003096.001326-.377017.745378-.363281.738281.896076-.462973 1.536394-1.110313 1.769531-2.113281l.28125-.125c-.212134-.03738-.493621-.072921-.8125-.0625z" fill="url(#radialGradient5063)"/>
    </g>
    <rect fill="#7d7d7d" height="111.6581" ry="1.811629" transform="matrix(.989069 -.147452 .147446 .98907 0 0)" width="88.016357" x="14.230027" y="17.422129"/>
    <g transform="matrix(.610086 .175308 -.150598 .72359 29.62864 62.59492)">
      <path d="m-2.1601684 53.557274c4.6516419-3.431058 16.0138714-8.229027 25.5896874-8.640674 3.355289-.144238 4.985381 3.733206 1.938612 5.538894-8.217217 4.869987-17.7608048 7.997989-25.81124252 9.194562-3.27601658.483601-5.58308728-3.241193-1.71705688-6.092782z" fill="#b9bcbf" fill-rule="evenodd"/>
      <path d="m-2.1601687 53.501885c4.651642-3.431058 16.0138717-8.229027 25.5896877-8.640674 3.355289-.144238 4.985381 3.733206 1.938612 5.538894-8.217217 4.869987-17.7608048 7.997989-25.8112427 9.194562-3.276016.483601-5.583087-3.241193-1.717057-6.092782z" fill="url(#radialGradient5055)" fill-rule="evenodd"/>
      <path d="m23.706463 40.125458a12.850232 1.5785846 0 1 1 -25.7004644 0 12.850232 1.5785846 0 1 1 25.7004644 0z" fill="url(#linearGradient5057)" transform="matrix(.995393 -.364543 .322583 .874956 -10.89977 23.43152)"/>
      <path d="m17.502903 36.414398a11.576287 2.8993874 0 1 1 -23.1525746 0 11.576287 2.8993874 0 1 1 23.1525746 0z" fill="url(#radialGradient5059)" transform="matrix(.785464 -.292634 .345471 .93841 -7.376042 18.82131)"/>
      <path d="m4.0827237 56.607995c-.5508685.268049-1.0594786.511956-1.6130254.817341 2.4071569-.441888 4.6852388-1.084254 6.8996464-1.830624-1.762207.446975-4.8464575 1.159439-5.286621 1.013283z" fill="#c4c8cb" fill-rule="evenodd"/>
      <path d="m-13.433291 39.576881a11.33434 2.7858815 0 1 1 -22.668681 0 11.33434 2.7858815 0 1 1 22.668681 0z" fill="url(#radialGradient5061)" transform="matrix(.450034 -.161438 .09713385 .270775 19.89574 39.44013)"/>
      <path d="m21.237508 50.347798c.59258-.155419 1.137371-.301632 1.756302-.430466-2.114319 1.232609-4.261281 2.229026-6.427671 3.105054 1.628259-.80866 4.432582-2.276988 4.671369-2.674588z" fill="#babec2" fill-rule="evenodd"/>
      <path d="m26.375 48.28125c-.106293.003474-.226679.022288-.34375.03125-2.580774.197555-7.845307 1.620089-13.75 3.78125-7.6507044 2.800215-13.669603 5.881961-14.03125 7.125.0000255.002776-.0001509.027977 0 .03125.0000069.002782-.0000772.027953 0 .03125-.000321.004775.000123.026541 0 .03125.000077.004645-.000276.026671 0 .03125.0002385.002257.0001443.024558 0 .03125-.0000496.0028.0001478.027879 0 .03125-.000062.002805.0001983.027861 0 .03125.0027503.002703.0278639.028329.03125.03125.002714.002718.0280112.028269.03125.03125-.0001107.002825.0003945.027782 0 .03125.003446.003388.0252566.025092.03125.03125.0027892-.000092.0278584.000389.03125 0 .0360368.024538.1025888.046725.15625.0625.4211185.10813 1.26741313-.004189 1.53125-.125.01587916-.008054.05213603-.023286.0625-.03125.00212203-.00261-.00142361-.028669 0-.03125-.00080008-.002462.00158412-.028837 0-.03125-.00362969.000317-.02840001-.000075-.03125 0 .00023406-.003572-.0000692-.028399 0-.03125-.00375819-.003538-.02836814-.028408-.03125-.03125.00016463-.007031.0002855-.029672 0-.03125-.000222-.003272.000048-.027918 0-.03125.0024861-.011689.02629025-.049055.03125-.0625.00584081-.013854.02435861-.048765.03125-.0625.00353046-.006603-.00349663-.025067 0-.03125.00486822-.007734.02583172-.023334.03125-.03125.7516252-1.020242 5.8344666-3.485827 12.1875-5.8125 6.509036-2.383804 12.105069-3.823763 13.15625-3.4375.003096.001326-.377017.745378-.363281.738281.896076-.462973 1.536394-1.110313 1.769531-2.113281l.28125-.125c-.212134-.03738-.493621-.072921-.8125-.0625z" fill="url(#radialGradient5063)"/>
    </g>
    <rect fill="#e3e3e3" height="108.0478" ry="1.811629" transform="matrix(.989069 -.147452 .147446 .98907 0 0)" width="86.13308" x="15.030055" y="18.146769"/>
    <path d="m99.77022 3.819598c-.02153.002688-.04655.028104-.06815.031324l-79.950412 13.552122c-1.382287.206073-2.356828 1.419849-2.161065 2.733045l2.105384 14.026502c.003058.020519-.005337.043764-.001756.064073l.030124.128505 12.277832 82.360671c.195765 1.3132 1.45698 2.19102 2.839265 1.98493l80.404428-11.91122c1.38229-.20607 2.35684-1.41985 2.16107-2.73305l-11.33457-75.389106-3.53104-22.831537c-.1927-1.292682-1.41409-2.185518-2.77111-2.016259z" fill="url(#radialGradient3873)"/>
    <rect fill="#fff" height="110.03552" opacity=".614754" ry="1.811631" transform="matrix(.989069 -.147452 .147446 .98907 0 0)" width="86.987892" x="15.774669" y="16.566729"/>
    <rect fill="url(#radialGradient3186)" height="107.4043" ry="1.811631" transform="matrix(.989069 -.147452 .147446 .98907 0 0)" width="83.474602" x="17.25271" y="17.628622"/>
    <path d="m35.903029 20.580448a3.1849463 3.1849463 0 1 1 -6.369893 0 3.1849463 3.1849463 0 1 1 6.369893 0z" fill="url(#radialGradient5125)" transform="matrix(.84147 -.125447 .119173 .799413 -2.46821 24.26936)"/>
    <path d="m35.903029 20.580448a3.1849463 3.1849463 0 1 1 -6.369893 0 3.1849463 3.1849463 0 1 1 6.369893 0z" fill="url(#radialGradient5125)" transform="matrix(.84147 -.125447 .119173 .799413 .04652 45.86484)"/>
    <g transform="matrix(.83119 .00881714 -.02170209 .791633 21.91696 39.87001)">
      <path d="m4.53125 19.375c-5.48029408.105588-10.9206311 1.564984-13.75 3.09375-3.307632 1.78718-2.186362 5.681881.3125 5.9375 2.347865-2.281088 7.4837065-2.192396 11.272805-3.248435l10.727195-1.157815v-.03125c.537372-1.527293-.27837-3.560434-2.03125-3.96875-2.0658177-.481212-4.3029986-.667931-6.53125-.625z" fill="#b9bcbf" fill-rule="evenodd"/>
      <path d="m3.84375 19.34375c-5.2317833.210663-10.3574988 1.600932-13.0625 3.0625-3.307631 1.78718-2.186361 5.681882.3125 5.9375 3.5466886-2.485766 7.3614394-2.784445 11.0502136-3.150745l10.9497864-1.224255c.57031-1.532161-.229512-3.618833-2-4.03125-2.2891493-.533234-4.784447-.693028-7.25-.59375z" fill="url(#radialGradient5129)" fill-rule="evenodd"/>
      <path d="m7.9375 24.53125h1.71875c-.4632495-.008226-.9885849-.023846-1.5625 0-.0557973.002318-.0994902-.002634-.15625 0z" fill="url(#linearGradient5131)"/>
      <path d="m17.502903 36.414398a11.576287 2.8993874 0 1 1 -23.1525746 0 11.576287 2.8993874 0 1 1 23.1525746 0z" fill="url(#radialGradient5059)" transform="matrix(.62692 -.10052 .107909 .933054 -7.608491 -10.46366)"/>
      <path d="m-5.0768942 26.584501c-.4495561.128024-.8640628.24295-1.3214715.404596 1.8497292.108564 3.6355297.00601 5.3905964-.205367-1.3735514.033608-3.7665849.02847-4.0691249-.199229z" fill="#c4c8cb" fill-rule="evenodd"/>
      <path d="m9.4375 23.46875c-2.093437.025942-4.8082779.268617-7.75.71875-5.8126689.889436-10.5722377 2.35432-11.40625 3.40625-.0315375.042849-.0756658.083544-.09375.125-.0004175.002549.0004031.028221 0 .03125-.0004328.002551.0004614.028214 0 .03125-.0009882.004305.0008316.026964 0 .03125-.0006739.004269.000516.026997 0 .03125-.0001785.002117.0011592.025152 0 .03125-.0004774.002555-.0306105.028194-.03125.03125-.000487.002556.0006796.028188 0 .03125.0016085.003062.0292051.027853.03125.03125.0015796.003068-.0019265.027829 0 .03125-.000526.002564.0008372.028158 0 .03125.0020154.003838.027786.024333.03125.03125.005197.001556.0299653-.000183.03125 0 .002849.00377-.0035043.02737 0 .03125.0242208.023641.0658465.043084.09375.0625.2668322.171113.8329333.245777 1.09375.21875.0165475-.002373.0491173.003399.0625 0 .0065051-.001995.0212067.002689.03125 0 .000495-.000484.0308104-.028637.03125-.03125-.0001024-.001213-.0013533-.024717 0-.03125-.0027339-.000485-.0291305-.030711-.03125-.03125-.002223-.004041.0016843-.059283 0-.0625.0003506-.003044-.0004885-.028188 0-.03125.0004596-.001272-.0010052-.029457 0-.03125.0035264-.004982.028178-.026776.03125-.03125.0064981-.011442.0239933-.05139.03125-.0625.0003424-.0025-.0008896-.030021 0-.03125.0024429-.001866.028376.001986.03125 0 .0055963-.006047.0252361-.025154.03125-.03125.0128581-.012287.0479956-.050026.0625-.0625.0306406-.025129.0879276-.067925.125-.09375 1.1403637-.766751 5.0500436-1.815696 9.71875-2.53125 3.0645864-.469696 5.8420486-.723236 7.75-.71875h.03125l3.9375-.65625c-.148317-.076623-.336904-.163225-.5625-.21875-.079156-.019482-.162009-.045746-.25-.0625-.727388-.138503-1.775188-.203065-3.03125-.1875z" fill="url(#radialGradient5135)"/>
    </g>
    <path d="m35.903029 20.580448a3.1849463 3.1849463 0 1 1 -6.369893 0 3.1849463 3.1849463 0 1 1 6.369893 0z" fill="url(#radialGradient5125)" transform="matrix(.820161 -.12227 .116155 .779169 4.79656 67.62247)"/>
    <path d="m35.903029 20.580448a3.1849463 3.1849463 0 1 1 -6.369893 0 3.1849463 3.1849463 0 1 1 6.369893 0z" opacity=".45082" transform="matrix(.820161 -.12227 .116155 .779169 4.78609 67.54967)"/>
    <path d="m35.903029 20.580448a3.1849463 3.1849463 0 1 1 -6.369893 0 3.1849463 3.1849463 0 1 1 6.369893 0z" fill="url(#radialGradient5125)" transform="matrix(.84147 -.125447 .119173 .799413 6.55713 89.22862)"/>
    <path d="m35.903029 20.580448a3.1849463 3.1849463 0 1 1 -6.369893 0 3.1849463 3.1849463 0 1 1 6.369893 0z" opacity=".45082" transform="matrix(.84147 -.125447 .119173 .799413 6.39169 89.43482)"/>
    <g transform="matrix(.83119 .00881714 -.02170209 .791633 19.40222 18.27452)">
      <path d="m4.53125 19.375c-5.48029408.105588-10.9206311 1.564984-13.75 3.09375-3.307632 1.78718-2.186362 5.681881.3125 5.9375 2.347865-2.281088 7.4837065-2.192396 11.272805-3.248435l10.727195-1.157815v-.03125c.537372-1.527293-.27837-3.560434-2.03125-3.96875-2.0658177-.481212-4.3029986-.667931-6.53125-.625z" fill="#b9bcbf" fill-rule="evenodd"/>
      <path d="m3.84375 19.34375c-5.2317833.210663-10.3574988 1.600932-13.0625 3.0625-3.307631 1.78718-2.186361 5.681882.3125 5.9375 3.5466886-2.485766 7.3614394-2.784445 11.0502136-3.150745l10.9497864-1.224255c.57031-1.532161-.229512-3.618833-2-4.03125-2.2891493-.533234-4.784447-.693028-7.25-.59375z" fill="url(#radialGradient5129)" fill-rule="evenodd"/>
      <path d="m7.9375 24.53125h1.71875c-.4632495-.008226-.9885849-.023846-1.5625 0-.0557973.002318-.0994902-.002634-.15625 0z" fill="url(#linearGradient5131)"/>
      <path d="m17.502903 36.414398a11.576287 2.8993874 0 1 1 -23.1525746 0 11.576287 2.8993874 0 1 1 23.1525746 0z" fill="url(#radialGradient5059)" transform="matrix(.62692 -.10052 .107909 .933054 -7.608491 -10.46366)"/>
      <path d="m-5.0768942 26.584501c-.4495561.128024-.8640628.24295-1.3214715.404596 1.8497292.108564 3.6355297.00601 5.3905964-.205367-1.3735514.033608-3.7665849.02847-4.0691249-.199229z" fill="#c4c8cb" fill-rule="evenodd"/>
      <path d="m9.4375 23.46875c-2.093437.025942-4.8082779.268617-7.75.71875-5.8126689.889436-10.5722377 2.35432-11.40625 3.40625-.0315375.042849-.0756658.083544-.09375.125-.0004175.002549.0004031.028221 0 .03125-.0004328.002551.0004614.028214 0 .03125-.0009882.004305.0008316.026964 0 .03125-.0006739.004269.000516.026997 0 .03125-.0001785.002117.0011592.025152 0 .03125-.0004774.002555-.0306105.028194-.03125.03125-.000487.002556.0006796.028188 0 .03125.0016085.003062.0292051.027853.03125.03125.0015796.003068-.0019265.027829 0 .03125-.000526.002564.0008372.028158 0 .03125.0020154.003838.027786.024333.03125.03125.005197.001556.0299653-.000183.03125 0 .002849.00377-.0035043.02737 0 .03125.0242208.023641.0658465.043084.09375.0625.2668322.171113.8329333.245777 1.09375.21875.0165475-.002373.0491173.003399.0625 0 .0065051-.001995.0212067.002689.03125 0 .000495-.000484.0308104-.028637.03125-.03125-.0001024-.001213-.0013533-.024717 0-.03125-.0027339-.000485-.0291305-.030711-.03125-.03125-.002223-.004041.0016843-.059283 0-.0625.0003506-.003044-.0004885-.028188 0-.03125.0004596-.001272-.0010052-.029457 0-.03125.0035264-.004982.028178-.026776.03125-.03125.0064981-.011442.0239933-.05139.03125-.0625.0003424-.0025-.0008896-.030021 0-.03125.0024429-.001866.028376.001986.03125 0 .0055963-.006047.0252361-.025154.03125-.03125.0128581-.012287.0479956-.050026.0625-.0625.0306406-.025129.0879276-.067925.125-.09375 1.1403637-.766751 5.0500436-1.815696 9.71875-2.53125 3.0645864-.469696 5.8420486-.723236 7.75-.71875h.03125l3.9375-.65625c-.148317-.076623-.336904-.163225-.5625-.21875-.079156-.019482-.162009-.045746-.25-.0625-.727388-.138503-1.775188-.203065-3.03125-.1875z" fill="url(#radialGradient5135)"/>
    </g>
    <g transform="matrix(.83119 .00881714 -.02170209 .791633 25.01547 61.50009)">
      <path d="m4.53125 19.375c-5.48029408.105588-10.9206311 1.564984-13.75 3.09375-3.307632 1.78718-2.186362 5.681881.3125 5.9375 2.347865-2.281088 7.4837065-2.192396 11.272805-3.248435l10.727195-1.157815v-.03125c.537372-1.527293-.27837-3.560434-2.03125-3.96875-2.0658177-.481212-4.3029986-.667931-6.53125-.625z" fill="#b9bcbf" fill-rule="evenodd"/>
      <path d="m3.84375 19.34375c-5.2317833.210663-10.3574988 1.600932-13.0625 3.0625-3.307631 1.78718-2.186361 5.681882.3125 5.9375 3.5466886-2.485766 7.3614394-2.784445 11.0502136-3.150745l10.9497864-1.224255c.57031-1.532161-.229512-3.618833-2-4.03125-2.2891493-.533234-4.784447-.693028-7.25-.59375z" fill="url(#radialGradient5129)" fill-rule="evenodd"/>
      <path d="m7.9375 24.53125h1.71875c-.4632495-.008226-.9885849-.023846-1.5625 0-.0557973.002318-.0994902-.002634-.15625 0z" fill="url(#linearGradient5131)"/>
      <path d="m17.502903 36.414398a11.576287 2.8993874 0 1 1 -23.1525746 0 11.576287 2.8993874 0 1 1 23.1525746 0z" fill="url(#radialGradient5059)" transform="matrix(.62692 -.10052 .107909 .933054 -7.608491 -10.46366)"/>
      <path d="m-5.0768942 26.584501c-.4495561.128024-.8640628.24295-1.3214715.404596 1.8497292.108564 3.6355297.00601 5.3905964-.205367-1.3735514.033608-3.7665849.02847-4.0691249-.199229z" fill="#c4c8cb" fill-rule="evenodd"/>
      <path d="m9.4375 23.46875c-2.093437.025942-4.8082779.268617-7.75.71875-5.8126689.889436-10.5722377 2.35432-11.40625 3.40625-.0315375.042849-.0756658.083544-.09375.125-.0004175.002549.0004031.028221 0 .03125-.0004328.002551.0004614.028214 0 .03125-.0009882.004305.0008316.026964 0 .03125-.0006739.004269.000516.026997 0 .03125-.0001785.002117.0011592.025152 0 .03125-.0004774.002555-.0306105.028194-.03125.03125-.000487.002556.0006796.028188 0 .03125.0016085.003062.0292051.027853.03125.03125.0015796.003068-.0019265.027829 0 .03125-.000526.002564.0008372.028158 0 .03125.0020154.003838.027786.024333.03125.03125.005197.001556.0299653-.000183.03125 0 .002849.00377-.0035043.02737 0 .03125.0242208.023641.0658465.043084.09375.0625.2668322.171113.8329333.245777 1.09375.21875.0165475-.002373.0491173.003399.0625 0 .0065051-.001995.0212067.002689.03125 0 .000495-.000484.0308104-.028637.03125-.03125-.0001024-.001213-.0013533-.024717 0-.03125-.0027339-.000485-.0291305-.030711-.03125-.03125-.002223-.004041.0016843-.059283 0-.0625.0003506-.003044-.0004885-.028188 0-.03125.0004596-.001272-.0010052-.029457 0-.03125.0035264-.004982.028178-.026776.03125-.03125.0064981-.011442.0239933-.05139.03125-.0625.0003424-.0025-.0008896-.030021 0-.03125.0024429-.001866.028376.001986.03125 0 .0055963-.006047.0252361-.025154.03125-.03125.0128581-.012287.0479956-.050026.0625-.0625.0306406-.025129.0879276-.067925.125-.09375 1.1403637-.766751 5.0500436-1.815696 9.71875-2.53125 3.0645864-.469696 5.8420486-.723236 7.75-.71875h.03125l3.9375-.65625c-.148317-.076623-.336904-.163225-.5625-.21875-.079156-.019482-.162009-.045746-.25-.0625-.727388-.138503-1.775188-.203065-3.03125-.1875z" fill="url(#radialGradient5135)"/>
    </g>
    <g transform="matrix(.83119 .00881714 -.02170209 .791633 28.42756 83.23386)">
      <path d="m4.53125 19.375c-5.48029408.105588-10.9206311 1.564984-13.75 3.09375-3.307632 1.78718-2.186362 5.681881.3125 5.9375 2.347865-2.281088 7.4837065-2.192396 11.272805-3.248435l10.727195-1.157815v-.03125c.537372-1.527293-.27837-3.560434-2.03125-3.96875-2.0658177-.481212-4.3029986-.667931-6.53125-.625z" fill="#b9bcbf" fill-rule="evenodd"/>
      <path d="m3.84375 19.34375c-5.2317833.210663-10.3574988 1.600932-13.0625 3.0625-3.307631 1.78718-2.186361 5.681882.3125 5.9375 3.5466886-2.485766 7.3614394-2.784445 11.0502136-3.150745l10.9497864-1.224255c.57031-1.532161-.229512-3.618833-2-4.03125-2.2891493-.533234-4.784447-.693028-7.25-.59375z" fill="url(#radialGradient5129)" fill-rule="evenodd"/>
      <path d="m7.9375 24.53125h1.71875c-.4632495-.008226-.9885849-.023846-1.5625 0-.0557973.002318-.0994902-.002634-.15625 0z" fill="url(#linearGradient5131)"/>
      <path d="m17.502903 36.414398a11.576287 2.8993874 0 1 1 -23.1525746 0 11.576287 2.8993874 0 1 1 23.1525746 0z" fill="url(#radialGradient5059)" transform="matrix(.62692 -.10052 .107909 .933054 -7.608491 -10.46366)"/>
      <path d="m-5.0768942 26.584501c-.4495561.128024-.8640628.24295-1.3214715.404596 1.8497292.108564 3.6355297.00601 5.3905964-.205367-1.3735514.033608-3.7665849.02847-4.0691249-.199229z" fill="#c4c8cb" fill-rule="evenodd"/>
      <path d="m9.4375 23.46875c-2.093437.025942-4.8082779.268617-7.75.71875-5.8126689.889436-10.5722377 2.35432-11.40625 3.40625-.0315375.042849-.0756658.083544-.09375.125-.0004175.002549.0004031.028221 0 .03125-.0004328.002551.0004614.028214 0 .03125-.0009882.004305.0008316.026964 0 .03125-.0006739.004269.000516.026997 0 .03125-.0001785.002117.0011592.025152 0 .03125-.0004774.002555-.0306105.028194-.03125.03125-.000487.002556.0006796.028188 0 .03125.0016085.003062.0292051.027853.03125.03125.0015796.003068-.0019265.027829 0 .03125-.000526.002564.0008372.028158 0 .03125.0020154.003838.027786.024333.03125.03125.005197.001556.0299653-.000183.03125 0 .002849.00377-.0035043.02737 0 .03125.0242208.023641.0658465.043084.09375.0625.2668322.171113.8329333.245777 1.09375.21875.0165475-.002373.0491173.003399.0625 0 .0065051-.001995.0212067.002689.03125 0 .000495-.000484.0308104-.028637.03125-.03125-.0001024-.001213-.0013533-.024717 0-.03125-.0027339-.000485-.0291305-.030711-.03125-.03125-.002223-.004041.0016843-.059283 0-.0625.0003506-.003044-.0004885-.028188 0-.03125.0004596-.001272-.0010052-.029457 0-.03125.0035264-.004982.028178-.026776.03125-.03125.0064981-.011442.0239933-.05139.03125-.0625.0003424-.0025-.0008896-.030021 0-.03125.0024429-.001866.028376.001986.03125 0 .0055963-.006047.0252361-.025154.03125-.03125.0128581-.012287.0479956-.050026.0625-.0625.0306406-.025129.0879276-.067925.125-.09375 1.1403637-.766751 5.0500436-1.815696 9.71875-2.53125 3.0645864-.469696 5.8420486-.723236 7.75-.71875h.03125l3.9375-.65625c-.148317-.076623-.336904-.163225-.5625-.21875-.079156-.019482-.162009-.045746-.25-.0625-.727388-.138503-1.775188-.203065-3.03125-.1875z" fill="url(#radialGradient5135)"/>
    </g>
    <g fill="url(#radialGradient5165)">
      <path d="m26.34515 38.037304a4.7900271 2.5447018 0 1 1 -9.580055 0 4.7900271 2.5447018 0 1 1 9.580055 0z" opacity=".614754" transform="translate(3.90782 .22409)"/>
      <path d="m26.34515 38.037304a4.7900271 2.5447018 0 1 1 -9.580055 0 4.7900271 2.5447018 0 1 1 9.580055 0z" opacity=".614754" transform="translate(6.29909 22.34336)"/>
      <path d="m26.34515 38.037304a4.7900271 2.5447018 0 1 1 -9.580055 0 4.7900271 2.5447018 0 1 1 9.580055 0z" opacity=".614754" transform="translate(9.68673 43.66554)"/>
      <path d="m26.34515 38.037304a4.7900271 2.5447018 0 1 1 -9.580055 0 4.7900271 2.5447018 0 1 1 9.580055 0z" opacity=".614754" transform="translate(13.27364 65.38627)"/>
    </g>
    <path d="m41.628139 27.974389c2.787685.921581 4.976381 2.223279 6.566096 3.905099 1.612693 1.681861 2.603366 3.513454 2.972022 5.494785.391628 1.958322.172759 3.951187-.65661 5.978602-.806394 2.027433-2.223287 3.859026-4.250683 5.494785-.78335.622054-1.670348 1.186507-2.660996 1.693361-.967659.483819-1.969852.910039-3.00658 1.278661-1.036773.345584-2.085044.599012-3.144814.760285-1.03677.184311-2.004404.253427-2.902906.20735-.875494-.023039-1.658817-.161273-2.349971-.414701-.668142-.276467-1.151959-.691167-1.451452-1.244102-.184324-.299504-.287999-.668127-.311026-1.105869-.000012-.437736.080624-.817878.241909-1.140427.230377-.575969.610519-1.336253 1.140427-2.280854.529882-.944589 1.140413-1.98134 1.831595-3.110255.691152-1.128898 1.428397-2.292363 2.211737-3.490398.783306-1.22105 1.555109-2.384515 2.315413-3.490398.760264-1.128891 1.462951-2.154122 2.108062-3.075697.668106-.921538 1.22104-1.658783 1.658803-2.211738.115171-.161251.12669-.276445.034558-.345584-.06914-.092134-.195854-.138212-.380142-.138233-.161295.000021-.345607.046099-.552934.138233-.207373.069139-.368645.172814-.483818.311026-.391683.43776-.852462 1.025253-1.382336 1.762478-.529915.714226-1.094368 1.520587-1.693361 2.419088-.599031.898534-1.221081 1.877688-1.866153 2.937463-.645107 1.036765-1.278677 2.096555-1.900712 3.179373-.622066 1.0598-1.221077 2.13111-1.797037 3.213931-.575986 1.059797-1.094361 2.061989-1.555128 3.00658-.046089.09216-.057609.138238-.034558.138234.046066.000004.023027.000004-.069117 0-1.013723.069121-1.29019.679652-.829401 1.831594.046067.161276.069106.264951.069117.311026.023027.023041.011508.092158-.034559.20735-.184322.529897-.380153 1.094351-.587493 1.693362-.20736.575973.264938.760284.380143.414701.138222-.345584.276456-.702687.414701-1.071311.115183-.207349.195819-.299504.241908-.276467.069106.000002.149742.092157.241909.276467.39165.921558.990661 1.566647 1.797037 1.93527.806348.391661 1.716385.587492 2.730113.587493 1.036735-.000001 2.131083-.149754 3.283047-.449259 1.174965-.299507 2.303872-.668129 3.386723-1.105869 1.082806-.437739 2.084998-.910036 3.006581-1.416894.944569-.506854 1.704853-.967632 2.280854-1.382336 1.566617-1.151942 2.833757-2.407563 3.801423-3.766865.990641-1.382327 1.670289-2.787701 2.038946-4.216124.368588-1.45144.437705-2.891372.20735-4.319799-.230423-1.451436-.783357-2.810732-1.658803-4.077891-.852472-1.29016-2.027456-2.465144-3.524956-3.524956-1.474519-1.059767-3.283074-1.935246-5.425668-2.626438-.898541-.276442-2.050487-.495311-3.45584-.65661-1.405394-.161246-2.914442-.218843-4.52715-.172792-1.5897.046104-3.213943.207377-4.872734.483818-1.635773.276492-3.144821.725751-4.527149 1.347777-1.382341.599036-2.568845 1.382359-3.559515 2.349971-.967637.967656-1.578168 2.14264-1.831595 3.524956-.253429 1.45147-.01152 2.902921.725726 4.354358.760283 1.451465 1.923747 2.937475 3.490398 4.458033.460773.41471.74876.564463.86396.449259.138228-.138224-.000006-.43773-.414701-.898518-.437744-.483807-.933081-1.05978-1.486011-1.72792-.529899-.691155-1.002196-1.4284-1.416894-2.211737-.414703-.806348-.714209-1.647268-.898518-2.522763-.161274-.898501-.080638-1.797018.241909-2.695555.414698-1.198004 1.094346-2.188677 2.038945-2.972022.96763-.806339 2.085017-1.439909 3.352164-1.900712 1.290172-.483792 2.672506-.806337 4.147008-.967635 1.474478-.184286 2.925929-.253402 4.354358-.20735 1.451435.023064 2.81073.138259 4.07789.345584 1.290159.184336 2.372988.426245 3.248489.725726m24.436565 13.754242c.115179-.161262.126698-.264937.034559-.311026-.069133-.046067-.161289.01153-.276467.172792-.276483.253439-.668144.506867-1.174986.760285-.483831.253438-.967648.403191-1.451452.449259-.368636.046087-.817895.080646-1.347778.103675-.506868.023048-1.059801.046087-1.658803.069117-.599022.000009-1.232591.000009-1.900711 0-.645098.000009-1.278668.000009-1.900712 0 1.151939-.184302 2.17717-.495327 3.075697-.933077.898508-.437729 1.520558-.979143 1.866153-1.624244.207339-.345572.287975-.725714.241909-1.140428-.02305-.414687-.138245-.783309-.345584-1.105868-.184322-.34557-.44927-.598998-.794843-.760285-.345594-.184296-.737255-.207335-1.174985-.069117-.806371.32256-1.716408.887013-2.730114 1.693362-.990679.783336-1.946794 1.727931-2.868346 2.833788-.898522 1.082839-1.670325 2.257824-2.315413 3.524956-.622052 1.267147-.967635 2.534287-1.036752 3.801424-.023039.460781.080636.898521.311026 1.313219.230388.391663.518375.737247.86396 1.036752.345582.299506.725724.529896 1.140427.691168.414697.138233.794839.172792 1.140427.103675.414696-.069117.840916-.184311 1.27866-.345584.460773-.184311.898513-.380142 1.313219-.587493.414694-.207349.794836-.414699 1.140427-.622051.345577-.230387.645082-.437738.898519-.622051.184303-.115192.23038-.207348.138233-.276467-.092164-.092153-.230397-.080634-.4147.034558-.622059.345586-1.370824.67965-2.246296 1.002194-.852446.322546-1.658807.541415-2.419088.656609-.299509.02304-.599015.01152-.898518-.034558-.27647-.069116-.529898-.184311-.760285-.345584-.207352-.18431-.380144-.437738-.518376-.760285-.115196-.322543-.161273-.737243-.138233-1.244102.023037-.552931.126713-1.082826.311025-1.589686.18431-.52989.40318-1.036746.65661-1.52057.253426-.48381.518373-.933069.794843-1.347777.299503-.437732.57597-.829393.829401-1.174986.691164.000009 1.497526.000009 2.419088 0 .92155.000009 1.843106-.01151 2.764672-.034558.921547-.02303 1.762467-.046069 2.522762-.069117.783312-.02303 1.370804-.069107 1.762479-.138233.645076-.092147 1.221049-.311016 1.727919-.65661.52988-.368613.910022-.679638 1.140427-.933076m-5.563901-1.624245c-.276478.414713-.65662.794855-1.140427 1.140427-.460788.345595-.979163.65662-1.555128.933077-.575981.253438-1.186512.449269-1.831595.587492-.645095.138243-1.267146.20736-1.866153.207351.783318-.85243 1.612719-1.670312 2.488204-2.453646.875472-.80635 1.739431-1.45144 2.59188-1.93527.345574-.184298.64508-.276454.898518-.276468.276457-.023024.483807.046092.622051.207351.138223.138247.19582.345597.172792.622051-.02305.27648-.149764.599025-.380142.967635m-.977895 11.818971c1.451449-.852439 3.190887-2.131098 5.218318-3.835982 1.013705-.875474 1.900703-1.681836 2.660996-2.419087.783313-.737239 1.451442-1.439925 2.004387-2.108063.046066-.046069.080625-.069107.103675-.069116.1843.000009.195819.126723.034559.380142-.391674.59902-.783335 1.255629-1.174986 1.969829-.368633.714212-.748775 1.486016-1.140427 2.315412-.322554.691172-.645099 1.486014-.967635 2.384529-.322553.89852-.622059 1.797037-.898518 2.695555-.276475.921556-.506864 1.785515-.691168 2.59188-.161279.806358-.253435 1.451448-.276467 1.93527-.023046.599006.046071 1.128901.20735 1.589686.184305.48381.49533.852433.933077 1.105869.368615.25342.783315.46077 1.244102.622051.460769.184303.967625.276458 1.52057.276467.368611-.000009.714195-.034567 1.036751-.103675.322533-.046087.645078-.126723.967635-.241909.645077-.230398 1.347764-.59902 2.108063-1.105868.783308-.506864 1.658786-1.151953 2.626438-1.935271 1.036733-.875484 1.923731-1.750962 2.660996-2.626438.760264-.875481 1.405353-1.704882 1.93527-2.488204.092134-.161273.138212-.287987.138234-.380142-.000022-.046078-.011542-.080637-.034559-.103676-.069138 0-.207372.115195-.4147.345584-.552956.714206-1.209565 1.47449-1.969829 2.280854-.737265.806359-1.578185 1.589682-2.522763 2.349971-1.958324 1.566641-3.548009 2.557314-4.769058 2.972022-.806374.276459-1.624256.414693-2.453646.414701-.829411-.000008-1.48602-.195839-1.969829-.587493-.483825-.36863-.725733-.944603-.725726-1.727919-.000007-.115201-.000007-.230396 0-.345584-.000007-.092162.011512-.195837.034558-.311026.092149-.668134.27646-1.486015.552935-2.453646.276459-.967637.599003-1.981349.967635-3.041139.391652-1.082828.817872-2.142618 1.27866-3.179372.460768-1.059787.933066-1.992862 1.416894-2.79923.622039-1.036745 1.255609-2.050457 1.900712-3.041139.668115-1.013703 1.336243-2.038934 2.004387-3.075697.023024-.046066-.000015-.126702-.069117-.241909-.069132-.115182-.149768-.172779-.241908-.172792-.092171.000013-.161288.023052-.207351.069117-.184326.230401-.483832.380154-.898518.449259-.046092.023051-.264962.011531-.65661-.034558-.27648-.092144-.552947-.161261-.829401-.207351-.27648-.069104-.552946-.103663-.829402-.103675-.253439.000012-.506867.034571-.760284.103675-.2304.04609-.44927.103688-.65661.172792-.898527.368635-1.866162.921569-2.902905 1.658803-1.036758.714217-2.142626 1.658812-3.317606 2.833789-2.557323 2.557326-3.835982 4.653866-3.835982 6.289628 0 .806363.287986 1.209544.86396 1.209543.230388.000001.495335-.092155.794843-.276467m.552934-2.937463c.322543-.737242.748762-1.509045 1.278661-2.315413.55293-.806356 1.221058-1.647276 2.004387-2.522763 1.658796-1.820065 3.029611-2.868336 4.112449-3.144814.276457-.069105.541405-.103663.794843-.103675.460768.000012.84091.115206 1.140427.345584.299494.207361.449247.43775.449259.691168-.000012.092166-.03457.172802-.103675.241909-1.635774 1.958317-3.167862 3.628638-4.596266 5.010967-1.42842 1.359301-2.787716 2.442129-4.077891 3.248489-.184315.115197-.357107.172794-.518376.172792-.414703.000002-.622053-.276465-.622051-.829401-.000002-.276465.046075-.541412.138233-.794843m8.904187 3.835981c.299507-.184311.564454-.334064.794843-.449259.230389-.092155.43774-.172791.622052-.241908.18431-.092156.276466-.172792.276467-.241909 2.672512-4.377392 5.713648-7.510683 9.123416-9.399884.783313-.41469 1.405363-.518365 1.866153-.311025.069105.046088.161261.046088.276468 0 .115182-.069107.218857-.149743.311025-.241909.115182-.115184.207338-.230379.276467-.345584.092143-.138223.138221-.241898.138234-.311026-.000013-.023027-.011533-.046066-.034559-.069116-.345596-.161262-.875491-.230378-1.589686-.207351-.829412.345595-1.981357 1.117399-3.455839 2.315413-1.42842 1.151954-2.591885 2.269341-3.490398 3.352164-.069121.092161-.207355.184317-.414701.276467-.253432.092161-.380146.080642-.380142-.034558-.000004-.09215.034554-.207345.103675-.345584.253424-.50685.633566-1.128901 1.140427-1.866153.52989-.760277 1.16346-1.647275 1.900712-2.660997.115187-.115184.126707-.241898.034558-.380142-.046085-.115184-.13824-.172781-.276467-.172792-.069123.000011-.115201.02305-.138234.069117-1.451457.875489-2.315416 1.359306-2.591879 1.451452-.023043.069126-.023043.149762 0 .241909.069113.207359.103671.334073.103675.380142-.000004.230398-.069121.518384-.20735.86396-.806366 1.86616-2.326934 4.527153-4.561709 7.98299-.069116.115194-.080635.230388-.034558.345583.02304.138233.092156.138233.20735 0m-33.595732 14.606925c2.787685.921581 4.976381 2.223279 6.566096 3.905099 1.612693 1.681861 2.603366 3.513454 2.972022 5.494785.391628 1.958322.172759 3.951188-.65661 5.978602-.806394 2.027433-2.223287 3.859026-4.250683 5.494785-.78335.622054-1.670348 1.186507-2.660996 1.693362-.967659.483818-1.969852.910038-3.00658 1.27866-1.036773.345584-2.085044.599012-3.144814.760285-1.03677.184311-2.004404.253428-2.902906.20735-.875494-.023039-1.658817-.161272-2.349971-.4147-.668142-.276467-1.151959-.691168-1.451452-1.244103-.184324-.299504-.287999-.668127-.311026-1.105868-.000012-.437737.080624-.817879.241909-1.140427.230377-.57597.610519-1.336254 1.140427-2.280854.529882-.94459 1.140413-1.981341 1.831595-3.110256.691152-1.128898 1.428397-2.292362 2.211737-3.490398.783306-1.22105 1.555109-2.384515 2.315413-3.490398.760264-1.128891 1.462951-2.154122 2.108062-3.075697.668106-.921537 1.22104-1.658782 1.658803-2.211737.115171-.161252.12669-.276446.034558-.345584-.06914-.092135-.195854-.138212-.380142-.138234-.161295.000022-.345607.046099-.552934.138234-.207373.069138-.368645.172813-.483818.311025-.391683.437761-.852462 1.025253-1.382336 1.762478-.529915.714226-1.094368 1.520588-1.693361 2.419088-.599031.898534-1.221081 1.877688-1.866153 2.937464-.645107 1.036765-1.278677 2.096554-1.900712 3.179372-.622066 1.059801-1.221077 2.13111-1.797037 3.213931-.575986 1.059797-1.094361 2.06199-1.555128 3.00658-.046089.09216-.057609.138238-.034558.138234.046066.000004.023027.000004-.069117 0-1.013723.069121-1.29019.679652-.829401 1.831595.046067.161275.069106.26495.069117.311025.023027.023042.011508.092158-.034559.207351-.184322.529897-.380153 1.09435-.587493 1.693361-.20736.575973-.357113 1.094349-.449259 1.555128-.092165.483816-.057607.714205.103676.691168.184301-.000002.311015-.195833.380142-.587493.115184-.483818.230379-.898519.345584-1.244102.138222-.345584.276456-.702687.414701-1.07131.115183-.20735.195819-.299505.241908-.276468.069106.000002.149742.092157.241909.276468.39165.921557.990661 1.566646 1.797037 1.93527.806348.39166 1.716385.587491 2.730113.587492 1.036735-.000001 2.131083-.149754 3.283047-.449259 1.174965-.299506 2.303872-.668129 3.386723-1.105868 1.082806-.437739 2.084998-.910037 3.006581-1.416895.944569-.506854 1.704853-.967632 2.280854-1.382335 1.566617-1.151943 2.833757-2.407563 3.801423-3.766866.990641-1.382327 1.670289-2.787701 2.038946-4.216124.368588-1.45144.437705-2.891372.20735-4.319799-.230423-1.451436-.783357-2.810732-1.658803-4.077891-.852472-1.290159-2.027456-2.465144-3.524956-3.524956-1.474519-1.059767-3.283074-1.935246-5.425668-2.626438-.898541-.276442-2.050487-.495311-3.45584-.65661-1.405394-.161246-2.914442-.218843-4.52715-.172792-1.5897.046104-3.213943.207377-4.872734.483818-1.635773.276493-3.144821.725751-4.527149 1.347777-1.382341.599036-2.568845 1.382359-3.559515 2.349971-.967637.967656-1.578168 2.142641-1.831595 3.524956-.253429 1.45147-.01152 2.902921.725726 4.354358.760283 1.451466 1.923747 2.937475 3.490398 4.458033.460773.41471.74876.564463.86396.449259.138228-.138224-.000006-.437729-.414701-.898518-.437744-.483807-.933081-1.059779-1.486011-1.72792-.529899-.691155-1.002196-1.4284-1.416894-2.211737-.414703-.806347-.714209-1.647268-.898518-2.522763-.161274-.8985-.080638-1.797018.241909-2.695555.414698-1.198003 1.094346-2.188676 2.038945-2.972022.96763-.806339 2.085017-1.439909 3.352164-1.900711 1.290172-.483793 2.672506-.806338 4.147008-.967635 1.474478-.184286 2.925929-.253403 4.354358-.207351 1.451435.023065 2.81073.138259 4.07789.345584 1.290159.184336 2.372988.426245 3.248489.725726m17.656101 19.905636c.138223-.11519.241898-.241904.311026-.380142.069106-.138229.092145-.241904.069117-.311026-.000011-.069111-.046089-.09215-.138234-.069117-.092166.023045-.241919.138239-.449259.345584-.322555.299511-.783333.668134-1.382336 1.105869-.59902.437743-1.24411.875482-1.93527 1.313219-.691174.437742-1.370822.829403-2.038945 1.174986-.645095.345584-1.186509.564454-1.624245.656609-.230392.046079-.472301.080637-.725726.103675-.230392.000001-.426223-.069116-.587493-.20735-.161274-.138233-.24191-.357102-.241909-.65661.023038-.322543.17279-.771802.449259-1.347777.276465-.57597.449257-.956112.518376-1.140427.092153-.184307.149751-.311021.172792-.380142.023036-.069113.046075-.13823.069117-.207351.046075-.092151.16127-.32254.345584-.691168.184308-.368617.483814-.94459.898518-1.72792.437735-.806354 1.048267-1.94678 1.831595-3.421281.207345-.41469.264942-.748754.172792-1.002193-.092161-.253417-.241914-.414689-.449259-.483818-.207356-.069105-.426225-.046066-.656609.069117-.230394.092168-.368628.276479-.414701.552934-.023044.092167-.126719.345595-.311026.760285-.184315.391672-.414704.875489-.691168 1.451453-.27647.552943-.575976 1.174993-.898518 1.866153-.322547.668136-.622053 1.336264-.898518 2.004387-.276469.645095-.506858 1.267145-.691168 1.866153-.184312.575976-.276468 1.048274-.276467 1.416895-.000001.414702.103674.771805.311025 1.07131.230388.276468.483816.506857.760285.691168.299504.161272.58749.264947.86396.311025.299503.046078.518373.046078.656609 0 .506853-.230389 1.105865-.552934 1.797037-.967635.691162-.414699 1.37081-.852439 2.038945-1.313219.69116-.483815 1.313211-.944593 1.866154-1.382336.575963-.437735 1.002183-.794838 1.27866-1.07131m-2.177179-10.678544c.069109-.207335-.011527-.403166-.241908-.587493-.207359-.207334-.437748-.28797-.691168-.241909-.322552.069133-.748772.380158-1.278661.933077-.529901.52991-.794848.95613-.794843 1.278661-.000005.299519.253423.49535.760285.587493.345577.069129.771797-.138221 1.27866-.622052.575966-.506842.89851-.9561.967635-1.347777m1.53839 14.721876c1.45145-.852439 3.190887-2.131098 5.218318-3.835981 1.013705-.875475 1.900703-1.681836 2.660997-2.419088.783313-.737238 1.451441-1.439925 2.004387-2.108062.046066-.046069.080624-.069108.103675-.069117.184299.000009.195819.126723.034558.380142-.391673.59902-.783335 1.255629-1.174985 1.969829-.368634.714212-.748776 1.486016-1.140427 2.315412-.322555.691172-.645099 1.486014-.967635 2.38453-.322554.898519-.62206 1.797036-.898519 2.695554-.276474.921556-.506863 1.785515-.691168 2.591885-.161279.80635-.253435 1.45144-.276467 1.93527-.023045.599.046071 1.1289.207351 1.58968.184304.48381.495329.85243.933076 1.10587.368615.253418.783315.460768 1.244102.622048.460769.1843.967625.27646 1.52057.27647.368612-.00001.714195-.03457 1.036752-.10368.322533-.04608.645077-.12672.967635-.24191.645077-.23039 1.347763-.599018 2.108062-1.105858.783308-.50687 1.658786-1.15196 2.626438-1.93527 1.036733-.87549 1.923731-1.75097 2.660996-2.626442.760264-.875482 1.405354-1.704883 1.935271-2.488205.092133-.161273.138211-.287987.138233-.380142-.000022-.046078-.011541-.080637-.034558-.103675-.069139 0-.207373.115194-.414701.345584-.552955.714205-1.209564 1.474489-1.969829 2.280854-.737264.806356-1.578184 1.589686-2.522762 2.349966-1.958325 1.56665-3.548009 2.55732-4.769059 2.97203-.806374.276458-1.624255.414688-2.453646.414698-.829411-.00001-1.48602-.195838-1.969829-.587498-.483825-.36863-.725733-.9446-.725726-1.72792-.000007-.1152-.000007-.23039 0-.34558-.000007-.09216.011512-.19584.034559-.31102.092148-.66814.276459-1.48602.552934-2.453651.276459-.967637.599004-1.981349.967635-3.041139.391653-1.082828.817872-2.142618 1.278661-3.179372.460768-1.059786.933065-1.992862 1.416894-2.79923.622039-1.036745 1.255609-2.050457 1.900712-3.041139.668114-1.013703 1.336243-2.038934 2.004386-3.075697.023024-.046066-.000015-.126702-.069116-.241909-.069132-.115182-.149769-.172779-.241909-.172792-.092171.000013-.161288.023052-.20735.069117-.184327.230402-.483832.380155-.898519.449259-.046092.023051-.264961.011532-.656609-.034558-.276481-.092144-.552947-.16126-.829402-.207351-.276479-.069104-.552946-.103662-.829401-.103675-.25344.000013-.506868.034571-.760285.103675-.2304.046091-.44927.103688-.656609.172792-.898528.368635-1.866162.921569-2.902906 1.658803-1.036758.714217-2.142625 1.658812-3.317606 2.833789-2.557322 2.557326-3.835982 4.653867-3.835982 6.289628 0 .806363.287987 1.209544.86396 1.209544.230388 0 .495336-.092156.794843-.276468m.552935-2.937463c.322542-.737242.748762-1.509045 1.27866-2.315413.55293-.806356 1.221059-1.647276 2.004387-2.522763 1.658796-1.820065 3.029611-2.868335 4.112449-3.144814.276457-.069105.541405-.103663.794844-.103675.460767.000012.840909.115206 1.140427.345584.299494.207362.449246.437751.449259.691168-.000013.092166-.034571.172802-.103675.241909-1.635775 1.958317-3.167862 3.628638-4.596267 5.010967-1.42842 1.359301-2.787715 2.44213-4.077891 3.248489-.184314.115197-.357106.172794-.518376.172792-.414703.000002-.622053-.276465-.622051-.829401-.000002-.276464.046076-.541412.138234-.794843m8.904187 3.835982c.299506-.184312.564454-.334065.794843-.449259.230389-.092156.437739-.172792.622051-.241909.18431-.092156.276466-.172792.276467-.241909 2.672512-4.377392 5.713648-7.510683 9.123416-9.399884.783313-.41469 1.405364-.518365 1.866154-.311025.069104.046088.16126.046088.276467 0 .115182-.069107.218857-.149743.311025-.241909.115182-.115184.207338-.230378.276468-.345584.092142-.138222.13822-.241898.138233-.311025-.000013-.023028-.011532-.046067-.034558-.069117-.345597-.161261-.875492-.230378-1.589686-.207351-.829412.345595-1.981358 1.117399-3.45584 2.315413-1.42842 1.151954-2.591885 2.269341-3.490398 3.352164-.069121.092162-.207354.184317-.414701.276467-.253432.092162-.380146.080642-.380142-.034558-.000004-.09215.034555-.207345.103675-.345584.253424-.50685.633566-1.128901 1.140427-1.866153.52989-.760276 1.16346-1.647274 1.900712-2.660997.115188-.115184.126707-.241898.034558-.380142-.046084-.115184-.13824-.172781-.276467-.172792-.069123.000011-.115201.02305-.138233.069117-1.451458.875489-2.315417 1.359306-2.59188 1.451452-.023043.069126-.023043.149763 0 .241909.069113.207359.103671.334073.103675.380143-.000004.230397-.06912.518384-.20735.863959-.806366 1.86616-2.326933 4.527154-4.561708 7.98299-.069116.115194-.080636.230389-.034559.345584.02304.138233.092157.138233.207351 0m19.028715-.449259c-3.455845.668128-6.819525 1.486009-10.091051 2.453646-3.294563.967628-6.543049 2.073498-9.745468 3.317608-9.284669 3.663178-14.814006 7.556748-16.588029 11.680738-.345557.82938-.518349 1.69334-.518376 2.59187.000027 2.71858 1.393881 5.17222 4.181566 7.36094 2.764692 2.21171 5.805828 3.2139 9.123416 3.00658 9.676355-.62208 17.912765-10.62096 24.709253-29.996682l3.916093-.450464c.526403-.060551 1.002172.01152 1.416894.034558.437717.000001.817859.01152 1.140427.034559 1.128883.092156 1.693337.552934 1.693361 1.382335-.000024.990672-.679672 2.131098-2.038945 3.421283-.230412.16127-.345606.31102-.345584.44926-.000022.02303.023017.03455.069117.03456.138211-.00001.299483-.09216.483817-.27647 1.198001-.9446 1.946765-1.704885 2.246296-2.280855.138208-.207353.207325-.460781.20735-.760285-.000025-.299507-.069142-.587494-.20735-.86396-.138259-.276467-.32257-.529895-.552934-.760284-.207375-.23039-.449284-.42622-.725727-.587493-.253451-.161272-.506879-.264947-.760284-.311026-.622074-.138232-1.511259-.38273-2.626438-.20735l-3.743301.588698c.990662-2.972019 1.716388-5.287429 2.177179-6.946237.115181-.207344.207337-.368616.276467-.483818.092142-.138226.184298-.26494.276467-.380142.046065-.230382-.034572-.449251-.241909-.65661-.184324-.207341-.47231-.299497-.86396-.276467-.161284.023048-.322557.115203-.483817.276467-.138245.138242-.264959.311034-.380143.518376-.322556.299514-.760295.656617-1.313219 1.07131-.529904.414708-1.174994.887005-1.93527 1.416895-.967642.668133-1.831601 1.221067-2.591879 1.658802-.737251.414705-1.370821.72573-1.900712.933077-.184315.06912-.391665.06912-.622051 0-.184314-.069114-.27647-.218866-.276468-.449259-.000002-.115191.034556-.264944.103676-.449259.437736-.875475 1.128903-2.004381 2.073503-3.386723 1.128902-1.589677 1.935264-2.488195 2.419088-2.695555-.046085-.391651-.230396-.575962-.552934-.552934-.184318.023049-.691174.21888-1.52057.587493-.783328.345593-1.221067.599021-1.313219.760284-.06912.138243-.092159.357113-.069116.65661.046074.299514.046074.495345 0 .587493-1.958311 3.547999-3.006582 5.552384-3.144814 6.01316-.046079.161275-.000001.322547.138233.483818.138233.161274.311025.24191.518376.241909.069116.000001.172791-.023038.311026-.069117 1.313216-.506855 3.075692-1.509047 5.287434-3.00658 1.681834-1.128903 3.087207-2.188692 4.216124-3.179373-.046088.322552-.126725.748772-.241908 1.278661-.092167.529901-.2304 1.18651-.414701 1.969828-.414711 1.797039-.806372 3.202413-1.174986 4.216125m-35.560588 18.385062c1.520594-3.82448 6.03622-7.46462 13.546891-10.920448 6.289634-2.87987 13.581448-5.172243 21.875464-6.877122-1.013721 3.087212-2.165667 6.013152-3.45584 8.77783-1.267145 2.7877-2.672519 5.43717-4.216124 7.94843-5.068561 8.10968-10.36751 12.2682-15.896862 12.47558-3.202393.13821-6.082257-.77183-8.639599-2.73011-2.442101-1.88922-3.663163-4.04336-3.66319-6.46242.000027-.39168.046105-.77182.138234-1.14043.069143-.3456.172818-.7027.311026-1.07131" transform="matrix(.965926 -.258819 .258819 .965926 0 0)"/>
  </g>
</svg>
