<?xml version="1.0" encoding="UTF-8" standalone="no"?>
<svg xmlns="http://www.w3.org/2000/svg" xmlns:xlink="http://www.w3.org/1999/xlink" width="128" height="128">
  <defs>
    <path id="G" fill="#fff" fill-rule="evenodd" d="m-44.479593 20.950532 8.590371-.639522-4.820752-7.138894 6.991682 5.031882.895883-8.567429 2.121508 8.348812 6.193323-5.98717-3.741344 7.75924 8.59284-.605446-7.853579 3.539033 6.97167 5.059572-8.291037-2.337126 2.088379 8.35716-4.849027-7.119719-3.772087 7.744341.861896-8.570916-7.867553 3.507858 6.16953-6.011686z" filter="url(#a)"/>
    <path id="I" d="m-44.479593 20.950532 8.590371-.639522-4.820752-7.138894 6.991682 5.031882.895883-8.567429 2.121508 8.348812 6.193323-5.98717-3.741344 7.75924 8.59284-.605446-7.853579 3.539033 6.97167 5.059572-8.291037-2.337126 2.088379 8.35716-4.849027-7.119719-3.772087 7.744341.861896-8.570916-7.867553 3.507858 6.16953-6.011686z" filter="url(#a)"/>
  </defs>
  <defs>
    <linearGradient id="d">
      <stop offset="0" stop-color="#fff"/>
      <stop offset="1" stop-color="#fff" stop-opacity="0"/>
    </linearGradient>
    <linearGradient id="b">
      <stop offset=".183432" stop-color="#2e3436"/>
      <stop offset=".5392354" stop-color="#5c605e"/>
      <stop offset=".8359358" stop-color="#7c7f7a"/>
      <stop offset="1" stop-color="#888a85"/>
    </linearGradient>
    <linearGradient xlink:href="#b" id="f" x1="111.583496" x2="120.408691" y1="62.621582" y2="62.621582" gradientUnits="userSpaceOnUse"/>
    <linearGradient id="c">
      <stop offset=".183432" stop-color="#555753"/>
      <stop offset=".227065" stop-color="#5c5e5a"/>
      <stop offset=".5828972" stop-color="#8f918b"/>
      <stop offset=".851515" stop-color="#aeb1aa"/>
      <stop offset="1" stop-color="#babdb6"/>
    </linearGradient>
    <linearGradient xlink:href="#c" id="g" x1="13.746582" x2="20.19043" y1="43.694336" y2="43.694336" gradientUnits="userSpaceOnUse"/>
    <linearGradient xlink:href="#b" id="h" x1="114.98584" x2="128.000488" y1="83.816406" y2="83.816406" gradientUnits="userSpaceOnUse"/>
    <linearGradient xlink:href="#c" id="i" x1=".000488" x2="11.767578" y1="63.398438" y2="63.398438" gradientUnits="userSpaceOnUse"/>
    <linearGradient xlink:href="#c" id="j" x1="102.82666" x2="117.675293" y1="106.59668" y2="106.59668" gradientUnits="userSpaceOnUse"/>
    <linearGradient xlink:href="#c" id="k" x1="86.366699" x2="107.905762" y1="107.231445" y2="107.231445" gradientUnits="userSpaceOnUse"/>
    <linearGradient id="l" x1="5.962891" x2="20.277344" y1="91.194336" y2="91.194336" gradientUnits="userSpaceOnUse">
      <stop offset=".183432" stop-color="#555753"/>
      <stop offset=".277781" stop-color="#5c5e5a"/>
      <stop offset=".7422958" stop-color="#7c7e79"/>
      <stop offset="1" stop-color="#888a85"/>
    </linearGradient>
    <linearGradient xlink:href="#c" id="m" x1="18.756348" x2="35.310547" y1="96.170898" y2="96.170898" gradientUnits="userSpaceOnUse"/>
    <linearGradient xlink:href="#c" id="n" x1="49.718262" x2="75.080566" y1="111.513672" y2="111.513672" gradientUnits="userSpaceOnUse"/>
    <linearGradient xlink:href="#c" id="o" x1="73.483887" x2="78.916512" y1="113.162109" y2="125.338867" gradientUnits="userSpaceOnUse"/>
    <linearGradient xlink:href="#c" id="p" x1="77.078613" x2="91.842285" y1="124.479492" y2="124.479492" gradientUnits="userSpaceOnUse"/>
    <linearGradient xlink:href="#c" id="q" x1="31.115723" x2="42.230469" y1="117.553711" y2="117.553711" gradientUnits="userSpaceOnUse"/>
    <linearGradient xlink:href="#b" id="r" x1="41.891113" x2="50.731445" y1="114.730469" y2="114.730469" gradientUnits="userSpaceOnUse"/>
    <linearGradient id="s" x1="30.962403" x2="105.868096" y1="36.207324" y2="89.055903" gradientUnits="userSpaceOnUse">
      <stop offset=".183432" stop-color="#555753"/>
      <stop offset=".2394944" stop-color="#5c5e5a"/>
      <stop offset=".5155104" stop-color="#7c7e79"/>
      <stop offset=".668639" stop-color="#888a85"/>
      <stop offset="1" stop-color="#2e3436"/>
    </linearGradient>
    <linearGradient id="v" x1="63.823132" x2="65.341179" y1="101.13515" y2="9.281225" gradientUnits="userSpaceOnUse">
      <stop offset="0" stop-color="#33abff"/>
      <stop offset="1" stop-color="#69d7ff" stop-opacity=".291139"/>
    </linearGradient>
    <linearGradient xlink:href="#d" id="J" x1="175.00893" x2="176.72476" y1="86.783592" y2="24.259512" gradientUnits="userSpaceOnUse"/>
    <linearGradient id="L" x1="14.182419" x2="28.485842" y1="56.750642" y2="56.750642" gradientUnits="userSpaceOnUse">
      <stop offset="0" stop-color="#00b1ff"/>
      <stop offset="1" stop-color="#00b1ff" stop-opacity="0"/>
    </linearGradient>
    <linearGradient xlink:href="#d" id="P" x1="36.5" x2="30" y1="97.375" y2="94.125" gradientUnits="userSpaceOnUse"/>
    <linearGradient xlink:href="#d" id="N" x1="75.5" x2="69.5" y1="108.25" y2="109.5" gradientUnits="userSpaceOnUse"/>
    <linearGradient id="R" x1="104.1518" x2="108.33379" y1="100.688" y2="98.389908" gradientUnits="userSpaceOnUse">
      <stop offset="0" stop-color="#fff" stop-opacity="0"/>
      <stop offset="1" stop-color="#fff"/>
    </linearGradient>
    <linearGradient id="x" x1="49" x2="140.05567" y1="76.707722" y2="76.707722" gradientUnits="userSpaceOnUse">
      <stop offset="0" stop-color="#2385ff"/>
      <stop offset="1" stop-color="#00316e"/>
    </linearGradient>
    <filter id="a" width="1.477582" height="1.482443" x="-.238791" y="-.241221">
      <feGaussianBlur stdDeviation="2.4752452"/>
    </filter>
    <filter id="F" width="1.63736" height="1.710622" x="-.31868" y="-.355311">
      <feGaussianBlur stdDeviation="4.9658947"/>
    </filter>
    <filter id="e">
      <feGaussianBlur stdDeviation="2.1380273"/>
    </filter>
    <filter id="z" width="1.15144" height="1.262234" x="-.07572" y="-.131117">
      <feGaussianBlur stdDeviation="2.8728047"/>
    </filter>
    <filter id="w">
      <feGaussianBlur stdDeviation="3.7661096"/>
    </filter>
    <filter id="K">
      <feGaussianBlur stdDeviation=".35660638"/>
    </filter>
    <filter id="M" width="1.505387" height="1.157365" x="-.252693" y="-.078683">
      <feGaussianBlur stdDeviation="1.5059909"/>
    </filter>
    <filter id="Q" width="1.368842" height="1.129778" x="-.184421" y="-.064889">
      <feGaussianBlur stdDeviation=".365"/>
    </filter>
    <filter id="O" width="1.274759" height="1.147556" x="-.137379" y="-.073778">
      <feGaussianBlur stdDeviation=".415"/>
    </filter>
    <filter id="S" width="1.150503" height="1.265091" x="-.075252" y="-.132545">
      <feGaussianBlur stdDeviation=".4359799"/>
    </filter>
    <radialGradient id="E" cx="56.115723" cy="44.763672" r="19.593426" gradientTransform="matrix(.84775 0 0 1 5.189039 -3.323926)" gradientUnits="userSpaceOnUse">
      <stop offset="0" stop-color="#fff"/>
      <stop offset="1" stop-color="#9efaff"/>
    </radialGradient>
    <radialGradient id="u" cx="98.133789" cy="37.266406" r="104.478279" gradientUnits="userSpaceOnUse">
      <stop offset=".183432" stop-color="#babdb6"/>
      <stop offset=".3132166" stop-color="#d2d3d1"/>
      <stop offset=".39645" stop-color="#ddd"/>
      <stop offset=".4776049" stop-color="#d8d9d8"/>
      <stop offset=".5787593" stop-color="#caccc8"/>
      <stop offset=".662722" stop-color="#babdb6"/>
      <stop offset=".7758383" stop-color="#d6d7d3"/>
      <stop offset=".9199813" stop-color="#f4f4f3"/>
      <stop offset="1" stop-color="#fff"/>
    </radialGradient>
    <radialGradient id="t" cx="129.540039" cy="48.976855" r="144.167007" gradientUnits="userSpaceOnUse">
      <stop offset="0" stop-color="#eeeeec"/>
      <stop offset=".0460057" stop-color="#e9e9e7"/>
      <stop offset=".1034707" stop-color="#dadbd7"/>
      <stop offset=".166794" stop-color="#c2c4be"/>
      <stop offset=".183432" stop-color="#babdb6"/>
      <stop offset=".3098631" stop-color="#c4c6c0"/>
      <stop offset=".7537286" stop-color="#e2e3e0"/>
      <stop offset="1" stop-color="#eeeeec"/>
    </radialGradient>
    <radialGradient id="A" cx="56.019531" cy="45.240723" r="71.35096" gradientTransform="rotate(15.003 45.7026611 -303.33421827) scale(1.0326)" gradientUnits="userSpaceOnUse">
      <stop offset="0" stop-color="#bfebff"/>
      <stop offset=".073717" stop-color="#9fdfff"/>
      <stop offset=".1775176" stop-color="#78d1ff"/>
      <stop offset=".2805196" stop-color="#5ac6ff"/>
      <stop offset=".3811481" stop-color="#44beff"/>
      <stop offset=".4783" stop-color="#37baff"/>
      <stop offset=".568047" stop-color="#33b8ff"/>
      <stop offset=".8019649" stop-color="#1690e3"/>
      <stop offset="1" stop-color="#0072cf"/>
    </radialGradient>
    <radialGradient id="B" cx="69.821777" cy="107.29004" r="69.213776" gradientTransform="rotate(15.003 45.7026611 -303.33421827) scale(1.0326)" gradientUnits="userSpaceOnUse">
      <stop offset="0" stop-color="#00438a"/>
      <stop offset=".366864" stop-color="#0057ae" stop-opacity="0"/>
    </radialGradient>
    <radialGradient id="C" cx="119.63428" cy="31.186523" r="132.09879" gradientTransform="rotate(15.003 45.7026611 -303.33421827) scale(1.0326)" gradientUnits="userSpaceOnUse">
      <stop offset="0" stop-color="#00438a"/>
      <stop offset=".56804699" stop-color="#0057ae" stop-opacity="0"/>
    </radialGradient>
    <radialGradient id="D" cx="72.074707" cy="59.563965" r="47.441162" gradientTransform="rotate(15.003 45.7026611 -303.33421827) scale(1.0326)" gradientUnits="userSpaceOnUse">
      <stop offset=".857988" stop-color="#0057ae" stop-opacity="0"/>
      <stop offset="1" stop-color="#0057ae"/>
    </radialGradient>
    <clipPath id="y">
      <path d="m119.8125 36.3125-.5625.09375v6.5c.10188.083883.21139.165498.3125.25 3.58301 2.995117 6.76562 6.460937 9.25 10.3125 2.67285 4.144532 4.32129 8.400393 4.9375 12.625.66797 4.58789.09082 9.14844-1.75 13.375-2.00293 4.59961-5.50001 8.763675-10.5 12.09375-5.38281 3.583985-12.35938 6.098627-20.71875 7-8.73145.94238-17.717285.003908-26.21875-2.53125-8.46289-2.523437-16.046875-6.506833-22.1875-11.46875-5.258703-4.250244-9.286467-9.099321-11.875-14.1875V84.75c.528305.58575 1.067603 1.175328 1.625 1.75 1.212891 1.251953 2.484863 2.461917 3.84375 3.65625 1.375 1.208007 2.807617 2.413089 4.3125 3.5625 1.520019 1.163086 3.118164 2.272463 4.75 3.375l-3.90625 12.125 11.09375 5.15625 8.5-10.78125c1.946778.62109 3.930176 1.14551 5.9375 1.625 2.006348.47949 4.046875.90722 6.09375 1.25 2.041992.34179 4.093751.60058 6.15625.8125 2.05567.21191 4.12695.3789 6.1875.46875l5.6875 12.1875 11.0625-1.8125L110.5 105.28125c1.74316-.44531 3.39453-.95703 5-1.53125 1.58398-.56641 3.10644-1.20507 4.5625-1.875 1.43359-.6582 2.81152-1.35743 4.125-2.09375 1.29492-.72461 2.5332-1.470711 3.71875-2.25l9.78125 6.65625 4.6875-5.90625-7.375-8.9375c.66796-.997071 1.24804-2.022458 1.78125-3.0625.52343-1.018555 1-2.078123 1.40625-3.125.39844-1.027343.73535-2.050779 1.03125-3.09375.29004-1.02246.5459-2.066403.75-3.09375L148 78.53125l-.59375-5.90625-8.03125-4.3125c-.16796-.971679-.36817-1.93652-.625-2.90625-.25391-.953125-.57715-1.925782-.90625-2.875-.32324-.932617-.6709-1.85547-1.0625-2.78125-.38476-.910156-.80762-1.816407-1.25-2.71875l4.875-1.1875-3.3125-4.5-6.46875-1.1875c-.64258-.78418-1.31543-1.533204-2-2.28125-.67676-.737304-1.38379-1.483399-2.09375-2.1875-.70313-.695312-1.42774-1.366212-2.15625-2.03125-.71972-.658203-1.44922-1.306642-2.1875-1.9375l2.125-2.375z"/>
    </clipPath>
  </defs>
  <path d="M22.083496 92.554004c.324219 1.3125 1.653809 2.383789 2.598633 3.34375 1.117188 1.13477 2.290039 2.2207 3.507813 3.26074 2.127929 1.821286 4.390136 3.500976 6.730469 5.079096l-2.315918 6.6709.621582 4.66211 9.666015 4.21582 7.461426-9.08301.031738-.15625c.016114.07618.041504.14258.082031.18848 5.779297 1.70996 11.794434 2.70215 17.838379 3.11621.778321.05371 3.152344.54297 3.588868-.12402l-.198243.30664 4.790039 10.14648 9.743165-1.55664 4.351562-3.81445-.93457-8.25293c2.140625-.73145 4.231445-1.58203 6.25-2.57227 1.836914-.90136 4.095703-1.83691 5.561525-3.23046m-.39063.37207 8.48731 5.5957 5.68945-4.29004 4.50098-5.24219-7.05665-7.946283c.6377-.884766 1.20704-1.791016 1.7168-2.714844.49805-.901367.93653-1.81836 1.32324-2.744141l4.17286.731446 7.09277-9.1875-2.47168-.913086-7.6543-3.829102c-.16015-.863281-.36523-1.726562-.61035-2.586914-.24316-.84668-.52344-1.689453-.83789-2.532227-.23145-.623046-.49121-1.24414-.76172-1.865234l3.19531-4.083984-3.16211-4.000977-6.19043-1.040527c-.61328-.696289-1.24902-1.375977-1.90234-2.040039-.64648-.654297-1.31055-1.294434-1.98828-1.918946-.6709-.617187-1.35645-1.220703-2.05176-1.811035-.49414-.419922-.99902-.826172-1.5039-1.233398l1.42773-2.600586-4.29199-2.691406-4.37207.648925c-.8125-.459472-1.637696-.904297-2.472657-1.335937-.830078-.427246-1.670898-.842774-2.520507-1.245117-.845703-.401368-1.700196-.790528-2.561524-1.167969-.857422-.376465-1.722656-.741211-2.592773-1.097168l-.134766-2.514648-4.816406-1.529297-2.586914 1.729004c-.897461-.239747-1.803711-.465332-2.71582-.677735-.913086-.211426-1.834961-.409668-2.765625-.595215-.932618-.187011-1.874024-.359863-2.824219-.522949-.952149-.162109-1.914063-.313965-2.884277-.453613l-2.111817-2.562988-5.095215-.382325-.67041 2.508789c-.977539-.017578-1.945312-.015136-2.905273.004395-.966797.019531-1.92627.058105-2.879395.109863-.960937.053711-1.916504.123535-2.867676.206543-.958984.083985-1.914062.181153-2.86621.290039l-4.25586-2.267578-5.117676.991699.096192 3.558594c-.34961.111817-.707031.211914-1.053223.330078-.903808.308594-1.794433.639161-2.674805.987305-.893066.354492-1.774902.727539-2.647949 1.121094-.88623.397949-1.763183.816894-2.633301 1.251465l-6.767089-1.297364-4.471192 2.860352 1.265625 6.350586.427734.258789c-.113769.138184-.240234.264648-.35205.404297-.592774.738769-1.15625 1.505859-1.692383 2.298828-.546387.809082-1.064453 1.645508-1.556641 2.509766l-9.2490235 1.097168-1.9667969 5.290527 2.4257812 6.616211 7.2021482 1.029297c.006836.050781.010743.101562.018067.15332.163086 1.111328.387695 2.230469.666504 3.354492.284179 1.146485.624023 2.298828 1.012207 3.458008l-9.4833989 5.710938 2.6967773 6.171875 3.6572266 6.688476 11.163086-3.264648m82.935544-3.376953c-.44433.866211-.95312 1.701172-1.50879 2.508789-1.16992 1.006836-2.45117 1.963867-3.874996 2.844726-5.139648 3.181643-11.811523 5.415039-19.791992 6.214839-8.335938.83594-16.918457-.00293-25.035156-2.253906-8.07959-2.23925-15.325196-5.775386-21.1875-10.179683-5.596192-4.206054-9.729004-9.052734-12.126465-14.137695-.373047-.791015-.686035-1.584961-.971192-2.379883-.277832-4.225586.63086-8.480468 2.791993-12.24707 2.648925-4.615723 6.938476-8.250488 11.819335-10.779785 9.936524-5.147949 22.036133-5.992188 33.06543-4.058594 11.212891 1.966309 22.182617 6.95166 29.969727 14.8125 7.862306 7.937012 12.114256 19.419433 6.849606 29.655762z" filter="url(#e)"/>
  <g transform="translate(-.000488 -3.323926)">
    <path fill="#2e3436" d="m104.30811 42.665039-2.86524 5.616211-2.118163 2.481445 2.873043-5.710937 2.11036-2.386719z"/>
    <path fill="#888a85" d="m36.694824 31.943359.08252 6.585938-1.759278-3.483399-.164062-6.524414 1.84082 3.421875z"/>
    <path fill="url(#f)" d="m120.40869 59.164062-4.09863 5.635743-4.72656 1.279297 3.95703-5.719727 4.86816-1.195313z"/>
    <path fill="url(#g)" d="m19.133789 41.833008 1.056641 7.107422-5.118164-3.337891-1.325684-7.154297 5.387207 3.384766z"/>
    <path fill="url(#h)" d="m128.00049 81.855469-5.44727 5.469726-7.56738-1.427734 4.97949-5.589844 8.03516 1.547852z"/>
    <path fill="url(#i)" d="m9.8955078 60.540039 1.8720702 7.293945-9.2260741-1.416992-2.5410156-7.454101 9.8950195 1.577148z"/>
    <path fill="url(#j)" d="m117.67529 107.50879-5.95898 4.83301-8.88965-6.30371 5.0791-5.1875 9.76953 6.6582z"/>
    <path fill="url(#k)" d="M89.930176 112.5c2.571289-.89453 5.072265-1.9707 7.479492-3.24121 1.924805-1.01563 4.290042-2.06934 5.826172-3.63867 1.55664-1.58985 3.11328-3.17969 4.66992-4.76953-5.07129 3.33398-10.566404 5.78222-16.38574 7.46679-.731446.21094-.975586.22071-1.414063.75293-.458008.55664-.916015 1.11328-1.375 1.66895-.788086.95801-1.576172 1.91504-2.364258 2.87207 1.202149-.3252 2.386719-.7041 3.563477-1.11133"/>
    <path fill="#2e3436" d="m5.9628906 89.722656 2.6215821 6.623047-3.8305665-7.535156-2.824707-6.954102 4.0336914 7.866211z"/>
    <path fill="url(#l)" d="m18.756348 86.041992 1.520996 6.625-11.6928713 3.678711-2.6215821-6.623047 12.7934574-3.680664z"/>
    <path fill="url(#m)" d="M20.095703 91.875c.339356 1.478516 1.731934 2.685547 2.72168 3.766602 1.17041 1.27832 2.398926 2.501953 3.674316 3.674804 2.762207 2.541014 5.733887 4.848634 8.818848 6.982424-.057617-1.20508-.115723-2.41016-.17334-3.61524-.031738-.65625-.062988-1.31347-.094727-1.9707-.015625-.32715.031739-.25293-.305664-.4834-.68164-.464842-1.35791-.937498-2.029297-1.41699-5.135253-3.664062-9.987304-7.84082-13.951171-12.770508.446777 1.944336.891601 3.888672 1.339355 5.833008"/>
    <path fill="url(#n)" d="M49.825684 112.3584c6.05371 1.92578 12.354004 3.04394 18.68457 3.50976.816406.06153 3.30664.61329 3.761719-.1416.251953-.41797.503906-.83496.754882-1.25293.684571-1.13476 1.369141-2.26953 2.053711-3.40429-8.236328-.35938-16.484863-1.65528-24.349121-4.16211-.17334.91699-.347168 1.833-.520508 2.75-.090331.47851-.746093 2.2539-.385253 2.70117"/>
    <path fill="url(#o)" d="m80.789551 123.25098-3.710938 4.2539-5.016601-11.43164 3.018554-5.0039 5.708985 12.18164z"/>
    <path fill="url(#p)" d="m91.842285 121.4541-4.557617 4.29688-10.206055 1.7539 3.710938-4.2539 11.052734-1.79688z"/>
    <path fill="url(#q)" d="m42.230469 117.69629-.339356 4.85742-10.124511-4.74805-.650879-5.25293 11.114746 5.14356z"/>
    <path fill="url(#r)" d="m50.731445 106.90723-1.024902 5.41504-7.81543 10.23144.339356-4.85742 8.500976-10.78906z"/>
  </g>
  <path fill="url(#s)" d="M112.56738 61.186816c-3.88672-11.62207-14.050778-20.28418-24.708005-25.634277-10.858398-5.450684-23.308105-8.069824-35.441894-7.17627-11.851563.872559-24.895508 5.471192-31.499024 15.995606-3.093261 4.929199-4.291992 10.824707-3.480957 16.57959.379395 2.695312 1.012207 5.36914 1.535157 8.039062l.099609.509766c-1.148926-5.881836-.333496-12.041504 2.494141-17.341309 2.774902-5.200195 7.267578-9.294433 12.380371-12.143555 10.407715-5.799804 23.081054-6.751464 34.633301-4.572753 11.745117 2.215332 23.235351 7.831543 31.391601 16.6875 8.23535 8.941406 12.68945 21.875976 7.1748 33.409179-.99414 2.078125-2.26562 4.020508-3.74902 5.782227 2.1543-2.558594 4.51855-5.049805 6.39453-7.825195 4.46094-6.60254 5.28906-14.804688 2.77539-22.309571"/>
  <path fill="url(#t)" d="M115.54004 57.035449c.44238.902344.8584 1.808594 1.24316 2.71875.3916.925781.75293 1.855469 1.07617 2.788086.3291.949219.62305 1.899414.87696 2.852539.25683.969727.47168 1.942383.63964 2.914062l8.01758 4.314454L128 78.531543l-8.03516-1.547852c-.2041 1.027344-.45019 2.054688-.74023 3.077148-.2959 1.042969-.63965 2.080079-1.03809 3.107422-.40625 1.046875-.86719 2.083008-1.39062 3.101563-.53321 1.040039-1.12989 2.061523-1.79785 3.058594l7.3916 8.952146-4.71485 5.904296-9.76953-6.658196c-1.18555.77929-2.42285 1.53613-3.71777 2.26074-1.31348.736326-2.68555 1.439446-4.11914 2.097646-1.456055.66993-2.97461 1.29297-4.558594 1.85938-1.605469.57422-3.277344 1.09082-5.020508 1.53613l1.352539 12.84961-11.052734 1.79688-5.708985-12.18164c-2.060547-.08985-4.11914-.24024-6.174804-.45215-2.0625-.21192-4.117188-.48731-6.15918-.8291-2.046875-.34278-4.075195-.75196-6.081543-1.23145-2.007324-.47949-3.986816-1.02832-5.933594-1.64941l-8.500976 10.78906-11.114747-5.14356 3.913086-12.124996c-1.631836-1.102535-3.211914-2.233394-4.731933-3.39648-1.504883-1.149414-2.949219-2.329102-4.324219-3.537109-1.358887-1.194336-2.649414-2.416016-3.862305-3.667969-1.197265-1.234375-2.318359-2.496094-3.354004-3.78418L5.9624022 86.39873l-4.0336914-7.866211 9.9331052-6.433594c-.406738-1.304687-.762695-2.603515-1.060058-3.894531-.291992-1.267578-.527344-2.527344-.698242-3.780273-.167481-1.228516-.2729497-2.451172-.3090825-3.663086-.0356445-1.19043-.0039062-2.373047.1005859-3.544922L-1e-7 55.638965l2.0600586-5.959961 9.6879885-1.236328c.515137-.973633 1.058105-1.916016 1.630371-2.827149.561523-.893554 1.151856-1.757812 1.772461-2.589844.608887-.817382 1.247559-1.605468 1.916992-2.365234.657715-.744141 1.346192-1.461914 2.06543-2.151367l-5.387207-3.384766 4.683105-3.222656 7.088379 1.461914c.911133-.489258 1.82959-.961914 2.758301-1.410156.914063-.44336 1.837891-.863281 2.773438-1.262696.921875-.392578 1.85498-.764648 2.801757-1.112304.933594-.342774 1.88086-.663086 2.843262-.958985l-1.84082-3.421875 5.360352-1.117187 4.457519 2.554687c.997559-.123046 1.998047-.232422 3.002441-.327148.996094-.09375 1.997071-.171875 3.003418-.232422.998536-.058594 2.003418-.101562 3.016114-.124023 1.005371-.021485 2.019043-.024414 3.042969-.004883l.702148-2.826172 5.336914.430664 2.212402 2.887695c1.016114.157227 2.023926.328125 3.020996.510743.995118.183593 1.981446.378906 2.958008.588867.97461.208984 1.94043.432617 2.896485.670898.956054.239258 1.905273.493164 2.844726.763672l2.709961-1.948242 5.044922 1.722656.140625 2.833008c.912109.401367 1.818359.8125 2.71582 1.236328.902344.424805 1.797852.863281 2.683594 1.31543.889648.454101 1.770508.921875 2.639648 1.40332.875.486328 1.739258.987305 2.589844 1.504883l4.580078-.731446 4.49512 3.032227-2.11036 2.386719c.73829.630859 1.47071 1.274414 2.19043 1.932617.72852.665039 1.44629 1.344727 2.14942 2.040039.70996.704102 1.40527 1.424805 2.08203 2.162109.68457.748047 1.35058 1.513672 1.99316 2.297852l6.4834 1.172852 3.3125 4.506836zM80.776367 98.571584c8.359375-.90137 15.347657-3.416994 20.730463-7.000979 5-3.330078 8.50586-7.512695 10.50879-12.112305 1.84082-4.226562 2.39942-8.776367 1.73145-13.364257-.61621-4.22461-2.27539-8.493164-4.94824-12.637696-2.48438-3.851562-5.66016-7.303711-9.243166-10.298828-3.413085-2.852539-7.269531-5.353515-11.361328-7.435547-3.988281-2.02832-8.288086-3.705078-12.736328-4.946289-4.4375-1.240234-9.130859-2.078125-13.955078-2.408203-4.939941-.33789-9.670898-.121094-14.073242.59082-4.608887.746094-8.949219 2.048829-12.821777 3.867188-4.133301 1.941406-7.798828 4.5-10.6875 7.632812-3.132325 3.397461-5.384766 7.50586-6.297364 12.250977-1.000488 5.202148-.291992 10.616211 2.036133 15.927735 2.51123 5.729492 6.840332 11.189453 12.70166 15.926757 6.140625 4.961914 13.729981 8.945313 22.192871 11.46875 8.501465 2.535155 17.491211 3.481445 26.222656 2.539065"/>
  <path fill="url(#u)" d="m57.518555 26.945117-3.803711.006348-2.979004.12207-2.968262.22998-3.297363.359375-.295898-.160156s-3.562989-2.041992-4.128418-2.365722c-.47461.098632-2.31836.48291-3.677246.766113.544922 1.013183 1.76709 3.285644 1.76709 3.285644l-3.939942 1.328614-2.754883 1.093261-2.728515 1.242676c-.001953.000488-3.034668 1.55127-3.034668 1.55127l-.362305-.061524s-5.931152-1.223144-6.67041-1.375976c-.427735.293945-1.873047 1.289062-3.07959 2.11914 1.491211.937012 5.139648 3.229492 5.139648 3.229492l-2.887695 3.006836-1.864746 2.300293c0 .000489-1.727539 2.524903-1.727539 2.524903l-1.84082 3.192382-.509766.094727s-7.9921877 1.019531-9.0722658 1.157715c-.2602539.753418-1.0175781 2.944336-1.4677734 4.246582 1.8276367.291016 9.6396482 1.536133 9.6396482 1.536133l-.083007.929687c-.073731.825195-.11084 1.672363-.11084 2.528809 0 .29834.004883.597656.013672.897461l.300293 3.557617.682129 3.690918 1.231933 4.526367-.603027.431641s-7.8798831 5.104492-9.1743167 5.942382c.5957031 1.16211 2.6977539 5.261719 3.2456055 6.330079 1.3920898-.400391 12.6420902-3.636719 12.6420902-3.636719l.416504.517578c.998047 1.242187 2.105957 2.491211 3.29248 3.714844 1.165039 1.203125 2.445313 2.417968 3.804688 3.613281l4.270996 3.493164c.000976.000977 5.277344 3.788082 5.277344 3.788082l-.200684.71094s-3.169922 9.822266-3.641113 11.282226c1.287109.59472 8.437011 3.90429 9.594238 4.43945.868652-1.10156 8.441406-10.71289 8.441406-10.71289l.660156.20996c1.897461.60547 3.869629 1.1543 5.862305 1.62988 1.954101.4668 3.977539.87696 6.01416 1.21778l6.09668.82031 6.700195.49121.277344.53125s4.817383 10.2793 5.388672 11.49805c1.179687-.19141 7.925781-1.28809 9.374023-1.52344-.169922-1.61523-1.34375-12.76953-1.34375-12.76953l.837891-.21387c1.654297-.42285 3.313476-.93066 4.930664-1.50879 1.513672-.54101 3.019531-1.15527 4.477539-1.82617.000977-.00098 4.047849-2.061516 4.047849-2.061516.00098-.00098 4.20801-2.558596 4.20801-2.558596l.5625.343746s7.70215 5.249026 9.00293 6.135746c.78125-.97852 2.93359-3.672856 3.62988-4.544926-.89453-1.083-7.34863-8.900386-7.34863-8.900386l.41406-.619141c.62793-.9375 1.21289-1.932617 1.73926-2.958008 0-.000976 1.34765-3.006836 1.34765-3.006836 0-.000976 1.00879-3.018554 1.00879-3.018554l.94434-3.928711.94727.141601s4.86816.938477 6.71386 1.293946c-.14551-1.416993-.34765-3.385743-.41504-4.041993-.82812-.446289-7.95507-4.28125-7.95507-4.28125l-.72852-3.321289-.85547-2.780761-1.05176-2.726075-1.72265-3.767089 1.16211-.3125s1.98339-.486817 3.41406-.838379c-.8584-1.167969-1.90039-2.585449-2.19043-2.979492-.69141-.125-6.4375-1.164551-6.4375-1.164551l-2.20606-2.543946-2.04882-2.127441-2.11914-2.01123c-.00098-.000977-2.917-2.573243-2.917-2.573243l.65137-.760742s.73242-.828125 1.35547-1.532715c-1.07031-.721679-2.78809-1.880371-3.223631-2.173828-.652344.104004-4.541993.725586-4.541993.725586l-2.880859-1.674805-2.609375-1.386718-2.654297-1.30127c-.000976-.000488-3.24707-1.478027-3.24707-1.478027l-.041992-.613281s-.067383-1.371094-.106446-2.155762c-.870117-.296875-3.230468-1.103027-3.915039-1.336914-.598633.430664-2.676758 1.924316-2.676758 1.924316l-3.286132-.882324-2.863282-.663574-2.929687-.583008-3.380371-.571289-.25293-.314453s-1.525391-1.991211-1.941894-2.535156c-.616211-.049805-2.967774-.239258-4.047852-.326661-.205078.827149-.685547 2.759766-.685547 2.759766zM31.732422 85.341113c-5.919922-4.78418-10.411621-10.421875-12.989258-16.302734-2.43457-5.554688-3.141601-11.111817-2.10205-16.518067.909668-4.730469 3.111328-9.016601 6.543945-12.739746 2.908203-3.153808 6.608398-5.79834 10.997558-7.860351 3.948243-1.853516 8.351563-3.182618 13.087403-3.949219 4.554687-.736328 9.366211-.938965 14.301269-.601074 4.758789.325683 9.521485 1.14746 14.15625 2.442871 4.489258 1.252441 8.835938 2.940918 12.919922 5.018066 4.248047 2.161133 8.133789 4.70459 11.549799 7.55957 3.82129 3.194336 6.99805 6.735352 9.44141 10.523926 2.74121 4.249512 4.45605 8.635254 5.09766 13.035156.70703 4.858399.10058 9.538086-1.80371 13.908203-2.12891 4.887696-5.8877 9.226563-10.8711 12.544922-5.720699 3.809571-13.043942 6.286138-21.177731 7.163088-8.637695.932616-17.841308.04101-26.615722-2.5752-8.417969-2.509762-16.210449-6.538083-22.535645-11.649411z"/>
  <circle cx="69.001465" cy="56.504639" r="47.07637" fill="url(#v)" filter="url(#w)" transform="translate(-2.29968 -5.206712) scale(1.03332)"/>
  <path fill="url(#x)" d="M137.7041 62.77628c-.32324-.932618-.68457-1.862305-1.07617-2.788086-.38476-.910157-.80078-1.816407-1.24316-2.71875l4.6709-1.146973c-.00391-.11084-.00684-.22168-.01172-.33252l-3.10352-4.222656-6.36816-1.151855v6.640625c1.55469 3.070312 2.56933 6.182617 3.01953 9.271972.66797 4.587891.10937 9.137696-1.73145 13.364258-2.00293 4.59961-5.50878 8.782227-10.50878 12.112305-5.38282 3.583984-12.3711 6.099609-20.73047 7.000981-8.73145.94238-17.72119-.00391-26.22266-2.539067-8.46289-2.523437-16.05225-6.506836-22.19287-11.46875-1.13281-.915039-2.18945-1.865234-3.20557-2.831055 6.71875 8.959961 16.64112 15.945313 28.66797 19.167001 26.96289 7.22461 54.24317-7.164071 60.93848-32.139657.14453-.537109.26269-1.076172.38574-1.614258-.12305-.583984-.25684-1.167969-.41113-1.750976-.25391-.953125-.54785-1.903321-.87696-2.852539z" clip-path="url(#y)" filter="url(#z)" transform="translate(-20)"/>
  <g transform="translate(88.659878 -2.85673) scale(.93621)">
    <path fill="url(#A)" d="M26.3208 69.181641c7.00098-26.129883-8.50781-52.992188-34.639648-59.9956059C-34.454102 2.1850585-61.31543 17.693359-68.317871 43.82666c-7.000488 26.131348 8.508789 52.993652 34.639648 59.99463 26.133789 7.00195 52.993163-8.504884 59.999023-34.639649z"/>
    <g fill="none" stroke="#bfd9ff" stroke-linecap="round" stroke-linejoin="round" stroke-width=".4" opacity=".2" transform="translate(-90)">
      <path d="M23.591797 49.364258c.094238 3.964355.681152 7.898437 1.754883 11.716797m12.111816 21.723633c2.885254 3.166992 6.054688 6.015624 9.530762 8.521484M30.07666 72.486328c2.050293 3.711914 4.56543 7.15332 7.381836 10.31836"/>
      <path d="M24.933105 38.133301c-.992675 3.652344-1.395996 7.45166-1.341308 11.230957m9.569824-26.258301c-1.447266 1.556152-2.753906 3.249512-3.884277 5.049316m0 0c-1.942383 3.078125-3.413574 6.458985-4.344239 9.978028m.413575 22.947754c1.1333 3.967285 2.707519 7.80664 4.72998 11.405273m27.585449 24.839844c-3.76123-1.594727-7.353515-3.619141-10.672851-6m-.841309 1.474609c-3.71289-1.99707-7.127929-4.398437-10.316406-7.151367m-8.055664-9.138672c2.278809 3.387696 5.030762 6.407227 8.055664 9.138672m-13.301758-19.63916c1.260742 3.718262 3.04541 7.250488 5.246094 10.500488M21.59082 44.160644c-.882324 3.495606-1.280273 7.095215-1.139648 10.699707m0 .000001c.110352 3.782226.867676 7.571289 2.078613 11.149902m35.104981 31.363769c-3.973633-1.127929-7.845704-2.613281-11.486817-4.573242M22.506348 71.6875c1.227539 3.387695 3.024902 6.625977 5.250976 9.458984m8.061035 7.78125c-3.023925-2.21582-5.772461-4.805664-8.061035-7.78125m18.384278 13.34961c-3.676758-1.400391-7.116211-3.297852-10.323243-5.56836M21.342285 67.835937c.308106 1.305665.701172 2.591797 1.164063 3.851563m35.128418 25.737305c-3.89502-.532227-7.845215-1.439453-11.493164-2.928711m.825195 1.804687c-3.351563-.792969-6.597168-2.120117-9.549805-3.889648m-7.397949-6.333985c-.501953-.626953-.992676-1.258789-1.450684-1.919922m8.848633 8.253907c-2.802246-1.640625-5.331054-3.833985-7.397949-6.333985m27.641601 11.404297c-3.59375.050782-7.201171-.327148-10.693847-1.180664m10.743164 1.238281c-3.009277.613282-6.07666.785157-9.135742.552735m0 0c-2.792969-.266602-5.537598-.964844-8.053711-2.222656m0 0c-1.399902-.698243-2.712402-1.579102-3.892578-2.605469m21.154297 4.326172c-2.180176 1.05664-4.52295 1.846679-6.931641 2.154297m0 0c-1.990723.242187-4.069824.098632-5.933594-.682618m0 0c-.375976-.15625-.735351-.341796-1.09082-.540039m14.043945-.884765c-1.249023 1.3125-2.624023 2.636721-4.229004 3.508791m0 0c-.976562.54101-2.218261 1.02051-3.333496.62695m0 0-.086426-.03027m6.533203.46191c-.143066.53711-.28955 1.07617-.431152 1.61231m1.645508-6.147465c-.418457 1.507813-.811035 3.023435-1.214355 4.535155m3.225585.63965c.579102.97559 1.410157 1.9668 2.574219 2.20996m-4.483886-7.36328c.4375 1.766601.958496 3.58496 1.909668 5.15332m2.574218 2.20996.088379.01758m.45459-2.0459c1.618164 1.21289 3.466797 2.09473 5.479492 2.37598m-10.406738-7.704104c1.407227 2 2.989258 3.825194 4.927246 5.328124m5.479492 2.37598c.403321.0498.809571.07812 1.216797.07519M58.258301 97.6875c2.276855 2.008789 4.859863 3.80078 7.637695 5.04297m0 0c2.522461 1.17969 5.296875 1.96191 8.083984 2.10351m0 0c1.573243.08594 3.126954-.02929 4.675782-.30761m9.316406-2.92285c.75-.28516 1.493164-.58692 2.21582-.93555m-11.791015 2.72558c3.255859-.06152 6.524414-.64062 9.575195-1.79003m-19.791992.38086c3.338867.92968 6.74414 1.46484 10.216797 1.40917m-20.064942-5.732417c3.081543 1.861328 6.405274 3.285157 9.848145 4.323237m13.344726-.81152c3.748047-.37402 7.369141-1.337889 10.871094-2.7041m-34.015137-.841797c3.687012 1.47168 7.493653 2.590817 11.419434 3.208007m31.873047-7.935546c1.02344-.870117 2.00684-1.77832 2.93457-2.750976M92.395996 98.46875c3.363281-1.362305 6.474609-3.273438 9.277344-5.569336m-31.873047 7.935546c3.874023.6582 7.821289.68848 11.724609.33789m13.170899-6.729491c3.536133-1.707031 6.837889-3.890625 9.794919-6.472656M83.149902 98.328125c4.00293-.837891 7.851563-2.133789 11.545899-3.884766m-24.052735 4.920899c4.19336.143554 8.394532-.206055 12.506836-1.036133m-24.742675-.748047c4.007324 1.021484 8.101074 1.640625 12.235839 1.78418m33.847654-11.393555c2.83789-2.532227 5.34375-5.393555 7.37403-8.615234m0 0c1.92968-2.993164 3.46093-6.389649 4.36132-9.837891m-11.70996 12.777344c2.81641-2.782227 5.34571-5.865234 7.37598-9.270508m5.68262-21.210449c.1289 3.647461-.28028 7.290527-1.2295 10.815918m-4.45312 10.394531c1.93359-3.230469 3.52148-6.737793 4.45312-10.394531M83.165527 95.049805c4.03418-1.333008 7.889649-3.083008 11.549805-5.241211M58.40918 97.525391c4.051269.507812 8.177246.541015 12.239746.139648m24.066406-7.856445c3.550781-2.09961 6.839848-4.643555 9.800778-7.513672M70.648926 97.665039c4.256836-.421875 8.447265-1.296875 12.516601-2.615234m33.571293-49.549317c.44824 2.084473.75097 4.181641.83789 6.313477M69.819824 95.864258c4.054688-1.023438 7.980469-2.486328 11.747071-4.298828m27.236325-25.275879c1.86524-3.351074 3.34961-6.927735 4.34766-10.632324m-3.54883-26.558106c1.27539 1.933106 2.35156 3.99707 3.12207 6.184082m-20.268554 49.59668c3.353516-2.604492 6.465821-5.447266 9.290044-8.622071m12.73925-31.176269c.07325 3.564453-.40918 7.135254-1.33398 10.575684M81.566895 91.56543c3.835937-1.889649 7.471679-4.115235 10.888671-6.685547M58.381348 97.46875c3.859375-.064453 7.695312-.698242 11.438476-1.604492m31.925786-19.606446c2.68554-3.046874 5.125-6.390624 7.05761-9.968261m3.9209-31.006348c1.14453 3.105957 1.72461 6.491699 1.76074 9.79834M88.068848 79.987305c3.021484-3.032227 5.746093-6.286133 8.301757-9.716797m10.976565-40.976563c.87793 2.936036 1.2334 6.048828 1.14258 9.108887"/>
      <path d="M108.48975 38.402832c-.08496 3.501953-.65528 6.956543-1.5459 10.340332m-5.38574-28.837402c.72265.661621 1.43359 1.36084 2.0332 2.137695M78.463379 88.107422c3.415039-2.424805 6.65918-5.141602 9.605469-8.120117m15.522462-57.943848c1.72851 2.122559 2.98535 4.628418 3.75586 7.250488M96.370605 70.270508c2.414063-3.39502 4.580075-6.927735 6.438475-10.657715M68.216309 94.073242c3.592773-1.674804 7.013672-3.672851 10.24707-5.96582m24.345701-28.494629c1.71582-3.494141 3.08399-7.123047 4.13477-10.869629M58.330566 97.412109c3.422364-.762695 6.683594-1.918945 9.885743-3.338867m29.159179-76.546386c1.250977 1.864257 1.969727 4.03955 2.357422 6.238281M74.067871 84.916016c2.775391-2.999024 5.367188-6.141602 7.777344-9.441407m-15.90625 16.947266c2.897461-2.297852 5.588867-4.819336 8.128906-7.505859M88.753418 64.73877c2.080078-3.651368 3.907227-7.433106 5.563477-11.293458M58.259766 97.361328c2.729492-1.379883 5.26416-3.067383 7.679199-4.939453m15.90625-16.947266c2.52832-3.416992 4.826172-7.03125 6.908203-10.735839m11.245117-32.503907c-.323242 3.42627-.961914 6.797364-1.849609 10.122071m-3.832031 11.088379c1.457031-3.62793 2.871093-7.291504 3.832031-11.088379m1.583984-18.591797c.5127 2.770507.52539 5.668945.265625 8.469726m-5.675781-17.660156c1.216797.765625 2.24707 1.759277 3.052734 2.952148m-23.149414 54.11377c1.866211-3.808105 3.523438-7.702637 5.195313-11.597168M58.170898 97.31543c1.830567-1.962891 3.418457-4.120117 4.979981-6.296875m20.75293-42.811524c1.276367-3.721679 2.417968-7.478027 3.466797-11.269531m-7.949219 23.105957c1.633789-3.88916 3.097656-7.852539 4.482422-11.836426m6.49414-29.135254c-.038086 2.666504-.401367 5.296875-.810547 7.926758M87.370605 36.9375c.88086-3.273438 1.670899-6.591309 2.216797-9.938965M68.67627 82.205078c1.993164-3.438477 3.832031-6.981445 5.549804-10.564453m-11.075195 19.37793c1.970703-2.856446 3.802734-5.800781 5.525391-8.813477m21.076171-68.508789c.59375 1.700684.674805 3.59082.645508 5.375488m-2.537109-7.771972c.979492.404297 1.577148 1.433105 1.891601 2.396484m-8.508789-2.891113c-.394531 1.578613-.811523 3.162598-1.265625 4.725097m-2.013671 7.519532c.668945-2.506348 1.376953-5.004395 2.013671-7.519531m1.702149-6.3398443c-.152344.5327148-.28418 1.0791013-.436524 1.6147463m-24.33789 56.192871c.314453-4.223633.735351-8.440918 1.302246-12.638672M75.26709 7.9272461c-1.056641-.1450195-2.069336.4570312-2.833008 1.1259766M56.429687 78.923828c.027344-3.979492.184571-7.957031.476075-11.925781m1.302246-12.638672c.538086-4.186035 1.25293-8.345703 2.034668-12.492187m-3.433594 47.450195c-.283691-3.455078-.40625-6.926758-.379394-10.393555m1.541015 18.339844c-.592773-2.619141-.902344-5.277344-1.161621-7.946289m12.37793-75.931152c.875-1.566407 1.887695-3.139649 3.24707-4.3330083M62.876465 30.373047c.865722-3.280274 1.867676-6.534668 3.050781-9.714356m0 0c.931641-2.492675 1.97461-4.939941 3.259766-7.27246m-8.944336 28.480956c.776855-3.854003 1.602051-7.69873 2.633789-11.49414M50.407227 78.575195c-.963379-3.959961-1.592286-8.018554-2.020508-12.068847m5.902832-46.52002c1.228515-2.55957 2.642578-5.013184 4.464355-7.202148m-5.0625 76.353515c-1.375488-3.423828-2.448242-6.969726-3.284179-10.5625m7.463867 18.681641c-1.669434-2.55957-3.037598-5.286133-4.179688-8.119141m-5.304687-22.631347c-.445313-4.231934-.657227-8.492676-.612305-12.748047M58.753906 12.78418c1.452637-1.702149 3.137207-3.2329105 5.161621-4.2231448M50.830566 29.676758c.904297-3.319824 2.017578-6.563477 3.458985-9.69043m-6.515137 33.771973c.024902-4.197266.307129-8.397949.833008-12.562012M63.915527 8.5610352c1.283203-.6171875 2.688477-1.0073242 4.118164-1.0283203M48.607422 41.196289c.498535-3.878418 1.194336-7.744629 2.223144-11.519531m-12.416504 25.0625c-.430175-4.130371-.526855-8.304199-.247558-12.448242m2.579102 25.017089c-1.121094-4.113281-1.893555-8.328613-2.331543-12.568847m6.588378 24.40332c-1.744629-3.817383-3.16748-7.78125-4.256836-11.834473m17.037598 29.956543c-2.571289-2.36914-4.858887-4.986328-6.888672-7.833007m0 0c-2.289062-3.236328-4.226074-6.694336-5.89209-10.289063m-6.835937-36.851562c.262207-3.880371.873047-7.716797 1.85498-11.479981m9.372071-17.044922c1.999511-1.856933 4.303222-3.454101 6.878418-4.4018552M40.021484 30.811035c.926758-3.367187 2.131348-6.668945 3.829102-9.729492M56.271973 9.3642578c.921386-.3515625 1.866211-.6259766 2.830078-.8330078M43.850586 21.081543c1.461914-2.691895 3.312012-5.209961 5.542969-7.31543m4.247558 87.379397c1.009766.42578 2.055176.77441 3.113282 1.05859m-5.903809-2.459959c.887207.537109 1.827148 1.017579 2.790527 1.401369m17.007813-3.480471c-.149414-.640625-.445313-1.266602-.829102-1.800781m-21.245605 2.227539c.710937.616211 1.472168 1.164062 2.276367 1.652344m-3.883789-3.44336c.463867.665039 1.01123 1.243164 1.607422 1.791016m22.068847 1.272461c.146485-.556641.136719-1.140625.00586-1.699219m-7.551758 5.360351c.940918-.02832 1.875-.1084 2.798828-.29492m-9.141602-.52637c1.061036.28125 2.137207.49805 3.225586.63965m9.839844-6.979492c-.43457-.670899-1.007812-1.262696-1.603515-1.791016m-.036133 7.911138c.599609-.28711 1.163086-.66407 1.620117-1.14942m0 0c.392578-.41504.692383-.917968.842773-1.470702M59.97998 102.84375c1.03418.13672 2.074708.19141 3.117188.18164m-9.405762-13.887695c-.937988.016602-1.876953.107422-2.796875.293946m9.141602.530273c-1.054688-.297851-2.141113-.500976-3.227051-.644531m6.341797 1.701172c-1.004395-.431641-2.055664-.785156-3.114746-1.056641m-11.428223.214844c.730469-.34375 1.497559-.579102 2.286621-.745117m-4.752929 5.064453c.144043.648437.456054 1.256836.825195 1.804687"/>
      <path d="M56.809082 89.317383c-1.036133-.121094-2.073731-.200196-3.117676-.179688m12.247559 3.28418c-.886719-.543945-1.827149-1.006836-2.788086-1.40332m-14.543457-.839844c-.598145.289062-1.160645.663086-1.618164 1.147461m21.227051 2.74707c-.709961-.618164-1.470703-1.166015-2.277344-1.651367m-19.791016.378906c-.149414.551758-.142578 1.141602-.006347 1.695313m.847656-3.169922c-.390625.416015-.696778.919922-.841309 1.474609m19.748047 9.929689c.78418-.16309 1.563477-.3916 2.28418-.74609M35.831543 85.649414c-.288574 1.069336-.266113 2.204102-.013184 3.27832m1.640137-6.123046c-.764648.80664-1.327637 1.774414-1.626953 2.844726M73.97998 104.83398c1.523438-.30664 3.011719-.77441 4.416993-1.44043M56.429687 78.923828c-1.998046-.267578-4.0083-.366211-6.02246-.348633M68.57666 105.40137c1.813477-.05274 3.624024-.19727 5.403321-.56739m-11.317872-24.6748c-2.049316-.525391-4.127441-.997071-6.232421-1.235352m25.095214 22.249022c.754883-.81152 1.337891-1.770506 1.625-2.844725m-26.82666 5.488285c2.037598.55761 4.133301.98339 6.230957 1.2373m6.122071-22.848632c-1.949219-.833008-3.974122-1.476562-6.014161-2.045898m-17.659668-1.016602c1.778809-.366211 3.590821-.525391 5.404786-.567383m27.989746 24.818355c1.15039-.57324 2.245117-1.27734 3.127929-2.2207m-7.457031-16.256834c-1.71582-1.050782-3.537109-1.935547-5.391602-2.710938m14.489258 12.844727c-.302734-1.250977-.875976-2.423828-1.598633-3.484375m1.583008 6.762695c.292969-1.071289.262696-2.202148.015625-3.27832m-1.598632-3.484375c-.891602-1.278321-1.938477-2.423828-3.103516-3.458008m0 0c-1.370117-1.191406-2.838867-2.25586-4.395508-3.191406M50.307617 101.77246c1.952149.81836 3.969238 1.50195 6.015625 2.04395m6.230957 1.2373c1.998047.24805 4.007813.38867 6.022461.34766M40.586426 80.583008c-1.149414.571289-2.249024 1.27539-3.12793 2.221679m3.12793-2.221679c1.403808-.66211 2.89209-1.143555 4.416015-1.44043m-.085449 19.918945c1.718262 1.050777 3.538086 1.926757 5.390625 2.710937m-9.787109-5.903319c1.359863 1.207031 2.851074 2.239257 4.396484 3.192382m-9.098633-10.133789c.288575 1.250977.88086 2.426758 1.598633 3.483399m0 0c.871094 1.288086 1.947266 2.422851 3.103516 3.458008m-10.501465-9.791993c.401367.587891.833984 1.149414 1.280273 1.703125m17.087403-21.273925c2.837402-.060547 5.706543.103027 8.519043.491699M27.757324 81.146484c.407715 1.765625 1.237305 3.44336 2.261719 4.930665m-2.243164-9.566407c-.407227 1.507813-.383789 3.12207-.018555 4.635742M34.5 69.348633c-1.630371.787109-3.180664 1.811523-4.42334 3.137695M34.5 69.348633c1.98877-.943848 4.090332-1.600098 6.245605-2.040528m24.973633 1.439942c-2.915039-.739746-5.833496-1.337402-8.813476-1.75m17.320312 4.642578c-2.779297-1.149414-5.617187-2.069336-8.506836-2.892578M92.395996 98.46875c1.061523-1.160156 1.888672-2.499023 2.299805-4.025391m-8.681641 7.995121c.664063-.25196 1.319336-.52442 1.958008-.83496m0 0c1.643555-.77637 3.162109-1.8252 4.423828-3.13477m-4.327148-18.481445c-1.942383-1.671875-4.00586-3.22168-6.223633-4.512696m0 0c-2.40332-1.518554-5.011719-2.71289-7.619141-3.833984m20.469727 22.802734c.409179-1.507812.383789-3.121093.019531-4.634765m-2.259766-4.928711c-1.21289-1.840821-2.776367-3.404297-4.386718-4.892578m6.646484 9.821289c-.383789-1.761719-1.243164-3.451172-2.259766-4.928711m-51.70996-17.571778c2.52246-.494628 5.071777-.74414 7.641113-.801757m-18.310059 5.97998c-1.066406 1.142578-1.896484 2.506836-2.300781 4.024414m73.969731-.25293c-1.49415-2.225585-3.362309-4.223632-5.375004-5.987304m-57.956544-15.53125c3.083497-.614746 6.217774-.92334 9.360352-.980957m48.596191 16.512207c-2.322265-2.105957-4.939453-3.911621-7.617187-5.531739m15.762692 17.556153c-.52343-2.170898-1.52148-4.194336-2.7705-6.037109m-.07227 16.641601c1.31152-1.416992 2.30078-3.0625 2.81738-4.928711M25.34668 61.081055c-1.307618 1.414062-2.306641 3.063964-2.816895 4.929199m81.960935 21.960449c.50684-1.854492.44824-3.811523.02539-5.675781M88.753418 64.73877c-2.979492-1.811036-6.12207-3.341309-9.332031-4.695313M22.506348 71.6875c.131836.570312.304687 1.12793.501953 1.678711m35.199707-19.006836c3.627441.489258 7.268066 1.141602 10.791504 2.145996m-46.469727 9.504883c-.490723 1.860352-.462402 3.809082-.023437 5.677246m56.915039-11.644043c-3.401367-1.366699-6.860352-2.644531-10.421875-3.538086m-38.235352.731445c2.441895-1.166504 5.012695-1.920898 7.649902-2.497558m9.360352-.980957c3.479981-.113281 6.983398.171387 10.433594.601074M30.76416 57.236816c-2.004394.991211-3.866211 2.223145-5.41748 3.844239m75.05322 33.022461c.44629-.37793.87207-.779297 1.27344-1.204102m8.7998-10.323242c.60547-1.003906 1.09668-2.083985 1.39161-3.220703m0 0c.54882-2.09375.49316-4.228516.02734-6.331055m-3.08887-6.734863c-1.6289-2.48877-3.76172-4.723145-5.99414-6.676758M29.635254 45.07666c-2.233398 1.111817-4.314453 2.474121-6.043457 4.287598m70.725098 4.081055c-3.325196-2.007813-6.822266-3.758301-10.413086-5.238282m-63.452637 6.653321c-.303223 1.131347-.442383 2.313964-.404785 3.485351m3.54541-8.981445c-1.456543 1.558105-2.590332 3.425293-3.140625 5.496094m91.440918 18.164062c-.5752-2.423828-1.69922-4.678711-3.08887-6.734863M38.166504 42.291016c3.433594-.692383 6.939453-1.040039 10.440918-1.094727m23.674316 3.063477c3.959961 1.05957 7.830078 2.393554 11.622071 3.947265m-54.268555-3.130859c2.702148-1.300293 5.595215-2.192871 8.53125-2.785156m10.440918-1.094727c3.88623-.069824 7.781738.162598 11.635254.670899m0-.000001c4.059082.530762 8.086914 1.324219 12.039062 2.392579m30.527342 15.353027c-2.62207-2.312988-5.48242-4.386719-8.492186-6.16748m3.832032-11.088379c3.102534 1.914062 6.034184 4.003906 8.794924 6.38623M31.189453 33.695313c-2.311035 1.12207-4.48584 2.563476-6.256348 4.437988m62.4375-1.195801c3.715821 1.542481 7.333008 3.34082 10.778321 5.419434m8.794924 6.38623c2.31054 2.097656 4.42578 4.344238 6.20703 6.914063m-50.274415-25.28418c4.206054.554687 8.362304 1.38623 12.461914 2.475098m37.812501 22.809082c1.43359 2.117187 2.62207 4.468261 3.19433 6.972656m0 0c.52051 2.053223.55372 4.303711.02442 6.358398M31.189453 33.695313c2.795899-1.351075 5.792969-2.267579 8.832031-2.884278m35.316895 2.037109c4.094726 1.094727 8.121094 2.456055 12.032226 4.089356m-62.4375 1.195801c-1.474121 1.563965-2.595703 3.43164-3.200683 5.497558m18.289062-12.819824c3.552246-.726562 7.185547-1.071777 10.809082-1.134277"/>
      <path d="M50.830566 29.676758c4.023926-.0625 8.056153.163086 12.045899.696289m3.050781-9.714356c4.054688.502442 8.09668 1.315918 12.03711 2.391114m22.034179 9.185058c3.003905 1.774414 5.889645 3.841797 8.491215 6.167969M35.317383 23.867676c2.709961-1.282715 5.590332-2.210938 8.533203-2.786133m70.634274 24c1.38672 2.04834 2.52832 4.311523 3.08985 6.732422M54.289551 19.986328c3.893066-.054199 7.776367.175781 11.637695.672363m-22.07666.422852c3.43457-.707031 6.937012-1.015137 10.438965-1.095215m-18.972168 3.881348c-2.211914 1.098633-4.35791 2.455078-6.040039 4.287597m79.212406 10.247559c2.25781 1.980469 4.28515 4.209473 5.99511 6.678711m-85.207516-16.92627c-.61084.646973-1.172852 1.351563-1.644531 2.106934m61.954589-3.263672c3.585938 1.498535 7.084961 3.222656 10.411133 5.236328m17.576175 19.579102c.20215.872558.32422 1.753906.37109 2.647949M77.964356 23.049805c3.956054 1.065429 7.838867 2.377929 11.623046 3.94873M49.393555 13.766113c3.077636-.640136 6.222168-.907715 9.360351-.981933m-17.011718 3.479492c-1.417481.694336-2.762208 1.518555-3.989747 2.512695m21.001465-5.992187c3.493653-.056641 6.966309.181152 10.433106.60205m21.210937 5.685547c3.223633 1.321778 6.34668 2.903321 9.334961 4.69336m7.61426 5.528808c1.99512 1.799317 3.87793 3.749512 5.37695 5.989258M69.187012 13.386231c3.638672.476562 7.246093 1.192382 10.791015 2.144043m19.754883 8.234863c2.68457 1.622558 5.27051 3.439453 7.61426 5.528808M41.742188 16.263672c2.425292-1.171387 5.018554-1.953125 7.651367-2.497559m30.584472 1.76416c3.532227.970215 7.053711 2.084961 10.419922 3.541504m22.326171 16.211426c.8877 1.298828 1.64258 2.699219 2.2002 4.170899M72.434082 9.0532227c2.964844.4106445 5.923828.9453125 8.80957 1.7519533m16.131836 6.72168c2.186524 1.336425 4.304692 2.804199 6.215822 4.516601m0 0c1.06543.9375 2.06152 1.951172 2.97949 3.033203M89.752441 13.696289c2.634766 1.070801 5.183594 2.373535 7.623047 3.830566M63.915527 8.5610352c2.854493-.0400391 5.686524.1489258 8.518555.4921875m8.80957 1.7519533c2.898438.723633 5.754883 1.739746 8.508789 2.891113M52.174805 10.5c1.333984-.481934 2.707519-.8535156 4.097168-1.1357422m0 0c2.514648-.5229492 5.079101-.7368164 7.643554-.8032227M30.76416 57.236816c-.775879-4.014648-1.188476-8.069824-1.128906-12.160644M34.5 69.348633c-1.638184-3.906739-2.891602-7.960449-3.73584-12.111817m9.822266 23.346192C38.158203 77.09375 36.14502 73.264648 34.5 69.348633m-3.310547-35.65332c.904785-3.447266 2.29541-6.771485 4.12793-9.827637m-5.682129 21.208496c.09082-3.842285.560547-7.663574 1.554199-11.380859m26.502441 63.581054c-3.288085-1.964844-6.352539-4.418945-9.083984-7.099609M35.317383 23.867676c1.724121-2.858399 3.891113-5.431153 6.424805-7.604004m0 0c1.77246-1.487305 3.704101-2.765137 5.781738-3.785645m1.083984 77.698731c-3.000488-2.872071-5.72998-6.128906-8.021484-9.59375"/>
    </g>
    <path fill="url(#B)" d="M26.3208 69.181641c7.00098-26.129883-8.50781-52.992188-34.639648-59.9956059C-34.454102 2.1850585-61.31543 17.693359-68.317871 43.82666c-7.000488 26.131348 8.508789 52.993652 34.639648 59.99463 26.133789 7.00195 52.993163-8.504884 59.999023-34.639649z" opacity=".66"/>
    <path fill="url(#C)" d="M26.3208 69.181641c7.00098-26.129883-8.50781-52.992188-34.639648-59.9956059C-34.454102 2.1850585-61.31543 17.693359-68.317871 43.82666c-7.000488 26.131348 8.508789 52.993652 34.639648 59.99463 26.133789 7.00195 52.993163-8.504884 59.999023-34.639649z" opacity=".6"/>
    <g fill="none" stroke="#fff" stroke-linecap="round" stroke-linejoin="round" opacity=".3" transform="translate(-90)">
      <g stroke-width=".4">
        <path d="M56.479492 11.828613c-3.716797.39502-7.422851 1.262696-10.875488 2.709961m0 0c-3.34668 1.358399-6.506836 3.247071-9.275879 5.566895m0 0c-1.027832.862793-2.012207 1.777344-2.933594 2.753418M68.20166 12.167481c-3.87207-.606934-7.821777-.748047-11.722168-.338868m10.880371 1.810059c-4.198242-.135254-8.391601.210937-12.509765 1.036621m0 0c-3.984375.830566-7.885254 2.098145-11.545411 3.888184m0 0c-3.529785 1.698242-6.85498 3.878906-9.793457 6.471191m0 0c-2.860351 2.481445-5.35791 5.414063-7.375976 8.616211m0 0c-1.987305 3.148437-3.472168 6.584961-4.45459 10.173828m-.027344 6.556152c-.953125 3.520508-1.356445 7.172852-1.228515 10.815918m13.061523-30.483398c-2.828125 2.768555-5.342773 5.874512-7.378906 9.271484m0 0c-1.943848 3.245606-3.475098 6.738281-4.454102 10.395996m21.63086-27.182617c-3.538574 2.128418-6.840332 4.63086-9.797852 7.515137M54.834961 17.95459c-4.031738 1.311523-7.905273 3.080566-11.550781 5.243652M20.424805 61.196777c.096191 2.129883.372558 4.237305.84082 6.317383m46.086426-52.177246c-4.250489.437012-8.456055 1.276856-12.51709 2.617676m13.343262-.812988c-4.052735 1.046875-7.971192 2.480957-11.7417 4.298828M28.398437 83.913086c-1.287109-1.916992-2.359375-4.000977-3.120117-6.182617m-1.764648-9.800781c.071289 3.331054.633301 6.663085 1.764648 9.800781M56.436523 21.44043c-3.842285 1.864746-7.47998 4.118164-10.890136 6.6875m0 0c-3.351563 2.592773-6.493653 5.432617-9.290039 8.623047M24.851074 57.35498c-.940918 3.433594-1.401367 7.015137-1.337402 10.574707m5.683105-21.210449c-1.846679 3.382325-3.319336 6.919434-4.345703 10.635743m11.405274-20.604004c-2.698243 3.065429-5.064942 6.405273-7.059571 9.968261m5.996582 6.679688c-1.728027 3.481933-3.095703 7.125488-4.134765 10.868652M49.936035 33.01709c-3.018554 3.010742-5.814453 6.260742-8.304687 9.722168m28.155273-23.808594c-3.594726 1.687988-6.998535 3.683594-10.248047 5.966797"/>
        <path d="M41.631348 42.739258c-2.435059 3.367676-4.602539 6.930176-6.437989 10.659668m24.345215-28.501465c-3.425781 2.435547-6.608886 5.172363-9.602539 8.119629M34.408203 90.97168c-1.715332-2.132813-2.994629-4.624024-3.756348-7.25293m5.790528 9.387695c-.732422-.661133-1.407715-1.373047-2.03418-2.134765m-3.349609-26.704102c-.896485 3.366699-1.497071 6.852539-1.54834 10.342773m1.141602 9.108399c-.871582-2.946289-1.217774-6.040039-1.141602-9.108398m8.754883 14.638671c-.470215-2.799804-.50586-5.645507-.261231-8.469726m11.242188-32.510742c-2.04834 3.667969-3.937988 7.42041-5.559082 11.29834m28.375976-38.982911c-2.917969 2.270997-5.580078 4.833985-8.128906 7.506836M38.003906 80.779297c.274903-3.423828.969239-6.808594 1.848145-10.124023m16.299804-33.120606c-2.504394 3.449219-4.78125 7.040527-6.905761 10.733887m-5.559082 11.298339c-1.52002 3.606934-2.813477 7.309571-3.834961 11.088379M43.676269 98.4375c-1.226074-.71582-2.261718-1.780273-3.052246-2.951172m0 0c-1.249511-1.873047-1.958496-4.03418-2.358886-6.237305M63.934082 28.09082c-2.785156 2.983887-5.385254 6.140137-7.782227 9.443848m18.699219-15.546875c-1.978515 2.84668-3.821289 5.794922-5.52539 8.813965M58.581543 52.964844c-1.59082 3.909179-3.118652 7.843261-4.483398 11.838379m-6.496583 29.141113c.041016-2.657227.360352-5.311523.813477-7.928711m20.910645-55.213867c-1.995118 3.436523-3.836914 6.980957-5.550293 10.56543m-9.677246 23.436035c-1.275879 3.720215-2.439454 7.475097-3.467774 11.270996m-2.215332 9.941406c.588867-3.34668 1.333984-6.65918 2.215332-9.941406m-.492187 25.642581c-.988282-.42969-1.551758-1.41895-1.892578-2.394534"/>
        <path d="M48.245606 99.322266c-.5625-1.72461-.671875-3.574219-.644044-5.37793m16.173829-52.577149c-1.852539 3.808594-3.582032 7.681153-5.193848 11.597657m-2.259766 50.856446c.142578-.53613.291504-1.07324.431641-1.61035M65.718262 68.75c-1.011719 3.806641-2.059082 7.604492-3.056153 11.415039m9.621582-35.908203c-1.136718 4.071289-2.148437 8.177246-3.284179 12.248535m8.96582-33.460937c-.882813 3.264648-1.722656 6.541992-2.626953 9.800781M56.753418 102.21094c.431641-1.57324.849121-3.15137 1.267578-4.728518m10.978516-40.977051c-1.113281 4.076172-2.147461 8.174317-3.28125 12.244629m9.620117-35.904785c-.994141 3.810058-2.045899 7.605469-3.054688 11.411621M58.020996 97.482422c.660156-2.508789 1.367676-5.006836 2.013672-7.519531m0 0c.91748-3.25293 1.755859-6.532227 2.627441-9.797852m17.132325-21.51709c-.551758 4.188477-1.285157 8.338867-2.036133 12.494629M68.812988 99.62793c1.293946-2.333985 2.302735-4.789063 3.261719-7.274414m9.116211-68.667969c.280273 3.455566.424805 6.930176.380859 10.397461m-.475586 11.92334c-.307617 4.226562-.756835 8.438964-1.301757 12.641601M62.730469 105.08594c1.053223.14941 2.077148-.45606 2.835449-1.12696m16.005859-69.875972c.021485 3.975586-.201172 7.958984-.475586 11.92334M65.565918 103.95898c1.368164-1.16699 2.378906-2.77636 3.24707-4.33105m8.945313-28.485352c-.771485 3.858398-1.634766 7.689453-2.633789 11.496094m-3.049805 9.714844c1.195312-3.174805 2.179687-6.4375 3.049805-9.714844m15.101562-23.389649c-.047851 4.200684-.30664 8.39502-.834961 12.563477m-5.082031-47.947754c1.362305 3.438477 2.429687 6.968262 3.286133 10.564942m-3.886719 58.595703c1.458984-3.106446 2.579102-6.374024 3.459961-9.688477m.426758-48.907227c.895508 3.990235 1.566406 8.002442 2.016601 12.066895M69.966309 105.48535c1.449218-.08203 2.803711-.40625 4.117187-1.0332m5.161133-4.22266c1.817383-2.189451 3.243164-4.641599 4.463867-7.204099m5.90332-46.528809c.447266 4.234863.649415 8.494141.614258 12.752441M89.391113 71.8125c-.475586 3.879883-1.200195 7.75-2.222656 11.524414M74.083496 104.45215c2.016602-1.01367 3.709961-2.50684 5.161133-4.22266m14.90625-8.300779c1.693359-3.061523 2.90625-6.364258 3.827148-9.732422m-.722656-36.500976c1.101563 4.138671 1.831055 8.320312 2.329102 12.571289M81.725098 103.64844c2.55664-.9541 4.914062-2.52051 6.878906-4.405276m11.226562-28.525391c-.280273 3.881836-.868164 7.711915-1.852539 11.478516m-10.87207-58.625977c2.286133 3.221192 4.267578 6.688477 5.889648 10.290528m-4.391601 65.382324c2.261719-2.118164 4.004883-4.643555 5.546875-7.314453m5.433594-33.662109c.439457 4.121093.551757 8.316406.246093 12.451171m-6.83496-36.856933c1.805664 3.774902 3.162109 7.802246 4.259765 11.834472M78.896973 104.48438c.959961-.21192 1.912109-.47754 2.828125-.83594m14.529297-6.900393C98.794434 94.542969 100.91064 92 102.68115 89.142578M90.459473 100.54199c2.079101-1.055662 4.001953-2.301756 5.794922-3.793943m6.426755-7.605469c1.84668-3.041992 3.21973-6.388672 4.12696-9.827148m-9.392583-46.895508c2.366211 3.5625 4.418943 7.296387 6.086913 11.236328m3.73242 12.109863c.79785 3.990723 1.2295 8.093262 1.12696 12.165528m0 0c-.07715 3.830078-.53614 7.683593-1.55371 11.383789m-3.30567-35.65918c1.59766 3.947266 2.82715 7.94873 3.73242 12.109863M89.390137 22.825195c3.013672 2.909668 5.643554 6.155274 8.02539 9.594727m11.306643 52.43164c1.97363-3.066406 3.375-6.470703 4.34375-9.977539m1.34082-11.22998c.05762 3.788574-.36914 7.565918-1.34082 11.22998M91.010254 21.677246c3.482422 2.449219 6.701172 5.344727 9.532226 8.522461m4.29395 59.70459c1.45117-1.547852 2.76464-3.250977 3.88574-5.052734m-.79981-44.333008c2.04004 3.578613 3.60254 7.445801 4.7295 11.403808m-12.10938-21.722656c2.83203 3.149414 5.32129 6.617187 7.37988 10.318848m4.7295 11.403808c1.06152 3.810547 1.70019 7.762207 1.75488 11.72168m-4.1836-27.150391c2.18165 3.20752 4.08692 6.785157 5.24512 10.499512M91.854004 20.203613c3.702148 1.971192 7.174805 4.370606 10.314456 7.151856m0 0c3.04687 2.691406 5.78027 5.766601 8.05468 9.138183m5.24512 10.499512c1.18457 3.620606 1.92871 7.341309 2.0791 11.15332M102.18115 24.07666c3.04199 2.196289 5.75879 4.822754 8.06348 7.781738M91.859863 18.505859c3.65625 1.391114 7.160157 3.264161 10.321287 5.570801m8.06348 7.781738c2.21191 2.874512 3.99121 6.057618 5.25 9.46045m0 0c.45801 1.260742.85449 2.544922 1.16406 3.850097m-8.67578-18.240234c.5127.617187.99219 1.258789 1.44922 1.91748M91.032715 16.700684c3.344726.847168 6.596679 2.090332 9.550785 3.889648m0 0c2.79492 1.661621 5.33496 3.824707 7.39941 6.338379m-10.503906-9.796387c1.402344.689942 2.716796 1.58252 3.894536 2.60791m-11.94727-4.827148c2.787109.26123 5.546875.952637 8.052734 2.219238m-10.329102-3.872558c1.998047-.249512 4.0625-.089356 5.935547.680664m0 0c.375977.155761.738281.339843 1.091797.541992m-9.81543-2.625977c.969727-.554687 2.220704-1.009765 3.332032-.625976m0 0 .086914.028808m-6.535156-.460937c.151367-.535156.285156-1.0766604.43457-1.6103518M75.447754 7.948731l-.087891-.016602m2.66211 2.224609c-.567383-.9575192-1.416016-1.9941403-2.574219-2.2080075m-.543945 2.027832c-1.632813-1.1928711-3.453125-2.109375-5.477539-2.3754883m-1.217774-.0771484c.407227.0009766.813477.0249023 1.217773.0771484m-5.404296.565918c2.80957.1972656 5.529297.9243164 8.084961 2.1040038M59.344238 8.4770508c1.539063-.296875 3.112793-.3999023 4.677735-.3100586M31.429199 87.938477c.896485 1.09082 1.915039 2.105468 2.979004 3.033203m0 0c1.929688 1.704101 4.032227 3.157226 6.21582 4.514648m7.621583 3.835938c2.797851 1.106444 5.608886 2.081054 8.507812 2.888674m24.97168 1.4375c1.386718-.24512 2.773437-.65332 4.094726-1.13574m-11.736328 1.93945c2.56543-.08496 5.124023-.27637 7.641602-.80371"/>
        <path d="M56.753418 102.21094c2.897949.76172 5.837891 1.37793 8.8125 1.74804m0 0c2.788086.44239 5.701172.55762 8.517578.49317m-33.459473-8.965822c2.456055 1.469727 5.009766 2.679688 7.621582 3.835938M25.27832 77.730469c1.496582 2.242187 3.383301 4.183594 5.373535 5.988281m-7.575683-10.160156c.560547 1.473633 1.314453 2.870117 2.202148 4.171875m53.966309 22.499021c3.142578-.08887 6.277344-.345701 9.359375-.986326m-19.791016.384766c3.472656.40234 6.933594.64941 10.431641.60156m-21.223633-2.747068c3.544434.97168 7.15625 1.632812 10.791992 2.145508m-21.211426-5.683594c3.410157 1.375 6.865723 2.585937 10.419434 3.538086M30.651856 83.71875c2.340332 2.089844 4.929687 3.910156 7.613281 5.530273m0 0c3.021972 1.769532 6.122558 3.306641 9.336426 4.695313m48.652832 2.803711c1.421875-.69043 2.754882-1.524414 3.989255-2.510742m-11.639646 5.005859c2.644531-.475586 5.21875-1.368164 7.650391-2.495117M29.510254 74.610352c2.617676 2.324218 5.492187 4.371093 8.493652 6.168945m0 0c3.323731 2.019531 6.829102 3.728515 10.411133 5.236328m60.307131-1.164063c.61426-.645507 1.16504-1.353515 1.64355-2.105468M23.513672 67.929688c1.693848 2.499023 3.774902 4.651367 5.996582 6.680664m64.640625 17.318359c2.956055-.633789 5.783203-1.518555 8.530271-2.786133m-54.266111-3.126953c3.783692 1.564453 7.662598 2.892578 11.619629 3.947266m42.646482-.820313c2.22364-1.082031 4.34864-2.47168 6.04102-4.291016m-25.013674 8.173829c3.490234-.056641 7.025391-.366211 10.442383-1.09668m-22.076172.424805c3.851562.509765 7.749023.745117 11.633789.671875M20.424805 61.196777c.55664 2.420899 1.706543 4.684082 3.088867 6.732911m36.520996 22.033203c3.922363 1.101562 7.994141 1.909179 12.040039 2.390625M20.055176 58.549805c.040039.893066.169433 1.776367.369629 2.646972"/>
      </g>
      <path d="M117.54736 58.146484c.13672 3.708496-.25097 7.452637-1.22949 11.036133m-65.687499 6.891602c-3.710937-1.514649-7.363281-3.317383-10.77832-5.418946m58.125976 11.541016c-3.560547.759766-7.18164.999023-10.80957 1.140625m-12.043945-.698242c-4.209961-.573242-8.351563-1.404297-12.462403-2.473633"/>
      <path d="M87.168457 83.336914c-4.02832.03711-8.047852-.169922-12.043945-.698242m-12.462403-2.473633c-4.084472-1.145508-8.11914-2.44043-12.031738-4.09082m65.687499-6.891602c-.57129 2.137695-1.73633 4.087891-3.25195 5.691406m-6.25781 4.441407c-2.75879 1.34082-5.80567 2.353515-8.830083 2.880859m15.087893-7.322266c-1.76465 1.88379-3.95313 3.307618-6.25781 4.441407M21.680664 43.824707c-.571289 2.146973-.529297 4.400391-.027344 6.556152m0 0c.590332 2.522461 1.781739 4.823243 3.197754 6.974121m15.000977 13.300293c-3.095703-1.897461-6.072754-3.976074-8.793457-6.387695m-6.20752-6.912598c1.779297 2.552735 3.869629 4.858399 6.20752 6.912598"/>
      <path stroke-width=".4" d="M99.830566 70.717773c-3.439453.666016-6.933593 1.055665-10.439453 1.094727M43.687012 59.566894c-2.991211-1.831543-5.863282-3.841796-8.493653-6.167968m0 0c-2.23291-2.000488-4.312988-4.19043-5.996582-6.679688m24.901368 18.083985c-3.591309-1.481446-7.083497-3.231934-10.411133-5.236328m70.719728 4.077148c-1.71289 1.817871-3.81641 3.186035-6.04492 4.287598M26.107422 39.984863c.568848 2.427735 1.712402 4.670899 3.089355 6.734375M89.391113 71.8125c-3.883789.089844-7.782226-.171875-11.632812-.669922M65.718262 68.75c-3.956543-1.037109-7.845215-2.374512-11.620117-3.946777m23.660156 6.339355c-4.054688-.597656-8.084961-1.297851-12.040039-2.392578m51.829098-10.603516c-.55664 2.077149-1.68554 3.927735-3.14062 5.497559"/>
      <path stroke-width=".4" d="M26.135254 33.650879c-.563965 2.070312-.503906 4.253906-.027832 6.333984m1.421387-9.555664c-.614258 1.00586-1.078614 2.086426-1.393555 3.22168m91.817386 21.007812c.03613 1.169434-.09473 2.359375-.40528 3.487793m-9.18554 9.785157c-2.69825 1.303711-5.59668 2.197265-8.531254 2.786132M58.581543 52.964844c-3.208008-1.345215-6.371094-2.870117-9.335449-4.696289M36.328125 20.105469c-1.312988 1.404297-2.309082 3.069336-2.816894 4.929199m-.000001 0c-.49414 1.871582-.447265 3.798828-.024902 5.678711m46.308106 27.93457c-3.646485-.501953-7.232422-1.217773-10.794922-2.142578m0 0c-3.541992-.983887-7.02002-2.132812-10.417969-3.540527m-9.335449-4.696289c-2.699707-1.607422-5.249024-3.462891-7.614746-5.529297m-5.375-5.988281c-1.243164-1.847657-2.250489-3.863282-2.77002-6.037598m4.115723-11.812012c-.445801.378418-.873535.777344-1.273926 1.204102m5.303223 22.633789c-1.999024-1.801758-3.859864-3.75586-5.375-5.988281m53.969726 22.498046c-3.491211.071289-6.967773-.18164-10.43164-.601074m19.790039-.381347c-3.092774.592773-6.208985.922851-9.358399.982421m22.425786-7.32666c-1.48926 1.623536-3.42872 2.916016-5.417 3.84375m0 0c-2.39941 1.205078-5.03125 1.95459-7.650387 2.500489m15.883787-11.273438c-.46094 1.841797-1.51172 3.563965-2.8164 4.929199m2.33984-12.282226c.2041.547363.37109 1.109863.50293 1.678711m0 0c.43555 1.848144.49023 3.835937-.02637 5.674316m-7.5459-6.474609c-1.23925 1.329101-2.79394 2.345215-4.41992 3.137695m6.74219-11.797852c.33984 1.535645.38672 3.106934-.02149 4.635254m-3.52343-11.268554c.45117.550781.88672 1.111816 1.2832 1.703613m2.24023 9.564941c-.39355 1.513184-1.23339 2.892578-2.30078 4.024903m.06055-13.589844c1.03418 1.498535 1.82031 3.162109 2.26172 4.929687M49.936035 33.01709c-1.648926-1.4375-3.160644-3.07666-4.389648-4.88916m4.481933-16.729981c.641114-.307617 1.295411-.583496 1.960938-.833984M103.50244 43.65625c-1.96777.95166-4.100585 1.630859-6.247069 2.039062M45.546387 28.12793c-1.015625-1.510254-1.834473-3.153809-2.262207-4.929688m2.319824-8.659668c-1.068359 1.143067-1.892578 2.507813-2.299316 4.024903m-.020508 4.634765c-.34961-1.533203-.37793-3.10791.020508-4.634765m12.847167 18.971191c-2.183593-1.345703-4.300293-2.805176-6.21582-4.517578m.092285-21.619141c-1.632812.802735-3.169433 1.8125-4.424316 3.140625m18.171387 26.828613c-2.628907-1.094726-5.179688-2.370117-7.623536-3.832519m33.459961 8.961914c-2.838867.049316-5.702148-.094727-8.515625-.490234m16.15918-.311035c-2.490234.548828-5.097656.774414-7.643555.801269m-8.515625-.490234c-2.96289-.313477-5.941406-.965821-8.8125-1.749512m0 0c-2.89746-.784668-5.730468-1.750977-8.5083-2.889648M56.436523 21.44043c-.724121-1.056641-1.306152-2.235352-1.601562-3.48584m4.703613 6.942871c-1.154785-1.026367-2.245117-2.166504-3.102051-3.457031m7.497559 6.65039c-1.54541-.954101-3.033203-1.988769-4.395508-3.193359m15.799805 7.947754c-2.045899-.542969-4.05957-1.227051-6.012695-2.043457m0 0c-1.853516-.803223-3.652344-1.680664-5.391602-2.710938m23.661133 6.338867c-2.017578.040528-4.021485-.112793-6.023438-.346679m0 0c-2.100586-.270508-4.188476-.685059-6.233398-1.237793m17.657227 1.015625c-1.766602.378906-3.595704.541504-5.400391.568848M64.021973 8.1669922c1.776367-.3540039 3.592773-.5463867 5.404297-.565918M59.603516 9.609375c1.411621-.6650391 2.892578-1.1240234 4.418457-1.4423828M59.603516 9.609375c-1.14502.571777-2.250977 1.270996-3.124024 2.219238m-1.629394 2.84668c.284179-1.067383.868164-2.050293 1.629394-2.84668m-1.644531 6.125977c-.250977-1.083008-.265625-2.201172.015137-3.279297m38.235351-.734863c1.552735.929199 3.040039 1.990234 4.393555 3.191894M69.42627 7.6010742c2.003906-.0493164 4.036132.0693359 6.021484.3476562m12.246094 3.2817386c1.861328.768554 3.663086 1.677246 5.391601 2.709961M75.447754 7.9487305c2.032227.2543945 4.060547.6508789 6.037109 1.1860352m15.994141 7.9975583c1.15918 1.029297 2.236328 2.169922 3.104496 3.458008m-3.167973 11.82959c-1.395507.676758-2.90039 1.14209-4.419922 1.440918M81.872559 9.2382812c1.978515.5390625 3.93164 1.1948238 5.821289 1.9921878m12.848632 18.969238c-.878906.937012-1.973632 1.665527-3.126953 2.220215m4.752933-5.064453c-.28418 1.069824-.87012 2.041015-1.62598 2.844238m1.63867-6.123047c.26367 1.053711.28906 2.229981-.01269 3.278809m-1.58496-6.765137c.71191 1.06543 1.3125 2.229492 1.59765 3.486328m-30.118162-3.492676c-.804687-.484863-1.571289-1.032226-2.276367-1.65332m5.064453 3.057129c-.958008-.40625-1.898437-.861328-2.788086-1.403809m12.246094 3.280762c-1.041992.019043-2.084961-.044434-3.118164-.179199m-11.404297-4.754883c-.603515-.53125-1.151367-1.126953-1.608398-1.789062m13.012695 6.543945c-1.087891-.143067-2.166016-.355957-3.225586-.641113m9.140625.525878c-.911133.201661-1.865234.28418-2.796875.294434m5.081055-1.039551c-.71875.350098-1.499024.595215-2.28418.745117M68.20166 12.167481c.452149-.486817 1.022461-.864747 1.620117-1.149903m-2.461914 2.621094c.145508-.550781.448242-1.061524.841797-1.471192m-.849609 3.169434c-.132813-.552246-.144531-1.148437.007812-1.698242"/>
      <path stroke-width=".4" d="M68.178223 17.141602c-.366211-.556153-.671875-1.153321-.826172-1.804688m10.613281 7.70752c-1.063477-.28125-2.09375-.650391-3.114258-1.056641m9.510742-10.131348c.960938.396485 1.900391.862305 2.788086 1.403321m-9.127929-3.103028c1.083007.148926 2.172851.336914 3.223632.641602m.000001 0c1.0625.279785 2.098632.643554 3.11621 1.058105m-9.458007-1.8798825c1.043945-.0107422 2.083007.0483395 3.118164.1801755m-5.915039.114258c.920898-.19043 1.858398-.268066 2.796875-.2944335m-5.082032 1.0410155c.72168-.351074 1.499024-.587891 2.285156-.746582m19.75293 8.234863c.131836.553711.145508 1.145508-.005859 1.697754m-.821289-3.502929c.375976.548339.671875 1.157714.827148 1.805175m-.849609 3.171387c-.458984.48291-1.019531.862793-1.620117 1.147949m-2.240235-9.565429c.800781.489257 1.579102 1.023437 2.276367 1.65332m2.427735 5.290527c-.151367.555664-.451172 1.054688-.84375 1.473633m-1.583984-6.76416c.598632.530762 1.161132 1.120117 1.606445 1.787598M59.603516 9.609375c3.461425-.0546875 6.894043.45459 10.218261 1.408203m-19.793457.380371c3.061524-1.141601 6.312012-1.7187498 9.575196-1.788574m-11.934082 2.793457c.772461-.369141 1.560547-.696777 2.358886-1.004883"/>
    </g>
    <path fill="url(#D)" d="M26.3208 69.181641c7.00098-26.129883-8.50781-52.992188-34.639648-59.9956059C-34.454102 2.1850585-61.31543 17.693359-68.317871 43.82666c-7.000488 26.131348 8.508789 52.993652 34.639648 59.99463 26.133789 7.00195 52.993163-8.504884 59.999023-34.639649z" opacity=".6"/>
  </g>
  <g transform="translate(-.000488 -3.323926)">
    <path fill="#80b3ff" d="M87.859863 38.876465c-10.858398-5.450684-23.308105-8.069824-35.441894-7.17627-11.851563.872559-24.895508 5.471192-31.499024 15.995606-.731933 1.166015-1.349121 2.389648-1.867187 3.649414-.13916 3.162598.018555 6.294433.466797 9.361816.492676-1.800781 1.15918-3.558105 2.04834-5.224121 2.774902-5.200195 7.267578-9.294433 12.380371-12.143555 10.407715-5.799804 23.081054-6.751464 34.633301-4.572753 11.745117 2.215332 23.235351 7.831543 31.391601 16.6875 6.980472 7.578613 11.241212 18.02539 9.020512 28.05664 1.83007-2.436523 3.45605-5.055664 4.83398-7.850586.38574-3.706054-.03906-7.509277-1.25879-11.149414-3.88672-11.62207-14.05078-20.284179-24.708007-25.634277z" opacity=".1"/>
    <path fill="#fff" d="m114.90011 54.343502-4.28732-.859127c-.64258-.78418-1.30859-1.549805-1.99316-2.297852-.67676-.737304-1.37207-1.458007-2.08203-2.162109-.70313-.695313-1.4209-1.375-2.14942-2.040039-.71972-.658203-1.45214-1.301758-2.19043-1.932617l2.11036-2.386719-4.495122-3.032227-4.580078.731446c-.850586-.517579-1.714844-1.018555-2.589844-1.504883-.86914-.481446-1.75-.949219-2.639648-1.403321-.885742-.452148-1.78125-.890625-2.683594-1.315429-.897461-.423828-1.803711-.834961-2.71582-1.236328l-.140625-2.833008-5.044922-1.722656-2.709961 1.948242c-.939453-.270508-1.888672-.524414-2.844726-.763672-.956055-.238281-1.921875-.461914-2.896485-.670898-.976562-.209961-1.96289-.405274-2.958008-.588868-.99707-.182617-2.004883-.353515-3.020996-.510742L62.775879 26.875l-5.336914-.430664-.702149 2.826172c-1.023925-.019531-2.037597-.016602-3.042968.004883-1.012696.02246-2.017578.065429-3.016114.124023-1.006347.060547-2.007324.138672-3.003418.232422-1.004394.094726-2.004882.204101-3.002441.327148l-4.45752-2.554687-5.360351 1.117187 1.84082 3.421875c-.962402.295899-1.909668.616211-2.843262.958985-.946777.347656-1.879882.719726-2.801757 1.112304-.935547.399414-1.859375.819336-2.773438 1.262696-.928711.448242-1.847168.920898-2.758301 1.410156l-3.346679-.69043c-.553223 1.484863-1.047364 3.00586-1.465821 4.567383-.961425 3.589355-1.493652 7.19043-1.652832 10.755859 1.166504-2.799804 2.825684-5.322754 4.868164-7.538086 2.888672-3.132812 6.5542-5.691406 10.6875-7.632812 3.872559-1.818359 8.212891-3.121094 12.821778-3.867188 4.402344-.711914 9.133301-.92871 14.073242-.59082 4.824219.330078 9.517578 1.167969 13.955078 2.408203 4.448242 1.241211 8.748047 2.917969 12.736328 4.946289 4.091797 2.082032 7.948242 4.583008 11.361328 7.435547 3.583008 2.995117 6.758788 6.447266 9.243168 10.298828 2.67285 4.144532 4.54256 13.887692 4.94824 9.637696z" opacity=".2"/>
  </g>
  <path fill="url(#E)" d="M38.179199 24.729785c-2.617187.461426-4.4375 3.271484-4.070312 6.363281.096191.813477 2.695312 20.014649 31.558105 27.000488 2.610352.631836 5.15918-1.351562 5.69336-4.429687.537109-3.078125-1.144531-6.084961-3.753906-6.716797-21.645996-5.238769-23.88086-17.081055-23.965332-17.583008l.020508.152832c-.414551-3.083008-2.864747-5.247558-5.482423-4.787109z" filter="url(#F)" opacity=".72"/>
  <use xlink:href="#G" fill-rule="evenodd" filter="url(#a)" transform="matrix(.2776 .11474 -.11474 .2776 61.671277 27.627551)"/>
  <use xlink:href="#G" id="H" fill-rule="evenodd" filter="url(#a)" opacity=".8" transform="matrix(.2776 .11474 -.11474 .2776 49.671277 75.627551)"/>
  <use xlink:href="#H" width="128.00049" height="131.50488" transform="translate(5 -22)"/>
  <g fill="#fff" fill-rule="evenodd">
    <use xlink:href="#I" filter="url(#a)" transform="rotate(22.456 -97.38939183 198.77098752) scale(.4517)"/>
    <use xlink:href="#I" filter="url(#a)" transform="matrix(.3009 .12437 -.12437 .3009 92.627674 39.40858)"/>
    <use xlink:href="#I" filter="url(#a)" opacity=".8" transform="matrix(.2776 .11474 -.11474 .2776 88.671277 82.627551)"/>
  </g>
  <path fill="none" stroke="url(#J)" stroke-linecap="round" stroke-linejoin="round" stroke-width="1.521561" d="M214.60691 55.521553a39.59798 30.759146 0 1 1-79.19596 0 39.59798 30.759146 0 1 1 79.19596 0z" filter="url(#K)" opacity=".5" transform="matrix(1.1585 0 0 1.49136 -133.74741 -32.759695)"/>
  <path fill="url(#L)" d="M25.783264 34.193848c-1.794129 1.279785-3.432743 2.708437-4.877014 4.274902-3.132384 3.3974-5.36865 7.504883-6.28125 12.25-1.00049 5.202147-.29688 10.594726 2.03125 15.90625 2.0252 4.620597 5.26003 9.061413 9.5 13.09375-3.2593-3.479655-5.80652-7.22998-7.5-11.09375-2.32813-5.311524-3.03174-10.704103-2.03125-15.90625.9126-4.745117 3.148866-8.8526 6.28125-12.25 1.444271-1.566465 3.082885-2.995117 4.877014-4.274903 1.794129-1.279785-.205872-3.279784-2-1.999999z" filter="url(#M)" opacity=".630841"/>
  <g fill="none">
    <path stroke="url(#N)" d="M81 119.25h-.5l-5.75-12.5-4.75.5" filter="url(#O)"/>
    <path stroke="url(#P)" d="M32.25 109.25v.25L36 97l-5.5-4v-.25" filter="url(#Q)"/>
    <path stroke="url(#R)" stroke-linecap="round" d="m116.84939 103.7816-9.19238-6.540745-3.00521 1.944544" filter="url(#S)"/>
  </g>
</svg>