<?xml version="1.0" encoding="UTF-8" standalone="no"?>
<!-- Created with Inkscape (http://www.inkscape.org/) -->
<svg height="128" width="128" xmlns="http://www.w3.org/2000/svg" xmlns:xlink="http://www.w3.org/1999/xlink">
  <defs>
    <clipPath id="XMLID_27_">
      <path d="m38.888 60.156c-3.956.962-4.937-.241-6.243-1.392-.473.212-.664.671-.573.958-.052.038-.11.08-.162.117.857 1.243 3.056 2.641 7.495 1.549 4.437-1.089 5.489-3.073 5.564-4.685-.034-.003-.442-.324-.477-.329-.063-.29-.45-.59-.953-.537.038 1.475-.725 3.368-4.651 4.319zm7.008-3.056c2.162.191 4.397-.046 6.814.176-2.404-.376-4.871-.563-7.125-.786.068.078.292.524.311.61zm-19.727 6.879c1.674-1.149 3.317-2.231 4.792-3.267-.019-.058-.014-.117-.01-.184-1.521 1.082-3.168 2.221-4.782 3.451z"/>
    </clipPath>
    <clipPath id="XMLID_24_">
      <path d="m38.885 60.157c3.926-.951 4.688-2.845 4.651-4.319.503-.053.89.247.954.537 2.949.327 6.437.512 9.64 1.142 1.185.234 2.796 1.485 3.329 2.235 1.623 2.283 3.618 5.576 3.618 5.576l-.378.795c-4.897 4.916-12.876 7.041-17.94 8.492-5.113 1.467-13.297 3.98-20.348 2.361l-.771-.496s.119-4.034.423-6.949c.099-.956.93-2.935 1.897-3.773 2.596-2.251 5.649-4.231 8.11-6.035-.091-.288.1-.746.572-.958 1.305 1.148 2.286 2.353 6.243 1.392z"/>
    </clipPath>
    <clipPath id="XMLID_13_">
      <polygon points="42.755 41.565 41.509 36.648 39.787 34.217 37.599 34.059 34.623 35.841 31.916 37.073 28.747 36.378 26.69 36.883 25.761 39.162 25.821 42.403 26.423 44.375 26.48 45.141 27.995 38.75 32.055 39.217 34.719 38.623 38.207 35.794 42.755 41.565"/>
    </clipPath>
    <mask id="mask3287_1_" height="12.348" maskUnits="userSpaceOnUse" width="16.052" x="26.941" y="42.718">
      <path d="m-85.441 220.982c3.821-1.36 8.827-.632 11.122 1.731 2.333 2.398 3.068 6.059 3.26 10.554.191 4.503-1.674 10.03-2.792 12.219-1.064 2.075-3.012 2.575-4.212 3.028-.063.025-.15.058-.214.089-1.189.52-3.007 1.559-4.887.671-1.989-.94-6.263-4.06-8.336-7.889-2.08-3.834-3.286-7.387-2.517-11.054.754-3.588 4.561-7.72 8.361-9.266z"/>
    </mask>
    <clipPath id="XMLID_7_">
      <path d="m29.322 49.31c1.31 2.546 4.566 8.176 2.931 10.161.953 2.556 3.696 2.87 6.885 2.615l.573-.156c2.859-1.397 5.032-3.041 4.581-5.701-2.367-.894-2.374-7.325-2.515-10.141l-5.451 4.359z"/>
    </clipPath>
    <filter id="AI_Sfocatura_3">
      <feGaussianBlur stdDeviation="3"/>
    </filter>
    <clipPath id="XMLID_6_">
      <polygon points="59.364 62.525 21.507 73.025 9.969 30.025 48.198 20.903 59.364 62.525"/>
    </clipPath>
    <filter id="filter3871">
      <feGaussianBlur stdDeviation=".96824498"/>
    </filter>
    <linearGradient id="linearGradient4533" gradientUnits="userSpaceOnUse" x1="181.300589" x2="166.682745" y1="-184.8469" y2="-225.110089">
      <stop offset="0"/>
      <stop offset="1" stop-opacity="0"/>
    </linearGradient>
    <linearGradient id="linearGradient5172" gradientUnits="userSpaceOnUse" x1="-2.3618" x2="113.8633" y1="14.7935" y2="80.339">
      <stop offset="0" stop-color="#6193cf"/>
      <stop offset="1" stop-color="#00438a"/>
    </linearGradient>
    <linearGradient id="linearGradient5174" gradientUnits="userSpaceOnUse" x1="37.5928" x2="79.7729" y1="83.54" y2="28.1787">
      <stop offset=".142" stop-color="#fff"/>
      <stop offset="1" stop-color="#97b7de"/>
    </linearGradient>
    <linearGradient id="linearGradient5176" gradientTransform="matrix(.9659 -.2588 .2588 .9659 -39.9559 22.1927)" gradientUnits="userSpaceOnUse" x1="130.86386" x2="25.416126" y1="-18.761747" y2="119.6132">
      <stop offset="0" stop-color="#fff"/>
      <stop offset=".53992009" stop-color="#d6e1f2"/>
      <stop offset=".601" stop-color="#e7edf7"/>
      <stop offset=".6907" stop-color="#f4f7fc"/>
      <stop offset=".8022" stop-color="#fdfdfe"/>
      <stop offset="1" stop-color="#fff"/>
    </linearGradient>
    <linearGradient id="lg1">
      <stop offset="0" stop-color="#bbb"/>
      <stop offset="1" stop-color="#555"/>
    </linearGradient>
    <linearGradient id="linearGradient5178" gradientTransform="matrix(.9659 -.2588 .2588 .9659 -39.9559 22.1927)" gradientUnits="userSpaceOnUse" x1="94.3052" x2="94.3052" xlink:href="#lg1" y1="79.957" y2="76.0303"/>
    <linearGradient id="lg2">
      <stop offset="0" stop-color="#2c72c7"/>
      <stop offset="1" stop-color="#6193cf"/>
    </linearGradient>
    <radialGradient id="radialGradient5180" cx="137.5122" cy="27.79" gradientTransform="matrix(.9659 -.2585 .2588 .9647 -39.9559 22.3802)" gradientUnits="userSpaceOnUse" r="10.8504" xlink:href="#lg2"/>
    <radialGradient id="radialGradient5182" cx="159.6626" cy="95.0615" gradientTransform="matrix(.9659 -.2585 .2588 .9647 -39.9559 22.3802)" gradientUnits="userSpaceOnUse" r="99.9068" xlink:href="#lg2"/>
    <radialGradient id="radialGradient5184" cx="101.9858" cy="8.9951" gradientTransform="matrix(.9659 -.2585 .2588 .9647 -39.9559 22.3802)" gradientUnits="userSpaceOnUse" r="94.7578" xlink:href="#lg2"/>
    <linearGradient id="linearGradient5186" gradientUnits="userSpaceOnUse" x1="33.1323" x2="85.5488" y1="12.7896" y2="70.9897">
      <stop offset=".0473" stop-color="#fff"/>
      <stop offset=".142" stop-color="#fff"/>
      <stop offset=".8876" stop-color="#fff" stop-opacity=".151899"/>
    </linearGradient>
    <linearGradient id="linearGradient5188" gradientTransform="matrix(.9659 -.2588 .2588 .9659 -39.9559 22.1927)" gradientUnits="userSpaceOnUse" x1="65.8462" x2="65.8462" y1="65.0088" y2="20.4868">
      <stop offset="0" stop-color="#a4c0e4"/>
      <stop offset="1" stop-color="#6193cf"/>
    </linearGradient>
    <linearGradient id="lg3">
      <stop offset="0" stop-color="#f9ede0"/>
      <stop offset=".5" stop-color="#f9ede0"/>
      <stop offset="1" stop-color="#f9ede0"/>
    </linearGradient>
    <radialGradient id="radialGradient5190" cx="637.4136" cy="-596.9321" fx="637.1304" fy="-596.0205" gradientTransform="matrix(-.6727 .1803 -.3077 -1.1485 287.92 -745.9004)" gradientUnits="userSpaceOnUse" r="6.3709" xlink:href="#lg3"/>
    <radialGradient id="radialGradient5192" cx="9.5967" cy="-597.6265" fx="9.3135" fy="-596.7148" gradientTransform="matrix(.6727 -.1803 -.3077 -1.1485 -157.4767 -627.3771)" gradientUnits="userSpaceOnUse" r="6.3709" xlink:href="#lg3"/>
    <radialGradient id="radialGradient5194" cx="541.4556" cy="-526.6328" fx="543.6491" fy="-527.9299" gradientTransform="matrix(-.9717 .2604 -.3746 -1.3979 363.2421 -834.5762)" gradientUnits="userSpaceOnUse" r="8.7194">
      <stop offset="0" stop-color="#faf0e5"/>
      <stop offset=".5911" stop-color="#f7e7d6"/>
      <stop offset="1" stop-color="#efcfac"/>
    </radialGradient>
    <linearGradient id="linearGradient5196" gradientTransform="matrix(-.9717 .2604 -.2602 -.9711 481.6094 -737.459)" gradientUnits="userSpaceOnUse" x1="630.104" x2="630.104" y1="-636.4556" y2="-644.8918">
      <stop offset="0" stop-color="#fff5e4"/>
      <stop offset=".25" stop-color="#ffecd0"/>
      <stop offset=".5" stop-color="#ffd390"/>
      <stop offset="1" stop-color="#ffc46a"/>
    </linearGradient>
    <linearGradient id="linearGradient5198" gradientTransform="matrix(-.9717 .2604 -.2602 -.9711 395.6875 -715.5312)" gradientUnits="userSpaceOnUse" x1="538.5952" x2="544.256" y1="-648.5151" y2="-643.6176">
      <stop offset="0" stop-color="#f9eee2"/>
      <stop offset="1" stop-color="#f9eee2"/>
    </linearGradient>
    <linearGradient id="lg4">
      <stop offset="0" stop-color="#f1e4d4"/>
      <stop offset="1" stop-color="#f1e4d4"/>
    </linearGradient>
    <radialGradient id="radialGradient5200" cx="98.9614" cy="-419.2529" gradientTransform="matrix(.9717 -.2604 -.6705 -2.5023 -350.7695 -978.8512)" gradientUnits="userSpaceOnUse" r=".3125" xlink:href="#lg4"/>
    <radialGradient id="radialGradient5202" cx="533.6157" cy="-418.7852" gradientTransform="matrix(-.9717 .2604 -.6705 -2.5023 280.2374 -1145.9043)" gradientUnits="userSpaceOnUse" r=".3052" xlink:href="#lg4"/>
    <linearGradient id="lg5">
      <stop offset="0" stop-color="#fff"/>
      <stop offset="1" stop-color="#fff"/>
    </linearGradient>
    <linearGradient id="linearGradient5204" gradientTransform="matrix(-.9717 .2604 -.2602 -.9711 395.8575 -715.5762)" gradientUnits="userSpaceOnUse" x1="541.855" x2="542.288" xlink:href="#lg5" y1="-636.5464" y2="-625.5991"/>
    <radialGradient id="radialGradient5206" cx="-46.3418" cy="367.3662" gradientTransform="matrix(.6495 -.2886 .2185 .4914 -21.1342 -159.3699)" gradientUnits="userSpaceOnUse" r="8.7567">
      <stop offset="0" stop-color="#e5d3c3"/>
      <stop offset="1" stop-color="#e5d3c3"/>
    </radialGradient>
    <linearGradient id="linearGradient5208" gradientTransform="matrix(-.9717 .2604 -.2602 -.9711 396.1817 -715.6631)" gradientUnits="userSpaceOnUse" x1="534.5005" x2="550.5093" y1="-631.605" y2="-631.1187">
      <stop offset="0" stop-color="#765c44"/>
      <stop offset="1" stop-color="#765c44"/>
    </linearGradient>
    <linearGradient id="linearGradient5210" gradientTransform="matrix(-.9717 .2604 -.2602 -.9711 395.6875 -715.5312)" gradientUnits="userSpaceOnUse" x1="543.6343" x2="539.9718" xlink:href="#lg5" y1="-639.5684" y2="-624.5113"/>
    <linearGradient id="linearGradient5212" gradientTransform="matrix(-.9717 .2604 -.2602 -.9711 396.5078 -715.75)" gradientUnits="userSpaceOnUse" x1="553.0991" x2="547.8134" y1="-633.7578" y2="-627.0914">
      <stop offset="0" stop-color="#dfcbba"/>
      <stop offset="1" stop-color="#dfcbba"/>
    </linearGradient>
    <linearGradient id="linearGradient5214" gradientTransform="matrix(-.5215 .1397 -.4849 -1.8095 421.0228 -618.4471)" gradientUnits="userSpaceOnUse" x1="992.439" x2="994.5103" y1="-288.4277" y2="-288.4277">
      <stop offset="0" stop-color="#e2e2e2"/>
      <stop offset="1" stop-color="#fff"/>
    </linearGradient>
    <linearGradient id="linearGradient5216" gradientTransform="matrix(-.9717 .2604 -.2602 -.9711 395.6875 -715.5312)" gradientUnits="userSpaceOnUse" x1="542.5454" x2="542.5454" y1="-668.3311" y2="-647.1423">
      <stop offset="0" stop-color="#f4f5f8"/>
      <stop offset="1" stop-color="#fdfdfe"/>
    </linearGradient>
    <linearGradient id="lg6">
      <stop offset="0" stop-color="#c8cddc"/>
      <stop offset="1" stop-color="#c8cddc"/>
    </linearGradient>
    <linearGradient id="linearGradient5218" gradientTransform="matrix(-.9717 .2604 -.2602 -.9711 395.6875 -715.5312)" gradientUnits="userSpaceOnUse" x1="526.7778" x2="537.9597" xlink:href="#lg6" y1="-661.9902" y2="-654.3517"/>
    <linearGradient id="linearGradient5220" gradientTransform="matrix(-.9717 .2604 -.2602 -.9711 478.1446 -737.625)" gradientUnits="userSpaceOnUse" x1="629.0796" x2="647.7717" y1="-659.3828" y2="-659.3828">
      <stop offset="0" stop-color="#8d97b7"/>
      <stop offset="1" stop-color="#8d97b7"/>
    </linearGradient>
    <linearGradient id="linearGradient5222" gradientTransform="matrix(-.9717 .2604 -.2602 -.9711 395.6875 -715.5312)" gradientUnits="userSpaceOnUse" x1="538.6392" x2="528.88" y1="-656.9507" y2="-649.6656">
      <stop offset="0" stop-color="#bbc1d4"/>
      <stop offset="1" stop-color="#bbc1d4"/>
    </linearGradient>
    <linearGradient id="linearGradient5224" gradientTransform="matrix(.9717 -.2604 -.2602 -.9711 -236.8397 -546.5934)" gradientUnits="userSpaceOnUse" x1="88.1899" x2="99.5965" xlink:href="#lg6" y1="-670.5903" y2="-654.339"/>
    <linearGradient id="linearGradient5226" gradientTransform="matrix(-.9717 .2604 -.2602 -.9711 395.6875 -715.5312)" gradientUnits="userSpaceOnUse" x1="537.6001" x2="534.5206" xlink:href="#lg6" y1="-653.8984" y2="-661.0249"/>
    <linearGradient id="linearGradient5228" gradientTransform="matrix(.483 -.1294 -.1294 -.483 119.3406 -236.0107)" gradientUnits="userSpaceOnUse" x1="-331.2505" x2="-328.7769" xlink:href="#lg5" y1="-541.7051" y2="-543.2646"/>
    <linearGradient id="linearGradient5230" gradientUnits="userSpaceOnUse" x1="24.776484" x2="13.334482" y1="72.906998" y2="24.853014">
      <stop offset=".0473" stop-color="#fff"/>
      <stop offset=".8876" stop-color="#fff" stop-opacity="0"/>
    </linearGradient>
    <linearGradient id="linearGradient5232" gradientUnits="userSpaceOnUse" x1="-17.067905" x2="59.12709" xlink:href="#lg1" y1="-7.897728" y2="47.207237"/>
    <linearGradient id="linearGradient5234" gradientUnits="userSpaceOnUse" x1="2.491908" x2="108.06328" y1="47.136581" y2="5.591124">
      <stop offset="0" stop-color="#fff" stop-opacity="0"/>
      <stop offset="1" stop-color="#fff"/>
    </linearGradient>
  </defs>
  <g>
    <g transform="translate(-153.14299 298.54036)">
      <path d="m278.8954-214.76552-24.76797-34.39781c-.62039-.89499-2.44809-1.27699-4.07391-.85299l-92.27717 24.21087c-2.62436.89999-3.96067 2.72098-3.56579 3.49798l17.74377 40.51078c.60563 1.18899 2.8351 1.60899 4.94444.93399l22.66207-5.90797c1.4013-.446 2.4796-1.06299 2.90797-1.58999.79272-.477 1.21814-.963 1.02808-1.30399-.3161-.571-2.20781-.518-4.21375.117-2.01579.63799-4.17929.22599-4.80067-.919-.34466-.631-.129-1.35399.46086-1.98099.35452-.213.75728.602 1.21322.457l14.34193-4.46197c1.93503-.604 4.03059-1.196 4.66871-.09301.35648.615.17134 1.324-.38406 1.93799-.32989.195-.70016.374-1.12458.506-1.35601.432-2.4028 1.028-2.81443 1.53999-.7809.472-1.19942.953-1.0074 1.293.31808.56699 2.18517.51499 4.13892-.11l34.00841-10.87394c1.23291-.395 2.16448-.941 2.52293-1.416.75629-.44899 1.14133-.92499.93059-1.24899-.33875-.527-2.06601-.497-3.85432.068-1.79717.571-3.81296.173-4.47865-.882-.36436-.58599-.22748-1.24999.2649-1.82099.29149-.17199.61547.67601.98771.56201l12.79782-3.98598c1.73021-.538 3.6879-1.146 4.36344-.12401.37618.57.2649 1.222-.20286 1.78299-.26884.156-.56623.301-.90991.41-1.19844.38-2.10146.911-2.44809 1.37499-.74644.443-1.12459.913-.91188 1.238.33974.521 2.04631.489 3.79031-.067l15.50295-4.95497c.73068-.234 1.28313-.614 1.62878-1.044 1.06156-.626 1.48697-1.59499.92763-2.40499z" fill="url(#linearGradient4533)" filter="url(#filter3871)" opacity=".6"/>
      <g transform="translate(0 .633148)">
        <g transform="translate(153.14234 -287.17336)">
          <path d="m3.144 24.712c-2.195.51-3.561 2.552-3.028 4.536l19.357 72.146c.532 1.984 2.737 3.07 4.892 2.415l19.238-5.84c2.079-.631 3.56-1.939 3.299-2.909-.26-.968-2.168-1.253-4.249-.629-2.087.628-4.228-.454-4.752-2.406-.523-1.951.764-4.051 2.854-4.665l14.98-4.401c2.03-.596 4.104.484 4.618 2.397.513 1.915-.718 3.977-2.745 4.584-2.033.611-3.491 1.901-3.232 2.863.258.964 2.137 1.245 4.169.629l35.725-10.846c1.9-.577 3.247-1.808 2.997-2.734-.248-.925-2.003-1.218-3.904-.647-1.909.574-3.885-.483-4.385-2.35-.5-1.865.659-3.854 2.57-4.414l13.705-4.026c1.859-.546 3.776.508 4.268 2.34.491 1.831-1.003 3.399-2.858 3.957 0 0-2.803 2.155-2.557 3.077.248.92 1.977 1.212 3.836.646l16.623-5.047c1.798-.546 2.868-2.466 2.384-4.27l-17.596-65.587c-.484-1.804-2.372-2.933-4.203-2.508z" fill="url(#linearGradient5172)"/>
          <path d="m4.079 23.779c-2.195.51-3.561 2.552-3.028 4.536l19.356 72.145c.532 1.985 2.737 3.071 4.893 2.416l19.238-5.84c2.079-.631 3.559-1.939 3.299-2.908-.26-.97-2.168-1.254-4.249-.63-2.087.628-4.228-.454-4.752-2.405-.523-1.952.764-4.052 2.855-4.666l14.98-4.4c2.03-.597 4.104.482 4.619 2.396.513 1.915-.718 3.977-2.745 4.584-2.033.611-3.491 1.901-3.233 2.863.259.964 2.137 1.244 4.169.629l35.725-10.847c1.899-.577 3.246-1.808 2.997-2.733-.249-.927-2.003-1.22-3.905-.649-1.908.574-3.884-.482-4.385-2.349-.5-1.865.659-3.853 2.57-4.414l13.706-4.025c1.858-.547 3.775.506 4.267 2.339.491 1.831-.619 3.784-2.474 4.341-1.862.559-3.188 1.772-2.941 2.693.248.92 1.977 1.212 3.837.646l16.622-5.046c1.798-.546 2.868-2.467 2.384-4.271l-17.596-65.587c-.484-1.804-2.372-2.933-4.203-2.508z" fill="url(#linearGradient5174)"/>
          <path d="m4.319 24.678c-1.649.384-2.668 1.909-2.269 3.4l19.34 72.087c.4 1.489 2.047 2.303 3.667 1.811l19.243-5.825c1.923-.582 2.642-1.564 2.597-1.739-.047-.175-1.147-.608-3.071-.028-2.615.787-5.288-.561-5.943-3.008-.658-2.448.95-5.066 3.571-5.834l14.984-4.389c2.542-.745 5.126.602 5.769 2.997.644 2.397-.89 4.965-3.428 5.729-1.88.565-2.585 1.537-2.539 1.71.046.174 1.127.605 3.007.036l35.731-10.819c1.758-.532 2.409-1.46 2.364-1.628-.046-.167-1.059-.593-2.817-.063-2.392.721-4.856-.595-5.484-2.936-.629-2.339.819-4.816 3.215-5.519l13.71-4.016c2.326-.681 4.715.632 5.33 2.925.615 2.292-.767 4.727-3.091 5.426-1.722.518-2.359 1.436-2.313 1.603.044.165 1.041.589 2.763.068l16.626-5.035c1.352-.41 2.153-1.846 1.789-3.203l-17.611-65.636c-.364-1.357-1.777-2.201-3.154-1.881z" fill="url(#linearGradient5176)"/>
          <g>
            <path d="m123.39 57.999c.12.452-.149.93-.6 1.061l-102.331 29.721c-.541.155-1.093-.119-1.225-.616-.132-.494.202-1.027.743-1.184l102.372-29.566c.451-.131.919.134 1.041.584z" fill="url(#linearGradient5178)"/>
          </g>
          <path d="m99.692 5.092-3.015 1.02 3.354 12.504 2.931-1.21-1.426-5.316 5.66 4.889 2.905-1.783-5.671-4.631 2.767-6.324-3.445.033-2.622 6.304zm-6.217 4.715c-.034.012-.069.031-.09.063l-.908 1.491c-.036.062-.022.142.031.194l2.057 1.968c-.144.478-.229.976-.248 1.487l-2.497 1.177c-.07.032-.104.114-.085.188l.455 1.697c.02.071.092.118.168.117l2.721-.022c.284.517.637.991 1.043 1.402l-.887 2.567c-.025.073.006.152.072.191l1.548.892c.063.037.144.023.195-.029l1.942-1.951c.521.144 1.064.226 1.616.233l1.212 2.396c.035.067.111.103.186.085l1.712-.435c.071-.018.12-.08.119-.153l-.05-2.695c.49-.272.93-.604 1.317-.985l2.631.89c.072.024.152-.004.19-.068l.875-1.483c.038-.063.029-.142-.025-.192l-1.169-1.124-.244.149c-.036.022-.083.016-.115-.012 0 0-.716-.62-1.65-1.428-.389 1.756-1.751 3.231-3.655 3.707-2.715.678-5.512-.941-6.23-3.616-.527-1.969.223-3.949 1.74-5.122l-.334-1.246c-.285.184-.553.385-.799.605l-.002-.006-2.736-.938c-.038-.01-.072-.006-.106.006z" fill="url(#radialGradient5180)"/>
          <polygon fill="#fff" points="8.741 29.365 20.769 74.194 60.512 63.138 48.889 19.815 8.741 29.365"/>
          <g opacity=".2">
            <path d="m123.835 53.097-1.988-7.416c-3.26 2.817-7.19 5.005-11.666 6.259-16.375 4.596-33.609-4.899-38.018-21.33-2.245-8.369-.641-16.776 3.697-23.501l-13.07 3.036 2.278 2.14c-.922 2.946-1.491 6.016-1.629 9.166l-16.047 7.442c-.453.215-.686.728-.563 1.184l2.844 10.602c.119.448.588.745 1.076.728l17.377-.468c1.772 3.163 3.969 6.056 6.505 8.538l-5.67 16.153c-.161.458.029.953.451 1.173l9.701 5.187c.4.216.904.11 1.229-.227l12.032-12.488c3.179.775 6.487 1.165 9.817 1.102l3.672 7.201.325-.096c1.858-.547 3.775.506 4.267 2.339.396 1.472-.256 3.01-1.484 3.851l.526 1.034c.209.402.669.601 1.112.469l10.153-3.067c.421-.127.712-.521.702-.965l-.361-16.219c.95-.569 1.853-1.188 2.732-1.827z" fill="url(#radialGradient5182)"/>
            <path d="m98.707 43.069 17.479-7.601-8.497-31.676 3.813 3.33-1.214-4.525c-.484-1.804-2.372-2.933-4.203-2.508l-17.8 4.135z" fill="url(#radialGradient5184)"/>
          </g>
          <path d="m106.526 1.735-101.965 23.843c-1.099.256-1.778 1.272-1.511 2.267l17.37 64.739c27.122-14.827 63.222-47.712 88.682-87.839l-.472-1.757c-.243-.906-1.186-1.468-2.104-1.253z" fill="url(#linearGradient5186)"/>
          <polygon fill="url(#linearGradient5188)" points="59.364 62.525 21.507 73.025 9.969 30.025 48.198 20.903 59.364 62.525"/>
          <g>
            <g clip-path="url(#XMLID_6_)">
              <g>
                <g filter="url(#AI_Sfocatura_3)">
                  <path d="m34.369 77.883c-.053.012-.107.023-.163.036-.359.079-.721.159-1.089.232-.082.015-.165.032-.248.049-.344.068-.69.132-1.04.193-.1.018-.2.035-.3.053-.337.058-.675.109-1.015.159-.111.016-.222.031-.334.048-.335.045-.671.087-1.009.123-.115.014-.229.026-.344.038-.339.034-.679.063-1.018.088-.115.007-.229.017-.343.022-.347.022-.694.035-1.042.045-.107.003-.213.008-.319.01-.365.006-.729.002-1.092-.007-.088-.003-.177-.001-.265-.004-.4-.015-.799-.039-1.197-.073-.05-.006-.101-.006-.151-.012-.91-.081-1.811-.213-2.694-.413l-.773-.499s.003-.128.011-.348l-.098-.062.099.04c.036-1.061.164-4.2.415-6.595.099-.957.935-2.94 1.906-3.784 0 0 .001-.001.002-.002l.001-.001c.252-.218.524-.423.784-.637.606-.498 1.22-.986 1.851-1.461 1.889-1.417 3.829-2.731 5.5-3.959-.067-.216.023-.531.273-.762.068-.064.155-.114.245-.162.494-1.687-.759-4.603-1.956-6.982-1.01-1.043-2.046-2.284-2.891-3.615-.646-.222-1.474-1.086-2.838-3.716-.204-.533.25-.856.629-.783-.404-.804-.591-1.722-.844-2.666-1.266-4.725 1.692-9.524 6.563-10.702.011-.005.022-.006.034-.007.01-.005.022-.008.033-.01 4.825-1.168 9.717 1.662 10.963 6.309.301 1.128.699 2.222.638 3.299.239-.345.899-.326 1 .289.169 3.572-.288 4.459-.903 4.778-.14 1.72-.507 3.423-.923 4.835.195 2.42.631 4.985 1.768 6.001.362.058.626.287.678.521 2.456.27 5.279.455 8.007.863.08.013.159.021.237.033-.018-.002-.034-.002-.052-.003.495.076.994.144 1.479.238 1.188.232 2.804 1.486 3.338 2.236 1.628 2.286 3.628 5.582 3.628 5.582v.002l.001.002-.38.797c-.302.305-.618.595-.943.878-.033.027-.066.055-.099.083-.289.247-.585.49-.889.724-.078.06-.16.116-.239.176-.263.195-.529.39-.802.576-.101.067-.204.132-.306.199-.258.171-.517.34-.781.5-.113.069-.228.136-.342.202-.26.152-.521.304-.786.448-.119.067-.238.129-.358.193-.266.141-.533.279-.803.416-.12.058-.239.117-.359.174-.275.133-.549.263-.826.388-.118.054-.235.105-.352.157-.286.125-.571.249-.857.369-.108.043-.215.089-.323.132-.302.122-.602.242-.904.357-.091.034-.183.07-.275.106-.325.121-.649.239-.972.354-.065.023-.13.048-.195.07-.361.126-.72.248-1.074.369-.027.007-.052.016-.078.024-1.58.522-3.095.964-4.449 1.351-.34.101-.671.194-.99.286-.32.092-.652.188-.993.286-1.364.395-2.906.831-4.552 1.235-.012.004-.025.006-.039.009-.387.099-.778.192-1.176.282z" fill="#00316e"/>
                </g>
                <g>
                  <path d="m28.39 48.266c-.76.131-1.621-.189-3.472-3.758-.292-.768.779-1.116 1.025-.437 1.212 1.301 1.97 2.713 2.447 4.195z" fill="#ddc2a4"/>
                  <path d="m42.781 45.12c.706-.246 1.275-.926 1.087-4.85-.129-.793-1.202-.6-1.077.099-.386 1.679-.333 3.25-.01 4.751z" fill="#ddc2a4"/>
                  <path d="m41.853 46.068c.14 2.815.147 9.245 2.514 10.141.451 2.658-1.721 4.303-4.581 5.701l-.572.155c-3.189.253-5.933-.06-6.883-2.615 1.636-1.986-1.621-7.615-2.93-10.16l7.002 1.138z" fill="#cbb7a2"/>
                  <path d="m41.853 46.068c.14 2.815.147 9.245 2.514 10.141.451 2.658-1.721 4.303-4.581 5.701l-.572.155c-3.189.253-5.933-.06-6.883-2.615 1.636-1.986-1.621-7.615-2.93-10.16l7.002 1.138z" fill="url(#radialGradient5190)"/>
                  <path d="m29.4 49.291c1.31 2.545 4.566 8.173 2.93 10.16.951 2.556 3.694 2.868 6.883 2.615l.572-.155c2.86-1.398 5.032-3.043 4.581-5.701-2.366-.896-2.374-7.326-2.514-10.141l-5.451 4.36z" fill="url(#radialGradient5192)" opacity=".7491"/>
                  <g>
                    <g clip-path="url(#XMLID_7_)">
                      <path d="m31.327 30.535c3.003-.643 5.893.892 7.771 3.175 1.908 2.32 2.57 5.49 2.816 9.288.247 3.805-.022 7.906-.866 9.59-.8 1.601-2.338 1.758-3.283 1.98-.048.013-.115.028-.167.044-.933.278-2.354.908-3.864-.086-1.598-1.05-4.313-4.417-6.037-7.892-1.726-3.479-2.757-6.607-2.227-9.572.52-2.901 2.708-5.685 5.688-6.485z" fill="#382509"/>
                    </g>
                  </g>
                  <path d="m31.317 30.526c3.003-.644 6.995.622 8.87 2.903 1.905 2.317 2.566 5.484 2.814 9.279.247 3.8-1.119 8.187-1.962 9.869-.801 1.6-2.337 1.758-3.283 1.981-.048.012-.116.028-.167.044-.932.277-2.353.907-3.864-.087-1.598-1.051-5.049-4.225-6.775-7.703-1.728-3.48-2.761-6.612-2.229-9.577.521-2.906 3.447-5.869 6.428-6.67z" fill="url(#radialGradient5194)"/>
                  <path d="m42.993 42.718c-.387 4.105-1.119 8.188-1.962 9.871-.802 1.599-2.338 1.757-3.283 1.978-.048.014-.116.029-.167.045-.933.277-2.354.909-3.864-.085-1.598-1.051-4.501-4.369-6.776-7.703z" fill="url(#linearGradient5196)" mask="url(#mask3287_1_)"/>
                  <g>
                    <path d="m31.596 52.338c1.148 1.153 1.504.925 2.552 1.653 1.432.943 2.833.152 3.717-.11.049-.015.11-.03.155-.041.897-.21 2.473-.384 3.233-1.902.085-.171.188-.382.28-.608-.174.471-.362.9-.515 1.205-.76 1.517-2.325 1.691-3.222 1.901-.045.012-.119.029-.167.043-.884.264-2.223.865-3.655-.078-.703-.463-1.243-.915-2.378-2.063z" fill="url(#linearGradient5198)"/>
                  </g>
                  <g>
                    <path d="m26.5 43.781c-.11-.269-.456.093-.394.454.062.36.617 1.132.642.988.197-1.146-.092-1.061-.248-1.442z" fill="url(#radialGradient5200)"/>
                  </g>
                  <g>
                    <path d="m42.179 40.375c-.038-.281.431-.131.555.209.124.339.034 1.26-.058 1.147-.729-.893-.443-.956-.497-1.356z" fill="url(#radialGradient5202)"/>
                  </g>
                  <g>
                    <g clip-path="url(#XMLID_13_)">
                      <path d="m31.306 30.379c4.808-1.16 9.686 1.672 10.929 6.31.346 1.292.818 2.54.579 3.769l-.361.431c-1.423-1.434-1.151-2.904-1.948-4.26-.627-.832-1.445-1.481-2.443-1.566-1.785-.148-3.713 2.576-4.734 2.857-1.107.307-4.025-1.129-5.603-.222-.875.502-1.423 1.553-1.391 2.542.062 1.853.008 2.503.354 4.429l-.521-.111c-.831-.965-1.048-2.212-1.396-3.507-1.263-4.718 1.683-9.503 6.535-10.672z" fill="url(#linearGradient5204)"/>
                    </g>
                  </g>
                  <path d="m31.239 30.395c4.809-1.158 9.688 1.673 10.931 6.309.346 1.294.818 2.542.579 3.77l-.36.433c-1.423-1.435-1.2-3.092-1.999-4.445-.626-.832-1.444-1.483-2.442-1.566-1.786-.148-3.713 2.574-4.736 2.857-1.107.305-3.704.073-5.281.98-.874.503-1.421 1.557-1.389 2.545.06 1.854-.266 1.481.081 3.407l-.521-.11c-.831-.964-1.049-2.213-1.396-3.506-1.266-4.719 1.68-9.504 6.533-10.674z" fill="#b09278"/>
                  <path d="m31.239 30.395c3.512.877 4.414 1.684 6.708 4.499-1.786-.148-3.713 2.574-4.736 2.857-1.107.305-3.968-.012-5.546.897-.874.503-1.423 1.556-1.392 2.545.062 1.854.002 1.564.349 3.49l-.521-.11c-.831-.964-1.049-2.213-1.396-3.506-1.265-4.717 1.681-9.502 6.534-10.672z" fill="url(#radialGradient5206)"/>
                  <g>
                    <path d="m37.38 34.346c.223-.064.454-.094.675-.08.994.063 2.043.918 2.667 1.739.764 1.457.44 2.237 1.292 4.077-.62-1.039-1.207-3.452-1.386-3.765-.627-.829-1.444-1.481-2.442-1.566-1.785-.149-3.712 2.574-4.733 2.856-1.105.307-3.701.073-5.278.981-.873.502-1.421 1.555-1.389 2.543l-.057-.211c-.035-.993.51-2.065 1.377-2.589 1.566-.947 3.845-1.218 4.945-1.549.889-.264 2.76-1.977 4.329-2.436z" fill="url(#linearGradient5208)"/>
                  </g>
                  <g enable-background="new" opacity=".8801">
                    <path d="m29.769 37.649c-2.146.453 1.899-1.154 3.245-1.717 2.164-.907 4.849-2.8 4.975-3.978.083-.772-2.335-1.314-2.113-1.004.436.631.917 1.187-.434 3.121-.704.878-1.485 1.887-2.798 2.325-.936.338-1.863 1.191-2.875 1.253z" fill="url(#linearGradient5210)"/>
                  </g>
                  <g>
                    <path d="m25.678 36.419-.423 1.903c.021 2.452.179 2.1.551 3.197.248-1.83-.543-2.732 1.386-4.476l2.021-2.091z" fill="url(#linearGradient5212)"/>
                  </g>
                  <g enable-background="new" opacity=".3333">
                    <path d="m43.254 44.094-.767-.79s.163-1.276.077-1.6c-.087-.324-.008-1.362-.008-1.362l.323.104z" fill="url(#linearGradient5214)"/>
                  </g>
                  <path d="m38.888 60.155c3.926-.952 4.687-2.845 4.65-4.32.504-.052.89.247.955.537 2.948.328 6.436.514 9.64 1.141 1.184.235 2.795 1.486 3.329 2.236 1.624 2.283 3.619 5.577 3.619 5.577l-.378.794c-4.897 4.915-12.877 7.042-17.939 8.493-5.114 1.466-13.297 3.979-20.349 2.36l-.771-.496s.118-4.032.422-6.949c.1-.955.931-2.936 1.898-3.773 2.596-2.25 5.647-4.23 8.11-6.035-.091-.288.1-.747.572-.958 1.305 1.149 2.286 2.354 6.242 1.393z" fill="url(#linearGradient5216)"/>
                  <g enable-background="new" opacity=".3221">
                    <path d="m54.043 69.638c.172-5.203.088-7.871-3.973-9.533l-7.753-.126 2.579-3.23 8.184.856 5.174 3.588s2.531 3.185 1.631 3.995c-.902.812-3.095 3.107-3.095 3.107z" fill="url(#linearGradient5218)"/>
                  </g>
                  <g>
                    <g clip-path="url(#XMLID_24_)">
                      <path d="m43.54 55.836c.503-.052.89.247.953.538 2.949.327 6.436.512 9.64 1.142 1.184.232 2.796 1.486 3.329 2.236 1.624 2.282 3.619 5.575 3.619 5.575l-.378.796c-4.897 4.915-12.877 7.04-17.939 8.492-5.114 1.466-13.298 3.979-20.349 2.36l-.771-.496s.118-4.033.422-6.949c.099-.956.93-2.935 1.898-3.773 2.596-2.251 5.647-4.23 8.109-6.036-.091-.286.1-.746.573-.956 1.307 1.148 2.287 2.352 6.243 1.391.246-.06.481-.124.703-.19-.301.1-.619.202-.972.288-3.784.918-4.726-.243-5.978-1.351-.451.201-.629.647-.542.923-2.351 1.733-5.263 3.627-7.742 5.785-.922.804-1.72 2.717-1.813 3.634-.286 2.803-.39 6.668-.39 6.668l.74.48c6.741 1.571 14.562-.824 19.454-2.224 4.843-1.387 13.16-3.124 17.84-7.846l.265-1.26s-2.845-5.095-4.231-5.604c-.835-.308-1.881-1.502-3.015-1.729-3.069-.608-6.407-.787-9.23-1.106-.039-.178-.201-.369-.441-.464.006-.109.005-.22.003-.324z" fill="url(#linearGradient5220)"/>
                    </g>
                  </g>
                  <g>
                    <path clip-path="url(#XMLID_27_)" d="m38.888 60.156c-3.956.962-4.937-.241-6.243-1.392-.473.212-.664.671-.573.958-.052.038-.11.08-.162.117 1.414 1.191 2.678 2.318 7.119 1.229 4.439-1.09 5.492-3.074 5.568-4.685-.033-.003-.07-.004-.105-.009-.063-.29-.45-.59-.953-.537.038 1.475-.725 3.368-4.651 4.319zm-12.719 3.823c1.674-1.149 3.317-2.231 4.792-3.267-.019-.058-.014-.117-.01-.184-1.521 1.082-3.168 2.221-4.782 3.451z" fill="#f4f5f8" stroke="#98a2bf" stroke-width=".1453"/>
                  </g>
                  <g>
                    <polygon fill="url(#linearGradient5222)" points="43.482 58.957 50.069 57.447 44.144 58.217 43.482 58.957"/>
                  </g>
                  <g enable-background="new" opacity=".3221">
                    <path d="m30.254 76.418c-2.846-4.478-4.153-6.877-1.334-10.504l6.819-4.144-3.911-1.494-6.933 5.021-2.887 5.969s-.672 4.226.592 4.447c1.259.222 4.47 1.036 4.47 1.036z" fill="url(#linearGradient5224)"/>
                  </g>
                  <g enable-background="new" opacity=".0637">
                    <path d="m43.658 59.614 4.421 5.812z" fill="url(#linearGradient5226)"/>
                    <path d="m43.658 59.614 4.421 5.812z" fill="none" stroke="#000" stroke-width=".2906"/>
                  </g>
                  <g enable-background="new" opacity=".5506">
                    <path d="m28.795 67.266c-.206.068-.479.175-.535.335l.867 2.002 2-.709-.024-.087c.208-.576-1.47-1.785-2.308-1.541z" fill="url(#linearGradient5228)"/>
                  </g>
                  <g/>
                </g>
              </g>
            </g>
          </g>
          <path d="m11.109 30.431 36.574-8.922-26.277 49.398z" fill="url(#linearGradient5230)"/>
          <text fill="url(#linearGradient5232)" transform="matrix(.9671 -.2588 .2591 .9658 54.7354 27.6045)"><tspan fill="url(#linearGradient5232)" font-family="LiberationSans-Bold" font-size="11.2046" x="0" y="0">KDE</tspan> <tspan fill="url(#linearGradient5232)" font-family="LiberationSans" font-size="6.536" x="0" y="15.686">David Vignoni</tspan> <tspan fill="url(#linearGradient5232)" font-family="LiberationSans" font-size="6.536" x="0" y="23.528999">Designer</tspan> <tspan fill="url(#linearGradient5232)" font-family="LiberationSans" font-size="6.536" x="0" y="31.372999">davigno@kde.org</tspan></text>
          <path d="m106.526 1.735-101.965 23.843c-1.099.256-1.778 1.272-1.511 2.267l17.37 64.739c27.122-14.827 63.222-47.712 88.682-87.839l-.472-1.757c-.243-.906-1.186-1.468-2.104-1.253z" fill="none" stroke="url(#linearGradient5234)"/>
        </g>
      </g>
    </g>
  </g>
</svg>
