<?xml version="1.0" encoding="UTF-8" standalone="no"?>
<!-- Generator: Adobe Illustrator 12.0.0, SVG Export Plug-In . SVG Version: 6.00 Build 51448)  -->
<svg enable-background="new 0 0 128 128" height="128" viewBox="0 0 128 128" width="128" xmlns="http://www.w3.org/2000/svg" xmlns:xlink="http://www.w3.org/1999/xlink">
  <defs>
    <linearGradient id="linearGradient8219">
      <stop offset="0"/>
      <stop offset="1" stop-opacity="0"/>
    </linearGradient>
    <linearGradient id="linearGradient3757">
      <stop offset="0" stop-color="#fff"/>
      <stop offset="1" stop-color="#fff" stop-opacity="0"/>
    </linearGradient>
    <clipPath id="clipPath2950">
      <polygon points="21.666 11.333 27.666 95.667 86.333 114.667 90 3 21.666 11.333"/>
    </clipPath>
    <filter id="filter2954">
      <feGaussianBlur stdDeviation=".900005"/>
    </filter>
    <linearGradient id="linearGradient2964" gradientUnits="userSpaceOnUse" x1="26.999334" x2="92.823532" y1="97.108009" y2="-.460618">
      <stop offset="0" stop-opacity=".316456"/>
      <stop offset=".14401203"/>
      <stop offset="1" stop-opacity="0"/>
    </linearGradient>
    <linearGradient id="linearGradient2972" gradientUnits="userSpaceOnUse" x1="90" x2="100" y1="4.532867" y2="4.532867">
      <stop offset="0" stop-color="#090909"/>
      <stop offset="1" stop-color="#555753"/>
    </linearGradient>
    <linearGradient id="linearGradient3763" gradientUnits="userSpaceOnUse" x1="85.833" x2="90.5" xlink:href="#linearGradient3757" y1="54.127617" y2="97.735458"/>
    <filter id="filter3390">
      <feGaussianBlur stdDeviation="1.39723"/>
    </filter>
    <filter id="filter3975">
      <feGaussianBlur stdDeviation="1.2948866"/>
    </filter>
    <radialGradient id="radialGradient3956" cx="64.07962" cy="114.47154" gradientTransform="matrix(.2787307 0 0 .2689969 46.218665 81.520439)" gradientUnits="userSpaceOnUse" r="60.700505">
      <stop offset="0" stop-color="#552b00"/>
      <stop offset="1" stop-color="#673400" stop-opacity="0"/>
    </radialGradient>
    <linearGradient id="linearGradient3934" gradientUnits="userSpaceOnUse" spreadMethod="reflect" x1="28.637825" x2="31.289474" y1="120.84999" y2="122.08743">
      <stop offset="0" stop-color="#faff64"/>
      <stop offset="1" stop-color="#faff64" stop-opacity="0"/>
    </linearGradient>
    <filter id="filter3928">
      <feGaussianBlur stdDeviation=".18346262"/>
    </filter>
    <filter id="filter3838" height="1.310137" width="1.356338" x="-.178169" y="-.155069">
      <feGaussianBlur stdDeviation=".46259975"/>
    </filter>
    <linearGradient id="linearGradient3800" gradientUnits="userSpaceOnUse" spreadMethod="reflect" x1="63.948792" x2="67.219337" xlink:href="#linearGradient3757" y1="12.034382" y2="12.034382"/>
    <filter id="filter3401">
      <feGaussianBlur stdDeviation=".11157909"/>
    </filter>
    <filter id="filter3391">
      <feGaussianBlur stdDeviation=".55939545"/>
    </filter>
    <linearGradient id="linearGradient3385" gradientUnits="userSpaceOnUse" x1="64.88614" x2="64.88614" y1="122.5867" y2="37.969955">
      <stop offset="0" stop-color="#fffc07"/>
      <stop offset="1" stop-color="#fffc07" stop-opacity="0"/>
    </linearGradient>
    <linearGradient id="linearGradient3369" gradientUnits="userSpaceOnUse" x1="177.42397" x2="177.60074" xlink:href="#linearGradient3757" y1="22.377773" y2="93.022789"/>
    <linearGradient id="linearGradient3345" gradientUnits="userSpaceOnUse" x1="240.700588" x2="162.406248" xlink:href="#linearGradient3757" y1="77.530925" y2="30.98865"/>
    <linearGradient id="linearGradient3315" gradientUnits="userSpaceOnUse" x1="49.13569" x2="49.13569" y1="11.902248" y2="136.85997">
      <stop offset="0" stop-color="#f8ff8a"/>
      <stop offset="1" stop-color="#fff" stop-opacity="0"/>
    </linearGradient>
    <radialGradient id="radialGradient2906" cx="69.526619" cy="60.115833" fy="89.655701" gradientTransform="matrix(.9439139 -.3301918 .332644 .9509241 -16.097695 27.249949)" gradientUnits="userSpaceOnUse" r="111.65377">
      <stop offset="0" stop-color="#ff0"/>
      <stop offset="1" stop-color="#f07800"/>
    </radialGradient>
    <linearGradient id="linearGradient2898" gradientUnits="userSpaceOnUse" x1="64.07962" x2="64.07962" y1="-14.227339" y2="120.44466">
      <stop offset="0" stop-color="#ffd50a"/>
      <stop offset="1" stop-color="#8d4000"/>
    </linearGradient>
    <linearGradient id="XMLID_13_" gradientUnits="userSpaceOnUse" spreadMethod="pad" x1="128" x2="82" xlink:href="#linearGradient8219" y1="90.376999" y2="90.3769">
      <stop offset="0" stop-opacity="0"/>
      <stop offset="1"/>
    </linearGradient>
    <linearGradient id="XMLID_14_" gradientUnits="userSpaceOnUse" x1="34.6528" x2="90" y1="-.2993" y2="89.299507">
      <stop offset=".1302" stop-color="#fff"/>
      <stop offset="1" stop-color="#d3d7cf"/>
    </linearGradient>
    <linearGradient id="XMLID_15_" gradientUnits="userSpaceOnUse" x1="79.1064" x2="95.944519" y1="58.8335" y2="58.8335">
      <stop offset=".2604" stop-color="#fff"/>
      <stop offset=".4142" stop-color="#eeeeec"/>
      <stop offset="1" stop-color="#babdb6"/>
    </linearGradient>
    <linearGradient id="XMLID_16_" gradientUnits="userSpaceOnUse" x1="54.1396" x2="104.1396" y1="-25.6714" y2="44.3286">
      <stop offset=".1302" stop-color="#888a85"/>
      <stop offset="1" stop-color="#2e3436"/>
    </linearGradient>
    <linearGradient id="XMLID_17_" gradientUnits="userSpaceOnUse" x1="11.8818" x2="72.3184" y1="10.4443" y2="113.4838">
      <stop offset=".1302" stop-color="#a4c0e4"/>
      <stop offset="1" stop-color="#2c72c7"/>
    </linearGradient>
    <linearGradient id="XMLID_18_" gradientUnits="userSpaceOnUse" x1="86.7266" x2="96.9307" y1="91.6836" y2="91.6836">
      <stop offset="0" stop-color="#6193cf"/>
      <stop offset=".2959" stop-color="#2c72c7"/>
      <stop offset="1" stop-color="#0057ae"/>
    </linearGradient>
    <radialGradient id="path53_1_" cx="303.23541" cy="-251.3799" gradientTransform="matrix(1.0345 0 0 -1.0938 -261.2891 -231.3745)" gradientUnits="userSpaceOnUse" r="24.0495">
      <stop offset=".5" stop-color="#6193ff"/>
      <stop offset=".7811" stop-color="#003685"/>
      <stop offset="1" stop-color="#709dff"/>
    </radialGradient>
    <radialGradient id="path64_1_" cx="299.27151" cy="-268.25729" gradientTransform="matrix(1.053 0 0 -1.1134 -262.5752 -230.1341)" gradientUnits="userSpaceOnUse" r="40.255402">
      <stop offset=".3373" stop-color="#2c72c7"/>
      <stop offset=".5799" stop-color="#2c72c7"/>
      <stop offset="1" stop-color="#2c72c7"/>
    </radialGradient>
    <linearGradient id="lg1">
      <stop offset="0" stop-color="#fff"/>
      <stop offset=".3278" stop-color="#fdfdfc"/>
      <stop offset=".6774" stop-color="#f4f5f4"/>
      <stop offset="1" stop-color="#cacfd0"/>
    </linearGradient>
    <radialGradient id="path5692_3_" cx="50.8647" cy="40.5396" gradientTransform="matrix(1.053 0 0 1.1134 -1.8613 -2.5603)" gradientUnits="userSpaceOnUse" r="13.7121" xlink:href="#lg1"/>
    <linearGradient id="path99_1_" gradientTransform="matrix(1 0 0 -1 -242 -198)" gradientUnits="userSpaceOnUse" x1="294.32709" x2="294.32709" y1="-220.8315" y2="-247.59531">
      <stop offset=".1302" stop-color="#fff"/>
      <stop offset=".5" stop-color="#fff" stop-opacity="0"/>
    </linearGradient>
    <radialGradient id="path5692_4_" cx="91.1484" cy="94.1768" gradientTransform="matrix(.5615 0 0 1 41.0225 0)" gradientUnits="userSpaceOnUse" r="4.0279" xlink:href="#lg1"/>
    <clipPath id="XMLID_3_" stroke="url(#linearGradient2964)">
      <polygon points="21.666 11.333 27.666 95.667 86.333 114.667 90 3 21.666 11.333"/>
    </clipPath>
  </defs>
  <path d="m66.215 66.087-30.358 31.486 50.476 17.094 8.554-3.231 32.113-25.34z" fill="url(#XMLID_13_)" filter="url(#filter3390)" opacity=".6"/>
  <polygon fill="url(#XMLID_14_)" points="21.666 11.333 27.666 95.667 86.333 114.667 90 3"/>
  <polygon fill="url(#XMLID_15_)" points="90 3 100 6 96 103.334 86.333 114.667"/>
  <polygon fill="url(#XMLID_17_)" points="26.215 75.271 87.176 89.017 86.727 102.69 26.977 85.978"/>
  <polygon fill="url(#XMLID_18_)" points="96.931 80.678 87.176 89.017 86.727 102.69 96.425 92.992"/>
  <g opacity=".8" transform="translate(0 1)">
    <path d="m36.351 30.825c-.132-2.735 1.401-5.168 3.458-5.381l24.024-2.479c2.814-.291 5.114 2.232 5.033 5.569l-.753 30.855c-.069 2.854-2.267 4.895-4.816 4.579l-22.062-2.738c-1.913-.237-3.537-2.373-3.652-4.775z" fill="#0057ae"/>
    <path d="m40.042 26.719c-1.649.157-2.882 2.085-2.781 4.282l1.167 25.323c.089 1.937 1.394 3.645 2.934 3.825l21.731 2.546c2.035.238 3.765-1.397 3.815-3.673l.646-30.107c.057-2.645-1.754-4.642-3.983-4.43z" fill="url(#path53_1_)"/>
    <path d="m50.987 25.338-.015.002c-6.019.484-11.801 2.47-11.856 2.49-.564.196-1.119 1.054-1.188 1.834-.007.076-.669 7.524-.285 14.356.246 6.637 1.511 13.441 1.523 13.508.129.687.713 1.45 1.254 1.637.053.018 5.541 1.885 11.107 2.462 5.977.801 12.694.208 12.765.201.717-.065 1.486-.798 1.637-1.571.013-.075 1.514-7.874 1.597-15.754.277-8.192-.955-16.961-.968-17.049-.13-.908-.933-1.796-1.708-1.898-.078-.011-7.381-.953-13.863-.218z" fill="url(#path64_1_)"/>
    <path d="m52.929 30.175-3.908.734.381 19.239 3.702-.495-.092-8.2 5.359 9.357 4.369-1.373-5.685-9.241 5.941-9.185-4.648-.981-5.363 9.03zm-8.486 5.299c-.041.007-.085.023-.112.063l-1.333 1.855c-.055.078-.057.194-.013.283l1.726 3.427c-.269.621-.481 1.282-.623 1.98l-2.869.742c-.078.02-.131.116-.127.221l.094 2.415c.003.101.067.19.143.216l2.815.961c.175.795.434 1.56.764 2.26l-1.524 3.005c-.042.082-.029.197.032.274l1.39 1.771c.06.075.146.09.213.044l2.546-1.739c.528.404 1.102.741 1.707.982l.698 3.679c.02.104.095.185.181.193l2.042.202c.087.009.161-.053.18-.15l.727-3.642c.651-.158 1.271-.421 1.845-.78l2.897 2.413c.08.068.188.064.255-.008l1.59-1.691c.068-.072.086-.19.037-.287l-1.087-2.128-.356.109c-.05.016-.108-.015-.137-.068 0 0-.683-1.198-1.57-2.749-1.034 2.339-3.104 3.814-5.436 3.656-3.207-.217-5.811-3.482-5.923-7.358-.085-2.896 1.232-5.427 3.238-6.609l-.042-1.929c-.372.176-.729.385-1.065.63-.001 0 0-.01 0-.01l-2.786-2.207c-.039-.031-.078-.033-.117-.026z" fill="url(#path5692_3_)"/>
    <path d="m66.729 37.94c-.281-4.853-.813-8.233-.822-8.29-.127-.88-1.215-2.088-1.963-2.196-.071-.011-6.796-1.027-13.061-.381l-.014.001c-5.833.409-11.209 2.268-11.262 2.286-.551.186-1.315 1.342-1.384 2.102-.003.036-.18 1.568-.296 4.23.079 1.757.157 3.499.236 5.229.048 1.072.637 2.31 1.313 2.765-.001-.03 1.208 3.93 10.656 4.29 10.655.406 14.974-6.523 14.97-6.443.864-.652 1.6-2.228 1.625-3.513 0-.026.001-.054.002-.08z" fill="url(#path99_1_)" opacity=".7"/>
  </g>
  <g transform="translate(0 -4)">
    <g opacity=".6" transform="translate(-5.599986 -4.4)">
      <g/>
    </g>
    <path d="m92.453 92.485-.658.716-.041 3.289.643-.656.021-1.433.895.826.773-.927-.968-.737 1.043-2.481-.79.551-.946 2.357zm-1.453 2.182c-.006.008-.014.017-.019.028l-.235.519c-.01.021-.012.044-.005.052l.268.336c-.049.149-.09.297-.118.44l-.49.562c-.013.016-.022.04-.022.059l-.004.414c0 .018.011.023.023.017l.472-.254c.024.116.062.213.114.289l-.281.773c-.009.021-.007.04.002.046l.228.11c.009.005.024-.005.036-.024l.451-.703c.089-.009.187-.035.289-.083l.102.565c.003.016.016.019.031.007l.355-.276c.017-.013.029-.035.033-.057l.145-.776c.115-.129.225-.272.327-.427l.5-.011c.015 0 .033-.018.045-.041l.287-.555c.013-.023.016-.048.008-.058l-.186-.214-.063.074c-.009.011-.02.014-.024.009 0 0-.115-.109-.265-.248-.19.578-.558 1.164-.964 1.494-.554.451-.981.26-.975-.414.005-.498.242-1.139.59-1.648l.004-.326c-.064.086-.126.177-.184.27v-.002l-.454.039c-.007.002-.013.007-.021.014z" fill="url(#path5692_4_)"/>
  </g>
  <g opacity=".7" transform="matrix(.6739272 0 0 .6739272 25.75975 2.5)">
    <polygon fill="url(#XMLID_16_)" points="79 8.667 86.667 7.667 86.333 21.667 79 21.333 79 8.667"/>
    <g fill="#fff">
      <path d="m79.74 10.719c.25-.125.594-.221.94-.249.55-.046.989.067 1.311.605.294.461.428 1.225.429 2.008.001 1-.159 1.695-.414 2.209-.303.586-.783.843-1.161.835-.062-.001-.126-.003-.181-.003l.015 3.262-.88-.071zm.917 3.999c.042.026.091.026.146.026.464-.002.674-.632.672-1.48-.003-.796-.177-1.409-.608-1.384-.082.005-.167.037-.222.08z"/>
      <path d="m85.521 19.641c-.154.114-.453.188-.818.157-1.328-.11-1.939-2.07-1.939-4.666 0-3.5 1.084-4.97 2.128-5.059.377-.031.641.078.748.202l-.192 1.619c-.124-.096-.262-.175-.497-.162-.595.033-1.125.965-1.13 3.305-.007 2.232.466 3.125 1.098 3.16.175.01.377-.05.508-.113z"/>
    </g>
  </g>
  <g fill="#fff" transform="translate(0 -1)">
    <path d="m30.307 79.654.612.157-.18 2.396.016.003c.135-.178.261-.352.379-.52l1.135-1.535.676.173-1.473 1.82 1.127 3.234-.66-.167-.915-2.714-.338.409-.146 1.948-.612-.157z"/>
    <path d="m33.512 80.548c.245-.005.523.035.833.114.565.143.953.379 1.228.701.389.443.649 1.173.571 2.23-.087 1.154-.437 1.706-.803 1.963-.377.285-.899.328-1.52.17-.246-.062-.499-.142-.68-.227zm.276 4.658c.086.038.174.06.229.074.676.171 1.361-.119 1.49-1.833.094-1.274-.267-2.077-1.125-2.295-.096-.025-.208-.045-.29-.044z"/>
    <path d="m38.812 84.526-1.344-.343-.141 1.894 1.525.391-.036.501-2.139-.545.377-5.048 2.043.521-.037.501-1.431-.365-.125 1.663 1.343.343z"/>
    <path d="m42.121 87.812.1-1.341-1.717-.438.029-.392 1.912-2.71.597.152-.229 3.056.564.145-.035.472-.564-.144-.1 1.341zm.136-1.813.102-1.379c.025-.337.072-.631.121-.947l-.032-.008c-.203.347-.333.549-.505.812l-.821 1.218v.015z"/>
    <path d="m46.711 86.761-.034.449-1.74-.443.034-.449z"/>
    <path d="m49.012 89.569.159-2.136-.957-3.214.643.165.382 1.388c.108.386.223.818.313 1.239l.015.003c.141-.361.304-.709.477-1.06l.545-1.129.644.165-1.448 2.576-.161 2.157z"/>
    <path d="m53.344 88.826c-.104 1.4-.831 1.696-1.419 1.546-.692-.175-1.204-.91-1.109-2.183.1-1.325.769-1.721 1.428-1.552.683.175 1.194.923 1.1 2.189zm-1.916-.488c-.044.6.006 1.442.562 1.587.525.135.692-.695.735-1.257.041-.555 0-1.435-.54-1.573-.548-.138-.715.688-.757 1.243z"/>
    <path d="m56.27 90.412c-.03.404-.029.726-.042.997l-.532-.135-.01-.394-.017-.003c-.132.148-.446.335-.859.23-.677-.173-.901-.733-.834-1.632l.171-2.293.612.157-.165 2.209c-.043.569.021 1.012.442 1.12.358.092.541-.184.584-.34.031-.091.047-.201.056-.321l.179-2.389.612.155z"/>
    <path d="m57.247 88.929c.024-.308.026-.674.039-.944l.548.14-.011.577.017.005c.151-.314.498-.515.857-.424.047.013.086.03.126.04l-.044.592c-.04-.018-.079-.026-.127-.039-.389-.101-.699.166-.797.567-.022.093-.039.203-.047.324l-.15 2.007-.611-.155z"/>
    <path d="m62.974 87.848-.323 4.313c-.018.247-.025.665-.033.877l-.525-.134-.004-.468-.025-.005c-.146.229-.435.415-.84.312-.652-.167-1.071-.954-.983-2.145.097-1.289.706-1.744 1.303-1.592.278.071.539.268.667.614l.015.003.146-1.932zm-.824 2.781c.005-.076.012-.157.01-.242-.012-.383-.225-.775-.52-.85-.508-.129-.734.492-.786 1.22-.058.763.102 1.432.547 1.544.191.05.46.018.635-.472.021-.063.035-.144.042-.234z"/>
    <path d="m64.006 91.599c-.076 1.11.366 1.466.812 1.582.263.064.489.063.646.019l.064.452c-.224.057-.553.033-.855-.043-.921-.235-1.346-1.069-1.263-2.178.088-1.176.667-1.776 1.438-1.58.787.201 1.039 1.06.977 1.884-.009.134-.017.232-.031.319zm1.238-.12c.07-.723-.199-1.118-.492-1.193-.399-.103-.646.398-.707.889z"/>
    <path d="m66.271 93.358c.129.118.358.282.604.344.351.091.581-.057.605-.379.021-.276-.068-.49-.439-.837-.479-.436-.725-.811-.694-1.23.044-.586.538-.886 1.133-.734.301.077.524.234.676.364l-.199.392c-.136-.127-.298-.236-.496-.288-.333-.084-.517.099-.534.331-.018.246.066.406.43.75.425.384.75.802.713 1.303-.055.728-.605.946-1.233.786-.286-.072-.591-.232-.748-.403z"/>
    <path d="m69.375 92.784.017.004c.081-.124.156-.251.237-.353l.858-1.085.658.167-1.131 1.27.947 2.378-.682-.174-.707-1.92-.239.282-.105 1.37-.61-.156.388-5.183.611.156z"/>
    <path d="m72.521 91.006-.062.848.74.188-.034.443-.739-.19-.161 2.149c-.035.472.139.646.361.703.094.024.176.037.247.04l-.009.448c-.114.009-.258-.005-.456-.056-.24-.061-.451-.176-.589-.371-.138-.203-.2-.471-.163-.972l.158-2.097-.47-.12.032-.444.47.121.045-.615z"/>
    <path d="m75.899 94.578c-.105 1.399-.832 1.694-1.419 1.546-.692-.176-1.205-.91-1.108-2.183.098-1.327.767-1.722 1.426-1.555.684.177 1.195.926 1.101 2.192zm-1.915-.488c-.046.599.005 1.443.561 1.585.524.135.692-.694.734-1.255.042-.556.002-1.435-.54-1.573-.549-.14-.715.687-.755 1.243z"/>
    <path d="m76.626 94.067c.04-.554.041-.883.051-1.138l.55.138-.004.474.016.003c.236-.336.548-.395.85-.317.668.171 1.063.958.974 2.149-.101 1.342-.729 1.73-1.332 1.576-.357-.092-.548-.36-.637-.59l-.016-.004-.134 1.798-.615-.156zm.524 1.316c-.01.114-.017.219.001.308.082.548.353.716.518.759.509.128.718-.49.772-1.223.056-.751-.088-1.428-.573-1.552-.278-.07-.549.195-.612.517-.022.085-.03.175-.037.271z"/>
  </g>
  <path d="m90 3 10 3s-1.166.333-4.333-.5-5.667-2.5-5.667-2.5z" fill="url(#linearGradient2972)"/>
  <g clip-path="url(#clipPath2950)" filter="url(#filter2954)" stroke="url(#linearGradient2964)" stroke-width="1.5">
    <polyline clip-path="url(#XMLID_3_)" fill="none" points="90 3 21.666 11.333 27.666 95.667 86.333 114.667" stroke="url(#linearGradient2964)" stroke-width="1.5"/>
  </g>
  <path d="m86.333 114.667 3.667-111.667z" fill="none" stroke="url(#linearGradient3763)"/>
  <g transform="matrix(.5 0 0 .5 3.311221 61.000002)">
    <path d="m64.03125 8c-7.868432.0100117-17.202689 26.554451-23.5625 31.1875-6.35981 4.633048-34.4842926 5.388582-36.90625 12.875-2.4219574 7.486417 19.902749 24.551024 22.34375 32.03125 2.441001 7.48023-5.49658 34.44565.875 39.0625s29.506568-11.33374 37.375-11.34375 31.046441 15.88305 37.40625 11.25c6.35981-4.63305-1.671956-31.576086.75-39.0625 2.42196-7.486417 24.72225-24.61352 22.28125-32.09375-2.441-7.480229-30.565921-8.164401-36.9375-12.78125-6.37158-4.616848-15.756565-31.1350121-23.625-31.125zm0 3.90625c.176796.139173 1.53651.806014 3.125 2.75 1.81542 2.221697 3.875176 5.553809 5.90625 9.09375 2.031073 3.53994 4.051482 7.298819 6.03125 10.5625 1.979769 3.263682 3.66137 6.016491 6.3125 7.9375 2.651126 1.921009 5.78206 2.66637 9.5 3.53125 3.717942.864879 7.90981 1.609902 11.90625 2.4375 3.99644.827597 7.79215 1.748037 10.46875 2.78125 2.34202.904061 3.4372 2.000764 3.625 2.125-.08007.208062-.32953 1.669782-1.6875 3.78125-1.55196 2.413106-4.07345 5.411931-6.8125 8.4375-2.73904 3.025566-5.69534 6.108596-8.1875 9-2.49216 2.891405-4.586006 5.353751-5.59375 8.46875-1.007744 3.114995-.732607 6.321766-.40625 10.125.326357 3.803238.895872 8.03716 1.34375 12.09375.44788 4.05658.74928 7.94763.59375 10.8125-.13609 2.50677-.81474 3.8472-.875 4.0625-.223807-.00839-1.728488.26402-4.15625-.375-2.774583-.73032-6.401101-2.23621-10.125-3.90625-3.723897-1.67003-7.573741-3.52331-11.09375-5-3.520008-1.4767-6.47605-2.69166-9.75-2.6875-3.273947.00417-6.265009 1.2331-9.78125 2.71875-3.516239 1.48565-7.342863 3.35174-11.0625 5.03125-3.719638 1.6795-7.352284 3.16888-10.125 3.90625-2.426127.6452-3.900592.39713-4.125.40625-.058488-.2136-.76378-1.5561-.90625-4.0625-.162822-2.86447.124949-6.75479.5625-10.8125.437549-4.0577.995823-8.289698 1.3125-12.09375.316678-3.804052.578168-7.043825-.4375-10.15625-1.015668-3.112427-3.125487-5.552447-5.625-8.4375-2.499512-2.885048-5.440762-5.950161-8.1875-8.96875-2.746738-3.018592-5.285649-5.997101-6.84375-8.40625-1.3633382-2.108004-1.5782947-3.605101-1.65625-3.8125.0149539.087785.9868526-1.123215 3.5625-2.125 2.673955-1.040023 6.50568-1.974735 10.5-2.8125 3.99432-.837763 8.190522-1.563161 11.90625-2.4375 3.71573-.874337 6.853767-1.63475 9.5-3.5625 2.646234-1.927752 4.309794-4.700042 6.28125-7.96875 1.971455-3.268708 3.977941-7.017403 6-10.5625 2.022058-3.545097 4.065243-6.89869 5.875-9.125 1.583537-1.948021 2.951215-2.611698 3.125-2.75z" fill="url(#linearGradient2898)" filter="url(#filter3975)"/>
    <path d="m153.09403 94.713757c-8.55745 12.383133-60.477658-1.70046-74.679399 3.287761-14.201741 4.988222-45.911151 48.445882-60.332603 44.133872-14.4214534-4.31202-17.0713902-58.043145-26.2040499-70.008359-9.1326591-11.965213-60.2621021-28.693497-60.6176031-43.7416-.3555-15.048104 49.926959-34.1721736 58.484406-46.555303 8.557447-12.38313 8.6671236-66.179444 22.868864-71.167664 14.201742-4.988221 47.927947 36.923576 62.3494 41.235595 14.421453 4.312018 65.618675-12.207649 74.751335-.242435s-20.30585 56.9921987-19.95035 72.040303c.3555 15.048103 31.88745 58.634701 23.33 71.01783z" fill="url(#radialGradient2906)" transform="matrix(.4934214 .1726044 -.1726044 .4934214 42.377875 49.908537)"/>
    <path d="m64.03125 8c-7.868432.0100117-17.202689 26.554451-23.5625 31.1875-6.35981 4.633048-34.4842926 5.388582-36.90625 12.875-2.4219574 7.486417 19.902749 24.551024 22.34375 32.03125 2.441001 7.48023-5.49658 34.44565.875 39.0625s29.506568-11.33374 37.375-11.34375 31.046441 15.88305 37.40625 11.25c6.35981-4.63305-1.671956-31.576086.75-39.0625 2.42196-7.486417 24.72225-24.61352 22.28125-32.09375-2.441-7.480229-30.565921-8.164401-36.9375-12.78125-6.37158-4.616848-15.756565-31.1350121-23.625-31.125zm0 3.90625c.176796.139173 1.53651.806014 3.125 2.75 1.81542 2.221697 3.875176 5.553809 5.90625 9.09375 2.031073 3.53994 4.051482 7.298819 6.03125 10.5625 1.979769 3.263682 3.66137 6.016491 6.3125 7.9375 2.651126 1.921009 5.78206 2.66637 9.5 3.53125 3.717942.864879 7.90981 1.609902 11.90625 2.4375 3.99644.827597 7.79215 1.748037 10.46875 2.78125 2.34202.904061 3.4372 2.000764 3.625 2.125-.08007.208062-.32953 1.669782-1.6875 3.78125-1.55196 2.413106-4.07345 5.411931-6.8125 8.4375-2.73904 3.025566-5.69534 6.108596-8.1875 9-2.49216 2.891405-4.586006 5.353751-5.59375 8.46875-1.007744 3.114995-.732607 6.321766-.40625 10.125.326357 3.803238.895872 8.03716 1.34375 12.09375.44788 4.05658.74928 7.94763.59375 10.8125-.13609 2.50677-.81474 3.8472-.875 4.0625-.223807-.00839-1.728488.26402-4.15625-.375-2.774583-.73032-6.401101-2.23621-10.125-3.90625-3.723897-1.67003-7.573741-3.52331-11.09375-5-3.520008-1.4767-6.47605-2.69166-9.75-2.6875-3.273947.00417-6.265009 1.2331-9.78125 2.71875-3.516239 1.48565-7.342863 3.35174-11.0625 5.03125-3.719638 1.6795-7.352284 3.16888-10.125 3.90625-2.426127.6452-3.900592.39713-4.125.40625-.058488-.2136-.76378-1.5561-.90625-4.0625-.162822-2.86447.124949-6.75479.5625-10.8125.437549-4.0577.995823-8.289698 1.3125-12.09375.316678-3.804052.578168-7.043825-.4375-10.15625-1.015668-3.112427-3.125487-5.552447-5.625-8.4375-2.499512-2.885048-5.440762-5.950161-8.1875-8.96875-2.746738-3.018592-5.285649-5.997101-6.84375-8.40625-1.3633382-2.108004-1.5782947-3.605101-1.65625-3.8125.0149539.087785.9868526-1.123215 3.5625-2.125 2.673955-1.040023 6.50568-1.974735 10.5-2.8125 3.99432-.837763 8.190522-1.563161 11.90625-2.4375 3.71573-.874337 6.853767-1.63475 9.5-3.5625 2.646234-1.927752 4.309794-4.700042 6.28125-7.96875 1.971455-3.268708 3.977941-7.017403 6-10.5625 2.022058-3.545097 4.065243-6.89869 5.875-9.125 1.583537-1.948021 2.951215-2.611698 3.125-2.75z" fill="url(#linearGradient2898)"/>
    <path d="m60.98796 9.471226c1.858531-1.2569238 3.901947-1.4507558 6.231378 0l-3.18198 6.14299z" fill="url(#linearGradient3800)" fill-rule="evenodd" filter="url(#filter3838)"/>
    <path d="m64.039064 11.90625c-.17379.138302-1.54147.801979-3.125 2.75-1.80976 2.22631-3.85294 5.579903-5.875 9.125s-4.02855 7.293792-6 10.5625c-1.97146 3.268708-3.63502 6.040998-6.28125 7.96875-2.64624 1.92775-5.78427 2.688163-9.5 3.5625-3.71573.874339-7.91193 1.599737-11.90625 2.4375-3.99432.837765-7.82605 1.772477-10.5 2.8125-2.5756509 1.001785-3.5475509 2.212785-3.5625009 2.125.07795.207399.29291 1.704496 1.65625 3.8125 1.5581009 2.409149 4.0970109 5.387658 6.8437509 8.40625 2.74674 3.018589 5.68799 6.083702 8.1875 8.96875 2.49951 2.885053 4.60933 5.325073 5.625 8.4375.26358.807722.41834 1.636238.53125 2.46875 2.40784.087329 4.82912.15625 7.28125.15625 27.04242 0 51.56006-5.392866 69.499996-14.15625 1.79977-1.973709 3.69378-4.004839 5.5-6 2.73905-3.025569 5.26053-6.024394 6.8125-8.4375 1.35797-2.111468 1.60742-3.573188 1.6875-3.78125-.1878-.124236-1.28299-1.220939-3.625-2.125-2.6766-1.033213-6.47232-1.953653-10.46875-2.78125-3.99644-.827598-8.188316-1.572621-11.906246-2.4375-3.71794-.86488-6.84888-1.610241-9.5-3.53125-2.65113-1.921009-4.33273-4.673818-6.3125-7.9375-1.97977-3.263681-4.00018-7.02256-6.03125-10.5625-2.03108-3.539941-4.09083-6.872053-5.90625-9.09375-1.58849-1.943986-2.94821-2.610827-3.125-2.75z" fill="url(#linearGradient3315)"/>
    <g transform="translate(-132.29928)">
      <path d="m196.34375 11.90625c-.17379.138302-1.54147.801979-3.125 2.75-1.80976 2.22631-3.85294 5.579903-5.875 9.125s-4.02855 7.293792-6 10.5625c-1.97146 3.268708-3.63502 6.040998-6.28125 7.96875-2.64624 1.92775-5.78427 2.688163-9.5 3.5625-3.71573.874339-7.91193 1.599737-11.90625 2.4375-3.99432.837765-7.82605 1.772477-10.5 2.8125-2.57565 1.001785-3.54755 2.212785-3.5625 2.125.03002.079884.12153.388731.25.8125.41575-.36252 1.4161-1.199905 3.3125-1.9375 2.67395-1.040023 6.50568-1.974735 10.5-2.8125 3.99432-.837763 8.19052-1.563161 11.90625-2.4375 3.71573-.874337 6.85376-1.63475 9.5-3.5625 2.64623-1.927752 4.30979-4.700042 6.28125-7.96875 1.97145-3.268708 3.97794-7.017403 6-10.5625s4.06524-6.89869 5.875-9.125c1.58353-1.948021 2.95121-2.611698 3.125-2.75.17679.139173 1.53651.806014 3.125 2.75 1.81542 2.221697 3.87517 5.553809 5.90625 9.09375 2.03107 3.53994 4.05148 7.298819 6.03125 10.5625 1.97977 3.263682 3.66137 6.016491 6.3125 7.9375 2.65112 1.921009 5.78206 2.66637 9.5 3.53125 3.71793.864879 7.90981 1.609902 11.90625 2.4375 3.99643.827597 7.79215 1.748037 10.46875 2.78125 1.92073.74144 2.9755 1.579608 3.40625 1.9375.13371-.415016.18802-.732649.21875-.8125-.1878-.124236-1.28299-1.220939-3.625-2.125-2.6766-1.033213-6.47232-1.953653-10.46875-2.78125-3.99644-.827598-8.18832-1.572621-11.90625-2.4375-3.71794-.86488-6.84888-1.610241-9.5-3.53125-2.65113-1.921009-4.33273-4.673818-6.3125-7.9375-1.97977-3.263681-4.00018-7.02256-6.03125-10.5625-2.03108-3.539941-4.09083-6.872053-5.90625-9.09375-1.58849-1.943986-2.94821-2.610827-3.125-2.75z" fill="url(#linearGradient3369)"/>
      <path d="m246.78125 49.937636c.64344.20483 1.2572.44189 1.8125.65625 2.34201.90406 3.4372 2.00077 3.625 2.125-.08008.20807-.32953 1.66979-1.6875 3.78125-1.55197 2.41311-4.07345 5.41193-6.8125 8.4375-1.80622 1.99516-3.70023 4.02629-5.5 6-17.93994 8.76339-42.45758 14.15625-69.5 14.15625-2.12442 0-4.22307-.05438-6.3125-.125.01215.08285.02.16705.03125.25 2.40784.08733 4.82912.15625 7.28125.15625 27.04242 0 51.56006-5.39286 69.5-14.15625 1.79977-1.97371 3.69378-4.00484 5.5-6 2.73905-3.02557 5.26053-6.02439 6.8125-8.4375 1.35797-2.11146 1.60742-3.57318 1.6875-3.78125-.1878-.12423-1.28299-1.22094-3.625-2.125-.83507-.32235-1.78746-.6365-2.8125-.9375z" fill="url(#linearGradient3345)"/>
    </g>
    <path d="m25.190679 119.77989c1.224 2.96249 2.050483 4.33908 6.098796 3.53553l-.651119-3.10534-1.55859.18852-.818055-1.82519z" fill="url(#linearGradient3934)" fill-rule="evenodd" filter="url(#filter3928)" opacity=".771536"/>
    <path d="m64.125001 11.90625c-.17379.138302-1.54147.801979-3.125 2.75-1.80976 2.22631-3.85294 5.579903-5.875 9.125s-4.02855 7.293792-6 10.5625c-1.97146 3.268708-3.63502 6.040998-6.28125 7.96875-2.64624 1.92775-5.78427 2.688163-9.5 3.5625-3.71573.874339-7.91193 1.599737-11.90625 2.4375-3.99432.837765-7.82605 1.772477-10.5 2.8125-2.5756504 1.001785-3.5475504 2.212785-3.5625004 2.125.07795.207399.29291 1.704496 1.65625 3.8125 1.5581004 2.409149 4.0970104 5.387658 6.8437504 8.40625 2.74674 3.018589 5.68799 6.083702 8.1875 8.96875 2.49951 2.885053 4.60933 5.325073 5.625 8.4375 1.01567 3.112425.75418 6.352198.4375 10.15625s-.87495 8.03605-1.3125 12.09375c-.43755 4.05771-.72532 7.94803-.5625 10.8125.14247 2.5064.84776 3.8489.90625 4.0625.22441-.00912 1.69887.23895 4.125-.40625 2.77271-.73737 6.40536-2.22675 10.125-3.90625 3.71963-1.67951 7.54626-3.5456 11.0625-5.03125s6.5073-2.71458 9.78125-2.71875c3.27395-.00416 6.22999 1.2108 9.75 2.6875 3.52001 1.47669 7.36985 3.32997 11.09375 5 3.7239 1.67004 7.3504 3.17593 10.125 3.90625 2.42776.63902 3.93243.36661 4.15625.375.06026-.2153.738899-1.55573.874999-4.0625.15553-2.86487-.14588-6.75592-.593749-10.8125-.44788-4.05659-1.01741-8.290512-1.34375-12.09375-.32636-3.803234-.60151-7.010005.40625-10.125 1.00774-3.114999 3.101579-5.577345 5.593749-8.46875 2.49216-2.891404 5.44845-5.974434 8.1875-9 2.73905-3.025569 5.26053-6.024394 6.8125-8.4375 1.35797-2.111468 1.60742-3.573188 1.6875-3.78125-.1878-.124236-1.28299-1.220939-3.625-2.125-2.6766-1.033213-6.47232-1.953653-10.46875-2.78125-3.99644-.827598-8.188319-1.572621-11.906249-2.4375-3.71794-.86488-6.84888-1.610241-9.5-3.53125-2.65113-1.921009-4.33273-4.673818-6.3125-7.9375-1.97977-3.263681-4.00018-7.02256-6.03125-10.5625-2.03108-3.539941-4.09083-6.872053-5.90625-9.09375-1.58849-1.943986-2.94821-2.610827-3.125-2.75z" style="fill:none;stroke-width:2;stroke-linecap:round;stroke-linejoin:round;stroke-dashoffset:4;filter:url(#filter3391);stroke:url(#linearGradient3385)"/>
    <path d="m64.125001 11.90625c-.17379.138302-1.54147.801979-3.125 2.75-1.80976 2.22631-3.85294 5.579903-5.875 9.125s-4.02855 7.293792-6 10.5625c-1.97146 3.268708-3.63502 6.040998-6.28125 7.96875-2.64624 1.92775-5.78427 2.688163-9.5 3.5625-3.71573.874339-7.91193 1.599737-11.90625 2.4375-3.99432.837765-7.82605 1.772477-10.5 2.8125-2.5756504 1.001785-3.5475504 2.212785-3.5625004 2.125.07795.207399.29291 1.704496 1.65625 3.8125 1.5581004 2.409149 4.0970104 5.387658 6.8437504 8.40625 2.74674 3.018589 5.68799 6.083702 8.1875 8.96875 2.49951 2.885053 4.60933 5.325073 5.625 8.4375 1.01567 3.112425.75418 6.352198.4375 10.15625s-.87495 8.03605-1.3125 12.09375c-.43755 4.05771-.72532 7.94803-.5625 10.8125.14247 2.5064.84776 3.8489.90625 4.0625.22441-.00912 1.69887.23895 4.125-.40625 2.77271-.73737 6.40536-2.22675 10.125-3.90625 3.71963-1.67951 7.54626-3.5456 11.0625-5.03125s6.5073-2.71458 9.78125-2.71875c3.27395-.00416 6.22999 1.2108 9.75 2.6875 3.52001 1.47669 7.36985 3.32997 11.09375 5 3.7239 1.67004 7.3504 3.17593 10.125 3.90625 2.42776.63902 3.93243.36661 4.15625.375.06026-.2153.738899-1.55573.874999-4.0625.15553-2.86487-.14588-6.75592-.593749-10.8125-.44788-4.05659-1.01741-8.290512-1.34375-12.09375-.32636-3.803234-.60151-7.010005.40625-10.125 1.00774-3.114999 3.101579-5.577345 5.593749-8.46875 2.49216-2.891404 5.44845-5.974434 8.1875-9 2.73905-3.025569 5.26053-6.024394 6.8125-8.4375 1.35797-2.111468 1.60742-3.573188 1.6875-3.78125-.1878-.124236-1.28299-1.220939-3.625-2.125-2.6766-1.033213-6.47232-1.953653-10.46875-2.78125-3.99644-.827598-8.188319-1.572621-11.906249-2.4375-3.71794-.86488-6.84888-1.610241-9.5-3.53125-2.65113-1.921009-4.33273-4.673818-6.3125-7.9375-1.97977-3.263681-4.00018-7.02256-6.03125-10.5625-2.03108-3.539941-4.09083-6.872053-5.90625-9.09375-1.58849-1.943986-2.94821-2.610827-3.125-2.75z" style="fill:none;stroke-width:1.2;stroke-linecap:round;stroke-linejoin:round;stroke-dashoffset:4;stroke:url(#linearGradient3385);filter:url(#filter3401)"/>
    <path d="m25.190679 119.77989c1.224 2.96249 2.050483 4.33908 6.098796 3.53553l-.651119-3.10534-1.55859.18852-.818055-1.82519z" fill="url(#linearGradient3934)" fill-rule="evenodd" filter="url(#filter3928)" opacity=".771536" transform="matrix(-1 0 0 1 128.10515 0)"/>
    <path d="m26.03125 94.25c-1.047495 10.8642-3.81183 25.60075.75 28.90625 6.37158 4.61685 29.506568-11.33374 37.375-11.34375s31.046441 15.88305 37.40625 11.25c4.54029-3.30755 1.74565-17.96066.65625-28.8125h-3.875c.334114 3.457156.820899 7.17777 1.21875 10.78125.44788 4.05658.74928 7.94763.59375 10.8125-.13609 2.50677-.81474 3.8472-.875 4.0625-.223807-.00839-1.728488.26402-4.15625-.375-2.774583-.73032-6.401101-2.23621-10.125-3.90625-3.723897-1.67003-7.573741-3.52331-11.09375-5-3.520008-1.4767-6.47605-2.69166-9.75-2.6875-3.273947.00417-6.265009 1.2331-9.78125 2.71875-3.516239 1.48565-7.342863 3.35174-11.0625 5.03125-3.719638 1.6795-7.352284 3.16888-10.125 3.90625-2.426127.6452-3.900592.39713-4.125.40625-.058488-.2136-.76378-1.5561-.90625-4.0625-.162822-2.86447.124949-6.75479.5625-10.8125.392136-3.63655.862243-7.391973 1.1875-10.875z" fill="url(#radialGradient3956)"/>
  </g>
</svg>
