<?xml version="1.0" encoding="UTF-8" standalone="no"?>
<!-- Created with Inkscape (http://www.inkscape.org/) -->
<svg height="128" width="128" xmlns="http://www.w3.org/2000/svg" xmlns:xlink="http://www.w3.org/1999/xlink">
  <defs>
    <linearGradient id="linearGradient3178">
      <stop offset="0" stop-color="#fff"/>
      <stop offset="1" stop-color="#fff" stop-opacity="0"/>
    </linearGradient>
    <linearGradient id="linearGradient3139">
      <stop offset="0"/>
      <stop offset="1" stop-opacity="0"/>
    </linearGradient>
    <linearGradient id="linearGradient3087" gradientUnits="userSpaceOnUse" x1="69.03301" x2="92.66547" xlink:href="#linearGradient3178" y1="1.213204" y2="58.45406"/>
    <radialGradient id="radialGradient3095" cx="340" cy="79.349312" gradientTransform="matrix(1 0 0 1.0450031 -276 -2.92028)" gradientUnits="userSpaceOnUse" r="50.34375" xlink:href="#linearGradient3178"/>
    <filter id="filter3135" height="1.490323" width="1.070046" x="-.035023" y="-.245161">
      <feGaussianBlur stdDeviation=".40860215"/>
    </filter>
    <radialGradient id="radialGradient3145" cx="30" cy="122" gradientTransform="matrix(1 0 0 .1428571 0 104.57143)" gradientUnits="userSpaceOnUse" r="14" xlink:href="#linearGradient3139"/>
    <linearGradient id="linearGradient3170" gradientUnits="userSpaceOnUse" x1="49.262497" x2="116.0125" xlink:href="#linearGradient3178" y1="-1.46875" y2="29.53125"/>
    <radialGradient id="radialGradient3184" cx="116.76101" cy="11.175352" gradientTransform="matrix(.9001592 .4355611 -.681818 1.4090899 19.277072 -55.364636)" gradientUnits="userSpaceOnUse" r="1.944545" xlink:href="#linearGradient3178"/>
    <filter id="filter3290" height="1.571906" width="1.470265" x="-.235133" y="-.285953">
      <feGaussianBlur stdDeviation=".38968136"/>
    </filter>
    <radialGradient id="radialGradient3302" cx="27.965677" cy="15.017876" fx="29.527468" fy="20.172876" gradientTransform="matrix(.2363926 -.1272488 .168427 .3128903 18.825381 14.116411)" gradientUnits="userSpaceOnUse" r="57.028141" xlink:href="#linearGradient3178"/>
    <radialGradient id="radialGradient3315" cx="101.15124" cy="96.727608" gradientTransform="matrix(.1669553 .03524456 -.05525814 .2617608 89.608474 67.689509)" gradientUnits="userSpaceOnUse" r="57.028141" xlink:href="#linearGradient3178"/>
    <linearGradient id="linearGradient3336" gradientUnits="userSpaceOnUse" x1="65.298004" x2="72.75" xlink:href="#linearGradient3178" y1="124.5" y2="57"/>
    <filter id="filter3398">
      <feGaussianBlur stdDeviation=".52225998"/>
    </filter>
    <radialGradient id="radialGradient3418" cx="119.06503" cy="86.620445" gradientTransform="matrix(.9522422 .3053434 -1.5320271 4.7777695 138.34103 -365.10086)" gradientUnits="userSpaceOnUse" r="1.98874" xlink:href="#linearGradient3178"/>
    <filter id="filter3518" height="1.272666" width="1.233578" x="-.116789" y="-.136333">
      <feGaussianBlur stdDeviation=".19355217"/>
    </filter>
    <linearGradient id="linearGradient3584" gradientUnits="userSpaceOnUse" x1="28.991379" x2="34.992661" xlink:href="#linearGradient3139" y1="124.05025" y2="94.351768"/>
    <filter id="filter3734" height="1.385821" width="1.317575" x="-.158787" y="-.192911">
      <feGaussianBlur stdDeviation="2.3871476"/>
    </filter>
    <linearGradient id="linearGradient3740" gradientUnits="userSpaceOnUse" x1="92.277436" x2="94.036076" xlink:href="#linearGradient3139" y1="124.05025" y2="92.230446"/>
  </defs>
  <g>
    <path d="m83.4386 93.998214 42.07286 1.414213c-5.71754 17.875113-21.22541 27.930113-32.017606 27.098833-8.670772-.66788-14.17225-7.6735-10.055254-28.513046z" fill="url(#linearGradient3740)" fill-rule="evenodd" filter="url(#filter3734)"/>
    <path d="m36.769553 92.230447 16.263456 2.12132c-4.998207 12.804493-9.334676 28.679553-24.393454 28.367763-19.4426469-.40256 4.366058-22.6918 8.129998-30.489083z" fill="url(#linearGradient3584)" fill-rule="evenodd" filter="url(#filter3734)"/>
    <path d="m7.4375172 39.125862c-.2738626 1.022069.1342919 2.227127 1.0459787 2.628176 1.0545481.463894 2.6877501-.010645 3.1903481-.881171 6.342206-10.985022 10.722032-12.942713 21.013137-12.942713h10.152364l-5.738292 48.99619c-.882815 6.179701-3.751969 11.035186-11.255883 17.876989-6.841802 6.179697-8.828142 9.710967-8.828142 14.566437 0 6.6211 5.296894 12.1387 12.138696 12.1387 6.841803 0 12.138704-5.07619 15.007843-14.56644 1.986331-5.73829 5.076189-28.250073 7.062513-50.541117l2.648443-28.470759h24.056689c-2.648435 17.435565-4.634776 41.271582-4.634776 53.851669 0 24.718777 8.386752 39.726647 21.849654 39.726647 8.60744 0 16.33208-5.95901 21.62895-16.33207 2.5539-5.1078 3.29575-8.910229 4.25996-16.237437.30829-2.34277-.97561-3.416555-2.27952-3.716705-1.35921-.312881-2.7708 1.102276-3.39645 3.182972-2.23484 7.432267-5.69308 11.474285-11.8262 11.474285-4.414067 0-9.048851-3.08985-11.476591-7.724625-1.986324-3.972656-2.648443-7.503928-2.648443-14.787139 0-16.773455 1.103518-37.298909 2.648443-49.437597l25.881121.06469c1.19246 0 2.06264-.659458 2.06264-1.994845v-15.158755c0-1.8434572-1.1168-2.841244-2.97383-2.841244h-73.02617c-11.917977 0-17.492726 1.8324697-23.893122 8.012161-5.742753 5.74276-9.198357 11.676133-12.6693608 23.113701z"/>
    <path d="m41.84375 8.03125c-10.45601.2239518-15.749629 2.175289-21.75 7.96875-1.783978 1.78398-3.338427 3.613688-4.75 5.59375 1.462431 1.046635 3.21875 2.28125 3.21875 2.28125 5.775764-8.688877 13.609992-12.23736 23.15625-11.5l.3125-4.34375c-.060951.0011809-.126898-.001298-.1875 0z" fill="url(#radialGradient3302)" opacity=".6875"/>
    <path d="m44 12c-5.78615 0-11.309862.702865-13.966492 1.625s-4.68151 2.316411-7.6875 5.21875c-3.25596 3.255965-5.62614 6.556865-7.75 11.03125 1.04103-1.000123 2.1138-1.90502 3.28125-2.65625 4.0228-2.588587 8.61631-3.28125 14.21875-3.28125l11.403992.0625h4.5l-.53125 4.46875c-2.889007 15.556709-5.073433 32.05286-6.966492 48.9375l-.03125.03125v.0625c-1.01292 7.090459-4.67496 13.115399-12.5 20.25h-.03125v.03125c-3.28255 2.96488-5.20393 5.14547-6.21875 6.84375s-1.28125 2.86772-1.28125 4.75c0 4.48776 3.43374 8.125 8.125 8.125 2.43165 0 4.33079-.76736 6.21875-2.59375s3.67433-4.84346 4.96875-9.125l.03125-.0625.03125-.09375c.67398-1.94704 2.08605-9.231234 3.34375-18.28125s2.51254-20.231043 3.5-31.3125l3.903992-28.40625.34375-3.625h3.625 22.874998 4.656252l-.6875 4.59375c-2.611742 17.194017-4.653992 41.02847-4.653992 53.1875 0 11.907007 2.08493 21.23175 5.375002 27.1875 3.29007 5.95575 7.22364 8.53125 12.46875 8.53125 6.76127 0 13.19978-4.60215 18.0625-14.125.92907-1.85815 1.55031-3.467314 2.09375-5.125-2.77587 3.5794-7.12955 5.625-11.78125 5.625-6.28073 0-11.94037-4.033895-15-9.875l-.03125-.03125v-.03125c-2.25134-4.502686-3.09375-9.03686-3.09375-16.5625.00001-16.948893 1.16163-37.412742 2.74774-49.875l.4375-3.5h3.53125 24.46875v-12z" fill="none" filter="url(#filter3398)" opacity=".752717" stroke="url(#linearGradient3336)"/>
    <path d="m44 12c-5.78615 0-11.309862.702865-13.966492 1.625s-4.68151 2.316411-7.6875 5.21875c-3.25596 3.255965-5.62614 6.556865-7.75 11.03125 1.04103-1.000123 2.1138-1.90502 3.28125-2.65625 4.0228-2.588587 8.61631-3.28125 14.21875-3.28125l11.403992.0625h4.5l-.53125 4.46875c-2.889007 15.556709-5.073433 32.05286-6.966492 48.9375l-.03125.03125v.0625c-1.01292 7.090459-4.67496 13.115399-12.5 20.25h-.03125v.03125c-3.28255 2.96488-5.20393 5.14547-6.21875 6.84375s-1.28125 2.86772-1.28125 4.75c0 4.48776 3.43374 8.125 8.125 8.125 2.43165 0 4.33079-.76736 6.21875-2.59375s3.67433-4.84346 4.96875-9.125l.03125-.0625.03125-.09375c.67398-1.94704 2.08605-9.231234 3.34375-18.28125s2.51254-20.231043 3.5-31.3125l3.903992-28.40625.34375-3.625h3.625 22.874998 4.656252l-.6875 4.59375c-2.611742 17.194017-4.653992 41.02847-4.653992 53.1875 0 11.907007 2.08493 21.23175 5.375002 27.1875 3.29007 5.95575 7.22364 8.53125 12.46875 8.53125 6.76127 0 13.19978-4.60215 18.0625-14.125.92907-1.85815 1.55031-3.467314 2.09375-5.125-2.77587 3.5794-7.12955 5.625-11.78125 5.625-6.28073 0-11.94037-4.033895-15-9.875l-.03125-.03125v-.03125c-2.25134-4.502686-3.09375-9.03686-3.09375-16.5625.00001-16.948893 1.16163-37.412742 2.74774-49.875l.4375-3.5h3.53125 24.46875v-12z" fill="url(#radialGradient3095)" opacity=".527174"/>
    <path d="m44 12c-5.78615 0-11.081511.702865-13.738141 1.625s-4.68151 2.316411-7.6875 5.21875c-3.25596 3.255965-5.62614 6.556865-7.75 11.03125 1.04103-1.000123 2.1138-1.90502 3.28125-2.65625 4.0228-2.588587 8.61631-3.28125 14.21875-3.28125l11.175641.0625h4.5l-.53125 4.46875-2.975641 18.53125c1.17403-.174345 2.34026-.364589 3.5-.5625l2.569391-18.8125.34375-3.625h3.625 22.875 4.65625l-.6875 4.59375c-.40914 2.693501-.615111 5.517158-.988141 8.46875 2.25705-.951683 4.48369-1.948964 6.625-3 .22672-2.363082.296491-4.565616.550641-6.5625l.4375-3.5h3.53125 12.46875c4.34933-3.218365 8.56937-7.03902 12-10.71875v-1.28125z" fill="url(#linearGradient3087)" opacity=".6875"/>
    <path d="m44 122a14 2 0 1 1 -28 0 14 2 0 1 1 28 0z" fill="url(#radialGradient3145)" filter="url(#filter3135)" transform="matrix(.6071429 0 0 1 11.285714 -1)"/>
    <path d="m44 122a14 2 0 1 1 -28 0 14 2 0 1 1 28 0z" fill="url(#radialGradient3145)" filter="url(#filter3135)" transform="matrix(.7678571 0 0 1 71.764287 -1)"/>
    <path d="m43.949998 11.96875c-5.78615 0-11.09337.702865-13.75 1.625s-4.68151 2.316411-7.6875 5.21875c-3.25596 3.255966-5.62614 6.556865-7.75 11.03125.29807-.286351.6015-.543133.90625-.8125 1.89665-3.584559 4.04355-6.418542 6.84375-9.21875 3.00599-2.902338 5.03087-4.296615 7.6875-5.21875s7.96385-1.625 13.75-1.625h70.968752c-3.39842 3.621525-7.53729 7.367736-11.8125 10.53125l-11.71875.25h-3.53125l-.437502 3.5c-.25415 1.996884-1.08579 3.949418-1.3125 6.3125-1.80712.887001-3.66688 1.747165-5.5625 2.5625l-.21875.90625.09375-.03125-.03125.15625c2.25705-.951681 4.48369-1.948964 6.625002-3l.875-10.375 16.125.3125c4.34934-3.218365 8.56937-7.03902 12-10.71875v-1.28125h-.0625v-.125zm3.15625 33.96875c-.79671.135959-1.60272.249176-2.40625.375l-.25.65625c.02028-.003012.04257.004416.0625 0l-.03125.125c1.17402-.174343 2.34026-.364589 3.5-.5625z" fill="url(#linearGradient3170)" opacity=".6875"/>
    <path d="m116.14229 8.4989529-.08839 3.2703681 3.97748-1.325824c-.89524-.8773923-1.42661-1.9627136-3.88909-1.9445441z" fill="url(#radialGradient3184)" fill-rule="evenodd" filter="url(#filter3290)" opacity=".6875"/>
    <path d="m90.84375 89.25-2.8125 5.15625c3.929107 6.37964 11.220223 12.27428 21.84375 7.96875l.3125-4.625c-1.81769 1.40032-4.04297 2.125-6.65625 2.125-4.414066-.000002-9.04101-3.083975-11.46875-7.71875-.48581-.971623-.881676-1.926084-1.21875-2.90625z" fill="url(#radialGradient3315)" opacity=".769022"/>
    <g fill-rule="evenodd">
      <path d="m116.58423 86.899418-.42417 9.084709 4.40165-8.377602c-1.02978-1.913313-2.24436-2.779415-3.97748-.707107z" fill="url(#radialGradient3418)" filter="url(#filter3518)"/>
      <path d="m116.14229 8.4989529-.08839 3.2703681 3.97748-1.325824c-.89524-.8773923-1.42661-1.9627136-3.88909-1.9445441z" fill="url(#radialGradient3184)" filter="url(#filter3290)" opacity=".6875"/>
    </g>
  </g>
</svg>
