<?xml version="1.0" encoding="UTF-8" standalone="no"?>
<!-- Created with Inkscape (http://www.inkscape.org/) -->
<svg height="128" width="128" xmlns="http://www.w3.org/2000/svg" xmlns:xlink="http://www.w3.org/1999/xlink">
  <defs>
    <linearGradient id="linearGradient6305">
      <stop offset="0" stop-color="#fff"/>
      <stop offset="1" stop-color="#fff" stop-opacity="0"/>
    </linearGradient>
    <linearGradient id="linearGradient5897">
      <stop offset="0"/>
      <stop offset="1" stop-opacity="0"/>
    </linearGradient>
    <filter id="filter5819">
      <feGaussianBlur stdDeviation="2.16"/>
    </filter>
    <linearGradient id="linearGradient5841" gradientUnits="userSpaceOnUse" x1="81.08387" x2="81.08387" y1="110.45161" y2="17.378506">
      <stop offset="0" stop-color="#888"/>
      <stop offset="1" stop-color="#ddd"/>
    </linearGradient>
    <linearGradient id="linearGradient5855" gradientTransform="matrix(.9285714 0 0 1 4.571429 0)" gradientUnits="userSpaceOnUse" x1="74.270966" x2="74.89032" y1="28" y2="113.00595">
      <stop offset="0" stop-color="#323232"/>
      <stop offset="1" stop-color="#555753"/>
    </linearGradient>
    <clipPath id="clipPath5887">
      <rect height="76" width="112" x="8" y="28"/>
    </clipPath>
    <linearGradient gradientUnits="userSpaceOnUse" x1="74.270966" x2="74.89032" y1="28" y2="104.00007">
      <stop offset="0" stop-color="#323232"/>
      <stop offset="1" stop-color="#636363"/>
    </linearGradient>
    <filter id="filter5893">
      <feGaussianBlur stdDeviation="1.8679483"/>
    </filter>
    <linearGradient id="linearGradient5903" gradientUnits="userSpaceOnUse" x1="66.918114" x2="67.362778" xlink:href="#linearGradient5897" y1="30.077419" y2="125.90168"/>
    <filter id="filter5934" height="1.204" width="1.01275" x="-.006375" y="-.102">
      <feGaussianBlur stdDeviation=".2975"/>
    </filter>
    <linearGradient id="linearGradient5944" gradientUnits="userSpaceOnUse" x1="19.40645" x2="18.656286" y1="20.129032" y2="21.428354">
      <stop offset="0" stop-color="#2e2e2e"/>
      <stop offset="1" stop-color="#a3a3a3"/>
    </linearGradient>
    <filter id="filter6296" height="1.312" width="1.01248" x="-.00624" y="-.156">
      <feGaussianBlur stdDeviation=".26000001"/>
    </filter>
    <linearGradient id="linearGradient6311" gradientTransform="matrix(.9801489 0 0 .9769005 1.270472 1.472592)" gradientUnits="userSpaceOnUse" x1="49.371735" x2="49.371735" xlink:href="#linearGradient6305" y1="28" y2="63.755795"/>
    <linearGradient id="linearGradient3954">
      <stop offset="0" stop-color="#b3b3b3"/>
      <stop offset=".52879584" stop-color="#fff"/>
      <stop offset="1" stop-color="#c5c5c5"/>
    </linearGradient>
    <linearGradient id="linearGradient4601">
      <stop offset="0" stop-color="#fff" stop-opacity="0"/>
      <stop offset=".60768723" stop-color="#fff" stop-opacity="0"/>
      <stop offset=".80807632" stop-color="#fff"/>
      <stop offset=".94315338" stop-color="#fff" stop-opacity="0"/>
      <stop offset="1" stop-color="#fff" stop-opacity="0"/>
    </linearGradient>
    <radialGradient id="radialGradient7673" cx="64.17112" cy="65.540108" fx="60.836517" fy="25.623783" gradientUnits="userSpaceOnUse" r="63.144386">
      <stop offset="0" stop-color="#002246" stop-opacity="0"/>
      <stop offset=".86725664" stop-color="#002246" stop-opacity="0"/>
      <stop offset="1" stop-color="#002246" stop-opacity=".715302"/>
    </radialGradient>
    <linearGradient id="linearGradient7675" gradientUnits="userSpaceOnUse" x1="10.955224" x2="134.49483" xlink:href="#linearGradient3954" y1="132.72182" y2="9.180258"/>
    <radialGradient id="radialGradient7677" cx="49.661034" cy="15.306388" fx="29.735439" fy="29.70657" gradientTransform="matrix(1.706871 0 0 1.478985 -45.24271 4.292087)" gradientUnits="userSpaceOnUse" r="48.206" xlink:href="#linearGradient4601"/>
    <radialGradient id="radialGradient7679" cx="83.739357" cy="23.903526" fx="63.813786" fy="38.303715" gradientTransform="matrix(1.706871 0 0 1.478985 -45.24271 4.292087)" gradientUnits="userSpaceOnUse" r="48.206" xlink:href="#linearGradient4601"/>
    <radialGradient id="radialGradient7681" cx="63.219715" cy="33.818619" fx="63.219727" fy="19.341215" gradientTransform="matrix(1.059108 -.00000092 .00000074 .84752 -3.632598 11.347256)" gradientUnits="userSpaceOnUse" r="37.190357" xlink:href="#linearGradient6305"/>
    <radialGradient id="radialGradient7685" cx="64.49144" cy="66.580559" fx="63.720734" fy="15.594903" gradientTransform="matrix(.753675 0 0 .784203 15.89113 18.11211)" gradientUnits="userSpaceOnUse" r="63.144386">
      <stop offset="0" stop-color="#002246" stop-opacity="0"/>
      <stop offset=".78761059" stop-color="#002246" stop-opacity="0"/>
      <stop offset="1" stop-color="#00438a"/>
    </radialGradient>
    <linearGradient id="linearGradient7687" gradientUnits="userSpaceOnUse" x1="45.73672450903" x2="60.86020579843" y1="59.69628765349" y2="26.51269746253">
      <stop offset="0" stop-color="#b3b3b3"/>
      <stop offset="1" stop-color="#fff"/>
    </linearGradient>
    <linearGradient id="linearGradient7689" gradientUnits="userSpaceOnUse" x1="35.0345425534" x2="88.11750554635" xlink:href="#linearGradient3954" y1="98.10971543654" y2="29.66848700766"/>
    <filter id="filter3653">
      <feGaussianBlur stdDeviation=".93274204"/>
    </filter>
    <filter id="filter3543">
      <feGaussianBlur stdDeviation="1.38"/>
    </filter>
    <linearGradient id="linearGradient3533" gradientUnits="userSpaceOnUse" x1="99.873619" x2="59.34045" xlink:href="#linearGradient5897" y1="75.121643" y2="64.004425"/>
    <clipPath id="clipPath3529">
      <path d="m56.25 17.472446c-9.472513 9.468404-29.322928 17.913707-36.25 19.839116 0 29.740272 19.954744 74.688438 44 74.688438 23.99163 0 44-44.948166 44-74.688438-6.92707-1.925409-26.777487-10.370712-36.25-19.839116-2.687507-1.963845-12.812388-1.962677-15.5 0z"/>
    </clipPath>
    <filter id="filter3521">
      <feGaussianBlur stdDeviation="1.92"/>
    </filter>
    <filter id="filter3378" height="1.330198" width="1.360216" x="-.180108" y="-.165099">
      <feGaussianBlur stdDeviation="3.612593"/>
    </filter>
    <filter id="filter3294" height="1.227723" width="1.248425" x="-.124212" y="-.113861">
      <feGaussianBlur stdDeviation="3.7263727"/>
    </filter>
    <clipPath id="clipPath3206">
      <path d="m57.659091 25.932002c-7.750238 7.746876-23.991486 14.656668-29.659091 16.232004 0 24.332949 16.32661 61.108724 36 61.108724 19.629515 0 36-36.775775 36-61.108724-5.667604-1.575336-21.908853-8.485128-29.659091-16.232004-2.198869-1.606783-10.482862-1.605827-12.681818 0z"/>
    </clipPath>
    <radialGradient id="radialGradient8012" cx="64" cy="64" gradientTransform="matrix(.852937 0 0 1.8124371 9.412035 -51.995978)" gradientUnits="userSpaceOnUse" r="44">
      <stop offset="0" stop-color="#eee"/>
      <stop offset="1" stop-color="#babdb6"/>
    </radialGradient>
    <linearGradient id="linearGradient8016" gradientUnits="userSpaceOnUse" x1="65.131119" x2="65.131119" xlink:href="#linearGradient6305" y1="9.5732" y2="60.543098"/>
    <radialGradient id="radialGradient8020" cx="64" cy="64" fx="64.000015" fy="50.562386" gradientTransform="matrix(.4806487 0 0 3.4544468 33.238485 -157.08459)" gradientUnits="userSpaceOnUse" r="44" xlink:href="#linearGradient6305"/>
    <radialGradient id="radialGradient8023" cx="64" cy="52.322273" fx="63.844189" fy="47.808315" gradientTransform="matrix(1.2978099 0 0 2.5457098 -19.059837 -81.93666)" gradientUnits="userSpaceOnUse" r="36">
      <stop offset="0" stop-color="#f00"/>
      <stop offset="1" stop-color="#590000"/>
    </radialGradient>
    <linearGradient id="linearGradient8025" gradientUnits="userSpaceOnUse" x1="64" x2="64" xlink:href="#linearGradient5897" y1="24.727274" y2="85"/>
    <linearGradient id="linearGradient8027" gradientUnits="userSpaceOnUse" x1="66.21801" x2="66.21801" xlink:href="#linearGradient6305" y1="111.9475" y2="35.046722"/>
    <linearGradient id="linearGradient8029" gradientUnits="userSpaceOnUse" x1="65.497627" x2="65.497627" xlink:href="#linearGradient6305" y1="17.6523" y2="34.035549"/>
    <radialGradient id="radialGradient8031" cx="64" cy="64.000002" fx="63.595577" fy="73.4534" gradientTransform="matrix(1 0 0 1.0909091 0 -5.818185)" gradientUnits="userSpaceOnUse" r="24.06951">
      <stop offset="0" stop-color="#ff3313"/>
      <stop offset="1" stop-color="#f00" stop-opacity="0"/>
    </radialGradient>
    <radialGradient id="radialGradient8033" cx="64.0000028" cy="64.0000028" fx="64.26666579927" fy="67.99999511401" gradientUnits="userSpaceOnUse" r="30.65415207439">
      <stop offset="0" stop-color="#590000"/>
      <stop offset="1" stop-color="#590000" stop-opacity="0"/>
    </radialGradient>
  </defs>
  <g>
    <path d="m14 17c-3.316852 0-6 2.683148-6 6v6 78 6h6 100 6v-6-78-6c0-3.316852-2.68315-6-6-6z" style="opacity:.75;stroke:#000;stroke-width:4;stroke-linecap:round;stroke-linejoin:round;filter:url(#filter5819)"/>
    <path d="m14 16c-3.316852 0-6 2.683148-6 6v6 78 6h6 100 6v-6-78-6c0-3.316852-2.68315-6-6-6z" fill="url(#linearGradient5841)"/>
    <rect fill="url(#linearGradient5855)" height="76" width="104" x="12" y="28"/>
    <rect fill="#fff" height=".5" width="104" x="12" y="104"/>
    <rect height="76" style="fill:none;stroke-width:4.150996;stroke-linecap:round;stroke-linejoin:round;clip-path:url(#clipPath5887);stroke:url(#linearGradient5903);filter:url(#filter5893)" transform="matrix(.9285714 0 0 1 4.571429 0)" width="112" x="8" y="28"/>
    <path d="m14 16c-3.316852 0-6 2.683148-6 6v1c0-3.316852 2.683148-6 6-6h100c3.31685 0 6 2.683148 6 6v-1c0-3.316852-2.68315-6-6-6z" fill="#fff" filter="url(#filter5934)"/>
    <g fill="#fff" filter="url(#filter6296)" transform="translate(0 .5)">
      <path d="m19.406451 20.799999a.67096776.67096776 0 1 1 -1.341936 0 .67096776.67096776 0 1 1 1.341936 0z" transform="matrix(-1.4903846 0 0 1.4903846 42.923076 -9.999999)"/>
      <path d="m19.406451 20.799999a.67096776.67096776 0 1 1 -1.341936 0 .67096776.67096776 0 1 1 1.341936 0z" transform="matrix(-1.4903846 0 0 1.4903846 44.923076 -7.999999)"/>
      <path d="m19.406451 20.799999a.67096776.67096776 0 1 1 -1.341936 0 .67096776.67096776 0 1 1 1.341936 0z" transform="matrix(-1.4903846 0 0 1.4903846 46.923076 -9.999999)"/>
      <path d="m19.406451 20.799999a.67096776.67096776 0 1 1 -1.341936 0 .67096776.67096776 0 1 1 1.341936 0z" transform="matrix(-1.4903846 0 0 1.4903846 48.923076 -7.999999)"/>
      <path d="m19.406451 20.799999a.67096776.67096776 0 1 1 -1.341936 0 .67096776.67096776 0 1 1 1.341936 0z" transform="matrix(-1.4903846 0 0 1.4903846 50.923076 -9.999999)"/>
      <path d="m19.406451 20.799999a.67096776.67096776 0 1 1 -1.341936 0 .67096776.67096776 0 1 1 1.341936 0z" transform="matrix(-1.4903846 0 0 1.4903846 52.923076 -7.999999)"/>
      <path d="m19.406451 20.799999a.67096776.67096776 0 1 1 -1.341936 0 .67096776.67096776 0 1 1 1.341936 0z" transform="matrix(-1.4903846 0 0 1.4903846 54.923076 -9.999999)"/>
      <path d="m19.406451 20.799999a.67096776.67096776 0 1 1 -1.341936 0 .67096776.67096776 0 1 1 1.341936 0z" transform="matrix(-1.4903846 0 0 1.4903846 56.923076 -7.999999)"/>
      <path d="m19.406451 20.799999a.67096776.67096776 0 1 1 -1.341936 0 .67096776.67096776 0 1 1 1.341936 0z" transform="matrix(-1.4903846 0 0 1.4903846 58.923076 -9.999999)"/>
      <path d="m19.406451 20.799999a.67096776.67096776 0 1 1 -1.341936 0 .67096776.67096776 0 1 1 1.341936 0z" transform="matrix(-1.4903846 0 0 1.4903846 60.923076 -7.999999)"/>
      <path d="m19.406451 20.799999a.67096776.67096776 0 1 1 -1.341936 0 .67096776.67096776 0 1 1 1.341936 0z" transform="matrix(-1.4903846 0 0 1.4903846 62.923076 -9.999999)"/>
      <path d="m19.406451 20.799999a.67096776.67096776 0 1 1 -1.341936 0 .67096776.67096776 0 1 1 1.341936 0z" transform="matrix(-1.4903846 0 0 1.4903846 64.923076 -7.999999)"/>
      <path d="m19.406451 20.799999a.67096776.67096776 0 1 1 -1.341936 0 .67096776.67096776 0 1 1 1.341936 0z" transform="matrix(-1.4903846 0 0 1.4903846 66.923076 -9.999999)"/>
      <path d="m19.406451 20.799999a.67096776.67096776 0 1 1 -1.341936 0 .67096776.67096776 0 1 1 1.341936 0z" transform="matrix(-1.4903846 0 0 1.4903846 68.923076 -7.999999)"/>
      <path d="m19.406451 20.799999a.67096776.67096776 0 1 1 -1.341936 0 .67096776.67096776 0 1 1 1.341936 0z" transform="matrix(-1.4903846 0 0 1.4903846 70.923076 -9.999998)"/>
      <path d="m19.406451 20.799999a.67096776.67096776 0 1 1 -1.341936 0 .67096776.67096776 0 1 1 1.341936 0z" transform="matrix(-1.4903846 0 0 1.4903846 72.923076 -7.999998)"/>
      <path d="m19.406451 20.799999a.67096776.67096776 0 1 1 -1.341936 0 .67096776.67096776 0 1 1 1.341936 0z" transform="matrix(-1.4903846 0 0 1.4903846 74.923076 -9.999998)"/>
      <path d="m19.406451 20.799999a.67096776.67096776 0 1 1 -1.341936 0 .67096776.67096776 0 1 1 1.341936 0z" transform="matrix(-1.4903846 0 0 1.4903846 76.923076 -7.999998)"/>
      <path d="m19.406451 20.799999a.67096776.67096776 0 1 1 -1.341936 0 .67096776.67096776 0 1 1 1.341936 0z" transform="matrix(-1.4903846 0 0 1.4903846 78.923076 -9.999998)"/>
      <path d="m19.406451 20.799999a.67096776.67096776 0 1 1 -1.341936 0 .67096776.67096776 0 1 1 1.341936 0z" transform="matrix(-1.4903846 0 0 1.4903846 80.923076 -7.999998)"/>
      <path d="m19.406451 20.799999a.67096776.67096776 0 1 1 -1.341936 0 .67096776.67096776 0 1 1 1.341936 0z" transform="matrix(-1.4903846 0 0 1.4903846 82.923076 -9.999998)"/>
      <path d="m19.406451 20.799999a.67096776.67096776 0 1 1 -1.341936 0 .67096776.67096776 0 1 1 1.341936 0z" transform="matrix(-1.4903846 0 0 1.4903846 84.923076 -7.999998)"/>
      <path d="m19.406451 20.799999a.67096776.67096776 0 1 1 -1.341936 0 .67096776.67096776 0 1 1 1.341936 0z" transform="matrix(-1.4903846 0 0 1.4903846 86.923076 -9.999998)"/>
      <path d="m19.406451 20.799999a.67096776.67096776 0 1 1 -1.341936 0 .67096776.67096776 0 1 1 1.341936 0z" transform="matrix(-1.4903846 0 0 1.4903846 88.923076 -7.999998)"/>
      <path d="m19.406451 20.799999a.67096776.67096776 0 1 1 -1.341936 0 .67096776.67096776 0 1 1 1.341936 0z" transform="matrix(-1.4903846 0 0 1.4903846 90.923076 -9.999999)"/>
      <path d="m19.406451 20.799999a.67096776.67096776 0 1 1 -1.341936 0 .67096776.67096776 0 1 1 1.341936 0z" transform="matrix(-1.4903846 0 0 1.4903846 92.923076 -7.999999)"/>
      <path d="m19.406451 20.799999a.67096776.67096776 0 1 1 -1.341936 0 .67096776.67096776 0 1 1 1.341936 0z" transform="matrix(-1.4903846 0 0 1.4903846 94.923076 -9.999998)"/>
      <path d="m19.406451 20.799999a.67096776.67096776 0 1 1 -1.341936 0 .67096776.67096776 0 1 1 1.341936 0z" transform="matrix(-1.4903846 0 0 1.4903846 96.923076 -7.999998)"/>
      <path d="m19.406451 20.799999a.67096776.67096776 0 1 1 -1.341936 0 .67096776.67096776 0 1 1 1.341936 0z" transform="matrix(-1.4903846 0 0 1.4903846 98.923076 -9.999998)"/>
      <path d="m19.406451 20.799999a.67096776.67096776 0 1 1 -1.341936 0 .67096776.67096776 0 1 1 1.341936 0z" transform="matrix(-1.4903846 0 0 1.4903846 100.92308 -7.999998)"/>
      <path d="m19.406451 20.799999a.67096776.67096776 0 1 1 -1.341936 0 .67096776.67096776 0 1 1 1.341936 0z" transform="matrix(-1.4903846 0 0 1.4903846 102.92308 -9.999998)"/>
      <path d="m19.406451 20.799999a.67096776.67096776 0 1 1 -1.341936 0 .67096776.67096776 0 1 1 1.341936 0z" transform="matrix(-1.4903846 0 0 1.4903846 104.92308 -7.999998)"/>
      <path d="m19.406451 20.799999a.67096776.67096776 0 1 1 -1.341936 0 .67096776.67096776 0 1 1 1.341936 0z" transform="matrix(-1.4903846 0 0 1.4903846 106.92308 -9.999998)"/>
      <path d="m19.406451 20.799999a.67096776.67096776 0 1 1 -1.341936 0 .67096776.67096776 0 1 1 1.341936 0z" transform="matrix(-1.4903846 0 0 1.4903846 108.92308 -7.999998)"/>
      <path d="m19.406451 20.799999a.67096776.67096776 0 1 1 -1.341936 0 .67096776.67096776 0 1 1 1.341936 0z" transform="matrix(-1.4903846 0 0 1.4903846 110.92308 -9.999998)"/>
      <path d="m19.406451 20.799999a.67096776.67096776 0 1 1 -1.341936 0 .67096776.67096776 0 1 1 1.341936 0z" transform="matrix(-1.4903846 0 0 1.4903846 112.92308 -7.999998)"/>
      <path d="m19.406451 20.799999a.67096776.67096776 0 1 1 -1.341936 0 .67096776.67096776 0 1 1 1.341936 0z" transform="matrix(-1.4903846 0 0 1.4903846 114.92307 -9.999999)"/>
      <path d="m19.406451 20.799999a.67096776.67096776 0 1 1 -1.341936 0 .67096776.67096776 0 1 1 1.341936 0z" transform="matrix(-1.4903846 0 0 1.4903846 116.92307 -7.999999)"/>
      <path d="m19.406451 20.799999a.67096776.67096776 0 1 1 -1.341936 0 .67096776.67096776 0 1 1 1.341936 0z" transform="matrix(-1.4903846 0 0 1.4903846 118.92307 -9.999998)"/>
      <path d="m19.406451 20.799999a.67096776.67096776 0 1 1 -1.341936 0 .67096776.67096776 0 1 1 1.341936 0z" transform="matrix(-1.4903846 0 0 1.4903846 120.92307 -7.999998)"/>
      <path d="m19.406451 20.799999a.67096776.67096776 0 1 1 -1.341936 0 .67096776.67096776 0 1 1 1.341936 0z" transform="matrix(-1.4903846 0 0 1.4903846 122.92307 -9.999998)"/>
      <path d="m19.406451 20.799999a.67096776.67096776 0 1 1 -1.341936 0 .67096776.67096776 0 1 1 1.341936 0z" transform="matrix(-1.4903846 0 0 1.4903846 124.92308 -7.999998)"/>
      <path d="m19.406451 20.799999a.67096776.67096776 0 1 1 -1.341936 0 .67096776.67096776 0 1 1 1.341936 0z" transform="matrix(-1.4903846 0 0 1.4903846 126.92308 -9.999998)"/>
      <path d="m19.406451 20.799999a.67096776.67096776 0 1 1 -1.341936 0 .67096776.67096776 0 1 1 1.341936 0z" transform="matrix(-1.4903846 0 0 1.4903846 128.92308 -7.999998)"/>
      <path d="m19.406451 20.799999a.67096776.67096776 0 1 1 -1.341936 0 .67096776.67096776 0 1 1 1.341936 0z" transform="matrix(-1.4903846 0 0 1.4903846 130.92308 -9.999998)"/>
      <path d="m19.406451 20.799999a.67096776.67096776 0 1 1 -1.341936 0 .67096776.67096776 0 1 1 1.341936 0z" transform="matrix(-1.4903846 0 0 1.4903846 132.92308 -7.999998)"/>
      <path d="m19.406451 20.799999a.67096776.67096776 0 1 1 -1.341936 0 .67096776.67096776 0 1 1 1.341936 0z" transform="matrix(-1.4903846 0 0 1.4903846 134.92308 -9.999998)"/>
      <path d="m19.406451 20.799999a.67096776.67096776 0 1 1 -1.341936 0 .67096776.67096776 0 1 1 1.341936 0z" transform="matrix(-1.4903846 0 0 1.4903846 136.92308 -7.999998)"/>
      <path d="m19.406451 20.799999a.67096776.67096776 0 1 1 -1.341936 0 .67096776.67096776 0 1 1 1.341936 0z" transform="matrix(-1.4903846 0 0 1.4903846 138.92308 -9.999999)"/>
      <path d="m19.406451 20.799999a.67096776.67096776 0 1 1 -1.341936 0 .67096776.67096776 0 1 1 1.341936 0z" transform="matrix(-1.4903846 0 0 1.4903846 140.92308 -7.999999)"/>
    </g>
    <g fill="url(#linearGradient5944)">
      <path d="m19.406451 20.799999a.67096776.67096776 0 1 1 -1.341936 0 .67096776.67096776 0 1 1 1.341936 0z" transform="matrix(-1.4903846 0 0 1.4903846 42.923076 -9.999999)"/>
      <path d="m19.406451 20.799999a.67096776.67096776 0 1 1 -1.341936 0 .67096776.67096776 0 1 1 1.341936 0z" transform="matrix(-1.4903846 0 0 1.4903846 44.923076 -7.999999)"/>
      <path d="m19.406451 20.799999a.67096776.67096776 0 1 1 -1.341936 0 .67096776.67096776 0 1 1 1.341936 0z" transform="matrix(-1.4903846 0 0 1.4903846 46.923076 -9.999999)"/>
      <path d="m19.406451 20.799999a.67096776.67096776 0 1 1 -1.341936 0 .67096776.67096776 0 1 1 1.341936 0z" transform="matrix(-1.4903846 0 0 1.4903846 48.923076 -7.999999)"/>
      <path d="m19.406451 20.799999a.67096776.67096776 0 1 1 -1.341936 0 .67096776.67096776 0 1 1 1.341936 0z" transform="matrix(-1.4903846 0 0 1.4903846 50.923076 -9.999999)"/>
      <path d="m19.406451 20.799999a.67096776.67096776 0 1 1 -1.341936 0 .67096776.67096776 0 1 1 1.341936 0z" transform="matrix(-1.4903846 0 0 1.4903846 52.923076 -7.999999)"/>
      <path d="m19.406451 20.799999a.67096776.67096776 0 1 1 -1.341936 0 .67096776.67096776 0 1 1 1.341936 0z" transform="matrix(-1.4903846 0 0 1.4903846 54.923076 -9.999999)"/>
      <path d="m19.406451 20.799999a.67096776.67096776 0 1 1 -1.341936 0 .67096776.67096776 0 1 1 1.341936 0z" transform="matrix(-1.4903846 0 0 1.4903846 56.923076 -7.999999)"/>
      <path d="m19.406451 20.799999a.67096776.67096776 0 1 1 -1.341936 0 .67096776.67096776 0 1 1 1.341936 0z" transform="matrix(-1.4903846 0 0 1.4903846 58.923076 -9.999999)"/>
      <path d="m19.406451 20.799999a.67096776.67096776 0 1 1 -1.341936 0 .67096776.67096776 0 1 1 1.341936 0z" transform="matrix(-1.4903846 0 0 1.4903846 60.923076 -7.999999)"/>
      <path d="m19.406451 20.799999a.67096776.67096776 0 1 1 -1.341936 0 .67096776.67096776 0 1 1 1.341936 0z" transform="matrix(-1.4903846 0 0 1.4903846 62.923076 -9.999999)"/>
      <path d="m19.406451 20.799999a.67096776.67096776 0 1 1 -1.341936 0 .67096776.67096776 0 1 1 1.341936 0z" transform="matrix(-1.4903846 0 0 1.4903846 64.923076 -7.999999)"/>
      <path d="m19.406451 20.799999a.67096776.67096776 0 1 1 -1.341936 0 .67096776.67096776 0 1 1 1.341936 0z" transform="matrix(-1.4903846 0 0 1.4903846 66.923076 -9.999999)"/>
      <path d="m19.406451 20.799999a.67096776.67096776 0 1 1 -1.341936 0 .67096776.67096776 0 1 1 1.341936 0z" transform="matrix(-1.4903846 0 0 1.4903846 68.923076 -7.999999)"/>
      <path d="m19.406451 20.799999a.67096776.67096776 0 1 1 -1.341936 0 .67096776.67096776 0 1 1 1.341936 0z" transform="matrix(-1.4903846 0 0 1.4903846 70.923076 -9.999998)"/>
      <path d="m19.406451 20.799999a.67096776.67096776 0 1 1 -1.341936 0 .67096776.67096776 0 1 1 1.341936 0z" transform="matrix(-1.4903846 0 0 1.4903846 72.923076 -7.999998)"/>
      <path d="m19.406451 20.799999a.67096776.67096776 0 1 1 -1.341936 0 .67096776.67096776 0 1 1 1.341936 0z" transform="matrix(-1.4903846 0 0 1.4903846 74.923076 -9.999998)"/>
      <path d="m19.406451 20.799999a.67096776.67096776 0 1 1 -1.341936 0 .67096776.67096776 0 1 1 1.341936 0z" transform="matrix(-1.4903846 0 0 1.4903846 76.923076 -7.999998)"/>
      <path d="m19.406451 20.799999a.67096776.67096776 0 1 1 -1.341936 0 .67096776.67096776 0 1 1 1.341936 0z" transform="matrix(-1.4903846 0 0 1.4903846 78.923076 -9.999998)"/>
      <path d="m19.406451 20.799999a.67096776.67096776 0 1 1 -1.341936 0 .67096776.67096776 0 1 1 1.341936 0z" transform="matrix(-1.4903846 0 0 1.4903846 80.923076 -7.999998)"/>
      <path d="m19.406451 20.799999a.67096776.67096776 0 1 1 -1.341936 0 .67096776.67096776 0 1 1 1.341936 0z" transform="matrix(-1.4903846 0 0 1.4903846 82.923076 -9.999998)"/>
      <path d="m19.406451 20.799999a.67096776.67096776 0 1 1 -1.341936 0 .67096776.67096776 0 1 1 1.341936 0z" transform="matrix(-1.4903846 0 0 1.4903846 84.923076 -7.999998)"/>
      <path d="m19.406451 20.799999a.67096776.67096776 0 1 1 -1.341936 0 .67096776.67096776 0 1 1 1.341936 0z" transform="matrix(-1.4903846 0 0 1.4903846 86.923076 -9.999998)"/>
      <path d="m19.406451 20.799999a.67096776.67096776 0 1 1 -1.341936 0 .67096776.67096776 0 1 1 1.341936 0z" transform="matrix(-1.4903846 0 0 1.4903846 88.923076 -7.999998)"/>
      <path d="m19.406451 20.799999a.67096776.67096776 0 1 1 -1.341936 0 .67096776.67096776 0 1 1 1.341936 0z" transform="matrix(-1.4903846 0 0 1.4903846 90.923076 -9.999999)"/>
      <path d="m19.406451 20.799999a.67096776.67096776 0 1 1 -1.341936 0 .67096776.67096776 0 1 1 1.341936 0z" transform="matrix(-1.4903846 0 0 1.4903846 92.923076 -7.999999)"/>
      <path d="m19.406451 20.799999a.67096776.67096776 0 1 1 -1.341936 0 .67096776.67096776 0 1 1 1.341936 0z" transform="matrix(-1.4903846 0 0 1.4903846 94.923076 -9.999998)"/>
      <path d="m19.406451 20.799999a.67096776.67096776 0 1 1 -1.341936 0 .67096776.67096776 0 1 1 1.341936 0z" transform="matrix(-1.4903846 0 0 1.4903846 96.923076 -7.999998)"/>
      <path d="m19.406451 20.799999a.67096776.67096776 0 1 1 -1.341936 0 .67096776.67096776 0 1 1 1.341936 0z" transform="matrix(-1.4903846 0 0 1.4903846 98.923076 -9.999998)"/>
      <path d="m19.406451 20.799999a.67096776.67096776 0 1 1 -1.341936 0 .67096776.67096776 0 1 1 1.341936 0z" transform="matrix(-1.4903846 0 0 1.4903846 100.92308 -7.999998)"/>
      <path d="m19.406451 20.799999a.67096776.67096776 0 1 1 -1.341936 0 .67096776.67096776 0 1 1 1.341936 0z" transform="matrix(-1.4903846 0 0 1.4903846 102.92308 -9.999998)"/>
      <path d="m19.406451 20.799999a.67096776.67096776 0 1 1 -1.341936 0 .67096776.67096776 0 1 1 1.341936 0z" transform="matrix(-1.4903846 0 0 1.4903846 104.92308 -7.999998)"/>
      <path d="m19.406451 20.799999a.67096776.67096776 0 1 1 -1.341936 0 .67096776.67096776 0 1 1 1.341936 0z" transform="matrix(-1.4903846 0 0 1.4903846 106.92308 -9.999998)"/>
      <path d="m19.406451 20.799999a.67096776.67096776 0 1 1 -1.341936 0 .67096776.67096776 0 1 1 1.341936 0z" transform="matrix(-1.4903846 0 0 1.4903846 108.92308 -7.999998)"/>
      <path d="m19.406451 20.799999a.67096776.67096776 0 1 1 -1.341936 0 .67096776.67096776 0 1 1 1.341936 0z" transform="matrix(-1.4903846 0 0 1.4903846 110.92308 -9.999998)"/>
      <path d="m19.406451 20.799999a.67096776.67096776 0 1 1 -1.341936 0 .67096776.67096776 0 1 1 1.341936 0z" transform="matrix(-1.4903846 0 0 1.4903846 112.92308 -7.999998)"/>
      <path d="m19.406451 20.799999a.67096776.67096776 0 1 1 -1.341936 0 .67096776.67096776 0 1 1 1.341936 0z" transform="matrix(-1.4903846 0 0 1.4903846 114.92307 -9.999999)"/>
      <path d="m19.406451 20.799999a.67096776.67096776 0 1 1 -1.341936 0 .67096776.67096776 0 1 1 1.341936 0z" transform="matrix(-1.4903846 0 0 1.4903846 116.92307 -7.999999)"/>
      <path d="m19.406451 20.799999a.67096776.67096776 0 1 1 -1.341936 0 .67096776.67096776 0 1 1 1.341936 0z" transform="matrix(-1.4903846 0 0 1.4903846 118.92307 -9.999998)"/>
      <path d="m19.406451 20.799999a.67096776.67096776 0 1 1 -1.341936 0 .67096776.67096776 0 1 1 1.341936 0z" transform="matrix(-1.4903846 0 0 1.4903846 120.92307 -7.999998)"/>
      <path d="m19.406451 20.799999a.67096776.67096776 0 1 1 -1.341936 0 .67096776.67096776 0 1 1 1.341936 0z" transform="matrix(-1.4903846 0 0 1.4903846 122.92307 -9.999998)"/>
      <path d="m19.406451 20.799999a.67096776.67096776 0 1 1 -1.341936 0 .67096776.67096776 0 1 1 1.341936 0z" transform="matrix(-1.4903846 0 0 1.4903846 124.92308 -7.999998)"/>
      <path d="m19.406451 20.799999a.67096776.67096776 0 1 1 -1.341936 0 .67096776.67096776 0 1 1 1.341936 0z" transform="matrix(-1.4903846 0 0 1.4903846 126.92308 -9.999998)"/>
      <path d="m19.406451 20.799999a.67096776.67096776 0 1 1 -1.341936 0 .67096776.67096776 0 1 1 1.341936 0z" transform="matrix(-1.4903846 0 0 1.4903846 128.92308 -7.999998)"/>
      <path d="m19.406451 20.799999a.67096776.67096776 0 1 1 -1.341936 0 .67096776.67096776 0 1 1 1.341936 0z" transform="matrix(-1.4903846 0 0 1.4903846 130.92308 -9.999998)"/>
      <path d="m19.406451 20.799999a.67096776.67096776 0 1 1 -1.341936 0 .67096776.67096776 0 1 1 1.341936 0z" transform="matrix(-1.4903846 0 0 1.4903846 132.92308 -7.999998)"/>
      <path d="m19.406451 20.799999a.67096776.67096776 0 1 1 -1.341936 0 .67096776.67096776 0 1 1 1.341936 0z" transform="matrix(-1.4903846 0 0 1.4903846 134.92308 -9.999998)"/>
      <path d="m19.406451 20.799999a.67096776.67096776 0 1 1 -1.341936 0 .67096776.67096776 0 1 1 1.341936 0z" transform="matrix(-1.4903846 0 0 1.4903846 136.92308 -7.999998)"/>
      <path d="m19.406451 20.799999a.67096776.67096776 0 1 1 -1.341936 0 .67096776.67096776 0 1 1 1.341936 0z" transform="matrix(-1.4903846 0 0 1.4903846 138.92308 -9.999999)"/>
      <path d="m19.406451 20.799999a.67096776.67096776 0 1 1 -1.341936 0 .67096776.67096776 0 1 1 1.341936 0z" transform="matrix(-1.4903846 0 0 1.4903846 140.92308 -7.999999)"/>
    </g>
    <g transform="matrix(.25 0 0 .25 -27.301689 24.198058)">
      <g transform="translate(173.20674 31.207822)">
        <path d="m127.31551 65.540108a63.144386 63.144386 0 1 1 -126.2887766 0 63.144386 63.144386 0 1 1 126.2887766 0z" fill="url(#radialGradient7673)" opacity=".391941" transform="matrix(.696769 0 0 .696816 19.29047 18.33069)"/>
        <g transform="matrix(.886856 0 0 .886856 7.089495 5.875287)">
          <path d="m127.31551 65.540108a63.144386 63.144386 0 1 1 -126.2887766 0 63.144386 63.144386 0 1 1 126.2887766 0z" style="opacity:.1;fill:none;stroke:#000;stroke-width:9.02063;stroke-linecap:round;stroke-linejoin:round;stroke-dashoffset:4"/>
          <path d="m127.31551 65.540108a63.144386 63.144386 0 1 1 -126.2887766 0 63.144386 63.144386 0 1 1 126.2887766 0z" style="opacity:.15;fill:none;stroke:#000;stroke-width:6.765472;stroke-linecap:round;stroke-linejoin:round;stroke-dashoffset:4"/>
          <path d="m127.31551 65.540108a63.144386 63.144386 0 1 1 -126.2887766 0 63.144386 63.144386 0 1 1 126.2887766 0z" style="opacity:.2;fill:none;stroke:#000;stroke-width:4.510315;stroke-linecap:round;stroke-linejoin:round;stroke-dashoffset:4"/>
          <path d="m127.31551 65.540108a63.144386 63.144386 0 1 1 -126.2887766 0 63.144386 63.144386 0 1 1 126.2887766 0z" style="opacity:.25;fill:none;stroke:#000;stroke-width:2.255157;stroke-linecap:round;stroke-linejoin:round;stroke-dashoffset:4"/>
          <path d="m127.31551 65.540108a63.144386 63.144386 0 1 1 -126.2887766 0 63.144386 63.144386 0 1 1 126.2887766 0z" fill="#fff"/>
        </g>
        <path d="m127.31551 65.540108a63.144386 63.144386 0 1 1 -126.2887766 0 63.144386 63.144386 0 1 1 126.2887766 0z" fill="url(#linearGradient7675)" transform="matrix(.8235095 0 0 .8235095 11.154473 9.995849)"/>
        <path d="m127.31551 65.540108a63.144386 63.144386 0 1 1 -126.2887766 0 63.144386 63.144386 0 1 1 126.2887766 0z" fill="#0057ae" transform="matrix(.696769 0 0 .696816 19.28467 18.33069)"/>
        <path d="m63.997066 20.000027c-24.286341 0-43.996981 19.712-43.996981 44.00002 0 4.96073.833243 9.72971 2.348797 14.17969 10.678464 11.45142 25.885005 18.6198 42.7653 18.6198 15.05251 0 28.758874-5.68565 39.127508-15.03907 2.4007-5.43191 3.75236-11.44298 3.75236-17.76042 0-24.28802-19.710633-44.00002-43.996984-44.00002z" fill="url(#radialGradient7677)" opacity=".05"/>
        <path d="m63.997066 20.000027c-24.286341 0-43.996981 19.712-43.996981 44.00002 0 4.96073.833243 9.72971 2.348797 14.17969 10.678464 11.45142 25.885005 18.6198 42.7653 18.6198 15.05251 0 28.758874-5.68565 39.127508-15.03907 2.4007-5.43191 3.75236-11.44298 3.75236-17.76042 0-24.28802-19.710633-44.00002-43.996984-44.00002z" fill="url(#radialGradient7679)" opacity=".083333"/>
        <path d="m63.997066 20.000027c-16.172193 0-30.307728 8.75873-37.95312 21.77085 2.60782 10.31331 18.242119 18.2474 37.122453 18.2474 20.18913 0 36.63073-9.07217 37.437521-20.42449-7.892227-11.8112-21.345983-19.59376-36.606854-19.59376z" fill="url(#radialGradient7681)" opacity=".772894"/>
        <path d="m127.31551 65.540108a63.144386 63.144386 0 1 1 -126.2887766 0 63.144386 63.144386 0 1 1 126.2887766 0z" fill="url(#radialGradient7673)" opacity=".597069" transform="matrix(.696769 0 0 .696816 19.29047 18.33069)"/>
        <path d="m64.012067 20c-.774172 0-1.553725.022851-2.318074.0625-.738909.038024-1.463904.082151-2.192772.15625-.492224.050083-.984995.121272-1.472289.1875-.010284.001399-.021044-.001406-.031326 0-.964096.131726-1.907418.306678-2.850603.5-.900676.184609-1.782923.386122-2.662652.625-.124713.033864-.251633.058817-.375904.09375-.854666.240252-1.704563.522654-2.53735.8125-.904024.314639-1.7865.660282-2.662652 1.03125-.008826.003729-.022502-.003734-.031325 0-.836974.355022-1.66514.751775-2.4747 1.15625-.079548.039744-.17133.053539-.250603.09375-.794055.402783-1.552578.832587-2.318073 1.28125-.669357.392316-1.327271.823917-1.973495 1.25-.139533.092-.300133.15646-.438554.25-.01192.008039-.019414.0232-.031325.03125-.1676.1135-.335262.228011-.501205.34375-.52228.363582-1.029486.739697-1.534941 1.125-.177209.135273-.357446.268363-.53253.40625-.632796.498355-1.244032 1.030893-1.848194 1.5625-.698416.614542-1.346648 1.249272-2.00482 1.90625-.015795.015748-.04688.015478-.062651.03125-.652258.65304-1.30036 1.338565-1.910844 2.03125-.605066.686539-1.192216 1.370319-1.754217 2.09375-.022942.029531-.039783.064159-.062651.09375-.565288.731477-1.109629 1.483132-1.628916 2.25-.008189.012093-.023149.019149-.031326.03125-.51872.767631-1.001707 1.57409-1.472289 2.375.627963 2.483448 2.03906 4.807301 4.040965 6.9375.292671-.347191.605901-.687981.908434-1.03125.610484-.692685 1.258586-1.378212 1.910844-2.03125.015771-.015772.046856-.015504.062651-.03125.658172-.656978 1.306404-1.29171 2.00482-1.90625.604162-.531607 1.215398-1.064147 1.848194-1.5625.175084-.137887.355321-.270979.53253-.40625.505455-.385303 1.012661-.76142 1.534941-1.125.165943-.115739.333605-.230252.501205-.34375.011911-.00805.019405-.023213.031325-.03125.138421-.09354.299021-.158002.438554-.25.646224-.426083 1.304138-.857686 1.973495-1.25.765495-.448663 1.524018-.878469 2.318073-1.28125.079273-.040211.171055-.054008.250603-.09375.80956-.404475 1.637726-.80123 2.4747-1.15625.008823-.003734.022499.003727.031325 0 .876152-.370968 1.758628-.716611 2.662652-1.03125.832787-.289846 1.682684-.572248 2.53735-.8125.124271-.034933.251191-.059886.375904-.09375.879729-.238878 1.761976-.440391 2.662652-.625.943185-.193322 1.886507-.368274 2.850603-.5.010282-.001406.021042.001399.031326 0 .487294-.066228.980065-.137417 1.472289-.1875.728868-.074099 1.453863-.118226 2.192772-.15625.764349-.039649 1.543902-.0625 2.318074-.0625.953804 0 1.880508.033865 2.819278.09375.147311.009372.291639.02043.438554.03125.621309.045871 1.234305.116054 1.848194.1875.388075.045136.774101.069817 1.159037.125.136032.019501.2716.041756.407229.0625.1468.022437.292234.069864.438554.09375.577664.094429 1.153002.195777 1.722892.3125.715812.146609 1.427404.287798 2.130122.46875.022008.005662.040657.025555.06265.03125.680136.176278 1.369171.354891 2.036146.5625.197336.061391.399043.123414.595181.1875.13881.045408.269029.109502.407229.15625.655736.221556 1.300665.467513 1.94217.71875.06132.024015.126765.038218.187951.0625.094792.037649.187461.086712.281928.125.737803.298859 1.475466.60039 2.192772.9375.77149.362852 1.54051.750673 2.286748 1.15625.032852.017857.061174.04456.093976.0625.589544.322371 1.181415.651812 1.754218 1 .187273.113845.378428.227199.563855.34375.202794.127463.394629.275586.595181.40625.54229.353395 1.072181.717442 1.597591 1.09375.508916.364492 1.011192.739666 1.503616 1.125.205176.160555.424272.304654.626506.46875.644455.522824 1.265926 1.067236 1.879519 1.625.043459.039495.082.085332.125301.125.652397.597641 1.264155 1.208218 1.879519 1.84375.503674.520181.994452 1.07956 1.47229 1.625 2.078146-2.506351 3.331986-5.263997 3.539756-8.1875-.43499-.651001-.878824-1.280355-1.346984-1.90625-.062442-.083484-.124933-.166976-.187952-.25-.364776-.480522-.743936-.941455-1.127712-1.40625-.177827-.215462-.350711-.444256-.53253-.65625-.095127-.110817-.217048-.202644-.313253-.3125-.486832-.555907-.989792-1.125587-1.503615-1.65625-.615364-.63553-1.227122-1.246109-1.879519-1.84375-.043301-.039666-.081842-.085505-.125301-.125-.613593-.557762-1.235064-1.102176-1.879519-1.625-.202234-.164094-.42133-.308195-.626506-.46875-.492424-.385332-.9947-.760508-1.503616-1.125-.52541-.376306-1.055301-.740355-1.597591-1.09375-.200552-.130662-.392387-.278787-.595181-.40625-.185427-.116549-.376582-.229905-.563855-.34375-.572803-.348186-1.164674-.677629-1.754218-1-.032802-.017938-.061124-.044643-.093976-.0625-.746238-.405575-1.515258-.793398-2.286748-1.15625-.717306-.337108-1.454969-.638641-2.192772-.9375-.094467-.038288-.187136-.087351-.281928-.125-.061186-.024282-.126631-.038485-.187951-.0625-.641505-.251237-1.286434-.497194-1.94217-.71875-.1382-.046748-.268419-.110842-.407229-.15625-.196138-.064086-.397845-.126109-.595181-.1875-.666975-.207609-1.35601-.386222-2.036146-.5625-.021993-.005695-.040642-.025588-.06265-.03125-.702718-.180952-1.41431-.322141-2.130122-.46875-.56989-.116723-1.145228-.218071-1.722892-.3125-.14632-.023886-.291754-.071313-.438554-.09375-.135629-.020744-.271197-.042999-.407229-.0625-.384936-.055183-.770962-.079864-1.159037-.125-.613889-.071446-1.226885-.141629-1.848194-.1875-.146915-.01082-.291243-.021878-.438554-.03125-.93877-.059885-1.865474-.09375-2.819278-.09375z" fill="url(#radialGradient7685)" opacity=".347985"/>
        <path d="m195.9499 5.6441229v-2.7947084z" fill="#fff" fill-opacity=".756881"/>
        <path d="m64.042188 23.931577c-4.5172 0-8.18485 3.667641-8.18485 8.184853s3.66765 8.18485 8.18485 8.18485c4.51721 0 8.18485-3.667639 8.18485-8.18485 0-4.517212-3.66763-8.184853-8.18485-8.184853z" fill="url(#linearGradient7687)"/>
        <path d="m72 45.831979-20 2.136771v8h8v36h-8v7.847147l28-.144866v-7.702281l-7.929952.072433z" fill="url(#linearGradient7689)"/>
      </g>
    </g>
    <g transform="matrix(.25 0 0 .25 9.261826 62.036164)">
      <path d="m37.9801 115.62865v-2.79471z" fill="#fff" fill-opacity=".756881"/>
      <g transform="translate(26.952697 18.855342)">
        <path d="m56.25 19.472446c-9.472513 9.468404-29.322928 17.913707-36.25 19.839116 0 29.740272 19.954744 74.688438 44 74.688438 23.99163 0 44-44.948166 44-74.688438-6.92707-1.925409-26.777487-10.370712-36.25-19.839116-2.687507-1.963845-12.812388-1.962677-15.5 0z" style="opacity:.643564;fill-rule:evenodd;stroke:#000;stroke-width:5.598061;stroke-linecap:round;stroke-linejoin:round;filter:url(#filter3521)" transform="matrix(.7370454 0 0 .6927083 16.829091 32.53125)"/>
        <path d="m56.25 18.472446c-9.472513 9.468404-29.322928 17.913707-36.25 19.839116 0 29.740272 19.954744 74.688438 44 74.688438 23.99163 0 44-44.948166 44-74.688438-6.92707-1.925409-26.777487-10.370712-36.25-19.839116-2.687507-1.963845-12.812388-1.962677-15.5 0z" style="opacity:.643564;fill-rule:evenodd;stroke:#000;stroke-width:4;stroke-linecap:round;stroke-linejoin:round;filter:url(#filter3521)"/>
        <path d="m56.25 17.472446c-9.472513 9.468404-29.322928 17.913707-36.25 19.839116 0 29.740272 19.954744 74.688438 44 74.688438 23.99163 0 44-44.948166 44-74.688438-6.92707-1.925409-26.777487-10.370712-36.25-19.839116-2.687507-1.963845-12.812388-1.962677-15.5 0z" fill="url(#radialGradient8012)" fill-rule="evenodd"/>
        <path d="m56.25 17.472446c-9.472513 9.468404-29.322928 17.913707-36.25 19.839116 0 29.740272 19.954744 74.688438 44 74.688438 23.99163 0 44-44.948166 44-74.688438-6.92707-1.925409-26.777487-10.370712-36.25-19.839116-2.687507-1.963845-12.812388-1.962677-15.5 0z" style="opacity:.356436;fill:none;stroke:#000;stroke-width:2;clip-path:url(#clipPath3529);filter:url(#filter3543)"/>
        <g fill-rule="evenodd">
          <path d="m56.25 17.472446c-9.472513 9.468404-29.322928 17.913707-36.25 19.839116 0 29.740272 19.954744 74.688438 44 74.688438 23.99163 0 44-44.948166 44-74.688438-6.92707-1.925409-26.777487-10.370712-36.25-19.839116-2.687507-1.963845-12.812388-1.962677-15.5 0z" fill="url(#linearGradient3533)" opacity=".361386"/>
          <path d="m64 16c-3.20311.000146-6.406194.487412-7.75 1.46875-9.472513 9.468404-29.322928 17.918341-36.25 19.84375 0 .275842.027829.565339.03125.84375 10.607651 6.066315 26.372505 9.906249 43.96875 9.90625 17.596246 0 33.361099-3.839934 43.96875-9.90625.00343-.278411.03125-.567908.03125-.84375-6.92707-1.925409-26.777487-10.375346-36.25-19.84375-1.343753-.981923-4.54689-1.468896-7.75-1.46875z" fill="url(#linearGradient8016)" opacity=".955446"/>
          <path d="m20 37.3125c0 .275842.027829.565339.03125.84375 10.607651 6.066315 26.372505 9.906249 43.96875 9.90625 17.596246 0 33.361099-3.839934 43.96875-9.90625.00343-.278411.03125-.567908.03125-.84375-.00861-.002394-.0226.002414-.03125 0-.00595.115275.0014.230479 0 .34375-10.607651 6.066316-26.372504 9.90625-43.96875 9.90625-17.596245-.000001-33.361099-3.839935-43.96875-9.90625-.001392-.113271.005954-.228475 0-.34375-.008654.002414-.022636-.002394-.03125 0z" fill="url(#linearGradient8016)" opacity=".955446"/>
          <path d="m56.25 17.472446c-9.472513 9.468404-29.322928 17.913707-36.25 19.839116 0 29.740272 19.954744 74.688438 44 74.688438 23.99163 0 44-44.948166 44-74.688438-6.92707-1.925409-26.777487-10.370712-36.25-19.839116-2.687507-1.963845-12.812388-1.962677-15.5 0z" fill="url(#radialGradient8020)"/>
          <path d="m57.659091 25.932002c-7.750238 7.746876-23.991486 14.656668-29.659091 16.232004 0 24.332949 16.32661 61.108724 36 61.108724 19.629515 0 36-36.775775 36-61.108724-5.667604-1.575336-21.908853-8.485128-29.659091-16.232004-2.198869-1.606783-10.482862-1.605827-12.681818 0z" fill="url(#radialGradient8023)"/>
        </g>
        <path d="m57.659091 25.932002c-7.750238 7.746876-23.991486 14.656668-29.659091 16.232004 0 24.332949 16.32661 61.108724 36 61.108724 19.629515 0 36-36.775775 36-61.108724-5.667604-1.575336-21.908853-8.485128-29.659091-16.232004-2.198869-1.606783-10.482862-1.605827-12.681818 0z" style="opacity:.519802;fill:none;stroke-width:6;clip-path:url(#clipPath3206);stroke:url(#linearGradient8025);filter:url(#filter3294)"/>
        <path d="m28 42.15625c0 24.33295 16.32661 61.125 36 61.125 19.629515 0 36-36.792051 36-61.125-.007773-.00216-.023437.002181-.03125 0-.644833 24.314122-16.737064 60.125-35.96875 60.125-19.274672 0-35.325607-35.810877-35.96875-60.125-.007813.002181-.023477-.00216-.03125 0z" fill="url(#linearGradient8027)" fill-rule="evenodd"/>
        <path d="m64 16c-3.20311.000146-6.406194.487412-7.75 1.46875-9.472513 9.468404-29.322928 17.918341-36.25 19.84375 0 .326883.02645.669523.03125 1 6.950523-1.939201 26.758016-10.387121 36.21875-19.84375 2.687612-1.962677 12.812493-1.963845 15.5 0 9.460734 9.45663 29.26823 17.904549 36.21875 19.84375.00481-.330477.03125-.673117.03125-1-6.92707-1.925409-26.777487-10.375346-36.25-19.84375-1.343753-.981923-4.54689-1.468896-7.75-1.46875z" fill="url(#linearGradient8029)" fill-rule="evenodd" opacity=".886139"/>
        <path d="m59.760484 38.547832c-5.18179 5.179542-16.040648 9.799412-19.829994 10.852677 0 16.268949 10.91593 40.857141 24.06951 40.857141 13.124245 0 24.06951-24.588192 24.06951-40.857141-3.789346-1.053265-14.648204-5.673135-19.829994-10.852677-1.470158-1.074291-7.008815-1.073652-8.479032 0z" fill="url(#radialGradient8031)" fill-rule="evenodd" filter="url(#filter3378)"/>
        <path d="m42.681449 49.787632 14.458607 14.458607-14.458607 13.966129 7.106183 7.106183 14.212371-14.212365 14.212365 14.212365 7.106183-7.106183-14.212365-14.212365 14.212365-14.212371-6.859947-6.859947-14.212365 14.212371-14.458607-14.458607z" style="fill:none;stroke-width:4.420637;stroke-linecap:round;stroke-linejoin:round;stroke:url(#radialGradient8033);filter:url(#filter3653)" transform="matrix(.9048469 0 0 .9048469 6.089798 6.089798)"/>
        <path d="m44.709975 51.139983 13.082826 13.082826-13.082826 12.637208 6.430008 6.430008 12.86002-12.860015 12.860014 12.860015 6.430008-6.430008-12.860015-12.860014 12.860015-12.86002-6.207202-6.207202-12.860014 12.86002-13.082826-13.082826z" fill="#fff" fill-rule="evenodd"/>
      </g>
    </g>
    <g font-family="FreeSans" font-size="4.629874">
      <text fill="#fff" x="51.708317" y="39.893513"><tspan fill="#fff" font-weight="bold" x="51.708317" y="39.893513">Information</tspan></text>
      <text fill="#fafafa" x="51.708317" y="47.893513"><tspan fill="#fafafa" x="51.708317" y="47.893513">Lorem Ipsums de dotum de</tspan><tspan fill="#fafafa" x="51.708317" y="53.680856">dum dum</tspan></text>
      <text fill="#fafafa" x="51.708317" y="78.893509"><tspan fill="#fafafa" font-weight="bold" x="51.708317" y="78.893509">Security Catastrophe!</tspan></text>
      <text fill="#fafafa" x="51.708317" y="86.893509"><tspan fill="#fafafa" x="51.708317" y="86.893509">Quis tihne el bitorn dotre</tspan><tspan fill="#fafafa" x="51.708317" y="92.680852">protes de la la</tspan></text>
    </g>
    <path d="m16.952854 28.825806c-1.960298 0-3.920596 1.953801-3.920596 3.907603v31.016591c22.63507-11.339738 52.495545-18.2253 85.242323-18.2253 5.658659 0 11.228029.211284 16.693159.610563v-13.401854c0-1.953802-1.9603-3.907603-3.92059-3.907603z" fill="url(#linearGradient6311)" opacity=".310526"/>
  </g>
</svg>
