<svg width="555" height="555" viewBox="0 0 555 555" fill="none" xmlns="http://www.w3.org/2000/svg">
<g clip-path="url(#clip0_6_2779)">
<g clip-path="url(#clip1_6_2779)">
<path opacity="0.9" d="M620.057 275.405C656.371 342.509 579.11 454.646 447.487 525.863C315.865 597.079 179.733 600.424 143.428 533.32C107.122 466.216 184.375 354.079 315.997 282.862C447.62 211.646 583.743 208.301 620.057 275.405Z" fill="url(#paint0_radial_6_2779)"/>
<path opacity="0.9" d="M613.032 279.465C630.258 311.296 540.73 393.111 413.062 462.192C285.393 531.272 167.934 561.471 150.708 529.64C133.482 497.809 223.01 415.994 350.679 346.913C478.348 277.832 595.806 247.625 613.032 279.465Z" fill="url(#paint1_radial_6_2779)"/>
<mask id="mask0_6_2779" style="mask-type:alpha" maskUnits="userSpaceOnUse" x="77" y="253" width="495" height="356">
<path d="M562.659 301.994C598.973 369.098 521.712 481.235 390.089 552.452C258.467 623.668 122.335 627.013 86.03 559.909C49.7247 492.805 126.977 380.668 258.6 309.451C390.222 238.235 526.345 234.89 562.659 301.994Z" fill="url(#paint2_radial_6_2779)"/>
</mask>
<g mask="url(#mask0_6_2779)">
<path opacity="0.9" d="M533.593 283.221C569.907 350.325 492.645 462.462 361.023 533.678C229.401 604.895 93.2689 608.239 56.9636 541.135C20.6583 474.031 97.9108 361.894 229.533 290.678C361.155 219.461 497.278 216.117 533.593 283.221Z" fill="url(#paint3_radial_6_2779)"/>
</g>
<mask id="mask1_6_2779" style="mask-type:alpha" maskUnits="userSpaceOnUse" x="91" y="293" width="467" height="276">
<path d="M555.634 306.045C572.861 337.876 483.333 419.691 355.664 488.772C227.995 557.853 110.537 588.051 93.3106 556.22C76.0845 524.389 165.612 442.574 293.281 373.493C420.95 304.412 538.408 274.214 555.634 306.045Z" fill="url(#paint4_radial_6_2779)"/>
</mask>
<g mask="url(#mask1_6_2779)">
<path opacity="0.9" d="M574.446 293.673C591.672 325.504 502.144 407.319 374.476 476.4C246.807 545.481 129.348 575.679 112.122 543.848C94.8962 512.017 184.424 430.202 312.093 361.121C439.762 292.04 557.22 261.842 574.446 293.673Z" fill="url(#paint5_radial_6_2779)"/>
</g>
<path opacity="0.9" d="M437.833 550.393C402.207 617.868 266.049 615.918 133.712 546.051C1.37479 476.185 -77.0338 364.834 -41.408 297.359C-5.78213 229.884 130.376 231.835 262.713 301.701C395.05 371.567 473.459 482.919 437.833 550.393Z" fill="url(#paint6_radial_6_2779)"/>
<path opacity="0.9" d="M319.833 489.381C284.207 556.856 148.049 554.905 15.7119 485.039C-116.625 415.173 -195.034 303.821 -159.408 236.355C-123.782 168.89 12.3761 170.831 144.713 240.697C277.05 310.563 355.45 421.906 319.833 489.381Z" fill="url(#paint7_radial_6_2779)"/>
<path opacity="0.9" d="M293.889 496.457C276.989 528.465 159.231 499.475 30.8562 431.7C-97.5185 363.926 -187.867 283.037 -170.968 251.03C-154.068 219.022 -36.3095 248.012 92.0652 315.786C220.44 383.561 310.789 464.449 293.889 496.457Z" fill="url(#paint8_radial_6_2779)"/>
<path d="M530.864 282.422C516.533 322.152 491.109 354.689 459.348 377.775C449.535 384.923 439.113 391.171 428.205 396.43C415.074 402.811 401.245 407.779 386.984 411.194C349.664 420.187 309.379 418.722 270.558 404.726C228.217 389.459 194.065 361.59 170.776 326.882C157.795 307.555 148.176 286.076 142.422 263.467C141.584 260.157 140.825 256.83 140.145 253.468C133.041 218.248 135.177 180.69 148.255 144.42C176.856 65.111 249.644 14.4741 328.855 10.2823C344.193 9.4616 359.76 10.397 375.309 13.2033C378.31 13.724 381.301 14.3417 384.31 15.0301C392.429 16.8656 400.522 19.2219 408.561 22.1252C440.436 33.624 467.67 52.262 489.123 75.586C538.816 129.541 557.48 208.638 530.864 282.422Z" fill="url(#paint9_radial_6_2779)"/>
<path d="M530.724 282.426C516.392 322.156 490.968 354.693 459.207 377.779C449.394 384.927 438.972 391.175 428.065 396.434C414.933 402.815 401.105 407.783 386.844 411.198C349.524 420.191 309.238 418.726 270.418 404.73C228.076 389.463 193.924 361.594 170.636 326.886C157.654 307.559 148.035 286.08 142.281 263.471C141.443 260.161 140.684 256.834 140.005 253.472C132.901 218.252 135.036 180.694 148.115 144.424C176.716 65.1149 249.503 14.478 328.715 10.2862C344.052 9.4655 359.619 10.4009 375.169 13.2072C378.169 13.7279 381.161 14.3456 384.17 15.034C392.289 16.8695 400.381 19.2258 408.421 22.1291C440.296 33.6279 467.529 52.2659 488.982 75.5899C538.675 129.545 557.339 208.642 530.724 282.426Z" fill="url(#paint10_radial_6_2779)"/>
<path d="M15.2472 506.245C93.472 506.245 156.886 442.831 156.886 364.607C156.886 286.382 93.472 222.968 15.2472 222.968C-62.9776 222.968 -126.391 286.382 -126.391 364.607C-126.391 442.831 -62.9776 506.245 15.2472 506.245Z" fill="url(#paint11_radial_6_2779)"/>
<path d="M31.6424 518.176C109.867 518.176 173.281 454.762 173.281 376.538C173.281 298.313 109.867 234.899 31.6424 234.899C-46.5824 234.899 -109.996 298.313 -109.996 376.538C-109.996 454.762 -46.5824 518.176 31.6424 518.176Z" fill="url(#paint12_radial_6_2779)"/>
<path d="M65.9354 398.909C144.16 398.909 207.574 335.495 207.574 257.27C207.574 179.046 144.16 115.632 65.9354 115.632C-12.2894 115.632 -75.7031 179.046 -75.7031 257.27C-75.7031 335.495 -12.2894 398.909 65.9354 398.909Z" fill="url(#paint13_radial_6_2779)"/>
<path d="M441.123 253.14C501.144 253.14 549.801 204.483 549.801 144.462C549.801 84.4413 501.144 35.7847 441.123 35.7847C381.102 35.7847 332.445 84.4413 332.445 144.462C332.445 204.483 381.102 253.14 441.123 253.14Z" fill="url(#paint14_radial_6_2779)"/>
<path d="M452.535 346.904C534.498 346.904 600.942 280.46 600.942 198.497C600.942 116.534 534.498 50.0897 452.535 50.0897C370.572 50.0897 304.128 116.534 304.128 198.497C304.128 280.46 370.572 346.904 452.535 346.904Z" fill="url(#paint15_radial_6_2779)"/>
<path d="M247.861 158.3C247.724 157.653 247.521 157.043 247.231 156.457C246.933 155.839 246.604 155.334 246.158 154.831C245.695 154.284 245.271 153.909 244.691 153.49C244.292 153.192 243.949 152.993 243.552 152.791C243.556 152.876 243.571 152.951 243.575 153.026C243.634 153.592 243.682 154.158 243.741 154.724C243.782 155.12 243.684 155.525 243.505 155.902C243.491 155.933 243.479 155.953 243.477 155.974C243.415 156.085 243.364 156.187 243.303 156.288C243.254 156.369 243.184 156.437 243.126 156.506C243.114 156.516 243.112 156.537 243.101 156.547C243.089 156.567 243.066 156.586 243.055 156.596C242.972 156.695 242.878 156.804 242.786 156.891C242.66 157.008 242.534 157.125 242.398 157.23C242.284 157.326 242.161 157.401 242.027 157.485C241.848 157.597 241.659 157.698 241.471 157.799C241.315 157.881 241.15 157.963 240.974 158.033C240.908 158.059 240.831 158.095 240.766 158.111C240.645 158.164 240.514 158.217 240.383 158.259C240.262 158.313 240.142 158.356 240.013 158.377C239.816 158.445 239.609 158.513 239.405 158.548C239.21 158.596 239.005 158.642 238.811 158.679C238.801 158.678 238.801 158.678 238.79 158.677C238.554 158.721 238.318 158.754 238.072 158.776C237.987 158.78 237.912 158.795 237.826 158.798C237.784 158.805 237.741 158.802 237.699 158.798C237.315 158.83 236.934 158.83 236.554 158.809C236.269 158.795 235.986 158.761 235.693 158.715C235.556 158.704 235.41 158.671 235.264 158.648C235.129 158.615 234.983 158.582 234.848 158.55C234.744 158.53 234.63 158.5 234.526 158.47C234.496 158.457 234.454 158.453 234.424 158.429C234.32 158.4 234.196 158.368 234.093 158.328C234 158.299 233.897 158.269 233.806 158.219C233.621 158.15 233.447 158.072 233.286 157.974C233.193 157.935 233.113 157.886 233.032 157.836C233.022 157.825 233.022 157.825 233.012 157.824C232.881 157.739 232.752 157.633 232.623 157.527C232.524 157.444 232.427 157.341 232.34 157.238C232.321 157.215 232.301 157.203 232.281 157.18C232.272 157.169 232.253 157.146 232.243 157.135C232.204 157.089 232.155 157.043 232.127 156.998C232.098 156.964 232.08 156.93 232.062 156.886C232.024 156.841 231.986 156.785 231.97 156.72C231.925 156.631 231.879 156.543 231.845 156.444C231.766 156.247 231.709 156.041 231.695 155.828L231.684 155.827C231.627 155.25 231.569 154.673 231.511 154.096C231.504 154.053 231.507 154.011 231.5 153.968C231.091 154.304 230.665 154.703 230.349 155.069C229.88 155.602 229.555 156.073 229.228 156.692C228.912 157.302 228.695 157.867 228.544 158.532C228.407 159.167 228.343 159.808 228.362 160.467C228.37 160.626 228.377 160.786 228.396 160.946C228.396 160.946 228.396 160.946 228.395 160.957C228.394 160.968 228.394 160.968 228.394 160.968C228.393 160.978 228.393 160.978 228.392 160.989C228.399 161.032 228.398 161.053 228.405 161.096C228.415 161.224 228.435 161.363 228.446 161.491C228.497 162.025 228.547 162.559 228.599 163.083C229.018 167.335 229.436 171.599 229.865 175.852C232.004 197.458 234.133 219.052 236.262 240.647C236.292 240.671 236.323 240.673 236.354 240.686C243.144 243.765 249.935 246.832 256.725 249.911C256.797 249.938 256.868 249.976 256.94 250.003C254.436 224.647 251.933 199.28 249.419 173.913C249.001 169.66 248.583 165.397 248.154 161.144C248.103 160.61 248.052 160.076 248 159.552C247.991 159.413 247.97 159.284 247.959 159.156C247.952 159.113 247.954 159.092 247.947 159.049C247.948 159.039 247.948 159.039 247.949 159.028C247.95 159.018 247.95 159.018 247.95 159.018C247.95 159.018 247.95 159.018 247.95 159.007C247.95 159.007 247.95 159.007 247.951 158.997L247.952 158.986C247.948 158.912 247.934 158.826 247.919 158.75C247.92 158.613 247.89 158.462 247.861 158.3Z" fill="url(#paint16_linear_6_2779)"/>
<path d="M231.704 155.85L231.714 155.851C231.739 156.065 231.785 156.27 231.864 156.467C231.898 156.565 231.944 156.654 231.99 156.743C232.006 156.797 232.043 156.864 232.082 156.909C232.138 156.999 232.195 157.078 232.262 157.157C232.272 157.169 232.281 157.191 232.301 157.203C232.32 157.226 232.34 157.238 232.36 157.261C232.446 157.364 232.545 157.457 232.643 157.55C232.761 157.655 232.891 157.75 233.031 157.847C233.041 157.858 233.041 157.858 233.052 157.859C233.132 157.908 233.223 157.958 233.305 157.997C233.477 158.096 233.651 158.164 233.825 158.242C233.917 158.281 234.02 158.321 234.113 158.35C234.226 158.392 234.34 158.422 234.443 158.452C234.588 158.496 234.723 158.528 234.868 158.572C235.003 158.605 235.148 158.638 235.283 158.671C235.418 158.703 235.565 158.726 235.712 158.738C236.005 158.784 236.289 158.808 236.573 158.831C236.953 158.852 237.335 158.852 237.719 158.821C237.761 158.824 237.804 158.817 237.846 158.821C237.931 158.817 238.006 158.803 238.091 158.799C238.327 158.776 238.574 158.733 238.81 158.7C238.82 158.701 238.82 158.701 238.831 158.702C239.025 158.665 239.219 158.618 239.425 158.571C239.63 158.525 239.836 158.468 240.032 158.399C240.162 158.368 240.282 158.325 240.402 158.282C240.523 158.239 240.654 158.186 240.786 158.134C240.907 158.08 241.038 158.028 241.159 157.974C241.269 157.93 241.369 157.875 241.479 157.831C241.677 157.742 241.856 157.63 242.035 157.517C242.158 157.432 242.292 157.359 242.406 157.262C242.542 157.157 242.668 157.04 242.794 156.924C242.887 156.826 242.98 156.727 243.063 156.628C243.075 156.608 243.098 156.589 243.109 156.579C243.12 156.569 243.122 156.548 243.134 156.539C243.264 156.37 243.375 156.188 243.475 156.006C243.477 155.985 243.489 155.964 243.502 155.934C243.682 155.557 243.779 155.151 243.738 154.756C243.679 154.189 243.631 153.624 243.573 153.057C243.569 152.972 243.554 152.897 243.55 152.822C240.246 119.399 236.941 85.9856 233.648 52.5629C233.434 50.4362 233.23 48.3103 233.016 46.1731C232.914 45.1049 232.801 44.0463 232.7 42.9782C232.669 42.7107 232.649 42.4441 232.618 42.1766C232.613 42.1126 232.609 42.038 232.603 41.974C232.604 41.9635 232.604 41.9635 232.605 41.9529L232.606 41.9424C232.607 41.9319 232.607 41.9319 232.607 41.9319C232.607 41.9319 232.607 41.9319 232.608 41.9214C232.608 41.9214 232.608 41.9214 232.609 41.9108L232.61 41.9003C232.573 41.5793 232.516 41.2461 232.425 40.9312C232.247 40.2805 231.959 39.663 231.581 39.1122C231.175 38.5167 230.725 38.0659 230.146 37.6466C229.556 37.2159 229.068 36.9738 228.366 36.7562C227.704 36.5526 227.233 36.4816 226.534 36.4867C225.992 36.4946 225.262 36.6137 224.751 36.7724C224.217 36.9398 223.52 37.2949 223.069 37.6176C222.811 37.7974 222.559 38.0201 222.34 38.2349C221.902 38.6541 221.506 39.2039 221.228 39.7423C220.912 40.3518 220.711 40.992 220.612 41.662C220.563 41.997 220.546 42.3241 220.551 42.653C220.554 42.738 220.547 42.8222 220.562 42.8977C220.569 42.9406 220.566 42.9827 220.563 43.0143C220.561 43.0354 220.57 43.0573 220.568 43.0783C220.567 43.0888 220.567 43.0994 220.575 43.1213C220.575 43.1213 220.575 43.1213 220.574 43.1318C220.574 43.1318 220.574 43.1318 220.574 43.1424L220.573 43.1529C220.572 43.1634 220.572 43.1634 220.571 43.1739C220.576 43.2379 220.581 43.3125 220.586 43.3765C220.616 43.644 220.637 43.9106 220.667 44.1781C220.769 45.2463 220.882 46.3048 220.983 47.373C221.198 49.4998 221.402 51.6256 221.616 53.7629C224.919 87.1864 228.223 120.61 231.516 154.033C231.523 154.076 231.52 154.118 231.527 154.161C231.588 154.696 231.646 155.273 231.704 155.85Z" fill="url(#paint17_linear_6_2779)"/>
<path d="M420.528 238.875C420.784 238.101 420.937 237.332 420.982 236.517C421.044 235.685 420.988 234.936 420.816 234.124C420.65 233.261 420.425 232.598 420.053 231.806C419.798 231.247 419.55 230.816 419.249 230.37C419.21 230.466 419.17 230.545 419.123 230.642C418.834 231.281 418.545 231.921 418.255 232.56C418.052 233.007 417.697 233.385 417.268 233.681C417.235 233.709 417.209 233.727 417.192 233.737C417.058 233.821 416.931 233.896 416.812 233.962C416.711 234.019 416.599 234.05 416.488 234.091C416.471 234.1 416.454 234.109 416.429 234.119C416.403 234.129 416.369 234.14 416.343 234.15C416.19 234.209 416.027 234.269 415.864 234.303C415.657 234.357 415.451 234.402 415.235 234.431C415.054 234.466 414.863 234.477 414.68 234.486C414.411 234.501 414.15 234.498 413.88 234.486C413.653 234.481 413.426 234.459 413.198 234.437C413.11 234.425 413.014 234.413 412.935 234.392C412.768 234.375 412.593 234.35 412.435 234.316C412.277 234.299 412.119 234.273 411.96 234.222C411.697 234.184 411.441 234.121 411.193 234.04C410.946 233.977 410.698 233.896 410.468 233.823C410.46 233.823 410.451 233.815 410.442 233.815C410.158 233.711 409.875 233.615 409.598 233.493C409.501 233.455 409.411 233.409 409.314 233.371C409.26 233.349 409.216 233.334 409.171 233.302C408.734 233.103 408.322 232.877 407.926 232.617C407.629 232.427 407.34 232.229 407.05 232.005C406.914 231.901 406.769 231.789 406.633 231.677C406.505 231.556 406.369 231.443 406.241 231.322C406.132 231.234 406.04 231.136 405.939 231.039C405.911 231.006 405.875 230.982 405.847 230.941C405.746 230.844 405.636 230.739 405.544 230.633C405.461 230.543 405.369 230.445 405.294 230.338C405.145 230.15 404.996 229.97 404.873 229.762C404.807 229.663 404.741 229.564 404.683 229.456C404.682 229.448 404.682 229.448 404.673 229.431C404.586 229.256 404.498 229.073 404.436 228.888C404.376 228.738 404.342 228.577 404.307 228.408C404.297 228.374 404.286 228.341 404.285 228.315C404.284 228.29 404.282 228.264 404.272 228.239C404.26 228.163 404.239 228.095 404.226 228.019C404.224 227.968 404.221 227.917 404.227 227.857C404.214 227.78 404.219 227.703 404.232 227.626C404.235 227.506 404.254 227.376 404.266 227.256C404.296 226.998 404.37 226.746 404.48 226.51L404.462 226.502C404.76 225.854 405.048 225.197 405.346 224.549C405.369 224.496 405.384 224.453 405.408 224.409C404.752 224.521 404.047 224.686 403.474 224.888C402.636 225.172 401.99 225.48 401.257 225.955C400.54 226.413 399.955 226.888 399.378 227.509C398.834 228.102 398.362 228.751 397.981 229.464C397.894 229.64 397.799 229.816 397.721 229.999C397.721 229.999 397.721 229.999 397.721 230.008C397.722 230.016 397.722 230.017 397.714 230.025C397.705 230.034 397.706 230.043 397.706 230.052C397.691 230.095 397.675 230.13 397.652 230.174C397.589 230.314 397.519 230.472 397.448 230.621C397.174 231.225 396.9 231.821 396.635 232.425C394.461 237.234 392.288 242.043 390.105 246.852C379.063 271.265 368.021 295.669 356.988 320.073C357.008 320.115 357.035 320.148 357.063 320.18C362.542 327.563 368.021 334.955 373.499 342.338C373.555 342.412 373.611 342.486 373.676 342.568C386.642 313.906 399.599 285.254 412.573 256.584C414.747 251.775 416.921 246.966 419.103 242.157C419.377 241.552 419.651 240.956 419.916 240.352C419.987 240.203 420.057 240.046 420.119 239.905C420.135 239.862 420.15 239.827 420.174 239.783C420.174 239.774 420.182 239.765 420.181 239.757C420.181 239.748 420.181 239.748 420.189 239.739C420.189 239.739 420.189 239.739 420.189 239.731C420.189 239.731 420.189 239.731 420.188 239.722C420.188 239.722 420.188 239.714 420.196 239.705C420.235 239.617 420.274 239.53 420.313 239.434C420.399 239.249 420.468 239.066 420.528 238.875Z" fill="url(#paint18_linear_6_2779)"/>
<path d="M414.174 226.375C413.556 227.504 411.879 227.778 410.441 226.984C409.002 226.189 408.331 224.636 408.949 223.507C409.567 222.377 411.244 222.103 412.682 222.898C414.129 223.692 414.791 225.245 414.174 226.375Z" fill="white"/>
<path d="M404.478 226.509L404.496 226.517C404.386 226.754 404.312 227.006 404.282 227.264C404.262 227.393 404.251 227.513 404.248 227.633C404.235 227.711 404.23 227.788 404.243 227.864C404.241 227.992 404.265 228.119 404.288 228.246C404.29 228.272 404.291 228.297 404.301 228.323C404.303 228.357 404.322 228.39 404.323 228.415C404.358 228.576 404.392 228.736 404.452 228.896C404.523 229.08 404.602 229.264 404.689 229.439C404.689 229.447 404.689 229.447 404.699 229.464C404.757 229.572 404.823 229.671 404.889 229.77C405.013 229.977 405.152 230.158 405.31 230.346C405.385 230.453 405.477 230.55 405.56 230.64C405.653 230.755 405.763 230.86 405.863 230.949C405.992 231.079 406.12 231.2 406.257 231.329C406.385 231.451 406.521 231.563 406.649 231.684C406.777 231.806 406.922 231.918 407.066 232.013C407.356 232.236 407.645 232.435 407.942 232.624C408.338 232.876 408.75 233.111 409.187 233.31C409.232 233.341 409.276 233.356 409.33 233.379C409.428 233.416 409.517 233.463 409.615 233.5C409.891 233.622 410.174 233.718 410.458 233.823C410.467 233.822 410.476 233.83 410.485 233.83C410.723 233.903 410.962 233.975 411.209 234.048C411.457 234.12 411.713 234.183 411.976 234.229C412.126 234.272 412.293 234.306 412.451 234.323C412.609 234.349 412.784 234.374 412.951 234.399C413.117 234.416 413.293 234.441 413.459 234.457C413.607 234.467 413.747 234.485 413.896 234.494C414.167 234.514 414.437 234.516 414.697 234.494C414.888 234.484 415.079 234.473 415.251 234.439C415.467 234.41 415.674 234.365 415.88 234.311C416.043 234.268 416.197 234.217 416.359 234.157C416.385 234.147 416.419 234.137 416.445 234.127C416.462 234.117 416.479 234.108 416.504 234.098C416.751 233.991 416.989 233.875 417.208 233.736C417.225 233.726 417.25 233.708 417.284 233.68C417.721 233.383 418.067 233.006 418.271 232.559C418.56 231.92 418.85 231.28 419.139 230.641C419.178 230.545 419.217 230.466 419.264 230.369C436.351 192.598 453.429 154.835 470.516 117.064C471.603 114.656 472.69 112.255 473.777 109.847C474.324 108.646 474.863 107.438 475.411 106.238C475.552 105.931 475.685 105.633 475.818 105.335C475.848 105.257 475.888 105.186 475.919 105.108C475.919 105.099 475.927 105.09 475.926 105.082L475.926 105.073C475.926 105.065 475.926 105.065 475.926 105.065C475.926 105.065 475.926 105.065 475.925 105.056C475.925 105.056 475.925 105.056 475.925 105.048C475.925 105.048 475.924 105.039 475.932 105.03C476.096 104.662 476.233 104.27 476.344 103.88C476.555 103.074 476.617 102.25 476.548 101.416C476.477 100.531 476.273 99.7722 475.892 98.9719C475.52 98.1542 475.143 97.6016 474.509 96.9431C473.912 96.334 473.449 95.9655 472.688 95.5532C472.097 95.2343 471.228 94.9218 470.569 94.7861C469.891 94.6428 468.914 94.601 468.222 94.6808C467.832 94.7187 467.418 94.8006 467.04 94.8978C466.31 95.0821 465.536 95.4312 464.895 95.8331C464.178 96.2902 463.554 96.8535 463.04 97.5221C462.778 97.8438 462.552 98.1893 462.361 98.5414C462.313 98.6294 462.257 98.7179 462.218 98.814C462.203 98.8575 462.171 98.902 462.147 98.946C462.139 98.9721 462.123 98.9986 462.115 99.0161C462.108 99.0336 462.108 99.0421 462.1 99.0596C462.1 99.0596 462.1 99.0596 462.101 99.0682C462.101 99.0682 462.101 99.0682 462.101 99.0767L462.102 99.0852C462.102 99.0937 462.094 99.1027 462.094 99.1112C462.063 99.1898 462.024 99.2603 461.993 99.3389C461.852 99.6456 461.719 99.9433 461.586 100.241C461.038 101.441 460.5 102.65 459.952 103.85C458.865 106.259 457.778 108.659 456.691 111.068C439.605 148.839 422.518 186.61 405.44 224.381C405.416 224.434 405.401 224.477 405.377 224.521C405.064 225.205 404.775 225.853 404.478 226.509Z" fill="url(#paint19_linear_6_2779)"/>
<path d="M271.592 432.876C271.592 426.486 267.083 418.685 261.55 415.499C186.177 371.975 110.795 328.46 35.4222 284.945C32.8894 283.48 30.5685 283.233 28.8035 284.01H28.7947C28.7153 284.062 28.6447 284.124 28.5741 284.186C28.2388 284.468 27.9299 284.804 27.6651 285.192C27.6122 285.263 27.5592 285.333 27.5151 285.413C27.4445 285.519 27.3827 285.633 27.321 285.739C27.2504 285.872 27.1798 285.995 27.118 286.136C27.065 286.26 27.0033 286.392 26.9503 286.525C26.8885 286.675 26.8356 286.851 26.7826 287.01C26.7297 287.142 26.6944 287.275 26.6679 287.416C26.615 287.601 26.5709 287.804 26.5267 287.998C26.4738 288.29 26.4297 288.598 26.3944 288.907C26.3502 289.313 26.3326 289.746 26.3326 290.187C26.3326 298.959 26.3326 307.722 26.3326 316.494C26.3326 322.892 30.8332 330.684 36.3752 333.879C111.748 377.394 187.13 420.909 262.503 464.433C262.9 464.663 263.306 464.866 263.685 465.033C264.991 465.598 266.209 465.845 267.312 465.783C267.33 465.783 267.33 465.783 267.339 465.783C267.665 465.766 267.974 465.713 268.274 465.642C268.38 465.625 268.486 465.589 268.583 465.554C268.68 465.527 268.777 465.492 268.874 465.457C268.954 465.43 269.024 465.404 269.104 465.369C269.112 465.369 269.112 465.369 269.112 465.36C270.657 464.213 271.583 462.086 271.583 459.174C271.592 450.411 271.592 441.647 271.592 432.876Z" fill="url(#paint20_linear_6_2779)"/>
<path d="M271.592 432.876C271.592 426.486 267.083 418.685 261.55 415.499C186.177 371.975 110.795 328.46 35.4222 284.945C32.8894 283.48 30.5685 283.233 28.8035 284.01H28.7947C28.7153 284.062 28.6447 284.124 28.5741 284.186C28.2388 284.468 27.9299 284.804 27.6651 285.192C27.6122 285.263 27.5592 285.333 27.5151 285.413C27.4445 285.519 27.3827 285.633 27.321 285.739C27.2504 285.872 27.1798 285.995 27.118 286.136C27.065 286.26 27.0033 286.392 26.9503 286.525C26.8885 286.675 26.8356 286.851 26.7826 287.01C26.7297 287.142 26.6944 287.275 26.6679 287.416C26.615 287.601 26.5709 287.804 26.5267 287.998C26.4738 288.29 26.4297 288.598 26.3944 288.907C26.3502 289.313 26.3326 289.746 26.3326 290.187C26.3326 298.959 26.3326 307.722 26.3326 316.494C26.3326 322.892 30.8332 330.684 36.3752 333.879C111.748 377.394 187.13 420.909 262.503 464.433C262.9 464.663 263.306 464.866 263.685 465.033C264.991 465.598 266.209 465.845 267.312 465.783C267.33 465.783 267.33 465.783 267.339 465.783C267.665 465.766 267.974 465.713 268.274 465.642C268.38 465.625 268.486 465.589 268.583 465.554C268.68 465.527 268.777 465.492 268.874 465.457C268.954 465.43 269.024 465.404 269.104 465.369C269.112 465.369 269.112 465.369 269.112 465.36C270.657 464.213 271.583 462.086 271.583 459.174C271.592 450.411 271.592 441.647 271.592 432.876Z" fill="url(#paint21_linear_6_2779)"/>
<path d="M268.874 465.457C268.777 465.492 268.68 465.528 268.583 465.554C268.486 465.589 268.38 465.616 268.274 465.642C267.974 465.722 267.656 465.766 267.339 465.783C267.33 465.783 267.321 465.783 267.312 465.783C266.209 465.845 264.991 465.598 263.685 465.033C263.297 464.866 262.9 464.663 262.503 464.433C187.13 420.909 111.748 377.394 36.3752 333.879C30.8332 330.684 26.3325 322.883 26.3325 316.494C26.3325 307.722 26.3325 298.959 26.3325 290.187C26.3325 289.737 26.3502 289.313 26.3943 288.907C26.4296 288.59 26.4737 288.29 26.5267 287.998C26.5708 287.804 26.6149 287.601 26.6679 287.416C26.7032 287.275 26.7385 287.142 26.7826 287.01C26.8355 286.851 26.8885 286.684 26.9503 286.525C27.0032 286.392 27.065 286.269 27.1179 286.136C27.1797 285.995 27.2503 285.872 27.3209 285.739C27.3827 285.625 27.4445 285.519 27.5151 285.413C27.5592 285.333 27.6033 285.263 27.6651 285.192C27.9298 284.804 28.2387 284.469 28.5741 284.186C28.6447 284.124 28.7152 284.063 28.7947 284.01C26.6944 284.919 25.3795 287.266 25.3795 290.734C25.3795 299.506 25.3795 308.269 25.3795 317.041C25.3795 323.439 29.8801 331.231 35.4221 334.426C110.795 377.941 186.177 421.456 261.549 464.98C264.32 466.578 266.827 466.728 268.645 465.678C268.689 465.66 268.733 465.625 268.768 465.598C268.883 465.528 268.989 465.448 269.104 465.377C269.033 465.404 268.954 465.43 268.874 465.457Z" fill="url(#paint22_linear_6_2779)"/>
<path d="M274.415 460.815C274.415 452.043 274.415 443.28 274.415 434.508C274.415 426.301 268.661 416.329 261.548 412.226C186.175 368.701 110.794 325.186 35.4209 281.662C32.288 279.853 29.42 279.491 27.1873 280.356C26.9402 280.444 26.6931 280.559 26.4637 280.683C26.446 280.691 26.4284 280.7 26.4107 280.709C26.3225 280.762 26.2342 280.806 26.1548 280.859C25.74 281.106 25.3605 281.406 25.0164 281.759C24.9281 281.839 24.8575 281.918 24.7869 282.006C24.4428 282.377 24.1427 282.801 23.878 283.268C23.825 283.365 23.7721 283.454 23.728 283.56C23.7015 283.604 23.675 283.648 23.6574 283.701C23.6044 283.798 23.5603 283.895 23.5162 283.992C23.5073 284.001 23.5073 284.01 23.5073 284.01C23.4367 284.16 23.375 284.31 23.3132 284.469C23.2955 284.513 23.2779 284.557 23.2602 284.601C23.1897 284.786 23.1279 284.98 23.0749 285.174C23.0749 285.183 23.0661 285.183 23.0661 285.192C23.0043 285.395 22.9514 285.607 22.9072 285.819C22.8896 285.863 22.8808 285.907 22.872 285.96C22.8278 286.145 22.7837 286.348 22.7572 286.542C22.7219 286.754 22.6955 286.966 22.669 287.187C22.6513 287.292 22.6425 287.407 22.6337 287.513C22.6072 287.778 22.5807 288.051 22.5807 288.334C22.5631 288.581 22.5631 288.828 22.5631 289.084C22.5631 297.856 22.5631 306.619 22.5631 315.391C22.5631 323.598 28.3257 333.57 35.4385 337.682C110.811 381.197 186.193 424.713 261.566 468.237C262.087 468.528 262.59 468.793 263.093 469.013C263.34 469.119 263.587 469.225 263.825 469.313H263.834C264.081 469.402 264.319 469.481 264.558 469.56H264.566C264.805 469.631 265.034 469.693 265.272 469.746C265.272 469.746 265.272 469.746 265.281 469.746C266.119 469.94 266.931 470.019 267.699 469.975C268.052 469.958 268.387 469.913 268.714 469.852C268.793 469.843 268.864 469.825 268.935 469.799C269.023 469.781 269.102 469.763 269.191 469.737C269.314 469.71 269.42 469.675 269.544 469.631C269.649 469.596 269.764 469.552 269.87 469.508C269.994 469.463 270.1 469.419 270.214 469.357C270.355 469.296 270.488 469.225 270.611 469.155C270.629 469.146 270.629 469.137 270.647 469.137C270.673 469.119 270.7 469.11 270.726 469.084C271.017 468.916 271.3 468.713 271.564 468.484C273.338 466.992 274.415 464.363 274.415 460.815ZM269.111 465.36C269.199 465.325 269.279 465.289 269.358 465.236C269.367 465.236 269.376 465.236 269.376 465.227V465.236C269.173 465.36 268.97 465.475 268.767 465.589C268.723 465.616 268.679 465.642 268.643 465.669C266.825 466.719 264.319 466.569 261.548 464.972C186.175 421.448 110.794 377.932 35.4209 334.417C29.8789 331.222 25.3782 323.421 25.3782 317.032C25.3782 308.26 25.3782 299.497 25.3782 290.725C25.3782 287.266 26.6931 284.91 28.7934 284.001H28.8022C30.5672 283.224 32.8881 283.471 35.4209 284.936C110.794 328.451 186.175 371.967 261.548 415.491C267.081 418.676 271.591 426.486 271.591 432.867C271.591 441.639 271.591 450.402 271.591 459.174C271.591 462.086 270.655 464.213 269.111 465.36Z" fill="url(#paint23_linear_6_2779)"/>
<path d="M413.512 324.48C338.139 280.965 262.757 237.45 187.384 193.926C183.828 191.878 180.616 191.684 178.286 193.026C178.198 193.078 178.11 193.123 178.03 193.176C127.508 222.333 76.9858 251.499 26.4725 280.683C26.702 280.559 26.9491 280.444 27.1961 280.356C29.4288 279.482 32.2969 279.853 35.4297 281.662C110.803 325.186 186.184 368.701 261.557 412.225C268.67 416.329 274.424 426.301 274.424 434.508C274.424 443.28 274.424 452.043 274.424 460.815C274.424 464.362 273.347 467.001 271.547 468.51C271.282 468.731 271 468.934 270.708 469.11C270.691 469.128 270.682 469.128 270.656 469.146C321.31 439.9 371.965 410.655 422.619 381.409C424.949 380.059 426.387 377.182 426.387 373.078C426.387 364.307 426.387 355.544 426.387 346.772C426.378 338.573 420.616 328.584 413.512 324.48Z" fill="url(#paint24_linear_6_2779)"/>
<path d="M413.512 324.48C338.139 280.965 262.757 237.45 187.384 193.926C183.828 191.878 180.616 191.684 178.286 193.026C178.198 193.078 178.11 193.123 178.03 193.176C127.508 222.333 76.9858 251.499 26.4725 280.683C26.702 280.559 26.9491 280.444 27.1961 280.356C29.4288 279.482 32.2969 279.853 35.4297 281.662C110.803 325.186 186.184 368.701 261.557 412.225C268.67 416.329 274.424 426.301 274.424 434.508C274.424 443.28 274.424 452.043 274.424 460.815C274.424 464.362 273.347 467.001 271.547 468.51C271.282 468.731 271 468.934 270.708 469.11C270.691 469.128 270.682 469.128 270.656 469.146C321.31 439.9 371.965 410.655 422.619 381.409C424.949 380.059 426.387 377.182 426.387 373.078C426.387 364.307 426.387 355.544 426.387 346.772C426.378 338.573 420.616 328.584 413.512 324.48Z" fill="url(#paint25_linear_6_2779)"/>
<path d="M426.368 346.772V373.07C426.368 377.173 424.93 380.059 422.609 381.4C371.963 410.637 321.318 439.883 270.672 469.119C270.681 469.119 270.681 469.11 270.69 469.102C270.99 468.934 271.272 468.731 271.537 468.501C272.243 467.91 272.834 467.142 273.293 466.216C274.008 464.786 274.405 462.959 274.405 460.806V434.499C274.405 426.301 268.651 416.32 261.547 412.225C186.165 368.701 110.793 325.177 35.4109 281.653C32.2781 279.844 29.41 279.482 27.1773 280.356C26.9302 280.444 26.6831 280.559 26.4537 280.683C41.8265 271.805 57.1905 262.936 72.5634 254.058C107.713 233.761 142.871 213.473 178.02 193.176C178.1 193.123 178.188 193.079 178.276 193.026C180.606 191.675 183.818 191.878 187.374 193.926C262.747 237.45 338.129 280.965 413.502 324.48C420.615 328.584 426.368 338.565 426.368 346.772Z" fill="url(#paint26_radial_6_2779)"/>
<path d="M426.368 346.772V373.07C426.368 377.173 424.93 380.059 422.609 381.4C371.963 410.637 321.318 439.883 270.672 469.119C270.681 469.119 270.681 469.11 270.69 469.102C270.99 468.934 271.272 468.731 271.537 468.501C272.243 467.91 272.834 467.142 273.293 466.216C274.008 464.786 274.405 462.959 274.405 460.806V434.499C274.405 426.301 268.651 416.32 261.547 412.225C186.165 368.701 110.793 325.177 35.4109 281.653C32.2781 279.844 29.41 279.482 27.1773 280.356C26.9302 280.444 26.6831 280.559 26.4537 280.683C41.8265 271.805 57.1905 262.936 72.5634 254.058C107.713 233.761 142.871 213.473 178.02 193.176C178.1 193.123 178.188 193.079 178.276 193.026C180.606 191.675 183.818 191.878 187.374 193.926C262.747 237.45 338.129 280.965 413.502 324.48C420.615 328.584 426.368 338.565 426.368 346.772Z" fill="url(#paint27_linear_6_2779)"/>
<path d="M316.79 408.634V434.941C316.79 439.044 315.361 441.921 313.031 443.271C299.785 450.922 286.539 458.565 273.293 466.216C274.008 464.786 274.405 462.96 274.405 460.806V434.499C274.405 426.301 268.651 416.32 261.547 412.226C186.165 368.702 110.793 325.178 35.4109 281.653C32.2781 279.844 29.41 279.483 27.1773 280.356C26.9302 280.444 26.6831 280.559 26.4537 280.683C41.8265 271.805 57.1905 262.936 72.5634 254.058C74.1607 254.155 75.9345 254.72 77.7965 255.797C153.169 299.312 228.551 342.836 303.933 386.351C311.037 390.455 316.79 400.436 316.79 408.634Z" fill="url(#paint28_radial_6_2779)"/>
<path d="M259.592 439.776C259.583 445.265 255.745 447.489 250.979 444.745C246.231 442 242.375 435.329 242.375 429.84C242.375 424.351 246.231 422.127 250.979 424.871C255.745 427.607 259.592 434.287 259.592 439.776Z" fill="url(#paint29_radial_6_2779)"/>
<path opacity="0.31" d="M257.669 438.665C257.669 442.927 254.687 444.648 250.989 442.521C247.3 440.394 244.309 435.205 244.309 430.952C244.309 426.689 247.3 424.96 250.989 427.095C254.687 429.213 257.669 434.402 257.669 438.665Z" fill="#E7EFFF"/>
<path opacity="0.22" d="M256.188 437.8C256.188 441.109 253.858 442.45 250.99 440.8C248.122 439.141 245.801 435.117 245.801 431.808C245.801 428.498 248.122 427.148 250.99 428.816C253.858 430.466 256.188 434.49 256.188 437.8Z" fill="#E7EFFF"/>
<path opacity="0.15" d="M254.658 436.926C254.658 439.264 253.007 440.217 250.987 439.053C248.957 437.879 247.324 435.028 247.324 432.69C247.324 430.351 248.957 429.398 250.987 430.572C253.016 431.737 254.658 434.587 254.658 436.926Z" fill="#F86E80"/>
<g opacity="0.83">
<path opacity="0.83" d="M203.852 402.262L207.805 404.539V399.977L203.852 397.7V402.262Z" fill="#E7EFFF"/>
<path opacity="0.83" d="M197.465 398.573L201.41 400.85V396.288L197.465 394.011V398.573Z" fill="white"/>
<path opacity="0.83" d="M191.074 394.876L195.019 397.153V392.608L191.074 390.322V394.876Z" fill="#E7EFFF"/>
<path opacity="0.83" d="M184.676 391.187L188.63 393.472V388.91L184.676 386.633V391.187Z" fill="white"/>
<path opacity="0.83" d="M165.5 380.121L169.454 382.406V377.835L165.5 375.558V380.121Z" fill="#B7DABF"/>
<path opacity="0.83" d="M159.109 376.432L163.063 378.709V374.155L159.109 371.869V376.432Z" fill="#B7DABF"/>
<path opacity="0.83" d="M152.715 372.743L156.668 375.02V370.458L152.715 368.172V372.743Z" fill="#B7DABF"/>
<path opacity="0.83" d="M133.535 361.668L137.489 363.954L137.48 359.391L133.535 357.105V361.668Z" fill="#E7EFFF"/>
<path opacity="0.83" d="M127.156 357.979L131.101 360.265V355.694L127.156 353.417V357.979Z" fill="white"/>
<path opacity="0.83" d="M223.02 420.547L226.983 422.833V418.27L223.02 415.985V420.547Z" fill="#E7EFFF"/>
<path opacity="0.83" d="M216.621 416.858L220.583 419.144V414.582L216.621 412.296V416.858Z" fill="white"/>
<path opacity="0.83" d="M210.242 413.17L214.187 415.455V410.884L210.242 408.616V413.17Z" fill="#E7EFFF"/>
<path opacity="0.83" d="M203.852 409.481L207.805 411.757V407.195L203.852 404.918V409.481Z" fill="white"/>
<path opacity="0.83" d="M184.676 398.406L188.63 400.691V396.129L184.676 393.843V398.406Z" fill="white"/>
<path opacity="0.83" d="M178.277 394.726L182.231 397.002V392.44L178.277 390.154V394.726Z" fill="#E7EFFF"/>
<path opacity="0.83" d="M165.5 387.339L169.454 389.625V385.054L165.5 382.777V387.339Z" fill="white"/>
<path opacity="0.83" d="M159.109 383.651L163.063 385.936V381.365L159.109 379.088V383.651Z" fill="#E7EFFF"/>
<path opacity="0.83" d="M146.324 376.264L150.277 378.55V373.987L146.324 371.711V376.264Z" fill="#B7DABF"/>
<path opacity="0.83" d="M139.926 372.575L143.888 374.861V370.29L139.926 368.013V372.575Z" fill="white"/>
<path opacity="0.83" d="M210.242 420.388L214.187 422.665V418.111L210.242 415.826V420.388Z" fill="white"/>
<path opacity="0.83" d="M197.465 413.011L201.41 415.287V410.725L197.465 408.448V413.011Z" fill="white"/>
<path opacity="0.83" d="M191.074 409.313L195.019 411.599V407.036L191.074 404.759V409.313Z" fill="#E7EFFF"/>
<path opacity="0.83" d="M165.5 394.558L169.454 396.835V392.272L165.5 389.996V394.558Z" fill="#E7EFFF"/>
<path opacity="0.83" d="M159.109 390.869L163.063 393.146V388.584L159.109 386.307V390.869Z" fill="white"/>
<path opacity="0.83" d="M152.715 387.172L156.668 389.457V384.895L152.715 382.609V387.172Z" fill="#E7EFFF"/>
<path opacity="0.83" d="M146.324 383.492L150.277 385.768V381.206L146.324 378.92V383.492Z" fill="#B7DABF"/>
<path opacity="0.83" d="M139.926 379.794L143.888 382.08V377.517L139.926 375.232V379.794Z" fill="#B7DABF"/>
<path opacity="0.83" d="M133.535 376.105L137.489 378.382L137.48 373.829L133.535 371.543V376.105Z" fill="#B7DABF"/>
<path opacity="0.83" d="M127.156 372.417L131.101 374.693V370.14L127.156 367.863V372.417Z" fill="#B7DABF"/>
</g>
<path d="M118.417 359.082C118.408 364.571 114.57 366.795 109.804 364.051C105.056 361.306 101.2 354.635 101.2 349.146C101.2 343.656 105.056 341.433 109.804 344.177C114.57 346.913 118.417 353.593 118.417 359.082Z" fill="url(#paint30_radial_6_2779)"/>
<path opacity="0.31" d="M116.487 357.97C116.487 362.233 113.504 363.954 109.806 361.827C106.117 359.7 103.126 354.511 103.126 350.258C103.126 345.995 106.117 344.265 109.806 346.401C113.504 348.519 116.487 353.708 116.487 357.97Z" fill="#E7EFFF"/>
<path opacity="0.3" d="M115.001 357.106C115.001 360.415 112.671 361.756 109.803 360.106C106.935 358.447 104.614 354.423 104.614 351.113C104.614 347.804 106.935 346.454 109.803 348.122C112.671 349.772 115.001 353.796 115.001 357.106Z" fill="#E7EFFF"/>
<path opacity="0.44" d="M113.483 356.232C113.483 358.57 111.841 359.523 109.811 358.358C107.782 357.185 106.149 354.334 106.149 351.996C106.149 349.657 107.782 348.704 109.811 349.878C111.832 351.043 113.483 353.893 113.483 356.232Z" fill="#E7EFFF"/>
<g opacity="0.83">
<path opacity="0.83" d="M82.5078 331.92L86.4613 334.196V329.634L82.5078 327.357V331.92Z" fill="#B7DABF"/>
<path opacity="0.83" d="M76.1211 328.231L80.0746 330.507V325.945L76.1211 323.668V328.231Z" fill="#B7DABF"/>
<path opacity="0.83" d="M69.7217 324.542L73.6753 326.819V322.256L69.7217 319.971V324.542Z" fill="#B7DABF"/>
<path opacity="0.83" d="M50.5469 313.458L54.5004 315.752L54.4916 311.19L50.5469 308.904V313.458Z" fill="white"/>
<path opacity="0.83" d="M44.1562 309.769L48.1098 312.064V307.492L44.1562 305.207V309.769Z" fill="#E7EFFF"/>
<path opacity="0.83" d="M82.5078 339.138L86.4613 341.415V336.853L82.5078 334.567V339.138Z" fill="#E7EFFF"/>
<path opacity="0.83" d="M76.1211 335.45L80.0746 337.726V333.164L76.1211 330.887V335.45Z" fill="white"/>
<path opacity="0.83" d="M63.3326 328.063L67.2861 330.34V325.777L63.3326 323.501V328.063Z" fill="#B7DABF"/>
<path opacity="0.83" d="M56.9346 324.374L60.8881 326.66V322.089L56.9346 319.812V324.374Z" fill="white"/>
<path opacity="0.83" d="M82.5078 346.348L86.4613 348.634V344.071L82.5078 341.786V346.348Z" fill="white"/>
<path opacity="0.83" d="M76.1211 342.659L80.0746 344.945V340.383L76.1211 338.106V342.659Z" fill="#E7EFFF"/>
<path opacity="0.83" d="M69.7217 338.971L73.6753 341.256V336.694L69.7217 334.408V338.971Z" fill="#E7EFFF"/>
<path opacity="0.83" d="M63.3326 335.282L67.2861 337.567V333.005L63.3326 330.719V335.282Z" fill="#B7DABF"/>
<path opacity="0.83" d="M56.9346 331.593L60.8881 333.87V329.316L56.9346 327.031V331.593Z" fill="#B7DABF"/>
<path opacity="0.83" d="M50.5469 327.904L54.5004 330.181L54.4916 325.627L50.5469 323.342V327.904Z" fill="#B7DABF"/>
<path opacity="0.83" d="M44.1562 324.216L48.1098 326.492V321.939L44.1562 319.653V324.216Z" fill="#B7DABF"/>
</g>
<path d="M17.7358 382.848C77.7569 382.848 126.414 334.191 126.414 274.17C126.414 214.149 77.7569 165.492 17.7358 165.492C-42.2852 165.492 -90.9419 214.149 -90.9419 274.17C-90.9419 334.191 -42.2852 382.848 17.7358 382.848Z" fill="url(#paint31_radial_6_2779)"/>
<path d="M288.694 290.388C331.603 290.388 366.388 255.603 366.388 212.694C366.388 169.785 331.603 135 288.694 135C245.785 135 211 169.785 211 212.694C211 255.603 245.785 290.388 288.694 290.388Z" fill="url(#paint32_radial_6_2779)"/>
<path d="M484.058 491.116C570.247 491.116 640.116 421.247 640.116 335.058C640.116 248.87 570.247 179 484.058 179C397.87 179 328 248.87 328 335.058C328 421.247 397.87 491.116 484.058 491.116Z" fill="url(#paint33_radial_6_2779)"/>
<g filter="url(#filter0_ii_6_2779)">
<path d="M186.237 309.519C186.73 304.264 189.262 298.976 193.768 294.47C205.033 283.205 224.904 281.126 238.048 289.909C251.192 298.692 252.717 314.959 241.387 326.288C236.881 330.794 231.109 333.81 224.843 335.315L229.316 311.672L226.58 312.528L223.265 317.723L226.901 300.931L214.938 304.75L211.559 310.008L213.478 301.197L186.237 309.519Z" fill="url(#paint34_linear_6_2779)"/>
</g>
</g>
</g>
<defs>
<filter id="filter0_ii_6_2779" x="186.237" y="284.467" width="62.7485" height="50.8481" filterUnits="userSpaceOnUse" color-interpolation-filters="sRGB">
<feFlood flood-opacity="0" result="BackgroundImageFix"/>
<feBlend mode="normal" in="SourceGraphic" in2="BackgroundImageFix" result="shape"/>
<feColorMatrix in="SourceAlpha" type="matrix" values="0 0 0 0 0 0 0 0 0 0 0 0 0 0 0 0 0 0 127 0" result="hardAlpha"/>
<feOffset dy="1"/>
<feComposite in2="hardAlpha" operator="arithmetic" k2="-1" k3="1"/>
<feColorMatrix type="matrix" values="0 0 0 0 0.188235 0 0 0 0 0.368627 0 0 0 0 0.698039 0 0 0 0.25 0"/>
<feBlend mode="normal" in2="shape" result="effect1_innerShadow_6_2779"/>
<feColorMatrix in="SourceAlpha" type="matrix" values="0 0 0 0 0 0 0 0 0 0 0 0 0 0 0 0 0 0 127 0" result="hardAlpha"/>
<feOffset dy="-1"/>
<feComposite in2="hardAlpha" operator="arithmetic" k2="-1" k3="1"/>
<feColorMatrix type="matrix" values="0 0 0 0 1 0 0 0 0 1 0 0 0 0 1 0 0 0 0.75 0"/>
<feBlend mode="normal" in2="effect1_innerShadow_6_2779" result="effect2_innerShadow_6_2779"/>
</filter>
<radialGradient id="paint0_radial_6_2779" cx="0" cy="0" r="1" gradientUnits="userSpaceOnUse" gradientTransform="translate(381.616 404.425) rotate(-28.4181) scale(270.955 160.752)">
<stop stop-color="#305EB2" stop-opacity="0.3"/>
<stop offset="0.102" stop-color="#3461B3" stop-opacity="0.2553"/>
<stop offset="0.1978" stop-color="#3F6AB8" stop-opacity="0.2133"/>
<stop offset="0.2913" stop-color="#5279BF" stop-opacity="0.1724"/>
<stop offset="0.3832" stop-color="#6D8DC9" stop-opacity="0.1321"/>
<stop offset="0.474" stop-color="#8FA8D5" stop-opacity="0.0923"/>
<stop offset="0.564" stop-color="#B9C9E5" stop-opacity="0.0529"/>
<stop offset="0.6518" stop-color="#EBEFF7" stop-opacity="0.0145"/>
<stop offset="0.6848" stop-color="white" stop-opacity="0"/>
</radialGradient>
<radialGradient id="paint1_radial_6_2779" cx="0" cy="0" r="1" gradientUnits="userSpaceOnUse" gradientTransform="translate(381.874 404.625) rotate(-28.4172) scale(262.817 76.2666)">
<stop stop-color="#305EB2" stop-opacity="0.3"/>
<stop offset="0.102" stop-color="#3461B3" stop-opacity="0.2553"/>
<stop offset="0.1978" stop-color="#3F6AB8" stop-opacity="0.2133"/>
<stop offset="0.2913" stop-color="#5279BF" stop-opacity="0.1724"/>
<stop offset="0.3832" stop-color="#6D8DC9" stop-opacity="0.1321"/>
<stop offset="0.474" stop-color="#8FA8D5" stop-opacity="0.0923"/>
<stop offset="0.564" stop-color="#B9C9E5" stop-opacity="0.0529"/>
<stop offset="0.6518" stop-color="#EBEFF7" stop-opacity="0.0145"/>
<stop offset="0.6848" stop-color="white" stop-opacity="0"/>
</radialGradient>
<radialGradient id="paint2_radial_6_2779" cx="0" cy="0" r="1" gradientUnits="userSpaceOnUse" gradientTransform="translate(324.328 430.967) rotate(-28.4181) scale(270.955 138.155)">
<stop stop-color="white"/>
<stop offset="0.00290066" stop-color="#FDFDFD"/>
<stop offset="0.1234" stop-color="#C3C3C3"/>
<stop offset="0.2466" stop-color="#8F8F8F"/>
<stop offset="0.3701" stop-color="#636363"/>
<stop offset="0.4938" stop-color="#3F3F3F"/>
<stop offset="0.6177" stop-color="#242424"/>
<stop offset="0.7421" stop-color="#101010"/>
<stop offset="0.8673" stop-color="#040404"/>
<stop offset="0.9946"/>
</radialGradient>
<radialGradient id="paint3_radial_6_2779" cx="0" cy="0" r="1" gradientUnits="userSpaceOnUse" gradientTransform="translate(295.152 412.236) rotate(-28.4181) scale(270.955 160.752)">
<stop stop-color="#305EB2" stop-opacity="0.3"/>
<stop offset="0.102" stop-color="#3461B3" stop-opacity="0.2553"/>
<stop offset="0.1978" stop-color="#3F6AB8" stop-opacity="0.2133"/>
<stop offset="0.2913" stop-color="#5279BF" stop-opacity="0.1724"/>
<stop offset="0.3832" stop-color="#6D8DC9" stop-opacity="0.1321"/>
<stop offset="0.474" stop-color="#8FA8D5" stop-opacity="0.0923"/>
<stop offset="0.564" stop-color="#B9C9E5" stop-opacity="0.0529"/>
<stop offset="0.6518" stop-color="#EBEFF7" stop-opacity="0.0145"/>
<stop offset="0.6848" stop-color="white" stop-opacity="0"/>
</radialGradient>
<radialGradient id="paint4_radial_6_2779" cx="0" cy="0" r="1" gradientUnits="userSpaceOnUse" gradientTransform="translate(324.494 431.087) rotate(-28.4172) scale(262.817 65.533)">
<stop stop-color="white"/>
<stop offset="0.00290066" stop-color="#FDFDFD"/>
<stop offset="0.1234" stop-color="#C3C3C3"/>
<stop offset="0.2466" stop-color="#8F8F8F"/>
<stop offset="0.3701" stop-color="#636363"/>
<stop offset="0.4938" stop-color="#3F3F3F"/>
<stop offset="0.6177" stop-color="#242424"/>
<stop offset="0.7421" stop-color="#101010"/>
<stop offset="0.8673" stop-color="#040404"/>
<stop offset="0.9946"/>
</radialGradient>
<radialGradient id="paint5_radial_6_2779" cx="0" cy="0" r="1" gradientUnits="userSpaceOnUse" gradientTransform="translate(343.289 418.837) rotate(-28.4172) scale(262.817 76.2666)">
<stop stop-color="#305EB2" stop-opacity="0.3"/>
<stop offset="0.102" stop-color="#3461B3" stop-opacity="0.2553"/>
<stop offset="0.1978" stop-color="#3F6AB8" stop-opacity="0.2133"/>
<stop offset="0.2913" stop-color="#5279BF" stop-opacity="0.1724"/>
<stop offset="0.3832" stop-color="#6D8DC9" stop-opacity="0.1321"/>
<stop offset="0.474" stop-color="#8FA8D5" stop-opacity="0.0923"/>
<stop offset="0.564" stop-color="#B9C9E5" stop-opacity="0.0529"/>
<stop offset="0.6518" stop-color="#EBEFF7" stop-opacity="0.0145"/>
<stop offset="0.6848" stop-color="white" stop-opacity="0"/>
</radialGradient>
<radialGradient id="paint6_radial_6_2779" cx="0" cy="0" r="1" gradientUnits="userSpaceOnUse" gradientTransform="translate(198.041 424.035) rotate(27.8323) scale(270.95 160.766)">
<stop stop-color="#305EB2" stop-opacity="0.3"/>
<stop offset="0.102" stop-color="#3461B3" stop-opacity="0.2553"/>
<stop offset="0.1978" stop-color="#3F6AB8" stop-opacity="0.2133"/>
<stop offset="0.2913" stop-color="#5279BF" stop-opacity="0.1724"/>
<stop offset="0.3832" stop-color="#6D8DC9" stop-opacity="0.1321"/>
<stop offset="0.474" stop-color="#8FA8D5" stop-opacity="0.0923"/>
<stop offset="0.564" stop-color="#B9C9E5" stop-opacity="0.0529"/>
<stop offset="0.6518" stop-color="#EBEFF7" stop-opacity="0.0145"/>
<stop offset="0.6848" stop-color="white" stop-opacity="0"/>
</radialGradient>
<radialGradient id="paint7_radial_6_2779" cx="0" cy="0" r="1" gradientUnits="userSpaceOnUse" gradientTransform="translate(80.0389 363.027) rotate(27.8323) scale(270.95 160.766)">
<stop stop-color="#305EB2" stop-opacity="0.3"/>
<stop offset="0.102" stop-color="#3461B3" stop-opacity="0.2553"/>
<stop offset="0.1978" stop-color="#3F6AB8" stop-opacity="0.2133"/>
<stop offset="0.2913" stop-color="#5279BF" stop-opacity="0.1724"/>
<stop offset="0.3832" stop-color="#6D8DC9" stop-opacity="0.1321"/>
<stop offset="0.474" stop-color="#8FA8D5" stop-opacity="0.0923"/>
<stop offset="0.564" stop-color="#B9C9E5" stop-opacity="0.0529"/>
<stop offset="0.6518" stop-color="#EBEFF7" stop-opacity="0.0145"/>
<stop offset="0.6848" stop-color="white" stop-opacity="0"/>
</radialGradient>
<radialGradient id="paint8_radial_6_2779" cx="0" cy="0" r="1" gradientUnits="userSpaceOnUse" gradientTransform="translate(61.7299 373.763) rotate(27.8309) scale(262.826 76.2567)">
<stop stop-color="#305EB2" stop-opacity="0.3"/>
<stop offset="0.102" stop-color="#3461B3" stop-opacity="0.2553"/>
<stop offset="0.1978" stop-color="#3F6AB8" stop-opacity="0.2133"/>
<stop offset="0.2913" stop-color="#5279BF" stop-opacity="0.1724"/>
<stop offset="0.3832" stop-color="#6D8DC9" stop-opacity="0.1321"/>
<stop offset="0.474" stop-color="#8FA8D5" stop-opacity="0.0923"/>
<stop offset="0.564" stop-color="#B9C9E5" stop-opacity="0.0529"/>
<stop offset="0.6518" stop-color="#EBEFF7" stop-opacity="0.0145"/>
<stop offset="0.6848" stop-color="white" stop-opacity="0"/>
</radialGradient>
<radialGradient id="paint9_radial_6_2779" cx="0" cy="0" r="1" gradientUnits="userSpaceOnUse" gradientTransform="translate(642.963 82.8224) rotate(19.8338) scale(337.696 337.696)">
<stop offset="0.000785176" stop-color="#77A7FF"/>
<stop offset="0.9987" stop-color="#BDD4FF" stop-opacity="0"/>
</radialGradient>
<radialGradient id="paint10_radial_6_2779" cx="0" cy="0" r="1" gradientUnits="userSpaceOnUse" gradientTransform="translate(101.835 189.944) rotate(19.8338) scale(179.933 179.933)">
<stop offset="0.000785176" stop-color="#77A7FF"/>
<stop offset="0.9987" stop-color="#BDD4FF" stop-opacity="0"/>
</radialGradient>
<radialGradient id="paint11_radial_6_2779" cx="0" cy="0" r="1" gradientUnits="userSpaceOnUse" gradientTransform="translate(15.2468 364.609) scale(141.642 141.642)">
<stop stop-color="white"/>
<stop offset="1" stop-color="white" stop-opacity="0"/>
</radialGradient>
<radialGradient id="paint12_radial_6_2779" cx="0" cy="0" r="1" gradientUnits="userSpaceOnUse" gradientTransform="translate(31.6446 376.536) scale(141.642)">
<stop stop-color="white"/>
<stop offset="1" stop-color="white" stop-opacity="0"/>
</radialGradient>
<radialGradient id="paint13_radial_6_2779" cx="0" cy="0" r="1" gradientUnits="userSpaceOnUse" gradientTransform="translate(65.9333 257.27) scale(141.642)">
<stop stop-color="white"/>
<stop offset="1" stop-color="white" stop-opacity="0"/>
</radialGradient>
<radialGradient id="paint14_radial_6_2779" cx="0" cy="0" r="1" gradientUnits="userSpaceOnUse" gradientTransform="translate(441.126 144.463) scale(108.675 108.675)">
<stop stop-color="white"/>
<stop offset="1" stop-color="white" stop-opacity="0"/>
</radialGradient>
<radialGradient id="paint15_radial_6_2779" cx="0" cy="0" r="1" gradientUnits="userSpaceOnUse" gradientTransform="translate(452.531 198.493) scale(148.405)">
<stop stop-color="white"/>
<stop offset="1" stop-color="white" stop-opacity="0"/>
</radialGradient>
<linearGradient id="paint16_linear_6_2779" x1="228.761" y1="225.9" x2="250.741" y2="191.333" gradientUnits="userSpaceOnUse">
<stop stop-color="#77A7FF"/>
<stop offset="1" stop-color="#BDD4FF"/>
</linearGradient>
<linearGradient id="paint17_linear_6_2779" x1="264.137" y1="116.84" x2="240.381" y2="102.883" gradientUnits="userSpaceOnUse">
<stop stop-color="#77A7FF"/>
<stop offset="1" stop-color="#BDD4FF"/>
</linearGradient>
<linearGradient id="paint18_linear_6_2779" x1="376.398" y1="310.329" x2="396.882" y2="256.892" gradientUnits="userSpaceOnUse">
<stop stop-color="#77A7FF"/>
<stop offset="1" stop-color="#BDD4FF"/>
</linearGradient>
<linearGradient id="paint19_linear_6_2779" x1="449.285" y1="230.243" x2="438.447" y2="149.76" gradientUnits="userSpaceOnUse">
<stop stop-color="#77A7FF"/>
<stop offset="1" stop-color="#BDD4FF"/>
</linearGradient>
<linearGradient id="paint20_linear_6_2779" x1="147.665" y1="376.999" x2="162.077" y2="351.158" gradientUnits="userSpaceOnUse">
<stop stop-color="#77A7FF"/>
<stop offset="1" stop-color="#4687FF"/>
</linearGradient>
<linearGradient id="paint21_linear_6_2779" x1="107.254" y1="389.463" x2="67.9957" y2="403.378" gradientUnits="userSpaceOnUse">
<stop stop-color="#77A7FF" stop-opacity="0"/>
<stop offset="1" stop-color="#4687FF"/>
</linearGradient>
<linearGradient id="paint22_linear_6_2779" x1="25.3803" y1="375.173" x2="269.107" y2="375.173" gradientUnits="userSpaceOnUse">
<stop stop-color="#BDD4FF"/>
<stop offset="1" stop-color="#E7EFFF"/>
</linearGradient>
<linearGradient id="paint23_linear_6_2779" x1="131.821" y1="398.919" x2="143.343" y2="382.344" gradientUnits="userSpaceOnUse">
<stop stop-color="#BDD4FF"/>
<stop offset="1" stop-color="#E7EFFF"/>
</linearGradient>
<linearGradient id="paint24_linear_6_2779" x1="226.417" y1="124.949" x2="226.417" y2="380.25" gradientUnits="userSpaceOnUse">
<stop stop-color="#77A7FF"/>
<stop offset="1" stop-color="#BDD4FF"/>
</linearGradient>
<linearGradient id="paint25_linear_6_2779" x1="322.95" y1="479.395" x2="233.2" y2="322.536" gradientUnits="userSpaceOnUse">
<stop stop-color="#77A7FF"/>
<stop offset="1" stop-color="#BDD4FF" stop-opacity="0"/>
</linearGradient>
<radialGradient id="paint26_radial_6_2779" cx="0" cy="0" r="1" gradientUnits="userSpaceOnUse" gradientTransform="translate(186.232 332.536) scale(214.538 214.538)">
<stop stop-color="#BDD4FF"/>
<stop offset="1" stop-color="#E7EFFF" stop-opacity="0"/>
</radialGradient>
<linearGradient id="paint27_linear_6_2779" x1="281.752" y1="408.983" x2="297.985" y2="437.805" gradientUnits="userSpaceOnUse">
<stop stop-color="#BAD2FF" stop-opacity="0.0371"/>
<stop offset="0.0699" stop-color="#A4C4FF" stop-opacity="0.0919"/>
<stop offset="0.1594" stop-color="#90B7FF" stop-opacity="0.162"/>
<stop offset="0.2612" stop-color="#82AEFF" stop-opacity="0.2418"/>
<stop offset="0.3848" stop-color="#7AA9FF" stop-opacity="0.3387"/>
<stop offset="0.5906" stop-color="#77A7FF" stop-opacity="0.5"/>
<stop offset="0.7305" stop-color="#7AA9FF" stop-opacity="0.3291"/>
<stop offset="0.8151" stop-color="#82AEFF" stop-opacity="0.2257"/>
<stop offset="0.8851" stop-color="#90B7FF" stop-opacity="0.1403"/>
<stop offset="0.9466" stop-color="#A4C4FF" stop-opacity="0.0652"/>
<stop offset="1" stop-color="#BDD4FF" stop-opacity="0"/>
</linearGradient>
<radialGradient id="paint28_radial_6_2779" cx="0" cy="0" r="1" gradientUnits="userSpaceOnUse" gradientTransform="translate(265.208 446.605) scale(50.1937 50.1937)">
<stop stop-color="#BDD4FF"/>
<stop offset="1" stop-color="#E7EFFF" stop-opacity="0"/>
</radialGradient>
<radialGradient id="paint29_radial_6_2779" cx="0" cy="0" r="1" gradientUnits="userSpaceOnUse" gradientTransform="translate(250.502 434.963) rotate(58.4398) scale(11.4042 6.00008)">
<stop offset="0.5295" stop-color="#FFD4D8"/>
<stop offset="1" stop-color="#FB94A1"/>
</radialGradient>
<radialGradient id="paint30_radial_6_2779" cx="0" cy="0" r="1" gradientUnits="userSpaceOnUse" gradientTransform="translate(109.821 354.113) rotate(57.0441) scale(9.93908 6.14766)">
<stop offset="0.5295" stop-color="#9ED9B0"/>
<stop offset="1" stop-color="#78CB93"/>
</radialGradient>
<radialGradient id="paint31_radial_6_2779" cx="0" cy="0" r="1" gradientUnits="userSpaceOnUse" gradientTransform="translate(17.7316 274.166) scale(108.675 108.675)">
<stop stop-color="white"/>
<stop offset="1" stop-color="white" stop-opacity="0"/>
</radialGradient>
<radialGradient id="paint32_radial_6_2779" cx="0" cy="0" r="1" gradientUnits="userSpaceOnUse" gradientTransform="translate(288.697 212.69) scale(77.694 77.694)">
<stop stop-color="white"/>
<stop offset="1" stop-color="white" stop-opacity="0"/>
</radialGradient>
<radialGradient id="paint33_radial_6_2779" cx="0" cy="0" r="1" gradientUnits="userSpaceOnUse" gradientTransform="translate(484.056 335.06) scale(156.056)">
<stop stop-color="white"/>
<stop offset="1" stop-color="white" stop-opacity="0"/>
</radialGradient>
<linearGradient id="paint34_linear_6_2779" x1="221.998" y1="318" x2="225.998" y2="274" gradientUnits="userSpaceOnUse">
<stop stop-color="#E7EFFF"/>
<stop offset="1" stop-color="#BDD4FF"/>
</linearGradient>
<clipPath id="clip0_6_2779">
<rect width="555" height="555" fill="white"/>
</clipPath>
<clipPath id="clip1_6_2779">
<rect width="801.321" height="615.77" fill="white" transform="translate(-146)"/>
</clipPath>
</defs>
</svg>
