<?xml version="1.0" encoding="UTF-8" standalone="no"?>
<!-- Created with Inkscape (http://www.inkscape.org/) -->
<svg xmlns:a="http://ns.adobe.com/AdobeSVGViewerExtensions/3.0/" xmlns:dc="http://purl.org/dc/elements/1.1/" xmlns:cc="http://creativecommons.org/ns#" xmlns:rdf="http://www.w3.org/1999/02/22-rdf-syntax-ns#" xmlns:svg="http://www.w3.org/2000/svg" xmlns="http://www.w3.org/2000/svg" xmlns:xlink="http://www.w3.org/1999/xlink" xmlns:sodipodi="http://sodipodi.sourceforge.net/DTD/sodipodi-0.dtd" xmlns:inkscape="http://www.inkscape.org/namespaces/inkscape" id="svg2" version="1.1" inkscape:version="0.91 r13725" width="256" height="256" sodipodi:docname="folder.svg">
 <metadata id="metadata8">
  <rdf:RDF>
   <cc:Work>
    <dc:format>image/svg+xml</dc:format>
    <dc:type rdf:resource="http://purl.org/dc/dcmitype/StillImage"/>
    <dc:title/>
   </cc:Work>
  </rdf:RDF>
 </metadata>
 <defs id="defs6">
  <linearGradient id="linearGradient4806">
   <stop id="stop4808" stop-color="#398baf" stop-opacity="0.126"/>
   <stop id="stop4810" offset="1" stop-color="#ffffff" stop-opacity="1"/>
  </linearGradient>
  <linearGradient id="linearGradient4800">
   <stop id="stop4802" stop-color="#3b7d99" stop-opacity="0.445"/>
   <stop id="stop4804" offset="1" stop-color="#ffffff" stop-opacity="1"/>
  </linearGradient>
  <linearGradient id="linearGradient4794">
   <stop id="stop4796" stop-color="#45819b" stop-opacity="0.33"/>
   <stop id="stop4798" offset="1" stop-color="#ffffff" stop-opacity="1"/>
  </linearGradient>
  <linearGradient id="linearGradient3828">
   <stop id="stop3830" stop-color="#ffffff" stop-opacity="0.486"/>
   <stop id="stop3832" offset="1" stop-color="#286483" stop-opacity="0"/>
  </linearGradient>
  <linearGradient id="linearGradient3906">
   <stop id="stop3908" stop-color="#cedce2" stop-opacity="1"/>
   <stop offset="1" id="stop3910" stop-color="#cedce2" stop-opacity="0"/>
  </linearGradient>
  <linearGradient id="linearGradient3892">
   <stop id="stop3894" stop-color="#4b98ba" stop-opacity="0.132"/>
   <stop offset="1" id="stop3896" stop-color="#ffffff" stop-opacity="1"/>
  </linearGradient>
  <linearGradient id="linearGradient3878">
   <stop id="stop3880" stop-color="#cdeaf6" stop-opacity="0.915"/>
   <stop offset="1" id="stop3882" stop-color="#c5e1ed" stop-opacity="0"/>
  </linearGradient>
  <linearGradient id="linearGradient3867">
   <stop id="stop3869" stop-color="#99bbc9" stop-opacity="0.338"/>
   <stop offset="1" id="stop3871" stop-color="#174457" stop-opacity="0"/>
  </linearGradient>
  <linearGradient id="linearGradient3851">
   <stop id="stop3853" stop-color="#123e50" stop-opacity="0.683"/>
   <stop id="stop3861" offset="0.371" stop-color="#c6d7de" stop-opacity="0.749"/>
   <stop id="stop3859" offset="0.716" stop-color="#123e50" stop-opacity="0.782"/>
   <stop offset="1" id="stop3855" stop-color="#c3d4db" stop-opacity="0.099"/>
  </linearGradient>
  <linearGradient id="linearGradient3824">
   <stop id="stop3826" stop-color="#ffffff" stop-opacity="0.838"/>
   <stop id="stop3828" offset="1" stop-color="#70b5d4" stop-opacity="0"/>
  </linearGradient>
  <linearGradient id="linearGradient3815">
   <stop id="stop3817" stop-color="#9fcaff" stop-opacity="0.113"/>
   <stop id="stop3819" offset="1" stop-color="#668dbd" stop-opacity="0"/>
  </linearGradient>
  <linearGradient id="linearGradient3773">
   <stop id="stop3775" stop-color="#70b5d4" stop-opacity="0.838"/>
   <stop offset="1" id="stop3777" stop-color="#70b5d4" stop-opacity="0.275"/>
  </linearGradient>
  <linearGradient id="linearGradient3765">
   <stop id="stop3767" stop-color="#668dbd" stop-opacity="0.353"/>
   <stop offset="1" id="stop3769" stop-color="#668dbd" stop-opacity="0.094"/>
  </linearGradient>
  <linearGradient id="linearGradient3757">
   <stop id="stop3759" stop-color="#ffffff" stop-opacity="1"/>
   <stop offset="1" id="stop3761" stop-color="#286483" stop-opacity="0"/>
  </linearGradient>
  <linearGradient inkscape:collect="always" xlink:href="#linearGradient3867" id="linearGradient3873" x1="227.44" y1="56.22" x2="278.95" y2="54.15" gradientUnits="userSpaceOnUse" spreadMethod="reflect" gradientTransform="matrix(0.82699483,0,0,0.82699483,-169.83849,-1.9007072)"/>
  <linearGradient inkscape:collect="always" xlink:href="#linearGradient3878" id="linearGradient3884" x1="289.32" y1="-44.748" x2="264.02" y2="30.14" gradientUnits="userSpaceOnUse" gradientTransform="matrix(0.82310306,0.08013618,0,0.82699483,-170.30296,-15.751576)"/>
  <linearGradient inkscape:collect="always" xlink:href="#linearGradient4794" id="linearGradient3898" x1="364.85" y1="0.77" x2="361" y2="-6.63" gradientUnits="userSpaceOnUse" spreadMethod="reflect" gradientTransform="matrix(0.82699483,0,0,0.82699483,-170.30296,-15.751576)"/>
  <linearGradient inkscape:collect="always" xlink:href="#linearGradient4806" id="linearGradient3902" gradientUnits="userSpaceOnUse" spreadMethod="reflect" x1="356.22" y1="-8.398" x2="361.38" y2="-4.093" gradientTransform="matrix(0.82699483,0,0,-0.82699483,-170.51474,161.48411)"/>
  <linearGradient inkscape:collect="always" xlink:href="#linearGradient3906" id="linearGradient3912" x1="317.98" y1="-13.08" x2="359.28" y2="-16.12" gradientUnits="userSpaceOnUse" spreadMethod="reflect" gradientTransform="matrix(0.82699483,0,0,0.82699483,-170.30296,-15.751576)"/>
  <linearGradient inkscape:collect="always" xlink:href="#linearGradient3906" id="linearGradient3916" gradientUnits="userSpaceOnUse" spreadMethod="reflect" x1="317.98" y1="-13.08" x2="359.28" y2="-16.12" gradientTransform="matrix(0.82699483,0,0,0.82699483,-170.30296,173.55271)"/>
  <linearGradient inkscape:collect="always" xlink:href="#linearGradient3828" id="linearGradient3858" gradientUnits="userSpaceOnUse" gradientTransform="translate(-69.456067,-43.096235)" spreadMethod="reflect" x1="61.93" y1="10.421" x2="63.37" y2="6.578"/>
  <linearGradient inkscape:collect="always" xlink:href="#linearGradient3892" id="linearGradient3121" gradientUnits="userSpaceOnUse" gradientTransform="matrix(0.82699483,0,0,-0.82699483,-170.51474,161.48411)" spreadMethod="reflect" x1="359.71" y1="-9.786" x2="361.38" y2="-4.093"/>
  <linearGradient inkscape:collect="always" xlink:href="#linearGradient3867" id="linearGradient3123" gradientUnits="userSpaceOnUse" gradientTransform="matrix(0.82699483,0,0,0.82699483,-169.68288,-1.1114612)" spreadMethod="reflect" x1="227.44" y1="56.22" x2="278.95" y2="54.15"/>
  <linearGradient inkscape:collect="always" xlink:href="#linearGradient4800" id="linearGradient3127" gradientUnits="userSpaceOnUse" gradientTransform="matrix(0.82699483,0,0,0.82699483,-170.30296,-15.751576)" spreadMethod="reflect" x1="364.04" y1="0.636" x2="360.19" y2="-5.81"/>
  <linearGradient inkscape:collect="always" xlink:href="#linearGradient3906" id="linearGradient3129" gradientUnits="userSpaceOnUse" gradientTransform="matrix(0.82699483,0,0,0.82699483,-170.30296,-15.751576)" spreadMethod="reflect" x1="290.73" y1="-13.14" x2="330.8" y2="-13.995"/>
  <linearGradient id="linearGradient3578">
   <stop id="stop3580" stop-color="#000000" stop-opacity="1"/>
   <stop offset="1" id="stop3582" stop-color="#fffcfc" stop-opacity="1"/>
  </linearGradient>
  <linearGradient gradientTransform="matrix(2.161916,0,0,2.599807,-140.2925,-51.89728)" id="XMLID_26_" gradientUnits="userSpaceOnUse" x1="76.24" y1="31.681" x2="76.24" y2="40.478">
   <stop offset="8.04598%" id="stop191" stop-color="rgb(255,255,255)"/>
   <stop offset="100%" id="stop193" stop-color="rgb(255,255,255)" stop-opacity="0"/>
  </linearGradient>
  <radialGradient gradientTransform="matrix(2.161916,0,0,2.599807,-139.8969,-51.106)" id="XMLID_25_" cx="76.51" cy="49.45" r="14.862" fx="76.51" fy="49.45" gradientUnits="userSpaceOnUse">
   <stop id="stop184" stop-color="rgb(187,235,255)"/>
   <stop offset="1" id="stop186" stop-color="#7b7b7d" stop-opacity="1"/>
   <a:midPointStop offset="0" stop-color="#BBEBFF"/>
   <a:midPointStop offset="0.5" stop-color="#BBEBFF"/>
   <a:midPointStop offset="1" stop-color="#003DD7"/>
  </radialGradient>
  <linearGradient id="linearGradient2772" inkscape:collect="always">
   <stop id="stop2774" stop-color="#fff9f9" stop-opacity="0"/>
   <stop id="stop2776" offset="1" stop-color="white" stop-opacity="1"/>
  </linearGradient>
  <linearGradient id="linearGradient2781" inkscape:collect="always">
   <stop id="stop2783" stop-color="#070707" stop-opacity="1"/>
   <stop id="stop2785" offset="1" stop-color="white" stop-opacity="1"/>
  </linearGradient>
  <radialGradient gradientUnits="userSpaceOnUse" fy="49.45" fx="76.51" r="14.862" cy="49.45" cx="76.51" id="radialGradient3407" gradientTransform="matrix(2.161916,0,0,2.599807,-139.8969,-51.106)">
   <stop id="stop3409" stop-color="#55b6de" stop-opacity="1"/>
   <stop id="stop3411" offset="1" stop-color="#000007" stop-opacity="1"/>
   <a:midPointStop offset="0" stop-color="#BBEBFF"/>
   <a:midPointStop offset="0.5" stop-color="#BBEBFF"/>
   <a:midPointStop offset="1" stop-color="#003DD7"/>
  </radialGradient>
  <linearGradient id="linearGradient3433" inkscape:collect="always">
   <stop id="stop3435" stop-color="#d4b709" stop-opacity="1"/>
   <stop id="stop3437" offset="1" stop-color="white" stop-opacity="1"/>
  </linearGradient>
  <linearGradient id="linearGradient3443" inkscape:collect="always">
   <stop id="stop3445" stop-color="#ccc" stop-opacity="1"/>
   <stop id="stop3447" offset="1" stop-color="#ccc" stop-opacity="0"/>
  </linearGradient>
  <linearGradient id="linearGradient3457" inkscape:collect="always">
   <stop id="stop3459" stop-color="#fe0" stop-opacity="1"/>
   <stop id="stop3461" offset="1" stop-color="#ffe500" stop-opacity="0.704"/>
  </linearGradient>
  <linearGradient inkscape:collect="always" id="linearGradient3469">
   <stop id="stop3471" stop-color="#fbfbfb" stop-opacity="1"/>
   <stop offset="1" id="stop3473" stop-color="white" stop-opacity="0"/>
  </linearGradient>
  <linearGradient id="linearGradient2924">
   <stop id="stop2926" stop-color="#205274" stop-opacity="0.754"/>
   <stop offset="1" id="stop2928" stop-color="#ffffff" stop-opacity="0.458"/>
  </linearGradient>
  <linearGradient inkscape:collect="always" xlink:href="#linearGradient3578" id="linearGradient4078" gradientUnits="userSpaceOnUse" spreadMethod="reflect" x1="13.515" y1="-7.475" x2="16.09" y2="-7.475"/>
  <linearGradient inkscape:collect="always" xlink:href="#linearGradient3578" id="linearGradient4088" gradientUnits="userSpaceOnUse" spreadMethod="reflect" x1="16.691" y1="-10.978" x2="16.09" y2="-7.475"/>
  <linearGradient inkscape:collect="always" xlink:href="#linearGradient3578" id="linearGradient4100" gradientUnits="userSpaceOnUse" spreadMethod="reflect" x1="12.04" y1="-11.587" x2="8.696" y2="-2.688"/>
  <linearGradient inkscape:collect="always" xlink:href="#linearGradient3578" id="linearGradient4102" gradientUnits="userSpaceOnUse" spreadMethod="reflect" x1="10.621" y1="-6.409" x2="16.09" y2="-7.475"/>
  <linearGradient inkscape:collect="always" xlink:href="#linearGradient3578" id="linearGradient4104" gradientUnits="userSpaceOnUse" spreadMethod="reflect" x1="15.65" y1="-2.21" x2="16.09" y2="-7.475"/>
  <linearGradient inkscape:collect="always" xlink:href="#linearGradient3578" id="linearGradient4108" gradientUnits="userSpaceOnUse" spreadMethod="reflect" x1="16.387" y1="-11.391" x2="11.132" y2="-11.199"/>
  <linearGradient inkscape:collect="always" xlink:href="#linearGradient3578" id="linearGradient4128" gradientUnits="userSpaceOnUse" spreadMethod="reflect" x1="13.515" y1="-7.475" x2="17.07" y2="-8.02"/>
  <linearGradient inkscape:collect="always" xlink:href="#linearGradient3578" id="linearGradient4132" gradientUnits="userSpaceOnUse" spreadMethod="reflect" x1="16.387" y1="-5.908" x2="17.747" y2="-6.953"/>
  <linearGradient inkscape:collect="always" xlink:href="#linearGradient3578" id="linearGradient4134" gradientUnits="userSpaceOnUse" spreadMethod="reflect" x1="12.906" y1="-10.151" x2="11.372" y2="-5.778"/>
  <linearGradient inkscape:collect="always" xlink:href="#linearGradient3578" id="linearGradient4140" gradientUnits="userSpaceOnUse" spreadMethod="reflect" x1="16.909" y1="-5.212" x2="18.617" y2="-6.583"/>
  <linearGradient inkscape:collect="always" xlink:href="#linearGradient3578" id="linearGradient4142" gradientUnits="userSpaceOnUse" spreadMethod="reflect" x1="15.582" y1="-6.256" x2="17.377" y2="-1.992"/>
  <linearGradient inkscape:collect="always" xlink:href="#linearGradient3578" id="linearGradient4144" gradientUnits="userSpaceOnUse" spreadMethod="reflect" x1="17.08" y1="-2.275" x2="14.94" y2="-3.733"/>
  <linearGradient inkscape:collect="always" xlink:href="#linearGradient3578" id="linearGradient4146" gradientUnits="userSpaceOnUse" spreadMethod="reflect" x1="7.771" y1="-3.754" x2="12.916" y2="-4.516"/>
  <linearGradient inkscape:collect="always" xlink:href="#linearGradient3578" id="linearGradient4148" gradientUnits="userSpaceOnUse" spreadMethod="reflect" x1="11.187" y1="-5.887" x2="9.718" y2="-1.513"/>
  <radialGradient inkscape:collect="always" xlink:href="#linearGradient2924" id="radialGradient4205" gradientUnits="userSpaceOnUse" gradientTransform="matrix(1.558736,-1.507644,1.410521,1.458317,-665.6569,134.82678)" cx="125.41" cy="208.25" fx="125.41" fy="208.25" r="61.24"/>
  <linearGradient inkscape:collect="always" xlink:href="#linearGradient2772" id="linearGradient4207" gradientUnits="userSpaceOnUse" x1="-105.11" y1="57.59" x2="-105.24" y2="11.419"/>
  <linearGradient inkscape:collect="always" xlink:href="#linearGradient2781" id="linearGradient4209" gradientUnits="userSpaceOnUse" gradientTransform="matrix(1.090348,0,0,0.939351,-213.40231,41.206363)" x1="13.847" y1="56.14" x2="13.847" y2="25.797"/>
  <linearGradient inkscape:collect="always" xlink:href="#linearGradient2781" id="linearGradient4211" gradientUnits="userSpaceOnUse" gradientTransform="matrix(1.090348,0,0,0.939351,-169.4025,41.206363)" x1="13.847" y1="56.14" x2="13.847" y2="25.797"/>
  <radialGradient inkscape:collect="always" xlink:href="#XMLID_25_" id="radialGradient4213" gradientUnits="userSpaceOnUse" gradientTransform="matrix(2.161916,0,0,2.599807,-139.8969,-51.106)" cx="76.51" cy="49.45" fx="76.51" fy="49.45" r="14.862"/>
  <linearGradient inkscape:collect="always" xlink:href="#XMLID_26_" id="linearGradient4215" gradientUnits="userSpaceOnUse" gradientTransform="matrix(2.161916,0,0,2.599807,-140.2925,-51.89728)" x1="76.24" y1="31.681" x2="76.24" y2="40.478"/>
  <radialGradient inkscape:collect="always" xlink:href="#radialGradient3407" id="radialGradient4221" gradientUnits="userSpaceOnUse" gradientTransform="matrix(1.963426,0,0,2.103548,-129.1163,-42.92169)" cx="76.51" cy="49.45" fx="76.51" fy="49.45" r="14.862"/>
  <linearGradient inkscape:collect="always" xlink:href="#XMLID_26_" id="linearGradient4223" gradientUnits="userSpaceOnUse" gradientTransform="matrix(1.963426,0,0,2.103548,-129.4756,-43.56193)" x1="76.24" y1="31.681" x2="76.24" y2="40.478"/>
  <linearGradient inkscape:collect="always" xlink:href="#linearGradient3433" id="linearGradient4229" gradientUnits="userSpaceOnUse" gradientTransform="matrix(1.278608,0,0,1.168104,-199.4362,88.807543)" spreadMethod="reflect" x1="19" y1="51.597" x2="18.321" y2="37.86"/>
  <linearGradient inkscape:collect="always" xlink:href="#linearGradient3443" id="linearGradient4231" gradientUnits="userSpaceOnUse" gradientTransform="matrix(1.4443,0,0,1.4443,-306.01745,26.646488)" x1="19.72" y1="85.88" x2="35.527" y2="101.77"/>
  <linearGradient inkscape:collect="always" xlink:href="#linearGradient3443" id="linearGradient4233" gradientUnits="userSpaceOnUse" gradientTransform="matrix(-1.4443,0,0,1.4443,-49.728,22.666849)" x1="26.28" y1="92.44" x2="37.17" y2="105.87"/>
  <radialGradient inkscape:collect="always" xlink:href="#linearGradient3457" id="radialGradient4235" gradientUnits="userSpaceOnUse" gradientTransform="matrix(1.35967,0.04258373,-0.0221486,0.836371,-293.40754,120.6194)" cx="57.5" cy="155.54" fx="57.5" fy="155.54" r="27.28"/>
  <radialGradient inkscape:collect="always" xlink:href="#linearGradient3457" id="radialGradient4237" gradientUnits="userSpaceOnUse" gradientTransform="matrix(1.12625,0.03243496,-0.01834626,0.637043,-13.7054,82.04116)" cx="57.5" cy="155.54" fx="57.5" fy="155.54" r="27.28"/>
  <radialGradient inkscape:collect="always" xlink:href="#linearGradient3469" id="radialGradient4239" gradientUnits="userSpaceOnUse" gradientTransform="matrix(-0.802063,-0.03353687,0.01592426,-0.683438,87.92479,281.8071)" cx="56.54" cy="151.19" fx="56.54" fy="151.19" r="27.28"/>
  <radialGradient inkscape:collect="always" xlink:href="#linearGradient3457" id="radialGradient4241" gradientUnits="userSpaceOnUse" gradientTransform="matrix(-1.35967,0.04136602,0.0221486,0.812455,-56.2952,125.32621)" cx="57.5" cy="155.54" fx="57.5" fy="155.54" r="27.28"/>
  <radialGradient inkscape:collect="always" xlink:href="#linearGradient3469" id="radialGradient4263" gradientUnits="userSpaceOnUse" gradientTransform="matrix(0.968294,-0.04277135,-0.01922463,-0.871625,-178.9887,380.09838)" cx="56.54" cy="151.19" fx="56.54" fy="151.19" r="27.28"/>
  <radialGradient inkscape:collect="always" xlink:href="#linearGradient3469" id="radialGradient4265" gradientUnits="userSpaceOnUse" gradientTransform="matrix(-0.968294,-0.04403042,0.01922463,-0.897283,-170.7141,382.89128)" cx="56.54" cy="151.19" fx="56.54" fy="151.19" r="27.28"/>
  <linearGradient inkscape:collect="always" xlink:href="#linearGradient3433" id="linearGradient4267" gradientUnits="userSpaceOnUse" gradientTransform="matrix(1.278608,0,0,1.168104,-199.4362,88.807543)" spreadMethod="reflect" x1="12.985" y1="40.449" x2="35.681" y2="28.739"/>
  <linearGradient inkscape:collect="always" xlink:href="#linearGradient3757" id="linearGradient3662" gradientUnits="userSpaceOnUse" gradientTransform="matrix(0.82699483,0,0,-0.82699483,-106.37695,393.98956)" spreadMethod="reflect" x1="229.62" y1="253.18" x2="266.18" y2="254.22"/>
  <linearGradient inkscape:collect="always" xlink:href="#linearGradient3757" id="linearGradient3664" gradientUnits="userSpaceOnUse" gradientTransform="matrix(-0.82002201,-0.10716502,0.10716502,-0.82002201,367.07244,422.46474)" spreadMethod="reflect" x1="226.48" y1="251.92" x2="249.45" y2="252.55"/>
  <linearGradient inkscape:collect="always" xlink:href="#linearGradient3765" id="linearGradient3666" gradientUnits="userSpaceOnUse" x1="17.757" y1="183.53" x2="17.757" y2="256.25"/>
  <linearGradient inkscape:collect="always" xlink:href="#linearGradient3773" id="linearGradient3668" gradientUnits="userSpaceOnUse" x1="66.09" y1="264.77" x2="67.09" y2="173.91"/>
  <linearGradient inkscape:collect="always" xlink:href="#linearGradient3851" id="linearGradient3670" gradientUnits="userSpaceOnUse" gradientTransform="matrix(0.82699483,0,0,0.82699483,-100.84689,27.344659)" spreadMethod="reflect" x1="218.43" y1="236.06" x2="354.07" y2="234.6"/>
  <linearGradient inkscape:collect="always" xlink:href="#linearGradient3757" id="linearGradient3674" gradientUnits="userSpaceOnUse" gradientTransform="matrix(0.82699483,0,0,0.60822815,-100.84689,80.374138)" spreadMethod="reflect" x1="226.48" y1="251.92" x2="249.45" y2="252.55"/>
  <linearGradient inkscape:collect="always" xlink:href="#linearGradient3757" id="linearGradient3676" gradientUnits="userSpaceOnUse" gradientTransform="matrix(-0.82699483,0,0,0.6334491,365.06232,74.617591)" spreadMethod="reflect" x1="229.62" y1="253.18" x2="266.18" y2="254.22"/>
  <radialGradient inkscape:collect="always" xlink:href="#linearGradient3815" id="radialGradient3678" gradientUnits="userSpaceOnUse" gradientTransform="matrix(1,0,0,0.28322862,0,157.8256)" spreadMethod="reflect" cx="-39.669" cy="149.73" fx="-39.669" fy="149.73" r="126.76"/>
  <linearGradient inkscape:collect="always" xlink:href="#linearGradient3824" id="linearGradient3682" gradientUnits="userSpaceOnUse" gradientTransform="matrix(0.82699483,0,0,0.862037,114.19173,14.733697)" spreadMethod="reflect" x1="66.09" y1="264.77" x2="144.1" y2="234.13"/>
 </defs>
 <sodipodi:namedview pagecolor="#ffffff" bordercolor="#666666" borderopacity="1" objecttolerance="10" gridtolerance="10" guidetolerance="10" inkscape:pageopacity="0" inkscape:pageshadow="2" inkscape:window-width="1920" inkscape:window-height="1057" id="namedview4" showgrid="false" inkscape:zoom="3.3984375" inkscape:cx="128" inkscape:cy="128" inkscape:window-x="-2" inkscape:window-y="-5" inkscape:window-maximized="1" inkscape:current-layer="svg2"/>
 <g id="g3846" transform="matrix(1.0183153,0.03112447,-0.03112447,1.0183153,-7.2201779,-7.4318568)">
  <path sodipodi:nodetypes="ccccc" inkscape:connector-curvature="0" id="path3807" d="m 54.736434,189.87309 c 11.34321,-2.98591 45.458516,-11.09467 58.887356,-9.85865 l -0.88646,-4.41695 c -12.71639,0.16462 -45.30945,4.76633 -58.433689,9.79607 z" opacity="0.6" fill="url(#linearGradient3662)" stroke="none" fill-opacity="1"/>
  <path d="m 225.18456,193.8499 c -10.99552,-4.57681 -21.97894,-7.51195 -35.15989,-9.58669 l 1.51764,-4.32005 c 13.50116,1.50274 24.01737,6.30605 34.7842,10.30907 z" id="path3803" inkscape:connector-curvature="0" sodipodi:nodetypes="ccccc" fill="url(#linearGradient3664)" stroke="none" fill-opacity="1"/>
  <path sodipodi:nodetypes="ccccc" inkscape:connector-curvature="0" id="path3781" d="m 29.95332,202.76883 0.295954,6.78299 c 17.429155,-41.66727 194.671716,-41.85651 208.155156,0 l -0.29595,-6.50171 C 231.10287,165.65974 39.311097,165.15265 29.95332,202.76883 z" fill="#7b97c2" stroke="none" fill-opacity="0.332"/>
  <path transform="matrix(0.82699483,0,0,0.862037,115.18046,19.830364)" d="M 150.34451,220.18959 A 125.78035,34.922543 0 0 1 24.564161,255.11213 125.78035,34.922543 0 0 1 -101.21619,220.18959 125.78035,34.922543 0 0 1 24.564161,185.26705 125.78035,34.922543 0 0 1 150.34451,220.18959 Z" sodipodi:ry="34.922543" sodipodi:rx="125.78035" sodipodi:cy="220.18959" sodipodi:cx="24.564161" id="path3755" sodipodi:type="arc" stroke-opacity="0.427" stroke-dasharray="none" fill="url(#linearGradient3666)" stroke="url(#linearGradient3668)" fill-opacity="1" stroke-width="1.959" stroke-miterlimit="4"/>
  <path d="m 29.982648,213.06881 0.06684,-8.22029 c 13.101763,40.12356 195.926662,39.62893 207.496412,1.43728 l 0.59191,6.50172 C 231.1322,250.1779 39.340425,250.68498 29.982648,213.06881 z" id="path3783" inkscape:connector-curvature="0" sodipodi:nodetypes="ccccc" fill="url(#linearGradient3670)" stroke="none" fill-opacity="1"/>
  <path sodipodi:type="arc" id="path3785" sodipodi:cx="24.564161" sodipodi:cy="220.18959" sodipodi:rx="125.78035" sodipodi:ry="34.922543" d="M 150.34451,220.18959 A 125.78035,34.922543 0 0 1 24.564161,255.11213 125.78035,34.922543 0 0 1 -101.21619,220.18959 125.78035,34.922543 0 0 1 24.564161,185.26705 125.78035,34.922543 0 0 1 150.34451,220.18959 Z" transform="matrix(0.82699483,0,0,0.88958816,114.51701,13.92547)" stroke-opacity="0.427" stroke-dasharray="none" fill="none" stroke="url(#linearGradient3668)" stroke-width="1.959" stroke-miterlimit="4"/>
  <path sodipodi:nodetypes="ccccc" inkscape:connector-curvature="0" id="path3789" d="m 68.008438,227.80985 c 11.495889,2.2898 23.526195,5.87838 36.864872,6.13522 l -0.34601,4.77863 c -13.505206,-0.50428 -25.079598,-2.40682 -35.68238,-5.02282 z" fill="url(#linearGradient3674)" stroke="none" fill-opacity="1"/>
  <path d="m 203.81933,227.63684 c -11.34321,2.11718 -44.49242,8.05513 -57.98607,6.59676 l -0.14445,5.49147 c 12.95907,0.45089 46.3116,-4.40142 58.37491,-7.44429 z" id="path3799" inkscape:connector-curvature="0" sodipodi:nodetypes="ccccc" fill="url(#linearGradient3676)" stroke="none" fill-opacity="1"/>
  <path sodipodi:type="arc" id="path3811" sodipodi:cx="24.564161" sodipodi:cy="220.18959" sodipodi:rx="125.78035" sodipodi:ry="34.922543" d="M 150.34451,220.18959 A 125.78035,34.922543 0 0 1 24.564161,255.11213 125.78035,34.922543 0 0 1 -101.21619,220.18959 125.78035,34.922543 0 0 1 24.564161,185.26705 125.78035,34.922543 0 0 1 150.34451,220.18959 Z" transform="matrix(0.82699483,0,0,0.862037,114.12171,14.436903)" stroke-opacity="0.427" stroke-dasharray="none" fill="url(#radialGradient3678)" stroke="url(#linearGradient3668)" fill-opacity="1" stroke-width="1.959" stroke-miterlimit="4"/>
  <path sodipodi:nodetypes="csc" inkscape:connector-curvature="0" id="path3821" d="m 238.52586,204.54527 c 0,16.62627 -46.5712,30.10452 -104.0197,30.10452 -57.448495,0 -104.019702,-13.47825 -104.019702,-30.10452" stroke-opacity="0.427" stroke-dasharray="none" fill="none" stroke="url(#linearGradient3682)" stroke-width="0.827" stroke-miterlimit="4"/>
 </g>
 <g id="g3834" transform="matrix(1.164241,0,0,1.0187909,44.699334,44.296741)">
  <path sodipodi:nodetypes="ccccc" inkscape:connector-curvature="0" id="path3818" d="m -10.608435,-28.051268 2.6421394,-1.321069 c 0.54708,-2.31697 2.2015587,-4.950025 6.7254437,-6.32512 -3.306454,0.186674 -5.2210137,1.437738 -6.7254437,3.00243 -1.981169,1.479141 -2.3319794,3.06018 -2.6421394,4.643759 z" fill="url(#linearGradient3858)" stroke="none" fill-opacity="1"/>
  <path d="m -4.6652759,154.85567 3.312751,-1.37079 128.1692849,12.33714 -4.45508,1.14235 z" id="path3914" inkscape:connector-curvature="0" opacity="0.771" fill="url(#linearGradient3916)" stroke="none" fill-opacity="1"/>
  <path d="m 121.14666,164.85689 c 3.22056,1.30219 8.55409,-0.68698 8.95307,-3.86723 l 2.98842,-2.02904 c 0.4323,6.51398 -6.90258,8.945 -11.3967,6.84361 z" id="path3900" inkscape:connector-curvature="0" sodipodi:nodetypes="ccccc" fill="url(#linearGradient3902)" stroke="none" fill-opacity="1"/>
  <rect transform="matrix(0.99529408,0.09690046,0,1,0,0)" ry="7.847" y="-36.518" x="-10.624" height="189.54" width="141.62" id="rect3863" opacity="0.6" stroke-dasharray="none" stroke-opacity="0.427" fill="#123e50" stroke="#b6ccd6" fill-opacity="0.473" stroke-width="1.658" stroke-miterlimit="4" rx="7.847"/>
  <path d="m -10.438287,-28.064586 3.8367514,-1.918377 -1.278914,173.932763 -3.1972864,2.77098 z" id="path3888" inkscape:connector-curvature="0" sodipodi:nodetypes="ccccc" fill="#4590af" stroke="none" fill-opacity="0.33"/>
  <rect id="rect3865" width="141.62" height="189.54" x="-10.03" y="-36.19" ry="7.847" transform="matrix(0.99529408,0.09690046,0,1,0,0)" opacity="0.6" stroke-dasharray="none" stroke-opacity="0.427" fill="url(#linearGradient3873)" stroke="#b6ccd6" fill-opacity="1" stroke-width="1.658" stroke-miterlimit="4" rx="7.847"/>
  <path sodipodi:nodetypes="sssccss" inkscape:connector-curvature="0" id="rect3875" d="M -3.4318059,-33.792685 121.89858,-21.590691 c 4.327,0.42127 7.81046,4.260354 7.81046,8.607811 l 0,90.848605 C 54.589503,-16.357873 19.503097,-2.6350023 -11.242272,22.793157 l 0,-49.498863 c 0,-4.347457 3.4834714,-7.508249 7.8104661,-7.086979 z" opacity="0.6" fill="url(#linearGradient3884)" stroke="none" fill-opacity="1"/>
  <path sodipodi:nodetypes="ccccc" inkscape:connector-curvature="0" id="path3886" d="m 130.02946,-14.635954 3.83676,-1.918377 -0.63946,175.424831 -3.19729,2.13152 z" fill="#3b7a94" stroke="none" fill-opacity="0.374"/>
  <path sodipodi:nodetypes="ccccc" inkscape:connector-curvature="0" id="path3890" d="m 122.14281,-21.67 c 3.22057,-1.302188 7.50991,3.846574 7.90889,7.026833 l 3.60704,-1.800998 c -0.28018,-2.408813 -2.44367,-6.621523 -6.82657,-7.144211 z" fill="url(#linearGradient3898)" stroke="none" fill-opacity="1"/>
  <path inkscape:connector-curvature="0" id="path3904" d="m -4.6652759,-34.448618 3.312751,-1.370794 128.1692849,12.33715 -4.45508,1.142328 z" fill="url(#linearGradient3912)" stroke="none" fill-opacity="1"/>
 </g>
 <g id="g4152" transform="matrix(0.16374124,0.02429866,0,0.18022617,199.59873,25.536568)">
  <path id="path1894" d="m -176.85795,43.343683 c -35.42035,0 -64.125,28.735902 -64.125,64.156247 0,8.11021 1.46947,15.88576 4.21875,23.03125 -5.378,6.69408 -9.63289,14.27871 -12.5,22.5 -6.00732,9.02925 -14.3477,14.57886 -23.28125,19.21875 -6.25226,3.87943 -9.62116,10.62216 -12.9375,17.4375 0.42686,3.61019 -2.09229,8.22621 6.75,9.03125 6.67963,-11.29704 16.16208,-12.85077 25.625,-14.40625 3.48336,38.95727 36.93878,69.56252 77.65625,69.5625 42.09349,0 76.45746,-32.70006 77.9375,-73.53125 8.39851,1.48801 16.55101,3.7824 22.5,13.84375 8.84229,-0.80504 6.32313,-5.38982 6.75,-9 -3.31635,-6.81535 -6.68524,-13.55807 -12.9375,-17.4375 -7.81058,-4.05665 -15.167,-8.8051 -20.90625,-15.96875 -3.21733,-8.70744 -7.97852,-16.68135 -14,-23.59375 2.20775,-6.48616 3.4375,-13.45752 3.4375,-20.6875 0,-35.420348 -28.76715,-64.15625 -64.1875,-64.156247 z" inkscape:connector-curvature="0" stroke-opacity="0.668" stroke-dasharray="none" fill="#188cb4" fill-rule="evenodd" stroke="#2780c7" stroke-linejoin="miter" fill-opacity="0.618" stroke-linecap="butt" stroke-width="1.444" stroke-miterlimit="4"/>
  <path sodipodi:nodetypes="csssc" id="path1882" d="m -115.1901,196.74356 c 0,37.63308 -26.61283,55.82347 -60.5744,55.82347 -33.96157,0 -61.90334,-23.33322 -61.90334,-60.96631 0,-37.63307 27.56302,-68.17587 61.52458,-68.17587 33.96156,0 60.95316,35.68563 60.95316,73.31871 z" inkscape:connector-curvature="0" opacity="0.89" stroke-opacity="0.668" stroke-dasharray="none" fill="url(#radialGradient4205)" stroke="#2780c7" stroke-linejoin="round" fill-opacity="1" stroke-linecap="round" stroke-width="0.6" stroke-dashoffset="0" stroke-miterlimit="4"/>
  <path transform="matrix(1.4443,0,0,1.4443,-17.4476,24.932211)" d="m -75.5676,44.653343 a 35.409946,30.266603 0 0 1 -35.40995,30.266604 35.409946,30.266603 0 0 1 -35.40994,-30.266604 35.409946,30.266603 0 0 1 35.40994,-30.266603 35.409946,30.266603 0 0 1 35.40995,30.266603 z" sodipodi:ry="30.266603" sodipodi:rx="35.409946" sodipodi:cy="44.653343" sodipodi:cx="-110.97755" id="path1885" sodipodi:type="arc" opacity="0.89" fill="url(#linearGradient4207)" stroke="none" fill-opacity="1"/>
  <path sodipodi:nodetypes="ccc" id="path1893" d="m -225.30729,92.456617 c 0.44587,-28.302741 46.97764,-35.457034 49.43571,0.543515 -16.30619,-28.314256 -37.69944,-21.744499 -49.43571,-0.543515 z" inkscape:connector-curvature="0" stroke-opacity="0.635" stroke-dasharray="none" fill="url(#linearGradient4209)" fill-rule="evenodd" stroke="#1f829f" stroke-linejoin="miter" fill-opacity="1" stroke-linecap="butt" stroke-width="2.024" stroke-miterlimit="4"/>
  <path d="m -176.73612,91.885191 c 1.72128,-20.965525 40.437,-25.039439 44.8643,1.114941 -16.30619,-17.050283 -30.84233,-17.129897 -44.8643,-1.114941 z" id="path2789" sodipodi:nodetypes="ccc" inkscape:connector-curvature="0" stroke-opacity="0.639" stroke-dasharray="none" fill="url(#linearGradient4211)" fill-rule="evenodd" stroke="#307ba5" stroke-linejoin="miter" fill-opacity="1" stroke-linecap="butt" stroke-width="2.024" stroke-miterlimit="4"/>
  <g transform="matrix(1.4443,0,0,1.4443,-236.87495,26.646488)" id="g3373">
   <path id="path188" d="m 42.162393,53.952203 c 0,11.44955 -7.715878,20.725661 -17.236956,20.725661 -9.51243,0 -17.2369556,-9.276111 -17.2369556,-20.725661 0,-11.44695 7.7223636,-20.728261 17.2369556,-20.728261 9.521078,0.0026 17.236956,9.281311 17.236956,20.728261 z" inkscape:connector-curvature="0" opacity="0.446" fill="url(#radialGradient4213)"/>
   <path id="path195" d="m 37.252671,45.964653 c 0,6.788096 -5.696649,12.291888 -12.722876,12.291888 -7.021903,0 -12.71639,-5.503792 -12.71639,-12.291888 0,-6.793296 5.694487,-12.299687 12.71639,-12.299687 7.026227,0 12.722876,5.506391 12.722876,12.299687 z" a:adobe-blending-mode="screen" inkscape:connector-curvature="0" fill="url(#linearGradient4215)"/>
  </g>
  <g id="g3381" transform="matrix(1.311696,0,0,1.168608,-187.2842,42.663173)">
   <path d="m 42.162393,53.952203 c 0,11.44955 -7.715878,20.725661 -17.236956,20.725661 -9.51243,0 -17.2369556,-9.276111 -17.2369556,-20.725661 0,-11.44695 7.7223636,-20.728261 17.2369556,-20.728261 9.521078,0.0026 17.236956,9.281311 17.236956,20.728261 z" id="path3383" inkscape:connector-curvature="0" opacity="0.483" fill="url(#radialGradient4213)"/>
   <path a:adobe-blending-mode="screen" d="m 37.252671,45.964653 c 0,6.788096 -5.696649,12.291888 -12.722876,12.291888 -7.021903,0 -12.71639,-5.503792 -12.71639,-12.291888 0,-6.793296 5.694487,-12.299687 12.71639,-12.299687 7.026227,0 12.722876,5.506391 12.722876,12.299687 z" id="path3385" inkscape:connector-curvature="0" fill="url(#linearGradient4215)"/>
  </g>
  <g transform="matrix(0.549987,0,0,0.592471,-197.6189,80.778493)" id="g3413">
   <path id="path3393" d="m 36.227789,42.082685 c 0,9.264025 -7.007467,16.769484 -15.654396,16.769484 -8.639075,0 -15.6543965,-7.505459 -15.6543965,-16.769484 0,-9.261922 7.0133575,-16.771589 15.6543965,-16.771589 8.646929,0.0021 15.654396,7.509667 15.654396,16.771589 z" inkscape:connector-curvature="0" fill="url(#radialGradient4221)"/>
   <path id="path3395" d="m 31.768839,35.619822 c 0,5.492364 -5.173628,9.945576 -11.554764,9.945576 -6.377208,0 -11.5488723,-4.453212 -11.5488723,-9.945576 0,-5.496571 5.1716643,-9.951886 11.5488723,-9.951886 6.381136,0 11.554764,4.455315 11.554764,9.951886 z" a:adobe-blending-mode="screen" inkscape:connector-curvature="0" fill="url(#linearGradient4223)"/>
  </g>
  <g id="g3421" transform="matrix(0.549987,0,0,0.592471,-177.0476,81.349913)">
   <path d="m 36.227789,42.082685 c 0,9.264025 -7.007467,16.769484 -15.654396,16.769484 -8.639075,0 -15.6543965,-7.505459 -15.6543965,-16.769484 0,-9.261922 7.0133575,-16.771589 15.6543965,-16.771589 8.646929,0.0021 15.654396,7.509667 15.654396,16.771589 z" id="path3423" inkscape:connector-curvature="0" fill="url(#radialGradient4221)"/>
   <path a:adobe-blending-mode="screen" d="m 31.768839,35.619822 c 0,5.492364 -5.173628,9.945576 -11.554764,9.945576 -6.377208,0 -11.5488723,-4.453212 -11.5488723,-9.945576 0,-5.496571 5.1716643,-9.951886 11.5488723,-9.951886 6.381136,0 11.554764,4.455315 11.554764,9.951886 z" id="path3425" inkscape:connector-curvature="0" fill="url(#linearGradient4223)"/>
  </g>
  <path inkscape:connector-curvature="0" sodipodi:nodetypes="cccccc" id="path3431" d="m -175.66024,151.36569 c 10.52868,-2.00596 15.78678,-9.145 17.70549,-19.41034 0.50821,-1.99237 2.61892,-5.1518 -2.52936,-7.39441 -8.98797,-5.26991 -24.63963,-5.1851 -33.3875,0.9243 -4.05868,2.46481 -4.35212,4.92961 -3.03523,7.39441 5.28173,6.77237 8.59177,13.82461 21.2466,18.48604 z" stroke-opacity="1" fill="url(#linearGradient4229)" fill-rule="evenodd" stroke="#c1b11c" stroke-linejoin="miter" fill-opacity="1" stroke-linecap="butt" stroke-width="1.222"/>
  <path d="m -244.38654,143.54322 c -5.76377,14.99495 -16.4367,22.62614 -28.14356,28.70643 -6.25225,3.87943 -9.62969,10.63366 -12.94604,17.449 18.31884,-11.37914 41.59228,-18.4643 41.0896,-46.15543 z" id="path3441" sodipodi:nodetypes="cccc" inkscape:connector-curvature="0" fill="url(#linearGradient4231)" fill-rule="evenodd" stroke="none" fill-opacity="1"/>
  <path sodipodi:nodetypes="cccc" id="path3451" d="m -111.35893,139.56358 c 5.76377,14.99495 16.4367,22.62614 28.14356,28.70643 6.25226,3.87943 9.6297,10.63366 12.94604,17.44901 -18.31884,-11.37915 -41.59229,-18.46431 -41.0896,-46.15544 z" inkscape:connector-curvature="0" fill="url(#linearGradient4233)" fill-rule="evenodd" stroke="none" fill-opacity="1"/>
  <path id="path1878" d="m -214.51244,233.49856 c -18.17973,0 -32.9354,10.30706 -32.9354,23.01671 0,4.29687 1.66761,8.33161 4.60265,11.77504 l 56.62776,0 c 2.93504,-3.44343 4.64038,-7.47817 4.64038,-11.77504 0,-12.70965 -14.75568,-23.01671 -32.93539,-23.01671 z" inkscape:connector-curvature="0" opacity="0.833" fill="#000000" stroke="none" fill-opacity="1"/>
  <path d="m -214.51244,233.49856 c -18.17973,0 -32.9354,10.30706 -32.9354,23.01671 0,4.29687 1.66761,8.33161 4.60265,11.77504 l 56.62776,0 c 2.93504,-3.44343 4.64038,-7.47817 4.64038,-11.77504 0,-12.70965 -14.75568,-23.01671 -32.93539,-23.01671 z" id="path3455" inkscape:connector-curvature="0" opacity="0.833" fill="url(#radialGradient4235)" stroke="none" fill-opacity="1"/>
  <g id="g3484" transform="matrix(-0.391277,0,0,0.818813,-211.76896,108.04832)" opacity="0.833">
   <path id="path3486" d="m 51.645467,168.01839 c -15.05874,0 -27.28125,7.85063 -27.28125,17.53125 0,3.27282 1.38133,6.34598 3.8125,8.96875 l 46.906247,0 c 2.43117,-2.62277 3.84375,-5.69593 3.84375,-8.96875 0,-9.68062 -12.22252,-17.53125 -27.281247,-17.53125 z" inkscape:connector-curvature="0" fill="#000000" stroke="none" fill-opacity="1"/>
   <path d="m 51.645467,168.01839 c -15.05874,0 -27.28125,7.85063 -27.28125,17.53125 0,3.27282 1.38133,6.34598 3.8125,8.96875 l 46.906247,0 c 2.43117,-2.62277 3.84375,-5.69593 3.84375,-8.96875 0,-9.68062 -12.22252,-17.53125 -27.281247,-17.53125 z" id="path3488" inkscape:connector-curvature="0" fill="url(#radialGradient4237)" stroke="none" fill-opacity="1"/>
   <path id="path3490" d="m 48.201204,169.74052 c -9.545351,0 -17.292888,6.11601 -17.292888,13.65767 0,2.54968 0.87559,4.94382 2.416647,6.98708 l 29.732672,0 c 1.541056,-2.04326 2.436455,-4.4374 2.436455,-6.98708 0,-7.54166 -7.747544,-13.65767 -17.292886,-13.65767 z" inkscape:connector-curvature="0" fill="url(#radialGradient4239)" stroke="none" fill-opacity="1"/>
  </g>
  <path id="path2052" d="m -135.19034,234.97753 c 18.17973,0 32.9354,10.01232 32.9354,22.35853 0,4.174 -1.66761,8.09336 -4.60265,11.43832 l -56.62776,0 c -2.93504,-3.34496 -4.64038,-7.26432 -4.64038,-11.43832 0,-12.34621 14.75568,-22.35853 32.93539,-22.35853 z" inkscape:connector-curvature="0" opacity="0.833" fill="#000000" stroke="none" fill-opacity="1"/>
  <path d="m -135.19034,234.97753 c 18.17973,0 32.9354,10.01232 32.9354,22.35853 0,4.174 -1.66761,8.09336 -4.60265,11.43832 l -56.62776,0 c -2.93504,-3.34496 -4.64038,-7.26432 -4.64038,-11.43832 0,-12.34621 14.75568,-22.35853 32.93539,-22.35853 z" id="path2054" inkscape:connector-curvature="0" opacity="0.833" fill="url(#radialGradient4241)" stroke="none" fill-opacity="1"/>
  <g transform="matrix(-0.391277,0,0,0.818813,-193.8635,108.53226)" id="g2062" opacity="0.833">
   <path d="m 51.645467,168.01839 c -15.05874,0 -27.28125,7.85063 -27.28125,17.53125 0,3.27282 1.38133,6.34598 3.8125,8.96875 l 46.906247,0 c 2.43117,-2.62277 3.84375,-5.69593 3.84375,-8.96875 0,-9.68062 -12.22252,-17.53125 -27.281247,-17.53125 z" id="path2064" inkscape:connector-curvature="0" fill="#000000" stroke="none" fill-opacity="1"/>
   <path id="path2066" d="m 51.645467,168.01839 c -15.05874,0 -27.28125,7.85063 -27.28125,17.53125 0,3.27282 1.38133,6.34598 3.8125,8.96875 l 46.906247,0 c 2.43117,-2.62277 3.84375,-5.69593 3.84375,-8.96875 0,-9.68062 -12.22252,-17.53125 -27.281247,-17.53125 z" inkscape:connector-curvature="0" fill="url(#radialGradient4237)" stroke="none" fill-opacity="1"/>
   <path d="m 48.201204,169.74052 c -9.545351,0 -17.292888,6.11601 -17.292888,13.65767 0,2.54968 0.87559,4.94382 2.416647,6.98708 l 29.732672,0 c 1.541056,-2.04326 2.436455,-4.4374 2.436455,-6.98708 0,-7.54166 -7.747544,-13.65767 -17.292886,-13.65767 z" id="path2068" inkscape:connector-curvature="0" fill="url(#radialGradient4239)" stroke="none" fill-opacity="1"/>
  </g>
  <g id="g2074" transform="matrix(-0.391277,0,0,0.818813,-174.0223,109.01619)" opacity="0.833">
   <path id="path2076" d="m 51.645467,168.01839 c -15.05874,0 -27.28125,7.85063 -27.28125,17.53125 0,3.27282 1.38133,6.34598 3.8125,8.96875 l 46.906247,0 c 2.43117,-2.62277 3.84375,-5.69593 3.84375,-8.96875 0,-9.68062 -12.22252,-17.53125 -27.281247,-17.53125 z" inkscape:connector-curvature="0" fill="#000000" stroke="none" fill-opacity="1"/>
   <path d="m 51.645467,168.01839 c -15.05874,0 -27.28125,7.85063 -27.28125,17.53125 0,3.27282 1.38133,6.34598 3.8125,8.96875 l 46.906247,0 c 2.43117,-2.62277 3.84375,-5.69593 3.84375,-8.96875 0,-9.68062 -12.22252,-17.53125 -27.281247,-17.53125 z" id="path2078" inkscape:connector-curvature="0" fill="url(#radialGradient4237)" stroke="none" fill-opacity="1"/>
   <path id="path2080" d="m 48.201204,169.74052 c -9.545351,0 -17.292888,6.11601 -17.292888,13.65767 0,2.54968 0.87559,4.94382 2.416647,6.98708 l 29.732672,0 c 1.541056,-2.04326 2.436455,-4.4374 2.436455,-6.98708 0,-7.54166 -7.747544,-13.65767 -17.292886,-13.65767 z" inkscape:connector-curvature="0" fill="url(#radialGradient4239)" stroke="none" fill-opacity="1"/>
  </g>
  <g id="g2086" transform="matrix(-0.391277,0,0,0.818813,-114.0147,109.01619)" opacity="0.833">
   <path id="path2088" d="m 51.645467,168.01839 c -15.05874,0 -27.28125,7.85063 -27.28125,17.53125 0,3.27282 1.38133,6.34598 3.8125,8.96875 l 46.906247,0 c 2.43117,-2.62277 3.84375,-5.69593 3.84375,-8.96875 0,-9.68062 -12.22252,-17.53125 -27.281247,-17.53125 z" inkscape:connector-curvature="0" fill="#000000" stroke="none" fill-opacity="1"/>
   <path d="m 51.645467,168.01839 c -15.05874,0 -27.28125,7.85063 -27.28125,17.53125 0,3.27282 1.38133,6.34598 3.8125,8.96875 l 46.906247,0 c 2.43117,-2.62277 3.84375,-5.69593 3.84375,-8.96875 0,-9.68062 -12.22252,-17.53125 -27.281247,-17.53125 z" id="path2090" inkscape:connector-curvature="0" fill="url(#radialGradient4237)" stroke="none" fill-opacity="1"/>
   <path id="path2092" d="m 48.201204,169.74052 c -9.545351,0 -17.292888,6.11601 -17.292888,13.65767 0,2.54968 0.87559,4.94382 2.416647,6.98708 l 29.732672,0 c 1.541056,-2.04326 2.436455,-4.4374 2.436455,-6.98708 0,-7.54166 -7.747544,-13.65767 -17.292886,-13.65767 z" inkscape:connector-curvature="0" fill="url(#radialGradient4239)" stroke="none" fill-opacity="1"/>
  </g>
  <g transform="matrix(-0.391277,0,0,0.818813,-133.8559,109.50012)" id="g2098" opacity="0.833">
   <path d="m 51.645467,168.01839 c -15.05874,0 -27.28125,7.85063 -27.28125,17.53125 0,3.27282 1.38133,6.34598 3.8125,8.96875 l 46.906247,0 c 2.43117,-2.62277 3.84375,-5.69593 3.84375,-8.96875 0,-9.68062 -12.22252,-17.53125 -27.281247,-17.53125 z" id="path2100" inkscape:connector-curvature="0" fill="#000000" stroke="none" fill-opacity="1"/>
   <path id="path2102" d="m 51.645467,168.01839 c -15.05874,0 -27.28125,7.85063 -27.28125,17.53125 0,3.27282 1.38133,6.34598 3.8125,8.96875 l 46.906247,0 c 2.43117,-2.62277 3.84375,-5.69593 3.84375,-8.96875 0,-9.68062 -12.22252,-17.53125 -27.281247,-17.53125 z" inkscape:connector-curvature="0" fill="url(#radialGradient4237)" stroke="none" fill-opacity="1"/>
   <path d="m 48.201204,169.74052 c -9.545351,0 -17.292888,6.11601 -17.292888,13.65767 0,2.54968 0.87559,4.94382 2.416647,6.98708 l 29.732672,0 c 1.541056,-2.04326 2.436455,-4.4374 2.436455,-6.98708 0,-7.54166 -7.747544,-13.65767 -17.292886,-13.65767 z" id="path2104" inkscape:connector-curvature="0" fill="url(#radialGradient4239)" stroke="none" fill-opacity="1"/>
  </g>
  <g id="g2110" transform="matrix(-0.391277,0,0,0.818813,-94.1735,108.53226)" opacity="0.833">
   <path id="path2112" d="m 51.645467,168.01839 c -15.05874,0 -27.28125,7.85063 -27.28125,17.53125 0,3.27282 1.38133,6.34598 3.8125,8.96875 l 46.906247,0 c 2.43117,-2.62277 3.84375,-5.69593 3.84375,-8.96875 0,-9.68062 -12.22252,-17.53125 -27.281247,-17.53125 z" inkscape:connector-curvature="0" fill="#000000" stroke="none" fill-opacity="1"/>
   <path d="m 51.645467,168.01839 c -15.05874,0 -27.28125,7.85063 -27.28125,17.53125 0,3.27282 1.38133,6.34598 3.8125,8.96875 l 46.906247,0 c 2.43117,-2.62277 3.84375,-5.69593 3.84375,-8.96875 0,-9.68062 -12.22252,-17.53125 -27.281247,-17.53125 z" id="path2114" inkscape:connector-curvature="0" fill="url(#radialGradient4237)" stroke="none" fill-opacity="1"/>
   <path id="path2116" d="m 48.201204,169.74052 c -9.545351,0 -17.292888,6.11601 -17.292888,13.65767 0,2.54968 0.87559,4.94382 2.416647,6.98708 l 29.732672,0 c 1.541056,-2.04326 2.436455,-4.4374 2.436455,-6.98708 0,-7.54166 -7.747544,-13.65767 -17.292886,-13.65767 z" inkscape:connector-curvature="0" fill="url(#radialGradient4239)" stroke="none" fill-opacity="1"/>
  </g>
  <path id="path2056" d="m -131.03224,237.17385 c 11.52367,0 20.87691,7.80007 20.87691,17.41835 0,3.25174 -1.05706,6.30512 -2.9175,8.911 l -35.89489,0 c -1.86045,-2.60588 -2.94142,-5.65926 -2.94142,-8.911 0,-9.61828 9.35325,-17.41835 20.8769,-17.41835 z" inkscape:connector-curvature="0" opacity="0.833" fill="url(#radialGradient4263)" stroke="none" fill-opacity="1"/>
  <path id="path3465" d="m -218.67054,235.75954 c -11.52367,0 -20.87691,8.02968 -20.87691,17.9311 0,3.34746 1.05706,6.49072 2.9175,9.17331 l 35.89489,0 c 1.86045,-2.68259 2.94142,-5.82585 2.94142,-9.17331 0,-9.90142 -9.35325,-17.9311 -20.8769,-17.9311 z" inkscape:connector-curvature="0" opacity="0.833" fill="url(#radialGradient4265)" stroke="none" fill-opacity="1"/>
  <path inkscape:connector-curvature="0" d="m -175.95619,143.07898 c 7.65125,-4.47233 13.43771,-3.12545 18.00144,-11.12363 0.50821,-1.99237 2.61892,-5.1518 -2.52936,-7.39441 -8.98797,-5.26991 -24.63963,-5.1851 -33.3875,0.9243 -4.05868,2.46481 -4.35212,4.92961 -3.03523,7.39441 6.01274,6.65053 11.8975,4.93762 20.95065,10.19933 z" id="path4017" sodipodi:nodetypes="cccccc" stroke-opacity="1" fill="url(#linearGradient4267)" fill-rule="evenodd" stroke="#c1b11c" stroke-linejoin="miter" fill-opacity="1" stroke-linecap="butt" stroke-width="1.222"/>
 </g>
 <g transform="matrix(0.82970571,0.25206226,0,1.0187909,38.017227,49.734833)" id="g3095">
  <path d="m -10.608435,-28.051268 2.6421394,-1.321069 c 0.54708,-2.31697 2.2015587,-4.950025 6.7254437,-6.32512 -3.306454,0.186674 -5.2210137,1.437738 -6.7254437,3.00243 -1.981169,1.479141 -2.3319794,3.06018 -2.6421394,4.643759 z" id="path3097" inkscape:connector-curvature="0" sodipodi:nodetypes="ccccc" fill="url(#linearGradient3858)" stroke="none" fill-opacity="1"/>
  <path inkscape:connector-curvature="0" id="path3099" d="m -4.6652759,154.85567 3.312751,-1.37079 128.1692849,12.33714 -4.45508,1.14235 z" opacity="0.771" fill="url(#linearGradient3916)" stroke="none" fill-opacity="1"/>
  <path sodipodi:nodetypes="ccccc" inkscape:connector-curvature="0" id="path3101" d="m 120.58092,165.56142 c 3.22056,1.30219 9.11983,-1.39151 9.51881,-4.57176 l 3.04914,-2.06021 c 0.63231,4.07648 -6.24031,8.29826 -10.79747,7.83361 z" fill="url(#linearGradient3121)" stroke="none" fill-opacity="1"/>
  <rect id="rect3103" width="141.62" height="189.54" x="-10.624" y="-36.518" ry="7.847" transform="matrix(0.99529408,0.09690046,0,1,0,0)" opacity="0.6" stroke-dasharray="none" stroke-opacity="0.427" fill="#123e50" stroke="#b6ccd6" fill-opacity="0.473" stroke-width="1.658" stroke-miterlimit="4" rx="7.847"/>
  <path sodipodi:nodetypes="ccccc" inkscape:connector-curvature="0" id="path3105" d="m -10.438287,-28.064586 3.8367514,-1.918377 -1.278914,173.932763 -3.1972864,2.77098 z" fill="#3c7b95" stroke="none" fill-opacity="0.385"/>
  <rect transform="matrix(0.99529408,0.09690046,0,1,0,0)" ry="7.847" y="-35.399" x="-9.87" height="189.54" width="141.62" id="rect3107" opacity="0.6" stroke-dasharray="none" stroke-opacity="0.427" fill="url(#linearGradient3123)" stroke="#b6ccd6" fill-opacity="1" stroke-width="1.658" stroke-miterlimit="4" rx="7.847"/>
  <path d="M -3.4318059,-33.792685 121.89858,-21.590691 c 4.327,0.42127 7.81046,4.260354 7.81046,8.607811 l 0,90.848605 C 54.589503,-16.357873 19.503097,-2.6350023 -11.242272,22.793157 l 0,-49.498863 c 0,-4.347457 3.4834714,-7.508249 7.8104661,-7.086979 z" id="path3109" inkscape:connector-curvature="0" sodipodi:nodetypes="sssccss" opacity="0.6" fill="url(#linearGradient3884)" stroke="none" fill-opacity="1"/>
  <path d="m 130.02946,-14.635954 3.83676,-1.918377 -0.63946,175.424831 -3.19729,2.13152 z" id="path3111" inkscape:connector-curvature="0" sodipodi:nodetypes="ccccc" fill="#357b98" stroke="none" fill-opacity="0.451"/>
  <path d="m 121.34291,-22.24568 c 5.27031,0.145 8.3326,4.376719 8.73158,7.556978 l 3.74174,-1.834104 c -0.28018,-2.408813 -3.60103,-7.720526 -9.58373,-7.155247 z" id="path3113" inkscape:connector-curvature="0" sodipodi:nodetypes="ccccc" fill="url(#linearGradient3127)" stroke="none" fill-opacity="1"/>
  <path d="m -4.6652759,-34.448618 3.312751,-1.370794 128.1692849,12.33715 -4.45508,1.142328 z" id="path3115" inkscape:connector-curvature="0" fill="url(#linearGradient3129)" stroke="none" fill-opacity="1"/>
 </g>
 <g inkscape:label="1. réteg" id="layer1" transform="translate(-1.3131233,-0.17120144)">
  <g id="g2637">
   <g id="g3612" transform="translate(-2.5722563,0)">
    <g id="g2650" fill="url(#linearGradient4078)" font-family="Bitstream Vera Sans" stroke="none" font-style="normal" fill-opacity="1" font-weight="normal" font-size="12">
     <path inkscape:connector-curvature="0" id="path2652" d="m 16.1875,-12.21875 -4.09375,0.03125 0.707107,0.707107 4.09375,-0.03125 -0.707107,-0.707107 z" fill="url(#linearGradient4078)" fill-opacity="1"/>
     <path inkscape:connector-curvature="0" id="path2654" d="M 12.09375,-12.1875 8.75,-3.4375 9.4571068,-2.7303932 12.800857,-11.480393 12.09375,-12.1875 z" fill="url(#linearGradient4078)" fill-opacity="1"/>
     <path inkscape:connector-curvature="0" id="path2662" d="m 14.75,-5.6875 0.78125,2.21875 0.707107,0.7071068 -0.78125,-2.21875 L 14.75,-5.6875 z" fill="url(#linearGradient4078)" fill-opacity="1"/>
     <path inkscape:connector-curvature="0" id="path2664" d="m 15.53125,-3.46875 0,0.03125 0.707107,0.7071068 0,-0.03125 L 15.53125,-3.46875 z" fill="url(#linearGradient4078)" fill-opacity="1"/>
     <path inkscape:connector-curvature="0" id="path2672" d="m 17.92037,-11.519527 c -0.441567,-0.441567 -1.023884,-0.714237 -1.73287,-0.699223 l 0.707107,0.707107 c 0.708986,-0.01501 1.291302,0.257655 1.73287,0.699223 l -0.707107,-0.707107 z" fill="url(#linearGradient4078)" fill-opacity="1"/>
     <path inkscape:connector-curvature="0" id="path2674" d="m 16.21875,-11.96875 c 0.599616,0.0028 1.098445,0.242806 1.481471,0.625832 l 0.707107,0.707107 c -0.383026,-0.383026 -0.881855,-0.623021 -1.481471,-0.625832 L 16.21875,-11.96875 z" fill="url(#linearGradient4088)" fill-opacity="1"/>
     <path inkscape:connector-curvature="0" id="path2676" d="m 17.700221,-11.342918 c 1.561455,1.5614549 1.198394,5.4999287 -2.106471,5.436668 l 0.707107,0.7071068 c 3.304865,0.063261 3.667926,-3.8752131 2.106471,-5.4366678 l -0.707107,-0.707107 z" fill="url(#linearGradient4078)" fill-opacity="1"/>
     <path inkscape:connector-curvature="0" id="path2678" d="m 15.59375,-5.90625 0.78125,2.1875 0.707107,0.7071068 -0.78125,-2.1875 L 15.59375,-5.90625 z" fill="url(#linearGradient4078)" fill-opacity="1"/>
     <path inkscape:connector-curvature="0" id="path2680" d="m 16.375,-3.71875 -0.65625,0 0.707107,0.7071068 0.65625,0 L 16.375,-3.71875 z" fill="url(#linearGradient4078)" fill-opacity="1"/>
     <path inkscape:connector-curvature="0" id="path2684" d="m 14.875,-5.96875 -4.3125,0 0.707107,0.7071068 4.3125,0 L 14.875,-5.96875 z" fill="url(#linearGradient4078)" fill-opacity="1"/>
     <path inkscape:connector-curvature="0" id="path2686" d="M 10.5625,-5.96875 9.75,-3.75 l 0.707107,0.7071068 0.8125,-2.21875 L 10.5625,-5.96875 z" fill="url(#linearGradient4078)" fill-opacity="1"/>
     <path inkscape:connector-curvature="0" id="path2690" d="m 9.1875,-3.75 3.09375,-8.15625 0.707107,0.707107 L 9.8946068,-3.0428932 9.1875,-3.75 z" fill="url(#linearGradient4100)" fill-opacity="1"/>
     <path inkscape:connector-curvature="0" id="path2660" d="m 10.8125,-5.6875 3.9375,0 0.707107,0.7071068 -3.9375,0 L 10.8125,-5.6875 z" fill="url(#linearGradient4102)" fill-opacity="1"/>
     <path inkscape:connector-curvature="0" id="path2682" d="m 15.71875,-3.71875 -0.84375,-2.25 0.707107,0.7071068 0.84375,2.25 L 15.71875,-3.71875 z" fill="url(#linearGradient4104)" fill-opacity="1"/>
     <path inkscape:connector-curvature="0" id="path2688" d="m 9.75,-3.75 -0.5625,0 0.7071068,0.7071068 0.5625002,0 L 9.75,-3.75 z" fill="url(#linearGradient4078)" fill-opacity="1"/>
     <path inkscape:connector-curvature="0" id="path2692" d="m 12.28125,-11.90625 3.9375,-0.0625 0.707107,0.707107 -3.9375,0.0625 -0.707107,-0.707107 z" fill="url(#linearGradient4108)" fill-opacity="1"/>
     <path inkscape:connector-curvature="0" id="path2694" d="m 13.59375,-11.375 1.84375,4.9375 0.707107,0.7071068 -1.84375,-4.9374998 L 13.59375,-11.375 z" fill="url(#linearGradient4078)" fill-opacity="1"/>
     <path inkscape:connector-curvature="0" id="path2698" d="M 17.29651,-10.694689 C 16.87154,-11.11966 16.292483,-11.392236 15.59375,-11.375 l 0.707107,0.707107 c 0.698733,-0.01724 1.277789,0.255339 1.70276,0.6803104 L 17.29651,-10.694689 z" fill="url(#linearGradient4078)" fill-opacity="1"/>
     <path inkscape:connector-curvature="0" id="path2700" d="m 15.59375,-11.375 -2,0 0.707107,0.707107 2,0 L 15.59375,-11.375 z" fill="url(#linearGradient4078)" fill-opacity="1"/>
     <path inkscape:connector-curvature="0" id="path2702" d="m 12.5,-11.25 -1.78125,4.875 0.707107,0.7071068 1.78125,-4.8749998 L 12.5,-11.25 z" fill="url(#linearGradient4078)" fill-opacity="1"/>
     <path inkscape:connector-curvature="0" id="path2704" d="m 10.71875,-6.375 4,0.0625 0.707107,0.7071068 -4,-0.0625 L 10.71875,-6.375 z" fill="url(#linearGradient4078)" fill-opacity="1"/>
     <path inkscape:connector-curvature="0" id="path2706" d="m 14.71875,-6.3125 -1.75,-4.9375 0.707107,0.707107 1.75,4.9374998 L 14.71875,-6.3125 z" fill="url(#linearGradient4078)" fill-opacity="1"/>
     <path inkscape:connector-curvature="0" id="path2708" d="m 12.96875,-11.25 -0.46875,0 0.707107,0.707107 0.46875,0 L 12.96875,-11.25 z" fill="url(#linearGradient4078)" fill-opacity="1"/>
     <path inkscape:connector-curvature="0" id="path2710" d="m 13.96875,-11.125 1.59375,0 0.707107,0.707107 -1.59375,0 L 13.96875,-11.125 z" fill="url(#linearGradient4078)" fill-opacity="1"/>
     <path inkscape:connector-curvature="0" id="path2712" d="m 15.5625,-11.125 c 0.700736,-0.01728 1.245143,0.227017 1.62661,0.608484 l 0.707107,0.7071066 C 17.51475,-10.190876 16.970342,-10.435179 16.269607,-10.417893 L 15.5625,-11.125 z" fill="url(#linearGradient4078)" fill-opacity="1"/>
     <path inkscape:connector-curvature="0" id="path2714" d="m 17.18911,-10.516516 c 1.226812,1.2268116 0.768345,3.872302 -1.59536,3.797766 l 0.707107,0.7071068 c 2.363705,0.074536 2.822172,-2.5709544 1.59536,-3.7977662 L 17.18911,-10.516516 z" fill="url(#linearGradient4128)" fill-opacity="1"/>
     <path inkscape:connector-curvature="0" id="path2716" d="m 15.59375,-6.71875 -1.625,-4.40625 0.707107,0.707107 1.625,4.4062498 L 15.59375,-6.71875 z" fill="url(#linearGradient4078)" fill-opacity="1"/>
     <path inkscape:connector-curvature="0" id="path2696" d="m 15.4375,-6.4375 c 2.997036,0.074602 3.230868,-2.8853317 1.85901,-4.257189 l 0.707107,0.7071064 c 1.371858,1.3718577 1.138026,4.3317916 -1.85901,4.2571894 L 15.4375,-6.4375 z" fill="url(#linearGradient4132)" fill-opacity="1"/>
     <path inkscape:connector-curvature="0" id="path2722" d="m 11.15625,-6.65625 1.59375,-4.375 0.707107,0.707107 -1.59375,4.3749998 L 11.15625,-6.65625 z" fill="url(#linearGradient4134)" fill-opacity="1"/>
     <path inkscape:connector-curvature="0" id="path2718" d="m 12.75,-11.03125 1.625,4.375 0.707107,0.7071068 -1.625,-4.3749998 L 12.75,-11.03125 z" fill="url(#linearGradient4078)" fill-opacity="1"/>
     <path inkscape:connector-curvature="0" id="path2720" d="m 14.375,-6.65625 -3.21875,0 0.707107,0.7071068 3.21875,0 L 14.375,-6.65625 z" fill="url(#linearGradient4078)" fill-opacity="1"/>
     <path inkscape:connector-curvature="0" id="path2670" d="m 15.96875,-5.6875 c 3.266261,0.062522 3.649833,-4.1338136 1.95162,-5.832027 l 0.707107,0.707107 c 1.698213,1.6982132 1.314641,5.8945486 -1.95162,5.8320268 L 15.96875,-5.6875 z" fill="url(#linearGradient4140)" fill-opacity="1"/>
     <path inkscape:connector-curvature="0" id="path2668" d="m 16.78125,-3.4375 -0.8125,-2.25 0.707107,0.7071068 0.8125,2.25 L 16.78125,-3.4375 z" fill="url(#linearGradient4142)" fill-opacity="1"/>
     <path inkscape:connector-curvature="0" id="path2666" d="m 15.53125,-3.4375 1.25,0 0.707107,0.7071068 -1.25,0 L 15.53125,-3.4375 z" fill="url(#linearGradient4144)" fill-opacity="1"/>
     <path inkscape:connector-curvature="0" id="path2656" d="m 8.75,-3.4375 1.25,0 0.707107,0.7071068 -1.2500002,0 L 8.75,-3.4375 z" fill="url(#linearGradient4146)" fill-opacity="1"/>
     <path inkscape:connector-curvature="0" id="path2658" d="m 10,-3.4375 0.8125,-2.25 0.707107,0.7071068 -0.8125,2.25 L 10,-3.4375 z" fill="url(#linearGradient4148)" fill-opacity="1"/>
    </g>
    <path inkscape:connector-curvature="0" id="path2505" d="m 16.1875,-12.175236 -4.09375,0.03125 -3.3437504,8.7500003 1.25,0 0.8125004,-2.25 3.9375,0 0.78125,2.21875 0,0.03125 1.25,0 -0.8125,-2.25 c 4.115551,0.078779 3.654407,-6.6040073 0.21875,-6.5312503 z m 0.03125,0.25 c 3.044029,0.01427 3.490551,6.1412789 -0.625,6.0625003 l 0.78125,2.1875 -0.65625,0 -0.84375,-2.25 -4.3125,0 -0.8125004,2.21875 -0.5625,0 3.0937504,-8.1562503 3.9375,-0.0625 z m -2.625,0.59375 1.84375,4.9375003 c 3.925451,0.097712 3.110577,-5.0103763 0.15625,-4.9375003 l -2,0 z m -1.09375,0.125 -1.78125,4.8750003 4,0.0625 -1.75,-4.9375003 -0.46875,0 z m 1.46875,0.125 1.59375,0 c 2.954327,-0.07288 3.12993,4.5039626 0.03125,4.4062503 l -1.625,-4.4062503 z m -1.21875,0.09375 1.625,4.3750003 -3.21875,0 1.59375,-4.3750003 z" fill="#333333" font-family="Bitstream Vera Sans" stroke="none" font-style="normal" fill-opacity="1" font-weight="normal" font-size="12"/>
   </g>
   <path inkscape:connector-curvature="0" id="text2170" d="m 6.0871491,-4.0239012 c -0.010522,-0.011146 -0.022062,-0.019197 -0.03462,-0.024152 -0.012219,-0.00557 -0.025796,-0.00836 -0.04073,-0.00836 -0.052948,1e-6 -0.093678,0.031584 -0.122188,0.094748 -0.028172,0.062547 -0.042257,0.15265 -0.042257,0.27031 l 0,0.548052 -0.094187,0 0,-1.040369 0.094187,0 0,0.161628 c 0.019686,-0.063164 0.045311,-0.109918 0.076877,-0.140264 0.031565,-0.030961 0.069918,-0.046444 0.115061,-0.046445 0.00645,1e-6 0.013576,9.31e-4 0.021383,0.00279 0.00781,0.00124 0.016461,0.00341 0.025965,0.0065 l 5.09e-4,0.175563 m 0.297835,-0.039943 c -0.050233,1e-6 -0.089944,0.035918 -0.119134,0.107752 -0.029189,0.071217 -0.043784,0.169061 -0.043784,0.293533 0,0.124473 0.014425,0.222627 0.043275,0.294462 0.029189,0.071216 0.06907,0.106824 0.119643,0.106824 0.049895,0 0.089436,-0.035918 0.118626,-0.107753 0.029189,-0.071835 0.043784,-0.169679 0.043784,-0.293533 0,-0.123233 -0.014595,-0.220768 -0.043784,-0.292604 -0.02919,-0.072453 -0.068731,-0.10868 -0.118626,-0.108681 m 0,-0.144909 c 0.08146,1e-6 0.145439,0.048304 0.191939,0.144909 0.046499,0.096606 0.069749,0.230368 0.06975,0.401285 -1e-6,0.170299 -0.023251,0.304061 -0.06975,0.401286 -0.0465,0.096605 -0.110479,0.144908 -0.191939,0.144908 -0.081799,0 -0.145948,-0.048303 -0.192447,-0.144908 -0.04616,-0.097225 -0.06924,-0.230987 -0.06924,-0.401286 0,-0.170917 0.02308,-0.304679 0.06924,-0.401285 0.046499,-0.096605 0.110648,-0.144908 0.192447,-0.144909 m 0.637419,0.144909 c -0.050233,1e-6 -0.089945,0.035918 -0.119134,0.107752 -0.02919,0.071217 -0.043784,0.169061 -0.043784,0.293533 0,0.124473 0.014425,0.222627 0.043275,0.294462 0.029189,0.071216 0.06907,0.106824 0.119643,0.106824 0.049893,0 0.089435,-0.035918 0.118625,-0.107753 0.029189,-0.071835 0.043784,-0.169679 0.043784,-0.293533 0,-0.123233 -0.014595,-0.220768 -0.043784,-0.292604 -0.02919,-0.072453 -0.068732,-0.10868 -0.118625,-0.108681 m 0,-0.144909 c 0.081459,1e-6 0.145438,0.048304 0.191938,0.144909 0.046499,0.096606 0.069749,0.230368 0.069749,0.401285 0,0.170299 -0.02325,0.304061 -0.069749,0.401286 -0.0465,0.096605 -0.110479,0.144908 -0.191938,0.144908 -0.081799,0 -0.145948,-0.048303 -0.192447,-0.144908 -0.046161,-0.097225 -0.06924,-0.230987 -0.06924,-0.401286 0,-0.170917 0.023079,-0.304679 0.06924,-0.401285 0.046499,-0.096605 0.110648,-0.144908 0.192447,-0.144909 m 0.50912,-0.27031 0,0.295391 0.192955,0 0,0.132832 -0.192955,0 0,0.564772 c -1e-6,0.08484 0.00628,0.139336 0.018836,0.163487 0.012898,0.024152 0.038863,0.036228 0.077896,0.036227 l 0.096223,0 0,0.143051 -0.096223,0 c -0.072296,0 -0.122188,-0.024461 -0.149681,-0.073383 -0.027492,-0.049542 -0.041238,-0.139335 -0.041238,-0.269382 l 0,-0.564772 -0.068732,0 0,-0.132832 0.068732,0 0,-0.295391 0.094187,0 m 0.423586,0.103108 0,0.521114 0.129317,0 c 0.047857,0 0.084853,-0.022603 0.110988,-0.06781 0.026134,-0.045206 0.039202,-0.109609 0.039202,-0.193211 0,-0.082981 -0.013068,-0.147075 -0.039202,-0.192283 -0.026135,-0.045205 -0.063131,-0.067809 -0.110988,-0.06781 l -0.129317,0 m -0.102842,-0.154197 0.232159,0 c 0.085192,1e-6 0.149511,0.0353 0.192956,0.105894 0.043784,0.069979 0.065676,0.172777 0.065676,0.308396 0,0.136859 -0.021892,0.240276 -0.065676,0.310252 -0.043445,0.069978 -0.107764,0.104967 -0.192956,0.104967 l -0.129317,0 0,0.55734 -0.102842,0 0,-1.386849 m 0.837502,0.863878 c -0.075689,0 -0.128129,0.015791 -0.157318,0.047374 -0.02919,0.031583 -0.043784,0.085459 -0.043784,0.161628 0,0.060689 0.010861,0.108991 0.032583,0.144909 0.022062,0.035298 0.05193,0.052947 0.089606,0.052947 0.05193,0 0.093508,-0.03344 0.124734,-0.100321 0.031565,-0.0675 0.047348,-0.156984 0.047348,-0.268453 l 0,-0.038084 -0.093169,0 m 0.186847,-0.070597 0,0.593568 -0.093678,0 0,-0.157913 c -0.021383,0.063165 -0.048027,0.10992 -0.079932,0.140264 -0.031905,0.029725 -0.070937,0.044587 -0.117097,0.044587 -0.05838,0 -0.104879,-0.029725 -0.139499,-0.089175 -0.034281,-0.060068 -0.051421,-0.140263 -0.051421,-0.240585 0,-0.117041 0.021383,-0.205287 0.064149,-0.264737 0.043105,-0.059448 0.107254,-0.089173 0.192447,-0.089174 l 0.131353,0 0,-0.01672 c 0,-0.078646 -0.014256,-0.139335 -0.042766,-0.182065 -0.028172,-0.043347 -0.067883,-0.065022 -0.119134,-0.065023 -0.032584,1e-6 -0.064319,0.00712 -0.095206,0.021365 -0.030886,0.014244 -0.060585,0.035608 -0.089096,0.064094 l 0,-0.157913 c 0.034281,-0.024151 0.067544,-0.04211 0.099788,-0.053876 0.032244,-0.012385 0.06364,-0.018578 0.094187,-0.018579 0.082477,1e-6 0.144081,0.039016 0.184811,0.117042 0.040729,0.078028 0.061093,0.196309 0.061094,0.35484 m 0.193466,-0.851802 0.093678,0 0,1.44537 -0.093678,0 0,-1.44537 m 0.647228,0.9200515 c -1e-6,0.088556 0.012049,0.158223 0.036147,0.209003 0.024098,0.050161 0.057191,0.075241 0.099278,0.075241 0.041749,0 0.074502,-0.02539 0.098261,-0.07617 0.024098,-0.05078 0.036148,-0.120138 0.036148,-0.208074 0,-0.086697 -0.012219,-0.155435 -0.036657,-0.206216 -0.024438,-0.051399 -0.057361,-0.077098 -0.09877,-0.077099 -0.041069,1e-6 -0.073823,0.025391 -0.09826,0.07617 -0.024098,0.050781 -0.036148,0.119829 -0.036147,0.207145 m 0.277471,0.277742 c -0.020365,0.047683 -0.043785,0.082981 -0.070259,0.105894 -0.026135,0.022294 -0.056683,0.033441 -0.091642,0.033441 -0.05838,0 -0.105897,-0.038395 -0.142554,-0.115184 -0.036317,-0.077408 -0.054476,-0.178039 -0.054476,-0.301893 0,-0.123853 0.018328,-0.224483 0.054986,-0.301893 0.036656,-0.077407 0.084004,-0.116111 0.142044,-0.116112 0.034959,1e-6 0.065677,0.011767 0.092151,0.035298 0.026474,0.022914 0.049724,0.057902 0.06975,0.104966 l 0,-0.121686 0.072804,0 0,0.683671 c 0.04955,-0.013624 0.08825,-0.054805 0.116079,-0.123544 0.02817,-0.069357 0.04226,-0.158841 0.04226,-0.268452 -10e-7,-0.066262 -0.0054,-0.128498 -0.01629,-0.186709 -0.01052,-0.058211 -0.02664,-0.112087 -0.04837,-0.161629 -0.0353,-0.081123 -0.07841,-0.14305 -0.129316,-0.18578 -0.050574,-0.043348 -0.1057274,-0.065022 -0.1654644,-0.065024 -0.041748,2e-6 -0.081799,0.010219 -0.120153,0.030654 -0.038354,0.019818 -0.073822,0.049543 -0.106406,0.089174 -0.053288,0.063167 -0.095035,0.146149 -0.125243,0.248946 -0.029869,0.10218 -0.044803,0.213029 -0.044803,0.332547 0,0.098464 0.00967,0.190734 0.02902,0.276812 0.019686,0.086079 0.048027,0.161939 0.085023,0.227581 0.035638,0.064404 0.076877,0.113326 0.123716,0.146766 0.046839,0.03406 0.096902,0.05109 0.150191,0.05109 0.043784,0 0.08672,-0.013624 0.128808,-0.040872 0.042427,-0.026628 0.08129,-0.065023 0.1165874,-0.115184 l 0.04582,0.103108 c -0.04243,0.060069 -0.08876,0.105895 -0.138989,0.137478 -0.049895,0.032201 -0.1006364,0.048302 -0.1522274,0.048303 -0.062792,-10e-7 -0.12202,-0.020436 -0.177683,-0.061308 -0.055664,-0.040252 -0.105218,-0.099083 -0.148663,-0.176491 -0.043445,-0.077408 -0.076538,-0.166892 -0.099278,-0.268452 -0.022741,-0.102179 -0.034112,-0.21179 -0.034111,-0.328831 -10e-7,-0.112706 0.01154,-0.220149 0.03462,-0.322329 0.02308,-0.102178 0.056003,-0.191972 0.098769,-0.269381 0.043784,-0.078646 0.094356,-0.138715 0.151718,-0.180207 0.05736,-0.042109 0.118115,-0.063164 0.182264,-0.063165 0.071957,1e-6 0.1386504,0.026939 0.2000854,0.080814 0.06177,0.053878 0.113532,0.130357 0.155281,0.229439 0.02546,0.060689 0.0448,0.126641 0.05804,0.197856 0.01358,0.071216 0.02036,0.144909 0.02036,0.221078 -2e-6,0.162868 -0.02698,0.291365 -0.08095,0.385494 -0.05397,0.094129 -0.128468,0.143051 -0.2235024,0.146766 l 0,-0.14305 m 0.8507384,-0.311182 c -10e-7,-0.123853 -0.01409,-0.219839 -0.04226,-0.28796 -0.02783,-0.068118 -0.06703,-0.102178 -0.117607,-0.102179 -0.05023,1e-6 -0.08943,0.034061 -0.117606,0.102179 -0.02783,0.068121 -0.04175,0.164107 -0.04175,0.28796 0,0.123234 0.01392,0.218911 0.04175,0.28703 0.02817,0.06812 0.06737,0.10218 0.117606,0.102179 0.05057,1e-6 0.08977,-0.034059 0.117607,-0.102179 0.02817,-0.068119 0.04226,-0.163796 0.04226,-0.28703 m 0.09368,0.403143 c -1e-6,0.17711 -0.02155,0.308704 -0.06466,0.394782 -0.04311,0.086698 -0.109122,0.130046 -0.198048,0.130047 -0.03292,-1e-6 -0.06398,-0.00464 -0.09317,-0.013934 -0.02919,-0.00867 -0.05753,-0.022294 -0.08502,-0.040872 l 0,-0.166273 c 0.02749,0.027248 0.05465,0.047374 0.08146,0.060379 0.02681,0.013004 0.05414,0.019506 0.08197,0.019507 0.06143,-1e-6 0.107424,-0.029416 0.137971,-0.088246 0.03055,-0.058211 0.04582,-0.146457 0.04582,-0.264737 l 0,-0.08453 c -0.01935,0.061308 -0.04412,0.107134 -0.07433,0.137478 -0.03021,0.030344 -0.06636,0.045516 -0.108443,0.045516 -0.06992,0 -0.126262,-0.048613 -0.169028,-0.145837 -0.04277,-0.097225 -0.06415,-0.226033 -0.06415,-0.386423 0,-0.161009 0.02138,-0.290126 0.06415,-0.387352 0.04277,-0.097224 0.09911,-0.145837 0.169028,-0.145838 0.04209,1e-6 0.07823,0.015173 0.108443,0.045517 0.03021,0.030345 0.05498,0.076171 0.07433,0.137477 l 0,-0.157913 0.09368,0 0,0.911252 m 0.636909,-0.711539 c 0.02342,-0.076788 0.05142,-0.13345 0.084,-0.169988 0.03258,-0.036536 0.07094,-0.054805 0.115061,-0.054806 0.0594,1e-6 0.105218,0.038087 0.137463,0.114256 0.03224,0.075551 0.04837,0.183303 0.04837,0.323257 l 0,0.627937 -0.09419,0 0,-0.622364 c -10e-7,-0.099701 -0.0097,-0.173703 -0.02902,-0.222007 -0.01935,-0.048302 -0.04888,-0.072453 -0.08859,-0.072454 -0.04854,1e-6 -0.08689,0.029416 -0.115061,0.088245 -0.02817,0.058832 -0.04226,0.139026 -0.04226,0.240585 l 0,0.587995 -0.09419,0 0,-0.622364 c 0,-0.10032 -0.0097,-0.174323 -0.02902,-0.222007 -0.01935,-0.048302 -0.04922,-0.072453 -0.0896,-0.072454 -0.04786,1e-6 -0.08587,0.029725 -0.114042,0.089174 -0.02817,0.058831 -0.04226,0.138717 -0.04226,0.239656 l 0,0.587995 -0.09419,0 0,-1.040369 0.09419,0 0,0.161628 c 0.02138,-0.063783 0.04701,-0.110847 0.07688,-0.141192 0.02987,-0.030344 0.06534,-0.045516 0.106406,-0.045517 0.04141,1e-6 0.07654,0.019199 0.105388,0.057592 0.02919,0.038396 0.05074,0.09413 0.06466,0.167202 m 0.831392,0.317685 c -0.07569,0 -0.128129,0.015791 -0.157318,0.047374 -0.02919,0.031583 -0.04378,0.085459 -0.04378,0.161628 0,0.060689 0.01086,0.108991 0.03258,0.144909 0.02206,0.035298 0.05193,0.052947 0.0896,0.052947 0.05193,0 0.09351,-0.03344 0.124734,-0.100321 0.03157,-0.0675 0.04735,-0.156984 0.04735,-0.268453 l 0,-0.038084 -0.09317,0 m 0.186847,-0.070597 0,0.593568 -0.09368,0 0,-0.157913 c -0.02138,0.063165 -0.04803,0.10992 -0.07993,0.140264 -0.03191,0.029725 -0.07094,0.044587 -0.117097,0.044587 -0.05838,0 -0.104879,-0.029725 -0.139499,-0.089175 -0.03428,-0.060068 -0.05142,-0.140263 -0.05142,-0.240585 0,-0.117041 0.02138,-0.205287 0.06415,-0.264737 0.0431,-0.059448 0.107254,-0.089173 0.192447,-0.089174 l 0.131353,0 0,-0.01672 c 0,-0.078646 -0.01426,-0.139335 -0.04277,-0.182065 -0.02817,-0.043347 -0.06788,-0.065022 -0.119134,-0.065023 -0.03258,1e-6 -0.06432,0.00712 -0.0952,0.021365 -0.03089,0.014244 -0.06059,0.035608 -0.0891,0.064094 l 0,-0.157913 c 0.03428,-0.024151 0.06754,-0.04211 0.09979,-0.053876 0.03224,-0.012385 0.06364,-0.018578 0.09419,-0.018579 0.08248,1e-6 0.144081,0.039016 0.184811,0.117042 0.04073,0.078028 0.06109,0.196309 0.06109,0.35484 m 0.193466,-0.446801 0.09368,0 0,1.040369 -0.09368,0 0,-1.040369 m 0,-0.405001 0.09368,0 0,0.216434 -0.09368,0 0,-0.216434 m 0.28918,0 0.09368,0 0,1.44537 -0.09368,0 0,-1.44537 m 0.302417,1.209429 0.107424,0 0,0.235941 -0.107424,0 0,-0.235941 m 0.729059,-0.764485 0,0.15977 c -0.02647,-0.026627 -0.05312,-0.046444 -0.07993,-0.059449 -0.02647,-0.013623 -0.05329,-0.020435 -0.08044,-0.020436 -0.06076,1e-6 -0.107934,0.035299 -0.141536,0.105895 -0.0336,0.069978 -0.0504,0.168441 -0.0504,0.29539 0,0.126951 0.0168,0.225724 0.0504,0.29632 0.0336,0.069977 0.08078,0.104966 0.141536,0.104966 0.02715,0 0.05397,-0.0065 0.08044,-0.019507 0.02681,-0.013624 0.05346,-0.03375 0.07993,-0.060379 l 0,0.157913 c -0.02614,0.022294 -0.05329,0.039014 -0.08146,0.050161 -0.02783,0.011146 -0.05753,0.01672 -0.0891,0.01672 -0.08587,0 -0.154094,-0.049231 -0.204666,-0.147695 -0.05057,-0.098463 -0.07586,-0.231296 -0.07586,-0.398499 0,-0.169678 0.02546,-0.30313 0.07637,-0.400356 0.05125,-0.097224 0.12134,-0.145837 0.210267,-0.145838 0.02885,1e-6 0.05702,0.00558 0.08451,0.016721 0.02749,0.010528 0.05414,0.026629 0.07993,0.048303 m 0.384895,0.079885 c -0.05023,1e-6 -0.08995,0.035918 -0.119134,0.107752 -0.02919,0.071217 -0.04378,0.169061 -0.04378,0.293533 -10e-7,0.124473 0.01442,0.222627 0.04328,0.294462 0.02919,0.071216 0.06907,0.106824 0.119643,0.106824 0.04989,0 0.08943,-0.035918 0.118625,-0.107753 0.02919,-0.071835 0.04378,-0.169679 0.04378,-0.293533 0,-0.123233 -0.01459,-0.220768 -0.04378,-0.292604 -0.02919,-0.072453 -0.06873,-0.10868 -0.118625,-0.108681 m 0,-0.144909 c 0.08146,1e-6 0.145438,0.048304 0.191938,0.144909 0.0465,0.096606 0.06975,0.230368 0.06975,0.401285 0,0.170299 -0.02325,0.304061 -0.06975,0.401286 -0.0465,0.096605 -0.11048,0.144908 -0.191938,0.144908 -0.0818,0 -0.145948,-0.048303 -0.192448,-0.144908 -0.04616,-0.097225 -0.06924,-0.230987 -0.06924,-0.401286 0,-0.170917 0.02308,-0.304679 0.06924,-0.401285 0.0465,-0.096605 0.110649,-0.144908 0.192448,-0.144909 m 0.860412,0.224794 c 0.02342,-0.076788 0.05142,-0.13345 0.084,-0.169988 0.03258,-0.036536 0.07094,-0.054805 0.115061,-0.054806 0.0594,1e-6 0.105217,0.038087 0.137462,0.114256 0.03224,0.075551 0.04837,0.183303 0.04837,0.323257 l 0,0.627937 -0.09419,0 0,-0.622364 c 0,-0.099701 -0.0097,-0.173703 -0.02902,-0.222007 -0.01935,-0.048302 -0.04888,-0.072453 -0.08859,-0.072454 -0.04854,1e-6 -0.08689,0.029416 -0.115061,0.088245 -0.02817,0.058832 -0.04226,0.139026 -0.04226,0.240585 l 0,0.587995 -0.09419,0 0,-0.622364 c -10e-7,-0.10032 -0.0097,-0.174323 -0.02902,-0.222007 -0.01935,-0.048302 -0.04922,-0.072453 -0.08961,-0.072454 -0.04786,1e-6 -0.08587,0.029725 -0.114043,0.089174 -0.02817,0.058831 -0.04226,0.138717 -0.04226,0.239656 l 0,0.587995 -0.09419,0 0,-1.040369 0.09419,0 0,0.161628 c 0.02138,-0.063783 0.04701,-0.110847 0.07688,-0.141192 0.02987,-0.030344 0.06534,-0.045516 0.106406,-0.045517 0.04141,1e-6 0.07654,0.019199 0.105388,0.057592 0.02919,0.038396 0.05074,0.09413 0.06466,0.167202" sodipodi:nodetypes="csssccccccssscccsssssssccsssssssccsssssssccssssssscccccccsccccsccccccccccsssccccsssccccccssssscccccccssssscccsssccssscccccccsssssssccsssssssccccsssssssssssssssccssssssssssssssscccsssssssccsssccsssccssssssscccccsssccccsssccccsssccccccsssccssssscccccccssssscccsssccssscccccccccccccccccccccccsssssssccsssssssccsssssssccsssssssccsssccccsssccccsssccccccsssc" fill="#d40000" font-family="Bitstream Vera Sans" stroke="none" font-style="normal" fill-opacity="1" font-weight="normal" font-size="4"/>
  </g>
 </g>
 <path d="m 193.90792,18.80521 c 5.10037,0.689674 9.30836,4.33235 9.79662,8.078859" id="path3384" inkscape:connector-curvature="0" sodipodi:nodetypes="cc" opacity="0.601" stroke-opacity="0.502" fill="none" stroke="#cfeaf2" stroke-linejoin="round" stroke-linecap="round" stroke-width="1.019"/>
 <path sodipodi:nodetypes="cc" inkscape:connector-curvature="0" id="path4154" d="m 191.16246,20.699328 c 5.10037,0.689675 8.29622,4.378357 8.78447,8.124866" stroke-opacity="0.303" fill="none" stroke="#80c4da" stroke-linejoin="round" stroke-linecap="round" stroke-width="1.019"/>
</svg>
