<?xml version="1.0" encoding="UTF-8" standalone="no"?>
<!-- Created with Inkscape (http://www.inkscape.org/) -->

<svg
   xmlns:dc="http://purl.org/dc/elements/1.1/"
   xmlns:cc="http://creativecommons.org/ns#"
   xmlns:rdf="http://www.w3.org/1999/02/22-rdf-syntax-ns#"
   xmlns:svg="http://www.w3.org/2000/svg"
   xmlns="http://www.w3.org/2000/svg"
   xmlns:xlink="http://www.w3.org/1999/xlink"
   xmlns:sodipodi="http://sodipodi.sourceforge.net/DTD/sodipodi-0.dtd"
   xmlns:inkscape="http://www.inkscape.org/namespaces/inkscape"
   id="svg2"
   version="1.1"
   inkscape:version="0.92.5 (2060ec1f9f, 2020-04-08)"
   width="256"
   height="256"
   sodipodi:docname="panel-symbolic-video-film.svg">
  <metadata
     id="metadata8">
    <rdf:RDF>
      <cc:Work
         rdf:about="">
        <dc:format>image/svg+xml</dc:format>
        <dc:type
           rdf:resource="http://purl.org/dc/dcmitype/StillImage" />
        <dc:title></dc:title>
      </cc:Work>
    </rdf:RDF>
  </metadata>
  <defs
     id="defs6">
    <linearGradient
       id="linearGradient979">
      <stop
         id="stop975"
         offset="0"
         style="stop-color:#ffffff;stop-opacity:1" />
      <stop
         id="stop977"
         offset="1"
         style="stop-color:#9dd0e6;stop-opacity:0.42857143" />
    </linearGradient>
    <linearGradient
       id="linearGradient4300">
      <stop
         id="stop4302"
         offset="0"
         style="stop-color:#2b515d;stop-opacity:1;" />
      <stop
         id="stop4304"
         offset="1"
         style="stop-color:#cae2eb;stop-opacity:1" />
    </linearGradient>
    <linearGradient
       inkscape:collect="always"
       id="linearGradient4289">
      <stop
         style="stop-color:#1a404c;stop-opacity:1;"
         offset="0"
         id="stop4291" />
      <stop
         style="stop-color:#b5d6e0;stop-opacity:1"
         offset="1"
         id="stop4293" />
    </linearGradient>
    <linearGradient
       id="linearGradient4379">
      <stop
         id="stop4381"
         offset="0"
         style="stop-color:#174d64;stop-opacity:0.13725491" />
      <stop
         id="stop4383"
         offset="1"
         style="stop-color:#ffffff;stop-opacity:0.77472526" />
    </linearGradient>
    <linearGradient
       id="linearGradient4373">
      <stop
         id="stop4375"
         offset="0"
         style="stop-color:#2b515d;stop-opacity:0.61538464" />
      <stop
         id="stop4377"
         offset="1"
         style="stop-color:#acd6e5;stop-opacity:0.52747256" />
    </linearGradient>
    <linearGradient
       id="linearGradient3938">
      <stop
         style="stop-color:#2b515d;stop-opacity:1;"
         offset="0"
         id="stop3940" />
      <stop
         style="stop-color:#f7fdff;stop-opacity:1;"
         offset="1"
         id="stop3942" />
    </linearGradient>
    <linearGradient
       id="linearGradient3930">
      <stop
         style="stop-color:#0b2026;stop-opacity:1;"
         offset="0"
         id="stop3932" />
      <stop
         style="stop-color:#30616f;stop-opacity:1;"
         offset="1"
         id="stop3934" />
    </linearGradient>
    <linearGradient
       id="linearGradient3863">
      <stop
         style="stop-color:#608596;stop-opacity:1;"
         offset="0"
         id="stop3865" />
      <stop
         style="stop-color:#608596;stop-opacity:0;"
         offset="1"
         id="stop3867" />
    </linearGradient>
    <linearGradient
       id="linearGradient3947">
      <stop
         style="stop-color:#608596;stop-opacity:0.29577464;"
         offset="0"
         id="stop3949" />
      <stop
         style="stop-color:#608596;stop-opacity:0.13380282;"
         offset="1"
         id="stop3951" />
    </linearGradient>
    <linearGradient
       id="linearGradient3828">
      <stop
         id="stop3830"
         offset="0"
         style="stop-color:#ffffff;stop-opacity:0.48591548;" />
      <stop
         id="stop3832"
         offset="1"
         style="stop-color:#286483;stop-opacity:0;" />
    </linearGradient>
    <linearGradient
       id="linearGradient3906">
      <stop
         style="stop-color:#cedce2;stop-opacity:1;"
         offset="0"
         id="stop3908" />
      <stop
         style="stop-color:#cedce2;stop-opacity:0;"
         offset="1"
         id="stop3910" />
    </linearGradient>
    <linearGradient
       id="linearGradient3892">
      <stop
         style="stop-color:#3f8cae;stop-opacity:0.21978022"
         offset="0"
         id="stop3894" />
      <stop
         style="stop-color:#ffffff;stop-opacity:1;"
         offset="1"
         id="stop3896" />
    </linearGradient>
    <linearGradient
       id="linearGradient3878">
      <stop
         style="stop-color:#b5dced;stop-opacity:0.91269839;"
         offset="0"
         id="stop3880" />
      <stop
         style="stop-color:#9abcca;stop-opacity:0;"
         offset="1"
         id="stop3882" />
    </linearGradient>
    <linearGradient
       id="linearGradient3867">
      <stop
         style="stop-color:#99bbc9;stop-opacity:0.50704223;"
         offset="0"
         id="stop3869" />
      <stop
         style="stop-color:#476b7a;stop-opacity:0;"
         offset="1"
         id="stop3871" />
    </linearGradient>
    <linearGradient
       id="linearGradient3851">
      <stop
         style="stop-color:#123e50;stop-opacity:0.68309861;"
         offset="0"
         id="stop3853" />
      <stop
         id="stop3861"
         offset="0.37100297"
         style="stop-color:#c6d7de;stop-opacity:0.74901962;" />
      <stop
         id="stop3859"
         offset="0.71590734"
         style="stop-color:#123e50;stop-opacity:0.78169012;" />
      <stop
         style="stop-color:#c3d4db;stop-opacity:0.09859155;"
         offset="1"
         id="stop3855" />
    </linearGradient>
    <linearGradient
       id="linearGradient3824">
      <stop
         id="stop3826"
         offset="0"
         style="stop-color:#ffffff;stop-opacity:0.83802819;" />
      <stop
         id="stop3828"
         offset="1"
         style="stop-color:#70b5d4;stop-opacity:0;" />
    </linearGradient>
    <linearGradient
       id="linearGradient3815">
      <stop
         id="stop3817"
         offset="0"
         style="stop-color:#9fcaff;stop-opacity:0.11267605;" />
      <stop
         id="stop3819"
         offset="1"
         style="stop-color:#668dbd;stop-opacity:0;" />
    </linearGradient>
    <linearGradient
       id="linearGradient3773">
      <stop
         style="stop-color:#70b5d4;stop-opacity:0.83802819;"
         offset="0"
         id="stop3775" />
      <stop
         style="stop-color:#70b5d4;stop-opacity:0.27464789;"
         offset="1"
         id="stop3777" />
    </linearGradient>
    <linearGradient
       id="linearGradient3765">
      <stop
         style="stop-color:#668dbd;stop-opacity:0.35251799;"
         offset="0"
         id="stop3767" />
      <stop
         style="stop-color:#668dbd;stop-opacity:0.09352518;"
         offset="1"
         id="stop3769" />
    </linearGradient>
    <linearGradient
       id="linearGradient3757">
      <stop
         style="stop-color:#ffffff;stop-opacity:1;"
         offset="0"
         id="stop3759" />
      <stop
         style="stop-color:#286483;stop-opacity:0;"
         offset="1"
         id="stop3761" />
    </linearGradient>
    <linearGradient
       inkscape:collect="always"
       xlink:href="#linearGradient3765"
       id="linearGradient3771"
       x1="17.757229"
       y1="183.52803"
       x2="17.757229"
       y2="256.24783"
       gradientUnits="userSpaceOnUse" />
    <linearGradient
       inkscape:collect="always"
       xlink:href="#linearGradient3773"
       id="linearGradient3779"
       x1="66.089592"
       y1="264.76553"
       x2="67.0896"
       y2="173.91013"
       gradientUnits="userSpaceOnUse" />
    <linearGradient
       inkscape:collect="always"
       xlink:href="#linearGradient3773"
       id="linearGradient3787"
       gradientUnits="userSpaceOnUse"
       x1="66.089592"
       y1="264.76553"
       x2="67.0896"
       y2="173.91013" />
    <linearGradient
       inkscape:collect="always"
       xlink:href="#linearGradient3867"
       id="linearGradient3873"
       x1="227.44495"
       y1="56.223431"
       x2="278.9527"
       y2="54.151554"
       gradientUnits="userSpaceOnUse"
       spreadMethod="reflect"
       gradientTransform="matrix(0.82699483,0,0,0.82699483,-327.63382,76.551152)" />
    <linearGradient
       inkscape:collect="always"
       xlink:href="#linearGradient3878"
       id="linearGradient3884"
       x1="289.31772"
       y1="-44.747936"
       x2="276.9603"
       y2="20.651596"
       gradientUnits="userSpaceOnUse"
       gradientTransform="matrix(0.82310306,0.08013618,0,0.82699483,-326.092,46.276249)" />
    <linearGradient
       inkscape:collect="always"
       xlink:href="#linearGradient4379"
       id="linearGradient3898"
       x1="364.79871"
       y1="0.76725364"
       x2="361.3812"
       y2="-6.2277746"
       gradientUnits="userSpaceOnUse"
       spreadMethod="reflect"
       gradientTransform="matrix(0.82699483,0,0,0.82699483,-326.092,46.276249)" />
    <linearGradient
       inkscape:collect="always"
       xlink:href="#linearGradient3892"
       id="linearGradient3902"
       gradientUnits="userSpaceOnUse"
       spreadMethod="reflect"
       x1="359.71127"
       y1="-9.785778"
       x2="361.37955"
       y2="-4.0930724"
       gradientTransform="matrix(0.82699483,0,0,-0.82699483,-326.30378,223.51193)" />
    <linearGradient
       inkscape:collect="always"
       xlink:href="#linearGradient3906"
       id="linearGradient3912"
       x1="317.97549"
       y1="-13.077438"
       x2="359.2764"
       y2="-16.116301"
       gradientUnits="userSpaceOnUse"
       spreadMethod="reflect"
       gradientTransform="matrix(0.82699483,0,0,0.82699483,-326.092,46.276249)" />
    <linearGradient
       inkscape:collect="always"
       xlink:href="#linearGradient3906"
       id="linearGradient3916"
       gradientUnits="userSpaceOnUse"
       spreadMethod="reflect"
       x1="317.97549"
       y1="-13.077438"
       x2="359.2764"
       y2="-16.116301"
       gradientTransform="matrix(0.82699483,0,0,0.82699483,-326.092,235.58053)" />
    <linearGradient
       inkscape:collect="always"
       xlink:href="#linearGradient3828"
       id="linearGradient3826"
       x1="61.93013"
       y1="10.421225"
       x2="63.371296"
       y2="6.5781136"
       gradientUnits="userSpaceOnUse"
       spreadMethod="reflect"
       gradientTransform="translate(-69.456067,-43.096235)" />
    <linearGradient
       inkscape:collect="always"
       xlink:href="#linearGradient3828"
       id="linearGradient3858"
       gradientUnits="userSpaceOnUse"
       gradientTransform="translate(-225.24511,18.93159)"
       spreadMethod="reflect"
       x1="61.93013"
       y1="10.421225"
       x2="63.371296"
       y2="6.5781136" />
    <linearGradient
       inkscape:collect="always"
       xlink:href="#linearGradient3757"
       id="linearGradient3860"
       gradientUnits="userSpaceOnUse"
       gradientTransform="matrix(0.82699483,0,0,-0.82699483,-106.37695,393.98956)"
       spreadMethod="reflect"
       x1="229.62024"
       y1="253.17581"
       x2="266.18427"
       y2="254.2218" />
    <linearGradient
       inkscape:collect="always"
       xlink:href="#linearGradient3757"
       id="linearGradient3862"
       gradientUnits="userSpaceOnUse"
       gradientTransform="matrix(-0.82002201,-0.10716502,0.10716502,-0.82002201,367.07244,422.46474)"
       spreadMethod="reflect"
       x1="226.48224"
       y1="251.92061"
       x2="249.44826"
       y2="252.5482" />
    <linearGradient
       inkscape:collect="always"
       xlink:href="#linearGradient3765"
       id="linearGradient3864"
       gradientUnits="userSpaceOnUse"
       x1="17.757229"
       y1="183.52803"
       x2="17.757229"
       y2="256.24783" />
    <linearGradient
       inkscape:collect="always"
       xlink:href="#linearGradient3773"
       id="linearGradient3866"
       gradientUnits="userSpaceOnUse"
       x1="66.089592"
       y1="264.76553"
       x2="67.0896"
       y2="173.91013" />
    <linearGradient
       inkscape:collect="always"
       xlink:href="#linearGradient3851"
       id="linearGradient3868"
       gradientUnits="userSpaceOnUse"
       gradientTransform="matrix(0.82699483,0,0,0.82699483,-100.84689,27.344659)"
       spreadMethod="reflect"
       x1="218.4319"
       y1="236.05972"
       x2="354.07419"
       y2="234.59987" />
    <linearGradient
       inkscape:collect="always"
       xlink:href="#linearGradient3773"
       id="linearGradient3870"
       gradientUnits="userSpaceOnUse"
       x1="66.089592"
       y1="264.76553"
       x2="67.0896"
       y2="173.91013" />
    <linearGradient
       inkscape:collect="always"
       xlink:href="#linearGradient3757"
       id="linearGradient3872"
       gradientUnits="userSpaceOnUse"
       gradientTransform="matrix(0.82699483,0,0,0.60822815,-100.84689,80.374138)"
       spreadMethod="reflect"
       x1="226.48224"
       y1="251.92061"
       x2="249.44826"
       y2="252.5482" />
    <linearGradient
       inkscape:collect="always"
       xlink:href="#linearGradient3757"
       id="linearGradient3874"
       gradientUnits="userSpaceOnUse"
       gradientTransform="matrix(-0.82699483,0,0,0.6334491,365.06232,74.617591)"
       spreadMethod="reflect"
       x1="229.62024"
       y1="253.17581"
       x2="266.18427"
       y2="254.2218" />
    <radialGradient
       inkscape:collect="always"
       xlink:href="#linearGradient3815"
       id="radialGradient3876"
       gradientUnits="userSpaceOnUse"
       gradientTransform="matrix(1,0,0,0.28322862,0,157.8256)"
       spreadMethod="reflect"
       cx="-39.669415"
       cy="149.72612"
       fx="-39.669415"
       fy="149.72612"
       r="126.75981" />
    <linearGradient
       inkscape:collect="always"
       xlink:href="#linearGradient3773"
       id="linearGradient3879"
       gradientUnits="userSpaceOnUse"
       x1="66.089592"
       y1="264.76553"
       x2="67.0896"
       y2="173.91013" />
    <linearGradient
       inkscape:collect="always"
       xlink:href="#linearGradient3824"
       id="linearGradient3881"
       gradientUnits="userSpaceOnUse"
       gradientTransform="matrix(0.82699483,0,0,0.862037,114.19173,14.733697)"
       spreadMethod="reflect"
       x1="66.089592"
       y1="264.76553"
       x2="144.09691"
       y2="234.13206" />
    <linearGradient
       inkscape:collect="always"
       xlink:href="#linearGradient3851"
       id="linearGradient3961"
       gradientUnits="userSpaceOnUse"
       spreadMethod="reflect"
       x1="-192.23256"
       y1="350.20343"
       x2="-180.90938"
       y2="296.33984" />
    <linearGradient
       inkscape:collect="always"
       xlink:href="#linearGradient3947"
       id="linearGradient3963"
       gradientUnits="userSpaceOnUse"
       x1="-256.45405"
       y1="139.83815"
       x2="-117.92745"
       y2="139.83815" />
    <linearGradient
       inkscape:collect="always"
       xlink:href="#linearGradient3906"
       id="linearGradient3965"
       gradientUnits="userSpaceOnUse"
       spreadMethod="reflect"
       x1="-255.70406"
       y1="139.83815"
       x2="-205.68785"
       y2="176.27921" />
    <linearGradient
       inkscape:collect="always"
       xlink:href="#linearGradient3906"
       id="linearGradient3967"
       gradientUnits="userSpaceOnUse"
       spreadMethod="reflect"
       x1="-255.70406"
       y1="139.83815"
       x2="-205.68785"
       y2="176.27921" />
    <linearGradient
       inkscape:collect="always"
       xlink:href="#linearGradient3851"
       id="linearGradient3969"
       gradientUnits="userSpaceOnUse"
       spreadMethod="reflect"
       x1="-69.751083"
       y1="389.56958"
       x2="-65.096169"
       y2="308.18231" />
    <linearGradient
       inkscape:collect="always"
       xlink:href="#linearGradient3851"
       id="linearGradient3850"
       gradientUnits="userSpaceOnUse"
       spreadMethod="reflect"
       x1="-69.751083"
       y1="389.56958"
       x2="-65.096169"
       y2="308.18231"
       gradientTransform="matrix(1,0.02486862,0,1,11.542195,-217.79508)" />
    <linearGradient
       inkscape:collect="always"
       xlink:href="#linearGradient3851"
       id="linearGradient3855"
       gradientUnits="userSpaceOnUse"
       spreadMethod="reflect"
       x1="-192.23256"
       y1="350.20343"
       x2="-180.90938"
       y2="296.33984"
       gradientTransform="matrix(1,0.02486862,0,1,11.542195,-217.79508)" />
    <linearGradient
       inkscape:collect="always"
       xlink:href="#linearGradient3906"
       id="linearGradient3857"
       gradientUnits="userSpaceOnUse"
       spreadMethod="reflect"
       x1="-255.70406"
       y1="139.83815"
       x2="-205.68785"
       y2="176.27921" />
    <linearGradient
       inkscape:collect="always"
       xlink:href="#linearGradient3757"
       id="linearGradient3869"
       x1="-220.78151"
       y1="45.160995"
       x2="-189.4104"
       y2="135.61926"
       gradientUnits="userSpaceOnUse" />
    <linearGradient
       inkscape:collect="always"
       xlink:href="#linearGradient3851"
       id="linearGradient3880"
       gradientUnits="userSpaceOnUse"
       gradientTransform="matrix(1,0.02486862,0,1,11.542195,-217.79508)"
       spreadMethod="reflect"
       x1="-192.23256"
       y1="350.20343"
       x2="-180.90938"
       y2="296.33984" />
    <linearGradient
       inkscape:collect="always"
       xlink:href="#linearGradient3947"
       id="linearGradient3882"
       gradientUnits="userSpaceOnUse"
       x1="-256.45405"
       y1="139.83815"
       x2="-117.92745"
       y2="139.83815" />
    <linearGradient
       inkscape:collect="always"
       xlink:href="#linearGradient3906"
       id="linearGradient3885"
       gradientUnits="userSpaceOnUse"
       spreadMethod="reflect"
       x1="-255.70406"
       y1="139.83815"
       x2="-205.68785"
       y2="176.27921" />
    <linearGradient
       inkscape:collect="always"
       xlink:href="#linearGradient3906"
       id="linearGradient3887"
       gradientUnits="userSpaceOnUse"
       spreadMethod="reflect"
       x1="-255.70406"
       y1="139.83815"
       x2="-205.68785"
       y2="176.27921" />
    <linearGradient
       inkscape:collect="always"
       xlink:href="#linearGradient3851"
       id="linearGradient3889"
       gradientUnits="userSpaceOnUse"
       gradientTransform="matrix(1,0.02486862,0,1,11.542195,-217.79508)"
       spreadMethod="reflect"
       x1="-69.751083"
       y1="389.56958"
       x2="-65.096169"
       y2="308.18231" />
    <linearGradient
       inkscape:collect="always"
       xlink:href="#linearGradient3757"
       id="linearGradient3891"
       gradientUnits="userSpaceOnUse"
       x1="-220.78151"
       y1="45.160995"
       x2="-189.4104"
       y2="135.61926" />
    <linearGradient
       inkscape:collect="always"
       xlink:href="#linearGradient3851"
       id="linearGradient3107"
       gradientUnits="userSpaceOnUse"
       gradientTransform="matrix(1,0.02486862,0,1,11.542195,-217.79508)"
       spreadMethod="reflect"
       x1="-192.23256"
       y1="350.20343"
       x2="-180.90938"
       y2="296.33984" />
    <linearGradient
       inkscape:collect="always"
       xlink:href="#linearGradient3947"
       id="linearGradient3109"
       gradientUnits="userSpaceOnUse"
       x1="-256.45405"
       y1="139.83815"
       x2="-117.92745"
       y2="139.83815" />
    <linearGradient
       inkscape:collect="always"
       xlink:href="#linearGradient3906"
       id="linearGradient3111"
       gradientUnits="userSpaceOnUse"
       spreadMethod="reflect"
       x1="-255.70406"
       y1="139.83815"
       x2="-205.68785"
       y2="176.27921" />
    <linearGradient
       inkscape:collect="always"
       xlink:href="#linearGradient3906"
       id="linearGradient3113"
       gradientUnits="userSpaceOnUse"
       spreadMethod="reflect"
       x1="-255.70406"
       y1="139.83815"
       x2="-205.68785"
       y2="176.27921" />
    <linearGradient
       inkscape:collect="always"
       xlink:href="#linearGradient3851"
       id="linearGradient3115"
       gradientUnits="userSpaceOnUse"
       gradientTransform="matrix(1,0.02486862,0,1,11.542195,-217.79508)"
       spreadMethod="reflect"
       x1="-69.751083"
       y1="389.56958"
       x2="-65.096169"
       y2="308.18231" />
    <linearGradient
       inkscape:collect="always"
       xlink:href="#linearGradient3757"
       id="linearGradient3117"
       gradientUnits="userSpaceOnUse"
       x1="-220.78151"
       y1="45.160995"
       x2="-189.4104"
       y2="135.61926" />
    <linearGradient
       inkscape:collect="always"
       xlink:href="#linearGradient3851"
       id="linearGradient3927"
       gradientUnits="userSpaceOnUse"
       gradientTransform="matrix(1,0.02486862,0,1,11.542195,-217.79508)"
       spreadMethod="reflect"
       x1="-192.23256"
       y1="350.20343"
       x2="-180.90938"
       y2="296.33984" />
    <linearGradient
       inkscape:collect="always"
       xlink:href="#linearGradient3947"
       id="linearGradient3929"
       gradientUnits="userSpaceOnUse"
       x1="-256.45405"
       y1="139.83815"
       x2="-117.92745"
       y2="139.83815" />
    <linearGradient
       inkscape:collect="always"
       xlink:href="#linearGradient3906"
       id="linearGradient3931"
       gradientUnits="userSpaceOnUse"
       spreadMethod="reflect"
       x1="-255.70406"
       y1="139.83815"
       x2="-205.68785"
       y2="176.27921" />
    <linearGradient
       inkscape:collect="always"
       xlink:href="#linearGradient3906"
       id="linearGradient3933"
       gradientUnits="userSpaceOnUse"
       spreadMethod="reflect"
       x1="-255.70406"
       y1="139.83815"
       x2="-205.68785"
       y2="176.27921" />
    <linearGradient
       inkscape:collect="always"
       xlink:href="#linearGradient3851"
       id="linearGradient3935"
       gradientUnits="userSpaceOnUse"
       gradientTransform="matrix(1,0.02486862,0,1,11.542195,-217.79508)"
       spreadMethod="reflect"
       x1="-69.751083"
       y1="389.56958"
       x2="-65.096169"
       y2="308.18231" />
    <linearGradient
       inkscape:collect="always"
       xlink:href="#linearGradient3757"
       id="linearGradient3937"
       gradientUnits="userSpaceOnUse"
       x1="-220.78151"
       y1="45.160995"
       x2="-189.4104"
       y2="135.61926" />
    <linearGradient
       inkscape:collect="always"
       xlink:href="#linearGradient3851"
       id="linearGradient3144"
       gradientUnits="userSpaceOnUse"
       gradientTransform="matrix(1,0.02486862,0,1,11.542195,-217.79508)"
       spreadMethod="reflect"
       x1="-192.23256"
       y1="350.20343"
       x2="-180.90938"
       y2="296.33984" />
    <linearGradient
       inkscape:collect="always"
       xlink:href="#linearGradient3947"
       id="linearGradient3146"
       gradientUnits="userSpaceOnUse"
       x1="-256.45405"
       y1="139.83815"
       x2="-117.92745"
       y2="139.83815" />
    <linearGradient
       inkscape:collect="always"
       xlink:href="#linearGradient3906"
       id="linearGradient3148"
       gradientUnits="userSpaceOnUse"
       spreadMethod="reflect"
       x1="-255.70406"
       y1="139.83815"
       x2="-205.68785"
       y2="176.27921" />
    <linearGradient
       inkscape:collect="always"
       xlink:href="#linearGradient3906"
       id="linearGradient3150"
       gradientUnits="userSpaceOnUse"
       spreadMethod="reflect"
       x1="-255.70406"
       y1="139.83815"
       x2="-205.68785"
       y2="176.27921" />
    <linearGradient
       inkscape:collect="always"
       xlink:href="#linearGradient3851"
       id="linearGradient3152"
       gradientUnits="userSpaceOnUse"
       gradientTransform="matrix(1,0.02486862,0,1,11.542195,-217.79508)"
       spreadMethod="reflect"
       x1="-69.751083"
       y1="389.56958"
       x2="-65.096169"
       y2="308.18231" />
    <linearGradient
       inkscape:collect="always"
       xlink:href="#linearGradient3757"
       id="linearGradient3154"
       gradientUnits="userSpaceOnUse"
       x1="-220.78151"
       y1="45.160995"
       x2="-189.4104"
       y2="135.61926" />
    <linearGradient
       inkscape:collect="always"
       xlink:href="#linearGradient3930"
       id="linearGradient3936"
       x1="-62.678165"
       y1="151.72951"
       x2="-81.259262"
       y2="138.58783"
       gradientUnits="userSpaceOnUse"
       spreadMethod="reflect" />
    <linearGradient
       inkscape:collect="always"
       xlink:href="#linearGradient3938"
       id="linearGradient3944"
       x1="-37.428139"
       y1="112.60962"
       x2="-46.736012"
       y2="97.414551"
       gradientUnits="userSpaceOnUse"
       spreadMethod="reflect" />
    <linearGradient
       inkscape:collect="always"
       xlink:href="#linearGradient3938"
       id="linearGradient3952"
       x1="-18.724421"
       y1="159.91466"
       x2="-30.843687"
       y2="129.93518"
       gradientUnits="userSpaceOnUse"
       spreadMethod="reflect" />
    <linearGradient
       inkscape:collect="always"
       xlink:href="#linearGradient4300"
       id="linearGradient3985"
       gradientUnits="userSpaceOnUse"
       spreadMethod="reflect"
       x1="-33.629681"
       y1="126.71818"
       x2="-48.906559"
       y2="103.38355"
       gradientTransform="matrix(1.0845298,0,0,1.0845298,-19.850527,152.2253)" />
    <linearGradient
       inkscape:collect="always"
       xlink:href="#linearGradient4373"
       id="linearGradient3987"
       gradientUnits="userSpaceOnUse"
       spreadMethod="reflect"
       x1="-21.200788"
       y1="172.66663"
       x2="-31.397303"
       y2="132.35509"
       gradientTransform="matrix(1.0845298,0,0,1.0845298,-19.850527,152.2253)" />
    <linearGradient
       inkscape:collect="always"
       xlink:href="#linearGradient979"
       id="linearGradient4329"
       gradientUnits="userSpaceOnUse"
       gradientTransform="matrix(1.0845298,0.02697076,0,1.056953,-20.256785,-3.4676586)"
       spreadMethod="reflect"
       x1="-255.70406"
       y1="139.83815"
       x2="-239.60265"
       y2="152.08887" />
    <linearGradient
       inkscape:collect="always"
       xlink:href="#linearGradient3757"
       id="linearGradient4331"
       gradientUnits="userSpaceOnUse"
       gradientTransform="matrix(1.0845298,0.02697076,0,1.056953,-20.256783,-2.8791525)"
       x1="-220.78151"
       y1="45.160995"
       x2="-194.83676"
       y2="117.9403" />
    <linearGradient
       inkscape:collect="always"
       xlink:href="#linearGradient979"
       id="linearGradient4369"
       gradientUnits="userSpaceOnUse"
       gradientTransform="matrix(1.0845298,0.02697076,0,1.056953,319.60529,-8.1757041)"
       spreadMethod="reflect"
       x1="-255.70406"
       y1="139.83815"
       x2="-239.60265"
       y2="152.08887" />
    <linearGradient
       inkscape:collect="always"
       xlink:href="#linearGradient3757"
       id="linearGradient4371"
       gradientUnits="userSpaceOnUse"
       gradientTransform="matrix(1.0845298,0.02697076,0,1.056953,-20.256783,-2.8791525)"
       x1="-220.78151"
       y1="45.160995"
       x2="-194.83676"
       y2="117.9403" />
    <linearGradient
       inkscape:collect="always"
       xlink:href="#linearGradient4289"
       id="linearGradient4295"
       x1="-105.40704"
       y1="289.73328"
       x2="-123.58813"
       y2="247.0666"
       gradientUnits="userSpaceOnUse"
       spreadMethod="reflect" />
  </defs>
  <sodipodi:namedview
     pagecolor="#ff0000"
     bordercolor="#666666"
     borderopacity="1"
     objecttolerance="10"
     gridtolerance="10"
     guidetolerance="10"
     inkscape:pageopacity="0"
     inkscape:pageshadow="2"
     inkscape:window-width="1920"
     inkscape:window-height="1056"
     id="namedview4"
     showgrid="false"
     inkscape:zoom="3.4414062"
     inkscape:cx="128"
     inkscape:cy="128"
     inkscape:window-x="0"
     inkscape:window-y="0"
     inkscape:window-maximized="1"
     inkscape:current-layer="svg2"
     inkscape:snap-to-guides="false"
     inkscape:snap-grids="false"
     inkscape:snap-others="false"
     inkscape:object-nodes="false"
     inkscape:snap-nodes="false"
     inkscape:snap-global="false" />
  <g
     id="g3846"
     transform="translate(-2.6635838,4.7352601)">
    <path
       sodipodi:nodetypes="ccccc"
       inkscape:connector-curvature="0"
       id="path3807"
       d="m 54.736434,189.87309 c 11.34321,-2.98591 45.458516,-11.09467 58.887356,-9.85865 l -0.88646,-4.41695 c -12.71639,0.16462 -45.30945,4.76633 -58.433689,9.79607 z"
       style="opacity:0.6;fill:url(#linearGradient3860);fill-opacity:1;stroke:none" />
    <path
       style="fill:url(#linearGradient3862);fill-opacity:1;stroke:none"
       d="m 225.18456,193.8499 c -10.99552,-4.57681 -21.97894,-7.51195 -35.15989,-9.58669 l 1.51764,-4.32005 c 13.50116,1.50274 24.01737,6.30605 34.7842,10.30907 z"
       id="path3803"
       inkscape:connector-curvature="0"
       sodipodi:nodetypes="ccccc" />
    <path
       sodipodi:nodetypes="ccccc"
       inkscape:connector-curvature="0"
       id="path3781"
       d="m 29.95332,202.76883 0.295954,6.78299 c 17.429155,-41.66727 194.671716,-41.85651 208.155156,0 l -0.29595,-6.50171 C 231.10287,165.65974 39.311097,165.15265 29.95332,202.76883 z"
       style="fill:#7b97c2;fill-opacity:0.33193276;stroke:none" />
    <path
       transform="matrix(0.82699483,0,0,0.862037,115.18046,19.830364)"
       d="M 150.34451,220.18959 A 125.78035,34.922543 0 0 1 24.564161,255.11213 125.78035,34.922543 0 0 1 -101.21619,220.18959 125.78035,34.922543 0 0 1 24.564161,185.26705 125.78035,34.922543 0 0 1 150.34451,220.18959 Z"
       sodipodi:ry="34.922543"
       sodipodi:rx="125.78035"
       sodipodi:cy="220.18959"
       sodipodi:cx="24.564161"
       id="path3755"
       style="fill:url(#linearGradient3864);fill-opacity:1;stroke:url(#linearGradient3866);stroke-width:1.95892787;stroke-miterlimit:4;stroke-opacity:0.42738588;stroke-dasharray:none"
       sodipodi:type="arc" />
    <path
       style="fill:url(#linearGradient3868);fill-opacity:1;stroke:none"
       d="m 29.982648,213.06881 0.06684,-8.22029 c 13.101763,40.12356 195.926662,39.62893 207.496412,1.43728 l 0.59191,6.50172 C 231.1322,250.1779 39.340425,250.68498 29.982648,213.06881 z"
       id="path3783"
       inkscape:connector-curvature="0"
       sodipodi:nodetypes="ccccc" />
    <path
       sodipodi:type="arc"
       style="fill:none;stroke:url(#linearGradient3870);stroke-width:1.95892787;stroke-miterlimit:4;stroke-opacity:0.42738588;stroke-dasharray:none"
       id="path3785"
       sodipodi:cx="24.564161"
       sodipodi:cy="220.18959"
       sodipodi:rx="125.78035"
       sodipodi:ry="34.922543"
       d="M 150.34451,220.18959 A 125.78035,34.922543 0 0 1 24.564161,255.11213 125.78035,34.922543 0 0 1 -101.21619,220.18959 125.78035,34.922543 0 0 1 24.564161,185.26705 125.78035,34.922543 0 0 1 150.34451,220.18959 Z"
       transform="matrix(0.82699483,0,0,0.88958816,114.51701,13.92547)" />
    <path
       sodipodi:nodetypes="ccccc"
       inkscape:connector-curvature="0"
       id="path3789"
       d="m 68.008438,227.80985 c 11.495889,2.2898 23.526195,5.87838 36.864872,6.13522 l -0.34601,4.77863 c -13.505206,-0.50428 -25.079598,-2.40682 -35.68238,-5.02282 z"
       style="fill:url(#linearGradient3872);fill-opacity:1;stroke:none" />
    <path
       style="fill:url(#linearGradient3874);fill-opacity:1;stroke:none"
       d="m 203.81933,227.63684 c -11.34321,2.11718 -44.49242,8.05513 -57.98607,6.59676 l -0.14445,5.49147 c 12.95907,0.45089 46.3116,-4.40142 58.37491,-7.44429 z"
       id="path3799"
       inkscape:connector-curvature="0"
       sodipodi:nodetypes="ccccc" />
    <path
       sodipodi:type="arc"
       style="fill:url(#radialGradient3876);fill-opacity:1;stroke:url(#linearGradient3879);stroke-width:1.95892787;stroke-miterlimit:4;stroke-opacity:0.42738588;stroke-dasharray:none"
       id="path3811"
       sodipodi:cx="24.564161"
       sodipodi:cy="220.18959"
       sodipodi:rx="125.78035"
       sodipodi:ry="34.922543"
       d="M 150.34451,220.18959 A 125.78035,34.922543 0 0 1 24.564161,255.11213 125.78035,34.922543 0 0 1 -101.21619,220.18959 125.78035,34.922543 0 0 1 24.564161,185.26705 125.78035,34.922543 0 0 1 150.34451,220.18959 Z"
       transform="matrix(0.82699483,0,0,0.862037,114.12171,14.436903)" />
    <path
       sodipodi:nodetypes="csc"
       inkscape:connector-curvature="0"
       id="path3821"
       d="m 238.52586,204.54527 c 0,16.62627 -46.5712,30.10452 -104.0197,30.10452 -57.448495,0 -104.019702,-13.47825 -104.019702,-30.10452"
       style="fill:none;stroke:url(#linearGradient3881);stroke-width:0.82699484;stroke-miterlimit:4;stroke-opacity:0.42738588;stroke-dasharray:none" />
  </g>
  <g
     id="g4395"
     transform="translate(236.28506,-21.774713)">
    <path
       sodipodi:nodetypes="ccccc"
       inkscape:connector-curvature="0"
       id="path3818"
       d="m -166.39747,33.976557 2.64213,-1.321069 c 0.54708,-2.31697 2.20156,-4.950025 6.72545,-6.32512 -3.30646,0.186674 -5.22102,1.437738 -6.72545,3.00243 -1.98116,1.479141 -2.33197,3.06018 -2.64213,4.643759 z"
       style="fill:url(#linearGradient3858);fill-opacity:1;stroke:none" />
    <path
       style="opacity:0.77083333;fill:url(#linearGradient3916);fill-opacity:1;stroke:none"
       d="m -160.45432,216.88349 3.31276,-1.37079 128.16928,12.33715 -4.45508,1.14234 z"
       id="path3914"
       inkscape:connector-curvature="0" />
    <path
       style="fill:url(#linearGradient3902);fill-opacity:1;stroke:none"
       d="m -33.85801,229.43036 c 3.22056,1.30219 7.76972,-3.23263 8.1687,-6.41288 l 3.01979,-2.24417 c 0.63231,4.07648 -2.777,8.03896 -7.56896,9.56853 z"
       id="path3900"
       inkscape:connector-curvature="0"
       sodipodi:nodetypes="ccccc" />
    <rect
       transform="matrix(0.99529408,0.09690046,0,1,0,0)"
       ry="7.8473959"
       y="40.676853"
       x="-167.1497"
       height="189.54471"
       width="141.61775"
       id="rect3863"
       style="opacity:0.6;fill:#123e50;fill-opacity:0.47302904;stroke:#b6ccd6;stroke-width:1.65789521;stroke-miterlimit:4;stroke-dasharray:none;stroke-opacity:0.42738588" />
    <path
       style="fill:#204757;fill-opacity:0.19230772;stroke:none"
       d="m -166.22733,33.963239 3.83675,-1.918377 -1.27891,173.932758 -3.19729,2.77098 z"
       id="path3888"
       inkscape:connector-curvature="0"
       sodipodi:nodetypes="ccccc" />
    <rect
       style="opacity:0.6;fill:url(#linearGradient3873);fill-opacity:1;stroke:#b6ccd6;stroke-width:1.65789521;stroke-miterlimit:4;stroke-dasharray:none;stroke-opacity:0.42738588"
       id="rect3865"
       width="141.61775"
       height="189.54471"
       x="-167.82106"
       y="42.263706"
       ry="7.8473959"
       transform="matrix(0.99529408,0.09690046,0,1,0,0)" />
    <path
       sodipodi:nodetypes="sssccss"
       inkscape:connector-curvature="0"
       id="rect3875"
       d="m -159.22085,28.23514 125.33039,12.201994 c 4.327,0.42127 7.81046,4.260354 7.81046,8.607811 l 0,90.848605 C -103.79526,33.989209 -139.96385,42.842235 -167.03131,84.820982 l 0,-49.498863 c 0,-4.347457 3.48347,-7.508249 7.81046,-7.086979 z"
       style="opacity:0.6;fill:url(#linearGradient3884);fill-opacity:1;stroke:none" />
    <path
       sodipodi:nodetypes="ccccc"
       inkscape:connector-curvature="0"
       id="path3886"
       d="m -25.75958,47.391871 3.83676,-1.918377 -0.63946,175.424836 -3.19729,2.13152 z"
       style="fill:#204757;fill-opacity:0.34615389;stroke:none" />
    <path
       sodipodi:nodetypes="ccccc"
       inkscape:connector-curvature="0"
       id="path3890"
       d="m -33.64623,40.357825 c 3.22057,-1.302188 7.47136,3.898922 7.87034,7.079181 l 3.75453,-1.931355 c -0.28018,-2.408813 -2.55261,-6.543514 -6.93551,-7.066202 z"
       style="fill:url(#linearGradient3898);fill-opacity:1;stroke:none" />
    <path
       inkscape:connector-curvature="0"
       id="path3904"
       d="m -160.45432,27.579207 3.31276,-1.370794 128.16928,12.33715 -4.45508,1.142328 z"
       style="fill:url(#linearGradient3912);fill-opacity:1;stroke:none" />
  </g>
  <path
     style="fill:#b2d5ef;fill-opacity:0.26556020000000002;stroke:none;opacity:0.42916667"
     d="m 58.006936,229.36416 c 30.115885,-11.10236 68.730184,-10.00114 89.378034,8.87861 -26.43853,1.79799 -63.827361,-2.01303 -89.378034,-8.87861 z"
     id="path3973"
     inkscape:connector-curvature="0"
     sodipodi:nodetypes="ccc" />
  <path
     style="fill:none;stroke:#9ed0e5;stroke-width:1px;stroke-linecap:butt;stroke-linejoin:miter;stroke-opacity:0.49377590999999998;opacity:0.42916667"
     d="m 58.30289,229.66012 c 26.387886,-6.40373 55.994,-17.02705 88.78613,7.69479"
     id="path3977"
     inkscape:connector-curvature="0"
     sodipodi:nodetypes="cc" />
  <path
     sodipodi:nodetypes="ccc"
     inkscape:connector-curvature="0"
     id="path3979"
     d="m 61.237503,230.97251 c 30.007522,-11.392 68.630637,-10.66286 89.459427,8.01709 -26.41999,2.05263 -63.843793,-1.398 -89.459427,-8.01709 z"
     style="fill:#b2d5ef;fill-opacity:0.26556020000000002;stroke:none;opacity:0.42916667" />
  <path
     sodipodi:nodetypes="cc"
     inkscape:connector-curvature="0"
     id="path3981"
     d="m 61.536295,231.26561 c 26.324964,-6.65767 55.827345,-17.56574 88.856145,6.83902"
     style="fill:none;stroke:#9ed0e5;stroke-width:1px;stroke-linecap:butt;stroke-linejoin:miter;stroke-opacity:0.49377591;opacity:0.266" />
  <path
     style="fill:none;stroke:#9ac0cc;stroke-width:1px;stroke-linecap:butt;stroke-linejoin:miter;stroke-opacity:0.48132779999999997;opacity:0.225"
     d="m 209.83122,229.06821 1.47976,-15.68555 c -0.52634,-2.14678 -0.6362,-4.41256 -6.51098,-5.03121 L 75.468208,196.21734 c -4.434047,0.69161 -5.370587,2.08273 -5.919075,3.55145 l -2.36763,33.14682"
     id="path3983"
     inkscape:connector-curvature="0"
     sodipodi:nodetypes="cccccc" />
  <path
     sodipodi:nodetypes="ccccccc"
     inkscape:connector-curvature="0"
     id="path3985"
     d="m 75.764162,195.32948 c -4.434047,0.69161 -5.370587,2.08273 -5.919075,3.55145 l -2.36763,33.14682 c 40.143873,8.14396 91.897183,9.53789 142.649723,-3.8474 l 1.47976,-15.68555 c -0.52634,-2.14678 -0.6362,-4.41256 -6.51098,-5.03121 z"
     style="fill:#b2d5ef;fill-opacity:0.25726145000000000;stroke:none;opacity:0.225" />
  <path
     sodipodi:nodetypes="cccccc"
     inkscape:connector-curvature="0"
     id="path3987"
     d="m 212.79076,226.99653 1.47976,-15.68555 c -0.52634,-2.14678 -0.6362,-4.41256 -6.51098,-5.03121 L 78.427746,194.14566 c -4.434047,0.69161 -5.370587,2.08273 -5.919075,3.55145 l -2.36763,33.14682"
     style="fill:none;stroke:#9ac0cc;stroke-width:1px;stroke-linecap:butt;stroke-linejoin:miter;stroke-opacity:0.48132778999999998;opacity:0.225" />
  <path
     style="fill:#b2d5ef;fill-opacity:0.25726145000000000;stroke:none;opacity:0.225"
     d="m 78.7237,193.2578 c -4.434047,0.69161 -5.370587,2.08273 -5.919075,3.55145 l -2.36763,33.14682 c 40.143875,8.14396 91.897185,9.53789 142.649725,-3.8474 l 1.47976,-15.68555 c -0.52634,-2.14678 -0.6362,-4.41256 -6.51098,-5.03121 z"
     id="path3989"
     inkscape:connector-curvature="0"
     sodipodi:nodetypes="ccccccc" />
  <g
     id="g4359"
     transform="translate(354.86897,-12.35862)">
    <path
       style="opacity:0.77083333;fill:#608596;fill-opacity:0.31535274;stroke:url(#linearGradient4329);stroke-width:1.60597897;stroke-miterlimit:4;stroke-dasharray:none"
       d="m -223.27166,55.296821 a 84.082022,74.222753 84.933187 0 0 -74.30469,82.140629 84.082022,74.222753 84.933187 0 0 74.30469,85.83789 84.082022,74.222753 84.933187 0 0 74.30469,-82.14063 84.082022,74.222753 84.933187 0 0 -74.30469,-85.837889 z m 19.79492,12.087891 a 19.567816,22.363218 0 0 1 19.56836,22.363281 19.567816,22.363218 0 0 1 -19.56836,22.363287 19.567816,22.363218 0 0 1 -19.5664,-22.363287 19.567816,22.363218 0 0 1 19.5664,-22.363281 z m -47.37305,3.236328 a 19.567816,22.363218 0 0 1 19.56641,22.363281 19.567816,22.363218 0 0 1 -19.56641,22.363279 19.567816,22.363218 0 0 1 -19.56836,-22.363279 19.567816,22.363218 0 0 1 19.56836,-22.363281 z m 75.03321,42.66602 a 19.567816,22.363218 0 0 1 19.56836,22.36328 19.567816,22.363218 0 0 1 -19.56836,22.36328 19.567816,22.363218 0 0 1 -19.56641,-22.36328 19.567816,22.363218 0 0 1 19.56641,-22.36328 z m -96.8086,11.47656 a 19.567816,22.363218 0 0 1 19.56836,22.36328 19.567816,22.363218 0 0 1 -19.56836,22.36328 19.567816,22.363218 0 0 1 -19.56836,-22.36328 19.567816,22.363218 0 0 1 19.56836,-22.36328 z m 76.50586,35.31055 a 19.567816,22.363218 0 0 1 19.56836,22.36328 19.567816,22.363218 0 0 1 -19.56836,22.36328 19.567816,22.363218 0 0 1 -19.56836,-22.36328 19.567816,22.363218 0 0 1 19.56836,-22.36328 z m -45.90429,6.76757 a 19.567816,22.363218 0 0 1 19.56836,22.36329 19.567816,22.363218 0 0 1 -19.56836,22.36328 19.567816,22.363218 0 0 1 -19.56641,-22.36328 19.567816,22.363218 0 0 1 19.56641,-22.36329 z"
       id="ellipse4325"
       inkscape:connector-curvature="0" />
    <path
       style="opacity:0.77083333;fill:url(#linearGradient4331);fill-opacity:1;stroke:none"
       d="m -225.18768,55.865796 c -40.151,0.151315 -72.38867,36.498941 -72.38867,82.160164 8.71868,-15.31234 18.78083,-26.62947 30.16992,-33.72461 a 19.567816,22.363218 0 0 1 -2.42382,-10.728523 19.567816,22.363218 0 0 1 19.56836,-22.363281 19.567816,22.363218 0 0 1 19.56836,22.363281 19.567816,22.363218 0 0 1 -0.0977,2.21875 c 2.83237,0.262451 5.71885,0.710203 8.66016,1.34375 a 19.567816,22.363218 0 0 1 -1.20704,-7.68164 19.567816,22.363218 0 0 1 19.56836,-22.363281 19.567816,22.363218 0 0 1 19.56836,22.363281 19.567816,22.363218 0 0 1 -9.16797,18.929693 c 13.83638,7.6192 28.63838,18.67933 44.40235,33.33984 0,-46.385991 -33.26733,-84.81735 -74.30469,-85.837893 -0.64121,-0.01595 -1.2787,-0.02193 -1.91602,-0.01953 z"
       id="path4327"
       inkscape:connector-curvature="0" />
  </g>
  <g
     id="g4327"
     transform="translate(223.95025,-160.11268)">
    <path
       sodipodi:nodetypes="ccccscccccc"
       inkscape:connector-curvature="0"
       id="path3889"
       d="m -94.512272,237.15806 c -12.094598,-0.0183 -22.108848,6.35636 -32.889048,11.38388 -21.02703,42.91378 -22.14778,80.69329 29.875929,103.96978 l 24.719008,-12.05137 c 11.857842,-10.22919 22.153021,-25.19694 21.876843,-43.99897 -0.465604,-31.69807 -21.264112,-59.4778 -43.582732,-59.30332 z m -5.700618,32.57632 c 7.534167,-10e-4 13.642287,9.12392 13.642578,20.38085 4.37e-4,11.2577 -6.107896,20.38391 -13.642578,20.38282 -7.53392,-5.1e-4 -13.64107,-9.12625 -13.64063,-20.38282 2.9e-4,-11.2558 6.10722,-20.38034 13.64063,-20.38085 z"
       style="fill:url(#linearGradient3985);fill-opacity:1;stroke:none" />
    <path
       id="path3119"
       d="m -106.99414,242.73828 a 44.454441,55.527927 0 0 0 -44.45508,55.5293 44.454441,55.527927 0 0 0 44.45508,55.52734 44.454441,55.527927 0 0 0 44.455078,-55.52734 44.454441,55.527927 0 0 0 -44.455078,-55.5293 z m -0.0254,34.69141 a 13.641253,20.381638 0 0 1 13.642577,20.38086 13.641253,20.381638 0 0 1 -13.642577,20.38086 13.641253,20.381638 0 0 1 -13.64063,-20.38086 13.641253,20.381638 0 0 1 13.64063,-20.38086 z"
       style="fill:url(#linearGradient4295);fill-opacity:1;stroke:#80c4da;stroke-width:3.25358939;stroke-linecap:round;stroke-linejoin:round;stroke-miterlimit:4;stroke-dasharray:none;stroke-opacity:0.33516487"
       inkscape:connector-curvature="0" />
    <path
       sodipodi:nodetypes="cssccssc"
       inkscape:connector-curvature="0"
       id="path3891"
       d="m -58.994946,265.45015 c 8.646874,22.72077 10.008345,46.15723 12.216397,69.85351 1.006513,10.80166 13.756177,28.01078 22.085316,31.30404 10.801604,4.27085 40.731415,5.19711 50.259202,22.99867 l -26.6715029,3.97876 c -4.5232217,-19.48703 -23.3387161,-15.851 -34.0857471,-20.66355 -9.50658,-4.25707 -20.039792,-8.28548 -26.385434,-25.54612 -5.122881,-13.93463 6.173812,-53.79341 -6.098443,-77.35392"
       style="fill:url(#linearGradient3987);fill-opacity:1;stroke:#87c9df;stroke-width:1.08452976;stroke-opacity:0.54285717" />
  </g>
  <g
     transform="translate(339.86207,-4.7080455)"
     id="g4363">
    <path
       style="opacity:0.77083333;fill:#608596;fill-opacity:0.31535274;stroke:url(#linearGradient4369);stroke-width:1.60597897;stroke-miterlimit:4;stroke-dasharray:none"
       d="M 114.67188 50.568359 C 74.521141 50.719683 42.28554 87.067627 42.285156 132.72852 C 42.284786 179.11479 75.552234 217.54584 116.58984 218.56641 C 157.62692 219.58693 190.89415 182.81145 190.89453 136.42578 C 190.8949 90.03951 157.62745 51.608457 116.58984 50.587891 C 115.94864 50.571945 115.30919 50.565957 114.67188 50.568359 z M 136.38477 62.675781 C 147.19201 62.675438 155.95315 72.68793 155.95312 85.039062 C 155.95316 97.390199 147.19201 107.40268 136.38477 107.40234 C 125.57829 107.40145 116.81833 97.389319 116.81836 85.039062 C 116.81833 72.688806 125.5783 62.676675 136.38477 62.675781 z M 89.011719 65.912109 C 99.818199 65.912996 108.57815 75.92513 108.57812 88.275391 C 108.57816 100.62565 99.818199 110.63778 89.011719 110.63867 C 78.204479 110.63901 69.443329 100.62652 69.443359 88.275391 C 69.443329 75.924259 78.204479 65.911766 89.011719 65.912109 z M 164.04492 108.57812 C 174.85216 108.57779 183.61331 118.59028 183.61328 130.94141 C 183.61331 143.29254 174.85216 153.30503 164.04492 153.30469 C 153.23844 153.3038 144.47849 143.29167 144.47852 130.94141 C 144.47849 118.59115 153.23844 108.57901 164.04492 108.57812 z M 116.81836 116.23047 A 14.712645 21.333334 0 0 1 131.53125 137.5625 A 14.712645 21.333334 0 0 1 116.81836 158.89648 A 14.712645 21.333334 0 0 1 102.10547 137.5625 A 14.712645 21.333334 0 0 1 116.81836 116.23047 z M 67.236328 120.05469 C 78.043568 120.05435 83.568389 129.77387 83.568359 142.125 C 83.568389 154.47613 78.043568 166.84214 67.236328 166.8418 C 56.429088 166.84214 47.667939 154.7691 47.667969 142.41797 C 47.667939 130.06684 56.429088 120.05435 67.236328 120.05469 z M 143.74219 155.36523 C 154.54943 155.36489 163.31058 165.37739 163.31055 177.72852 C 163.31058 190.07965 154.54943 200.09214 143.74219 200.0918 C 132.93495 200.09214 124.1738 190.07965 124.17383 177.72852 C 124.1738 165.37739 132.93495 155.36489 143.74219 155.36523 z M 97.837891 162.13281 C 108.64513 162.13247 117.40628 172.14495 117.40625 184.49609 C 117.40628 196.84722 108.64513 206.85972 97.837891 206.85938 C 87.031411 206.85849 78.271454 196.84635 78.271484 184.49609 C 78.271454 172.14583 87.031411 162.1337 97.837891 162.13281 z "
       transform="translate(-339.86207,4.7080455)"
       id="path4365" />
    <path
       inkscape:connector-curvature="0"
       id="path4367"
       d="m -225.18768,55.865796 c -40.151,0.151315 -72.38867,36.498941 -72.38867,82.160164 8.71868,-15.31234 18.78083,-26.62947 30.16992,-33.72461 a 19.567816,22.363218 0 0 1 -2.42382,-10.728523 19.567816,22.363218 0 0 1 19.56836,-22.363281 19.567816,22.363218 0 0 1 19.56836,22.363281 19.567816,22.363218 0 0 1 -0.0977,2.21875 c 2.83237,0.262451 5.71885,0.710203 8.66016,1.34375 a 19.567816,22.363218 0 0 1 -1.20704,-7.68164 19.567816,22.363218 0 0 1 19.56836,-22.363281 19.567816,22.363218 0 0 1 19.56836,22.363281 19.567816,22.363218 0 0 1 -9.16797,18.929693 c 13.83638,7.6192 28.63838,18.67933 44.40235,33.33984 0,-46.385991 -33.26733,-84.81735 -74.30469,-85.837893 -0.64121,-0.01595 -1.2787,-0.02193 -1.91602,-0.01953 z"
       style="opacity:0.77083333;fill:url(#linearGradient4371);fill-opacity:1;stroke:none" />
  </g>
</svg>
