<?xml version="1.0" encoding="UTF-8" standalone="no"?>
<svg enable-background="new 0 0 116 116" height="128" viewBox="0 0 116 116" width="128" xmlns="http://www.w3.org/2000/svg" xmlns:xlink="http://www.w3.org/1999/xlink">
  <defs>
    <linearGradient id="d">
      <stop offset="0"/>
      <stop offset="1" stop-opacity="0"/>
    </linearGradient>
    <linearGradient id="f">
      <stop offset="0" stop-color="#6c6c6c"/>
      <stop offset="1" stop-color="#6c6c6c" stop-opacity="0"/>
    </linearGradient>
    <linearGradient id="c">
      <stop offset="0" stop-color="#fff"/>
      <stop offset="1" stop-color="#fff" stop-opacity="0"/>
    </linearGradient>
    <linearGradient id="e">
      <stop offset="0" stop-opacity=".377"/>
      <stop offset="1" stop-color="#fff"/>
    </linearGradient>
    <pattern id="o" patternTransform="translate(115.364 -26.536) scale(.14243)" xlink:href="#a"/>
    <pattern id="a" patternTransform="matrix(.11973 0 0 .1188 114.757 -36.505)" xlink:href="#b"/>
    <linearGradient id="l" gradientTransform="matrix(.86912 0 0 .85326 -.81 -26.536)" gradientUnits="userSpaceOnUse" x1="76.307" x2="76.307" y1="153.131" y2="74.321">
      <stop offset="0" stop-color="#a8a8a8"/>
      <stop offset=".61" stop-color="#d4d4d4"/>
      <stop offset="1" stop-color="#e9e9e9"/>
    </linearGradient>
    <filter id="k">
      <feGaussianBlur stdDeviation="1.357"/>
    </filter>
    <clipPath id="p">
      <path d="M-118.95 75.688c-3.06 0-4.888 2.055-5.5 4.437l-4 15.562c-.432 1.678.505 53.25.613 53.833.39 2.1 2.831 3.605 5.511 3.605h112.72c2.477.116 4.822-1.44 5.422-3.156.254-.726.553-49.052.727-53.341.012-.304.044-.617-.025-.94l-3-15.563c-.465-2.415-2.44-4.437-5.5-4.437H-118.95z"/>
    </clipPath>
    <filter id="q" height="2.286" width="1.055" x="-.027" y="-.643">
      <feGaussianBlur stdDeviation="1.423"/>
    </filter>
    <filter id="r" height="1.714" width="1.03" x="-.015" y="-.357">
      <feGaussianBlur stdDeviation=".791"/>
    </filter>
    <filter id="j">
      <feGaussianBlur stdDeviation=".448"/>
    </filter>
    <radialGradient id="u" cx="63.551" cy="102.721" gradientTransform="matrix(2.0974 0 0 .0992 -69.74 92.531)" gradientUnits="userSpaceOnUse" r="55.243" xlink:href="#c"/>
    <filter id="v" height="2.85" width="1.03" x="-.015" y="-.925">
      <feGaussianBlur stdDeviation=".681"/>
    </filter>
    <linearGradient id="n" gradientTransform="matrix(1.01188 0 0 1 -.716 9.969)" gradientUnits="userSpaceOnUse" x1="81.093" x2="81.093" xlink:href="#d" y1="65.335" y2="54.814"/>
    <filter id="t">
      <feGaussianBlur stdDeviation=".417"/>
    </filter>
    <clipPath id="s">
      <path d="M12.78 28.175c-2.632 0-4.213.846-4.73 2.88L4.29 45.84c-.365 1.433.435 44.738.528 45.236.335 1.791 2.434 3.076 4.74 3.076h96.937c2.131.1 4.148-1.228 4.664-2.693.218-.62.476-41.157.625-44.817.01-.26.038-.526-.021-.802l-3.76-14.784c-.518-2.034-2.098-2.88-4.73-2.88H12.78z"/>
    </clipPath>
    <linearGradient id="m" gradientUnits="userSpaceOnUse" x1="91.531" x2="91.531" xlink:href="#e" y1="60.719" y2="96.969"/>
    <filter id="z">
      <feGaussianBlur stdDeviation=".474"/>
    </filter>
    <linearGradient id="A" gradientTransform="matrix(.7285 0 0 .48048 26.229 34.723)" gradientUnits="userSpaceOnUse" x1="103.945" x2="103.945" xlink:href="#c" y1="44.379" y2="118.514"/>
    <radialGradient id="w" cx="87.151" cy="82.215" gradientUnits="userSpaceOnUse" r="16.794">
      <stop offset="0" stop-color="#f4f4f4"/>
      <stop offset="1" stop-color="#e4e4e4"/>
    </radialGradient>
    <radialGradient id="B" cx="11.3" cy="-92.035" gradientTransform="matrix(-1 0 0 -.64837 22.656 -159.36)" gradientUnits="userSpaceOnUse" r="1.359" xlink:href="#c"/>
    <radialGradient id="C" cx="11.3" cy="-92.035" gradientTransform="matrix(-1 0 0 -.64837 28.094 -159.36)" gradientUnits="userSpaceOnUse" r="1.359" xlink:href="#c"/>
    <radialGradient id="D" cx="11.3" cy="-92.035" gradientTransform="matrix(-1 0 0 -.64837 33.531 -159.36)" gradientUnits="userSpaceOnUse" r="1.359" xlink:href="#c"/>
    <radialGradient id="E" cx="11.3" cy="-92.035" gradientTransform="matrix(-1 0 0 -.64837 38.969 -159.36)" gradientUnits="userSpaceOnUse" r="1.359" xlink:href="#c"/>
    <linearGradient id="y" gradientUnits="userSpaceOnUse" x1="98" x2="98" xlink:href="#e" y1="56" y2="96"/>
    <linearGradient id="F" gradientUnits="userSpaceOnUse" x1="27.931" x2="105.536" xlink:href="#d" y1="43.324" y2="43.324"/>
    <filter id="G" height="1.43" width="1.051" x="-.025" y="-.215">
      <feGaussianBlur stdDeviation=".823"/>
    </filter>
    <filter id="H" height="2.498" width="1.09" x="-.045" y="-.749">
      <feGaussianBlur stdDeviation="1.379"/>
    </filter>
    <filter id="I">
      <feGaussianBlur stdDeviation=".512"/>
    </filter>
    <linearGradient id="N" gradientUnits="userSpaceOnUse" x1="53.888" x2="53.888" xlink:href="#f" y1="61.679" y2="47.117"/>
    <linearGradient id="M" gradientUnits="userSpaceOnUse" x1="76.506" x2="76.506" y1="46.853" y2="52.587">
      <stop offset="0" stop-color="#959595"/>
      <stop offset="1" stop-color="#959595" stop-opacity="0"/>
    </linearGradient>
    <filter id="ah" height="1.145" width="1.647" x="-.323" y="-.072">
      <feGaussianBlur stdDeviation=".13"/>
    </filter>
    <filter id="ag" height="2.004" width="1.145" x="-.072" y="-.502">
      <feGaussianBlur stdDeviation=".13"/>
    </filter>
    <filter id="aj" height="1.145" width="1.647" x="-.323" y="-.072">
      <feGaussianBlur stdDeviation=".13"/>
    </filter>
    <filter id="ai" height="2.004" width="1.145" x="-.072" y="-.502">
      <feGaussianBlur stdDeviation=".13"/>
    </filter>
    <filter id="af" height="1.145" width="1.647" x="-.323" y="-.072">
      <feGaussianBlur stdDeviation=".13"/>
    </filter>
    <filter id="ae" height="2.004" width="1.145" x="-.072" y="-.502">
      <feGaussianBlur stdDeviation=".13"/>
    </filter>
    <filter id="aa" height="1.212" width="1.946" x="-.473" y="-.106">
      <feGaussianBlur stdDeviation=".19"/>
    </filter>
    <filter id="ab" height="1.212" width="1.946" x="-.473" y="-.106">
      <feGaussianBlur stdDeviation=".19"/>
    </filter>
    <filter id="X" height="2.47" width="1.212" x="-.106" y="-.735">
      <feGaussianBlur stdDeviation=".19"/>
    </filter>
    <filter id="Z" height="2.47" width="1.212" x="-.106" y="-.735">
      <feGaussianBlur stdDeviation=".19"/>
    </filter>
    <filter id="Y" height="1.212" width="1.946" x="-.473" y="-.106">
      <feGaussianBlur stdDeviation=".19"/>
    </filter>
    <filter id="U" height="1.31" width="1.039" x="-.02" y="-.155">
      <feGaussianBlur stdDeviation=".102"/>
    </filter>
    <filter id="P" height="2.135" width="1.144" x="-.072" y="-.568">
      <feGaussianBlur stdDeviation=".375"/>
    </filter>
    <filter id="R">
      <feGaussianBlur stdDeviation=".03"/>
    </filter>
    <linearGradient id="i">
      <stop offset="0" stop-color="#ff0e0e"/>
      <stop offset="1" stop-color="#930000"/>
    </linearGradient>
    <linearGradient id="h">
      <stop offset="0" stop-color="#14abff"/>
      <stop offset="1" stop-color="#002bac"/>
    </linearGradient>
    <linearGradient id="g">
      <stop offset="0"/>
      <stop offset=".98" stop-color="#3b3b3b" stop-opacity=".941"/>
      <stop offset="1" stop-opacity=".882"/>
    </linearGradient>
    <linearGradient id="ad" gradientTransform="matrix(.7322 0 0 .74113 -208.827 6.373)" gradientUnits="userSpaceOnUse" x1="370.993" x2="370.993" xlink:href="#c" y1="142.37" y2="115.357"/>
    <linearGradient id="ac" gradientTransform="matrix(.66356 0 0 .67165 -208.827 6.373)" gradientUnits="userSpaceOnUse" x1="393.614" x2="393.614" xlink:href="#g" y1="123.044" y2="142.549"/>
    <linearGradient id="W" gradientTransform="matrix(.7322 0 0 .74113 -227.858 6.373)" gradientUnits="userSpaceOnUse" x1="370.993" x2="370.993" xlink:href="#c" y1="142.37" y2="115.357"/>
    <linearGradient id="V" gradientTransform="matrix(.66356 0 0 .67165 -227.858 6.373)" gradientUnits="userSpaceOnUse" x1="393.614" x2="393.614" xlink:href="#g" y1="123.044" y2="142.549"/>
    <radialGradient id="S" cx="97.375" cy="35.375" gradientUnits="userSpaceOnUse" r=".875" xlink:href="#h"/>
    <radialGradient id="T" cx="97.375" cy="35.375" gradientUnits="userSpaceOnUse" r="2.061" xlink:href="#h"/>
    <radialGradient id="O" cx="97.375" cy="35.375" gradientUnits="userSpaceOnUse" r=".875" xlink:href="#i"/>
    <radialGradient id="Q" cx="97.375" cy="35.375" gradientUnits="userSpaceOnUse" r="2.061" xlink:href="#i"/>
    <filter id="x" height="1.128" width="1.212" x="-.106" y="-.064">
      <feGaussianBlur stdDeviation=".407"/>
    </filter>
    <linearGradient id="al" gradientUnits="userSpaceOnUse" x1="96.804" x2="96.804" xlink:href="#f" y1="80.718" y2="105.148"/>
    <linearGradient id="J" gradientUnits="userSpaceOnUse" x1="30.478" x2="30.959" y1="11.763" y2="13.561">
      <stop offset="0" stop-color="#8e8e8e"/>
      <stop offset="1" stop-color="#f8f8f8"/>
    </linearGradient>
    <linearGradient id="K" gradientUnits="userSpaceOnUse" x1="42.936" x2="30.774" xlink:href="#d" y1=".673" y2="21.74"/>
    <linearGradient id="am" gradientTransform="matrix(1.01061 0 0 1 -.611 3.625)" gradientUnits="userSpaceOnUse" x1="4.146" x2="5.457" xlink:href="#d" y1="67.13" y2="67.13"/>
    <linearGradient id="ak" gradientTransform="matrix(-1.01061 0 0 1 116.611 3.625)" gradientUnits="userSpaceOnUse" x1="4.146" x2="5.457" xlink:href="#d" y1="67.13" y2="67.13"/>
    <linearGradient id="ao" gradientUnits="userSpaceOnUse" x1="73.909" x2="73.909" xlink:href="#h" y1="41.906" y2="50.24"/>
    <radialGradient id="an" cx="10.979" cy="-10.704" gradientTransform="matrix(.30104 .22578 -.32955 .4394 23.074 16.725)" gradientUnits="userSpaceOnUse" r="33">
      <stop offset="0" stop-opacity=".333"/>
      <stop offset=".378" stop-opacity=".067"/>
      <stop offset="1" stop-opacity="0"/>
    </radialGradient>
    <radialGradient id="L" cx="96" cy="61.5" gradientTransform="matrix(.90625 0 0 1.09848 0 -14.994)" gradientUnits="userSpaceOnUse" r="33">
      <stop offset="0" stop-color="#f0f0f0"/>
      <stop offset=".2" stop-color="#f7f7f7"/>
      <stop offset="1" stop-color="#f6f6f6"/>
    </radialGradient>
  </defs>
  <path d="M4.122 91.178s.583 3.268 3.012 3.268h102.151c2.246.105 3.38-1.305 3.923-2.86-16.82 2.314-109.086-.408-109.086-.408z" filter="url(#j)" transform="matrix(.91416 0 0 .907 4.812 17.816)"/>
  <path d="M3.13 91.178c.354 1.903 1.575 3.268 4.004 3.268h102.151c2.246.105 3.38-1.305 3.923-2.86C121.73 44.678-4.389 44.12 3.131 91.177z" filter="url(#j)" transform="matrix(.91416 0 0 .907 4.812 18.27)"/>
  <path d="M4.05 91.178c.352 1.903.655 3.268 3.084 3.268h102.151c2.246.105 2.46-1.305 3.004-2.86C97.33 48.331 9.684 44.252 4.05 91.177z" filter="url(#k)" transform="matrix(.94896 0 0 .94153 2.788 16.05)"/>
  <path d="M12.337 38.204c-2.66 0-4.239.85-4.78 2.88l-3.832 14.36c-.381 1.43.44 45.102.534 45.6.338 1.791 2.46 3.076 4.79 3.076h97.966c2.153.099 4.19-1.229 4.712-2.693.221-.62.482-41.52.632-45.18.011-.26.038-.526-.021-.802l-3.831-14.36c-.542-2.03-2.121-2.88-4.78-2.88h-91.39z" fill="url(#l)"/>
  <path d="M89.719 64.344c-10.01 0-18.125 8.115-18.125 18.125s8.115 18.125 18.125 18.125 18.125-8.115 18.125-18.125-8.115-18.125-18.125-18.125zm0 .906c9.51 0 17.219 7.71 17.219 17.219s-7.71 17.219-17.22 17.219c-9.509 0-17.218-7.71-17.218-17.22S80.21 65.25 89.719 65.25z" fill="url(#m)"/>
  <path d="M12.247 38.204c-2.663 0-4.244.85-4.786 2.88l-3.836 14.36c.29 2.4 2.663 2.983 5.33 3.273h98.09c4.012-.645 5.24-.787 5.33-3.272l-3.836-14.36c-.542-2.03-2.123-2.88-4.786-2.88H12.247z" fill="url(#n)" opacity=".168"/>
  <path d="M12.336 38.063c-2.66 0-4.244.849-4.78 2.88L3.724 55.445c-.378 1.43.44 45.101.534 45.598.338 1.792 2.46 3.077 4.79 3.077h97.966c2.154.099 4.192-1.229 4.713-2.693.221-.62.482-41.52.632-45.18.011-.26.038-.526-.021-.802l-3.832-14.502c-.536-2.031-2.12-2.88-4.78-2.88h-91.39z" fill="url(#o)" opacity=".155"/>
  <path clip-path="url(#p)" d="M-128.313 95.58a3.73 3.73 0 0 0-.156 1c0 2.394 2.267 4.312 5.063 4.312H-8.5c2.796 0 5.031-1.918 5.031-4.313 0-.347-.067-.677-.156-1-.527 1.906-2.484 3.313-4.875 3.313h-114.906c-2.391 0-4.38-1.407-4.906-3.313z" fill="#fff" filter="url(#q)" opacity=".757" transform="matrix(.86 0 0 .85326 114.757 -26.536)"/>
  <path clip-path="url(#p)" d="M-128.313 95.58a3.73 3.73 0 0 0-.156 1c0 .824.27 1.53.736 2.101.2.245.238 50.82.506 51.014.215.155.65-50.059.903-49.937.825.397 1.831.607 2.918.607L-8.5 100.26c1.107 0 2.126-.202 2.953-.594.291-.138.437 49.766.676 49.582.174-.135.455-50.347.597-50.506.51-.569.805-1.292.805-2.163 0-.347-.067-.677-.156-1-.527 1.906-2.484 3.313-4.875 3.313h-114.906c-2.391 0-4.38-1.407-4.907-3.313z" fill="#fff" filter="url(#r)" opacity=".807" transform="matrix(.8646 0 0 .85206 115.348 -26.353)"/>
  <path clip-path="url(#s)" d="M12.813 27.969c-1.328 0-2.408.208-3.22.687s-1.36 1.241-1.624 2.282l-3.813 14.5c-.065.257-.056.628-.062 1.03a.114.114 0 0 0 .031.032.114.114 0 0 0 0 .031.114.114 0 0 0 .031.032h.032a.114.114 0 0 0 .03.03.113.113 0 0 0 .032-.03h.031a.113.113 0 0 0 .032-.032.113.113 0 0 0 .03-.031.114.114 0 0 0 0-.031c.014-.293.024-.531.063-.688L8.47 31.25c.253-.999.678-1.685 1.375-2.125s1.664-.625 2.969-.625h90.437c1.304 0 2.248.185 2.938.625s1.121 1.126 1.374 2.125l4.094 14.531a.11.11 0 0 0 .032.032.11.11 0 0 0 .03.03.086.086 0 0 0 .032 0 .11.11 0 0 0 .031.032.115.115 0 0 0 .032-.031h.031a.115.115 0 0 0 .031-.032.163.163 0 0 0 0-.03.115.115 0 0 0 .032-.032c-.002-.072.027-.183 0-.313l-3.813-14.5c-.264-1.04-.814-1.801-1.625-2.28s-1.891-.688-3.219-.688H12.813z" fill="#687b82" filter="url(#t)" opacity=".629" transform="matrix(1.0097 0 0 1 -.509 9.969)"/>
  <path fill="url(#u)" filter="url(#v)" opacity=".366" transform="translate(0 9.969) scale(.90625)" d="M8.309 101.837h110.485v1.768H8.309z"/>
  <path d="M103.945 82.215a16.794 16.794 0 1 1-33.588 0 16.794 16.794 0 1 1 33.588 0z" fill="url(#w)" transform="translate(.363 -1.827) scale(1.0253)"/>
  <path d="M91.238 82.469a1.519 1.519 0 1 1-3.038 0 1.519 1.519 0 1 1 3.038 0z"/>
  <path opacity=".58" d="M91.268 81.119l-6.873 11.904-1.015-.586 6.873-11.904z"/>
  <path opacity=".58" d="M87.527 81.563h17.302v.906H87.527z"/>
  <path d="M-114.01 35.58h17.303v.642h-17.302z" fill-opacity=".272" filter="url(#x)" transform="rotate(-120 2.48 1.469)"/>
  <path d="M96 60c-11.046 0-20 8.954-20 20s8.954 20 20 20 20-8.954 20-20-8.954-20-20-20zm0 1c10.493 0 19 8.507 19 19s-8.507 19-19 19-19-8.507-19-19 8.507-19 19-19z" fill="url(#y)" filter="url(#z)" transform="translate(2.719 9.969) scale(.90625)"/>
  <path d="M90.597 67.062a.878.878 0 1 1-1.756 0 .878.878 0 1 1 1.756 0z"/>
  <path d="M102.754 74.866c-1.722 8.641-26.495 11.564-29.034 4.726.78-8.556 8.088-13.436 15.999-13.436 6.757 0 13.035 4.254 13.035 8.71z" fill="url(#A)"/>
  <path d="M90.597 97.875a.878.878 0 1 1-1.756 0 .878.878 0 1 1 1.756 0zm15.406-15.406a.878.878 0 1 1-1.756 0 .878.878 0 1 1 1.756 0zm-30.813 0a.878.878 0 1 1-1.755 0 .878.878 0 1 1 1.755 0z"/>
  <path d="M90.597 67.062a.878.878 0 1 1-1.756 0 .878.878 0 1 1 1.756 0zM23.834 51.656h64.707l.272 1.813h-65.25z" opacity=".58"/>
  <path d="M23.834 53.469h64.707l.272.906h-65.25z" fill="#fff" opacity=".58"/>
  <path fill="#fff" opacity=".121" d="M9.969 89.719h.906v9.969h-.906z"/>
  <path fill="#5e5e5e" d="M10.875 89.719h.906v9.969h-.906z"/>
  <path fill="#fff" opacity=".121" d="M11.781 89.719h.906v9.969h-.906zm3.625 0h.906v9.969h-.906z"/>
  <path fill="#5e5e5e" d="M16.313 89.719h.906v9.969h-.906z"/>
  <path fill="#fff" opacity=".121" d="M17.219 89.719h.906v9.969h-.906zm3.625 0h.906v9.969h-.906z"/>
  <path fill="#5e5e5e" d="M21.75 89.719h.906v9.969h-.906z"/>
  <path fill="#fff" opacity=".121" d="M22.656 89.719h.906v9.969h-.906zm3.625 0h.906v9.969h-.906z"/>
  <path fill="#5e5e5e" d="M27.188 89.719h.906v9.969h-.906z"/>
  <path fill="#fff" opacity=".121" d="M28.094 89.719H29v9.969h-.906z"/>
  <path fill="url(#B)" opacity=".686" transform="scale(1 -1)" d="M9.969-100.594h2.719v.906H9.969z"/>
  <path fill="url(#C)" opacity=".686" transform="scale(1 -1)" d="M15.406-100.594h2.719v.906h-2.719z"/>
  <path fill="url(#D)" opacity=".686" transform="scale(1 -1)" d="M20.844-100.594h2.719v.906h-2.719z"/>
  <path fill="url(#E)" opacity=".686" transform="scale(1 -1)" d="M26.281-100.594H29v.906h-2.719z"/>
  <path d="M95.99 47.92l9.546-15.192-71.418.53L27.93 47.39z" fill="url(#F)" filter="url(#G)" transform="translate(0 9.063) scale(.90625)"/>
  <path filter="url(#H)" opacity=".217" transform="translate(0 9.063) scale(.90625)" d="M25.456 45.445h73.186v4.419H25.456z"/>
  <path d="M38 2h-.4 57.916c.268 0 .484.216.484.484v45.032a.483.483 0 0 1-.484.484H28.484a.483.483 0 0 1-.484-.484V11.8v.04c0-.304.128-1.12.689-1.643C31.257 7.8 36.35 2 38 2z" fill="#323232" filter="url(#I)" transform="translate(0 9.244) scale(.90625)"/>
  <path d="M26.281 18.125v-.567l6.344-6.102v1.232l-1.813 2.718z" fill="url(#J)"/>
  <path d="M34.438 10.875H86.51c.271 0 .489.218.489.489v40.71c0 .27-.218.489-.489.489H25.864a.487.487 0 0 1-.489-.489V19.562c0-2.343 3.625-4.156 5.438-4.156 0-1.312.906-4.531 3.625-4.531z" fill="#fff"/>
  <path d="M30.813 15.406c-1.644 0-4.784 1.486-5.353 3.512l-.085 1.02h.906l.397-.624 4.588-3.455z" fill="url(#K)"/>
  <path d="M34.406 11.344c-1.327.055-2.191.881-2.625 1.875-.375.861-.443 1.828-.468 2.687-.946.05-2.112.272-3.188.813-1.22.613-2.281 1.675-2.281 3.25v32.593a.45.45 0 0 0 .437.438h59.813a.45.45 0 0 0 .437-.438v-40.78a.45.45 0 0 0-.437-.438H34.438a.45.45 0 0 0-.032 0z" fill="url(#L)"/>
  <path d="M35.344 20.844v40.781h43.953V20.844zm.453.453h8.61v3.625h-8.61zm9.062 0h8.61v3.625h-8.61zm9.063 0h8.61v3.625h-8.61zm9.062 0h7.703v3.625h-7.703zm8.172.015l7.688-.015v3.625H71.14l.015-3.61zm-35.36 4.063h8.61v3.172h-8.61zm9.063 0h8.61v3.172h-8.61zm9.063 0h8.61v3.172h-8.61zm9.062 0h7.703v3.172h-7.703zm8.157 0h7.703v3.172H71.14zM35.797 29h8.61v3.172h-8.61zm9.062 0h8.61v3.172h-8.61zm9.063 0h8.61v3.172h-8.61zm9.062 0h7.703v3.172h-7.703zm8.157 0h7.703v3.172H71.14zm-35.344 3.625h8.61v3.172h-8.61zm9.062 0h8.61v3.172h-8.61zm9.063 0h8.61v3.172h-8.61zm9.062 0h7.703v3.172h-7.703zm8.157 0h7.703v3.172H71.14zM35.797 36.25h8.61v3.172h-8.61zm9.062 0h8.61v3.172h-8.61zm9.063 0h8.61v3.172h-8.61zm9.062 0h7.703v3.172h-7.703zm8.157 0h7.703v3.172H71.14zm-35.344 3.625h8.61v3.172h-8.61zm9.062 0h8.61v3.172h-8.61zm9.063 0h8.61v3.172h-8.61zm9.062 0h7.703v3.172h-7.703zm8.157 0h7.703v3.172H71.14zM35.797 43.5h8.61v3.172h-8.61zm9.062 0h8.61v3.172h-8.61zm9.063 0h8.61v3.172h-8.61zm9.062 0h7.703v3.172h-7.703zm8.157 0h7.703v3.172H71.14zm-35.344 3.625h8.61v3.172h-8.61zm9.062 0h8.61v3.172h-8.61zm9.063 0h8.61v3.172h-8.61zm9.062 0h7.703v3.172h-7.703zm8.157 0h7.703v3.172H71.14zM35.797 50.75h8.61v3.172h-8.61zm9.062 0h8.61v3.172h-8.61zm9.063 0h8.61v3.172h-8.61zm9.062 0h7.703v3.172h-7.703zm8.157 0h7.703v3.172H71.14zm-35.344 3.625h8.61v3.172h-8.61zm9.062 0h8.61v3.172h-8.61zm9.063 0h8.61v3.172h-8.61zm9.062 0h7.703v3.172h-7.703zm8.157 0h7.703v3.172H71.14zM35.797 58h8.61v3.172h-8.61zm9.062 0h8.61v3.172h-8.61zm9.063 0h8.61v3.172h-8.61zm9.062 0h7.703v3.172h-7.703zm8.157 0h7.703v3.172H71.14z" fill="url(#M)" opacity=".324"/>
  <rect fill="url(#N)" height="5.876" rx=".489" width="61.625" x="25.375" y="47.125"/>
  <path d="M98.25 35.375a.875.875 0 1 1-1.75 0 .875.875 0 1 1 1.75 0z" fill="url(#O)" filter="url(#P)" transform="translate(-94.971 19.979) scale(1.26886)"/>
  <path d="M98.25 35.375a.875.875 0 1 1-1.75 0 .875.875 0 1 1 1.75 0z" fill="url(#Q)" filter="url(#R)" transform="translate(-40.01 39.64) scale(.7024)"/>
  <path d="M98.25 35.375a.875.875 0 1 1-1.75 0 .875.875 0 1 1 1.75 0z" fill="url(#S)" filter="url(#P)" transform="translate(-100.409 19.979) scale(1.26886)"/>
  <path d="M98.25 35.375a.875.875 0 1 1-1.75 0 .875.875 0 1 1 1.75 0z" fill="url(#T)" filter="url(#R)" transform="translate(-45.449 39.64) scale(.7024)"/>
  <path d="M98.25 35.375a.875.875 0 1 1-1.75 0 .875.875 0 1 1 1.75 0z" fill="url(#S)" filter="url(#P)" transform="translate(-105.816 19.979) scale(1.26886)"/>
  <path d="M98.25 35.375a.875.875 0 1 1-1.75 0 .875.875 0 1 1 1.75 0z" fill="url(#T)" filter="url(#R)" transform="translate(-50.855 39.64) scale(.7024)"/>
  <path d="M98.25 35.375a.875.875 0 1 1-1.75 0 .875.875 0 1 1 1.75 0z" fill="url(#O)" filter="url(#P)" transform="translate(-111.285 19.979) scale(1.26886)"/>
  <path d="M98.25 35.375a.875.875 0 1 1-1.75 0 .875.875 0 1 1 1.75 0z" fill="url(#Q)" filter="url(#R)" transform="translate(-56.325 39.64) scale(.7024)"/>
  <path d="M98.25 35.375a.875.875 0 1 1-1.75 0 .875.875 0 1 1 1.75 0z" fill="url(#O)" filter="url(#U)" transform="translate(-94.971 19.979) scale(1.26886)"/>
  <path d="M98.25 35.375a.875.875 0 1 1-1.75 0 .875.875 0 1 1 1.75 0z" fill="url(#Q)" filter="url(#R)" transform="translate(-40.01 39.64) scale(.7024)"/>
  <path d="M98.25 35.375a.875.875 0 1 1-1.75 0 .875.875 0 1 1 1.75 0z" fill="url(#S)" filter="url(#U)" transform="translate(-100.409 19.979) scale(1.26886)"/>
  <path d="M98.25 35.375a.875.875 0 1 1-1.75 0 .875.875 0 1 1 1.75 0z" fill="url(#T)" filter="url(#R)" transform="translate(-45.449 39.64) scale(.7024)"/>
  <path d="M98.25 35.375a.875.875 0 1 1-1.75 0 .875.875 0 1 1 1.75 0z" fill="url(#S)" filter="url(#U)" transform="translate(-105.816 19.979) scale(1.26886)"/>
  <path d="M98.25 35.375a.875.875 0 1 1-1.75 0 .875.875 0 1 1 1.75 0z" fill="url(#T)" filter="url(#R)" transform="translate(-50.855 39.64) scale(.7024)"/>
  <path d="M98.25 35.375a.875.875 0 1 1-1.75 0 .875.875 0 1 1 1.75 0z" fill="url(#O)" filter="url(#U)" transform="translate(-111.285 19.979) scale(1.26886)"/>
  <path d="M98.25 35.375a.875.875 0 1 1-1.75 0 .875.875 0 1 1 1.75 0z" fill="url(#Q)" filter="url(#R)" transform="translate(-56.325 39.64) scale(.7024)"/>
  <path d="M98.25 35.375a.875.875 0 1 1-1.75 0 .875.875 0 1 1 1.75 0z" fill="url(#O)" transform="translate(-94.971 19.979) scale(1.26886)"/>
  <path d="M98.25 35.375a.875.875 0 1 1-1.75 0 .875.875 0 1 1 1.75 0z" fill="url(#Q)" filter="url(#R)" transform="translate(-40.01 39.64) scale(.7024)"/>
  <path d="M98.25 35.375a.875.875 0 1 1-1.75 0 .875.875 0 1 1 1.75 0z" fill="url(#S)" transform="translate(-100.409 19.979) scale(1.26886)"/>
  <path d="M98.25 35.375a.875.875 0 1 1-1.75 0 .875.875 0 1 1 1.75 0z" fill="url(#T)" filter="url(#R)" transform="translate(-45.449 39.64) scale(.7024)"/>
  <path d="M98.25 35.375a.875.875 0 1 1-1.75 0 .875.875 0 1 1 1.75 0z" fill="url(#S)" transform="translate(-105.816 19.979) scale(1.26886)"/>
  <path d="M98.25 35.375a.875.875 0 1 1-1.75 0 .875.875 0 1 1 1.75 0z" fill="url(#T)" filter="url(#R)" transform="translate(-50.855 39.64) scale(.7024)"/>
  <path d="M98.25 35.375a.875.875 0 1 1-1.75 0 .875.875 0 1 1 1.75 0z" fill="url(#O)" transform="translate(-111.285 19.979) scale(1.26886)"/>
  <path d="M98.25 35.375a.875.875 0 1 1-1.75 0 .875.875 0 1 1 1.75 0z" fill="url(#Q)" filter="url(#R)" transform="translate(-56.325 39.64) scale(.7024)"/>
  <path d="M36.4 88.813h13.3a1.06 1.06 0 0 1 1.055 1.068v8.874a1.06 1.06 0 0 1-1.056 1.069H36.4a1.06 1.06 0 0 1-1.055-1.069v-8.874c0-.592.47-1.068 1.055-1.068z" fill="url(#V)"/>
  <path d="M36.852 89.722h12.39a1.06 1.06 0 0 1 1.055 1.069v2.859c-4.025.957-8.198.615-14.5 0v-2.859c0-.592.47-1.069 1.055-1.069z" fill="url(#W)"/>
  <path d="M43.651 90.855l.43.48h2.34l.518-.48zm3.454.185l-.518.48-.219 2.368.43.48zm-3.655-.003l.43.48-.218 2.368-.52.48zm-.462 7.018l.519-.48h2.338l.43.48zm3.488-.186l-.43-.48.218-2.367.519-.48zm-3.656.003l.518-.48.219-2.367-.43-.48zm.498-3.396l.518-.48h2.339l.43.48zm-4.793-3.621l.43.48h2.34l.518-.48zm3.454.185l-.519.48-.218 2.368.43.48zm-3.656-.003l.43.48-.218 2.368-.518.48zm-.461 7.018l.518-.48h2.339l.43.48zm3.488-.186l-.43-.48.218-2.367.518-.48zm-3.656.003l.518-.48.218-2.367-.43-.48zm.498-3.396l.518-.48h2.339l.43.48z" opacity=".601"/>
  <path d="M43.651 90.855l.43.48h2.34l.518-.48zm3.454.185l-.518.48-.219 2.368.43.48zm-4.117 7.015l.519-.48h2.338l.43.48zm3.488-.186l-.43-.48.218-2.367.519-.48zm-3.158-3.393l.518-.48h2.339l.43.48zm-1.339-3.436l-.519.48-.218 2.368.43.48zm-.629 6.829l-.43-.48.218-2.367.518-.48z" fill="#ff0c0c" opacity=".601"/>
  <path d="M31.416 46.69l.562.619h3.051l.677-.62z" fill="#ff0c0c" filter="url(#X)" opacity=".601" transform="matrix(.76638 0 0 .77573 19.575 54.636)"/>
  <path d="M35.923 46.93l-.677.618-.284 3.052.56.619z" fill="#ff0c0c" filter="url(#Y)" opacity=".601" transform="matrix(.76638 0 0 .77573 19.575 54.636)"/>
  <path d="M30.55 55.971l.677-.619h3.052l.561.62z" fill="#ff0c0c" filter="url(#Z)" opacity=".601" transform="matrix(.76638 0 0 .77573 19.575 54.636)"/>
  <path d="M35.102 55.732l-.561-.62.284-3.05.677-.62z" fill="#ff0c0c" filter="url(#aa)" opacity=".601" transform="matrix(.76638 0 0 .77573 19.575 54.636)"/>
  <path d="M30.98 51.359l.678-.62h3.051l.561.62z" fill="#ff0c0c" filter="url(#X)" opacity=".601" transform="matrix(.76638 0 0 .77573 19.575 54.636)"/>
  <path d="M29.234 46.93l-.677.618-.284 3.052.561.619z" fill="#ff0c0c" filter="url(#ab)" opacity=".601" transform="matrix(.76638 0 0 .77573 19.575 54.636)"/>
  <path d="M28.413 55.732l-.561-.62.284-3.05.677-.62z" fill="#ff0c0c" filter="url(#aa)" opacity=".601" transform="matrix(.76638 0 0 .77573 19.575 54.636)"/>
  <path d="M55.43 88.813h13.3a1.06 1.06 0 0 1 1.056 1.068v8.874a1.06 1.06 0 0 1-1.055 1.069h-13.3a1.06 1.06 0 0 1-1.056-1.069v-8.874c0-.592.47-1.068 1.056-1.068z" fill="url(#ac)"/>
  <path d="M55.883 89.722h12.39a1.06 1.06 0 0 1 1.055 1.069v2.859c-4.024.957-8.197.615-14.5 0v-2.859c0-.592.47-1.069 1.055-1.069z" fill="url(#ad)"/>
  <path d="M63.17 90.89l.43.48h2.338l.519-.48zm3.453.187l-.518.48-.219 2.367.43.48zm-3.655-.004l.43.48-.218 2.368-.52.48zm-.462 7.017l.519-.48h2.338l.43.48zm3.488-.185l-.43-.48.218-2.367.519-.48zm-3.656.003l.518-.48.219-2.367-.43-.48zm.498-3.396l.518-.48h2.339l.43.48zm-4.793-3.622l.43.48h2.34l.518-.48zm3.454.187l-.519.48-.218 2.367.43.48zm-3.656-.004l.43.48-.218 2.368-.518.48zm-.461 7.017l.518-.48h2.339l.43.48zm3.488-.185l-.43-.48.218-2.367.518-.48zm-3.656.003l.518-.48.218-2.367-.43-.48zm.498-3.396l.518-.48h2.339l.43.48z" opacity=".601"/>
  <g fill="#f90000">
    <path d="M63.17 90.89l.43.48h2.338l.519-.48zm-.202.183l.43.48-.218 2.368-.52.48zm-.462 7.017l.519-.48h2.338l.43.48zm3.488-.185l-.43-.48.218-2.367.519-.48zm-3.158-3.393l.518-.48h2.339l.43.48zm-4.793-3.622l.43.48h2.34l.518-.48zm3.454.187l-.519.48-.218 2.367.43.48zm-3.656-.004l.43.48-.218 2.368-.518.48zm-.461 7.017l.518-.48h2.339l.43.48zm3.488-.185l-.43-.48.218-2.367.518-.48zm-3.656.003l.518-.48.218-2.367-.43-.48z" opacity=".601"/>
    <path d="M48.298 46.69l.561.619h3.051l.677-.62z" filter="url(#ae)" opacity=".601" transform="matrix(.76638 0 0 .77573 26.155 54.672)"/>
    <path d="M48.034 46.925l.561.62-.284 3.05-.677.62z" filter="url(#af)" opacity=".601" transform="matrix(.76638 0 0 .77573 26.155 54.672)"/>
    <path d="M47.432 55.971l.677-.619h3.051l.561.62z" filter="url(#ag)" opacity=".601" transform="matrix(.76638 0 0 .77573 26.155 54.672)"/>
    <path d="M51.983 55.732l-.561-.62.284-3.05.677-.62z" filter="url(#ah)" opacity=".601" transform="matrix(.76638 0 0 .77573 26.155 54.672)"/>
    <path d="M47.862 51.359l.677-.62h3.051l.562.62zm-6.253-4.669l.561.619h3.052l.676-.62z" filter="url(#ai)" opacity=".601" transform="matrix(.76638 0 0 .77573 26.155 54.672)"/>
    <path d="M46.115 46.93l-.676.618-.285 3.052.561.619zm-4.77-.005l.562.62-.285 3.05-.677.62z" filter="url(#aj)" opacity=".601" transform="matrix(.76638 0 0 .77573 26.155 54.672)"/>
    <path d="M40.743 55.971l.677-.619h3.051l.562.62z" filter="url(#ag)" opacity=".601" transform="matrix(.76638 0 0 .77573 26.155 54.672)"/>
    <path d="M45.294 55.732l-.561-.62.285-3.05.676-.62zm-4.77.004l.676-.62.285-3.05-.561-.62z" filter="url(#ah)" opacity=".601" transform="matrix(.76638 0 0 .77573 26.155 54.672)"/>
  </g>
  <path d="M35.344 98.781v.453a1.04 1.04 0 0 0 1.048 1.048h13.31a1.04 1.04 0 0 0 1.048-1.048v-.453a1.04 1.04 0 0 1-1.048 1.048h-13.31a1.04 1.04 0 0 1-1.048-1.048zm19.031 0v.453a1.04 1.04 0 0 0 1.048 1.048h13.31a1.04 1.04 0 0 0 1.048-1.048v-.453a1.04 1.04 0 0 1-1.048 1.048h-13.31a1.04 1.04 0 0 1-1.048-1.048z" fill="#fff"/>
  <path fill="#b40000" d="M90.537 84.57l-8.65-14.985.555-.32 8.65 14.984z"/>
  <path d="M103.664 38.063c2.66 0 4.244.849 4.78 2.88l3.832 14.502c.378 1.43-.44 45.101-.534 45.599-.338 1.791-2.46 3.076-4.79 3.076H8.986c-2.154.099-4.192-1.229-4.713-2.693-.221-.62-.482-41.52-.632-45.18-.011-.26-.038-.526.021-.802l3.832-14.502c.536-2.031 2.12-2.88 4.78-2.88h91.39z" fill="url(#ak)" opacity=".121"/>
  <path d="M72.528 82.016c-.004.152-.028.3-.028.453 0 9.51 7.71 17.219 17.219 17.219 9.51 0 17.219-7.71 17.219-17.22 0-.153-.025-.3-.029-.452-.243 9.297-7.834 16.765-17.19 16.765-9.356 0-16.947-7.468-17.19-16.765z" fill="url(#al)"/>
  <path d="M12.336 38.063c-2.66 0-4.247.848-4.78 2.88L3.724 55.535c-.376 1.432.44 45.011.534 45.508.338 1.792 2.46 3.077 4.79 3.077h97.966c2.154.099 4.192-1.229 4.713-2.693.221-.62.482-41.52.632-45.18.011-.26.038-.526-.021-.802l-3.832-14.502c-.536-2.031-2.12-2.88-4.78-2.88h-91.39z" fill="url(#am)" opacity=".097"/>
  <path d="M34.406 11.344c-1.324.055-2.161.883-2.593 1.875-.376.86-.475 1.829-.5 2.687-.945.05-2.114.272-3.188.813-1.218.612-2.281 1.679-2.281 3.25v32.593a.443.443 0 0 0 .437.438h59.813a.443.443 0 0 0 .437-.438v-40.78a.443.443 0 0 0-.437-.438H34.438a.443.443 0 0 0-.032 0z" fill="url(#an)"/>
  <path d="M29.205 52.541l7.788-16.107 5.884 11.505 9.339-15.753 4.467 6.018 8.454-13.629 6.06 12.39L85.492 16.08" fill="none" opacity=".493" stroke="url(#ao)" stroke-width=".453"/>
</svg>
