<?xml version="1.0" encoding="UTF-8" standalone="no"?>
<svg xmlns="http://www.w3.org/2000/svg" xmlns:xlink="http://www.w3.org/1999/xlink" width="128" height="128">
  <defs>
    <linearGradient id="c">
      <stop offset="0"/>
      <stop offset="1" stop-opacity="0"/>
    </linearGradient>
    <linearGradient id="b">
      <stop offset="0" stop-color="#fff"/>
      <stop offset="1" stop-color="#fff" stop-opacity="0"/>
    </linearGradient>
    <linearGradient id="d">
      <stop offset="0" stop-color="#fff" stop-opacity=".622"/>
      <stop offset="1" stop-color="#fff" stop-opacity="0"/>
    </linearGradient>
    <linearGradient id="e" x1="26" x2="220" y1="69" y2="69" gradientUnits="userSpaceOnUse">
      <stop offset="0" stop-color="#3383e6"/>
      <stop offset="1" stop-color="#6ecaf7"/>
    </linearGradient>
    <filter id="y">
      <feGaussianBlur stdDeviation=".472"/>
    </filter>
    <filter id="H">
      <feGaussianBlur stdDeviation=".537"/>
    </filter>
    <filter id="L">
      <feGaussianBlur stdDeviation=".42"/>
    </filter>
    <filter id="u">
      <feGaussianBlur stdDeviation=".945"/>
    </filter>
    <filter id="A" width="1.098" height="1.234" x="-.049" y="-.117">
      <feGaussianBlur stdDeviation=".719"/>
    </filter>
    <filter id="t" width="1.145" height="1.206" x="-.072" y="-.103">
      <feGaussianBlur stdDeviation="3.024"/>
    </filter>
    <filter id="E" width="1.25" height="1.911" x="-.125" y="-.455">
      <feGaussianBlur stdDeviation="1.292"/>
    </filter>
    <radialGradient id="a" cx="-498.496" cy="-97.98" r="50.496" gradientTransform="matrix(1.14392 0 0 1.09418 71.741 8.948)" gradientUnits="userSpaceOnUse">
      <stop offset="0" stop-color="#fff"/>
      <stop offset=".303" stop-color="#fff" stop-opacity=".867"/>
      <stop offset=".7" stop-color="#fff" stop-opacity=".51"/>
      <stop offset="1" stop-color="#fff" stop-opacity="0"/>
    </radialGradient>
    <mask id="J" maskUnits="userSpaceOnUse">
      <path fill="url(#a)" d="M-548.992-108.194H-448v26.353h-100.992z"/>
    </mask>
    <linearGradient id="v" x1="-493.855" x2="-493.855" y1="-118.343" y2="-75" gradientUnits="userSpaceOnUse">
      <stop offset="0" stop-color="#cacaca"/>
      <stop offset=".614" stop-color="#ebebeb"/>
      <stop offset="1" stop-color="#cbcbcb"/>
    </linearGradient>
    <radialGradient id="w" cx="-307.625" cy="70.359" r="50.125" fx="-320.353" fy="87.259" gradientTransform="matrix(1.26803 -.02116 .00908 .54388 -108.546 -159.142)" gradientUnits="userSpaceOnUse" xlink:href="#b"/>
    <linearGradient id="x" x1="-190.203" x2="-190.203" y1="80.37" y2="112.084" gradientUnits="userSpaceOnUse" xlink:href="#c"/>
    <radialGradient id="z" cx="-322.723" cy="85.487" r="18.133" gradientTransform="matrix(1.42739 0 0 .43458 -52.497 -139.764)" gradientUnits="userSpaceOnUse" xlink:href="#d"/>
    <radialGradient id="B" cx="-317.63" cy="84.673" r="18.133" gradientTransform="matrix(1.42739 0 0 .43458 -52.497 -139.764)" gradientUnits="userSpaceOnUse" xlink:href="#d"/>
    <linearGradient id="C" x1="-492.875" x2="-492.875" y1="-124.823" y2="-105.12" gradientUnits="userSpaceOnUse" xlink:href="#c"/>
    <linearGradient id="D" x1="-487.11" x2="-487.11" y1="-64.957" y2="-92.661" gradientUnits="userSpaceOnUse">
      <stop offset="0" stop-color="#050505"/>
      <stop offset="1" stop-color="#050505" stop-opacity="0"/>
    </linearGradient>
    <radialGradient id="F" cx="-107.834" cy="-43.068" r="12.374" gradientTransform="matrix(1 0 0 .275 -377.36 -90.187)" gradientUnits="userSpaceOnUse" xlink:href="#c"/>
    <radialGradient id="G" cx="-195.322" cy="133.893" r="48.969" gradientTransform="matrix(1.4809 0 0 .38195 -208.93 -132.806)" gradientUnits="userSpaceOnUse" xlink:href="#b"/>
    <radialGradient id="I" cx="-195.322" cy="144.366" r="48.969" gradientTransform="matrix(.53144 0 0 .38195 -394.38 -132.806)" gradientUnits="userSpaceOnUse" xlink:href="#b"/>
    <radialGradient id="K" cx="-75.703" cy="119.103" r="50.125" gradientTransform="matrix(2.83137 0 0 .32893 19.372 67.44)" gradientUnits="userSpaceOnUse">
      <stop offset="0" stop-opacity="0"/>
      <stop offset=".526" stop-opacity=".214"/>
      <stop offset="1"/>
    </radialGradient>
    <radialGradient id="M" cx="-75.711" cy="113.458" r="50.125" fx="-75.514" fy="99.225" gradientTransform="matrix(1.8505 0 0 .49865 -54.883 47.226)" gradientUnits="userSpaceOnUse">
      <stop offset="0" stop-opacity="0"/>
      <stop offset=".5" stop-opacity=".214"/>
      <stop offset="1"/>
    </radialGradient>
    <linearGradient id="N" x1="-493.382" x2="-493.382" y1="-114.581" y2="-91.39" gradientUnits="userSpaceOnUse" xlink:href="#b"/>
    <linearGradient id="V" x1="57.536" x2="79.4" y1="97.316" y2="45.718" gradientUnits="userSpaceOnUse" xlink:href="#e"/>
    <radialGradient id="T" cx="-120" cy="-109.796" r="78" gradientTransform="matrix(.66898 0 0 1.8331 144.278 299.625)" gradientUnits="userSpaceOnUse" xlink:href="#b"/>
    <radialGradient id="S" cx="-120" cy="-150.615" r="78" fx="-120.374" fy="-166.52" gradientTransform="matrix(1.12388 0 0 1.29123 198.865 240.131)" gradientUnits="userSpaceOnUse" xlink:href="#b"/>
    <linearGradient id="U" x1="120.461" x2="120.461" y1="128.533" y2="63.664" gradientUnits="userSpaceOnUse" xlink:href="#b"/>
    <linearGradient id="R" x1="60.025" x2="60.025" y1="21.344" y2="39.678" gradientUnits="userSpaceOnUse" xlink:href="#b"/>
    <linearGradient id="Q" x1="84.872" x2="84.872" y1="93.149" y2="20.061" gradientUnits="userSpaceOnUse">
      <stop offset="0" stop-color="#1f1f1f"/>
      <stop offset="1" stop-color="#424242"/>
    </linearGradient>
    <linearGradient id="P" x1="74.436" x2="74.436" y1="72.989" y2="9.193" gradientUnits="userSpaceOnUse">
      <stop offset="0" stop-color="#d6d6d6"/>
      <stop offset="1" stop-color="#fff"/>
    </linearGradient>
    <radialGradient id="O" cx="-122.25" cy="-192.928" r="94" gradientTransform="matrix(.81607 0 0 .59952 162.59 154.017)" gradientUnits="userSpaceOnUse">
      <stop offset="0" stop-color="#efefef"/>
      <stop offset="1" stop-color="#b8b8b8"/>
    </radialGradient>
    <linearGradient id="X" x1="53.041" x2="76.155" y1="-21.431" y2="87.037" gradientUnits="userSpaceOnUse" xlink:href="#b"/>
    <radialGradient id="W" cx="-526.788" cy="-120.688" r="76" gradientTransform="matrix(2.04637 0 0 .71885 1110.735 183.202)" gradientUnits="userSpaceOnUse" xlink:href="#e"/>
    <filter id="m">
      <feGaussianBlur stdDeviation="2.441"/>
    </filter>
    <filter id="o">
      <feGaussianBlur stdDeviation="2.448"/>
    </filter>
    <clipPath id="q">
      <path d="M212.5 43.301c-8.837 0-16-7.163-16-16 0-8.836 7.163-16 16-16s16 7.164 16 16c0 8.837-7.163 16-16 16z"/>
    </clipPath>
    <filter id="f">
      <feGaussianBlur stdDeviation="4.64"/>
    </filter>
    <filter id="s">
      <feGaussianBlur stdDeviation="1.28"/>
    </filter>
    <linearGradient id="l" x1="109.967" x2="232" y1="88.016" y2="88.016" gradientUnits="userSpaceOnUse" xlink:href="#b"/>
    <linearGradient id="n" x1="356.386" x2="232" y1="27" y2="-65.195" gradientUnits="userSpaceOnUse" xlink:href="#b"/>
    <linearGradient id="p" x1="249.462" x2="215.537" y1="44.263" y2="10.338" gradientTransform="matrix(.27409 0 0 .27416 .458 26.792)" gradientUnits="userSpaceOnUse">
      <stop offset="0" stop-color="#fff"/>
      <stop offset=".016" stop-color="#dadada"/>
      <stop offset=".04" stop-color="#a7a7a7"/>
      <stop offset=".066" stop-color="#7b7b7b"/>
      <stop offset=".092" stop-color="#555"/>
      <stop offset=".119" stop-color="#363636"/>
      <stop offset=".147" stop-color="#1e1e1e"/>
      <stop offset=".177" stop-color="#0d0d0d"/>
      <stop offset=".209" stop-color="#030303"/>
      <stop offset=".25"/>
    </linearGradient>
    <linearGradient id="j" x1="263.143" x2="201.857" y1="53.012" y2="1.588" gradientTransform="matrix(.27409 0 0 .27416 .458 26.792)" gradientUnits="userSpaceOnUse">
      <stop offset="0" stop-color="#fff"/>
      <stop offset=".031" stop-color="#dadada"/>
      <stop offset=".08" stop-color="#a7a7a7"/>
      <stop offset=".131" stop-color="#7b7b7b"/>
      <stop offset=".183" stop-color="#555"/>
      <stop offset=".237" stop-color="#363636"/>
      <stop offset=".294" stop-color="#1e1e1e"/>
      <stop offset=".354" stop-color="#0d0d0d"/>
      <stop offset=".419" stop-color="#030303"/>
      <stop offset=".5"/>
      <stop offset=".581" stop-color="#030303"/>
      <stop offset=".646" stop-color="#0d0d0d"/>
      <stop offset=".706" stop-color="#1e1e1e"/>
      <stop offset=".762" stop-color="#363636"/>
      <stop offset=".817" stop-color="#555"/>
      <stop offset=".869" stop-color="#7b7b7b"/>
      <stop offset=".92" stop-color="#a7a7a7"/>
      <stop offset=".969" stop-color="#dadada"/>
      <stop offset="1" stop-color="#fff"/>
    </linearGradient>
    <linearGradient id="g" x1="38.958" x2="86.134" y1="9.031" y2="56.207" gradientUnits="userSpaceOnUse">
      <stop offset="0" stop-color="#c9bcd5"/>
      <stop offset=".5" stop-color="#fff"/>
      <stop offset="1" stop-color="#baabc5"/>
    </linearGradient>
    <clipPath id="i">
      <path d="M231.654-92.937c-66.274 0-119.97 53.782-119.97 120.039 0 66.256 53.696 120.039 119.97 120.039s120.07-53.783 120.07-120.04c0-66.256-53.797-120.038-120.07-120.038zm0 79.993c22.091 0 40.056 17.96 40.056 40.046 0 22.085-17.965 39.946-40.056 39.946-22.092 0-39.957-17.86-39.957-39.946s17.865-40.046 39.957-40.046z"/>
    </clipPath>
    <linearGradient id="r" x1="212.5" x2="212.5" y1="10.801" y2="43.801" gradientUnits="userSpaceOnUse" xlink:href="#c"/>
    <linearGradient id="h" x1="66.06" x2="66.06" y1="47.199" y2="23.785" gradientUnits="userSpaceOnUse" xlink:href="#c"/>
    <clipPath id="k">
      <path d="M232.5-92.699c-66.274 0-120 53.726-120 120s53.726 120 120 120 120-53.727 120-120-53.726-120-120-120zm0 163.44c-23.991 0-43.44-19.449-43.44-43.44 0-23.99 19.449-43.439 43.44-43.439 23.992 0 43.439 19.449 43.439 43.439 0 23.991-19.447 43.44-43.439 43.44z"/>
    </clipPath>
  </defs>
  <path d="M232.5-2.8c-64.065 0-116 51.936-116 116 0 64.065 51.935 116 116 116s116-51.935 116-116c0-64.064-51.935-116-116-116zm0 157.29c-22.803 0-41.288-18.486-41.288-41.288 0-22.803 18.485-41.288 41.288-41.288s41.288 18.485 41.288 41.287-18.485 41.289-41.288 41.289z" filter="url(#f)" opacity=".8" transform="matrix(.2742 0 0 .2742 .445 4.327)"/>
  <path fill="url(#g)" d="M64.198 1.366c-18.173 0-32.905 14.732-32.905 32.905 0 18.172 14.732 32.904 32.905 32.904 18.173 0 32.905-14.732 32.905-32.904 0-18.173-14.732-32.905-32.905-32.905zm0 43.873c-6.058 0-10.968-4.911-10.968-10.968 0-6.058 4.91-10.969 10.968-10.969s10.968 4.911 10.968 10.969c0 6.057-4.91 10.968-10.968 10.968z"/>
  <path fill="url(#h)" d="M64 1.219c-17.94 0-32.5 14.56-32.5 32.5s14.56 32.5 32.5 32.5c17.94 0 32.5-14.56 32.5-32.5S81.94 1.219 64 1.219z" opacity=".554"/>
  <path fill="#fff" d="M64.183 23.31c-6.055 0-10.963 4.91-10.963 10.967 0 6.056 4.908 10.966 10.963 10.966 6.055 0 10.964-4.91 10.964-10.966 0-6.057-4.909-10.967-10.964-10.967zm0 15.353a4.386 4.386 0 1 1 .001-8.774 4.386 4.386 0 0 1 0 8.774z" opacity=".5"/>
  <path fill="url(#j)" d="M64.183 23.31c-6.055 0-10.963 4.91-10.963 10.967 0 6.056 4.908 10.966 10.963 10.966 6.055 0 10.964-4.91 10.964-10.966 0-6.057-4.909-10.967-10.964-10.967zm0 17.546a6.586 6.586 0 0 1-6.578-6.58c0-3.627 2.951-6.58 6.578-6.58a6.586 6.586 0 0 1 6.578 6.58 6.586 6.586 0 0 1-6.578 6.58z" opacity=".5"/>
  <g clip-path="url(#k)" opacity=".6" transform="matrix(.27409 0 0 .27416 .458 26.792)">
    <path fill="url(#l)" d="M109.967 78.957L232 27l-31.944 122.032z" filter="url(#m)" opacity=".9"/>
    <path fill="url(#n)" d="M356.386-18.607L232 27l41.595-120.379z" filter="url(#o)" opacity=".8"/>
  </g>
  <path fill="none" stroke="#d0d0d0" stroke-width=".329" d="M64.183 27.697a6.586 6.586 0 0 0-6.578 6.58c0 3.628 2.951 6.58 6.578 6.58a6.587 6.587 0 0 0 6.578-6.58 6.587 6.587 0 0 0-6.578-6.58z"/>
  <path fill="#fff" d="M64.183 27.697a6.586 6.586 0 0 0-6.578 6.58c0 3.628 2.951 6.58 6.578 6.58a6.587 6.587 0 0 0 6.578-6.58 6.587 6.587 0 0 0-6.578-6.58zm0 10.966a4.386 4.386 0 1 1 .001-8.774 4.386 4.386 0 0 1 0 8.774z" opacity=".2"/>
  <path fill="url(#p)" d="M64.183 27.697a6.586 6.586 0 0 0-6.578 6.58c0 3.628 2.951 6.58 6.578 6.58a6.587 6.587 0 0 0 6.578-6.58 6.587 6.587 0 0 0-6.578-6.58zm0 10.966a4.386 4.386 0 1 1 .001-8.774 4.386 4.386 0 0 1 0 8.774z" opacity=".5"/>
  <path fill="none" stroke="url(#r)" stroke-width="4.001" d="M212.5 43.301c-8.837 0-16-7.163-16-16 0-8.836 7.163-16 16-16s16 7.164 16 16c0 8.837-7.163 16-16 16z" clip-path="url(#q)" filter="url(#s)" opacity=".5" transform="matrix(.2889 0 0 .28898 2.8 26.44)"/>
  <path fill="#323232" d="M64.183 21.117c-7.254 0-13.156 5.903-13.156 13.16 0 7.256 5.902 13.159 13.156 13.159 7.254 0 13.156-5.903 13.156-13.16 0-7.256-5.902-13.159-13.156-13.159zm0 24.126c-6.055 0-10.963-4.91-10.963-10.966 0-6.057 4.908-10.967 10.963-10.967 6.055 0 10.964 4.91 10.964 10.967 0 6.056-4.909 10.966-10.964 10.966z" opacity=".1"/>
  <path fill="#8e79a5" d="M64.198 1.366c-18.173 0-32.905 14.732-32.905 32.905 0 18.172 14.732 32.904 32.905 32.904 18.173 0 32.905-14.732 32.905-32.904 0-18.173-14.732-32.905-32.905-32.905zm0 .548c17.87 0 32.356 14.487 32.356 32.357 0 17.87-14.486 32.356-32.356 32.356S31.84 52.14 31.84 34.27c0-17.87 14.487-32.357 32.357-32.357z" opacity=".5"/>
  <g fill-rule="evenodd">
    <path fill-opacity=".762" d="M-498-139.32l-14.563 5.438c1.286 3.306 1.77 27.832-1.062 31.156-1.965 2.306-6.976 3.312-10.969 3.72-11.925 1.215-23.531 7.586-23.531 13.687 0 10.914 28.212 16.593 50.125 16.593 21.788 0 50.125-5.679 50.125-16.593 0-6.35-11.637-12.472-23.563-13.688-3.992-.407-9.152-1.294-10.968-3.719-2.872-3.834-2.277-28.281-1.031-31.156z" filter="url(#t)" opacity=".482" transform="matrix(.5552 0 0 .5552 340.487 165.71)"/>
    <path fill-opacity=".762" d="M-498-141.32l-14.563 5.438c1.286 3.306 1.77 27.832-1.062 31.156-1.965 2.306-6.976 3.312-10.969 3.72-11.925 1.215-23.531 7.586-23.531 13.687 0 10.914 28.212 16.593 50.125 16.593 21.788 0 50.125-5.679 50.125-16.593 0-6.35-11.637-12.472-23.563-13.688-3.992-.407-9.152-1.294-10.968-3.719-2.872-3.834-2.277-28.281-1.031-31.156z" filter="url(#u)" transform="matrix(.5552 0 0 .5552 340.487 165.71)"/>
    <path fill="url(#v)" d="M-498-141.62l-14.563 5.438c1.286 3.306 1.77 27.832-1.062 31.156-1.965 2.306-6.976 3.312-10.969 3.72-11.925 1.215-23.531 7.586-23.531 13.687 0 10.914 28.212 16.593 50.125 16.593 21.788 0 50.125-5.679 50.125-16.593 0-6.35-11.637-12.472-23.563-13.688-3.992-.407-9.152-1.294-10.968-3.719-2.872-3.834-2.277-28.281-1.031-31.156z" transform="matrix(.5552 0 0 .5552 340.487 165.71)"/>
    <path fill="url(#w)" d="M-497.985-141.632l-14.563 5.438c.083.211.144.532.22.906l14.343-5.344 14.281 5.344c.079-.388.196-.708.281-.906zm-13.563 21.22c-.08 6.896-.658 13.727-2.062 15.374-1.965 2.306-6.976 3.312-10.969 3.719-11.926 1.215-23.531 7.587-23.531 13.687 0 .145.021.295.031.438.692-5.921 11.947-11.948 23.5-13.125 3.993-.407 9.004-1.413 10.969-3.719 1.472-1.727 2.029-9.15 2.062-16.375zm27.125 2.062c.126 6.4.707 12.543 2.032 14.312 1.816 2.425 6.975 3.312 10.968 3.719 11.631 1.185 22.946 7.04 23.5 13.219.015-.174.063-.356.063-.532 0-6.35-11.637-12.472-23.563-13.687-3.993-.407-9.152-1.294-10.968-3.719-1.257-1.678-1.866-7.277-2.032-13.312z" transform="matrix(.5552 0 0 .5552 340.487 165.71)"/>
    <path fill="url(#x)" d="M-215.031 91.125c1.797.579 3.377 1.346 4.281 2.406 2.419 2.838 2.414 21.09 1.563 28.438 4.748.478 9.547.719 14.062.719 4.51 0 9.27-.237 14.031-.72-.831-7.184-.87-25.188 1.563-28.437.81-1.083 2.288-1.842 4.031-2.406-10.41-.397-21.976-1.083-39.531 0z" filter="url(#y)" opacity=".117" transform="matrix(.52025 0 0 .52025 165.517 61.853)"/>
    <path fill="url(#z)" d="M-511.829-112.6c-.06 5.488-.355 10.838-8.031 11.25-3.862.698-4.195 2.15-4.875 3.53 9.036-1.363 19.467-4.011 26.95-2.786l.132-8.987c-4.242-1.089-9.97-1.898-14.176-3.007z" filter="url(#A)" opacity=".468" transform="matrix(.5552 0 0 .5552 340.487 165.71)"/>
    <path fill="url(#B)" d="M-510.423-109.225c-.354 4.99-5.218 8.284-9.961 9.097 5.056-.895 16.567-1.03 22.532-1.048l.11-6.206c-3.461-.52-8.298-.688-12.68-1.843z" filter="url(#A)" opacity=".41" transform="matrix(.5552 0 0 .5552 340.487 165.71)"/>
    <path fill="url(#C)" d="M-498-141.62l-14.563 5.438c1.286 3.306 1.77 27.832-1.062 31.156-1.965 2.306-6.976 3.312-10.969 3.72h53.157c-3.993-.408-9.153-1.295-10.97-3.72-2.87-3.834-2.276-28.281-1.03-31.156z" transform="matrix(.5552 0 0 .5552 340.487 165.71)"/>
  </g>
  <path fill="none" stroke="url(#D)" stroke-width=".3" d="M-498-141.62l-14.563 5.438c1.286 3.306 1.77 27.832-1.062 31.156-1.965 2.306-6.976 3.312-10.969 3.72-11.925 1.215-23.531 7.586-23.531 13.687 0 10.914 28.212 16.593 50.125 16.593 21.788 0 50.125-5.679 50.125-16.593 0-6.35-11.637-12.472-23.563-13.688-3.992-.407-9.152-1.294-10.968-3.719-2.872-3.834-2.277-28.281-1.031-31.156z" opacity=".55" transform="matrix(.5552 0 0 .5552 340.487 165.71)"/>
  <path fill="url(#x)" fill-rule="evenodd" d="M-215.031 91.125c1.797.579 3.377 1.346 4.281 2.406 2.419 2.838 2.414 21.09 1.563 28.438 4.748.478 9.547.719 14.062.719 4.51 0 9.27-.237 14.031-.72-.831-7.184-.87-25.188 1.563-28.437.81-1.083 2.288-1.842 4.031-2.406-10.158-.507-21.023-.676-39.531 0z" filter="url(#y)" opacity=".117" transform="matrix(.52025 0 0 .52025 165.517 61.853)"/>
  <path fill-opacity=".497" fill-rule="evenodd" stroke="url(#F)" d="M-484.98-110.895c-.03 6.014-3.426 8.667-12.456 8.864 13.737-.718 21.52 1.32 27.668 2.279-3.125-1.118-8.277-1.168-11.404-2.986-3.353-1.949-3.485-5.072-3.807-8.157z" filter="url(#E)" opacity=".554" transform="matrix(.5552 0 0 .5552 340.487 165.71)"/>
  <path fill="url(#G)" fill-rule="evenodd" d="M-511.633-136.008l-.775.28c.471 1.21.84 5.34.96 10.196.065-3.693.008-7.477-.185-10.476zm26.933 0c-.206 3.19-.309 7.243-.217 11.189.105-5.253.472-9.782.96-10.91zm34.68 44.785c-2.513 9.38-28.989 15.172-48.162 15.172-19.24 0-45.754-6.234-48.132-15.11-.533.943-.837 1.9-.837 2.851 0 10.662 27.562 16.21 48.969 16.21 21.284 0 48.968-5.548 48.968-16.21 0-.99-.272-1.953-.805-2.913z" filter="url(#H)" opacity=".432" transform="matrix(.5552 0 0 .5552 340.487 165.71)"/>
  <path fill="url(#I)" fill-rule="evenodd" d="M-511.633-136.008l-.775.28c.471 1.21.84 5.34.96 10.196.065-3.693.008-7.477-.185-10.476zm26.933 0c-.206 3.19-.309 7.243-.217 11.189.105-5.253.472-9.782.96-10.91zm34.68 44.785c-2.419 9.028-28.989 15.172-48.162 15.172-19.24 0-45.724-6.122-48.132-15.11-.533.943-.837 1.9-.837 2.851 0 10.662 27.562 16.21 48.969 16.21 21.284 0 48.968-5.548 48.968-16.21 0-.99-.272-1.953-.805-2.913z" filter="url(#H)" transform="matrix(.5552 0 0 .5552 340.487 165.71)"/>
  <g fill-rule="evenodd" mask="url(#J)" transform="matrix(.5552 0 0 .5552 340.487 165.71)">
    <path fill="url(#K)" d="M-221.768 93.206c-9.669.986-19.224 5.313-22.36 10.232-2.956 4.634 6.62 3.879 10.652 2.257 9.144-3.495 22.597-3.452 37.583-3.452 17.893 0 33.669.896 42.392 5.61 5.433 2.937 9.215-.42 8.022-3.098-2.42-5.43-12.556-10.47-23.133-11.549-30.709-2.692-35.767-1.861-53.156 0z" filter="url(#L)" opacity=".27" transform="matrix(.94782 0 0 .92349 -313.039 -186.895)"/>
    <path fill="url(#M)" d="M-221.768 93.206c-9.888 1.008-19.554 5.201-22.57 10.563-2.204 3.917 6.148 3.791 10.738 1.974 9.176-3.442 22.654-3.632 37.707-3.632 17.806 0 33.445.99 42.264 5.674 5.137 3.014 9.645-.296 8.02-3.333-2.454-5.41-12.619-10.187-23.003-11.246-29.412-2.956-35.372-1.884-53.156 0z" filter="url(#L)" opacity=".27" transform="matrix(.94102 0 0 .91686 -314.367 -186.173)"/>
    <path fill="url(#N)" d="M-499.813-102.094c-4.832.04-10.34.169-16.843.406 1.684.543 3.184 1.288 4.031 2.282 1.267 1.487 1.8 7.48 1.906 13.687h11.25c.915 0 1.656-.832 1.656-1.844v-14.53c-.67.001-1.303-.007-2 0z" filter="url(#y)" opacity=".149"/>
  </g>
  <rect width="98" height="72" x="15" y="31" fill="url(#O)" rx="4.181"/>
  <rect width="96" height="70" x="16" y="32" fill="url(#P)" rx="3.627"/>
  <rect width="92" height="66" x="18" y="34" fill="url(#Q)" rx="2.105"/>
  <path fill="url(#R)" d="M20.183 34c-1.166 0-2.197.937-2.197 2.103v1.566c0-1.167 1.03-2.625 2.197-2.625h87.747c1.166 0 2.103 1.458 2.103 2.625v-1.566A2.098 2.098 0 0 0 107.93 34z"/>
  <rect width="82" height="62" x="23" y="36" fill="url(#S)" opacity=".707" rx="1.063"/>
  <rect width="82" height="62" x="23" y="36" fill="url(#T)" opacity=".707" rx="1.063"/>
  <rect width="80" height="60" x="24" y="37" rx=".525"/>
  <path fill="url(#U)" d="M20.092 34a2.098 2.098 0 0 0-2.103 2.103l.015 34.184c12.33 1.643 24.916 2.553 39.148 2.553 19.723 0 37.186-1.752 52.844-4.777l.022-31.96A2.098 2.098 0 0 0 107.914 34z"/>
  <path fill="url(#V)" d="M24.531 37.547H103V96H24.531z"/>
  <path fill="url(#W)" d="M24.516 37.547h78.988v58.965H24.516z"/>
  <path fill="url(#X)" d="M25 38l78.239-.412L25 96z"/>
  <g fill="#fff">
    <path d="M77.08 71.104h8.992v8.992H77.08zM42.211 64.353a6.782 6.782 0 1 1-13.564 0 6.782 6.782 0 1 1 13.564 0zM75.701 51.453a4.513 4.513 0 1 1-9.026 0 4.513 4.513 0 1 1 9.026 0z"/>
    <path fill-rule="evenodd" d="M91.798 59.88s9.2 4.22 9.062 4.324c-.138.104-9.062 4.186-9.062 4.186zM62 50c-1.968 0-4.37 1.914-5.617 3.029-1.248 1.114-2.441 2.509-3.707 3.886C50.144 59.669 47 63 43 63c-.721 0-.681.635-.613 1.353C42.455 65.07 42.28 66 43 66c4.82 0 9.393-4.286 12-7.122 1.304-1.418 2.739-3.133 3.786-4.068C59.833 53.875 61.176 53 63 53h7v-3zM53 63v3c3.69 0 6.382.78 8.48 3.17 2.1 2.392 3.613 5.378 7.22 7.303.828.442 2.255.527 3.3.527h9v-3h-9c-.52 0-1.704-.04-2.284-.376-2.742-1.583-4.006-3.764-6.328-6.244C61.028 64.859 56.27 63 53 63z"/>
    <path fill-rule="evenodd" d="M35 63v3h59v-3z"/>
  </g>
  <rect width="69.009" height="1.045" x="29.433" y="31.012" opacity=".554" rx=".522"/>
</svg>
