<?xml version="1.0" encoding="UTF-8" standalone="no"?>
<!-- Created with Inkscape (http://www.inkscape.org/) -->
<svg height="128" width="128" xmlns="http://www.w3.org/2000/svg" xmlns:xlink="http://www.w3.org/1999/xlink">
  <defs>
    <radialGradient id="screen_1_" cx="-444.26901" cy="472.36819" gradientTransform="matrix(1.0621 .0052 -.0037 .5413 537.5995 -182.909)" gradientUnits="userSpaceOnUse" r="73.3256">
      <stop offset="0" stop-color="#a8dde0"/>
      <stop offset="1" stop-color="#2c72c7"/>
    </radialGradient>
    <linearGradient id="lg1">
      <stop offset="0" stop-color="#fff"/>
      <stop offset="1" stop-color="#0057ae"/>
    </linearGradient>
    <radialGradient id="reflection02_1_" cx="-500.83539" cy="402.33691" gradientTransform="matrix(1.6756 .085 -.034 .4791 939.4731 -137.0001)" gradientUnits="userSpaceOnUse" r="73.7332" xlink:href="#lg1"/>
    <radialGradient id="reflection01_1_" cx="-500.83539" cy="402.33591" gradientTransform="matrix(1.6756 .085 -.034 .4791 939.4731 -137.0001)" gradientUnits="userSpaceOnUse" r="73.733597" xlink:href="#lg1"/>
    <linearGradient id="path123_1_" gradientTransform="matrix(1.1643 0 0 -1.1643 -261.7865 -161.0988)" gradientUnits="userSpaceOnUse" x1="280.2725" x2="280.2725" y1="-223.708" y2="-196.7085">
      <stop offset="0" stop-color="#e8e8e8"/>
      <stop offset=".5" stop-color="#9e9e9e"/>
      <stop offset="1" stop-color="#e8e8e8"/>
    </linearGradient>
    <linearGradient id="path116_1_" gradientTransform="matrix(1.1643 0 0 -1.1643 -261.7865 -161.0988)" gradientUnits="userSpaceOnUse" x1="265.2725" x2="295.2725" y1="-210.208" y2="-210.208">
      <stop offset="0" stop-color="#fff"/>
      <stop offset="1" stop-color="#eeeeec"/>
    </linearGradient>
    <radialGradient id="path109_1_" cx="277.2715" cy="-195.709" gradientTransform="matrix(1.1643 0 0 -1.1643 -261.7865 -161.0988)" gradientUnits="userSpaceOnUse" r="12.1655">
      <stop offset="0" stop-color="#888"/>
      <stop offset="1" stop-color="#888"/>
    </radialGradient>
    <radialGradient id="path53_1_" cx="273.2715" cy="-187.5679" gradientTransform="matrix(1.1643 0 0 -1.1643 -261.7865 -161.0988)" gradientUnits="userSpaceOnUse" r="40.3113">
      <stop offset="0" stop-color="#888a85"/>
      <stop offset="1" stop-color="#8f8f8f"/>
    </radialGradient>
    <linearGradient id="XMLID_2_" gradientTransform="matrix(-.7071 .7071 -.7071 -.7071 174.4389 69.17904)" gradientUnits="userSpaceOnUse" x1="60.5757" x2="108.4979" y1="87.6729" y2="54.1174">
      <stop offset="0" stop-color="#888a85"/>
      <stop offset=".497" stop-color="#eee"/>
      <stop offset="1" stop-color="#8f8f8f"/>
    </linearGradient>
    <linearGradient id="XMLID_1_00000000" gradientTransform="translate(-392.5 -194.4415)" gradientUnits="userSpaceOnUse" spreadMethod="pad" x1="63.848099" x2="105.0704" y1="50.204102" y2="91.426399">
      <stop offset="0" stop-color="#888a85"/>
      <stop offset="1" stop-color="#fff"/>
    </linearGradient>
    <linearGradient id="linearGradient15831" gradientTransform="matrix(1 0 0 1.176172 -.3442 4.985)" gradientUnits="userSpaceOnUse" x1="64.000504" x2="64.000504" y1="74.832001" y2="5.6362">
      <stop offset="0" stop-color="#323232"/>
      <stop offset="1"/>
    </linearGradient>
    <linearGradient id="lg2">
      <stop offset="0" stop-color="#fff"/>
      <stop offset="1" stop-color="#babdb6"/>
    </linearGradient>
    <radialGradient id="radialGradient15834" cx="39.346699" cy="-3726.5532" gradientTransform="matrix(0 1.945505 -.0407 0 -31.4197 -63.1147)" gradientUnits="userSpaceOnUse" r="65.172997" xlink:href="#lg2"/>
    <linearGradient id="linearGradient15837" gradientTransform="matrix(0 .605023 -.6769 0 -430.9124 41.518)" gradientUnits="userSpaceOnUse" x1="18.2651" x2="18.2651" xlink:href="#lg2" y1="-651.11432" y2="-647.95728"/>
    <radialGradient id="radialGradient15840" cx="-356.52341" cy="4626.2236" gradientTransform="matrix(.7493 0 0 .08174392 330.816 -285.2821)" gradientUnits="userSpaceOnUse" r="72.5868" xlink:href="#lg2"/>
    <linearGradient id="linearGradient15843" gradientTransform="matrix(.6972 0 0 .69253 295.6114 -105.1792)" gradientUnits="userSpaceOnUse" x1="-332.67139" x2="-332.67139" y1="287.6348" y2="290.79071">
      <stop offset="0" stop-color="#fff"/>
      <stop offset="1" stop-color="#bbb"/>
    </linearGradient>
    <linearGradient id="linearGradient15846" gradientTransform="matrix(.7671 0 0 .728991 342.3355 -192.7387)" gradientUnits="userSpaceOnUse" x1="-363.21289" x2="-363.21289" y1="274.17969" y2="276.59119">
      <stop offset="0" stop-color="#fff"/>
      <stop offset=".59170002" stop-color="#ddd"/>
    </linearGradient>
    <radialGradient id="radialGradient15849" cx="-384.9321" cy="4509.3428" gradientTransform="matrix(.8245 0 0 .06586561 381.0904 -289.8664)" gradientUnits="userSpaceOnUse" r="72.543503" xlink:href="#lg2"/>
    <linearGradient id="linearGradient15852" gradientTransform="matrix(1 0 0 1.176172 -.3442 4.985)" gradientUnits="userSpaceOnUse" x1="64.000504" x2="64.000504" y1="79.968803" y2=".5005">
      <stop offset="0" stop-color="#888a85"/>
      <stop offset=".0087" stop-color="#969892"/>
      <stop offset=".0238" stop-color="#a6a9a2"/>
      <stop offset=".0426" stop-color="#b2b4ae"/>
      <stop offset=".0689" stop-color="#b8bbb4"/>
      <stop offset=".142" stop-color="#babdb6"/>
    </linearGradient>
    <radialGradient id="radialGradient15855" cx="-500.83539" cy="402.33591" gradientTransform="matrix(1.6756 .09997458 -.034 .563504 939.1289 -156.1507)" gradientUnits="userSpaceOnUse" r="73.733597" xlink:href="#reflection01_1_"/>
    <radialGradient id="radialGradient15858" cx="-500.83539" cy="402.33691" gradientTransform="matrix(1.6756 .09997458 -.034 .563504 939.1289 -156.1507)" gradientUnits="userSpaceOnUse" r="73.7332" xlink:href="#reflection02_1_"/>
    <radialGradient id="radialGradient15861" cx="-444.26901" cy="472.36819" gradientTransform="matrix(1.0621 .00611609 -.0037 .636662 537.2553 -210.1475)" gradientUnits="userSpaceOnUse" r="73.3256" xlink:href="#screen_1_"/>
    <linearGradient id="linearGradient15864" gradientUnits="userSpaceOnUse" x1="63.569401" x2="63.569401" y1="137.0164" y2="80.377001">
      <stop offset=".3373" stop-color="#555"/>
      <stop offset=".86979997" stop-color="#eee"/>
    </linearGradient>
    <linearGradient id="linearGradient15868" gradientUnits="userSpaceOnUse" x1="70.011299" x2="40.2598" y1="111.546602" y2="111.546602">
      <stop offset=".2485" stop-color="#555"/>
      <stop offset=".60729998" stop-color="#323232"/>
      <stop offset="1" stop-color="#888"/>
    </linearGradient>
    <radialGradient id="radialGradient15871" cx="-378.3623" cy="1429.1943" gradientTransform="matrix(.8065 0 0 .218 368.7183 -201.7897)" gradientUnits="userSpaceOnUse" r="11.8227">
      <stop offset="0"/>
      <stop offset="1" stop-color="#bbb"/>
    </radialGradient>
    <radialGradient id="radialGradient15874" cx="63.722698" cy="13.2764" gradientTransform="matrix(1 0 0 -1 -.2065 146.9089)" gradientUnits="userSpaceOnUse" r="54.140999">
      <stop offset=".27810001" stop-color="#eee"/>
      <stop offset=".60729998" stop-color="#bbb"/>
      <stop offset="1" stop-color="#fff"/>
    </radialGradient>
    <radialGradient id="radialGradient15890" cx="275.2705" cy="-188.5688" gradientTransform="matrix(1.1643 0 0 -1.1643 -241.8622 -169.1094)" gradientUnits="userSpaceOnUse" r="35.7362">
      <stop offset="0" stop-color="#fff"/>
      <stop offset=".5621" stop-color="#888"/>
      <stop offset="1" stop-color="#bbb"/>
    </radialGradient>
    <radialGradient id="radialGradient15896" cx="297.6113" cy="-163.2012" gradientTransform="matrix(1.1643 0 0 -1.1643 -241.8622 -169.1094)" gradientUnits="userSpaceOnUse" r="9.4935">
      <stop offset="0" stop-color="#fff"/>
      <stop offset="1" stop-color="#a3a3a3"/>
    </radialGradient>
    <linearGradient id="linearGradient15898" gradientTransform="matrix(1.1643 0 0 -1.1643 -241.8622 -169.1094)" gradientUnits="userSpaceOnUse" x1="303.0947" x2="299.4452" y1="-162.6787" y2="-161.636">
      <stop offset="0" stop-color="#888a85"/>
      <stop offset="1" stop-color="#f2f2f2"/>
    </linearGradient>
    <linearGradient id="lg3">
      <stop offset="0" stop-color="#fff"/>
      <stop offset="1" stop-color="#cfcfcf"/>
    </linearGradient>
    <radialGradient id="radialGradient15904" cx="287.0537" cy="-163.0664" gradientTransform="matrix(1.1643 0 0 -1.1643 -241.8622 -169.1094)" gradientUnits="userSpaceOnUse" r="2.8251" xlink:href="#lg3"/>
    <radialGradient id="radialGradient15910" cx="276.0527" cy="-163.0664" gradientTransform="matrix(1.1643 0 0 -1.1643 -241.8622 -169.1094)" gradientUnits="userSpaceOnUse" r="2.8259" xlink:href="#lg3"/>
    <radialGradient id="radialGradient15916" cx="265.0537" cy="-163.0664" gradientTransform="matrix(1.1643 0 0 -1.1643 -241.8622 -169.1094)" gradientUnits="userSpaceOnUse" r="2.8251" xlink:href="#lg3"/>
    <radialGradient id="radialGradient15978" cx="-278.99991" cy="-55.000008" gradientTransform="matrix(1.082646 -.00000027 .00000019 .603922 23.05814 -21.78436)" gradientUnits="userSpaceOnUse" r="30">
      <stop offset="0" stop-color="#fdffd5"/>
      <stop offset=".53658539" stop-color="#fff" stop-opacity=".498039"/>
      <stop offset="1" stop-color="#fff" stop-opacity="0"/>
    </radialGradient>
    <radialGradient id="radialGradient3090" cx="-500.83539" cy="402.33591" gradientTransform="matrix(.780943 .03961576 -.0158463 .223293 478.7406 1.5954)" gradientUnits="userSpaceOnUse" r="73.733597" xlink:href="#reflection01_1_"/>
    <radialGradient id="radialGradient3093" cx="-500.83539" cy="402.33691" gradientTransform="matrix(.780943 .03961576 -.0158463 .223293 478.7406 1.5954)" gradientUnits="userSpaceOnUse" r="73.7332" xlink:href="#reflection02_1_"/>
    <radialGradient id="radialGradient3096" cx="-444.26901" cy="472.36819" gradientTransform="matrix(.495011 .00242355 -.00172445 .252282 291.4402 -19.8012)" gradientUnits="userSpaceOnUse" r="73.3256" xlink:href="#screen_1_"/>
    <linearGradient id="linearGradient3099" gradientUnits="userSpaceOnUse" x1="68.575231" x2="81.117693" y1="73.9784" y2="96.11529">
      <stop offset="0" stop-color="#2f2f2f"/>
      <stop offset=".236" stop-color="#4d4d4d"/>
      <stop offset=".427" stop-color="#969696"/>
      <stop offset=".5169" stop-color="#d3d7cf"/>
      <stop offset="1" stop-color="#919191"/>
    </linearGradient>
    <linearGradient id="linearGradient3102" gradientTransform="translate(47.711 -124.3202)" gradientUnits="userSpaceOnUse" x1="43.7309" x2="-2.109624" xlink:href="#XMLID_2_" y1="190.02768" y2="224.32768"/>
    <linearGradient id="linearGradient3156" gradientTransform="matrix(.13297 0 0 -.13297 78.25 40.6886)" gradientUnits="userSpaceOnUse" x1="280.2725" x2="280.27249" xlink:href="#path123_1_" y1="-223.708" y2="-184.37817"/>
    <linearGradient id="linearGradient3159" gradientTransform="matrix(.13297 0 0 -.13297 78.25 40.6886)" gradientUnits="userSpaceOnUse" x1="265.2725" x2="295.2725" xlink:href="#path116_1_" y1="-210.208" y2="-210.208"/>
    <radialGradient id="radialGradient3162" cx="277.2715" cy="-195.709" gradientTransform="matrix(.13297 0 0 -.13297 78.25 40.6886)" gradientUnits="userSpaceOnUse" r="12.1655" xlink:href="#path109_1_"/>
    <linearGradient id="linearGradient3216" gradientTransform="matrix(.13297 0 0 -.13297 71.5267 40.6885)" gradientUnits="userSpaceOnUse" x1="280.2725" x2="279.66714" xlink:href="#path123_1_" y1="-223.708" y2="-183.77357"/>
    <linearGradient id="linearGradient3219" gradientTransform="matrix(.13297 0 0 -.13297 71.5267 40.6885)" gradientUnits="userSpaceOnUse" x1="265.2725" x2="295.2725" xlink:href="#path116_1_" y1="-210.208" y2="-210.208"/>
    <radialGradient id="radialGradient3222" cx="277.2715" cy="-195.709" gradientTransform="matrix(.13297 0 0 -.13297 71.5267 40.6885)" gradientUnits="userSpaceOnUse" r="12.1655" xlink:href="#path109_1_"/>
    <linearGradient id="linearGradient3276" gradientTransform="matrix(.13297 0 0 -.13297 64.5267 43.9653)" gradientUnits="userSpaceOnUse" x1="280.2725" x2="279.66714" xlink:href="#path123_1_" y1="-223.708" y2="-184.37961"/>
    <linearGradient id="linearGradient3279" gradientTransform="matrix(.13297 0 0 -.13297 64.5267 43.9653)" gradientUnits="userSpaceOnUse" x1="265.2725" x2="295.2725" xlink:href="#path116_1_" y1="-210.208" y2="-210.208"/>
    <radialGradient id="radialGradient3282" cx="277.2715" cy="-195.709" gradientTransform="matrix(.13297 0 0 -.13297 64.5267 43.9653)" gradientUnits="userSpaceOnUse" r="12.1655" xlink:href="#path109_1_"/>
    <linearGradient id="linearGradient3336" gradientTransform="matrix(.252351 0 0 -.252351 31.1007 50.5482)" gradientUnits="userSpaceOnUse" x1="280.2725" x2="280.2725" xlink:href="#path123_1_" y1="-223.708" y2="-196.7085"/>
    <linearGradient id="linearGradient3339" gradientTransform="matrix(.252351 0 0 -.252351 31.1007 50.5482)" gradientUnits="userSpaceOnUse" x1="265.2725" x2="295.2725" xlink:href="#path116_1_" y1="-210.208" y2="-210.208"/>
    <radialGradient id="radialGradient3342" cx="277.2715" cy="-195.709" gradientTransform="matrix(.252351 0 0 -.252351 31.1007 50.5482)" gradientUnits="userSpaceOnUse" r="12.1655" xlink:href="#path109_1_"/>
    <radialGradient id="radialGradient3346" cx="273.2715" cy="-187.5679" gradientTransform="matrix(.225323 0 0 -.225323 39.2833 56.576)" gradientUnits="userSpaceOnUse" r="40.3113" xlink:href="#path53_1_"/>
    <linearGradient id="linearGradient3349" gradientTransform="matrix(-.136843 .136843 -.136843 -.136843 123.7045 101.1409)" gradientUnits="userSpaceOnUse" x1="60.5757" x2="108.4979" xlink:href="#XMLID_2_" y1="87.6729" y2="54.1174"/>
    <linearGradient id="linearGradient3352" gradientTransform="matrix(.193527 0 0 .193527 13.9868 50.1233)" gradientUnits="userSpaceOnUse" x1="63.848099" x2="105.0704" xlink:href="#XMLID_1_00000000" y1="50.204102" y2="91.426399"/>
    <radialGradient id="radialGradient3417" cx="264.1631" cy="-164.3008" gradientTransform="matrix(.80672 0 0 -.80672 -142.1086 -71.4223)" gradientUnits="userSpaceOnUse" r="4.5762" xlink:href="#lg3"/>
    <linearGradient id="lg4">
      <stop offset="0" stop-color="#fff"/>
      <stop offset="1" stop-color="#888a85"/>
    </linearGradient>
    <linearGradient id="linearGradient3420" gradientTransform="matrix(.69288 0 0 .604607 25.4728 48.053)" gradientUnits="userSpaceOnUse" x1="67.4131" x2="67.4131" xlink:href="#lg4" y1="17.999" y2="23.2285"/>
    <radialGradient id="radialGradient3424" cx="275.1621" cy="-164.3008" gradientTransform="matrix(.80672 0 0 -.80672 -142.1086 -71.4223)" gradientUnits="userSpaceOnUse" r="4.5769" xlink:href="#lg3"/>
    <linearGradient id="linearGradient3427" gradientUnits="userSpaceOnUse" x1="83.62197356" x2="83.62197356" y1="112.111705848" y2="113.073146136">
      <stop offset="0" stop-color="#ddd"/>
      <stop offset="1" stop-color="#888"/>
    </linearGradient>
    <radialGradient id="radialGradient3431" cx="286.1631" cy="-164.3008" gradientTransform="matrix(.80672 0 0 -.80672 -142.1086 -71.4223)" gradientUnits="userSpaceOnUse" r="4.5762" xlink:href="#lg3"/>
    <linearGradient id="linearGradient3434" gradientUnits="userSpaceOnUse" x1="83.62266921152" x2="83.62266921152" y1="43.21753884" y2="42.143436264">
      <stop offset="0" stop-color="#ddd"/>
      <stop offset="1" stop-color="#fff"/>
    </linearGradient>
    <linearGradient id="linearGradient3439" gradientTransform="matrix(.80672 0 0 -.80672 -142.1086 -71.4223)" gradientUnits="userSpaceOnUse" x1="301.1719" x2="301.1719" xlink:href="#lg4" y1="-161.1401" y2="-164.8763"/>
    <linearGradient id="linearGradient3442" gradientTransform="matrix(.80672 0 0 -.80672 -142.1086 -71.4223)" gradientUnits="userSpaceOnUse" x1="262.2715" x2="262.2715" y1="-166.0864" y2="-160.5635">
      <stop offset="0" stop-color="#fff"/>
      <stop offset=".4912" stop-color="#d7d7d7"/>
      <stop offset=".8791" stop-color="#e1e1e1"/>
      <stop offset="1" stop-color="#e6e6e6"/>
    </linearGradient>
    <radialGradient id="radialGradient3446" cx="273.2715" cy="-187.5679" gradientTransform="matrix(.454032 0 0 -.454032 -21.7238 -6.1411)" gradientUnits="userSpaceOnUse" r="40.3113" xlink:href="#path53_1_"/>
    <linearGradient id="linearGradient3449" gradientTransform="matrix(-.275741 .275741 -.275741 -.275741 148.387 83.6582)" gradientUnits="userSpaceOnUse" x1="60.5757" x2="108.4979" xlink:href="#XMLID_2_" y1="87.6729" y2="54.1174"/>
    <linearGradient id="linearGradient3452" gradientTransform="matrix(1 0 0 1.027907 71.9315 -131.6563)" gradientUnits="userSpaceOnUse" x1="-31" x2="53.486633" y1="210.70589" y2="210.70589">
      <stop offset="0" stop-color="#e8e8e8"/>
      <stop offset=".2145" stop-color="#dfdfdf"/>
      <stop offset=".5725" stop-color="#c5c5c5"/>
      <stop offset="1" stop-color="#9e9e9e"/>
    </linearGradient>
    <linearGradient id="linearGradient3455" gradientTransform="matrix(.80672 0 0 -.80672 -142.1086 -71.4223)" gradientUnits="userSpaceOnUse" x1="255.2764" x2="267.6215" y1="-155.9102" y2="-228.0827">
      <stop offset="0" stop-color="#ababab"/>
      <stop offset=".4228" stop-color="#d4d4d4"/>
      <stop offset="1" stop-color="#a6a6a6"/>
    </linearGradient>
    <linearGradient id="linearGradient3527" gradientTransform="matrix(.213811 0 0 -.213811 49.41544 41.73456)" gradientUnits="userSpaceOnUse" x1="280.2725" x2="280.2725" xlink:href="#path123_1_" y1="-223.708" y2="-196.7085"/>
    <linearGradient id="linearGradient3530" gradientTransform="matrix(.213811 0 0 -.213811 49.41544 41.73456)" gradientUnits="userSpaceOnUse" x1="265.2725" x2="295.2725" xlink:href="#path116_1_" y1="-210.208" y2="-210.208"/>
    <radialGradient id="radialGradient3533" cx="277.2715" cy="-195.709" gradientTransform="matrix(.213811 0 0 -.213811 49.41544 41.73456)" gradientUnits="userSpaceOnUse" r="12.1655" xlink:href="#path109_1_"/>
    <radialGradient id="radialGradient3536" cx="274.8682" cy="-187.4736" gradientTransform="matrix(.213811 0 0 -.213811 49.41544 41.73456)" gradientUnits="userSpaceOnUse" r="38.6712">
      <stop offset="0" stop-color="#fff"/>
      <stop offset=".0886" stop-color="#ebebeb"/>
      <stop offset=".2702" stop-color="#b7b7b7"/>
      <stop offset=".5266" stop-color="#656565"/>
      <stop offset=".574" stop-color="#555"/>
      <stop offset=".6124" stop-color="#676767"/>
      <stop offset=".7014" stop-color="#8b8b8b"/>
      <stop offset=".7846" stop-color="#a6a6a6"/>
      <stop offset=".859" stop-color="#b5b5b5"/>
      <stop offset=".9172" stop-color="#bbb"/>
    </radialGradient>
    <radialGradient id="radialGradient3539" cx="274.2725" cy="-190.7085" gradientTransform="matrix(.213811 0 0 -.213811 49.41544 41.73456)" gradientUnits="userSpaceOnUse" r="30.4626">
      <stop offset="0" stop-color="#bbb"/>
      <stop offset="1" stop-color="#555"/>
    </radialGradient>
    <radialGradient id="radialGradient3543" cx="273.2715" cy="-187.5679" gradientTransform="matrix(.213811 0 0 -.213811 49.41544 41.73456)" gradientUnits="userSpaceOnUse" r="40.3113" xlink:href="#path53_1_"/>
    <linearGradient id="linearGradient3546" gradientTransform="matrix(-.129851 .129851 -.129851 -.129851 129.5236 84.02264)" gradientUnits="userSpaceOnUse" x1="60.5757" x2="108.4979" xlink:href="#XMLID_2_" y1="87.6729" y2="54.1174"/>
    <linearGradient id="linearGradient3549" gradientTransform="matrix(.18364 0 0 .18364 25.41129 35.61153)" gradientUnits="userSpaceOnUse" x1="63.848099" x2="105.0704" xlink:href="#XMLID_1_00000000" y1="50.204102" y2="91.426399"/>
  </defs>
  <g/>
  <g>
    <g transform="translate(-.3442 19.073)">
      <path d="m31.916 93.965c0 .031.001.063.004.096l.036.375c-.007-.072-.006-.141.003-.213-.004.034-.006.067-.006.102 0 .313.158.63.158.814 0 .057-.07.064-.11.092.89 9.398 24.506 10.158 31.858 10.158 7.494 0 31.944-.768 31.944-10.631-.002-.064-.018-.307-.018-.307-.002-.023-.008-.076-.014-.124.012-.114.027-.265.027-.266 0-9.964-24.446-10.73-31.939-10.73s-31.943.767-31.943 10.634z" opacity=".1"/>
      <path d="m32.916 93.965s.036.377.036.378c-.011.089-.021.18-.021.18 0 .006-.014.235-.014.235 0 9.166 25.776 9.631 30.943 9.631s30.944-.465 30.944-9.631l-.016-.242s-.011-.092-.021-.182c.008-.067.038-.369.038-.369 0-9.17-25.777-9.634-30.944-9.634-5.168 0-30.945.464-30.945 9.634z" opacity=".15"/>
      <path d="m33.916 93.965c0 .062.006.125.018.187 0 0 .015.077.03.155-.017.145-.04.334-.04.334-.004.039-.007.078-.007.117 0 6.812 18.822 8.631 29.943 8.631 11.122 0 29.944-1.818 29.944-8.631 0-.041-.003-.081-.008-.121 0 0-.022-.187-.04-.334.014-.068.028-.137.028-.137.014-.067.021-.133.021-.201 0-6.815-18.822-8.634-29.944-8.634s-29.945 1.818-29.945 8.634z" opacity=".2"/>
      <path d="m34.916 93.965s.031.162.059.307c-.019.16-.058.486-.058.486 0 5.01 14.56 7.631 28.943 7.631 14.384 0 28.944-2.621 28.944-7.631 0 0-.041-.336-.061-.497.025-.12.062-.296.062-.296 0-5.012-14.561-7.634-28.944-7.634s-28.945 2.622-28.945 7.634zm1.859-.164.156.324c-.186-.386-.615-.744-1.038-.707.374-.065.703.011.882.383zm-1.125-.34c.058-.019.11-.017.167-.029-.088.016-.152.062-.231.09.026-.014.035-.051.064-.061z" opacity=".25"/>
      <path d="m91.665 94.627c.092-.217.14-.438.14-.662 0-3.663-12.511-6.634-27.944-6.634-15.434 0-27.945 2.971-27.945 6.634 0 .913.777 1.783 2.183 2.574-1.197-.672-1.94-1.401-2.136-2.166-.03.127-.045.256-.045.385 0 3.662 12.518 6.631 27.943 6.631s27.944-2.969 27.944-6.631c0-.129-.016-.258-.047-.385-.023.086-.057.17-.093.254zm-53.031 2.195c-.111-.055-.213-.111-.317-.167.104.056.206.113.317.167zm2.634 1.046c-.002-.001-.005-.001-.007-.003.002.002.004.002.007.003zm-.727-.249c-.023-.008-.044-.016-.067-.023.022.008.044.015.067.023zm-.683-.256c-.046-.019-.088-.037-.133-.055.045.018.087.037.133.055zm-.637-.266c-.07-.031-.135-.063-.204-.095.069.031.134.063.204.095zm50.894-.855c.623-.404 1.085-.828 1.367-1.266-.282.438-.742.862-1.367 1.266zm-2.233 1.113c.001-.001.002-.001.003-.002-.001.001-.002.002-.003.002zm.634-.265c.02-.01.037-.018.057-.027-.02.009-.038.017-.057.027zm.584-.275c.045-.022.086-.046.13-.068-.044.023-.085.046-.13.068zm.535-.283c.092-.052.175-.104.261-.157-.087.053-.169.105-.261.157zm2.023-1.886c-.047.109-.104.217-.173.324.069-.107.126-.214.173-.324z" opacity=".3"/>
    </g>
    <path d="m91.4608 111.28004c0 4.533-12.511 8.207-27.944 8.207-15.434 0-27.945-3.675-27.945-8.207 0-4.531 12.511-8.205 27.945-8.205 15.433 0 27.944 3.674 27.944 8.205z" fill="url(#radialGradient15874)"/>
    <path d="m73.0958 109.78604c.006 1.422-4.254 2.575-9.516 2.576-5.262.002-9.531-1.148-9.538-2.57 0-.002 0-.004 0-.006-.006-1.424 4.254-2.577 9.516-2.578 5.262-.002 9.531 1.148 9.538 2.57z" fill="url(#radialGradient15871)" opacity=".3"/>
    <path d="m69.9828 107.57704c.506 1.898-5.73 5.213-13.929 7.404-8.201 2.191-15.259 2.432-15.766.535s5.729-5.211 13.93-7.403 15.258-2.433 15.765-.536z" fill="url(#linearGradient15868)" opacity=".3"/>
    <path d="m57.6118 89.87604h11.915c.217 0 .393.156.393.352v19.377c0 .194-.176.354-.393.354h-11.915c-.217 0-.393-.158-.393-.354v-19.378c0-.195.176-.351.393-.351z"/>
    <path d="m57.5698 89.87604h11.999c.193 0 .351.1.351.227v19.629c0 .125-.157.227-.351.227h-11.999c-.193 0-.352-.102-.352-.227v-19.632c.001-.125.159-.224.352-.224z" fill="url(#linearGradient15864)"/>
    <rect fill="url(#radialGradient15861)" height="84.48793" width="108.227" x="9.542786" y="10.06366"/>
    <path d="m9.5428 10.06954v36.79888c11.717-.66336 22.976-.27404 33.958.75628 4.603 1.34672 28.62-35.46745 55.376-37.09998zm108.22 14.96561c-5.05.68336-10.103 1.53138-15.066 2.72048-10.907 2.61581-20.049 12.85556-28.936 24.07859 14.692 2.537 29.202 5.50566 44.002 7.77332z" fill="url(#radialGradient15858)" opacity=".4655"/>
    <path d="m9.5428 10.06954v36.79888c11.717-.66336 62.578-34.71117 89.333-36.3437zm108.22 14.96561c-5.05.68336-10.103 1.53138-15.066 2.72048-10.907 2.61581.267 29.58425 15.066 31.85191z" fill="url(#radialGradient15855)" opacity=".1681"/>
    <path d="m117.7688 5.57304h-108.226c-2.105 0-3.818 2.01478-3.818 4.49062v84.48676c0 2.47584 1.713 4.49062 3.818 4.49062h108.227c2.105 0 3.818-2.01478 3.818-4.49062v-84.48676c0-2.47584-1.713-4.49062-3.819-4.49062zm-106.409 86.8391c0-1.15147 0-79.0599 0-80.2102h104.592v80.2102c-.985 0-103.606 0-104.592 0z" fill="url(#linearGradient15852)"/>
    <path d="m8.3658 7.14088h110.697c.181 0 .326.12938.326.29169v2.60051c0 .16114-.146.29169-.326.29169h-110.697c-.18 0-.327-.12938-.327-.29169v-2.59934c0-.16231.147-.29286.327-.29286z" fill="url(#radialGradient15849)" opacity=".7112"/>
    <path d="m8.4688 7.14088h110.492c.237 0 .43.07174.43.15996v1.4314c0 .08821-.192.15996-.43.15996h-110.492c-.237 0-.431-.07175-.431-.15996v-1.43023c.001-.08821.193-.16113.431-.16113z" fill="url(#linearGradient15846)" opacity=".7112"/>
    <path d="m14.3708 94.01761h98.604c.718 0 1.3.48929 1.3 1.08914 0 .6022-.582 1.08913-1.3 1.08913h-98.604c-.717 0-1.299-.48693-1.299-1.08913 0-.59985.582-1.08914 1.299-1.08914z" fill="url(#linearGradient15843)" opacity=".7112"/>
    <path d="m13.5528 92.84144h100.239c.267 0 .481.16349.481.36344v3.23212c0 .2023-.215.36343-.481.36343h-100.239c-.266 0-.481-.16348-.481-.36343v-3.23212c0-.19995.215-.36344.481-.36344z" fill="url(#radialGradient15840)" opacity=".7112"/>
    <path d="m9.8598 13.74861v77.64143c0 .21407-.078.38579-.175.38579h-1.779c-.096 0-.174-.17172-.174-.38579v-77.64143c0-.21289.078-.38579.174-.38579h1.779c.097 0 .175.1729.175.38579z" fill="url(#linearGradient15837)" opacity=".2284"/>
    <path d="m120.2758 10.93991v84.71611c0 .27287-.184 1.28908-.836 1.60782-.652.31875-1.393 0-1.393 0-.124 0-.225-1.33495-.225-1.60782v-75.79602c0-.27288 1.935-9.41291 2.059-9.41291h.17c.125 0 .225.21995.225.49282z" fill="url(#radialGradient15834)" opacity=".6466"/>
    <path d="m10.8598 11.61386v81.38636h105.592c0-6.85708 0-74.52811 0-81.38636-6.038 0-99.554 0-105.592 0zm104.592 80.21019c-1.943 0-101.648 0-103.592 0 0-2.25119 0-76.78283 0-79.03402h103.592z" fill="url(#linearGradient15831)"/>
    <path d="m-249-55a30 22 0 1 1 -60 0 30 22 0 1 1 60 0z" fill="url(#radialGradient15978)" transform="matrix(2.016667 0 0 2.318182 624.15 179.5)"/>
    <path d="m42.65025 51.52355c-1.13787.10477-2.2463.9889-2.625 2.125l-.53125 1.625c-.23696.70743-.5625 3.66535-.5625 4.3125 0 .01315.75 50.0625.75 50.0625s.10005.48088.125.625c.1064.57275.30898 1.13338.625 1.65625h28.5v.09375h55.53125c1.31163 0 2.38616-1.06338 2.40625-2.375 0 0 .75-50.04933.75-50.0625 0-.64716-.32762-3.60506-.5625-4.3125-.00139-.00001-.53125-1.625-.53125-1.625-.39633-1.19038-1.64576-2.125-2.84375-2.125h-80.8125c-.076 0-.14289-.00698-.21875 0z" fill="url(#linearGradient3455)"/>
    <rect fill="url(#linearGradient3452)" height="52.000008" rx="2" width="84.486633" x="40.931488" y="58.929798"/>
    <path d="m121.41851 76.17529c-4.3894-4.3894-11.60328-4.31726-16.08121.16066-4.47753 4.47793-4.54967 11.69181-.16027 16.08122 4.38901 4.389 11.6029 4.31726 16.08082-.16028 4.47793-4.47831 4.55007-11.6922.16066-16.0816z" fill="url(#linearGradient3449)"/>
    <path d="m103.76342 84.29584c0 5.13227 4.27709 9.30758 9.53494 9.30758 5.25667 0 9.53416-4.17531 9.53416-9.30758 0-5.13228-4.27749-9.30759-9.53416-9.30759-5.25745 0-9.53494 4.17531-9.53494 9.30759z" fill="url(#radialGradient3446)"/>
    <ellipse cx="84.459" cy="70.814003" fill="url(#radialGradient15890)" rx="23.285" ry="22.702999" transform="matrix(.389961 0 0 .389961 80.3626 56.6811)"/>
    <path d="m125.75006 53.9056c-.29101-.87373-1.22085-1.57354-2.07864-1.57354h-80.79047c-.85709 0-1.78693.69981-2.07794 1.57354l-.53767 1.61302c-.30279.90837.17183 1.6546 1.06218 1.6546h83.89872c.89035 0 1.36428-.74623 1.06079-1.6546z" fill="url(#linearGradient3442)"/>
    <path d="m117.46252 53.22796c-.46561-.58964-1.59639-.86333-2.7251-.86333-1.07603 0-2.15277.24805-2.65441.78018-.92084.30972-1.57354.81552-1.57354 1.54027 0 1.31439 2.1507 1.91443 4.14828 1.91443 1.99757 0 4.14827-.59934 4.14827-1.91443-.00139-.66308-.54669-1.14325-1.3435-1.45712z" fill="url(#linearGradient3439)"/>
    <ellipse cx="108.791" cy="20.906" fill="url(#radialGradient15896)" rx="5.066" ry="1.842" transform="matrix(.69288 0 0 .69288 39.278 40.1997)"/>
    <ellipse cx="108.906" cy="19.691" fill="url(#linearGradient15898)" rx="3.338" ry="1.214" transform="matrix(.69288 0 0 .69288 39.278 40.1997)"/>
    <path d="m100.60061 54.9657c0 .97558 1.21461 1.58115 3.16992 1.58115 1.9553 0 3.16993-.60557 3.16993-1.58115 0-.97557-1.21463-1.58115-3.16993-1.58115-1.95531 0-3.16992.60558-3.16992 1.58115z" fill="url(#linearGradient3434)"/>
    <path d="m101.25746 54.73497c0 .77326 1.24441 1.119 2.47703 1.119 1.23264 0 2.47774-.34644 2.47774-1.119s-1.2451-1.119-2.47774-1.119c-1.23262 0-2.47703.34575-2.47703 1.119z" fill="url(#radialGradient3431)"/>
    <ellipse cx="93.027" cy="20.978001" fill="url(#radialGradient15904)" rx="2.994" ry="1.033" transform="matrix(.69288 0 0 .69288 39.278 40.1997)"/>
    <path d="m91.70888 54.9657c0 .97558 1.21462 1.58115 3.16993 1.58115 1.9553 0 3.16992-.60557 3.16992-1.58115 0-.97557-1.21462-1.58115-3.16992-1.58115-1.95531 0-3.16993.60558-3.16993 1.58115z" fill="url(#linearGradient3427)"/>
    <path d="m92.38374 54.73497c0 .77326 1.24511 1.119 2.47774 1.119s2.47705-.34644 2.47705-1.119-1.24442-1.119-2.47705-1.119-2.47774.34575-2.47774 1.119z" fill="url(#radialGradient3424)"/>
    <ellipse cx="80.221001" cy="20.978001" fill="url(#radialGradient15910)" rx="2.993" ry="1.033" transform="matrix(.69288 0 0 .69288 39.278 40.1997)"/>
    <path d="m82.81715 54.9657c0 .97558 1.21462 1.58115 3.16993 1.58115s3.16992-.60557 3.16992-1.58115c0-.97557-1.21461-1.58115-3.16992-1.58115s-3.16993.60558-3.16993 1.58115z" fill="url(#linearGradient3420)"/>
    <path d="m83.51003 54.73497c0 .77326 1.24511 1.119 2.47705 1.119 1.23263 0 2.47705-.34644 2.47705-1.119s-1.24442-1.119-2.47705-1.119c-1.23194 0-2.47705.34575-2.47705 1.119z" fill="url(#radialGradient3417)"/>
    <ellipse cx="67.413002" cy="20.978001" fill="url(#radialGradient15916)" rx="2.993" ry="1.033" transform="matrix(.69288 0 0 .69288 39.278 40.1997)"/>
    <path d="m107.49957 84.322896c0 2.973673 2.46738 5.393125 5.50019 5.393125 3.03261 0 5.49981-2.419452 5.49981-5.393125 0-2.973857-2.46738-5.393123-5.49981-5.393123-3.03281 0-5.50019 2.419449-5.50019 5.393123z" fill="url(#linearGradient3549)"/>
    <path d="m116.82368 80.49879c-2.06705-2.067048-5.46419-2.033075-7.57292.075657-2.10855 2.108733-2.14253 5.505878-.07548 7.572926 2.06686 2.066859 5.46401 2.033072 7.57274-.075478 2.10873-2.108915 2.1427-5.506061.07566-7.573105z" fill="url(#linearGradient3546)"/>
    <path d="m108.50959 84.322896c0 2.416878 2.01415 4.383105 4.49017 4.383105 2.47545 0 4.4898-1.966227 4.4898-4.383105 0-2.416879-2.01435-4.383106-4.4898-4.383106-2.47583 0-4.49017 1.966227-4.49017 4.383106z" fill="url(#radialGradient3543)"/>
    <ellipse cx="84.459" cy="70.814003" fill="url(#radialGradient15890)" rx="23.285" ry="22.702999" transform="matrix(.18364 0 0 .18364 97.48975 71.31865)"/>
    <path d="m109.15104 84.566953c0 2.06282 1.72639 3.741653 3.84872 3.741653 2.12195 0 3.84853-1.678833 3.84853-3.741653 0-2.063191-1.72658-3.741653-3.84853-3.741653-2.12233 0-3.84872 1.678462-3.84872 3.741653z" fill="url(#radialGradient3539)"/>
    <path d="m109.36498 84.673832c0 2.004242 1.63053 3.634774 3.63478 3.634774 2.00424 0 3.63477-1.630532 3.63477-3.634774 0-2.004243-1.63053-3.634593-3.63477-3.634593-2.00425 0-3.63478 1.63035-3.63478 3.634593z" fill="url(#radialGradient3536)"/>
    <path d="m109.57874 85.208406c0 1.827395 1.53467 3.314141 3.42102 3.314141 1.88634 0 3.42083-1.486746 3.42083-3.314141 0-1.827397-1.53467-3.314144-3.42083-3.314144-1.88617 0-3.42102 1.486747-3.42102 3.314144z" fill="url(#radialGradient3533)"/>
    <path d="m109.79249 85.208406c0 1.709683 1.43863 3.1002 3.20727 3.1002 1.76826 0 3.20707-1.390517 3.20707-3.1002 0-1.7095-1.43881-3.100202-3.20707-3.100202-1.76864-.000183-3.20727 1.390702-3.20727 3.100202z" fill="url(#linearGradient3530)"/>
    <path d="m110.00625 85.208406c0 1.591604 1.34277 2.886444 2.99351 2.886444 1.65073 0 2.99332-1.29484 2.99332-2.886444 0-1.591603-1.34277-2.886444-2.99332-2.886444-1.65056 0-2.99351 1.294841-2.99351 2.886444z" fill="url(#linearGradient3527)"/>
    <path d="m100.49473 101.45733c0 3.13378 2.60022 5.6835 5.79632 5.6835 3.1959 0 5.79593-2.54972 5.79593-5.6835 0-3.13397-2.60023-5.68349-5.79593-5.68349-3.1961 0-5.79632 2.54971-5.79632 5.68349z" fill="url(#linearGradient3352)"/>
    <path d="m110.32085 97.42733c-2.17833-2.17834-5.75838-2.14254-7.98065.07973-2.22207 2.22228-2.25787 5.80232-.07953 7.98066 2.17814 2.17814 5.75819 2.14253 7.98045-.07954 2.22227-2.22246 2.25807-5.80251.07973-7.98085z" fill="url(#linearGradient3349)"/>
    <path d="m101.55913 101.45733c0 2.54701 2.1226 4.6191 4.73192 4.6191 2.60874 0 4.73153-2.07209 4.73153-4.6191 0-2.547-2.12279-4.61909-4.73153-4.61909-2.60913 0-4.73192 2.07209-4.73192 4.61909z" fill="url(#radialGradient3346)"/>
    <ellipse cx="84.459" cy="70.814003" fill="url(#radialGradient15890)" rx="23.285" ry="22.702999" transform="matrix(.193527 0 0 .193527 89.946 87.7529)"/>
    <path d="m102.10866 101.85836c0 2.15679 1.81131 3.91153 4.03768 3.91153 2.22636 0 4.03745-1.75474 4.03745-3.91153s-1.81131-3.91152-4.03745-3.91152c-2.22616 0-4.03768 1.75473-4.03768 3.91152z" fill="url(#radialGradient3342)"/>
    <path d="m102.36095 101.85836c0 2.01786 1.69795 3.65903 3.78539 3.65903 2.08699 0 3.78516-1.64117 3.78516-3.65903 0-2.01765-1.69817-3.65902-3.78516-3.65902-2.08744-.00022-3.78539 1.64137-3.78539 3.65902z" fill="url(#linearGradient3339)"/>
    <path d="m102.61323 101.85836c0 1.8785 1.58482 3.40674 3.53311 3.40674 1.94828 0 3.53287-1.52824 3.53287-3.40674 0-1.87849-1.58481-3.40673-3.53287-3.40673-1.94808 0-3.53311 1.52824-3.53311 3.40673z" fill="url(#linearGradient3336)"/>
    <path d="m101.94241 71.00178c0 1.13646.95442 2.06107 2.12754 2.06107s2.12742-.92461 2.12742-2.06107-.95442-2.06107-2.12742-2.06107c-1.17301 0-2.12754.92461-2.12754 2.06107z" fill="url(#radialGradient3282)"/>
    <path d="m102.07534 71.00178c0 1.06325.89469 1.92802 1.99461 1.92802 1.09968 0 1.99449-.86477 1.99449-1.92802 0-1.06314-.89481-1.92802-1.99449-1.92802-1.09992-.00012-1.99461.86488-1.99461 1.92802z" fill="url(#linearGradient3279)"/>
    <path d="m102.20828 71.00178c0 .98982.83507 1.79508 1.86167 1.79508 1.02659 0 1.86155-.80526 1.86155-1.79508s-.83507-1.79509-1.86155-1.79509-1.86167.80527-1.86167 1.79509z" fill="url(#linearGradient3276)"/>
    <path d="m108.94241 67.72489c0 1.13646.95442 2.06107 2.12754 2.06107s2.12742-.92461 2.12742-2.06107-.95442-2.06107-2.12742-2.06107c-1.17301 0-2.12754.92461-2.12754 2.06107z" fill="url(#radialGradient3222)"/>
    <path d="m109.07534 67.72489c0 1.06325.89469 1.92802 1.99461 1.92802 1.09968 0 1.99449-.86477 1.99449-1.92802 0-1.06314-.89481-1.92802-1.99449-1.92802-1.09992-.00012-1.99461.86488-1.99461 1.92802z" fill="url(#linearGradient3219)"/>
    <path d="m109.20828 67.72489c0 .98982.83507 1.79508 1.86167 1.79508 1.02659 0 1.86155-.80526 1.86155-1.79508s-.83507-1.79509-1.86155-1.79509-1.86167.80527-1.86167 1.79509z" fill="url(#linearGradient3216)"/>
    <path d="m115.66563 67.72489c0 1.13646.95442 2.06107 2.12754 2.06107s2.12742-.92461 2.12742-2.06107-.95441-2.06107-2.12742-2.06107-2.12754.92461-2.12754 2.06107z" fill="url(#radialGradient3162)"/>
    <path d="m115.79857 67.72489c0 1.06325.89468 1.92802 1.9946 1.92802 1.09969 0 1.99449-.86477 1.99449-1.92802 0-1.06314-.8948-1.92802-1.99449-1.92802-1.09992-.00012-1.9946.86488-1.9946 1.92802z" fill="url(#linearGradient3159)"/>
    <path d="m115.9315 67.72489c0 .98982.83507 1.79508 1.86167 1.79508 1.02659 0 1.86155-.80526 1.86155-1.79508s-.83507-1.79509-1.86155-1.79509-1.86167.80527-1.86167 1.79509z" fill="url(#linearGradient3156)"/>
    <path d="m42.4922 65.46105v38.46875h56.4375c0-13.15625 0-26.3125 0-39.46875-18.8125 0-37.625 0-56.4375 0z" fill="url(#linearGradient3102)"/>
    <path d="m44.4922 67.46105v34.46875h52.4375c0-11.82292 0-23.64583 0-35.46875-17.47917 0-34.95833 0-52.4375 0z" fill="url(#linearGradient3099)"/>
    <rect fill="url(#radialGradient3096)" height="33.47905" width="50.441116" x="45.490387" y="67.459244"/>
    <path d="m45.49038 67.46158v14.58186c5.46092-.26286 10.70838-.10859 15.82673.29969 2.14531.53364 13.33887-14.05428 25.80898-14.70118zm50.43786 5.93025c-2.35364.27078-4.70868.60682-7.02178 1.07801-5.0834 1.03653-9.34419 5.09412-13.48613 9.54134 6.84747 1.00531 13.61011 2.18167 20.50791 3.08025z" fill="url(#radialGradient3093)" opacity=".4655"/>
    <path d="m45.49038 67.46158v14.58186c5.46092-.26286 29.1656-13.75459 41.63524-14.40149zm50.43786 5.93025c-2.35364.27078-4.70868.60682-7.02178 1.07801-5.0834 1.03653.12444 11.72301 7.02178 12.62159z" fill="url(#radialGradient3090)" opacity=".1681"/>
  </g>
</svg>
