<?xml version="1.0" encoding="UTF-8" standalone="no"?>
<!-- Created with Inkscape (http://www.inkscape.org/) -->
<svg height="160" width="160" viewBox="-16 -16 160 160" xmlns="http://www.w3.org/2000/svg" xmlns:xlink="http://www.w3.org/1999/xlink">
  <defs>
    <filter id="filter3877" color-interpolation-filters="sRGB">
      <feGaussianBlur stdDeviation="1.6574892"/>
    </filter>
    <linearGradient id="linearGradient3061" gradientUnits="userSpaceOnUse" x1="62.16717895274" x2="103.01915419129" y1="45.11782923321" y2="85.10360764475">
      <stop offset="0" stop-color="#d45500"/>
      <stop offset=".86461538" stop-color="#d45500" stop-opacity=".413302"/>
      <stop offset="1" stop-color="#d45500"/>
    </linearGradient>
    <linearGradient id="linearGradient3063" gradientUnits="userSpaceOnUse" x1="-26.57435295082" x2="110.04371325311" y1="8.15566281168" y2="58.61390604191">
      <stop offset="0" stop-color="#fff" stop-opacity=".669834"/>
      <stop offset="1" stop-color="#fff" stop-opacity="0"/>
    </linearGradient>
  </defs>
  <g/>
  <g/>
  <g>
    <g transform="matrix(1.2354319 0 0 1.2354319 -16.76636 -15.066614)">
      <path d="m69.09375 13.84375c-13.975794-.03879-27.301774 9.755091-36.78125 20.9375-3.810912 5.157926-6.529963 10.838895-8.15625 17.03125h-14.59375l-3.375 8.5h16.46875c-.262393 2.282793-.249987 4.581627-.28125 6.875h-13.96875l-3.375 8.53125h17.96875c1.794623 12.226996 7.287516 22.57745 16.03125 29.9375 4.65376 3.9173 11.462051 7.2316 17.125 8.3125 6.137881.37259 12.325877.27861 18.3125-1.15625 10.591716-3.4315 21.154005-13.053889 26.25-23.875 1.72481-3.662583 2.67032-6.694658 4.0625-13.21875h11.46875l3.375-8.53125h-13.53125c.18854-2.227782.26534-4.575128.28125-6.875h15.96875l3.375-8.5h-19.75c-2.18281-13.61808-9.781365-24.416705-20.34375-32.90625-5.483392-3.528165-11.062471-5.04732-16.53125-5.0625z" filter="url(#filter3877)"/>
      <path d="m69.080649 13.850057c-13.975794-.03879-27.287468 9.754739-36.766944 20.937148-3.810912 5.157926-6.527551 10.832142-8.153838 17.024497h-14.6052267l-3.3750314 8.512245h16.4868811c-.262393 2.282793-.267411 4.576161-.298674 6.869534h-13.9481424l-3.3750314 8.512249h17.9503898c1.794623 12.226996 7.295136 22.59709 16.03887 29.95714 4.65376 3.9173 11.451151 7.22228 17.1141 8.30318 6.137881.37259 12.322181.27003 18.308804-1.16483 10.591716-3.4315 21.157569-13.043059 26.253564-23.86417 1.72481-3.662583 2.66981-6.707228 4.06199-13.23132h-18.398409l3.4049-8.512249h16.307679c.18854-2.227782.28276-4.569662.29867-6.869534h-13.858537l3.434769-8.512245h10.005628c-2.18281-13.61808-9.777411-24.424486-20.339796-32.914031-5.483392-3.528165-11.077836-5.032434-16.546615-5.047614zm36.886411 37.961645c.29886 2.480882.43933 5.450105.41814 8.512245h15.94927l3.37503-8.512245zm.11947 15.381779c-.16582 2.877462-.74613 5.695944-1.31417 8.512249h11.46913l3.37503-8.512249zm-17.472511-40.50038c.04227-.0052.07829-.000023.119468 0 .617651.000296 1.126192.579353 1.58298 1.67258.619228 1.482061.59819 2.68017-.02987 7.675959-.783094 6.228837-4.407463 23.650604-8.542114 41.037996-5.003276 21.040128-6.895962 27.071184-9.378407 29.897414-2.588871 2.94738-6.269642 2.70775-9.079734-.56749-2.409644-2.80848-6.772054-8.973403-13.768935-19.533372-4.807175-7.255182-10.384221-15.301028-14.30655-20.668333-1.307442-1.789101-2.440669-3.299212-3.285428-4.360662-4.825979-6.063896-5.78046-8.290108-3.942517-9.318673.653683-.365815 2.222728.155938 5.854039 1.911523.581719.281237 1.139374.538243 1.67258.776556 1.042377.465888 1.995221.837962 2.867283 1.134966.07338.02499.136819.06583.209075.0896.260421.08846.536693.167241.776555.238939.114019.03219.247383.06089.358411.0896 1.614817.417604 2.928425.464113 4.002251.119472.268456-.08616.505361-.192597.746687-.328543.959319-.540407 1.723861-1.476584 2.359536-2.837415.0038-.0081-.0038-.02167 0-.02987.100601-.216708.203744-.478676.298677-.716822.109917-.274331.21836-.584397.328542-.896027.02423-.07173.06572-.135727.0896-.209071.06027-.175054.118383-.38054.179205-.567485.134675-.452663.262021-.955055.388276-1.463509.663616-2.672437 2.171341-4.390527 3.823045-4.390527.697066.000004 2.781352 1.580269 5.316426 4.002251 3.199085 3.056389 5.092803 4.586501 6.809797 5.226816.0091.0034.02074-.0034.02987 0 .172322.0635.337775.103206.507747.14934.169973.04613.337835.08944.507748.119468.679632.120116 1.38054.116651 2.150465.02987.557055-.06278 1.093944-.15772 1.612846-.328542.259443-.08541.522994-.181811.776556-.298677 1.521334-.70119 2.954029-2.004301 4.569732-4.211321.807848-1.103512 1.638662-2.432107 2.56861-4.032119 1.239929-2.133348 2.618136-4.762764 4.211321-7.944764 3.927244-7.843734 6.128257-11.284553 7.616225-11.469135zm-6.272184 19.324296c-.02718.0069-.05584.0027-.0896.02987-.03173.02701-.06062.06312-.119471.149336-.01902.0232-.03841.0307-.05973.05974-.05678.08666-.103528.170158-.179205.298673-.216117.367003-.523691.897962-.866159 1.553112-.684945 1.310302-1.565643 3.117557-2.508873 5.107348-5.381453 11.352442-7.445658 13.739072-11.857414 13.739069-2.792543-.000004-4.639187-1.14565-7.257811-4.539867-.317464-.411488-.627972-.807118-.925892-1.164832-.595851-.715428-1.125392-1.27904-1.463509-1.58298-.06465-.0581-.09933-.111971-.14934-.149337-.02048-.01377-.04075-.01868-.05973-.02987-.04889-.03312-.09037-.05378-.119472-.05973-.01158-.0045-.01885.0034-.02987 0-.23898.000003-.706846 1.326296-1.045368 2.956887-.697244 3.358716-2.744025 6.190436-4.480132 6.182581-1.343656-.0061-5.269045-1.896721-9.468007-4.569736-.401827-.255798-.773005-.477252-1.134967-.686953-.254375-.147369-.46685-.271085-.686953-.388276-.117769-.06158-.196974-.09946-.298676-.14934-.145979-.07415-.238406-.124924-.358411-.179206-.06613-.02864-.09279-.03838-.149337-.05973-.09967-.03763-.197903-.07442-.268808-.0896-.152812-.03272-.270159-.03966-.298677.02987.000332.0068-.000996.02244 0 .02987.02927.208593.279163.65739.657088 1.194704.156568.222601.343241.444894.537616.686953.777498.9682 3.707065 4.904056 6.511123 8.751188 2.804039 3.847129 6.49231 8.831508 8.213572 11.050987 1.721282 2.219508 4.786741 6.328124 6.8098 9.139467.184529.24415.184446.24805.358411.477879 1.278761 1.689396 2.119325 2.804646 2.658213 3.494503.07608.09437.135219.148364.209071.23894.822912 1.009312 1.523226 1.81576 1.881657 2.1206.431878.367303.868385.642793 1.284303.836283.831826.387 1.599189.43202 2.299799.11947.350306-.15626.684965-.41445.98563-.746679.05686-.06279.135793-.175107.209074-.328543.366389-.767213.942081-2.650387 1.702448-5.615102 1.520721-5.929428 3.787395-16.154227 6.720194-30.196081 1.555455-7.447307 2.501755-12.504197 2.837419-15.262311.184605-1.51696.179156-2.323597 0-2.449139zm-21.95264 22.549994c.901377-.000007 1.54903 1.317962 3.703574 7.526618 2.429269 7.000233 4.242358 15.803731 3.703573 17.95039-.289241 1.152493-.663785 1.43364-1.941388 1.43364-2.798774 0-4.125027-4.056986-6.152712-19.085356-.694619-5.147997-.452325-7.825299.686953-7.825292z" fill="url(#linearGradient3061)"/>
      <g fill="#fff">
        <path d="m92.585465 60.229744c.02907-.08258.802618-2.010457 1.718959-4.284174l1.666075-4.134028 4.998221.03965 4.99822.03967.18538 2.22143c.10196 1.221788.19122 3.131824.19834 4.244522l.013 2.023088h-6.915521c-4.280032 0-6.89537-.05722-6.862638-.150143v-.000007z"/>
        <path d="m86.529411 75.578957c0-.110906.731882-2.040074 1.626406-4.287038l1.626406-4.085392 8.13203-.0017 8.132027-.0017-.003.51569c-.005.790289-.42815 3.614628-.89114 5.940472l-.41658 2.092636-9.103112.01447c-7.263956.01155-9.103127-.02625-9.103127-.187174v-.000003z"/>
        <path d="m67.073397 108.86428c-.954583-.22646-2.068359-.84873-2.960835-1.65425-1.543517-1.39313-6.172834-7.751986-11.855958-16.285445-7.880151-11.832391-15.267359-22.442778-19.422886-27.897469-4.422804-5.805523-5.42754-7.391851-5.599059-8.840084-.08366-.706351-.05062-.811788.393543-1.255955.266677-.266681.638433-.484868.826114-.484868.587647 0 2.566088.735486 4.937482 1.835507 6.303556 2.924037 9.044923 3.463512 11.195548 2.203163 1.416522-.830143 2.473787-2.716782 3.419207-6.101428.781693-2.798479 1.840976-4.342634 3.273442-4.771813.554047-.165994.714113-.148408 1.318924.144909.858048.416134 2.526107 1.768598 4.893203 3.96742 3.122187 2.900243 4.343686 3.857846 5.950266 4.664768 1.028711.516688 1.62929.638523 3.065084.621806 2.662116-.031 4.747501-1.171108 6.830745-3.734478 2.040004-2.51015 3.256426-4.572091 7.360001-12.475792 3.666822-7.062479 5.134951-9.567263 6.386551-10.896128 1.185515-1.258692 1.741859-1.42905 2.427567-.743338 1.785872 1.785871 1.544052 5.837956-1.17279 19.652486-2.960916 15.055434-9.039769 41.227692-11.590638 49.902884-1.997766 6.794195-3.512958 9.877035-5.539794 11.271545-1.290476.88787-2.767996 1.20103-4.135717.87656zm3.259397-8.55123c.486906-.322228.680774-.614822 1.02795-1.551431 1.061719-2.86438 3.015961-11.030981 6.26093-26.163848 3.907249-18.221465 5.25407-25.649726 4.798248-26.464248-.209051-.373544-.430673.02555-3.902104 7.026716-3.218569 6.491215-4.544858 8.885458-5.807364 10.483562-1.846373 2.337211-3.135203 3.07958-5.562544 3.204066-2.931435.150343-4.732659-.816762-7.234221-3.884169-1.576097-1.9326-3.042251-3.535845-3.233507-3.535845-.233211 0-.481284.644995-1.029364 2.67642-1.067752 3.95758-2.785354 6.365626-4.541692 6.367389-1.199397.0013-4.714363-1.632088-8.4817-3.941169-2.906368-1.781375-4.176149-2.388897-4.176149-1.998072 0 .231001.517528.986984 2.436906 3.559729 1.139381 1.527235 3.814526 5.133092 5.944763 8.013023 2.130238 2.879928 5.53931 7.44973 7.57571 10.155116 2.036403 2.705389 5.0356 6.703965 6.664884 8.88573 3.189238 4.270696 4.837777 6.261006 5.685397 6.864091 1.272578.90547 2.505458 1.00996 3.573857.30294z"/>
        <path d="m64.87045 95.222801c-1.644162-.730757-2.784561-3.96439-4.034018-11.438533-.986293-5.899914-1.338455-8.921658-1.349938-11.58318-.01231-2.857902.136762-3.452451.887588-3.539581.775835-.09003 1.329438.941945 3.081601 5.744417 3.073972 8.425437 5.028957 17.998568 4.1199 20.174263-.350064.837859-1.598559 1.134432-2.705133.642608z"/>
      </g>
      <path d="m69.09184 13.857534c-13.975791-.03879-27.287465 9.754739-36.766938 20.937148-3.810915 5.157926-6.527551 10.832142-8.153837 17.024494h-14.6052273l-3.3750314 8.512248h16.4868807c-.262393 2.282794-.267414 4.576161-.298677 6.869534h-13.948139l-3.3750314 8.512249h17.9503894c.502056 3.420587 1.287533 6.691872 2.359536 9.796552 5.519882-3.804374 10.917799-7.225855 16.218073-10.3043-2.319141-3.340334-4.520953-6.471136-6.361787-8.990127-1.307438-1.789104-2.440666-3.299212-3.285428-4.360662-4.825976-6.063896-5.780459-8.290108-3.942517-9.318673.653683-.365811 2.222731.155938 5.854039 1.911523.581723.28124 1.139377.538243 1.672583.776556 1.042374.465888 1.995218.837962 2.867284 1.134966.07338.02499.136818.06583.209071.0896.260421.08846.536697.167241.776559.23894.114019.03219.247379.06089.358407.0896 1.614821.417604 2.928429.464113 4.002251.119472.26846-.08616.505365-.1926.74669-.328543.959319-.540407 1.723861-1.476584 2.359536-2.837418.0038-.0081-.0038-.02167 0-.02987.100601-.216707.203745-.478675.298674-.716821.10992-.274331.218363-.584398.328542-.896028.02423-.07173.06572-.135726.0896-.20907.06027-.175054.118386-.380541.179205-.567485.134678-.452664.262022-.955055.38828-1.463509.663616-2.672434 2.17134-4.390527 3.823045-4.390527.697062.000003 2.781348 1.580266 5.316419 4.002251 3.199088 3.056388 5.092802 4.586501 6.8098 5.226816.0091.0034.02074-.0034.02987 0 .172322.06351.337775.103206.507748.14934.169972.04613.337831.08944.507747.119468.679632.120115 1.38054.116651 2.150462.02987.557058-.06278 1.093947-.157723 1.612849-.328542.259439-.08541.522991-.181811.776556-.298677 1.521331-.701191 2.954029-2.004301 4.569732-4.211321.807848-1.103512 1.638662-2.432107 2.568607-4.03212 1.239928-2.133347 2.618136-4.762763 4.211324-7.944763 3.927241-7.843734 6.128254-11.284553 7.616222-11.469138.04227-.0052.07829-.00002.119471 0 .617651.000298 1.126192.579356 1.58298 1.672583.619228 1.48206.59819 2.680169-.02987 7.675958-.437975 3.483724-1.806272 10.623171-3.613971 19.145094 3.133039-.976211 6.127271-1.836336 8.960259-2.56861l.328545-.806425h3.016621c2.375467-.565467 4.610327-1.052154 6.720197-1.463509-2.47679-12.933292-9.888839-23.266584-20.070982-31.45051-5.483395-3.528165-11.077839-5.032434-16.546618-5.047614zm13.261186 32.16734c-.02718.0069-.05585.0027-.0896.02987-.03173.02701-.06062.06312-.119468.149337-.01902.0232-.03841.0307-.05973.05973-.05678.08666-.103528.170161-.179205.298676-.216117.367004-.523691.897962-.866159 1.553112-.684948 1.310302-1.565643 3.117553-2.508876 5.107348-1.090184 2.299799-2.032146 4.145843-2.897149 5.764437 1.764761-.663032 3.499813-1.295116 5.196951-1.881654.758416-3.873839 1.300791-6.80384 1.523243-8.63172.184608-1.516961.179159-2.323598 0-2.449139zm-25.686082 13.410526c-.238976.000004-.706843 1.326292-1.045364 2.956887-.697241 3.358716-2.744023 6.190436-4.48013 6.182577-1.343656-.0061-5.269044-1.896717-9.468009-4.569732-.401824-.255798-.773005-.477251-1.134967-.686953-.254372-.147368-.466848-.271085-.686953-.388279-.117766-.06158-.196971-.09946-.298677-.149337-.145975-.07415-.238402-.124924-.358408-.179206-.06612-.02864-.09279-.03838-.14934-.05973-.09966-.03763-.197903-.07442-.268808-.0896-.152808-.03272-.270155-.03966-.298673.02987.000332.0068-.000996.02243 0 .02987.02927.208593.279159.65739.657084 1.194704.156572.222601.343241.444894.537616.686953.751861.93627 3.525125 4.670078 6.242315 8.392777 5.376499-2.975584 10.607809-5.604638 15.650591-7.914898-.690952-.642349-1.367378-1.434115-2.150462-2.449139-.317467-.411487-.627975-.807118-.925896-1.164832-.59585-.715428-1.125388-1.279043-1.463508-1.58298-.06465-.0581-.09933-.111971-.149337-.149337-.02048-.01377-.04074-.01868-.05973-.02987-.04889-.03316-.09037-.05378-.119472-.05973-.01158-.0045-.01885.0034-.02987 0z" fill="url(#linearGradient3063)" fill-rule="evenodd"/>
      <text style="font-size:11.802577;font-weight:bold;letter-spacing:0;word-spacing:0;fill:#fff;font-family:AlMateen" transform="matrix(.92446954 -.38125592 .38125592 .92446954 0 0)" x="13.407681" y="57.00745"><tspan x="13.407681" y="57.00745">$k₹oog€</tspan></text>
    </g>
  </g>
</svg>
