<?xml version="1.0" encoding="UTF-8" standalone="no"?>
<!-- Created with Inkscape (http://www.inkscape.org/) -->
<svg height="128" width="128" xmlns="http://www.w3.org/2000/svg" xmlns:xlink="http://www.w3.org/1999/xlink">
  <defs>
    <linearGradient id="linearGradient4430">
      <stop offset="0" stop-color="#fff"/>
      <stop offset="1" stop-color="#fff" stop-opacity="0"/>
    </linearGradient>
    <linearGradient id="linearGradient4058">
      <stop offset="0" stop-color="#ffff0c"/>
      <stop offset="1" stop-color="#ffff0c" stop-opacity="0"/>
    </linearGradient>
    <linearGradient id="linearGradient3234">
      <stop offset="0" stop-color="#63e9ff"/>
      <stop offset="1" stop-color="#fff" stop-opacity="0"/>
    </linearGradient>
    <linearGradient id="linearGradient3920" gradientUnits="userSpaceOnUse" x1="56.207039" x2="56.207039" y1="123.6195" y2="35.810601">
      <stop offset="0" stop-color="#051327"/>
      <stop offset="1" stop-color="#387de4"/>
    </linearGradient>
    <linearGradient id="linearGradient3928" gradientTransform="matrix(.9792 0 0 .9725 133.0002 20.8762)" gradientUnits="userSpaceOnUse" x1="46.117153" x2="46.117153" y1="-44.827198" y2="60.317043">
      <stop offset="0" stop-color="#72d13d"/>
      <stop offset=".3553" stop-color="#35ac1c"/>
      <stop offset=".6194" stop-color="#0b6f05"/>
      <stop offset=".7574" stop-color="#006a00"/>
      <stop offset="1" stop-color="#003400"/>
    </linearGradient>
    <linearGradient id="linearGradient3956" gradientUnits="userSpaceOnUse" x1="112.13757" x2="112.13757" y1="24.155968" y2="96.228043">
      <stop offset="0" stop-color="#e05600"/>
      <stop offset="1" stop-color="#600"/>
    </linearGradient>
    <linearGradient id="linearGradient3979" gradientUnits="userSpaceOnUse" x1="51.379715" x2="51.379715" xlink:href="#linearGradient4430" y1="35.536496" y2="108.8285"/>
    <linearGradient id="linearGradient3981" gradientUnits="userSpaceOnUse" x1="116.59375" x2="116.59375" xlink:href="#linearGradient4430" y1="20.306101" y2="73.692665"/>
    <linearGradient id="linearGradient3983" gradientUnits="userSpaceOnUse" x1="47.136333" x2="57.035828" xlink:href="#linearGradient4430" y1="-9.343249" y2="50.69762"/>
    <radialGradient id="radialGradient3985" cx="59.269905" cy="126.30224" fx="62.451874" fy="156.61607" gradientTransform="matrix(1.0823899 .00000004 -.00000002 .5807057 -5.263305 37.330669)" gradientUnits="userSpaceOnUse" r="41.734375">
      <stop offset="0" stop-color="#9fc1f2"/>
      <stop offset=".5" stop-color="#587eb5"/>
      <stop offset="1" stop-color="#0c2a58"/>
    </radialGradient>
    <radialGradient id="radialGradient3987" cx="99.041145" cy="81.771805" gradientTransform="matrix(1.9842605 0 0 1.6893064 -96.780792 -40.496749)" gradientUnits="userSpaceOnUse" r="21.625">
      <stop offset="0" stop-color="#f5c31a"/>
      <stop offset="1" stop-color="#e97b00"/>
    </radialGradient>
    <radialGradient id="radialGradient3989" cx="39.191303" cy="75.128395" fx="38.089832" fy="79.916908" gradientTransform="matrix(1.5638956 -.00000003 .00000001 1.0810459 -21.53803 -25.185991)" gradientUnits="userSpaceOnUse" r="35.96875">
      <stop offset="0" stop-color="#72d13d"/>
      <stop offset=".3553" stop-color="#35ac1c"/>
      <stop offset=".6194" stop-color="#0f9508"/>
      <stop offset=".7574" stop-color="#008c00"/>
      <stop offset="1" stop-color="#007a00"/>
    </radialGradient>
    <linearGradient id="linearGradient4028" gradientUnits="userSpaceOnUse" x1="116.600682" x2="116.600682" xlink:href="#linearGradient4430" y1="47.169357" y2="73.692665"/>
    <linearGradient id="linearGradient4030" gradientUnits="userSpaceOnUse" x1="57.035828" x2="57.035828" xlink:href="#linearGradient4430" y1="15.361242" y2="50.69762"/>
    <linearGradient id="linearGradient4032" gradientUnits="userSpaceOnUse" x1="51.079715" x2="51.079715" xlink:href="#linearGradient4430" y1="75.186157" y2="108.5285"/>
    <radialGradient id="radialGradient4042" cx="57.278244" cy="131.22166" gradientTransform="matrix(1 0 0 .5383567 0 43.641887)" gradientUnits="userSpaceOnUse" r="41.878006" xlink:href="#linearGradient3234"/>
    <filter id="filter4044">
      <feGaussianBlur stdDeviation=".32711655"/>
    </filter>
    <radialGradient id="radialGradient4064" cx="104.25" cy="78.317085" gradientTransform="matrix(1.2027022 0 0 2.0129973 -21.131703 -66.152087)" gradientUnits="userSpaceOnUse" r="22.125" xlink:href="#linearGradient4058"/>
    <filter id="filter4066">
      <feGaussianBlur stdDeviation=".29578125"/>
    </filter>
    <radialGradient id="radialGradient4078" cx="37.03125" cy="67.156921" gradientTransform="matrix(1 0 0 .6337967 0 12.170538)" gradientUnits="userSpaceOnUse" r="35.96875">
      <stop offset="0" stop-color="#baff63"/>
      <stop offset="1" stop-color="#fff" stop-opacity="0"/>
    </radialGradient>
    <filter id="filter4080">
      <feGaussianBlur stdDeviation=".29882812"/>
    </filter>
    <linearGradient id="linearGradient4112" gradientUnits="userSpaceOnUse" x1="93.79056" x2="58.386763" xlink:href="#linearGradient4430" y1="84.317662" y2="22.996486"/>
    <linearGradient id="linearGradient4116" gradientUnits="userSpaceOnUse" x1="73.638018" x2="58.386763" xlink:href="#linearGradient4430" y1="41.537701" y2="22.996486"/>
    <radialGradient id="radialGradient4140" cx="87.325798" cy="13.060184" gradientTransform="matrix(2.3688812 -1.1674228 .4985261 1.0115864 -126.04949 101.73463)" gradientUnits="userSpaceOnUse" r="3.075796" xlink:href="#linearGradient4430"/>
    <filter id="filter4226" height="1.337263" width="1.388714" x="-.194357" y="-.168631">
      <feGaussianBlur stdDeviation=".41718673"/>
    </filter>
    <radialGradient id="radialGradient4238" cx="96.9375" cy="17.980104" gradientTransform="matrix(.8551174 0 0 1.9745874 14.044558 -17.35343)" gradientUnits="userSpaceOnUse" r="3.4375" xlink:href="#linearGradient4430"/>
    <filter id="filter4368" height="1.211342" width="1.186346" x="-.093173" y="-.105671">
      <feGaussianBlur stdDeviation=".22807958"/>
    </filter>
    <radialGradient id="radialGradient4386" cx="63.4366" cy="-.80577" gradientTransform="matrix(.5410048 0 0 .3716141 29.117098 10.906392)" gradientUnits="userSpaceOnUse" r="39.184293" xlink:href="#linearGradient4430"/>
    <filter id="filter4424">
      <feGaussianBlur stdDeviation=".31665616"/>
    </filter>
    <radialGradient id="radialGradient4436" cx="61.849747" cy="68.749786" gradientTransform="matrix(.9552014 .2959566 -.7323242 2.3635804 53.117914 -112.15996)" gradientUnits="userSpaceOnUse" r="2.776" xlink:href="#linearGradient4430"/>
    <filter id="filter4478">
      <feGaussianBlur stdDeviation=".18027646"/>
    </filter>
    <radialGradient id="radialGradient4490" cx="64.686584" cy="139.65083" gradientTransform="matrix(.4700807 -.00000002 .00000002 .3903477 34.278674 65.800126)" gradientUnits="userSpaceOnUse" r="45.01022">
      <stop offset="0" stop-color="#64d7eb"/>
      <stop offset="1" stop-color="#64d7eb" stop-opacity="0"/>
    </radialGradient>
    <filter id="filter4516">
      <feGaussianBlur stdDeviation="1.029351"/>
    </filter>
    <radialGradient id="radialGradient4522" cx="96.265633" cy="18.054264" gradientTransform="matrix(.8432649 -.1418808 .3214122 1.910305 9.382691 -2.534613)" gradientUnits="userSpaceOnUse" r="3.4375" xlink:href="#linearGradient4058"/>
    <radialGradient id="radialGradient4526" cx="87.339302" cy="12.464132" gradientTransform="matrix(2.3688812 -1.1674228 .4985261 1.0115864 -126.04949 101.73463)" gradientUnits="userSpaceOnUse" r="3.075796" xlink:href="#linearGradient3234"/>
  </defs>
  <g>
    <path d="m64 6.15625c-28.8935 0-52.678461 21.476333-56.65625 49.28125-.1743042 1.223967.1901073 2.463431.9991238 3.398294.8090164.934864 1.9833142 1.473464 3.2196262 1.476706h47.78125c1.526039-.008638 2.931613-.830541 3.6875-2.15625l24.15625-41.8125c.615689-1.074146.735168-2.362546.327501-3.531593-.407668-1.169047-1.302392-2.103776-2.452501-2.562157-6.506071-2.5774291-13.592891-4.09375-21.0625-4.09375z" fill="url(#linearGradient3928)"/>
    <path d="m64 7.1875c-28.377487 0-51.71898 21.102998-55.625 48.40625-.1317508.925156.1394303 1.856953.75 2.5625.6105699.705549 1.497429 1.122535 2.4375 1.125h47.78125c1.155776-.006542 2.208764-.652198 2.78125-1.65625l24.15625-41.8125c.462355-.806636.561148-1.763987.25-2.65625-.311146-.892261-.976437-1.591829-1.84375-1.9375-6.395358-2.5335691-13.358818-4.03125-20.6875-4.03125z" fill="url(#radialGradient4386)" filter="url(#filter4424)"/>
    <path d="m97.125 17.9375c-1.492364.041524-2.854822.858998-3.59375 2.15625l-23.34375 40.46875c-.972098 1.669462-.703037 3.78351.65625 5.15625l32.59375 32.59375c.87731.87395 2.09064 1.324283 3.3257 1.234351 1.23506-.089931 2.37035-.71128 3.1118-1.703101 7.14106-9.552279 11.53125-21.396345 11.53125-34.28125 0-18.077688-8.43371-34.176247-21.5-44.6875-.787299-.631107-1.772551-.963215-2.78125-.9375z" fill="url(#linearGradient3956)"/>
    <path d="m11.6875 67.95625c-1.248984.000536-2.4351978.547551-3.24654 1.497122s-1.1665662 2.206609-.97221 3.440378c4.354525 27.37262 27.944931 48.40625 56.53125 48.40625 12.635824 0 24.24361-4.24078 33.6875-11.125 1.00675-.73633 1.64148-1.87581 1.737602-3.11939s-.355963-2.46707-1.237602-3.34936l-34.5-34.5c-.803967-.803217-1.894803-1.253047-3.03125-1.25z" fill="url(#linearGradient3920)"/>
    <path d="m11.6875 68.96875c-.955739.000408-1.8784145.428765-2.5 1.15625-.6215869.727489-.8680343 1.677346-.71875 2.625 4.278974 26.897707 27.43546 47.5625 55.53125 47.5625 12.41208 0 23.807088-4.16789 33.09375-10.9375.772822-.56524 1.270569-1.42822 1.34375-2.375s-.288214-1.88146-.96875-2.5625l-34.5-34.5c-.616075-.615503-1.441645-.971085-2.3125-.96875z" fill="url(#radialGradient4490)" filter="url(#filter4516)"/>
    <path d="m64 10.4375c-26.783594 0-48.753346 19.841356-52.4375 45.59375h47.78125l24.15625-41.8125c-6.047652-2.395823-12.602462-3.78125-19.5-3.78125z" fill="url(#radialGradient3989)"/>
    <path d="m97.21875 22.21875-23.34375 40.46875 32.59375 32.59375c6.63009-8.868774 10.65625-19.795591 10.65625-31.71875 0-16.752607-7.79407-31.600033-19.90625-41.34375z" fill="url(#radialGradient3987)"/>
    <path d="m11.400238 71.990641c4.032747 25.349924 26.102039 45.090609 52.599762 45.090609 11.68918 0 22.382003-3.88517 31.15625-10.28125l-34.5-34.5z" fill="url(#radialGradient3985)"/>
    <path d="m97.21875 22.21875-23.34375 40.46875 2.375 2.375c14.843885-1.527121 28.52955-4.651325 40.34375-8.96875-1.93766-13.659411-9.09966-25.608941-19.375-33.875z" fill="url(#linearGradient3981)"/>
    <path d="m64 10.4375c-22.970252 0-42.390306 14.599843-49.78125 35 24.885359-2.322944 46.676165-9.0578 61.96875-18.53125l7.3125-12.6875c-6.047652-2.395823-12.602462-3.78125-19.5-3.78125z" fill="url(#linearGradient3983)"/>
    <path d="m64 10.4375c-16.509869 0-31.18149 7.557727-40.875 19.375 9.694915-11.601065 24.22838-18.96875 40.5625-18.96875 6.897538 0 13.452348 1.385427 19.5 3.78125l-7.125 12.34375c.039044-.024099.08604-.038365.125-.0625l7.3125-12.6875c-6.047652-2.395823-12.602462-3.78125-19.5-3.78125z" fill="url(#linearGradient4030)"/>
    <path d="m97.225682 22.21875-23.34375 40.46875.125.125 23.125-40.09375c10.164898 8.177214 17.284808 19.961488 19.312498 33.4375.05186-.01888.10446-.043574.15625-.0625-1.93766-13.659411-9.09966-25.608941-19.374998-33.875z" fill="url(#linearGradient4028)"/>
    <g fill="none" stroke-linecap="round" stroke-linejoin="round">
      <path d="m11.400238 71.990641c4.032747 25.349924 26.102039 45.090609 52.599762 45.090609 11.68918 0 22.382003-3.88517 31.15625-10.28125l-34.5-34.5z" filter="url(#filter4044)" stroke="url(#radialGradient4042)"/>
      <path d="m97.21875 22.21875-23.34375 40.46875 32.59375 32.59375c6.63009-8.868774 10.65625-19.795591 10.65625-31.71875 0-16.752607-7.79407-31.600033-19.90625-41.34375z" filter="url(#filter4066)" stroke="url(#radialGradient4064)"/>
      <path d="m64 10.4375c-26.783594 0-48.753346 19.841356-52.4375 45.59375h47.78125l24.15625-41.8125c-6.047652-2.395823-12.602462-3.78125-19.5-3.78125z" filter="url(#filter4080)" stroke="url(#radialGradient4078)"/>
    </g>
    <path d="m82.225 13.78125-7.09375 12.3125c-15.010614 9.298775-36.280388 15.966998-60.59375 18.40625-.11952.311443-.26116.623273-.375.9375 24.885358-2.322944 46.676165-9.0578 61.96875-18.53125l7.3125-12.6875c-.402436-.159428-.81187-.287131-1.21875-.4375zm14.9375 8.4375c.005078.004287-.005076.026961 0 .03125.297907.251696.613971.492019.90625.75-.303523-.255371-.597031-.532497-.90625-.78125zm.90625.78125c9.26056 8.173859 15.65219 19.475551 17.46875 32.28125-11.77208 4.302032-25.404778 7.404484-40.1875 8.9375l.84375.84375c14.843884-1.527121 28.52955-4.651325 40.34375-8.96875-1.87935-13.248354-8.68623-24.863153-18.46875-33.09375zm-37.65625 49.3125 11.125 11.125c-15.17487 5.057047-33.145297 8.145725-52.5 8.625.16801.26925.32848.547568.5.8125 19.545404-.438219 37.694399-3.524387 53-8.625l-11.9375-11.9375z" fill="url(#linearGradient4112)"/>
    <path d="m82.225 13.78125-7.09375 12.3125c-15.010614 9.298775-36.280388 15.966998-60.59375 18.40625-.11952.311443-.26116.623273-.375.9375 24.885358-2.322944 46.676165-9.0578 61.96875-18.53125l7.3125-12.6875c-.402436-.159428-.81187-.287131-1.21875-.4375z" fill="url(#linearGradient4116)"/>
    <path d="m85.28125 10.5625-2.875 3.75.28125.65625 4.1875 1.53125c1.248093-2.302684.824176-4.301365-1.59375-5.9375z" fill="url(#radialGradient4140)" fill-rule="evenodd" filter="url(#filter4226)"/>
    <path d="m94 19.75 3.125 3.6875.625-.25 2.125-3.6875c-1.862982-1.810986-3.690498-1.569499-5.875.25z" fill="url(#radialGradient4238)" fill-rule="evenodd" filter="url(#filter4368)"/>
    <path d="m64.125746 70.061438-3.844893 3.005204-.707107-.486136.30936-4.375223c1.958506-.129684 3.221742.696628 4.24264 1.856155z" fill="url(#radialGradient4436)" fill-rule="evenodd" filter="url(#filter4478)" opacity=".648515"/>
    <path d="m11.411286 72.012738c1.191576 7.490272 4.227889 14.741526 8.182464 20.849762 19.545405-.438216 37.694399-3.524387 53-8.625l-11.9375-11.9375z" fill="url(#linearGradient3979)"/>
    <path d="m11.3875 72.0125c.009996.062837.021033.124737.03125.1875l48.84375.3 11.8125 11.5125c.071592-.023729.147282-.038683.21875-.0625l-11.9375-11.9375z" fill="url(#linearGradient4032)"/>
    <path d="m93.513864 19.838388 3.611136 3.599112.625-.25 2.036612-3.599112c-1.862982-1.810986-4.088246-1.569499-6.272748.25z" fill="url(#radialGradient4522)" fill-rule="evenodd" filter="url(#filter4368)" opacity=".539604" transform="matrix(1 0 0 -1 9.6 117.69485)"/>
    <path d="m85.458027 10.496209-3.051777 3.516291.28125.65625 4.077015 1.809153c1.248093-2.302684 1.111438-4.345559-1.306488-5.981694z" fill="url(#radialGradient4526)" fill-rule="evenodd" filter="url(#filter4226)" opacity=".613861" transform="matrix(1 0 0 -1 11.75 120.8125)"/>
  </g>
</svg>
