<?xml version="1.0" encoding="UTF-8" standalone="no"?>
<!-- Generator: Adobe Illustrator 24.0.1, SVG Export Plug-In . SVG Version: 6.00 Build 0)  -->

<svg
   xmlns:dc="http://purl.org/dc/elements/1.1/"
   xmlns:cc="http://creativecommons.org/ns#"
   xmlns:rdf="http://www.w3.org/1999/02/22-rdf-syntax-ns#"
   xmlns:svg="http://www.w3.org/2000/svg"
   xmlns="http://www.w3.org/2000/svg"
   xmlns:xlink="http://www.w3.org/1999/xlink"
   xmlns:sodipodi="http://sodipodi.sourceforge.net/DTD/sodipodi-0.dtd"
   xmlns:inkscape="http://www.inkscape.org/namespaces/inkscape"
   version="1.1"
   id="Слой_1"
   x="0px"
   y="0px"
   viewBox="0 0 399.99999 499.99999"
   xml:space="preserve"
   sodipodi:docname="ribbon.svg"
   width="400"
   height="500"
   inkscape:version="0.92.3 (2405546, 2018-03-11)"><metadata
   id="metadata49"><rdf:RDF><cc:Work
       rdf:about=""><dc:format>image/svg+xml</dc:format><dc:type
         rdf:resource="http://purl.org/dc/dcmitype/StillImage" /><dc:title></dc:title></cc:Work></rdf:RDF></metadata><defs
   id="defs47"><linearGradient
     inkscape:collect="always"
     xlink:href="#SVGID_1_"
     id="linearGradient860"
     gradientUnits="userSpaceOnUse"
     x1="447.47571"
     y1="187.9935"
     x2="272.31839"
     y2="491.37491" /><linearGradient
     inkscape:collect="always"
     xlink:href="#SVGID_2_"
     id="linearGradient862"
     gradientUnits="userSpaceOnUse"
     x1="538.51752"
     y1="222.6217"
     x2="350.05399"
     y2="549.04999" /></defs><sodipodi:namedview
   pagecolor="#ffffff"
   bordercolor="#666666"
   borderopacity="1"
   objecttolerance="10"
   gridtolerance="10"
   guidetolerance="10"
   inkscape:pageopacity="0"
   inkscape:pageshadow="2"
   inkscape:window-width="1299"
   inkscape:window-height="713"
   id="namedview45"
   showgrid="false"
   inkscape:zoom="1.064"
   inkscape:cx="200"
   inkscape:cy="250"
   inkscape:window-x="67"
   inkscape:window-y="27"
   inkscape:window-maximized="1"
   inkscape:current-layer="Слой_1"
   inkscape:snap-center="false" />
<style
   type="text/css"
   id="style2">
	.st0{fill:#034EA5;}
	.st1{fill:none;stroke:#4477C1;stroke-width:10;stroke-linecap:round;stroke-linejoin:round;stroke-miterlimit:10;}
	.st2{fill:#FFAA00;}
	.st3{fill:#FFD740;}
	.st4{fill:#FFD73E;}
	.st5{fill:#FFAA00;stroke:#FFAA00;stroke-width:5;stroke-linecap:round;stroke-linejoin:round;stroke-miterlimit:10;}
	.st6{fill:url(#SVGID_1_);}
	.st7{fill:url(#SVGID_2_);}
</style>
<g
   id="g42"
   transform="translate(-225.01357,-174.23052)">
	<g
   id="g8">
		<path
   class="st0"
   d="m 599.4,627.9 -41.1,-10.8 c -2.7,-0.7 -5.6,0.9 -6.3,3.6 l -11.2,40.9 c -1.2,4.4 -7.2,5.2 -9.5,1.2 L 425.5,479.7 499.3,437.1 605.1,620.3 c 2.3,4 -1.3,8.7 -5.7,7.6 z"
   id="path4"
   inkscape:connector-curvature="0"
   style="fill:#034ea5" />
		<line
   class="st1"
   x1="538.59998"
   y1="590.29999"
   x2="462.5"
   y2="458.39999"
   id="line6"
   style="fill:none;stroke:#4477c1;stroke-width:10;stroke-linecap:round;stroke-linejoin:round;stroke-miterlimit:10" />
	</g>
	<g
   id="g14">
		<path
   class="st0"
   d="m 251.7,627.9 41.1,-10.8 c 2.7,-0.7 5.6,0.9 6.3,3.6 l 11.2,40.9 c 1.2,4.4 7.2,5.2 9.5,1.2 L 425.6,479.6 351.7,437 245.9,620.3 c -2.3,4 1.4,8.7 5.8,7.6 z"
   id="path10"
   inkscape:connector-curvature="0"
   style="fill:#034ea5" />
		<line
   class="st1"
   x1="312.39999"
   y1="590.29999"
   x2="388.60001"
   y2="458.39999"
   id="line12"
   style="fill:none;stroke:#4477c1;stroke-width:10;stroke-linecap:round;stroke-linejoin:round;stroke-miterlimit:10" />
	</g>
	<g
   id="g18">
		<path
   class="st2"
   d="m 613.9,387.8 c 0.8,-11.3 -2.9,-22.2 -10.1,-30.5 5.5,-9.5 7.1,-20.9 4.2,-31.9 -2.9,-10.7 -9.7,-19.6 -18.9,-25.1 1.9,-10.6 -0.2,-21.6 -6.4,-30.8 -5,-7.5 -12.2,-13.1 -20.4,-16.2 -1.9,-0.7 -3.8,-1.3 -5.8,-1.7 -1.5,-10.8 -7.2,-20.6 -16,-27.4 -7.4,-5.7 -16.3,-8.7 -25.6,-8.7 -1.6,0 -3.3,0.1 -4.9,0.3 -1.3,-2.5 -2.8,-4.9 -4.5,-7.1 -4.9,-6.2 -11.6,-11 -19.4,-13.6 -4.4,-1.5 -8.9,-2.2 -13.5,-2.2 -4.5,0 -8.9,0.7 -13.1,2.1 -1.8,0.6 -3.5,1.3 -5.1,2 -5.8,-5.7 -13.1,-9.6 -21.1,-11.2 -2.7,-0.5 -5.4,-0.8 -8.2,-0.8 v 0 c -11.3,0 -21.9,4.5 -29.7,12.3 -5.7,-2.7 -11.9,-4.2 -18.3,-4.2 -4.7,0 -9.3,0.8 -13.7,2.3 -10.6,3.7 -19.1,11.3 -23.9,21.1 -1.6,-0.2 -3.2,-0.3 -4.8,-0.3 -9.3,0 -18.5,3.2 -25.8,8.9 -9,7 -14.6,17.1 -15.9,28.1 -10.9,2.3 -20.4,8.8 -26.6,18.3 -6.3,9.7 -8.2,21.4 -5.6,32.4 -9.8,5.7 -16.8,15.2 -19.5,26.5 -2.7,11.2 -0.6,22.9 5.5,32.4 -7.3,8.7 -10.8,20 -9.6,31.5 1.2,11.7 7.2,22.1 16.3,29 -4.1,10.7 -3.7,22.7 1.4,33.2 3.1,6.4 7.6,11.8 13.2,15.8 3.7,2.7 7.8,4.7 12.1,6.1 -0.2,6.9 1.4,13.7 4.4,19.8 2,4.1 4.8,7.9 8.2,11.2 7.9,7.8 18.4,12 29.5,12 0.3,0 0.6,0 0.9,0 0.2,0.7 0.5,1.4 0.8,2.1 3.9,9.7 11.4,17.7 21.1,22.2 5.6,2.6 11.6,4 17.8,4 5.2,0 10.4,-1 15.2,-2.8 2.8,3.5 6.1,6.6 9.8,9 5.6,3.8 12.2,6.2 19.3,6.8 1.4,0.1 2.7,0.2 4.1,0.2 8.9,0 17.4,-2.8 24.4,-7.8 6.2,3.4 13.2,5.3 20.4,5.3 2.9,0 5.9,-0.3 8.8,-0.9 10.5,-2.2 19.5,-8.2 25.5,-16.7 3,0.6 6,1 9,1 7.4,0 14.6,-2 21,-5.7 9.7,-5.6 16.6,-14.7 19.5,-25.3 11,-0.8 21.2,-6 28.5,-14.3 7.1,-8.2 10.7,-18.5 10.3,-29 9.6,-4.3 17.3,-12.1 21.5,-22.1 4.3,-10.2 4.3,-21.4 0.4,-31.4 7.5,-7.2 12.5,-17.2 13.3,-28.2 z"
   id="path16"
   inkscape:connector-curvature="0"
   style="fill:#ffaa00" />
	</g>
	<path
   class="st3"
   d="m 425.2,221.7 c -84.1,0 -152.2,68.2 -152.2,152.2 0,84.1 68.2,152.2 152.2,152.2 84.1,0 152.2,-68.2 152.2,-152.2 0,-84 -68.1,-152.2 -152.2,-152.2 z m 0,282.6 c -72,0 -130.4,-58.4 -130.4,-130.4 0,-72 58.4,-130.4 130.4,-130.4 72,0 130.4,58.4 130.4,130.4 0,72 -58.4,130.4 -130.4,130.4 z"
   id="path20"
   inkscape:connector-curvature="0"
   style="fill:#ffd740" />
	<path
   class="st2"
   d="m 425.2,243.6 c -72,0 -130.4,58.4 -130.4,130.4 0,72 58.4,130.4 130.4,130.4 72,0 130.4,-58.4 130.4,-130.4 0,-72.1 -58.4,-130.4 -130.4,-130.4 z m 0,244 c -62.8,0 -113.7,-50.9 -113.7,-113.7 0,-62.8 50.9,-113.7 113.7,-113.7 62.8,0 113.7,50.9 113.7,113.7 0,62.8 -50.9,113.7 -113.7,113.7 z"
   id="path22"
   inkscape:connector-curvature="0"
   style="fill:#ffaa00" />
	
		<circle
   transform="matrix(0.7071,-0.7071,0.7071,0.7071,-139.8677,410.1823)"
   class="st4"
   cx="425.20001"
   cy="373.89999"
   id="ellipse24"
   r="113.7"
   style="fill:#ffd73e" />
	<path
   class="st5"
   d="m 416,416.6 -28,20.7 c -2.4,1.8 -5.7,-0.6 -4.7,-3.4 l 11,-33 c 2.2,-6.5 -0.2,-13.6 -5.7,-17.6 L 360.2,363 c -2.4,-1.7 -1.2,-5.6 1.8,-5.5 l 34.8,0.3 c 6.8,0.1 12.9,-4.4 15,-10.9 l 10.5,-33.2 c 0.9,-2.8 4.9,-2.8 5.8,0 l 10.5,33.2 c 2.1,6.5 8.1,10.9 15,10.9 l 34.8,-0.3 c 3,0 4.2,3.8 1.8,5.5 l -28.3,20.2 c -5.6,4 -7.9,11.1 -5.7,17.6 l 11,33 c 0.9,2.8 -2.3,5.2 -4.7,3.4 l -28,-20.7 c -5.5,-4 -13.1,-4 -18.5,0.1 z"
   id="path26"
   inkscape:connector-curvature="0"
   style="fill:#ffaa00;stroke:#ffaa00;stroke-width:5;stroke-linecap:round;stroke-linejoin:round;stroke-miterlimit:10" />
	<linearGradient
   id="SVGID_1_"
   gradientUnits="userSpaceOnUse"
   x1="447.47571"
   y1="187.9935"
   x2="272.31839"
   y2="491.37491">
		<stop
   offset="0"
   style="stop-color:#FFFFFF;stop-opacity:0.3"
   id="stop28" />
		<stop
   offset="1"
   style="stop-color:#FFFFFF;stop-opacity:0.1"
   id="stop30" />
	</linearGradient>
	<path
   class="st6"
   d="M 459.3,194.8 284.1,498.2 c -3.1,-6.1 -4.6,-12.9 -4.4,-19.8 -4.4,-1.4 -8.5,-3.4 -12.1,-6.1 L 433,185.7 c 8,1.6 15.3,5.5 21.1,11.2 1.7,-0.8 3.4,-1.5 5.2,-2.1 z"
   id="path33"
   inkscape:connector-curvature="0"
   style="fill:url(#linearGradient860)" />
	<linearGradient
   id="SVGID_2_"
   gradientUnits="userSpaceOnUse"
   x1="538.51752"
   y1="222.6217"
   x2="350.05399"
   y2="549.04999">
		<stop
   offset="0"
   style="stop-color:#FFFFFF;stop-opacity:0.3"
   id="stop35" />
		<stop
   offset="1"
   style="stop-color:#FFFFFF;stop-opacity:0.1"
   id="stop37" />
	</linearGradient>
	<path
   class="st7"
   d="M 562.2,253.2 387.4,555.9 c -3.7,-2.5 -7,-5.5 -9.8,-9 -4.8,1.9 -10,2.8 -15.2,2.8 -6.2,0 -12.2,-1.3 -17.8,-4 -9.8,-4.6 -17.2,-12.5 -21.1,-22.2 L 505.3,208.6 c 1.8,2.2 3.3,4.6 4.5,7.1 1.6,-0.2 3.3,-0.3 4.9,-0.3 9.3,0 18.2,3 25.6,8.7 8.9,6.8 14.5,16.7 16,27.4 2,0.5 4,1 5.9,1.7 z"
   id="path40"
   inkscape:connector-curvature="0"
   style="fill:url(#linearGradient862)" />
</g>
<use
   x="0"
   y="0"
   xlink:href="#g42"
   id="use856"
   width="100%"
   height="100%" /><use
   id="use858"
   xlink:href="#g42"
   y="0"
   x="0"
   width="100%"
   height="100%" /></svg>