<?xml version="1.0" encoding="UTF-8" standalone="no"?>
<svg
   xmlns:dc="http://purl.org/dc/elements/1.1/"
   xmlns:cc="http://creativecommons.org/ns#"
   xmlns:rdf="http://www.w3.org/1999/02/22-rdf-syntax-ns#"
   xmlns:svg="http://www.w3.org/2000/svg"
   xmlns="http://www.w3.org/2000/svg"
   xmlns:xlink="http://www.w3.org/1999/xlink"
   version="1.0"
   width="120"
   height="120"
   viewBox="-32 0 120 120"
   id="svg1923">
  <metadata
     id="metadata30">
    <rdf:RDF>
      <cc:Work
         rdf:about="">
        <dc:format>image/svg+xml</dc:format>
        <dc:type
           rdf:resource="http://purl.org/dc/dcmitype/StillImage" />
        <dc:title></dc:title>
      </cc:Work>
    </rdf:RDF>
  </metadata>
  <defs
     id="defs1926">
    <linearGradient
       id="linearGradient6414">
      <stop
         id="stop6416"
         style="stop-color:#f76701;stop-opacity:1"
         offset="0" />
      <stop
         id="stop6418"
         style="stop-color:#ffff33;stop-opacity:1"
         offset="0.5" />
      <stop
         id="stop6420"
         style="stop-color:#ff9600;stop-opacity:1"
         offset="1" />
    </linearGradient>
    <linearGradient
       id="linearGradient5521">
      <stop
         id="stop5523"
         style="stop-color:#660000;stop-opacity:1"
         offset="0" />
      <stop
         id="stop5527"
         style="stop-color:#cc0000;stop-opacity:1"
         offset="1" />
    </linearGradient>
    <linearGradient
       id="linearGradient2821">
      <stop
         id="stop2823"
         style="stop-color:#ff9600;stop-opacity:1"
         offset="0" />
      <stop
         id="stop2829"
         style="stop-color:#ffff33;stop-opacity:1"
         offset="0.5" />
      <stop
         id="stop2825"
         style="stop-color:#ffffff;stop-opacity:1"
         offset="1" />
    </linearGradient>
    <linearGradient
       x1="64.679047"
       y1="117.48975"
       x2="64.679047"
       y2="8.041069"
       id="linearGradient3019"
       xlink:href="#linearGradient2821"
       gradientUnits="userSpaceOnUse"
       gradientTransform="matrix(1.026843,0,0,1.026843,-38.84834,-6.294817)" />
    <linearGradient
       x1="162.96683"
       y1="27.690317"
       x2="162.96683"
       y2="137.96283"
       id="linearGradient3022"
       xlink:href="#linearGradient6414"
       gradientUnits="userSpaceOnUse"
       gradientTransform="matrix(1.026843,0,0,1.026843,-135.63142,-25.564291)" />
    <linearGradient
       x1="157.28188"
       y1="23.751799"
       x2="157.28188"
       y2="139.02618"
       id="linearGradient3025"
       xlink:href="#linearGradient5521"
       gradientUnits="userSpaceOnUse"
       gradientTransform="matrix(1.026843,0,0,1.026843,-135.87794,-24.085161)" />
  </defs>
  <path
     d="m 16.83373,5.951843 33.46908,0 -18.97077,31.028629 19.31941,0 -17.08318,25.760951 14.60405,0.123261 -38.65995,52.210316 14.0089,-45.322719 -12.9207,0 L 25.40523,42.681912 6.37464,42.558651 16.83373,5.951843 z"
     id="path7324"
     style="stroke:#000000;stroke-width:9.24158478;stroke-linejoin:round;stroke-opacity:0.50196078" />
  <path
     d="m 15.80689,4.925 33.46907,0 -18.97076,31.028629 19.31941,0 -17.08318,25.760952 14.60405,0.123261 -38.65995,52.210318 14.0089,-45.322722 -12.9207,0 L 24.37838,41.65507 5.34779,41.531808 15.80689,4.925 z"
     id="path4625"
     style="stroke:url(#linearGradient3025);stroke-width:9.24158478;stroke-linejoin:round" />
  <path
     d="m 15.80689,4.925 33.46907,0 -18.97076,31.028629 19.31941,0 -17.08318,25.760952 14.60405,0.123261 -38.65995,52.210318 14.0089,-45.322722 -12.9207,0 L 24.37838,41.65507 5.34779,41.531808 15.80689,4.925 z"
     id="path3727"
     style="stroke:url(#linearGradient3022);stroke-width:4.10737085;stroke-linejoin:round" />
  <path
     d="m 15.88757,5.210188 33.46907,0 -18.97076,31.02863 19.31941,0 -17.08319,25.760952 14.60406,0.123261 -38.65995,52.210299 14.0089,-45.322703 -12.92071,0 L 24.45906,41.940259 5.42847,41.816998 15.88757,5.210188 z"
     id="path1932"
     style="fill:url(#linearGradient3019)" />
</svg>
