<?xml version="1.0" encoding="UTF-8" standalone="no"?>
<!-- Created with Inkscape (http://www.inkscape.org/) -->
<svg xmlns:dc="http://purl.org/dc/elements/1.1/" xmlns:cc="http://creativecommons.org/ns#" xmlns:rdf="http://www.w3.org/1999/02/22-rdf-syntax-ns#" xmlns:svg="http://www.w3.org/2000/svg" xmlns="http://www.w3.org/2000/svg" xmlns:xlink="http://www.w3.org/1999/xlink" xmlns:sodipodi="http://sodipodi.sourceforge.net/DTD/sodipodi-0.dtd" xmlns:inkscape="http://www.inkscape.org/namespaces/inkscape" id="svg2" sodipodi:version="0.32" inkscape:version="0.92.5 (2060ec1f9f, 2020-04-08)" width="256" height="256" version="1.0" sodipodi:docname="edit-as-root.svg" inkscape:output_extension="org.inkscape.output.svg.inkscape">
 <metadata id="metadata7">
  <rdf:RDF>
   <cc:Work>
    <dc:format>image/svg+xml</dc:format>
    <dc:type rdf:resource="http://purl.org/dc/dcmitype/StillImage"/>
    <dc:title/>
   </cc:Work>
  </rdf:RDF>
 </metadata>
 <defs id="defs5">
  <linearGradient inkscape:collect="always" id="linearGradient1040">
   <stop id="stop1036" stop-color="#b79e62" stop-opacity="1"/>
   <stop offset="1" id="stop1038" stop-color="#f2ead6" stop-opacity="1"/>
  </linearGradient>
  <linearGradient inkscape:collect="always" id="linearGradient1591">
   <stop id="stop1587" stop-color="#9f9f9f" stop-opacity="0.416"/>
   <stop offset="1" id="stop1589" stop-color="#545454" stop-opacity="0"/>
  </linearGradient>
  <linearGradient id="linearGradient3387" inkscape:collect="always">
   <stop id="stop3389" stop-color="#000000" stop-opacity="1"/>
   <stop id="stop3391" offset="1" stop-color="#ffffff" stop-opacity="1"/>
  </linearGradient>
  <linearGradient id="linearGradient4334" inkscape:collect="always">
   <stop id="stop4336" stop-color="#696969" stop-opacity="0"/>
   <stop id="stop4338" offset="1" stop-color="#232323" stop-opacity="0.698"/>
  </linearGradient>
  <linearGradient id="linearGradient4320" inkscape:collect="always">
   <stop id="stop4322" stop-color="#969696" stop-opacity="0.588"/>
   <stop offset="0.353" id="stop4324" stop-color="#939393" stop-opacity="0.588"/>
   <stop id="stop4326" offset="1" stop-color="#aeaeae" stop-opacity="0"/>
  </linearGradient>
  <linearGradient inkscape:collect="always" id="linearGradient4312">
   <stop id="stop4314" stop-color="#808080" stop-opacity="0.612"/>
   <stop offset="1" id="stop4316" stop-color="#363636" stop-opacity="0"/>
  </linearGradient>
  <linearGradient inkscape:collect="always" id="linearGradient4302">
   <stop id="stop4304" stop-color="#d0d1ea" stop-opacity="0.573"/>
   <stop offset="1" id="stop4306" stop-color="#9fa3eb" stop-opacity="0"/>
  </linearGradient>
  <linearGradient inkscape:collect="always" id="linearGradient4281">
   <stop id="stop4283" stop-color="#a8a8a8" stop-opacity="0.875"/>
   <stop offset="1" id="stop4285" stop-color="#1d1d1d" stop-opacity="0.698"/>
  </linearGradient>
  <linearGradient inkscape:collect="always" id="linearGradient4273">
   <stop id="stop4275" stop-color="#292929" stop-opacity="0.78"/>
   <stop offset="1" id="stop4277" stop-color="#8c8c8c" stop-opacity="0.788"/>
  </linearGradient>
  <linearGradient inkscape:collect="always" id="linearGradient4246">
   <stop id="stop4248" stop-color="#747474" stop-opacity="0.722"/>
   <stop offset="1" id="stop4250" stop-color="#030303" stop-opacity="0.808"/>
  </linearGradient>
  <linearGradient inkscape:collect="always" id="linearGradient4235">
   <stop id="stop4237" stop-color="#303030" stop-opacity="0.639"/>
   <stop offset="1" id="stop4239" stop-color="#6a6a6a" stop-opacity="0"/>
  </linearGradient>
  <linearGradient inkscape:collect="always" id="linearGradient4204">
   <stop id="stop4206" stop-color="#ffffff" stop-opacity="0.588"/>
   <stop id="stop4212" offset="0.373" stop-color="#ffffff" stop-opacity="0.588"/>
   <stop offset="1" id="stop4208" stop-color="#a2aad6" stop-opacity="0"/>
  </linearGradient>
  <linearGradient inkscape:collect="always" id="linearGradient4152">
   <stop id="stop4154" stop-color="#979797" stop-opacity="0.816"/>
   <stop offset="1" id="stop4156" stop-color="#171717" stop-opacity="0"/>
  </linearGradient>
  <linearGradient inkscape:collect="always" id="linearGradient4140">
   <stop id="stop4142" stop-color="#dadbee" stop-opacity="0.716"/>
   <stop offset="1" id="stop4144" stop-color="#676bb2" stop-opacity="0.514"/>
  </linearGradient>
  <radialGradient r="65.57" fy="107.61" fx="60.948" cy="107.61" cx="60.948" gradientTransform="matrix(1.2446694,0,0,0.32126163,-241.02712,139.80154)" gradientUnits="userSpaceOnUse" id="radialGradient1255" xlink:href="#linearGradient4140" inkscape:collect="always"/>
  <radialGradient r="11.875" fy="107.81" fx="-7.19" cy="107.81" cx="-7.19" gradientTransform="matrix(1.2446694,0,0,0.71986678,-226.54239,-68.655424)" gradientUnits="userSpaceOnUse" id="radialGradient1271" xlink:href="#linearGradient4204" inkscape:collect="always"/>
  <radialGradient spreadMethod="reflect" r="18.782" fy="67.73" fx="78.83" cy="67.73" cx="78.83" gradientTransform="matrix(-1.2446579,0.00534752,-0.02451637,-5.706277,-40.798411,475.51987)" gradientUnits="userSpaceOnUse" id="radialGradient1273" xlink:href="#linearGradient4246" inkscape:collect="always"/>
  <radialGradient r="29.426" fy="57.24" fx="98.68" cy="57.24" cx="98.68" gradientTransform="matrix(1.5150413,-0.81177189,0.83214593,1.3777501,-315.39492,98.958193)" gradientUnits="userSpaceOnUse" id="radialGradient1275" xlink:href="#linearGradient4281" inkscape:collect="always"/>
  <radialGradient r="11.875" fy="107.81" fx="-7.19" cy="107.81" cx="-7.19" gradientTransform="matrix(1.656181,0,0,0.88176448,-136.51058,-142.84231)" gradientUnits="userSpaceOnUse" id="radialGradient1281" xlink:href="#linearGradient4320" inkscape:collect="always"/>
  <radialGradient r="10.06" fy="12.937" fx="-48.38" cy="12.937" cx="-48.38" gradientTransform="matrix(1.245168,0,0,1.3905773,-52.019168,12.164439)" gradientUnits="userSpaceOnUse" id="radialGradient1283" xlink:href="#linearGradient4302" inkscape:collect="always"/>
  <linearGradient inkscape:collect="always" xlink:href="#linearGradient4152" id="linearGradient1480" gradientUnits="userSpaceOnUse" x1="88.05" y1="156.21" x2="86.18" y2="109.04" gradientTransform="matrix(1.2446694,0,0,1.2446694,-241.02712,12.638152)"/>
  <linearGradient inkscape:collect="always" xlink:href="#linearGradient1591" id="linearGradient1482" gradientUnits="userSpaceOnUse" x1="35.69" y1="128.27" x2="38.02" y2="128.53" spreadMethod="reflect" gradientTransform="matrix(1.2446694,0,0,1.2446694,-241.02712,12.638152)"/>
  <linearGradient inkscape:collect="always" xlink:href="#linearGradient1591" id="linearGradient1484" gradientUnits="userSpaceOnUse" gradientTransform="matrix(-1.2446694,0,0,1.2446694,-28.664179,13.048052)" x1="35.69" y1="128.27" x2="38.02" y2="128.53" spreadMethod="reflect"/>
  <linearGradient inkscape:collect="always" xlink:href="#linearGradient1591" id="linearGradient1486" gradientUnits="userSpaceOnUse" x1="58.27" y1="104.74" x2="73.988" y2="139.33"/>
  <linearGradient inkscape:collect="always" xlink:href="#linearGradient4235" id="linearGradient1492" gradientUnits="userSpaceOnUse" gradientTransform="matrix(1.2446694,0,0,1.2446694,-240.66941,12.801876)" x1="77.35" y1="89.1" x2="77.49" y2="128.44"/>
  <linearGradient inkscape:collect="always" xlink:href="#linearGradient4273" id="linearGradient1494" gradientUnits="userSpaceOnUse" gradientTransform="matrix(1.245168,0,0,1.1727845,-241.06898,18.450002)" x1="72.66" y1="39.584" x2="100.44" y2="75.47"/>
  <linearGradient inkscape:collect="always" xlink:href="#linearGradient4334" id="linearGradient1496" gradientUnits="userSpaceOnUse" gradientTransform="matrix(1.245168,0,0,1.1727845,-241.52875,17.760347)" x1="100.25" y1="73.988" x2="70.07" y2="1.295"/>
  <linearGradient inkscape:collect="always" xlink:href="#linearGradient4312" id="linearGradient1498" gradientUnits="userSpaceOnUse" gradientTransform="matrix(1.245168,0,0,1.1727845,-241.06898,18.450002)" x1="61.55" y1="54.27" x2="78.83" y2="64.08"/>
  <linearGradient id="linearGradient2845">
   <stop id="stop2847" stop-color="black" stop-opacity="0"/>
   <stop offset="1" id="stop2849" stop-color="black" stop-opacity="1"/>
  </linearGradient>
  <linearGradient id="linearGradient2831" inkscape:collect="always">
   <stop id="stop2833" stop-color="#fff9f9" stop-opacity="1"/>
   <stop id="stop2835" offset="1" stop-color="black" stop-opacity="1"/>
  </linearGradient>
  <linearGradient id="linearGradient2811" inkscape:collect="always">
   <stop id="stop2813" stop-color="white" stop-opacity="1"/>
   <stop id="stop2815" offset="1" stop-color="black" stop-opacity="1"/>
  </linearGradient>
  <linearGradient id="linearGradient2797" inkscape:collect="always">
   <stop id="stop2799" stop-color="black" stop-opacity="0"/>
   <stop id="stop2801" offset="1" stop-color="white" stop-opacity="1"/>
  </linearGradient>
  <linearGradient y2="16.34" x2="39.06" y1="16.34" x1="49.23" spreadMethod="reflect" gradientTransform="matrix(0.763152,0,0,0.961942,10.34819,-7.885952)" gradientUnits="userSpaceOnUse" id="linearGradient2878" xlink:href="#linearGradient3387" inkscape:collect="always"/>
  <linearGradient y2="12.499" x2="49.25" y1="12.499" x1="46.511" spreadMethod="reflect" gradientTransform="translate(-1.376389,-8.152458)" gradientUnits="userSpaceOnUse" id="linearGradient2880" xlink:href="#linearGradient2797" inkscape:collect="always"/>
  <linearGradient y2="16.34" x2="39.06" y1="16.34" x1="49.23" spreadMethod="reflect" gradientUnits="userSpaceOnUse" id="linearGradient2882" xlink:href="#linearGradient3387" inkscape:collect="always"/>
  <linearGradient y2="19.978" x2="32.16" y1="19.582" x1="48.748" gradientUnits="userSpaceOnUse" id="linearGradient2884" xlink:href="#linearGradient3387" inkscape:collect="always"/>
  <linearGradient y2="65.71" x2="91.34" y1="65.71" x1="79.66" spreadMethod="reflect" gradientTransform="matrix(0.559323,0,0,1,-2.273874,4.192479)" gradientUnits="userSpaceOnUse" id="linearGradient2886" xlink:href="#linearGradient2831" inkscape:collect="always"/>
  <linearGradient y2="16.34" x2="39.06" y1="16.34" x1="49.23" spreadMethod="reflect" gradientTransform="matrix(0.843003,0,0,1.003339,6.845093,8.646559)" gradientUnits="userSpaceOnUse" id="linearGradient2888" xlink:href="#linearGradient3387" inkscape:collect="always"/>
  <linearGradient y2="12.499" x2="49.25" y1="12.499" x1="46.511" spreadMethod="reflect" gradientUnits="userSpaceOnUse" id="linearGradient2890" xlink:href="#linearGradient2797" inkscape:collect="always"/>
  <linearGradient y2="12.499" x2="49.25" y1="12.499" x1="46.511" spreadMethod="reflect" gradientTransform="translate(-0.748657,8.834152)" gradientUnits="userSpaceOnUse" id="linearGradient2892" xlink:href="#linearGradient2797" inkscape:collect="always"/>
  <linearGradient y2="36.695" x2="33.01" y1="36.695" x1="21.96" gradientUnits="userSpaceOnUse" id="linearGradient2894" xlink:href="#linearGradient2811" inkscape:collect="always"/>
  <linearGradient y2="119.23" x2="41.29" y1="120.14" x1="33.917" spreadMethod="reflect" gradientTransform="matrix(0.843003,0,0,1.003339,6.845093,8.646559)" gradientUnits="userSpaceOnUse" id="linearGradient2896" xlink:href="#linearGradient3387" inkscape:collect="always"/>
  <linearGradient y2="122.87" x2="51.18" y1="122.22" x1="45.978" spreadMethod="pad" gradientTransform="matrix(0.843003,0,0,1.003339,6.845093,8.646559)" gradientUnits="userSpaceOnUse" id="linearGradient2898" xlink:href="#linearGradient2845" inkscape:collect="always"/>
  <linearGradient y2="148.86" x2="29.589" y1="148.86" x1="25.679" spreadMethod="reflect" gradientTransform="matrix(0.531915,0,0,0.597561,29.88314,56.32079)" gradientUnits="userSpaceOnUse" id="linearGradient2900" xlink:href="#linearGradient2831" inkscape:collect="always"/>
  <filter height="1.047" y="-0.024" width="1.049" x="-0.024" id="filter4221" inkscape:collect="always" color-interpolation-filters="sRGB">
   <feGaussianBlur id="feGaussianBlur4223" stdDeviation="1.68009" inkscape:collect="always"/>
  </filter>
  <filter inkscape:collect="always" id="filter1286" x="-0.014" width="1.028" y="-0.011" height="1.021" color-interpolation-filters="sRGB">
   <feGaussianBlur inkscape:collect="always" stdDeviation="0.96567" id="feGaussianBlur1288"/>
  </filter>
  <linearGradient inkscape:collect="always" xlink:href="#linearGradient1040" id="linearGradient1042" x1="105.27" y1="231.86" x2="99.17" y2="13.185" gradientUnits="userSpaceOnUse"/>
 </defs>
 <sodipodi:namedview inkscape:window-height="1025" inkscape:window-width="1680" inkscape:pageshadow="2" inkscape:pageopacity="0" guidetolerance="10.0" gridtolerance="10.0" objecttolerance="10.0" borderopacity="1.0" bordercolor="#666666" pagecolor="#ff0000" id="base" inkscape:zoom="3.4023438" inkscape:cx="128" inkscape:cy="128" inkscape:window-x="-5" inkscape:window-y="0" inkscape:current-layer="svg2" width="256" height="256" showgrid="false" inkscape:snap-to-guides="false" inkscape:snap-grids="false" inkscape:snap-others="false" inkscape:object-nodes="false" inkscape:snap-nodes="false" inkscape:snap-global="false"/>
 <g id="g1284" transform="matrix(1.0264091,0,0,1.0264091,-279.54493,-0.03976602)" fill="#000000" filter="url(#filter1286)" fill-opacity="0.3">
  <path inkscape:connector-curvature="0" id="rect3037" d="m 308.87854,18.335013 h 154.78014 c 3.52046,0 6.35461,2.834156 6.35461,6.35461 V 230.76054 c 0,3.52045 -2.83415,6.35461 -6.35461,6.35461 H 308.87854 c -3.52045,0 -6.35461,-2.83416 -6.35461,-6.35461 V 24.689623 c 0,-3.520454 2.83416,-6.35461 6.35461,-6.35461 z" opacity="1" stroke-dasharray="none" stroke-opacity="1" fill="#000000" stroke="none" stroke-linejoin="round" fill-opacity="0.3" stroke-linecap="round" stroke-width="0.4" stroke-dashoffset="0" stroke-miterlimit="4"/>
  <path d="m 310.66883,20.865576 h 151.19956 c 3.43901,0 6.2076,2.768592 6.2076,6.207607 V 228.37698 c 0,3.43901 -2.76859,6.20761 -6.2076,6.20761 H 310.66883 c -3.439,0 -6.2076,-2.7686 -6.2076,-6.20761 V 27.073183 c 0,-3.439015 2.7686,-6.207607 6.2076,-6.207607 z" id="path1274" inkscape:connector-curvature="0" opacity="1" stroke-dasharray="none" stroke-opacity="1" fill="#000000" stroke="none" stroke-linejoin="round" fill-opacity="0.3" stroke-linecap="round" stroke-width="0.391" stroke-dashoffset="0" stroke-miterlimit="4"/>
  <path inkscape:connector-curvature="0" id="path1276" d="m 312.72243,23.768316 h 147.09236 c 3.34559,0 6.03898,2.693386 6.03898,6.038983 V 225.64286 c 0,3.3456 -2.69339,6.03899 -6.03898,6.03899 H 312.72243 c -3.34558,0 -6.03898,-2.69339 -6.03898,-6.03899 V 29.807299 c 0,-3.345597 2.6934,-6.038983 6.03898,-6.038983 z" opacity="1" stroke-dasharray="none" stroke-opacity="1" fill="#000000" stroke="none" stroke-linejoin="round" fill-opacity="0.3" stroke-linecap="round" stroke-width="0.38" stroke-dashoffset="0" stroke-miterlimit="4"/>
  <path d="m 314.36531,26.090508 h 143.8066 c 3.27086,0 5.90408,2.633221 5.90408,5.904084 V 223.45557 c 0,3.27086 -2.63322,5.90409 -5.90408,5.90409 h -143.8066 c -3.27085,0 -5.90408,-2.63323 -5.90408,-5.90409 V 31.994592 c 0,-3.270863 2.63323,-5.904084 5.90408,-5.904084 z" id="path1278" inkscape:connector-curvature="0" opacity="1" stroke-dasharray="none" stroke-opacity="1" fill="#000000" stroke="none" stroke-linejoin="round" fill-opacity="0.3" stroke-linecap="round" stroke-width="0.372" stroke-dashoffset="0" stroke-miterlimit="4"/>
 </g>
 <path d="M 32.472333,13.425356 H 187.25248 c 3.52045,0 6.35461,2.834156 6.35461,6.35461 V 225.85088 c 0,3.52046 -2.83416,6.35461 -6.35461,6.35461 H 32.472333 c -3.520453,0 -6.35461,-2.83415 -6.35461,-6.35461 V 19.779966 c 0,-3.520454 2.834157,-6.35461 6.35461,-6.35461 z" id="rect3035" opacity="1" stroke-dasharray="none" stroke-opacity="1" fill="url(#linearGradient1042)" stroke="#000000" stroke-linejoin="round" fill-opacity="1" stroke-linecap="round" stroke-width="0.4" stroke-dashoffset="0" stroke-miterlimit="4"/>
 <g id="g3012" transform="matrix(-1,0,0,1,497.78429,37.972992)" fill="#000000" filter="url(#filter4221)" fill-opacity="0.358">
  <path inkscape:connector-curvature="0" id="path3008" d="m 470.34375,45.75 c -4.8173,0.805829 -6.44041,8.719251 -11.96875,6.1875 -2.307,0.115702 -4.13023,4.290376 -5.96875,1.0625 -3.98531,-3.69761 -11.56576,-5.028228 -14.43638,0.75849 -14.49354,15.603301 -30.65958,29.921932 -44.00112,46.39776 -0.41522,5.46074 7.0063,3.38824 10.03125,2.4375 5.85568,-0.99833 13.02429,-5.422131 10.46875,-12.1875 4.03171,-4.692764 9.16319,-8.464443 13.21875,-13.25 5.88227,-5.457607 10.98896,-12.675245 17.75,-16.5 3.41514,0.952089 -0.6401,4.052019 0,6.03125 -2.22871,5.608448 -8.57344,8.586258 -12.06806,13.50163 -31.16893,32.38478 -62.71652,64.44514 -93.61944,97.06087 -3.43833,13.17157 -10.68349,25.51277 -13.625,38.6875 7.65694,0.702 14.45734,-5.29853 21.71875,-7.375 9.29699,-3.71219 19.71958,-6.81046 25.55096,-15.62095 32.81341,-33.48771 65.01217,-67.89049 98.19904,-100.81655 6.78094,-0.429291 10.56876,-7.385528 14.3125,-12.0625 0.44597,-2.857092 -1.40417,-6.998569 2.59375,-7.96875 7.19291,-5.708978 1.35591,-16.17233 -4.375,-20.59375 -3.73348,-3.348298 -8.55565,-6.284337 -13.78125,-5.75 z" stroke-opacity="1" fill="#000000" stroke="none" stroke-linejoin="round" fill-opacity="0.358" stroke-linecap="round" stroke-width="0.656" stroke-dashoffset="0" stroke-miterlimit="4"/>
  <path inkscape:connector-curvature="0" id="path3004" d="m 471.4375,46.6875 c -5.33734,-0.155122 -6.54591,8.625313 -12,6.34375 -3.05004,-0.924782 -4.40792,4.477613 -6.90625,1.34375 -3.5427,-2.952798 -9.95754,-6.103694 -13.01991,-0.785497 -14.67688,15.544231 -30.38081,30.308958 -44.44884,46.316747 -1.24967,4.51988 5.47767,2.51195 7.75526,1.92974 4.53924,-1.04755 13.25737,-3.902221 10.65099,-10.08599 -1.10757,-3.585998 5.99969,-6.296139 7.75345,-9.592096 7.84559,-7.318789 14.86087,-15.937962 23.1528,-22.564154 2.97932,-0.257103 4.9856,2.590153 2.375,4.59375 -0.28871,3.060676 -0.5407,5.503188 -3.63267,7.343674 -34.10562,35.354516 -68.42907,70.539876 -102.39858,106.000076 -3.6478,12.91293 -9.90128,25.14097 -13.78125,37.8125 6.48423,-0.54167 13.13159,-5.20171 19.67373,-7.30179 8.62062,-4.1054 18.89316,-5.81618 24.58577,-14.22744 33.27494,-34.16174 66.32537,-68.95066 99.7405,-102.72077 6.39387,0.453878 9.68302,-6.801268 13.78125,-10.625 1.38616,-3.21734 -1.95199,-6.85811 2.52717,-8.722523 7.19262,-4.616664 2.32359,-13.834241 -2.43342,-18.214977 -3.53818,-3.483509 -8.17263,-6.88197 -13.375,-6.84375 z" stroke-opacity="1" fill="#000000" stroke="none" stroke-linejoin="round" fill-opacity="0.358" stroke-linecap="round" stroke-width="0.656" stroke-dashoffset="0" stroke-miterlimit="4"/>
  <path inkscape:connector-curvature="0" id="path2904" d="m 472.04012,47.669105 c -1.47522,-0.04274 -2.68591,0.345111 -3.53125,1.21875 l -5.65625,5.8125 c -1.22602,-0.42081 -2.35761,-0.637317 -3.34375,-0.65625 -1.28219,-0.02462 -2.32822,0.304687 -3.03125,1.03125 l -1.6875,1.75 c -3.63732,-1.714261 -7.75924,-5.598058 -10.9375,-5.21875 -0.81873,0.09771 -1.54671,0.476847 -2.21875,1.25 l -44.34375,45.5625 c -3.60625,4.228715 0.008,3.499375 3.03125,2.937495 6.78224,-1.2604 16.67973,-4.890955 11.0625,-10.749995 l 31.03125,-31.125 c 1.81239,-1.369425 3.63729,-1.312604 5.5,0.375 l 2.09375,1.875 -1.09375,1.15625 c 0.49354,-0.354173 1.27264,-0.37868 2.21875,-0.15625 -1.22615,-0.03959 -2.21197,0.252281 -2.875,0.9375 -0.94479,0.976424 -1.0847,2.602375 -0.5625,4.59375 l -106,109.562495 c -2.42689,8.32203 -8.15791,22.65287 -13.90625,37 L 364.22762,199.6066 470.32137,89.981605 c 1.90023,0.39297 3.435,0.18916 4.34375,-0.75 1.06115,-1.09665 1.08891,-3.00829 0.3125,-5.34375 1.08722,2.14807 1.39033,3.93966 0.5,5.0625 l 7.71875,-8 c 1.26593,-1.30828 1.20861,-3.67335 0.0937,-6.53125 l 5.59375,-5.8125 c 2.70513,-2.795646 0.33789,-9.438833 -5.3125,-14.90625 -3.88464,-3.75885 -8.28575,-5.937218 -11.53125,-6.03125 z" stroke-opacity="1" fill="#000000" stroke="none" stroke-linejoin="round" fill-opacity="0.358" stroke-linecap="round" stroke-width="0.656" stroke-dashoffset="0" stroke-miterlimit="4"/>
 </g>
 <g id="g2863" transform="matrix(-1.100712,1.065067,1.065067,1.100712,65.484692,34.331852)">
  <path inkscape:connector-curvature="0" d="m 43.861934,-0.24499563 c 5.133405,0 9.266073,2.04471973 9.266073,4.58457263 v 6.986015 c -0.365473,-4.6604097 -18.59043,-3.5866289 -18.532146,0 V 4.339577 c 0,-2.5398529 4.132669,-4.58457263 9.266073,-4.58457263 z" id="path2819" sodipodi:nodetypes="cccccc" stroke-opacity="1" fill="url(#linearGradient2878)" stroke="#000000" stroke-linejoin="round" fill-opacity="1" stroke-linecap="round" stroke-width="0.428" stroke-dashoffset="0" stroke-miterlimit="4"/>
  <path inkscape:connector-curvature="0" d="m 46.053232,-0.01877408 4.051425,1.18748678 -0.06985,7.1947728 c -1.598284,-0.851531 -2.979491,-0.834751 -4.400687,-0.97793 l 0.419114,-7.40432958 z" id="path2823" sodipodi:nodetypes="ccccc" stroke-dasharray="none" stroke-opacity="1" fill="url(#linearGradient2880)" fill-rule="evenodd" stroke="none" stroke-linejoin="round" fill-opacity="1" stroke-linecap="round" stroke-width="0" stroke-miterlimit="4"/>
  <path inkscape:connector-curvature="0" sodipodi:nodetypes="cccccc" id="rect1873" d="m 43.914894,7.9432626 c 6.726582,0 12.141844,2.1256174 12.141844,4.7659574 v 7.262412 c -0.478899,-4.844796 -24.36006,-3.728532 -24.283688,0 V 12.70922 c 0,-2.64034 5.415263,-4.7659574 12.141844,-4.7659574 z" stroke-opacity="1" fill="url(#linearGradient2882)" stroke="#000000" stroke-linejoin="round" fill-opacity="1" stroke-linecap="round" stroke-width="0.5" stroke-dashoffset="0" stroke-miterlimit="4"/>
  <rect ry="4.495" rx="11.756" y="15.977" x="31.809" height="8.99" width="24" id="rect2781" opacity="1" stroke-dasharray="none" stroke-opacity="1" fill="url(#linearGradient2884)" stroke="#000000" stroke-linejoin="round" fill-opacity="1" stroke-linecap="round" stroke-width="0.5" stroke-dashoffset="0" stroke-miterlimit="4"/>
  <rect rx="4.941" ry="2.396" y="20.493" x="38.93" height="98.82" width="9.882" id="rect2829" opacity="1" stroke-dasharray="none" stroke-opacity="1" fill="url(#linearGradient2886)" stroke="none" stroke-linejoin="round" fill-opacity="1" stroke-linecap="round" stroke-width="0" stroke-dashoffset="0" stroke-miterlimit="4"/>
  <path inkscape:connector-curvature="0" d="m 43.865487,16.616341 c 5.67053,0 10.235613,2.132714 10.235613,4.781869 V 122.4041 c -0.403714,-4.86097 -20.535608,-3.74098 -20.471226,0 V 21.39821 c 0,-2.649155 4.565084,-4.781869 10.235613,-4.781869 z" id="path2791" sodipodi:nodetypes="cccccc" opacity="0.653" stroke-opacity="1" fill="url(#linearGradient2888)" stroke="#000000" stroke-linejoin="round" fill-opacity="1" stroke-linecap="round" stroke-width="0.46" stroke-dashoffset="0" stroke-miterlimit="4"/>
  <path inkscape:connector-curvature="0" sodipodi:nodetypes="ccccc" id="path2795" d="m 47.429621,8.1336844 4.051425,1.1874868 -0.06985,7.1947728 c -1.598284,-0.851531 -2.979491,-0.834751 -4.400687,-0.97793 l 0.419114,-7.4043296 z" stroke-dasharray="none" stroke-opacity="1" fill="url(#linearGradient2890)" fill-rule="evenodd" stroke="none" stroke-linejoin="round" fill-opacity="1" stroke-linecap="round" stroke-width="0" stroke-miterlimit="4"/>
  <path inkscape:connector-curvature="0" d="m 46.680964,16.967837 4.051425,1.187486 -0.06985,101.085167 c -1.598284,-0.85153 -2.979491,-0.83475 -4.400687,-0.97793 z" id="path2805" sodipodi:nodetypes="ccccc" opacity="0.622" stroke-dasharray="none" stroke-opacity="1" fill="url(#linearGradient2892)" fill-rule="evenodd" stroke="none" stroke-linejoin="round" fill-opacity="1" stroke-linecap="round" stroke-width="0" stroke-miterlimit="4"/>
  <path inkscape:connector-curvature="0" sodipodi:nodetypes="cccccsccc" id="path2809" d="m 32.609834,12.700944 v 4.764424 l -2.646902,0.105876 c -1.640163,0.05385 -2.524131,0.863904 -2.752778,2.329274 l -0.423505,28.692419 c 5.295648,0.198798 2.292363,6.387669 -0.317628,10.058228 -1.163511,1.636303 -2.524971,3.621374 -2.752778,0 L 23.822119,17.14774 c -0.19036,-3.561998 5.828355,-2.984612 8.787715,-4.446796 z" stroke-dasharray="none" stroke-opacity="1" fill="#ababab" fill-rule="evenodd" stroke="url(#linearGradient2894)" stroke-linejoin="round" fill-opacity="1" stroke-linecap="round" stroke-width="0.8" stroke-miterlimit="4"/>
  <rect y="18.1" x="24.457" height="41.4" width="0.741" id="rect2827" opacity="1" stroke-dasharray="none" stroke-opacity="1" fill="#fff9f9" stroke="#000000" stroke-linejoin="round" fill-opacity="0.672" stroke-linecap="round" stroke-width="0" stroke-dashoffset="0" stroke-miterlimit="4"/>
  <path inkscape:connector-curvature="0" sodipodi:nodetypes="cccc" id="path2839" d="M 43.918305,146.07198 54.1011,122.4041 c -0.403714,-4.86097 -20.535608,-3.74098 -20.471226,0 2.639549,5.00652 6.471878,14.32643 10.288431,23.66788 z" opacity="1" stroke-dasharray="none" stroke-opacity="1" fill="url(#linearGradient2896)" stroke="#000000" stroke-linejoin="round" fill-opacity="1" stroke-linecap="round" stroke-width="0.3" stroke-dashoffset="0" stroke-miterlimit="4"/>
  <path inkscape:connector-curvature="0" d="M 43.918305,146.07198 54.1011,122.4041 c -0.403714,-4.86097 -20.535608,-3.74098 -20.471226,0 2.639549,5.00652 6.471878,14.32643 10.288431,23.66788 z" id="path2843" sodipodi:nodetypes="cccc" opacity="1" stroke-dasharray="none" stroke-opacity="1" fill="url(#linearGradient2898)" stroke="none" stroke-linejoin="round" fill-opacity="1" stroke-linecap="round" stroke-width="0" stroke-dashoffset="0" stroke-miterlimit="4"/>
  <rect rx="1.629" ry="0.912" y="142.08" x="42.36" height="6.387" width="3.259" id="rect2853" opacity="1" stroke-dasharray="none" stroke-opacity="1" fill="url(#linearGradient2900)" stroke="none" stroke-linejoin="round" fill-opacity="1" stroke-linecap="round" stroke-width="0" stroke-dashoffset="0" stroke-miterlimit="4"/>
 </g>
 <g id="g1620" transform="translate(303.14887,-5.7997186)">
  <ellipse ry="21.07" rx="81.62" cy="184.04" cx="-133.4" id="ellipse1199" opacity="1" stroke-dasharray="none" stroke-opacity="0.65" fill="url(#radialGradient1255)" fill-rule="nonzero" stroke="#22276a" stroke-linejoin="round" fill-opacity="1" stroke-linecap="round" stroke-width="0.996" stroke-miterlimit="4"/>
  <path sodipodi:nodetypes="cssccsscccc" inkscape:connector-curvature="0" id="path1201" d="m -215.47183,184.61837 c 0.23023,-1.15115 3.21389,-31.79847 5.29524,-37.29692 2.06405,-5.45272 4.13398,-10.15676 10.36026,-14.27412 11.07508,-7.32382 27.96889,-14.86831 42.59215,-20.72051 22.24501,19.49175 15.28029,25.36267 42.25012,-0.54762 11.09572,2.95778 37.407256,10.7279 47.308527,16.66357 3.898242,2.33694 6.329604,6.15514 7.597512,12.20207 l 8.978895,42.82238 c -4.33354,8.35389 -22.769907,18.411 -22.79256,9.20912 -1.704761,18.50048 -124.837774,13.40572 -122.020774,0 -4.47337,7.41448 -13.40696,-1.2046 -19.56937,-8.05797 z" stroke-opacity="0.306" fill="#0e0e0e" fill-rule="evenodd" stroke="#000000" stroke-linejoin="miter" fill-opacity="0.683" stroke-linecap="butt" stroke-width="1.245"/>
  <path sodipodi:nodetypes="ccccc" inkscape:connector-curvature="0" id="path1203" d="m -193.80622,150.54465 117.512141,-0.21314 c 0,0 8.398319,43.26574 2.412393,43.03551 -12.312282,16.68777 -123.091444,10.50556 -122.251004,2e-5 z" stroke-opacity="1" fill="url(#linearGradient1480)" fill-rule="evenodd" stroke="none" stroke-linejoin="miter" fill-opacity="1" stroke-linecap="butt" stroke-width="1.245"/>
  <path sodipodi:nodetypes="ccccc" inkscape:connector-curvature="0" id="path1205" d="m -196.1761,192.68603 3.54087,-41.73936 -5.57956,19.85035 -4.07736,23.17661 c 1.37634,1.1235 4.5802,2.2049 6.11605,-1.2876 z" stroke-opacity="1" fill="url(#linearGradient1482)" fill-rule="evenodd" stroke="none" stroke-linejoin="miter" fill-opacity="1" stroke-linecap="butt" stroke-width="1.245"/>
  <path d="m -73.515206,193.09592 -3.54086,-41.73935 5.579554,19.85035 4.077363,23.1766 c -1.376343,1.1235 -4.580197,2.20491 -6.116057,-1.2876 z" id="path1207" inkscape:connector-curvature="0" sodipodi:nodetypes="ccccc" stroke-opacity="1" fill="url(#linearGradient1484)" fill-rule="evenodd" stroke="none" stroke-linejoin="miter" fill-opacity="1" stroke-linecap="butt" stroke-width="1.245"/>
  <g transform="matrix(1.2446694,0,0,1.2446694,-241.02712,12.638152)" id="g1215">
   <path sodipodi:nodetypes="ccc" inkscape:connector-curvature="0" id="path1209" d="m 39.213873,110.79769 91.745667,-0.92486 c -1.91028,59.75733 -89.727242,55.58613 -91.745667,0.92486 z" stroke-opacity="1" fill="url(#linearGradient1486)" fill-rule="evenodd" stroke="none" stroke-linejoin="miter" fill-opacity="1" stroke-linecap="butt" stroke-width="1"/>
   <path d="m 40.971342,112.02792 87.527738,-0.57337 c -1.91028,55.99928 -85.509313,51.97005 -87.527738,0.57337 z" id="path1211" inkscape:connector-curvature="0" sodipodi:nodetypes="ccc" stroke-opacity="1" fill="url(#linearGradient1486)" fill-rule="evenodd" stroke="none" stroke-linejoin="miter" fill-opacity="1" stroke-linecap="butt" stroke-width="1"/>
   <path sodipodi:nodetypes="ccc" inkscape:connector-curvature="0" id="path1213" d="m 43.080305,113.96114 83.134065,0.12961 c -1.65786,51.45565 -80.900011,47.38574 -83.134065,-0.12961 z" stroke-opacity="1" fill="url(#linearGradient1486)" fill-rule="evenodd" stroke="none" stroke-linejoin="miter" fill-opacity="1" stroke-linecap="butt" stroke-width="1"/>
  </g>
  <path d="m -215.11411,184.78211 c 0.23023,-1.15115 3.21388,-31.79847 5.29524,-37.29692 2.06405,-5.45272 4.13397,-10.15677 10.36025,-14.27414 11.07509,-7.32381 27.9689,-14.86831 42.59216,-20.72051 20.09177,18.30362 14.67688,27.68691 41.90147,-0.46046 11.09572,2.95779 37.755908,10.64075 47.657178,16.57641 3.89824,2.33694 6.3296,6.15514 7.59751,12.20209 l 8.97889,42.82238 c -4.33354,8.35389 -22.7699,18.411 -22.79256,9.20912 -1.70476,18.50048 -124.837768,13.40571 -122.020768,0 -4.47337,7.41447 -13.40697,-1.2046 -19.56937,-8.05797 z" id="path1217" inkscape:connector-curvature="0" sodipodi:nodetypes="cssccsscccc" stroke-opacity="0.306" fill="url(#linearGradient1492)" fill-rule="evenodd" stroke="#2c2c2c" stroke-linejoin="miter" fill-opacity="1" stroke-linecap="butt" stroke-width="1.245"/>
  <ellipse transform="matrix(0.83056113,-0.55692748,0.42215995,0.90652136,0,0)" ry="8.548" rx="14.78" cy="8.956" cx="-235.49" id="ellipse1219" opacity="1" stroke-dasharray="none" stroke-opacity="0.306" fill="url(#radialGradient1271)" fill-rule="nonzero" stroke="none" stroke-linejoin="round" fill-opacity="1" stroke-linecap="round" stroke-width="0.996" stroke-miterlimit="4"/>
  <g transform="matrix(1.2446694,0,0,1.2446694,-241.02712,12.638152)" id="g1229" fill="#a7b0e4" fill-opacity="0.102">
   <path d="m 44.815466,107.62742 c 22.17414,-7.4294 45.342107,6.94922 57.469244,2.28471 -19.158339,-0.82699 -44.265578,-17.864094 -57.469244,-2.28471 z" id="path1221" inkscape:connector-curvature="0" sodipodi:nodetypes="ccc" stroke-opacity="1" fill="#a7b0e4" fill-rule="evenodd" stroke="none" stroke-linejoin="miter" fill-opacity="0.102" stroke-linecap="butt" stroke-width="1"/>
   <path sodipodi:nodetypes="ccc" inkscape:connector-curvature="0" id="path1223" d="m 46.153603,106.75248 c 22.071206,-5.62806 41.945298,5.86842 54.432707,3.31405 -19.000315,-1.40764 -42.135984,-16.500861 -54.432707,-3.31405 z" stroke-opacity="1" fill="#a7b0e4" fill-rule="evenodd" stroke="none" stroke-linejoin="miter" fill-opacity="0.102" stroke-linecap="butt" stroke-width="1"/>
   <path d="M 47.543207,106.03194 C 68.842411,101.17589 85.628494,111.0769 98.321771,110.118 79.424389,108.19569 59.376728,95.367007 47.543207,106.03194 Z" id="path1225" inkscape:connector-curvature="0" sodipodi:nodetypes="ccc" stroke-opacity="1" fill="#a7b0e4" fill-rule="evenodd" stroke="none" stroke-linejoin="miter" fill-opacity="0.102" stroke-linecap="butt" stroke-width="1"/>
   <path sodipodi:nodetypes="ccc" inkscape:connector-curvature="0" id="path1227" d="m 49.447479,105.25994 c 20.630135,-4.23845 32.681272,4.37589 45.52895,4.54926 -19.720851,-2.17964 -34.673299,-12.332054 -45.52895,-4.54926 z" stroke-opacity="1" fill="#a7b0e4" fill-rule="evenodd" stroke="none" stroke-linejoin="miter" fill-opacity="0.102" stroke-linecap="butt" stroke-width="1"/>
  </g>
  <path sodipodi:nodetypes="ccccc" inkscape:connector-curvature="0" id="path1231" d="m -160.96363,96.714051 c 17.46066,24.325749 37.08525,18.404619 46.75408,0 l -0.16053,15.187979 c -26.8268,24.87336 -20.79502,21.13393 -43.18194,-0.11163 z" opacity="1" stroke-dasharray="none" stroke-opacity="0.306" fill="url(#radialGradient1273)" fill-rule="nonzero" stroke="none" stroke-linejoin="round" fill-opacity="1" stroke-linecap="round" stroke-width="0.996" stroke-miterlimit="4"/>
  <g transform="matrix(1.2446694,0,0,1.2446694,-241.02712,12.638152)" id="g1241" fill="#afb7de" fill-opacity="0.049">
   <path d="M 67.264574,79.730942 C 84.116608,97.634797 81.317724,99.440213 101.43497,79.641255 83.954945,93.163413 82.753701,92.69943 67.264574,79.730942 Z" id="path1233" inkscape:connector-curvature="0" sodipodi:nodetypes="ccc" stroke-opacity="1" fill="#afb7de" fill-rule="evenodd" stroke="none" stroke-linejoin="miter" fill-opacity="0.049" stroke-linecap="butt" stroke-width="1"/>
   <path sodipodi:nodetypes="ccc" inkscape:connector-curvature="0" id="path1235" d="m 70.313901,82.600897 c 14.119794,12.764836 10.73739,15.787379 28.551748,-0.631969 -14.683502,10.65415 -16.275481,10.66598 -28.551748,0.631969 z" stroke-opacity="1" fill="#afb7de" fill-rule="evenodd" stroke="none" stroke-linejoin="miter" fill-opacity="0.049" stroke-linecap="butt" stroke-width="1"/>
   <path d="m 74.490326,86.15281 c 8.069833,6.714875 7.536765,11.298698 21.369859,-1.763898 -11.749011,7.751569 -12.665344,8.137527 -21.369859,1.763898 z" id="path1237" inkscape:connector-curvature="0" sodipodi:nodetypes="ccc" stroke-opacity="1" fill="#afb7de" fill-rule="evenodd" stroke="none" stroke-linejoin="miter" fill-opacity="0.049" stroke-linecap="butt" stroke-width="1"/>
   <path sodipodi:nodetypes="ccc" inkscape:connector-curvature="0" id="path1239" d="m 77.925143,88.924082 c 5.1034,3.162963 4.14098,6.927114 15.241834,-2.349378 -7.494523,3.731273 -8.918272,6.693343 -15.241834,2.349378 z" stroke-opacity="1" fill="#afb7de" fill-rule="evenodd" stroke="none" stroke-linejoin="miter" fill-opacity="0.049" stroke-linecap="butt" stroke-width="1"/>
  </g>
  <path sodipodi:nodetypes="sssss" inkscape:connector-curvature="0" id="path1243" d="m -101.495,64.43942 c -5.20457,26.385451 -16.41304,48.59259 -35.23897,48.59259 -18.82594,0 -31.93193,-21.937012 -35.23898,-48.59259 -4.83672,-38.985098 16.41304,-48.592594 35.23898,-48.592594 18.82593,0 41.687925,15.898502 35.23897,48.592594 z" opacity="1" stroke-dasharray="none" stroke-opacity="0.65" fill="url(#radialGradient1275)" fill-rule="nonzero" stroke="url(#linearGradient1494)" stroke-linejoin="round" fill-opacity="1" stroke-linecap="round" stroke-width="0.967" stroke-miterlimit="4"/>
  <path d="m -102.84767,63.749765 c -5.07192,25.712912 -15.99469,47.354025 -34.34077,47.354025 -18.34608,0 -31.11801,-21.37787 -34.34077,-47.354025 -4.71344,-37.991407 15.99469,-47.354018 34.34077,-47.354018 18.34608,0 40.625342,15.493266 34.34077,47.354018 z" id="path1245" inkscape:connector-curvature="0" sodipodi:nodetypes="sssss" opacity="1" stroke-dasharray="none" stroke-opacity="0.65" fill="url(#linearGradient1496)" fill-rule="nonzero" stroke="none" stroke-linejoin="round" fill-opacity="1" stroke-linecap="round" stroke-width="0.996" stroke-miterlimit="4"/>
  <ellipse id="ellipse1247" cx="-148.42" cy="-47.776" rx="19.667" ry="10.471" transform="matrix(0.86812861,-0.49633932,0.47933902,0.87762982,0,0)" opacity="1" stroke-dasharray="none" stroke-opacity="0.306" fill="url(#radialGradient1281)" fill-rule="nonzero" stroke="none" stroke-linejoin="round" fill-opacity="1" stroke-linecap="round" stroke-width="0.996" stroke-miterlimit="4"/>
  <path inkscape:connector-curvature="0" id="path1249" d="m -125.57407,21.217013 -1.88234,3.680986 c 5.13927,1.770375 9.57701,4.619728 12.01635,8.388158 l 3.18589,-3.477123 c -2.38652,-2.556873 -9.04535,-8.410681 -13.3199,-8.592021 z m -2.39062,4.977462 -1.88235,3.614559 c 4.07207,2.227266 6.78582,4.320878 9.55764,7.364262 l 3.69173,-3.341978 c -2.16196,-2.78726 -7.52488,-7.399582 -11.36702,-7.636843 z m 16.22852,4.386489 -3.41447,3.424439 c 3.45172,3.901499 5.39646,8.279023 5.94372,12.662407 l 4.39456,-1.816441 c 0.21233,-3.20917 -4.55612,-11.584822 -6.92381,-14.270405 z m -4.46995,4.278831 -3.42179,2.801396 c 2.74221,3.937899 4.08074,7.701057 4.32892,11.521692 l 4.99769,-2.185228 c -0.038,-3.614531 -3.56596,-9.93883 -5.90482,-12.13786 z" stroke-opacity="1" fill="url(#radialGradient1283)" fill-rule="evenodd" stroke="none" stroke-linejoin="miter" fill-opacity="1" stroke-linecap="butt" stroke-width="1.245"/>
  <path sodipodi:nodetypes="ccc" inkscape:connector-curvature="0" id="path1251" d="m -164.41602,82.314537 c 19.3236,2.442527 30.71538,17.883453 30.94754,29.072533 -8.78872,-1.65828 -29.50892,-10.45248 -30.94754,-29.072533 z" stroke-opacity="1" fill="url(#linearGradient1498)" fill-rule="evenodd" stroke="none" stroke-linejoin="miter" fill-opacity="1" stroke-linecap="butt" stroke-width="1.245"/>
 </g>
</svg>
